<svg width="26.465" height="79.547" version="1.1" viewBox="0 0 26.465 79.547" xmlns="http://www.w3.org/2000/svg">
 <g transform="translate(-226.2 -159.13)">
  <g fill="#fff">
   <path transform="matrix(1.3333 0 0 -1.3333 0 1120.8)" d="m175.92 719.57-0.12-0.39c-0.07-0.24-0.1-0.5-0.1-0.74l0.05-2.3v0.12l-0.14-5.36v0.05l-0.22-3.96v-0.26l0.43-9.77v-0.02l0.32-5.24v0.05l0.21-6.07v0.12-0.29c0-1.58 1.3-2.85 2.86-2.85 1.58 0 2.85 1.27 2.85 2.85v0.41l-0.24 6.07-0.02 0.07-0.34 5.24v-0.03l-0.64 9.77v-0.24l0.09 3.96v0.1l-0.05 5.35-0.02 0.24-0.24 2.28c-0.02 0.17-0.05 0.31-0.1 0.45l-0.09 0.39c-0.31 0.98-1.23 1.68-2.26 1.68s-1.94-0.7-2.23-1.68z"/>
   <path transform="matrix(1.3333 0 0 -1.3333 0 1120.8)" d="m172.1 706.97 0.94 0.09-0.36-0.02 1.94-0.1h0.29l2.98 0.22h-0.07l2.92 0.12h-0.02l0.6 0.02-0.38 0.03 0.57-0.07 0.07-0.03 1.66-0.17h-0.05l0.41-0.04c0.91-0.12 1.82 0.26 2.35 0.98 0.55 0.74 0.65 1.7 0.29 2.54s-1.18 1.42-2.06 1.49l-0.44 0.05h-0.07l-1.65 0.12h-0.1l-0.6 0.02-0.38-0.02-0.6-0.07h0.09l-2.9-0.24h-0.03l-2.97-0.29 0.19 0.02-1.94-0.02c-0.15 0-0.29 0-0.44-0.05l-0.91-0.19c-1.17-0.24-1.94-1.34-1.75-2.52 0.17-1.18 1.25-1.99 2.42-1.87z"/>
   <path transform="matrix(1.3333 0 0 -1.3333 0 1120.8)" d="m177.79 672.82 0.46 0.4-0.94-0.55 0.96 0.31-0.72-0.14 0.55 0.05c0.32 0.02 0.63 0.09 0.92 0.21l0.21 0.1-1.37-0.22 0.29-0.02c0.29-0.02 0.6 0 0.89 0.05l0.31 0.07-0.67-0.07h0.36l0.79 0.02 0.17 0.03h0.24l-0.86 0.07 0.24-0.05c0.28-0.07 0.57-0.1 0.86-0.07l0.24 0.02-0.86 0.05 0.24-0.05-0.44 0.15 0.27-0.1c0.21-0.1 0.45-0.17 0.69-0.19l0.24-0.03-1.03 0.32 0.19-0.1c0.27-0.14 0.56-0.24 0.87-0.29l0.29-0.05-0.99 0.34 0.22-0.12 0.24-0.12 0.21-0.1 0.34-0.14-0.6 0.34 0.22-0.17 0.21-0.12 0.22-0.12-0.53 0.38 0.22-0.19c0.19-0.17 0.4-0.34 0.64-0.46l0.22-0.12-0.77 0.58 0.17-0.17 0.17-0.14 0.17-0.17-0.17 0.17 0.17-0.17v-0.02l0.45-0.46-0.19 0.22 0.19-0.22c0.15-0.19 0.31-0.36 0.53-0.5l0.19-0.17c1.35-1.01 3.22-0.77 4.25 0.55s0.79 3.19-0.5 4.22l-0.22 0.2 0.5-0.51-0.19 0.24-0.26 0.27-0.46 0.45-0.02 0.03-0.17 0.16-0.17 0.15-0.17 0.14 0.17-0.14-0.17 0.17c-0.24 0.21-0.5 0.4-0.79 0.55l-0.24 0.09 0.67-0.43-0.21 0.19c-0.17 0.15-0.36 0.27-0.55 0.39l-0.22 0.12 0.22-0.15-0.22 0.15c-0.22 0.14-0.41 0.24-0.62 0.31l-0.22 0.07 0.19-0.05-0.21 0.08 0.24-0.12-0.22 0.12c-0.31 0.16-0.62 0.28-0.98 0.33l-0.27 0.05 0.84-0.26-0.19 0.07c-0.34 0.17-0.7 0.26-1.06 0.29l-0.24 0.02 0.75-0.14-0.27 0.07c-0.14 0.07-0.28 0.09-0.45 0.12l-0.24 0.05c-0.29 0.04-0.58 0.07-0.89 0.04l-0.22-0.04 0.87-0.03-0.24 0.05c-0.29 0.05-0.58 0.07-0.87 0.02l-0.24-0.02h0.05l-0.79-0.07-0.34-0.05-0.24-0.05c-0.14-0.05-0.31-0.07-0.45-0.14l-0.31-0.12 0.81 0.19-0.29-0.02c-0.5-0.05-0.98-0.22-1.39-0.53l-0.19-0.15 0.86 0.44-0.55-0.15c-0.31-0.09-0.6-0.24-0.86-0.43l-0.82-0.6c-0.62-0.46-1.03-1.18-1.08-1.92l-0.05-0.62c-0.07-0.99 0.46-1.92 1.35-2.36 0.89-0.4 1.94-0.26 2.66 0.44z"/>
   <path transform="matrix(1.3333 0 0 -1.3333 0 1120.8)" d="m179.76 689.86h-0.05l1.01-0.46-0.02 0.02 0.5-0.52-0.05 0.07c-0.12 0.14-0.26 0.31-0.41 0.43l-0.04 0.02-0.12 0.12c-0.32 0.22-0.68 0.41-1.06 0.48h-0.02l-0.05 0.03 1.44-0.87-0.05 0.05c-0.89 1.06-2.47 1.23-3.6 0.39l-0.05-0.03 2.16 0.46h-0.05l1.06-0.48-0.02 0.02 0.09-0.07-0.02 0.02c-0.34 0.29-0.75 0.48-1.18 0.58h-0.07c-0.43 0.1-0.86 0.1-1.32-0.02l-0.05-0.03 1.35 0.05h-0.05c-0.51 0.12-1.06 0.07-1.54-0.1l-0.09-0.02c-0.44-0.17-0.84-0.46-1.16-0.82l-0.07-0.07 1.75 0.96h-0.09c-0.6-0.09-1.18-0.36-1.61-0.81l-0.1-0.08 1.52 0.77h-0.08c-0.38-0.07-0.76-0.21-1.08-0.43l-0.14-0.1c-0.17-0.09-0.31-0.21-0.46-0.36l-0.07-0.07 0.34 0.27-0.1-0.05c-0.12-0.1-0.24-0.19-0.33-0.29l-0.15-0.14c-0.24-0.24-0.41-0.48-0.55-0.77l-0.38-0.72 0.12 0.21-0.41-0.64-0.12-0.22-0.34-0.67-0.12-0.24-0.26-0.67-0.05-0.1-0.29-0.74-0.02-0.15-0.55-1.7-0.05-0.19-0.31-1.23-0.05-0.21-0.19-1.23-0.03-0.19-0.31-3.17-0.02-0.12-0.05-0.86v-1.15l0.02-0.82 0.03-0.34 0.26-1.94 0.02-0.12 0.05-0.41 0.05-0.17 0.1-0.4-0.03 0.14 0.07-0.38c0.03-0.2 0.1-0.41 0.17-0.58l0.15-0.36-0.1 0.26 0.12-0.4 0.12-0.34 0.14-0.34 0.12-0.24 0.17-0.36 0.22-0.36-0.05 0.08 0.17-0.34c0.05-0.12 0.12-0.24 0.21-0.36l0.53-0.82c0.12-0.16 0.24-0.31 0.39-0.45l0.21-0.22-0.12 0.12 0.24-0.24-0.02 0.03 0.19-0.24c0.14-0.17 0.31-0.32 0.5-0.46l0.27-0.19-0.24 0.19 0.19-0.17 0.26-0.21 0.27-0.2 0.14-0.09 0.27-0.17-0.05 0.02 0.21-0.14c0.12-0.07 0.27-0.17 0.41-0.24l0.34-0.14 0.14-0.05 0.24-0.1-0.14 0.05 0.29-0.14 0.24-0.1 0.26-0.1 0.1-0.02 0.28-0.1 0.17-0.04 0.79-0.24 0.29-0.05 0.15-0.03 0.12-0.02 0.21-0.02 0.19-0.03c0.29-0.05 0.6-0.05 0.89 0.03h0.15l-1.04 0.02 0.15-0.02c0.33-0.08 0.69-0.08 1.03-0.03l0.14 0.03 0.15 0.02-1.27 0.07 0.19-0.05c0.41-0.12 0.86-0.14 1.27-0.07l0.14 0.03c0.27 0.04 0.51 0.12 0.75 0.21l0.17 0.07-0.75-0.21 0.15 0.02 0.14 0.03c0.17 0.02 0.34 0.07 0.5 0.12l0.22 0.07c0.12 0.05 0.26 0.09 0.38 0.17l0.1 0.02 0.19 0.1 0.17 0.09-1.08-0.36 0.14 0.03c0.48 0.07 0.94 0.26 1.35 0.52l0.17 0.12-0.46-0.26 0.12 0.05c0.14 0.07 0.29 0.17 0.43 0.26l0.17 0.12-0.22-0.14 0.12 0.07c0.22 0.14 0.44 0.29 0.63 0.48l0.12 0.12 0.19 0.22 0.12 0.14-0.55-0.5 0.09 0.04c0.12 0.1 0.24 0.2 0.34 0.32l0.14 0.12 0.2 0.21 0.12 0.15-0.22-0.22 0.12 0.12-0.6-0.48 0.12 0.07c0.55 0.34 0.98 0.82 1.27 1.39l0.15 0.32-0.1-0.2 0.22 0.41 0.07 0.15 0.21 0.43 0.12 0.26 0.17 0.46-0.05-0.12 0.17 0.41 0.1 0.21 0.17 0.51 0.04 0.14 0.12 0.43 0.03 0.05 0.12 0.46 0.09 0.33 0.08 0.48 0.07 0.48 0.02 0.15 0.05 0.48 0.02 0.36v3.02l-0.02 0.24-0.1 0.98-0.04 0.34-0.56 2.74-0.04 0.24-0.24 0.86-0.03 0.05-0.26 0.91-0.05 0.22-0.79 2.16c-0.07 0.19-0.17 0.4-0.29 0.57l-0.24 0.41 0.17-0.29-0.22 0.43-0.14 0.29-0.24 0.39-0.17 0.26-0.24 0.31 0.19-0.29-0.26 0.44c-0.1 0.16-0.19 0.31-0.31 0.45l-0.29 0.34 0.07-0.1-0.26 0.36-0.2 0.24-0.62 0.67c-0.17 0.2-0.36 0.36-0.58 0.51l-0.38 0.26c-1.03 0.75-2.4 0.84-3.53 0.31-1.15-0.55-1.92-1.65-2.01-2.92-0.1-1.25 0.48-2.48 1.53-3.2l0.39-0.26-0.58 0.5 0.62-0.67-0.14 0.17 0.29-0.34 0.07-0.09 0.31-0.34-0.36 0.46 0.27-0.43 0.24-0.32 0.24-0.31-0.2 0.29 0.24-0.38-0.16 0.28 0.21-0.43 0.17-0.29 0.26-0.36-0.33 0.63 0.84-2.16-0.03 0.09 0.32-0.86-0.03 0.05 0.29-0.84-0.1 0.36 0.6-2.74-0.04 0.22 0.14-0.99-0.02 0.24 0.07-0.98v0.1l0.05-0.99v0.15-0.96l0.02 0.28-0.05-0.48v0.17l-0.05-0.48-0.07-0.48 0.07 0.34-0.12-0.46v0.05l-0.09-0.43 0.05 0.17-0.17-0.51 0.07 0.19-0.14-0.4-0.05-0.1-0.17-0.48 0.1 0.29-0.2-0.46 0.05 0.12-0.21-0.41-0.05-0.12-0.15-0.31 1.25 1.39-0.12-0.07c-0.21-0.14-0.43-0.31-0.6-0.48l-0.12-0.12-0.19-0.21-0.12-0.15 0.19 0.22-0.12-0.12 0.34 0.29-0.1-0.08c-0.21-0.14-0.38-0.31-0.53-0.5l-0.12-0.14 0.2 0.21-0.12-0.12 0.6 0.48-0.12-0.07-0.2-0.14-0.16-0.12 0.4 0.26-0.09-0.07c-0.15-0.05-0.29-0.15-0.41-0.24l-0.17-0.12 1.32 0.55-0.14-0.02c-0.39-0.08-0.72-0.2-1.06-0.39l-0.17-0.09 0.15 0.07-0.1-0.05 0.43 0.19-0.21-0.07 0.48 0.12-0.15-0.02-0.14-0.03c-0.26-0.05-0.5-0.12-0.72-0.21l-0.17-0.08 0.72 0.22-0.14-0.02 1.29-0.05-0.19 0.05c-0.43 0.09-0.86 0.12-1.29 0.04l-0.15-0.02-0.14-0.02h1.03l-0.14 0.02c-0.34 0.05-0.7 0.05-1.04 0l-0.14-0.02 0.91 0.02h-0.19l-0.19 0.02h0.12l-0.15 0.03 0.34-0.07-0.79 0.21 0.17-0.05-0.29 0.1 0.07-0.05-0.26 0.1 0.26-0.1-0.31 0.15-0.17 0.07-0.24 0.09 0.17-0.07-0.31 0.15 0.43-0.24-0.22 0.14-0.07 0.05-0.26 0.17 0.16-0.12-0.26 0.19 0.24-0.19-0.22 0.19-0.24 0.19-0.26 0.19 0.5-0.45-0.19 0.21-0.21 0.24-0.34 0.34 0.38-0.46-0.55 0.82 0.22-0.36-0.19 0.33-0.03 0.08-0.38 0.72 0.12-0.24-0.15 0.33 0.12-0.36-0.12 0.41-0.09 0.29-0.15 0.36 0.17-0.6-0.07 0.38-0.02 0.15-0.1 0.4 0.02-0.16-0.07 0.4 0.03-0.14-0.27 1.94 0.03-0.31-0.03 0.82v-0.1 0.89-0.19l0.05 0.86-0.02-0.12 0.31 3.15-0.03-0.17 0.2 1.22-0.05-0.21 0.29 1.22-0.08-0.22 0.53 1.71-0.05-0.1 0.27 0.75-0.05-0.1 0.26 0.67-0.09-0.26 0.31 0.69-0.12-0.24 0.41 0.68 0.12 0.21 0.33 0.75v-0.03l0.1 0.19 0.12 0.29 0.02 0.1c0.08 0.21 0.12 0.41 0.17 0.62v0.1l-0.45-1.2 0.09 0.12 0.03 0.02 0.02 0.07c0.17 0.24 0.26 0.48 0.34 0.75l0.04 0.12-0.69-1.18 0.07 0.07c0.22 0.2 0.38 0.44 0.5 0.7l0.05 0.07-0.45-0.62 0.07 0.07-1.44-0.84 0.05 0.02c0.38 0.08 0.76 0.27 1.08 0.51l0.04 0.02-1.1-0.5h0.07c0.43 0.09 0.84 0.31 1.18 0.6h0.02l-2.47-0.53 0.05-0.02c0.41-0.1 0.86-0.12 1.29-0.03h0.05c0.63 0.15 1.2 0.53 1.59 1.06l0.04 0.05-2.32-1.11h0.02c0.26 0 0.5 0 0.77 0.07h0.05l0.02 0.03-1.25 0.02 0.05-0.02c0.82-0.22 1.73-0.03 2.38 0.53l0.04 0.02-3.21-0.1 0.05-0.04c0.26-0.2 0.55-0.32 0.84-0.41h0.04c0.41-0.12 0.84-0.15 1.25-0.05l0.05 0.02c1.18 0.24 2.02 1.3 2.02 2.5s-0.84 2.23-2.02 2.5z"/>
  </g>
 </g>
</svg>
