<svg width="40.685" height="81.195" version="1.1" viewBox="0 0 40.685 81.195" xmlns="http://www.w3.org/2000/svg">
 <g transform="translate(-472.8 -159.52)" fill="#fff">
  <g transform="translate(141.45 1.2039)">
   <path transform="matrix(1.3333 0 0 -1.3333 0 1120.8)" d="m262.51 679.66 0.05-0.58v0.1l0.07-2.76v-0.08l0.19-3.33c0.03-0.19 0.08-0.41 0.12-0.6l0.05-0.17c0.29-0.84 0.96-1.44 1.8-1.63 0.84-0.17 1.71 0.12 2.28 0.77 0.58 0.64 0.75 1.56 0.46 2.35l-0.07 0.21 0.14-0.57-0.34 3.31 0.03-0.07-0.17 2.76-0.02 0.21-0.1 0.56c-0.17 1.2-1.27 2.04-2.47 1.89-1.2-0.14-2.09-1.17-2.02-2.37z" fill="#fff"/>
  </g>
  <g>
   <path transform="matrix(1.3333 0 0 -1.3333 0 1120.8)" d="m360.43 715.87 8.33-0.38h-0.02l7.1-0.36h0.1l0.31-0.03c1.08 0 2.04 0.56 2.59 1.47 0.53 0.91 0.53 2.04 0 2.95-0.55 0.91-1.51 1.46-2.59 1.44h-0.31 0.02l-7.13-0.12-8.33-0.12c-1.29-0.05-2.35-1.08-2.37-2.4-0.03-1.3 1.01-2.38 2.3-2.45z"/>
   <path transform="matrix(1.3333 0 0 -1.3333 0 1120.8)" d="m365.45 718.03-0.19 0.24c-0.56 0.63-1.37 0.96-2.21 0.87-0.82-0.1-1.59-0.58-1.97-1.3l-0.14-0.24-0.15-0.26c-0.09-0.17-0.17-0.34-0.21-0.51l-0.1-0.26 0.48 0.91-0.19-0.26c-0.36-0.44-0.58-0.99-0.6-1.54l-0.03-0.34 0.36 1.18-0.14-0.24-0.12-0.22-0.12-0.31c-0.12-0.24-0.22-0.53-0.24-0.79l-0.07-0.7v-0.07l-0.27-3v-0.05l-0.07-1.08v0.03l-0.05-0.82-0.02-0.21v-0.82l0.02-0.24 0.05-0.77 0.03-0.07 0.26-2.16 0.02-0.26 0.22-0.89 0.02-0.15 0.58-2.08 0.48-1.28v0.08l0.38-1.04 0.1-0.24 1.34-2.66c0.1-0.17 0.22-0.36 0.34-0.5l0.34-0.39 0.16-0.19 0.24-0.24c1.06-1.03 2.74-1.03 3.77 0s1.03 2.71 0 3.74l-0.24 0.27 0.15-0.19-0.32 0.4 0.34-0.52-1.32 2.68 0.1-0.28-0.39 1.03v0.05l-0.38 0.96 0.09-0.27-0.57 2.09 0.05-0.14-0.2 0.88 0.05-0.24-0.26 2.16 0.02-0.09-0.07 0.77v-0.22 0.82-0.22l0.07 0.84v0.07l0.07 1.08-0.02-0.07 0.26 2.98v0.02l0.05 0.72-0.17-0.72 0.12 0.34-0.07-0.2 0.12 0.27c0.17 0.36 0.24 0.77 0.24 1.17l-0.02 0.34-0.46-1.61 0.17 0.24c0.22 0.31 0.36 0.65 0.41 1.01l0.07 0.24-0.19-0.55 0.12 0.26 0.09 0.24-0.4-0.65 0.19 0.22c0.74 0.84 0.74 2.11 0 2.95z"/>
   <path transform="matrix(1.3333 0 0 -1.3333 0 1120.8)" d="m366.22 693.74 7.05-0.4c1.08-0.03 2.14 0.5 2.69 1.44 0.55 0.93 0.55 2.08 0 3-0.55 0.93-1.61 1.48-2.69 1.44l-7.05-0.39c-1.37-0.07-2.43-1.2-2.43-2.54 0-1.37 1.06-2.5 2.43-2.55z"/>
   <path transform="matrix(1.3333 0 0 -1.3333 0 1120.8)" d="m356.3 709.22 0.46-0.14 0.34-0.07 0.57-0.1h-0.05l0.46-0.07-0.41 0.12 0.36-0.14 0.36-0.1 0.39-0.07-0.56 0.17 0.46-0.2 0.17-0.07 0.89-0.33-0.53 0.26 0.19-0.12c0.72-0.48 1.68-0.58 2.45-0.17 0.79 0.39 1.32 1.15 1.37 2.04 0.04 0.89-0.36 1.73-1.11 2.21l-0.19 0.12c-0.17 0.12-0.36 0.19-0.53 0.26l-0.91 0.32 0.12-0.05-0.46 0.19c-0.19 0.07-0.38 0.12-0.57 0.14l-0.39 0.05 0.39-0.07-0.39 0.12c-0.14 0.02-0.26 0.07-0.43 0.07l-0.43 0.05-0.12 0.02-0.58 0.05 0.99-0.31-0.41 0.24c-0.82 0.43-1.8 0.38-2.57-0.12-0.74-0.53-1.13-1.44-1.01-2.35 0.17-0.91 0.8-1.66 1.68-1.95z"/>
   <path transform="matrix(1.3333 0 0 -1.3333 0 1120.8)" d="m378.02 707.59 1.54 0.41 2.47 0.58-0.57-0.08h0.09c0.87 0 1.66 0.46 2.09 1.2 0.41 0.72 0.41 1.66 0 2.38-0.43 0.74-1.22 1.2-2.09 1.18h-0.09c-0.22 0-0.39-0.03-0.58-0.08l-2.47-0.62-0.05-0.02-1.54-0.44c-1.22-0.36-1.94-1.63-1.6-2.83 0.33-1.25 1.58-1.97 2.8-1.68z"/>
   <path transform="matrix(1.3333 0 0 -1.3333 0 1120.8)" d="m372.38 716.42 0.29-0.76 0.15-0.29 0.26-0.46 0.22-0.31 0.28-0.38-0.31 0.52 0.22-0.5 0.05-0.12 0.21-0.46-0.14 0.46 0.12-0.53 0.07-0.26 0.17-0.43-0.05 0.14 0.17-0.53-0.05 0.12 0.12-0.53-0.02 0.12 0.09-0.5-0.02 0.17 0.07-0.53 0.02-0.17 0.1-0.5-0.05 0.17 0.07-0.53-0.02 0.26v-1.41 0.14l-0.1-1.9 0.03 0.2-0.7-4.71 0.05 0.24-0.24-0.98-0.02-0.07-0.22-0.99 0.12 0.39-0.36-0.96-0.02-0.03-0.39-1.01 0.05 0.12-0.98-2.2-0.12-0.36-0.08-0.27c-0.21-0.89 0.03-1.8 0.68-2.45 0.64-0.64 1.58-0.86 2.44-0.62 0.87 0.26 1.54 0.96 1.73 1.85l0.07 0.26-0.12-0.41 0.94 2.24 0.07 0.14 0.34 1.01v-0.03l0.33 0.96 0.1 0.41 0.22 0.99-0.03-0.08 0.22 1.01 0.02 0.17 0.65 4.7 0.02 0.22 0.1 1.9v0.12l-0.02 1.41v0.31l-0.1 0.56-0.02 0.16-0.1 0.48 0.02-0.14-0.07 0.5-0.02 0.17-0.12 0.51-0.03 0.12-0.14 0.52-0.02 0.12-0.17 0.53-0.05 0.17-0.19 0.41 0.09-0.27-0.14 0.53c-0.02 0.17-0.1 0.31-0.17 0.48l-0.24 0.46 0.05-0.12-0.24 0.53c-0.07 0.19-0.19 0.38-0.34 0.52l-0.31 0.36 0.24-0.31-0.26 0.48 0.07-0.17-0.36 0.75c-0.53 1.1-1.85 1.58-2.95 1.1-1.13-0.5-1.66-1.77-1.23-2.93z"/>
  </g>
 </g>
</svg>
