<svg width="80.348" height="79.011" version="1.1" viewBox="0 0 80.348 79.011" xmlns="http://www.w3.org/2000/svg">
 <g transform="translate(-612.06 -161.03)">
  <g fill="#fff">
   <path transform="matrix(1.3333 0 0 -1.3333 0 1120.8)" d="m464.81 714.74 8.18-0.38h-0.02l7.01-0.36h0.38c1.08-0.02 2.06 0.53 2.59 1.44s0.53 2.04 0 2.95-1.51 1.47-2.59 1.44h-0.29l-6.98-0.12h-0.03l-8.18-0.14c-1.3-0.03-2.35-1.06-2.38-2.38 0-1.27 1.01-2.37 2.31-2.45z"/>
   <path transform="matrix(1.3333 0 0 -1.3333 0 1120.8)" d="m469.8 716.9-0.19 0.22c-0.53 0.65-1.37 0.98-2.21 0.91s-1.61-0.55-2.02-1.29l-0.12-0.27-0.14-0.24c-0.1-0.17-0.17-0.31-0.22-0.5l-0.07-0.24 0.48 0.89-0.21-0.24c-0.36-0.44-0.58-0.99-0.58-1.56l-0.02-0.32 0.33 1.18-0.14-0.24-0.1-0.22-0.14-0.31c-0.12-0.24-0.19-0.53-0.22-0.79l-0.07-0.7-0.02-0.04-0.27-2.96v-0.07l-0.05-1.05v0.04l-0.07-0.84v-1.22l0.07-0.77v-0.07l0.27-2.14 0.05-0.26 0.19-0.86 0.02-0.15 0.58-2.04 0.09-0.31 0.39-0.94-0.03 0.05 0.39-1.01 0.09-0.24 1.32-2.61c0.1-0.19 0.22-0.36 0.36-0.51l0.32-0.38 0.16-0.17 0.27-0.26c1.03-1.03 2.71-1.03 3.74 0.02 1.01 1.03 1.03 2.69 0 3.75l-0.24 0.24 0.15-0.17-0.29 0.38 0.31-0.53-1.3 2.64 0.1-0.28-0.36 1-0.02 0.08-0.36 0.93 0.09-0.29-0.55 2.07 0.02-0.15-0.19 0.89 0.05-0.24-0.24 2.11v-0.09l-0.05 0.74v-0.21 0.81-0.19l0.05 0.79v0.07l0.07 1.06v-0.07l0.24 2.95v0.02l0.05 0.7-0.14-0.7 0.12 0.32-0.08-0.2 0.1 0.24c0.17 0.39 0.24 0.8 0.24 1.2l-0.02 0.32-0.46-1.61 0.17 0.26c0.21 0.29 0.36 0.63 0.41 0.99l0.07 0.26-0.19-0.58 0.12 0.27 0.09 0.26-0.38-0.65 0.19 0.22c0.7 0.84 0.7 2.06 0 2.9z"/>
   <path transform="matrix(1.3333 0 0 -1.3333 0 1120.8)" d="m470.47 692.98 6.99-0.39c1.08-0.05 2.11 0.48 2.66 1.42 0.55 0.93 0.55 2.09 0 3.02-0.55 0.94-1.58 1.47-2.66 1.44l-6.99-0.41c-1.34-0.04-2.4-1.17-2.4-2.54 0-1.34 1.06-2.47 2.4-2.54z"/>
   <path transform="matrix(1.3333 0 0 -1.3333 0 1120.8)" d="m460.73 708.19 0.45-0.12 0.34-0.09 0.55-0.08h-0.02l0.43-0.07-0.41 0.1 0.36-0.15 0.72-0.14-0.53 0.14 0.46-0.19 0.14-0.07 0.89-0.31-0.53 0.26 0.17-0.12c0.75-0.5 1.68-0.55 2.47-0.17 0.8 0.39 1.3 1.18 1.37 2.04 0.05 0.89-0.36 1.73-1.13 2.21l-0.16 0.12c-0.2 0.12-0.36 0.19-0.56 0.27l-0.86 0.28 0.1-0.02-0.44 0.17c-0.19 0.07-0.38 0.14-0.57 0.14l-0.39 0.07 0.36-0.09-0.36 0.12c-0.14 0.05-0.26 0.07-0.43 0.09l-0.43 0.05h-0.1l-0.57 0.05 0.98-0.29-0.41 0.22c-0.81 0.45-1.8 0.38-2.54-0.15-0.77-0.5-1.15-1.41-1.01-2.32 0.15-0.92 0.77-1.66 1.66-1.95z"/>
   <path transform="matrix(1.3333 0 0 -1.3333 0 1120.8)" d="m482.11 706.61 1.54 0.38h-0.03l2.43 0.58-0.58-0.07h0.1c0.86 0 1.65 0.45 2.09 1.17 0.43 0.75 0.43 1.66 0 2.4-0.44 0.75-1.23 1.2-2.09 1.18h-0.1c-0.19 0-0.38-0.03-0.57-0.07l-2.4-0.63-0.08-0.02-1.48-0.43c-1.25-0.34-1.95-1.61-1.64-2.84 0.34-1.22 1.59-1.96 2.81-1.65z"/>
   <path transform="matrix(1.3333 0 0 -1.3333 0 1120.8)" d="m476.54 715.32 0.29-0.77 0.12-0.29 0.27-0.45 0.21-0.31 0.29-0.36-0.31 0.52 0.21-0.5 0.05-0.12 0.22-0.46-0.17 0.48 0.12-0.52 0.1-0.27 0.14-0.43-0.02 0.14 0.14-0.52-0.02 0.14 0.12-0.53-0.03 0.1 0.1-0.48-0.05 0.17 0.07-0.53 0.03-0.17 0.09-0.48-0.02 0.14 0.05-0.5v0.26-1.39 0.12l-0.12-1.85 0.02 0.22-0.67-4.66 0.05 0.27-0.24-0.99-0.03-0.07-0.21-0.96 0.12 0.36-0.39-0.93v-0.03l-0.38-0.96 0.05 0.1-0.96-2.19-0.2-0.6c-0.21-0.88 0.03-1.82 0.68-2.44 0.64-0.63 1.58-0.87 2.47-0.63 0.84 0.27 1.51 0.96 1.73 1.85l0.04 0.26-0.12-0.4 0.94 2.18 0.05 0.14 0.33 1.01v-0.05l0.34 0.96 0.12 0.41 0.17 0.96v-0.07l0.19 0.98 0.05 0.17 0.62 4.63 0.03 0.24 0.07 1.85 0.02 0.12-0.02 1.39v0.34l-0.07 0.5-0.05 0.17-0.1 0.51 0.03-0.2-0.08 0.53-0.02 0.17-0.12 0.5v0.1l-0.14 0.53-0.05 0.12-0.17 0.53-0.05 0.14-0.17 0.43 0.1-0.29-0.14 0.53c-0.05 0.17-0.1 0.31-0.17 0.48l-0.24 0.43 0.05-0.09-0.24 0.53c-0.1 0.19-0.22 0.38-0.34 0.52l-0.31 0.36 0.24-0.31-0.27 0.43 0.08-0.14-0.34 0.72c-0.55 1.1-1.85 1.58-2.95 1.1-1.13-0.48-1.68-1.77-1.23-2.9z"/>
   <path transform="matrix(1.3333 0 0 -1.3333 0 1120.8)" d="m496.13 714.14 8.18-0.38 6.99-0.36h0.4c1.06-0.02 2.04 0.55 2.6 1.44 0.5 0.94 0.5 2.04 0 2.98-0.56 0.88-1.54 1.44-2.6 1.44h-0.31 0.03l-7.04-0.12-8.18-0.15c-1.3-0.05-2.35-1.08-2.38-2.37 0-1.3 1.04-2.38 2.31-2.48z"/>
   <path transform="matrix(1.3333 0 0 -1.3333 0 1120.8)" d="m501.12 716.3-0.17 0.22c-0.55 0.67-1.39 0.98-2.23 0.91s-1.58-0.57-2.02-1.29l-0.14-0.24-0.12-0.24c-0.1-0.2-0.19-0.34-0.24-0.51l-0.07-0.29 0.48 0.92-0.19-0.24c-0.36-0.46-0.58-0.99-0.6-1.56v-0.32l0.31 1.18-0.12-0.24-0.12-0.22-0.15-0.28c-0.12-0.27-0.16-0.56-0.21-0.82l-0.07-0.7v-0.04l-0.24-2.96v-0.04l-0.1-1.08v0.02l-0.07-0.82v-1l0.05-0.22 0.04-0.74v-0.1l0.24-2.14 0.08-0.26 0.16-0.86 0.03-0.12 0.57-2.07 0.12-0.31 0.39-0.94-0.03 0.08 0.48-1.28 1.32-2.59c0.1-0.19 0.22-0.36 0.36-0.55l0.32-0.36 0.16-0.17 0.24-0.24c1.06-1.05 2.72-1.03 3.77 0 1.01 1.03 1.01 2.69 0 3.75l-0.24 0.24 0.15-0.15-0.32 0.36 0.34-0.53-1.32 2.64 0.12-0.26-0.36 0.98-0.02 0.08-0.36 0.93 0.09-0.29-0.57 2.09 0.04-0.17-0.16 0.89 0.02-0.24-0.24 2.11v-0.07l-0.05 0.75v-0.24 0.81-0.19l0.05 0.82v0.04l0.07 1.06v-0.05l0.24 2.93v0.02l0.05 0.7-0.14-0.72 0.12 0.34-0.1-0.2 0.12 0.24c0.19 0.41 0.24 0.8 0.22 1.2v0.32l-0.46-1.59 0.19 0.24c0.17 0.29 0.31 0.63 0.39 0.99l0.04 0.24-0.16-0.56 0.12 0.29 0.12 0.24-0.39-0.65 0.17 0.22c0.7 0.84 0.7 2.06 0 2.9z"/>
   <path transform="matrix(1.3333 0 0 -1.3333 0 1120.8)" d="m501.82 692.4 6.96-0.38c1.08-0.08 2.08 0.48 2.66 1.41 0.55 0.91 0.55 2.09 0 3.03-0.58 0.93-1.58 1.46-2.66 1.41l-6.96-0.36c-1.35-0.09-2.43-1.2-2.43-2.57 0-1.34 1.08-2.47 2.43-2.54z"/>
   <path transform="matrix(1.3333 0 0 -1.3333 0 1120.8)" d="m492.05 707.62 0.45-0.15 0.34-0.09 0.58-0.1h-0.05l0.43-0.05-0.43 0.12 0.36-0.17 0.36-0.07 0.41-0.09-0.56 0.16 0.44-0.19 0.16-0.07 0.87-0.34-0.53 0.29 0.22-0.12c0.72-0.48 1.63-0.57 2.44-0.19 0.8 0.38 1.3 1.18 1.37 2.06 0.05 0.89-0.36 1.73-1.13 2.21l-0.16 0.12c-0.2 0.12-0.36 0.19-0.56 0.27l-0.88 0.28 0.12-0.02-0.44 0.19c-0.21 0.05-0.38 0.12-0.6 0.15l-0.36 0.02 0.36-0.05-0.36 0.07c-0.14 0.08-0.28 0.1-0.4 0.1l-0.46 0.07h-0.12l-0.55 0.05 0.96-0.29-0.39 0.24c-0.81 0.41-1.8 0.39-2.54-0.17-0.74-0.5-1.15-1.44-1.03-2.32 0.17-0.92 0.79-1.66 1.68-1.92z"/>
   <path transform="matrix(1.3333 0 0 -1.3333 0 1120.8)" d="m513.43 706.03 1.51 0.36h-0.02l2.45 0.6-0.58-0.09h0.07c0.89 0 1.66 0.45 2.12 1.2 0.43 0.72 0.43 1.65 0 2.37-0.46 0.75-1.23 1.2-2.12 1.2h-0.07c-0.19 0-0.41-0.05-0.57-0.09l-2.43-0.63h-0.05l-1.51-0.45c-1.2-0.34-1.92-1.59-1.61-2.84 0.34-1.22 1.56-1.96 2.81-1.63z"/>
   <path transform="matrix(1.3333 0 0 -1.3333 0 1120.8)" d="m507.86 714.72 0.32-0.77 0.12-0.29 0.26-0.43 0.22-0.33 0.26-0.36-0.29 0.52 0.19-0.52 0.08-0.1 0.21-0.46-0.19 0.48 0.12-0.52 0.1-0.27 0.14-0.43-0.02 0.14 0.14-0.52-0.02 0.12 0.12-0.51-0.03 0.12 0.07-0.53-0.02 0.2 0.07-0.51 0.03-0.19 0.09-0.48-0.05 0.14 0.08-0.5v0.26-1.39 0.15l-0.12-1.88 0.02 0.2-0.65-4.64 0.03 0.24-0.24-0.96v-0.07l-0.22-0.96 0.1 0.39-0.36-0.96-0.39-0.99 0.05 0.12-0.96-2.21-0.14-0.36-0.08-0.26c-0.24-0.86 0.05-1.8 0.68-2.42 0.64-0.63 1.58-0.87 2.44-0.6 0.89 0.24 1.54 0.96 1.76 1.82l0.04 0.26-0.12-0.4 0.94 2.18 0.07 0.14 0.31 1.01v-0.05l0.34 0.96 0.12 0.41 0.19 0.99-0.05-0.1 0.22 0.98 0.02 0.2 0.68 4.6v0.22l0.09 1.87v1.51l-0.05 0.34-0.04 0.5-0.03 0.2-0.12 0.48 0.03-0.2-0.1 0.7-0.12 0.6-0.14 0.55-0.03 0.12-0.19 0.51-0.05 0.14-0.17 0.43 0.1-0.29-0.14 0.53c-0.03 0.17-0.1 0.31-0.2 0.48l-0.24 0.43 0.08-0.07-0.24 0.51c-0.1 0.16-0.2 0.36-0.34 0.52l-0.29 0.36 0.24-0.31-0.29 0.43 0.1-0.14-0.36 0.72c-0.53 1.1-1.82 1.58-2.98 1.1-1.1-0.48-1.63-1.75-1.2-2.9z"/>
   <path transform="matrix(1.3333 0 0 -1.3333 0 1120.8)" d="m481.46 682.73 8.16-0.39 6.99-0.36 0.09-0.02h0.32c1.08 0 2.06 0.53 2.56 1.44 0.56 0.94 0.56 2.04 0 2.98-0.5 0.88-1.48 1.46-2.56 1.44h-0.32l-6.98-0.12-8.18-0.17c-1.3-0.03-2.36-1.08-2.38-2.35 0-1.3 0.98-2.38 2.3-2.45z"/>
   <path transform="matrix(1.3333 0 0 -1.3333 0 1120.8)" d="m486.43 684.86-0.19 0.24c-0.55 0.63-1.37 0.99-2.21 0.89-0.84-0.07-1.58-0.55-2.01-1.29l-0.12-0.24-0.15-0.24c-0.09-0.17-0.17-0.34-0.21-0.53l-0.1-0.24 0.48 0.89-0.19-0.24c-0.36-0.44-0.58-0.99-0.6-1.56v-0.32l0.31 1.2-0.12-0.24-0.12-0.21-0.12-0.31c-0.12-0.27-0.19-0.53-0.24-0.8l-0.07-0.69v-0.07l-0.24-2.93-0.03-0.07-0.04-1.08v0.04l-0.08-0.81-0.02-0.19 0.02-0.84v-0.2l0.08-0.76v-0.08l0.26-2.13 0.05-0.29 0.19-0.86 0.02-0.12 0.58-2.07 0.1-0.31 0.38-0.94-0.02 0.08 0.38-1.01 0.1-0.24 1.32-2.64c0.12-0.17 0.21-0.36 0.36-0.51l0.31-0.38 0.17-0.17 0.24-0.26c1.03-1.01 2.71-1.01 3.76 0.02 1.04 1.03 1.04 2.71 0 3.75l-0.24 0.26 0.15-0.19-0.31 0.38 0.33-0.5-1.29 2.61 0.09-0.26-0.36 1.01-0.02 0.05-0.36 0.96 0.07-0.29-0.55 2.06 0.05-0.17-0.2 0.89 0.05-0.24-0.26 2.14 0.02-0.12-0.07 0.77 0.02-0.24v0.84l-0.02-0.22 0.07 0.82 0.03 0.04 0.04 1.08-0.02-0.09 0.26 2.95v0.02l0.05 0.7-0.14-0.7 0.12 0.32-0.07-0.2 0.09 0.27c0.17 0.36 0.24 0.77 0.22 1.17v0.32l-0.46-1.61 0.17 0.26c0.22 0.31 0.34 0.63 0.41 0.99l0.05 0.26-0.17-0.55 0.12 0.24 0.09 0.26-0.38-0.62 0.19 0.21c0.7 0.84 0.7 2.07 0 2.88z"/>
   <path transform="matrix(1.3333 0 0 -1.3333 0 1120.8)" d="m487.13 660.96 6.93-0.38c1.11-0.08 2.14 0.5 2.67 1.44 0.57 0.91 0.57 2.06 0 3-0.53 0.91-1.56 1.48-2.67 1.44l-6.93-0.41c-1.37-0.05-2.43-1.2-2.43-2.55 0-1.34 1.06-2.49 2.43-2.54z"/>
   <path transform="matrix(1.3333 0 0 -1.3333 0 1120.8)" d="m477.36 676.18 0.46-0.17 0.33-0.07 0.58-0.08h-0.05l0.43-0.07-0.43 0.1 0.38-0.12 0.36-0.12 0.39-0.07-0.55 0.19 0.43-0.19 0.17-0.08 0.86-0.33-0.5 0.29 0.16-0.15c0.75-0.5 1.68-0.55 2.48-0.17 0.79 0.39 1.32 1.18 1.34 2.04 0.07 0.89-0.36 1.73-1.08 2.21l-0.19 0.12c-0.17 0.1-0.36 0.19-0.55 0.27l-0.89 0.31 0.12-0.05-0.43 0.17c-0.2 0.09-0.39 0.12-0.58 0.17l-0.38 0.04 0.38-0.09-0.38 0.12c-0.15 0.05-0.29 0.07-0.41 0.09l-0.46 0.05h-0.09l-0.58 0.05 0.98-0.29-0.4 0.22c-0.82 0.45-1.8 0.41-2.55-0.12-0.77-0.53-1.15-1.44-1.01-2.35 0.15-0.92 0.77-1.66 1.66-1.92z"/>
   <path transform="matrix(1.3333 0 0 -1.3333 0 1120.8)" d="m498.74 674.57 1.54 0.36h-0.02l2.42 0.6-0.58-0.07h0.1c0.86 0 1.66 0.43 2.06 1.2 0.46 0.72 0.46 1.63 0 2.35-0.4 0.77-1.2 1.2-2.06 1.2h-0.1c-0.19 0-0.38-0.03-0.55-0.07l-2.45-0.65h-0.04l-1.52-0.43c-1.2-0.34-1.92-1.61-1.58-2.84 0.29-1.22 1.56-1.94 2.78-1.65z"/>
   <path transform="matrix(1.3333 0 0 -1.3333 0 1120.8)" d="m493.2 683.28 0.26-0.74 0.15-0.32 0.24-0.45 0.21-0.31 0.32-0.36-0.34 0.52 0.24-0.5 0.02-0.12 0.24-0.46-0.16 0.48 0.12-0.52 0.07-0.29 0.17-0.41-0.05 0.14 0.17-0.52-0.05 0.14 0.12-0.55-0.03 0.12 0.1-0.48-0.02 0.17 0.04-0.53 0.03-0.17 0.09-0.48-0.02 0.14 0.05-0.5v0.26-1.36 0.12l-0.12-1.88 0.05 0.22-0.68-4.66 0.03 0.27-0.24-0.99-0.03-0.04-0.21-1.01 0.12 0.41-0.36-0.94-0.03-0.02-0.36-1.01 0.08 0.12-1.01-2.19-0.12-0.36-0.05-0.24c-0.24-0.88 0.02-1.82 0.65-2.44 0.67-0.65 1.61-0.89 2.47-0.6 0.86 0.24 1.54 0.96 1.73 1.82l0.07 0.26-0.12-0.4 0.94 2.18 0.04 0.14 0.34 0.99v-0.03l0.34 0.96 0.12 0.39 0.16 1.01-0.02-0.1 0.22 0.98 0.02 0.2 0.62 4.6 0.05 0.24 0.07 1.88v1.48l-0.02 0.34-0.05 0.5-0.17 0.68 0.05-0.2-0.07 0.56-0.02 0.14-0.12 0.5v0.1l-0.15 0.53-0.05 0.12-0.16 0.53-0.08 0.14-0.14 0.41 0.1-0.27-0.15 0.51c-0.05 0.19-0.09 0.33-0.19 0.48l-0.24 0.45 0.07-0.09-0.24 0.53c-0.09 0.19-0.21 0.38-0.33 0.52l-0.32 0.36 0.22-0.33-0.24 0.45 0.07-0.14-0.33 0.72c-0.56 1.1-1.88 1.58-2.98 1.1s-1.66-1.77-1.2-2.9z"/>
  </g>
 </g>
</svg>
