<?xml version="1.0" encoding="UTF-8" standalone="no"?>
<!-- Created with Inkscape (http://www.inkscape.org/) -->

<svg
   version="1.1"
   id="svg1"
   width="115"
   height="66.080002"
   viewBox="0 0 115 66.080004"
   sodipodi:docname="lesson1_sentence1_word2.svg"
   inkscape:version="1.4.3 (0d15f75, 2025-12-25)"
   xmlns:inkscape="http://www.inkscape.org/namespaces/inkscape"
   xmlns:sodipodi="http://sodipodi.sourceforge.net/DTD/sodipodi-0.dtd"
   xmlns="http://www.w3.org/2000/svg"
   xmlns:svg="http://www.w3.org/2000/svg">
  <defs
     id="defs1" />
  <sodipodi:namedview
     id="namedview1"
     pagecolor="#ffffff"
     bordercolor="#000000"
     borderopacity="0.25"
     inkscape:showpageshadow="2"
     inkscape:pageopacity="0.0"
     inkscape:pagecheckerboard="0"
     inkscape:deskcolor="#d1d1d1"
     inkscape:zoom="4.8104347"
     inkscape:cx="39.289588"
     inkscape:cy="0.51970355"
     inkscape:window-width="1920"
     inkscape:window-height="1221"
     inkscape:window-x="-9"
     inkscape:window-y="-9"
     inkscape:window-maximized="1"
     inkscape:current-layer="g1">
    <inkscape:page
       x="0"
       y="0"
       inkscape:label="1"
       id="page1"
       width="115"
       height="66.080002"
       margin="0"
       bleed="0" />
  </sodipodi:namedview>
  <g
     id="g1"
     inkscape:groupmode="layer"
     inkscape:label="1"
     transform="translate(-287.44992,-102.53336)">
    <g
       id="g2"
       transform="translate(4)">
      <path
         id="path2"
         d="m 223.39,737.88 0.29,0.31 -0.24,-0.21 0.24,0.16 c 0.12,0.08 0.22,0.17 0.31,0.27 l 0.17,0.21 -0.41,-0.36 0.27,0.17 -0.22,-0.09 0.29,0.12 c 0.12,0.04 0.24,0.12 0.33,0.19 l 0.24,0.17 -0.14,-0.1 0.29,0.17 -0.22,-0.12 0.29,0.12 -0.19,-0.05 0.65,0.22 -0.05,-0.03 2.76,0.84 -0.1,-0.02 1.3,0.33 -0.1,-0.02 0.84,0.17 h 0.03 l 0.81,0.17 h -0.02 l 0.84,0.16 -0.19,-0.02 1.94,0.17 -0.12,-0.03 4.66,0.08 h -0.05 1.29 v 0 h 1.68 -0.12 l 1.66,-0.1 h -0.12 l 1.61,-0.17 -0.12,0.03 3.93,-0.72 h -0.04 l 1.75,-0.34 h -0.07 l 0.76,-0.17 v 0 l 0.77,-0.19 v 0 l 0.75,-0.17 -0.1,0.03 0.74,-0.22 -0.12,0.05 0.72,-0.29 -0.16,0.1 1.6,-0.77 -0.04,0.02 0.36,-0.19 -0.1,0.07 0.31,-0.19 -0.21,0.14 0.36,-0.26 0.04,-0.02 0.32,-0.22 -0.15,0.1 0.31,-0.24 c 0.56,-0.48 1.35,-0.65 2.04,-0.39 0.7,0.27 1.2,0.87 1.35,1.59 0.14,0.74 -0.15,1.48 -0.7,1.96 l -0.31,0.27 -0.17,0.12 -0.31,0.19 0.05,-0.02 -0.36,0.26 c -0.07,0.05 -0.15,0.12 -0.22,0.14 l -0.33,0.2 -0.08,0.02 -0.36,0.19 -0.04,0.03 -1.61,0.74 -0.17,0.05 -0.72,0.29 -0.14,0.02 -0.75,0.24 h -0.12 l -0.77,0.19 v 0 l -0.76,0.17 v 0 l -0.75,0.17 -0.05,0.02 -1.75,0.34 -0.05,0.02 -3.93,0.7 -0.15,0.02 -1.6,0.17 h -0.12 l -1.66,0.1 h -0.1 -1.68 v 0 h -1.29 -0.03 l -4.65,-0.12 h -0.17 l -1.94,-0.22 -0.24,-0.02 -0.84,-0.17 -0.05,-0.03 -0.79,-0.16 h 0.02 l -0.86,-0.2 -0.12,-0.02 -1.3,-0.36 -0.07,-0.02 -2.74,-0.94 -0.05,-0.02 -0.62,-0.22 c -0.1,-0.02 -0.17,-0.07 -0.26,-0.12 l -0.27,-0.14 -0.19,-0.12 -0.24,-0.2 -0.14,-0.09 -0.22,-0.19 0.31,0.21 -0.24,-0.14 -0.19,-0.12 -0.26,-0.19 c -0.17,-0.1 -0.29,-0.24 -0.41,-0.41 l -0.17,-0.22 0.29,0.29 -0.24,-0.17 c -0.15,-0.14 -0.27,-0.29 -0.36,-0.45 l -0.24,-0.39 c -0.43,-0.77 -0.24,-1.75 0.45,-2.28 0.7,-0.55 1.71,-0.45 2.33,0.17 z"
         style="fill:#00a0d7;fill-opacity:1;fill-rule:nonzero;stroke:none"
         transform="matrix(1.3333333,0,0,-1.3333333,0,1120.8)" />
    </g>
    <g
       id="g3"
       transform="translate(4)">
      <path
         id="path3"
         d="m 242.06,725.71 -0.79,0.27 -0.24,0.07 h -0.14 l 0.93,-0.63 -0.02,0.05 c -0.14,0.24 -0.34,0.41 -0.58,0.53 l -0.12,0.07 0.58,-0.55 -0.02,0.07 c -0.15,0.24 -0.34,0.41 -0.6,0.53 l -0.12,0.07 c -0.1,0.05 -0.2,0.07 -0.29,0.1 l -0.1,0.02 v 0 h -0.09 l -0.08,0.03 -0.14,0.02 0.36,-0.12 -0.02,0.02 c -0.17,0.08 -0.32,0.1 -0.48,0.12 l -0.36,0.03 0.19,-0.05 -0.53,0.12 0.17,-0.05 -0.65,0.22 c -0.1,0.02 -0.19,0.02 -0.26,0.05 l -0.63,0.07 -0.14,0.02 -1.87,0.07 v 0 l -0.94,0.05 h -0.02 l -1.61,0.05 -0.17,-0.02 -1.08,-0.05 -0.07,-0.03 -1.75,-0.19 v 0 l -0.7,-0.07 -0.14,-0.05 -0.41,-0.07 0.19,0.05 -0.38,-0.05 c -0.1,-0.02 -0.2,-0.05 -0.27,-0.05 l -0.91,-0.21 -0.17,-0.05 -0.72,-0.27 v 0 l -1.08,-0.38 c -0.14,-0.05 -0.26,-0.1 -0.38,-0.17 l -0.96,-0.6 c -0.1,-0.07 -0.17,-0.12 -0.24,-0.19 l -0.58,-0.53 0.1,0.1 -0.67,-0.51 0.09,0.08 -0.45,-0.29 1.15,0.31 h -0.05 c -0.53,0 -1.01,-0.17 -1.39,-0.53 l -0.05,-0.02 v 0 l -0.05,-0.05 0.05,0.02 -0.05,-0.02 1.35,0.48 h -0.05 c -1.06,0.05 -1.97,-0.79 -2.02,-1.87 v -0.05 l 0.63,1.34 -0.05,-0.04 V 723 l -0.05,-0.05 v 0 l -0.05,-0.05 c -0.36,-0.36 -0.6,-0.84 -0.62,-1.34 v -0.05 l 0.24,0.84 -0.05,-0.09 v 0 l -0.05,-0.1 c -0.14,-0.26 -0.21,-0.55 -0.24,-0.86 v -0.1 l 0.65,1.39 -0.05,-0.02 c -0.24,-0.22 -0.43,-0.48 -0.53,-0.79 l -0.04,-0.15 c -0.05,-0.17 -0.1,-0.36 -0.1,-0.55 v -0.05 l 0.22,0.84 -0.05,-0.09 c -0.15,-0.27 -0.22,-0.58 -0.24,-0.87 v -0.09 0 -0.1 0 -0.07 -0.05 -0.19 c 0,-0.15 0.02,-0.29 0.02,-0.41 l 0.1,-0.43 c 0.07,-0.41 0.26,-0.77 0.55,-1.03 l 0.05,-0.05 -0.39,0.5 0.05,-0.07 -0.21,0.91 v -0.05 c 0,-0.55 0.21,-1.05 0.57,-1.44 l 0.05,-0.02 v 0 l 0.05,-0.05 -0.36,0.51 0.02,-0.1 c 0.1,-0.17 0.24,-0.36 0.39,-0.5 l 0.04,-0.05 c 0.36,-0.36 0.87,-0.58 1.37,-0.58 h 0.05 l -1.75,1.08 0.05,-0.07 c 0.19,-0.38 0.5,-0.7 0.88,-0.89 l 0.1,-0.05 -1.1,1.8 v -0.02 c -0.03,-0.55 0.19,-1.06 0.57,-1.44 0.36,-0.36 0.87,-0.58 1.39,-0.58 h 0.1 l -1.39,0.58 0.02,-0.05 v 0 l 0.05,-0.05 v 0 l 0.05,-0.04 c 0.26,-0.27 0.6,-0.44 0.93,-0.51 l 0.17,-0.05 -0.38,0.15 0.14,-0.1 0.17,-0.07 0.22,-0.1 c 0.12,-0.02 0.21,-0.07 0.33,-0.09 l 0.24,-0.05 -0.24,0.07 0.55,-0.19 c 0.12,-0.02 0.24,-0.05 0.39,-0.07 l 1.05,-0.15 v 0 l 1.08,-0.14 h 0.17 l 1.06,-0.05 h 0.09 l 2.48,-0.02 h 0.07 l 7.89,0.29 h -0.07 l 7.35,0.04 h -0.03 2.07 0.02 l 3.58,0.03 h 0.16 l 3.77,0.33 h -0.17 0.05 c 1.18,0 2.11,0.96 2.11,2.14 0,1.15 -0.93,2.11 -2.11,2.11 h -0.05 -0.24 l -3.74,-0.36 h 0.17 l -3.58,-0.07 h 0.03 -2.07 -0.02 l -7.35,-0.12 h -0.04 l -7.9,-0.34 h 0.1 -2.48 0.08 l -1.06,0.03 h 0.14 l -1.05,0.12 v 0 l -1.08,0.12 0.38,-0.1 -0.55,0.19 -0.24,0.05 -0.24,0.05 0.36,-0.1 -0.22,0.1 0.15,-0.07 -0.19,0.09 c -0.12,0.05 -0.27,0.1 -0.39,0.15 l -0.19,0.02 0.91,-0.5 -0.02,0.05 v 0 l -0.05,0.04 v 0 l -0.05,0.05 c -0.38,0.36 -0.86,0.55 -1.39,0.55 h -0.1 l 2,-1.94 v 0.02 c 0,0.77 -0.44,1.44 -1.11,1.78 l -0.09,0.05 0.91,-0.89 -0.05,0.07 c -0.36,0.7 -1.03,1.08 -1.8,1.08 h -0.05 l 1.42,-0.55 -0.05,0.05 0.38,-0.53 -0.04,0.1 c -0.1,0.19 -0.24,0.36 -0.39,0.5 l -0.05,0.05 v 0 l -0.04,0.05 0.6,-1.4 v 0.05 c 0,0.29 -0.08,0.6 -0.22,0.89 l -0.05,0.07 c -0.09,0.19 -0.24,0.36 -0.38,0.53 l -0.05,0.05 0.55,-1.01 -0.07,0.43 0.05,-0.38 v 0.19 0.05 0.07 0 l -0.03,0.1 v 0 0.09 l -0.19,-0.91 0.05,0.1 c 0.14,0.28 0.19,0.62 0.19,0.93 v 0.05 l -0.09,-0.7 0.04,0.15 -0.45,-0.77 0.05,0.05 c 0.36,0.38 0.55,0.89 0.55,1.39 v 0.1 l -0.22,-0.89 0.05,0.07 v 0 l 0.05,0.1 c 0.14,0.28 0.19,0.6 0.19,0.93 v 0.05 l -0.55,-1.44 0.05,0.05 v 0 l 0.04,0.05 v -0.03 l 0.03,0.05 c 0.38,0.41 0.57,0.91 0.55,1.44 v 0.05 c -0.05,1.08 -0.96,1.92 -2.02,1.87 -1.05,-0.05 -1.89,-0.96 -1.87,-2.04 0.05,-1.06 0.96,-1.9 2.02,-1.85 h 0.05 c 0.52,0.03 1.03,0.24 1.36,0.63 l 0.05,0.04 -0.05,-0.02 0.05,0.05 v 0 l 0.05,0.02 -1.32,-0.6 0.05,0.03 c 0.36,0.02 0.74,0.14 1.03,0.36 l 0.46,0.31 0.09,0.07 0.65,0.53 0.1,0.09 0.57,0.53 -0.21,-0.17 0.93,0.63 -0.38,-0.19 1.08,0.4 h -0.03 l 0.72,0.27 -0.21,-0.05 0.89,0.22 -0.22,-0.05 0.41,0.05 0.19,0.04 0.41,0.1 -0.17,-0.05 0.67,0.1 h -0.02 l 1.75,0.24 h -0.07 l 1.08,0.12 -0.12,-0.03 1.61,0.05 h 0.02 l 0.94,0.05 v 0 l 1.87,0.07 h 0.14 l 0.63,0.1 h -0.32 l 0.68,-0.07 h 0.14 l 0.53,0.02 h 0.05 0.36 c 0.16,0.02 0.31,0.05 0.48,0.12 h 0.02 l -0.36,-0.07 h 0.14 l 0.08,0.02 h 0.09 v 0 l 0.1,0.03 h -0.51 l 0.12,-0.03 -0.36,0.12 0.05,-0.02 c 0.1,-0.05 0.24,-0.1 0.36,-0.12 l 0.15,-0.03 -0.36,0.12 0.04,-0.02 c 0.24,-0.12 0.51,-0.17 0.75,-0.14 l 0.14,0.02 v 0 l 0.82,0.1 c 0.48,0.07 0.84,0.45 0.91,0.93 0.05,0.46 -0.24,0.91 -0.7,1.08 z"
         style="fill:#00a0d7;fill-opacity:1;fill-rule:nonzero;stroke:none"
         transform="matrix(1.3333333,0,0,-1.3333333,0,1120.8)" />
    </g>
    <g
       id="g4"
       transform="translate(4)">
      <path
         id="path4"
         d="m 231.84,725.35 0.05,0.48 -0.03,-0.12 0.03,0.12 c 0.05,0.27 0,0.53 -0.12,0.77 l -0.03,0.05 -0.02,-1.18 0.07,0.12 c 0.05,0.12 0.1,0.22 0.12,0.31 l 0.03,0.08 v 0 0.09 0 l 0.02,0.07 -0.26,-0.55 0.04,0.1 v 0 l 0.08,0.07 c 0.14,0.17 0.24,0.36 0.28,0.55 l 0.03,0.1 v 0 0.07 l -0.29,-0.58 0.07,0.08 -0.55,-0.41 0.07,0.02 c 0.29,0.12 0.55,0.36 0.72,0.67 l 0.05,0.12 -0.72,-0.69 0.05,0.02 c 0.21,0.12 0.41,0.24 0.55,0.46 l 0.07,0.07 -0.55,-0.43 h 0.05 c 0.26,0.14 0.5,0.33 0.67,0.6 l 0.1,0.14 -0.82,-0.62 0.1,0.02 c 0.16,0.05 0.33,0.15 0.48,0.27 l 0.12,0.07 -0.15,-0.1 0.05,0.05 v 0 l 0.05,0.05 -0.36,-0.22 0.07,0.05 c 0.36,0.12 0.65,0.36 0.86,0.65 l 0.05,0.07 -1.63,-0.72 h 0.1 c 0.38,-0.07 0.81,0.02 1.15,0.24 l 0.05,0.05 -0.53,-0.24 0.12,0.02 c 0.19,0.05 0.38,0.12 0.55,0.24 l 0.05,0.05 -0.36,-0.19 0.07,0.02 -0.82,-0.07 0.1,-0.02 v 0 h 0.1 c 0.31,-0.05 0.62,-0.03 0.91,0.12 l 0.19,0.07 -0.6,-0.12 1.54,0.07 H 234 l 0.89,0.12 h -0.27 l 0.22,-0.02 v 0 h 0.17 v 0 h 0.19 l -0.36,0.04 0.24,-0.04 -0.1,0.02 0.17,-0.05 c 0.15,-0.05 0.29,-0.07 0.46,-0.07 h 0.17 l -0.46,0.07 0.48,-0.14 h 0.1 l 0.86,-0.19 v -0.03 l 1.63,-0.31 v 0 l 0.7,-0.14 0.17,-0.03 1.6,-0.19 v 0 l 1.52,-0.17 h -0.05 l 0.65,-0.09 0.14,-0.03 1.42,-0.07 h -0.03 l 0.58,-0.05 h -0.07 l 1.36,-0.17 0.1,-0.02 0.53,-0.05 h -0.03 l 1.4,-0.12 h 0.09 l 1.92,-0.12 h 0.12 2.09 0.19 l 1.03,0.12 c 0.12,0 0.22,0.03 0.32,0.05 l 0.19,0.05 -0.46,-0.05 h 0.03 v 0 h 0.04 -0.02 0.05 0.02 0.05 0.02 0.05 -0.02 0.05 l -1.4,0.53 0.05,-0.05 c 0.36,-0.36 0.87,-0.53 1.39,-0.53 h 0.05 0.03 0.04 c 1.06,0.05 1.88,0.96 1.85,2.02 -0.05,1.05 -0.93,1.89 -1.99,1.87 -1.06,-0.05 -1.9,-0.91 -1.9,-1.97 v -0.05 c 0.03,-1.05 0.92,-1.92 1.97,-1.89 h 0.05 l -1.37,0.5 0.05,-0.02 -0.6,1.34 v -0.02 c 0.02,-1.08 0.91,-1.92 1.97,-1.9 h 0.05 c 1.05,0 1.92,0.89 1.89,1.97 0,1.06 -0.89,1.92 -1.94,1.9 -1.06,-0.03 -1.92,-0.89 -1.92,-1.95 v -0.05 l 0.02,-0.07 v -0.05 c 0,-0.5 0.24,-0.96 0.6,-1.29 l 0.03,-0.05 -0.6,1.34 v -0.04 0 -0.05 0 -0.05 c 0,-0.24 0.07,-0.5 0.16,-0.72 l 0.15,-0.31 -0.07,0.21 0.16,-0.57 -0.02,0.07 0.19,-0.67 0.03,-0.07 0.16,-0.58 -0.07,0.31 0.19,-1.32 v -0.12 l 0.36,-1.75 v 0 l 0.05,-0.22 c 0.03,-0.09 0.07,-0.19 0.1,-0.31 l 0.26,-0.69 c 0.05,-0.1 0.1,-0.22 0.15,-0.32 l 0.14,-0.24 c 0.55,-0.88 1.75,-1.17 2.66,-0.62 0.89,0.55 1.18,1.75 0.63,2.64 l -0.15,0.24 0.17,-0.31 -0.26,0.67 0.09,-0.29 -0.04,0.22 v 0 l -0.36,1.75 V 723 l -0.17,1.32 c -0.03,0.12 -0.03,0.22 -0.07,0.31 l -0.17,0.58 0.02,-0.07 -0.19,0.67 -0.02,0.07 -0.17,0.55 -0.07,0.19 -0.12,0.32 0.14,-0.82 v 0.05 0 0.05 0 0.04 c 0.02,0.53 -0.17,1.04 -0.55,1.42 l -0.05,0.05 0.55,-1.47 v 0.05 0.07 0.05 c 0.03,1.06 -0.84,1.92 -1.89,1.95 h -0.05 c -1.06,0.02 -1.95,-0.84 -1.97,-1.9 -0.02,-1.08 0.84,-1.97 1.9,-1.97 1.08,-0.02 1.96,0.82 1.96,1.9 l 0.03,0.02 c 0,0.53 -0.19,1.06 -0.58,1.42 l -0.02,0.05 c -0.36,0.36 -0.87,0.57 -1.37,0.57 h -0.05 c -1.05,0 -1.94,-0.84 -1.97,-1.92 0,-1.08 0.84,-1.94 1.92,-1.94 1.08,-0.03 1.97,0.84 1.97,1.89 v 0.05 c 0.03,1.06 -0.81,1.92 -1.85,1.97 h -0.04 -0.03 -0.05 l 1.32,-0.58 -0.04,0.05 c -0.36,0.36 -0.84,0.58 -1.32,0.58 h -0.05 0.02 -0.05 -0.02 -0.05 -0.02 -0.05 0.02 -0.04 v 0 h -0.03 c -0.17,0 -0.33,0 -0.48,-0.05 l -0.17,-0.05 0.27,0.05 -1.03,-0.07 h 0.14 -2.09 0.07 l -1.92,0.07 h 0.08 l -1.37,0.12 h -0.03 l -0.55,0.05 h 0.1 l -1.39,0.17 -0.1,0.02 -0.58,0.02 -0.04,0.03 -1.42,0.07 0.14,-0.02 -0.62,0.09 h -0.05 l -1.53,0.17 v 0 l -1.61,0.17 h 0.12 l -0.72,0.12 v -0.03 l -1.59,0.29 h 0.03 l -0.87,0.17 0.12,-0.02 -0.5,0.14 c -0.14,0.05 -0.34,0.05 -0.5,0.05 h -0.17 l 0.43,-0.05 -0.17,0.05 h -0.07 l -0.24,0.05 c -0.12,0.02 -0.24,0.02 -0.36,0.02 h -0.19 v 0 h -0.17 v 0 h -0.22 c -0.09,0 -0.19,0 -0.28,-0.02 l -0.89,-0.15 h 0.07 l -1.51,-0.17 c -0.24,-0.02 -0.48,-0.09 -0.67,-0.21 l -0.17,-0.12 0.65,0.24 -0.1,-0.03 v 0 l -0.1,-0.02 c -0.26,-0.02 -0.5,-0.12 -0.72,-0.26 l -0.09,-0.05 c -0.19,-0.12 -0.36,-0.29 -0.48,-0.48 l -0.05,-0.05 0.77,0.62 -0.12,-0.07 c -0.31,-0.12 -0.58,-0.33 -0.77,-0.6 l -0.02,-0.07 1.2,0.74 h -0.1 c -0.62,-0.09 -1.15,-0.52 -1.39,-1.1 l -0.03,-0.12 0.68,0.86 -0.1,-0.07 c -0.17,-0.12 -0.34,-0.26 -0.46,-0.45 l -0.04,-0.05 v 0 l -0.03,-0.05 0.1,0.12 -0.07,-0.07 0.36,0.31 -0.1,-0.05 c -0.26,-0.19 -0.5,-0.48 -0.62,-0.79 l -0.08,-0.19 0.08,0.12 -0.05,-0.05 c -0.05,-0.1 -0.07,-0.19 -0.1,-0.29 l -0.02,-0.09 0.09,0.28 -0.02,-0.04 c -0.07,-0.15 -0.1,-0.27 -0.12,-0.41 l -0.02,-0.12 0.12,0.38 -0.03,-0.05 c -0.05,-0.09 -0.07,-0.19 -0.09,-0.28 l -0.03,-0.1 c -0.07,-0.24 -0.07,-0.48 0,-0.72 l 0.03,-0.07 v 0 -0.1 l 0.02,0.72 -0.02,-0.12 v 0.03 l -0.05,-0.1 c -0.05,-0.24 -0.05,-0.48 0,-0.7 l 0.05,-0.07 v 0 -0.09 0 l 0.02,-0.08 -0.02,0.56 -0.03,-0.15 c -0.09,-0.57 0.22,-1.15 0.75,-1.41 l 0.07,-0.03 -0.75,0.96 0.03,-0.12 c 0,-0.12 0.05,-0.21 0.07,-0.31 l 0.22,-0.43 c 0.21,-0.48 0.74,-0.77 1.24,-0.67 0.53,0.09 0.92,0.55 0.94,1.05 z"
         style="fill:#00a0d7;fill-opacity:1;fill-rule:nonzero;stroke:none"
         transform="matrix(1.3333333,0,0,-1.3333333,0,1120.8)" />
    </g>
    <g
       id="g5"
       transform="translate(4)">
      <path
         id="path5"
         d="m 227.76,757.94 -0.58,0.51 c -0.12,0.12 -0.26,0.21 -0.4,0.26 l -0.12,0.07 v 0 l -0.15,0.05 0.24,-0.12 -0.09,0.05 c -0.12,0.07 -0.24,0.14 -0.36,0.17 l -0.17,0.05 c -0.1,0.04 -0.22,0.07 -0.31,0.07 h -0.15 0.07 -0.09 0.05 l -0.36,0.07 0.02,-0.02 -0.77,0.14 0.12,-0.02 -0.26,0.07 -0.22,0.02 -0.24,0.03 h -0.02 l -0.34,0.02 h 0.05 l -0.22,0.02 h -0.02 l -0.26,0.03 h 0.02 -0.22 c -0.09,0.02 -0.21,0.02 -0.31,0 l -0.26,-0.03 v 0 l -0.27,-0.02 c -0.12,0 -0.24,-0.02 -0.36,-0.07 l -0.21,-0.05 0.31,0.05 -0.22,-0.03 -0.26,-0.02 -0.26,-0.07 0.24,0.02 -0.22,-0.02 c -0.19,0 -0.38,-0.05 -0.55,-0.15 l -0.65,-0.28 -0.14,-0.08 -0.15,-0.09 c -0.12,-0.05 -0.21,-0.12 -0.31,-0.22 l -0.14,-0.12 v 0 l -0.12,-0.12 0.19,0.15 -0.19,-0.12 0.12,0.07 -0.15,-0.07 c -0.29,-0.17 -0.53,-0.41 -0.69,-0.7 l -0.1,-0.19 0.19,0.29 -0.14,-0.17 -0.05,-0.07 -0.24,-0.29 0.12,0.12 -0.43,-0.48 0.12,0.14 -0.1,-0.09 c -0.38,-0.36 -0.6,-0.84 -0.62,-1.37 v -0.1 l 0.62,1.39 -0.02,-0.04 v 0 l -0.07,-0.05 v 0 l -0.05,-0.05 c -0.39,-0.34 -0.6,-0.84 -0.63,-1.37 v -0.09 l 0.63,1.36 -0.03,-0.02 c -0.38,-0.34 -0.6,-0.82 -0.64,-1.34 v -0.05 -0.03 -0.09 0.05 -0.05 0 -0.05 l 0.24,0.84 -0.08,-0.1 c -0.12,-0.26 -0.19,-0.52 -0.21,-0.84 v -0.02 0 -0.05 -0.05 l -0.03,-0.09 0.03,0.05 -0.03,-0.05 c 0,-0.31 0.08,-0.65 0.22,-0.94 l 0.02,-0.09 -0.19,0.96 v -0.05 0 -0.05 -0.05 -0.09 0.04 -0.02 c -0.02,-0.55 0.17,-1.08 0.55,-1.46 l 0.03,-0.05 -0.53,1.41 v -0.09 c -0.02,-0.53 0.17,-1.03 0.53,-1.42 l 0.05,-0.05 -0.22,0.29 0.1,-0.14 -0.34,1.13 v -0.1 c 0,-0.53 0.19,-1.06 0.58,-1.42 l 0.07,-0.09 -0.36,0.53 0.05,-0.1 c 0.09,-0.19 0.21,-0.36 0.36,-0.5 l 0.04,-0.05 -0.36,0.5 0.03,-0.07 c 0.19,-0.38 0.5,-0.7 0.89,-0.91 l 0.09,-0.05 -0.89,0.91 0.05,-0.09 v 0 l 0.05,-0.08 c 0.17,-0.4 0.5,-0.72 0.89,-0.91 l 0.07,-0.05 -0.53,0.39 0.05,-0.05 h 0.02 l 0.1,-0.1 c 0.36,-0.36 0.86,-0.57 1.37,-0.6 h 0.09 l -1.77,1.13 0.05,-0.09 c 0.19,-0.39 0.5,-0.7 0.88,-0.92 l 0.1,-0.02 v 0 l 0.1,-0.05 c 0.26,-0.14 0.55,-0.21 0.86,-0.21 h 0.1 l -1.18,0.38 0.19,-0.12 c 0.24,-0.19 0.51,-0.31 0.82,-0.36 l 0.21,-0.05 v 0 l 0.22,-0.05 v 0 l 0.22,-0.04 h 0.07 l 0.26,-0.05 -0.14,0.02 0.17,-0.05 c 0.16,-0.02 0.31,-0.04 0.48,-0.04 h 0.28 -0.02 0.24 v 0 h 0.22 v 0 l 0.21,-0.03 v 0 h 0.24 c 0.1,0 0.22,0.03 0.31,0.05 l 0.29,0.02 0.24,0.08 0.46,0.12 -0.17,-0.05 0.62,0.14 h 0.08 l 0.16,0.05 -0.48,-0.05 h 0.2 c 0.21,0 0.4,0.03 0.62,0.1 l 0.12,0.05 -0.14,-0.05 0.19,0.05 c 0.12,0.02 0.21,0.04 0.33,0.09 l 0.41,0.19 0.07,0.03 0.36,0.17 0.1,0.04 0.31,0.2 0.17,0.09 0.31,0.22 0.12,0.09 0.27,0.22 -0.39,-0.24 0.36,0.17 c 0.17,0.09 0.34,0.19 0.48,0.31 l 0.58,0.53 0.05,0.02 0.02,0.05 c 0.41,0.38 0.65,0.89 0.65,1.44 v 0.02 l -0.65,-1.41 0.07,0.05 -0.05,-0.05 0.05,0.05 c 0.43,0.38 0.67,0.93 0.67,1.48 v 0.1 l -0.64,-1.46 0.04,0.04 c 0.41,0.36 0.65,0.89 0.65,1.44 v 0.03 l -2.11,-1.97 h 0.05 c 1.13,-0.05 2.09,0.84 2.11,1.97 v 0.05 l -0.65,-1.42 0.05,0.02 c 0.41,0.39 0.62,0.89 0.65,1.44 v 0.05 0 0.05 l -0.12,-0.65 0.05,0.15 c 0.33,0.88 0,1.87 -0.77,2.4 l -0.41,0.28 0.29,-0.24 -0.12,0.12 c -0.53,0.53 -1.3,0.72 -2.02,0.53 -0.72,-0.19 -1.27,-0.77 -1.46,-1.49 -0.17,-0.72 0.02,-1.48 0.57,-1.99 l 0.12,-0.14 c 0.12,-0.1 0.22,-0.19 0.34,-0.27 l 0.41,-0.26 -0.87,2.38 -0.02,-0.15 c -0.07,-0.21 -0.12,-0.43 -0.1,-0.67 v -0.05 0 -0.05 l 0.58,1.52 -0.05,-0.05 c -0.38,-0.41 -0.6,-0.96 -0.57,-1.51 v -0.05 c 0.04,-1.13 0.98,-2.02 2.13,-1.97 1.13,0.02 2.02,0.98 1.97,2.11 -0.02,1.13 -0.98,2.02 -2.11,1.99 h -0.05 c -0.55,-0.02 -1.06,-0.26 -1.44,-0.64 -0.36,-0.41 -0.55,-0.94 -0.55,-1.49 v -0.03 l 0.57,1.49 -0.02,-0.05 c -0.38,-0.38 -0.6,-0.91 -0.6,-1.46 v -0.1 l 0.55,1.44 -0.02,-0.04 0.02,0.04 -0.05,-0.04 c -0.38,-0.41 -0.6,-0.94 -0.57,-1.52 v -0.02 l 0.57,1.49 -0.04,-0.05 0.09,0.07 -0.57,-0.53 0.45,0.34 -0.36,-0.19 c -0.14,-0.07 -0.26,-0.15 -0.38,-0.27 l -0.27,-0.21 0.12,0.09 -0.31,-0.21 0.17,0.09 -0.31,-0.16 0.09,0.04 -0.36,-0.16 0.1,0.04 -0.41,-0.19 0.34,0.12 -0.19,-0.05 -0.15,-0.04 -0.14,-0.05 0.65,0.09 h -0.2 c -0.16,0 -0.31,0 -0.48,-0.04 l -0.16,-0.05 0.04,0.02 -0.62,-0.14 -0.14,-0.03 -0.46,-0.14 0.24,0.05 -0.26,-0.03 0.33,0.03 -0.24,-0.03 v 0 h -0.21 v 0 h -0.22 v 0 h -0.24 0.02 -0.28 l 0.48,-0.04 -0.17,0.04 -0.17,0.03 -0.26,0.05 h 0.07 l -0.24,0.02 v 0 l -0.22,0.05 v 0 l -0.21,0.05 0.79,-0.36 -0.17,0.14 c -0.36,0.26 -0.79,0.38 -1.22,0.38 h -0.1 l 0.89,-0.19 -0.07,0.05 v 0 l -0.1,0.02 0.91,-0.86 -0.05,0.1 c -0.36,0.64 -1.05,1.05 -1.8,1.05 h -0.09 l 1.41,-0.55 -0.09,0.07 v 0.03 l -0.05,0.04 c -0.17,0.15 -0.34,0.24 -0.53,0.34 l -0.07,0.05 0.91,-0.87 -0.05,0.08 v 0 l -0.04,0.09 c -0.2,0.39 -0.53,0.67 -0.92,0.87 l -0.09,0.04 0.91,-0.86 -0.05,0.07 c -0.09,0.19 -0.24,0.39 -0.38,0.53 l -0.05,0.05 0.38,-0.53 -0.04,0.1 c -0.1,0.19 -0.22,0.36 -0.39,0.5 l -0.07,0.1 0.6,-1.42 v 0.1 c 0,0.4 -0.12,0.76 -0.36,1.1 l -0.07,0.12 c -0.1,0.12 -0.19,0.24 -0.31,0.34 l -0.05,0.04 0.65,-1.41 v 0.09 c 0,0.53 -0.24,1.04 -0.65,1.4 l -0.03,0.04 0.63,-1.34 v 0.02 -0.04 0.09 0.05 0.05 0 0.05 c -0.03,0.28 -0.1,0.57 -0.24,0.81 l -0.05,0.1 0.24,-0.84 v 0.05 -0.05 0.09 0.05 0.05 0 l -0.02,0.02 -0.17,-0.93 0.02,0.09 c 0.15,0.29 0.22,0.6 0.19,0.94 v 0.05 0 0.05 -0.05 0.09 0.03 0.05 l -0.52,-1.42 0.04,0.02 c 0.34,0.39 0.53,0.89 0.53,1.4 l -0.02,0.09 -0.51,-1.39 0.03,0.05 v 0 l 0.05,0.05 v 0 l 0.04,0.04 c 0.36,0.36 0.53,0.87 0.53,1.37 v 0.1 l -0.53,-1.37 0.08,0.07 0.14,0.17 0.38,0.5 0.05,0.08 0.22,0.31 v -0.03 l 0.12,0.2 c 0.07,0.09 0.12,0.19 0.17,0.31 l 0.09,0.17 -0.6,-0.72 0.12,0.09 0.07,0.05 0.17,0.12 c 0.07,0.07 0.15,0.12 0.22,0.19 l 0.12,0.15 v 0 l 0.12,0.14 -0.27,-0.24 0.15,0.1 -0.24,-0.15 0.62,0.31 -0.33,-0.12 0.21,0.05 0.17,0.07 0.26,0.12 -0.16,-0.07 0.21,0.07 c 0.1,0.03 0.19,0.05 0.29,0.1 l 0.22,0.12 -0.36,-0.14 0.26,0.07 v 0 l 0.26,0.07 -0.24,-0.05 0.22,0.03 h -0.02 0.26 l 0.02,0.02 h 0.22 -0.05 l 0.34,0.02 h 0.02 l 0.24,0.03 h -0.29 l 0.27,-0.03 h 0.05 l 0.76,-0.04 h -0.04 l 0.33,-0.03 c 0.12,-0.02 0.24,-0.02 0.34,0 h 0.09 -0.07 0.15 l -0.39,0.03 0.17,-0.03 -0.24,0.07 0.1,-0.04 0.14,-0.05 0.14,-0.03 v 0 l 0.15,-0.02 c 0.14,-0.05 0.31,-0.07 0.48,-0.05 l 0.77,0.07 c 0.43,0.05 0.81,0.34 0.93,0.77 0.15,0.41 0.03,0.87 -0.31,1.15 z"
         style="fill:#00a0d7;fill-opacity:1;fill-rule:nonzero;stroke:none"
         transform="matrix(1.3333333,0,0,-1.3333333,0,1120.8)" />
    </g>
    <g
       id="g6"
       transform="translate(4)">
      <path
         id="path6"
         d="m 227.98,754.13 0.48,0.33 c 0.09,0.08 0.19,0.15 0.26,0.24 l 0.19,0.22 v 0 l 0.19,0.22 -0.14,-0.12 0.22,0.16 -0.12,-0.12 0.21,0.17 0.12,0.1 0.19,0.17 -0.31,-0.22 0.24,0.12 0.17,0.12 0.24,0.17 -0.19,-0.12 0.24,0.12 -0.24,-0.1 0.24,0.07 0.17,0.08 0.55,0.24 -0.07,-0.03 0.91,0.39 -0.12,-0.05 1.97,0.65 -0.08,-0.03 0.92,0.27 -0.05,-0.03 1.15,0.31 -0.12,-0.04 1.18,0.21 v -0.02 l 1.2,0.21 h -0.12 l 1.17,0.12 -0.09,-0.02 2.56,0.12 h 0.03 l 2.45,0.14 h -0.03 l 1.66,0.08 h -0.12 l 3.6,-0.05 h -0.17 l 3.46,-0.36 h -0.1 l 0.58,-0.07 -0.15,0.02 0.53,-0.14 -0.14,0.04 0.55,-0.16 v 0 l 0.53,-0.2 -0.12,0.05 0.52,-0.21 -0.04,0.02 1.08,-0.48 -0.03,0.02 1.11,-0.55 -0.03,0.03 0.17,-0.1 v 0 l 0.19,-0.1 -0.29,0.2 0.2,-0.15 c 0.07,-0.07 0.16,-0.12 0.26,-0.17 l 0.19,-0.09 -0.29,0.17 0.17,-0.12 -0.19,0.16 0.14,-0.14 0.08,-0.07 0.4,-0.36 -0.07,0.09 0.07,-0.09 -0.36,0.48 0.05,-0.07 c 0.19,-0.36 0.48,-0.68 0.84,-0.84 l 0.07,-0.05 -0.48,0.33 0.1,-0.09 -0.34,0.5 0.05,-0.09 v 0 l 0.03,-0.08 c 0.09,-0.19 0.21,-0.36 0.36,-0.48 l 0.09,-0.09 -0.55,1.32 v -0.07 c 0,-0.53 0.19,-1.01 0.55,-1.35 l 0.07,-0.09 -0.43,0.72 0.05,-0.12 c 0.02,-0.08 0.05,-0.17 0.1,-0.24 l 0.04,-0.08 -0.19,0.84 v -0.09 c -0.02,-0.29 0.05,-0.6 0.17,-0.84 l 0.05,-0.1 -0.17,0.84 -0.02,-0.09 c 0,-0.08 0.02,-0.17 0.02,-0.27 l 0.05,-0.31 v -0.02 l 0.02,-0.24 c 0.07,-0.41 0.24,-0.77 0.53,-1.04 l 0.05,-0.04 -0.53,1.34 v -0.05 0.05 -0.05 -0.05 -0.04 0 -0.05 0 -0.03 0.03 -0.03 l -0.02,-0.04 v -0.05 0 -0.05 0 -0.05 0 -0.02 l 0.57,1.29 -0.05,-0.04 c -0.19,-0.2 -0.36,-0.44 -0.48,-0.72 l -0.02,-0.12 0.12,0.24 -0.07,-0.08 v 0 l -0.05,-0.09 v 0 l -0.05,-0.1 0.36,0.48 -0.07,-0.09 c -0.22,-0.2 -0.38,-0.44 -0.48,-0.72 l -0.05,-0.15 0.51,0.77 -0.05,-0.05 c -0.1,-0.09 -0.19,-0.19 -0.27,-0.31 l -0.09,-0.12 0.26,0.29 -0.05,-0.03 -0.02,-0.02 -0.1,-0.1 v 0 l -0.07,-0.07 0.51,0.34 -0.1,-0.03 c -0.19,-0.09 -0.36,-0.21 -0.5,-0.36 l -0.1,-0.09 0.5,0.36 -0.07,-0.05 c -0.19,-0.1 -0.36,-0.19 -0.53,-0.34 l -0.07,-0.09 v 0 l -0.09,-0.1 1.34,0.55 h -0.1 c -0.48,0 -0.98,-0.19 -1.34,-0.52 l -0.1,-0.1 0.75,0.43 -0.27,-0.09 h -0.02 l -0.26,-0.08 v 0 l -0.27,-0.09 0.07,0.02 -0.31,-0.09 0.24,0.04 -0.6,-0.09 -0.17,-0.03 -0.88,-0.21 v 0 l -0.75,-0.17 0.15,0.02 -1.97,-0.31 0.29,0.03 h -0.15 -0.17 l -1.92,-0.2 h 0.12 l -4.65,-0.12 h 0.21 l -8.83,0.7 h -0.14 -0.1 l 0.34,-0.02 -5.79,1 h 0.03 l -0.43,0.08 h 0.09 l -2.64,0.67 h -0.07 l -1.51,0.33 0.93,-0.52 -0.09,0.07 c -0.48,0.5 -1.18,0.69 -1.85,0.5 -0.67,-0.17 -1.18,-0.69 -1.37,-1.37 -0.14,-0.67 0.05,-1.36 0.53,-1.84 l 0.1,-0.1 c 0.26,-0.26 0.6,-0.43 0.98,-0.5 l 1.51,-0.29 h -0.07 l 2.64,-0.63 0.1,-0.04 0.43,-0.08 h 0.05 l 5.76,-1 c 0.12,-0.03 0.24,-0.05 0.33,-0.05 h 0.1 -0.17 l 8.83,-0.7 h 0.19 l 4.68,0.15 h 0.1 l 1.94,0.14 h -0.19 0.15 c 0.09,0 0.19,0 0.28,0.02 l 1.97,0.32 0.15,0.02 0.76,0.17 h 0.03 l 0.89,0.24 -0.17,-0.05 0.57,0.1 0.24,0.04 0.32,0.1 h 0.07 l 0.26,0.1 v 0 l 0.29,0.09 v 0 l 0.26,0.1 c 0.29,0.09 0.56,0.24 0.77,0.45 l 0.07,0.1 -1.32,-0.55 h 0.1 c 0.5,0 0.98,0.21 1.32,0.55 l 0.1,0.1 v 0 l 0.09,0.07 -0.5,-0.34 0.09,0.05 c 0.17,0.1 0.34,0.22 0.48,0.34 l 0.1,0.09 -0.48,-0.33 0.07,0.04 c 0.19,0.08 0.36,0.2 0.48,0.34 l 0.1,0.1 v 0 l 0.09,0.07 v 0.02 l 0.05,0.05 c 0.07,0.1 0.17,0.17 0.24,0.26 l 0.07,0.15 -0.21,-0.27 0.05,0.03 c 0.19,0.21 0.33,0.45 0.43,0.74 l 0.05,0.12 -0.46,-0.74 0.1,0.09 c 0.14,0.15 0.26,0.32 0.33,0.51 l 0.05,0.09 v 0 l 0.05,0.08 v 0 l 0.05,0.09 c 0.02,0.07 0.07,0.17 0.09,0.24 l 0.05,0.15 -0.46,-0.75 0.05,0.05 c 0.36,0.36 0.55,0.86 0.53,1.37 v 0.02 0 0.05 0 0.05 0 0.05 0.04 0.03 -0.03 0.03 0 0.05 0 0.04 0.05 0.05 -0.05 0.05 c 0,0.5 -0.22,0.96 -0.58,1.3 l -0.04,0.04 0.52,-1 -0.02,0.28 v -0.09 l -0.05,0.31 0.03,-0.26 v 0.09 c 0,0.31 -0.08,0.58 -0.22,0.84 l -0.05,0.1 0.22,-0.84 v 0.09 c 0,0.27 -0.07,0.58 -0.22,0.84 l -0.05,0.08 0.12,-0.24 -0.04,0.12 c -0.1,0.28 -0.27,0.52 -0.46,0.72 l -0.1,0.09 0.58,-1.29 v 0.07 c -0.02,0.48 -0.22,0.96 -0.58,1.32 l -0.09,0.07 0.36,-0.46 -0.05,0.08 v 0 l -0.05,0.07 c -0.07,0.19 -0.19,0.36 -0.36,0.48 l -0.07,0.09 c -0.17,0.15 -0.31,0.27 -0.48,0.34 l -0.1,0.05 0.84,-0.82 -0.04,0.1 c -0.1,0.17 -0.22,0.33 -0.36,0.48 l -0.1,0.07 -0.07,0.07 -0.41,0.34 0.07,-0.05 -0.12,0.12 c -0.07,0.05 -0.12,0.12 -0.19,0.17 l -0.19,0.12 c -0.1,0.09 -0.17,0.12 -0.29,0.19 l -0.17,0.07 0.29,-0.17 -0.19,0.15 c -0.1,0.05 -0.17,0.12 -0.29,0.17 l -0.17,0.07 v 0 l -0.19,0.09 v 0 l -1.13,0.53 -0.05,0.03 -1.05,0.48 -0.07,0.02 -0.53,0.22 -0.12,0.04 -0.55,0.17 v 0 l -0.53,0.19 -0.15,0.03 -0.52,0.12 -0.17,0.05 -0.58,0.07 -0.09,0.02 -3.44,0.34 h -0.16 l -3.6,0.05 h -0.12 l -1.66,-0.12 h -0.02 l -2.48,-0.2 h 0.05 l -2.54,-0.16 h -0.12 l -1.18,-0.15 -0.09,-0.02 -1.23,-0.24 h -0.02 l -1.15,-0.24 -0.12,-0.03 -1.16,-0.33 h -0.04 l -0.89,-0.27 -0.05,-0.02 -1.97,-0.67 -0.14,-0.07 -0.89,-0.41 -0.07,-0.03 -0.53,-0.28 0.05,0.04 -0.19,-0.12 -0.22,-0.12 -0.24,-0.12 -0.14,-0.14 -0.22,-0.19 0.17,0.12 -0.24,-0.15 c -0.1,-0.04 -0.19,-0.14 -0.29,-0.24 l -0.17,-0.16 0.15,0.12 -0.22,-0.2 -0.12,-0.12 -0.19,-0.19 -0.1,-0.12 -0.14,-0.21 v 0 l -0.19,-0.24 -0.1,-0.17 -0.29,-0.51 c -0.29,-0.52 -0.19,-1.22 0.29,-1.65 0.43,-0.41 1.13,-0.46 1.66,-0.12 z"
         style="fill:#00a0d7;fill-opacity:1;fill-rule:nonzero;stroke:none"
         transform="matrix(1.3333333,0,0,-1.3333333,0,1120.8)" />
    </g>
    <g
       id="g7"
       transform="translate(4)">
      <path
         id="path7"
         d="m 217.3,751.7 -0.58,-0.55 c -0.1,-0.09 -0.22,-0.24 -0.26,-0.38 l -0.1,-0.22 0.02,0.1 -0.02,-0.07 c -0.24,-0.41 -0.22,-0.92 0.02,-1.3 0.24,-0.38 0.68,-0.62 1.16,-0.6 0.45,0.05 0.86,0.34 1.05,0.74 l 0.03,0.1 0.04,0.1 0.08,0.21 -0.2,-0.36 0.48,0.6 c 0.41,0.48 0.36,1.2 -0.09,1.63 -0.46,0.41 -1.18,0.41 -1.63,0 z"
         style="fill:#00a0d7;fill-opacity:1;fill-rule:nonzero;stroke:none"
         transform="matrix(1.3333333,0,0,-1.3333333,0,1120.8)" />
    </g>
    <g
       id="g8"
       transform="translate(4)">
      <path
         id="path8"
         d="m 221.76,751.34 -0.17,-0.6 -0.02,-0.14 -0.07,-0.55 v -0.12 l -0.03,-0.1 c -0.02,-0.53 0.24,-1.01 0.7,-1.27 0.45,-0.29 1.01,-0.29 1.46,0 0.46,0.26 0.72,0.74 0.7,1.27 v 0.1 0.12 l -0.1,0.55 0.03,-0.24 0.02,0.62 c 0.02,0.68 -0.46,1.23 -1.1,1.32 -0.65,0.12 -1.28,-0.31 -1.42,-0.96 z"
         style="fill:#00a0d7;fill-opacity:1;fill-rule:nonzero;stroke:none"
         transform="matrix(1.3333333,0,0,-1.3333333,0,1120.8)" />
    </g>
    <g
       id="g9"
       transform="translate(4)">
      <path
         id="path9"
         d="m 224.09,751.15 0.38,-0.45 0.15,-0.17 1.1,-0.96 0.07,-0.05 0.17,-0.14 c 0.41,-0.32 0.94,-0.36 1.39,-0.17 0.46,0.19 0.77,0.62 0.82,1.13 0.05,0.48 -0.17,0.96 -0.55,1.24 l -0.2,0.15 0.05,-0.03 -1.15,0.89 -0.12,0.07 -0.5,0.32 c -0.51,0.31 -1.18,0.21 -1.56,-0.24 -0.41,-0.44 -0.41,-1.13 -0.05,-1.59 z"
         style="fill:#00a0d7;fill-opacity:1;fill-rule:nonzero;stroke:none"
         transform="matrix(1.3333333,0,0,-1.3333333,0,1120.8)" />
    </g>
    <g
       id="g10"
       transform="translate(4)">
      <path
         id="path10"
         d="m 267.77,732.24 -0.17,-0.38 c -0.05,-0.15 -0.1,-0.29 -0.12,-0.46 l -0.1,-0.67 0.03,0.07 -0.05,-0.29 0.05,0.27 -0.1,-0.29 -0.02,-0.1 -0.17,-0.67 v 0 l -0.12,-0.5 -0.02,-0.1 -0.27,-1.2 v 0.02 l -0.24,-1.15 0.03,0.12 -1.28,-4.39 0.03,0.1 -0.41,-1.18 -0.02,-0.07 -0.17,-0.58 -0.05,-0.17 -0.1,-0.43 0.1,0.27 -0.17,-0.46 v 0.05 l -0.14,-0.43 0.02,0.09 -0.41,-0.91 0.34,0.5 -0.22,-0.24 1.52,0.7 h -0.1 c -1.08,0 -1.97,-0.89 -1.97,-1.99 0,-1.11 0.89,-1.99 1.97,-1.99 h 0.1 c 0.57,0 1.15,0.26 1.53,0.74 l 0.19,0.24 c 0.12,0.12 0.22,0.26 0.29,0.46 l 0.39,0.88 0.07,0.12 0.14,0.46 v 0.02 l 0.17,0.48 c 0.05,0.1 0.05,0.2 0.07,0.29 l 0.07,0.43 -0.04,-0.19 0.16,0.55 -0.02,-0.07 0.38,1.18 0.03,0.09 1.2,4.42 0.02,0.12 0.24,1.15 v 0.03 l 0.24,1.22 -0.02,-0.05 0.12,0.53 v -0.05 l 0.14,0.7 -0.02,-0.07 0.07,0.28 c 0.05,0.08 0.05,0.17 0.05,0.24 l 0.02,0.29 0.03,0.03 0.07,0.67 -0.05,-0.17 0.07,0.41 c 0.19,0.89 -0.33,1.77 -1.22,2.04 -0.87,0.26 -1.8,-0.17 -2.16,-1.01 z"
         style="fill:#00a0d7;fill-opacity:1;fill-rule:nonzero;stroke:none"
         transform="matrix(1.3333333,0,0,-1.3333333,0,1120.8)" />
    </g>
    <g
       id="g11"
       transform="translate(4)">
      <path
         id="path11"
         d="m 271.56,729.91 v 0.67 c 0,0.75 -0.43,1.42 -1.08,1.76 -0.67,0.33 -1.46,0.26 -2.06,-0.17 -0.6,-0.43 -0.92,-1.18 -0.82,-1.9 l 0.02,-0.07 c 0.03,-0.17 0.05,-0.31 0.1,-0.43 l 0.07,-0.17 -0.05,0.12 0.27,-0.82 -0.03,0.03 0.29,-1.01 -0.02,0.12 0.62,-2.76 v 0.12 l 0.17,-1.15 0.05,-0.17 0.26,-1.15 v -0.05 l 0.34,-1.18 0.05,-0.19 0.93,-2.66 0.05,-0.1 0.17,-0.38 -0.1,0.24 0.12,-0.43 v -0.03 l 0.29,-0.98 -0.07,0.41 0.12,-1.3 v 0.19 -0.12 c 0,-1.2 0.96,-2.21 2.16,-2.21 1.22,0 2.18,1.01 2.18,2.21 v 0.12 0.19 l -0.12,1.32 c 0,0.12 -0.02,0.24 -0.07,0.39 l -0.29,0.98 v 0 l -0.12,0.41 -0.07,0.24 -0.17,0.41 0.05,-0.1 -0.98,2.69 0.04,-0.17 -0.33,1.18 0.02,-0.05 -0.29,1.15 0.03,-0.14 -0.22,1.15 -0.02,0.17 -0.72,2.76 -0.05,0.19 -0.36,0.96 v 0.02 l -0.31,0.82 0.12,-0.43 -0.05,0.14 c -0.12,0.94 -0.84,1.66 -1.75,1.78 h -0.1 c -0.72,0.09 -1.41,-0.22 -1.85,-0.77 -0.43,-0.58 -0.5,-1.32 -0.24,-1.99 0.29,-0.65 0.89,-1.11 1.59,-1.18 L 270,728.5 c 0.41,-0.05 0.79,0.07 1.1,0.33 0.29,0.29 0.48,0.67 0.46,1.08 z"
         style="fill:#00a0d7;fill-opacity:1;fill-rule:nonzero;stroke:none"
         transform="matrix(1.3333333,0,0,-1.3333333,0,1120.8)" />
    </g>
    <g
       id="g12"
       transform="translate(4)">
      <path
         id="path12"
         d="m 270,730.61 7.25,-0.05 h 0.05 l 1.27,0.02 h -0.07 l 2.66,-0.07 -0.43,0.05 0.31,-0.07 c 0.72,-0.17 1.54,0.05 2.04,0.6 0.53,0.55 0.72,1.34 0.53,2.06 -0.22,0.75 -0.82,1.3 -1.56,1.49 l -0.31,0.07 c -0.17,0.05 -0.34,0.05 -0.51,0.05 l -2.66,0.02 h -0.12 l -1.3,-0.07 h -0.02 l -7.25,-0.5 c -0.96,-0.1 -1.68,-0.89 -1.66,-1.85 0.03,-0.98 0.82,-1.75 1.78,-1.75 z"
         style="fill:#00a0d7;fill-opacity:1;fill-rule:nonzero;stroke:none"
         transform="matrix(1.3333333,0,0,-1.3333333,0,1120.8)" />
    </g>
    <g
       id="g13"
       transform="translate(4)">
      <path
         id="path13"
         d="m 274.25,749.5 0.05,-0.65 v 0 l 0.07,-0.63 v 0 l 0.07,-0.62 0.02,-0.12 0.12,-0.62 0.03,-0.2 0.43,-1.6 0.02,-0.1 0.34,-1.01 -0.05,0.07 0.34,-1.17 v -0.05 l 0.48,-1.66 v 0.1 l 0.26,-1.15 -0.02,0.12 0.53,-2.71 0.07,-0.24 0.48,-1.52 -0.07,0.34 0.14,-1.13 -0.02,0.22 v -0.05 c 0.04,-1.13 0.96,-1.99 2.08,-1.99 1.13,0 2.04,0.86 2.09,1.99 v 0.05 c 0,0.12 0,0.24 -0.02,0.36 l -0.17,1.13 c 0,0.12 -0.02,0.24 -0.07,0.36 l -0.48,1.51 0.07,-0.27 -0.53,2.72 -0.02,0.12 -0.29,1.12 v 0.1 l -0.48,1.66 v -0.05 l -0.31,1.2 -0.05,0.07 -0.31,1.01 0.02,-0.05 -0.45,1.61 0.02,-0.15 -0.12,0.63 0.02,-0.12 -0.09,0.62 v 0 l -0.07,0.63 v 0 l -0.1,0.62 c -0.14,1.1 -1.18,1.9 -2.28,1.75 -1.1,-0.14 -1.9,-1.15 -1.75,-2.25 z"
         style="fill:#00a0d7;fill-opacity:1;fill-rule:nonzero;stroke:none"
         transform="matrix(1.3333333,0,0,-1.3333333,0,1120.8)" />
    </g>
    <g
       id="g14"
       transform="translate(4)">
      <path
         id="path14"
         d="m 284.86,750.91 -0.34,-1.05 -0.05,-0.22 -0.33,-1.8 0.02,0.05 -0.43,-2.04 v 0.05 l -0.31,-1.32 v 0 l -0.34,-1.35 -0.02,-0.12 -0.27,-1.41 v 0.02 l -0.12,-0.65 0.03,0.07 -0.34,-1.36 v 0.07 l -1.18,-4.06 0.22,0.48 -0.6,-0.93 c -0.17,-0.27 -0.26,-0.58 -0.31,-0.89 v -0.05 l 1.13,1.63 -0.12,-0.07 v 0 h -0.05 c -0.65,-0.36 -1.08,-1.01 -1.13,-1.75 v -0.05 c -0.02,-0.77 0.34,-1.49 1.01,-1.87 0.65,-0.41 1.49,-0.41 2.13,0 0.68,0.38 1.04,1.1 1.01,1.87 v 0.05 l -0.24,-1.08 0.03,0.05 v 0 l 0.04,0.09 c 0.2,0.34 0.27,0.75 0.22,1.13 v 0.05 l -0.14,-1.01 0.43,1.03 c 0.05,0.1 0.07,0.19 0.09,0.29 l 1.06,4.13 v 0.05 l 0.31,1.36 0.03,0.1 0.12,0.7 v 0 l 0.21,1.41 -0.02,-0.12 0.31,1.35 v 0 l 0.31,1.34 0.03,0.07 0.36,2.07 v 0 l 0.31,1.8 0.02,0.21 0.07,1.11 c 0.03,0.81 -0.52,1.53 -1.34,1.68 -0.79,0.16 -1.58,-0.32 -1.82,-1.11 z"
         style="fill:#00a0d7;fill-opacity:1;fill-rule:nonzero;stroke:none"
         transform="matrix(1.3333333,0,0,-1.3333333,0,1120.8)" />
    </g>
    <g
       id="g15"
       transform="translate(4)">
      <path
         id="path15"
         d="m 287.64,750.22 0.14,0.24 -0.14,-0.22 0.14,0.17 c 0.17,0.24 0.27,0.48 0.34,0.74 v 0.05 c 0.17,0.89 -0.36,1.78 -1.27,2.02 -0.89,0.24 -1.8,-0.24 -2.11,-1.13 -0.29,-0.87 0.14,-1.83 0.98,-2.16 l 0.05,-0.03 0.12,-0.04 h 0.02 l -0.69,0.4 0.02,-0.02 c 0.29,-0.26 0.65,-0.46 1.06,-0.5 h 0.02 c 0.96,-0.12 1.85,0.52 2.04,1.48 0.17,0.96 -0.46,1.88 -1.39,2.09 -0.96,0.22 -1.9,-0.36 -2.16,-1.29 v -0.05 c -0.15,-0.48 -0.07,-1.01 0.19,-1.44 0.29,-0.43 0.72,-0.72 1.2,-0.82 l 0.05,-0.02 c 0.96,-0.19 1.89,0.43 2.13,1.37 0.24,0.96 -0.33,1.92 -1.24,2.2 -0.96,0.27 -1.95,-0.24 -2.26,-1.17 l -0.02,-0.03 c -0.2,-0.55 -0.12,-1.15 0.21,-1.63 0.31,-0.48 0.84,-0.79 1.42,-0.81 h 0.05 l -1.01,0.36 0.48,-0.36 -0.24,0.21 0.07,-0.07 v 0 l 0.1,-0.1 c 0.33,-0.38 0.81,-0.57 1.32,-0.6 l 0.12,-0.02 -1.35,0.62 0.1,-0.09 v 0 l 0.07,-0.07 c 0.12,-0.15 0.29,-0.27 0.46,-0.36 l 0.07,-0.05 -0.43,0.33 0.19,-0.19 0.12,-0.12 1.05,-0.89 v 0 l 0.27,-0.24 -0.12,0.1 0.24,-0.24 c 0.09,-0.07 0.17,-0.12 0.24,-0.19 l 0.29,-0.19 -0.03,0.02 0.79,-0.6 0.05,-0.02 1.11,-0.8 -0.05,0.03 1.2,-0.89 0.09,-0.07 0.24,-0.17 -0.09,0.07 0.48,-0.36 c 0.33,-0.26 0.74,-0.38 1.15,-0.41 h 0.05 l -0.77,0.17 0.02,-0.02 c 0.84,-0.36 1.8,-0.12 2.4,0.57 0.56,0.7 0.6,1.71 0.08,2.45 -0.53,0.75 -1.49,1.03 -2.33,0.72 l -0.82,-0.31 0.15,0.07 -2.36,-0.67 v 0 l -1.92,-0.53 -0.04,-0.02 -2.52,-0.72 h 0.04 l -2.61,-0.7 v -0.02 l -0.55,-0.15 0.55,0.08 h -0.07 v 0 h -0.1 c -0.31,0 -0.62,-0.08 -0.91,-0.22 l -0.07,-0.02 0.26,0.12 -0.12,-0.05 c -0.1,-0.05 -0.19,-0.07 -0.26,-0.12 l -0.1,-0.05 v 0 l -0.07,-0.02 0.91,0.21 h -0.07 c -0.31,0 -0.65,-0.07 -0.91,-0.21 l -0.1,-0.05 v 0 l -0.07,-0.05 c -0.19,-0.07 -0.39,-0.22 -0.53,-0.36 l -0.1,-0.07 1.47,0.57 h -0.07 c -0.58,0 -1.08,-0.21 -1.47,-0.57 l -0.09,-0.1 0.19,0.17 -0.22,-0.17 0.65,0.34 -0.12,-0.05 c -0.86,-0.26 -1.44,-1.06 -1.44,-1.94 v -0.05 c 0,-1.15 0.94,-2.09 2.09,-2.09 1.13,0 2.06,0.94 2.06,2.09 v 0.05 l -1.41,-1.97 0.12,0.02 c 0.21,0.07 0.43,0.19 0.62,0.34 l 0.19,0.17 0.17,0.14 0.1,0.1 -1.44,-0.6 h 0.07 c 0.53,0 1.05,0.19 1.44,0.6 l 0.07,0.07 -0.53,-0.39 0.07,0.03 h 0.03 l 0.07,0.05 -0.91,-0.22 h 0.07 c 0.31,0 0.62,0.1 0.91,0.22 l 0.07,0.02 0.03,0.02 0.07,0.03 -0.26,-0.1 0.12,0.03 c 0.07,0.02 0.16,0.07 0.26,0.12 l 0.07,0.02 -0.91,-0.19 h 0.1 v 0 h 0.07 c 0.19,0 0.36,0.02 0.55,0.07 l 0.58,0.17 h -0.03 l 2.59,0.69 0.05,0.03 2.52,0.74 h -0.02 l 1.92,0.55 v 0 l 2.37,0.7 0.22,0.07 0.79,0.34 c 0.67,0.29 1.15,0.89 1.23,1.61 0.07,0.72 -0.24,1.44 -0.82,1.87 -0.58,0.43 -1.34,0.5 -2.02,0.21 l -0.02,-0.02 0.77,0.17 h -0.05 l 1.22,-0.36 -0.48,0.33 -0.09,0.08 -0.24,0.14 0.12,-0.07 -1.23,0.89 -0.04,0.04 -1.13,0.8 0.05,-0.05 -0.8,0.6 -0.04,0.02 -0.29,0.19 0.24,-0.19 -0.24,0.22 -0.12,0.12 -0.27,0.24 h -0.02 l -1.06,0.84 0.12,-0.07 -0.21,0.16 c -0.15,0.17 -0.36,0.32 -0.55,0.39 l -0.08,0.05 0.51,-0.36 -0.07,0.07 v 0 l -0.08,0.09 c -0.36,0.34 -0.86,0.51 -1.36,0.48 h -0.12 l 1.36,-0.48 -0.09,0.08 v 0 l -0.07,0.07 c -0.15,0.12 -0.32,0.24 -0.48,0.31 l -0.56,0.26 c -0.28,0.12 -0.57,0.17 -0.88,0.15 h -0.05 l 1.85,-1.23 v 0.03 c -0.29,0.86 -1.2,1.37 -2.09,1.2 h -0.05 l 2.14,-1.32 -0.03,0.05 c -0.24,0.86 -1.08,1.44 -1.99,1.32 h -0.02 c -0.41,-0.05 -0.77,-0.24 -1.06,-0.53 h -0.02 l 0.69,0.41 h -0.02 l -0.12,-0.05 -0.05,-0.03 c -0.77,-0.31 -1.2,-1.12 -1.03,-1.94 v -0.05 l -0.05,0.34 0.02,-0.24 0.08,0.55 -0.1,-0.29 c -0.26,-0.81 0.12,-1.7 0.91,-2.01 0.77,-0.36 1.68,-0.05 2.09,0.72 z"
         style="fill:#00a0d7;fill-opacity:1;fill-rule:nonzero;stroke:none"
         transform="matrix(1.3333333,0,0,-1.3333333,0,1120.8)" />
    </g>
    <g
       id="g16"
       transform="translate(4)">
      <path
         id="path16"
         d="m 277.18,749.02 0.43,0.14 -0.6,-0.12 1.05,0.02 0.12,0.03 0.65,0.05 h -0.29 l 0.39,-0.05 c 0.26,0 0.53,0.02 0.77,0.12 l 0.24,0.07 -0.22,-0.05 0.12,0.03 c 0.82,0.16 1.44,0.84 1.56,1.68 0.12,0.81 -0.29,1.63 -1.03,2.04 l -0.07,0.04 0.55,-0.45 -0.05,0.05 c -0.14,0.16 -0.34,0.31 -0.53,0.43 l -0.09,0.05 0.86,-0.94 -0.02,0.07 c -0.17,0.41 -0.48,0.75 -0.87,0.96 l -0.07,0.03 0.86,-0.94 -0.04,0.07 v 0 l -0.03,0.1 c -0.07,0.12 -0.14,0.24 -0.21,0.36 l -0.12,0.17 -0.17,0.19 -0.19,0.21 0.12,-0.14 -0.2,0.26 -0.12,0.12 -0.19,0.2 0.22,-0.24 -0.19,0.28 c -0.08,0.08 -0.15,0.17 -0.22,0.24 l -0.19,0.22 0.31,-0.46 -0.14,0.29 -0.08,0.12 -0.14,0.24 0.07,-0.12 -0.17,0.27 0.12,-0.22 -0.12,0.29 -0.04,0.09 -0.1,0.24 0.1,-0.24 -0.24,0.72 -0.05,0.15 -0.17,0.36 0.14,-0.46 -0.07,0.39 v 0 l -0.07,0.4 v 0 l -0.05,0.39 0.03,-0.15 -0.12,1.13 0.02,-0.24 v 0.1 0.02 0.17 -0.02 0.12 0.02 0.14 l -0.14,-0.72 0.04,0.12 c 0.1,0.24 0.15,0.48 0.15,0.72 v 0.15 0 0.17 l -0.12,-0.72 0.02,0.12 v 0 l 0.05,0.12 -0.26,-0.56 0.07,0.12 c 0.24,0.39 0.41,0.82 0.41,1.28 v 0.12 l -0.27,-1.04 0.1,0.17 -0.17,-0.26 0.1,0.12 c 0.12,0.17 0.19,0.36 0.26,0.55 l 0.05,0.1 -0.55,-0.87 0.12,0.12 c 0.24,0.24 0.43,0.55 0.55,0.87 l 0.05,0.12 -0.58,-0.87 0.12,0.12 0.17,0.15 0.19,0.24 -0.34,-0.32 0.2,0.15 -0.15,-0.1 0.24,0.15 -0.09,-0.05 0.19,0.12 -0.03,-0.03 0.27,0.15 -0.15,-0.07 0.7,0.31 h -0.02 l 0.43,0.19 0.07,0.02 0.17,0.08 -0.48,-0.17 0.17,0.05 v 0 l 0.16,0.04 v 0 l 0.15,0.03 v 0 l 0.17,0.05 -0.56,-0.08 h 0.17 l 0.22,0.03 0.41,0.05 -0.1,-0.03 0.72,0.05 -0.12,-0.02 h 0.22 v 0 l 0.19,0.02 -0.43,0.02 0.19,-0.02 c 0.14,-0.02 0.29,-0.05 0.43,-0.05 h 0.22 l -0.58,0.07 0.17,-0.04 v 0 l 0.17,-0.05 -0.29,0.09 0.19,-0.07 c 0.12,-0.05 0.26,-0.09 0.41,-0.12 l 0.19,-0.02 -0.58,0.17 0.17,-0.08 0.17,-0.07 0.22,-0.07 -0.34,0.17 0.41,-0.24 c 0.07,-0.07 0.19,-0.12 0.29,-0.15 l 0.26,-0.12 -0.5,0.32 0.19,-0.17 0.17,-0.12 0.24,-0.15 -0.17,0.12 0.19,-0.16 -0.19,0.16 0.21,-0.19 v 0 l 0.2,-0.19 0.19,-0.17 0.19,-0.17 -0.19,0.17 0.21,-0.19 -0.28,0.34 0.14,-0.22 0.12,-0.17 0.17,-0.19 -0.12,0.17 0.17,-0.24 v 0 l 0.16,-0.24 -0.14,0.24 0.12,-0.24 v 0 l 0.12,-0.24 -0.12,0.31 0.07,-0.24 0.07,-0.17 0.24,-0.55 -0.12,0.34 0.15,-0.48 v -0.05 l 0.12,-0.43 v 0 l 0.14,-0.44 -0.07,0.2 0.1,-0.44 v 0.03 l 0.09,-0.46 -0.02,0.15 0.05,-0.41 -0.03,0.19 0.03,-0.46 v 0 -0.48 0.2 l -0.08,-1.04 v -0.21 -0.07 0 -0.12 l 0.1,0.72 -0.02,-0.12 c -0.1,-0.24 -0.12,-0.48 -0.12,-0.72 l 0.02,-0.08 0.1,0.72 -0.05,-0.12 c -0.07,-0.24 -0.1,-0.48 -0.1,-0.72 v -0.09 l 0.1,0.72 -0.05,-0.12 v 0 l -0.02,-0.12 0.12,0.29 -0.05,-0.08 c -0.05,-0.09 -0.07,-0.19 -0.12,-0.28 l -0.03,-0.12 0.1,0.28 -0.02,-0.09 0.02,0.05 -0.12,-0.24 1.9,1.2 h -0.05 c -0.6,0 -1.15,-0.29 -1.56,-0.72 -0.41,-0.44 -0.6,-1.04 -0.55,-1.64 v -0.04 c 0.12,-1.18 1.12,-2.04 2.3,-1.95 1.18,0.07 2.06,1.08 1.99,2.26 -0.05,1.17 -1.03,2.09 -2.21,2.04 h -0.04 c -0.6,-0.03 -1.16,-0.29 -1.54,-0.72 -0.38,-0.46 -0.6,-1.03 -0.55,-1.63 l 0.02,-0.05 c 0.1,-1.15 1.11,-2.02 2.26,-1.95 1.17,0.08 2.06,1.06 2.01,2.24 -0.04,1.15 -1,2.08 -2.18,2.06 h -0.02 -0.12 -0.05 l -0.19,-0.02 h -0.05 0.19 -0.02 l 2.28,-1.97 v 0.05 c -0.08,1.12 -1.04,1.99 -2.16,1.96 h -0.05 l 2.16,-1.89 v 0.05 c -0.12,1.08 -1.03,1.87 -2.11,1.87 -1.08,0 -2.02,-0.79 -2.14,-1.87 v -0.05 c -0.07,-0.6 0.12,-1.2 0.53,-1.63 0.41,-0.46 0.96,-0.72 1.56,-0.72 h 0.05 c 1.15,-0.03 2.11,0.88 2.16,2.04 0.04,1.15 -0.84,2.13 -2.02,2.2 -1.15,0.08 -2.16,-0.81 -2.23,-1.96 v -0.05 c -0.05,-0.55 0.12,-1.13 0.5,-1.56 0.36,-0.41 0.89,-0.67 1.47,-0.72 h 0.02 -0.19 0.05 0.19 l 0.05,-0.03 h 0.12 0.02 c 1.13,-0.02 2.09,0.84 2.18,1.95 v 0.05 l -2.2,-1.97 h 0.04 c 1.16,-0.03 2.12,0.84 2.21,1.97 v 0.04 l -2.18,-1.96 h 0.05 c 0.81,0 1.56,0.43 1.94,1.15 l 0.12,0.24 -0.02,-0.05 0.04,0.1 c 0.05,0.09 0.1,0.19 0.15,0.28 l 0.05,0.12 -0.15,-0.28 0.03,0.07 c 0.07,0.09 0.12,0.19 0.14,0.29 l 0.05,0.12 v 0 l 0.05,0.12 c 0.07,0.21 0.12,0.43 0.12,0.67 v 0.09 l -0.12,-0.69 0.04,0.12 c 0.08,0.21 0.12,0.45 0.12,0.69 v 0.08 l -0.12,-0.68 0.03,0.12 c 0.09,0.22 0.12,0.44 0.14,0.68 v 0.12 0 0.07 -0.12 l 0.07,1.01 0.03,0.16 v 0.48 0 0.46 0.22 l -0.03,0.43 -0.02,0.17 -0.07,0.48 v 0.02 l -0.07,0.43 -0.05,0.19 -0.12,0.44 v 0 l -0.12,0.43 0.02,-0.05 -0.12,0.48 c -0.02,0.12 -0.05,0.26 -0.12,0.38 l -0.24,0.53 0.07,-0.17 -0.07,0.22 c -0.02,0.1 -0.07,0.22 -0.12,0.31 l -0.12,0.22 v 0 l -0.12,0.24 c -0.05,0.09 -0.09,0.17 -0.14,0.26 l -0.15,0.22 v 0 l -0.16,0.24 -0.12,0.17 -0.17,0.19 0.12,-0.15 -0.17,0.24 c -0.07,0.12 -0.17,0.24 -0.26,0.36 l -0.22,0.2 -0.17,0.16 -0.21,0.15 0.19,-0.17 -0.19,0.22 v 0 l -0.22,0.19 -0.17,0.17 -0.19,0.16 -0.17,0.1 -0.24,0.17 0.17,-0.12 -0.19,0.17 c -0.17,0.12 -0.36,0.21 -0.53,0.31 l -0.29,0.12 0.27,-0.15 -0.41,0.24 c -0.12,0.08 -0.22,0.12 -0.31,0.17 l -0.22,0.07 0.17,-0.07 -0.17,0.07 c -0.17,0.1 -0.36,0.15 -0.55,0.2 l -0.19,0.04 0.38,-0.12 -0.19,0.08 c -0.1,0.04 -0.19,0.07 -0.29,0.09 l -0.17,0.05 v 0 l -0.17,0.02 c -0.16,0.05 -0.36,0.08 -0.52,0.08 H 282 l 0.46,-0.05 -0.22,0.05 c -0.14,0.04 -0.29,0.04 -0.43,0.04 h -0.19 v 0 h -0.22 -0.12 l -0.72,-0.04 h -0.12 l -0.38,-0.05 h 0.21 -0.17 c -0.16,0 -0.36,0 -0.52,-0.05 l -0.17,-0.05 v 0 l -0.17,-0.05 v 0 l -0.14,-0.02 v 0 l -0.17,-0.05 c -0.17,-0.02 -0.31,-0.09 -0.48,-0.17 l -0.15,-0.07 0.08,0.03 -0.46,-0.2 h -0.02 l -0.68,-0.33 -0.16,-0.07 -0.29,-0.17 -0.05,-0.03 -0.19,-0.12 -0.1,-0.04 -0.24,-0.17 -0.14,-0.12 -0.22,-0.15 c -0.12,-0.12 -0.21,-0.21 -0.31,-0.33 l -0.19,-0.24 0.12,0.14 -0.12,-0.12 c -0.24,-0.26 -0.43,-0.57 -0.55,-0.89 l -0.03,-0.12 0.55,0.89 -0.12,-0.12 c -0.26,-0.26 -0.45,-0.57 -0.55,-0.89 l -0.02,-0.12 0.24,0.56 -0.07,-0.12 c -0.05,-0.08 -0.1,-0.17 -0.15,-0.24 l -0.07,-0.17 c -0.17,-0.31 -0.24,-0.67 -0.24,-1.03 v -0.12 l 0.38,1.27 -0.07,-0.12 c -0.12,-0.17 -0.21,-0.36 -0.26,-0.55 l -0.05,-0.12 v 0 l -0.05,-0.12 c -0.07,-0.24 -0.09,-0.48 -0.09,-0.72 v -0.17 0 -0.15 l 0.09,0.72 -0.02,-0.12 c -0.07,-0.24 -0.1,-0.48 -0.1,-0.72 v -0.14 -0.02 -0.12 0.02 -0.17 -0.02 -0.1 -0.21 l 0.15,-1.16 c 0.02,-0.09 0.02,-0.16 0.04,-0.24 l 0.1,-0.4 v 0 l 0.1,-0.39 v 0 l 0.09,-0.38 c 0.05,-0.17 0.1,-0.31 0.17,-0.48 l 0.17,-0.34 -0.1,0.24 0.24,-0.69 c 0.05,-0.12 0.1,-0.24 0.17,-0.34 l 0.12,-0.24 -0.07,0.14 0.14,-0.28 0.12,-0.22 0.17,-0.26 0.07,-0.12 0.17,-0.24 -0.07,0.12 0.14,-0.27 c 0.12,-0.17 0.24,-0.31 0.39,-0.43 l 0.19,-0.19 -0.24,0.26 0.21,-0.26 c 0.08,-0.1 0.15,-0.19 0.24,-0.29 l 0.22,-0.17 -0.14,0.15 0.21,-0.24 0.15,-0.15 0.19,-0.19 -0.22,0.24 0.15,-0.14 -0.2,0.24 0.05,-0.08 v 0 l 0.05,-0.07 c 0.22,-0.38 0.55,-0.67 0.96,-0.86 l 0.07,-0.03 -0.96,0.87 0.05,-0.1 c 0.22,-0.38 0.55,-0.67 0.96,-0.84 l 0.1,-0.05 -0.53,0.32 0.05,-0.05 c 0.14,-0.12 0.31,-0.22 0.5,-0.29 l 0.1,-0.02 -1.2,1.51 v -0.1 l 0.84,1.9 -0.22,-0.15 0.89,0.32 -0.39,-0.03 -0.16,-0.02 -0.65,-0.12 0.05,0.02 -1.01,-0.14 c -0.36,-0.05 -0.67,-0.19 -0.94,-0.41 l -0.33,-0.31 c -0.63,-0.51 -0.77,-1.42 -0.36,-2.11 0.43,-0.72 1.27,-1.01 2.04,-0.72 z"
         style="fill:#00a0d7;fill-opacity:1;fill-rule:nonzero;stroke:none"
         transform="matrix(1.3333333,0,0,-1.3333333,0,1120.8)" />
    </g>
    <g
       id="g17"
       transform="translate(4)">
      <path
         id="path17"
         d="m 274.73,747.7 1.29,1.2 c 0.41,0.38 0.58,0.98 0.39,1.53 -0.19,0.53 -0.7,0.91 -1.25,0.96 -0.58,0.03 -1.13,-0.29 -1.37,-0.79 l -0.14,-0.29 0.38,0.51 -0.07,-0.1 c -0.19,-0.14 -0.36,-0.34 -0.43,-0.55 l -0.05,-0.12 0.12,0.24 -0.05,-0.07 c -0.05,-0.08 -0.09,-0.17 -0.14,-0.24 l -0.05,-0.12 0.43,0.6 -0.07,-0.1 -0.17,-0.14 -0.19,-0.24 0.12,0.14 -0.65,-0.55 0.15,0.09 -1.68,-1.17 h -0.03 l -0.5,-0.39 -0.05,-0.02 -0.46,-0.36 0.34,0.22 -0.34,-0.17 c -0.16,-0.07 -0.31,-0.17 -0.45,-0.29 l -0.24,-0.24 0.12,0.12 -0.24,-0.19 0.09,0.07 -0.28,-0.19 c -0.12,-0.07 -0.24,-0.19 -0.34,-0.29 l -0.19,-0.24 0.02,0.05 -0.48,-0.51 0.1,0.1 -0.1,-0.07 0.27,0.19 -0.12,-0.07 c -0.1,-0.07 -0.2,-0.15 -0.29,-0.22 l -0.12,-0.12 0.02,0.03 -0.07,-0.08 0.26,0.2 -0.14,-0.08 0.46,0.2 -0.12,-0.05 c -0.29,-0.07 -0.53,-0.19 -0.75,-0.41 l -0.12,-0.12 0.63,0.38 -0.32,-0.09 -0.14,-0.07 -0.46,-0.2 c -0.62,-0.28 -1.05,-0.88 -1.08,-1.58 l -0.02,-0.02 c -0.05,-0.92 0.55,-1.73 1.44,-1.92 0.89,-0.2 1.78,0.26 2.11,1.1 0.36,0.84 0.05,1.8 -0.74,2.28 h -0.03 l 0.87,-1.27 v 0 c -0.12,0.72 -0.63,1.29 -1.32,1.51 h -0.05 c -0.98,0.31 -2.04,-0.24 -2.38,-1.22 -0.31,-0.99 0.22,-2.04 1.18,-2.4 1.01,-0.36 2.09,0.14 2.45,1.1 v 0.05 c 0.21,0.53 0.17,1.15 -0.12,1.63 -0.29,0.5 -0.77,0.84 -1.32,0.96 h -0.05 l 1.58,-1.82 v 0.28 -0.21 l 0.03,0.55 -0.03,-0.24 v 0.05 l 0.03,0.05 0.12,0.84 -0.05,-0.22 0.46,1.75 -0.03,-0.05 0.12,0.44 -0.02,-0.1 0.79,2.38 -0.02,-0.05 0.09,0.24 c 0.03,0.12 0.05,0.21 0.07,0.31 l 0.05,0.24 -0.19,-0.58 0.12,0.24 0.07,0.15 0.07,0.19 0.05,0.12 0.07,0.24 -0.33,-0.62 0.14,0.19 c 0.07,0.07 0.12,0.17 0.17,0.24 l 0.12,0.19 0.07,0.12 0.12,0.24 -0.19,-0.31 0.41,0.5 -0.41,-0.38 0.17,0.12 c 0.89,0.67 1.08,1.92 0.43,2.81 -0.67,0.91 -1.92,1.08 -2.81,0.43 l -0.17,-0.12 c -0.14,-0.1 -0.26,-0.24 -0.38,-0.39 l -0.41,-0.5 c -0.07,-0.1 -0.14,-0.22 -0.21,-0.34 l -0.12,-0.24 0.07,0.15 -0.12,-0.19 0.17,0.21 -0.17,-0.19 c -0.15,-0.19 -0.24,-0.41 -0.34,-0.62 l -0.07,-0.24 0.05,0.12 -0.1,-0.22 0.07,0.17 -0.09,-0.24 c -0.12,-0.19 -0.17,-0.39 -0.22,-0.58 l -0.02,-0.24 0.07,0.31 -0.07,-0.24 v -0.02 l -0.77,-2.35 -0.02,-0.1 -0.12,-0.43 v -0.02 l -0.44,-1.76 -0.04,-0.21 -0.1,-0.82 c -0.05,-0.21 -0.05,-0.43 0,-0.62 v -0.05 l -0.02,0.53 -0.05,-0.55 c -0.03,-0.22 0,-0.44 0.07,-0.65 l 0.05,-0.27 c 0.24,-0.98 1.22,-1.6 2.23,-1.44 l 0.05,0.03 -2.16,1.2 0.02,-0.05 c 0.36,-0.91 1.37,-1.44 2.33,-1.13 h 0.05 c 0.69,0.22 1.2,0.82 1.32,1.51 v 0.03 l -0.87,-1.3 0.03,0.03 c 0.6,0.36 0.93,0.98 0.89,1.68 V 744 l -0.87,-1.66 0.43,0.27 -0.31,-0.17 0.31,0.12 c 0.27,0.12 0.46,0.24 0.65,0.46 l 0.12,0.12 -0.67,-0.46 0.12,0.05 c 0.14,0.07 0.29,0.12 0.41,0.21 l 0.12,0.1 c 0.09,0.07 0.19,0.14 0.26,0.24 l 0.1,0.1 -0.03,-0.05 0.12,0.12 -0.26,-0.19 0.12,0.07 c 0.1,0.07 0.19,0.14 0.29,0.24 l 0.07,0.07 v 0 l 0.48,0.53 0.07,0.09 0.19,0.24 -0.33,-0.31 0.29,0.22 0.09,0.07 0.24,0.22 0.1,0.09 0.24,0.24 -0.43,-0.33 0.31,0.16 c 0.12,0.08 0.21,0.15 0.31,0.22 l 0.43,0.36 -0.02,-0.02 0.5,0.4 -0.02,-0.02 1.61,1.27 c 0.07,0.05 0.14,0.12 0.21,0.19 l 0.55,0.63 0.05,0.07 0.22,0.24 -0.05,-0.02 0.07,0.07 c 0.17,0.19 0.27,0.41 0.34,0.62 l 0.02,0.12 -0.05,-0.14 0.03,0.07 0.05,0.17 0.02,0.12 -0.31,-0.63 0.07,0.1 c 0.22,0.24 0.36,0.58 0.36,0.91 v 0.31 c 0.05,0.7 -0.43,1.32 -1.13,1.47 -0.67,0.12 -1.34,-0.24 -1.61,-0.89 l -0.67,-1.63 c -0.19,-0.43 -0.02,-0.96 0.36,-1.23 0.41,-0.28 0.94,-0.24 1.3,0.08 z"
         style="fill:#00a0d7;fill-opacity:1;fill-rule:nonzero;stroke:none"
         transform="matrix(1.3333333,0,0,-1.3333333,0,1120.8)" />
    </g>
    <g
       id="g18"
       transform="translate(4)">
      <path
         id="path18"
         d="m 215.74,757.92 0.26,-0.43 0.12,-0.19 0.62,-0.6 0.03,-0.05 0.45,-0.41 0.03,-0.02 0.17,-0.15 0.09,-0.05 0.1,-0.09 c 0.31,-0.19 0.72,-0.24 1.05,-0.07 0.34,0.16 0.56,0.5 0.58,0.88 0.02,0.36 -0.17,0.72 -0.48,0.94 l -0.1,0.07 0.05,-0.05 -0.17,0.15 0.03,-0.03 -0.48,0.39 0.05,-0.05 -0.65,0.58 0.14,-0.17 -0.31,0.41 c -0.31,0.43 -0.86,0.52 -1.3,0.24 -0.43,-0.29 -0.57,-0.87 -0.28,-1.3 z"
         style="fill:#00a0d7;fill-opacity:1;fill-rule:nonzero;stroke:none"
         transform="matrix(1.3333333,0,0,-1.3333333,0,1120.8)" />
    </g>
    <g
       id="g19"
       transform="translate(4)">
      <path
         id="path19"
         d="m 220.66,760.01 0.14,-0.63 0.05,-0.12 0.26,-0.72 c 0.19,-0.45 0.63,-0.74 1.11,-0.74 h 0.04 c 0.41,0 0.82,0.22 1.04,0.58 0.21,0.38 0.21,0.81 0,1.2 -0.22,0.36 -0.63,0.6 -1.04,0.57 h -0.04 l 1.1,-0.72 -0.29,0.7 0.05,-0.12 -0.19,0.62 c -0.19,0.63 -0.82,0.96 -1.44,0.79 -0.6,-0.16 -0.96,-0.79 -0.79,-1.41 z"
         style="fill:#00a0d7;fill-opacity:1;fill-rule:nonzero;stroke:none"
         transform="matrix(1.3333333,0,0,-1.3333333,0,1120.8)" />
    </g>
    <g
       id="g20"
       transform="translate(4)">
      <path
         id="path20"
         d="m 225.94,760.49 -0.34,-0.43 -0.1,-0.15 -0.33,-0.6 0.21,0.29 -0.07,-0.07 c -0.09,-0.1 -0.17,-0.19 -0.24,-0.31 l -0.07,-0.12 0.07,0.12 -0.05,-0.1 c -0.07,-0.1 -0.12,-0.19 -0.14,-0.26 l -0.05,-0.12 0.15,0.26 -0.08,-0.1 c -0.07,-0.09 -0.12,-0.19 -0.14,-0.28 l -0.12,-0.32 -0.02,-0.12 -0.05,-0.16 0.14,0.33 -0.05,-0.05 c -0.21,-0.38 -0.21,-0.86 0,-1.22 0.24,-0.38 0.65,-0.6 1.11,-0.55 0.43,0.05 0.81,0.33 0.98,0.74 l 0.03,0.07 0.04,0.24 0.05,0.17 -0.05,-0.17 0.1,0.32 -0.12,-0.27 0.07,0.12 c 0.05,0.07 0.1,0.17 0.12,0.27 l 0.03,0.12 -0.12,-0.29 0.07,0.09 0.07,0.12 0.07,0.15 -0.21,-0.27 0.07,0.05 c 0.07,0.1 0.14,0.19 0.19,0.29 l 0.29,0.6 -0.05,-0.1 0.29,0.48 c 0.29,0.48 0.17,1.11 -0.31,1.44 -0.46,0.32 -1.08,0.22 -1.44,-0.21 z"
         style="fill:#00a0d7;fill-opacity:1;fill-rule:nonzero;stroke:none"
         transform="matrix(1.3333333,0,0,-1.3333333,0,1120.8)" />
    </g>
    <g
       id="g31"
       transform="translate(4)">
      <path
         id="path31"
         d="m 222.05,736.92 0.6,-0.02 -0.41,0.07 0.89,-0.29 -0.1,0.05 1.42,-0.55 -0.07,0.02 0.38,-0.17 0.12,-0.05 0.36,-0.14 -0.05,0.05 0.34,-0.12 0.19,-0.07 1.03,-0.27 0.22,-0.05 1.75,-0.21 h 0.05 l 0.89,-0.1 h -0.05 l 0.6,-0.07 v 0 l 0.98,-0.12 h 0.1 l 3.05,-0.22 v 0.03 l 2.18,-0.17 h 0.05 l 2.57,-0.17 h 0.12 l 5.13,0.05 h 0.17 l 3.14,0.26 0.05,0.03 2.4,0.26 0.15,0.03 1.08,0.19 0.09,0.02 2.4,0.55 0.12,0.05 0.12,0.03 h -0.09 l 2.01,0.5 -0.12,-0.02 0.55,0.12 c 1.08,0.19 1.78,1.22 1.59,2.3 -0.19,1.08 -1.23,1.8 -2.31,1.61 l -0.57,-0.1 -0.15,-0.02 -1.99,-0.53 -0.12,-0.02 -0.09,-0.03 0.12,0.05 -2.38,-0.55 h 0.07 l -1.08,-0.19 h 0.15 l -2.4,-0.27 h 0.04 l -3.12,-0.26 h 0.15 l -5.14,-0.05 h 0.1 l -2.57,0.12 h 0.02 l -2.2,0.12 v 0 l -3.08,0.14 h 0.1 l -0.98,0.1 h 0.02 l -0.6,0.05 h -0.07 l -0.89,0.07 v -0.02 l -1.75,0.14 0.26,-0.05 -1.05,0.22 h 0.07 l -0.34,0.07 h -0.05 l -0.38,0.1 0.17,-0.05 -0.41,0.12 -0.12,0.05 -1.49,0.33 c -0.17,0.05 -0.33,0.05 -0.5,0.03 l -0.94,-0.08 c -0.07,-0.02 -0.14,-0.02 -0.24,-0.04 l -0.57,-0.17 c -0.65,-0.17 -1.08,-0.79 -1.01,-1.47 0.09,-0.67 0.65,-1.2 1.32,-1.22 z"
         style="fill:#00a0d7;fill-opacity:1;fill-rule:nonzero;stroke:none"
         transform="matrix(1.3333333,0,0,-1.3333333,0,1120.8)" />
    </g>
  </g>
</svg>
