<svg width="87.113" height="33.198" version="1.1" viewBox="0 0 87.113 33.198" xmlns="http://www.w3.org/2000/svg">
 <g transform="translate(-353.85 -108.09)">
  <path transform="matrix(1.3333 0 0 -1.3333 0 1120.8)" d="m268.15 757.46 0.46-0.04h0.14l0.72 0.04h-0.05 1.23-0.03l1.9-0.12 1.87-0.12h0.07l1.42-0.02h-0.02 0.14c0.43-0.02 0.82 0.19 1.03 0.55 0.22 0.36 0.22 0.82 0 1.18-0.21 0.36-0.6 0.57-1.03 0.55h-0.17l-1.41-0.07h0.04l-1.89-0.03h-3.15l-0.07-0.02-0.36-0.02-0.38-0.05h0.12l-0.46 0.02c-0.5 0.03-0.91-0.38-0.96-0.86-0.02-0.51 0.36-0.91 0.84-0.99z"/>
  <path transform="matrix(1.3333 0 0 -1.3333 0 1120.8)" d="m275.42 758.57 0.03-0.31v0.04l-0.03-0.62v-0.02l0.03-1.56v-0.08l0.07-1.05 0.02-0.12 0.39-1.75 0.02-0.08 0.7-2.56 0.41-1.42 0.02-0.02 0.22-0.72 1.15-3.75 0.02-0.02 0.87-2.47 0.02-0.08 0.22-0.5-0.03 0.05 1.01-2.76-0.02 0.05 0.12-0.34-0.05 0.1 0.09-0.36v-0.03l0.08-0.33v0.12l0.02-0.36 0.07-0.36-0.02 0.07 0.05-0.36v0.05l0.02-0.77v0.14l-0.02-0.24c-0.08-0.57 0.36-1.13 0.96-1.2s1.12 0.36 1.2 0.99l0.02 0.21v0.17l-0.02 0.77v0.05l-0.03 0.36-0.02 0.07-0.1 0.72-0.02 0.07-0.07 0.34v-0.03l-0.08 0.36-0.02 0.1-0.12 0.33v0.05l-1.01 2.76-0.02 0.05-0.19 0.48v-0.02l-0.84 2.44v-0.02l-1.18 3.74v0.03l-0.24 0.72v-0.05l-0.41 1.42-0.79 2.54v-0.05l-0.43 1.75v-0.14l-0.1 1.06v-0.1l-0.05 1.58v-0.02 0.62l-0.02 0.12-0.05 0.29c-0.05 0.51-0.5 0.87-0.98 0.82-0.51-0.05-0.89-0.48-0.87-0.96z"/>
  <path transform="matrix(1.3333 0 0 -1.3333 0 1120.8)" d="m267.67 757.3 0.48-0.17 0.07-0.03 0.77-0.24 0.6-0.12 0.12-0.02 0.1-0.02-0.27 0.07 0.1-0.03c0.1-0.04 0.19-0.07 0.29-0.07l0.12-0.02-0.51 0.17 0.1-0.05c0.07-0.05 0.19-0.1 0.29-0.12l0.29-0.1-0.34 0.17 0.05-0.02c0.07-0.08 0.19-0.12 0.26-0.17l0.12-0.03c0.07-0.02 0.17-0.04 0.24-0.04l0.07-0.03-0.55 0.22 0.05-0.03c0.17-0.12 0.36-0.21 0.55-0.21l0.07-0.03-0.07 0.03 0.22-0.03c0.14-0.04 0.33-0.02 0.5 0.03l0.1 0.02c0.38 0.12 0.69 0.46 0.77 0.87 0.09 0.4-0.08 0.84-0.39 1.1-0.33 0.26-0.77 0.34-1.15 0.17l-0.07-0.03 0.53 0.08-0.22 0.02c-0.07 0.02-0.14 0.02-0.22 0h-0.07l0.51-0.07-0.05 0.02c-0.17 0.07-0.34 0.07-0.51 0.07l-0.07-0.02 0.34-0.02-0.12 0.04 0.19-0.07-0.07 0.03-0.12 0.04-0.29 0.08 0.17-0.08-0.1 0.05c-0.14 0.07-0.33 0.1-0.5 0.1l-0.12-0.03h0.26-0.12c-0.07 0.03-0.17 0.03-0.26 0.03l-0.1-0.03h0.19l-0.52 0.08h0.02l-0.82 0.07h-0.04l-0.53 0.02c-0.41 0.03-0.77-0.26-0.87-0.69-0.07-0.41 0.15-0.8 0.53-0.96z"/>
  <path transform="matrix(1.3333 0 0 -1.3333 0 1120.8)" d="m271.22 757.63-0.14-0.36-0.02-0.14-0.15-0.67v-0.12l-0.12-1.78v-1.97l0.29-1.94 0.19-1.32 0.43-2.52v-0.05l0.12-0.55 0.03-0.05 0.14-0.5 0.03-0.1 0.55-1.42v-0.02l0.14-0.38 0.07-0.12 0.1-0.17 0.1-0.19c0.04-0.05 0.07-0.12 0.12-0.17l0.12-0.17 0.31-0.38h0.02l0.12-0.17c0.27-0.31 0.7-0.48 1.08-0.41 0.41 0.07 0.77 0.36 0.89 0.74 0.17 0.39 0.07 0.82-0.19 1.13l-0.12 0.17v-0.02l-0.31 0.38-0.03 0.05-0.14 0.14 0.12-0.17-0.1 0.2-0.12 0.19 0.07-0.12-0.09 0.17-0.07 0.19 0.02-0.05-0.58 1.42 0.03-0.05-0.17 0.48v-0.05l-0.14 0.53 0.02-0.1-0.48 2.5-0.22 1.27-0.31 1.94v-0.12l-0.05 0.92-0.04 0.86v-0.1l0.04 1.8v-0.09l0.08 0.69-0.03-0.09 0.1 0.38c0.09 0.46-0.17 0.91-0.63 1.03-0.45 0.12-0.91-0.12-1.08-0.55z"/>
  <path transform="matrix(1.3333 0 0 -1.3333 0 1120.8)" d="m274.49 744.86 0.02-0.07-0.12 0.67-0.07-0.36v-0.04l-0.12-0.87 0.05 0.17-0.12-0.36c-0.03-0.05-0.05-0.12-0.05-0.19l-0.12-0.89c-0.05-0.38 0.14-0.79 0.48-1.03s0.79-0.27 1.15-0.07c0.36 0.19 0.58 0.57 0.58 0.98l0.02 0.86v-0.09l0.03 0.38v0.05l0.04 0.89v0.07l-0.02 0.36-0.14-0.53 0.04 0.07c0.27 0.41 0.2 0.96-0.19 1.28-0.36 0.33-0.91 0.33-1.29 0-0.39-0.32-0.46-0.87-0.17-1.28z"/>
  <path transform="matrix(1.3333 0 0 -1.3333 0 1120.8)" d="m272.52 745.73-0.29-0.24c-0.07-0.05-0.14-0.12-0.21-0.19l-0.77-1.11-0.05-0.07-1.44-2.4v-0.02l-0.67-1.18-0.03-0.05-0.02-0.07-1.27-2.45 0.05 0.05-0.32-0.5-0.02-0.05-0.07-0.12c-0.22-0.39-0.17-0.84 0.05-1.2 0.21-0.36 0.64-0.55 1.05-0.53 0.43 0.05 0.82 0.29 0.99 0.7l0.07 0.12-0.05-0.05 0.29 0.53 0.02 0.02 1.2 2.5 0.05 0.04-0.05-0.02 0.65 1.18 1.37 2.44-0.05-0.04 0.72 1.15 0.05 0.09 0.14 0.34c0.19 0.38 0.07 0.84-0.26 1.1-0.34 0.27-0.79 0.27-1.13 0.03z"/>
  <path transform="matrix(1.3333 0 0 -1.3333 0 1120.8)" d="m274.25 742.87-0.12-0.29v0.03l-0.65-1.37 0.05 0.05-1.8-3.36 0.05 0.07-0.24-0.38-0.03-0.05-0.09-0.17c-0.22-0.36-0.22-0.84-0.03-1.2 0.22-0.36 0.63-0.6 1.06-0.6 0.41 0.02 0.79 0.24 1.01 0.62l0.09 0.2v-0.03l0.24 0.41 0.03 0.07 1.65 3.41 0.05 0.1 0.53 1.44 0.02 0.07 0.1 0.29c0.14 0.5-0.15 1.05-0.65 1.22-0.5 0.19-1.06-0.05-1.27-0.53z"/>
  <path transform="matrix(1.3333 0 0 -1.3333 0 1120.8)" d="m266.93 737.45-0.48-0.05c-0.53 0-0.99-0.43-1.06-0.98-0.05-0.53 0.31-1.04 0.84-1.18l0.75-0.17c0.09-0.02 0.16-0.02 0.26-0.02l4.32-0.1h-0.07l0.98-0.07h0.05l2.71-0.05h0.29c0.5 0 0.98 0.27 1.25 0.72 0.26 0.43 0.26 0.99 0 1.44-0.27 0.43-0.75 0.72-1.25 0.7h-0.29l-2.71-0.05h0.05-1.03l-4.32-0.14h-0.08l-0.74-0.1c-0.46-0.02-0.82-0.34-0.96-0.77-0.12-0.43 0.02-0.89 0.36-1.17 0.36-0.27 0.84-0.32 1.22-0.1l0.44 0.24c0.38 0.22 0.57 0.67 0.45 1.13-0.12 0.43-0.5 0.72-0.98 0.72z"/>
  <path transform="matrix(1.3333 0 0 -1.3333 0 1120.8)" d="m274.32 745.13v-0.58l0.02-0.17c0-0.09 0.03-0.19 0.05-0.28l0.07-0.15-0.07 0.29v-0.14c0.03-0.1 0.05-0.22 0.1-0.32l0.12-0.31-0.03 0.05 0.08-0.24 0.07-0.14 0.12-0.27 0.07-0.09 0.43-0.7 0.12-0.17 0.12-0.19c0.05-0.07 0.1-0.12 0.15-0.19l0.16-0.17h0.03l0.38-0.41 0.07-0.05 1.47-1.32v0.03l1.27-1.18-0.07 0.1 0.17-0.19 0.04-0.05 0.2-0.22-0.05 0.05 0.17-0.19-0.1 0.17 0.14-0.24-0.02 0.02 0.12-0.24 0.05-0.07 0.17-0.22-0.08 0.12 0.12-0.24 0.15-0.24-0.07 0.15 0.28-0.72-0.04 0.19 0.14-0.72-0.02 0.14 0.02-0.24c0.05-0.45 0.31-0.84 0.72-1.03s0.89-0.17 1.27 0.12c0.39 0.24 0.58 0.7 0.53 1.15l-0.02 0.24-0.03 0.15-0.14 0.72c-0.03 0.07-0.05 0.14-0.07 0.19l-0.29 0.72-0.07 0.17-0.12 0.24-0.15 0.24-0.07 0.12-0.14 0.19 0.02-0.05-0.12 0.22-0.02 0.02-0.17 0.24c-0.03 0.05-0.07 0.1-0.1 0.14l-0.19 0.2-0.05 0.07-0.19 0.19 0.05-0.05-0.29 0.29-1.32 1.18-0.02 0.02-1.54 1.25 0.05-0.05-0.41 0.41-0.05 0.02-0.19 0.15 0.17-0.15-0.15 0.17-0.14 0.17 0.02-0.05-0.48 0.65-0.02 0.02-0.17 0.22 0.07-0.12-0.14 0.24 0.05-0.07-0.15 0.28 0.08-0.19-0.03 0.15c-0.02 0.07-0.07 0.16-0.12 0.24l-0.07 0.14 0.12-0.29-0.05 0.15 0.03-0.08-0.1 0.56c-0.07 0.5-0.53 0.86-1.03 0.81-0.51-0.05-0.89-0.45-0.89-0.98z"/>
  <path transform="matrix(1.3333 0 0 -1.3333 0 1120.8)" d="m291.38 757.13-0.04-0.15v-0.21l0.02-2.21v-0.02l0.05-2.12 0.02-0.12 0.03-0.28v0.16l-0.03-0.81v-0.19c0-0.44 0.22-0.82 0.58-1.01 0.36-0.22 0.81-0.22 1.17 0 0.36 0.19 0.58 0.57 0.58 1.01v0.14-0.02l0.02 0.84c0 0.04 0 0.12-0.02 0.19l-0.05 0.29 0.03-0.1-0.15 2.14v0.02l-0.19 2.18c-0.02 0.12-0.05 0.24-0.1 0.32l-0.04 0.16c-0.17 0.39-0.6 0.63-1.04 0.6-0.4-0.04-0.76-0.38-0.84-0.81z"/>
  <path transform="matrix(1.3333 0 0 -1.3333 0 1120.8)" d="m292.87 757.9-0.05 0.04c-0.33 0.12-0.67 0.05-0.93-0.16-0.24-0.2-0.36-0.53-0.31-0.87 0.07-0.33 0.28-0.6 0.6-0.69l0.04-0.03c0.08-0.02 0.12-0.02 0.2-0.05l1.6-0.16 1.59-0.15 0.07-0.02 1.34-0.03h0.17c0.6 0 1.08 0.48 1.08 1.06s-0.48 1.06-1.08 1.06h-0.14 0.02l-1.34 0.04-1.59 0.03-1.6 0.02c-0.12 0.03-0.22-0.02-0.32-0.05h-0.04c-0.32-0.12-0.53-0.38-0.6-0.69-0.05-0.34 0.07-0.67 0.31-0.87 0.26-0.21 0.6-0.28 0.93-0.16l0.05 0.04c0.34 0.12 0.58 0.44 0.58 0.82 0 0.36-0.24 0.7-0.58 0.82z"/>
  <path transform="matrix(1.3333 0 0 -1.3333 0 1120.8)" d="m296.33 757.01-0.03-0.17c-0.02-0.07-0.02-0.14-0.02-0.22l0.02-2.2 0.08-2.14v-0.1l0.04-0.31v0.19l-0.04-0.84v-0.19c0-0.43 0.24-0.81 0.6-1.03 0.36-0.19 0.81-0.19 1.17 0 0.36 0.22 0.55 0.6 0.55 1.03v0.15l0.03 0.81v0.19l-0.05 0.29v-0.09l-0.12 2.11-0.02 0.05-0.2 2.2c0 0.1-0.04 0.22-0.07 0.32l-0.07 0.16c-0.17 0.39-0.58 0.63-1.03 0.58-0.41-0.05-0.77-0.38-0.84-0.79z"/>
  <path transform="matrix(1.3333 0 0 -1.3333 0 1120.8)" d="m293.21 751.8-0.07 0.02c-0.34 0.08-0.68-0.04-0.92-0.31-0.21-0.26-0.28-0.62-0.14-0.93 0.12-0.34 0.41-0.53 0.77-0.58h0.05l1.6-0.1 1.61-0.07h1.39l0.08 0.03h0.12c0.6 0.02 1.05 0.55 1 1.12-0.04 0.6-0.55 1.04-1.15 0.99h-0.12 0.05l-1.34-0.03-1.61-0.04-1.59-0.05c-0.16 0-0.33-0.05-0.48-0.12l-0.04-0.03c-0.41-0.26-0.53-0.81-0.29-1.24 0.24-0.41 0.79-0.58 1.22-0.34l0.07 0.02c0.32 0.2 0.51 0.53 0.46 0.92-0.05 0.36-0.31 0.64-0.67 0.74z"/>
  <path transform="matrix(1.3333 0 0 -1.3333 0 1120.8)" d="m297.7 742.56-0.41 0.17c-0.05 0.02-0.12 0.05-0.17 0.05l-0.07 0.02 0.62-0.46-0.02 0.03c-0.07 0.17-0.22 0.29-0.39 0.38l-0.04 0.03 0.36-0.39v0.03c-0.08 0.19-0.24 0.31-0.41 0.38l-0.05 0.05c-0.07 0.05-0.12 0.05-0.19 0.07h-0.05l-0.05 0.02-0.05 0.03h-0.09l0.29-0.1v0.03c-0.12 0.04-0.27 0.07-0.39 0.09l-0.19 0.03 0.14-0.05-0.28 0.07 0.12-0.02-0.36 0.12c-0.05 0.02-0.12 0.02-0.17 0.02l-0.34 0.07h-0.09l-1.01 0.05-0.51 0.05h-0.02l-0.86 0.02-0.12-0.02-0.56-0.03h-0.07l-0.93-0.09-0.36-0.05-0.12-0.02-0.2-0.05 0.12 0.02-0.21-0.02c-0.07 0-0.12 0-0.17-0.03l-0.48-0.12-0.12-0.02-0.38-0.14-0.58-0.2c-0.1-0.02-0.19-0.07-0.26-0.12l-0.51-0.31c-0.05-0.05-0.12-0.07-0.17-0.12l-0.31-0.29 0.07 0.08-0.38-0.29 0.1 0.05-0.24-0.17 0.74 0.21h-0.02c-0.34 0.03-0.68-0.09-0.94-0.33v-0.03h-0.02v-0.02l0.02 0.05-0.02-0.05 0.88 0.34h-0.02c-0.72 0.02-1.32-0.53-1.34-1.23v-0.02l0.4 0.89-0.02-0.05h-0.02v-0.05c-0.27-0.22-0.41-0.53-0.44-0.86v-0.03l0.15 0.53-0.03-0.02-0.02-0.05c-0.1-0.19-0.14-0.39-0.14-0.58v-0.05l0.4 0.92-0.02-0.03c-0.14-0.14-0.26-0.31-0.34-0.5l-0.02-0.07c-0.05-0.12-0.07-0.24-0.07-0.36v-0.05l0.14 0.55-0.02-0.05c-0.1-0.19-0.15-0.38-0.17-0.57v-0.29c0-0.07 0-0.17 0.02-0.24l0.05-0.24c0.05-0.27 0.17-0.51 0.36-0.67l0.03-0.05-0.24 0.36 0.02-0.05-0.14 0.6v-0.02c0-0.36 0.14-0.7 0.38-0.94l0.05-0.05-0.24 0.34 0.02-0.05c0.05-0.12 0.15-0.24 0.24-0.36h0.03c0.24-0.24 0.55-0.38 0.91-0.38l-1.13 0.72 0.02-0.05c0.12-0.27 0.34-0.46 0.58-0.6h0.05l-0.72 1.17v-0.02c0-0.36 0.12-0.67 0.36-0.94 0.24-0.26 0.6-0.38 0.93-0.38h0.05l-0.91 0.36h0.02l0.03-0.02 0.02-0.03c0.17-0.19 0.39-0.31 0.6-0.33l0.1-0.05-0.27 0.12 0.2-0.1 0.12-0.07c0.07-0.02 0.16-0.02 0.24-0.05l0.12-0.02-0.17 0.05 0.29-0.12c0.07 0 0.16-0.05 0.24-0.05l0.6-0.07 0.55-0.08 0.12-0.02 0.57-0.02h1.44l4.2 0.14h-0.02l3.94 0.02h-0.03 1.13l1.92 0.03h0.1l2.04 0.17h-0.12 0.04c0.77 0 1.37 0.62 1.37 1.39s-0.6 1.39-1.37 1.39h-0.19l-2.01-0.19h0.12l-1.92-0.05h-1.11l-3.93-0.07h-0.05l-4.23-0.17h0.05-1.32 0.07-0.6 0.12l-0.57 0.07-0.58 0.05 0.24-0.02-0.29 0.07c-0.04 0.02-0.09 0.05-0.16 0.05l-0.12 0.02 0.24-0.07-0.12 0.05 0.09-0.05-0.09 0.05c-0.08 0.04-0.17 0.07-0.27 0.09l-0.09 0.03 0.6-0.34-0.03 0.05h-0.02l-0.03 0.05c-0.24 0.21-0.57 0.36-0.91 0.36h-0.05l1.32-1.3v0.02c0 0.51-0.28 0.94-0.74 1.16l-0.05 0.02 0.6-0.58-0.02 0.05c-0.24 0.46-0.7 0.72-1.2 0.7l0.91-0.36-0.02 0.02 0.26-0.33-0.02 0.04c-0.08 0.12-0.17 0.24-0.27 0.34l-0.05 0.05 0.41-0.91v0.02c-0.02 0.19-0.05 0.41-0.14 0.58l-0.03 0.04c-0.07 0.12-0.16 0.24-0.26 0.34l-0.02 0.02 0.36-0.64-0.05 0.24 0.05-0.29v0.29l-0.15-0.6 0.03 0.04c0.09 0.2 0.14 0.44 0.12 0.63v0.05l-0.05-0.48v0.07l-0.27-0.48 0.03 0.02c0.21 0.24 0.36 0.58 0.33 0.91v0.05l-0.12-0.6 0.03 0.05v0.05c0.12 0.19 0.17 0.41 0.14 0.62v0.03l-0.36-0.96 0.03 0.02 0.02 0.05h0.02c0.24 0.26 0.36 0.6 0.36 0.96v0.02c-0.04 0.7-0.64 1.25-1.34 1.23-0.72-0.05-1.25-0.65-1.22-1.35 0.02-0.69 0.62-1.27 1.34-1.22h0.02c0.36 0.02 0.68 0.17 0.89 0.43l0.03 0.02-0.03-0.02h0.03l0.02 0.05-0.86-0.41h0.02c0.26 0.02 0.5 0.1 0.7 0.24l0.24 0.17 0.04 0.05 0.36 0.31 0.05 0.05 0.31 0.26-0.14-0.1 0.5 0.34-0.24-0.12 0.56 0.22 0.38 0.14-0.14-0.05 0.48 0.12-0.15-0.02 0.22 0.02 0.12 0.03 0.21 0.04-0.09-0.02 0.36 0.05 0.93 0.14h-0.04l0.55 0.05h-0.07l0.86 0.02h0.02l0.51 0.03 1.01 0.05 0.09 0.02 0.34 0.05h-0.22l0.39-0.03h0.07l0.29 0.03h0.21c0.12 0 0.27 0.05 0.39 0.12l-0.29-0.1 0.09 0.03h0.1l0.05 0.02-0.36-0.02h0.09l-0.21 0.07 0.02-0.03c0.07-0.02 0.15-0.04 0.22-0.04l0.07-0.03-0.22 0.05h0.03c0.17-0.07 0.33-0.1 0.48-0.07l0.07 0.02h0.02l0.44 0.07c0.28 0.08 0.52 0.32 0.55 0.6 0.02 0.32-0.15 0.58-0.43 0.7z"/>
  <path transform="matrix(1.3333 0 0 -1.3333 0 1120.8)" d="m292.3 742.22 0.02 0.27-0.02-0.07 0.02 0.07c0.02 0.14 0.02 0.31-0.05 0.45v0.03l-0.05-0.72 0.03 0.05c0.02 0.07 0.05 0.12 0.07 0.19l0.02 0.05v0.02l0.03 0.05-0.19-0.36 0.02 0.05 0.02 0.02c0.1 0.12 0.17 0.24 0.22 0.36l0.02 0.05v0.05l-0.21-0.36 0.05 0.02-0.41-0.26 0.02 0.02c0.22 0.07 0.43 0.24 0.55 0.46l0.03 0.04-0.55-0.45h0.04c0.15 0.07 0.29 0.17 0.41 0.29l0.03 0.02-0.41-0.26h0.02c0.22 0.07 0.39 0.24 0.51 0.4l0.07 0.1-0.55-0.43 0.04 0.02c0.12 0.05 0.24 0.1 0.34 0.17l0.05 0.05-0.12-0.07 0.05 0.02h0.02l-0.24-0.1 0.05 0.03c0.24 0.07 0.43 0.19 0.57 0.41l0.03 0.02-1.11-0.43 0.05-0.03c0.27-0.02 0.55 0.03 0.77 0.15l0.02 0.02-0.33-0.14 0.07 0.02c0.12 0.03 0.24 0.07 0.34 0.15h0.04l-0.24-0.1h0.05l-0.55-0.02h0.1c0.21-0.05 0.43-0.03 0.64 0.04l0.08 0.05-0.39-0.09 0.82 0.04h0.12l0.48 0.08h-0.19 0.12l0.12-0.03h0.07l-0.24 0.03 0.12-0.03-0.05 0.03 0.1-0.03c0.09-0.02 0.19-0.05 0.28-0.05h0.12l-0.33 0.05 0.29-0.07 0.04-0.02 0.46-0.1h0.02l0.87-0.19 0.36-0.07h0.12l0.86-0.12 0.82-0.1h-0.03l0.32-0.02 0.12-0.03 0.76-0.05h-0.02l0.31-0.02h-0.05l0.72-0.1h0.05l0.31-0.02h-0.02l0.74-0.07h0.05l1.03-0.07h1.2l0.15 0.02 0.53 0.05c0.09 0 0.16 0.02 0.24 0.05l0.09 0.02-0.31-0.05h0.05-0.03 0.12-0.02 0.02l-0.91 0.34h0.03c0.24-0.24 0.57-0.36 0.91-0.36h0.07c0.7 0.05 1.25 0.65 1.22 1.32-0.04 0.72-0.62 1.25-1.32 1.25-0.72-0.05-1.24-0.6-1.24-1.32s0.6-1.3 1.29-1.28h0.03l-0.89 0.34h0.02l-0.41 0.89v-0.03c0.03-0.69 0.6-1.24 1.3-1.24h0.02c0.72 0.02 1.28 0.6 1.25 1.29 0 0.7-0.57 1.27-1.29 1.25-0.7 0-1.25-0.58-1.25-1.27v-0.05l0.02-0.05v-0.02c0-0.31 0.15-0.63 0.39-0.84l0.02-0.03-0.41 0.89v-0.07c0.03-0.17 0.05-0.34 0.12-0.48l0.07-0.17-0.04 0.15 0.09-0.32v0.05l0.07-0.36 0.03-0.05 0.09-0.28-0.04 0.19 0.09-0.7 0.03-0.09 0.16-0.94 0.05-0.12c0-0.07 0.03-0.14 0.05-0.19l0.1-0.29c0.26-0.65 0.98-0.98 1.65-0.74 0.65 0.26 0.96 0.98 0.72 1.63l-0.09 0.29 0.04-0.2-0.02 0.12-0.19 0.94 0.02-0.07-0.09 0.69c-0.03 0.08-0.03 0.15-0.05 0.22l-0.1 0.31v-0.05l-0.09 0.34v0.05l-0.12 0.31-0.03 0.12-0.07 0.17 0.1-0.53v0.07c0 0.34-0.12 0.67-0.36 0.94h-0.03l0.36-0.96v0.12c0.03 0.69-0.55 1.27-1.25 1.27h-0.02c-0.7 0.02-1.27-0.55-1.3-1.22 0-0.72 0.56-1.3 1.25-1.32 0.7 0 1.27 0.55 1.32 1.24v0.03c0 0.33-0.12 0.67-0.36 0.91l-0.05 0.05c-0.24 0.24-0.55 0.36-0.88 0.36h-0.03c-0.69 0.02-1.29-0.55-1.29-1.25 0-0.72 0.55-1.27 1.24-1.3 0.72-0.02 1.3 0.56 1.32 1.28 0 0.69-0.52 1.27-1.22 1.32h-0.07l0.86-0.41v0.05c-0.24 0.24-0.57 0.36-0.89 0.38h-0.02 0.02-0.12 0.03-0.05c-0.1 0-0.22-0.02-0.29-0.02l-0.12-0.03 0.19 0.03-0.55-0.05h0.07-1.12 0.04l-1.03 0.05h0.07l-0.74 0.07h-0.31 0.07l-0.74 0.09h-0.08l-0.31 0.03-0.77 0.05h0.08l-0.34 0.02-0.02 0.02-0.82 0.1h-0.02l-0.84 0.1 0.07-0.03-0.39 0.05-0.84 0.17-0.45 0.07h0.09l-0.28 0.05c-0.1 0.05-0.22 0.05-0.32 0.05h-0.12l0.32-0.03-0.1 0.03h-0.07l-0.12 0.02c-0.07 0.02-0.15 0.02-0.24 0.02h-0.31c-0.05 0-0.12-0.02-0.17-0.02l-0.48-0.07h0.05l-0.82-0.1c-0.17-0.02-0.31-0.07-0.46-0.17l-0.09-0.04 0.41 0.14h-0.05l-0.05-0.02c-0.17-0.03-0.34-0.1-0.46-0.17l-0.04-0.05c-0.15-0.07-0.24-0.19-0.32-0.34l-0.04-0.02 0.52 0.46-0.07-0.05c-0.21-0.1-0.38-0.24-0.5-0.43l-0.03-0.05 0.77 0.53h-0.05c-0.4-0.08-0.74-0.36-0.86-0.77l-0.02-0.05 0.43 0.58-0.05-0.03c-0.12-0.09-0.22-0.21-0.31-0.33l-0.03-0.03v-0.02l0.08 0.09-0.05-0.04 0.21 0.21-0.02-0.02c-0.19-0.15-0.34-0.31-0.41-0.53l-0.02-0.12v0.05l-0.03-0.05c0-0.02-0.02-0.1-0.04-0.14v-0.05l0.04 0.17v-0.05c-0.04-0.07-0.04-0.15-0.07-0.22v-0.07l0.05 0.22v-0.03l-0.05-0.14-0.02-0.07c-0.03-0.17-0.03-0.34 0.05-0.48v-0.1 0.48l-0.03-0.05-0.02-0.05c-0.03-0.14 0-0.31 0.05-0.45v-0.05l0.02-0.02 0.02-0.05-0.04 0.36v-0.07c-0.08-0.41 0.16-0.77 0.55-0.94h0.02l-0.53 0.65v-0.07c0.03-0.1 0.05-0.17 0.08-0.24l0.12-0.22c0.16-0.29 0.48-0.46 0.81-0.38 0.34 0.04 0.58 0.31 0.63 0.64z"/>
  <path transform="matrix(1.3333 0 0 -1.3333 0 1120.8)" d="m308.28 755.3 0.84-0.26 0.12-0.02 0.26-0.08-0.19 0.08 0.27-0.12h0.02l0.72-0.29-0.12 0.07 0.19-0.1 0.03-0.02 0.16-0.07-0.07 0.02 0.19-0.12-0.02 0.03 0.14-0.1-0.09 0.05 0.14-0.12v0.02l0.17-0.14 0.02-0.03 0.12-0.09-0.07 0.09 0.15-0.16 0.14-0.15-0.07 0.1 0.14-0.15 0.12-0.16-0.07 0.07 0.14-0.15-0.02 0.03 0.07-0.15-0.05 0.12 0.22-0.43-0.02 0.07 0.12-0.28-0.03 0.09 0.07-0.29 0.12-0.26-0.02 0.1 0.05-0.29-0.03 0.09 0.05-0.28 0.07-0.29-0.02 0.05 0.07-0.6v0.16-0.48 0.08l-0.05-0.48v0.07l-0.16-1.39 0.02 0.09-0.22-0.89v-0.02l-0.31-1.58-0.02-0.15-0.07-1.03c-0.03-0.07-0.03-0.14 0-0.24l0.07-0.62-0.03 0.14v-0.12c0-0.14 0.05-0.29 0.1-0.43l0.02-0.15 0.08-0.14-0.08 0.22 0.05-0.15c0-0.09 0.05-0.19 0.07-0.26l0.1-0.24 0.12-0.24-0.05 0.09 0.07-0.09c0-0.07 0.05-0.15 0.1-0.19l0.07-0.12-0.05 0.07 0.08-0.12c0.04-0.07 0.09-0.17 0.14-0.24l0.12-0.12 0.02-0.05 0.22-0.19-0.1 0.09 0.12-0.16c0.1-0.1 0.22-0.2 0.32-0.27l0.16-0.12-0.24 0.22 0.15-0.17c0.07-0.07 0.14-0.12 0.24-0.19l0.19-0.12 0.17-0.12 0.19-0.1 0.07-0.07 0.55-0.29 0.12-0.05 0.44-0.16 0.07-0.05 0.45-0.17h0.05l0.43-0.14 0.05-0.03 0.96-0.26h0.07l1.52-0.31h0.07l1.34-0.22h0.1l3.41-0.29 0.09-0.02 4.85-0.07h0.86c0.7 0 1.3 0.57 1.3 1.27 0 0.72-0.6 1.29-1.3 1.29h-0.84 0.03l-4.85 0.08 0.07-0.03-3.43 0.29h0.07l-1.37 0.19 0.08-0.02-1.49 0.31 0.07-0.02-0.96 0.24h0.05l-0.43 0.12h0.04l-0.48 0.14 0.1-0.02-0.46 0.19 0.1-0.05-0.55 0.29 0.07-0.05-0.17 0.12-0.19 0.12-0.17 0.12 0.24-0.22-0.12 0.15c-0.07 0.07-0.17 0.14-0.24 0.19l-0.19 0.12 0.31-0.26-0.14 0.14-0.07 0.12-0.22 0.19 0.05-0.05-0.1 0.12 0.15-0.21-0.08 0.12-0.04 0.09-0.1 0.12 0.12-0.16-0.05 0.09-0.05 0.1-0.09 0.14 0.07-0.09-0.07 0.12-0.05 0.12 0.1-0.29-0.03 0.14c-0.02 0.05-0.05 0.15-0.07 0.19l-0.05 0.15-0.05 0.12 0.08-0.41v0.24l-0.1 0.65 0.02-0.22 0.05 1.01v-0.14l0.29 1.63v-0.03l0.17 0.89 0.02 0.07 0.17 1.42v0.1l0.02 0.45v0.07l-0.02 0.48v0.15l-0.1 0.6v0.07l-0.04 0.26-0.08 0.29v0.07l-0.09 0.32-0.03 0.09-0.12 0.29-0.09 0.26-0.05 0.08-0.12 0.28-0.05 0.08-0.24 0.4c-0.02 0.05-0.05 0.12-0.07 0.15l-0.12 0.14-0.02 0.03-0.15 0.16-0.05 0.05-0.12 0.15-0.14 0.12-0.07 0.07-0.17 0.12-0.14 0.14-0.1 0.07-0.14 0.1 0.04-0.02-0.19 0.12v0.02l-0.17 0.1-0.09 0.07-0.17 0.09-0.22 0.12-0.09 0.03-0.17 0.07 0.07-0.02-0.19 0.07-0.1 0.05-0.74 0.28h-0.05l-0.24 0.08c-0.07 0.02-0.12 0.04-0.19 0.04l-0.29 0.03 0.17-0.03-0.86 0.24c-0.53 0.15-1.08-0.14-1.23-0.67-0.17-0.53 0.12-1.08 0.65-1.25z"/>
  <path transform="matrix(1.3333 0 0 -1.3333 0 1120.8)" d="m318.17 741.86-0.17-0.04c-0.24-0.1-0.43-0.24-0.55-0.46l-0.77-1.39-0.43-0.77 0.02 0.05-0.36-0.6v0.05l-0.07-0.15-0.1-0.14-0.14-0.24-0.07-0.15-0.03-0.04-0.07-0.17-0.02-0.05-0.12-0.31-0.03-0.12-0.02-0.07c-0.14-0.6 0.19-1.18 0.77-1.32 0.57-0.12 1.15 0.21 1.29 0.79l0.05 0.07-0.05-0.12 0.12 0.31-0.02-0.02 0.07 0.14-0.02-0.05 0.07 0.15 0.07 0.12-0.07-0.12 0.07 0.17 0.1 0.12 0.02 0.02 0.36 0.62 0.05 0.08 0.41 0.79 0.02 0.02 0.65 1.44c0.05 0.07 0.07 0.17 0.07 0.24l0.05 0.17c0.05 0.34-0.07 0.62-0.31 0.82-0.22 0.19-0.55 0.26-0.84 0.16z"/>
  <path transform="matrix(1.3333 0 0 -1.3333 0 1120.8)" d="m321.48 740.76-0.05-0.07 0.24 0.24-0.02-0.03c-0.1-0.04-0.17-0.14-0.24-0.21l-0.05-0.07 0.17 0.16-0.05-0.04c-0.14-0.1-0.24-0.24-0.31-0.41l-0.03-0.05 0.1 0.17-0.07-0.12c-0.12-0.17-0.17-0.31-0.19-0.53l0.16 0.48-0.33-0.55-0.27-0.41-0.28-0.43c-0.03-0.05-0.05-0.1-0.08-0.17l-0.57-1.27-0.05-0.12-0.07-0.17c-0.12-0.41 0-0.86 0.29-1.2 0.31-0.31 0.74-0.43 1.17-0.31 0.41 0.09 0.75 0.43 0.84 0.84l0.05 0.17-0.05-0.15 0.53 1.3-0.05-0.1 0.24 0.46 0.24 0.43v0.02l0.29 0.58c0.1 0.19 0.14 0.38 0.12 0.6l-0.12-0.6 0.05 0.12c0.05 0.1 0.09 0.17 0.12 0.26v0.08l-0.22-0.44 0.05 0.05c0.05 0.05 0.07 0.1 0.12 0.15l0.02 0.07-0.04-0.07 0.02 0.02 0.05 0.1 0.02 0.07c0.29 0.48 0.15 1.08-0.31 1.39-0.48 0.31-1.08 0.22-1.44-0.24z"/>
  <path transform="matrix(1.3333 0 0 -1.3333 0 1120.8)" d="m313.87 734.88 0.79 0.02h0.03l0.98 0.03h-0.09l3.57-0.1h-0.02l2.69-0.14h0.31c0.48 0 0.93 0.26 1.2 0.67 0.24 0.41 0.24 0.94 0 1.37-0.27 0.41-0.72 0.67-1.2 0.67h-0.24 0.02l-2.69 0.05h-0.04l-3.58-0.05h-0.05l-0.96-0.02-0.14-0.03-0.77-0.14c-0.6-0.1-1.03-0.65-0.98-1.25 0.04-0.6 0.57-1.08 1.17-1.08z"/>
  <path transform="matrix(1.3333 0 0 -1.3333 0 1120.8)" d="m315.46 746.02 0.26 0.02h-0.24l0.48-0.02 0.5-0.05-0.12 0.02 1.42-0.26-0.1 0.05 2.38-0.65h-0.05l0.87-0.27h-0.03l0.67-0.21-0.09 0.05 1.8-0.8-0.1 0.03 1.56-0.84-0.12 0.07 0.75-0.5-0.03 0.02 0.77-0.55-0.07 0.07 1.8-1.54-0.07 0.08 0.26-0.24 0.02-0.03 0.27-0.24-0.1 0.1 0.22-0.27c0.31-0.36 0.79-0.5 1.25-0.4 0.43 0.07 0.81 0.38 0.96 0.84 0.14 0.43 0.04 0.91-0.24 1.27l-0.24 0.26-0.1 0.1-0.26 0.24 0.02-0.03-0.26 0.27-0.08 0.05-1.82 1.51-0.07 0.07-0.77 0.53-0.74 0.53-0.15 0.07-1.56 0.81-0.09 0.05-1.83 0.77-0.12 0.05-0.67 0.21v0.03l-0.89 0.24-0.02 0.02-2.4 0.63-0.12 0.02-1.42 0.22h-0.19l-0.5 0.02h-0.48c-0.12 0-0.22-0.02-0.34-0.05l-0.29-0.07c-0.57-0.17-0.96-0.79-0.81-1.39 0.12-0.6 0.69-1.01 1.32-0.91z"/>
  <path transform="matrix(1.3333 0 0 -1.3333 0 1120.8)" d="m309.26 755.54h0.03c0.14 0 0.26 0.03 0.38 0.05l0.05 0.03-0.17-0.05h0.05l0.05 0.02c0.09 0.03 0.19 0.03 0.26 0.07l0.05 0.03-0.1-0.03h0.08-0.08 0.03l0.07 0.03h0.05c0.09 0.05 0.19 0.09 0.26 0.14l0.05 0.03h-0.05 0.03l-0.08-0.05 0.12 0.07 0.1 0.05 0.19 0.14-0.02-0.02 0.19 0.14-0.14-0.07 0.24 0.1 0.09 0.04 0.17 0.12-0.12-0.07 0.24 0.1h0.02l0.22 0.12-0.1-0.05 0.22 0.1-0.07-0.05 0.21 0.07h-0.02l0.24 0.05 0.24 0.07-0.02-0.02 0.21 0.07-0.12-0.03 0.27 0.03h-0.1l0.72 0.05h0.12l-0.24 0.02 0.1-0.02-0.15 0.04 0.07-0.04c0.15-0.05 0.29-0.05 0.41-0.05l0.12 0.02-0.38 0.03 0.29-0.08-0.05 0.03 1.01-0.31-0.24 0.09 0.14-0.07c0.07-0.05 0.14-0.07 0.22-0.1l0.14-0.04-0.36 0.19 0.12-0.1c0.1-0.07 0.22-0.14 0.36-0.17l0.12-0.04-0.36 0.19 0.12-0.12 0.05-0.03 0.14-0.09-0.05 0.05 0.12-0.1-0.07 0.05 0.12-0.1 0.07-0.09-0.02 0.04 0.1-0.09-0.05 0.05 0.09-0.12-0.07 0.12 0.07-0.12 0.1-0.12 0.12-0.12-0.14 0.19 0.07-0.15-0.1 0.2 0.07-0.15c0-0.05 0.05-0.12 0.1-0.17l0.07-0.12-0.07 0.15 0.12-0.34 0.12-0.26-0.07 0.21 0.07-0.28 0.02-0.12 0.1-0.24-0.05 0.16 0.05-0.26v0.02l0.07-0.28-0.02 0.12 0.02-0.27v0.07-0.28 0.04l0.03-0.76v0.16l-0.08-0.6-0.07-0.57v0.05l-0.12-0.63 0.05 0.1-0.38-1.37 0.02 0.05-0.22-0.65-0.02-0.1-0.1-0.33 0.05 0.14-0.12-0.33v0.02l-0.12-0.36 0.03 0.1-0.34-0.75 0.05 0.1-0.1-0.15c-0.19-0.36-0.19-0.81 0-1.2 0.22-0.38 0.63-0.6 1.06-0.6s0.81 0.24 1.03 0.63l0.07 0.12 0.05 0.09 0.36 0.75 0.02 0.07 0.12 0.34v0.02l0.12 0.34 0.05 0.12 0.1 0.33-0.05-0.09 0.22 0.67 0.02 0.05 0.36 1.39 0.05 0.09 0.09 0.63v0.05l0.08 0.57 0.09 0.63v0.16l-0.02 0.75v0.38l-0.05 0.27v0.12l-0.05 0.26-0.02 0.02-0.05 0.24c0 0.05-0.02 0.12-0.05 0.17l-0.09 0.27 0.04-0.12-0.07 0.24c-0.02 0.07-0.02 0.14-0.07 0.19l-0.1 0.24-0.14 0.33c-0.02 0.08-0.05 0.12-0.07 0.17l-0.1 0.12 0.1-0.17-0.05 0.12c-0.05 0.08-0.07 0.12-0.1 0.2l-0.09 0.12c-0.03 0.04-0.07 0.12-0.15 0.16l-0.09 0.12 0.09-0.12-0.07 0.1-0.09 0.14-0.15 0.15-0.12 0.09-0.05 0.05-0.09 0.1-0.1 0.09-0.05 0.03-0.12 0.09-0.07 0.03-0.12 0.09 0.05-0.02-0.12 0.1c-0.12 0.07-0.24 0.12-0.36 0.16l-0.14 0.05 0.33-0.17-0.09 0.08c-0.1 0.07-0.22 0.14-0.34 0.16l-0.17 0.05 0.22-0.09-0.15 0.09c-0.07 0.05-0.16 0.07-0.26 0.1l-1.01 0.29h-0.02l-0.29 0.04c-0.12 0.05-0.29 0.05-0.41 0.03h-0.12l0.41-0.03-0.1 0.03-0.14 0.02h-0.12c-0.1 0-0.17 0-0.24-0.02h-0.12 0.07l-0.72-0.07h-0.14l-0.27-0.08-0.12-0.04-0.21-0.08h-0.03l-0.19-0.09-0.19-0.07h-0.05l-0.19-0.08-0.07-0.04-0.22-0.1-0.09-0.05-0.22-0.14 0.02 0.05-0.19-0.12-0.12-0.08-0.17-0.12 0.12 0.05-0.24-0.12c-0.02-0.02-0.07-0.05-0.12-0.09l-0.19-0.17-0.05-0.03-0.14-0.14 0.12 0.1-0.12-0.08c-0.07-0.04-0.12-0.09-0.19-0.16l-0.03-0.03 0.03 0.03-0.03-0.03 0.22 0.17-0.05-0.02-0.05-0.05h-0.02l0.05 0.05-0.05-0.05-0.1-0.07h-0.04l0.28 0.12h-0.07l-0.05-0.05c-0.04 0-0.12-0.03-0.14-0.05l-0.07-0.02 0.36 0.09h-0.03c-0.48-0.05-0.84-0.43-0.84-0.91s0.36-0.89 0.84-0.94z"/>
  <path transform="matrix(1.3333 0 0 -1.3333 0 1120.8)" d="m273.29 752.06-0.12-0.24c-0.1-0.14-0.12-0.28-0.12-0.45v-0.15 0.15l-0.03-0.15-0.02-0.16v-0.12-0.17l0.02-0.17-0.02 0.19v-0.45l0.02-0.17c0-0.07 0.03-0.12 0.03-0.19l0.05-0.12-0.05 0.14 0.02-0.12 0.03-0.14 0.04-0.17c0.03-0.05 0.03-0.12 0.05-0.17l0.15-0.31 0.02-0.05 0.07-0.17 0.1-0.19 0.05-0.1 0.09-0.16 0.12-0.22c0.05-0.02 0.07-0.07 0.1-0.12l0.14-0.17-0.07 0.1 0.12-0.17c0.05-0.07 0.07-0.12 0.12-0.17l0.43-0.41 0.05-0.04 0.46-0.41 0.04-0.05 0.99-0.79-0.03 0.05 0.96-0.84-0.07 0.07 0.58-0.55 0.17-0.22-0.05 0.07 0.17-0.19 0.19-0.22-0.12 0.15 0.43-0.65-0.07 0.14 0.05-0.09c0.19-0.39 0.55-0.65 0.98-0.67 0.43 0 0.84 0.19 1.06 0.55 0.24 0.36 0.26 0.79 0.07 1.17l-0.05 0.1-0.07 0.12-0.41 0.62c-0.02 0.08-0.07 0.1-0.12 0.15l-0.19 0.19h0.02l-0.17 0.19-0.04 0.05-0.2 0.19v-0.02l-0.57 0.6-0.07 0.05-0.99 0.81-0.02 0.03-1.01 0.76 0.05-0.02-0.48 0.38 0.07-0.07-0.41 0.41 0.12-0.12-0.12 0.17-0.07 0.07-0.14 0.17 0.09-0.17-0.12 0.22-0.12 0.16 0.07-0.09-0.09 0.19-0.1 0.17v-0.03l-0.14 0.32 0.07-0.15-0.05 0.15 0.03-0.1-0.03 0.12c-0.02 0.07-0.02 0.12-0.07 0.17l-0.05 0.14 0.07-0.19-0.02 0.17v-0.17 0.31c0 0.05-0.02 0.12-0.05 0.17l-0.02 0.14 0.02-0.16v0.12-0.15 0.46-0.27l0.05 0.27c0.1 0.48-0.17 0.96-0.65 1.15-0.48 0.17-0.98-0.02-1.22-0.46z"/>
  <path transform="matrix(1.3333 0 0 -1.3333 0 1120.8)" d="m315.31 744.77 0.05-0.12 0.1-0.1 0.09-0.12-0.05 0.03 0.1-0.1 0.07-0.12 0.1-0.07-0.07 0.07 0.09-0.12 0.17-0.17 0.1-0.09 0.07-0.08 0.12-0.09 0.09-0.07 0.12-0.08-0.12 0.08 0.12-0.1h0.05l0.07-0.07 0.1-0.07 0.12-0.08 0.14-0.07 0.12-0.05-0.04 0.03 0.28-0.15c0.08-0.02 0.15-0.04 0.22-0.04l0.19-0.08-0.12 0.05 0.17-0.07 0.14-0.02 0.22-0.05 0.19-0.07h0.12l0.22-0.05h0.19l0.12-0.03h0.24l0.6 0.03h0.05l1.03 0.09-0.02-0.02 1.94 0.1h-0.07 0.55-0.07l0.24-0.03-0.1 0.03 0.27-0.05h0.02l0.26-0.05h-0.09l0.55-0.14 0.12-0.03 0.14-0.02-0.31 0.09 0.15-0.07 0.14-0.07 0.12-0.02 0.14-0.05-0.21 0.09 0.12-0.07 0.07-0.05 0.14-0.04 0.15-0.1-0.19 0.12 0.09-0.07 0.03-0.03 0.33-0.26-0.12 0.1 0.17-0.17 0.07-0.05 0.17-0.14c0.29-0.24 0.67-0.32 1.03-0.2 0.36 0.15 0.63 0.44 0.7 0.82 0.07 0.36-0.05 0.77-0.36 1.01l-0.15 0.14 0.05-0.07-0.14 0.17-0.12 0.07-0.31 0.26-0.12 0.1c-0.05 0.05-0.12 0.1-0.17 0.12l-0.15 0.07-0.14 0.05 0.07-0.02-0.12 0.07c-0.07 0.05-0.14 0.07-0.21 0.07l-0.15 0.05-0.12 0.05 0.12-0.05-0.12 0.07c-0.12 0.05-0.19 0.1-0.31 0.1l-0.12 0.02 0.1-0.02-0.58 0.14-0.12 0.05-0.26 0.05h0.02l-0.26 0.02h-0.1l-0.24 0.05h-0.72l-1.92-0.12h-0.05l-1.03-0.1h0.05l-0.6-0.02h0.02-0.19 0.12l-0.22 0.02-0.21 0.03 0.12-0.03-0.22 0.05-0.19 0.05 0.12-0.05-0.17 0.07-0.14 0.05-0.22 0.05 0.22-0.07-0.29 0.12-0.07 0.02-0.12 0.05 0.14-0.07-0.12 0.07 0.1-0.05-0.1 0.05h0.05l-0.12 0.07-0.12 0.1-0.12 0.07 0.12-0.1-0.12 0.1 0.07-0.07-0.07 0.09-0.1 0.1 0.08-0.1-0.1 0.12-0.17 0.17 0.1-0.12-0.07 0.12h-0.03l-0.07 0.12 0.07-0.12-0.07 0.12c-0.29 0.48-0.91 0.65-1.39 0.36-0.46-0.29-0.63-0.91-0.34-1.39z"/>
 </g>
</svg>
