<svg width="32.725" height="99.751" version="1.1" viewBox="0 0 32.725 99.751" xmlns="http://www.w3.org/2000/svg">
 <g transform="translate(-362.13 -180.82)">
  <path transform="matrix(1.3333 0 0 -1.3333 0 1120.8)" d="m276.34 702.86 0.55-0.04h0.12l0.43 0.04h0.46-0.05 1.51-0.02l2.3-0.12h-0.02l2.3-0.12h0.07l1.71-0.02 0.16-0.02c0.44 0 0.82 0.21 1.04 0.6 0.24 0.36 0.24 0.81 0 1.17-0.22 0.36-0.6 0.6-1.04 0.58h-0.21l-1.71-0.07h0.05l-2.3-0.03h-3.84l-0.05-0.02-0.46-0.03-0.45-0.02h0.07-0.53c-0.5 0-0.93-0.38-0.96-0.89-0.02-0.53 0.36-0.96 0.87-1.01z"/>
  <path transform="matrix(1.3333 0 0 -1.3333 0 1120.8)" d="m285.34 703.97 0.02-0.31v0.07l-0.02-0.63v-0.04l0.02-1.59v-0.09l0.12-1.08 0.02-0.15 0.46-1.8 0.02-0.07 0.87-2.62 0.02-0.02 0.51-1.44v-0.02l0.28-0.75v0.03l1.4-3.84 0.02-0.03 1.06-2.54 0.02-0.05 0.24-0.53-0.02 0.05 1.24-2.83-0.02 0.05 0.12-0.32-0.02 0.1 0.07-0.36 0.02-0.02 0.1-0.34-0.03 0.12 0.08-0.38 0.04-0.36v0.09l0.03-0.36v0.05l0.02-0.79 0.03 0.19-0.05-0.24c-0.07-0.62 0.36-1.18 0.96-1.25s1.17 0.34 1.25 0.96l0.02 0.24c0.02 0.07 0.02 0.12 0.02 0.19l-0.04 0.8v0.04l-0.05 0.36v0.1l-0.07 0.38-0.05 0.36-0.03 0.1-0.09 0.34v-0.03l-0.1 0.36-0.02 0.12-0.15 0.34v0.05l-1.24 2.83v0.05l-0.27 0.52 0.03-0.09-1.04 2.54v-0.05l-1.41 3.84v0.03l-0.29 0.72v-0.03l-0.5 1.44-0.96 2.6v-0.08l-0.53 1.8 0.05-0.16-0.17 1.05 0.02-0.09-0.05 1.6-0.02 0.63v0.14l-0.05 0.29c-0.07 0.5-0.55 0.86-1.03 0.82-0.5-0.05-0.89-0.51-0.86-1.01z"/>
  <path transform="matrix(1.3333 0 0 -1.3333 0 1120.8)" d="m275.83 702.7 0.6-0.2 0.05-0.02 0.94-0.24 0.07-0.02 0.65-0.1 0.09-0.02h0.12l-0.21 0.04 0.12-0.04c0.07-0.03 0.14-0.03 0.24-0.03l0.14-0.02-0.46 0.14 0.12-0.09c0.08-0.03 0.17-0.08 0.27-0.08l0.36-0.09-0.31 0.12 0.04-0.03c0.08-0.04 0.17-0.09 0.27-0.12l0.12-0.04c0.07 0 0.14-0.03 0.21-0.03h0.1l-0.5 0.15 0.07-0.03c0.14-0.09 0.31-0.14 0.48-0.17h0.09-0.04l0.24-0.04c0.14 0 0.28 0 0.43 0.04h0.09c0.44 0.12 0.75 0.44 0.84 0.87 0.1 0.41-0.02 0.84-0.33 1.13-0.31 0.28-0.77 0.38-1.15 0.24l-0.1-0.03 0.46 0.07h-0.24-0.2-0.09l0.43-0.04-0.05 0.02c-0.14 0.05-0.29 0.07-0.43 0.05l-0.1-0.03h0.27l-0.12 0.03 0.17-0.05-0.05 0.02-0.12 0.05-0.36 0.05 0.17-0.05-0.12 0.05c-0.17 0.07-0.32 0.07-0.46 0.07h-0.14 0.21-0.12c-0.07 0-0.17 0.03-0.24 0h-0.12 0.17l-0.62 0.05-0.99 0.07h-0.02l-0.65 0.05c-0.43 0-0.82-0.31-0.89-0.74-0.07-0.44 0.17-0.84 0.6-0.96z"/>
  <path transform="matrix(1.3333 0 0 -1.3333 0 1120.8)" d="m280.2 703.08-0.14-0.38-0.05-0.15-0.17-0.69v-0.15l-0.12-1.8-0.02-0.07 0.02-0.89v-1.08l0.34-1.99v-0.02l0.24-1.32 0.02-0.03 0.5-2.57 0.03-0.07 0.14-0.53 0.03-0.07 0.16-0.53 0.05-0.12 0.65-1.44 0.02-0.02 0.2-0.38 0.07-0.12 0.12-0.2 0.12-0.19c0.05-0.05 0.09-0.12 0.14-0.17l0.17-0.16h-0.02l0.38-0.41h0.02l0.17-0.17c0.29-0.31 0.75-0.43 1.13-0.31 0.41 0.09 0.74 0.41 0.84 0.84 0.12 0.41 0 0.84-0.31 1.13l-0.15 0.16 0.03-0.02-0.6 0.6 0.17-0.17-0.15 0.19-0.14 0.2 0.07-0.15-0.07 0.19-0.12 0.2 0.02-0.03-0.69 1.42 0.02-0.07-0.19 0.52 0.02-0.07-0.19 0.51 0.05-0.1-0.58 2.57v-0.03l-0.26 1.32-0.39 1.97 0.03-0.12-0.07 0.91-0.05 0.89v-0.09l0.07 1.8-0.02-0.1 0.12 0.7-0.05-0.1 0.12 0.38c0.12 0.46-0.15 0.94-0.6 1.08-0.43 0.17-0.91-0.07-1.13-0.5z"/>
  <path transform="matrix(1.3333 0 0 -1.3333 0 1120.8)" d="m284.16 689.98 0.05-0.08-0.12 0.72-0.07-0.36-0.03-0.04-0.14-0.89 0.07 0.21-0.14-0.38c-0.05-0.07-0.05-0.17-0.08-0.24l-0.09-0.89c-0.07-0.41 0.12-0.81 0.45-1.05 0.34-0.24 0.8-0.29 1.18-0.1 0.36 0.19 0.6 0.58 0.6 0.98l0.02 0.89v-0.12l0.05 0.39 0.03 0.09 0.02 0.89v0.46l-0.14-0.56 0.04 0.08c0.27 0.45 0.2 1-0.19 1.32-0.38 0.33-0.93 0.33-1.32 0-0.38-0.32-0.45-0.87-0.19-1.32z"/>
  <path transform="matrix(1.3333 0 0 -1.3333 0 1120.8)" d="m282.6 703.58-0.12-0.12c-0.26-0.19-0.36-0.57-0.24-0.91 0.12-0.33 0.46-0.53 0.79-0.53 0.36 0.03 0.65 0.24 0.77 0.6l0.02 0.15c0.1 0.31-0.02 0.65-0.28 0.86-0.29 0.17-0.65 0.15-0.94-0.05z"/>
  <path transform="matrix(1.3333 0 0 -1.3333 0 1120.8)" d="m281.76 690.91-0.31-0.21c-0.1-0.08-0.17-0.12-0.24-0.2l-0.94-1.12-0.05-0.08-1.72-2.44-0.03-0.05-0.79-1.2-0.02-0.03-0.05-0.07v0.03l-1.54-2.55 0.05 0.07-0.36-0.52-0.05-0.05-0.07-0.12c-0.24-0.36-0.24-0.84-0.05-1.23 0.22-0.36 0.6-0.6 1.06-0.6 0.43 0 0.84 0.22 1.03 0.6l0.1 0.12-0.05-0.04 0.36 0.55v0.05l1.49 2.54v-0.02l0.02 0.07-0.02-0.03 0.79 1.2 1.63 2.5-0.02-0.05 0.86 1.18 0.05 0.09 0.21 0.34c0.22 0.38 0.17 0.86-0.14 1.18-0.34 0.28-0.82 0.33-1.2 0.09z"/>
  <path transform="matrix(1.3333 0 0 -1.3333 0 1120.8)" d="m283.92 688.01-0.14-0.29 0.02 0.02-0.77-1.39 0.03 0.05-2.16-3.43 0.07 0.09-0.31-0.4v-0.03l-0.15-0.19c-0.24-0.36-0.29-0.82-0.09-1.2 0.19-0.41 0.57-0.67 0.98-0.7 0.46-0.02 0.86 0.2 1.1 0.56l0.12 0.19-0.02-0.03 0.29 0.39 0.07 0.09 2.02 3.51 0.07 0.09 0.65 1.47 0.02 0.07 0.1 0.31c0.19 0.51-0.05 1.08-0.56 1.3-0.5 0.21-1.1 0-1.34-0.48z"/>
  <path transform="matrix(1.3333 0 0 -1.3333 0 1120.8)" d="m274.85 682.42-0.6-0.05c-0.58 0-1.03-0.43-1.08-1.01s0.33-1.08 0.91-1.2l0.89-0.19h0.24l5.23-0.12h-0.02l1.17-0.03 0.05-0.02 3.29-0.07h0.33c0.53 0 1.01 0.29 1.28 0.74 0.26 0.46 0.26 1.03 0 1.47-0.27 0.45-0.75 0.74-1.28 0.74h-0.33l-3.29-0.07h-1.2l-5.26-0.15h-0.07l-0.91-0.09c-0.43-0.03-0.84-0.31-0.96-0.75-0.17-0.4-0.05-0.88 0.29-1.2 0.33-0.28 0.81-0.36 1.22-0.16l0.53 0.24c0.43 0.19 0.67 0.67 0.55 1.12-0.09 0.48-0.5 0.8-0.98 0.8z"/>
  <path transform="matrix(1.3333 0 0 -1.3333 0 1120.8)" d="m284.02 690.26v-0.6l0.02-0.16c0-0.12 0.05-0.24 0.1-0.36l0.04-0.15-0.09 0.34 0.02-0.15c0.03-0.12 0.05-0.24 0.1-0.36l0.17-0.33-0.05 0.07 0.12-0.26c0.02-0.05 0.05-0.12 0.07-0.17l0.17-0.27 0.07-0.09 0.53-0.67 0.02-0.03 0.15-0.17 0.14-0.21c0.05-0.07 0.12-0.12 0.17-0.17l0.21-0.19 0.51-0.41 0.05-0.05 1.8-1.34v0.02l1.58-1.2-0.12 0.1 0.22-0.22 0.04-0.05 0.24-0.21-0.04 0.07 0.21-0.22-0.14 0.15 0.19-0.24-0.02 0.05 0.16-0.24 0.05-0.08 0.19-0.24-0.09 0.12 0.17-0.24 0.16-0.24-0.09 0.15 0.33-0.75-0.07 0.24 0.19-0.72-0.04 0.17 0.04-0.26c0.03-0.43 0.34-0.84 0.75-1.03 0.43-0.2 0.93-0.12 1.29 0.14 0.39 0.26 0.58 0.72 0.53 1.18l-0.02 0.24c-0.03 0.07-0.03 0.14-0.03 0.19l-0.21 0.74c0 0.07-0.03 0.15-0.07 0.22l-0.36 0.74c-0.03 0.07-0.05 0.12-0.08 0.17l-0.16 0.24-0.17 0.26-0.1 0.12-0.17 0.2 0.05-0.08-0.17 0.24-0.02 0.03-0.19 0.24c-0.03 0.05-0.07 0.12-0.12 0.17l-0.24 0.19-0.05 0.05-0.24 0.19 0.05-0.03-0.19 0.2-0.12 0.09-1.61 1.18-0.03 0.02-1.84 1.27 0.04-0.02-0.52 0.38-0.05 0.05-0.22 0.15 0.19-0.15-0.19 0.17-0.17 0.17 0.03-0.03-0.58 0.65-0.02 0.03-0.19 0.24 0.09-0.15-0.17 0.24 0.08-0.07-0.2 0.31 0.1-0.24-0.02 0.12c-0.05 0.12-0.1 0.22-0.15 0.31l-0.09 0.12 0.14-0.31-0.02 0.15v-0.08l-0.1 0.56c-0.07 0.5-0.55 0.86-1.08 0.81-0.5-0.05-0.89-0.48-0.86-1.01z"/>
  <path transform="matrix(1.3333 0 0 -1.3333 0 1120.8)" d="m280.73 675.6-0.05-0.17v-0.21l0.02-2.26v-0.02l0.08-2.16v-0.1l0.02-0.31v0.17l-0.02-0.84v-0.2c0-0.43 0.24-0.81 0.6-1.03 0.36-0.21 0.81-0.21 1.2 0 0.36 0.22 0.6 0.6 0.6 1.03v0.17-0.02 0.84 0.19l-0.05 0.29v-0.07l-0.12 2.16-0.03 0.02-0.19 2.26c-0.02 0.12-0.05 0.21-0.09 0.31l-0.05 0.17c-0.19 0.4-0.6 0.64-1.03 0.6-0.46-0.05-0.82-0.36-0.89-0.82z"/>
  <path transform="matrix(1.3333 0 0 -1.3333 0 1120.8)" d="m282.24 676.37-0.07 0.05c-0.31 0.12-0.67 0.04-0.91-0.17-0.29-0.19-0.41-0.55-0.34-0.87 0.05-0.33 0.29-0.62 0.6-0.72l0.05-0.02c0.07-0.02 0.14-0.02 0.19-0.05l1.63-0.17h0.03l1.6-0.16h0.08l1.36-0.05h0.2c0.6 0 1.08 0.48 1.08 1.08s-0.48 1.1-1.08 1.1h-0.15l0.03-0.02-1.37 0.05-1.63 0.04-1.66 0.03c-0.1 0-0.22-0.03-0.31-0.05l-0.05-0.02c-0.31-0.1-0.55-0.39-0.6-0.72-0.07-0.32 0.05-0.68 0.34-0.89 0.24-0.19 0.6-0.27 0.91-0.15l0.07 0.03c0.36 0.14 0.58 0.48 0.58 0.84 0 0.38-0.22 0.72-0.58 0.84z"/>
  <path transform="matrix(1.3333 0 0 -1.3333 0 1120.8)" d="m285.77 675.46-0.03-0.17c-0.02-0.07-0.02-0.15-0.02-0.19l0.05-2.28 0.07-2.19v-0.09l0.05-0.32-0.03 0.2-0.02-0.87v-0.19c0-0.43 0.22-0.82 0.6-1.03 0.36-0.22 0.82-0.22 1.18 0 0.38 0.21 0.6 0.6 0.6 1.03v0.17-0.03l0.02 0.84c0 0.08 0 0.15-0.02 0.2l-0.05 0.31 0.02-0.12-0.14 2.18v0.03l-0.19 2.25c-0.03 0.12-0.05 0.22-0.1 0.34l-0.07 0.14c-0.17 0.41-0.6 0.67-1.03 0.63-0.46-0.08-0.8-0.41-0.89-0.84z"/>
  <path transform="matrix(1.3333 0 0 -1.3333 0 1120.8)" d="m282.58 670.13h-0.08c-0.33 0.09-0.69-0.03-0.93-0.29s-0.29-0.65-0.17-0.96c0.14-0.34 0.46-0.55 0.82-0.6h0.04l1.64-0.1 1.63-0.07h0.07l1.37 0.03h0.19c0.62 0.02 1.08 0.55 1.03 1.15s-0.57 1.05-1.17 1.01h-0.12 0.02l-1.34-0.03-1.66-0.05-1.63-0.04c-0.17 0-0.34-0.05-0.48-0.15l-0.03-0.02c-0.43-0.27-0.57-0.82-0.31-1.25 0.27-0.43 0.82-0.6 1.25-0.36l0.07 0.05c0.34 0.17 0.51 0.53 0.46 0.91-0.05 0.36-0.31 0.67-0.67 0.77z"/>
  <path transform="matrix(1.3333 0 0 -1.3333 0 1120.8)" d="m285.24 663.48-0.41 0.17c-0.07 0.02-0.12 0.05-0.19 0.05h-0.07l0.62-0.46-0.02 0.02c-0.07 0.2-0.19 0.32-0.36 0.39l-0.07 0.05 0.38-0.41-0.02 0.05c-0.08 0.16-0.22 0.31-0.39 0.38l-0.07 0.05c-0.07 0.02-0.12 0.05-0.19 0.07h-0.05l-0.02 0.02h-0.1l-0.07 0.03 0.31-0.1h-0.02c-0.12 0.07-0.27 0.1-0.41 0.12h-0.19l0.14-0.02-0.26 0.07 0.12-0.02-0.36 0.12c-0.08 0.02-0.12 0.02-0.2 0.02l-0.33 0.07-0.12 0.03-1.01 0.02-0.5 0.05h-0.05l-0.89 0.02h-0.1l-0.57-0.05h-0.07l-0.96-0.09-0.36-0.05-0.12-0.02-0.22-0.05 0.12 0.02-0.22-0.02c-0.04 0-0.12 0-0.16-0.03l-0.51-0.12-0.12-0.02-0.38-0.14-0.6-0.22c-0.1-0.02-0.17-0.07-0.24-0.12l-0.53-0.31c-0.07-0.05-0.12-0.07-0.17-0.12l-0.31-0.29 0.07 0.05-0.38-0.29 0.07 0.07-0.24-0.17 0.77 0.22h-0.03c-0.33 0-0.69-0.12-0.93-0.36h-0.05v-0.02l0.02 0.02-0.02-0.02 0.91 0.31h-0.02c-0.72 0.05-1.35-0.53-1.37-1.25v-0.02l0.41 0.91-0.07-0.07c-0.27-0.24-0.41-0.58-0.41-0.92v-0.02l0.14 0.58-0.02-0.05-0.03-0.05c-0.09-0.19-0.14-0.38-0.16-0.6v-0.05l0.43 0.94-0.03-0.03c-0.14-0.14-0.28-0.33-0.33-0.52l-0.05-0.08c-0.05-0.12-0.07-0.24-0.07-0.38l0.14 0.55-0.02-0.05c-0.1-0.19-0.15-0.38-0.15-0.6v-0.28c-0.02-0.1 0-0.17 0.03-0.24l0.02-0.24c0.05-0.29 0.19-0.53 0.36-0.72h0.05l-0.26 0.33 0.02-0.07-0.12 0.62v-0.02c-0.02-0.36 0.12-0.7 0.38-0.96l0.03-0.02h0.02l-0.26 0.33 0.02-0.07c0.07-0.12 0.17-0.24 0.24-0.34l0.05-0.02c0.24-0.24 0.55-0.38 0.91-0.38h0.03l-1.18 0.74 0.05-0.07c0.12-0.24 0.31-0.46 0.6-0.58l0.02-0.02-0.72 1.2v-0.03c-0.02-0.33 0.12-0.69 0.36-0.93 0.24-0.27 0.6-0.41 0.96-0.41h0.05l-0.94 0.38 0.03-0.02 0.05-0.05c0.16-0.17 0.38-0.29 0.62-0.33l0.1-0.05-0.29 0.12 0.12-0.05 0.07-0.05 0.14-0.07c0.08-0.02 0.15-0.02 0.22-0.05l0.12-0.02-0.14 0.05 0.31-0.12c0.07-0.03 0.14-0.05 0.24-0.05l0.57-0.07 0.6-0.1h0.1l0.6-0.02h1.46l4.3 0.14h-0.02l4.03 0.02h-0.03 3.12l0.1 0.03 2.06 0.17h-0.09c0.81 0 1.44 0.64 1.44 1.44 0 0.76-0.63 1.41-1.44 1.41h-0.17l-2.06-0.21 0.12 0.02-1.97-0.05h0.02-1.13l-4.03-0.07h-0.05l-4.32-0.19h0.08-1.37 0.05l-0.58 0.02 0.12-0.02-1.2 0.14 0.26-0.07-0.28 0.12c-0.05 0-0.12 0.02-0.17 0.02l-0.12 0.03 0.24-0.05-0.12 0.05 0.07-0.05-0.07 0.05c-0.1 0.05-0.19 0.07-0.29 0.07l-0.07 0.05 0.6-0.36-0.03 0.05-0.02 0.02h-0.02c-0.27 0.24-0.6 0.38-0.94 0.38h-0.05l1.35-1.32v0.03c-0.03 0.53-0.29 0.96-0.77 1.2h-0.05l0.6-0.58v0.05c-0.24 0.46-0.72 0.72-1.22 0.72h-0.03l0.96-0.36h-0.02l0.24-0.34v0.05c-0.1 0.15-0.17 0.27-0.29 0.34v0.05l-0.05 0.02 0.41-0.96v0.02c0 0.22-0.05 0.44-0.14 0.6l-0.03 0.05c-0.07 0.15-0.14 0.27-0.26 0.34v0.05l0.36-0.7-0.05 0.24 0.02-0.26v0.28l-0.14-0.6 0.05 0.05c0.07 0.19 0.12 0.41 0.12 0.65l-0.07-0.46 0.02 0.08-0.29-0.51 0.03 0.03c0.24 0.26 0.36 0.6 0.36 0.93l-0.03 0.05-0.12-0.6 0.03 0.05 0.02 0.05c0.1 0.19 0.14 0.4 0.12 0.62v0.02l-0.36-0.96 0.05 0.03 0.02 0.02v0.03c0.27 0.26 0.39 0.6 0.36 0.96v0.02c-0.02 0.72-0.62 1.3-1.34 1.25s-1.3-0.65-1.25-1.37c0.02-0.72 0.65-1.27 1.37-1.22h0.02c0.34 0 0.67 0.14 0.91 0.43l0.03 0.02-0.05-0.05 0.05 0.03v0.05l-0.87-0.41h0.03c0.24 0 0.48 0.07 0.69 0.24l0.24 0.17 0.05 0.04 0.36 0.32 0.07 0.02 0.32 0.31-0.15-0.12 0.51 0.34-0.27-0.12 0.6 0.24 0.39 0.14-0.15-0.05 0.51 0.12-0.17-0.02 0.24 0.02 0.12 0.03 0.21 0.05-0.09-0.03 0.36 0.05 0.96 0.14h-0.05l0.58 0.08-0.1-0.03 0.89 0.03h0.05l0.5 0.02 1.01 0.07h0.12l0.33 0.05h-0.21l0.38-0.02h0.1l0.29 0.02h0.19c0.14 0 0.29 0.05 0.41 0.12h0.02l-0.31-0.1 0.07 0.03h0.1l0.02 0.02h0.05l-0.36-0.02h0.07l-0.22 0.07 0.03-0.02c0.07-0.03 0.17-0.05 0.24-0.05l0.07-0.03-0.24 0.08 0.05-0.03c0.17-0.07 0.31-0.09 0.48-0.07l0.07 0.02h0.02l0.44 0.08c0.31 0.07 0.55 0.31 0.57 0.62 0.03 0.31-0.14 0.6-0.43 0.72z"/>
  <path transform="matrix(1.3333 0 0 -1.3333 0 1120.8)" d="m279.7 663.12 0.02 0.26v-0.07 0.07c0.05 0.15 0.02 0.34-0.02 0.48l-0.03 0.03-0.05-0.75 0.03 0.08c0.05 0.04 0.07 0.12 0.07 0.16l0.02 0.05 0.03 0.05v0.05l-0.19-0.36 0.02 0.05 0.05 0.02c0.07 0.1 0.17 0.22 0.19 0.36l0.02 0.05 0.03 0.05-0.22-0.39 0.03 0.05-0.41-0.26h0.05c0.21 0.07 0.4 0.24 0.52 0.45l0.05 0.07-0.55-0.45h0.02c0.17 0.05 0.32 0.17 0.44 0.29l0.02 0.02-0.43-0.26h0.05c0.19 0.07 0.38 0.21 0.5 0.38l0.07 0.1-0.57-0.41h0.04c0.12 0.05 0.24 0.12 0.34 0.19l0.05 0.05-0.1-0.07h0.03l0.02 0.02-0.24-0.12 0.07 0.02c0.22 0.08 0.43 0.22 0.58 0.44l0.02 0.02-1.1-0.46h0.05c0.26-0.04 0.52 0 0.76 0.15h0.03l-0.36-0.12h0.07c0.14 0.05 0.26 0.07 0.36 0.17h0.05l-0.27-0.12 0.08 0.02-0.58-0.02 0.05-0.03h0.05c0.24-0.05 0.45-0.02 0.64 0.05l0.1 0.05-0.38-0.07 0.84 0.02h0.09l0.51 0.1-0.2-0.03h0.32l-0.24 0.03 0.14-0.03-0.07 0.03 0.09-0.05c0.1-0.03 0.2-0.05 0.32-0.05h0.09l-0.31 0.05 0.24-0.07h0.1l0.45-0.12h0.03l0.86-0.17 0.41-0.07 0.09-0.03 0.89-0.09h-0.02l0.84-0.12h-0.03l0.34-0.05h0.12l0.77-0.05h-0.03l0.34-0.02h-0.07l0.77-0.1h0.04l0.29-0.02 0.75-0.1h0.07l1.05-0.05h1.35l0.57 0.05c0.08 0.02 0.15 0.05 0.22 0.05l0.1 0.05-0.32-0.05h0.05-0.02 0.12-0.03 0.03l-0.94 0.36 0.03-0.05c0.26-0.24 0.6-0.36 0.93-0.36h0.03l0.04 0.02h0.03c0.69 0.03 1.25 0.65 1.22 1.35-0.02 0.72-0.62 1.27-1.34 1.25-0.72 0-1.27-0.6-1.27-1.32 0.02-0.72 0.6-1.32 1.32-1.3h0.04l-0.93 0.36 0.02-0.02-0.41 0.91v-0.05c0.03-0.7 0.63-1.27 1.32-1.25h0.03c0.72 0.03 1.29 0.6 1.29 1.32s-0.6 1.3-1.32 1.27c-0.72 0-1.29-0.6-1.29-1.32v-0.09c0.02-0.34 0.17-0.65 0.41-0.89h0.04l-0.4 0.89v-0.07c0-0.17 0.04-0.34 0.09-0.48l0.1-0.17-0.07 0.14 0.09-0.31-0.02 0.05 0.12-0.36v-0.05l0.09-0.31-0.04 0.19 0.12-0.72v-0.07l0.19-0.96 0.02-0.12c0.03-0.07 0.05-0.15 0.07-0.19l0.12-0.32c0.24-0.64 0.99-0.98 1.66-0.74 0.67 0.26 1.01 1.01 0.74 1.68l-0.09 0.29 0.05-0.19-0.03 0.12-0.19 0.96 0.02-0.1-0.12 0.72c0 0.07 0 0.14-0.04 0.22l-0.08 0.31v-0.05l-0.09 0.36-0.03 0.05-0.09 0.31-0.03 0.12-0.09 0.17 0.12-0.55v0.07c0 0.36-0.12 0.72-0.39 0.96v0.02l0.36-0.98v0.09c0 0.72-0.57 1.32-1.29 1.32h-0.03c-0.69 0.03-1.29-0.55-1.32-1.27 0-0.69 0.56-1.29 1.28-1.32 0.72-0.02 1.32 0.53 1.34 1.25v0.05c0 0.33-0.12 0.67-0.38 0.93v0.03c-0.27 0.24-0.58 0.38-0.92 0.41h-0.04c-0.72 0-1.3-0.58-1.32-1.3 0-0.72 0.55-1.32 1.27-1.32 0.72-0.02 1.32 0.58 1.34 1.3 0 0.72-0.53 1.29-1.22 1.32h-0.07l-0.03 0.02 0.91-0.41-0.04 0.03c-0.24 0.24-0.56 0.38-0.89 0.38h-0.03 0.03-0.12 0.02-0.05c-0.09 0.02-0.21 0-0.31 0l-0.09-0.02 0.16 0.02-0.55-0.05h0.1-1.15 0.04l-1.05 0.05h0.07l-0.77 0.05-0.02 0.02-0.29 0.03h0.05l-0.75 0.07h-0.07l-0.31 0.05h-0.02l-0.8 0.02h0.1l-0.34 0.05h-0.02l-0.84 0.09h-0.02l-0.87 0.1 0.07-0.02-0.38 0.07-0.86 0.17-0.46 0.07 0.07-0.03-0.26 0.08c-0.12 0.02-0.24 0.04-0.34 0.04h-0.09l0.28-0.02h-0.09l-0.05 0.02-0.12 0.03c-0.1 0-0.17 0.02-0.26 0.02h-0.32c-0.04-0.02-0.12-0.02-0.16-0.02l-0.51-0.07h0.05l-0.84-0.12c-0.14 0-0.31-0.08-0.46-0.15l-0.09-0.07 0.41 0.17-0.05-0.03h-0.05c-0.17-0.02-0.34-0.09-0.48-0.19l-0.02-0.02c-0.15-0.1-0.27-0.22-0.34-0.36l-0.02-0.03 0.5 0.46-0.07-0.02c-0.19-0.12-0.39-0.27-0.51-0.46l-0.02-0.02 0.82 0.5h-0.05c-0.43-0.07-0.77-0.36-0.91-0.77v-0.05l0.4 0.58-0.04-0.02c-0.12-0.1-0.22-0.22-0.32-0.34l-0.02-0.02v-0.03l0.07 0.1-0.05-0.05 0.24 0.22-0.04-0.03c-0.2-0.14-0.34-0.33-0.41-0.55l-0.05-0.1 0.02 0.03-0.02-0.03c0-0.04-0.02-0.09-0.02-0.16l-0.03-0.05 0.05 0.17v-0.05c-0.02-0.05-0.07-0.15-0.07-0.22v-0.07l0.05 0.22v-0.03l-0.05-0.14-0.03-0.07c-0.02-0.17-0.02-0.34 0.03-0.48l0.02-0.05 0.03-0.05-0.05 0.48v-0.1c-0.05-0.16-0.05-0.31 0-0.45l0.02-0.05 0.03-0.05v-0.05l-0.03 0.39-0.02-0.07c-0.05-0.41 0.19-0.82 0.6-0.94l0.02-0.02-0.55 0.64v-0.07c0.02-0.07 0.05-0.14 0.1-0.21l0.12-0.24c0.14-0.29 0.48-0.46 0.81-0.41 0.34 0.07 0.58 0.33 0.63 0.67z"/>
  <path transform="matrix(1.3333 0 0 -1.3333 0 1120.8)" d="m272.33 651.24 0.89-0.29 0.09-0.02 0.31-0.05-0.19 0.05 0.29-0.1v-0.02l0.79-0.29-0.12 0.07 0.17-0.12 0.05-0.02 0.17-0.07-0.08 0.04 0.22-0.12-0.05 0.03 0.17-0.12-0.07 0.07 0.14-0.12 0.17-0.14 0.05-0.03 0.12-0.09-0.1 0.07 0.17-0.15 0.17-0.14-0.1 0.07 0.15-0.14 0.14-0.15-0.07 0.05 0.14-0.14-0.02 0.02 0.09-0.14-0.07 0.12 0.24-0.43-0.02 0.07 0.12-0.29-0.05 0.1 0.12-0.29 0.1-0.29-0.03 0.12 0.07-0.31-0.02 0.09 0.05-0.28 0.05-0.29v0.07l0.07-0.62v0.19-0.51 0.05l-0.05-0.45v0.07l-0.19-1.44 0.02 0.12-0.19-0.91-0.02-0.03-0.34-1.63-0.02-0.14-0.1-1.04v-0.26l0.1-0.65-0.03 0.15v-0.12c0-0.15 0.05-0.32 0.1-0.46l0.05-0.14 0.07-0.15-0.07 0.22 0.02-0.15c0.02-0.09 0.05-0.19 0.07-0.28l0.07-0.12v0.02l0.1-0.24 0.1-0.14-0.05 0.09 0.05-0.12c0.02-0.05 0.07-0.12 0.09-0.17l0.1-0.12-0.05 0.08 0.07-0.15c0.05-0.07 0.1-0.14 0.17-0.21l0.1-0.12 0.07-0.05 0.19-0.22-0.07 0.1 0.12-0.17c0.09-0.1 0.19-0.19 0.31-0.26l0.19-0.12-0.24 0.21 0.15-0.17c0.07-0.07 0.14-0.12 0.24-0.19l0.38-0.24 0.17-0.12 0.12-0.05 0.6-0.31 0.07-0.05 0.48-0.19h0.07l0.51-0.19h0.02l0.46-0.14 0.07-0.03 1.01-0.24 0.07-0.05 1.61-0.28 0.07-0.03 1.44-0.19h0.07l3.65-0.31h0.09l5.19-0.1h0.91c0.72 0 1.3 0.6 1.3 1.32s-0.58 1.32-1.3 1.32h-0.91 0.02l-5.16 0.05h0.1l-3.67 0.31 0.04-0.02-1.44 0.19h0.08l-1.61 0.29 0.07-0.03-1.01 0.27 0.05-0.03-0.46 0.15 0.03-0.03-0.48 0.17 0.07-0.02-0.48 0.19 0.12-0.05-0.6 0.31 0.1-0.04-0.22 0.12-0.19 0.09-0.19 0.12 0.26-0.19-0.14 0.14c-0.08 0.08-0.17 0.15-0.24 0.22l-0.22 0.1 0.34-0.27-0.15 0.17-0.09 0.1-0.22 0.21 0.05-0.05-0.12 0.12 0.17-0.24-0.08 0.15-0.04 0.09-0.1 0.12 0.12-0.19-0.07 0.12-0.12 0.24 0.05-0.09-0.05 0.09-0.07 0.12 0.09-0.29-0.02 0.15c0 0.07-0.05 0.14-0.07 0.21l-0.05 0.15-0.05 0.14 0.1-0.45v0.12l-0.03 0.14-0.09 0.67 0.02-0.26 0.07 1.05-0.02-0.14 0.31 1.63 0.17 0.89 0.02 0.1 0.17 1.44 0.02 0.09 0.03 0.48v0.58l-0.03 0.12-0.09 0.62v0.07l-0.07 0.29-0.05 0.29-0.03 0.07-0.09 0.31-0.03 0.12-0.12 0.27-0.12 0.29-0.02 0.09-0.14 0.27-0.05 0.09-0.24 0.41c-0.05 0.05-0.07 0.1-0.12 0.14l-0.12 0.15v0.02l-0.15 0.17-0.07 0.05-0.36 0.36-0.17 0.12-0.16 0.14-0.1 0.07-0.14 0.1 0.04-0.05-0.19 0.15-0.02 0.02-0.17 0.1-0.1 0.07-0.16 0.07-0.03 0.02-0.21 0.1-0.1 0.05-0.17 0.07 0.05-0.02-0.19 0.09-0.1 0.03-0.79 0.28h-0.05l-0.26 0.1c-0.07 0-0.12 0.02-0.19 0.02l-0.29 0.05 0.14-0.02-0.91 0.24c-0.53 0.14-1.08-0.17-1.25-0.72-0.14-0.53 0.17-1.08 0.7-1.25z"/>
  <path transform="matrix(1.3333 0 0 -1.3333 0 1120.8)" d="m282.86 637.51-0.16-0.05c-0.24-0.09-0.46-0.24-0.58-0.48l-0.84-1.39-0.43-0.79 0.02 0.05-0.41-0.63 0.03 0.05-0.1-0.14-0.09-0.15-0.08-0.12-0.07-0.14-0.07-0.12-0.02-0.07-0.1-0.17v-0.05l-0.14-0.29-0.05-0.14v-0.1c-0.17-0.6 0.19-1.17 0.77-1.34 0.6-0.14 1.2 0.22 1.34 0.79l0.02 0.1-0.04-0.15 0.12 0.34v-0.05l0.07 0.17-0.05-0.07 0.1 0.14 0.07 0.15-0.07-0.12 0.09 0.14 0.1 0.14 0.02 0.05 0.39 0.6 0.02 0.07 0.46 0.82v0.02l0.72 1.47c0.02 0.07 0.07 0.17 0.07 0.26l0.05 0.17c0.04 0.31-0.05 0.62-0.29 0.84s-0.55 0.29-0.87 0.19z"/>
  <path transform="matrix(1.3333 0 0 -1.3333 0 1120.8)" d="m286.42 636.38-0.05-0.04 0.24 0.21-0.03-0.02c-0.09-0.05-0.16-0.15-0.24-0.22l-0.04-0.07 0.14 0.17-0.02-0.05c-0.15-0.1-0.27-0.24-0.34-0.41l-0.02-0.07 0.09 0.19-0.07-0.12c-0.12-0.17-0.19-0.36-0.19-0.55l0.17 0.5-0.36-0.6v0.05l-0.29-0.43-0.29-0.46c-0.02-0.02-0.07-0.09-0.1-0.14l-0.62-1.32-0.02-0.12-0.08-0.17c-0.14-0.43-0.02-0.89 0.27-1.22 0.31-0.34 0.77-0.46 1.2-0.36 0.43 0.12 0.77 0.45 0.89 0.86l0.04 0.19-0.04-0.16 0.55 1.34-0.05-0.12 0.26 0.48 0.24 0.43v0.03l0.32 0.6c0.12 0.16 0.16 0.38 0.14 0.62l-0.14-0.62 0.07 0.12c0.05 0.07 0.07 0.16 0.09 0.26l0.03 0.07-0.24-0.45 0.05 0.04c0.04 0.05 0.07 0.12 0.12 0.17l0.04 0.07-0.04-0.07v0.03l0.04 0.07 0.05 0.07c0.31 0.5 0.17 1.13-0.29 1.44-0.48 0.34-1.12 0.24-1.48-0.22z"/>
  <path transform="matrix(1.3333 0 0 -1.3333 0 1120.8)" d="m277.06 631.39 0.02-0.07c0.12-0.55 0.6-0.94 1.18-0.94h0.86l1.06 0.05h-0.1l3.82-0.12h-0.03l2.86-0.14h0.33c0.51 0 0.96 0.26 1.2 0.69 0.27 0.41 0.27 0.96 0 1.37-0.24 0.43-0.69 0.7-1.2 0.7h-0.26 0.02l-2.88 0.07h-0.02l-3.82-0.05h-0.04l-1.06-0.05-0.12-0.02-0.82-0.12c-0.5-0.1-0.88-0.46-0.98-0.94l-0.02-0.07c-0.03-0.12-0.03-0.24 0-0.36z"/>
  <path transform="matrix(1.3333 0 0 -1.3333 0 1120.8)" d="m279.94 641.74 0.28 0.04h-0.26l0.53-0.04 0.55-0.03h-0.14l1.53-0.24h-0.09l2.52-0.65h-0.05l0.91-0.26 0.7-0.22-0.1 0.05 1.92-0.81-0.1 0.04 1.68-0.86-0.12 0.07 0.8-0.53h-0.03l0.79-0.52-0.07 0.04 1.95-1.56-0.08 0.05 0.27-0.24 0.02-0.02 0.29-0.24-0.1 0.09 0.24-0.26c0.32-0.36 0.8-0.5 1.25-0.41 0.46 0.1 0.84 0.43 0.99 0.89 0.14 0.46 0.04 0.96-0.29 1.3l-0.24 0.26-0.12 0.12-0.27 0.24 0.03-0.02-0.27 0.26-0.09 0.05-1.95 1.53-0.07 0.08-0.79 0.52-0.02 0.03-0.8 0.53-0.12 0.04-1.68 0.87-0.09 0.05-1.95 0.79-0.12 0.05-0.72 0.21h-0.02l-0.91 0.27-0.05 0.02-2.54 0.62-0.12 0.03-1.54 0.24h-0.14-1.08c-0.1 0-0.22 0-0.32-0.05l-0.28-0.07c-0.63-0.17-1.01-0.77-0.87-1.39 0.12-0.63 0.7-1.04 1.35-0.96z"/>
  <path transform="matrix(1.3333 0 0 -1.3333 0 1120.8)" d="m273.36 651.48h0.02c0.12 0 0.27 0 0.39 0.05l0.02 0.02-0.17-0.02h0.12c0.1 0 0.17 0.02 0.27 0.07l0.05 0.02-0.1-0.02h0.07-0.07 0.1l0.07 0.05c0.07 0.02 0.14 0.07 0.24 0.12l0.05 0.02-0.05-0.02 0.05 0.02-0.1-0.05 0.12 0.08 0.12 0.07 0.19 0.12h-0.02l0.21 0.12-0.14-0.07 0.24 0.09 0.1 0.05 0.19 0.12-0.12-0.07 0.24 0.12h0.02l0.24 0.12-0.12-0.05 0.27 0.07-0.08-0.02 0.22 0.07 0.24 0.05 0.24 0.07h-0.02l0.24 0.05-0.12-0.03 0.26 0.03h-0.07l0.77 0.05h0.02l0.1 0.02h-0.24l0.12-0.02-0.15 0.02 0.1-0.02c0.12-0.03 0.24-0.05 0.38-0.03h0.12l-0.36 0.03 0.29-0.08-0.02 0.03 1.05-0.34-0.24 0.12 0.17-0.09c0.05-0.03 0.12-0.05 0.22-0.1l0.14-0.05-0.36 0.19 0.12-0.09c0.1-0.07 0.22-0.12 0.34-0.17l0.16-0.05-0.36 0.19 0.12-0.09 0.05-0.05 0.15-0.1-0.05 0.05 0.12-0.12-0.05 0.05 0.12-0.07h-0.02l0.12-0.1-0.05 0.05 0.09-0.12-0.04 0.05 0.12-0.12-0.12 0.14 0.09-0.12 0.1-0.12 0.12-0.12-0.15 0.17 0.1-0.12-0.1 0.17 0.05-0.12c0.03-0.07 0.05-0.12 0.1-0.19l0.07-0.15-0.07 0.17 0.17-0.34 0.12-0.26-0.1 0.19 0.1-0.26 0.02-0.12 0.1-0.24-0.05 0.14 0.05-0.24 0.07-0.26-0.05 0.12 0.05-0.27v0.05-0.26 0.02l0.02-0.77v0.17l-0.07-0.6-0.1-0.6 0.03 0.05-0.12-0.65 0.02 0.12-0.41-1.39 0.03 0.05-0.24-0.67v-0.1l-0.1-0.34 0.05 0.15-0.14-0.34 0.02 0.03-0.14-0.36 0.02 0.07-0.36-0.75 0.05 0.1-0.07-0.14c-0.24-0.39-0.24-0.84-0.05-1.23 0.21-0.38 0.62-0.62 1.08-0.65 0.43 0 0.84 0.24 1.05 0.63l0.1 0.14 0.05 0.1 0.36 0.74 0.05 0.1 0.12 0.33v0.03l0.14 0.31 0.05 0.17 0.07 0.33-0.02-0.09 0.21 0.67 0.03 0.05 0.38 1.41 0.05 0.12 0.09 0.63 0.03 0.02 0.07 0.6v0.03l0.1 0.62v0.19 0.82l-0.03 0.26-0.02 0.07-0.03 0.27-0.02 0.14-0.05 0.27-0.07 0.26c0 0.07-0.02 0.12-0.02 0.17l-0.12 0.26 0.04-0.12-0.07 0.27c-0.02 0.07-0.05 0.14-0.07 0.19l-0.12 0.26-0.14 0.34c-0.03 0.05-0.05 0.12-0.1 0.17l-0.07 0.12 0.07-0.17-0.05 0.12c-0.02 0.07-0.07 0.12-0.09 0.19l-0.1 0.12c-0.02 0.05-0.07 0.12-0.12 0.17l-0.12 0.12 0.1-0.12-0.08 0.12-0.12 0.12-0.09 0.12-0.05 0.02-0.17 0.17-0.09 0.07-0.12 0.1-0.05 0.05-0.15 0.09-0.16 0.12 0.02-0.02-0.12 0.07c-0.12 0.1-0.24 0.17-0.36 0.19l-0.14 0.05 0.33-0.17-0.09 0.07c-0.12 0.08-0.24 0.15-0.36 0.17l-0.17 0.05 0.21-0.07-0.14 0.07c-0.1 0.05-0.19 0.07-0.26 0.1l-1.08 0.26-0.05 0.02-0.29 0.05c-0.14 0.05-0.26 0.05-0.41 0.05l-0.12-0.05h0.39l-0.1 0.03-0.14 0.02h-0.12-0.24l-0.1-0.02 0.05 0.02-0.77-0.07-0.14-0.05-0.27-0.05-0.12-0.02-0.24-0.1h-0.02l-0.22-0.07h0.03l-0.24-0.07-0.03-0.03-0.21-0.07-0.08-0.02-0.21-0.12-0.12-0.05-0.22-0.12h0.05l-0.24-0.12-0.12-0.07-0.17-0.12 0.1 0.07-0.22-0.12c-0.05-0.05-0.12-0.07-0.14-0.12l-0.22-0.14-0.02-0.03-0.17-0.14 0.12 0.09-0.12-0.07c-0.07-0.05-0.14-0.12-0.19-0.19h-0.05 0.05l-0.05-0.02 0.24 0.16-0.05-0.02-0.07-0.05h-0.02l0.07 0.05-0.05-0.05-0.12-0.07h-0.05l0.29 0.12-0.07-0.02-0.05-0.03c-0.05 0-0.12-0.02-0.17-0.05l-0.05-0.02 0.36 0.1-0.02-0.03c-0.5-0.02-0.89-0.43-0.89-0.91 0-0.5 0.39-0.91 0.89-0.96z"/>
  <path transform="matrix(1.3333 0 0 -1.3333 0 1120.8)" d="m282.77 697.39-0.17-0.24c-0.07-0.17-0.14-0.33-0.14-0.5v-0.15 0.17l-0.03-0.17c-0.02-0.04-0.02-0.12-0.02-0.16v-0.15-0.21l0.02-0.15-0.02 0.22v-0.17 0.02-0.16-0.2l0.02-0.16c0.03-0.08 0.03-0.15 0.05-0.22l0.05-0.14-0.05 0.21 0.02-0.14 0.1-0.34c0-0.07 0.05-0.12 0.07-0.19l0.17-0.31 0.02-0.05 0.1-0.17 0.12-0.21 0.05-0.1 0.17-0.17 0.12-0.21c0.02-0.03 0.07-0.08 0.12-0.12l0.14-0.17-0.05 0.07 0.15-0.17c0.02-0.05 0.07-0.09 0.14-0.14l0.48-0.43 0.1-0.05 0.55-0.41 0.02-0.02 1.2-0.82-0.02 0.02 1.17-0.84-0.09 0.08 0.72-0.6h-0.03l0.24-0.2-0.07 0.05 0.19-0.17 0.03-0.02 0.21-0.22-0.12 0.12 0.51-0.62-0.07 0.14 0.04-0.12c0.22-0.36 0.63-0.6 1.06-0.6 0.43 0.03 0.84 0.27 1.06 0.63 0.19 0.38 0.19 0.86-0.03 1.22l-0.05 0.1-0.09 0.14-0.51 0.63-0.12 0.12-0.24 0.21-0.24 0.24-0.24 0.19-0.69 0.58-0.1 0.07-1.17 0.82-0.03 0.02-1.22 0.79 0.05-0.04-0.58 0.4 0.07-0.04-0.5 0.4 0.12-0.12-0.12 0.17-0.24 0.24 0.12-0.14-0.17 0.17-0.14 0.21 0.07-0.12-0.12 0.19-0.1 0.2 0.03-0.03-0.2 0.29 0.08-0.14-0.05 0.16 0.05-0.14-0.05 0.14c-0.03 0.08-0.05 0.12-0.07 0.2l-0.05 0.12 0.07-0.22-0.05 0.17 0.03-0.19v0.16-0.02 0.17c0 0.07-0.03 0.14-0.05 0.21l-0.03 0.15 0.03-0.22v0.15-0.2 0.17c0.02 0.07 0.02 0.12 0.02 0.19l-0.02 0.15-0.03-0.34 0.08 0.27c0.14 0.48-0.12 1-0.58 1.2-0.48 0.21-1.03 0.04-1.27-0.39z"/>
  <path transform="matrix(1.3333 0 0 -1.3333 0 1120.8)" d="m279.84 640.46 0.14-0.24 0.1-0.12-0.02 0.03 0.07-0.1 0.12-0.09 0.07-0.1-0.07 0.07 0.09-0.12 0.1-0.07 0.26-0.26 0.15-0.1 0.09-0.1 0.12-0.07-0.09 0.07 0.12-0.07v-0.02l0.12-0.07 0.07-0.08 0.12-0.07 0.17-0.05 0.12-0.04-0.05 0.02 0.31-0.17c0.07-0.02 0.15-0.05 0.22-0.05l0.19-0.04-0.12 0.02 0.19-0.05 0.15-0.05 0.21-0.04 0.22-0.08h0.12l0.21-0.02 0.22-0.02 0.12-0.03h0.26l0.63 0.05h0.05l1.1 0.07h-0.02l2.06 0.07h-0.05 0.58-0.07 0.26-0.1l0.27-0.04h0.02l0.29-0.05-0.1 0.02 0.6-0.17 0.12-0.02 0.15-0.02-0.31 0.09 0.16-0.07 0.12-0.05 0.15-0.05 0.17-0.04-0.22 0.09 0.12-0.07 0.07-0.05 0.15-0.07 0.16-0.07-0.21 0.12 0.12-0.1h0.02l0.34-0.26-0.1 0.07 0.19-0.17 0.05-0.05 0.17-0.14c0.29-0.24 0.72-0.31 1.08-0.17 0.36 0.12 0.62 0.46 0.7 0.84 0.04 0.39-0.1 0.77-0.41 1.01l-0.15 0.14 0.05-0.04-0.17 0.16-0.09 0.1-0.36 0.24-0.12 0.1c-0.05 0.04-0.12 0.09-0.19 0.12l-0.15 0.04-0.14 0.1 0.07-0.05-0.12 0.07c-0.07 0.05-0.14 0.08-0.22 0.1l-0.14 0.02-0.14 0.08 0.14-0.08-0.14 0.1c-0.12 0.02-0.2 0.07-0.32 0.07l-0.14 0.03 0.12-0.03-0.62 0.17-0.12 0.02-0.29 0.05-0.27 0.05h-0.09l-0.27 0.02h-0.72l-2.06-0.12h-0.05l-1.1-0.09 0.05 0.02-0.65-0.05h0.05-0.22 0.1l-0.22 0.03-0.22 0.02 0.1-0.02-0.22 0.05-0.21 0.04 0.14-0.02-0.21 0.07-0.12 0.03-0.22 0.04 0.22-0.07-0.34 0.15-0.05 0.02-0.12 0.05 0.15-0.07-0.12 0.07 0.07-0.05-0.1 0.07 0.03-0.05-0.12 0.1-0.24 0.14 0.12-0.07-0.12 0.1 0.07-0.07-0.07 0.09-0.12 0.1 0.07-0.1-0.07 0.12-0.1 0.1-0.1 0.09 0.1-0.12-0.07 0.1-0.03 0.02-0.09 0.12 0.07-0.12-0.07 0.12c-0.29 0.48-0.91 0.63-1.39 0.34-0.48-0.31-0.65-0.94-0.34-1.42z"/>
 </g>
</svg>
