<?xml version="1.0" encoding="UTF-8" standalone="no"?>
<!-- Created with Inkscape (http://www.inkscape.org/) -->

<svg
   version="1.1"
   id="svg1"
   width="115"
   height="84.92762"
   viewBox="0 0 115 84.927616"
   sodipodi:docname="lesson1_sentence5_word3.svg"
   inkscape:version="1.4.3 (0d15f75, 2025-12-25)"
   xmlns:inkscape="http://www.inkscape.org/namespaces/inkscape"
   xmlns:sodipodi="http://sodipodi.sourceforge.net/DTD/sodipodi-0.dtd"
   xmlns="http://www.w3.org/2000/svg"
   xmlns:svg="http://www.w3.org/2000/svg">
  <defs
     id="defs1" />
  <sodipodi:namedview
     id="namedview1"
     pagecolor="#ffffff"
     bordercolor="#000000"
     borderopacity="0.25"
     inkscape:showpageshadow="2"
     inkscape:pageopacity="0.0"
     inkscape:pagecheckerboard="0"
     inkscape:deskcolor="#d1d1d1"
     inkscape:zoom="5.5232379"
     inkscape:cx="60.290722"
     inkscape:cy="56.579131"
     inkscape:window-width="1920"
     inkscape:window-height="1191"
     inkscape:window-x="-9"
     inkscape:window-y="-9"
     inkscape:window-maximized="1"
     inkscape:current-layer="g1">
    <inkscape:page
       x="0"
       y="0"
       inkscape:label="1"
       id="page1"
       width="115"
       height="84.927612"
       margin="0"
       bleed="0" />
  </sodipodi:namedview>
  <g
     id="g1"
     inkscape:groupmode="layer"
     inkscape:label="1"
     transform="translate(-294.65332,-859.54972)">
    <g
       id="g147"
       transform="translate(-228.39474,1.0241917)">
      <path
         id="path147"
         d="m 394.37,156.62 1.17,-2.73 -0.02,0.09 3.6,-8.97 -0.02,0.05 1.2,-3.24 0.02,-0.05 0.14,-0.36 -0.12,0.41 0.17,-0.68 c 0.27,-1.15 1.15,-2.01 2.31,-2.25 1.1,-0.24 2.28,0.14 3,1.08 0.72,0.89 0.86,2.13 0.38,3.17 l -0.29,0.64 v -0.04 l -0.19,0.36 0.07,-0.12 -1.29,3.19 -0.03,0.09 -3.96,8.81 -0.12,0.24 -1.49,2.59 c -0.64,1.18 -2.13,1.61 -3.33,1.01 -1.23,-0.62 -1.73,-2.06 -1.2,-3.29 z"
         style="fill:#000000;fill-opacity:1;fill-rule:nonzero;stroke:none"
         transform="matrix(1.3333333,0,0,-1.3333333,0,1120.8)" />
    </g>
    <g
       id="g148"
       transform="translate(-228.39474,1.0241917)">
      <path
         id="path148"
         d="m 404.42,157.37 -0.19,-2.11 0.03,0.24 -0.44,-2.12 v 0.03 l -0.38,-2.04 0.1,0.36 -1.54,-4.59 0.02,0.08 -0.26,-0.72 -0.02,-0.05 -0.72,-2.04 c -0.08,-0.19 -0.12,-0.36 -0.15,-0.55 l -0.19,-1.32 c -0.17,-1.08 0.24,-2.16 1.1,-2.81 0.84,-0.67 2.02,-0.82 3,-0.39 1.01,0.41 1.68,1.35 1.8,2.43 l 0.17,1.32 -0.12,-0.6 0.67,2.06 -0.02,-0.05 0.24,0.72 0.07,0.12 1.39,4.59 c 0.08,0.14 0.1,0.29 0.12,0.45 l 0.32,2.07 v 0.02 l 0.28,2.11 v 0.24 l 0.12,2.12 c 0.1,1.44 -1,2.73 -2.44,2.85 -1.47,0.12 -2.76,-0.96 -2.96,-2.42 z"
         style="fill:#000000;fill-opacity:1;fill-rule:nonzero;stroke:none"
         transform="matrix(1.3333333,0,0,-1.3333333,0,1120.8)" />
    </g>
    <g
       id="g149"
       transform="translate(-228.39474,1.0241917)">
      <path
         id="path149"
         d="m 398.59,188.52 -0.09,-0.96 v -0.31 l 0.14,-4.23 v -0.12 l 0.22,-2.76 v 0.1 l 0.74,-21.67 v -0.1 l 0.26,-4.17 0.05,-0.08 0.17,-1.65 -0.02,0.09 0.04,-0.84 c 0.08,-0.93 0.65,-1.75 1.49,-2.16 0.84,-0.4 1.83,-0.33 2.59,0.17 0.77,0.55 1.2,1.44 1.16,2.38 l -0.1,0.84 v 0.09 l -0.17,1.64 v -0.08 l -0.33,4.16 v -0.08 l -1.06,21.65 v 0.12 l -0.26,2.76 v -0.02 l -0.34,4.22 v 0.05 l -0.1,0.96 c -0.12,1.13 -1.08,2.02 -2.2,2.02 -1.16,0 -2.12,-0.89 -2.19,-2.02 z"
         style="fill:#000000;fill-opacity:1;fill-rule:nonzero;stroke:none"
         transform="matrix(1.3333333,0,0,-1.3333333,0,1120.8)" />
    </g>
    <g
       id="g150"
       transform="translate(-228.39474,1.0241917)">
      <path
         id="path150"
         d="m 419.69,180.65 0.77,1.39 0.02,0.05 0.6,1.2 -0.07,-0.17 0.65,1.08 -0.03,-0.05 1.9,3 c 0.19,0.41 0.36,0.79 0.38,1.2 v 0.07 l -0.91,-1.8 0.07,0.05 c 0.53,0.48 0.87,1.18 0.89,1.9 l 0.05,0.09 -0.05,-0.09 0.05,0.07 c 0.12,1.51 -1.01,2.86 -2.5,3 -1.53,0.12 -2.85,-0.98 -3,-2.5 -0.12,-1.51 0.99,-2.85 2.5,-3 h 0.05 c 0.74,-0.07 1.51,0.17 2.06,0.7 l 0.07,0.05 c 0.53,0.45 0.87,1.1 0.94,1.8 v 0.07 l -2.98,-2.5 h 0.05 c 0.77,-0.07 1.51,0.17 2.09,0.65 l 0.05,0.07 c 0.55,0.51 0.91,1.2 0.93,1.92 v 0.1 c 0.1,1.54 -1.05,2.86 -2.59,2.93 -1.49,0.12 -2.81,-1.01 -2.95,-2.55 -0.12,-1.51 1.01,-2.85 2.54,-2.97 l 0.05,-0.03 -1.97,1.08 0.03,-0.02 c 0.55,-0.7 1.39,-1.08 2.25,-1.08 0.87,0 1.68,0.41 2.21,1.1 l 0.07,0.1 -2.49,-1.13 h 0.07 c 1.51,-0.14 2.88,1.01 3.02,2.57 v 0.05 c 0.15,1.53 -0.98,2.88 -2.54,3.05 -1.54,0.14 -2.88,-1.01 -3.05,-2.57 -0.14,-1.54 1.01,-2.88 2.57,-3.03 h 0.05 v 0 l 0.07,-0.02 c 0.74,-0.07 1.51,0.19 2.09,0.72 l 0.07,0.02 -2.38,-0.62 0.05,-0.05 c 0.89,-0.14 1.75,0.1 2.4,0.67 l 0.07,0.05 -1.99,-0.67 0.17,-0.05 -2.33,1.39 0.07,-0.12 c 0.48,-0.81 1.35,-1.32 2.31,-1.34 h 0.12 l -2.52,1.73 0.02,-0.05 c 0.29,-0.6 0.7,-1.13 1.27,-1.42 l 0.15,-0.07 -0.51,0.34 0.12,-0.1 0.17,-0.14 0.1,-0.05 -0.12,0.07 0.12,-0.07 -1.08,2.42 v -0.07 c -0.05,-0.98 0.38,-1.94 1.2,-2.52 l 0.09,-0.05 c 0.41,-0.33 0.96,-0.5 1.49,-0.55 l 0.07,-0.02 -2.52,1.89 0.05,-0.14 c 0.1,-0.24 0.19,-0.46 0.34,-0.65 l 0.14,-0.24 -0.02,0.05 0.26,-0.41 -0.02,0.05 0.24,-0.36 -0.24,0.43 0.21,-0.5 0.05,-0.12 0.6,-1.23 -0.14,0.39 0.09,-0.29 0.12,-0.29 0.15,-0.36 -0.05,0.1 0.14,-0.36 c 0.1,-0.17 0.15,-0.34 0.24,-0.46 l 0.22,-0.36 0.02,-0.02 0.17,-0.29 -0.24,0.5 0.17,-0.38 c 0.07,-0.24 0.19,-0.46 0.38,-0.67 l 0.22,-0.27 v 0 l 0.19,-0.31 c 0.07,-0.07 0.17,-0.17 0.24,-0.26 l 0.67,-0.65 -0.86,2.09 v -0.05 c 0,-1.66 1.32,-2.98 2.93,-3 h 0.09 l -2.83,2.06 0.05,-0.09 c 0.38,-1.23 1.51,-2.04 2.81,-2.07 h 0.07 l -2.11,0.89 0.07,-0.05 c 0.53,-0.57 1.27,-0.91 2.09,-0.91 h 0.07 -0.05 0.07 0.03 0.07 -0.05 0.05 0.02 0.05 -0.02 0.09 v 0 h 0.05 v 0 h 0.07 l -1.32,0.34 0.05,-0.03 c 0.41,-0.21 0.84,-0.31 1.27,-0.33 h 0.03 0.07 0.05 c 0.81,0 1.56,0.31 2.13,0.86 l 0.05,0.07 -2.11,-0.86 h 0.05 c 0.81,0 1.56,0.29 2.13,0.86 0.53,0.53 0.87,1.3 0.87,2.09 v 0.1 c 0,1.65 -1.32,2.97 -2.98,2.97 -1.61,0.03 -2.95,-1.29 -2.95,-2.95 0,-1.63 1.32,-3 2.93,-3 h 0.09 c 0.77,0 1.54,0.31 2.09,0.89 0.55,0.53 0.89,1.27 0.89,2.09 v 0.07 c 0,1.63 -1.32,2.95 -2.95,2.95 -1.66,0.05 -3,-1.27 -3,-2.93 0,-1.65 1.32,-2.97 2.95,-3 h 0.05 c 0.48,0 0.93,0.12 1.34,0.34 l 0.12,0.05 c 0.41,0.19 0.7,0.43 0.96,0.74 l 0.17,0.19 -0.36,-0.38 0.17,0.14 0.21,0.17 0.17,0.22 v 0 l 0.22,0.21 c 0.09,0.1 0.19,0.17 0.26,0.29 l 0.31,0.41 -0.12,-0.17 0.65,0.77 c 0.07,0.07 0.17,0.19 0.24,0.29 l 0.12,0.19 0.1,0.17 0.12,0.21 -1.11,-1.1 0.24,0.14 c 0.46,0.27 0.84,0.65 1.11,1.13 l 0.14,0.29 0.07,0.12 0.1,0.17 -0.07,-0.15 0.12,0.22 -0.03,-0.05 0.34,0.55 c 0.05,0.12 0.12,0.24 0.17,0.39 l 0.07,0.14 c 0.14,0.34 0.24,0.72 0.24,1.13 v 0.19 l -1.68,-2.66 0.12,0.07 c 0.72,0.36 1.25,0.96 1.51,1.7 l 0.07,0.22 -0.07,-0.19 0.07,0.14 -0.69,-0.98 0.14,0.12 v 0 l 0.12,0.12 c 0.29,0.31 0.53,0.62 0.67,1.03 l 0.05,0.14 -1.44,-1.56 0.12,0.05 c 0.58,0.29 1.06,0.77 1.37,1.32 l 0.05,0.12 -0.58,-0.74 0.17,0.14 v -0.02 l 0.05,0.07 -0.46,-0.36 0.19,0.12 c 0.17,0.12 0.34,0.24 0.46,0.36 l 0.05,0.05 -0.46,-0.36 0.22,0.14 -0.05,-0.02 0.31,0.21 -1.61,-0.48 h 0.05 v 0 h 0.1 l -0.7,0.1 0.12,-0.05 c 0.22,-0.05 0.46,-0.07 0.7,-0.07 h 0.07 l -2.11,0.89 0.07,-0.05 c 0.55,-0.58 1.27,-0.89 2.09,-0.91 h 0.02 0.05 0.05 v 0 h 0.12 l -2.5,1.34 0.07,-0.07 c 0.53,-0.84 1.49,-1.37 2.5,-1.37 h 0.07 l -2.11,0.91 0.05,-0.07 c 0.24,-0.24 0.5,-0.41 0.81,-0.55 l 0.12,-0.1 -1.51,1.78 0.05,-0.1 c 0.38,-1.22 1.51,-2.06 2.81,-2.06 h 0.07 l -2.98,3.02 v -0.07 c -0.02,-0.79 0.29,-1.58 0.87,-2.16 l 0.07,-0.05 v 0 l 0.14,-0.14 -0.24,0.26 0.22,-0.26 0.07,-0.12 0.19,-0.22 -0.48,0.77 0.1,-0.19 c 0.05,-0.17 0.12,-0.29 0.19,-0.41 l 0.43,-0.72 -0.19,0.34 0.41,-0.82 0.05,-0.14 0.21,-0.41 -0.14,0.31 0.14,-0.41 c 0.05,-0.14 0.12,-0.31 0.22,-0.45 l 0.17,-0.34 0.09,-0.14 0.63,-1.06 0.07,-0.07 0.05,-0.1 c 0.12,-0.19 0.24,-0.33 0.38,-0.45 l 0.07,-0.05 -0.45,0.55 0.09,-0.14 c 0.53,-0.89 1.54,-1.47 2.57,-1.47 h 0.07 l -2.71,1.68 0.07,-0.14 c 0.15,-0.29 0.34,-0.55 0.58,-0.79 l 0.07,-0.1 v 0 l 0.07,-0.05 c 0.58,-0.57 1.35,-0.86 2.14,-0.86 h 0.14 l -1.68,0.5 0.1,-0.07 -0.17,0.1 0.12,-0.1 c 0.17,-0.12 0.31,-0.19 0.48,-0.29 l 0.12,-0.07 -1.34,1.37 0.02,-0.07 c 0.41,-0.77 1.13,-1.35 1.99,-1.59 l 0.12,-0.02 c 0.24,-0.07 0.48,-0.1 0.72,-0.1 h 0.07 v 0 h 0.15 l -2.14,0.89 0.05,-0.05 c 0.58,-0.57 1.37,-0.91 2.14,-0.91 h 0.12 0.04 0.08 l -0.39,0.05 0.24,-0.05 c 0.36,-0.02 0.72,-0.02 1.06,0.07 l 0.26,0.05 0.19,0.05 0.2,0.07 c 0.19,0.05 0.36,0.12 0.55,0.19 l 0.24,0.12 -0.55,-0.19 0.24,0.07 c 0.28,0.05 0.52,0.17 0.76,0.34 l 0.24,0.14 -0.09,-0.07 0.21,0.17 -0.16,-0.1 0.28,0.12 c 0.08,0.05 0.2,0.12 0.29,0.17 l 0.22,0.17 c 0.12,0.05 0.21,0.14 0.33,0.24 l 0.56,0.53 -0.24,-0.22 0.57,0.43 0.12,0.1 0.51,0.41 0.07,0.07 0.48,0.41 c 0.09,0.09 0.21,0.19 0.29,0.31 l 0.4,0.43 v 0 l 1.08,1.3 0.03,0.02 1.46,1.78 -0.93,-0.75 0.12,0.05 c 1.03,0.53 1.65,1.56 1.63,2.69 v 0.07 l -0.84,-2.11 0.05,0.05 -0.44,-0.39 0.08,0.05 c 0.48,0.36 0.88,0.84 1.08,1.39 l 0.07,0.15 -2.71,-1.85 h 0.07 c 0.45,0 0.89,0.07 1.29,0.29 l 0.12,0.07 c 0.29,0.14 0.53,0.36 0.77,0.55 l 0.07,0.07 v 0 l 0.05,0.1 -2.09,-0.91 h 0.08 c 0.81,0 1.56,0.33 2.11,0.91 l 0.05,0.05 -2.07,-0.89 h 0.07 -0.04 0.16 c 0.77,0 1.52,0.31 2.07,0.89 l 0.05,0.07 -2.07,-0.91 h 0.12 c 0.36,0 0.75,0.09 1.08,0.21 l 0.15,0.05 -1.08,-0.19 h 0.12 l -2.09,0.84 0.05,-0.07 v 0.02 l 0.09,-0.07 c 0.58,-0.58 1.32,-0.89 2.11,-0.89 h 0.12 0.03 0.05 l -1.64,0.48 0.08,-0.05 -0.84,0.82 0.07,-0.1 c 0.29,-0.43 0.69,-0.74 1.13,-0.98 l 0.16,-0.07 -0.33,0.19 0.09,-0.07 -0.12,0.09 0.12,-0.09 -0.6,0.6 0.08,-0.12 -0.6,1.75 v -0.1 c 0,-0.79 0.33,-1.51 0.88,-2.06 l 0.2,-0.22 h 0.04 l 0.12,-0.12 -0.64,0.89 0.09,-0.19 0.15,-0.31 0.12,-0.22 c 0.07,-0.12 0.16,-0.19 0.21,-0.31 l 0.1,-0.12 -0.22,0.31 0.15,-0.19 -0.27,0.5 0.12,-0.26 c 0.07,-0.22 0.15,-0.41 0.27,-0.6 l 0.09,-0.17 -0.29,0.72 0.05,-0.19 v 0 l 0.07,-0.24 0.03,-0.1 0.17,-0.57 -0.15,0.91 v -0.29 c 0,-0.17 0.03,-0.31 0.07,-0.5 l 0.03,-0.17 c 0.02,-0.22 0.12,-0.43 0.17,-0.6 l 0.09,-0.17 c 0.03,-0.12 0.1,-0.24 0.15,-0.36 l 0.12,-0.19 -0.36,1.85 -0.03,-0.24 c -0.09,-0.7 0.1,-1.42 0.48,-2.02 l 0.15,-0.17 -0.08,0.12 0.08,-0.14 -0.17,0.31 0.14,-0.29 c 0.03,-0.09 0.1,-0.21 0.19,-0.33 l 0.08,-0.15 -0.08,0.17 0.05,-0.12 c 0.07,-0.12 0.12,-0.24 0.22,-0.36 l 0.14,-0.19 -0.12,0.17 0.12,-0.15 0.19,-0.26 0.32,-0.43 c 0.09,-0.1 0.16,-0.17 0.24,-0.27 l 0.07,-0.07 c 0.53,-0.5 1.29,-0.79 2.04,-0.79 h 0.09 0.03 0.05 v 0 h 0.07 -0.03 0.12 0.03 0.05 l -2.76,1.92 0.04,-0.1 c 0.41,-1.15 1.49,-1.92 2.72,-1.92 h 0.12 0.04 0.05 v 0 h 0.07 v 0 h 0.08 c 0.76,0.03 1.48,0.34 2.01,0.87 l 0.07,0.07 -1.99,-0.84 h 0.07 -0.04 0.12 0.04 0.05 0.07 0.03 c 0.41,0 0.81,0.12 1.17,0.29 l 0.12,0.07 -1.24,-0.31 h 0.07 c 0.74,0 1.46,0.33 1.97,0.86 l 0.07,0.07 -0.46,-0.38 0.19,0.12 -0.16,-0.1 0.24,0.12 -0.15,-0.07 0.31,0.17 0.29,0.17 0.27,0.19 0.19,0.12 0.6,0.48 c 0.14,0.12 0.29,0.26 0.41,0.41 l 0.28,0.36 -0.4,-0.41 0.31,0.24 c 0.12,0.07 0.21,0.19 0.33,0.29 l 0.29,0.36 c 0.1,0.12 0.22,0.24 0.27,0.36 l 0.67,1.03 -0.1,-0.12 0.24,0.31 -0.09,-0.12 0.28,0.34 c 0.1,0.12 0.15,0.21 0.22,0.33 l 0.24,0.39 -0.36,-0.48 0.65,0.69 v 0 l 0.5,0.53 0.22,0.24 0.09,0.12 -0.26,-0.29 0.05,0.05 0.21,0.24 0.12,0.17 c 0.12,0.14 0.24,0.31 0.34,0.5 l 0.05,0.12 -1.25,-1.27 0.12,0.07 c 0.36,0.17 0.67,0.46 0.91,0.75 l 0.12,0.14 -0.91,-0.74 0.12,0.07 0.29,0.17 0.31,0.19 -1.56,-0.48 h 0.05 v 0 h 0.07 c 0.72,0 1.44,0.29 1.97,0.84 l 0.07,0.05 -1.99,-0.84 h 0.02 v 0 h 0.07 v 0 h 0.05 l -2.01,0.84 0.09,-0.05 c 0.51,-0.55 1.23,-0.84 1.99,-0.84 h 0.05 l -1.97,0.84 0.03,-0.05 v 0 l 0.05,-0.05 c 0.52,-0.55 1.24,-0.84 1.99,-0.84 h 0.07 v 0 h 0.05 l -1.99,0.84 0.07,-0.07 -0.84,1.99 v -0.09 c 0,-1.56 1.25,-2.81 2.83,-2.81 h 0.02 v 0 h 0.05 l -1.97,0.84 0.05,-0.1 -0.81,2.02 v -0.07 c 0,-1.56 1.27,-2.81 2.8,-2.81 h 0.05 c 1.15,0 2.21,0.67 2.62,1.73 0.45,1.05 0.21,2.25 -0.6,3.07 -0.82,0.82 -2.02,1.06 -3.05,0.6 -1.1,-0.43 -1.75,-1.44 -1.75,-2.59 v -0.1 0 -0.05 c 0,-0.74 0.29,-1.46 0.81,-2.01 0.53,-0.51 1.25,-0.82 2.02,-0.82 h 0.02 l -2.47,1.44 0.27,-0.5 c 0.07,-0.12 0.16,-0.24 0.24,-0.34 l 0.21,-0.29 -0.24,0.36 0.15,-0.26 0.04,-0.07 0.2,-0.36 -0.03,0.07 0.15,-0.31 v 0 l 0.19,-0.27 -0.03,0.03 0.17,-0.36 -0.21,0.55 0.28,-0.94 v 0.03 l 0.05,-0.22 0.05,-0.12 0.05,-0.17 -0.1,0.34 0.05,-0.17 0.05,-0.19 0.07,-0.22 c 0.02,-0.12 0.07,-0.24 0.12,-0.36 l 0.07,-0.21 c 0.17,-0.34 0.36,-0.63 0.6,-0.87 l 0.12,-0.12 -0.74,1.44 0.02,-0.19 c 0.07,-0.26 0.17,-0.55 0.31,-0.84 l 0.12,-0.19 -0.07,0.14 0.07,-0.12 -0.07,0.15 0.1,-0.24 c 0.12,-0.34 0.33,-0.63 0.6,-0.87 l 0.26,-0.26 c 0.55,-0.55 1.25,-0.84 1.99,-0.84 h 0.05 c 1.56,0 2.83,1.25 2.83,2.81 0,1.56 -1.27,2.83 -2.83,2.83 -1.56,0 -2.81,-1.27 -2.81,-2.83 v -0.1 c 0.03,-0.91 0.48,-1.82 1.25,-2.33 l 0.1,-0.07 -0.41,0.36 0.05,-0.05 c 0.55,-0.55 1.27,-0.84 2.01,-0.84 h 0.05 l -2.35,1.25 0.07,-0.07 c 0.53,-0.79 1.39,-1.27 2.35,-1.27 h 0.03 v 0 h 0.12 l -2.81,2.83 v -0.07 c 0,-1.56 1.25,-2.81 2.81,-2.81 h 0.12 l -2.67,1.92 0.03,-0.1 c 0.38,-1.15 1.46,-1.92 2.66,-1.92 h 0.07 v 0 h 0.05 v 0 h 0.12 v 0 h 0.07 0.03 0.02 -0.02 0.12 v 0 h 0.09 v 0 h 0.05 -0.02 0.12 v 0 h 0.07 c 0.74,0 1.44,0.29 1.97,0.82 l 0.07,0.07 -1.99,-0.84 h 0.07 c 0.41,0 0.86,0.1 1.25,0.31 l 0.12,0.05 -1.25,-0.29 h 0.07 c 0.58,0 1.13,0.17 1.56,0.48 l 0.36,0.24 0.24,0.17 0.34,0.29 -0.34,-0.24 0.31,0.17 c 0.22,0.12 0.39,0.26 0.53,0.43 l 0.31,0.29 -0.24,-0.22 0.29,0.24 c 0.17,0.12 0.31,0.29 0.43,0.43 l 0.27,0.34 -0.27,-0.31 0.29,0.26 h -0.02 l 0.31,0.24 c 0.19,0.22 0.41,0.46 0.55,0.72 l 0.24,0.43 -0.07,-0.14 0.48,0.72 -0.07,-0.07 0.72,0.98 0.02,0.07 0.48,0.65 -0.19,-0.24 0.19,0.22 c 0.22,0.26 0.41,0.6 0.53,0.96 l 0.05,0.19 -0.34,-0.7 0.22,0.29 -0.36,-0.43 0.12,0.14 0.14,0.15 0.19,0.21 0.03,0.03 0.14,0.19 -0.48,-0.46 0.41,0.29 c 0.07,0.07 0.19,0.17 0.29,0.24 l 0.07,0.07 -1.99,-0.81 h 0.07 c 1.03,0 2.04,0.6 2.47,1.56 l 0.05,0.07 -0.53,-0.77 0.07,0.07 -1.99,-0.81 h 0.07 c 0.94,0 1.8,0.48 2.33,1.27 l 0.07,0.07 -3.6,-0.96 0.05,-0.02 c 0.41,-0.17 0.84,-0.29 1.27,-0.29 h 0.05 v 0 h 0.07 v 0 h 0.03 v 0 h 0.07 v 0 h 0.12 v 0 h 0.07 v 0 h 0.07 v 0 h 0.03 v 0 h 0.07 l -1.68,0.55 0.12,-0.07 c 0.48,-0.36 1.08,-0.58 1.68,-0.58 h 0.05 l -2.52,1.56 0.02,-0.07 c 0.48,-0.96 1.49,-1.56 2.52,-1.56 h 0.07 l -1.99,0.82 0.07,-0.05 -0.36,0.43 0.05,-0.12 c 0.55,-0.77 1.42,-1.22 2.35,-1.22 h 0.05 l -2.47,1.56 0.02,-0.1 c 0.12,-0.26 0.29,-0.5 0.51,-0.72 l 0.07,-0.05 -0.19,0.22 0.45,-0.55 -0.02,0.02 0.41,-0.5 -0.22,0.31 0.31,-0.53 0.05,-0.05 0.36,-0.57 -0.07,0.14 0.86,-1.49 -0.14,0.29 0.29,-0.72 0.09,-0.14 0.39,-0.72 0.14,-0.27 1.25,-1.87 c 0.05,-0.07 0.14,-0.19 0.24,-0.29 l 0.5,-0.57 c 1.01,-1.13 2.79,-1.23 3.94,-0.22 1.18,1.03 1.25,2.81 0.24,3.94 l -0.48,0.57 0.19,-0.31 -1.22,1.87 0.14,-0.26 -0.36,0.72 0.1,-0.19 -0.34,0.72 -0.14,0.31 -0.84,1.46 -0.1,0.15 -0.38,0.55 0.07,-0.07 -0.34,0.5 -0.19,0.29 -0.41,0.5 v 0 l -0.45,0.56 -0.17,0.16 -0.07,0.08 0.55,-0.72 -0.05,0.04 c -0.48,0.96 -1.44,1.56 -2.52,1.56 h -0.05 l 2.33,-1.24 -0.05,0.07 c -0.12,0.17 -0.24,0.31 -0.36,0.45 l -0.07,0.08 c -0.53,0.5 -1.22,0.79 -1.97,0.79 h -0.07 l 2.52,-1.56 -0.05,0.07 c -0.45,0.96 -1.44,1.56 -2.49,1.56 h -0.05 l 1.68,-0.58 -0.12,0.1 c -0.48,0.36 -1.08,0.58 -1.68,0.58 h -0.07 v 0 h -0.03 v 0 h -0.07 v 0 h -0.07 v 0 h -0.12 v 0 h -0.07 v 0 h -0.03 v 0 h -0.07 v 0 h -0.05 l 1.25,-0.32 -0.05,0.03 c -1.27,0.65 -2.83,0.24 -3.6,-0.96 l -0.07,-0.07 2.35,1.24 h -0.07 c -0.74,0 -1.46,-0.28 -1.97,-0.81 l -0.07,-0.05 c -0.19,-0.24 -0.38,-0.48 -0.53,-0.74 l -0.02,-0.08 2.52,1.56 h -0.07 c -0.75,0 -1.47,-0.28 -1.97,-0.84 l -0.07,-0.04 0.31,0.26 -0.41,-0.26 c -0.14,-0.17 -0.31,-0.32 -0.43,-0.46 l -0.19,-0.19 0.02,0.05 -0.17,-0.24 0.15,0.16 -0.12,-0.12 c -0.15,-0.14 -0.24,-0.28 -0.36,-0.45 l -0.17,-0.27 c -0.17,-0.21 -0.24,-0.43 -0.34,-0.67 l -0.07,-0.17 0.55,0.94 -0.19,-0.22 -0.19,-0.26 -0.46,-0.67 0.03,0.07 -0.72,-1.01 -0.03,-0.07 -0.5,-0.77 -0.1,-0.14 -0.26,-0.46 0.6,0.72 -0.31,-0.24 v -0.02 l -0.34,-0.27 c -0.07,-0.09 -0.17,-0.21 -0.26,-0.31 l -0.29,-0.36 0.41,0.43 -0.29,-0.24 -0.24,-0.21 -0.29,-0.27 0.55,0.41 -0.31,-0.17 c -0.12,-0.09 -0.24,-0.14 -0.36,-0.24 l -0.31,-0.26 0.24,0.14 -0.41,-0.24 1.56,0.48 h -0.07 c -0.46,0 -0.89,-0.12 -1.27,-0.31 l -0.12,-0.05 1.27,0.27 h -0.07 c -0.75,0 -1.47,-0.27 -2.02,-0.82 l -0.05,-0.05 2.02,0.82 h -0.07 v 0 h -0.12 0.02 -0.05 v 0 h -0.09 v 0 h -0.12 0.02 -0.02 -0.03 -0.07 v 0 h -0.12 v 0 h -0.05 v 0 h -0.07 l 2.69,-1.92 -0.05,0.07 c -0.38,1.18 -1.46,1.97 -2.66,1.97 h -0.12 c -1.56,0 -2.81,-1.27 -2.81,-2.83 0,-1.56 1.25,-2.81 2.81,-2.81 1.53,0 2.78,1.25 2.78,2.81 v 0.07 c 0.05,0.74 -0.26,1.44 -0.79,1.97 -0.53,0.55 -1.25,0.84 -1.99,0.84 h -0.12 v 0 h -0.03 l 2.33,-1.25 -0.05,0.07 c -0.55,0.79 -1.41,1.27 -2.35,1.27 h -0.05 l 1.97,-0.84 -0.05,0.05 c -0.14,0.17 -0.26,0.29 -0.45,0.36 l -0.1,0.07 1.27,-2.35 v 0.1 c 0,1.56 -1.27,2.83 -2.83,2.83 h -0.05 l 2.02,-0.84 -0.31,0.29 0.6,-0.89 -0.1,0.24 -0.05,0.14 -0.07,0.12 -0.07,0.12 -0.12,0.22 0.31,-0.84 -0.02,0.14 c -0.12,0.58 -0.39,1.06 -0.77,1.44 l -0.12,0.15 0.6,-0.89 -0.1,0.19 0.12,-0.31 -0.07,0.19 0.05,-0.19 -0.05,0.14 -0.07,0.34 -0.07,0.19 0.02,-0.12 -0.05,0.22 v 0.02 l -0.26,0.94 c -0.07,0.19 -0.17,0.36 -0.24,0.55 l -0.19,0.36 v 0 l -0.15,0.26 v 0 l -0.19,0.29 -0.02,0.05 -0.22,0.38 0.05,-0.07 -0.17,0.29 c -0.05,0.14 -0.14,0.26 -0.24,0.36 l -0.19,0.29 0.24,-0.36 -0.31,0.5 c -0.48,0.89 -1.42,1.42 -2.43,1.42 h -0.02 l 2.78,-2.79 v 0.05 0 0.1 c 0,1.56 -1.27,2.83 -2.83,2.83 h -0.05 c -1.15,0 -2.16,-0.7 -2.59,-1.75 -0.45,-1.06 -0.21,-2.28 0.6,-3.1 0.82,-0.77 2.02,-1.01 3.07,-0.6 1.06,0.46 1.73,1.49 1.73,2.62 v 0.07 c 0,0.74 -0.29,1.46 -0.79,1.97 l -0.07,0.07 c -0.53,0.53 -1.25,0.84 -2.02,0.84 h -0.05 v 0 h -0.02 c -1.15,0 -2.18,-0.7 -2.59,-1.75 -0.46,-1.06 -0.22,-2.28 0.6,-3.05 0.81,-0.82 2.01,-1.06 3.07,-0.65 1.03,0.46 1.73,1.49 1.73,2.62 v 0.09 c 0,0.75 -0.29,1.47 -0.82,2 l -0.07,0.04 c -0.53,0.56 -1.25,0.84 -1.99,0.84 h -0.05 v 0 h -0.07 l 1.99,-0.84 -0.07,0.08 v 0 l -0.03,0.02 c -0.5,0.53 -1.22,0.84 -1.99,0.84 h -0.05 l 1.97,-0.84 -0.05,0.1 c -0.5,0.5 -1.22,0.79 -1.99,0.79 h -0.05 v 0 h -0.07 v 0 h -0.02 c -0.75,0 -1.47,-0.29 -2.02,-0.79 l -0.05,-0.1 2.02,0.84 h -0.07 v 0 h -0.05 c -0.58,0 -1.13,-0.14 -1.61,-0.48 l -0.26,-0.19 0.29,0.19 -0.12,-0.07 c -0.36,-0.17 -0.68,-0.43 -0.92,-0.75 l -0.12,-0.16 0.92,0.76 -0.12,-0.04 c -0.53,-0.29 -0.99,-0.72 -1.25,-1.28 l -0.07,-0.12 0.31,0.48 -0.12,-0.14 0.21,0.24 -0.07,-0.07 c -0.09,-0.07 -0.17,-0.22 -0.26,-0.29 l -0.1,-0.12 0.22,0.24 -0.48,-0.55 v 0.02 l -0.67,-0.67 c -0.12,-0.17 -0.24,-0.31 -0.36,-0.46 l -0.24,-0.43 0.24,0.31 -0.29,-0.33 -0.1,-0.12 -0.24,-0.34 -0.12,-0.14 -0.65,-1.01 0.29,0.38 -0.29,-0.36 0.32,0.29 -0.29,-0.24 c -0.19,-0.12 -0.31,-0.26 -0.46,-0.41 l -0.26,-0.33 0.45,0.43 -0.6,-0.46 0.17,0.12 -0.26,-0.19 0.29,0.19 -0.29,-0.14 -0.12,-0.07 -0.24,-0.12 -0.19,-0.12 -0.17,-0.12 c -0.15,-0.1 -0.31,-0.22 -0.43,-0.34 l -0.05,-0.05 2.04,0.82 h -0.07 c -0.44,0 -0.89,-0.1 -1.32,-0.31 l -0.12,-0.05 1.39,0.29 h -0.03 -0.07 -0.05 -0.04 -0.12 0.04 -0.07 c -0.77,0 -1.49,-0.27 -2.06,-0.82 l -0.07,-0.05 2.04,0.82 h -0.08 v 0 h -0.07 v 0 h -0.05 -0.04 -0.12 l 2.71,-2.02 -0.03,0.12 c -0.36,1.18 -1.44,1.95 -2.68,1.97 h -0.05 -0.03 -0.12 0.03 -0.07 v 0 h -0.05 -0.03 -0.09 l 2.01,-0.86 -0.07,0.07 0.22,-0.24 -0.34,0.43 0.24,-0.36 -0.09,0.19 -0.15,0.22 -0.14,0.19 0.24,-0.41 -0.03,0.12 -0.12,0.22 -0.09,0.14 0.14,-0.26 -0.12,0.26 -0.14,0.29 -0.1,0.17 -0.09,0.12 -0.12,0.19 0.43,-2.04 0.02,0.22 c 0.12,0.62 0,1.29 -0.29,1.87 l -0.12,0.24 0.17,-0.41 -0.05,0.17 0.15,-0.6 -0.03,0.17 0.03,-0.46 v 0.29 c 0,0.31 -0.03,0.65 -0.15,0.96 l -0.19,0.55 0.03,-0.14 -0.05,0.21 v 0 l -0.07,0.22 c -0.05,0.26 -0.15,0.48 -0.27,0.72 l -0.09,0.14 0.24,-0.57 -0.08,0.26 c -0.07,0.19 -0.12,0.36 -0.24,0.55 l -0.12,0.22 -0.19,0.29 -0.09,0.12 0.19,-0.29 -0.12,0.19 0.14,-0.29 -0.09,0.24 c -0.15,0.34 -0.32,0.63 -0.6,0.89 l -0.12,0.17 h -0.03 l -0.21,0.22 0.88,-2.12 v 0.1 c 0,0.65 -0.21,1.27 -0.6,1.8 l -0.09,0.12 c -0.15,0.22 -0.36,0.41 -0.58,0.58 l -0.12,0.07 -0.14,0.12 -0.1,0.07 c -0.09,0.05 -0.21,0.12 -0.29,0.17 l -0.16,0.07 1.15,-0.98 -0.07,0.07 c -0.2,0.33 -0.48,0.6 -0.8,0.81 l -0.09,0.08 c -0.48,0.31 -1.06,0.5 -1.63,0.5 h -0.05 -0.03 -0.12 l 2.09,-0.86 -0.09,0.07 v 0 l -0.05,0.07 c -0.58,0.58 -1.32,0.86 -2.11,0.89 h -0.12 c -0.39,0 -0.75,-0.07 -1.11,-0.19 l -0.14,-0.08 1.1,0.22 h -0.12 c -0.81,0 -1.56,-0.31 -2.09,-0.86 l -0.07,-0.08 2.11,0.87 h -0.16 0.04 -0.07 c -0.77,0 -1.56,-0.29 -2.13,-0.87 l -0.05,-0.04 2.09,0.86 h -0.08 c -0.79,0 -1.53,-0.31 -2.11,-0.86 l -0.05,-0.08 v 0 l -0.07,-0.04 0.79,0.52 -0.16,-0.04 1.39,0.31 h -0.07 c -1.23,0 -2.33,-0.72 -2.81,-1.85 l -0.07,-0.17 1.15,1.37 -0.1,-0.07 c -0.17,-0.07 -0.33,-0.19 -0.45,-0.36 l -0.05,-0.05 c -0.58,-0.55 -0.91,-1.3 -0.91,-2.09 v -0.07 l 1.65,2.64 -0.12,-0.07 c -0.36,-0.17 -0.69,-0.41 -0.96,-0.75 l -1.49,-1.75 h 0.03 l -1.11,-1.25 0.03,0.03 -0.39,-0.48 0.29,0.31 -0.48,-0.41 0.1,0.07 -0.51,-0.38 0.15,0.07 -0.58,-0.38 -0.26,-0.22 -0.58,-0.5 0.34,0.26 -0.19,-0.14 0.33,0.21 -0.24,-0.14 -0.14,-0.07 -0.24,-0.12 -0.1,-0.05 -0.24,-0.17 0.75,0.34 -0.2,-0.05 c -0.19,-0.07 -0.36,-0.12 -0.52,-0.22 l -0.24,-0.12 0.52,0.22 -0.21,-0.07 0.17,0.02 -0.29,-0.05 1.01,0.05 -0.24,0.05 c -0.12,0 -0.24,0.02 -0.36,0.02 h -0.08 -0.04 -0.12 l 2.13,-0.91 -0.05,0.07 c -0.57,0.58 -1.32,0.89 -2.13,0.89 h -0.15 v 0 h -0.07 l 0.72,-0.07 -0.12,0.02 1.99,-1.58 -0.04,0.05 c -0.29,0.57 -0.77,1.05 -1.35,1.34 l -0.12,0.07 0.46,-0.26 -0.12,0.07 -0.15,0.1 -0.09,0.07 c -0.48,0.31 -1.08,0.5 -1.66,0.5 h -0.14 l 2.16,-0.91 -0.07,0.07 -0.03,0.03 -0.09,0.09 0.57,-0.81 -0.05,0.14 c -0.52,1.03 -1.56,1.66 -2.71,1.66 h -0.07 l 2.59,-1.47 -0.09,0.17 c -0.12,0.22 -0.27,0.41 -0.44,0.58 l -0.07,0.07 0.39,-0.46 -0.05,0.1 0.02,-0.1 -0.62,1.06 0.05,-0.17 -0.17,0.36 0.21,-0.43 -0.16,0.43 c -0.05,0.12 -0.08,0.22 -0.15,0.34 l -0.21,0.43 0.04,-0.12 -0.36,0.84 c -0.07,0.12 -0.12,0.24 -0.19,0.36 l -0.43,0.67 0.19,-0.36 -0.09,0.22 c -0.12,0.26 -0.29,0.55 -0.48,0.79 l -0.22,0.19 0.12,-0.12 -0.24,0.29 c -0.05,0.12 -0.14,0.19 -0.24,0.29 l -0.14,0.14 v 0 l -0.05,0.07 0.86,-2.11 v 0.07 c 0,0.77 -0.33,1.56 -0.91,2.09 -0.55,0.58 -1.32,0.89 -2.11,0.89 h -0.07 l 2.88,-2.04 -0.03,0.07 c -0.26,0.77 -0.81,1.39 -1.53,1.75 l -0.12,0.08 0.79,-0.56 -0.07,0.08 c -0.58,0.52 -1.32,0.84 -2.14,0.84 h -0.07 l 2.52,-1.35 -0.07,0.1 c -0.58,0.84 -1.54,1.37 -2.52,1.32 h -0.12 v 0 h -0.05 -0.05 -0.02 l 2.16,-0.87 -0.05,0.08 c -0.58,0.55 -1.37,0.88 -2.16,0.86 h -0.07 l 0.74,-0.1 -0.12,0.03 c -0.24,0.07 -0.5,0.09 -0.74,0.09 h -0.1 v 0 h -0.05 c -0.57,0 -1.1,-0.14 -1.58,-0.48 l -0.34,-0.21 -0.07,-0.03 -0.17,-0.12 c -0.19,-0.12 -0.33,-0.24 -0.48,-0.38 l -0.07,-0.07 0.48,0.41 -0.19,-0.12 c -0.17,-0.15 -0.34,-0.29 -0.46,-0.44 l -0.07,-0.07 v 0.05 l -0.14,-0.17 c -0.24,-0.24 -0.41,-0.5 -0.58,-0.79 l -0.05,-0.12 1.35,1.34 -0.15,-0.07 c -0.62,-0.31 -1.15,-0.89 -1.41,-1.56 l -0.05,-0.14 0.65,0.98 -0.12,-0.12 v 0 l -0.12,-0.12 c -0.29,-0.29 -0.51,-0.62 -0.65,-1.01 l -0.07,-0.14 -0.05,-0.17 -0.07,-0.19 1.46,1.73 -0.12,-0.05 c -0.98,-0.53 -1.61,-1.54 -1.61,-2.69 v -0.19 l 0.22,1.1 -0.07,-0.19 0.19,0.43 -0.31,-0.5 -0.03,-0.05 -0.12,-0.19 -0.07,-0.17 -0.07,-0.19 0.05,0.12 -0.15,-0.29 1.11,1.15 -0.22,-0.12 c -0.48,-0.26 -0.84,-0.67 -1.1,-1.1 l -0.12,-0.22 0.09,0.15 -0.12,-0.17 0.24,0.31 -0.62,-0.74 -0.12,-0.15 -0.34,-0.38 0.27,0.26 -0.24,-0.21 v 0 l -0.17,-0.17 0.19,0.17 -0.17,-0.15 c -0.14,-0.12 -0.26,-0.26 -0.38,-0.38 l -0.17,-0.19 0.96,0.74 -0.12,-0.05 1.3,0.29 h -0.05 c -1.63,0 -2.95,-1.34 -2.95,-2.95 v -0.07 l 2.97,2.97 h -0.09 c -1.61,0 -2.93,-1.32 -2.93,-2.97 v -0.1 l 2.93,2.98 h -0.05 c -0.79,0 -1.54,-0.29 -2.09,-0.87 l -0.05,-0.07 2.07,0.89 h -0.05 -0.07 -0.03 l 1.42,-0.31 -0.07,0.02 c -0.41,0.22 -0.87,0.31 -1.35,0.31 h -0.07 v 0 h -0.05 v 0 h -0.09 0.02 -0.05 -0.02 -0.05 0.05 -0.07 -0.03 -0.07 0.05 -0.07 l 2.11,-0.86 -0.07,0.05 c -0.58,0.57 -1.32,0.86 -2.09,0.86 h -0.07 l 2.83,-1.99 -0.05,0.07 c -0.41,1.2 -1.56,2.02 -2.81,2.02 h -0.09 c -1.18,0 -2.26,-0.72 -2.69,-1.83 -0.48,-1.1 -0.22,-2.4 0.65,-3.24 0.84,-0.84 2.11,-1.08 3.21,-0.62 1.11,0.48 1.83,1.56 1.83,2.76 v 0.05 c 0,0.79 -0.34,1.53 -0.87,2.06 l -0.67,0.67 0.24,-0.26 -0.24,0.29 v 0 l -0.19,0.26 0.38,-0.67 -0.14,0.38 c -0.07,0.15 -0.17,0.34 -0.29,0.48 l -0.17,0.29 0.03,-0.05 -0.22,0.34 0.24,-0.46 -0.17,0.36 -0.02,0.1 -0.17,0.36 0.12,-0.31 -0.12,0.31 c -0.02,0.12 -0.07,0.19 -0.12,0.31 l -0.6,1.2 0.05,-0.07 -0.22,0.5 c -0.09,0.15 -0.19,0.29 -0.26,0.46 l -0.24,0.36 -0.05,0.02 -0.29,0.41 -0.02,0.05 -0.17,0.19 0.34,-0.55 -0.05,0.14 c -0.48,1.11 -1.63,1.83 -2.86,1.76 h -0.07 l 1.68,-0.44 -0.07,0.08 1.37,-2.31 v 0.07 c -0.05,0.87 -0.51,1.66 -1.2,2.16 l -0.15,0.1 -0.14,0.1 -0.1,0.04 0.1,-0.04 -0.12,0.07 c -0.12,0.09 -0.29,0.17 -0.41,0.24 l -0.12,0.05 1.27,-1.16 -0.02,0.08 c -0.55,0.88 -1.54,1.44 -2.59,1.39 h -0.12 l 2.42,-1.15 -0.07,0.07 c -0.55,0.77 -1.44,1.2 -2.4,1.17 h -0.17 c -0.77,-0.02 -1.51,-0.38 -2.04,-0.96 l -0.05,-0.09 1.61,0.93 h -0.05 c -0.6,-0.12 -1.17,-0.45 -1.58,-0.93 l -0.07,-0.05 1.87,0.96 -0.07,-0.02 v 0 h -0.05 c -1.56,-0.17 -2.71,-1.52 -2.57,-3.05 V 189 c 0.17,-1.56 1.51,-2.71 3.05,-2.57 1.56,0.17 2.69,1.51 2.54,3.05 -0.14,1.56 -1.51,2.66 -3.02,2.54 h -0.07 c -0.89,-0.09 -1.71,-0.6 -2.16,-1.34 l -0.05,-0.12 c -0.79,-1.27 -0.41,-2.95 0.86,-3.77 1.25,-0.79 2.93,-0.5 3.82,0.72 0.86,1.25 0.6,2.93 -0.58,3.82 l -0.02,0.05 c -0.58,0.43 -1.27,0.62 -1.97,0.55 h -0.05 c -1.51,-0.12 -2.64,-1.44 -2.54,-2.93 l 0.02,-0.1 0.65,2.02 -0.05,-0.07 1.85,0.93 -0.05,-0.02 c -0.74,-0.07 -1.41,-0.43 -1.89,-0.96 -0.48,-0.58 -0.7,-1.3 -0.63,-2.04 v -0.07 l 0.7,2.09 -0.07,-0.08 1.8,0.94 h -0.05 c -1.51,-0.14 -2.62,-1.49 -2.5,-3 l 0.03,-0.07 -0.03,0.09 0.03,-0.09 0.67,1.99 -0.07,-0.1 c -0.48,-0.55 -0.72,-1.29 -0.65,-2.04 v -0.07 l 0.29,1.54 -1.66,-3.12 -0.14,-0.29 -0.44,-1.2 -0.04,-0.17 -0.39,-1.25 0.05,0.22 -0.58,-1.49 c -0.48,-1.1 0.05,-2.4 1.13,-2.9 1.08,-0.53 2.4,-0.12 2.98,0.96 z"
         style="fill:#000000;fill-opacity:1;fill-rule:nonzero;stroke:none"
         transform="matrix(1.3333333,0,0,-1.3333333,0,1120.8)" />
    </g>
    <g
       id="g151"
       transform="translate(-228.39474,1.0241917)">
      <path
         id="path151"
         d="m 435.17,135.94 0.36,0.12 c 0.14,0.04 0.29,0.09 0.41,0.16 l 2.56,1.35 h 0.03 l 1.8,0.96 v 0 l 3.26,1.7 0.03,0.03 1.15,0.6 0.09,0.04 3,1.73 h 0.03 l 3.02,1.78 -0.02,-0.03 0.86,0.48 -0.21,-0.09 1.96,0.89 -0.33,-0.12 0.53,0.16 c 0.24,0.08 0.45,0.17 0.67,0.32 l 0.62,0.4 c 0.19,0.08 0.34,0.2 0.48,0.36 l 0.12,0.08 -0.86,-0.56 0.09,0.05 c 0.12,0.03 0.24,0.12 0.36,0.19 l 0.12,0.05 v 0 l 0.08,0.1 -0.36,-0.22 0.07,0.03 c 0.14,0.07 0.26,0.12 0.38,0.21 l 0.1,0.07 -0.82,-0.36 0.27,0.05 c 0.28,0.1 0.52,0.22 0.76,0.36 l 0.24,0.12 -0.48,-0.24 0.12,0.07 c 1.52,0.6 2.33,2.28 1.83,3.84 -0.51,1.56 -2.16,2.45 -3.75,2.04 -1.6,-0.43 -2.59,-2.04 -2.23,-3.64 l 0.07,-0.32 v 0.05 l 0.24,-1.29 v 0.04 l 0.65,-3.93 -0.02,0.12 0.72,-5.64 -0.03,0.36 v -0.34 0 -0.12 c 0.03,-1.7 1.4,-3.09 3.12,-3.09 1.68,0 3.1,1.39 3.1,3.09 v 0.12 0 0.34 c 0,0.12 0,0.26 -0.05,0.38 l -0.67,5.67 -0.05,0.16 -0.67,3.92 v 0.07 l -0.24,1.32 -0.05,0.12 -0.07,0.33 c -0.24,1.08 -1.1,1.97 -2.21,2.28 -1.08,0.29 -2.28,-0.04 -3.05,-0.88 l -0.09,-0.08 -0.07,-0.07 -0.17,-0.21 1.37,0.88 -0.24,-0.07 c -0.32,-0.09 -0.6,-0.24 -0.87,-0.41 l -0.12,-0.09 0.27,0.17 -0.05,-0.03 -0.27,-0.17 -0.12,-0.07 v 0 l -0.09,-0.09 0.26,0.19 -0.05,-0.03 c -0.28,-0.16 -0.52,-0.36 -0.72,-0.57 l -0.12,-0.12 0.51,0.45 -0.6,-0.43 0.69,0.34 -0.55,-0.19 -0.29,-0.12 -1.96,-0.96 -0.27,-0.12 -0.84,-0.53 v 0 l -3,-1.87 v 0 l -2.97,-1.83 0.07,0.03 -1.11,-0.65 h -0.04 l -3.17,-1.9 -0.07,-0.02 -1.73,-1.11 -0.05,-0.04 -2.4,-1.56 -0.12,-0.08 -0.29,-0.21 c -0.96,-0.7 -1.27,-1.99 -0.74,-3.03 0.53,-1.05 1.73,-1.6 2.88,-1.24 z"
         style="fill:#000000;fill-opacity:1;fill-rule:nonzero;stroke:none"
         transform="matrix(1.3333333,0,0,-1.3333333,0,1120.8)" />
    </g>
    <g
       id="g152"
       transform="translate(-228.39474,1.0241917)">
      <path
         id="path152"
         d="m 434.47,134.81 3.39,-0.39 c 0.19,-0.04 0.33,-0.04 0.48,-0.04 l 3.4,0.16 h 0.2 l 1.2,0.15 h -0.12 l 1.32,0.09 v 0 l 4.56,0.32 h -0.17 l 2.9,0.04 0.15,0.03 1.05,0.05 h -0.12 l 1.56,0.04 h -0.24 l 1.99,-0.12 -0.81,0.15 0.09,-0.03 c 1.68,-0.57 3.48,0.36 4.06,2 0.53,1.68 -0.36,3.48 -2.02,4.05 l -0.12,0.03 c -0.28,0.09 -0.57,0.16 -0.84,0.16 l -2.01,0.08 -0.24,0.04 -1.56,-0.07 h -0.15 l -1.05,-0.09 h 0.12 l -2.91,-0.08 h -0.21 l -4.54,-0.45 v 0 l -1.29,-0.12 h -0.12 l -1.2,-0.15 h 0.12 l -3.39,-0.28 h -0.02 l -3.41,-0.32 c -1.34,-0.12 -2.4,-1.27 -2.42,-2.61 0,-1.35 1.03,-2.5 2.37,-2.64 z"
         style="fill:#000000;fill-opacity:1;fill-rule:nonzero;stroke:none"
         transform="matrix(1.3333333,0,0,-1.3333333,0,1120.8)" />
    </g>
    <g
       id="g153"
       transform="translate(-228.39474,1.0241917)">
      <path
         id="path153"
         d="m 431.35,149.54 -0.07,-1.24 v -0.27 l 0.19,-2.9 0.03,-0.07 0.31,-3.17 v 0 l 0.26,-3.07 v 0.31 l -0.02,-1.03 v -0.03 -0.14 c 0,-0.99 0.5,-1.9 1.37,-2.38 0.84,-0.5 1.89,-0.5 2.73,0 0.84,0.48 1.39,1.39 1.35,2.38 v 0.14 0.03 1.03 l -0.03,0.26 -0.36,3.07 v 0.03 l -0.38,3.14 v 0.03 l -0.41,2.85 v -0.05 l -0.12,1.23 c -0.12,1.25 -1.22,2.21 -2.47,2.18 -1.3,-0.02 -2.33,-1.05 -2.38,-2.33 z"
         style="fill:#000000;fill-opacity:1;fill-rule:nonzero;stroke:none"
         transform="matrix(1.3333333,0,0,-1.3333333,0,1120.8)" />
    </g>
    <g
       id="g154"
       transform="translate(-228.39474,1.0241917)">
      <path
         id="path154"
         d="m 432.72,147.5 0.6,-0.33 c 0.24,-0.15 0.53,-0.27 0.82,-0.31 l 0.38,-0.08 -0.89,0.36 0.34,-0.21 c 0.19,-0.12 0.41,-0.22 0.62,-0.31 l 0.39,-0.12 -0.36,0.16 0.33,-0.16 -0.09,0.04 0.93,-0.52 -0.19,0.12 0.43,-0.27 c 0.1,-0.05 0.17,-0.12 0.29,-0.17 l 0.46,-0.21 v 0 l 0.45,-0.22 0.19,-0.09 0.96,-0.36 0.05,-0.03 3.6,-1.32 -0.14,0.07 2.37,-1.03 -0.84,0.58 0.2,-0.22 c 0.67,-0.69 1.68,-0.96 2.61,-0.72 0.94,0.27 1.66,0.99 1.9,1.92 0.26,0.94 -0.03,1.92 -0.7,2.62 l -0.21,0.21 c -0.24,0.24 -0.53,0.41 -0.87,0.56 l -2.37,0.96 -0.17,0.09 -3.67,1.2 h 0.04 l -0.96,0.34 0.12,-0.07 -0.45,0.21 v 0 l -0.48,0.19 0.33,-0.16 -0.43,0.24 -0.12,0.07 -0.98,0.5 -0.24,0.1 -0.41,0.14 c -0.12,0.03 -0.24,0.1 -0.36,0.1 l -0.41,0.09 0.65,-0.21 -0.36,0.17 c -0.29,0.16 -0.62,0.24 -0.96,0.28 l -0.38,0.03 0.31,-0.07 -0.67,0.16 c -1.13,0.24 -2.26,-0.4 -2.67,-1.44 -0.38,-1.08 0.03,-2.28 1.01,-2.88 z"
         style="fill:#000000;fill-opacity:1;fill-rule:nonzero;stroke:none"
         transform="matrix(1.3333333,0,0,-1.3333333,0,1120.8)" />
    </g>
    <g
       id="g155"
       transform="translate(-228.39474,1.0241917)">
      <path
         id="path155"
         d="m 440.35,158.81 0.15,-0.46 0.12,-0.26 0.6,-1.2 -0.05,0.17 1.53,-3.56 -0.07,0.12 0.79,-2.11 v 0.07 l 1.04,-3.04 0.07,-0.15 0.72,-1.73 -0.19,0.56 0.07,-0.2 c 0.26,-1.53 1.7,-2.52 3.21,-2.28 1.52,0.27 2.55,1.68 2.33,3.17 l -0.02,0.24 c -0.03,0.22 -0.1,0.43 -0.19,0.63 l -0.72,1.75 0.07,-0.1 -1.08,3 v 0.07 l -0.82,2.09 -0.05,0.19 -1.6,3.53 -0.15,0.24 -0.65,1.18 -0.07,0.09 -0.26,0.39 c -0.72,1.17 -2.23,1.56 -3.46,0.96 -1.22,-0.63 -1.8,-2.07 -1.32,-3.36 z"
         style="fill:#000000;fill-opacity:1;fill-rule:nonzero;stroke:none"
         transform="matrix(1.3333333,0,0,-1.3333333,0,1120.8)" />
    </g>
    <g
       id="g156"
       transform="translate(-228.39474,1.0241917)">
      <path
         id="path156"
         d="m 450.91,160.75 0.1,-4.17 v -0.24 l 0.14,-1.52 v 0 l 0.27,-2.73 v -0.19 l 0.64,-4.01 0.05,-0.24 0.03,-0.15 v 0 l 0.04,-0.16 c 0.39,-1.52 1.97,-2.48 3.53,-2.09 1.54,0.38 2.5,1.94 2.11,3.5 l -0.02,0.15 v 0 l -0.05,0.16 0.05,-0.24 -0.67,4.01 0.02,-0.14 -0.29,2.73 v 0.05 l -0.21,1.54 v 0 l -0.58,4.15 c -0.21,1.34 -1.41,2.3 -2.76,2.21 -1.37,-0.12 -2.4,-1.25 -2.4,-2.62 z"
         style="fill:#000000;fill-opacity:1;fill-rule:nonzero;stroke:none"
         transform="matrix(1.3333333,0,0,-1.3333333,0,1120.8)" />
    </g>
    <g
       id="g157"
       transform="translate(-228.39474,1.0241917)">
      <path
         id="path157"
         d="m 451.66,158.93 0.19,-0.15 c 0.29,-0.24 0.6,-0.43 0.96,-0.52 l 2.13,-0.65 0.27,-0.07 3.02,-0.6 c 0.17,-0.03 0.34,-0.05 0.53,-0.05 h 0.19 l -1.13,0.24 0.17,-0.07 c 0.19,-0.08 0.36,-0.15 0.55,-0.17 l 0.15,-0.03 0.12,-0.04 0.21,-0.03 -1.05,0.39 0.19,-0.08 c 0.14,-0.12 0.31,-0.19 0.5,-0.28 l 0.46,-0.17 -0.07,0.02 0.69,-0.29 -0.86,0.56 0.17,-0.17 -0.6,3.79 -0.1,-0.17 1.54,1.37 -0.6,-0.24 0.14,0.05 -1.44,-0.53 -0.19,-0.1 -0.46,-0.21 -0.19,-0.1 -0.45,-0.24 -0.05,-0.02 -1.03,-0.58 -0.05,-0.02 -2.62,-1.51 -0.29,-0.17 -0.16,-0.12 0.48,0.29 -0.2,-0.12 v 0 l -0.64,-0.29 0.4,0.14 -0.09,-0.02 c -1.68,-0.58 -2.59,-2.35 -2.02,-4.03 0.55,-1.64 2.35,-2.55 3.99,-2 l 0.12,0.05 c 0.16,0.03 0.31,0.1 0.43,0.15 l 0.62,0.33 h 0.03 l 0.21,0.12 c 0.19,0.1 0.34,0.19 0.48,0.31 l 0.15,0.12 -0.29,-0.21 2.59,1.56 -0.1,-0.07 1.01,0.57 v 0 l 0.46,0.24 -0.17,-0.09 0.48,0.21 -0.22,-0.09 1.42,0.55 0.17,0.09 0.57,0.24 c 0.84,0.39 1.49,1.16 1.71,2.07 l 0.07,0.17 c 0.38,1.46 -0.34,2.97 -1.68,3.62 l -0.24,0.07 -0.22,0.1 -0.72,0.26 v 0 l -0.48,0.19 0.46,-0.21 -0.19,0.09 c -0.34,0.22 -0.7,0.34 -1.08,0.39 l -0.22,0.02 0.1,-0.02 -0.17,0.02 0.53,-0.14 -0.17,0.09 c -0.36,0.12 -0.77,0.17 -1.13,0.17 h -0.19 l 0.43,-0.02 -3.02,0.38 h 0.05 l -2.19,0.34 0.22,-0.03 -0.22,0.05 c -1.22,0.29 -2.49,-0.29 -3.05,-1.44 -0.55,-1.1 -0.28,-2.45 0.68,-3.26 z"
         style="fill:#000000;fill-opacity:1;fill-rule:nonzero;stroke:none"
         transform="matrix(1.3333333,0,0,-1.3333333,0,1120.8)" />
    </g>
    <g
       id="g158"
       transform="translate(-228.39474,1.0241917)">
      <path
         id="path158"
         d="m 441.86,162.31 -0.07,-0.02 c -0.53,-0.22 -0.98,-0.6 -1.29,-1.11 l -0.15,-0.26 0.19,0.26 -0.91,-1.17 -0.12,-0.17 -0.21,-0.31 0.24,0.31 -0.24,-0.29 c -0.08,-0.12 -0.15,-0.24 -0.24,-0.33 l -0.48,-0.77 -0.08,-0.15 -0.33,-0.6 0.09,0.15 -0.6,-0.96 0.15,0.21 -0.46,-0.6 1.32,0.99 -0.5,-0.19 1.41,0.12 -0.09,0.04 1.1,-0.4 -0.12,0.09 h -0.02 l -0.07,0.07 0.57,-0.43 -0.45,0.43 -0.24,0.17 -0.2,0.15 0.44,-0.41 -0.15,0.17 v 0 l -0.17,0.19 h 0.03 l -0.51,0.53 -0.12,0.12 -0.24,0.24 0.17,-0.17 -0.24,0.26 -0.14,0.19 -0.27,0.27 -0.19,0.14 -0.26,0.24 v 0 l -0.27,0.22 c -0.12,0.12 -0.28,0.21 -0.4,0.31 l -0.77,0.48 v 0 l -0.07,0.05 -0.24,0.12 -0.05,0.02 c -1.08,0.58 -2.38,0.53 -3.41,-0.14 -0.98,-0.65 -1.58,-1.83 -1.49,-3.03 0.1,-1.2 0.82,-2.28 1.9,-2.8 l 0.05,-0.03 0.26,-0.12 0.07,-0.02 -0.43,0.21 0.79,-0.45 -0.19,0.12 0.31,-0.22 v 0 l 0.29,-0.17 -0.19,0.15 0.26,-0.24 -0.14,0.12 0.26,-0.22 0.22,-0.17 0.26,-0.19 -0.43,0.36 0.53,-0.53 0.14,-0.16 0.17,-0.15 v 0 l 0.19,-0.17 c 0.17,-0.16 0.34,-0.28 0.51,-0.36 l 0.21,-0.16 -0.33,0.24 0.48,-0.36 c 0.19,-0.17 0.43,-0.32 0.67,-0.41 l 0.05,-0.03 0.04,-0.04 0.15,-0.05 c 0.53,-0.24 1.1,-0.31 1.68,-0.24 l 0.09,0.02 c 1.16,0.15 2.16,0.96 2.55,2.07 l 0.17,0.52 -0.29,-0.64 0.38,0.64 0.12,0.17 0.51,0.96 0.12,0.22 0.28,0.62 -0.09,-0.17 0.45,0.77 -0.12,-0.14 0.2,0.26 c 0.07,0.12 0.12,0.22 0.19,0.34 l 0.14,0.33 -0.09,-0.16 0.76,1.29 0.08,0.24 0.16,0.31 c 0.32,0.75 0.27,1.61 -0.19,2.33 l -0.02,0.07 c -0.63,1.01 -1.92,1.44 -3.03,1.01 z"
         style="fill:#000000;fill-opacity:1;fill-rule:nonzero;stroke:none"
         transform="matrix(1.3333333,0,0,-1.3333333,0,1120.8)" />
    </g>
    <g
       id="g159"
       transform="translate(-228.39474,1.0241917)">
      <path
         id="path159"
         d="m 443.83,158.59 0.46,0.19 -0.84,-0.16 0.62,-0.03 -0.98,0.27 0.38,-0.2 c 0.91,-0.48 2.02,-0.4 2.86,0.2 0.81,0.64 1.22,1.65 1.01,2.68 -0.17,1.01 -0.92,1.83 -1.92,2.09 h -0.03 l 1.95,-3.02 0.07,0.38 c 0.05,0.34 0.05,0.7 -0.03,1.06 l -0.16,0.62 -0.05,0.24 -0.1,0.24 -0.02,0.17 -0.1,0.17 v 0 l -0.05,0.19 c -0.07,0.14 -0.12,0.26 -0.19,0.38 l -0.12,0.22 -0.12,0.17 -0.33,0.48 -0.03,0.09 -0.26,0.34 c -0.12,0.17 -0.27,0.31 -0.43,0.48 l -0.8,0.74 0.2,-0.24 -0.2,0.27 c -0.12,0.12 -0.21,0.21 -0.33,0.31 l -0.27,0.24 0.32,-0.31 -0.24,0.24 v 0 l -0.51,0.6 0.19,-0.24 -0.4,0.5 -0.2,0.24 -0.09,0.12 c -0.1,0.12 -0.22,0.24 -0.34,0.34 l -0.14,0.12 0.89,-1.18 -0.05,0.12 c -0.1,0.19 -0.19,0.36 -0.31,0.55 l -0.08,0.12 v 0 l -0.12,0.15 0.29,-0.51 -0.05,0.15 v 0 l -0.07,0.14 v 0 l -0.05,0.17 0.08,-0.29 -0.15,0.41 0.12,-0.34 -0.09,0.29 v 0 l -0.05,0.29 0.05,-0.34 -0.03,0.24 v -0.02 l -0.02,0.26 0.02,-0.38 v 0.26 0 0.29 0 l 0.03,0.29 v 0 0.29 0 0.26 l -0.12,-0.77 0.09,0.27 v 0 l 0.07,0.31 c 0.03,0.12 0.05,0.24 0.08,0.38 l 0.04,0.27 -0.24,-0.89 0.08,0.26 c 0.09,0.15 0.16,0.34 0.19,0.48 l 0.09,0.29 -0.19,-0.5 0.12,0.24 -0.09,-0.12 0.4,0.69 0.05,0.22 0.12,0.24 -0.21,-0.41 0.12,0.19 -0.08,-0.14 0.15,0.19 v 0 l 0.12,0.22 -0.39,-0.48 0.12,0.12 v 0 l 0.17,0.19 0.22,0.24 0.17,0.19 -0.48,-0.48 0.19,0.17 c 0.09,0.05 0.17,0.14 0.26,0.24 l 0.19,0.17 -0.28,-0.24 0.19,0.12 -0.24,-0.15 0.21,0.15 0.24,0.14 0.17,0.17 -0.6,-0.41 0.22,0.12 v 0 l 0.21,0.1 -0.16,-0.05 0.24,0.07 c 0.12,0.07 0.28,0.17 0.4,0.22 l 0.17,0.12 -0.77,-0.36 0.24,0.09 0.12,0.03 0.24,0.07 -0.21,-0.07 0.65,0.19 -0.24,-0.07 0.4,0.09 -0.24,-0.02 0.32,0.02 -0.32,-0.02 h 0.36 v 0 h 0.39 v 0 h 0.36 l -0.31,0.02 0.4,-0.07 -0.07,0.05 0.34,-0.05 -0.24,0.05 0.38,-0.1 -0.05,0.03 0.36,-0.1 v 0 l 0.36,-0.05 -0.48,0.12 0.89,-0.31 -0.09,0.05 0.36,-0.17 -0.39,0.19 0.34,-0.19 v 0 l 0.29,-0.17 v 0 l 0.33,-0.19 -0.38,0.29 0.29,-0.22 0.16,-0.12 0.32,-0.21 -0.32,0.24 0.68,-0.58 -0.29,0.29 0.36,-0.41 0.24,-0.19 0.38,-0.36 -0.33,0.36 0.33,-0.41 -0.09,0.1 0.33,-0.41 v 0 l 0.31,-0.43 -0.07,0.12 0.34,-0.46 -0.22,0.31 0.27,-0.48 -0.05,0.12 0.53,-1.05 -0.08,0.14 0.17,-0.41 -0.02,0.15 0.14,-0.39 v 0 l 0.15,-0.38 -0.12,0.29 0.12,-0.41 0.04,-0.07 0.08,-0.39 -0.05,0.29 0.09,-0.41 v 0 l 0.05,-0.43 -0.05,0.53 0.03,-0.41 v -0.24 l 0.05,-0.41 -0.03,0.39 -0.02,-1.13 v -0.17 -0.31 l 0.05,0.62 -0.05,-0.36 v 0.05 l -0.07,-0.29 v -0.02 l -0.12,-0.72 0.24,0.74 -0.08,-0.14 0.17,0.31 -0.05,-0.12 c -0.19,-0.29 -0.33,-0.62 -0.4,-0.96 l -0.03,-0.14 0.39,0.98 -0.05,-0.12 c -0.22,-0.29 -0.34,-0.62 -0.43,-0.96 l -0.03,-0.14 0.79,1.46 -0.09,-0.12 c -0.34,-0.36 -0.6,-0.77 -0.72,-1.25 l -0.03,-0.09 0.44,0.91 -0.12,-0.12 -0.08,-0.19 -0.09,-0.1 0.38,0.48 -0.09,-0.12 0.04,0.05 -0.21,-0.22 1.94,0.94 h -0.02 c -0.75,-0.07 -1.47,-0.43 -2.02,-0.96 l -0.02,-0.05 c -0.58,-0.6 -0.87,-1.39 -0.84,-2.23 v -0.05 c 0.05,-1.7 1.49,-3.02 3.21,-2.97 1.68,0.07 3.03,1.51 2.93,3.21 -0.05,1.68 -1.46,3.05 -3.17,2.95 h -0.04 c -0.8,-0.02 -1.56,-0.36 -2.12,-0.96 l -0.04,-0.02 2.13,0.96 h -0.05 c -0.81,-0.05 -1.63,-0.41 -2.16,-1.03 l -0.04,-0.03 2.04,1.01 h -0.03 0.12 -0.02 v 0 h -0.03 v 0 h -0.07 l -0.09,-0.02 h -0.05 l 0.21,0.02 h -0.12 l -0.16,-0.02 h -0.15 c -1.61,-0.12 -2.85,-1.44 -2.85,-3.05 0,-1.61 1.24,-2.95 2.85,-3.05 l 0.15,-0.02 h 0.16 0.12 -0.21 0.05 0.09 0.07 v 0 h 0.03 v 0 h 0.02 -0.12 0.03 c 0.84,-0.07 1.68,0.21 2.32,0.77 l 0.03,0.04 -2.19,-0.79 h 0.05 c 0.82,-0.02 1.63,0.27 2.23,0.84 l 0.03,0.03 -2.23,-0.84 h 0.04 c 1.71,-0.05 3.12,1.27 3.17,2.97 l 0.03,0.05 -0.96,-2.14 0.04,0.03 -2.37,-0.82 0.02,-0.02 c 0.91,-0.07 1.78,0.26 2.4,0.86 l 0.22,0.22 h -0.03 l 0.12,0.09 c 0.15,0.15 0.27,0.29 0.39,0.46 l 0.05,0.12 -0.05,-0.12 0.09,0.12 c 0.2,0.26 0.36,0.53 0.48,0.84 l 0.03,0.12 -0.79,-1.18 0.12,0.1 c 0.43,0.38 0.69,0.86 0.86,1.44 l 0.05,0.12 -0.48,-0.96 0.09,0.07 c 0.22,0.31 0.36,0.65 0.46,1.01 l 0.05,0.12 -0.48,-0.96 0.09,0.12 c 0.05,0.07 0.15,0.19 0.22,0.31 l 0.05,0.17 c 0.14,0.24 0.24,0.5 0.31,0.79 l 0.14,0.72 -0.02,-0.12 0.07,0.34 v 0.07 l 0.1,0.36 c 0.07,0.19 0.07,0.38 0.07,0.6 l 0.02,0.31 v -0.05 l 0.03,1.13 v 0.34 l -0.03,0.43 v -0.29 l 0.03,0.41 c 0,0.17 -0.03,0.36 -0.05,0.53 l -0.07,0.43 v 0 l -0.05,0.43 -0.07,0.31 -0.1,0.39 v -0.05 l -0.07,0.41 -0.1,0.33 -0.12,0.39 v 0 l -0.14,0.38 -0.07,0.17 -0.15,0.41 -0.12,0.24 -0.52,1.08 -0.03,0.07 -0.24,0.48 c -0.05,0.07 -0.12,0.19 -0.21,0.29 l -0.29,0.48 -0.07,0.09 -0.32,0.41 v 0 l -0.31,0.46 -0.09,0.09 -0.32,0.41 c -0.09,0.12 -0.21,0.24 -0.33,0.34 l -0.36,0.38 0.21,-0.24 -0.36,0.41 c -0.09,0.12 -0.21,0.24 -0.33,0.31 l -0.7,0.58 -0.26,0.24 -0.34,0.21 0.15,-0.12 -0.27,0.22 c -0.12,0.07 -0.24,0.17 -0.38,0.26 l -0.31,0.17 v 0 l -0.32,0.19 v 0 l -0.31,0.17 c -0.14,0.07 -0.26,0.12 -0.38,0.19 l -0.36,0.15 -0.12,0.02 -0.91,0.34 c -0.15,0.07 -0.29,0.09 -0.48,0.12 l -0.36,0.09 v 0 l -0.32,0.05 -0.07,0.05 -0.38,0.05 -0.24,0.02 -0.34,0.05 -0.05,0.02 -0.4,0.03 h -0.29 -0.36 v 0 h -0.39 v 0 h -0.36 -0.33 l -0.36,-0.03 -0.24,-0.07 -0.39,-0.05 -0.28,-0.07 -0.68,-0.17 -0.21,-0.07 -0.22,-0.05 0.15,0.03 -0.24,-0.05 c -0.29,-0.1 -0.56,-0.22 -0.8,-0.36 l -0.19,-0.12 0.39,0.19 -0.24,-0.07 -0.17,-0.1 -0.22,-0.12 v 0 l -0.21,-0.09 c -0.2,-0.12 -0.41,-0.24 -0.6,-0.39 l -0.17,-0.14 0.24,0.17 -0.22,-0.15 -0.24,-0.14 -0.17,-0.17 c -0.09,-0.07 -0.19,-0.14 -0.28,-0.24 l -0.17,-0.17 0.29,0.24 -0.17,-0.14 c -0.19,-0.17 -0.34,-0.31 -0.48,-0.46 l -0.19,-0.24 0.21,0.24 -0.17,-0.19 v 0 l -0.16,-0.14 c -0.15,-0.15 -0.29,-0.34 -0.41,-0.51 l -0.12,-0.21 v 0 l -0.15,-0.22 -0.09,-0.14 -0.12,-0.17 c -0.07,-0.12 -0.12,-0.24 -0.19,-0.41 l -0.12,-0.24 0.09,0.17 -0.36,-0.7 -0.09,-0.24 -0.12,-0.24 c -0.05,-0.19 -0.12,-0.33 -0.15,-0.5 l -0.07,-0.29 0.17,0.48 -0.1,-0.24 c -0.12,-0.29 -0.21,-0.6 -0.24,-0.89 l -0.02,-0.26 0.07,0.38 -0.07,-0.31 v 0 l -0.07,-0.26 c -0.05,-0.27 -0.1,-0.53 -0.05,-0.82 v -0.26 0 -0.29 0 -0.29 0 -0.29 0 -0.26 c 0.02,-0.17 0.02,-0.29 0.05,-0.43 l 0.02,-0.27 v -0.07 l 0.07,-0.26 0.05,-0.29 0.1,-0.29 v 0 l 0.07,-0.29 0.07,-0.31 0.17,-0.38 c 0.05,-0.15 0.12,-0.29 0.21,-0.41 l 0.08,-0.17 v 0 l 0.07,-0.12 v 0 l 0.09,-0.14 c 0.08,-0.15 0.17,-0.34 0.29,-0.46 l 0.12,-0.14 v 0 l 0.12,-0.15 -0.33,0.48 0.09,-0.14 c 0.24,-0.43 0.58,-0.79 0.96,-1.06 l 0.15,-0.12 -0.32,0.27 0.12,-0.1 -0.31,0.31 0.43,-0.48 0.15,-0.19 0.53,-0.55 0.16,-0.12 0.27,-0.24 c 0.09,-0.1 0.21,-0.19 0.33,-0.29 l 0.29,-0.19 -0.33,0.26 0.28,-0.24 0.15,-0.12 0.89,-0.69 -0.2,0.19 0.32,-0.31 -0.24,0.24 0.4,-0.46 0.2,-0.24 0.19,-0.14 -0.24,0.26 0.12,-0.17 v 0 l 0.14,-0.14 -0.17,0.24 0.15,-0.22 -0.39,0.72 0.2,-0.62 -0.08,0.43 0.05,-0.38 c 0.12,-0.75 0.55,-1.42 1.2,-1.83 0.63,-0.43 1.42,-0.55 2.16,-0.33 h 0.03 c 1.15,0.29 1.96,1.34 1.99,2.52 0.02,1.2 -0.72,2.28 -1.87,2.64 -1.13,0.36 -2.36,-0.1 -3.05,-1.08 l -0.24,-0.36 1.34,0.96 -0.62,-0.17 c -0.22,-0.07 -0.46,-0.17 -0.63,-0.29 l -0.43,-0.26 c -0.89,-0.58 -1.22,-1.78 -0.74,-2.76 0.48,-0.99 1.65,-1.44 2.66,-1.06 z"
         style="fill:#000000;fill-opacity:1;fill-rule:nonzero;stroke:none"
         transform="matrix(1.3333333,0,0,-1.3333333,0,1120.8)" />
    </g>
    <g
       id="g160"
       transform="translate(-228.39474,1.0241917)">
      <path
         id="path160"
         d="m 441.22,169.34 0.4,-0.12 c 0.2,-0.09 0.44,-0.09 0.65,-0.09 l 0.48,0.02 h -0.33 0.16 c 0.17,-0.02 0.32,-0.02 0.51,0 l 0.12,0.05 -0.46,-0.05 h 0.19 -0.04 0.12 v 0 l 0.16,-0.02 h -0.07 l 0.39,-0.03 h 0.04 l 0.68,-0.09 h 0.09 l 0.15,-0.03 v 0 h 0.16 l -0.52,0.1 0.12,-0.05 c 0.19,-0.05 0.36,-0.07 0.52,-0.12 h 0.15 l -0.51,0.1 0.15,-0.03 v 0 l 0.12,-0.07 -0.07,0.05 0.31,-0.12 c 0.12,-0.05 0.24,-0.07 0.36,-0.1 l 0.21,-0.02 -0.48,0.14 0.24,-0.12 h 0.03 l 0.17,-0.09 -0.03,0.02 0.24,-0.12 -0.5,0.34 0.17,-0.15 c 0.12,-0.12 0.24,-0.19 0.4,-0.26 l 0.2,-0.12 -0.39,0.26 0.19,-0.14 0.24,-0.17 0.17,-0.12 -0.24,0.19 0.15,-0.14 v 0.02 l 0.21,-0.19 -0.21,0.19 0.43,-0.48 -0.03,0.05 0.2,-0.24 v -0.02 l 0.28,-0.27 -0.21,0.27 0.17,-0.27 v 0 l 0.19,-0.31 -0.07,0.1 0.19,-0.29 -0.03,0.02 0.29,-0.6 -0.12,0.27 0.15,-0.39 c 0.07,-0.14 0.12,-0.26 0.21,-0.38 l 0.22,-0.36 v 0 L 448.1,165 v 0 l 0.48,-0.77 0.17,-0.26 0.94,-1.08 -0.1,0.12 0.19,-0.24 0.05,-0.1 0.15,-0.17 -0.15,0.22 0.36,-0.58 v 0 l 0.46,-0.69 0.17,-0.24 0.57,-0.65 0.15,-0.19 0.09,-0.05 c 0.87,-0.82 2.19,-0.79 3.03,0.05 0.81,0.81 0.84,2.16 0.04,3 l -0.07,0.09 0.1,-0.12 -0.58,0.7 0.19,-0.24 -0.43,0.67 v 0 l -0.36,0.58 -0.12,0.19 -0.14,0.17 0.05,-0.1 -0.17,0.29 -0.1,0.12 -0.93,1.1 0.19,-0.24 -0.46,0.75 0.03,-0.05 -0.2,0.36 v 0 l -0.21,0.36 0.17,-0.41 -0.15,0.43 -0.12,0.29 -0.33,0.6 -0.03,0.05 -0.14,0.31 -0.07,0.1 -0.17,0.26 v 0 l -0.19,0.31 c -0.05,0.1 -0.15,0.17 -0.2,0.27 l -0.28,0.31 0.04,-0.05 -0.21,0.29 -0.07,0.05 -0.44,0.48 -0.21,0.21 -0.24,0.15 -0.03,0.02 -0.19,0.17 -0.24,0.17 -0.17,0.09 0.24,-0.14 -0.19,0.12 c -0.12,0.07 -0.26,0.17 -0.38,0.24 l -0.22,0.12 0.39,-0.24 -0.17,0.12 c -0.15,0.12 -0.34,0.19 -0.51,0.29 l -0.28,0.09 -0.05,0.03 -0.19,0.07 h 0.09 l -0.26,0.07 c -0.15,0.07 -0.34,0.12 -0.51,0.17 l -0.21,0.02 0.29,-0.09 -0.29,0.12 -0.27,0.07 h -0.12 v 0 l -0.16,0.02 c -0.17,0.03 -0.36,0.05 -0.53,0.03 h -0.15 l 0.53,-0.03 -0.14,0.03 c -0.19,0.02 -0.34,0.02 -0.51,0.02 l -0.16,-0.02 v 0 h -0.15 0.12 -0.72 0.19 -0.43 -0.29 -0.16 v 0 l -0.12,-0.03 h 0.04 -0.19 c -0.17,-0.02 -0.33,-0.07 -0.5,-0.12 l -0.15,-0.02 0.48,0.07 h -0.16 l -0.27,-0.05 -0.45,-0.12 0.21,0.05 -0.38,-0.05 c -0.87,-0.09 -1.56,-0.81 -1.63,-1.68 -0.08,-0.86 0.45,-1.68 1.32,-1.92 z"
         style="fill:#000000;fill-opacity:1;fill-rule:nonzero;stroke:none"
         transform="matrix(1.3333333,0,0,-1.3333333,0,1120.8)" />
    </g>
  </g>
</svg>
