<?xml version="1.0" encoding="UTF-8" standalone="no"?>
<!-- Created with Inkscape (http://www.inkscape.org/) -->

<svg
   version="1.1"
   id="svg1"
   width="140"
   height="84.92762"
   viewBox="0 0 140 84.927616"
   sodipodi:docname="lesson1_sentence5_word1.svg"
   inkscape:version="1.4.3 (0d15f75, 2025-12-25)"
   xmlns:inkscape="http://www.inkscape.org/namespaces/inkscape"
   xmlns:sodipodi="http://sodipodi.sourceforge.net/DTD/sodipodi-0.dtd"
   xmlns="http://www.w3.org/2000/svg"
   xmlns:svg="http://www.w3.org/2000/svg">
  <defs
     id="defs1" />
  <sodipodi:namedview
     id="namedview1"
     pagecolor="#ffffff"
     bordercolor="#000000"
     borderopacity="0.25"
     inkscape:showpageshadow="2"
     inkscape:pageopacity="0.0"
     inkscape:pagecheckerboard="0"
     inkscape:deskcolor="#d1d1d1"
     inkscape:zoom="1.9527595"
     inkscape:cx="129.56025"
     inkscape:cy="14.082635"
     inkscape:window-width="1920"
     inkscape:window-height="1191"
     inkscape:window-x="-9"
     inkscape:window-y="-9"
     inkscape:window-maximized="1"
     inkscape:current-layer="g1">
    <inkscape:page
       x="0"
       y="0"
       inkscape:label="1"
       id="page1"
       width="140"
       height="84.927612"
       margin="0"
       bleed="0" />
  </sodipodi:namedview>
  <g
     id="g1"
     inkscape:groupmode="layer"
     inkscape:label="1"
     transform="translate(-294.65332,-859.54972)">
    <g
       id="g115">
      <path
         id="path115"
         d="m 220.99,163.7 v -0.55 c 0,-0.12 0,-0.24 0.03,-0.36 l 0.14,-1.22 -0.02,0.19 0.21,-3.19 v -0.03 l 0.15,-1.77 v 0.09 l 0.48,-11.88 0.02,-0.28 0.05,-0.36 -0.05,0.21 0.1,-1.05 v 0.31 l -0.1,-2.86 0.05,0.27 -0.07,-0.44 c -0.12,-1.08 0.33,-2.13 1.2,-2.76 0.86,-0.67 2.01,-0.79 3,-0.36 0.98,0.44 1.68,1.37 1.8,2.45 l 0.02,0.46 0.05,0.29 0.02,2.83 c 0,0.14 -0.02,0.26 -0.02,0.38 l -0.12,1.03 -0.05,0.08 -0.05,0.36 0.03,-0.29 -0.7,11.9 v 0.1 l -0.14,1.77 v -0.04 l -0.29,3.19 -0.05,0.26 -0.19,1.25 v 0 l -0.12,0.5 c -0.24,1.37 -1.51,2.33 -2.93,2.21 -1.37,-0.12 -2.45,-1.27 -2.45,-2.69 z"
         style="fill:#00a0d7;fill-opacity:1;fill-rule:nonzero;stroke:none"
         transform="matrix(1.3333333,0,0,-1.3333333,0,1120.8)" />
    </g>
    <g
       id="g116">
      <path
         id="path116"
         d="m 223.56,161.76 1.49,-0.46 c 0.17,-0.07 0.31,-0.09 0.5,-0.09 l 2.88,-0.24 h 0.1 l 1.82,-0.1 h 0.17 l 4.99,0.12 c 0.12,0 0.27,0.05 0.39,0.05 l 1.32,0.24 c 0.16,0 0.31,0.05 0.43,0.07 l 0.41,0.17 -0.63,-0.17 0.36,0.05 v 0 l 0.34,0.02 v 0 l 0.86,0.1 h -0.48 l 0.31,-0.05 c 1.04,-0.07 2.07,0.46 2.64,1.37 0.56,0.91 0.56,2.06 0,3 -0.57,0.89 -1.6,1.39 -2.64,1.34 l -0.31,-0.02 -0.14,-0.05 -0.87,-0.07 -0.16,-0.05 -0.36,-0.05 v 0 l -0.34,-0.09 c -0.17,-0.03 -0.36,-0.1 -0.53,-0.15 l -0.38,-0.14 0.5,0.14 -1.32,-0.26 0.39,0.05 -4.97,-0.29 h 0.02 l -1.82,-0.07 h 0.07 l -2.88,-0.03 0.41,-0.02 -1.54,0.19 c -1.2,0.19 -2.37,-0.6 -2.61,-1.75 -0.27,-1.2 0.43,-2.4 1.58,-2.76 z"
         style="fill:#00a0d7;fill-opacity:1;fill-rule:nonzero;stroke:none"
         transform="matrix(1.3333333,0,0,-1.3333333,0,1120.8)" />
    </g>
    <g
       id="g117">
      <path
         id="path117"
         d="m 236.14,163.8 -0.03,-1.01 v -0.17 l 0.24,-4.99 v -0.05 l 0.51,-7.6 v -0.08 l 0.19,-1.89 v -0.03 l 0.45,-4.32 -0.04,0.27 0.07,-2.91 c 0,-0.16 0,-0.31 0.02,-0.48 l 0.07,-0.24 -0.07,0.63 v -0.27 0 -0.31 0.03 -0.27 l 0.07,0.6 -0.07,-0.24 v 0 l -0.05,-0.24 v -0.12 l -0.07,-0.29 c -0.02,-0.16 -0.05,-0.31 -0.05,-0.45 v -0.19 l 0.15,0.88 -0.19,-0.6 0.07,0.24 -0.1,-0.24 c -0.45,-1.03 -0.31,-2.23 0.39,-3.09 0.67,-0.87 1.77,-1.32 2.88,-1.15 1.08,0.16 2.01,0.93 2.37,1.96 l 0.1,0.27 0.05,0.09 0.19,0.6 c 0.12,0.32 0.14,0.68 0.14,1.04 v 0.19 l -0.02,-0.55 0.02,0.31 v -0.1 l 0.03,0.27 v -0.03 l 0.04,0.27 c 0.05,0.19 0.05,0.4 0.05,0.57 v 0.27 -0.03 l -0.02,0.31 v 0 0.27 c 0,0.17 -0.03,0.36 -0.07,0.53 l -0.05,0.24 0.05,-0.48 -0.15,2.88 -0.02,0.21 -0.55,4.32 0.04,-0.05 -0.21,1.92 v -0.09 l -0.58,7.56 v 0 l -0.36,4.99 v 0.12 l -0.12,0.98 c -0.17,1.42 -1.41,2.43 -2.81,2.38 -1.41,-0.07 -2.56,-1.25 -2.56,-2.64 z"
         style="fill:#00a0d7;fill-opacity:1;fill-rule:nonzero;stroke:none"
         transform="matrix(1.3333333,0,0,-1.3333333,0,1120.8)" />
    </g>
    <g
       id="g118">
      <path
         id="path118"
         d="m 226.44,136.3 2.98,-0.08 h -0.12 l 6.07,-0.48 h 0.05 l 4.8,-0.28 h 0.19 0.29 c 1.72,0 3.09,1.41 3.09,3.12 0,1.72 -1.37,3.09 -3.09,3.09 h -0.29 0.09 l -4.82,0.12 h 0.05 l -6.1,0.22 h -0.21 l -2.98,-0.1 c -1.51,-0.05 -2.69,-1.29 -2.69,-2.78 0,-1.54 1.18,-2.76 2.69,-2.83 z"
         style="fill:#00a0d7;fill-opacity:1;fill-rule:nonzero;stroke:none"
         transform="matrix(1.3333333,0,0,-1.3333333,0,1120.8)" />
    </g>
    <g
       id="g119">
      <path
         id="path119"
         d="m 234.46,156.67 c 0,-1.34 -1.11,-2.45 -2.5,-2.45 -1.37,0 -2.47,1.11 -2.47,2.45 0,1.39 1.1,2.5 2.47,2.5 1.39,0 2.5,-1.11 2.5,-2.5 z"
         style="fill:#00a0d7;fill-opacity:1;fill-rule:evenodd;stroke:none"
         transform="matrix(1.3333333,0,0,-1.3333333,0,1120.8)" />
    </g>
    <g
       id="g120">
      <path
         id="path120"
         d="m 234.65,148.06 c 0,-1.37 -1.15,-2.52 -2.52,-2.52 -1.39,0 -2.52,1.15 -2.52,2.52 0,1.39 1.13,2.52 2.52,2.52 1.37,0 2.52,-1.13 2.52,-2.52 z"
         style="fill:#00a0d7;fill-opacity:1;fill-rule:evenodd;stroke:none"
         transform="matrix(1.3333333,0,0,-1.3333333,0,1120.8)" />
    </g>
    <g
       id="g121">
      <path
         id="path121"
         d="m 232.73,163.7 0.02,0.77 -0.02,0.34 -0.12,1.05 -0.07,0.36 -0.12,0.46 0.07,-0.24 -0.1,0.38 0.03,-0.02 -0.1,0.43 0.05,-0.38 v 1.22 -0.07 l 0.02,1.92 v -0.22 l 0.46,5.02 -0.05,-0.29 0.22,1.13 -0.03,-0.12 0.27,1.13 -0.03,-0.12 0.34,1.1 -0.07,-0.17 1.05,2.98 -0.19,-0.36 0.31,0.55 0.05,0.1 0.31,0.62 -0.07,-0.05 0.31,0.58 -0.19,-0.34 0.41,0.6 v 0 l 0.38,0.58 -0.07,-0.1 0.41,0.53 0.05,0.1 0.43,0.6 -0.36,-0.41 1.29,1.32 -0.07,-0.07 0.46,0.45 -0.12,-0.12 0.41,0.39 -0.15,-0.12 0.46,0.33 -0.12,-0.09 0.48,0.33 -0.19,-0.12 0.52,0.29 0.05,0.05 0.55,0.36 -0.28,-0.17 0.48,0.24 0.21,0.1 0.48,0.31 -0.38,-0.22 0.57,0.27 0.08,0.02 0.55,0.24 -0.43,-0.14 1.39,0.38 -0.19,-0.05 0.45,0.1 v 0 l 0.43,0.12 -0.36,-0.07 0.51,0.02 h 0.02 l 0.43,0.07 h -0.04 l 0.52,0.05 -0.33,-0.02 h 0.5 l -0.33,0.02 0.52,-0.05 0.29,-0.02 h 0.48 l -0.65,0.07 0.44,-0.07 c 0.12,-0.05 0.24,-0.07 0.36,-0.07 l 0.48,-0.05 -0.36,0.05 0.45,-0.1 v 0 l 0.43,-0.12 -0.21,0.07 0.48,-0.14 -0.36,0.14 0.45,-0.21 -0.16,0.07 0.4,-0.19 0.15,-0.05 0.41,-0.22 v 0 l 0.45,-0.19 v 0 l 0.46,-0.19 -0.39,0.19 0.39,-0.24 -0.15,0.1 0.84,-0.6 -0.43,0.36 0.6,-0.6 0.19,-0.17 0.63,-0.55 -0.27,0.26 0.6,-0.62 -0.09,0.09 0.53,-0.62 v 0 l 0.6,-0.7 -0.2,0.24 0.44,-0.62 -0.03,0.05 0.48,-0.75 -0.05,0.12 0.41,-0.72 -0.02,0.05 0.38,-0.67 -0.09,0.14 0.43,-0.79 -0.12,0.24 0.77,-1.97 -0.03,0.12 0.55,-1.51 -0.07,0.17 0.43,-1.51 v 0.09 l 0.39,-1.53 -0.07,0.31 0.24,-1.56 -0.03,0.07 0.55,-4.25 v 0.27 l 0.03,-1.44 v -0.03 l 0.05,-1.41 v 0.31 l -0.2,-3.12 0.03,0.26 -0.1,-0.62 c -0.24,-1.73 0.91,-3.31 2.62,-3.58 1.7,-0.24 3.31,0.89 3.57,2.62 l 0.1,0.62 0.02,0.29 0.17,3.12 0.05,0.31 -0.07,1.44 V 168 l -0.05,1.46 v 0.29 l -0.55,4.27 -0.03,0.1 -0.24,1.56 -0.07,0.29 -0.38,1.53 -0.03,0.1 -0.45,1.49 -0.03,0.19 -0.55,1.51 -0.05,0.12 -0.79,1.97 -0.07,0.24 -0.43,0.77 -0.05,0.14 -0.41,0.7 -0.02,0.07 -0.46,0.72 -0.07,0.12 -0.5,0.74 -0.03,0.03 -0.45,0.67 -0.17,0.24 -0.6,0.67 v -0.02 l -0.55,0.67 -0.05,0.07 -0.6,0.65 c -0.1,0.07 -0.19,0.17 -0.27,0.26 l -0.67,0.53 0.22,-0.17 -0.6,0.6 c -0.12,0.12 -0.24,0.24 -0.39,0.34 l -0.84,0.6 -0.16,0.1 -0.39,0.24 c -0.12,0.07 -0.26,0.14 -0.38,0.19 l -0.46,0.19 v 0 l -0.41,0.22 v 0 l -0.45,0.16 0.12,-0.04 -0.39,0.19 -0.12,0.07 -0.45,0.17 c -0.12,0.07 -0.24,0.12 -0.36,0.17 l -0.48,0.14 -0.24,0.05 -0.46,0.09 v 0 l -0.41,0.1 c -0.12,0.02 -0.24,0.05 -0.36,0.05 l -0.52,0.07 0.36,-0.07 -0.41,0.09 c -0.24,0.08 -0.46,0.08 -0.7,0.08 h -0.48 0.31 l -0.48,0.02 -0.31,0.02 h -0.5 l -0.31,-0.02 -0.48,-0.02 h -0.03 l -0.45,-0.08 h 0.04 l -0.48,-0.04 c -0.12,0 -0.24,-0.05 -0.36,-0.08 l -0.45,-0.09 v 0 l -0.46,-0.07 -0.17,-0.08 -1.36,-0.38 c -0.15,-0.02 -0.29,-0.1 -0.44,-0.14 l -0.55,-0.29 0.1,0.07 -0.58,-0.24 c -0.14,-0.07 -0.26,-0.14 -0.41,-0.22 l -0.5,-0.28 0.22,0.12 -0.48,-0.29 -0.29,-0.15 -0.53,-0.33 0.07,0.05 -0.48,-0.32 -0.19,-0.12 -0.5,-0.33 -0.12,-0.1 -0.46,-0.36 -0.14,-0.12 -0.41,-0.38 -0.17,-0.12 -0.41,-0.46 -0.07,-0.02 -1.25,-1.32 c -0.12,-0.15 -0.24,-0.29 -0.33,-0.46 l -0.39,-0.6 0.05,0.12 -0.38,-0.53 -0.05,-0.12 -0.41,-0.57 v 0 l -0.38,-0.6 c -0.05,-0.12 -0.15,-0.22 -0.17,-0.34 l -0.31,-0.6 -0.03,-0.07 -0.31,-0.65 0.05,0.1 -0.29,-0.6 c -0.05,-0.12 -0.12,-0.24 -0.14,-0.36 l -1.01,-3 -0.07,-0.24 -0.29,-1.13 v -0.12 l -0.24,-1.15 -0.05,-0.12 -0.14,-1.11 -0.03,-0.26 -0.33,-5.09 c 0,-0.12 0,-0.24 0,-0.36 l 0.14,-1.87 v 0 l 0.07,-1.25 c 0.03,-0.19 0.05,-0.38 0.12,-0.6 l 0.12,-0.41 0.03,-0.09 0.14,-0.39 0.07,-0.19 0.15,-0.41 -0.03,0.12 0.36,-0.98 c 0.05,-0.17 0.1,-0.29 0.17,-0.41 l 0.36,-0.65 c 0.53,-0.93 1.61,-1.39 2.62,-1.15 1.03,0.29 1.75,1.18 1.75,2.23 z"
         style="fill:#00a0d7;fill-opacity:1;fill-rule:nonzero;stroke:none"
         transform="matrix(1.3333333,0,0,-1.3333333,0,1120.8)" />
    </g>
    <g
       id="g122">
      <path
         id="path122"
         d="m 261.29,159.22 0.12,0.38 c 0.09,0.36 0.09,0.72 0,1.08 l -0.22,0.84 c -0.07,0.38 -0.26,0.74 -0.53,1.03 l -0.07,0.05 c -0.41,0.48 -1.01,0.77 -1.63,0.84 h -0.05 l 2.28,-2.69 v 0.05 c 0.05,0.65 -0.17,1.32 -0.6,1.82 -0.41,0.48 -1.01,0.82 -1.68,0.84 l -0.05,0.03 0.39,-0.1 -0.03,0.05 1.35,-0.89 -0.03,0.07 c -0.45,0.53 -1.08,0.87 -1.77,0.94 h -0.05 l 1.68,-0.84 -0.07,0.05 c -0.34,0.38 -0.77,0.67 -1.25,0.79 h -0.07 c -0.12,0.02 -0.24,0.05 -0.39,0.05 h -0.07 v 0 h -0.02 v 0 l -0.05,0.02 0.41,-0.07 -0.05,0.02 c -0.12,0.03 -0.29,0.05 -0.41,0.05 h -0.05 v 0 h -0.07 v 0 h -0.02 c -1.42,0.12 -2.64,-0.91 -2.76,-2.33 v -0.07 l 2.76,2.38 h -0.05 c -0.7,0.07 -1.42,-0.17 -1.94,-0.65 l -0.05,-0.05 2.11,0.65 h -0.07 l -0.17,0.02 h -0.07 l 0.19,-0.02 h -0.05 c -0.72,0.12 -1.44,-0.1 -2.01,-0.55 -0.53,-0.46 -0.89,-1.11 -0.92,-1.83 v -0.07 c -0.12,-1.37 0.92,-2.61 2.33,-2.76 1.39,-0.12 2.64,0.87 2.83,2.28 0.15,1.42 -0.84,2.69 -2.23,2.88 h -0.05 c -0.72,0.12 -1.44,-0.07 -2.01,-0.55 l -0.07,-0.05 h 0.04 l -0.07,-0.02 0.1,0.07 -0.07,-0.05 c -0.56,-0.41 -0.92,-1.03 -1.01,-1.73 l -0.03,-0.07 v -0.17 -0.07 l 0.96,1.87 -0.07,-0.02 c -0.5,-0.43 -0.84,-1.03 -0.96,-1.68 v -0.07 l 2.83,2.28 h -0.07 c -1.46,0.09 -2.73,-0.99 -2.81,-2.45 v -0.05 -0.12 l -0.04,-0.07 0.04,0.12 -0.04,-0.07 0.04,0.02 -0.04,-0.05 v -0.12 -0.09 c -0.03,-0.7 0.21,-1.35 0.67,-1.9 l 0.05,-0.02 -0.65,1.87 -0.03,-0.1 v 0 -0.09 c -0.07,-1.44 1.01,-2.67 2.45,-2.79 h 0.07 l -2.47,2.79 v -0.1 0 l -0.02,-0.12 c 0,-0.41 0.09,-0.86 0.26,-1.25 l 0.1,-0.19 c 0.09,-0.14 0.14,-0.29 0.24,-0.41 l 0.14,-0.21 v 0 l 0.15,-0.19 -0.15,0.21 0.15,-0.24 0.12,-0.21 0.16,-0.2 0.08,-0.12 0.45,-0.55 0.19,-0.21 0.05,-0.05 v 0 l 0.03,-0.07 v 0 l 0.07,-0.03 c 0.21,-0.21 0.45,-0.38 0.69,-0.5 l 0.1,-0.07 h 0.02 l 0.1,-0.05 -0.74,0.53 0.07,-0.05 v 0 l 0.05,-0.07 c 0.21,-0.2 0.45,-0.39 0.69,-0.51 l 0.12,-0.05 c 0.36,-0.19 0.79,-0.28 1.2,-0.31 h 0.07 l -1.94,0.84 0.05,-0.05 c 0.5,-0.52 1.2,-0.81 1.94,-0.81 h 0.1 l -1.95,0.81 0.05,-0.07 c 0.53,-0.5 1.2,-0.81 1.92,-0.81 h 0.07 l -1.22,0.31 0.12,-0.07 c 0.36,-0.17 0.77,-0.29 1.2,-0.29 h 0.12 -0.05 0.07 v 0 h 0.12 v 0 h 0.17 v 0 h 0.07 c 0.72,0 1.42,0.29 1.95,0.81 l 0.02,0.05 -1.92,-0.81 h 0.05 v 0 h 0.05 c 0.72,0 1.41,0.28 1.92,0.81 l 0.07,0.03 v 0 l 0.05,0.07 -1.95,-0.82 h 0.05 c 0.72,0 1.42,0.31 1.92,0.82 l 0.07,0.02 -1.92,-0.77 h 0.03 c 1.51,0 2.73,1.23 2.73,2.72 v 0.07 0 0.02 l -0.79,-1.92 0.05,0.03 -1.92,-0.77 h 0.02 c 0.72,0 1.44,0.26 1.95,0.77 l 0.07,0.07 v 0 l 0.02,0.05 c 0.51,0.52 0.82,1.2 0.82,1.92 v 0.07 0 0.02 0.03 0.04 l -0.82,-1.92 0.05,0.03 c 0.53,0.5 0.82,1.22 0.82,1.94 v 0.03 0 0.07 l -0.82,-1.95 0.05,0.05 c 0.53,0.51 0.79,1.2 0.79,1.95 v 0.04 0 0.05 0 0.07 -0.04 0.07 0 0.05 c 0,0.43 -0.07,0.86 -0.26,1.24 l -0.05,0.1 0.29,-1.37 v 0.1 0.05 0.12 c 0,0.31 -0.03,0.62 -0.12,0.91 l -0.03,0.14 0.1,-0.93 0.02,0.09 c 0,0.34 -0.02,0.65 -0.12,0.94 l -0.07,0.14 v 0 l -0.02,0.17 c -0.03,0.12 -0.1,0.19 -0.12,0.31 l -0.05,0.1 v 0 l -0.05,0.12 0.17,-0.53 -0.05,0.19 c -0.02,0.19 -0.07,0.36 -0.17,0.53 l -0.02,0.12 c -0.17,0.26 -0.31,0.53 -0.53,0.74 l -0.12,0.1 0.53,-0.77 -0.05,0.1 c -0.12,0.31 -0.29,0.55 -0.5,0.79 l -0.1,0.07 0.65,-1.1 -0.05,0.14 c -0.14,0.43 -0.36,0.82 -0.65,1.13 l -0.09,0.07 v 0.05 l -0.1,0.07 -0.24,0.22 -0.26,0.24 0.24,-0.24 -0.03,0.07 v 0 l -0.07,0.02 0.72,-2.06 0.05,0.02 c 0.05,1.11 -0.53,2.16 -1.51,2.69 l -0.1,0.07 c -0.36,0.17 -0.74,0.29 -1.13,0.34 h -0.07 l 1.92,-0.94 -0.05,0.05 v 0 l -0.07,0.05 c -0.48,0.53 -1.15,0.86 -1.87,0.91 h -0.07 l 1.22,-0.36 -0.07,0.07 -0.07,0.03 -0.12,0.07 c -0.36,0.17 -0.75,0.29 -1.13,0.31 h -0.1 -0.12 -0.09 v 0 l -0.1,0.05 c -1.58,0.02 -2.9,-1.18 -2.97,-2.76 -0.08,-1.56 1.15,-2.9 2.71,-2.98 1.56,-0.09 2.9,1.08 3.02,2.64 v 0.05 c 0.07,0.79 -0.19,1.54 -0.74,2.14 -0.51,0.57 -1.23,0.91 -2.02,0.93 h -0.12 0.12 -0.05 v 0 h -0.07 c -0.48,0.05 -0.96,-0.02 -1.37,-0.24 l -0.12,-0.07 1.42,0.29 h -0.05 v 0 h -0.05 -0.09 -0.12 0.12 -0.05 v 0 l -0.07,0.02 c -0.77,0.03 -1.56,-0.24 -2.14,-0.74 l -0.05,-0.07 2.07,0.74 h -0.12 c -0.75,0.05 -1.47,-0.24 -2.04,-0.74 l -0.07,-0.03 v 0 l -0.05,-0.07 v 0 l -0.03,-0.02 2.16,0.74 h -0.12 c -0.48,0.05 -0.96,-0.05 -1.41,-0.26 l -0.1,-0.03 c -0.26,-0.14 -0.53,-0.31 -0.74,-0.5 l -0.07,-0.05 c -0.2,-0.19 -0.41,-0.43 -0.56,-0.72 l -0.07,-0.07 0.51,0.62 -0.15,-0.12 v -0.02 l -0.05,-0.05 c -0.55,-0.53 -0.88,-1.27 -0.88,-2.06 v -0.05 l 1.65,2.59 -0.12,-0.05 c -0.98,-0.48 -1.61,-1.46 -1.65,-2.59 v -0.05 l 0.91,2.07 -0.07,-0.05 v 0 l -0.03,-0.05 c -0.57,-0.55 -0.89,-1.32 -0.89,-2.09 v -0.09 l 0.87,2.06 -0.03,-0.02 c -0.57,-0.53 -0.88,-1.3 -0.91,-2.07 v -0.02 l 0.34,1.25 -0.07,-0.1 c -0.2,-0.38 -0.29,-0.84 -0.29,-1.27 v -0.05 l 0.86,2.04 -0.05,-0.02 c -0.55,-0.58 -0.88,-1.3 -0.88,-2.07 v -0.07 -0.02 -0.1 l 0.88,2.11 -0.04,-0.07 c -0.56,-0.53 -0.87,-1.27 -0.89,-2.06 v -0.03 -0.02 -0.1 0 -0.02 0 -0.07 -0.03 -0.09 c 0,-0.79 0.29,-1.54 0.84,-2.11 l 0.05,-0.03 -0.84,2.11 v -0.02 -0.05 -0.07 c -0.03,-0.82 0.28,-1.58 0.84,-2.11 l 0.04,-0.07 -0.84,2.13 v -0.05 c 0,-0.45 0.08,-0.93 0.29,-1.36 l 0.07,-0.08 c 0.48,-1.03 1.49,-1.65 2.6,-1.68 h 0.04 l -2.92,3 v -0.09 0.02 -0.05 c 0,-0.79 0.31,-1.56 0.84,-2.13 l 0.07,-0.03 v 0 l 0.05,-0.07 -0.53,0.79 0.02,-0.12 c 0.15,-0.28 0.34,-0.52 0.55,-0.76 l 0.03,-0.03 0.02,-0.05 0.15,-0.12 -0.53,0.72 0.05,-0.09 c 0.24,-0.46 0.57,-0.84 1.03,-1.15 l 0.14,-0.08 -0.48,0.36 0.12,-0.09 v 0 l 0.1,-0.1 c 0.24,-0.24 0.48,-0.41 0.77,-0.57 l 0.09,-0.03 -0.33,0.19 0.16,-0.09 -0.45,0.36 0.09,-0.1 c 0.24,-0.24 0.51,-0.41 0.77,-0.57 l 0.12,-0.03 c 0.12,-0.05 0.24,-0.12 0.36,-0.17 l 0.17,-0.04 -1.15,0.72 0.09,-0.12 c 0.56,-0.53 1.32,-0.84 2.09,-0.84 h 0.17 l -0.94,0.16 0.12,-0.07 -0.36,0.15 0.1,-0.03 c 0.12,-0.05 0.24,-0.12 0.38,-0.17 l 0.15,-0.04 v 0 l 0.14,-0.05 c 0.31,-0.1 0.6,-0.15 0.94,-0.15 h 0.33 0.05 0.05 v 0 h 0.05 0.09 l 0.05,0.03 -0.12,-0.03 h 0.07 l 0.05,0.03 h 0.07 -0.07 0.05 0.12 0.05 -0.12 0.02 c 0.82,0 1.54,0.33 2.11,0.89 0.53,0.55 0.84,1.32 0.82,2.11 v 0.02 c -0.05,1.2 -0.77,2.28 -1.87,2.71 -1.11,0.46 -2.38,0.15 -3.22,-0.69 -0.84,-0.87 -1.05,-2.14 -0.55,-3.24 0.48,-1.08 1.56,-1.78 2.76,-1.78 h 0.02 v 0 h 0.05 c 0.79,0.03 1.54,0.36 2.09,0.91 0.53,0.56 0.84,1.32 0.79,2.09 v 0.07 l -0.79,-2.08 0.05,0.04 v 0 l 0.02,0.05 -1.99,-0.93 0.02,0.04 c 0.77,0 1.49,0.32 2.04,0.89 l 0.05,0.07 c 0.55,0.56 0.82,1.32 0.82,2.12 l -0.03,0.04 0.03,-0.04 -0.03,0.04 -0.79,-2.08 0.05,0.07 c 0.53,0.53 0.79,1.25 0.79,2.04 v 0.09 l -0.29,-1.32 0.05,0.08 c 0.19,0.43 0.31,0.91 0.31,1.36 v 0.05 -0.02 0.14 0.03 0.07 -0.03 0.08 0.04 l -0.02,0.03 c 0,0.45 -0.1,0.91 -0.31,1.29 l -0.05,0.1 0.31,-1.3 v 0.08 0.04 0.05 c 0,0.22 -0.02,0.46 -0.07,0.67 l -0.07,0.17 -0.05,0.24 -0.07,0.17 v 0.02 l -0.36,0.96 0.19,-0.96 v 0.03 0 0.07 0 0.05 c 0,1.58 -1.32,2.9 -2.93,2.9 h -0.05 c -1.17,0 -2.25,-0.67 -2.71,-1.8 -0.45,-1.08 -0.21,-2.33 0.65,-3.17 0.84,-0.84 2.09,-1.08 3.17,-0.64 1.08,0.45 1.8,1.51 1.8,2.71 v 0.02 c 0,0.79 -0.29,1.54 -0.84,2.09 l -0.05,0.05 c -0.55,0.55 -1.3,0.84 -2.09,0.84 h -0.02 c -1.61,0 -2.95,-1.3 -2.95,-2.91 0,-1.63 1.34,-2.92 2.95,-2.92 1.58,0 2.9,1.29 2.9,2.92 v 0.03 c 0,0.79 -0.29,1.53 -0.84,2.06 l -0.05,0.07 0.84,-2.06 v 0.05 c 0,1.63 -1.29,2.9 -2.9,2.9 h -0.07 0.02 -0.05 l 2.07,-0.84 -0.05,0.05 c -0.55,0.55 -1.3,0.86 -2.09,0.86 h -0.02 c -1.61,0 -2.95,-1.32 -2.95,-2.9 0,-1.63 1.34,-2.95 2.95,-2.95 1.58,0 2.9,1.32 2.9,2.95 v 0.02 c 0,1.61 -1.32,2.91 -2.9,2.93 h -0.05 l 2.06,-0.86 -0.07,0.07 c -0.53,0.53 -1.27,0.84 -2.06,0.84 h -0.03 v 0 h -0.12 0.03 -0.05 v 0 h -0.05 v 0 h -0.02 -0.03 -0.07 c -0.74,0 -1.49,-0.31 -2.06,-0.84 l -0.07,-0.07 2.11,0.86 h -0.05 v 0 h -0.07 c -1.59,0 -2.91,-1.27 -2.95,-2.9 v -0.05 l 2.95,2.9 h -0.03 c -0.79,0 -1.53,-0.31 -2.08,-0.84 l -0.05,-0.07 2.06,0.84 h -0.05 v 0 h -0.02 c -1.63,0.05 -2.95,-1.27 -2.95,-2.88 v -0.05 l 0.86,2.04 -0.05,-0.02 v 0 l -0.07,-0.07 v 0 l -0.02,-0.05 2.04,0.86 h -0.03 c -1.63,0 -2.95,-1.32 -2.95,-2.95 v -0.02 l 0.87,2.06 -0.05,-0.05 v 0 l -0.03,-0.07 v 0 l -0.07,-0.02 2.09,0.84 h -0.07 c -1.63,0 -2.91,-1.3 -2.91,-2.91 v -0.09 0 -0.05 0 -0.07 c 0,-1.63 1.32,-2.91 2.91,-2.91 1.63,0 2.95,1.32 2.95,2.91 0,1.63 -1.32,2.95 -2.95,2.95 h -0.03 c -0.79,0 -1.53,-0.31 -2.08,-0.89 -0.56,-0.53 -0.87,-1.27 -0.87,-2.06 v -0.1 l 0.87,2.09 -0.05,-0.07 c -0.55,-0.53 -0.84,-1.3 -0.84,-2.07 v -0.02 0 -0.07 l 0.14,0.93 -0.05,-0.14 c -0.12,-0.31 -0.16,-0.65 -0.16,-0.96 v -0.17 c 0.04,-1.58 1.32,-2.88 2.92,-2.88 1.61,0 2.91,1.3 2.93,2.88 v 0.17 l -0.14,-0.91 0.07,0.14 c 0.07,0.31 0.14,0.65 0.14,0.94 v 0.07 0 0.02 l -0.86,-2.08 0.05,0.07 c 0.55,0.53 0.84,1.29 0.84,2.06 v 0.1 c 0,1.63 -1.3,2.95 -2.91,2.95 -1.63,0 -2.95,-1.32 -2.95,-2.95 0,-1.63 1.32,-2.91 2.95,-2.91 h 0.03 c 1.63,0 2.95,1.28 2.95,2.91 v 0.07 0 0.05 0 0.09 c 0,1.61 -1.32,2.91 -2.95,2.91 -1.59,0 -2.91,-1.3 -2.91,-2.91 0,-1.63 1.28,-2.95 2.91,-2.95 h 0.07 c 0.77,0 1.51,0.34 2.06,0.87 l 0.05,0.04 h -0.02 l 0.07,0.05 v 0 l 0.05,0.07 c 0.55,0.53 0.84,1.3 0.84,2.07 v 0.02 c 0,1.63 -1.3,2.95 -2.91,2.95 -1.63,0 -2.95,-1.32 -2.95,-2.9 0,-1.63 1.32,-2.95 2.95,-2.95 h 0.03 c 0.79,0 1.53,0.29 2.06,0.84 l 0.07,0.05 v 0 l 0.05,0.07 v 0 l 0.07,0.05 c 0.53,0.55 0.84,1.29 0.84,2.08 v 0.05 c 0,1.61 -1.32,2.93 -2.95,2.88 -1.61,0 -2.9,-1.32 -2.9,-2.93 0,-1.6 1.32,-2.92 2.95,-2.92 h 0.02 v 0 h 0.05 c 0.79,0 1.54,0.33 2.09,0.88 l 0.05,0.05 -2.07,-0.86 h 0.03 c 0.79,0 1.53,0.33 2.06,0.86 0.55,0.55 0.89,1.3 0.84,2.09 v 0.05 c 0,1.63 -1.32,2.9 -2.93,2.9 -1.58,-0.02 -2.92,-1.34 -2.92,-2.93 0.04,-1.63 1.36,-2.95 2.95,-2.92 h 0.07 v 0 h 0.05 c 0.79,0 1.51,0.31 2.04,0.84 l 0.07,0.07 -2.09,-0.87 h 0.07 0.03 0.02 v 0 h 0.05 v 0 h 0.05 -0.03 0.12 v 0 h 0.03 l -2.07,0.87 0.05,-0.07 c 0.55,-0.53 1.3,-0.84 2.09,-0.84 h 0.05 c 1.58,0 2.9,1.32 2.9,2.92 0,1.61 -1.32,2.93 -2.93,2.93 -1.58,0 -2.92,-1.32 -2.92,-2.93 v -0.02 c 0,-0.79 0.31,-1.54 0.88,-2.09 0.53,-0.57 1.3,-0.86 2.07,-0.86 h 0.02 l -2.06,0.86 0.07,-0.05 c 0.53,-0.55 1.27,-0.88 2.06,-0.88 h 0.05 -0.02 0.07 c 1.15,0 2.23,0.72 2.69,1.84 0.45,1.08 0.21,2.33 -0.63,3.17 -0.84,0.84 -2.11,1.08 -3.19,0.65 -1.1,-0.46 -1.8,-1.54 -1.8,-2.71 v -0.05 c 0,-0.79 0.31,-1.51 0.84,-2.09 l 0.07,-0.02 -0.88,2.04 v -0.03 c 0,-1.63 1.34,-2.92 2.95,-2.92 h 0.02 l -2.06,0.84 0.07,-0.05 -0.86,2.06 v -0.02 c 0,-1.63 1.29,-2.95 2.92,-2.95 h 0.05 c 1.63,0 2.93,1.32 2.93,2.95 0,1.63 -1.32,2.9 -2.95,2.9 -1.59,0 -2.91,-1.32 -2.91,-2.9 v -0.05 0 -0.07 0 -0.03 c 0,-0.33 0.05,-0.67 0.17,-0.96 l 0.34,-1 -0.03,0.07 0.05,-0.15 -0.05,0.2 0.05,-0.2 -0.07,0.77 v -0.05 -0.04 -0.08 c 0,-0.45 0.07,-0.91 0.29,-1.32 l 0.02,-0.09 -0.29,1.32 v -0.03 -0.04 -0.08 0.03 -0.07 -0.03 -0.14 0.02 -0.05 l 0.34,1.3 -0.07,-0.1 c -0.22,-0.43 -0.29,-0.88 -0.34,-1.32 v -0.09 l 0.94,2.11 -0.05,-0.07 c -0.58,-0.53 -0.91,-1.3 -0.91,-2.07 v -0.04 0.04 -0.04 l 0.91,2.01 -0.07,-0.02 2.13,0.79 -0.02,0.02 c -0.82,0 -1.56,-0.26 -2.14,-0.81 l -0.07,-0.05 v 0 l -0.05,-0.07 c -0.57,-0.53 -0.91,-1.3 -0.91,-2.07 v -0.07 l 3,2.93 h -0.05 v 0 h -0.02 c -0.79,0 -1.56,-0.31 -2.11,-0.84 -0.58,-0.55 -0.91,-1.3 -0.91,-2.09 v -0.02 l 2.97,2.88 h -0.02 0.12 -0.05 -0.12 -0.05 0.07 -0.07 -0.05 l -0.07,0.02 0.12,-0.02 h -0.05 l -0.09,0.02 h -0.05 v 0 h -0.05 -0.05 -0.33 l 0.93,-0.17 -0.14,0.05 v 0 l -0.17,0.07 0.41,-0.19 -0.1,0.07 c -0.12,0.05 -0.26,0.12 -0.38,0.15 l -0.17,0.07 c -0.29,0.12 -0.62,0.14 -0.91,0.14 h -0.17 l 2.11,-0.86 -0.12,0.07 c -0.31,0.34 -0.72,0.58 -1.15,0.72 l -0.14,0.07 0.38,-0.14 -0.07,0.02 0.74,-0.55 -0.09,0.1 c -0.15,0.14 -0.29,0.26 -0.46,0.36 l -0.14,0.12 c -0.1,0.07 -0.22,0.12 -0.29,0.19 l -0.12,0.02 0.77,-0.55 -0.1,0.1 v 0 l -0.12,0.09 c -0.12,0.15 -0.26,0.27 -0.43,0.39 l -0.17,0.09 1.03,-1.15 -0.07,0.1 c -0.12,0.31 -0.31,0.57 -0.55,0.81 l -0.17,0.12 -0.02,0.05 -0.05,0.05 0.6,-0.79 -0.05,0.09 c -0.14,0.29 -0.36,0.53 -0.55,0.77 l -0.07,0.05 v 0.02 l -0.05,0.03 0.89,-2.07 v 0.05 -0.02 0.09 c 0,0.77 -0.34,1.56 -0.89,2.09 -0.58,0.55 -1.32,0.89 -2.14,0.84 h -0.04 l 2.71,-1.61 -0.05,0.1 0.31,-1.3 v 0.05 c -0.02,0.79 -0.36,1.54 -0.89,2.09 l -0.07,0.02 0.91,-2.06 v 0.07 0.05 0.02 c -0.02,0.77 -0.33,1.54 -0.91,2.07 l -0.02,0.07 0.86,-2.11 v 0.09 0.03 0.07 0 0.02 0 0.1 0.02 0.03 l -0.84,-2.11 0.07,0.04 c 0.53,0.56 0.84,1.32 0.84,2.09 v 0.1 0.02 0.07 l -0.84,-2.13 0.03,0.05 c 0.57,0.57 0.86,1.34 0.84,2.13 v 0.05 l -0.29,-1.37 0.05,0.1 c 0.21,0.43 0.31,0.91 0.31,1.39 v 0.02 l -0.84,-2.11 0.02,0.03 c 0.58,0.57 0.87,1.34 0.84,2.11 v 0.09 l -0.81,-2.08 0.02,0.04 v 0 l 0.07,0.05 c 0.53,0.58 0.84,1.32 0.84,2.11 v 0.05 l -1.63,-2.66 0.1,0.02 c 1.03,0.51 1.63,1.56 1.63,2.69 v 0.05 l -0.84,-2.11 0.05,0.07 v 0 l 0.14,0.14 c 0.24,0.24 0.46,0.58 0.58,0.91 l 0.07,0.1 -0.55,-0.82 0.07,0.03 -0.79,-0.6 0.09,0.05 -1.2,-0.36 h 0.12 c 0.75,0.07 1.44,0.4 1.95,0.96 l 0.07,0.07 v 0 l 0.02,0.07 v 0 l 0.05,0.02 -2.06,-0.96 0.12,0.03 c 0.79,0 1.51,0.36 2.04,0.93 l 0.02,0.05 -1.94,-0.93 h 0.07 v 0 h 0.05 -0.12 0.12 0.09 0.05 v 0 h 0.05 c 0.41,0.04 0.79,0.16 1.15,0.33 l 0.1,0.07 -1.18,-0.33 h 0.07 v 0 h 0.05 -0.12 0.12 l -2.97,2.66 v -0.05 c 0.12,-1.53 1.41,-2.71 2.97,-2.68 l 0.1,0.04 v 0 h 0.09 0.12 0.1 l -1.42,0.27 0.12,-0.07 0.05,-0.03 0.12,-0.05 c 0.41,-0.16 0.84,-0.24 1.3,-0.21 h 0.07 l -2.11,0.74 0.02,-0.05 v 0 l 0.07,-0.04 c 0.58,-0.53 1.32,-0.8 2.09,-0.75 h 0.07 l -1.39,0.27 0.1,-0.05 -1.66,2.37 0.03,-0.02 c 0.04,-0.77 0.36,-1.42 0.91,-1.94 l 0.07,-0.03 v 0 l 0.05,-0.05 0.12,-0.09 0.26,-0.24 -0.14,0.12 0.12,-0.1 v 0 l 0.09,-0.09 -0.72,1.1 0.05,-0.17 c 0.17,-0.38 0.41,-0.77 0.72,-1.08 l 0.1,-0.09 -0.53,0.69 0.05,-0.09 c 0.14,-0.27 0.33,-0.48 0.55,-0.68 l 0.07,-0.09 -0.5,0.69 0.02,-0.12 -0.24,0.63 0.07,-0.22 c 0.05,-0.21 0.15,-0.41 0.24,-0.6 l 0.05,-0.09 v 0 l 0.07,-0.08 -0.19,0.39 0.07,-0.15 v 0 l 0.03,-0.16 -0.15,0.81 v -0.09 c 0,-0.27 0.05,-0.56 0.15,-0.8 l 0.07,-0.16 -0.17,0.84 v -0.12 -0.05 -0.1 c 0.05,-0.38 0.12,-0.74 0.31,-1.1 l 0.03,-0.1 -0.27,1.23 v -0.05 0 -0.07 0.04 -0.07 0 -0.05 0 -0.04 l 0.77,1.94 -0.02,-0.05 c -0.51,-0.53 -0.82,-1.22 -0.82,-1.94 v -0.07 0 -0.03 l 0.82,1.92 -0.05,-0.02 c -0.53,-0.51 -0.82,-1.23 -0.82,-1.95 v -0.04 -0.03 -0.02 0 -0.07 l 0.82,1.96 -0.07,-0.07 v 0 l -0.03,-0.02 1.92,0.79 h -0.02 c -0.77,0 -1.44,-0.29 -1.97,-0.82 l -0.05,-0.02 c -0.5,-0.53 -0.79,-1.22 -0.79,-1.97 v -0.02 0 -0.07 c 0,-1.49 1.25,-2.72 2.74,-2.72 1.53,0 2.73,1.23 2.73,2.72 0,1.53 -1.2,2.73 -2.73,2.73 h -0.03 c -0.74,0 -1.44,-0.26 -1.94,-0.77 l -0.07,-0.07 1.94,0.82 h -0.05 c -0.72,0 -1.41,-0.29 -1.92,-0.82 l -0.07,-0.05 v 0 l -0.05,-0.02 1.95,0.79 h -0.05 v 0 h -0.05 c -0.72,0 -1.44,-0.29 -1.94,-0.79 l -0.03,-0.07 1.92,0.81 h -0.07 v 0 h -0.17 v 0 h -0.12 v 0 h -0.07 0.05 -0.12 l 1.22,-0.31 -0.09,0.07 c -0.39,0.17 -0.82,0.29 -1.23,0.27 h -0.07 l 1.97,-0.77 -0.07,0.05 c -0.51,0.5 -1.2,0.79 -1.92,0.79 h -0.1 l 1.92,-0.79 -0.05,0.02 c -0.5,0.53 -1.2,0.82 -1.92,0.82 h -0.07 l 1.25,-0.29 -0.1,0.05 0.7,-0.51 -0.05,0.05 v 0 l -0.05,0.05 c -0.21,0.19 -0.45,0.38 -0.69,0.5 l -0.12,0.05 v 0 l -0.1,0.05 0.7,-0.48 -0.03,0.02 v 0 l -0.07,0.05 v 0 l -0.02,0.05 0.19,-0.19 -0.46,0.55 0.03,-0.07 -0.15,0.19 0.17,-0.24 -0.14,0.24 -0.17,0.24 -0.17,0.19 v 0 l -0.14,0.19 0.26,-0.43 -0.07,0.19 0.29,-1.15 v 0.12 0 0.1 c -0.03,0.72 -0.36,1.41 -0.89,1.89 -0.58,0.51 -1.3,0.75 -2.02,0.7 l -0.07,-0.05 c -1.44,-0.12 -2.54,-1.37 -2.45,-2.83 0.12,-1.49 1.37,-2.59 2.81,-2.5 1.49,0.08 2.62,1.32 2.57,2.79 v 0.09 0 0.1 c -0.05,0.74 -0.36,1.39 -0.91,1.87 l -0.05,0.07 0.89,-1.89 v 0.09 0.12 l -0.03,0.05 v -0.02 0.07 l 0.03,-0.12 -0.03,0.07 v 0.12 0.05 c -0.09,1.46 -1.39,2.54 -2.83,2.45 -1.46,-0.1 -2.57,-1.37 -2.45,-2.81 0.08,-1.49 1.35,-2.59 2.81,-2.47 h 0.07 c 0.72,0.05 1.42,0.38 1.85,0.96 0.48,0.57 0.67,1.32 0.58,2.04 v 0.07 l -0.58,-2.06 0.05,0.04 c 0.41,0.53 0.62,1.2 0.6,1.85 v 0.07 l -0.05,0.17 v 0.07 l -0.48,-1.96 0.05,0.07 -0.1,-0.1 0.05,0.07 v 0 l 0.05,0.03 -1.66,-0.91 h 0.05 c 1.37,0.19 2.33,1.39 2.23,2.73 v 0.07 l -2.23,-2.76 0.05,0.03 -0.19,-0.03 h 0.07 l 0.17,0.03 h 0.07 c 0.6,0.09 1.13,0.38 1.51,0.81 l 0.07,0.05 -1.7,-0.84 h 0.05 c 1.41,0.12 2.47,1.37 2.35,2.76 v 0.07 c -0.12,1.42 -1.37,2.45 -2.76,2.33 -1.42,-0.07 -2.47,-1.34 -2.35,-2.71 0.12,-1.42 1.34,-2.5 2.76,-2.38 h 0.02 v 0 h 0.07 v 0 l 0.05,0.03 c 0.12,0 0.29,0.02 0.41,0.05 h 0.05 l -0.41,-0.05 h 0.05 v 0 h 0.02 v 0 h 0.07 c 0.15,0.02 0.27,0.02 0.39,0.05 l 0.07,0.04 -2.3,0.56 0.07,-0.05 c 0.5,-0.46 1.17,-0.7 1.87,-0.63 h 0.05 l -1.78,0.53 0.07,-0.02 c 0.6,-0.48 1.42,-0.67 2.16,-0.48 h 0.03 l -0.39,-0.07 h 0.05 l -2.66,2.3 v -0.05 c 0.02,-0.65 0.36,-1.25 0.86,-1.7 0.48,-0.43 1.15,-0.63 1.8,-0.58 h 0.05 l -1.85,0.63 0.03,-0.05 c 0.12,-0.1 0.26,-0.19 0.38,-0.27 l 0.72,-0.43 c 0.17,-0.12 0.36,-0.17 0.53,-0.24 l 0.33,-0.09 c 0.96,-0.27 1.92,0.28 2.19,1.2 z"
         style="fill:#00a0d7;fill-opacity:1;fill-rule:nonzero;stroke:none"
         transform="matrix(1.3333333,0,0,-1.3333333,0,1120.8)" />
    </g>
    <g
       id="g123">
      <path
         id="path123"
         d="m 262.22,160.68 0.29,0.24 c 0.34,0.26 0.6,0.62 0.77,1.03 l 0.05,0.22 -0.1,-0.22 0.07,0.12 -0.09,-0.19 0.09,0.17 c 0.1,0.14 0.15,0.31 0.22,0.45 l 0.05,0.17 -0.22,-0.43 0.12,0.19 -0.17,-0.26 0.12,0.12 0.17,0.26 0.1,0.19 v 0 l 0.12,0.22 -0.29,-0.41 0.31,0.34 c 0.07,0.09 0.17,0.19 0.22,0.31 l 0.33,0.48 v 0 l 0.15,0.24 -0.36,-0.46 0.21,0.22 v 0 l 0.17,0.17 0.22,0.21 0.19,0.22 -0.46,-0.43 0.22,0.14 0.19,0.19 0.48,0.41 -0.02,-0.02 1.08,0.91 0.14,0.12 0.31,0.29 -0.14,-0.12 0.31,0.26 -0.14,-0.12 0.33,0.24 -0.12,-0.07 0.39,0.24 0.12,0.07 0.36,0.24 -0.22,-0.14 0.34,0.19 -0.12,-0.07 1.03,0.48 c 0.24,0.12 0.48,0.26 0.67,0.48 l 0.05,0.02 -0.89,-0.53 0.41,0.15 0.24,0.09 0.26,0.15 -0.43,-0.17 0.34,0.07 0.33,0.12 0.34,0.12 -0.41,-0.12 0.41,0.1 0.07,0.02 0.34,0.1 -0.34,-0.05 0.34,0.02 h -0.03 l 0.84,0.1 h -0.33 0.21 v 0 h 0.22 v 0 h 0.17 v 0 l 0.21,-0.05 -0.84,0.17 0.15,-0.05 0.21,-0.05 0.17,-0.07 c 0.22,-0.05 0.43,-0.07 0.65,-0.07 h 0.19 l -0.84,0.14 0.17,-0.07 -0.34,0.17 0.22,-0.12 c 0.14,-0.07 0.31,-0.17 0.5,-0.19 l 0.22,-0.05 -0.22,0.05 0.15,-0.05 -0.34,0.14 0.22,-0.09 c 0.14,-0.1 0.33,-0.15 0.5,-0.22 l 0.22,-0.05 -1.2,0.7 0.14,-0.17 c 0.29,-0.26 0.6,-0.48 1.01,-0.62 l 0.14,-0.03 -0.84,0.48 0.34,-0.31 -0.17,0.17 0.1,-0.12 c 0.21,-0.19 0.43,-0.36 0.67,-0.48 l 0.12,-0.07 v 0 l 0.07,-0.03 -1.13,1.18 0.03,-0.1 c 0.24,-0.5 0.67,-0.93 1.17,-1.2 l 0.1,-0.02 -1.18,1.15 0.05,-0.07 v 0 l 0.07,-0.12 c 0.12,-0.24 0.27,-0.48 0.48,-0.67 l 0.1,-0.12 v 0.02 l 0.02,-0.05 -0.6,1.01 0.05,-0.14 c 0.12,-0.39 0.34,-0.72 0.6,-1.01 l 0.05,-0.05 -0.46,0.67 0.1,-0.21 v 0 l 0.05,-0.12 -0.27,1.17 v -0.09 0 -0.03 0 -0.12 0 -0.02 0 -0.07 0 -0.1 0 -0.05 0 -0.09 l 0.27,1.17 -0.05,-0.09 v -0.03 l -0.05,-0.09 c -0.17,-0.36 -0.29,-0.75 -0.29,-1.18 v -0.07 l 0.77,1.85 -0.05,-0.05 v 0 l -0.02,-0.07 c -0.53,-0.48 -0.79,-1.13 -0.79,-1.83 v -0.09 l 0.55,1.56 -0.17,-0.22 -0.07,-0.12 -0.22,-0.29 v 0 l -0.19,-0.31 0.34,0.43 -0.22,-0.21 -0.17,-0.22 -0.21,-0.24 0.09,0.12 -0.43,-0.5 0.22,0.24 -0.39,-0.36 0.15,0.12 -0.39,-0.27 -0.14,-0.14 -0.41,-0.34 0.43,0.29 -1.29,-0.74 0.14,0.09 -1.37,-0.69 0.24,0.09 -3.31,-1.29 0.07,0.02 -0.67,-0.24 h -0.02 l -1.08,-0.41 0.24,0.1 -1.13,-0.31 h 0.07 l -1.08,-0.24 0.12,0.02 -2.42,-0.43 0.14,0.02 -0.43,-0.07 c -1.39,-0.17 -2.38,-1.44 -2.23,-2.81 0.14,-1.41 1.41,-2.4 2.78,-2.25 l 0.46,0.02 0.19,0.03 2.45,0.43 0.09,0.02 1.08,0.24 0.1,0.03 1.1,0.28 0.24,0.05 1.08,0.39 v 0 l 0.7,0.24 0.05,0.04 3.26,1.25 0.24,0.1 1.37,0.69 0.14,0.1 1.3,0.72 c 0.14,0.07 0.26,0.17 0.38,0.29 l 0.41,0.33 -0.17,-0.12 0.41,0.29 0.17,0.12 0.38,0.36 0.22,0.22 0.43,0.48 0.1,0.12 0.21,0.24 -0.21,-0.22 0.21,0.22 c 0.12,0.12 0.22,0.24 0.34,0.38 l 0.17,0.31 v 0 l 0.21,0.29 -0.09,-0.12 0.14,0.19 c 0.34,0.46 0.53,1.01 0.53,1.59 v 0.09 l -0.77,-1.87 0.07,0.07 v 0 l 0.03,0.05 c 0.48,0.48 0.77,1.15 0.77,1.85 v 0.07 l -0.29,-1.15 0.07,0.12 v 0 l 0.05,0.07 c 0.19,0.36 0.29,0.77 0.29,1.18 v 0.09 0 0.05 0 0.1 0 0.07 0 0.02 0 0.12 0 0.03 0 0.09 c 0,0.41 -0.12,0.82 -0.32,1.18 l -0.02,0.12 v 0 l -0.12,0.17 c -0.12,0.26 -0.31,0.5 -0.53,0.69 l -0.02,0.05 0.65,-1.01 -0.05,0.15 c -0.15,0.38 -0.36,0.72 -0.65,1.03 l -0.07,0.05 0.02,-0.03 -0.12,0.1 0.53,-0.67 -0.07,0.09 v 0 l -0.05,0.1 c -0.24,0.5 -0.67,0.91 -1.18,1.15 l -0.09,0.05 1.17,-1.15 -0.02,0.09 c -0.29,0.51 -0.7,0.89 -1.2,1.18 l -0.1,0.02 v 0 l -0.09,0.05 0.69,-0.48 -0.12,0.1 -0.12,0.12 -0.36,0.31 c -0.26,0.19 -0.57,0.38 -0.91,0.5 l -0.14,0.03 1.05,-0.6 -0.14,0.12 c -0.34,0.33 -0.77,0.57 -1.25,0.69 l -0.17,0.03 0.53,-0.17 -0.19,0.07 c -0.12,0.07 -0.24,0.1 -0.36,0.17 l -0.17,0.02 -0.17,0.05 -0.19,0.05 0.55,-0.19 -0.21,0.09 c -0.12,0.05 -0.24,0.12 -0.36,0.15 l -0.15,0.07 c -0.24,0.05 -0.5,0.12 -0.79,0.12 l -0.19,-0.05 0.62,-0.05 -0.21,0.05 0.19,-0.05 -0.17,0.05 c -0.24,0.07 -0.5,0.12 -0.77,0.12 l -0.21,-0.02 v 0 h -0.17 v 0 h -0.22 v 0 h -0.21 -0.27 l -0.84,-0.12 h -0.09 l -0.34,-0.05 -0.31,-0.1 -0.36,-0.09 0.07,0.02 -0.38,-0.12 c -0.12,-0.02 -0.24,-0.05 -0.39,-0.12 l -0.33,-0.14 0.31,0.09 -0.34,-0.09 c -0.14,-0.05 -0.31,-0.1 -0.45,-0.17 l -0.29,-0.17 0.26,0.12 -0.38,-0.14 c -0.36,-0.15 -0.67,-0.36 -0.91,-0.6 l -0.05,-0.05 0.72,0.5 -1.03,-0.48 -0.22,-0.12 -0.31,-0.19 -0.22,-0.14 -0.33,-0.24 0.12,0.09 -0.39,-0.26 -0.12,-0.1 -0.33,-0.24 -0.17,-0.14 -0.34,-0.31 -0.14,-0.12 -0.29,-0.29 0.12,0.12 -1.03,-0.94 -0.05,-0.02 -0.48,-0.46 0.12,0.1 -0.19,-0.17 c -0.17,-0.12 -0.29,-0.26 -0.41,-0.41 l -0.19,-0.24 0.17,0.17 -0.17,-0.19 v 0.02 l -0.22,-0.21 c -0.12,-0.15 -0.24,-0.29 -0.33,-0.48 l -0.15,-0.24 v -0.03 l -0.26,-0.5 0.19,0.36 -0.26,-0.36 c -0.15,-0.19 -0.24,-0.36 -0.34,-0.58 l -0.07,-0.19 v 0 l -0.1,-0.19 0.12,0.19 -0.09,-0.14 -0.12,-0.22 -0.05,-0.19 c -0.1,-0.17 -0.12,-0.34 -0.17,-0.48 l -0.02,-0.22 0.14,0.48 -0.07,-0.19 c -0.07,-0.12 -0.1,-0.24 -0.12,-0.36 l -0.05,-0.14 -0.02,-0.12 -0.03,-0.22 c -0.19,-0.91 0.27,-1.85 1.11,-2.3 l 0.33,-0.17 c 0.58,-0.34 1.25,-0.29 1.8,0.12 z"
         style="fill:#00a0d7;fill-opacity:1;fill-rule:nonzero;stroke:none"
         transform="matrix(1.3333333,0,0,-1.3333333,0,1120.8)" />
    </g>
    <g
       id="g124">
      <path
         id="path124"
         d="m 266.59,183.91 0.05,-0.07 -0.22,0.55 0.24,-0.98 -0.07,0.21 0.17,-0.98 -0.05,0.12 0.19,-2.26 v -0.07 l 0.22,-1.75 -0.05,0.19 0.12,-8.28 v 0.1 l -0.05,-3.58 v -0.02 -0.53 -0.1 l 0.29,-12.04 0.05,-0.15 0.98,-11.76 v 0 l 0.05,-0.53 -0.02,0.15 0.07,-1.2 v 0.05 l 0.02,-2.55 0.03,0.39 -0.12,-0.75 c -0.12,-0.86 0.24,-1.73 0.96,-2.28 0.69,-0.53 1.63,-0.69 2.47,-0.33 0.79,0.33 1.37,1.08 1.49,1.96 l 0.09,0.75 c 0.03,0.12 0.03,0.24 0.03,0.36 l -0.05,2.54 v 0.07 l -0.07,1.16 -0.03,0.12 -0.02,0.55 v 0 l -1.18,11.76 0.03,-0.19 -0.39,12.07 v -0.05 0.53 -0.05 l 0.05,3.6 v 0.05 l -0.17,8.28 -0.02,0.21 -0.22,1.78 v -0.07 l -0.21,2.25 -0.03,0.17 -0.14,0.96 -0.07,0.22 -0.24,0.98 -0.22,-1.63 0.07,0.07 c 0.51,0.96 0.27,2.14 -0.57,2.83 -0.84,0.7 -2.04,0.7 -2.91,0 -0.84,-0.69 -1.05,-1.87 -0.55,-2.83 z"
         style="fill:#00a0d7;fill-opacity:1;fill-rule:nonzero;stroke:none"
         transform="matrix(1.3333333,0,0,-1.3333333,0,1120.8)" />
    </g>
    <g
       id="g125">
      <path
         id="path125"
         d="m 260.16,191.69 0.74,-1.15 0.05,-0.1 0.19,-0.24 -0.12,0.14 0.17,-0.31 0.12,-0.14 0.19,-0.27 0.15,-0.21 0.5,-0.6 -0.12,0.14 0.29,-0.36 0.14,-0.17 0.29,-0.36 -0.14,0.22 0.55,-0.79 0.05,-0.1 0.26,-0.36 -0.07,0.12 0.26,-0.38 c 0.1,-0.15 0.17,-0.27 0.29,-0.36 l 0.77,-0.82 -0.05,0.05 0.19,-0.22 v 0.03 l 0.1,-0.12 v 0 l 0.07,-0.1 v 0 l 0.1,-0.12 v 0 l 0.09,-0.07 v 0 l 0.1,-0.1 v 0 l 0.07,-0.12 -0.48,0.77 0.07,-0.12 0.12,-0.26 0.15,-0.24 c 0.24,-0.41 0.57,-0.77 0.96,-1.01 l 0.09,-0.05 c 0.41,-0.26 0.89,-0.38 1.37,-0.38 h 0.1 c 0.98,-0.03 1.92,0.48 2.42,1.34 0.48,0.84 0.48,1.92 0,2.76 -0.5,0.89 -1.44,1.39 -2.42,1.37 h -0.1 l 1.08,-0.19 -0.07,0.02 1.25,-1.08 -0.15,0.24 0.05,-0.07 -0.05,0.12 c -0.14,0.24 -0.33,0.43 -0.55,0.62 l -0.07,0.1 v 0 l -0.1,0.07 v 0 l -0.12,0.12 v 0 l -0.09,0.1 v 0 l -0.12,0.09 v 0 l -0.1,0.1 v 0 l -0.19,0.17 0.05,-0.03 -0.82,0.75 0.22,-0.22 -0.34,0.36 -0.12,0.17 -0.31,0.34 0.17,-0.2 -0.63,0.75 c -0.09,0.12 -0.19,0.24 -0.31,0.33 l -0.36,0.34 0.12,-0.14 -0.31,0.31 0.02,-0.03 -0.55,0.58 0.05,-0.02 -0.22,0.24 0.15,-0.2 -0.22,0.27 -0.14,0.19 -0.22,0.24 0.07,-0.1 -0.91,1.06 c -0.77,0.94 -2.11,1.08 -3.12,0.36 -0.96,-0.72 -1.2,-2.04 -0.55,-3.07 z"
         style="fill:#00a0d7;fill-opacity:1;fill-rule:nonzero;stroke:none"
         transform="matrix(1.3333333,0,0,-1.3333333,0,1120.8)" />
    </g>
    <g
       id="g126">
      <path
         id="path126"
         d="m 271.85,194.81 -1.2,-1.63 -0.15,-0.22 -0.14,-0.31 0.14,0.24 -0.21,-0.27 0.02,0.03 -0.6,-0.77 0.46,0.46 -0.24,-0.2 c -0.15,-0.09 -0.29,-0.24 -0.41,-0.36 l -0.19,-0.24 c -0.12,-0.14 -0.22,-0.26 -0.29,-0.4 l -0.17,-0.32 0.1,0.15 -0.41,-0.63 -0.07,-0.09 -1.2,-2.14 0.09,0.17 -0.09,-0.12 c -0.53,-0.79 -0.6,-1.75 -0.22,-2.59 0.43,-0.82 1.25,-1.35 2.16,-1.42 0.91,-0.05 1.78,0.41 2.28,1.15 l 0.1,0.15 0.14,0.24 1.13,2.16 -0.07,-0.12 0.36,0.62 0.12,0.24 0.14,0.31 -0.26,-0.45 0.19,0.24 -0.36,-0.39 0.24,0.22 c 0.14,0.12 0.26,0.26 0.38,0.41 l 0.58,0.81 0.12,0.17 0.17,0.31 0.14,0.32 0.12,0.28 -0.05,-0.14 0.94,1.82 c 0.5,1.06 0.14,2.31 -0.84,2.91 -0.96,0.6 -2.26,0.33 -2.95,-0.6 z"
         style="fill:#00a0d7;fill-opacity:1;fill-rule:nonzero;stroke:none"
         transform="matrix(1.3333333,0,0,-1.3333333,0,1120.8)" />
    </g>
    <g
       id="g127">
      <path
         id="path127"
         d="m 269.4,192.62 0.17,0.46 c 0.36,0.77 0.19,1.7 -0.46,2.3 -0.62,0.6 -1.58,0.72 -2.33,0.34 -0.79,-0.43 -1.2,-1.27 -1.08,-2.14 l 0.03,-0.21 0.02,-0.12 0.12,-0.43 -0.02,0.04 0.09,-0.52 v 0.14 l 0.03,-0.46 0.02,-0.16 0.12,-0.53 -0.05,0.45 v -0.48 -0.21 l 0.12,-1.11 v 0.1 l 0.03,-1.18 v 0.12 -1.03 0.12 -0.14 c -0.05,-0.96 0.43,-1.83 1.22,-2.33 0.82,-0.48 1.85,-0.48 2.62,0 0.81,0.5 1.29,1.37 1.22,2.33 v 0.14 0.12 l -0.12,1.03 -0.02,0.24 -0.24,1.18 0.02,-0.1 -0.19,1.11 v 0.07 l -0.1,0.48 c -0.02,0.14 -0.09,0.29 -0.14,0.41 l -0.19,0.48 0.07,-0.12 -0.17,0.43 -0.02,0.05 -0.17,0.53 -0.07,0.14 -0.17,0.41 c -0.12,0.21 -0.24,0.43 -0.43,0.6 l -0.15,0.17 c -0.79,0.79 -2.04,0.79 -2.85,0.04 -0.82,-0.76 -0.87,-2.06 -0.1,-2.88 l 0.34,-0.36 c 0.38,-0.4 0.96,-0.6 1.53,-0.5 0.58,0.1 1.06,0.46 1.3,0.98 z"
         style="fill:#00a0d7;fill-opacity:1;fill-rule:nonzero;stroke:none"
         transform="matrix(1.3333333,0,0,-1.3333333,0,1120.8)" />
    </g>
    <g
       id="g128">
      <path
         id="path128"
         d="m 286.56,136.63 0.5,0.19 c 0.12,0.03 0.22,0.08 0.34,0.15 l 3.5,1.85 v 0.04 l 2.5,1.35 -0.02,-0.03 4.48,2.43 h 0.05 l 1.56,0.84 0.07,0.05 4.16,2.37 v 0.03 l 4.2,2.47 -0.08,-0.03 1.2,0.65 -0.19,-0.12 2.69,1.27 -0.34,-0.12 0.72,0.24 c 0.24,0.05 0.48,0.17 0.7,0.29 l 0.84,0.55 c 0.19,0.08 0.34,0.24 0.48,0.36 l 0.14,0.15 -0.84,-0.58 0.12,0.07 c 0.12,0.05 0.24,0.12 0.36,0.17 l 0.17,0.12 v 0 l 0.15,0.1 -0.36,-0.22 0.09,0.07 c 0.12,0.05 0.24,0.12 0.36,0.17 l 0.15,0.1 -0.84,-0.36 0.36,0.09 c 0.28,0.08 0.6,0.24 0.86,0.41 l 0.31,0.22 -0.43,-0.24 0.19,0.05 c 1.47,0.69 2.16,2.37 1.59,3.91 -0.58,1.53 -2.19,2.33 -3.75,1.89 -1.56,-0.45 -2.52,-2.04 -2.16,-3.64 l 0.07,-0.41 -0.02,0.05 0.36,-1.8 -0.02,0.07 0.93,-5.47 v 0.16 l 0.99,-7.8 -0.03,0.39 v -0.46 0 -0.17 c 0,-1.72 1.37,-3.09 3.07,-3.09 1.73,0 3.1,1.37 3.1,3.09 v 0.17 0 0.46 c 0,0.12 0,0.26 -0.02,0.38 l -0.96,7.8 -0.03,0.12 -0.93,5.43 v 0.07 l -0.36,1.82 v 0.12 l -0.12,0.43 c -0.24,1.08 -1.06,1.95 -2.12,2.28 -1.03,0.29 -2.18,0.05 -3,-0.69 l -0.14,-0.12 -0.12,-0.12 -0.26,-0.27 1.32,0.77 -0.34,-0.09 c -0.29,-0.08 -0.6,-0.24 -0.86,-0.41 l -0.15,-0.1 0.29,0.19 -0.1,-0.07 -0.28,-0.17 -0.15,-0.09 v 0 l -0.17,-0.12 0.32,0.17 -0.1,-0.05 c -0.26,-0.12 -0.53,-0.34 -0.74,-0.55 l -0.12,-0.15 0.48,0.43 -0.82,-0.57 0.67,0.36 -0.72,-0.27 -0.33,-0.12 -2.67,-1.29 -0.29,-0.15 -1.12,-0.69 -0.03,-0.03 -4.15,-2.52 v 0 l -4.08,-2.49 0.05,0.02 -1.56,-0.93 v 0 l -4.39,-2.57 -0.05,-0.03 -2.43,-1.48 -0.02,-0.03 -3.34,-2.13 -0.02,-0.03 -0.48,-0.29 c -0.98,-0.67 -1.34,-1.99 -0.82,-3.09 0.56,-1.08 1.83,-1.59 2.98,-1.18 z"
         style="fill:#00a0d7;fill-opacity:1;fill-rule:nonzero;stroke:none"
         transform="matrix(1.3333333,0,0,-1.3333333,0,1120.8)" />
    </g>
    <g
       id="g129">
      <path
         id="path129"
         d="m 285.96,135.14 4.7,-0.43 c 0.15,0 0.27,0 0.44,0 l 4.63,0.24 h 0.19 l 1.68,0.19 h -0.12 l 1.8,0.15 h 0.02 l 6.29,0.48 h -0.21 l 4,0.05 h 0.17 l 1.47,0.09 h -0.15 l 2.16,0.03 h -0.24 l 2.71,-0.15 -0.79,0.19 0.15,-0.07 c 1.65,-0.53 3.45,0.36 4.03,2.02 0.53,1.68 -0.36,3.48 -2.02,4.05 l -0.17,0.03 c -0.26,0.09 -0.55,0.14 -0.84,0.17 l -2.76,0.12 h -0.24 l -2.16,-0.05 h -0.12 l -1.46,-0.1 h 0.12 l -4.01,-0.12 -0.19,-0.02 -6.26,-0.58 h 0.02 l -1.82,-0.14 -0.1,-0.03 -1.68,-0.19 h 0.14 l -4.65,-0.36 h 0.05 l -4.73,-0.29 c -1.37,-0.09 -2.45,-1.24 -2.47,-2.61 0,-1.42 1.03,-2.55 2.42,-2.67 z"
         style="fill:#00a0d7;fill-opacity:1;fill-rule:nonzero;stroke:none"
         transform="matrix(1.3333333,0,0,-1.3333333,0,1120.8)" />
    </g>
    <g
       id="g130">
      <path
         id="path130"
         d="m 282.38,154.37 -0.02,-1.71 v -0.28 l 0.29,-3.96 v -0.05 l 0.45,-4.39 v 0.04 l 0.39,-4.24 v 0.31 l -0.03,-1.44 v 0 -0.22 c 0,-0.96 0.51,-1.89 1.4,-2.37 0.84,-0.48 1.87,-0.48 2.71,0 0.84,0.48 1.37,1.41 1.37,2.37 v 0.22 0 1.44 l -0.05,0.26 -0.48,4.2 v 0.03 l -0.53,4.36 v 0 l -0.48,3.96 v -0.09 l -0.14,1.7 c -0.1,1.27 -1.2,2.26 -2.5,2.23 -1.3,-0.04 -2.35,-1.08 -2.38,-2.37 z"
         style="fill:#00a0d7;fill-opacity:1;fill-rule:nonzero;stroke:none"
         transform="matrix(1.3333333,0,0,-1.3333333,0,1120.8)" />
    </g>
    <g
       id="g131">
      <path
         id="path131"
         d="m 283.92,152.35 0.84,-0.45 c 0.24,-0.12 0.48,-0.2 0.74,-0.24 l 0.58,-0.08 -0.94,0.32 0.48,-0.29 c 0.22,-0.12 0.44,-0.22 0.63,-0.27 l 0.57,-0.16 -0.38,0.16 0.48,-0.24 -0.12,0.05 1.3,-0.72 -0.2,0.12 0.58,-0.36 c 0.1,-0.05 0.22,-0.12 0.29,-0.17 l 0.65,-0.31 v 0 l 0.62,-0.26 0.17,-0.1 1.32,-0.5 h 0.05 l 4.99,-1.8 -0.17,0.05 3.26,-1.4 -0.84,0.56 0.29,-0.27 c 0.67,-0.69 1.68,-0.96 2.59,-0.72 0.94,0.24 1.66,0.99 1.92,1.92 0.24,0.94 -0.02,1.92 -0.72,2.59 l -0.26,0.29 c -0.26,0.24 -0.53,0.43 -0.86,0.58 l -3.27,1.34 -0.19,0.07 -5.04,1.71 0.05,-0.03 -1.35,0.48 0.15,-0.07 -0.63,0.27 v 0 l -0.62,0.28 0.29,-0.16 -0.55,0.33 -0.12,0.1 -1.37,0.65 -0.24,0.12 -0.48,0.19 c -0.12,0.05 -0.27,0.09 -0.39,0.12 l -0.57,0.12 0.67,-0.24 -0.5,0.26 c -0.32,0.15 -0.6,0.24 -0.94,0.27 l -0.58,0.07 0.39,-0.1 -0.91,0.24 c -1.16,0.31 -2.33,-0.29 -2.76,-1.41 -0.44,-1.11 0.04,-2.33 1.1,-2.91 z"
         style="fill:#00a0d7;fill-opacity:1;fill-rule:nonzero;stroke:none"
         transform="matrix(1.3333333,0,0,-1.3333333,0,1120.8)" />
    </g>
    <g
       id="g132">
      <path
         id="path132"
         d="m 294.84,167.52 0.26,-0.65 0.1,-0.19 0.84,-1.63 -0.1,0.14 2.14,-4.87 -0.05,0.12 1.08,-2.9 v 0.04 l 1.44,-4.15 0.05,-0.14 0.98,-2.4 -0.16,0.57 0.04,-0.31 c 0.29,-1.49 1.73,-2.52 3.24,-2.25 1.54,0.24 2.57,1.65 2.33,3.19 l -0.05,0.29 c -0.02,0.21 -0.07,0.43 -0.16,0.64 l -0.96,2.4 0.02,-0.12 -1.46,4.18 v 0.05 l -1.08,2.88 -0.1,0.14 -2.18,4.9 -0.12,0.24 -0.94,1.58 v 0.07 l -0.36,0.58 c -0.72,1.2 -2.26,1.63 -3.5,1.01 -1.28,-0.63 -1.8,-2.14 -1.3,-3.41 z"
         style="fill:#00a0d7;fill-opacity:1;fill-rule:nonzero;stroke:none"
         transform="matrix(1.3333333,0,0,-1.3333333,0,1120.8)" />
    </g>
    <g
       id="g133">
      <path
         id="path133"
         d="m 309.38,169.85 0.22,-5.74 v -0.19 l 0.22,-2.11 v 0 l 0.38,-3.75 v -0.19 l 0.86,-5.52 0.08,-0.26 0.04,-0.19 v 0 l 0.05,-0.2 c 0.39,-1.56 1.97,-2.49 3.51,-2.11 1.56,0.39 2.52,1.95 2.13,3.51 l -0.07,0.21 v 0 l -0.05,0.19 0.05,-0.24 -0.89,5.52 0.03,-0.12 -0.44,3.75 v 0.07 l -0.26,2.09 v -0.03 l -0.7,5.69 c -0.16,1.39 -1.36,2.38 -2.76,2.28 -1.36,-0.12 -2.42,-1.27 -2.4,-2.66 z"
         style="fill:#00a0d7;fill-opacity:1;fill-rule:nonzero;stroke:none"
         transform="matrix(1.3333333,0,0,-1.3333333,0,1120.8)" />
    </g>
    <g
       id="g134">
      <path
         id="path134"
         d="m 310.22,168.05 0.29,-0.17 c 0.27,-0.22 0.55,-0.36 0.87,-0.46 l 2.92,-0.81 0.29,-0.05 4.13,-0.79 c 0.19,-0.05 0.34,-0.05 0.53,-0.05 h 0.29 l -1.13,0.24 0.24,-0.12 c 0.17,-0.07 0.36,-0.12 0.53,-0.17 l 0.24,-0.05 0.09,-0.02 0.29,-0.07 -1.03,0.43 0.24,-0.17 c 0.14,-0.07 0.31,-0.17 0.5,-0.24 l 0.63,-0.26 -0.05,0.02 0.96,-0.41 -0.79,0.51 0.26,-0.24 -0.77,3.79 -0.12,-0.24 1.56,1.44 -0.79,-0.34 0.17,0.05 -1.99,-0.72 -0.22,-0.07 -0.62,-0.31 -0.17,-0.1 -0.65,-0.31 -0.02,-0.05 -1.44,-0.77 -0.08,-0.02 -3.55,-2.09 -0.31,-0.19 -0.22,-0.17 0.48,0.31 -0.26,-0.14 h -0.02 l -0.87,-0.46 0.41,0.17 -0.14,-0.05 c -1.68,-0.55 -2.6,-2.35 -2.02,-3.98 0.55,-1.7 2.35,-2.59 4.03,-2.02 l 0.12,0.05 c 0.15,0.03 0.29,0.1 0.41,0.15 l 0.91,0.45 v 0 l 0.29,0.17 c 0.19,0.07 0.34,0.17 0.48,0.29 l 0.22,0.14 -0.32,-0.17 3.58,2.14 -0.07,-0.07 1.39,0.79 h -0.02 l 0.62,0.31 -0.14,-0.07 0.62,0.29 -0.24,-0.1 1.99,0.77 0.17,0.05 0.79,0.36 c 0.82,0.36 1.44,1.08 1.71,1.94 l 0.07,0.24 c 0.41,1.44 -0.22,2.98 -1.56,3.67 l -0.31,0.15 -0.29,0.14 -1.01,0.36 h -0.02 l -0.63,0.24 0.46,-0.19 -0.24,0.14 c -0.34,0.17 -0.7,0.29 -1.08,0.36 l -0.31,0.05 0.09,-0.02 -0.24,0.07 0.53,-0.17 -0.24,0.1 c -0.36,0.12 -0.74,0.21 -1.1,0.19 h -0.29 l 0.48,-0.05 -4.23,0.6 0.12,-0.02 -3.02,0.55 0.34,-0.07 -0.32,0.09 c -1.24,0.36 -2.59,-0.21 -3.19,-1.39 -0.6,-1.15 -0.24,-2.59 0.79,-3.38 z"
         style="fill:#00a0d7;fill-opacity:1;fill-rule:nonzero;stroke:none"
         transform="matrix(1.3333333,0,0,-1.3333333,0,1120.8)" />
    </g>
    <g
       id="g135">
      <path
         id="path135"
         d="m 295.68,170.81 -0.1,-0.05 c -0.28,-0.24 -0.5,-0.53 -0.69,-0.82 l -0.19,-0.38 0.16,0.29 -1.2,-1.66 -0.12,-0.17 -0.26,-0.43 0.22,0.31 -0.32,-0.38 c -0.09,-0.1 -0.14,-0.22 -0.24,-0.31 l -0.62,-1.08 -0.1,-0.12 -0.48,-0.87 0.1,0.15 -0.82,-1.3 0.15,0.19 -0.63,-0.81 1.04,0.84 -0.7,-0.36 1.66,0.33 h -0.12 l 1.2,-0.36 -0.22,0.1 v 0.02 l -0.12,0.03 0.6,-0.39 -0.62,0.53 -0.24,0.22 -0.32,0.21 0.48,-0.43 -0.24,0.24 v 0 l -0.24,0.29 0.03,-0.05 -0.65,0.72 -0.19,0.19 -0.31,0.29 0.16,-0.14 -0.33,0.36 -0.15,0.14 -0.38,0.36 -0.19,0.17 -0.36,0.31 v 0 l -0.39,0.31 c -0.12,0.1 -0.24,0.17 -0.36,0.27 l -1.08,0.67 -0.02,0.02 -0.12,0.05 -0.14,0.1 -0.12,0.07 c -1.06,0.53 -2.36,0.48 -3.36,-0.19 -1.01,-0.65 -1.56,-1.83 -1.52,-3.03 0.1,-1.2 0.8,-2.25 1.9,-2.78 l 0.1,-0.07 0.16,-0.05 0.1,-0.07 -0.36,0.19 1.08,-0.6 -0.22,0.12 0.39,-0.29 v 0 l 0.43,-0.26 -0.22,0.14 0.44,-0.31 -0.2,0.14 0.36,-0.33 0.22,-0.17 0.36,-0.29 -0.36,0.34 0.7,-0.72 0.12,-0.12 0.26,-0.24 v 0 l 0.24,-0.24 c 0.14,-0.15 0.34,-0.27 0.48,-0.39 l 0.29,-0.19 -0.31,0.24 0.64,-0.53 c 0.22,-0.16 0.44,-0.31 0.68,-0.43 l 0.07,-0.02 h 0.05 l 0.19,-0.1 c 0.48,-0.24 1.03,-0.33 1.61,-0.26 h 0.12 c 1.08,0.12 2.04,0.74 2.52,1.7 l 0.31,0.72 -0.17,-0.29 0.58,0.84 0.12,0.17 0.74,1.32 0.1,0.22 0.4,0.86 -0.09,-0.17 0.62,1.08 -0.12,-0.19 0.27,0.43 c 0.09,0.1 0.14,0.17 0.21,0.29 l 0.19,0.46 -0.07,-0.15 1.03,1.73 0.12,0.29 0.2,0.38 c 0.24,0.53 0.28,1.13 0.12,1.73 l -0.03,0.12 c -0.21,0.79 -0.81,1.42 -1.61,1.68 -0.76,0.29 -1.65,0.12 -2.3,-0.38 z"
         style="fill:#00a0d7;fill-opacity:1;fill-rule:nonzero;stroke:none"
         transform="matrix(1.3333333,0,0,-1.3333333,0,1120.8)" />
    </g>
    <g
       id="g136">
      <path
         id="path136"
         d="m 298.44,167.69 0.6,0.26 -0.82,-0.17 h 0.92 l -0.63,0.1 0.67,-0.19 c 0.96,-0.27 1.97,0.02 2.64,0.74 0.7,0.7 0.92,1.73 0.6,2.69 -0.28,0.91 -1.08,1.61 -2.04,1.8 h -0.02 l 2.16,-2.95 0.07,0.55 c 0.03,0.29 0,0.62 -0.07,0.96 l -0.22,0.86 -0.07,0.34 -0.12,0.29 -0.07,0.14 -0.12,0.29 v 0 l -0.12,0.26 c -0.05,0.12 -0.12,0.24 -0.17,0.36 l -0.19,0.27 -0.1,0.12 -0.43,0.67 -0.07,0.07 -0.36,0.46 c -0.12,0.19 -0.26,0.33 -0.41,0.45 l -1.15,1.01 0.24,-0.24 -0.34,0.36 c -0.12,0.12 -0.19,0.22 -0.31,0.31 l -0.36,0.34 0.29,-0.34 -0.34,0.36 h 0.05 l -0.72,0.77 0.17,-0.19 -0.5,0.67 -0.24,0.29 -0.12,0.14 c -0.12,0.12 -0.24,0.22 -0.36,0.29 l -0.2,0.17 0.92,-1.15 -0.1,0.19 c -0.1,0.17 -0.19,0.36 -0.31,0.5 l -0.12,0.22 v 0 l -0.15,0.19 0.32,-0.5 -0.1,0.19 v 0 l -0.1,0.19 v 0 l -0.09,0.22 0.09,-0.29 -0.16,0.53 0.07,-0.34 -0.07,0.43 v 0 l -0.1,0.39 0.05,-0.36 -0.03,0.36 v -0.05 l -0.04,0.38 0.02,-0.38 v 0.38 0 0.39 0 l 0.02,0.38 v 0 0.41 0 0.38 l -0.12,-0.79 0.12,0.41 v 0 l 0.1,0.38 c 0.02,0.12 0.05,0.24 0.1,0.39 l 0.04,0.38 -0.26,-0.89 0.14,0.34 c 0.1,0.17 0.15,0.31 0.2,0.5 l 0.12,0.39 -0.2,-0.51 0.15,0.36 -0.05,-0.14 0.48,0.96 0.1,0.19 0.14,0.34 -0.22,-0.39 0.15,0.24 -0.07,-0.14 0.21,0.29 v 0 l 0.17,0.31 -0.43,-0.53 0.21,0.22 v 0 l 0.24,0.24 0.22,0.21 0.24,0.29 -0.48,-0.48 0.24,0.22 c 0.1,0.07 0.19,0.14 0.26,0.24 l 0.29,0.24 -0.31,-0.24 0.26,0.21 -0.24,-0.19 0.32,0.19 0.21,0.17 0.27,0.22 -0.6,-0.39 0.28,0.15 v 0 l 0.29,0.14 -0.17,-0.07 0.34,0.14 c 0.14,0.05 0.26,0.12 0.38,0.22 l 0.29,0.14 -0.81,-0.36 0.33,0.1 0.15,0.05 0.28,0.09 -0.19,-0.07 0.91,0.24 -0.24,-0.05 0.56,0.12 -0.27,-0.07 0.48,0.07 -0.33,-0.02 h 0.5 v 0 h 0.55 v 0 h 0.48 l -0.31,0.02 0.55,-0.07 -0.07,0.05 0.43,-0.07 -0.21,0.02 0.52,-0.07 h -0.04 l 0.48,-0.1 v 0 l 0.48,-0.09 -0.48,0.12 1.22,-0.46 -0.1,0.07 0.53,-0.21 -0.41,0.19 0.46,-0.24 v 0 l 0.43,-0.24 v 0 l 0.43,-0.24 -0.38,0.24 0.43,-0.31 0.15,-0.1 0.4,-0.29 -0.28,0.24 0.93,-0.79 -0.31,0.29 0.5,-0.55 0.22,-0.22 0.55,-0.48 -0.33,0.34 0.45,-0.51 -0.09,0.1 0.45,-0.58 v 0 l 0.43,-0.6 -0.07,0.12 0.43,-0.62 -0.16,0.29 0.36,-0.63 -0.08,0.1 0.72,-1.44 -0.04,0.14 0.24,-0.57 -0.08,0.12 0.22,-0.51 v 0 l 0.22,-0.55 -0.12,0.31 0.16,-0.57 v -0.05 l 0.17,-0.55 -0.07,0.31 0.1,-0.58 v 0 l 0.12,-0.6 -0.08,0.51 0.05,-0.51 v -0.26 l 0.05,-0.6 -0.02,0.38 -0.03,-1.56 v -0.12 -0.45 l 0.05,0.62 -0.1,-0.5 v 0.07 l -0.07,-0.43 V 174 l -0.19,-0.96 0.24,0.74 -0.1,-0.19 0.2,0.31 -0.1,-0.14 c -0.17,-0.29 -0.34,-0.6 -0.41,-0.96 l -0.05,-0.22 0.41,0.99 -0.09,-0.15 c -0.2,-0.31 -0.34,-0.62 -0.39,-0.96 l -0.07,-0.21 0.82,1.46 -0.15,-0.14 c -0.36,-0.36 -0.6,-0.77 -0.77,-1.25 l -0.02,-0.17 0.46,0.94 -0.15,-0.22 -0.09,-0.14 -0.12,-0.15 0.38,0.48 -0.14,-0.14 0.02,0.02 -0.29,-0.31 2.04,0.94 -0.05,-0.03 c -0.76,-0.02 -1.51,-0.36 -2.06,-0.93 l -0.05,-0.05 c -0.57,-0.58 -0.89,-1.39 -0.84,-2.23 v -0.03 c 0.03,-1.7 1.47,-3.07 3.15,-3 1.7,0.03 3.04,1.47 3,3.15 -0.03,1.7 -1.47,3.07 -3.15,3 h -0.07 c -0.82,-0.03 -1.56,-0.36 -2.14,-0.94 l -0.04,-0.05 2.13,0.94 h -0.05 c -0.84,0 -1.6,-0.36 -2.18,-0.96 l -0.02,-0.07 2.06,0.98 h -0.02 0.09 -0.07 v 0 h -0.05 v 0 l -0.05,-0.02 h -0.07 -0.07 0.14 -0.14 -0.12 -0.22 c -1.6,-0.1 -2.88,-1.44 -2.88,-3.05 0,-1.63 1.28,-2.98 2.88,-3.05 l 0.22,-0.02 h 0.12 0.14 -0.14 0.07 0.07 0.05 v 0 h 0.05 v 0 h 0.07 -0.09 0.02 c 0.84,-0.05 1.66,0.24 2.28,0.81 l 0.02,0.05 -2.16,-0.84 h 0.05 c 0.84,-0.02 1.63,0.31 2.21,0.89 l 0.07,0.02 -2.23,-0.84 h 0.07 c 0.79,-0.02 1.59,0.27 2.19,0.84 0.6,0.58 0.96,1.32 0.96,2.16 v 0.03 l -0.94,-2.14 0.07,0.07 -2.33,-0.86 h 0.05 c 0.87,-0.07 1.71,0.26 2.33,0.86 l 0.31,0.29 -0.05,-0.02 0.17,0.14 c 0.15,0.17 0.27,0.31 0.39,0.46 l 0.12,0.14 -0.12,-0.12 0.14,0.22 c 0.22,0.24 0.36,0.55 0.48,0.84 l 0.07,0.14 -0.79,-1.2 0.14,0.17 c 0.44,0.38 0.7,0.89 0.84,1.44 l 0.08,0.17 -0.46,-0.96 0.1,0.14 c 0.21,0.29 0.36,0.6 0.45,0.96 l 0.05,0.22 -0.46,-0.99 0.1,0.15 c 0.1,0.12 0.14,0.21 0.22,0.33 l 0.12,0.22 c 0.12,0.24 0.21,0.5 0.26,0.79 l 0.22,0.96 -0.03,-0.07 0.12,0.43 0.03,0.07 0.09,0.51 c 0.03,0.19 0.05,0.38 0.05,0.6 l 0.05,0.45 v -0.07 l 0.02,1.56 v 0.34 l -0.02,0.57 v -0.24 0.51 c 0.02,0.19 0,0.36 -0.05,0.55 l -0.07,0.6 v 0 l -0.1,0.55 -0.07,0.34 -0.14,0.55 0.02,-0.07 -0.14,0.57 -0.1,0.34 -0.17,0.53 v 0 l -0.19,0.55 -0.05,0.14 -0.24,0.6 -0.09,0.22 -0.75,1.46 -0.05,0.1 -0.31,0.62 c -0.07,0.1 -0.12,0.22 -0.19,0.29 l -0.46,0.67 -0.04,0.1 -0.44,0.6 v 0 l -0.43,0.55 -0.09,0.12 -0.44,0.55 c -0.12,0.12 -0.19,0.24 -0.31,0.36 l -0.55,0.51 0.22,-0.24 -0.48,0.55 c -0.1,0.12 -0.22,0.24 -0.34,0.31 l -0.94,0.79 c -0.07,0.1 -0.16,0.15 -0.26,0.24 l -0.46,0.27 0.17,-0.07 -0.41,0.28 c -0.12,0.1 -0.24,0.2 -0.38,0.24 l -0.41,0.24 v 0 l -0.45,0.24 v 0 l -0.44,0.27 c -0.14,0.07 -0.26,0.12 -0.38,0.19 l -0.48,0.17 -0.14,0.07 -1.2,0.46 c -0.2,0.04 -0.34,0.07 -0.48,0.12 l -0.51,0.07 v 0 l -0.48,0.12 h -0.07 l -0.53,0.09 -0.21,0.08 -0.46,0.02 h -0.05 l -0.55,0.05 -0.29,0.05 h -0.48 v 0 h -0.55 v 0 h -0.5 l -0.34,-0.05 -0.48,-0.05 -0.26,-0.02 -0.56,-0.1 -0.24,-0.07 -0.91,-0.24 -0.24,-0.05 -0.29,-0.12 0.12,0.05 -0.33,-0.07 c -0.27,-0.1 -0.53,-0.22 -0.79,-0.36 l -0.24,-0.17 0.4,0.21 -0.36,-0.14 -0.16,-0.1 -0.32,-0.14 v 0 l -0.26,-0.14 c -0.22,-0.1 -0.43,-0.22 -0.6,-0.36 l -0.24,-0.22 0.24,0.17 -0.31,-0.19 -0.24,-0.17 -0.24,-0.19 c -0.07,-0.08 -0.17,-0.17 -0.27,-0.24 l -0.24,-0.27 0.27,0.27 -0.24,-0.22 c -0.17,-0.12 -0.31,-0.29 -0.48,-0.46 l -0.24,-0.31 0.19,0.22 -0.24,-0.24 v 0 l -0.19,-0.17 c -0.15,-0.19 -0.29,-0.34 -0.41,-0.53 l -0.22,-0.29 v 0 l -0.16,-0.31 -0.1,-0.12 -0.14,-0.26 c -0.08,-0.12 -0.17,-0.24 -0.2,-0.39 l -0.14,-0.33 0.05,0.14 -0.48,-0.96 -0.07,-0.19 -0.17,-0.36 c -0.05,-0.17 -0.12,-0.34 -0.15,-0.48 l -0.09,-0.43 0.17,0.5 -0.17,-0.31 c -0.07,-0.31 -0.17,-0.6 -0.19,-0.91 l -0.08,-0.39 0.1,0.39 -0.1,-0.39 v 0 l -0.09,-0.38 c -0.07,-0.29 -0.07,-0.55 -0.07,-0.82 v -0.38 0 -0.41 0 -0.38 0 -0.39 0 l 0.02,-0.38 c 0,-0.17 0,-0.29 0.02,-0.43 l 0.03,-0.39 0.05,-0.07 0.04,-0.31 0.08,-0.34 0.07,-0.38 v 0 l 0.12,-0.41 0.09,-0.29 0.22,-0.55 c 0.05,-0.14 0.12,-0.26 0.17,-0.38 l 0.09,-0.22 v 0 l 0.12,-0.17 v 0 l 0.1,-0.19 c 0.1,-0.17 0.22,-0.31 0.34,-0.48 l 0.14,-0.17 v 0 l 0.14,-0.21 -0.28,0.48 0.07,-0.22 c 0.24,-0.41 0.57,-0.77 0.96,-1.08 l 0.21,-0.12 -0.33,0.29 0.17,-0.17 -0.32,0.31 0.58,-0.69 0.14,-0.17 0.75,-0.77 0.17,-0.12 0.31,-0.31 c 0.12,-0.12 0.24,-0.22 0.36,-0.29 l 0.41,-0.29 -0.34,0.27 0.36,-0.34 0.17,-0.14 1.2,-0.94 -0.24,0.22 0.43,-0.41 -0.22,0.19 0.56,-0.6 0.16,-0.17 0.22,-0.24 -0.24,0.27 0.17,-0.22 v 0 l 0.19,-0.24 -0.14,0.22 0.14,-0.27 -0.31,0.65 0.29,-0.86 -0.1,0.55 0.05,-0.55 c 0.07,-0.75 0.5,-1.42 1.1,-1.85 0.6,-0.46 1.35,-0.65 2.09,-0.48 h 0.02 c 1.13,0.24 2,1.13 2.16,2.23 0.17,1.15 -0.4,2.26 -1.39,2.76 -1.03,0.55 -2.25,0.36 -3.09,-0.41 l -0.51,-0.48 1.08,0.58 -0.89,-0.19 c -0.24,-0.05 -0.45,-0.15 -0.64,-0.27 l -0.58,-0.33 c -0.96,-0.58 -1.32,-1.8 -0.82,-2.79 0.51,-1.03 1.73,-1.46 2.74,-1.05 z"
         style="fill:#00a0d7;fill-opacity:1;fill-rule:nonzero;stroke:none"
         transform="matrix(1.3333333,0,0,-1.3333333,0,1120.8)" />
    </g>
    <g
       id="g137">
      <path
         id="path137"
         d="m 295.34,182.33 0.58,-0.15 c 0.22,-0.02 0.41,-0.07 0.62,-0.02 l 0.63,0.05 h -0.31 l 0.19,-0.03 c 0.17,0 0.33,0 0.5,0.03 l 0.19,0.02 -0.48,-0.02 h 0.29 -0.05 0.2 v 0 l 0.21,-0.03 h -0.12 l 0.53,-0.07 h 0.02 l 1.01,-0.07 h 0.07 l 0.22,-0.05 v 0 h 0.19 l -0.53,0.1 0.22,-0.05 c 0.14,-0.07 0.34,-0.1 0.5,-0.1 h 0.2 l -0.51,0.1 0.19,-0.07 h -0.02 l 0.22,-0.05 -0.1,0.02 0.43,-0.14 0.36,-0.1 0.27,-0.07 -0.48,0.17 0.33,-0.17 0.05,-0.02 0.24,-0.1 -0.05,0.05 0.36,-0.17 -0.53,0.31 0.24,-0.21 c 0.12,-0.1 0.24,-0.17 0.41,-0.24 l 0.29,-0.15 -0.38,0.24 0.24,-0.19 0.24,-0.17 0.24,-0.14 -0.24,0.17 0.24,-0.22 -0.03,0.05 0.29,-0.24 -0.22,0.17 0.58,-0.63 -0.02,0.03 0.28,-0.34 v -0.02 l 0.36,-0.39 -0.19,0.29 0.24,-0.38 v 0 l 0.24,-0.39 -0.07,0.1 0.24,-0.46 -0.02,0.05 0.45,-0.84 -0.12,0.29 0.19,-0.55 c 0.05,-0.12 0.1,-0.27 0.2,-0.39 l 0.28,-0.48 v 0 l 0.32,-0.48 v -0.02 l 0.62,-1.03 0.22,-0.27 1.29,-1.51 -0.12,0.12 0.24,-0.31 0.07,-0.1 0.2,-0.24 -0.15,0.22 0.51,-0.79 v -0.03 l 0.57,-0.93 0.19,-0.24 0.8,-0.94 0.14,-0.14 0.1,-0.1 c 0.86,-0.79 2.2,-0.79 3.04,0.05 0.84,0.84 0.84,2.18 0.05,3.02 l -0.09,0.12 0.09,-0.12 -0.79,0.94 0.19,-0.24 -0.6,0.91 h 0.03 l -0.51,0.79 -0.12,0.22 -0.21,0.24 0.09,-0.1 -0.29,0.36 -0.07,0.12 -1.27,1.54 0.19,-0.24 -0.65,1.01 v -0.03 l -0.26,0.48 v 0 l -0.29,0.51 0.17,-0.39 -0.17,0.53 -0.17,0.31 -0.4,0.82 -0.03,0.05 -0.24,0.43 -0.07,0.12 -0.24,0.38 v 0 l -0.24,0.39 c -0.05,0.09 -0.14,0.19 -0.22,0.26 l -0.36,0.41 h 0.05 l -0.31,0.31 -0.05,0.1 -0.6,0.62 -0.21,0.22 -0.32,0.24 -0.04,0.02 -0.24,0.19 -0.24,0.17 -0.24,0.12 0.24,-0.14 -0.24,0.19 c -0.12,0.07 -0.27,0.17 -0.39,0.24 l -0.31,0.14 0.38,-0.24 -0.26,0.17 c -0.14,0.17 -0.29,0.24 -0.48,0.31 l -0.36,0.15 -0.05,0.02 -0.24,0.1 0.05,-0.03 -0.36,0.15 c -0.14,0.07 -0.34,0.12 -0.5,0.14 l -0.27,0.05 0.29,-0.07 -0.46,0.12 -0.19,0.07 -0.21,0.02 v 0 l -0.2,0.05 c -0.16,0.05 -0.36,0.05 -0.52,0.05 h -0.2 l 0.53,-0.07 -0.19,0.07 c -0.17,0.02 -0.36,0.02 -0.53,0.02 h -0.19 v 0 l -0.22,-0.02 h 0.12 -0.98 0.14 l -0.52,0.02 h -0.27 -0.21 v 0 h -0.2 0.05 l -0.29,-0.02 c -0.14,0 -0.33,-0.05 -0.48,-0.1 l -0.21,-0.07 0.48,0.1 h -0.19 l -0.29,-0.05 -0.63,-0.12 0.32,0.02 -0.6,-0.02 c -0.92,-0.07 -1.66,-0.79 -1.73,-1.73 -0.07,-0.89 0.53,-1.73 1.41,-1.94 z"
         style="fill:#00a0d7;fill-opacity:1;fill-rule:nonzero;stroke:none"
         transform="matrix(1.3333333,0,0,-1.3333333,0,1120.8)" />
    </g>
  </g>
</svg>
