<svg width="24.365" height="8.6398" version="1.1" viewBox="0 0 24.365 8.6398" xmlns="http://www.w3.org/2000/svg">
 <g transform="translate(-70.469 -119.77)">
  <path transform="matrix(1.3333,0,0,-1.3333,0,1120.8)" d="m54.768 747.29v0.02l-0.24-0.45-0.504-0.24c0.216 0.02 0.408 0.12 0.552 0.26l0.024 0.02c0.096 0.1 0.168 0.22 0.216 0.36l0.024 0.03-0.408-0.51 0.24 0.15 0.048 0.05 0.144 0.09-0.144-0.07 0.168 0.07 0.192 0.12-0.12-0.07 0.168 0.07 0.192 0.07h-0.024l0.504 0.2-0.12-0.03 1.488 0.41 0.48 0.12-0.072-0.02 0.528 0.09 0.552 0.1h-0.072l0.528 0.07 0.528 0.05h-0.024l0.552 0.05 0.552 0.04h-0.12l0.576-0.02h0.048l0.528 0.02h-0.072l0.552-0.02h-0.024l0.552-0.02h-0.072l1.464-0.15h-0.048l0.504-0.07h-0.048l0.48-0.1 0.504-0.12-0.048 0.03 0.48-0.12h-0.048l0.48-0.15-0.048 0.03 0.48-0.17-0.048 0.02 1.056-0.38-0.096 0.02 1.128-0.5-0.288 0.17 0.168-0.12c0.36-0.29 0.84-0.36 1.272-0.19 0.432 0.16 0.72 0.55 0.792 1 0.072 0.46-0.12 0.92-0.48 1.2l-0.168 0.12c-0.072 0.05-0.168 0.1-0.264 0.15l-1.104 0.5-0.096 0.03-1.032 0.38-0.048 0.02-0.48 0.15-0.048 0.02-0.48 0.15h-0.048l-0.48 0.12h-0.048l-0.504 0.12-0.504 0.09h-0.072l-0.504 0.07h-0.072l-1.464 0.15-0.072 0.02h-1.2l-0.528-0.02h0.048-0.576l-0.12-0.03-0.552-0.04h0.024l-0.576-0.08h-0.048l-0.528-0.09h-0.024l-0.528-0.07-0.072-0.03-0.528-0.09-0.528-0.12-0.096-0.03-0.48-0.14-0.048-0.03-1.44-0.48-0.096-0.02-0.504-0.22-0.072-0.04-0.168-0.1-0.168-0.07-0.12-0.07-0.144-0.1 0.048 0.02-0.168-0.09-0.264-0.22-0.048-0.07-0.216-0.19c-0.264-0.29-0.36-0.72-0.216-1.08v-0.03c0.048-0.14 0.12-0.26 0.24-0.36v-0.02c0.144-0.14 0.36-0.24 0.576-0.26l-0.504 0.24h0.024c0.216-0.22 0.504-0.32 0.816-0.24h0.024c0.336 0.07 0.6 0.33 0.672 0.67z"/>
  <path transform="matrix(1.3333,0,0,-1.3333,0,1120.8)" d="m54.384 748.39-0.024 0.03c-0.144 0.02-0.336 0-0.48-0.05l-0.144-0.05v-0.02l1.08-0.12c-0.384 0.33-0.96 0.31-1.344-0.05l-0.024-0.03c-0.384-0.38-0.408-1.03-0.024-1.44l0.192-0.19 0.096-0.09 0.144-0.12c0.048-0.05 0.12-0.1 0.192-0.12l0.168-0.1-0.12 0.07 0.12-0.09 0.072-0.03 0.144-0.09c0.048-0.05 0.12-0.08 0.168-0.1l0.192-0.07-0.048 0.02 0.504-0.24 0.096-0.02 1.464-0.48 0.048-0.03 0.504-0.12 0.072-0.02 0.504-0.12h0.024l0.552-0.1 0.048-0.02 0.528-0.07h0.024l0.528-0.07h0.048l0.552-0.08h0.024l0.528-0.04h0.072l0.576-0.03h1.176l0.552 0.03h0.048l1.488 0.14h0.048l0.552 0.1h0.048l0.504 0.09 0.504 0.12h0.048l0.456 0.12 0.12 0.03 0.48 0.16-0.072-0.02 0.48 0.14 0.096 0.03 1.056 0.38 0.12 0.05 1.104 0.53c0.096 0.05 0.168 0.09 0.24 0.14l0.144 0.12c0.36 0.29 0.552 0.75 0.48 1.2-0.048 0.46-0.36 0.84-0.792 1.01s-0.912 0.1-1.272-0.19l-0.144-0.12 0.24 0.14-1.104-0.53 0.12 0.05-1.056-0.38 0.096 0.02-0.504-0.14-0.072-0.03-0.48-0.16 0.096 0.02-0.456-0.12h0.048l-0.504-0.1-0.504-0.12 0.072 0.03-0.528-0.1 0.072 0.03-1.464-0.17h0.048l-0.552-0.05h0.048-0.552 0.048-0.552 0.024-0.576 0.072l-0.528 0.02h0.024l-0.576 0.05h0.024l-0.528 0.05h0.024l-0.552 0.07 0.048-0.02-0.528 0.09h0.024l-0.528 0.1 0.048-0.02-0.528 0.12h0.048l-1.488 0.38 0.144-0.05-0.504 0.22-0.096 0.02-0.192 0.05 0.192-0.05-0.168 0.07 0.072-0.02-0.168 0.1-0.12 0.04-0.168 0.08 0.216-0.12-0.168 0.12-0.264 0.16 0.144-0.12v0.03h-0.024l0.048-0.05c-0.072 0.1-0.168 0.17-0.264 0.22l-0.024 0.02-0.12 0.05h-0.024l0.6-0.67-0.024 0.02c-0.048 0.34-0.336 0.6-0.672 0.67z"/>
 </g>
</svg>
