<?xml version="1.0" encoding="UTF-8" standalone="no"?>
<svg
   width="9.5330954"
   height="33.505829"
   version="1.1"
   viewBox="0 0 9.5330951 33.505829"
   id="svg10"
   sodipodi:docname="symbol.svg"
   inkscape:version="1.4.3 (0d15f75, 2025-12-25)"
   xmlns:inkscape="http://www.inkscape.org/namespaces/inkscape"
   xmlns:sodipodi="http://sodipodi.sourceforge.net/DTD/sodipodi-0.dtd"
   xmlns="http://www.w3.org/2000/svg"
   xmlns:svg="http://www.w3.org/2000/svg">
  <defs
     id="defs10" />
  <sodipodi:namedview
     id="namedview10"
     pagecolor="#ffffff"
     bordercolor="#000000"
     borderopacity="0.25"
     inkscape:showpageshadow="2"
     inkscape:pageopacity="0.0"
     inkscape:pagecheckerboard="0"
     inkscape:deskcolor="#d1d1d1"
     inkscape:zoom="4.7718636"
     inkscape:cx="-13.935855"
     inkscape:cy="17.498405"
     inkscape:window-width="958"
     inkscape:window-height="1181"
     inkscape:window-x="952"
     inkscape:window-y="0"
     inkscape:window-maximized="0"
     inkscape:current-layer="g10" />
  <g
     transform="translate(-235.10079,-107.86532)"
     id="g10">
    <path
       transform="matrix(1.3333,0,0,-1.3333,0,1120.8)"
       d="m 179.4,735.89 v 0.69 l -0.07,4.61 v -0.05 l 0.02,2.14 v 0.02 l 0.03,0.92 v 0.02 l -0.05,7.01 v -0.07 l 0.09,2.52 v -0.1 l 0.05,0.58 v -0.08 l 0.07,0.58 -0.02,-0.14 0.34,1.32 -0.03,-0.08 0.05,0.17 0.02,0.05 0.05,0.19 -0.14,-0.31 0.12,0.19 -0.05,-0.07 0.12,0.17 0.02,0.05 0.22,0.38 c 0.02,0.05 0.07,0.12 0.1,0.17 l 0.02,0.07 -0.46,-0.6 0.05,0.02 c 0.22,0.17 0.36,0.39 0.46,0.63 l 0.02,0.07 -0.45,-0.62 0.07,0.04 c 0.07,0.08 0.14,0.15 0.21,0.22 l 0.1,0.14 -0.22,-0.21 0.08,0.05 -0.24,-0.17 0.07,0.05 c 0.24,0.12 0.43,0.31 0.57,0.52 l 0.03,0.05 -0.58,-0.53 0.07,0.03 c 0.1,0.05 0.17,0.09 0.24,0.17 l 0.08,0.04 -0.24,-0.16 0.07,0.04 -0.34,-0.12 h 0.1 c 0.19,0.08 0.41,0.17 0.55,0.32 l 0.07,0.04 -0.24,-0.16 0.07,0.04 -0.28,-0.12 0.24,0.05 0.12,0.07 h 0.04 l -0.57,-0.12 h 0.48 l -0.58,0.12 H 180 l 0.07,-0.02 c 0.17,-0.1 0.39,-0.12 0.58,-0.12 h 0.02 l -0.57,0.12 0.04,-0.02 -0.4,0.21 0.04,-0.02 c 0.2,-0.15 0.41,-0.27 0.68,-0.31 l 0.09,-0.03 -1.01,0.72 0.03,-0.05 c 0.21,-0.33 0.53,-0.57 0.91,-0.69 l 0.1,-0.03 -0.8,0.53 0.05,-0.07 c 0.17,-0.19 0.39,-0.36 0.6,-0.46 l 0.07,-0.02 -0.62,0.46 0.05,-0.08 c 0.17,-0.19 0.38,-0.36 0.62,-0.45 h 0.05 l -0.84,0.84 0.02,-0.07 c 0.1,-0.24 0.27,-0.46 0.46,-0.6 l 0.05,-0.05 -0.46,0.6 0.03,-0.05 c 0.04,-0.12 0.12,-0.22 0.16,-0.31 l 0.12,-0.15 -0.04,0.08 0.09,-0.2 0.05,-0.07 0.12,-0.17 -0.24,0.48 0.07,-0.19 v -0.05 l 0.07,-0.16 c 0,-0.08 0.05,-0.12 0.08,-0.2 l 0.07,-0.16 -0.12,0.43 0.02,-0.19 0.03,-0.15 0.07,-0.36 -0.03,0.29 0.03,-0.84 v 0.05 l 0.02,-0.84 v 0.14 l -0.21,-2.23 -0.1,-0.94 -0.1,-0.86 v -0.19 -0.27 c 0.03,-0.79 0.68,-1.44 1.49,-1.44 0.79,0 1.47,0.65 1.49,1.44 v 0.27 -0.17 l 0.12,0.86 v 0.03 l 0.12,0.93 v 0.03 l 0.22,2.25 0.02,0.15 v 0.89 l -0.02,0.84 c 0,0.09 0,0.21 -0.03,0.31 l -0.09,0.36 0.02,-0.15 -0.02,0.2 c -0.03,0.16 -0.08,0.28 -0.12,0.43 l -0.1,0.19 0.1,-0.19 -0.08,0.17 0.03,-0.05 -0.05,0.21 c -0.05,0.17 -0.12,0.32 -0.24,0.48 l -0.12,0.15 0.07,-0.07 -0.12,0.16 -0.05,0.08 -0.12,0.16 0.17,-0.31 -0.02,0.07 c -0.1,0.24 -0.24,0.46 -0.46,0.63 l -0.05,0.02 0.46,-0.6 -0.02,0.07 c -0.17,0.36 -0.48,0.68 -0.84,0.84 l -0.08,0.03 0.63,-0.46 -0.07,0.07 c -0.15,0.2 -0.36,0.34 -0.6,0.44 l -0.05,0.02 0.6,-0.43 -0.05,0.05 c -0.19,0.26 -0.48,0.43 -0.79,0.52 l -0.07,0.03 0.91,-0.7 -0.03,0.05 c -0.24,0.36 -0.6,0.62 -1,0.7 l -0.12,0.02 0.67,-0.31 -0.03,0.02 c -0.12,0.1 -0.26,0.17 -0.4,0.24 l -0.05,0.03 c -0.19,0.07 -0.39,0.09 -0.58,0.09 h -0.02 l 0.57,-0.09 h -0.04 l -0.08,0.02 c -0.16,0.07 -0.36,0.12 -0.57,0.12 h -0.48 c -0.19,0 -0.41,-0.05 -0.58,-0.12 l -0.07,-0.02 0.14,0.07 -0.21,-0.07 c -0.1,-0.05 -0.19,-0.08 -0.29,-0.12 l -0.1,-0.05 c -0.07,-0.05 -0.14,-0.12 -0.21,-0.17 l -0.07,-0.05 0.57,0.31 -0.09,-0.02 c -0.1,-0.05 -0.22,-0.07 -0.32,-0.14 l -0.07,-0.05 c -0.09,-0.05 -0.17,-0.1 -0.24,-0.15 l -0.07,-0.04 0.24,0.14 -0.07,-0.05 c -0.24,-0.12 -0.43,-0.31 -0.58,-0.53 l -0.02,-0.04 0.57,0.55 -0.09,-0.05 c -0.07,-0.05 -0.17,-0.1 -0.24,-0.17 l -0.05,-0.05 c -0.07,-0.07 -0.14,-0.12 -0.22,-0.21 l -0.04,-0.07 -0.05,-0.08 0.21,0.24 -0.07,-0.04 c -0.19,-0.17 -0.33,-0.39 -0.45,-0.63 v -0.05 l 0.43,0.6 -0.05,-0.04 c -0.19,-0.17 -0.36,-0.36 -0.46,-0.6 l -0.02,-0.08 0.1,0.2 -0.22,-0.39 0.02,0.03 -0.12,-0.17 -0.04,-0.07 -0.1,-0.2 c -0.05,-0.12 -0.1,-0.21 -0.14,-0.33 l -0.05,-0.19 0.02,0.04 -0.05,-0.19 -0.02,-0.07 -0.34,-1.32 -0.02,-0.17 -0.07,-0.57 v -0.08 l -0.07,-0.57 v -0.1 l -0.05,-2.52 v -0.07 l 0.17,-6.98 v -0.94 l 0.04,-2.14 v -0.04 l 0.24,-4.59 v -0.02 l 0.05,-0.7 c 0.05,-0.69 0.65,-1.2 1.35,-1.2 0.69,0.05 1.22,0.6 1.22,1.3 z"
       id="path3" />
  </g>
</svg>
