<svg width="32.904" height="32.387" version="1.1" viewBox="0 0 32.904 32.387" xmlns="http://www.w3.org/2000/svg">
 <g transform="translate(-640.7 -107.93)">
  <path transform="matrix(1.3333 0 0 -1.3333 0 1120.8)" d="m482.5 755.06 0.28 0.44 0.03 0.04 0.24 0.36-0.05-0.09 0.26 0.36 0.72 0.96c0.12 0.17 0.22 0.38 0.24 0.6v0.02l-0.5-0.86c0.34 0.24 0.5 0.57 0.53 0.93v0.05-0.05l-1.39-1.12h0.02c0.29-0.03 0.62 0.07 0.86 0.24h0.03c0.31 0.21 0.53 0.55 0.55 0.91v0.02l-1.42-1.13c0.34-0.04 0.63 0.05 0.92 0.24h0.02c0.29 0.24 0.5 0.56 0.53 0.96v0.03c0.07 0.72-0.43 1.34-1.15 1.41-0.72 0.08-1.37-0.45-1.44-1.17-0.08-0.7 0.43-1.35 1.15-1.42h0.05l-0.89 0.46 0.05-0.03c0.24-0.28 0.6-0.45 0.96-0.45 0.38 0 0.74 0.14 0.98 0.41l0.02 0.04-1.1-0.43h0.02c0.72-0.09 1.35 0.43 1.44 1.15v0.03l-1.44-1.15 0.03-0.03c0.33-0.02 0.67 0.07 0.93 0.24l0.03 0.03-1.08-0.2h0.05c0.36-0.09 0.74-0.04 1.08 0.2l-0.82-0.24h0.05l-1.03 0.57 0.02-0.02c0.24-0.34 0.62-0.55 1.01-0.58h0.07l-1.15 0.75v-0.03c0.12-0.26 0.36-0.48 0.65-0.62h0.04l-0.24 0.12 0.08-0.03 0.07-0.07 0.05-0.02-0.08 0.02 0.08-0.02-0.6 1.25v-0.03c-0.05-0.5 0.19-0.98 0.62-1.25l0.02-0.04c0.22-0.12 0.44-0.17 0.63-0.2h0.05l-1.16 0.8v-0.03c0.08-0.12 0.12-0.24 0.22-0.33l0.05-0.05h-0.03l0.12-0.12h-0.02l0.1-0.12-0.12 0.24 0.07-0.19 0.05-0.05 0.19-0.39-0.07 0.17 0.02-0.09c0.02-0.05 0.05-0.12 0.1-0.15l0.04-0.12-0.02 0.07 0.05-0.16c0.05-0.05 0.09-0.15 0.12-0.2l0.09-0.12h0.03l0.07-0.12-0.14 0.27 0.04-0.12c0.08-0.12 0.12-0.24 0.22-0.34l0.1-0.09 0.07-0.08c0.05-0.07 0.09-0.09 0.12-0.16l0.24-0.2-0.48 1.08v-0.04c0-0.36 0.17-0.72 0.43-0.99 0.24-0.26 0.6-0.41 0.96-0.41h0.02l-1.29 0.89v-0.02c0.21-0.55 0.72-0.91 1.32-0.91l-0.89 0.33h0.02c0.27-0.21 0.58-0.33 0.92-0.33h0.07-0.03 0.03l0.05-0.03h-0.05 0.09l-0.52 0.12h0.02c0.14-0.05 0.34-0.12 0.5-0.12h0.08c0.31 0 0.64 0.12 0.88 0.34l0.03 0.02-0.89-0.33h0.02c0.75 0 1.42 0.6 1.42 1.39v0.02l-1.42-1.37h0.03c0.77 0 1.39 0.6 1.41 1.37v0.03c0 0.79-0.62 1.41-1.41 1.41-0.77 0-1.39-0.62-1.39-1.37 0-0.79 0.62-1.41 1.36-1.44h0.03c0.21 0 0.41 0.05 0.57 0.12l0.03 0.03c0.19 0.05 0.33 0.17 0.45 0.29l0.08 0.07-0.2-0.15 0.08 0.03 0.12 0.09 0.04 0.05 0.1 0.07c0.02 0.03 0.1 0.08 0.12 0.12l0.12 0.15-0.07-0.07 0.29 0.24c0.02 0.04 0.07 0.09 0.12 0.12l0.02 0.07 0.05 0.09 0.07 0.05-0.55-0.45 0.07 0.04c0.24 0.12 0.46 0.27 0.58 0.48l0.04 0.08 0.03 0.07 0.07 0.05-0.07-0.05 0.07 0.05h-0.02l0.12 0.16c0.04 0.08 0.07 0.15 0.12 0.2l0.02 0.07c0.1 0.17 0.14 0.38 0.14 0.6v0.05l-0.86-1.28 0.02 0.03c0.36 0.12 0.63 0.41 0.8 0.74l0.02 0.07-0.07-0.07 0.05 0.03-0.36-0.44 0.04 0.03 0.03 0.02c0.17 0.15 0.29 0.31 0.36 0.48l0.05 0.07-0.72-0.69h0.02c0.29 0.12 0.5 0.33 0.7 0.57v0.05l-0.32-0.36 0.08 0.07v-0.04l0.02 0.04-0.22-0.16 0.08 0.07c0.07 0.02 0.14 0.09 0.19 0.12l0.05 0.02-0.22-0.14 0.1 0.05-0.05-0.03 0.12 0.1-0.65-0.19h0.02l-0.26 0.04h0.05c0.09-0.04 0.19-0.04 0.29-0.04h0.02l-0.91 0.33 0.05-0.02c0.24-0.22 0.52-0.34 0.86-0.34h0.12l-1.1 0.55 0.02-0.04c0.26-0.32 0.65-0.53 1.1-0.53h0.03l-0.91 0.36 0.02-0.03c0.12-0.09 0.24-0.19 0.36-0.24l0.05-0.04-0.77 0.81 0.02-0.02c0.22-0.55 0.72-0.91 1.3-0.91h0.02c0.8-0.03 1.44 0.6 1.44 1.39 0 0.77-0.62 1.44-1.41 1.44-0.77 0-1.39-0.6-1.44-1.42 0-0.41 0.19-0.84 0.53-1.1h0.02v-0.03l0.05-0.04-0.12 0.12 0.07-0.08 0.05-0.07 0.07-0.05-0.26 0.36 0.04-0.07c0.03-0.05 0.08-0.12 0.1-0.21l0.17-0.2-0.07 0.15 0.12-0.27 0.02-0.07 0.1-0.14-0.1 0.17 0.05-0.15c0.05-0.05 0.09-0.14 0.12-0.21l0.09-0.12 0.03-0.05 0.29-0.34 0.02-0.05v-0.04c0.05-0.05 0.14-0.15 0.22-0.2h0.02l-0.24 0.24 0.02-0.04c0.27-0.39 0.7-0.6 1.18-0.6l-1.2 0.69v-0.02c0.1-0.15 0.22-0.27 0.34-0.36l0.02-0.03 0.02-0.04c0.24-0.2 0.58-0.32 0.92-0.32h0.04l-0.69 0.17 0.05-0.02-0.08 0.02 0.03-0.02c0.07-0.03 0.17-0.07 0.21-0.1l0.08-0.02-0.68 0.6v-0.03c0.22-0.36 0.56-0.6 0.94-0.67l0.02-0.02c0.12 0 0.22-0.03 0.32-0.03h0.07l-0.91 0.36 0.02-0.04c0.26-0.2 0.6-0.32 0.94-0.32h0.07-0.15 0.1c0.12-0.04 0.26-0.04 0.41 0l0.09 0.03h0.1l0.1 0.02c0.04 0.03 0.12 0.07 0.19 0.1l0.09 0.02-0.21-0.09 0.09 0.04c0.1 0.03 0.22 0.08 0.32 0.12l0.12 0.05-0.08-0.02 0.1 0.05-0.07-0.03 0.09 0.03 0.15 0.07 0.07 0.05c0.05 0.04 0.12 0.07 0.14 0.09l0.24 0.19-0.12-0.09 0.22 0.14 0.1 0.03 0.19 0.19 0.19 0.12c0.05 0.02 0.1 0.09 0.14 0.12l0.15 0.14v0.03l0.43 0.4 0.02 0.03 0.58 0.57-0.46-0.31 0.03 0.03c0.55 0.21 0.89 0.72 0.89 1.29l-0.05 0.03-0.48-1.08 0.05 0.04-0.22-0.19 0.02 0.03c0.24 0.16 0.46 0.36 0.58 0.64l0.02 0.05-1.24-0.81h0.02c0.17 0 0.36 0.04 0.53 0.09l0.05 0.03c0.14 0.07 0.26 0.16 0.38 0.24l0.02 0.04-0.88-0.33h0.02c0.34 0 0.65 0.12 0.89 0.33l0.05 0.03-0.92-0.36h0.08c0.31 0.02 0.64 0.14 0.91 0.36l-0.89-0.34h0.05c0.17 0 0.31 0.03 0.45 0.1h0.08l-0.46-0.07h0.02l-0.86 0.31 0.02-0.03c0.27-0.21 0.58-0.33 0.92-0.33h0.07l-0.67 0.17 0.02-0.03-0.43 0.36 0.05-0.02c0.14-0.19 0.36-0.34 0.55-0.43l0.05-0.03-0.12 0.1 0.02-0.03-0.07 0.03 0.07-0.03-0.34 0.27 0.08-0.07-0.36 0.93v-0.02c0-0.43 0.16-0.82 0.48-1.06l0.07-0.09h0.05l0.02-0.03-0.36 0.43 0.05-0.07c0.05-0.05 0.07-0.12 0.09-0.14l0.03-0.1c0.05-0.02 0.09-0.09 0.12-0.14l0.07-0.03-0.12 0.15 0.02-0.07-0.14 0.28 0.05-0.09c0.05-0.12 0.09-0.22 0.17-0.31l0.02-0.05-0.19 0.36 0.05-0.07 0.02-0.08v-0.04l0.1-0.2-0.12 0.48 0.02-0.09c0-0.1 0-0.19 0.02-0.27v-0.07c0.03-0.12 0.08-0.21 0.12-0.33l0.03-0.03c0.05-0.05 0.07-0.12 0.09-0.17l0.08-0.07-0.24 0.99v-0.08c-0.08-0.36 0.04-0.76 0.28-1.05l0.03-0.07-0.03 0.04 0.03-0.04-0.07 0.16 0.02-0.09c0.02-0.07 0.1-0.1 0.12-0.15l0.02-0.07-0.04 0.1 0.02-0.03c0.02-0.07 0.1-0.12 0.12-0.19l0.05-0.05-0.05 0.08 0.02-0.05 0.12-0.12 0.12-0.15c0.03-0.04 0.1-0.07 0.12-0.09l0.03-0.03c0.24-0.21 0.57-0.31 0.89-0.31h0.12-0.05 0.09l-1.29 0.84 0.05-0.02c0.19-0.51 0.67-0.84 1.24-0.84h0.12c0.34 0 0.63 0.12 0.87 0.33l0.05 0.03-0.89-0.34h0.17c0.14 0 0.31 0.03 0.48 0.12h0.02l-0.48-0.12v0.03c0.34 0 0.62 0.12 0.86 0.33h0.03l-0.24-0.14 0.09 0.02-0.09-0.02 0.09 0.05-0.04-0.03 0.12 0.03 0.14 0.09 0.1 0.07 0.07 0.03 0.21 0.14c0.1 0.07 0.15 0.12 0.24 0.22l0.1 0.09-0.22-0.19 0.12 0.1c0.08 0.02 0.12 0.09 0.15 0.12l0.12 0.12c0.07 0.05 0.12 0.12 0.19 0.17l0.24 0.33-0.07-0.05 0.09 0.12-0.02-0.07 0.1 0.1c0.04 0.05 0.07 0.09 0.12 0.14l0.09 0.15-0.19-0.24 0.24 0.24 0.22 0.19 0.09 0.09 0.03 0.05-0.12-0.14 0.12 0.12 0.04 0.05c0.08 0.07 0.12 0.16 0.2 0.24l0.02 0.04-0.62-0.55 0.02 0.03c0.19 0.07 0.34 0.16 0.46 0.31l0.04 0.05-0.43-0.32 0.05 0.03 0.12 0.05 0.12 0.07-0.67-0.19h0.07c0.31 0 0.6 0.12 0.84 0.33l0.02 0.03-0.86-0.32h0.05l-0.84 0.32 0.05-0.03c0.24-0.21 0.52-0.33 0.84-0.33h0.02l-0.84 0.33v-0.02 0.02l0.02-0.02c0.24-0.22 0.56-0.34 0.84-0.34h0.08l-0.89 0.34 0.05-0.03-0.48 1.01v-0.02c0-0.72 0.6-1.32 1.34-1.32h0.02l-0.86 0.29h0.02l-0.48 1c0-0.76 0.6-1.36 1.37-1.36 0.53 0 1.01 0.33 1.23 0.84 0.21 0.48 0.09 1.05-0.27 1.44-0.41 0.36-0.96 0.48-1.49 0.28-0.48-0.19-0.81-0.69-0.81-1.2v-0.07c0-0.36 0.17-0.69 0.41-0.93 0.24-0.27 0.6-0.39 0.96-0.39l-1.13 0.58 0.12-0.15c0.05-0.07 0.07-0.12 0.12-0.16l0.09-0.08-0.14 0.15 0.05-0.1 0.05-0.02 0.07-0.12-0.03 0.02 0.08-0.09 0.04-0.08 0.08-0.09-0.12 0.26 0.07-0.29 0.05-0.07 0.02-0.05v-0.07l-0.02 0.19v-0.07l0.02-0.12 0.02-0.05c0.03-0.07 0.03-0.12 0.08-0.19l0.04-0.05c0.08-0.19 0.2-0.31 0.32-0.43l0.04-0.02-0.4 0.69v-0.07c0.02-0.14 0.07-0.29 0.16-0.41l0.08-0.07-0.08 0.07 0.03-0.07-0.03 0.1 0.03-0.07c0.09-0.17 0.19-0.29 0.33-0.41l0.12-0.1c0.24-0.21 0.56-0.33 0.84-0.33h0.05c0.72 0 1.32 0.6 1.32 1.36 0 0.72-0.6 1.32-1.32 1.32-0.77 0-1.34-0.6-1.34-1.36v-0.03c0-0.45 0.26-0.89 0.67-1.13l0.02-0.04-0.16 0.16v-0.04c0.24-0.17 0.57-0.29 0.86-0.29h0.02l-1.03 0.5 0.03-0.02c0.24-0.34 0.62-0.51 1-0.51h0.1l-1.34 1.32v-0.04c0-0.72 0.6-1.32 1.32-1.32h0.04l-1.22 0.84v-0.03c0.22-0.5 0.7-0.84 1.27-0.84h0.27c0.33 0 0.62 0.12 0.86 0.34v0.02l-0.84-0.33h0.02c0.2 0 0.34 0.04 0.53 0.12h0.03l-0.51-0.08h0.03c0.24 0 0.48 0.05 0.64 0.15l0.17 0.09 0.07 0.05 0.17 0.1-0.17-0.1 0.12 0.07c0.1 0.05 0.2 0.12 0.24 0.17l0.12 0.1-0.12-0.1 0.12 0.1c0.08 0.05 0.17 0.12 0.22 0.17l0.12 0.09-0.14-0.12 0.12 0.1h-0.03l0.12 0.09c0.12 0.08 0.19 0.17 0.29 0.29l0.1 0.15-0.08-0.08 0.22 0.24-0.02-0.04 0.26 0.33v0.03l0.19 0.21-0.09-0.12 0.04 0.1c0.17 0.12 0.24 0.26 0.32 0.45l0.02 0.05-0.17-0.33 0.05 0.09-0.17-0.17 0.05 0.03 0.07 0.05 0.07 0.09 0.08 0.07-0.24-0.19 0.14 0.1c0.07 0.02 0.1 0.05 0.14 0.09l0.05 0.03-0.89-0.31h0.05c0.48 0 0.89 0.24 1.13 0.64v0.03l-0.26-0.34h0.02l-0.86-0.29h0.02c0.43 0 0.79 0.17 1.06 0.51v0.02l-1.54-0.38v-0.03c0.19-0.07 0.36-0.09 0.55-0.09h0.19l-0.72 0.21 0.08-0.04c0.21-0.15 0.45-0.2 0.69-0.2h0.03l-1.16 0.63h0.05c0.24-0.43 0.65-0.67 1.13-0.67l-0.84 0.31h0.02l-0.16 0.17 0.02-0.03c0.24-0.29 0.62-0.5 1.03-0.5h0.03l-1.16 0.65v-0.03c0.1-0.12 0.2-0.24 0.32-0.33l0.02-0.03-0.1 0.1 0.17-0.15 0.15-0.19-0.12 0.15 0.12-0.17 0.02-0.03 0.14-0.19-0.04 0.07 0.36-0.48-0.1 0.15 0.12-0.24 0.02-0.1 0.17-0.21 0.07-0.15 0.48-0.6c0.05-0.05 0.1-0.09 0.12-0.14l0.22-0.19c0.5-0.48 1.34-0.44 1.87 0.07 0.48 0.53 0.48 1.34-0.07 1.85l-0.17 0.19 0.12-0.12-0.48 0.6 0.07-0.12-0.14 0.21 0.07-0.07-0.12 0.22c-0.05 0.05-0.07 0.12-0.09 0.14l-0.34 0.48-0.05 0.1-0.17 0.17 0.05-0.03-0.12 0.15c-0.05 0.07-0.07 0.09-0.09 0.12l-0.2 0.19-0.14 0.17-0.12 0.09 0.26-0.33v0.04c-0.24 0.39-0.67 0.63-1.12 0.63h-0.03l1.03-0.48-0.02 0.02c-0.05 0.07-0.12 0.12-0.17 0.19l-0.05 0.03c-0.24 0.17-0.52 0.29-0.86 0.29l1.15-0.65-0.05 0.02c-0.24 0.39-0.64 0.67-1.12 0.67h-0.03l0.72-0.21-0.07 0.02c-0.22 0.12-0.46 0.22-0.7 0.22h-0.19l0.51-0.12-0.03 0.02c-0.55 0.22-1.17 0.07-1.56-0.41v-0.04l1.01 0.52h-0.02c-0.32 0-0.6-0.12-0.84-0.31l-0.03-0.02c-0.12-0.1-0.21-0.22-0.29-0.34l-0.02-0.02 1.15 0.65h-0.05c-0.28 0-0.6-0.12-0.84-0.32h-0.02l0.14 0.08-0.14-0.08c-0.1-0.07-0.14-0.12-0.24-0.19l-0.05-0.05h0.03l-0.1-0.07 0.1 0.07-0.08-0.04c-0.04-0.05-0.12-0.12-0.16-0.2l-0.08-0.09c-0.07-0.1-0.14-0.22-0.19-0.34v-0.05l0.29 0.48-0.1-0.09-0.07-0.12-0.19-0.22 0.02 0.03-0.28-0.32-0.03-0.04-0.19-0.24-0.05-0.08-0.09-0.12 0.28 0.29-0.12-0.09-0.12-0.08c-0.04-0.04-0.07-0.09-0.14-0.12l-0.1-0.12 0.22 0.17-0.12-0.09-0.12-0.08-0.12-0.09 0.26 0.17-0.12-0.05c-0.04-0.03-0.12-0.07-0.14-0.1l-0.14-0.09 0.12 0.07-0.15-0.1 0.63 0.19h-0.03c-0.19 0-0.33-0.04-0.53-0.12h-0.04l0.52 0.08h-0.02c-0.29 0-0.62-0.08-0.86-0.29v-0.03l0.84 0.32h-0.27l1.23-0.84-0.03 0.04c-0.19 0.51-0.69 0.84-1.25 0.84h-0.04c-0.72 0-1.32-0.6-1.32-1.32 0-0.76 0.6-1.36 1.32-1.36 0.74 0 1.34 0.6 1.34 1.32v0.04c0 0.36-0.14 0.68-0.38 0.92-0.27 0.28-0.6 0.4-0.94 0.4h-0.1l1.06-0.52-0.02 0.04c-0.24 0.32-0.63 0.51-1.04 0.51h-0.02l0.84-0.31v0.04c-0.1 0.03-0.14 0.08-0.22 0.12l-0.02 0.03 0.67-1.18v0.03c0 0.76-0.6 1.36-1.32 1.36h-0.05l0.89-0.33-0.12 0.09 0.31-0.4-0.02 0.07-0.05 0.05v0.07l-0.07 0.05-0.05 0.07 0.19-0.43-0.02 0.04c-0.05 0.29-0.22 0.53-0.41 0.72l-0.07 0.03 0.34-0.39-0.03 0.05 0.07-0.17-0.02 0.08 0.02-0.12v0.04c-0.02 0.05-0.04 0.12-0.04 0.17l-0.03 0.07 0.03-0.07-0.03 0.1-0.12 0.29c-0.05 0.12-0.09 0.21-0.17 0.31l-0.04 0.09v0.03l-0.08 0.09-0.04 0.08-0.12 0.16 0.02-0.04-0.05 0.09c-0.05 0.07-0.09 0.12-0.12 0.15l-0.09 0.09 0.12-0.14-0.12 0.14c-0.24 0.39-0.63 0.6-1.08 0.6l1.32-1.32v0.07c0 0.72-0.6 1.32-1.35 1.32-0.55 0-1.03-0.33-1.25-0.81-0.21-0.51-0.09-1.08 0.27-1.47 0.41-0.36 0.98-0.48 1.46-0.28 0.51 0.21 0.84 0.69 0.84 1.24 0 0.39-0.19 0.77-0.48 1.01l-0.05 0.03c-0.24 0.19-0.52 0.31-0.84 0.31h-0.02c-0.55 0-1.03-0.34-1.22-0.82-0.22-0.5-0.1-1.08 0.26-1.44 0.38-0.38 0.96-0.5 1.44-0.29 0.5 0.2 0.84 0.68 0.84 1.23v0.02c0 0.39-0.17 0.75-0.48 1.03h-0.02c-0.24 0.2-0.56 0.32-0.84 0.32h-0.08l0.89-0.32-0.05 0.03c-0.24 0.21-0.55 0.33-0.86 0.33h-0.02l0.86-0.33-0.02 0.02c-0.24 0.22-0.56 0.34-0.89 0.34h-0.05c-0.31 0-0.6-0.12-0.84-0.34l-0.02-0.02 0.86 0.33h-0.07c-0.24 0-0.43-0.07-0.65-0.19l-0.1-0.05 0.12 0.05h-0.02c-0.19-0.09-0.34-0.17-0.46-0.33l-0.04-0.03 0.43 0.31-0.05-0.04c-0.24-0.08-0.48-0.29-0.6-0.53l-0.02-0.03 0.16 0.24-0.04-0.07 0.12 0.1h-0.05c-0.05-0.07-0.07-0.1-0.15-0.15l-0.02-0.04 0.12 0.09-0.22-0.14h0.03l-0.27-0.22c-0.04-0.09-0.12-0.14-0.16-0.21l-0.1-0.15 0.12 0.15-0.12-0.12-0.07-0.05-0.07-0.1-0.08-0.09-0.24-0.32 0.15 0.17-0.12-0.12 0.17 0.15-0.12-0.08c-0.08-0.07-0.17-0.12-0.22-0.19l-0.1-0.12 0.22 0.19-0.24-0.16 0.1 0.07-0.1-0.07 0.12 0.07-0.12-0.03-0.07-0.04-0.05-0.03-0.1-0.05-0.09-0.04c-0.05-0.03-0.12-0.08-0.17-0.15h-0.02l0.86 0.31c-0.22 0-0.38-0.04-0.55-0.09l-0.05-0.03 0.58 0.08h-0.17c-0.29 0.04-0.63-0.08-0.87-0.29h-0.02l0.86 0.29h-0.12l1.23-0.89v0.02c-0.19 0.55-0.67 0.87-1.23 0.91h-0.09 0.05-0.12l0.86-0.33h-0.02l0.12-0.1-0.12 0.15 0.12-0.17-0.05 0.05-0.07 0.09-0.08 0.1 0.15-0.22-0.03 0.03-0.04 0.12-0.05 0.04 0.09-0.12-0.04 0.08-0.1 0.12-0.02 0.07-0.05 0.05-0.05 0.07 0.24-1.08 0.02 0.09c0.08 0.32 0 0.68-0.16 0.99l-0.08 0.05 0.12-0.17-0.02 0.05 0.1-0.32v0.05-0.26 0.09c0 0.2-0.05 0.39-0.1 0.53l-0.07 0.19 0.05-0.07-0.05 0.07-0.03 0.05c-0.02 0.15-0.09 0.27-0.16 0.36l-0.05 0.07 0.17-0.31-0.05 0.1c-0.03 0.12-0.07 0.21-0.15 0.26l-0.02 0.1c-0.02 0.02-0.07 0.09-0.12 0.12l-0.02 0.05 0.12-0.15-0.08 0.1 0.1-0.19-0.02 0.09c-0.1 0.15-0.22 0.31-0.34 0.43l-0.07 0.05-0.07 0.07 0.48-1.05v0.02c0 0.34-0.12 0.67-0.34 0.94l-0.02 0.02c-0.1 0.1-0.2 0.19-0.32 0.24l-0.02 0.03-0.1 0.07h-0.02l-0.14 0.09h-0.05l0.55-0.43-0.02 0.03c-0.1 0.16-0.24 0.28-0.41 0.36l-0.03 0.04c-0.21 0.12-0.45 0.17-0.69 0.17h-0.07l0.88-0.33-0.02 0.04c-0.26 0.24-0.6 0.36-0.94 0.36h-0.02c-0.14 0-0.31-0.04-0.46-0.09h-0.04l0.43 0.05h-0.05c-0.34 0-0.62-0.12-0.91-0.29l-0.03-0.03 0.92 0.29h-0.08c-0.33 0.03-0.62-0.09-0.88-0.29l-0.05-0.04 0.91 0.33h-0.02c-0.34 0-0.65-0.12-0.92-0.33h-0.02l-0.02-0.03 0.36 0.22-0.05-0.03 0.55 0.12h-0.02c-0.56 0-1.04-0.31-1.28-0.79l-0.02-0.05 0.58 0.6h-0.05c-0.05-0.07-0.15-0.09-0.19-0.16l-0.05-0.03c-0.29-0.24-0.51-0.62-0.51-1.05v-0.03l0.87 1.3-0.05-0.03c-0.14-0.07-0.31-0.19-0.46-0.31l-0.98-0.98 0.02 0.02-0.16-0.14 0.14 0.12-0.19-0.12h0.07l-0.22-0.12 0.08 0.02-0.22-0.12-0.12-0.09-0.24-0.15 0.17 0.1-0.07-0.03 0.14 0.05-0.1-0.02-0.04-0.03-0.1-0.07h-0.07l-0.07-0.05 0.31 0.12-0.05-0.04c-0.1 0-0.14-0.03-0.24-0.05l-0.1-0.03 0.22 0.05-0.07-0.02 0.07 0.02-0.12-0.02 0.41 0.02h-0.31l0.88-0.33v0.04c-0.26 0.2-0.6 0.32-0.93 0.32h-0.07l0.28-0.03h-0.04l0.91-0.65v0.03c-0.15 0.26-0.39 0.45-0.65 0.57l-0.07 0.03 0.21-0.12-0.04 0.02-0.08 0.07h-0.02c-0.22 0.12-0.46 0.17-0.7 0.17l-0.04 0.03 0.91-0.36-0.03 0.04-0.02 0.03 0.29-0.36-0.03 0.02c-0.24 0.46-0.72 0.72-1.22 0.72l1.13-0.6-0.03 0.03c-0.04 0.09-0.14 0.19-0.24 0.28l-0.02 0.03 0.22-0.22-0.05 0.03 0.05-0.03-0.24 0.34 0.02-0.07-0.07 0.09 0.12-0.21-0.05 0.16c-0.02 0.05-0.07 0.12-0.1 0.17l-0.09 0.12 0.05-0.05-0.17 0.27c-0.03 0.05-0.05 0.12-0.07 0.17l-0.2 0.24 0.12-0.17-0.02 0.05c-0.1 0.16-0.19 0.28-0.26 0.36l-0.1 0.09 0.05-0.05-0.07 0.08c-0.05 0.04-0.1 0.09-0.12 0.12l-0.08 0.07h-0.02l0.5-1.06c0 0.79-0.64 1.42-1.44 1.42h-0.02l1.34-0.87-0.02 0.03c-0.12 0.33-0.43 0.62-0.74 0.74l-0.08 0.03 0.36-0.2-0.02 0.03c-0.26 0.21-0.58 0.29-0.91 0.29h-0.03l1.11-0.51-0.03 0.03c-0.26 0.33-0.69 0.55-1.1 0.52h-0.12l0.94-0.33v0.02c-0.29 0.22-0.6 0.34-0.94 0.34h-0.02l0.28-0.03h-0.02c-0.12 0.03-0.22 0.03-0.34 0.03h-0.02c-0.24 0-0.48-0.07-0.67-0.15l-0.15-0.09h-0.02l-0.07-0.07c-0.07-0.03-0.15-0.08-0.24-0.15v-0.02l0.21 0.17-0.04-0.05c-0.1-0.03-0.17-0.1-0.24-0.15l-0.05-0.04h0.05l-0.08-0.03c-0.12-0.12-0.24-0.24-0.28-0.36l-0.05-0.05 0.67 0.6-0.07-0.04c-0.29-0.12-0.55-0.39-0.72-0.68v-0.07l0.36 0.48-0.05-0.02-0.07-0.07c-0.15-0.12-0.27-0.29-0.36-0.48v-0.03l-0.05-0.09v-0.05l0.74 0.77-0.04-0.03c-0.53-0.21-0.84-0.72-0.84-1.29v-0.05l0.12 0.6-0.05-0.07 0.17 0.21-0.12-0.17h-0.05l-0.03-0.09-0.04-0.07-0.05-0.05 0.05 0.05-0.08-0.08 0.58 0.48-0.1-0.04c-0.21-0.12-0.4-0.27-0.52-0.48l-0.08-0.08 0.08 0.08-0.08-0.05 0.15 0.14-0.27-0.24-0.04-0.05-0.12-0.16 0.14 0.12-0.1-0.05-0.09-0.07 0.12 0.09-0.07-0.05c-0.08-0.07-0.12-0.12-0.2-0.19l-0.04-0.05 0.43 0.32-0.05-0.03 0.53 0.12h-0.03c-0.74 0-1.36-0.62-1.36-1.41v-0.03c0-0.77 0.62-1.37 1.39-1.37 0.79 0 1.41 0.63 1.41 1.4-0.02 0.79-0.64 1.39-1.41 1.39h-0.03c-0.38 0-0.72-0.15-0.98-0.43-0.26-0.27-0.43-0.63-0.43-0.99v-0.02c0.05-0.79 0.67-1.39 1.41-1.39 0.8 0 1.42 0.64 1.42 1.41 0 0.79-0.62 1.39-1.42 1.39h-0.02c-0.34 0-0.67-0.12-0.91-0.33l-0.03-0.03 0.92 0.32h-0.08l0.58-0.08h-0.02c-0.17 0.08-0.36 0.12-0.56 0.12h-0.09 0.05-0.08 0.03-0.07l0.88-0.33c-0.26 0.24-0.6 0.33-0.93 0.33l1.29-0.88v0.04c-0.24 0.53-0.74 0.87-1.32 0.87h-0.02l1.42-1.39v0.04c0 0.39-0.2 0.77-0.48 1.04l-0.29 0.21 0.12-0.12-0.07 0.1-0.1 0.09 0.24-0.31-0.07 0.12c-0.03 0.1-0.07 0.15-0.15 0.24l-0.09 0.1 0.05-0.03-0.1 0.12 0.14-0.24-0.04 0.12-0.05 0.05-0.05 0.12 0.05-0.14-0.03 0.09c-0.02 0.05-0.04 0.12-0.09 0.17l-0.24 0.39 0.05-0.05-0.1 0.17c-0.02 0.07-0.1 0.16-0.14 0.21l-0.1 0.12-0.02 0.03-0.1 0.12h-0.02l-0.08 0.09 0.2-0.26v0.02c-0.29 0.48-0.8 0.79-1.32 0.72h-0.05l0.72-0.12h-0.03l0.72-1.08v0.03c-0.02 0.43-0.26 0.81-0.64 1.05l-0.05 0.03-0.07 0.04-0.05 0.03 0.05-0.03-0.08 0.03c-0.04 0.02-0.09 0.05-0.14 0.05l-0.07 0.04 0.65-0.48-0.05 0.03c-0.24 0.36-0.67 0.57-1.13 0.53h-0.07l1.08-0.44-0.03 0.03c-0.26 0.29-0.64 0.48-1.05 0.45h-0.05c-0.36 0-0.67-0.16-0.91-0.4l-0.03-0.03 0.68 0.36h-0.05c-0.24-0.05-0.43-0.17-0.63-0.36h-0.02l0.77 0.36h-0.03c-0.36-0.02-0.69-0.21-0.88-0.5-0.22-0.27-0.34-0.63-0.29-0.96v-0.03c0.09-0.72 0.77-1.24 1.49-1.15 0.72 0.1 1.22 0.75 1.12 1.47-0.09 0.72-0.72 1.24-1.44 1.15h-0.02c-0.38-0.03-0.72-0.24-0.94-0.58l-0.02-0.02 1.73 0.38v0.03c-0.24 0.12-0.53 0.19-0.79 0.16h-0.05c-0.72-0.07-1.23-0.69-1.15-1.41v-0.03l0.38 1.04-0.02-0.03 0.76 0.36c-0.36-0.02-0.69-0.21-0.88-0.48-0.22-0.26-0.32-0.62-0.29-0.96v-0.02l0.41 1.08-0.05-0.03 0.79 0.39h-0.02c-0.36-0.07-0.68-0.22-0.89-0.48-0.19-0.31-0.31-0.63-0.27-0.99v0.05-0.05l0.36 1.04v-0.03c-0.28-0.29-0.4-0.69-0.38-1.08v-0.02l0.17 0.84-0.63-1.03c-0.02-0.05-0.04-0.12-0.09-0.17l-0.15-0.39-0.02-0.09-0.14-0.43 0.04 0.12-0.24-0.48c-0.24-0.51-0.02-1.11 0.46-1.37 0.48-0.27 1.1-0.15 1.42 0.33z"/>
  <path transform="matrix(1.3333 0 0 -1.3333 0 1120.8)" d="m489.6 744.36 0.36-0.05h0.02l0.34-0.02h0.17l0.91 0.05h0.02l0.46 0.02h-0.12l2.57-0.02 0.91-0.03 0.02 0.03 0.87 0.02h-0.05 0.05c0.53-0.02 1.01 0.24 1.25 0.7 0.26 0.45 0.26 0.98 0 1.41-0.24 0.46-0.72 0.72-1.25 0.72h-0.05l-0.12-0.02-0.84-0.07h0.02l-0.86-0.05h-0.02l-2.6-0.22h-0.14l-0.43-0.09h0.07l-0.91-0.12h0.07l-0.34-0.03h0.03-0.36c-0.55-0.02-1.01-0.5-1.03-1.08-0.05-0.57 0.38-1.08 0.98-1.15z"/>
  <path transform="matrix(1.3333 0 0 -1.3333 0 1120.8)" d="m490.49 745.32 0.07 0.19 0.02 0.12 0.08 0.24v-0.09l0.04 0.26h0.03l0.07 0.24-0.07-0.14 0.12 0.26 0.09 0.22-0.02-0.1 0.24 0.48-0.07-0.12 0.12 0.22 0.36 0.5-0.12-0.12 0.09 0.12 0.03 0.05 0.12 0.12-0.07-0.1 0.07 0.1 0.07 0.05 0.1 0.12-0.17-0.15 0.09 0.1 0.08 0.05 0.12 0.09-0.12-0.09 0.12 0.09 0.14 0.1-0.1-0.07 0.15 0.09-0.07-0.07 0.12 0.1 0.07 0.07 0.12 0.05-0.19-0.12 0.12 0.07 0.38 0.14h-0.02l0.12 0.05-0.12-0.05 0.14 0.05h0.05l0.17 0.07-0.36-0.07h0.24l0.14 0.05 0.14 0.02h-0.12 0.24-0.24 0.39-0.12l0.17-0.02h-0.05 0.12l-0.12 0.02 0.17-0.02h-0.05l0.12-0.05-0.07 0.05 0.31-0.12-0.07 0.05 0.07-0.05-0.12 0.05 0.07-0.03-0.07 0.03 0.09-0.03-0.12 0.05 0.1-0.05 0.02-0.02 0.08-0.05 0.07-0.05 0.09-0.07-0.28 0.24 0.07-0.07 0.09-0.1 0.08-0.07-0.1 0.1 0.05-0.05 0.09-0.07-0.14 0.14 0.14-0.19 0.08-0.07 0.12-0.15-0.17 0.24 0.09-0.19 0.08-0.07 0.07-0.17-0.07 0.19 0.04-0.14 0.22-0.46-0.07 0.12 0.07-0.21v0.02l0.05-0.19-0.03 0.07 0.08-0.19 0.02-0.1 0.05-0.21-0.05 0.24 0.1-0.63-0.05 0.12v-0.02l0.05-0.05v-0.02l0.02 0.36-0.02-0.05c-0.05-0.12-0.05-0.24-0.05-0.36v-0.05l0.05 0.41v-0.07c-0.05-0.12-0.05-0.24-0.05-0.36v-0.05l0.12 0.65v-0.03c-0.03-0.07-0.05-0.12-0.05-0.19l-0.02-0.02 0.07 0.14h-0.03l-0.02-0.05-0.02-0.09 1.2 0.86h-0.05c-0.72-0.05-1.27-0.67-1.27-1.44 0-0.72 0.55-1.34 1.27-1.39h0.05c0.6-0.05 1.17 0.29 1.41 0.84l0.03 0.07-0.03-0.07v0.02c0.03 0.05 0.05 0.12 0.07 0.17l0.05 0.07-0.09-0.21v0.02c0.12 0.22 0.16 0.43 0.16 0.65v0.05l-0.04-0.34 0.02 0.07c0.02 0.1 0.02 0.22 0.02 0.29v0.05l-0.02-0.34v0.05c0.02 0.12 0.07 0.22 0.07 0.34v0.09c0 0.05 0 0.15-0.05 0.22l-0.04 0.62c0 0.1-0.03 0.15-0.08 0.24l-0.04 0.22 0.02-0.1-0.05 0.24v0.05l-0.07 0.22-0.02 0.07-0.1 0.19-0.02 0.17-0.22 0.43v0.05l-0.1 0.14c-0.02 0.05-0.04 0.12-0.09 0.17l-0.12 0.17 0.09-0.1-0.09 0.15c-0.05 0.09-0.12 0.19-0.17 0.24l-0.12 0.14 0.05-0.05-0.15 0.22c-0.04 0.05-0.09 0.07-0.14 0.14l-0.07 0.1-0.07 0.05-0.1 0.09-0.07 0.05 0.09-0.07-0.09 0.05c-0.07 0.09-0.17 0.19-0.29 0.24l-0.1 0.07 0.1-0.07-0.07 0.02h0.05l-0.1 0.07-0.12 0.05-0.1 0.07-0.04 0.03-0.1 0.02-0.24 0.14-0.1 0.03-0.33 0.09-0.15 0.03-0.12 0.02h-0.02l-0.14 0.03h-0.1l-0.14 0.04h-0.41 0.12-0.17c-0.07 0.03-0.14 0.03-0.24 0h-0.12l-0.14-0.04h-0.1l-0.14-0.03-0.12-0.02 0.07 0.02-0.12-0.02c-0.12 0-0.24-0.03-0.31-0.1l-0.17-0.02 0.09 0.02-0.14-0.05-0.1-0.04-0.14-0.05-0.38-0.19-0.08-0.03-0.14-0.07c-0.07-0.02-0.14-0.07-0.22-0.12l-0.12-0.12 0.08 0.07-0.12-0.07-0.08-0.05-0.12-0.09-0.09-0.05-0.12-0.12-0.12-0.1-0.12-0.12-0.07-0.09 0.04 0.07-0.12-0.12c-0.02-0.05-0.09-0.1-0.14-0.17l-0.1-0.14 0.03 0.07-0.07-0.12-0.08-0.1-0.09-0.12 0.05 0.03-0.1-0.12c-0.02-0.05-0.07-0.1-0.1-0.15l-0.28-0.55-0.08-0.12-0.09-0.24-0.03-0.07-0.09-0.24-0.07-0.24-0.05-0.12-0.03-0.22v0.03l-0.04-0.27-0.05-0.14-0.03-0.29v0.07l-0.02-0.26-0.02-0.1v-0.26l-0.05-0.22c0-0.55 0.36-1.03 0.91-1.1 0.53-0.12 1.08 0.17 1.25 0.67z"/>
  <path transform="matrix(1.3333 0 0 -1.3333 0 1120.8)" d="m483.38 737.21 0.08 0.02 0.02 0.05-0.24-0.14h0.02l0.15 0.07 0.07 0.05 0.05 0.02 0.05 0.05-0.08-0.07 0.1 0.07 0.12 0.07 0.05 0.05-0.67-0.19h0.04c0.15-0.03 0.34 0 0.48 0.07l0.15 0.05-0.12-0.03 0.17 0.03 0.12 0.02-0.2-0.02h0.12l0.12 0.02 0.15 0.05h-0.12l0.33 0.02h-0.14l0.29-0.02h0.29l0.28-0.05-0.09 0.05 0.29-0.07-0.08 0.02 0.27-0.05 0.09-0.02 0.32-0.05-0.22 0.05 0.26-0.07 0.03-0.03 0.31-0.07-0.1 0.05 0.72-0.29 0.08-0.02 1.36-0.41 0.27-0.1h0.09l0.24-0.07-0.12 0.05 0.22-0.07c0.1-0.03 0.14-0.05 0.24-0.05l0.24-0.05h0.24l0.24-0.02h0.05l0.53-0.03h0.12l0.36 0.03h0.04l0.36 0.07 0.34 0.02 0.34 0.05c0.04 0 0.12 0.05 0.16 0.05l0.92 0.29-0.08-0.03 0.48 0.12h-0.04l1.1 0.22h-0.07l0.45 0.05 0.82 0.12h-0.1l0.36 0.02h-0.04 0.38-0.14l0.36-0.05 0.38-0.02h0.05l0.38-0.05-0.19 0.05 0.86-0.22-0.07 0.03 1.83-0.63 2.16-0.69 0.14-0.03 0.26-0.07h-0.02l0.24-0.05h0.02l0.29-0.02c0.05-0.05 0.12-0.05 0.17-0.05h0.94c0.62 0 1.1 0.53 1.1 1.13 0 0.62-0.48 1.13-1.1 1.13h-0.94l0.19-0.03-0.29 0.05h0.05l-0.24 0.05h-0.05l-0.26 0.05 0.19-0.05-2.16 0.67-1.85 0.6-0.07 0.05-0.89 0.19c-0.04 0.05-0.12 0.05-0.16 0.05l-0.36 0.02h0.04l-0.36 0.03-0.36 0.07h-0.6l-0.38-0.05h-0.1l-0.76-0.12h-0.05l-0.43-0.05-0.08-0.02-1.1-0.22-0.02-0.02-0.48-0.1-0.08-0.02-0.88-0.29 0.16 0.05-0.33-0.05-0.31-0.05-0.36-0.07 0.07 0.05-0.36-0.05h0.12l-0.51 0.05h0.08-0.24l-0.24 0.02-0.24 0.03 0.24-0.05-0.24 0.07-0.12 0.05-0.24 0.02h0.07l-0.24 0.05-1.35 0.43 0.03-0.02-0.75 0.24-0.12 0.05-0.28 0.07v-0.05l-0.29 0.07c-0.05 0.03-0.12 0.03-0.17 0.03h-0.31 0.09l-0.28 0.02-0.08 0.05h-0.36l-0.28-0.05h-0.58l-0.14-0.02-0.32-0.05c-0.04 0-0.12-0.05-0.16-0.07l-0.17-0.03 0.09 0.03-0.12-0.05-0.14-0.05-0.12-0.05-0.12-0.07-0.02-0.02-0.17-0.05 0.33 0.07h-0.04c-0.24-0.02-0.44-0.14-0.58-0.31l-0.07-0.05 0.17 0.12-0.08-0.02c-0.09-0.05-0.14-0.15-0.21-0.22v-0.02l0.19 0.21-0.07-0.07 0.07 0.05-0.07-0.05c-0.05-0.02-0.12-0.07-0.17-0.17l-0.07-0.02-0.03-0.07c-0.28-0.34-0.28-0.84 0.03-1.18 0.31-0.31 0.81-0.36 1.17-0.07z"/>
  <path transform="matrix(1.3333 0 0 -1.3333 0 1120.8)" d="m482.26 739.85 0.26-0.24 0.05-0.05 0.14-0.1-0.12 0.1 0.1-0.07-0.12 0.14 0.05-0.07c0.02-0.05 0.07-0.12 0.12-0.14l0.07-0.1-0.1 0.12 0.17-0.24 0.1-0.12 0.04-0.07 0.08-0.1c0.04-0.07 0.09-0.09 0.14-0.14l0.24-0.22 0.12-0.09 0.22-0.12 0.07-0.05 0.05-0.03c0.31-0.14 0.67-0.12 0.96 0.08 0.26 0.19 0.43 0.52 0.4 0.86-0.02 0.36-0.24 0.65-0.55 0.79l-0.07 0.03 0.1-0.05-0.2 0.12 0.15-0.1-0.27 0.22 0.15-0.12-0.17 0.17-0.07 0.09 0.02-0.02-0.17 0.24c-0.04 0.05-0.09 0.07-0.14 0.12l-0.07 0.07 0.12-0.12-0.05 0.05c-0.02 0.05-0.07 0.09-0.12 0.12l-0.1 0.09c-0.04 0.05-0.09 0.1-0.14 0.12l-0.14 0.1-0.1 0.02-0.31 0.15c-0.41 0.19-0.87 0.05-1.08-0.31-0.24-0.36-0.17-0.87 0.17-1.13z"/>
  <path transform="matrix(1.3333 0 0 -1.3333 0 1120.8)" d="m485.69 740.93-0.1-0.19 0.05 0.09-0.1-0.14-0.04-0.05-0.1-0.17 0.05 0.05-0.12-0.12h0.02l-0.29-0.34-0.38-0.48-0.02-0.04-0.05-0.08c-0.31-0.43-0.19-1.03 0.24-1.34 0.43-0.29 1.03-0.19 1.32 0.24l0.07 0.1-0.02-0.03 0.36 0.51v-0.03l0.26 0.36 0.02 0.05 0.1 0.14 0.05 0.08 0.07 0.14-0.02-0.05 0.09 0.15c0.05 0.12 0.12 0.24 0.15 0.36l0.02 0.24c0.05 0.38-0.19 0.79-0.6 0.91-0.38 0.17-0.82 0-1.03-0.36z"/>
 </g>
</svg>
