<?xml version="1.0" encoding="UTF-8" standalone="no"?>
<!-- Created with Inkscape (http://www.inkscape.org/) -->

<svg
   width="37.423603mm"
   height="37.447659mm"
   viewBox="0 0 37.423603 37.447658"
   version="1.1"
   id="svg1"
   sodipodi:docname="hieroglyphs_favicon.svg"
   inkscape:version="1.4.3 (0d15f75, 2025-12-25)"
   xml:space="preserve"
   inkscape:export-filename="textless_shot_favicon.svg"
   inkscape:export-xdpi="891.58972"
   inkscape:export-ydpi="891.58972"
   xmlns:inkscape="http://www.inkscape.org/namespaces/inkscape"
   xmlns:sodipodi="http://sodipodi.sourceforge.net/DTD/sodipodi-0.dtd"
   xmlns="http://www.w3.org/2000/svg"
   xmlns:svg="http://www.w3.org/2000/svg"><sodipodi:namedview
     id="namedview1"
     pagecolor="#ffffff"
     bordercolor="#000000"
     borderopacity="0.25"
     inkscape:showpageshadow="2"
     inkscape:pageopacity="0.0"
     inkscape:pagecheckerboard="0"
     inkscape:deskcolor="#d1d1d1"
     inkscape:document-units="mm"
     inkscape:zoom="4"
     inkscape:cx="11.875"
     inkscape:cy="49.625"
     inkscape:window-width="1920"
     inkscape:window-height="1191"
     inkscape:window-x="-9"
     inkscape:window-y="-9"
     inkscape:window-maximized="1"
     inkscape:current-layer="layer1" /><defs
     id="defs1"><rect
       x="45.817131"
       y="198.94279"
       width="498.21906"
       height="393.37115"
       id="rect13" /><rect
       x="54.859985"
       y="124.18854"
       width="705.9455"
       height="55.462841"
       id="rect12" /><linearGradient
       id="swatch3"
       inkscape:swatch="solid"><stop
         style="stop-color:#ffffff;stop-opacity:1;"
         offset="0"
         id="stop3" /></linearGradient><linearGradient
       id="swatch1"
       inkscape:swatch="solid"><stop
         style="stop-color:#ffffff;stop-opacity:0;"
         offset="0"
         id="stop1" /></linearGradient><rect
       x="185.43365"
       y="121.06473"
       width="99.750519"
       height="105.7185"
       id="rect2" /><rect
       x="113.33711"
       y="59.079983"
       width="113.33711"
       height="88.01712"
       id="rect3" /><rect
       x="295.39993"
       y="86.811401"
       width="55.764267"
       height="76.562836"
       id="rect1" /><rect
       x="45.817131"
       y="198.94279"
       width="650.88171"
       height="243.32961"
       id="rect13-4" /><rect
       x="45.817131"
       y="198.94279"
       width="516.1759"
       height="352.4584"
       id="rect13-1" /><rect
       x="54.859985"
       y="124.18854"
       width="705.9455"
       height="71.137123"
       id="rect12-1" /><rect
       x="255.61136"
       y="109.71997"
       width="270.07993"
       height="314.69135"
       id="rect1-4" /><rect
       x="255.61136"
       y="109.71997"
       width="270.07993"
       height="314.69135"
       id="rect1-3" /></defs><g
     inkscape:label="Layer 1"
     inkscape:groupmode="layer"
     id="layer1"
     transform="translate(-86.231026,-24.33029)"><path
       style="fill:#ff6500;fill-opacity:1;stroke-width:0.293706"
       id="path2"
       d="m 123.65463,43.054118 c 0,16.68208 -2.04043,18.723829 -18.7118,18.723829 -16.671365,0 -18.711804,-2.041749 -18.711804,-18.723829 0,-16.68209 2.040439,-18.723828 18.711804,-18.723828 16.67137,0 18.7118,2.041738 18.7118,18.723828 z" /><text
       xml:space="preserve"
       transform="scale(0.26458333)"
       id="text3"
       style="font-style:normal;font-variant:normal;font-weight:normal;font-stretch:normal;font-size:32px;line-height:0.7;font-family:'Bell MT';-inkscape-font-specification:'Bell MT';text-align:start;letter-spacing:2.52px;word-spacing:0px;writing-mode:lr-tb;direction:ltr;white-space:pre;shape-inside:url(#rect3);display:inline;fill:#000000" /><path
       sodipodi:nodetypes="ccccccccccc"
       id="path4075-8"
       d="m 106.30866,44.619985 c 0.26866,0.21992 -1.95937,7.594736 -2.89837,7.600158 -3.34227,0.06256 -5.384852,-0.360595 -6.492641,1.944636 H 112.056 c -0.72054,-0.70945 -1.43635,-1.175267 -2.31998,-1.473209 0.37808,-3.499309 1.25359,-4.754295 1.98618,-6.644246 l -3.80569,-0.176691 c 1.38185,1.517807 2.19245,5.944837 -1.13473,6.364454 -0.42035,-0.01932 -0.78183,-0.04148 -1.2725,-0.04431 0.71232,-2.399658 1.55598,-4.043194 2.40723,-6.32014 z"
       style="fill:#ffffff;fill-opacity:1;fill-rule:evenodd;stroke:#ffffff;stroke-width:0.501784;stroke-opacity:1" /><path
       sodipodi:nodetypes="ccccccc"
       id="path2841-5"
       d="m 105.44923,43.721727 c 1.82789,2.245266 4.07974,2.826347 9.25628,1.850069 2.55881,-0.585042 1.16572,-1.807876 0.50784,-2.616043 l -8.25233,-9.141254 c -2.25761,-4.264765 -3.02534,-4.696879 -8.452931,-2.468533 1.18098,0.899624 2.247721,0.814909 3.748951,5.585514 0.20861,0.611017 1.8127,4.264813 3.19219,6.790247 z"
       style="fill:none;stroke:#ffffff;stroke-width:1.21392;stroke-linejoin:round;stroke-miterlimit:4;stroke-dasharray:none;stroke-opacity:1" /><path
       sodipodi:nodetypes="ccc"
       id="path3617-7"
       d="m 110.35676,37.807271 c -2.40206,-0.120683 -2.38709,0.743463 -2.39665,2.859843 -4.45556,-2.179966 -3.37368,-4.197702 -1.95647,-4.668937"
       style="fill:none;stroke:#ffffff;stroke-width:1.05367;stroke-linecap:round;stroke-linejoin:miter;stroke-miterlimit:4;stroke-dasharray:none;stroke-opacity:1" /><path
       sodipodi:nodetypes="csccsc"
       id="path3704-8"
       d="m 102.45025,31.233954 c -0.26547,0 -0.476,0.171081 -0.476,0.405428 0,0.08075 0.0247,0.23873 0.0667,0.305815 0.34702,0.138599 0.73392,0.066 1.11959,0 0.0827,-0.06751 0.15021,-0.13761 0.15021,-0.220959 0,-0.234346 -0.59508,-0.490284 -0.86056,-0.490284 z"
       style="fill:#ffffff;fill-opacity:1;fill-rule:evenodd;stroke:#ffffff;stroke-width:0.501784;stroke-opacity:1" /></g></svg>
