<svg width="46.151" height="33.294" version="1.1" viewBox="0 0 46.151 33.294" xmlns="http://www.w3.org/2000/svg">
 <g transform="translate(-524.38 -107.51)">
  <path transform="matrix(1.3333 0 0 -1.3333 0 1120.8)" d="m394.15 735.05 0.24-0.03c0.12-0.02 0.24 0 0.36 0.05l0.17 0.05h-0.05l0.19 0.05 0.2 0.05 0.12 0.04 0.16 0.08-0.04-0.03 0.19 0.07 0.07 0.03 0.17 0.09 0.09 0.05 0.34 0.19 0.12 0.1 0.1 0.1 0.07 0.04v-0.02l0.09 0.1c0.05 0.02 0.1 0.07 0.15 0.12l0.07 0.09v0.03l0.07 0.07 0.1 0.12 0.05 0.09-0.12-0.16 0.09 0.09c0.07 0.05 0.12 0.15 0.17 0.22l0.07 0.12-0.12-0.17 0.05 0.07c0.1 0.1 0.14 0.22 0.19 0.31l0.05 0.15-0.14-0.27 0.09 0.1c0.05 0.1 0.07 0.17 0.12 0.24l0.1 0.26 0.02 0.03 0.07 0.29 0.05 0.07 0.07 0.29 0.05 0.26 0.03 0.1 0.04 0.31v0.02l0.05 0.29 0.03 0.29 0.02 0.09v0.32l0.02 0.02v0.29l-0.02 0.12-0.07 0.77v0.07l-0.1 0.6-0.12 0.57-0.02 0.1-0.15 0.55-0.04 0.07-0.44 1.28v0.02l-0.96 2.42-0.09 0.24v-0.02l-0.1 0.29 0.03-0.05-0.1 0.26 0.05-0.16-0.07 0.26-0.05 0.26v-0.02l-0.07 0.29 0.04-0.12-0.04 0.29v-0.05l-0.03 0.26 0.03-0.07-0.03 0.26v0.03l-0.02 0.29v-0.12l0.02 0.26-0.02-0.07 0.05 0.26v-0.07l0.04 0.24 0.1 0.7-0.05-0.22 0.12 0.36v-0.02l0.12 0.36v-0.03l0.12 0.34-0.05-0.12 0.39 0.77-0.03-0.08 0.68 1.13 0.45 0.77v-0.02l0.1 0.16 0.02 0.03 0.12 0.19-0.05-0.02 0.12 0.16 0.05 0.08 0.12 0.19 0.05 0.14 0.1 0.19v0.03l0.09 0.21 0.07 0.24v0.03l0.17 0.48c0.03 0.12 0.05 0.21 0.05 0.31l0.02 0.12-0.04-0.26 0.02 0.12c0.02 0.07 0.05 0.16 0.05 0.26l0.02 0.12v0.12-0.07 0.12c0.03 0.09 0.03 0.17 0 0.26v0.12-0.09 0.43l-0.05 0.12v0.05l-0.02 0.12v0.04l-0.02 0.12-0.03 0.08-0.05 0.12-0.02 0.12-0.05 0.12 0.03-0.12-0.03 0.12-0.02 0.12-0.1 0.24c-0.05 0.12-0.12 0.26-0.24 0.36l-0.05 0.07 0.15-0.19-0.03 0.04c-0.07 0.1-0.14 0.2-0.21 0.27l-0.05 0.05 0.07-0.05-0.07 0.05 0.07-0.08-0.07 0.08c-0.05 0.07-0.12 0.16-0.19 0.21l-0.07 0.05 0.16-0.14-0.07 0.07c-0.05 0.07-0.12 0.12-0.19 0.17l-0.07 0.07 0.14-0.12-0.05 0.05c-0.14 0.12-0.28 0.21-0.45 0.28l-0.07 0.03 0.4-0.24-0.09 0.07c-0.07 0.07-0.17 0.14-0.27 0.17l-0.07 0.05 0.1-0.05-0.15 0.09c-0.09 0.03-0.14 0.08-0.21 0.1l-0.17 0.05c-0.65 0.24-1.37-0.07-1.61-0.72-0.26-0.63 0.07-1.35 0.7-1.61l0.17-0.07-0.2 0.09 0.15-0.09 0.09-0.03 0.08-0.04-0.29 0.19 0.09-0.07c0.12-0.12 0.24-0.2 0.39-0.24l0.07-0.05-0.46 0.31 0.08-0.07c0.02-0.03 0.07-0.07 0.12-0.12l0.07-0.03-0.19 0.17 0.04-0.07c0.05-0.05 0.1-0.1 0.15-0.14l0.05-0.05-0.2 0.21 0.05-0.04 0.07-0.08 0.05-0.09 0.07-0.05 0.05-0.05-0.21 0.27 0.04-0.05c0.03-0.07 0.08-0.15 0.15-0.22l0.05-0.07-0.22 0.38 0.1-0.24-0.05 0.1 0.05-0.12 0.02-0.1 0.05-0.12-0.03 0.12 0.03-0.12-0.03 0.08 0.03-0.12v0.04l0.02-0.16-0.02 0.07 0.02-0.12v0.09-0.12 0.08-0.2l0.03-0.12v0.24l-0.03-0.14v-0.07l-0.02-0.12v-0.12l0.05 0.26-0.05-0.12c0-0.09-0.03-0.17-0.03-0.26v-0.12l0.05 0.29-0.17-0.48 0.03 0.04-0.07-0.21-0.08-0.19v0.04l-0.07-0.21 0.07 0.17-0.12-0.22 0.05 0.07-0.09-0.17-0.05-0.04-0.12-0.2 0.02 0.03-0.12-0.19-0.02-0.03-0.43-0.74-0.68-1.13-0.04-0.07-0.39-0.79-0.05-0.12-0.14-0.36v-0.03l-0.12-0.33-0.12-0.36c-0.02-0.08-0.05-0.12-0.05-0.22l-0.12-0.65v-0.02l-0.02-0.27-0.03-0.09-0.02-0.27v-0.45l0.02-0.27v0.03-0.31l0.03-0.29v-0.05l0.05-0.26 0.02-0.12 0.05-0.27h0.02l0.07-0.26 0.05-0.24 0.05-0.17 0.1-0.24v-0.02l0.12-0.27 0.09-0.24v0.03l0.99-2.4v0.02l0.43-1.22v0.02l0.17-0.55-0.03 0.09 0.15-0.57v0.05l0.12-0.58-0.03 0.1 0.1-0.77v0.05-0.29 0.05l0.02-0.32v0.1l-0.02-0.29v-0.29 0.03l-0.03-0.29v0.1l-0.04-0.29-0.05-0.27 0.02 0.08-0.07-0.29 0.02 0.07-0.09-0.24 0.09 0.19-0.04-0.09c-0.08-0.1-0.1-0.17-0.12-0.24l-0.05-0.15 0.17 0.31-0.08-0.09c-0.04-0.05-0.07-0.1-0.09-0.17l-0.07-0.12 0.16 0.24-0.09-0.12c-0.05-0.02-0.07-0.1-0.12-0.14l-0.05-0.12 0.07 0.12-0.07-0.1 0.02 0.02-0.09-0.09 0.14 0.12-0.09-0.07-0.05-0.03-0.07-0.09-0.1-0.1 0.17 0.14-0.34-0.21 0.07 0.05-0.16-0.1 0.04 0.02-0.16-0.07-0.08-0.02-0.14-0.07 0.12 0.02-0.19-0.05-0.19-0.07-0.05-0.02-0.15-0.05 0.24 0.05-0.24-0.03c-0.48-0.07-0.84-0.48-0.81-0.93 0.02-0.51 0.38-0.87 0.86-0.89z"/>
  <path transform="matrix(1.3333 0 0 -1.3333 0 1120.8)" d="m398.3 736.85-0.21 0.05 0.21-0.08-0.16 0.08h-0.03l-0.38 0.14 0.12-0.05-0.15 0.07-0.07 0.03-0.17 0.07 0.05-0.02-0.17 0.09 0.08-0.05-0.34 0.22 0.17-0.12-0.1 0.1-0.09 0.07-0.03 0.02-0.09 0.1 0.12-0.15-0.08 0.1h0.03l-0.07 0.07 0.07-0.12-0.05 0.1c-0.02 0.07-0.07 0.14-0.12 0.19l-0.1 0.1 0.15-0.24-0.05 0.12c-0.02 0.07-0.07 0.12-0.1 0.19l-0.07 0.07 0.15-0.31-0.03 0.14c-0.02 0.1-0.05 0.17-0.09 0.24l-0.08 0.1 0.1-0.19-0.1 0.26 0.03-0.07-0.07 0.29v-0.1l-0.05 0.29-0.03 0.26v-0.09l-0.02 0.28v-0.02l-0.02 0.29v0.29-0.1 0.29-0.03l0.02 0.32v-0.1l0.1 0.79-0.03-0.09 0.15 0.57-0.03-0.02 0.15 0.55-0.05-0.07 0.19 0.55-0.02-0.05 0.45 1.25v-0.05l0.99 2.38 0.09 0.24 0.12 0.26v0.03l0.1 0.24 0.05 0.14 0.04 0.29 0.08 0.24 0.07 0.29 0.02 0.12 0.03 0.26v0.05l0.04 0.26v0.34-0.05l0.03 0.29v0.43l-0.03 0.29v0.07l-0.04 0.26v0.03l-0.12 0.67c0 0.05-0.03 0.12-0.05 0.19l-0.12 0.34v0.02l-0.12 0.34v0.02l-0.12 0.36-0.07 0.15-0.39 0.76-0.05 0.08-0.67 1.12-0.45 0.75v0.05l-0.12 0.16-0.12 0.2v0.02l-0.12 0.17 0.04-0.07-0.12 0.19 0.08-0.12-0.08 0.19v-0.05l-0.07 0.22v-0.03l-0.07 0.22 0.02-0.05-0.16 0.51 0.04-0.32v0.12c0 0.1-0.02 0.2-0.04 0.27l-0.05 0.12 0.05-0.27v0.32l-0.03 0.14v-0.24l0.03 0.12v0.22-0.1 0.12-0.1 0.12-0.04l0.02 0.12v-0.03l0.02 0.12-0.02-0.07 0.02 0.12-0.02-0.1 0.05 0.1 0.02 0.1 0.03 0.12-0.03-0.1 0.1 0.24-0.24-0.38 0.07 0.07c0.05 0.07 0.1 0.14 0.14 0.21l0.03 0.05-0.19-0.26 0.04 0.05 0.08 0.07 0.04 0.07 0.08 0.07 0.04 0.07-0.21-0.21 0.05 0.05c0.07 0.04 0.12 0.07 0.16 0.12l0.05 0.07-0.19-0.17 0.07 0.05c0.05 0.05 0.1 0.07 0.12 0.12l0.07 0.05-0.45-0.29 0.07 0.02c0.14 0.07 0.26 0.15 0.38 0.24l0.08 0.07-0.27-0.19 0.07 0.03 0.1 0.07 0.14 0.09-0.19-0.09 0.15 0.05c0.64 0.26 0.96 0.98 0.72 1.63s-0.96 0.96-1.61 0.72l-0.17-0.07c-0.07-0.03-0.14-0.05-0.22-0.1l-0.14-0.1 0.1 0.05-0.08-0.02c-0.09-0.05-0.19-0.12-0.26-0.19l-0.1-0.08 0.41 0.24-0.07-0.02c-0.17-0.07-0.31-0.14-0.46-0.29l-0.04-0.05 0.14 0.12-0.07-0.04c-0.07-0.05-0.15-0.12-0.19-0.2l-0.08-0.04 0.15 0.12-0.03-0.05c-0.09-0.05-0.16-0.12-0.21-0.19l-0.05-0.08 0.05 0.08-0.05-0.08 0.05 0.08-0.05-0.08c-0.07-0.07-0.14-0.16-0.22-0.24l-0.02-0.07 0.14 0.19-0.04-0.04c-0.12-0.12-0.2-0.24-0.24-0.39l-0.12-0.36-0.05-0.12 0.05 0.1-0.05-0.1-0.07-0.21-0.03-0.1-0.02-0.12v-0.02l-0.03-0.15v-0.05l-0.02-0.12-0.02-0.09v-0.31 0.07-0.12c-0.03-0.07 0-0.15 0-0.24v-0.15 0.08-0.12l0.02-0.12c0-0.08 0.02-0.17 0.05-0.27l0.02-0.12-0.05 0.27 0.03-0.12c0-0.1 0.02-0.2 0.05-0.29l0.16-0.48v-0.07l0.08-0.2v-0.02l0.09-0.22 0.03-0.02 0.07-0.19 0.05-0.15 0.12-0.19 0.04-0.07 0.12-0.17-0.02 0.03 0.12-0.2 0.1-0.19v0.03l0.43-0.77h0.02l0.67-1.11-0.04 0.08 0.4-0.8-0.04 0.15 0.12-0.36v0.02l0.12-0.33 0.12-0.36-0.05 0.21 0.09-0.67 0.05-0.26v0.07l0.03-0.27v0.08-0.27 0.12-0.57 0.07l-0.05-0.27 0.02 0.03-0.05-0.27 0.03 0.12-0.05-0.26-0.07-0.24-0.05-0.26 0.05 0.14-0.1-0.24h0.03l-0.12-0.24-0.08-0.24-0.96-2.4v-0.05l-0.45-1.27-0.03-0.07-0.14-0.55-0.02-0.1-0.12-0.55v-0.03l-0.08-0.57-0.02-0.07-0.07-0.8-0.03-0.12 0.03-0.28v-0.41l0.05-0.31 0.04-0.29v-0.03l0.03-0.28 0.05-0.12 0.04-0.27 0.08-0.26 0.04-0.1 0.08-0.26 0.02-0.05 0.1-0.26c0.04-0.08 0.07-0.15 0.12-0.22l0.07-0.12-0.12 0.26 0.05-0.14c0.04-0.12 0.09-0.22 0.19-0.31l0.07-0.07-0.14 0.19 0.07-0.12c0.05-0.1 0.09-0.17 0.17-0.24l0.07-0.07-0.12 0.14 0.07-0.1 0.1-0.12 0.07-0.09 0.07-0.07c0.05-0.05 0.1-0.1 0.14-0.15l0.12-0.07h-0.04l0.09-0.07-0.02 0.02 0.12-0.09 0.12-0.1 0.33-0.19 0.1-0.05 0.17-0.07 0.07-0.05 0.19-0.07-0.05 0.02 0.17-0.07 0.12-0.05 0.19-0.05 0.2-0.04h-0.05l0.17-0.05c0.12-0.05 0.24-0.05 0.36-0.05l0.24 0.02c0.48 0.03 0.84 0.41 0.86 0.89 0.02 0.46-0.34 0.89-0.82 0.94z"/>
  <path transform="matrix(1.3333 0 0 -1.3333 0 1120.8)" d="m405.38 754.94 0.29 0.44 0.03 0.04 0.24 0.36-0.05-0.07 0.26 0.34 0.72 0.96c0.15 0.19 0.22 0.41 0.24 0.62v0.03l-0.53-0.89h0.05c0.29 0.24 0.48 0.57 0.51 0.96l0.02 0.02-0.02-0.05v0.03l-1.42-1.13h0.02c0.32-0.02 0.65 0.05 0.92 0.22v0.04c0.31 0.2 0.5 0.51 0.55 0.87v0.02l-1.42-1.13c0.31-0.02 0.65 0.05 0.91 0.24l0.03 0.03c0.31 0.21 0.5 0.57 0.55 0.93v0.03c0.05 0.72-0.48 1.37-1.18 1.44-0.72 0.05-1.36-0.48-1.44-1.18-0.07-0.72 0.44-1.37 1.16-1.44h0.04l-0.88 0.46h0.02c0.24-0.31 0.6-0.48 0.98-0.48 0.36 0 0.75 0.17 1.01 0.43v0.02l-1.1-0.4h0.02c0.72-0.08 1.37 0.4 1.44 1.12v0.03l-1.44-1.15h0.05c0.31-0.05 0.65 0.04 0.91 0.24l0.03 0.02-1.08-0.22h0.04c0.36-0.09 0.75 0 1.06 0.2l0.02 0.04-0.84-0.26h0.08l-1.04 0.58 0.03-0.05c0.24-0.34 0.62-0.55 1.03-0.55h0.05l-1.15 0.74v-0.02c0.14-0.29 0.36-0.51 0.64-0.63l0.05-0.02-0.24 0.12 0.05-0.03 0.1-0.04 0.02-0.03-0.05 0.03 0.05-0.03-0.58 1.25v-0.02c-0.04-0.51 0.2-1.01 0.63-1.28l0.05-0.02c0.16-0.12 0.38-0.19 0.6-0.22h0.02l-1.13 0.84 0.03-0.07c0.04-0.09 0.09-0.21 0.16-0.31l0.08-0.07h-0.03l0.12-0.12-0.02 0.02 0.09-0.12-0.14 0.22 0.1-0.17 0.02-0.07 0.22-0.39-0.08 0.2 0.03-0.1c0.02-0.07 0.05-0.1 0.07-0.14l0.07-0.12-0.02 0.04 0.05-0.12c0.04-0.09 0.09-0.16 0.12-0.24l0.12-0.12 0.07-0.09-0.15 0.24 0.05-0.12c0.05-0.12 0.12-0.24 0.22-0.34l0.17-0.17c0.04-0.04 0.09-0.09 0.12-0.14l0.26-0.22-0.5 1.08v-0.02c0-0.36 0.14-0.72 0.4-0.98 0.27-0.27 0.63-0.41 0.99-0.44h0.02l-1.29 0.92 0.02-0.05c0.19-0.53 0.72-0.87 1.3-0.89h0.02l-0.89 0.34v-0.03c0.27-0.21 0.58-0.33 0.91-0.33h0.08-0.03 0.12l-0.53 0.12c0.17-0.08 0.36-0.12 0.53-0.12h0.07c0.34 0 0.65 0.12 0.92 0.31l0.02 0.02-0.91-0.31h0.02c0.77-0.02 1.39 0.62 1.39 1.37v0.05l-1.39-1.4h0.03c0.76 0 1.39 0.63 1.41 1.4v0.02c0 0.77-0.62 1.39-1.39 1.42-0.77 0-1.42-0.63-1.42-1.4 0-0.79 0.6-1.41 1.4-1.41h0.02c0.19 0 0.36 0.02 0.55 0.09l0.05 0.03c0.17 0.07 0.31 0.17 0.43 0.31l0.07 0.05-0.19-0.15 0.07 0.03 0.1 0.09 0.07 0.05v0.03l0.1 0.04c0.05 0.05 0.09 0.1 0.12 0.15l0.12 0.12-0.05-0.07 0.24 0.24c0.05 0.04 0.1 0.09 0.12 0.16l0.07 0.05 0.05 0.07 0.05 0.08-0.55-0.48 0.09 0.04c0.22 0.12 0.41 0.29 0.55 0.51l0.05 0.09 0.05 0.03 0.02 0.07-0.02-0.07 0.02 0.07 0.12 0.17c0.05 0.05 0.1 0.12 0.12 0.19l0.03 0.05c0.09 0.19 0.14 0.38 0.14 0.6v0.07l-0.89-1.3 0.05 0.03c0.36 0.14 0.65 0.41 0.77 0.77l0.02 0.07-0.02-0.1 0.02 0.05-0.36-0.46 0.05 0.03 0.05 0.05c0.14 0.12 0.26 0.28 0.36 0.48l0.02 0.04-0.74-0.69 0.07 0.02c0.27 0.1 0.51 0.31 0.65 0.58l0.02 0.02-0.28-0.33 0.04 0.04h0.03l-0.22-0.12 0.07 0.03c0.08 0.05 0.15 0.09 0.22 0.14l0.02 0.03-0.21-0.15 0.07 0.03 0.12 0.07-0.7-0.17h0.05-0.02 0.05l-0.29 0.02h0.05c0.09-0.02 0.19-0.02 0.28-0.02l0.03-0.02-0.91 0.36 0.02-0.03c0.26-0.21 0.58-0.33 0.89-0.33h0.09l-1.08 0.52v-0.02c0.29-0.34 0.7-0.55 1.13-0.55h0.03l-0.92 0.36v-0.03c0.12-0.09 0.24-0.16 0.39-0.24h0.07l-0.77 0.8v-0.05c0.19-0.53 0.72-0.89 1.32-0.91 0.79 0 1.44 0.62 1.44 1.41s-0.6 1.42-1.39 1.42c-0.79 0.02-1.44-0.6-1.44-1.39 0-0.44 0.17-0.84 0.5-1.11v-0.02h0.03l0.07-0.05-0.14 0.12 0.09-0.1 0.05-0.04 0.05-0.08-0.27 0.39 0.05-0.07c0.03-0.08 0.07-0.15 0.12-0.2l0.17-0.24-0.12 0.17 0.14-0.29 0.05-0.04 0.07-0.15-0.07 0.17 0.05-0.14c0.02-0.08 0.07-0.15 0.12-0.22l0.07-0.1 0.05-0.09 0.24-0.34 0.02-0.05 0.05-0.02c0.05-0.07 0.12-0.14 0.19-0.19l0.03-0.03-0.27 0.27 0.05-0.07c0.29-0.36 0.7-0.58 1.15-0.58h0.05l-1.25 0.7 0.05-0.05c0.07-0.15 0.17-0.27 0.29-0.36l0.05-0.03 0.02-0.02c0.24-0.22 0.58-0.34 0.91-0.34h0.05l-0.69 0.2 0.02-0.05-0.05 0.05 0.05-0.03c0.07-0.05 0.12-0.07 0.19-0.09l0.05-0.05-0.65 0.6v-0.03c0.19-0.33 0.55-0.57 0.94-0.67h0.05c0.09-0.02 0.19-0.02 0.28-0.02h0.1l-0.94 0.33 0.03-0.02c0.26-0.22 0.57-0.34 0.93-0.34h0.08-0.15 0.07c0.17-0.02 0.29 0 0.44 0l0.09 0.03 0.07 0.02 0.1 0.03c0.07 0 0.14 0.04 0.22 0.07l0.09 0.05-0.21-0.08h0.09c0.1 0.03 0.22 0.08 0.31 0.15l0.1 0.05-0.05-0.03 0.1 0.03-0.07-0.03 0.09 0.05 0.15 0.07 0.07 0.05c0.07 0.02 0.09 0.05 0.14 0.1l0.24 0.16-0.12-0.07 0.24 0.15 0.05 0.04 0.19 0.12 0.05 0.03 0.17 0.12 0.14 0.14 0.17 0.15 0.41 0.43h0.02l0.55 0.57-0.43-0.28h0.05c0.5 0.24 0.84 0.76 0.84 1.32v0.02l-0.48-1.08 0.02 0.02-0.21-0.16 0.02 0.02c0.27 0.14 0.46 0.36 0.58 0.62l0.02 0.05-1.25-0.81h0.03c0.19 0 0.36 0.04 0.55 0.12l0.02 0.02c0.15 0.05 0.27 0.14 0.36 0.22l0.05 0.04-0.89-0.33h0.03c0.33 0 0.67 0.12 0.91 0.33l0.02 0.03-0.91-0.34h0.05-0.02 0.04c0.34 0 0.65 0.12 0.92 0.34l0.02 0.02-0.91-0.33h0.05c0.14 0 0.28 0.02 0.45 0.07l0.05 0.02-0.46-0.07h0.08l-0.92 0.31 0.05-0.02h-0.02l0.02-0.03c0.27-0.21 0.6-0.33 0.91-0.33h0.1l-0.7 0.19 0.03-0.02-0.41 0.36 0.02-0.05c0.15-0.19 0.34-0.31 0.56-0.41l0.04-0.02-0.14 0.07 0.05-0.03-0.05 0.03 0.02-0.03-0.28 0.27 0.02-0.05-0.36 0.91v-0.02c0.02-0.41 0.19-0.79 0.5-1.06l0.1-0.05v-0.02l0.05-0.05-0.34 0.43 0.03-0.07c0.02-0.05 0.04-0.09 0.09-0.14l0.05-0.07c0.02-0.05 0.07-0.1 0.12-0.15l0.02-0.05-0.12 0.15 0.05-0.07-0.14 0.28 0.05-0.09c0.04-0.12 0.09-0.19 0.16-0.31l0.03-0.05-0.17 0.36v-0.07l0.02-0.08 0.03-0.04 0.07-0.17-0.1 0.48v-0.1c0-0.09 0.03-0.19 0.05-0.29v-0.04c0.05-0.12 0.07-0.22 0.12-0.32l0.05-0.07c0.02-0.05 0.05-0.09 0.07-0.14l0.07-0.07-0.24 0.98-0.02-0.07c-0.05-0.39 0.07-0.77 0.31-1.08l0.05-0.05-0.05 0.05 0.05-0.05-0.12 0.17 0.07-0.1c0.03-0.05 0.05-0.12 0.1-0.17l0.02-0.04-0.05 0.07 0.03-0.03c0.05-0.07 0.07-0.12 0.12-0.16l0.07-0.08-0.07 0.08 0.05-0.05 0.09-0.12 0.24-0.24 0.05-0.03c0.24-0.21 0.55-0.31 0.86-0.28h0.17l-1.27 0.81v-0.02c0.22-0.51 0.72-0.84 1.27-0.84h0.12-0.02 0.02c0.34 0 0.65 0.12 0.89 0.33v0.03l-0.84-0.34h0.02-0.02l0.05 0.03h0.09c0.17 0 0.32 0.04 0.46 0.09l0.05 0.03-0.48-0.12h0.02c0.31 0.02 0.6 0.12 0.84 0.33l0.03 0.03-0.22-0.17 0.07 0.05-0.07-0.03 0.07 0.03-0.05-0.03 0.12 0.07 0.15 0.05 0.09 0.07 0.08 0.05 0.21 0.15c0.1 0.04 0.17 0.12 0.24 0.19l0.1 0.12-0.22-0.19 0.12 0.07c0.07 0.05 0.12 0.09 0.17 0.14l0.12 0.1c0.05 0.07 0.12 0.12 0.17 0.19l0.24 0.34-0.05-0.08 0.1 0.12-0.05-0.07 0.09 0.12c0.05 0.05 0.1 0.1 0.12 0.15l0.1 0.12-0.19-0.2 0.24 0.22 0.19 0.17 0.12 0.09 0.05 0.05-0.15-0.14 0.03 0.05 0.09 0.07 0.05 0.07c0.07 0.07 0.12 0.14 0.17 0.24l0.05 0.02-0.65-0.52h0.07c0.17 0.07 0.31 0.19 0.43 0.31l0.05 0.05-0.43-0.29h0.05l0.12 0.07 0.12 0.05-0.65-0.15h0.05c0.31 0 0.6 0.1 0.84 0.32h0.02l-0.86-0.32h0.07l-0.86 0.32h0.02c0.24-0.22 0.55-0.32 0.86-0.32h0.03l-0.84 0.32v-0.03l0.02-0.02c0.24-0.19 0.53-0.31 0.84-0.31h0.05l-0.84 0.31 0.02-0.03-0.45 1.04v-0.05c0-0.72 0.57-1.32 1.32-1.32h0.02l-0.86 0.31 0.02-0.02-0.48 1.03v-0.03c0-0.74 0.6-1.32 1.35-1.32h0.02c0.53 0 1.01 0.32 1.22 0.8 0.22 0.5 0.1 1.08-0.28 1.46-0.39 0.38-0.94 0.5-1.44 0.29-0.51-0.22-0.82-0.7-0.82-1.23v-0.04c0-0.36 0.12-0.7 0.38-0.96 0.27-0.24 0.58-0.39 0.94-0.39h0.02l-1.1 0.6 0.1-0.17c0.02-0.04 0.07-0.09 0.12-0.16l0.09-0.08-0.14 0.15 0.07-0.07v-0.03l0.1-0.12-0.03 0.03 0.07-0.1 0.05-0.1v0.03l0.07-0.12-0.14 0.29 0.12-0.32v0.03-0.07l0.05-0.08 0.02-0.04-0.07 0.16 0.02-0.04 0.05-0.2c0.03-0.04 0.05-0.12 0.07-0.16l0.05-0.08c0.07-0.16 0.19-0.31 0.34-0.4l0.02-0.05-0.43 0.69 0.02-0.04c0.03-0.17 0.1-0.29 0.17-0.44l0.07-0.07-0.04 0.07 0.02-0.04-0.05 0.07 0.05-0.07c0.07-0.15 0.19-0.29 0.31-0.41l0.12-0.07c0.24-0.22 0.53-0.32 0.84-0.32h0.05c0.72 0 1.32 0.6 1.32 1.32s-0.6 1.32-1.34 1.32c-0.72 0-1.32-0.6-1.32-1.32v-0.04c0-0.48 0.26-0.92 0.67-1.16h0.05l-0.22 0.12h0.05c0.24-0.21 0.53-0.33 0.84-0.33h0.02l-1.03 0.53v-0.05c0.26-0.31 0.65-0.51 1.06-0.51h0.07l-1.35 1.32c0.03-0.74 0.6-1.32 1.35-1.32h0.02l-1.22 0.82 0.02-0.02c0.19-0.51 0.7-0.84 1.23-0.84h0.14-0.02 0.16c0.32 0 0.63 0.12 0.87 0.31l0.02 0.02-0.86-0.31h0.02c0.17 0 0.36 0.02 0.51 0.1l0.07 0.02-0.53-0.1h0.05c0.21 0 0.43 0.05 0.62 0.17l0.17 0.07 0.1 0.08 0.12 0.09-0.15-0.09 0.12 0.07c0.1 0.05 0.17 0.09 0.24 0.17l0.12 0.07-0.12-0.07 0.12 0.07c0.1 0.05 0.15 0.12 0.22 0.19l0.12 0.1-0.17-0.12 0.12 0.07 0.12 0.09c0.1 0.08 0.19 0.2 0.29 0.32l0.09 0.14-0.07-0.07 0.22 0.24-0.05-0.05 0.29 0.34 0.02 0.02 0.17 0.22-0.1-0.12 0.08 0.07c0.12 0.12 0.21 0.29 0.31 0.45v0.08l-0.17-0.34 0.05 0.1-0.17-0.2 0.05 0.03 0.07 0.09 0.07 0.05v0.03l0.07 0.04-0.24-0.16 0.15 0.07c0.05 0.05 0.12 0.07 0.14 0.12h0.03l-0.87-0.31h0.05c0.46 0 0.89 0.26 1.13 0.67l-0.27-0.31h0.03l-0.87-0.32h0.03c0.41 0 0.79 0.2 1.03 0.51l0.05 0.05-1.56-0.41 0.02-0.03c0.17-0.04 0.34-0.09 0.51-0.09h0.21l-0.72 0.21 0.07-0.04c0.22-0.12 0.46-0.2 0.7-0.2h0.02l-1.12 0.65v-0.02c0.24-0.41 0.67-0.65 1.15-0.65h0.02l-0.86 0.31 0.02-0.02-0.19 0.19 0.05-0.02c0.24-0.32 0.62-0.51 1.03-0.51h0.02l-1.15 0.65 0.03-0.02c0.07-0.12 0.16-0.24 0.28-0.34l0.03-0.02-0.1 0.09 0.17-0.17 0.14-0.16-0.09 0.12 0.12-0.15v-0.05l0.14-0.16-0.02 0.07 0.31-0.51-0.07 0.15 0.12-0.24 0.05-0.07 0.21-0.36 0.48-0.6 0.15-0.15 0.19-0.17c0.53-0.5 1.34-0.48 1.85 0.03 0.5 0.53 0.48 1.37-0.05 1.87l-0.17 0.17 0.12-0.12-0.48 0.6 0.07-0.12-0.14 0.24 0.07-0.1-0.12 0.24c-0.05 0.05-0.07 0.1-0.1 0.15l-0.33 0.48-0.05 0.07-0.14 0.17 0.02-0.03-0.12 0.17c-0.05 0.05-0.07 0.1-0.12 0.14l-0.17 0.15-0.14 0.17-0.1 0.09-0.02 0.03 0.26-0.34v0.02c-0.24 0.39-0.67 0.65-1.13 0.65h-0.02l1.03-0.5-0.02 0.02c-0.05 0.07-0.12 0.15-0.19 0.19l-0.03 0.03c-0.24 0.21-0.55 0.31-0.84 0.31h-0.02l1.13-0.65-0.03 0.03c-0.24 0.4-0.67 0.64-1.13 0.64h-0.02l0.72-0.21-0.05 0.05c-0.21 0.12-0.48 0.19-0.72 0.19h-0.21l0.5-0.1c-0.55 0.24-1.2 0.07-1.56-0.38l-0.02-0.03 1.03 0.48h-0.03c-0.31 0-0.62-0.09-0.84-0.31l-0.02-0.02c-0.12-0.07-0.22-0.19-0.29-0.31l-0.02-0.05 1.15 0.65h-0.05c-0.29 0-0.6-0.1-0.84-0.29l-0.02-0.03 0.14 0.1-0.14-0.1c-0.1-0.04-0.17-0.12-0.22-0.16l-0.07-0.08v0.03l-0.05-0.07 0.07 0.04-0.07-0.02c-0.05-0.07-0.12-0.12-0.17-0.19l-0.07-0.1c-0.07-0.09-0.14-0.21-0.19-0.33l-0.02-0.05 0.31 0.45-0.1-0.09-0.07-0.1-0.19-0.21 0.02 0.02-0.26-0.34-0.05-0.02-0.19-0.24-0.05-0.1-0.1-0.12 0.29 0.32-0.09-0.08-0.03-0.02-0.12-0.1c-0.02-0.02-0.09-0.07-0.14-0.12l-0.1-0.12 0.22 0.2-0.12-0.1-0.12-0.07-0.12-0.1 0.26 0.17-0.12-0.07c-0.05-0.03-0.12-0.05-0.14-0.07l-0.15-0.1 0.1 0.05-0.14-0.07 0.67 0.16h-0.05c-0.17 0-0.36-0.02-0.53-0.09l-0.02-0.03 0.5 0.12h-0.02c-0.31 0-0.6-0.12-0.84-0.33h-0.05l0.86 0.29h-0.16 0.02-0.14l1.22-0.84v0.04c-0.19 0.51-0.7 0.84-1.25 0.84h-0.02c-0.75 0-1.35-0.6-1.35-1.32 0-0.74 0.6-1.32 1.35-1.32 0.72 0 1.32 0.58 1.32 1.32 0 0.36-0.15 0.7-0.41 0.96-0.24 0.24-0.58 0.39-0.91 0.39h-0.07l1.03-0.51v0.03c-0.27 0.31-0.65 0.5-1.06 0.5h-0.02l0.86-0.31-0.02 0.02c-0.07 0.05-0.15 0.1-0.22 0.15h-0.02l0.67-1.15v0.04c0 0.72-0.6 1.32-1.32 1.32h-0.05l0.87-0.31-0.1 0.1 0.31-0.43-0.02 0.07-0.05 0.09-0.02 0.03-0.1 0.14 0.19-0.45v0.07c-0.07 0.26-0.24 0.53-0.43 0.69l-0.05 0.05 0.31-0.41-0.02 0.08 0.07-0.2-0.02 0.08 0.02-0.12v0.04c-0.02 0.08-0.02 0.15-0.07 0.2l-0.02 0.07 0.02-0.07-0.02 0.07v0.02l-0.1 0.31c-0.05 0.08-0.1 0.17-0.14 0.27l-0.08 0.12h-0.02l-0.05 0.09-0.07 0.08v0.04l-0.07 0.12v-0.04l-0.05 0.12c-0.05 0.04-0.1 0.09-0.14 0.16l-0.1 0.08 0.14-0.17-0.09 0.17c-0.27 0.36-0.67 0.6-1.11 0.6h-0.02l1.32-1.32v0.04c0 0.72-0.6 1.32-1.32 1.32h-0.02c-0.53 0-1.01-0.33-1.23-0.81-0.19-0.51-0.09-1.08 0.29-1.44 0.38-0.39 0.96-0.51 1.44-0.29 0.5 0.19 0.82 0.67 0.82 1.22v0.03c0 0.38-0.17 0.74-0.46 1.01h-0.05c-0.24 0.21-0.53 0.31-0.84 0.31h-0.02c-0.55 0-1.03-0.31-1.25-0.79-0.19-0.51-0.07-1.08 0.29-1.47 0.38-0.38 0.96-0.48 1.46-0.29 0.48 0.22 0.82 0.7 0.82 1.23v0.05c0 0.38-0.17 0.76-0.48 1l-0.03 0.03c-0.24 0.19-0.55 0.31-0.86 0.31h-0.05l0.87-0.31h-0.03v0.02c-0.24 0.19-0.55 0.31-0.86 0.31h-0.03l0.87-0.31-0.03 0.03c-0.24 0.19-0.55 0.31-0.86 0.31h-0.07c-0.29 0-0.6-0.12-0.84-0.31l-0.03-0.03 0.87 0.31h-0.05c-0.24 0-0.46-0.04-0.67-0.16l-0.1-0.08 0.12 0.08-0.02-0.03c-0.17-0.05-0.34-0.17-0.46-0.29l-0.05-0.07 0.46 0.31h-0.05c-0.26-0.12-0.48-0.31-0.62-0.57l-0.05-0.03 0.19 0.24-0.05-0.04 0.1 0.09v-0.02c-0.07-0.03-0.12-0.07-0.17-0.12l-0.02-0.05 0.12 0.1-0.22-0.17h0.03l-0.27-0.22c-0.07-0.05-0.12-0.14-0.19-0.21l-0.07-0.12 0.12 0.14-0.12-0.1-0.05-0.07-0.1-0.12-0.07-0.05-0.24-0.36 0.17 0.2-0.12-0.12 0.17 0.12-0.12-0.08c-0.1-0.04-0.17-0.09-0.24-0.16l-0.1-0.12 0.22 0.19-0.24-0.15 0.12 0.03-0.15-0.05 0.15 0.07-0.12-0.05-0.05-0.02-0.1-0.05-0.07-0.05-0.07-0.02c-0.07-0.05-0.12-0.1-0.19-0.14h-0.03l0.89 0.28h-0.02c-0.19 0-0.39-0.02-0.55-0.09l-0.05-0.03 0.57 0.1h-0.14 0.02l-0.02 0.02c-0.34 0-0.65-0.12-0.89-0.33h-0.02l0.86 0.29h-0.02 0.02-0.12l1.25-0.87-0.02 0.03c-0.17 0.52-0.68 0.88-1.23 0.88h-0.17l0.87-0.33v0.02l0.09-0.09-0.14 0.12 0.14-0.17-0.04 0.07-0.08 0.1-0.07 0.07 0.17-0.22-0.05 0.05-0.05 0.1-0.02 0.07 0.07-0.15-0.05 0.08-0.07 0.16-0.05 0.03-0.04 0.09-0.05 0.05 0.26-1.1v0.09c0.07 0.34 0 0.7-0.19 0.99l-0.05 0.09 0.12-0.21-0.02 0.05 0.09-0.32-0.02 0.08 0.02-0.27v0.1c0.03 0.17-0.02 0.36-0.09 0.53l-0.07 0.16 0.02-0.07v0.07l-0.05 0.08c-0.02 0.12-0.09 0.24-0.17 0.36l-0.02 0.04 0.14-0.28-0.02 0.09c-0.05 0.1-0.1 0.19-0.14 0.27l-0.05 0.07c-0.03 0.05-0.07 0.09-0.1 0.14l-0.05 0.03 0.1-0.12-0.05 0.07 0.1-0.15-0.03 0.08c-0.09 0.16-0.19 0.31-0.36 0.43l-0.02 0.02-0.02 0.03-0.08 0.07 0.48-1.08v0.02c0.03 0.34-0.09 0.67-0.36 0.94l-0.02 0.05c-0.07 0.07-0.17 0.16-0.29 0.24l-0.05 0.04-0.07 0.03-0.02 0.02-0.15 0.07-0.04 0.03 0.55-0.43-0.03 0.04c-0.12 0.12-0.24 0.24-0.4 0.34l-0.03 0.02c-0.21 0.12-0.43 0.2-0.67 0.2h-0.1l0.89-0.34-0.05 0.05c-0.24 0.21-0.55 0.33-0.88 0.33h-0.08c-0.14 0-0.28-0.02-0.43-0.07l-0.07-0.02 0.46 0.07h-0.05c-0.34 0-0.65-0.1-0.89-0.31l-0.02-0.03 0.88 0.32h-0.04 0.02-0.05c-0.31 0-0.65-0.1-0.89-0.32l-0.02-0.02 0.89 0.34h-0.03c-0.33 0-0.64-0.12-0.91-0.34l-0.02-0.02h-0.03l0.36 0.19h-0.04l0.55 0.09h-0.03c-0.55 0-1.03-0.28-1.27-0.79l-0.05-0.05 0.6 0.63-0.02-0.03c-0.1-0.04-0.17-0.09-0.22-0.14l-0.02-0.02c-0.34-0.27-0.5-0.65-0.53-1.06v-0.02l0.89 1.27-0.05-0.03c-0.19-0.07-0.33-0.16-0.45-0.28l-0.58-0.58-0.43-0.41h0.02l-0.17-0.14 0.17 0.12-0.19-0.12 0.02 0.02-0.19-0.14 0.07 0.05-0.21-0.12-0.12-0.08-0.24-0.19 0.17 0.1-0.08-0.03 0.15 0.08-0.1-0.05-0.07-0.03-0.07-0.04-0.05-0.03-0.1-0.05 0.34 0.12h-0.1c-0.07-0.02-0.14-0.04-0.21-0.09l-0.1-0.03 0.22 0.08-0.07-0.03 0.04 0.03-0.09-0.03 0.41 0.03h-0.32l0.92-0.32h-0.03c-0.26 0.22-0.6 0.34-0.91 0.34h-0.1l0.29-0.02h-0.05l0.94-0.68v0.03c-0.17 0.26-0.41 0.48-0.7 0.6h-0.02l0.19-0.1-0.05 0.03-0.07 0.04-0.02 0.03c-0.22 0.12-0.46 0.17-0.7 0.17h-0.05l0.94-0.32h-0.05l-0.02 0.03 0.31-0.36-0.05 0.05c-0.24 0.43-0.72 0.69-1.2 0.69h-0.05l1.18-0.6-0.05 0.05c-0.07 0.1-0.14 0.19-0.24 0.26l-0.02 0.03 0.21-0.19-0.02 0.02 0.02-0.05-0.26 0.34 0.05-0.05-0.07 0.1 0.12-0.22-0.08 0.14c-0.02 0.08-0.02 0.12-0.07 0.17l-0.07 0.15 0.02-0.05-0.14 0.26c-0.05 0.07-0.07 0.1-0.12 0.17l-0.17 0.24 0.12-0.19-0.05 0.07c-0.04 0.14-0.14 0.26-0.26 0.38l-0.07 0.05 0.07-0.05-0.1 0.1c-0.04 0.05-0.07 0.07-0.12 0.12l-0.07 0.05-0.02 0.02 0.5-1.05c0 0.79-0.65 1.41-1.44 1.39l1.32-0.87-0.02 0.03c-0.15 0.33-0.41 0.62-0.77 0.77l-0.05 0.02 0.36-0.22-0.02 0.03c-0.27 0.21-0.58 0.33-0.91 0.33h-0.03l1.11-0.55-0.03 0.03c-0.26 0.36-0.67 0.55-1.13 0.55h-0.09l0.93-0.34-0.02 0.03c-0.24 0.21-0.58 0.31-0.91 0.31h-0.03l0.29-0.03-0.05 0.03c-0.09 0-0.19 0.02-0.28 0.02h-0.05 0.02-0.05c-0.21-0.02-0.43-0.07-0.64-0.17l-0.15-0.09h-0.02l-0.05-0.03c-0.1-0.04-0.17-0.12-0.24-0.16l-0.02-0.05 0.21 0.17-0.07-0.03c-0.07-0.05-0.14-0.09-0.22-0.17l-0.02-0.02v0.02l-0.05-0.04c-0.12-0.12-0.24-0.24-0.31-0.39l-0.02-0.05 0.64 0.6-0.02-0.02c-0.34-0.14-0.58-0.38-0.72-0.7l-0.02-0.04 0.36 0.48-0.05-0.05-0.05-0.03c-0.17-0.14-0.29-0.31-0.36-0.48l-0.02-0.07-0.03-0.07-0.05-0.07 0.77 0.79-0.05-0.02c-0.5-0.22-0.86-0.75-0.84-1.3v-0.07l0.12 0.6-0.02-0.05 0.12 0.22-0.12-0.2-0.1-0.14-0.04-0.07 0.04 0.07-0.07-0.1 0.55 0.48-0.07-0.02c-0.21-0.12-0.41-0.29-0.55-0.48l-0.05-0.07 0.07 0.09-0.04-0.07 0.12 0.15-0.27-0.24-0.05-0.08-0.12-0.12 0.12 0.12-0.07-0.09-0.07-0.05 0.1 0.07-0.08-0.05c-0.07-0.04-0.14-0.09-0.19-0.16l-0.05-0.05 0.46 0.29h-0.07l0.55 0.12h-0.02c-0.8-0.03-1.4-0.65-1.4-1.42v-0.02c0-0.77 0.65-1.4 1.42-1.4s1.39 0.63 1.39 1.42c-0.02 0.77-0.65 1.39-1.41 1.37h-0.03c-0.38 0-0.72-0.15-1.01-0.41-0.24-0.26-0.4-0.62-0.38-0.98v-0.05c0-0.75 0.62-1.39 1.42-1.37 0.76 0 1.39 0.62 1.36 1.39 0 0.79-0.62 1.42-1.39 1.39h-0.02c-0.34 0-0.65-0.12-0.89-0.33l-0.05-0.03 0.91 0.36h-0.07l0.58-0.12h-0.03c-0.16 0.08-0.36 0.12-0.55 0.12h-0.12 0.03-0.08l0.89-0.33v0.02c-0.26 0.22-0.57 0.34-0.91 0.34h-0.02l1.29-0.87v0.03c-0.21 0.53-0.74 0.86-1.32 0.86h-0.02l1.41-1.39v0.02c0 0.41-0.19 0.8-0.5 1.06l-0.24 0.22 0.12-0.12-0.1 0.09-0.07 0.1 0.22-0.34-0.05 0.12c-0.05 0.1-0.12 0.19-0.17 0.27l-0.07 0.07 0.02-0.03-0.09 0.12 0.14-0.21-0.07 0.12v0.05l-0.1 0.09 0.1-0.14-0.05 0.09c-0.02 0.08-0.05 0.12-0.07 0.17l-0.24 0.39 0.02-0.03-0.09 0.15c-0.05 0.09-0.1 0.16-0.15 0.24l-0.12 0.12-0.12 0.14v0.02l-0.07 0.05 0.19-0.26-0.02 0.05c-0.24 0.48-0.77 0.76-1.32 0.72h-0.02l0.72-0.12h-0.03l0.75-1.08-0.03 0.02c-0.02 0.43-0.29 0.82-0.65 1.03l-0.04 0.03-0.08 0.04-0.04 0.03 0.04-0.03-0.07 0.03c-0.05 0.05-0.09 0.05-0.17 0.09h-0.04l0.64-0.48-0.02 0.03c-0.26 0.36-0.7 0.57-1.15 0.57h-0.05l1.08-0.48-0.05 0.03c-0.26 0.33-0.65 0.48-1.05 0.48l-0.08-0.03c-0.31 0-0.64-0.14-0.88-0.38l-0.03-0.02 0.67 0.36h-0.04c-0.24-0.05-0.46-0.2-0.63-0.36l-0.02-0.03 0.79 0.39h-0.05c-0.36-0.05-0.69-0.22-0.89-0.51-0.24-0.29-0.31-0.62-0.28-0.98v-0.03c0.09-0.72 0.76-1.22 1.48-1.12 0.72 0.07 1.23 0.72 1.13 1.44-0.07 0.72-0.72 1.24-1.44 1.17l-0.02-0.02c-0.39-0.03-0.75-0.24-0.94-0.55l-0.05-0.03 1.76 0.39c-0.24 0.16-0.53 0.21-0.8 0.19h-0.04c-0.7-0.1-1.23-0.72-1.16-1.44v-0.03l0.39 1.04h-0.03l0.77 0.36c-0.36-0.05-0.69-0.22-0.89-0.48-0.21-0.29-0.31-0.65-0.28-0.99v-0.02l0.38 1.08h-0.02l0.76 0.36h-0.02c-0.34-0.03-0.65-0.22-0.86-0.48-0.22-0.27-0.32-0.63-0.27-0.96v-0.03 0.05-0.02l0.36 1.01c-0.29-0.29-0.43-0.7-0.38-1.08l0.02-0.03 0.17 0.84-0.65-1.03c-0.02-0.07-0.05-0.12-0.09-0.19l-0.15-0.39-0.05-0.09-0.12-0.41 0.05 0.12-0.24-0.48c-0.21-0.5-0.02-1.1 0.46-1.39 0.48-0.27 1.1-0.12 1.41 0.33z"/>
  <path transform="matrix(1.3333 0 0 -1.3333 0 1120.8)" d="m402.19 738.29v-0.05h-0.02v-0.02l0.02 0.02-0.02-0.02 0.98 0.38c-0.31 0.12-0.65 0.05-0.89-0.19s-0.28-0.6-0.16-0.89l0.07-0.14c0.05-0.12 0.12-0.24 0.21-0.34l0.34-0.31c0.12-0.12 0.26-0.22 0.43-0.27l0.55-0.16 0.12-0.05 0.84-0.17h0.05l0.19-0.02 0.12-0.03h0.29l0.43 0.03h0.12l0.6 0.07h-0.04l0.16 0.02c0.15 0.03 0.27 0.05 0.39 0.1l0.14 0.07-0.33-0.1 0.14 0.03c0.1 0 0.19 0.05 0.26 0.07l0.17 0.07 0.07 0.03 0.12 0.07-0.04-0.05 0.16 0.07 0.05 0.03 0.15 0.07 0.14 0.07 0.12 0.1 0.1 0.04 0.09 0.1h0.03l0.31 0.24 0.09 0.1 0.05 0.02-0.17-0.12 0.05 0.05c0.15 0.07 0.27 0.19 0.36 0.31l0.05 0.07-0.17-0.19 0.05 0.05c0.05 0.07 0.12 0.12 0.14 0.19l0.05 0.07-0.14-0.19 0.05 0.05c0.04 0.05 0.09 0.12 0.14 0.19l0.07 0.05 0.05 0.07c0.05 0.1 0.1 0.19 0.12 0.29l0.02 0.07-0.28-0.48 0.04 0.05c0.12 0.14 0.24 0.29 0.29 0.48l0.05 0.07 0.02 0.1v0.07l-0.02-0.07 0.02 0.04-0.14-0.26 0.07 0.05c0.12 0.19 0.19 0.43 0.19 0.65v0.16l-0.07-0.38 0.05 0.07 0.02 0.1 0.03 0.07c0.02 0.1 0.02 0.22 0.05 0.29v0.31c0 0.12-0.03 0.22-0.03 0.31l-0.05 0.17-0.02 0.1-0.05 0.14c-0.12 0.41-0.48 0.74-0.91 0.84-0.46 0.1-0.89-0.07-1.18-0.38-0.31-0.36-0.4-0.82-0.24-1.25l0.05-0.12-0.05 0.09 0.05-0.16-0.02 0.26v-0.31l0.02 0.31v-0.1 0.1-0.07c-0.05-0.12-0.07-0.27-0.07-0.39l0.02-0.09v-0.07l0.17 0.72-0.05-0.1c-0.04-0.07-0.09-0.19-0.12-0.29l-0.04-0.14-0.03-0.1 0.03 0.07-0.03-0.04 0.29 0.45-0.05-0.05c-0.12-0.14-0.21-0.28-0.29-0.45v-0.07l0.12 0.26-0.02-0.05-0.05-0.07 0.12 0.17-0.05-0.05c-0.02-0.05-0.09-0.12-0.12-0.17l-0.04-0.07 0.14 0.17-0.05-0.05c-0.05-0.05-0.12-0.12-0.14-0.17l-0.05-0.07 0.31 0.34-0.05-0.05c-0.07-0.05-0.14-0.1-0.19-0.17l-0.05-0.02 0.12 0.12-0.31-0.29h-0.02l-0.12-0.1 0.09 0.05-0.14-0.07 0.12 0.07-0.14-0.07 0.07 0.02-0.15-0.07-0.07-0.02-0.14-0.08 0.05 0.03-0.15-0.07 0.27 0.07h-0.15c-0.12-0.05-0.21-0.07-0.33-0.12l-0.12-0.07 0.36 0.12-0.17-0.03-0.05-0.02-0.58-0.1 0.15 0.03-0.46-0.03h0.03l-0.2-0.02h0.17l-0.21 0.02h0.04l-0.81 0.1h0.09l-0.6 0.12-0.04 0.02-0.51 0.07-0.07 0.03h-0.17c-0.33 0.02-0.65-0.17-0.79-0.46-0.14-0.31-0.1-0.67 0.14-0.91 0.22-0.24 0.56-0.34 0.89-0.22v0.03c0.24 0.07 0.39 0.24 0.48 0.45 0.07 0.22 0.07 0.46-0.05 0.68v0.02-0.02 0.02l-0.02 0.05c-0.14 0.24-0.41 0.41-0.7 0.41-0.28 0-0.52-0.17-0.67-0.41z"/>
  <path transform="matrix(1.3333 0 0 -1.3333 0 1120.8)" d="m408.62 737.3 0.24-0.04c0.12-0.05 0.29-0.05 0.44-0.05l0.86 0.12h-0.05l2.19 0.17h-0.1l3.26 0.02h-0.04l5.54-0.22h-0.05l0.79-0.04h0.03l3.24-0.12h0.24c0.5 0 0.96 0.24 1.2 0.67 0.24 0.41 0.24 0.93 0 1.37-0.24 0.4-0.7 0.67-1.2 0.67h-0.19 0.04l-3.24 0.07h0.03l-0.77 0.05h-0.05l-5.54 0.12h-0.1l-3.26-0.17h-0.1l-2.16-0.29 0.05 0.03-0.89-0.1c-0.26-0.02-0.53-0.14-0.72-0.34l-0.17-0.16c-0.26-0.27-0.36-0.65-0.26-1.01 0.12-0.36 0.38-0.65 0.74-0.75z"/>
  <path transform="matrix(1.3333 0 0 -1.3333 0 1120.8)" d="m420.41 745.32v-0.98l0.02-0.34v0.12l-0.02-0.96-0.03-1.27 0.03 0.12-0.05-0.24v-0.24l0.05-0.65v0.12l-0.03-0.55v-0.07l0.03-0.72v0.09-0.09c0-0.46 0.24-0.87 0.62-1.08 0.36-0.24 0.84-0.24 1.25 0 0.38 0.21 0.6 0.62 0.6 1.08v0.16l-0.07 0.72 0.02-0.09-0.02 0.55v0.07l-0.05 0.65v-0.19 0.26l0.02 0.1-0.02 1.27-0.02 0.96c0 0.07-0.03 0.14-0.03 0.22l-0.07 0.31 0.05-0.12-0.1 0.86c-0.02 0.58-0.53 1.01-1.1 1.01-0.6-0.02-1.06-0.48-1.08-1.08z"/>
  <path transform="matrix(1.3333 0 0 -1.3333 0 1120.8)" d="m421.54 744.58 0.21-0.1c0.07 0 0.12-0.02 0.22-0.02l0.62-0.08-0.12 0.03 0.48-0.12c0.1 0 0.17 0 0.22-0.03l1.34-0.02h-0.07l0.67-0.07-1.13 1.27-0.04-2.59v-0.03l-0.05-2.66v0.02l-0.05-1.46v-0.14c0-0.48 0.26-0.92 0.67-1.16s0.91-0.24 1.32 0 0.67 0.68 0.67 1.16v0.12-0.05l0.05 1.46v2.74l-0.05 2.59c-0.02 0.36-0.16 0.7-0.43 0.94-0.26 0.21-0.6 0.33-0.96 0.28l-0.67-0.04h0.07l-1.34-0.05h0.12l-0.53 0.02h-0.07l-0.65-0.02h0.12l-0.22 0.02c-0.55 0.05-1.03-0.31-1.12-0.81-0.1-0.53 0.19-1.06 0.72-1.2z"/>
 </g>
</svg>
