<svg width="34.441" height="34.028" version="1.1" viewBox="0 0 34.441 34.028" xmlns="http://www.w3.org/2000/svg">
 <g transform="translate(-537.85 -174.11)">
  <path transform="matrix(1.3333 0 0 -1.3333 0 1120.8)" d="m404.26 684.53h0.24c0.12 0 0.26 0 0.36 0.05l0.19 0.04h-0.05l0.19 0.05 0.19 0.07 0.12 0.03 0.17 0.09-0.05-0.04 0.2 0.07 0.09 0.05 0.17 0.07 0.1 0.05 0.33 0.21 0.12 0.1 0.12 0.09v-0.02l0.07 0.07-0.02-0.02 0.1 0.09c0.07 0.03 0.12 0.08 0.14 0.12l0.1 0.1v0.02l0.07 0.08 0.09 0.12 0.08 0.09-0.15-0.17 0.1 0.1c0.07 0.07 0.12 0.14 0.17 0.24l0.04 0.12-0.12-0.19 0.1 0.09c0.07 0.08 0.14 0.2 0.19 0.32l0.05 0.12-0.14-0.24 0.07 0.09c0.05 0.07 0.09 0.17 0.12 0.24l0.09 0.27 0.03 0.04 0.12 0.36 0.07 0.27 0.07 0.29 0.03 0.12 0.04 0.28v0.03l0.1 0.62v0.84l-0.07 0.79-0.03 0.08-0.09 0.6-0.12 0.6-0.03 0.09-0.14 0.55-0.02 0.08-0.46 1.29v0.05l-0.98 2.47-0.08 0.24-0.12 0.27v-0.03l-0.07 0.24 0.03-0.14-0.05 0.26-0.07 0.27 0.02-0.03-0.05 0.29v-0.14l-0.02 0.28v-0.02l-0.03 0.26v-0.07 0.31l-0.02 0.29v-0.12l0.02 0.27v-0.08l0.03 0.27-0.03-0.07 0.05 0.26 0.12 0.67-0.05-0.19 0.12 0.36v-0.02l0.12 0.36v-0.03l0.12 0.36-0.04-0.12 0.4 0.77-0.04-0.07 0.69 1.15 0.48 0.79-0.02-0.05 0.09 0.2h0.03l0.12 0.21-0.03-0.02 0.12 0.17 0.05 0.07 0.1 0.19 0.07 0.14 0.07 0.22 0.03 0.02 0.09 0.22 0.07 0.24v0.02l0.17 0.53c0.05 0.07 0.05 0.19 0.07 0.29v0.12l-0.04-0.26 0.04 0.12c0 0.09 0.03 0.16 0.05 0.26v0.24-0.07 0.14c0.03 0.07 0.03 0.17 0.03 0.27l-0.03 0.12 0.03-0.1v0.12l-0.03 0.1v0.21l-0.02 0.12-0.03 0.05v0.14l-0.02 0.05-0.02 0.12-0.03 0.07-0.02 0.12-0.05 0.12-0.05 0.1 0.05-0.1-0.05 0.12-0.02 0.12-0.1 0.24c-0.05 0.15-0.12 0.27-0.24 0.39l-0.05 0.07 0.15-0.22-0.05 0.08c-0.05 0.09-0.12 0.16-0.19 0.26l-0.05 0.05 0.05-0.05-0.05 0.07 0.05-0.07-0.05 0.05c-0.07 0.09-0.12 0.14-0.22 0.21l-0.04 0.05 0.14-0.14-0.05 0.07c-0.07 0.07-0.14 0.12-0.19 0.19l-0.1 0.05 0.15-0.12-0.05 0.05c-0.12 0.14-0.29 0.21-0.46 0.31h-0.07l0.41-0.24-0.1 0.07c-0.07 0.07-0.16 0.15-0.26 0.19l-0.07 0.05 0.09-0.07-0.14 0.12c-0.1 0.02-0.17 0.07-0.24 0.1l-0.14 0.04c-0.68 0.24-1.4-0.07-1.66-0.72-0.26-0.67 0.07-1.41 0.72-1.68l0.14-0.04-0.19 0.09 0.17-0.09 0.1-0.05 0.07-0.05-0.29 0.19 0.1-0.07c0.09-0.1 0.24-0.17 0.38-0.24l0.07-0.02-0.45 0.28 0.04-0.04c0.05-0.05 0.1-0.08 0.15-0.12l0.07-0.05-0.19 0.19 0.05-0.1c0.04-0.02 0.09-0.07 0.14-0.12l0.07-0.04-0.21 0.21 0.04-0.07 0.08-0.07 0.04-0.07 0.12-0.12-0.19 0.26 0.03-0.05c0.04-0.07 0.09-0.14 0.14-0.21l0.07-0.08-0.24 0.39 0.1-0.27-0.03 0.12 0.03-0.12 0.02-0.09 0.05-0.12-0.02 0.09 0.02-0.12-0.02 0.1 0.02-0.12v0.02l0.02-0.14v0.07-0.12 0.07-0.12 0.1-0.22l0.03-0.12v0.24l-0.03-0.12v-0.31l0.05 0.24-0.05-0.12c-0.02-0.07-0.04-0.17-0.04-0.24v-0.14l0.04 0.31-0.16-0.5 0.02 0.04-0.07-0.24v0.05l-0.07-0.24v0.05l-0.08-0.19 0.08 0.14-0.12-0.19 0.04 0.07-0.12-0.19-0.02-0.02-0.12-0.22 0.02 0.02-0.12-0.19-0.02-0.02-0.46-0.77-0.67-1.15-0.05-0.07-0.4-0.8-0.08-0.14-0.12-0.36v-0.02l-0.24-0.72c-0.04-0.08-0.04-0.12-0.04-0.2l-0.12-0.67v-0.02l-0.05-0.27v-0.09l-0.03-0.29v-0.07l-0.02-0.27v-0.12l0.02-0.28v0.04-0.26l0.03-0.07 0.02-0.29v-0.05l0.03-0.26 0.04-0.12 0.05-0.27v-0.02l0.07-0.26 0.08-0.27 0.04-0.14 0.1-0.27v-0.02l0.1-0.26h0.02l0.1-0.24 1-2.43v0.03l0.46-1.28-0.02 0.05 0.19-0.55-0.03 0.07 0.12-0.57v0.02l0.12-0.58v0.1l0.08-0.79v0.07l0.02-0.29v0.03l0.02-0.32v0.12l-0.02-0.31-0.02-0.29v0.03-0.31 0.12l-0.1-0.58 0.02 0.07-0.07-0.29 0.03 0.08-0.12-0.24 0.12 0.19-0.08-0.12c-0.04-0.07-0.07-0.15-0.12-0.24l-0.04-0.12 0.16 0.31-0.04-0.1c-0.05-0.04-0.1-0.12-0.12-0.16l-0.05-0.15 0.14 0.24-0.09-0.09c-0.03-0.05-0.08-0.12-0.12-0.17l-0.05-0.12 0.07 0.12-0.05-0.07-0.07-0.1 0.12 0.14-0.1-0.09-0.04-0.03-0.08-0.09-0.07-0.07 0.15 0.12-0.34-0.22 0.07 0.05-0.17-0.12 0.05 0.05-0.19-0.08-0.05-0.04-0.17-0.08 0.12 0.05-0.16-0.05-0.2-0.07-0.04-0.02-0.17-0.07 0.24 0.07-0.27-0.03c-0.48-0.07-0.81-0.48-0.79-0.96 0-0.5 0.39-0.88 0.87-0.93z"/>
  <path transform="matrix(1.3333 0 0 -1.3333 0 1120.8)" d="m408.5 686.4-0.24 0.02 0.24-0.04-0.14 0.04-0.05 0.03-0.19 0.07-0.22 0.05 0.12-0.03-0.14 0.08-0.05 0.02-0.19 0.07 0.07-0.02-0.19 0.09 0.07-0.04-0.33 0.21 0.16-0.12-0.09 0.1-0.1 0.07-0.12 0.12 0.12-0.14-0.07 0.09h0.02l-0.07 0.1 0.07-0.15-0.04 0.12c-0.05 0.08-0.08 0.12-0.15 0.17l-0.07 0.1 0.14-0.24-0.04 0.14c-0.03 0.07-0.08 0.12-0.12 0.19l-0.08 0.08 0.17-0.32-0.05 0.12c0 0.1-0.04 0.2-0.09 0.27l-0.07 0.09 0.09-0.21-0.09 0.29 0.04-0.08-0.09 0.27 0.02-0.07-0.05 0.28-0.04 0.27v-0.1l-0.03 0.31v-0.02 0.6-0.1 0.29-0.02l0.03 0.29-0.03-0.08 0.12 0.8-0.02-0.1 0.12 0.58 0.14 0.57-0.05-0.09 0.2 0.57-0.03-0.05 0.48 1.28-0.05-0.05 1.04 2.45v-0.03l0.09 0.24v0.03l0.12 0.24v0.02l0.1 0.26 0.07 0.17 0.05 0.24 0.07 0.27v0.02l0.07 0.26v0.12l0.05 0.29v0.03l0.02 0.28v0.08l0.03 0.26v-0.02l0.02 0.26v0.46l-0.05 0.28v0.08l-0.02 0.28h-0.02l-0.1 0.7c-0.02 0.07-0.05 0.14-0.05 0.19l-0.12 0.36v0.03l-0.12 0.33-0.02 0.03-0.12 0.36-0.07 0.14-0.39 0.79-0.05 0.07-0.69 1.16-0.46 0.76v0.05l-0.12 0.17-0.12 0.19-0.02 0.05-0.12 0.17 0.05-0.07-0.12 0.21 0.07-0.17-0.07 0.22v-0.05l-0.08 0.19-0.07 0.22 0.03-0.05-0.17 0.51 0.05-0.32v0.12c0 0.1-0.03 0.2-0.05 0.29l-0.03 0.12 0.05-0.26-0.02 0.12v0.12l-0.03 0.07v0.14-0.26 0.36-0.1l0.03 0.12-0.03-0.09 0.03 0.12v-0.05l0.02 0.14v-0.04l0.03 0.14-0.03-0.1 0.03 0.12-0.03-0.12 0.03 0.12 0.04 0.12 0.05 0.12-0.05-0.12 0.1 0.24-0.22-0.36 0.05 0.05c0.05 0.07 0.12 0.15 0.15 0.22l0.04 0.07-0.21-0.29 0.05 0.07 0.07 0.05 0.05 0.07 0.07 0.1 0.05 0.05-0.2-0.22 0.05 0.05c0.05 0.05 0.1 0.1 0.15 0.14l0.04 0.08-0.19-0.2 0.07 0.05c0.05 0.05 0.1 0.07 0.15 0.12l0.05 0.07-0.46-0.31 0.07 0.05c0.15 0.02 0.27 0.12 0.39 0.24l0.09 0.07-0.29-0.19 0.08 0.02 0.09 0.05 0.15 0.1-0.2-0.1 0.17 0.07c0.65 0.24 0.99 1.01 0.72 1.66-0.24 0.65-0.98 0.98-1.65 0.72l-0.15-0.05c-0.09-0.02-0.17-0.07-0.21-0.12l-0.17-0.07 0.09 0.05-0.07-0.05c-0.09-0.05-0.19-0.1-0.29-0.17l-0.07-0.07 0.41 0.24-0.07-0.05c-0.17-0.05-0.31-0.17-0.46-0.29l-0.05-0.04 0.15 0.12-0.07-0.05c-0.08-0.05-0.15-0.12-0.2-0.17l-0.07-0.1 0.15 0.15-0.05-0.03c-0.07-0.07-0.15-0.14-0.22-0.24l-0.05-0.07 0.08 0.07-0.08-0.04 0.05 0.04-0.05-0.04c-0.07-0.08-0.14-0.17-0.19-0.27l-0.05-0.07 0.17 0.22-0.07-0.08c-0.1-0.12-0.17-0.24-0.24-0.38l-0.1-0.24-0.04-0.12-0.03-0.12 0.03 0.12-0.03-0.12-0.05-0.12-0.02-0.12-0.02-0.07-0.03-0.15v-0.02l-0.05-0.12v-0.07l-0.02-0.12v-0.1l-0.02-0.12v-0.21 0.09-0.12-0.24l0.02-0.17v0.1-0.12l0.02-0.14c0-0.08 0-0.17 0.05-0.27l0.03-0.12-0.05 0.27 0.02-0.12c0-0.1 0.03-0.2 0.05-0.32l0.14-0.48 0.03-0.04 0.09-0.22v-0.02l0.08-0.22v-0.02l0.09-0.2 0.07-0.16 0.12-0.2 0.03-0.07 0.12-0.17-0.03 0.05 0.12-0.21 0.12-0.2v0.03l0.44-0.79h0.02l0.7-1.16-0.05 0.08 0.41-0.77-0.08 0.14 0.15-0.36 0.12-0.33 0.12-0.36-0.05 0.21 0.12-0.69 0.05-0.27-0.03 0.07 0.05-0.28v0.09-0.26 0.12l-0.02-0.29v-0.29 0.07l-0.03-0.28v0.04l-0.02-0.28 0.02 0.12-0.07-0.27-0.05-0.26-0.07-0.27 0.05 0.17-0.1-0.26 0.03 0.02-0.1-0.26-0.09-0.22-0.03-0.02-0.96-2.47v-0.03l-0.45-1.29-0.03-0.08-0.17-0.57v-0.1l-0.12-0.57v-0.03l-0.09-0.57-0.03-0.1-0.07-0.79v-0.75l0.03-0.12 0.02-0.28 0.05-0.29v-0.03l0.05-0.31 0.02-0.12 0.07-0.26 0.07-0.29 0.03-0.07 0.09-0.29v-0.02l0.12-0.29c0.03-0.07 0.08-0.15 0.12-0.24l0.08-0.1-0.12 0.27 0.04-0.15c0.05-0.12 0.1-0.21 0.2-0.31l0.07-0.1-0.15 0.2 0.08-0.12c0.04-0.08 0.09-0.17 0.16-0.24l0.1-0.08-0.14 0.15 0.07-0.1 0.09-0.12 0.08-0.07v-0.02l0.09-0.08c0.03-0.04 0.07-0.09 0.12-0.14l0.12-0.07h-0.02l0.09-0.07h-0.02l0.1-0.08 0.14-0.09 0.34-0.19 0.09-0.05 0.19-0.1 0.05-0.02 0.19-0.07h-0.04l0.19-0.05 0.12-0.05 0.19-0.07 0.19-0.05-0.05 0.02 0.17-0.07c0.12-0.02 0.24-0.05 0.36-0.05l0.27 0.03c0.48 0.02 0.86 0.41 0.88 0.89 0 0.5-0.36 0.91-0.84 0.98z"/>
  <path transform="matrix(1.3333 0 0 -1.3333 0 1120.8)" d="m412.27 705.36 0.29 0.46 0.02 0.02 0.24 0.38-0.04-0.07 0.26 0.34v0.02l0.7 0.99c0.14 0.16 0.21 0.38 0.24 0.57v0.05l-0.51-0.89c0.31 0.24 0.51 0.58 0.53 0.96v0.03-0.08 0.05l-1.44-1.15c0.36-0.05 0.67 0.05 0.96 0.24l0.02 0.02c0.29 0.22 0.48 0.53 0.53 0.89v0.03l-1.49-1.16h0.05c0.31-0.02 0.65 0.05 0.94 0.24l0.02 0.05c0.31 0.22 0.51 0.55 0.53 0.94v0.02c0.07 0.75-0.48 1.39-1.2 1.47-0.72 0.04-1.37-0.46-1.44-1.2-0.1-0.72 0.43-1.4 1.15-1.47h0.05l-0.91 0.51v-0.03c0.26-0.31 0.62-0.5 1.03-0.5 0.38-0.03 0.79 0.17 1.03 0.45l0.05 0.05-1.18-0.48c0.75-0.07 1.42 0.43 1.52 1.18v0.02l-1.52-1.17h0.05c0.36-0.05 0.7 0.04 0.99 0.26l0.02 0.02-1.13-0.24h0.03c0.38-0.09 0.81-0.02 1.12 0.22l0.03 0.02-0.89-0.26h0.07l-1.08 0.6 0.03-0.02c0.24-0.39 0.64-0.6 1.08-0.63h0.04l-1.2 0.82v-0.03c0.15-0.28 0.36-0.52 0.65-0.67l0.05-0.02-0.24 0.14 0.05-0.02 0.09-0.05 0.03-0.05-0.05 0.05 0.05-0.05-0.58 1.27v-0.02c-0.05-0.5 0.19-1.01 0.63-1.3l0.02-0.02c0.19-0.12 0.43-0.19 0.67-0.22l-1.15 0.84 0.02-0.02c0.05-0.12 0.1-0.24 0.17-0.34l0.07-0.07-0.02 0.03 0.12-0.15-0.02 0.03 0.09-0.12-0.14 0.21 0.07-0.17 0.05-0.07 0.21-0.41-0.09 0.2 0.05-0.1 0.04-0.14 0.08-0.12-0.03 0.04 0.05-0.12c0.05-0.07 0.07-0.14 0.14-0.24l0.08-0.12h0.02l0.07-0.12-0.17 0.27 0.08-0.12c0.04-0.12 0.12-0.24 0.21-0.34l0.07-0.09 0.1-0.1c0.02-0.05 0.07-0.1 0.12-0.12l0.24-0.24-0.48 1.08v-0.02c0-0.39 0.14-0.75 0.43-1.01 0.24-0.27 0.6-0.41 1.01-0.41l-1.32 0.91v-0.02c0.22-0.55 0.74-0.94 1.34-0.94h0.03l-0.94 0.36v-0.02c0.27-0.22 0.6-0.36 0.96-0.36h0.07-0.02 0.05-0.03 0.1l-0.58 0.12h0.03c0.17-0.07 0.33-0.12 0.55-0.15h0.07c0.34 0 0.67 0.12 0.94 0.36l0.02 0.03-0.96-0.34h0.05c0.77-0.02 1.42 0.63 1.44 1.39v0.05c0 0.58-0.36 1.11-0.89 1.32-0.53 0.24-1.15 0.12-1.56-0.29-0.41-0.4-0.53-1.03-0.31-1.56 0.22-0.55 0.72-0.88 1.32-0.88 0.79-0.03 1.44 0.62 1.44 1.41v0.03c0.02 0.76-0.62 1.41-1.42 1.44-0.79 0-1.44-0.63-1.44-1.42 0-0.82 0.63-1.44 1.42-1.44h0.02c0.22 0 0.41 0.02 0.6 0.12h0.05c0.17 0.07 0.31 0.19 0.46 0.34l0.07 0.04-0.22-0.14 0.1 0.02 0.07 0.1 0.07 0.07 0.1 0.07c0.05 0.03 0.1 0.08 0.12 0.12l0.12 0.15-0.05-0.07 0.24 0.26c0.05 0.02 0.07 0.07 0.12 0.12l0.05 0.07 0.07 0.07 0.05 0.1-0.58-0.53 0.1 0.05c0.24 0.12 0.43 0.31 0.55 0.53l0.07 0.09 0.03 0.05 0.02 0.07-0.02-0.07 0.05 0.07-0.03-0.02 0.12 0.17c0.05 0.07 0.1 0.14 0.12 0.19v0.07c0.1 0.17 0.15 0.36 0.15 0.58v0.07l-0.87-1.3h0.05c0.36 0.17 0.65 0.46 0.77 0.82l0.02 0.07-0.02-0.09 0.02 0.04-0.36-0.48 0.1 0.1c0.14 0.12 0.26 0.29 0.36 0.48l0.02 0.02-0.74-0.72 0.05 0.05c0.28 0.12 0.5 0.31 0.67 0.6l0.02 0.05-0.31-0.38 0.07 0.04v0.03l-0.19-0.15 0.07 0.03c0.07 0.05 0.12 0.09 0.22 0.14v0.05l-0.22-0.17 0.1 0.05-0.03-0.02 0.12 0.07-0.72-0.17h0.03-0.03 0.05l-0.29 0.02h0.05c0.07-0.02 0.19-0.04 0.29-0.04h0.02l-0.96 0.38 0.05-0.02c0.24-0.24 0.58-0.39 0.91-0.39h0.12l-1.15 0.6 0.03-0.05c0.26-0.36 0.69-0.57 1.12-0.57h0.05l-0.96 0.38 0.03-0.02c0.09-0.1 0.24-0.19 0.38-0.27l0.05-0.02-0.77 0.84v-0.05c0.22-0.55 0.74-0.93 1.37-0.93 0.81-0.03 1.46 0.62 1.46 1.41 0.03 0.79-0.62 1.47-1.41 1.49-0.82 0-1.47-0.65-1.47-1.44v-0.02c0-0.44 0.17-0.82 0.48-1.11h0.03l0.04-0.07-0.12 0.14 0.08-0.09 0.12-0.15-0.27 0.41 0.05-0.07c0.02-0.1 0.07-0.14 0.1-0.22l0.16-0.24-0.09 0.17 0.14-0.26 0.03-0.07 0.09-0.15-0.09 0.17 0.04-0.14c0.05-0.08 0.08-0.15 0.12-0.22l0.08-0.12 0.04-0.05 0.24-0.36 0.03-0.05 0.02-0.02c0.07-0.1 0.12-0.17 0.22-0.22l0.02-0.02-0.24 0.26 0.03-0.04c0.26-0.39 0.72-0.63 1.2-0.63h0.02l-1.25 0.72v-0.05c0.1-0.12 0.19-0.26 0.31-0.36l0.05-0.02v-0.02c0.29-0.24 0.63-0.39 0.96-0.39h0.05l-0.72 0.22 0.05-0.03-0.1 0.05 0.05-0.05c0.07-0.02 0.17-0.07 0.24-0.12h0.05l-0.7 0.6v-0.02c0.22-0.34 0.58-0.6 0.96-0.7h0.05c0.12-0.02 0.22-0.02 0.31-0.02h0.05-0.02 0.07l-0.96 0.36 0.02-0.02c0.24-0.24 0.6-0.39 0.96-0.39h0.07l-0.14 0.03 0.07-0.03c0.17 0 0.31 0 0.46 0.03l0.12 0.02 0.07 0.02h0.07c0.07 0.05 0.17 0.08 0.24 0.1l0.1 0.05-0.24-0.1 0.07 0.05c0.12 0.02 0.24 0.07 0.36 0.12l0.07 0.05-0.02-0.03 0.07 0.05-0.07-0.05 0.09 0.05 0.15 0.07 0.07 0.05c0.05 0.05 0.12 0.07 0.17 0.12l0.21 0.17-0.12-0.07 0.22 0.14 0.07 0.05 0.17 0.12 0.05 0.02 0.17 0.15c0.07 0.05 0.09 0.09 0.14 0.14l0.17 0.15v0.02l0.38 0.41 0.03 0.02 0.55 0.58-0.46-0.31 0.05 0.02c0.53 0.24 0.86 0.74 0.84 1.32v0.02l-0.46-1.08h0.03l-0.24-0.14h0.05c0.24 0.17 0.45 0.38 0.57 0.67v0.05l-1.27-0.86h0.02c0.2 0 0.39 0.04 0.58 0.14h0.05c0.12 0.07 0.24 0.14 0.36 0.24l0.05 0.05-0.94-0.39h0.02c0.34 0.03 0.7 0.17 0.94 0.39l0.05 0.02-0.96-0.36h0.07c0.36 0 0.67 0.12 0.94 0.36l0.02 0.03-0.94-0.39h0.05c0.17 0 0.31 0.05 0.46 0.1l0.07 0.02-0.48-0.07h0.05l-0.94 0.34 0.03-0.03h-0.03l0.05-0.02c0.26-0.24 0.6-0.36 0.96-0.36h0.07l-0.74 0.19h0.02l-0.38 0.36v-0.05c0.14-0.19 0.36-0.33 0.57-0.43l0.05-0.02-0.14 0.07 0.02-0.03-0.05 0.05 0.05-0.05-0.31 0.29 0.02-0.05-0.33 0.92v-0.03c0-0.41 0.19-0.79 0.48-1.05l0.07-0.08h0.02l0.05-0.04-0.36 0.43 0.05-0.05c0.02-0.07 0.05-0.12 0.07-0.17l0.07-0.07c0.03-0.05 0.08-0.1 0.1-0.14l0.05-0.05-0.12 0.14 0.05-0.07-0.15 0.26 0.05-0.07c0.05-0.12 0.1-0.21 0.17-0.31l0.02-0.05-0.19 0.36 0.05-0.07v-0.07l0.02-0.05 0.07-0.19-0.09 0.48v-0.1c0.02-0.09 0.02-0.19 0.05-0.29l0.02-0.04c0-0.1 0.05-0.22 0.1-0.32l0.02-0.07c0.05-0.05 0.07-0.09 0.1-0.17l0.04-0.04-0.21 0.96-0.03-0.08c-0.04-0.38 0.05-0.74 0.29-1.05l0.05-0.05-0.02 0.02 0.02-0.02-0.1 0.14 0.05-0.07c0.03-0.07 0.07-0.12 0.1-0.17l0.05-0.04-0.05 0.07 0.02-0.05c0.03-0.05 0.07-0.1 0.1-0.14l0.07-0.08-0.07 0.08 0.05-0.05 0.09-0.12 0.12-0.15c0.05-0.02 0.1-0.07 0.12-0.12l0.05-0.02c0.24-0.22 0.58-0.34 0.91-0.34h0.1-0.03 0.1l-1.32 0.89v-0.05c0.22-0.5 0.74-0.86 1.32-0.86h0.1-0.03 0.05c0.34 0.02 0.65 0.14 0.91 0.38l-0.86-0.36h0.12c0.19 0.03 0.36 0.05 0.5 0.12l0.05 0.05-0.53-0.14h0.03c0.33 0.02 0.64 0.14 0.88 0.36l0.03 0.02-0.22-0.17 0.05 0.05-0.05-0.05 0.07 0.05-0.07-0.02 0.12 0.05 0.15 0.07 0.09 0.07 0.1 0.05 0.21 0.14c0.08 0.07 0.15 0.12 0.22 0.19l0.1 0.12-0.22-0.19 0.12 0.1c0.07 0.05 0.12 0.09 0.17 0.14l0.12 0.12c0.05 0.05 0.12 0.1 0.14 0.17l0.24 0.34-0.02-0.08 0.07 0.12-0.05-0.07 0.1 0.12c0.05 0.05 0.09 0.1 0.12 0.17l0.09 0.12-0.19-0.22 0.24 0.22 0.19 0.19 0.1 0.12 0.05 0.03-0.12-0.15v0.05l0.12 0.1 0.02 0.04c0.1 0.08 0.15 0.15 0.19 0.24l0.03 0.05-0.63-0.57 0.05 0.02c0.17 0.07 0.34 0.19 0.46 0.31l0.02 0.07-0.43-0.33 0.05 0.02 0.12 0.07 0.12 0.05-0.7-0.19h0.05c0.31 0 0.65 0.12 0.89 0.36h0.05l-0.92-0.34h0.05l-0.89 0.34h0.03c0.24-0.24 0.55-0.36 0.89-0.36h0.02l-0.89 0.36v-0.02l0.03-0.03c0.26-0.21 0.57-0.33 0.91-0.33h0.02l-0.89 0.33h0.03l-0.46 1.01v-0.05c0-0.74 0.6-1.34 1.37-1.34h0.02l-0.91 0.33 0.05-0.02-0.48 1.03v-0.05c0-0.74 0.62-1.34 1.37-1.34h0.02c0.55 0 1.06 0.34 1.25 0.84 0.22 0.5 0.1 1.08-0.29 1.46-0.38 0.41-0.98 0.53-1.46 0.32-0.53-0.22-0.84-0.7-0.84-1.28v-0.02c0-0.36 0.12-0.72 0.38-0.96 0.24-0.26 0.6-0.41 0.96-0.41l-1.13 0.65 0.1-0.19c0.05-0.05 0.07-0.1 0.12-0.17l0.07-0.1-0.12 0.2 0.07-0.1 0.03-0.02 0.07-0.12-0.02 0.02 0.07-0.1 0.05-0.09h-0.03l0.1-0.1-0.12 0.27 0.09-0.32-0.02 0.03 0.05-0.07v-0.08l0.02-0.04-0.05 0.16 0.03-0.04 0.02-0.12 0.03-0.08c0.02-0.07 0.02-0.12 0.07-0.16l0.02-0.08c0.1-0.16 0.19-0.31 0.34-0.43l0.02-0.05-0.41 0.72 0.03-0.04c0.02-0.15 0.07-0.32 0.17-0.44l0.04-0.07-0.04 0.07 0.02-0.04-0.05 0.07 0.05-0.07c0.07-0.15 0.19-0.32 0.31-0.44l0.12-0.07c0.24-0.24 0.58-0.36 0.89-0.36h0.02c0.75 0 1.37 0.63 1.37 1.37-0.02 0.74-0.62 1.34-1.37 1.34-0.74 0-1.34-0.6-1.34-1.34v-0.05c0-0.48 0.24-0.91 0.65-1.15l0.05-0.02-0.22 0.16 0.02-0.02c0.27-0.24 0.58-0.36 0.92-0.36h0.02l-1.08 0.55v-0.05c0.26-0.31 0.67-0.52 1.08-0.52h0.07c0.75 0.02 1.35 0.62 1.35 1.36 0 0.72-0.6 1.35-1.35 1.35h-0.07l1.1-0.53-0.02 0.02c-0.26 0.34-0.67 0.53-1.08 0.53h-0.02l0.88-0.33-0.02 0.02c-0.07 0.05-0.12 0.12-0.19 0.14l-0.05 0.03 0.67-1.18v0.05c0 0.74-0.62 1.34-1.37 1.34h-0.02l0.91-0.33-0.09 0.09 0.31-0.43-0.05 0.07-0.02 0.1-0.03 0.02-0.05 0.08-0.04 0.07 0.19-0.43-0.03 0.04c-0.04 0.29-0.21 0.53-0.4 0.72l-0.05 0.05 0.31-0.43-0.02 0.07 0.07-0.17-0.05 0.08 0.05-0.12-0.03 0.04c-0.02 0.05-0.02 0.12-0.04 0.17l-0.03 0.07 0.03-0.07-0.03 0.07v0.03l-0.09 0.31c-0.05 0.1-0.1 0.19-0.15 0.26l-0.07 0.12v0.03l-0.07 0.09-0.05 0.1-0.02 0.02-0.08 0.12 0.03-0.02-0.07 0.1c-0.05 0.04-0.1 0.09-0.12 0.16l-0.1 0.1 0.12-0.17-0.1 0.17c-0.24 0.38-0.67 0.62-1.15 0.62l1.35-1.34v0.02c0 0.77-0.6 1.37-1.35 1.37h-0.02c-0.55 0-1.06-0.31-1.25-0.84-0.22-0.5-0.1-1.08 0.29-1.49 0.38-0.36 0.96-0.48 1.46-0.26 0.53 0.19 0.87 0.7 0.87 1.22v0.05c0 0.36-0.17 0.75-0.46 1.01l-0.02 0.02c-0.24 0.22-0.58 0.34-0.92 0.34h-0.02c-0.55 0-1.06-0.34-1.27-0.84-0.22-0.5-0.1-1.08 0.31-1.49 0.38-0.38 0.96-0.48 1.46-0.29 0.51 0.22 0.84 0.72 0.84 1.25v0.05c0 0.38-0.16 0.74-0.45 1.01l-0.03 0.02c-0.24 0.22-0.57 0.34-0.91 0.34h-0.02l0.89-0.34h-0.03 0.03l-0.03 0.03c-0.26 0.21-0.57 0.33-0.91 0.33h-0.02l0.91-0.33-0.03 0.02c-0.26 0.22-0.57 0.34-0.91 0.34h-0.05c-0.33 0-0.67-0.12-0.91-0.34l-0.02-0.02 0.91 0.33h-0.05c-0.24 0-0.48-0.05-0.69-0.19l-0.1-0.05 0.14 0.07-0.07-0.02c-0.14-0.1-0.31-0.19-0.43-0.34l-0.05-0.04 0.46 0.33-0.05-0.02c-0.29-0.12-0.48-0.31-0.65-0.58v-0.05l0.17 0.24-0.05-0.02 0.1 0.1v-0.03c-0.05-0.05-0.12-0.09-0.15-0.14l-0.04-0.05 0.09 0.12-0.41-0.41c-0.07-0.05-0.14-0.12-0.19-0.19l-0.09-0.14 0.12 0.14-0.1-0.12-0.17-0.17-0.02-0.07-0.27-0.34 0.17 0.17-0.12-0.09 0.17 0.14-0.12-0.1c-0.07-0.04-0.17-0.12-0.22-0.19l-0.09-0.12 0.19 0.19-0.19-0.14 0.07 0.07-0.1-0.07 0.15 0.07-0.12-0.05-0.05-0.02-0.1-0.05-0.09-0.05-0.05-0.02c-0.07-0.05-0.14-0.1-0.22-0.17h-0.02l0.94 0.31h-0.03c-0.19 0-0.38-0.02-0.6-0.12h-0.02l0.6 0.1-0.05 0.02h-0.07c-0.36 0-0.7-0.12-0.94-0.33l-0.02-0.03 0.91 0.34h-0.05 0.03-0.1l1.27-0.94-0.02 0.05c-0.19 0.53-0.7 0.91-1.25 0.91h-0.1 0.03-0.1l0.91-0.36-0.02 0.03 0.1-0.1-0.12 0.12 0.12-0.17-0.03 0.05-0.07 0.12-0.07 0.07 0.14-0.21-0.02 0.05-0.05 0.09-0.05 0.07 0.1-0.14-0.05 0.07-0.07 0.17-0.05 0.05-0.05 0.07-0.02 0.05 0.21-1.06 0.03 0.07c0.05 0.34 0 0.7-0.19 0.99l-0.05 0.07 0.12-0.22-0.05 0.08 0.1-0.34v0.07l0.02-0.24v0.1c0 0.17-0.05 0.33-0.1 0.5l-0.07 0.19 0.03-0.07-0.03 0.07-0.02 0.08c-0.03 0.14-0.1 0.26-0.17 0.36l-0.02 0.04 0.14-0.28-0.05 0.09c-0.02 0.1-0.07 0.19-0.12 0.27l-0.05 0.07c-0.02 0.05-0.07 0.09-0.09 0.14l-0.03 0.05 0.1-0.14-0.05 0.07 0.1-0.15-0.05 0.05c-0.07 0.19-0.19 0.34-0.31 0.46l-0.07 0.07-0.1 0.07 0.48-1.08v0.03c0 0.33-0.12 0.64-0.31 0.93l-0.05 0.05c-0.07 0.07-0.17 0.17-0.29 0.24l-0.02 0.02-0.1 0.05-0.02 0.03-0.15 0.09h-0.04l0.55-0.43-0.03 0.02c-0.09 0.15-0.24 0.29-0.4 0.36l-0.03 0.03c-0.24 0.14-0.48 0.21-0.72 0.21h-0.07l0.91-0.36-0.02 0.03 0.02-0.03-0.02 0.05c-0.27 0.24-0.6 0.36-0.96 0.36h-0.05c-0.17 0-0.31-0.02-0.48-0.07l-0.05-0.02 0.48 0.07h-0.05c-0.33 0.02-0.69-0.12-0.93-0.34l-0.05-0.02 0.96 0.33h-0.07c-0.34 0-0.7-0.12-0.96-0.33v-0.03l0.93 0.36h-0.02c-0.36 0-0.7-0.12-0.96-0.36l-0.02-0.02h-0.03l0.36 0.22-0.02-0.03 0.57 0.12h-0.02c-0.55 0-1.08-0.31-1.32-0.84l-0.02-0.05 0.57 0.65-0.02-0.02c-0.1-0.05-0.17-0.1-0.22-0.15l-0.02-0.02c-0.31-0.26-0.48-0.65-0.51-1.06v-0.02l0.87 1.27h-0.05c-0.17-0.07-0.34-0.19-0.46-0.31l-0.57-0.6-0.41-0.41h0.02l-0.14-0.17 0.14 0.15-0.19-0.15 0.05 0.05-0.19-0.14 0.07 0.05-0.22-0.15-0.12-0.07-0.21-0.17 0.14 0.1-0.05-0.03 0.15 0.08-0.1-0.05-0.07-0.03-0.07-0.04-0.05-0.03-0.1-0.05 0.34 0.12h-0.07c-0.1-0.02-0.17-0.04-0.24-0.09l-0.1-0.03 0.24 0.08-0.07-0.03 0.07 0.03-0.12-0.03 0.46 0.03h-0.1l-0.17 0.02h-0.07l0.96-0.38-0.02 0.02c-0.27 0.24-0.6 0.36-0.96 0.36h-0.07 0.02-0.05l0.34-0.02-0.05 0.02 0.94-0.72-0.03 0.02c-0.14 0.27-0.38 0.48-0.67 0.6l-0.05 0.03 0.22-0.12-0.05 0.05-0.05 0.02-0.02 0.02c-0.24 0.12-0.48 0.22-0.77 0.22h-0.05l0.99-0.36h-0.03l-0.02 0.02 0.29-0.36-0.03 0.05c-0.26 0.43-0.74 0.72-1.27 0.72h-0.02l1.22-0.62-0.05 0.05c-0.07 0.09-0.14 0.19-0.24 0.26l-0.02 0.02 0.19-0.21-0.02 0.02 0.02-0.02-0.24 0.33 0.05-0.04-0.07 0.09 0.12-0.19-0.05 0.12c-0.05 0.07-0.07 0.12-0.1 0.19l-0.07 0.12 0.02-0.05-0.14 0.29c-0.02 0.05-0.07 0.12-0.1 0.17l-0.16 0.24 0.09-0.19-0.02 0.07c-0.07 0.14-0.17 0.26-0.27 0.38l-0.07 0.05 0.05-0.05-0.07 0.1c-0.05 0.05-0.1 0.1-0.12 0.14l-0.07 0.05-0.03 0.03 0.48-1.08v0.02c0 0.79-0.65 1.44-1.46 1.44l1.34-0.94v0.03c-0.14 0.36-0.43 0.65-0.77 0.81h-0.04l0.36-0.21-0.03 0.02c-0.26 0.22-0.6 0.36-0.96 0.36h-0.05l1.18-0.57-0.02 0.02c-0.27 0.36-0.7 0.58-1.16 0.58h-0.07l-0.02-0.03h-0.03l1.01-0.33-0.02 0.02c-0.29 0.24-0.63 0.36-0.99 0.36h-0.02l0.34-0.05h-0.05c-0.12 0.05-0.22 0.05-0.34 0.05h-0.05 0.03-0.03c-0.24 0-0.48-0.07-0.72-0.19l-0.12-0.07-0.02-0.03-0.07-0.05c-0.07-0.02-0.15-0.09-0.22-0.16l-0.05-0.03 0.24 0.19-0.07-0.04c-0.07-0.05-0.17-0.1-0.21-0.2h-0.03l-0.05-0.04c-0.12-0.1-0.24-0.24-0.31-0.39l-0.02-0.05 0.67 0.63-0.05-0.03c-0.31-0.14-0.57-0.38-0.72-0.72l-0.02-0.04 0.36 0.48-0.05-0.05-0.05-0.03c-0.14-0.14-0.26-0.31-0.36-0.5v-0.05l-0.05-0.07-0.02-0.07 0.74 0.81-0.02-0.02c-0.53-0.24-0.84-0.74-0.84-1.32v-0.07l0.12 0.57-0.05-0.02 0.12 0.19-0.09-0.17-0.03-0.02-0.05-0.07-0.02-0.07-0.05-0.08 0.05 0.08-0.07-0.1 0.57 0.53-0.09-0.05c-0.22-0.12-0.41-0.29-0.55-0.5l-0.05-0.08 0.07 0.1-0.05-0.07 0.12 0.14-0.43-0.43 0.14 0.12-0.09-0.07-0.05-0.07 0.07 0.09-0.07-0.07c-0.05-0.05-0.12-0.1-0.17-0.17l-0.07-0.05 0.48 0.34-0.05-0.05 0.55 0.15h-0.02c-0.79-0.03-1.42-0.68-1.42-1.44v-0.03c0-0.79 0.65-1.44 1.44-1.41 0.8 0 1.44 0.64 1.42 1.44 0 0.76-0.65 1.41-1.44 1.41-0.41 0-0.77-0.17-1.03-0.43-0.27-0.26-0.41-0.62-0.41-1.01v-0.05c0-0.76 0.65-1.41 1.44-1.39 0.79 0 1.44 0.65 1.44 1.44-0.02 0.77-0.67 1.42-1.44 1.39h-0.05c-0.33 0-0.67-0.12-0.93-0.36l-0.03-0.02 0.96 0.38h-0.07l0.6-0.12c-0.22 0.1-0.41 0.12-0.6 0.12h-0.1 0.03-0.05 0.02-0.07l0.96-0.36-0.05 0.03c-0.26 0.21-0.6 0.36-0.93 0.36h-0.03l1.32-0.91v0.02c-0.21 0.55-0.74 0.91-1.34 0.91l1.42-1.41v0.02c0 0.41-0.2 0.79-0.48 1.06l-0.24 0.21 0.12-0.12-0.1 0.1-0.07 0.09 0.21-0.33-0.07 0.12c-0.02 0.09-0.07 0.19-0.14 0.26l-0.07 0.07 0.02-0.02-0.1 0.12 0.15-0.22-0.05 0.12-0.02 0.05-0.08 0.12 0.08-0.17-0.03 0.12c-0.05 0.05-0.07 0.1-0.09 0.17l-0.22 0.41 0.02-0.05-0.09 0.17c-0.05 0.07-0.1 0.14-0.15 0.22l-0.09 0.12-0.03 0.02-0.09 0.12-0.03 0.02-0.04 0.08 0.16-0.29-0.02 0.07c-0.24 0.5-0.79 0.79-1.37 0.74l0.77-0.14-0.05 0.02 0.72-1.1v0.02c-0.05 0.44-0.29 0.82-0.65 1.06l-0.04 0.02-0.08 0.05h-0.02 0.02l-0.04 0.03c-0.08 0.02-0.12 0.04-0.17 0.07l-0.05 0.02 0.62-0.5-0.02 0.02c-0.24 0.39-0.72 0.6-1.18 0.6h-0.04l1.1-0.5-0.02 0.02c-0.27 0.34-0.7 0.53-1.11 0.51h-0.07c-0.34-0.03-0.7-0.2-0.94-0.44v-0.02l0.68 0.38h-0.03c-0.26-0.07-0.48-0.19-0.67-0.38l-0.02-0.02 0.81 0.4h-0.05c-0.36-0.04-0.67-0.24-0.88-0.5-0.22-0.29-0.34-0.65-0.29-1.01l0.02-0.02c0.07-0.75 0.77-1.25 1.49-1.18 0.74 0.1 1.27 0.77 1.18 1.51-0.1 0.72-0.75 1.25-1.52 1.18-0.4-0.05-0.76-0.26-0.98-0.6l-0.02-0.05 1.82 0.43c-0.24 0.17-0.58 0.22-0.84 0.2h-0.05c-0.72-0.1-1.25-0.75-1.17-1.47l0.02-0.02 0.36 1.03h-0.05l0.84 0.38h-0.05c-0.36-0.02-0.67-0.21-0.88-0.5-0.22-0.29-0.32-0.62-0.27-0.98v-0.03l0.36 1.08-0.05-0.02 0.82 0.41c-0.36-0.03-0.7-0.22-0.89-0.51-0.24-0.29-0.31-0.62-0.29-0.96v-0.05 0.08-0.03l0.36 1.01-0.02-0.02c-0.26-0.29-0.41-0.68-0.34-1.06v-0.05l0.17 0.84-0.62-1.03c-0.03-0.07-0.05-0.12-0.1-0.19l-0.14-0.41-0.03-0.1-0.14-0.4 0.05 0.12-0.22-0.51c-0.24-0.53 0-1.13 0.48-1.39 0.51-0.29 1.13-0.12 1.44 0.36z"/>
  <path transform="matrix(1.3333 0 0 -1.3333 0 1120.8)" d="m410.16 688.37v-0.03l-0.02-0.02v-0.02 0.02-0.02l1 0.4h-0.02c-0.31 0.12-0.65 0.03-0.89-0.21s-0.29-0.6-0.17-0.91l0.08-0.15c0.04-0.12 0.12-0.21 0.21-0.31l0.36-0.34c0.12-0.12 0.27-0.21 0.41-0.26l0.6-0.19 0.12-0.03 0.84-0.19h0.05l0.19-0.02 0.14-0.03h0.27l0.45 0.03h0.12l0.6 0.09h-0.02 0.19c0.12 0.03 0.24 0.08 0.36 0.12l0.17 0.08-0.36-0.12 0.14 0.02c0.1 0.02 0.2 0.05 0.29 0.1l0.17 0.04 0.05 0.03 0.14 0.07-0.05-0.02 0.17 0.07 0.05 0.02 0.14 0.07 0.12 0.08 0.17 0.07 0.07 0.07 0.12 0.1 0.34 0.26 0.1 0.07 0.04 0.05-0.19-0.14 0.07 0.04c0.15 0.08 0.24 0.2 0.34 0.34l0.07 0.05-0.17-0.17 0.22 0.22 0.05 0.07-0.17-0.17 0.05 0.05c0.07 0.05 0.12 0.12 0.14 0.17l0.07 0.07 0.05 0.07c0.05 0.1 0.1 0.19 0.15 0.29l0.02 0.07-0.31-0.48 0.05 0.05c0.14 0.12 0.24 0.29 0.31 0.48l0.02 0.07 0.03 0.1 0.02 0.09-0.02-0.09 0.02 0.07-0.14-0.29 0.04 0.05c0.15 0.21 0.22 0.45 0.22 0.67v0.17l-0.07-0.39 0.02 0.08 0.05 0.09 0.02 0.07c0.03 0.12 0.03 0.2 0.03 0.32l0.02 0.04v0.27c0 0.09-0.02 0.21-0.02 0.31l-0.05 0.19-0.05 0.07-0.02 0.15c-0.15 0.43-0.51 0.77-0.94 0.86-0.45 0.07-0.91-0.07-1.22-0.41-0.29-0.36-0.39-0.81-0.24-1.24l0.07-0.15-0.05 0.12 0.05-0.21-0.05 0.31v-0.19l0.03-0.08v-0.04l0.02 0.28-0.02-0.07 0.02 0.07-0.02-0.07c-0.03-0.12-0.05-0.24-0.05-0.38v-0.17l0.19 0.72-0.05-0.07c-0.05-0.1-0.09-0.19-0.12-0.31l-0.05-0.08v-0.07l-0.02-0.09 0.02 0.09-0.02-0.09 0.26 0.48-0.02-0.03c-0.14-0.14-0.24-0.31-0.29-0.48l-0.02-0.09 0.14 0.31-0.05-0.07-0.04-0.08 0.14 0.2-0.05-0.05c-0.05-0.07-0.09-0.12-0.14-0.19l-0.05-0.08 0.14 0.2-0.04-0.05c-0.05-0.07-0.1-0.12-0.15-0.19l-0.05-0.08 0.34 0.34-0.07-0.05c-0.05-0.05-0.15-0.09-0.17-0.14l-0.05-0.07 0.12 0.12-0.33-0.27h-0.03l-0.12-0.09 0.07 0.04-0.12-0.09 0.12 0.09-0.14-0.09 0.07 0.05-0.17-0.08-0.07-0.04-0.12-0.08 0.05 0.03-0.17-0.07 0.29 0.09-0.14-0.02c-0.12-0.03-0.22-0.07-0.34-0.12l-0.12-0.07 0.36 0.12-0.17-0.03h-0.05l-0.6-0.09h0.15l-0.48-0.03h0.05-0.2l0.15-0.02-0.19 0.02h0.04l-0.86 0.12 0.12-0.02-0.6 0.14-0.07 0.03-0.51 0.07h-0.24c-0.36 0.05-0.67-0.15-0.81-0.46-0.15-0.29-0.1-0.67 0.12-0.93 0.24-0.24 0.6-0.32 0.91-0.2h0.02c0.22 0.08 0.41 0.27 0.48 0.48 0.1 0.22 0.08 0.48-0.02 0.68l-0.02 0.02 0.02-0.02-0.02 0.02-0.03 0.02v0.03c-0.12 0.24-0.41 0.41-0.69 0.41-0.29 0-0.56-0.17-0.7-0.41z"/>
  <path transform="matrix(1.3333 0 0 -1.3333 0 1120.8)" d="m415.87 687.43 0.1-0.05c0.24-0.09 0.5-0.12 0.74-0.09l0.58 0.12-0.1-0.03 1.42 0.2h-0.12l2.11 0.02h-0.12l3.58-0.22h-0.05l0.5-0.04h0.05l2.09-0.15h0.24c0.48-0.02 0.93 0.27 1.2 0.7 0.24 0.41 0.24 0.93 0 1.37-0.27 0.45-0.72 0.69-1.2 0.69h-0.15 0.08l-2.09 0.12h0.02l-0.48 0.03h-0.07l-3.6 0.12h-0.12l-2.11-0.17-0.17-0.03-1.39-0.28h0.07l-0.58-0.08c-0.43-0.04-0.81-0.36-0.96-0.79l-0.02-0.14c-0.19-0.51 0.05-1.08 0.55-1.3z"/>
  <path transform="matrix(1.3333 0 0 -1.3333 0 1120.8)" d="m422.14 695.42-0.03-0.88v-0.15l0.05-0.33v0.12l-0.02-0.99-0.03-1.29v0.12l-0.02-0.24v-0.24l0.02-0.65v0.09-0.62l0.05-0.72-0.02 0.07v-0.09c0-0.44 0.24-0.89 0.62-1.11 0.41-0.24 0.89-0.24 1.27 0 0.41 0.22 0.65 0.67 0.63 1.11v0.19l-0.05 0.72v-0.07 0.52l-0.03 0.08-0.04 0.67v-0.19l0.02 0.28v0.08l-0.02 1.29-0.03 0.99c0 0.09 0 0.16-0.02 0.21l-0.05 0.34v-0.15l-0.05 0.89c-0.05 0.6-0.55 1.08-1.15 1.06-0.6-0.03-1.08-0.51-1.1-1.11z"/>
  <path transform="matrix(1.3333 0 0 -1.3333 0 1120.8)" d="m423.29 694.63 0.24-0.07c0.05-0.02 0.12-0.02 0.19-0.02l0.65-0.08-0.12 0.03 0.5-0.12c0.07-0.03 0.15-0.03 0.22-0.03l1.37-0.04h-0.1l0.72-0.08-1.15 1.32-0.07-2.66v-0.02l-0.03-2.72v0.03l-0.07-1.49v-0.17c0-0.48 0.26-0.93 0.67-1.17 0.43-0.24 0.96-0.24 1.37 0 0.43 0.24 0.7 0.69 0.7 1.17v0.12-0.02l0.02 1.46v0.05l0.02 2.74v0.02l-0.04 2.66c0 0.36-0.17 0.7-0.46 0.94-0.24 0.22-0.6 0.34-0.96 0.31l-0.72-0.07 0.1 0.02-1.37-0.04h0.09-1.27 0.15l-0.24 0.02c-0.53 0.05-1.04-0.31-1.16-0.86-0.09-0.53 0.22-1.06 0.75-1.23z"/>
 </g>
</svg>
