<?xml version="1.0" encoding="UTF-8" standalone="no"?>
<!-- Created with Inkscape (http://www.inkscape.org/) -->

<svg
   version="1.1"
   id="svg1"
   width="87.112839"
   height="33.197979"
   viewBox="0 0 87.112839 33.197977"
   sodipodi:docname="word2.svg"
   xmlns:inkscape="http://www.inkscape.org/namespaces/inkscape"
   xmlns:sodipodi="http://sodipodi.sourceforge.net/DTD/sodipodi-0.dtd"
   xmlns="http://www.w3.org/2000/svg"
   xmlns:svg="http://www.w3.org/2000/svg">
  <defs
     id="defs1" />
  <sodipodi:namedview
     id="namedview1"
     pagecolor="#ffffff"
     bordercolor="#000000"
     borderopacity="0.25"
     inkscape:showpageshadow="2"
     inkscape:pageopacity="0.0"
     inkscape:pagecheckerboard="0"
     inkscape:deskcolor="#d1d1d1"
     inkscape:zoom="1.6785563"
     inkscape:cx="-7.1490008"
     inkscape:cy="82.511384"
     inkscape:window-width="1920"
     inkscape:window-height="1191"
     inkscape:window-x="-9"
     inkscape:window-y="-9"
     inkscape:window-maximized="1"
     inkscape:current-layer="g1">
    <inkscape:page
       x="1.0597666e-06"
       y="8.6445722e-09"
       inkscape:label="1"
       id="page1"
       width="87.112839"
       height="33.197979"
       margin="0"
       bleed="0" />
  </sodipodi:namedview>
  <g
     id="g1"
     inkscape:groupmode="layer"
     inkscape:label="1"
     transform="translate(-353.84716,-108.08718)">
    <g
       id="g78">
      <path
         id="path78"
         d="m 268.15,757.46 0.46,-0.04 h 0.14 l 0.36,0.02 v 0 l 0.36,0.02 h -0.05 0.77 v 0 h 0.46 -0.03 l 1.9,-0.12 v 0 l 1.87,-0.12 h 0.07 l 1.42,-0.02 h -0.02 0.14 c 0.43,-0.02 0.82,0.19 1.03,0.55 0.22,0.36 0.22,0.82 0,1.18 -0.21,0.36 -0.6,0.57 -1.03,0.55 h -0.14 -0.03 l -1.41,-0.07 h 0.04 l -1.89,-0.03 v 0 h -1.9 -0.02 -0.46 v 0 h -0.77 l -0.07,-0.02 -0.36,-0.02 v 0 l -0.38,-0.05 h 0.12 l -0.46,0.02 c -0.5,0.03 -0.91,-0.38 -0.96,-0.86 -0.02,-0.51 0.36,-0.91 0.84,-0.99 z"
         style="fill:#000000;fill-opacity:1;fill-rule:nonzero;stroke:none"
         transform="matrix(1.3333333,0,0,-1.3333333,0,1120.8)" />
    </g>
    <g
       id="g79">
      <path
         id="path79"
         d="m 275.42,758.57 0.03,-0.31 v 0.04 l -0.03,-0.62 v -0.02 l 0.03,-1.56 v -0.08 l 0.07,-1.05 0.02,-0.12 0.39,-1.75 0.02,-0.08 0.7,-2.56 v 0 l 0.41,-1.42 0.02,-0.02 0.22,-0.72 v 0 l 1.15,-3.75 0.02,-0.02 0.87,-2.47 0.02,-0.08 0.22,-0.5 -0.03,0.05 1.01,-2.76 -0.02,0.05 0.12,-0.34 -0.05,0.1 0.09,-0.36 v -0.03 l 0.08,-0.33 v 0.12 l 0.02,-0.36 v 0 l 0.07,-0.36 -0.02,0.07 0.05,-0.36 v 0.05 l 0.02,-0.77 v 0.14 l -0.02,-0.24 c -0.08,-0.57 0.36,-1.13 0.96,-1.2 0.6,-0.07 1.12,0.36 1.2,0.99 l 0.02,0.21 v 0.17 l -0.02,0.77 v 0.05 l -0.03,0.36 -0.02,0.07 -0.05,0.36 v 0 l -0.05,0.36 -0.02,0.07 -0.07,0.34 v -0.03 l -0.08,0.36 -0.02,0.1 -0.12,0.33 v 0.05 l -1.01,2.76 -0.02,0.05 -0.19,0.48 v -0.02 l -0.84,2.44 v -0.02 l -1.18,3.74 v 0.03 l -0.24,0.72 v -0.05 l -0.41,1.42 v 0 l -0.79,2.54 v -0.05 l -0.43,1.75 v -0.14 l -0.1,1.06 v -0.1 l -0.05,1.58 v -0.02 0.62 l -0.02,0.12 -0.05,0.29 c -0.05,0.51 -0.5,0.87 -0.98,0.82 -0.51,-0.05 -0.89,-0.48 -0.87,-0.96 z"
         style="fill:#000000;fill-opacity:1;fill-rule:nonzero;stroke:none"
         transform="matrix(1.3333333,0,0,-1.3333333,0,1120.8)" />
    </g>
    <g
       id="g80">
      <path
         id="path80"
         d="m 267.67,757.3 0.48,-0.17 0.07,-0.03 0.77,-0.24 0.1,-0.02 0.5,-0.1 0.12,-0.02 0.1,-0.02 -0.27,0.07 0.1,-0.03 c 0.1,-0.04 0.19,-0.07 0.29,-0.07 l 0.12,-0.02 -0.51,0.17 0.1,-0.05 c 0.07,-0.05 0.19,-0.1 0.29,-0.12 l 0.29,-0.1 -0.34,0.17 0.05,-0.02 c 0.07,-0.08 0.19,-0.12 0.26,-0.17 l 0.12,-0.03 c 0.07,-0.02 0.17,-0.04 0.24,-0.04 l 0.07,-0.03 -0.55,0.22 0.05,-0.03 c 0.17,-0.12 0.36,-0.21 0.55,-0.21 l 0.07,-0.03 -0.07,0.03 0.22,-0.03 c 0.14,-0.04 0.33,-0.02 0.5,0.03 l 0.1,0.02 c 0.38,0.12 0.69,0.46 0.77,0.87 0.09,0.4 -0.08,0.84 -0.39,1.1 -0.33,0.26 -0.77,0.34 -1.15,0.17 l -0.07,-0.03 0.53,0.08 -0.22,0.02 c -0.07,0.02 -0.14,0.02 -0.22,0 h -0.07 l 0.51,-0.07 -0.05,0.02 c -0.17,0.07 -0.34,0.07 -0.51,0.07 l -0.07,-0.02 0.34,-0.02 -0.12,0.04 0.19,-0.07 -0.07,0.03 -0.12,0.04 -0.29,0.08 0.17,-0.08 -0.1,0.05 c -0.14,0.07 -0.33,0.1 -0.5,0.1 l -0.12,-0.03 h 0.26 -0.12 c -0.07,0.03 -0.17,0.03 -0.26,0.03 l -0.1,-0.03 h 0.19 l -0.52,0.08 h 0.02 l -0.82,0.07 h -0.04 l -0.53,0.02 c -0.41,0.03 -0.77,-0.26 -0.87,-0.69 -0.07,-0.41 0.15,-0.8 0.53,-0.96 z"
         style="fill:#000000;fill-opacity:1;fill-rule:nonzero;stroke:none"
         transform="matrix(1.3333333,0,0,-1.3333333,0,1120.8)" />
    </g>
    <g
       id="g81">
      <path
         id="path81"
         d="m 271.22,757.63 -0.14,-0.36 -0.02,-0.14 -0.15,-0.67 v -0.12 l -0.12,-1.78 v -0.07 -0.87 0 -0.88 -0.15 l 0.29,-1.94 v 0 l 0.19,-1.32 v 0 l 0.43,-2.52 v -0.05 l 0.12,-0.55 0.03,-0.05 0.14,-0.5 0.03,-0.1 0.55,-1.42 v -0.02 l 0.07,-0.19 v 0 l 0.07,-0.19 0.07,-0.12 0.1,-0.17 v 0 l 0.1,-0.19 c 0.04,-0.05 0.07,-0.12 0.12,-0.17 l 0.12,-0.17 v 0 l 0.31,-0.38 h 0.02 l 0.12,-0.17 c 0.27,-0.31 0.7,-0.48 1.08,-0.41 0.41,0.07 0.77,0.36 0.89,0.74 0.17,0.39 0.07,0.82 -0.19,1.13 l -0.12,0.17 v -0.02 l -0.31,0.38 -0.03,0.05 -0.14,0.14 0.12,-0.17 -0.1,0.2 v 0 l -0.12,0.19 0.07,-0.12 -0.09,0.17 v 0 l -0.07,0.19 0.02,-0.05 -0.58,1.42 0.03,-0.05 -0.17,0.48 v -0.05 l -0.14,0.53 0.02,-0.1 -0.48,2.5 v 0 l -0.22,1.27 v 0 l -0.31,1.94 v -0.12 l -0.05,0.92 v 0 l -0.04,0.86 v -0.1 l 0.04,1.8 v -0.09 l 0.08,0.69 -0.03,-0.09 0.1,0.38 c 0.09,0.46 -0.17,0.91 -0.63,1.03 -0.45,0.12 -0.91,-0.12 -1.08,-0.55 z"
         style="fill:#000000;fill-opacity:1;fill-rule:nonzero;stroke:none"
         transform="matrix(1.3333333,0,0,-1.3333333,0,1120.8)" />
    </g>
    <g
       id="g82">
      <path
         id="path82"
         d="m 274.49,744.86 0.02,-0.07 -0.12,0.67 -0.07,-0.36 v -0.04 l -0.12,-0.87 0.05,0.17 -0.12,-0.36 c -0.03,-0.05 -0.05,-0.12 -0.05,-0.19 l -0.12,-0.89 c -0.05,-0.38 0.14,-0.79 0.48,-1.03 0.34,-0.24 0.79,-0.27 1.15,-0.07 0.36,0.19 0.58,0.57 0.58,0.98 l 0.02,0.86 v -0.09 l 0.03,0.38 V 744 l 0.04,0.89 v 0.07 l -0.02,0.36 -0.14,-0.53 0.04,0.07 c 0.27,0.41 0.2,0.96 -0.19,1.28 -0.36,0.33 -0.91,0.33 -1.29,0 -0.39,-0.32 -0.46,-0.87 -0.17,-1.28 z"
         style="fill:#000000;fill-opacity:1;fill-rule:nonzero;stroke:none"
         transform="matrix(1.3333333,0,0,-1.3333333,0,1120.8)" />
    </g>
    <g
       id="g84">
      <path
         id="path84"
         d="m 272.52,745.73 -0.29,-0.24 c -0.07,-0.05 -0.14,-0.12 -0.21,-0.19 l -0.77,-1.11 -0.05,-0.07 -1.44,-2.4 v -0.02 l -0.67,-1.18 -0.03,-0.05 -0.02,-0.07 v 0 l -1.27,-2.45 0.05,0.05 -0.32,-0.5 -0.02,-0.05 -0.07,-0.12 c -0.22,-0.39 -0.17,-0.84 0.05,-1.2 0.21,-0.36 0.64,-0.55 1.05,-0.53 0.43,0.05 0.82,0.29 0.99,0.7 l 0.07,0.12 -0.05,-0.05 0.29,0.53 0.02,0.02 1.2,2.5 v 0 l 0.05,0.04 -0.05,-0.02 0.65,1.18 v 0 l 1.37,2.44 -0.05,-0.04 0.72,1.15 0.05,0.09 0.14,0.34 c 0.19,0.38 0.07,0.84 -0.26,1.1 -0.34,0.27 -0.79,0.27 -1.13,0.03 z"
         style="fill:#000000;fill-opacity:1;fill-rule:nonzero;stroke:none"
         transform="matrix(1.3333333,0,0,-1.3333333,0,1120.8)" />
    </g>
    <g
       id="g85">
      <path
         id="path85"
         d="m 274.25,742.87 -0.12,-0.29 v 0.03 l -0.65,-1.37 0.05,0.05 -1.8,-3.36 0.05,0.07 -0.24,-0.38 -0.03,-0.05 -0.09,-0.17 c -0.22,-0.36 -0.22,-0.84 -0.03,-1.2 0.22,-0.36 0.63,-0.6 1.06,-0.6 0.41,0.02 0.79,0.24 1.01,0.62 l 0.09,0.2 v -0.03 l 0.24,0.41 0.03,0.07 1.65,3.41 0.05,0.1 0.53,1.44 0.02,0.07 0.1,0.29 c 0.14,0.5 -0.15,1.05 -0.65,1.22 -0.5,0.19 -1.06,-0.05 -1.27,-0.53 z"
         style="fill:#000000;fill-opacity:1;fill-rule:nonzero;stroke:none"
         transform="matrix(1.3333333,0,0,-1.3333333,0,1120.8)" />
    </g>
    <g
       id="g86">
      <path
         id="path86"
         d="m 266.93,737.45 -0.48,-0.05 c -0.53,0 -0.99,-0.43 -1.06,-0.98 -0.05,-0.53 0.31,-1.04 0.84,-1.18 l 0.75,-0.17 c 0.09,-0.02 0.16,-0.02 0.26,-0.02 l 4.32,-0.1 h -0.07 l 0.98,-0.07 h 0.05 l 2.71,-0.05 v 0 h 0.29 c 0.5,0 0.98,0.27 1.25,0.72 0.26,0.43 0.26,0.99 0,1.44 -0.27,0.43 -0.75,0.72 -1.25,0.7 h -0.29 v 0 l -2.71,-0.05 h 0.05 -1.01 -0.02 l -4.32,-0.14 h -0.08 l -0.74,-0.1 c -0.46,-0.02 -0.82,-0.34 -0.96,-0.77 -0.12,-0.43 0.02,-0.89 0.36,-1.17 0.36,-0.27 0.84,-0.32 1.22,-0.1 l 0.44,0.24 c 0.38,0.22 0.57,0.67 0.45,1.13 -0.12,0.43 -0.5,0.72 -0.98,0.72 z"
         style="fill:#000000;fill-opacity:1;fill-rule:nonzero;stroke:none"
         transform="matrix(1.3333333,0,0,-1.3333333,0,1120.8)" />
    </g>
    <g
       id="g87">
      <path
         id="path87"
         d="m 274.32,745.13 v -0.53 -0.05 l 0.02,-0.17 c 0,-0.09 0.03,-0.19 0.05,-0.28 l 0.07,-0.15 -0.07,0.29 v -0.14 c 0.03,-0.1 0.05,-0.22 0.1,-0.32 l 0.12,-0.31 -0.03,0.05 0.08,-0.24 0.07,-0.14 0.12,-0.27 0.07,-0.09 0.43,-0.7 v 0 l 0.12,-0.17 v 0 l 0.12,-0.19 c 0.05,-0.07 0.1,-0.12 0.15,-0.19 l 0.16,-0.17 h 0.03 l 0.38,-0.41 0.07,-0.05 1.47,-1.32 v 0.03 l 1.27,-1.18 -0.07,0.1 0.17,-0.19 0.04,-0.05 0.2,-0.22 -0.05,0.05 0.17,-0.19 -0.1,0.17 0.14,-0.24 -0.02,0.02 0.12,-0.24 0.05,-0.07 0.17,-0.22 -0.08,0.12 0.12,-0.24 v 0 l 0.15,-0.24 -0.07,0.15 0.28,-0.72 -0.04,0.19 0.14,-0.72 -0.02,0.14 0.02,-0.24 c 0.05,-0.45 0.31,-0.84 0.72,-1.03 0.41,-0.19 0.89,-0.17 1.27,0.12 0.39,0.24 0.58,0.7 0.53,1.15 l -0.02,0.24 -0.03,0.15 -0.14,0.72 c -0.03,0.07 -0.05,0.14 -0.07,0.19 l -0.29,0.72 -0.07,0.17 -0.12,0.24 v 0 l -0.15,0.24 -0.07,0.12 -0.14,0.19 0.02,-0.05 -0.12,0.22 -0.02,0.02 -0.17,0.24 c -0.03,0.05 -0.07,0.1 -0.1,0.14 l -0.19,0.2 -0.05,0.07 -0.19,0.19 0.05,-0.05 -0.19,0.19 -0.1,0.1 -1.32,1.18 -0.02,0.02 -1.54,1.25 0.05,-0.05 -0.41,0.41 -0.05,0.02 -0.19,0.15 0.17,-0.15 -0.15,0.17 v 0 l -0.14,0.17 0.02,-0.05 -0.48,0.65 -0.02,0.02 -0.17,0.22 0.07,-0.12 -0.14,0.24 0.05,-0.07 -0.15,0.28 0.08,-0.19 -0.03,0.15 c -0.02,0.07 -0.07,0.16 -0.12,0.24 l -0.07,0.14 0.12,-0.29 -0.05,0.15 0.03,-0.08 -0.1,0.56 c -0.07,0.5 -0.53,0.86 -1.03,0.81 -0.51,-0.05 -0.89,-0.45 -0.89,-0.98 z"
         style="fill:#000000;fill-opacity:1;fill-rule:nonzero;stroke:none"
         transform="matrix(1.3333333,0,0,-1.3333333,0,1120.8)" />
    </g>
    <g
       id="g88">
      <path
         id="path88"
         d="m 291.38,757.13 -0.04,-0.15 c 0,-0.09 0,-0.14 0,-0.21 l 0.02,-2.21 v -0.02 l 0.05,-2.12 0.02,-0.12 0.03,-0.28 v 0.16 l -0.03,-0.81 v -0.05 -0.14 c 0,-0.44 0.22,-0.82 0.58,-1.01 0.36,-0.22 0.81,-0.22 1.17,0 0.36,0.19 0.58,0.57 0.58,1.01 v 0.14 -0.02 l 0.02,0.84 c 0,0.04 0,0.12 -0.02,0.19 l -0.05,0.29 0.03,-0.1 -0.15,2.14 v 0.02 l -0.19,2.18 c -0.02,0.12 -0.05,0.24 -0.1,0.32 l -0.04,0.16 c -0.17,0.39 -0.6,0.63 -1.04,0.6 -0.4,-0.04 -0.76,-0.38 -0.84,-0.81 z"
         style="fill:#000000;fill-opacity:1;fill-rule:nonzero;stroke:none"
         transform="matrix(1.3333333,0,0,-1.3333333,0,1120.8)" />
    </g>
    <g
       id="g89">
      <path
         id="path89"
         d="m 292.87,757.9 -0.05,0.04 c -0.33,0.12 -0.67,0.05 -0.93,-0.16 -0.24,-0.2 -0.36,-0.53 -0.31,-0.87 0.07,-0.33 0.28,-0.6 0.6,-0.69 l 0.04,-0.03 c 0.08,-0.02 0.12,-0.02 0.2,-0.05 l 1.6,-0.16 v 0 l 1.59,-0.15 0.07,-0.02 1.34,-0.03 h 0.03 0.14 c 0.6,0 1.08,0.48 1.08,1.06 0,0.58 -0.48,1.06 -1.08,1.06 h -0.14 0.02 l -1.34,0.04 v 0 l -1.59,0.03 v 0 l -1.6,0.02 c -0.12,0.03 -0.22,-0.02 -0.32,-0.05 h -0.04 c -0.32,-0.12 -0.53,-0.38 -0.6,-0.69 -0.05,-0.34 0.07,-0.67 0.31,-0.87 0.26,-0.21 0.6,-0.28 0.93,-0.16 l 0.05,0.04 c 0.34,0.12 0.58,0.44 0.58,0.82 0,0.36 -0.24,0.7 -0.58,0.82 z"
         style="fill:#000000;fill-opacity:1;fill-rule:nonzero;stroke:none"
         transform="matrix(1.3333333,0,0,-1.3333333,0,1120.8)" />
    </g>
    <g
       id="g90">
      <path
         id="path90"
         d="m 296.33,757.01 -0.03,-0.17 c -0.02,-0.07 -0.02,-0.14 -0.02,-0.22 l 0.02,-2.2 v 0 l 0.08,-2.14 v -0.1 l 0.04,-0.31 v 0.19 l -0.04,-0.84 v -0.04 -0.15 c 0,-0.43 0.24,-0.81 0.6,-1.03 0.36,-0.19 0.81,-0.19 1.17,0 0.36,0.22 0.55,0.6 0.55,1.03 v 0.15 0 l 0.03,0.81 c 0,0.07 0,0.12 0,0.19 l -0.05,0.29 v -0.09 l -0.12,2.11 -0.02,0.05 -0.2,2.2 c 0,0.1 -0.04,0.22 -0.07,0.32 l -0.07,0.16 c -0.17,0.39 -0.58,0.63 -1.03,0.58 -0.41,-0.05 -0.77,-0.38 -0.84,-0.79 z"
         style="fill:#000000;fill-opacity:1;fill-rule:nonzero;stroke:none"
         transform="matrix(1.3333333,0,0,-1.3333333,0,1120.8)" />
    </g>
    <g
       id="g91">
      <path
         id="path91"
         d="m 293.21,751.8 -0.07,0.02 c -0.34,0.08 -0.68,-0.04 -0.92,-0.31 -0.21,-0.26 -0.28,-0.62 -0.14,-0.93 0.12,-0.34 0.41,-0.53 0.77,-0.58 h 0.05 v 0 l 1.6,-0.1 v 0 l 1.61,-0.07 h 0.05 1.34 l 0.08,0.03 h 0.12 c 0.6,0.02 1.05,0.55 1,1.12 -0.04,0.6 -0.55,1.04 -1.15,0.99 h -0.12 0.05 l -1.34,-0.03 v 0 l -1.61,-0.04 v 0 l -1.59,-0.05 c -0.16,0 -0.33,-0.05 -0.48,-0.12 l -0.04,-0.03 c -0.41,-0.26 -0.53,-0.81 -0.29,-1.24 0.24,-0.41 0.79,-0.58 1.22,-0.34 l 0.07,0.02 c 0.32,0.2 0.51,0.53 0.46,0.92 -0.05,0.36 -0.31,0.64 -0.67,0.74 z"
         style="fill:#000000;fill-opacity:1;fill-rule:nonzero;stroke:none"
         transform="matrix(1.3333333,0,0,-1.3333333,0,1120.8)" />
    </g>
    <g
       id="g92">
      <path
         id="path92"
         d="m 297.7,742.56 -0.41,0.17 c -0.05,0.02 -0.12,0.05 -0.17,0.05 l -0.07,0.02 0.62,-0.46 -0.02,0.03 c -0.07,0.17 -0.22,0.29 -0.39,0.38 l -0.04,0.03 0.36,-0.39 v 0.03 c -0.08,0.19 -0.24,0.31 -0.41,0.38 l -0.05,0.05 c -0.07,0.05 -0.12,0.05 -0.19,0.07 h -0.05 v 0 l -0.05,0.02 -0.05,0.03 h -0.09 l 0.29,-0.1 v 0.03 c -0.12,0.04 -0.27,0.07 -0.39,0.09 l -0.19,0.03 0.14,-0.05 -0.28,0.07 0.12,-0.02 -0.36,0.12 c -0.05,0.02 -0.12,0.02 -0.17,0.02 l -0.34,0.07 h -0.09 l -1.01,0.05 v 0 l -0.51,0.05 h -0.02 l -0.86,0.02 -0.12,-0.02 -0.56,-0.03 h -0.07 l -0.93,-0.09 v 0 l -0.36,-0.05 -0.12,-0.02 -0.2,-0.05 0.12,0.02 -0.21,-0.02 c -0.07,0 -0.12,0 -0.17,-0.03 l -0.48,-0.12 -0.12,-0.02 -0.38,-0.14 v 0 l -0.58,-0.2 c -0.1,-0.02 -0.19,-0.07 -0.26,-0.12 l -0.51,-0.31 c -0.05,-0.05 -0.12,-0.07 -0.17,-0.12 l -0.31,-0.29 0.07,0.08 -0.38,-0.29 0.1,0.05 -0.24,-0.17 0.74,0.21 h -0.02 c -0.34,0.03 -0.68,-0.09 -0.94,-0.33 v -0.03 h -0.02 v -0.02 l 0.02,0.05 -0.02,-0.05 0.88,0.34 h -0.02 c -0.72,0.02 -1.32,-0.53 -1.34,-1.23 v -0.02 l 0.4,0.89 -0.02,-0.05 v 0 h -0.02 v 0 -0.05 c -0.27,-0.22 -0.41,-0.53 -0.44,-0.86 v -0.03 l 0.15,0.53 -0.03,-0.02 v 0 l -0.02,-0.05 c -0.1,-0.19 -0.14,-0.39 -0.14,-0.58 v -0.05 l 0.4,0.92 -0.02,-0.03 c -0.14,-0.14 -0.26,-0.31 -0.34,-0.5 l -0.02,-0.07 c -0.05,-0.12 -0.07,-0.24 -0.07,-0.36 v -0.05 l 0.14,0.55 -0.02,-0.05 c -0.1,-0.19 -0.15,-0.38 -0.17,-0.57 v -0.05 0 -0.05 0 -0.05 -0.02 -0.12 c 0,-0.07 0,-0.17 0.02,-0.24 l 0.05,-0.24 c 0.05,-0.27 0.17,-0.51 0.36,-0.67 l 0.03,-0.05 -0.24,0.36 0.02,-0.05 -0.14,0.6 v -0.02 c 0,-0.36 0.14,-0.7 0.38,-0.94 l 0.02,-0.02 v 0 l 0.03,-0.03 -0.24,0.34 0.02,-0.05 c 0.05,-0.12 0.15,-0.24 0.24,-0.36 h 0.03 c 0.24,-0.24 0.55,-0.38 0.91,-0.38 v 0 l -1.13,0.72 0.02,-0.05 c 0.12,-0.27 0.34,-0.46 0.58,-0.6 h 0.05 l -0.72,1.17 v -0.02 c 0,-0.36 0.12,-0.67 0.36,-0.94 0.24,-0.26 0.6,-0.38 0.93,-0.38 h 0.05 l -0.91,0.36 h 0.02 v 0 l 0.03,-0.02 v 0 l 0.02,-0.03 c 0.17,-0.19 0.39,-0.31 0.6,-0.33 l 0.1,-0.05 -0.27,0.12 0.1,-0.05 0.1,-0.05 0.12,-0.07 c 0.07,-0.02 0.16,-0.02 0.24,-0.05 l 0.12,-0.02 -0.17,0.05 0.29,-0.12 c 0.07,0 0.16,-0.05 0.24,-0.05 l 0.6,-0.07 v 0 l 0.55,-0.08 0.12,-0.02 0.57,-0.02 h 0.05 1.32 0.07 l 4.2,0.14 h -0.02 l 3.94,0.02 h -0.03 1.11 0.02 l 1.92,0.03 h 0.1 l 2.04,0.17 h -0.12 0.04 c 0.77,0 1.37,0.62 1.37,1.39 0,0.77 -0.6,1.39 -1.37,1.39 h -0.04 -0.15 l -2.01,-0.19 h 0.12 l -1.92,-0.05 v 0 h -1.11 v 0 l -3.93,-0.07 h -0.05 l -4.23,-0.17 h 0.05 -1.32 0.07 -0.6 0.12 l -0.57,0.07 v 0 l -0.58,0.05 0.24,-0.02 -0.29,0.07 c -0.04,0.02 -0.09,0.05 -0.16,0.05 l -0.12,0.02 0.24,-0.07 -0.12,0.05 0.09,-0.05 -0.09,0.05 c -0.08,0.04 -0.17,0.07 -0.27,0.09 l -0.09,0.03 0.6,-0.34 -0.03,0.05 v 0 h -0.02 v 0 l -0.03,0.05 c -0.24,0.21 -0.57,0.36 -0.91,0.36 h -0.05 l 1.32,-1.3 v 0.02 c 0,0.51 -0.28,0.94 -0.74,1.16 l -0.05,0.02 0.6,-0.58 -0.02,0.05 c -0.24,0.46 -0.7,0.72 -1.2,0.7 v 0 l 0.91,-0.36 -0.02,0.02 0.26,-0.33 -0.02,0.04 c -0.08,0.12 -0.17,0.24 -0.27,0.34 l -0.02,0.02 v 0 l -0.03,0.03 0.41,-0.91 v 0.02 c -0.02,0.19 -0.05,0.41 -0.14,0.58 l -0.03,0.04 c -0.07,0.12 -0.16,0.24 -0.26,0.34 l -0.02,0.02 0.36,-0.64 -0.05,0.24 0.05,-0.29 v 0.12 0.02 0.05 0 0.05 0 0.05 l -0.15,-0.6 0.03,0.04 c 0.09,0.2 0.14,0.44 0.12,0.63 v 0.05 l -0.05,-0.48 v 0.07 l -0.27,-0.48 0.03,0.02 c 0.21,0.24 0.36,0.58 0.33,0.91 v 0.05 l -0.12,-0.6 0.03,0.05 v 0 0.05 c 0.12,0.19 0.17,0.41 0.14,0.62 v 0.03 l -0.36,-0.96 0.03,0.02 v 0 l 0.02,0.05 v 0 h 0.02 c 0.24,0.26 0.36,0.6 0.36,0.96 v 0.02 c -0.04,0.7 -0.64,1.25 -1.34,1.23 -0.72,-0.05 -1.25,-0.65 -1.22,-1.35 0.02,-0.69 0.62,-1.27 1.34,-1.22 h 0.02 c 0.36,0.02 0.68,0.17 0.89,0.43 l 0.03,0.02 -0.03,-0.02 h 0.03 v 0 l 0.02,0.05 -0.86,-0.41 h 0.02 c 0.26,0.02 0.5,0.1 0.7,0.24 l 0.24,0.17 0.04,0.05 0.36,0.31 0.05,0.05 0.31,0.26 -0.14,-0.1 0.5,0.34 -0.24,-0.12 0.56,0.22 v 0 l 0.38,0.14 -0.14,-0.05 0.48,0.12 -0.15,-0.02 0.22,0.02 0.12,0.03 0.21,0.04 -0.09,-0.02 0.36,0.05 v 0 l 0.93,0.14 h -0.04 l 0.55,0.05 h -0.07 l 0.86,0.02 h 0.02 l 0.51,0.03 v 0 l 1.01,0.05 0.09,0.02 0.34,0.05 h -0.22 l 0.39,-0.03 h 0.07 l 0.29,0.03 h 0.02 0.19 c 0.12,0 0.27,0.05 0.39,0.12 v 0 l -0.29,-0.1 0.09,0.03 h 0.05 0.05 v 0 l 0.05,0.02 -0.36,-0.02 h 0.09 l -0.21,0.07 0.02,-0.03 c 0.07,-0.02 0.15,-0.04 0.22,-0.04 l 0.07,-0.03 -0.22,0.05 h 0.03 c 0.17,-0.07 0.33,-0.1 0.48,-0.07 l 0.07,0.02 h 0.02 l 0.44,0.07 c 0.28,0.08 0.52,0.32 0.55,0.6 0.02,0.32 -0.15,0.58 -0.43,0.7 z"
         style="fill:#000000;fill-opacity:1;fill-rule:nonzero;stroke:none"
         transform="matrix(1.3333333,0,0,-1.3333333,0,1120.8)" />
    </g>
    <g
       id="g93">
      <path
         id="path93"
         d="m 292.3,742.22 0.02,0.27 -0.02,-0.07 0.02,0.07 c 0.02,0.14 0.02,0.31 -0.05,0.45 v 0.03 l -0.05,-0.72 0.03,0.05 c 0.02,0.07 0.05,0.12 0.07,0.19 l 0.02,0.05 v 0 0.02 0 l 0.03,0.05 -0.19,-0.36 0.02,0.05 v 0 l 0.02,0.02 c 0.1,0.12 0.17,0.24 0.22,0.36 l 0.02,0.05 v 0 0.05 l -0.21,-0.36 0.05,0.02 -0.41,-0.26 0.02,0.02 c 0.22,0.07 0.43,0.24 0.55,0.46 l 0.03,0.04 -0.55,-0.45 h 0.04 c 0.15,0.07 0.29,0.17 0.41,0.29 l 0.03,0.02 -0.41,-0.26 h 0.02 c 0.22,0.07 0.39,0.24 0.51,0.4 l 0.07,0.1 -0.55,-0.43 0.04,0.02 c 0.12,0.05 0.24,0.1 0.34,0.17 l 0.05,0.05 -0.12,-0.07 0.05,0.02 v 0 h 0.02 l -0.24,-0.1 0.05,0.03 c 0.24,0.07 0.43,0.19 0.57,0.41 l 0.03,0.02 -1.11,-0.43 0.05,-0.03 c 0.27,-0.02 0.55,0.03 0.77,0.15 l 0.02,0.02 -0.33,-0.14 0.07,0.02 c 0.12,0.03 0.24,0.07 0.34,0.15 h 0.04 l -0.24,-0.1 h 0.05 l -0.55,-0.02 h 0.05 v 0 h 0.05 c 0.21,-0.05 0.43,-0.03 0.64,0.04 l 0.08,0.05 -0.39,-0.09 0.82,0.04 h 0.12 l 0.48,0.08 h -0.19 0.12 v 0 l 0.12,-0.03 v 0 h 0.07 l -0.24,0.03 0.12,-0.03 -0.05,0.03 0.1,-0.03 c 0.09,-0.02 0.19,-0.05 0.28,-0.05 h 0.12 l -0.33,0.05 0.29,-0.07 0.04,-0.02 0.46,-0.1 h 0.02 l 0.87,-0.19 v 0 l 0.36,-0.07 h 0.12 l 0.86,-0.12 v 0 l 0.82,-0.1 h -0.03 l 0.32,-0.02 0.12,-0.03 0.76,-0.05 h -0.02 l 0.31,-0.02 h -0.05 l 0.72,-0.1 h 0.05 l 0.31,-0.02 h -0.02 l 0.74,-0.07 h 0.05 l 1.03,-0.07 h 0.08 1.12 l 0.15,0.02 0.53,0.05 c 0.09,0 0.16,0.02 0.24,0.05 l 0.09,0.02 -0.31,-0.05 h 0.02 v 0 h 0.03 -0.03 0.03 0.02 0.03 v 0 h 0.04 -0.02 0.02 l -0.91,0.34 h 0.03 c 0.24,-0.24 0.57,-0.36 0.91,-0.36 h 0.02 0.03 0.02 c 0.7,0.05 1.25,0.65 1.22,1.32 -0.04,0.72 -0.62,1.25 -1.32,1.25 -0.72,-0.05 -1.24,-0.6 -1.24,-1.32 v 0 c 0,-0.72 0.6,-1.3 1.29,-1.28 h 0.03 l -0.89,0.34 h 0.02 l -0.41,0.89 v -0.03 c 0.03,-0.69 0.6,-1.24 1.3,-1.24 h 0.02 c 0.72,0.02 1.28,0.6 1.25,1.29 0,0.7 -0.57,1.27 -1.29,1.25 -0.7,0 -1.25,-0.58 -1.25,-1.27 v -0.05 l 0.02,-0.05 v -0.02 c 0,-0.31 0.15,-0.63 0.39,-0.84 l 0.02,-0.03 -0.41,0.89 v -0.02 0 -0.03 -0.02 0 c 0.03,-0.17 0.05,-0.34 0.12,-0.48 l 0.07,-0.17 -0.04,0.15 0.09,-0.32 v 0.05 l 0.07,-0.36 0.03,-0.05 0.09,-0.28 -0.04,0.19 0.09,-0.7 0.03,-0.09 0.16,-0.94 v 0 l 0.05,-0.12 c 0,-0.07 0.03,-0.14 0.05,-0.19 l 0.1,-0.29 c 0.26,-0.65 0.98,-0.98 1.65,-0.74 0.65,0.26 0.96,0.98 0.72,1.63 l -0.09,0.29 0.04,-0.2 -0.02,0.12 v 0 l -0.19,0.94 0.02,-0.07 -0.09,0.69 c -0.03,0.08 -0.03,0.15 -0.05,0.22 l -0.1,0.31 v -0.05 l -0.09,0.34 v 0.05 l -0.12,0.31 -0.03,0.12 -0.07,0.17 0.1,-0.53 v 0 0.02 0.03 0 0.02 c 0,0.34 -0.12,0.67 -0.36,0.94 h -0.03 l 0.36,-0.96 v 0.02 0.05 0.05 c 0.03,0.69 -0.55,1.27 -1.25,1.27 h -0.02 c -0.7,0.02 -1.27,-0.55 -1.3,-1.22 0,-0.72 0.56,-1.3 1.25,-1.32 0.7,0 1.27,0.55 1.32,1.24 v 0.03 c 0,0.33 -0.12,0.67 -0.36,0.91 l -0.05,0.05 c -0.24,0.24 -0.55,0.36 -0.88,0.36 h -0.03 c -0.69,0.02 -1.29,-0.55 -1.29,-1.25 0,-0.72 0.55,-1.27 1.24,-1.3 0.72,-0.02 1.3,0.56 1.32,1.28 v 0 c 0,0.69 -0.52,1.27 -1.22,1.32 h -0.02 -0.03 -0.02 l 0.86,-0.41 v 0.05 c -0.24,0.24 -0.57,0.36 -0.89,0.38 h -0.02 0.02 -0.04 v 0 h -0.03 -0.02 -0.03 0.03 -0.03 v 0 h -0.02 c -0.1,0 -0.22,-0.02 -0.29,-0.02 l -0.12,-0.03 0.19,0.03 -0.55,-0.05 h 0.07 -1.12 0.04 l -1.03,0.05 h 0.07 l -0.74,0.07 h -0.02 -0.29 0.07 l -0.74,0.09 h -0.08 l -0.31,0.03 v 0 l -0.77,0.05 h 0.08 l -0.34,0.02 -0.02,0.02 -0.82,0.1 h -0.02 l -0.84,0.1 0.07,-0.03 -0.39,0.05 v 0 l -0.84,0.17 v 0 l -0.45,0.07 h 0.09 l -0.28,0.05 c -0.1,0.05 -0.22,0.05 -0.32,0.05 h -0.12 l 0.32,-0.03 -0.1,0.03 h -0.07 l -0.12,0.02 c -0.07,0.02 -0.15,0.02 -0.24,0.02 h -0.07 v 0 h -0.12 v 0 h -0.12 c -0.05,0 -0.12,-0.02 -0.17,-0.02 l -0.48,-0.07 h 0.05 l -0.82,-0.1 c -0.17,-0.02 -0.31,-0.07 -0.46,-0.17 l -0.09,-0.04 0.41,0.14 h -0.05 v 0 l -0.05,-0.02 c -0.17,-0.03 -0.34,-0.1 -0.46,-0.17 l -0.04,-0.05 c -0.15,-0.07 -0.24,-0.19 -0.32,-0.34 l -0.04,-0.02 0.52,0.46 -0.07,-0.05 c -0.21,-0.1 -0.38,-0.24 -0.5,-0.43 l -0.03,-0.05 0.77,0.53 h -0.05 c -0.4,-0.08 -0.74,-0.36 -0.86,-0.77 l -0.02,-0.05 0.43,0.58 -0.05,-0.03 c -0.12,-0.09 -0.22,-0.21 -0.31,-0.33 l -0.03,-0.03 v 0 -0.02 l 0.08,0.09 -0.05,-0.04 0.21,0.21 -0.02,-0.02 c -0.19,-0.15 -0.34,-0.31 -0.41,-0.53 l -0.02,-0.12 v 0.05 l -0.03,-0.05 c 0,-0.02 -0.02,-0.1 -0.04,-0.14 v -0.05 l 0.04,0.17 v -0.05 c -0.04,-0.07 -0.04,-0.15 -0.07,-0.22 v -0.07 l 0.05,0.22 v -0.03 l -0.05,-0.14 -0.02,-0.07 c -0.03,-0.17 -0.03,-0.34 0.05,-0.48 v -0.05 0 -0.05 0.48 l -0.03,-0.05 v 0 l -0.02,-0.05 c -0.03,-0.14 0,-0.31 0.05,-0.45 v -0.05 0 l 0.02,-0.02 v 0 l 0.02,-0.05 -0.04,0.36 v -0.07 c -0.08,-0.41 0.16,-0.77 0.55,-0.94 h 0.02 l -0.53,0.65 v -0.07 c 0.03,-0.1 0.05,-0.17 0.08,-0.24 l 0.12,-0.22 c 0.16,-0.29 0.48,-0.46 0.81,-0.38 0.34,0.04 0.58,0.31 0.63,0.64 z"
         style="fill:#000000;fill-opacity:1;fill-rule:nonzero;stroke:none"
         transform="matrix(1.3333333,0,0,-1.3333333,0,1120.8)" />
    </g>
    <g
       id="g94">
      <path
         id="path94"
         d="m 308.28,755.3 0.84,-0.26 0.12,-0.02 0.26,-0.08 -0.19,0.08 0.27,-0.12 h 0.02 l 0.72,-0.29 -0.12,0.07 0.19,-0.1 0.03,-0.02 0.16,-0.07 -0.07,0.02 0.19,-0.12 -0.02,0.03 0.14,-0.1 -0.09,0.05 0.14,-0.12 v 0.02 l 0.17,-0.14 0.02,-0.03 0.12,-0.09 -0.07,0.09 0.15,-0.16 v 0 l 0.14,-0.15 -0.07,0.1 0.14,-0.15 v 0 l 0.12,-0.16 -0.07,0.07 0.14,-0.15 -0.02,0.03 0.07,-0.15 -0.05,0.12 0.22,-0.43 -0.02,0.07 0.12,-0.28 -0.03,0.09 0.07,-0.29 v 0 l 0.12,-0.26 -0.02,0.1 0.05,-0.29 -0.03,0.09 0.05,-0.28 v 0 l 0.07,-0.29 -0.02,0.05 0.07,-0.6 v 0.16 -0.48 0.08 l -0.05,-0.48 v 0.07 l -0.16,-1.39 0.02,0.09 -0.22,-0.89 v -0.02 l -0.31,-1.58 -0.02,-0.15 -0.07,-1.03 c -0.03,-0.07 -0.03,-0.14 0,-0.24 l 0.07,-0.62 -0.03,0.14 v -0.12 c 0,-0.14 0.05,-0.29 0.1,-0.43 l 0.02,-0.15 v 0 l 0.08,-0.14 -0.08,0.22 0.05,-0.15 c 0,-0.09 0.05,-0.19 0.07,-0.26 l 0.05,-0.12 v 0 l 0.05,-0.12 0.05,-0.1 0.07,-0.14 -0.05,0.09 0.07,-0.09 c 0,-0.07 0.05,-0.15 0.1,-0.19 l 0.07,-0.12 -0.05,0.07 0.08,-0.12 c 0.04,-0.07 0.09,-0.17 0.14,-0.24 l 0.12,-0.12 0.02,-0.05 0.22,-0.19 -0.1,0.09 0.12,-0.16 c 0.1,-0.1 0.22,-0.2 0.32,-0.27 l 0.16,-0.12 -0.24,0.22 0.15,-0.17 c 0.07,-0.07 0.14,-0.12 0.24,-0.19 l 0.19,-0.12 v 0 l 0.17,-0.12 v 0 l 0.19,-0.1 0.07,-0.07 0.55,-0.29 0.12,-0.05 0.44,-0.16 0.07,-0.05 0.45,-0.17 h 0.05 l 0.43,-0.14 0.05,-0.03 0.96,-0.26 h 0.07 l 1.52,-0.31 h 0.07 l 1.34,-0.22 h 0.1 l 3.41,-0.29 0.09,-0.02 4.85,-0.07 h 0.02 0.22 v 0 h 0.62 c 0.7,0 1.3,0.57 1.3,1.27 0,0.72 -0.6,1.29 -1.3,1.29 h -0.62 v 0 h -0.22 0.03 l -4.85,0.08 0.07,-0.03 -3.43,0.29 h 0.07 l -1.37,0.19 0.08,-0.02 -1.49,0.31 0.07,-0.02 -0.96,0.24 h 0.05 l -0.43,0.12 h 0.04 l -0.48,0.14 0.1,-0.02 -0.46,0.19 0.1,-0.05 -0.55,0.29 0.07,-0.05 -0.17,0.12 v 0 l -0.19,0.12 v 0 l -0.17,0.12 0.24,-0.22 -0.12,0.15 c -0.07,0.07 -0.17,0.14 -0.24,0.19 l -0.19,0.12 0.31,-0.26 -0.14,0.14 -0.07,0.12 -0.22,0.19 0.05,-0.05 -0.1,0.12 0.15,-0.21 -0.08,0.12 -0.04,0.09 -0.1,0.12 0.12,-0.16 -0.05,0.09 -0.05,0.1 -0.09,0.14 0.07,-0.09 -0.07,0.12 v 0 l -0.05,0.12 0.1,-0.29 -0.03,0.14 c -0.02,0.05 -0.05,0.15 -0.07,0.19 l -0.05,0.15 v 0 l -0.05,0.12 0.08,-0.41 v 0.12 0.12 l -0.1,0.65 0.02,-0.22 0.05,1.01 v -0.14 l 0.29,1.63 v -0.03 l 0.17,0.89 0.02,0.07 0.17,1.42 v 0.1 l 0.02,0.45 v 0.07 l -0.02,0.48 v 0.15 l -0.1,0.6 v 0.07 l -0.04,0.26 v 0 l -0.08,0.29 v 0.07 l -0.09,0.32 -0.03,0.09 -0.12,0.29 v 0 l -0.09,0.26 -0.05,0.08 -0.12,0.28 -0.05,0.08 -0.24,0.4 c -0.02,0.05 -0.05,0.12 -0.07,0.15 l -0.12,0.14 -0.02,0.03 -0.15,0.16 -0.05,0.05 -0.12,0.15 v 0 l -0.14,0.12 -0.07,0.07 -0.17,0.12 v 0 l -0.14,0.14 -0.1,0.07 -0.14,0.1 0.04,-0.02 -0.19,0.12 V 756 l -0.17,0.1 -0.09,0.07 -0.17,0.09 v 0 l -0.22,0.12 -0.09,0.03 -0.17,0.07 0.07,-0.02 -0.19,0.07 -0.1,0.05 -0.74,0.28 h -0.05 l -0.24,0.08 c -0.07,0.02 -0.12,0.04 -0.19,0.04 l -0.29,0.03 0.17,-0.03 -0.86,0.24 c -0.53,0.15 -1.08,-0.14 -1.23,-0.67 -0.17,-0.53 0.12,-1.08 0.65,-1.25 z"
         style="fill:#000000;fill-opacity:1;fill-rule:nonzero;stroke:none"
         transform="matrix(1.3333333,0,0,-1.3333333,0,1120.8)" />
    </g>
    <g
       id="g95">
      <path
         id="path95"
         d="M 318.17,741.86 318,741.82 c -0.24,-0.1 -0.43,-0.24 -0.55,-0.46 l -0.77,-1.39 v 0 l -0.43,-0.77 0.02,0.05 -0.36,-0.6 v 0.05 l -0.07,-0.15 v 0 l -0.1,-0.14 -0.07,-0.12 -0.07,-0.12 v 0 l -0.07,-0.15 -0.03,-0.04 -0.07,-0.17 -0.02,-0.05 -0.12,-0.31 -0.03,-0.12 -0.02,-0.07 c -0.14,-0.6 0.19,-1.18 0.77,-1.32 0.57,-0.12 1.15,0.21 1.29,0.79 l 0.05,0.07 -0.05,-0.12 0.12,0.31 -0.02,-0.02 0.07,0.14 -0.02,-0.05 0.07,0.15 v 0 l 0.07,0.12 -0.07,-0.12 0.07,0.17 v 0 l 0.1,0.12 0.02,0.02 0.36,0.62 0.05,0.08 0.41,0.79 0.02,0.02 0.65,1.44 c 0.05,0.07 0.07,0.17 0.07,0.24 l 0.05,0.17 c 0.05,0.34 -0.07,0.62 -0.31,0.82 -0.22,0.19 -0.55,0.26 -0.84,0.16 z"
         style="fill:#000000;fill-opacity:1;fill-rule:nonzero;stroke:none"
         transform="matrix(1.3333333,0,0,-1.3333333,0,1120.8)" />
    </g>
    <g
       id="g96">
      <path
         id="path96"
         d="m 321.48,740.76 -0.05,-0.07 0.24,0.24 -0.02,-0.03 c -0.1,-0.04 -0.17,-0.14 -0.24,-0.21 l -0.05,-0.07 0.17,0.16 -0.05,-0.04 c -0.14,-0.1 -0.24,-0.24 -0.31,-0.41 l -0.03,-0.05 0.1,0.17 -0.07,-0.12 c -0.12,-0.17 -0.17,-0.31 -0.19,-0.53 v 0 l 0.16,0.48 -0.33,-0.55 v 0 l -0.27,-0.41 v 0 l -0.28,-0.43 c -0.03,-0.05 -0.05,-0.1 -0.08,-0.17 l -0.57,-1.27 -0.05,-0.12 -0.07,-0.17 c -0.12,-0.41 0,-0.86 0.29,-1.2 0.31,-0.31 0.74,-0.43 1.17,-0.31 0.41,0.09 0.75,0.43 0.84,0.84 l 0.05,0.17 -0.05,-0.15 0.53,1.3 -0.05,-0.1 0.24,0.46 v 0 l 0.24,0.43 v 0.02 l 0.29,0.58 c 0.1,0.19 0.14,0.38 0.12,0.6 v 0 l -0.12,-0.6 0.05,0.12 c 0.05,0.1 0.09,0.17 0.12,0.26 v 0.08 l -0.22,-0.44 0.05,0.05 c 0.05,0.05 0.07,0.1 0.12,0.15 l 0.02,0.07 -0.04,-0.07 0.02,0.02 0.05,0.1 0.02,0.07 c 0.29,0.48 0.15,1.08 -0.31,1.39 -0.48,0.31 -1.08,0.22 -1.44,-0.24 z"
         style="fill:#000000;fill-opacity:1;fill-rule:nonzero;stroke:none"
         transform="matrix(1.3333333,0,0,-1.3333333,0,1120.8)" />
    </g>
    <g
       id="g97">
      <path
         id="path97"
         d="m 313.87,734.88 0.79,0.02 h 0.03 l 0.98,0.03 h -0.09 l 3.57,-0.1 h -0.02 l 2.69,-0.14 h 0.07 0.24 c 0.48,0 0.93,0.26 1.2,0.67 0.24,0.41 0.24,0.94 0,1.37 -0.27,0.41 -0.72,0.67 -1.2,0.67 h -0.24 0.02 l -2.69,0.05 h -0.04 l -3.58,-0.05 h -0.05 l -0.96,-0.02 -0.14,-0.03 -0.77,-0.14 c -0.6,-0.1 -1.03,-0.65 -0.98,-1.25 0.04,-0.6 0.57,-1.08 1.17,-1.08 z"
         style="fill:#000000;fill-opacity:1;fill-rule:nonzero;stroke:none"
         transform="matrix(1.3333333,0,0,-1.3333333,0,1120.8)" />
    </g>
    <g
       id="g110">
      <path
         id="path110"
         d="m 315.46,746.02 0.26,0.02 h -0.24 l 0.48,-0.02 v 0 l 0.5,-0.05 -0.12,0.02 1.42,-0.26 -0.1,0.05 2.38,-0.65 h -0.05 l 0.87,-0.27 h -0.03 l 0.67,-0.21 -0.09,0.05 1.8,-0.8 -0.1,0.03 1.56,-0.84 -0.12,0.07 0.75,-0.5 -0.03,0.02 0.77,-0.55 -0.07,0.07 1.8,-1.54 -0.07,0.08 0.26,-0.24 0.02,-0.03 0.27,-0.24 -0.1,0.1 0.22,-0.27 c 0.31,-0.36 0.79,-0.5 1.25,-0.4 0.43,0.07 0.81,0.38 0.96,0.84 0.14,0.43 0.04,0.91 -0.24,1.27 l -0.24,0.26 -0.1,0.1 -0.26,0.24 0.02,-0.03 -0.26,0.27 -0.08,0.05 -1.82,1.51 -0.07,0.07 -0.77,0.53 v 0 l -0.74,0.53 -0.15,0.07 -1.56,0.81 -0.09,0.05 -1.83,0.77 -0.12,0.05 -0.67,0.21 v 0.03 l -0.89,0.24 -0.02,0.02 -2.4,0.63 -0.12,0.02 -1.42,0.22 c -0.07,0 -0.12,0 -0.19,0 l -0.5,0.02 v 0 h -0.48 c -0.12,0 -0.22,-0.02 -0.34,-0.05 l -0.29,-0.07 c -0.57,-0.17 -0.96,-0.79 -0.81,-1.39 0.12,-0.6 0.69,-1.01 1.32,-0.91 z"
         style="fill:#000000;fill-opacity:1;fill-rule:nonzero;stroke:none"
         transform="matrix(1.3333333,0,0,-1.3333333,0,1120.8)" />
    </g>
    <g
       id="g111">
      <path
         id="path111"
         d="m 309.26,755.54 h 0.03 c 0.14,0 0.26,0.03 0.38,0.05 l 0.05,0.03 -0.17,-0.05 h 0.05 v 0 l 0.05,0.02 c 0.09,0.03 0.19,0.03 0.26,0.07 l 0.05,0.03 -0.1,-0.03 h 0.08 -0.08 0.03 l 0.07,0.03 h 0.05 c 0.09,0.05 0.19,0.09 0.26,0.14 l 0.05,0.03 h -0.05 0.03 l -0.08,-0.05 0.12,0.07 0.1,0.05 0.19,0.14 -0.02,-0.02 0.19,0.14 -0.14,-0.07 0.24,0.1 0.09,0.04 0.17,0.12 -0.12,-0.07 0.24,0.1 h 0.02 l 0.22,0.12 -0.1,-0.05 0.22,0.1 -0.07,-0.05 0.21,0.07 h -0.02 l 0.24,0.05 v 0 l 0.24,0.07 -0.02,-0.02 0.21,0.07 -0.12,-0.03 0.27,0.03 h -0.1 l 0.72,0.05 h 0.02 0.1 l -0.24,0.02 0.1,-0.02 -0.15,0.04 0.07,-0.04 c 0.15,-0.05 0.29,-0.05 0.41,-0.05 l 0.12,0.02 -0.38,0.03 0.29,-0.08 -0.05,0.03 1.01,-0.31 -0.24,0.09 0.14,-0.07 c 0.07,-0.05 0.14,-0.07 0.22,-0.1 l 0.14,-0.04 -0.36,0.19 0.12,-0.1 c 0.1,-0.07 0.22,-0.14 0.36,-0.17 l 0.12,-0.04 -0.36,0.19 0.12,-0.12 0.05,-0.03 0.14,-0.09 -0.05,0.05 0.12,-0.1 -0.07,0.05 0.12,-0.1 v 0 l 0.07,-0.09 -0.02,0.04 0.1,-0.09 -0.05,0.05 0.09,-0.12 -0.07,0.12 0.07,-0.12 0.1,-0.12 0.12,-0.12 -0.14,0.19 0.07,-0.15 -0.1,0.2 0.07,-0.15 c 0,-0.05 0.05,-0.12 0.1,-0.17 l 0.07,-0.12 -0.07,0.15 0.12,-0.34 v 0 l 0.12,-0.26 -0.07,0.21 0.07,-0.28 0.02,-0.12 0.1,-0.24 -0.05,0.16 0.05,-0.26 v 0.02 l 0.07,-0.28 -0.02,0.12 0.02,-0.27 v 0.07 -0.28 0.04 l 0.03,-0.76 v 0.16 l -0.08,-0.6 v 0 l -0.07,-0.57 v 0.05 l -0.12,-0.63 0.05,0.1 -0.38,-1.37 0.02,0.05 -0.22,-0.65 -0.02,-0.1 -0.1,-0.33 0.05,0.14 -0.12,-0.33 v 0.02 l -0.12,-0.36 0.03,0.1 -0.34,-0.75 0.05,0.1 -0.1,-0.15 c -0.19,-0.36 -0.19,-0.81 0,-1.2 0.22,-0.38 0.63,-0.6 1.06,-0.6 0.43,0 0.81,0.24 1.03,0.63 l 0.07,0.12 0.05,0.09 0.36,0.75 0.02,0.07 0.12,0.34 v 0.02 l 0.12,0.34 0.05,0.12 0.1,0.33 -0.05,-0.09 0.22,0.67 0.02,0.05 0.36,1.39 0.05,0.09 0.09,0.63 v 0.05 l 0.08,0.57 v 0 l 0.09,0.63 c 0,0.04 0,0.12 0,0.16 l -0.02,0.75 v 0.05 0.28 0.05 l -0.05,0.27 v 0.12 l -0.05,0.26 -0.02,0.02 -0.05,0.24 c 0,0.05 -0.02,0.12 -0.05,0.17 l -0.09,0.27 0.04,-0.12 -0.07,0.24 c -0.02,0.07 -0.02,0.14 -0.07,0.19 l -0.1,0.24 v 0 l -0.14,0.33 c -0.02,0.08 -0.05,0.12 -0.07,0.17 l -0.1,0.12 0.1,-0.17 -0.05,0.12 c -0.05,0.08 -0.07,0.12 -0.1,0.2 l -0.09,0.12 c -0.03,0.04 -0.07,0.12 -0.15,0.16 l -0.09,0.12 0.09,-0.12 -0.07,0.1 -0.09,0.14 -0.1,0.1 -0.05,0.05 -0.12,0.09 -0.05,0.05 -0.09,0.1 v 0 l -0.1,0.09 -0.05,0.03 -0.12,0.09 -0.07,0.03 -0.12,0.09 0.05,-0.02 -0.12,0.1 c -0.12,0.07 -0.24,0.12 -0.36,0.16 l -0.14,0.05 0.33,-0.17 -0.09,0.08 c -0.1,0.07 -0.22,0.14 -0.34,0.16 l -0.17,0.05 0.22,-0.09 -0.15,0.09 c -0.07,0.05 -0.16,0.07 -0.26,0.1 l -1.01,0.29 h -0.02 l -0.29,0.04 c -0.12,0.05 -0.29,0.05 -0.41,0.03 h -0.12 l 0.41,-0.03 -0.1,0.03 -0.14,0.02 h -0.12 c -0.1,0 -0.17,0 -0.24,-0.02 h -0.12 0.07 l -0.72,-0.07 h -0.14 l -0.27,-0.08 -0.12,-0.04 -0.21,-0.08 h -0.03 l -0.19,-0.09 v 0 l -0.19,-0.07 h -0.05 l -0.19,-0.08 -0.07,-0.04 -0.22,-0.1 -0.09,-0.05 -0.22,-0.14 0.02,0.05 -0.19,-0.12 -0.12,-0.08 -0.17,-0.12 0.12,0.05 -0.24,-0.12 c -0.02,-0.02 -0.07,-0.05 -0.12,-0.09 l -0.19,-0.17 -0.05,-0.03 -0.14,-0.14 0.12,0.1 -0.12,-0.08 c -0.07,-0.04 -0.12,-0.09 -0.19,-0.16 l -0.03,-0.03 0.03,0.03 -0.03,-0.03 0.22,0.17 -0.05,-0.02 -0.05,-0.05 h -0.02 l 0.05,0.05 -0.05,-0.05 -0.1,-0.07 h -0.04 l 0.28,0.12 h -0.07 v 0 l -0.05,-0.05 c -0.04,0 -0.12,-0.03 -0.14,-0.05 l -0.07,-0.02 0.36,0.09 h -0.03 c -0.48,-0.05 -0.84,-0.43 -0.84,-0.91 0,-0.48 0.36,-0.89 0.84,-0.94 z"
         style="fill:#000000;fill-opacity:1;fill-rule:nonzero;stroke:none"
         transform="matrix(1.3333333,0,0,-1.3333333,0,1120.8)" />
    </g>
    <g
       id="g112">
      <path
         id="path112"
         d="m 273.29,752.06 -0.12,-0.24 c -0.1,-0.14 -0.12,-0.28 -0.12,-0.45 v -0.15 0.15 l -0.03,-0.15 -0.02,-0.16 v -0.12 c 0,-0.08 0,-0.12 0,-0.17 l 0.02,-0.17 -0.02,0.19 v -0.17 0 -0.14 -0.14 l 0.02,-0.17 c 0,-0.07 0.03,-0.12 0.03,-0.19 l 0.05,-0.12 -0.05,0.14 0.02,-0.12 0.03,-0.14 0.04,-0.17 c 0.03,-0.05 0.03,-0.12 0.05,-0.17 l 0.15,-0.31 0.02,-0.05 0.07,-0.17 v 0 l 0.1,-0.19 0.05,-0.1 0.09,-0.16 v 0 l 0.12,-0.22 c 0.05,-0.02 0.07,-0.07 0.1,-0.12 l 0.14,-0.17 -0.07,0.1 0.12,-0.17 c 0.05,-0.07 0.07,-0.12 0.12,-0.17 l 0.43,-0.41 0.05,-0.04 0.46,-0.41 0.04,-0.05 0.99,-0.79 -0.03,0.05 0.96,-0.84 -0.07,0.07 0.58,-0.55 v 0 l 0.17,-0.22 -0.05,0.07 0.17,-0.19 v 0 l 0.19,-0.22 -0.12,0.15 0.43,-0.65 -0.07,0.14 0.05,-0.09 c 0.19,-0.39 0.55,-0.65 0.98,-0.67 0.43,0 0.84,0.19 1.06,0.55 0.24,0.36 0.26,0.79 0.07,1.17 l -0.05,0.1 -0.07,0.12 -0.41,0.62 c -0.02,0.08 -0.07,0.1 -0.12,0.15 l -0.19,0.19 h 0.02 l -0.17,0.19 -0.04,0.05 -0.2,0.19 v -0.02 l -0.57,0.6 -0.07,0.05 -0.99,0.81 -0.02,0.03 -1.01,0.76 0.05,-0.02 -0.48,0.38 0.07,-0.07 -0.41,0.41 0.12,-0.12 -0.12,0.17 -0.07,0.07 -0.14,0.17 0.09,-0.17 -0.12,0.22 v 0 l -0.12,0.16 0.07,-0.09 -0.09,0.19 v 0 l -0.1,0.17 v -0.03 l -0.14,0.32 0.07,-0.15 -0.05,0.15 0.03,-0.1 -0.03,0.12 c -0.02,0.07 -0.02,0.12 -0.07,0.17 l -0.05,0.14 0.07,-0.19 -0.02,0.17 v -0.17 0.14 0 0.17 c 0,0.05 -0.02,0.12 -0.05,0.17 l -0.02,0.14 0.02,-0.16 v 0.12 -0.15 0.17 0.14 0.15 -0.27 l 0.05,0.27 c 0.1,0.48 -0.17,0.96 -0.65,1.15 -0.48,0.17 -0.98,-0.02 -1.22,-0.46 z"
         style="fill:#000000;fill-opacity:1;fill-rule:nonzero;stroke:none"
         transform="matrix(1.3333333,0,0,-1.3333333,0,1120.8)" />
    </g>
    <g
       id="g113">
      <path
         id="path113"
         d="m 315.31,744.77 0.05,-0.12 0.1,-0.1 0.09,-0.12 -0.05,0.03 0.1,-0.1 0.07,-0.12 0.1,-0.07 -0.07,0.07 0.09,-0.12 0.07,-0.07 0.1,-0.1 v 0 l 0.1,-0.09 0.07,-0.08 0.12,-0.09 0.09,-0.07 0.12,-0.08 -0.12,0.08 0.12,-0.1 h 0.05 l 0.07,-0.07 0.1,-0.07 0.12,-0.08 0.14,-0.07 0.12,-0.05 -0.04,0.03 0.28,-0.15 c 0.08,-0.02 0.15,-0.04 0.22,-0.04 l 0.19,-0.08 -0.12,0.05 0.17,-0.07 0.14,-0.02 0.22,-0.05 v 0 l 0.19,-0.07 h 0.12 l 0.22,-0.05 v 0 h 0.19 l 0.12,-0.03 h 0.19 0.05 l 0.6,0.03 h 0.05 l 1.03,0.09 -0.02,-0.02 1.94,0.1 h -0.07 0.29 v 0 h 0.26 -0.07 l 0.24,-0.03 -0.1,0.03 0.27,-0.05 h 0.02 l 0.26,-0.05 h -0.09 l 0.55,-0.14 0.12,-0.03 0.14,-0.02 -0.31,0.09 0.15,-0.07 0.14,-0.07 0.12,-0.02 v 0 l 0.14,-0.05 -0.21,0.09 0.12,-0.07 0.07,-0.05 0.14,-0.04 v 0 l 0.15,-0.1 -0.19,0.12 0.09,-0.07 0.03,-0.03 0.33,-0.26 -0.12,0.1 0.17,-0.17 0.07,-0.05 0.17,-0.14 c 0.29,-0.24 0.67,-0.32 1.03,-0.2 0.36,0.15 0.63,0.44 0.7,0.82 0.07,0.36 -0.05,0.77 -0.36,1.01 l -0.15,0.14 0.05,-0.07 -0.14,0.17 -0.12,0.07 -0.31,0.26 v 0 l -0.12,0.1 c -0.05,0.05 -0.12,0.1 -0.17,0.12 l -0.15,0.07 v 0 l -0.14,0.05 0.07,-0.02 -0.12,0.07 c -0.07,0.05 -0.14,0.07 -0.21,0.07 l -0.15,0.05 v 0 l -0.12,0.05 0.12,-0.05 -0.12,0.07 c -0.12,0.05 -0.19,0.1 -0.31,0.1 l -0.12,0.02 0.1,-0.02 -0.58,0.14 -0.12,0.05 -0.26,0.05 H 324 l -0.26,0.02 h -0.1 l -0.24,0.05 h -0.12 -0.26 v 0 h -0.29 -0.05 l -1.92,-0.12 h -0.05 l -1.03,-0.1 h 0.05 l -0.6,-0.02 h 0.02 -0.19 0.12 l -0.22,0.02 v 0 l -0.21,0.03 0.12,-0.03 -0.22,0.05 v 0 l -0.19,0.05 0.12,-0.05 -0.17,0.07 -0.14,0.05 -0.22,0.05 0.22,-0.07 -0.29,0.12 -0.07,0.02 -0.12,0.05 0.14,-0.07 -0.12,0.07 0.1,-0.05 -0.1,0.05 h 0.05 l -0.12,0.07 -0.12,0.1 -0.12,0.07 0.12,-0.1 -0.12,0.1 0.07,-0.07 -0.07,0.09 v 0 l -0.1,0.1 0.08,-0.1 -0.1,0.12 -0.07,0.07 -0.1,0.1 0.1,-0.12 -0.07,0.12 h -0.03 l -0.07,0.12 0.07,-0.12 -0.07,0.12 c -0.29,0.48 -0.91,0.65 -1.39,0.36 -0.46,-0.29 -0.63,-0.91 -0.34,-1.39 z"
         style="fill:#000000;fill-opacity:1;fill-rule:nonzero;stroke:none"
         transform="matrix(1.3333333,0,0,-1.3333333,0,1120.8)" />
    </g>
  </g>
</svg>
