<?xml version="1.0" encoding="UTF-8" standalone="no"?>
<!-- Created with Inkscape (http://www.inkscape.org/) -->

<svg
   version="1.1"
   id="svg1"
   width="195.61868"
   height="242.71655"
   viewBox="0 0 195.61869 242.71656"
   sodipodi:docname="falcon.svg"
   inkscape:version="1.4.3 (0d15f75, 2025-12-25)"
   xml:space="preserve"
   inkscape:export-filename="falcon.png"
   inkscape:export-xdpi="120"
   inkscape:export-ydpi="120"
   xmlns:inkscape="http://www.inkscape.org/namespaces/inkscape"
   xmlns:sodipodi="http://sodipodi.sourceforge.net/DTD/sodipodi-0.dtd"
   xmlns="http://www.w3.org/2000/svg"
   xmlns:svg="http://www.w3.org/2000/svg"><defs
     id="defs1" /><sodipodi:namedview
     id="namedview1"
     pagecolor="#ffffff"
     bordercolor="#000000"
     borderopacity="0.25"
     inkscape:showpageshadow="2"
     inkscape:pageopacity="0.0"
     inkscape:pagecheckerboard="0"
     inkscape:deskcolor="#d1d1d1"
     inkscape:zoom="2.1943881"
     inkscape:cx="3.6456632"
     inkscape:cy="91.369435"
     inkscape:window-width="1920"
     inkscape:window-height="1191"
     inkscape:window-x="-9"
     inkscape:window-y="-9"
     inkscape:window-maximized="1"
     inkscape:current-layer="g1" /><g
     inkscape:groupmode="layer"
     inkscape:label="Image"
     id="g1"
     transform="translate(-238.01922,-199.013)"><path
       style="fill:none;fill-opacity:1;stroke:#000000;stroke-width:12.7915;stroke-linecap:round;stroke-linejoin:bevel;stroke-miterlimit:13.2;stroke-dasharray:none;stroke-opacity:1;paint-order:markers fill stroke"
       d="m 384.88037,435.3338 0.43073,-64.58691"
       id="path4" /><path
       style="fill:none;fill-opacity:1;stroke:#000000;stroke-width:12.4223;stroke-linecap:round;stroke-linejoin:bevel;stroke-miterlimit:13.2;stroke-dasharray:none;stroke-opacity:1;paint-order:markers fill stroke"
       d="m 427.42675,368.98841 c 0,0 -143.69506,0.92027 -159.06439,0.65255 -23.27536,-0.40544 -30.7024,-26.26523 -18.00173,-35.88996 8.95036,-6.7827 16.30484,3.34429 16.52618,7.42269"
       id="path5"
       sodipodi:nodetypes="cssc" /><path
       style="fill:none;fill-opacity:1;stroke:#000000;stroke-width:6.54991;stroke-linecap:round;stroke-linejoin:bevel;stroke-miterlimit:13.2;stroke-dasharray:none;stroke-opacity:1;paint-order:markers fill stroke"
       d="m 345.77345,367.89132 39.17089,44.80999"
       id="path6" /><path
       style="fill:#6f84ff;fill-opacity:1;stroke:#000000;stroke-width:9;stroke-linecap:round;stroke-linejoin:round;stroke-miterlimit:13.2;stroke-dasharray:none;stroke-opacity:1;paint-order:markers fill stroke"
       d="m 327.23263,327.99454 10.47261,10.79485 c 0,0 3.70569,-10.95596 16.75617,9.5059 l -3.86681,-53.8131 -49.62406,-14.50054 7.08915,40.60151 z"
       id="path14" /><path
       style="fill:#4251aa;fill-opacity:1;stroke:#000000;stroke-width:9;stroke-linecap:round;stroke-linejoin:round;stroke-miterlimit:13.2;stroke-dasharray:none;stroke-opacity:1;paint-order:markers fill stroke"
       d="m 291.04256,283.12093 16.51942,52.17855 c 0,0 6.49383,-2.73425 11.96233,11.84841 0,0 6.03813,-12.98768 6.94954,-19.8233 0,0 -18.79795,-24.72215 -19.13973,-36.22878 -0.34178,-11.50662 -16.29156,-7.97488 -16.29156,-7.97488 z"
       id="path13" /><path
       style="fill:#4251aa;fill-opacity:1;stroke:#000000;stroke-width:9;stroke-linecap:round;stroke-linejoin:round;stroke-miterlimit:13.2;stroke-dasharray:none;stroke-opacity:1;paint-order:markers fill stroke"
       d="m 341.24981,303.66586 c 0,0 40.44039,53.81311 43.82385,59.77444 l 31.41783,-12.40602 -27.38991,-31.09559 z"
       id="path12" /><path
       style="fill:#6f84ff;fill-opacity:1;stroke:#000000;stroke-width:9;stroke-linecap:round;stroke-linejoin:round;stroke-miterlimit:13.2;stroke-dasharray:none;stroke-opacity:1;paint-order:markers fill stroke"
       d="m 415.90653,338.71729 c -9.34201,-6.15206 -70.69169,-78.55265 -86.92628,-94.16065 -16.2346,-15.60799 -12.41804,-18.11438 -14.69658,-23.29806 -2.27854,-5.18368 -3.24692,-16.97513 -21.58917,-17.71565 -13.67994,-0.55229 -20.82565,6.55118 -21.25079,14.51292 -0.21946,4.10989 0.0737,5.89502 0.0737,5.89502 0,0 -2.38408,-4.48085 7.79067,-2.46444 1.48106,8.65845 4.55708,16.17763 4.55708,16.17763 0,0 -13.21553,3.75959 -9.91164,17.88654 3.30388,14.12694 6.83562,23.81074 30.30457,33.95024 23.46896,10.1395 76.21715,27.57033 89.66053,34.6338 13.44339,7.06347 21.98791,14.58265 21.98791,14.58265 z"
       id="path10"
       sodipodi:nodetypes="csssscccsssc" /><path
       style="fill:none;fill-opacity:1;stroke:#000000;stroke-width:9;stroke-linecap:round;stroke-linejoin:round;stroke-miterlimit:13.2;stroke-dasharray:none;stroke-opacity:1;paint-order:markers fill stroke"
       d="m 315.30996,245.5026 c 0,0 -3.32161,-2.9864 -8.25519,-5.71223 -6.41059,-3.54188 -14.33441,-4.62986 -23.64599,-2.18251"
       id="path11"
       sodipodi:nodetypes="csc" /><path
       style="fill:none;fill-opacity:1;stroke:#000000;stroke-width:8;stroke-linecap:round;stroke-linejoin:round;stroke-miterlimit:13.2;stroke-dasharray:none;stroke-opacity:1;paint-order:markers fill stroke"
       d="m 308.6236,336.0504 -7.73362,30.53168"
       id="path15" /><path
       style="fill:none;fill-opacity:1;stroke:#000000;stroke-width:8;stroke-linecap:round;stroke-linejoin:round;stroke-miterlimit:13.2;stroke-dasharray:none;stroke-opacity:1;paint-order:markers fill stroke"
       d="m 338.3497,337.66157 0.48336,28.43716"
       id="path16" /><path
       style="fill:#000000;fill-opacity:1;stroke:none;stroke-width:10.4535;stroke-linecap:butt;stroke-linejoin:round;stroke-miterlimit:15;stroke-dasharray:none;stroke-opacity:1"
       d="m 284.43919,209.38508 c 1.54029,-1.92251 2.76348,-2.34582 4.53028,-2.50456 1.76686,-0.15869 3.44305,0.7937 4.16789,2.2929 0.72486,1.49922 1.31379,5.23842 -1.16278,6.73764 -2.47655,1.49921 -5.84409,0.68788 -7.15787,-0.2293 -1.31378,-0.91717 -1.63089,-4.63875 -0.37752,-6.29668 z"
       id="path6-5-5" /></g></svg>
