<?xml version="1.0" encoding="UTF-8" standalone="no"?>
<!-- Created with Inkscape (http://www.inkscape.org/) -->

<svg
   version="1.1"
   id="svg1"
   width="227.49768"
   height="310.65369"
   viewBox="0 0 227.49768 310.65369"
   sodipodi:docname="man.svg"
   inkscape:version="1.4.3 (0d15f75, 2025-12-25)"
   xmlns:inkscape="http://www.inkscape.org/namespaces/inkscape"
   xmlns:sodipodi="http://sodipodi.sourceforge.net/DTD/sodipodi-0.dtd"
   xmlns="http://www.w3.org/2000/svg"
   xmlns:svg="http://www.w3.org/2000/svg">
  <defs
     id="defs1" />
  <sodipodi:namedview
     id="namedview1"
     pagecolor="#ffffff"
     bordercolor="#000000"
     borderopacity="0.25"
     inkscape:showpageshadow="2"
     inkscape:pageopacity="0.0"
     inkscape:pagecheckerboard="0"
     inkscape:deskcolor="#d1d1d1"
     inkscape:zoom="2.194388"
     inkscape:cx="102.53428"
     inkscape:cy="151.97859"
     inkscape:window-width="1920"
     inkscape:window-height="1191"
     inkscape:window-x="-9"
     inkscape:window-y="-9"
     inkscape:window-maximized="1"
     inkscape:current-layer="g1" />
  <g
     inkscape:groupmode="layer"
     inkscape:label="Image"
     id="g1"
     transform="translate(-189.46928,-160.45778)">
    <path
       style="fill:#fff9ce;fill-opacity:1;stroke:#010400;stroke-width:12.9;stroke-linecap:butt;stroke-linejoin:round;stroke-miterlimit:15;stroke-dasharray:none;stroke-opacity:1"
       d="m 209.62564,457.07504 c 0,0 -5.34703,-95.61547 -3.18995,-98.66076 1.93676,-2.73425 5.13631,-7.37157 12.64589,-4.32923 22.21576,9.00023 78.72354,49.21646 78.72354,49.21646 z"
       id="path15"
       sodipodi:nodetypes="csscc" />
    <path
       style="fill:#e7b964;fill-opacity:1;stroke:#010400;stroke-width:12.9;stroke-linecap:square;stroke-linejoin:round;stroke-miterlimit:15;stroke-dasharray:none;stroke-opacity:1"
       d="m 308.43337,405.51631 c 0,0 -0.74555,-33.57991 -6.22353,-64.19215 -5.47798,-30.61225 -13.48803,-73.54757 -13.48803,-73.54757 0,0 16.1117,-9.34479 15.145,-21.58969 -0.9667,-12.2449 -13.2116,-12.2449 -19.33405,-23.84533 -6.12245,-11.60043 -6.12245,-24.16756 2.25564,-34.80129 8.37809,-10.63373 22.23416,-20.30075 35.44576,-20.62298 13.2116,-0.32224 27.06767,8.05585 35.76799,20.62298 8.70032,12.56713 -3.22234,36.09023 -8.70032,41.24597 -5.47798,5.15575 -4.75295,6.04189 -4.75295,6.04189 0,0 3.32883,8.22218 9.48089,13.23497 6.15205,5.01279 18.00046,9.79772 18.00046,9.79772 0,0 -8.65845,33.49453 -10.25343,50.35572 -1.59498,16.86119 -7.74703,88.06557 -7.74703,88.06557 z"
       id="path3"
       sodipodi:nodetypes="cscsssssscscscc" />
    <path
       style="fill:#fff9ce;fill-opacity:1;stroke:#010400;stroke-width:12.9;stroke-linecap:square;stroke-linejoin:round;stroke-miterlimit:15;stroke-dasharray:none;stroke-opacity:1"
       d="m 308.43383,405.51631 c 0,0 -0.74555,-33.57991 -6.22353,-64.19215 -5.47798,-30.61225 -13.48803,-73.54757 -13.48803,-73.54757 0,0 12.76802,-7.0619 14.77285,-17.15075 0.67597,-3.40169 -0.001,0.0661 4.49561,0.15515 10.32873,0.20457 30.91915,-8.86057 35.66236,-13.10057 1.29438,-1.15705 2.35824,0.18008 2.89566,1.14175 1.56816,2.80608 4.11426,6.49728 7.48148,9.24094 6.15205,5.01279 18.00046,9.79772 18.00046,9.79772 0,0 -8.65845,33.49453 -10.25343,50.35572 -1.59498,16.86119 -7.74703,88.06557 -7.74703,88.06557 z"
       id="path3-1"
       sodipodi:nodetypes="cscssssscscc" />
    <path
       style="fill:#fffbe0;fill-opacity:1;stroke:#010400;stroke-width:12.9;stroke-linejoin:round;stroke-dasharray:none;stroke-opacity:1"
       d="m 195.91837,464.66165 c 0,0 31.57894,-37.05692 79.59183,-59.93555 48.01289,-22.87862 80.23631,-32.0623 80.23631,-32.0623 l 0.9667,87.48658 c 0,0 -126.96026,0.64446 -160.79484,4.51127 z"
       id="path1"
       sodipodi:nodetypes="csccc" />
    <path
       style="fill:#000000;fill-opacity:1;stroke:none;stroke-width:12.9;stroke-linecap:square;stroke-linejoin:round;stroke-miterlimit:15;stroke-dasharray:none;stroke-opacity:1"
       d="m 377.66962,254.87025 c 0,0 17.87281,35.62384 22.38409,45.29087 4.51128,9.66702 14.50054,34.31794 16.43394,40.76262 1.93341,6.44468 -2.41676,11.92266 -5.31686,14.01719 -2.90011,2.09452 -5.80022,3.06122 -13.05049,0 -7.25026,-3.06123 -53.97422,-29.80666 -58.80773,-30.61225 -4.83351,-0.80558 -6.44468,1.28894 -9.66702,1.45005 -3.22235,0.16112 -12.16434,-3.26262 -11.96295,-5.27658 0.2014,-2.01396 2.69871,-1.89313 4.75296,-1.9334 2.05424,-0.0403 7.53222,-0.0403 7.69334,-3.06123 0.16111,-3.02094 -1.29704,-7.78654 -8.66814,-11.04916 -7.37111,-3.26262 -6.83938,-6.79456 -6.11436,-8.24461 0.72503,-1.45005 1.32922,-3.26262 5.80022,-2.29592 2.62804,0.56822 12.32546,7.81418 14.41998,10.15038 2.09452,2.3362 8.01557,11.23791 10.91568,13.09076 2.90011,1.85285 55.62467,23.07107 55.62467,23.07107 0,0 -26.65891,-47.73541 -32.58311,-53.54568 -5.92421,-5.81028 -5.69635,-12.07627 -2.62032,-16.51942 3.07602,-4.44315 10.7661,-15.29469 10.7661,-15.29469 z"
       id="path4"
       sodipodi:nodetypes="csssssssssssssscssc" />
    <path
       style="fill:#533600;fill-opacity:1;stroke:#000000;stroke-width:12.9;stroke-linecap:butt;stroke-linejoin:round;stroke-miterlimit:15;stroke-dasharray:none;stroke-opacity:1"
       d="m 343.3405,236.19764 c 0,0 3.86681,-3.70569 -6.44469,-13.05048 -10.31149,-9.3448 5.6391,-15.14501 -10.95596,-29.64555 -16.59506,-14.50053 -34.88422,-10.2643 -34.88422,-10.2643 0,0 16.67359,-16.8182 30.85189,-16.33485 14.1783,0.48335 35.12353,10.63373 38.34587,28.67884 3.22234,18.04512 -16.91289,40.61634 -16.91289,40.61634 z"
       id="path5"
       sodipodi:nodetypes="csscssc" />
    <path
       style="fill:#000000;fill-opacity:1;stroke:none;stroke-width:12.9;stroke-linecap:butt;stroke-linejoin:round;stroke-miterlimit:15;stroke-dasharray:none;stroke-opacity:1"
       d="m 302.92025,197.6101 c 2.35634,-0.18126 4.59184,0.90628 5.55854,2.61815 0.9667,1.71187 1.75215,5.98147 -1.55075,7.69334 -3.3029,1.71187 -7.79404,0.78545 -9.54619,-0.26181 -0.90569,-0.54133 -1.45623,-1.93825 -1.54592,-3.42307 -0.22129,-3.66329 2.52416,-6.27582 7.08432,-6.62661 z"
       id="path6"
       sodipodi:nodetypes="ssssss" />
    <path
       style="fill:#000000;fill-opacity:1;stroke:none;stroke-width:12.9;stroke-linecap:butt;stroke-linejoin:round;stroke-miterlimit:15;stroke-dasharray:none;stroke-opacity:1"
       d="m 285.89154,262.28798 -60.42242,25.37869 c 0,0 14.59116,-44.62445 21.36899,-47.70493 6.77784,-3.08047 19.30673,-12.32222 21.86629,-15.95584 2.55957,-3.63362 2.51238,-8.38907 -0.4735,-9.7637 -2.98591,-1.37463 -3.95764,0.95566 -6.12219,3.27798 -2.16454,2.32233 -11.54154,11.50893 -15.38059,9.56552 -3.83902,-1.94344 -0.37866,-11.34358 -1.6583,-12.81293 -1.27965,-1.46935 -2.512,-0.2371 -4.59759,2.89098 -2.08558,3.12809 -3.3497,7.89927 -3.08121,10.06372 0.26848,2.16446 0.28486,7.04653 -1.72251,9.8742 -3.56368,5.01995 -33.72321,60.53827 -34.38682,62.14973 -0.66362,1.61144 -4.41953,11.16478 1.0357,12.71427 1.65865,0.47112 55.86827,-15.81479 86.49159,-28.90826 9.79544,-4.18819 3.69038,-11.48438 3.69038,-11.48438 z"
       id="path7"
       sodipodi:nodetypes="ccsssssssssssscc" />
    <path
       style="fill:none;fill-opacity:1;stroke:none;stroke-width:12.9;stroke-linecap:butt;stroke-linejoin:round;stroke-miterlimit:15;stroke-dasharray:none;stroke-opacity:1"
       d="m 301.61117,277.44361 c 0,0 -40.6015,36.41246 -51.8797,39.95703 -11.27819,3.54458 -13.2116,-3.22234 -13.2116,-3.22234 l 20.94522,-112.78195"
       id="path14" />
  </g>
</svg>
