<?xml version="1.0" encoding="UTF-8" standalone="no"?>
<!-- Created with Inkscape (http://www.inkscape.org/) -->

<svg
   version="1.1"
   id="svg1"
   width="205.44678"
   height="288.43594"
   viewBox="0 0 205.44678 288.43597"
   sodipodi:docname="owl.svg"
   inkscape:version="1.4.3 (0d15f75, 2025-12-25)"
   xml:space="preserve"
   inkscape:export-filename="cobra.png"
   inkscape:export-xdpi="120"
   inkscape:export-ydpi="120"
   xmlns:inkscape="http://www.inkscape.org/namespaces/inkscape"
   xmlns:sodipodi="http://sodipodi.sourceforge.net/DTD/sodipodi-0.dtd"
   xmlns="http://www.w3.org/2000/svg"
   xmlns:svg="http://www.w3.org/2000/svg"><defs
     id="defs1" /><sodipodi:namedview
     id="namedview1"
     pagecolor="#ffffff"
     bordercolor="#000000"
     borderopacity="0.25"
     inkscape:showpageshadow="2"
     inkscape:pageopacity="0.0"
     inkscape:pagecheckerboard="0"
     inkscape:deskcolor="#d1d1d1"
     inkscape:zoom="1.5516667"
     inkscape:cx="53.490869"
     inkscape:cy="96.992479"
     inkscape:window-width="1920"
     inkscape:window-height="1191"
     inkscape:window-x="-9"
     inkscape:window-y="-9"
     inkscape:window-maximized="1"
     inkscape:current-layer="g1"
     showguides="false" /><g
     inkscape:groupmode="layer"
     inkscape:label="Image"
     id="g1"
     transform="translate(-254.26933,-170.82941)"><path
       style="fill:#f6ae5e;fill-opacity:1;stroke:#000000;stroke-width:13.045;stroke-linecap:round;stroke-linejoin:round;stroke-miterlimit:13.2;stroke-dasharray:none;paint-order:markers fill stroke"
       d="m 435.16018,411.74449 15.83585,36.79841 -48.41896,-1.59498 -57.19134,-114.61054 z"
       id="path7"
       sodipodi:nodetypes="ccccc" /><path
       style="fill:#e49842;fill-opacity:1;stroke:#000000;stroke-width:13.045;stroke-linecap:butt;stroke-linejoin:round;stroke-miterlimit:13.2;stroke-dasharray:none;paint-order:markers fill stroke"
       d="m 315.30901,317.07116 39.87444,91.36944 c 0,0 13.67123,-11.84841 22.78539,3.87351 l 4.10137,-56.05207 -25.51964,-56.73563 z"
       id="path8" /><path
       style="fill:#f6ae5e;fill-opacity:1;stroke:#000000;stroke-width:13.045;stroke-linecap:butt;stroke-linejoin:round;stroke-miterlimit:13.2;stroke-dasharray:none;paint-order:markers fill stroke"
       d="m 305.77952,301.57608 4.02793,99.73147 c 0,0 12.40601,-14.33942 25.77873,5.6391 l 34.64017,-78.62513 z"
       id="path9" /><path
       style="fill:#d77300;fill-opacity:1;stroke:#000000;stroke-width:12.5967;stroke-linecap:round;stroke-linejoin:round;stroke-miterlimit:13.2;stroke-dasharray:none;paint-order:markers fill stroke"
       d="m 262.01978,177.12775 c 0,0 -5.15289,26.24054 3.75323,61.88381 9.03601,36.1631 20.19468,54.69807 51.35949,92.19673 23.08029,27.77108 70.66475,80.21765 136.28626,94.81222 0,0 -29.24941,-35.79966 -49.41161,-91.03338 -20.16221,-55.23374 -49.12763,-79.44112 -62.47445,-92.39718 -13.3468,-12.95606 -15.66819,-25.16909 -15.66819,-35.39755 0,-10.22847 -0.28398,-29.32162 -0.28398,-29.32162 z"
       id="path4"
       sodipodi:nodetypes="csscssscc" /><path
       style="fill:none;stroke:#000000;stroke-width:11;stroke-linecap:round;stroke-linejoin:round;stroke-miterlimit:13.2;stroke-dasharray:none;paint-order:markers fill stroke"
       d="m 274.751,198.35926 c 14.26214,5.21184 13.0561,18.60732 17.3169,28.36781 2.78494,-11.4337 3.9543,-23.03169 19.93722,-28.48174"
       id="path5"
       sodipodi:nodetypes="ccc" /><path
       style="fill:none;stroke:#000000;stroke-width:13.6514;stroke-linecap:round;stroke-linejoin:round;stroke-miterlimit:13.2;stroke-dasharray:none;paint-order:markers fill stroke"
       d="m 439.4949,420.72473 c 0,0 -45.28747,-54.52542 -83.60158,-89.79267 -38.31412,-35.26724 -47.6871,-49.61618 -49.00261,-64.31086 -1.3155,-14.69469 9.04411,-19.53531 17.75934,-15.73197"
       id="path6"
       sodipodi:nodetypes="cssc" /><path
       style="fill:#00a0d7;stroke:#000000;stroke-width:13.045;stroke-linecap:round;stroke-linejoin:round;stroke-miterlimit:13.2;stroke-dasharray:none;paint-order:markers fill stroke"
       d="m 316.44827,402.06069 -13.44338,50.35572"
       id="path10"
       sodipodi:nodetypes="cc" /><path
       style="fill:#00a0d7;stroke:#000000;stroke-width:13.045;stroke-linecap:round;stroke-linejoin:round;stroke-miterlimit:13.2;stroke-dasharray:none;paint-order:markers fill stroke"
       d="m 360.19623,406.16206 -9.79772,45.79865"
       id="path11"
       sodipodi:nodetypes="cc" /><path
       style="fill:#00a0d7;stroke:#000000;stroke-width:12.0635;stroke-linecap:round;stroke-linejoin:round;stroke-miterlimit:13.2;stroke-dasharray:none;paint-order:markers fill stroke"
       d="m 260.55964,453.2336 89.92207,-0.20997"
       id="path12" /></g></svg>
