<svg width="26.815" height="10.466" version="1.1" viewBox="0 0 26.815 10.466" xmlns="http://www.w3.org/2000/svg">
 <g transform="translate(-69.566 -130.61)">
  <path transform="matrix(1.3333,0,0,-1.3333,0,1120.8)" d="m63.672 740.14-0.408 0.16c-0.048 0.03-0.12 0.03-0.168 0.05h-0.072l0.6-0.45v0.02c-0.096 0.17-0.216 0.31-0.384 0.38l-0.072 0.05 0.384-0.38v0.02c-0.096 0.17-0.216 0.29-0.384 0.39l-0.072 0.02c-0.072 0.05-0.12 0.07-0.192 0.07l-0.048 0.03h-0.048l-0.048 0.02h-0.096l0.312-0.1-0.024 0.03c-0.12 0.05-0.264 0.09-0.384 0.09l-0.192 0.03 0.144-0.03-0.288 0.08 0.12-0.05-0.336 0.12c-0.072 0.02-0.12 0.05-0.192 0.05l-0.336 0.04-0.096 0.03-1.008 0.05-0.504 0.02h-0.024l-0.864 0.02h-0.096l-0.576-0.04h-0.072l-0.936-0.1-0.36-0.05h-0.096l-0.24-0.05 0.144 0.03-0.216-0.03c-0.048-0.02-0.12-0.02-0.168-0.04l-0.48-0.1-0.12-0.05-0.384-0.12-0.576-0.21c-0.096-0.03-0.168-0.08-0.264-0.12l-0.504-0.32c-0.072-0.02-0.12-0.07-0.168-0.12l-0.312-0.28 0.072 0.07-0.36-0.29 0.072 0.07-0.24-0.17 0.744 0.2h-0.024c-0.336 0.02-0.672-0.1-0.912-0.32l-0.024-0.02v-0.02h-0.024l0.024 0.02-0.024-0.02 0.888 0.31h-0.024c-0.696 0.02-1.296-0.51-1.344-1.23v-0.02l0.408 0.89-0.024-0.03v-0.02l-0.048-0.02c-0.24-0.24-0.384-0.56-0.408-0.89v-0.03l0.144 0.56-0.048-0.1c-0.096-0.17-0.144-0.36-0.144-0.58v-0.04l0.408 0.93-0.024-0.02c-0.144-0.15-0.264-0.34-0.336-0.53l-0.024-0.07c-0.048-0.12-0.072-0.24-0.072-0.36v-0.03l0.144 0.56-0.024-0.05c-0.096-0.19-0.144-0.39-0.144-0.6l-0.024-0.05v-0.22c0-0.09 0.024-0.16 0.024-0.26l0.048-0.24c0.048-0.24 0.168-0.48 0.36-0.67l0.024-0.03-0.24 0.34 0.024-0.05-0.144 0.6v-0.02c0-0.34 0.12-0.67 0.384-0.94l0.024-0.02 0.024-0.03-0.24 0.34 0.024-0.05c0.048-0.12 0.144-0.24 0.24-0.33l0.024-0.03c0.24-0.24 0.576-0.38 0.912-0.38h0.024l-1.152 0.72 0.024-0.05c0.12-0.26 0.336-0.46 0.576-0.58l0.048-0.02-0.72 1.18v-0.03c0-0.33 0.12-0.67 0.384-0.93 0.24-0.24 0.576-0.39 0.912-0.39h0.048l-0.912 0.39 0.024-0.03 0.024-0.02 0.024-0.03c0.168-0.16 0.384-0.28 0.6-0.33l0.096-0.03-0.264 0.1 0.192-0.1 0.12-0.04c0.072-0.03 0.144-0.05 0.24-0.08l0.12-0.02-0.168 0.05 0.288-0.1c0.096-0.02 0.168-0.05 0.264-0.07l0.552-0.07 0.576-0.07h0.12l0.576-0.03h0.048l1.32-0.02h0.072l4.2 0.14h-0.024l3.936 0.05h-0.024l1.104-0.02h0.024l1.92 0.02h0.12l2.016 0.17h-0.12 0.024c0.792 0.02 1.392 0.65 1.392 1.39 0 0.79-0.6 1.42-1.392 1.42h-0.168l-2.016-0.22 0.096 0.02-1.92-0.04h0.024-1.128l-3.912-0.08h-0.048l-4.224-0.19h0.048-1.32 0.048l-0.576 0.03h0.12l-0.576 0.04-0.576 0.08 0.24-0.05-0.288 0.09c-0.048 0-0.096 0.03-0.144 0.03l-0.12 0.02 0.216-0.05-0.12 0.05 0.096-0.05-0.096 0.05c-0.096 0.03-0.168 0.07-0.264 0.1l-0.096 0.02 0.6-0.33-0.048 0.04-0.024 0.03c-0.24 0.24-0.576 0.36-0.912 0.36h-0.048l1.32-1.3v0.03c-0.024 0.5-0.288 0.96-0.744 1.17l-0.048 0.03 0.6-0.6-0.024 0.04c-0.24 0.46-0.696 0.72-1.176 0.72h-0.024l0.912-0.36-0.024 0.03 0.264-0.36-0.024 0.05c-0.072 0.14-0.168 0.24-0.264 0.36h-0.024l-0.024 0.02 0.408-0.91v0.02c0 0.22-0.072 0.41-0.144 0.58l-0.024 0.05c-0.072 0.12-0.144 0.24-0.264 0.36h-0.024l0.384-0.65-0.072 0.24 0.048-0.27v0.2l-0.024 0.02v0.05l-0.12-0.58 0.024 0.05c0.096 0.19 0.144 0.41 0.12 0.62v0.03l-0.048-0.46 0.024 0.05-0.288-0.48 0.024 0.02c0.216 0.24 0.336 0.58 0.336 0.92v0.04l-0.12-0.57 0.024 0.05 0.024 0.02c0.096 0.22 0.12 0.41 0.12 0.62v0.03l-0.36-0.94 0.024 0.03 0.048 0.04c0.24 0.24 0.36 0.6 0.36 0.94v0.02c-0.048 0.72-0.648 1.25-1.344 1.23-0.72-0.05-1.248-0.65-1.224-1.35 0.048-0.69 0.648-1.24 1.344-1.22h0.024c0.336 0.02 0.672 0.19 0.888 0.43l0.024 0.03-0.024-0.03 0.024 0.03 0.024 0.02-0.864-0.38h0.024c0.24 0 0.48 0.09 0.696 0.24l0.24 0.16 0.048 0.05 0.36 0.29 0.048 0.05 0.312 0.29-0.144-0.12 0.504 0.33-0.264-0.12 0.576 0.22 0.384 0.14-0.144-0.05 0.48 0.12-0.144-0.02 0.216 0.02 0.12 0.03 0.216 0.05h-0.096l0.36 0.04h-0.024l0.96 0.12h-0.048l0.552 0.08h-0.072 0.888l0.504 0.04 1.008 0.05h0.096l0.336 0.05h-0.216l0.36-0.02h0.12l0.288 0.02h0.192c0.12 0.02 0.264 0.05 0.384 0.12h0.024l-0.312-0.1 0.096 0.03h0.048l0.048 0.02h0.048-0.336l0.072-0.02-0.216 0.07 0.024-0.02c0.072-0.03 0.144-0.05 0.216-0.05l0.072-0.03-0.216 0.08 0.024-0.03c0.144-0.07 0.312-0.09 0.48-0.05h0.096l0.432 0.08c0.288 0.07 0.528 0.31 0.552 0.6 0.024 0.31-0.144 0.6-0.432 0.72z"/>
  <path transform="matrix(1.3333,0,0,-1.3333,0,1120.8)" d="m58.272 739.78 0.024 0.26-0.024-0.07 0.024 0.07c0.024 0.14 0.024 0.31-0.048 0.46v0.04l-0.048-0.74 0.024 0.07c0.024 0.05 0.048 0.1 0.072 0.17l0.024 0.05v0.05l0.024 0.02-0.192-0.34 0.024 0.05v-0.02l0.024 0.05c0.12 0.09 0.168 0.21 0.216 0.36l0.024 0.04v0.03l-0.216-0.36 0.048 0.05-0.408-0.27h0.048c0.216 0.1 0.408 0.24 0.528 0.46l0.024 0.05-0.528-0.46 0.024 0.02c0.144 0.05 0.288 0.15 0.408 0.27l0.048 0.05-0.432-0.29 0.024 0.02c0.216 0.07 0.408 0.22 0.528 0.39l0.048 0.09-0.552-0.41h0.048c0.12 0.05 0.24 0.1 0.336 0.2l0.048 0.02-0.096-0.07 0.024 0.02 0.024 0.03-0.24-0.12 0.048 0.02c0.24 0.07 0.432 0.22 0.576 0.41l0.024 0.05-1.104-0.46h0.072c0.264-0.05 0.528 0 0.744 0.14h0.024l-0.336-0.12h0.072c0.144 0.05 0.24 0.08 0.36 0.15l0.024 0.02-0.24-0.12 0.048 0.03-0.552-0.05h0.096c0.216-0.05 0.432-0.03 0.648 0.05l0.096 0.04-0.408-0.07 0.816 0.03h0.12l0.48 0.07h-0.168 0.312l-0.24 0.02 0.12-0.02h-0.072l0.096-0.03c0.096-0.02 0.192-0.04 0.288-0.04h0.12l-0.312 0.04 0.264-0.07h0.048l0.456-0.09 0.024-0.03 0.864-0.17 0.384-0.07 0.096-0.02 0.864-0.1 0.816-0.09h-0.024l0.336-0.05 0.096-0.03 0.768-0.04h-0.024l0.312-0.03-0.048 0.03 0.744-0.12h0.048l0.288-0.03h-0.024l0.744-0.07h0.072l1.032-0.05h1.32l0.552 0.05c0.072 0.02 0.144 0.02 0.216 0.05l0.096 0.02-0.312-0.05h0.048-0.024 0.12-0.024 0.024l-0.912 0.36 0.024-0.02c0.24-0.24 0.576-0.36 0.912-0.36h0.072c0.696 0.05 1.248 0.65 1.224 1.34-0.048 0.7-0.624 1.25-1.32 1.23-0.696-0.03-1.248-0.6-1.248-1.3v-0.02c0.024-0.7 0.6-1.27 1.296-1.27h0.024l-0.888 0.36 0.024-0.03-0.408 0.89v-0.02c0.024-0.7 0.6-1.25 1.296-1.23h0.024c0.72 0 1.272 0.58 1.248 1.27 0 0.72-0.576 1.28-1.272 1.28-0.72-0.03-1.272-0.6-1.272-1.3v-0.02l0.024-0.05v-0.05c0-0.31 0.144-0.62 0.384-0.84l0.024-0.02-0.408 0.88v-0.07c0.024-0.17 0.048-0.33 0.12-0.48l0.072-0.17-0.048 0.15 0.096-0.31v0.04l0.096-0.33v-0.05l0.096-0.31-0.048 0.19 0.096-0.7 0.024-0.07 0.192-0.96 0.024-0.09c0-0.08 0.024-0.15 0.048-0.22l0.12-0.29c0.24-0.65 0.984-0.96 1.632-0.72s0.984 0.99 0.72 1.63l-0.096 0.29 0.048-0.21-0.216 1.08 0.024-0.1-0.096 0.72c-0.024 0.07-0.024 0.14-0.048 0.22l-0.096 0.28v-0.04l-0.096 0.36v0.04l-0.096 0.32-0.048 0.12-0.072 0.14 0.096-0.53v0.07c0.024 0.36-0.12 0.68-0.36 0.94l-0.024 0.02 0.36-0.98v0.12c0.024 0.7-0.528 1.27-1.248 1.3h-0.024c-0.696 0-1.272-0.56-1.296-1.25 0-0.7 0.552-1.3 1.248-1.3 0.696-0.02 1.296 0.53 1.32 1.23v0.02c0 0.34-0.12 0.7-0.36 0.94l-0.024 0.02c-0.24 0.24-0.576 0.38-0.912 0.38h-0.024c-0.696 0-1.272-0.55-1.296-1.24 0-0.72 0.552-1.3 1.272-1.32 0.696 0 1.272 0.57 1.296 1.27v0.02c0 0.67-0.528 1.25-1.224 1.3h-0.072l0.864-0.39v0.03c-0.24 0.24-0.552 0.38-0.888 0.38h-0.024 0.024-0.12 0.024-0.048c-0.096 0-0.192 0-0.288-0.02l-0.12-0.03 0.192 0.03-0.552-0.05 0.072 0.02h-1.128l0.072-0.02-1.056 0.05h0.072l-0.744 0.07h-0.024l-0.288 0.02h0.072l-0.744 0.08-0.072 0.02-0.312 0.02h-0.024l-0.744 0.05 0.072-0.02-0.336 0.05h-0.024l-0.816 0.09-0.864 0.1 0.072-0.03-0.384 0.08-0.84 0.14-0.456 0.1 0.096-0.03-0.288 0.07c-0.096 0.03-0.216 0.05-0.312 0.05h-0.12l0.312-0.05-0.096 0.03-0.048 0.02-0.12 0.03h-0.744l-0.48-0.1h0.048l-0.816-0.1c-0.168-0.02-0.312-0.07-0.456-0.14l-0.096-0.07 0.408 0.17-0.048-0.03h-0.048c-0.168-0.02-0.336-0.09-0.456-0.19l-0.048-0.02c-0.12-0.1-0.24-0.22-0.336-0.36v-0.03l0.504 0.46-0.072-0.05c-0.216-0.07-0.384-0.24-0.504-0.43l-0.024-0.03 0.792 0.53-0.072-0.02c-0.384-0.07-0.744-0.36-0.864-0.75l-0.024-0.04 0.432 0.55-0.048-0.03c-0.12-0.07-0.24-0.19-0.312-0.33l-0.024-0.03v-0.02l0.072 0.1-0.048-0.05 0.24 0.21-0.048-0.02c-0.192-0.12-0.336-0.31-0.408-0.53l-0.024-0.09v0.02l-0.024-0.02c0-0.05-0.024-0.12-0.024-0.17l-0.024-0.05 0.048 0.17v-0.05c-0.024-0.05-0.048-0.14-0.072-0.22v-0.07l0.048 0.22v-0.03l-0.048-0.14-0.024-0.05c-0.024-0.17-0.024-0.33 0.048-0.5v-0.03l0.024-0.04-0.024 0.48-0.024-0.08v-0.04c-0.048-0.15-0.024-0.32 0.024-0.46v-0.02l0.024-0.05v-0.05l-0.024 0.38v-0.07c-0.072-0.41 0.168-0.79 0.552-0.93h0.024l-0.552 0.62 0.024-0.07c0.024-0.07 0.048-0.15 0.096-0.22l0.096-0.21c0.168-0.32 0.504-0.48 0.816-0.41 0.336 0.05 0.576 0.33 0.624 0.65z"/>
 </g>
</svg>
