<svg width="67.386" height="33.507" version="1.1" viewBox="0 0 67.386 33.507" xmlns="http://www.w3.org/2000/svg">
 <g transform="translate(-199.04 -107.84)">
  <path transform="matrix(1.3333 0 0 -1.3333 0 1120.8)" d="m151.25 754.58 0.29 0.44 0.02 0.04 0.24 0.36-0.05-0.07 0.24 0.34 0.75 0.98c0.12 0.17 0.21 0.39 0.24 0.6v0.03l-0.53-0.89 0.02 0.02c0.31 0.22 0.51 0.55 0.55 0.94v0.02l-0.02-0.05-1.42-1.1h0.03c0.31-0.05 0.62 0.05 0.89 0.24h0.02c0.31 0.22 0.5 0.53 0.55 0.89v0.02l-1.44-1.13h0.03c0.33-0.02 0.64 0.05 0.91 0.24l0.02 0.03c0.31 0.21 0.51 0.55 0.53 0.93v0.03c0.07 0.72-0.46 1.37-1.18 1.44-0.72 0.05-1.34-0.46-1.41-1.18s0.43-1.37 1.15-1.44h0.02l-0.86 0.46 0.02-0.03c0.24-0.26 0.6-0.45 0.99-0.45 0.38 0 0.74 0.14 0.98 0.43l0.03 0.02-1.11-0.4 0.03-0.03c0.72-0.07 1.34 0.43 1.44 1.15v0.03l-1.47-1.15h0.07c0.32-0.05 0.65 0.04 0.92 0.24l0.02 0.02-1.08-0.22h0.05c0.36-0.09 0.74-0.02 1.05 0.22h0.03l-0.84-0.24h0.07l-1.03 0.55 0.02-0.02c0.24-0.34 0.6-0.55 1.03-0.55l0.05-0.03-1.15 0.77v-0.02c0.14-0.27 0.36-0.51 0.65-0.63l0.05-0.02-0.24 0.12 0.04-0.03 0.08-0.04 0.04-0.03-0.04 0.03 0.04-0.03-0.57 1.25v-0.02c-0.05-0.51 0.19-1.01 0.62-1.28l0.03-0.02c0.19-0.12 0.4-0.19 0.62-0.22h0.02l-1.15 0.82 0.03-0.05c0.04-0.12 0.12-0.21 0.19-0.31l0.07-0.07h-0.02l0.09-0.12v0.02l0.1-0.12-0.15 0.22 0.08-0.17 0.04-0.07 0.22-0.39-0.07 0.2 0.02-0.1c0.03-0.05 0.05-0.1 0.07-0.17l0.05-0.09v0.04l0.05-0.12c0.02-0.09 0.07-0.16 0.12-0.24l0.1-0.12h0.02l0.07-0.09-0.17 0.24 0.08-0.12c0.04-0.12 0.12-0.24 0.21-0.34l0.07-0.09 0.1-0.08c0.02-0.04 0.07-0.09 0.12-0.14l0.26-0.22-0.5 1.08v-0.02c0-0.36 0.14-0.72 0.41-0.98 0.26-0.27 0.62-0.44 0.98-0.44h0.03l-1.3 0.92 0.02-0.05c0.2-0.53 0.72-0.89 1.28-0.89h0.04l-0.91 0.34 0.03-0.03c0.24-0.21 0.57-0.33 0.88-0.33h0.05-0.02 0.17l-0.56 0.12 0.05-0.03c0.15-0.05 0.31-0.09 0.51-0.09h0.07c0.31 0 0.65 0.09 0.89 0.31l0.02 0.02-0.89-0.31h0.03c0.76-0.02 1.39 0.6 1.39 1.37v0.05l-1.39-1.4c0.79 0 1.41 0.6 1.41 1.4v0.02c0.03 0.77-0.6 1.39-1.39 1.39-0.77 0.03-1.39-0.6-1.39-1.37-0.03-0.79 0.6-1.41 1.37-1.41h0.02c0.19-0.03 0.38 0.02 0.58 0.09l0.02 0.03c0.19 0.07 0.34 0.17 0.46 0.31l0.07 0.05-0.19-0.15 0.07 0.05 0.09 0.07 0.08 0.05 0.09 0.07c0.03 0.05 0.07 0.1 0.12 0.12l0.12 0.15-0.07-0.07 0.26 0.24c0.05 0.04 0.08 0.09 0.12 0.14l0.05 0.07 0.07 0.07 0.05 0.08-0.55-0.48 0.07 0.04c0.24 0.12 0.43 0.29 0.58 0.48l0.05 0.1 0.04 0.07 0.03 0.05-0.05-0.07 0.05 0.07 0.12 0.17c0.05 0.05 0.07 0.12 0.12 0.19l0.02 0.05c0.07 0.19 0.12 0.38 0.15 0.6v0.07l-0.89-1.3 0.05 0.03c0.36 0.14 0.62 0.43 0.76 0.77l0.03 0.04-0.03-0.07 0.03 0.05-0.39-0.46 0.05 0.03 0.05 0.05c0.17 0.12 0.29 0.28 0.38 0.45l0.03 0.07-0.75-0.69 0.05 0.02c0.29 0.1 0.51 0.31 0.67 0.55l0.03 0.05-0.31-0.33 0.07 0.04-0.03-0.02 0.05 0.02-0.21-0.14 0.07 0.05c0.07 0.05 0.14 0.09 0.19 0.14l0.05 0.03-0.22-0.15 0.07 0.03h-0.02l0.12 0.07-0.67-0.17h0.05l-0.27 0.02h0.05c0.1-0.02 0.19-0.02 0.29-0.02h0.02l-0.91 0.34 0.02-0.03c0.24-0.21 0.56-0.33 0.89-0.33h0.1l-1.11 0.52 0.03-0.02c0.26-0.34 0.67-0.55 1.1-0.55h0.05l-0.94 0.36 0.05-0.03c0.1-0.09 0.22-0.16 0.36-0.24l0.05-0.02-0.77 0.79 0.03-0.02c0.19-0.53 0.72-0.89 1.29-0.91h0.03c0.79 0 1.44 0.62 1.44 1.41 0 0.77-0.63 1.42-1.42 1.42-0.77 0.02-1.42-0.6-1.42-1.39v-0.03c-0.02-0.41 0.17-0.81 0.48-1.08l0.03-0.02h0.02l0.05-0.05-0.12 0.12 0.07-0.1 0.05-0.04 0.07-0.08-0.26 0.36 0.02-0.07c0.05-0.05 0.07-0.12 0.12-0.17l0.17-0.24-0.1 0.17 0.15-0.29 0.02-0.04 0.1-0.15-0.1 0.17 0.07-0.14c0.03-0.08 0.08-0.15 0.1-0.22l0.1-0.12 0.02-0.07 0.26-0.34 0.03-0.05 0.02-0.02c0.07-0.07 0.15-0.14 0.22-0.22h0.02l-0.24 0.24 0.03-0.04c0.26-0.36 0.69-0.58 1.15-0.58h0.02l-1.22 0.7 0.02-0.05c0.1-0.15 0.19-0.27 0.31-0.36l0.05-0.03 0.03-0.02c0.24-0.22 0.57-0.34 0.91-0.34h0.05l-0.7 0.17 0.02-0.02-0.04 0.05 0.02-0.03c0.07-0.05 0.14-0.07 0.22-0.12l0.04-0.02-0.67 0.6 0.03-0.03c0.19-0.33 0.52-0.57 0.93-0.67h0.05c0.1-0.02 0.19-0.05 0.29-0.05h0.07l-0.91 0.36 0.02-0.02c0.27-0.22 0.58-0.34 0.91-0.34h0.1-0.14 0.09c0.12-0.02 0.27-0.02 0.41 0l0.12 0.03 0.05 0.02 0.09 0.03c0.08 0.02 0.15 0.04 0.22 0.07l0.1 0.02-0.22-0.05h0.07c0.12 0.03 0.24 0.08 0.34 0.12l0.09 0.08-0.04-0.03 0.09 0.03-0.07-0.03 0.24 0.12 0.07 0.05c0.05 0.02 0.1 0.05 0.15 0.1l0.24 0.16-0.12-0.07 0.21 0.12 0.07 0.05 0.2 0.14 0.02 0.03 0.19 0.12c0.05 0.05 0.1 0.09 0.15 0.14l0.14 0.15 0.43 0.4v0.03l0.58 0.57-0.43-0.28h0.04c0.51 0.24 0.84 0.76 0.84 1.32v0.02l-0.48-1.08 0.03 0.02-0.22-0.16 0.03 0.02c0.26 0.14 0.45 0.36 0.57 0.62l0.03 0.05-1.25-0.81h0.02c0.17 0.02 0.36 0.04 0.53 0.12l0.05 0.02c0.14 0.05 0.26 0.14 0.36 0.24h0.02l0.03 0.02-0.89-0.33h0.02c0.34 0 0.65 0.12 0.91 0.33l0.03 0.03-0.89-0.34h0.05c0.33 0 0.65 0.12 0.91 0.34v0.02l-0.89-0.33h0.05c0.14 0 0.31 0.02 0.46 0.07l0.04 0.02-0.45-0.07h0.07l-0.91 0.31 0.02-0.02 0.05-0.03c0.24-0.21 0.55-0.33 0.89-0.33h0.05l0.02 0.02-0.7 0.17 0.05-0.02-0.41 0.33 0.03-0.02c0.14-0.17 0.33-0.31 0.55-0.41l0.05-0.02-0.15 0.07 0.05-0.03-0.07 0.03 0.05-0.03-0.29 0.27 0.02-0.05-0.36 0.91v-0.02c0-0.41 0.2-0.79 0.51-1.06l0.07-0.07h0.02l0.05-0.05-0.36 0.43 0.05-0.07c0.02-0.05 0.05-0.09 0.1-0.14l0.02-0.07c0.05-0.05 0.1-0.1 0.12-0.15l0.05-0.05-0.12 0.15 0.05-0.05-0.15 0.26 0.05-0.09c0.02-0.12 0.1-0.22 0.17-0.31l0.02-0.05-0.19 0.36 0.02-0.07 0.03-0.08 0.02-0.04 0.07-0.17-0.09 0.48v-0.1c0-0.09 0.02-0.19 0.05-0.29v-0.04c0.02-0.12 0.07-0.22 0.12-0.34l0.02-0.05c0.02-0.05 0.07-0.09 0.12-0.17l0.02-0.04-0.24 0.98v-0.1c-0.04-0.36 0.05-0.74 0.32-1.05l0.04-0.05-0.04 0.05 0.04-0.05-0.12 0.14 0.05-0.07c0.05-0.05 0.07-0.12 0.12-0.17l0.03-0.04-0.05 0.07 0.02-0.03c0.05-0.07 0.07-0.12 0.12-0.16l0.05-0.08-0.05 0.08 0.05-0.05 0.1-0.12 0.12-0.12c0.04-0.05 0.07-0.1 0.12-0.12l0.02-0.03c0.26-0.19 0.58-0.31 0.89-0.31h0.09-0.02 0.07l0.03 0.03-1.3 0.81 0.02-0.02c0.22-0.51 0.72-0.84 1.28-0.84h0.12c0.33 0.02 0.64 0.12 0.86 0.33l0.02 0.03-0.84-0.34h0.03-0.03 0.12c0.17 0.03 0.34 0.05 0.48 0.12l0.05 0.03-0.5-0.12h0.02c0.31 0.02 0.63 0.14 0.87 0.33l0.02 0.03-0.22-0.17 0.08 0.05-0.08-0.03 0.08 0.03-0.08-0.03 0.12 0.05 0.15 0.07 0.12 0.07 0.07 0.05 0.22 0.15c0.09 0.04 0.16 0.12 0.24 0.19l0.09 0.09-0.21-0.16 0.12 0.07c0.04 0.05 0.12 0.09 0.16 0.14l0.12 0.1c0.05 0.07 0.1 0.12 0.15 0.19l0.26 0.34-0.05-0.08 0.1 0.12-0.07-0.07 0.12 0.12c0.05 0.05 0.07 0.1 0.12 0.15l0.09 0.12-0.21-0.22 0.26 0.24 0.19 0.17 0.12 0.09 0.03 0.05-0.15-0.12h0.03l0.17 0.17c0.07 0.07 0.12 0.14 0.16 0.24l0.03 0.02-0.63-0.55 0.05 0.03c0.17 0.07 0.34 0.19 0.46 0.31l0.05 0.05-0.46-0.32 0.05 0.03 0.24 0.12-0.65-0.15h0.05c0.31 0 0.62 0.1 0.86 0.29l0.03 0.03-0.87-0.32h0.07l-0.86 0.32 0.02-0.03c0.24-0.19 0.56-0.29 0.87-0.29h0.02l-0.86 0.29h0.02l0.03-0.02c0.24-0.19 0.52-0.31 0.84-0.31h0.04l-0.84 0.31v-0.03l-0.45 1.04v-0.05c0-0.72 0.6-1.32 1.32-1.32h0.05l-0.87 0.31 0.03-0.02-0.46 1c0-0.74 0.58-1.34 1.32-1.34h0.02c0.53 0 1.01 0.34 1.23 0.84 0.19 0.48 0.09 1.06-0.29 1.44s-0.96 0.48-1.44 0.26c-0.5-0.19-0.82-0.67-0.82-1.2v-0.07c0-0.33 0.12-0.67 0.39-0.93 0.24-0.24 0.57-0.39 0.93-0.39l-1.1 0.6 0.12-0.17c0.02-0.04 0.07-0.12 0.12-0.16l0.1-0.08-0.15 0.17 0.07-0.09v-0.03l0.1-0.12-0.02 0.03 0.04-0.1 0.08-0.1 0.07-0.09-0.15 0.26 0.12-0.29h-0.02l0.02-0.04 0.03-0.08 0.02-0.07-0.05 0.19v-0.04l0.05-0.12 0.03-0.08c0.02-0.07 0.04-0.12 0.07-0.16l0.02-0.08c0.1-0.16 0.19-0.31 0.34-0.43l0.05-0.02-0.44 0.69v-0.04c0.05-0.15 0.12-0.32 0.2-0.44l0.04-0.07-0.02 0.07 0.02-0.04-0.04 0.07 0.04-0.07c0.08-0.15 0.17-0.29 0.32-0.41l0.12-0.1c0.24-0.19 0.52-0.31 0.84-0.31h0.02c0.74 0.02 1.34 0.6 1.32 1.34 0 0.72-0.58 1.32-1.32 1.32-0.72 0-1.32-0.6-1.32-1.32v-0.04c0-0.48 0.26-0.92 0.67-1.16l0.05-0.02-0.22 0.14 0.03-0.02c0.24-0.19 0.55-0.31 0.86-0.31h0.03l-1.06 0.5 0.02-0.02c0.27-0.31 0.65-0.51 1.06-0.51h0.05l-1.32 1.32v-0.02c0-0.72 0.6-1.32 1.32-1.32h0.05l-1.23 0.84v-0.02c0.22-0.51 0.7-0.84 1.25-0.84h0.29c0.31 0 0.6 0.12 0.84 0.31l0.02 0.02-0.84-0.31h0.03c0.16 0 0.33 0.02 0.5 0.1l0.05 0.02-0.51-0.1h0.03c0.24 0 0.45 0.05 0.65 0.17l0.14 0.07 0.12 0.08 0.12 0.09-0.14-0.09 0.12 0.04c0.07 0.05 0.16 0.12 0.24 0.2l0.12 0.07-0.12-0.07 0.12 0.07c0.07 0.05 0.14 0.12 0.21 0.19l0.1 0.1-0.15-0.12 0.12 0.07 0.1 0.09c0.12 0.08 0.22 0.2 0.31 0.32l0.1 0.14-0.07-0.1 0.19 0.24-0.03-0.02 0.27 0.31 0.02 0.05 0.19 0.22-0.09-0.12 0.07 0.07c0.12 0.12 0.22 0.29 0.29 0.45l0.02 0.08-0.19-0.34 0.07 0.1-0.17-0.2 0.03 0.03 0.09 0.07 0.08 0.07v0.03l0.07 0.04-0.24-0.19 0.14 0.1c0.05 0.02 0.1 0.07 0.15 0.09l0.02 0.03-0.86-0.29h0.04c0.46 0 0.89 0.24 1.13 0.62v0.03l-0.26-0.34v0.03l-0.84-0.32h0.02c0.41 0 0.79 0.2 1.03 0.51l0.03 0.02-1.56-0.38 0.02-0.03c0.17-0.07 0.34-0.09 0.53-0.09h0.22l-0.7 0.21 0.05-0.04c0.19-0.12 0.45-0.2 0.69-0.2h0.03l-1.13 0.65v-0.02c0.24-0.41 0.67-0.65 1.13-0.65h0.02l-0.84 0.31 0.03-0.02-0.2 0.19 0.03-0.02c0.26-0.32 0.65-0.51 1.03-0.51h0.05l-1.15 0.65 0.02-0.02c0.07-0.12 0.17-0.24 0.29-0.34v-0.02l-0.1 0.09 0.19-0.17h-0.02l0.17-0.16-0.12 0.14 0.12-0.17 0.02-0.05 0.15-0.16-0.05 0.04 0.33-0.48-0.09 0.15 0.12-0.22 0.07-0.09 0.14-0.24 0.08-0.12 0.48-0.6c0.04-0.05 0.07-0.1 0.14-0.15l0.17-0.19c0.55-0.48 1.37-0.46 1.87 0.05 0.5 0.53 0.48 1.37-0.05 1.87l-0.19 0.19 0.14-0.14-0.48 0.6 0.08-0.12-0.15 0.24 0.05-0.1-0.12 0.24c-0.02 0.05-0.05 0.1-0.07 0.15l-0.34 0.48-0.05 0.07-0.14 0.19 0.02-0.05-0.12 0.17c-0.04 0.05-0.07 0.1-0.12 0.12l-0.14 0.17h-0.02l-0.17 0.19-0.1 0.07-0.02 0.03 0.29-0.34v0.02c-0.24 0.39-0.68 0.65-1.13 0.65h-0.05l1.06-0.5-0.05 0.02c-0.05 0.07-0.1 0.15-0.17 0.19l-0.02 0.03c-0.24 0.19-0.53 0.31-0.87 0.31h-0.02l1.15-0.65-0.02 0.03c-0.24 0.4-0.65 0.64-1.13 0.64h-0.03l0.7-0.21-0.05 0.02c-0.19 0.15-0.45 0.22-0.69 0.22h-0.22l0.5-0.1h-0.02c-0.55 0.24-1.18 0.07-1.54-0.41l-0.02-0.02 1.03 0.5h-0.02c-0.31 0-0.6-0.09-0.84-0.31l-0.03-0.02c-0.12-0.1-0.21-0.19-0.28-0.34l-0.03-0.02 1.15 0.65h-0.04c-0.29 0-0.6-0.1-0.84-0.32h-0.03l0.15 0.1-0.15-0.1c-0.07-0.04-0.17-0.12-0.24-0.19l-0.05-0.05h0.03l-0.1-0.07 0.1 0.07-0.05-0.02c-0.07-0.07-0.14-0.12-0.19-0.19l-0.07-0.1c-0.08-0.09-0.15-0.21-0.2-0.33l-0.02-0.08 0.29 0.48-0.07-0.09-0.1-0.1-0.17-0.21 0.03 0.02-0.29-0.34-0.03-0.02-0.19-0.24-0.05-0.1-0.09-0.12 0.29 0.32-0.1-0.1h-0.02l-0.12-0.1c-0.05-0.02-0.1-0.07-0.15-0.12l-0.09-0.12 0.19 0.17-0.12-0.07-0.1-0.1-0.12-0.07 0.27 0.17-0.12-0.07c-0.05-0.03-0.12-0.05-0.17-0.1l-0.12-0.07 0.09 0.05-0.14-0.07 0.65 0.16h-0.03c-0.19 0-0.36-0.02-0.52-0.09l-0.05-0.03 0.53 0.1h-0.03c-0.31 0-0.62-0.1-0.86-0.31l-0.03-0.03 0.87 0.32h-0.29l1.22-0.84v0.04c-0.21 0.51-0.69 0.84-1.24 0.84h-0.05c-0.72 0-1.32-0.6-1.32-1.32 0-0.74 0.57-1.34 1.32-1.34 0.72 0 1.32 0.6 1.32 1.32v0.02c0 0.36-0.12 0.7-0.39 0.94-0.24 0.26-0.57 0.38-0.93 0.38h-0.05l1.03-0.48-0.02 0.03c-0.24 0.31-0.63 0.5-1.03 0.5h-0.03l0.84-0.31-0.02 0.02c-0.05 0.05-0.12 0.1-0.19 0.12l-0.05 0.03 0.67-1.15v0.04c0.02 0.72-0.58 1.32-1.32 1.32h-0.02l0.86-0.31-0.12 0.07 0.34-0.4-0.05 0.07-0.03 0.07-0.02 0.05-0.1 0.14 0.2-0.43-0.03 0.02c-0.05 0.29-0.21 0.56-0.43 0.72l-0.05 0.05 0.34-0.41-0.03 0.08 0.05-0.2-0.02 0.08 0.05-0.12-0.03 0.04c0 0.08-0.02 0.12-0.05 0.2l-0.02 0.04 0.02-0.04-0.02 0.07v0.02l-0.12 0.29c-0.02 0.1-0.07 0.19-0.12 0.29l-0.07 0.09-0.03 0.03-0.04 0.09-0.08 0.08v0.04l-0.09 0.12 0.02-0.02-0.07 0.07c-0.02 0.07-0.07 0.12-0.12 0.17l-0.1 0.1 0.15-0.17-0.12 0.17c-0.24 0.36-0.65 0.6-1.11 0.6l1.32-1.35v0.07c0 0.72-0.6 1.32-1.32 1.32h-0.02c-0.55 0-1.03-0.33-1.22-0.81-0.22-0.51-0.1-1.08 0.28-1.47 0.36-0.36 0.94-0.48 1.44-0.26 0.48 0.19 0.82 0.67 0.82 1.22 0 0.41-0.17 0.77-0.48 1.04l-0.02 0.02c-0.24 0.19-0.53 0.29-0.84 0.29h-0.05c-0.53 0-1.01-0.31-1.23-0.82-0.19-0.48-0.09-1.05 0.29-1.44 0.39-0.38 0.96-0.48 1.44-0.29 0.51 0.22 0.82 0.7 0.82 1.23v0.05c0 0.38-0.17 0.74-0.46 1h-0.02c-0.24 0.22-0.55 0.34-0.87 0.34h-0.04l0.86-0.34-0.02 0.03v0.02c-0.24 0.19-0.56 0.31-0.87 0.31h-0.02l0.84-0.31-0.03 0.03c-0.24 0.19-0.52 0.31-0.84 0.31h-0.07c-0.31 0-0.62-0.12-0.84-0.31l-0.05-0.03 0.87 0.31h-0.05c-0.22 0-0.46-0.07-0.65-0.16l-0.09-0.08 0.12 0.08-0.05-0.03c-0.17-0.07-0.31-0.17-0.43-0.31l-0.05-0.05 0.43 0.31-0.05-0.02c-0.26-0.1-0.48-0.29-0.62-0.55l-0.03-0.03 0.2 0.24-0.05-0.04 0.09 0.09-0.02-0.02c-0.05-0.05-0.1-0.1-0.12-0.15l-0.05-0.02 0.1 0.1-0.19-0.17h0.02l-0.26-0.22c-0.08-0.05-0.12-0.14-0.2-0.21l-0.09-0.12 0.12 0.14-0.1-0.12-0.17-0.17-0.04-0.07-0.24-0.34 0.14 0.2-0.12-0.12 0.17 0.12-0.12-0.08c-0.07-0.04-0.15-0.12-0.22-0.16l-0.09-0.12 0.21 0.16-0.24-0.14 0.1 0.07-0.12-0.07 0.14 0.07-0.12-0.05-0.05-0.02-0.09-0.05-0.07-0.05-0.08-0.02c-0.07-0.05-0.14-0.1-0.19-0.14l-0.02-0.03 0.86 0.31h-0.02c-0.17 0-0.36-0.02-0.53-0.09l-0.05-0.03 0.55 0.1h-0.12 0.03-0.03c-0.33 0.02-0.64-0.1-0.88-0.29l-0.03-0.02 0.87 0.29h-0.08l-0.04 0.02 1.24-0.89-0.02 0.03c-0.19 0.52-0.67 0.86-1.22 0.88h-0.1 0.02-0.09l0.86-0.33-0.02 0.02 0.09-0.12-0.12 0.15 0.12-0.17-0.02 0.07-0.07 0.1-0.07 0.07 0.14-0.22-0.02 0.05-0.05 0.1-0.05 0.04 0.1-0.12-0.05 0.08-0.1 0.14-0.02 0.05-0.1 0.14 0.24-1.08 0.03 0.07c0.07 0.34 0 0.7-0.2 0.99l-0.04 0.09 0.09-0.21-0.02 0.05 0.09-0.32v0.05l0.03-0.24v0.1c0 0.17-0.03 0.36-0.1 0.53l-0.07 0.16 0.02-0.07-0.02 0.07-0.02 0.08c-0.05 0.12-0.1 0.24-0.17 0.36l-0.03 0.04 0.15-0.28-0.05 0.09c-0.02 0.1-0.07 0.19-0.12 0.27l-0.05 0.07c-0.05 0.05-0.07 0.09-0.12 0.14l-0.02 0.05 0.09-0.14-0.04 0.07 0.09-0.15-0.05 0.05c-0.07 0.17-0.19 0.31-0.33 0.43l-0.03 0.05-0.02 0.03-0.1 0.04 0.51-1.05v0.02c0 0.34-0.12 0.67-0.34 0.94l-0.05 0.05c-0.07 0.09-0.16 0.16-0.28 0.24l-0.05 0.02-0.05 0.05-0.05 0.02-0.14 0.07-0.05 0.03 0.55-0.43-0.02 0.02c-0.12 0.14-0.27 0.26-0.41 0.36l-0.02 0.02c-0.22 0.12-0.46 0.17-0.7 0.2h-0.07l0.89-0.34-0.03 0.02h-0.02c-0.24 0.24-0.58 0.36-0.89 0.36h-0.07c-0.15 0-0.29-0.02-0.43-0.07l-0.08-0.02 0.46 0.07h-0.05c-0.33 0-0.65-0.1-0.91-0.31v-0.03l0.89 0.32h-0.05c-0.36 0-0.67-0.1-0.94-0.32l-0.02-0.02 0.91 0.31h-0.02c-0.34 0.03-0.65-0.09-0.91-0.31l-0.03-0.02-0.02-0.03 0.36 0.22-0.05-0.03 0.55 0.12h-0.02c-0.55 0-1.06-0.31-1.27-0.79l-0.03-0.05 0.58 0.6h-0.05c-0.07-0.04-0.14-0.09-0.22-0.14l-0.02-0.02c-0.31-0.27-0.48-0.65-0.5-1.06v-0.02l0.86 1.27-0.05-0.03c-0.17-0.07-0.31-0.16-0.43-0.28l-0.6-0.58-0.41-0.41h0.03l-0.17-0.14 0.14 0.12-0.17-0.12 0.03 0.02-0.19-0.14 0.07 0.05-0.22-0.12-0.12-0.1-0.24-0.17 0.17 0.1-0.07-0.03 0.14 0.08-0.09-0.05-0.08-0.03-0.07-0.04-0.05-0.03-0.09-0.05 0.31 0.12h-0.07c-0.07-0.02-0.15-0.04-0.22-0.09l-0.09-0.03 0.21 0.08-0.07-0.03 0.07 0.03-0.12-0.03h0.41l-0.1 0.03h-0.24l0.94-0.34-0.02 0.02c-0.27 0.22-0.6 0.34-0.94 0.34h-0.07l0.29-0.02h-0.05l0.93-0.68-0.02 0.03c-0.14 0.26-0.38 0.45-0.67 0.57l-0.05 0.03 0.22-0.1-0.05 0.03-0.05 0.04h-0.05c-0.21 0.12-0.45 0.2-0.69 0.2h-0.05l0.91-0.34-0.05 0.05 0.29-0.36-0.02 0.05c-0.24 0.43-0.72 0.69-1.23 0.69h-0.02l1.15-0.6-0.02 0.05c-0.08 0.1-0.15 0.19-0.24 0.26l-0.03 0.03 0.19-0.22-0.02 0.05 0.05-0.05-0.27 0.34 0.05-0.05-0.07 0.1 0.12-0.22-0.07 0.14c-0.03 0.05-0.05 0.12-0.07 0.17l-0.1 0.15 0.05-0.08-0.17 0.29c-0.02 0.05-0.05 0.12-0.1 0.17l-0.16 0.24 0.12-0.19-0.05 0.07c-0.05 0.14-0.15 0.26-0.27 0.36l-0.07 0.07 0.05-0.05-0.07 0.1c-0.05 0.02-0.1 0.07-0.15 0.12l-0.04 0.05-0.03 0.02 0.51-1.08v0.03c0 0.79-0.65 1.41-1.44 1.39h-0.03l1.35-0.87-0.03 0.03c-0.14 0.33-0.41 0.62-0.77 0.77l-0.04 0.02 0.36-0.22-0.03 0.03c-0.26 0.21-0.57 0.33-0.91 0.31h-0.05l1.13-0.53-0.02 0.03c-0.27 0.36-0.7 0.55-1.13 0.52h-0.1l0.94-0.31-0.03 0.03c-0.26 0.21-0.57 0.31-0.91 0.31h-0.02l0.29-0.03h-0.05c-0.1 0.03-0.19 0.05-0.31 0.05h-0.05c-0.22 0-0.46-0.07-0.65-0.17l-0.14-0.07-0.03-0.02-0.07-0.05c-0.07-0.05-0.14-0.1-0.22-0.17h-0.02l0.22 0.15-0.08-0.03c-0.07-0.05-0.16-0.12-0.21-0.17l-0.03-0.02v0.02l-0.04-0.07c-0.12-0.09-0.24-0.21-0.32-0.36l-0.02-0.05 0.67 0.6-0.07-0.02c-0.31-0.14-0.55-0.38-0.7-0.7l-0.04-0.04 0.38 0.48-0.1-0.1c-0.16-0.12-0.28-0.29-0.36-0.48l-0.02-0.05-0.05-0.07-0.02-0.07 0.77 0.79-0.05-0.02c-0.53-0.22-0.87-0.75-0.87-1.3v-0.07l0.15 0.6-0.03-0.05 0.12 0.22-0.12-0.2h-0.02l-0.02-0.07-0.08-0.07-0.02-0.07 0.02 0.07-0.04-0.1 0.55 0.48-0.07-0.02c-0.24-0.12-0.41-0.29-0.56-0.48l-0.04-0.07 0.04 0.07-0.04-0.05 0.14 0.15-0.26-0.27-0.05-0.05-0.12-0.14 0.12 0.14-0.07-0.09-0.08-0.05 0.1 0.07-0.07-0.05c-0.07-0.04-0.15-0.09-0.19-0.16l-0.08-0.05 0.46 0.31-0.05-0.02 0.53 0.09h-0.02c-0.77 0-1.4-0.62-1.37-1.39v-0.02c0-0.8 0.62-1.4 1.39-1.4 0.79 0 1.42 0.63 1.39 1.42 0 0.77-0.62 1.39-1.41 1.37-0.39 0-0.75-0.15-0.99-0.41-0.26-0.26-0.43-0.62-0.41-0.98v-0.05c0-0.77 0.63-1.39 1.4-1.37 0.79 0 1.41 0.62 1.39 1.39 0 0.79-0.63 1.39-1.39 1.39h-0.03c-0.33 0-0.65-0.12-0.91-0.33l-0.02-0.03 0.91 0.34h-0.07l0.57-0.1h-0.02c-0.19 0.08-0.36 0.12-0.55 0.12h-0.17 0.02-0.05l0.92-0.33-0.03 0.02c-0.24 0.22-0.57 0.31-0.89 0.31h-0.04l1.32-0.86-0.03 0.02c-0.21 0.56-0.72 0.89-1.29 0.89h-0.03l1.42-1.39v0.02c0 0.41-0.19 0.8-0.51 1.06l-0.26 0.22 0.12-0.12-0.07 0.09-0.1 0.1 0.24-0.34-0.07 0.12c-0.05 0.1-0.1 0.17-0.14 0.24l-0.1 0.1 0.02-0.03-0.07 0.12 0.15-0.24-0.08 0.12-0.02 0.05-0.05 0.12 0.05-0.14-0.02 0.09c-0.03 0.05-0.05 0.12-0.1 0.17l-0.24 0.39 0.02-0.03-0.07 0.15c-0.05 0.09-0.09 0.16-0.14 0.24l-0.1 0.12h-0.02l-0.12 0.14-0.07 0.07 0.19-0.26-0.03 0.05c-0.26 0.48-0.76 0.76-1.32 0.72h-0.02l0.72-0.15-0.05 0.03 0.75-1.08v0.02c-0.03 0.43-0.29 0.82-0.65 1.03l-0.07 0.03-0.08 0.04-0.02 0.03 0.02-0.03-0.04 0.03c-0.05 0.02-0.1 0.05-0.17 0.07l-0.05 0.02 0.62-0.48v0.03c-0.26 0.36-0.69 0.57-1.15 0.55h-0.05l1.06-0.46-0.02 0.03c-0.27 0.31-0.65 0.48-1.06 0.48l-0.07-0.03c-0.34 0-0.65-0.14-0.89-0.38l-0.02-0.02 0.67 0.36h-0.05c-0.24-0.05-0.46-0.2-0.65-0.36v-0.03l0.79 0.39h-0.07c-0.33-0.05-0.67-0.22-0.89-0.51-0.21-0.29-0.31-0.65-0.26-0.98v-0.03c0.1-0.72 0.74-1.22 1.46-1.12 0.72 0.07 1.25 0.74 1.16 1.46-0.08 0.7-0.72 1.22-1.44 1.15h-0.03c-0.38-0.05-0.74-0.26-0.96-0.57v-0.03l1.73 0.39c-0.24 0.14-0.53 0.21-0.82 0.19h-0.02c-0.7-0.1-1.22-0.72-1.15-1.44v-0.03l0.38 1.06-0.02-0.02 0.77 0.36h-0.03c-0.33-0.05-0.67-0.22-0.86-0.48-0.22-0.29-0.34-0.65-0.29-0.99v-0.02l0.38 1.08-0.02-0.03 0.77 0.39h-0.03c-0.33-0.03-0.64-0.22-0.86-0.48-0.22-0.27-0.31-0.63-0.26-0.99l-0.03 0.05 0.03-0.02 0.36 1.01-0.03-0.03c-0.26-0.29-0.41-0.67-0.36-1.05v-0.03l0.19 0.84-0.64-1.03c-0.03-0.07-0.05-0.12-0.1-0.19l-0.17-0.39-0.02-0.07-0.12-0.43 0.02 0.12-0.21-0.48c-0.24-0.5-0.03-1.1 0.45-1.39 0.48-0.27 1.08-0.12 1.42 0.33z"/>
  <path transform="matrix(1.3333 0 0 -1.3333 0 1120.8)" d="m152.64 750.24 0.02 0.02c0.08 0.05 0.12 0.12 0.2 0.2v0.04l-0.56-0.43 0.05 0.03c0.15 0.04 0.29 0.12 0.39 0.21l0.02 0.03-0.02-0.03 0.12 0.1-0.03-0.03 0.07 0.08-0.07-0.08 0.1 0.08-0.1-0.05 0.1 0.05c0.07 0.02 0.14 0.07 0.19 0.12l0.1 0.07-0.24-0.15 0.12 0.05-0.08-0.02 0.1 0.05 0.12 0.04 0.1 0.05-0.17-0.07 0.12 0.05 0.12 0.02-0.07-0.02 0.09 0.05h0.05l0.14 0.02h-0.07l0.24 0.05-0.29-0.03h0.08 0.21l0.07 0.03-0.19-0.03h0.12-0.02 0.29l-0.17 0.03 0.09-0.03 0.17-0.02h0.05l-0.14 0.02 0.12-0.02h-0.05 0.07l-0.17 0.05 0.1-0.03c0.05-0.02 0.12-0.04 0.17-0.04l0.09-0.03-0.33 0.12 0.07-0.05c0.12-0.04 0.24-0.09 0.38-0.12l0.1-0.02-0.48 0.19 0.07-0.05 0.12-0.07 0.22-0.09h-0.03l0.15-0.08-0.1 0.05 0.14-0.07-0.07 0.02 0.12-0.07-0.07 0.05 0.12-0.1 0.12-0.07h-0.02l0.12-0.09-0.17 0.19 0.07-0.12c0.05-0.05 0.1-0.1 0.12-0.15l0.1-0.09-0.05 0.07 0.12-0.12-0.15 0.19 0.08-0.12 0.07-0.09 0.07-0.12-0.07 0.09 0.07-0.09-0.02 0.04 0.07-0.14-0.05 0.1 0.17-0.34-0.05 0.1 0.1-0.32v0.03l0.09-0.31-0.02 0.09 0.07-0.29-0.02 0.1 0.04-0.34v0.05l0.1-0.74v0.02l0.02-0.38v-0.05l0.08-0.38v-0.08l0.19-0.88 0.05-0.12 0.04-0.17v-0.03l0.05-0.14 0.05-0.12 0.12-0.24 0.1-0.12 0.19-0.34c0.09-0.16 0.24-0.31 0.43-0.4l0.05-0.03-0.19 0.12 0.04-0.02-0.12 0.12 0.05-0.07c0.03-0.05 0.07-0.08 0.12-0.12l0.03-0.03 0.04-0.02 0.05-0.05c0.12-0.1 0.29-0.17 0.43-0.22l0.05-0.02-0.6 0.41 0.03-0.05c0.19-0.22 0.43-0.36 0.69-0.41l0.07-0.02-0.33 0.12 0.05-0.03 0.04-0.02c0.1-0.05 0.17-0.1 0.27-0.12h0.05-0.03l0.12-0.02h-0.05l0.12-0.05c0.08-0.03 0.15-0.03 0.22-0.05h0.07-0.07l0.12-0.02-0.05 0.02 0.1-0.02c0.12-0.05 0.21-0.05 0.31-0.05h0.12-0.12l0.34-0.03c0.07-0.02 0.12-0.02 0.19 0l0.38 0.03 0.39 0.02h0.07l0.41 0.07h0.02l0.36 0.05 0.1 0.03 0.86 0.19h-0.05l1.3 0.26-0.1-0.02 0.24 0.05h0.07l0.24 0.04-0.14-0.02 0.26 0.02-0.07-0.02h0.6l-0.09 0.02 0.31-0.02h-0.05l0.31-0.05-0.07 0.03 0.29-0.08h-0.03l0.34-0.04-0.1 0.02 0.84-0.26h-0.04l0.24-0.1-0.03 0.02 0.22-0.09-0.1 0.07 0.22-0.12 0.21-0.12-0.09 0.05 0.21-0.12-0.04 0.02 0.55-0.38-0.07 0.05 0.14-0.1 0.05-0.05 0.14-0.12-0.05 0.05 0.15-0.14-0.05 0.04 0.14-0.12-0.04 0.08 0.12-0.15 0.12-0.12-0.08 0.07 0.27-0.31-0.07 0.07 0.19-0.26-0.03 0.02 0.17-0.26-0.05 0.07 0.29-0.55-0.07 0.17 0.12-0.29v-0.02l0.1-0.27-0.05 0.12 0.07-0.26 0.07-0.27 0.07-0.26-0.02 0.17 0.05-0.72v0.14l-0.1-2.13 0.03 0.04-0.08-1.05v-0.03l-0.04-1.05c-0.03-0.43 0.19-0.82 0.55-1.06 0.36-0.21 0.81-0.24 1.2-0.02 0.36 0.19 0.6 0.57 0.6 1.01l0.05 1.05v-0.05l0.07 1.04v0.02l0.07 2.14v0.16l-0.07 0.72c0 0.05 0 0.1-0.03 0.17l-0.07 0.27v0.02l-0.07 0.26-0.07 0.27-0.03 0.14-0.12 0.27 0.03-0.03-0.12 0.29-0.05 0.14-0.31 0.56-0.03 0.07-0.19 0.29v0.02l-0.17 0.24-0.07 0.07-0.24 0.34-0.31 0.31-0.05 0.07-0.14 0.12-0.05 0.05-0.17 0.12-0.05 0.05-0.14 0.12 0.05-0.05-0.12 0.12-0.1 0.05-0.55 0.38-0.05 0.05-0.21 0.12-0.08 0.05-0.24 0.12-0.21 0.12-0.12 0.05-0.22 0.07-0.02 0.02-0.24 0.07-0.05 0.03-0.84 0.26-0.1 0.03-0.33 0.07h-0.03l-0.28 0.07h-0.08l-0.33 0.05h-0.03l-0.31 0.02-0.12 0.03h-0.6l-0.07-0.03h-0.24l-0.14-0.02-0.24-0.05 0.04 0.02-0.24-0.02-0.09-0.02-1.3-0.27h-0.02l-0.84-0.21 0.07 0.02-0.36-0.05-0.38-0.07 0.04 0.02-0.36-0.02-0.38-0.02 0.19-0.03-0.33 0.05h-0.22l0.34-0.05-0.12 0.03-0.03 0.02-0.12 0.02h-0.09l-0.08 0.03 0.2-0.05-0.12 0.05h-0.05l-0.12 0.05-0.05 0.02h-0.05l0.27-0.1-0.05 0.03h-0.03l-0.02 0.02c-0.12 0.05-0.24 0.1-0.34 0.12l-0.07 0.03 0.67-0.44-0.02 0.05c-0.17 0.19-0.36 0.34-0.6 0.41h-0.07l0.43-0.22-0.02 0.05-0.05 0.03-0.03 0.02 0.12-0.12-0.04 0.05c-0.05 0.05-0.1 0.09-0.12 0.12l-0.05 0.05c-0.05 0.02-0.12 0.07-0.17 0.12l-0.07 0.02 0.45-0.43-0.19 0.31-0.09 0.14 0.04-0.09-0.04 0.14 0.02-0.12-0.02 0.15v-0.03l-0.05 0.15 0.02-0.12-0.19 0.88 0.02-0.09-0.04 0.38v-0.05l-0.03 0.39v0.02l-0.09 0.75v0.04l-0.05 0.34-0.03 0.07-0.04 0.29-0.05 0.12-0.1 0.31v0.03l-0.09 0.28-0.05 0.1-0.15 0.36-0.04 0.05-0.08 0.14-0.02 0.05-0.07 0.12-0.07 0.1-0.08 0.12 0.08-0.12-0.08 0.12c-0.04 0.07-0.09 0.12-0.14 0.19l-0.1 0.09-0.04 0.08-0.12 0.09 0.12-0.14-0.08 0.12c-0.04 0.07-0.12 0.14-0.19 0.19l-0.12 0.1-0.09 0.09-0.12 0.1-0.08 0.05-0.12 0.09-0.04 0.05-0.15 0.07-0.09 0.05-0.12 0.07-0.05 0.03-0.19 0.09 0.09-0.05-0.07 0.03c-0.14 0.09-0.31 0.14-0.48 0.17l-0.1 0.02 0.39-0.12-0.1 0.05c-0.09 0.05-0.21 0.09-0.33 0.09l-0.1 0.03 0.19-0.05-0.09 0.02c-0.05 0.03-0.12 0.03-0.17 0.05h-0.12l-0.1 0.03h-0.19-0.05 0.17l-0.1 0.02h-0.45 0.02-0.12c-0.07 0-0.12-0.02-0.19-0.02l-0.07-0.03 0.17 0.03h-0.08c-0.09 0-0.16-0.03-0.26-0.05l-0.24-0.05-0.07-0.02-0.15-0.05h0.03l-0.1-0.03-0.07-0.02-0.24-0.1c-0.05 0-0.12-0.04-0.17-0.07l-0.12-0.05 0.12 0.05-0.09-0.05-0.05-0.02-0.12-0.05c-0.1-0.05-0.17-0.09-0.24-0.17l-0.1-0.07 0.19 0.12-0.09-0.05-0.1-0.07-0.12-0.05-0.36-0.36c-0.12-0.12-0.21-0.28-0.24-0.48l-0.02-0.02 0.41 0.6-0.05-0.02c-0.22-0.2-0.36-0.44-0.41-0.7l-0.02-0.05 0.02 0.1v-0.03c-0.12-0.48 0.07-0.98 0.5-1.22 0.41-0.26 0.94-0.22 1.3 0.12z"/>
  <path transform="matrix(1.3333 0 0 -1.3333 0 1120.8)" d="m179.4 735.89v0.69l-0.07 4.61v-0.05l0.02 2.14v0.02l0.03 0.92v0.02l-0.05 7.01v-0.07l0.09 2.52v-0.1l0.05 0.58v-0.08l0.07 0.58-0.02-0.14 0.34 1.32-0.03-0.08 0.05 0.17 0.02 0.05 0.05 0.19-0.14-0.31 0.12 0.19-0.05-0.07 0.12 0.17 0.02 0.05 0.22 0.38c0.02 0.05 0.07 0.12 0.1 0.17l0.02 0.07-0.46-0.6 0.05 0.02c0.22 0.17 0.36 0.39 0.46 0.63l0.02 0.07-0.45-0.62 0.07 0.04c0.07 0.08 0.14 0.15 0.21 0.22l0.1 0.14-0.22-0.21 0.08 0.05-0.24-0.17 0.07 0.05c0.24 0.12 0.43 0.31 0.57 0.52l0.03 0.05-0.58-0.53 0.07 0.03c0.1 0.05 0.17 0.09 0.24 0.17l0.08 0.04-0.24-0.16 0.07 0.04-0.34-0.12h0.1c0.19 0.08 0.41 0.17 0.55 0.32l0.07 0.04-0.24-0.16 0.07 0.04-0.28-0.12 0.24 0.05 0.12 0.07h0.04l-0.57-0.12h0.48l-0.58 0.12h0.05l0.07-0.02c0.17-0.1 0.39-0.12 0.58-0.12h0.02l-0.57 0.12 0.04-0.02-0.4 0.21 0.04-0.02c0.2-0.15 0.41-0.27 0.68-0.31l0.09-0.03-1.01 0.72 0.03-0.05c0.21-0.33 0.53-0.57 0.91-0.69l0.1-0.03-0.8 0.53 0.05-0.07c0.17-0.19 0.39-0.36 0.6-0.46l0.07-0.02-0.62 0.46 0.05-0.08c0.17-0.19 0.38-0.36 0.62-0.45h0.05l-0.84 0.84 0.02-0.07c0.1-0.24 0.27-0.46 0.46-0.6l0.05-0.05-0.46 0.6 0.03-0.05c0.04-0.12 0.12-0.22 0.16-0.31l0.12-0.15-0.04 0.08 0.09-0.2 0.05-0.07 0.12-0.17-0.24 0.48 0.07-0.19v-0.05l0.07-0.16c0-0.08 0.05-0.12 0.08-0.2l0.07-0.16-0.12 0.43 0.02-0.19 0.03-0.15 0.07-0.36-0.03 0.29 0.03-0.84v0.05l0.02-0.84v0.14l-0.21-2.23-0.1-0.94-0.1-0.86v-0.19-0.27c0.03-0.79 0.68-1.44 1.49-1.44 0.79 0 1.47 0.65 1.49 1.44v0.27-0.17l0.12 0.86v0.03l0.12 0.93v0.03l0.22 2.25 0.02 0.15v0.89l-0.02 0.84c0 0.09 0 0.21-0.03 0.31l-0.09 0.36 0.02-0.15-0.02 0.2c-0.03 0.16-0.08 0.28-0.12 0.43l-0.1 0.19 0.1-0.19-0.08 0.17 0.03-0.05-0.05 0.21c-0.05 0.17-0.12 0.32-0.24 0.48l-0.12 0.15 0.07-0.07-0.12 0.16-0.05 0.08-0.12 0.16 0.17-0.31-0.02 0.07c-0.1 0.24-0.24 0.46-0.46 0.63l-0.05 0.02 0.46-0.6-0.02 0.07c-0.17 0.36-0.48 0.68-0.84 0.84l-0.08 0.03 0.63-0.46-0.07 0.07c-0.15 0.2-0.36 0.34-0.6 0.44l-0.05 0.02 0.6-0.43-0.05 0.05c-0.19 0.26-0.48 0.43-0.79 0.52l-0.07 0.03 0.91-0.7-0.03 0.05c-0.24 0.36-0.6 0.62-1 0.7l-0.12 0.02 0.67-0.31-0.03 0.02c-0.12 0.1-0.26 0.17-0.4 0.24l-0.05 0.03c-0.19 0.07-0.39 0.09-0.58 0.09h-0.02l0.57-0.09h-0.04l-0.08 0.02c-0.16 0.07-0.36 0.12-0.57 0.12h-0.48c-0.19 0-0.41-0.05-0.58-0.12l-0.07-0.02 0.14 0.07-0.21-0.07c-0.1-0.05-0.19-0.08-0.29-0.12l-0.1-0.05c-0.07-0.05-0.14-0.12-0.21-0.17l-0.07-0.05 0.57 0.31-0.09-0.02c-0.1-0.05-0.22-0.07-0.32-0.14l-0.07-0.05c-0.09-0.05-0.17-0.1-0.24-0.15l-0.07-0.04 0.24 0.14-0.07-0.05c-0.24-0.12-0.43-0.31-0.58-0.53l-0.02-0.04 0.57 0.55-0.09-0.05c-0.07-0.05-0.17-0.1-0.24-0.17l-0.05-0.05c-0.07-0.07-0.14-0.12-0.22-0.21l-0.04-0.07-0.05-0.08 0.21 0.24-0.07-0.04c-0.19-0.17-0.33-0.39-0.45-0.63v-0.05l0.43 0.6-0.05-0.04c-0.19-0.17-0.36-0.36-0.46-0.6l-0.02-0.08 0.1 0.2-0.22-0.39 0.02 0.03-0.12-0.17-0.04-0.07-0.1-0.2c-0.05-0.12-0.1-0.21-0.14-0.33l-0.05-0.19 0.02 0.04-0.05-0.19-0.02-0.07-0.34-1.32-0.02-0.17-0.07-0.57v-0.08l-0.07-0.57v-0.1l-0.05-2.52v-0.07l0.17-6.98v-0.94l0.04-2.14v-0.04l0.24-4.59v-0.02l0.05-0.7c0.05-0.69 0.65-1.2 1.35-1.2 0.69 0.05 1.22 0.6 1.22 1.3z"/>
  <path transform="matrix(1.3333 0 0 -1.3333 0 1120.8)" d="m188.83 749.88 0.15 0.12c0.12 0.07 0.21 0.17 0.28 0.26l0.08 0.12 0.04 0.05 0.05 0.1-0.05-0.05 0.1 0.1-0.1-0.1 0.1 0.1-0.12-0.1 0.1 0.07 0.09 0.1 0.12 0.09 0.07 0.1-0.12-0.12 0.12 0.1-0.07-0.08 0.22 0.2 0.21 0.14-0.14-0.1 0.19 0.12 0.1 0.05 0.21 0.12-0.12-0.05 0.51 0.24c0.05 0.05 0.09 0.08 0.14 0.12l0.1 0.05-0.46-0.19 0.1 0.02c0.12 0 0.21 0.05 0.31 0.1l0.1 0.02-0.32-0.09 0.12 0.02 0.05 0.03 0.1 0.02-0.05-0.02 0.12 0.02 0.05 0.02h0.09l0.1 0.03-0.29-0.03h0.55l-0.28 0.03 0.07-0.03h0.07l0.12-0.02-0.07 0.02 0.09-0.02 0.24-0.07-0.12 0.05 0.1-0.05-0.1 0.02 0.15-0.05 0.09-0.04 0.12-0.05-0.28 0.14 0.09-0.05h-0.02l0.12-0.09 0.12-0.07 0.12-0.08 0.12-0.07-0.15 0.07 0.12-0.07-0.09 0.07 0.09-0.09 0.1-0.07-0.1 0.09 0.1-0.12-0.02 0.03 0.07-0.1-0.03 0.02 0.2-0.28-0.05 0.09 0.21-0.41 0.24-0.4-0.07 0.14 0.17-0.48v0.05l0.36-1.06 0.02-0.05 0.41-1.05v-0.03l0.24-0.55 0.22-0.55 0.02-0.07 0.27-0.53 0.04-0.1 0.29-0.5 0.03-0.02 0.33-0.53 0.05-0.05 0.89-1.22 0.07-0.1 0.12-0.14c0.46-0.53 1.25-0.6 1.75-0.15 0.53 0.46 0.6 1.23 0.15 1.75l-0.15 0.17 0.05-0.07-0.89 1.22 0.05-0.07-0.34 0.51 0.03-0.05-0.29 0.53 0.05-0.1-0.27 0.53 0.03-0.07-0.22 0.55-0.24 0.55-0.41 1.06 0.03-0.05-0.39 1.05-0.02 0.05-0.19 0.46-0.05 0.14-0.24 0.43-0.24 0.41-0.07 0.1-0.19 0.29-0.05 0.04-0.05 0.1-0.02 0.02-0.1 0.12-0.1 0.1-0.09 0.1-0.1 0.09-0.09 0.07-0.12 0.1-0.15 0.1-0.09 0.04-0.12 0.08 0.12-0.08-0.15 0.12-0.09 0.05c-0.08 0.07-0.17 0.12-0.27 0.17l-0.12 0.02 0.1-0.02-0.15 0.05-0.09 0.05-0.12 0.04-0.12 0.05-0.24 0.07h-0.05l-0.1 0.03h-0.04l-0.12 0.02h0.04l-0.07 0.03c-0.09 0-0.19 0.02-0.29 0.02h-0.55c-0.09 0-0.19-0.02-0.29-0.05l-0.09-0.02-0.1-0.03h0.07l-0.12-0.02h-0.07l-0.07-0.02h0.05l-0.12-0.03c-0.1-0.02-0.19-0.05-0.29-0.09l-0.1-0.05 0.29 0.09-0.12-0.02c-0.17-0.02-0.31-0.1-0.45-0.22l-0.1-0.07 0.17 0.12-0.48-0.26-0.12-0.07-0.22-0.15 0.07 0.05-0.19-0.12c-0.05-0.02-0.09-0.07-0.14-0.1l-0.19-0.16-0.03-0.03-0.21-0.17-0.12-0.12-0.1-0.12c-0.02-0.02-0.07-0.07-0.1-0.12l-0.07-0.09 0.1 0.12-0.07-0.1-0.1-0.09-0.1-0.12-0.07-0.1-0.05-0.1-0.04-0.12-0.05-0.09-0.05-0.1 0.05 0.1-0.05-0.12c-0.17-0.27-0.17-0.6-0.05-0.89l0.07-0.19c0.1-0.24 0.32-0.43 0.58-0.53 0.26-0.07 0.55-0.02 0.79 0.12z"/>
  <path transform="matrix(1.3333 0 0 -1.3333 0 1120.8)" d="m188.83 749.57h0.03l-0.39-0.05h0.1l0.12-0.02-0.22 0.04 0.1-0.02c0.07-0.02 0.12-0.05 0.21-0.05h0.08l-0.17 0.03 0.12-0.03 0.12-0.02-0.24 0.07 0.09-0.05c0.08-0.02 0.15-0.07 0.24-0.07l0.12-0.02-0.24 0.07 0.1-0.05c0.05-0.02 0.12-0.05 0.17-0.07l0.09-0.03-0.24 0.1 0.12-0.07 0.17-0.12-0.02 0.02 0.12-0.09 0.14-0.1-0.14 0.12 0.12-0.12 0.07-0.05 0.12-0.12-0.12 0.12 0.12-0.14c0.02-0.05 0.07-0.1 0.12-0.12l0.12-0.1-0.14 0.15 0.26-0.34-0.05 0.05 0.24-0.36-0.05 0.09 0.2-0.4 0.21-0.39v-0.02l0.19-0.39-0.04 0.12 0.4-1.03v0.05l0.27-0.82 0.02-0.12 1.01-2.16 0.05-0.09 0.14-0.22-0.02 0.03 0.14-0.24c0.03-0.1 0.07-0.15 0.12-0.22l0.19-0.19-0.07 0.09 0.17-0.24 0.07-0.09 0.17-0.22 0.48-0.48 0.41-0.36 0.07-0.05 0.26-0.21 0.08-0.05 0.31-0.22h0.02l0.29-0.19 0.05-0.02 0.31-0.19 0.1-0.05 0.96-0.43 0.07-0.03 0.29-0.09c0.36-0.12 0.76-0.05 1.05 0.21 0.31 0.24 0.43 0.65 0.36 1.03-0.07 0.39-0.36 0.7-0.72 0.82l-0.29 0.07 0.1-0.02-0.94 0.41 0.08-0.05-0.32 0.17h0.03l-0.31 0.16h0.02l-0.31 0.2 0.05-0.05-0.29 0.21 0.09-0.07-0.43 0.39-0.19 0.16 0.07-0.07-0.17 0.19-0.19 0.22 0.07-0.1-0.16 0.22-0.08 0.1-0.19 0.21 0.15-0.19-0.15 0.24-0.02 0.05-0.15 0.24 0.05-0.1-1.01 2.16 0.03-0.09-0.27 0.79-0.02 0.05-0.43 1.03-0.05 0.14-0.22 0.36v-0.02l-0.21 0.38-0.22 0.39-0.05 0.09-0.26 0.36-0.05 0.05-0.24 0.34c-0.05 0.04-0.12 0.12-0.19 0.16l-0.12 0.08 0.14-0.12-0.12 0.12c-0.02 0.04-0.07 0.09-0.12 0.12l-0.14 0.12 0.07-0.08-0.12 0.12c-0.05 0.05-0.09 0.1-0.14 0.12l-0.15 0.1-0.14 0.07v0.03l-0.19 0.09-0.03 0.03-0.12 0.04c-0.09 0.05-0.16 0.1-0.26 0.12h-0.1l0.2-0.04-0.1 0.04c-0.07 0.03-0.14 0.05-0.22 0.05l-0.12 0.03 0.22-0.08-0.1 0.05c-0.07 0.03-0.14 0.05-0.21 0.07l-0.12 0.03h-0.12c-0.05 0.02-0.12 0.02-0.19 0.02h-0.08l0.22-0.02-0.1 0.02c-0.07 0-0.14 0.03-0.21 0h-0.22l0.39-0.07-0.03 0.02c-0.38 0.15-0.79 0.03-1.03-0.28-0.26-0.34-0.26-0.77 0-1.08 0.24-0.34 0.65-0.44 1.03-0.29z"/>
  <path transform="matrix(1.3333 0 0 -1.3333 0 1120.8)" d="m196.85 743.18 0.14-0.19 0.1-0.09 0.07-0.1-0.14 0.19 0.04-0.07c0.03-0.07 0.08-0.12 0.12-0.19l0.08-0.07-0.15 0.19 0.05-0.07 0.05-0.08 0.07-0.09-0.12 0.19 0.05-0.1 0.05-0.12 0.04-0.04-0.04 0.09 0.02-0.09 0.07-0.12 0.05-0.08-0.14 0.39 0.02-0.1c0-0.09 0.05-0.17 0.07-0.26l0.05-0.07-0.07 0.24 0.02-0.22-0.02 0.07 0.02-0.14v0.02l0.03-0.14v-0.03l0.02-0.14-0.02 0.19v-0.31 0.02-0.14l0.02 0.19-0.07-0.36c-0.03-0.07-0.03-0.14-0.03-0.21v-0.08l0.36 0.87-0.02-0.03c-0.22-0.24-0.36-0.52-0.36-0.86v-0.1l0.36 0.87-0.02-0.03c-0.22-0.24-0.36-0.52-0.36-0.86v-0.02l0.36 0.86-0.03-0.02 0.89 0.36h-0.02c-0.34 0-0.65-0.12-0.89-0.36s-0.36-0.56-0.36-0.87v-0.05l0.36 0.87-0.03-0.03c-0.21-0.21-0.36-0.52-0.36-0.86v-0.02l1.25 1.22h-0.05c-0.31 0-0.64-0.12-0.88-0.36l-0.03-0.02c-0.21-0.22-0.36-0.53-0.36-0.84v-0.03l0.36 0.84-0.02-0.02h0.02l-0.02-0.03 0.86 0.36h-0.05c-0.31 0-0.62-0.12-0.86-0.33l-0.02-0.03-0.03-0.02-0.02-0.02 0.89 0.36h-0.03c-0.19 0-0.38-0.03-0.55-0.12l-0.05-0.03 0.55 0.12h-0.16c-0.7 0-1.25-0.55-1.25-1.22 0-0.7 0.55-1.25 1.25-1.25h0.16c0.2 0 0.39 0.05 0.56 0.14l0.04 0.03-0.55-0.15h0.03c0.33 0 0.64 0.15 0.86 0.39l0.02 0.02h0.03l0.02 0.03-0.89-0.39h0.05c0.34 0.03 0.65 0.15 0.87 0.39l0.04 0.04c0.24 0.22 0.36 0.56 0.36 0.89v0.03l-0.36-0.89 0.03 0.02-0.87-0.38h0.05c0.34 0 0.65 0.14 0.87 0.38 0.21 0.24 0.33 0.55 0.33 0.87v0.02l-0.33-0.86 0.02 0.02c0.22 0.22 0.34 0.53 0.34 0.86v0.05l-1.2-1.25h0.02c0.31 0 0.62 0.15 0.86 0.39l0.03 0.02c0.21 0.22 0.36 0.55 0.33 0.87v0.02l-0.33-0.86h0.02c0.22 0.24 0.34 0.57 0.34 0.88v0.1l-0.34-0.86c0.24 0.24 0.36 0.55 0.36 0.88v0.08l-0.02-0.24 0.07 0.36c0 0.09 0.02 0.16 0.02 0.26l-0.02 0.14v-0.02 0.31c0 0.07-0.02 0.15-0.02 0.19l-0.03 0.15v-0.03l-0.02 0.15v0.05l-0.03 0.12-0.02 0.07-0.05 0.19c-0.02 0.1-0.07 0.22-0.12 0.31l-0.05 0.07 0.1-0.21-0.02 0.07c-0.05 0.14-0.12 0.26-0.2 0.38l-0.04 0.08 0.09-0.15-0.05 0.1-0.09 0.12-0.05 0.07 0.07-0.12-0.05 0.07c-0.02 0.07-0.07 0.12-0.09 0.17l-0.1 0.1 0.05-0.05-0.05 0.07c-0.05 0.07-0.09 0.12-0.14 0.17l-0.1 0.07 0.15-0.17-0.03 0.07c-0.05 0.05-0.12 0.1-0.17 0.15l-0.07 0.07h0.03l-0.2 0.14c-0.4 0.39-1.03 0.41-1.46 0.03-0.43-0.36-0.5-1.01-0.19-1.47z"/>
  <path transform="matrix(1.3333 0 0 -1.3333 0 1120.8)" d="m191.52 752.09-0.05 0.02c-0.36 0.15-0.77-0.02-0.91-0.36-0.14-0.33-0.02-0.74 0.31-0.91 0.34-0.19 0.75-0.1 0.94 0.24l0.02 0.05c0.12 0.17 0.15 0.36 0.07 0.55-0.04 0.19-0.19 0.36-0.38 0.41z"/>
  <path transform="matrix(1.3333 0 0 -1.3333 0 1120.8)" d="m191.59 745.97-0.24-0.19c-0.07-0.08-0.14-0.15-0.17-0.22l-0.55-0.84v0.02l-1.17-1.72v0.02l-0.2-0.29-0.07-0.09-0.41-0.65-0.02-0.07-0.02-0.05c-0.2-0.36-0.17-0.79 0.04-1.13 0.24-0.34 0.63-0.53 1.04-0.5 0.4 0.02 0.76 0.26 0.93 0.62l0.03 0.05-0.05-0.07 0.38 0.67-0.02-0.05 0.19 0.31 0.02 0.03 1.08 1.82 0.05 0.1 0.41 0.91-0.02-0.07 0.14 0.26c0.24 0.38 0.14 0.89-0.19 1.15-0.36 0.29-0.87 0.29-1.18-0.02z"/>
  <path transform="matrix(1.3333 0 0 -1.3333 0 1120.8)" d="m192.65 743.47-0.15-0.26-0.02-0.05-0.07-0.14 0.02 0.04-0.05-0.14-0.04-0.05-0.08-0.17 0.05 0.08-0.24-0.41 0.03 0.02-0.36-0.62 0.12 0.17-0.05-0.05c-0.05-0.05-0.07-0.1-0.12-0.15l-0.03-0.07c-0.26-0.41-0.16-0.96 0.24-1.22 0.41-0.29 0.99-0.17 1.25 0.24l0.05 0.05-0.12-0.12 0.05 0.04c0.07 0.05 0.12 0.1 0.14 0.17l0.39 0.63 0.02 0.02 0.22 0.43 0.04 0.1 0.08 0.14-0.03-0.05 0.07 0.15 0.03 0.05 0.05 0.16c0.04 0.1 0.07 0.22 0.07 0.32v0.28c0.02 0.39-0.24 0.75-0.63 0.84-0.38 0.1-0.76-0.09-0.93-0.43z"/>
  <path transform="matrix(1.3333 0 0 -1.3333 0 1120.8)" d="m187.87 739.82 0.27-0.04h0.04l1.25-0.17h0.07l2-0.12 0.04-0.03h2.02c0.43 0 0.84 0.24 1.06 0.63 0.21 0.36 0.21 0.84 0 1.2-0.22 0.38-0.63 0.62-1.06 0.62h-0.19l-1.87-0.09h0.04l-1.99-0.05h0.1l-1.27 0.07h-0.32c-0.52 0-0.98-0.38-1.03-0.91-0.05-0.55 0.31-1.03 0.84-1.11z"/>
 </g>
</svg>
