<svg width="33.606" height="54.923" version="1.1" viewBox="0 0 33.606 54.923" xmlns="http://www.w3.org/2000/svg">
 <g transform="translate(-205.78 -181.16)">
  <path transform="matrix(1.3333 0 0 -1.3333 0 1120.8)" d="m156.36 700.03 0.31 0.46 0.03 0.02 0.24 0.39-0.08-0.08 0.27 0.34 0.74 1.01c0.12 0.17 0.22 0.38 0.24 0.6v0.02l-0.53-0.91 0.03 0.02c0.31 0.22 0.5 0.58 0.53 0.96l0.02 0.03-0.02-0.05v0.02l-1.44-1.15c0.33-0.02 0.67 0.05 0.93 0.24l0.03 0.03c0.28 0.21 0.5 0.52 0.52 0.88l0.03 0.03-1.47-1.15h0.03c0.31-0.03 0.65 0.07 0.91 0.24l0.02 0.02c0.32 0.24 0.53 0.58 0.56 0.96v0.05c0.07 0.72-0.46 1.37-1.2 1.44-0.72 0.07-1.4-0.46-1.47-1.2-0.07-0.72 0.46-1.37 1.2-1.47h0.03l-0.89 0.48c0.26-0.31 0.62-0.48 1.01-0.5 0.38 0 0.76 0.17 1.03 0.46l0.02 0.02-1.15-0.43h0.02c0.72-0.07 1.4 0.43 1.49 1.15v0.02l-1.49-1.15 0.03-0.02h0.02c0.34-0.03 0.67 0.05 0.94 0.26h0.02l-1.08-0.21h0.03c0.36-0.1 0.76 0 1.1 0.21v0.03l-0.84-0.27h0.05l-1.06 0.6 0.03-0.05c0.24-0.33 0.62-0.55 1.05-0.57h0.05l-1.18 0.77c0.15-0.29 0.39-0.53 0.68-0.68l0.02-0.02-0.22 0.14 0.05-0.02 0.07-0.07 0.05-0.03-0.05 0.05 0.05-0.05-0.6 1.28c-0.05-0.53 0.19-1.04 0.63-1.32l0.04-0.03c0.2-0.12 0.41-0.19 0.63-0.21h0.02l-1.15 0.84 0.02-0.05c0.05-0.12 0.1-0.22 0.2-0.31l0.04-0.08 0.1-0.12-0.02 0.03 0.09-0.15-0.12 0.24 0.07-0.16 0.03-0.08 0.24-0.4-0.1 0.19 0.03-0.1 0.07-0.14 0.07-0.12-0.02 0.05 0.04-0.12c0.05-0.1 0.1-0.17 0.15-0.24l0.07-0.12h0.02l0.08-0.12-0.15 0.26 0.05-0.12c0.07-0.12 0.12-0.24 0.22-0.34l0.09-0.09 0.07-0.1c0.05-0.05 0.1-0.09 0.15-0.12l0.24-0.21-0.48 1.08v-0.03c0-0.38 0.14-0.74 0.41-1.01 0.26-0.28 0.62-0.43 1-0.43h0.03l-1.35 0.94 0.03-0.05c0.21-0.55 0.74-0.91 1.32-0.91h0.02l-0.91 0.33 0.02-0.02c0.24-0.22 0.58-0.34 0.92-0.34h0.12-0.03 0.1l-0.58 0.12 0.05-0.02c0.14-0.07 0.34-0.1 0.5-0.12h0.08c0.36 0 0.67 0.12 0.93 0.34l0.03 0.02-0.94-0.34h0.02c0.8 0 1.44 0.65 1.44 1.42v0.05l-1.44-1.42h0.03c0.79-0.02 1.44 0.63 1.44 1.42v0.02c0.02 0.77-0.63 1.42-1.42 1.44-0.79 0-1.44-0.65-1.44-1.41 0-0.82 0.63-1.44 1.42-1.47h0.02c0.19 0 0.41 0.05 0.58 0.12l0.05 0.03c0.16 0.07 0.33 0.16 0.45 0.31l0.07 0.07-0.19-0.17 0.07 0.05 0.1 0.07 0.07 0.07 0.07 0.08c0.05 0.02 0.1 0.07 0.15 0.12l0.12 0.14-0.05-0.07 0.24 0.24c0.05 0.05 0.1 0.09 0.12 0.14l0.05 0.07 0.07 0.08 0.05 0.07-0.58-0.48 0.1 0.05c0.24 0.09 0.43 0.28 0.57 0.5l0.05 0.1 0.05 0.04 0.02 0.08-0.04-0.1 0.04 0.1v-0.03l0.12 0.17c0.05 0.07 0.08 0.12 0.1 0.19l0.05 0.05c0.07 0.19 0.12 0.41 0.12 0.62v0.08l-0.87-1.32 0.05 0.02c0.36 0.14 0.63 0.43 0.77 0.79l0.02 0.05-0.02-0.07 0.02 0.05-0.38-0.48 0.05 0.04 0.05 0.03c0.16 0.14 0.28 0.29 0.38 0.48l0.02 0.05-0.74-0.7 0.05 0.02c0.29 0.12 0.53 0.32 0.67 0.58l0.02 0.05-0.31-0.36 0.07 0.05h-0.02 0.02l-0.19-0.12 0.07 0.02c0.08 0.05 0.15 0.1 0.22 0.14v0.03l-0.19-0.15 0.07 0.05-0.02-0.02 0.12 0.07-0.7-0.17h0.05l-0.29 0.03h0.05c0.09-0.03 0.19-0.03 0.31-0.03l-0.94 0.34 0.05-0.03c0.24-0.21 0.58-0.33 0.91-0.33h0.1l-1.13 0.55 0.03-0.02c0.26-0.36 0.69-0.58 1.12-0.58h0.05l-0.96 0.36 0.03-0.02c0.12-0.1 0.24-0.17 0.38-0.24h0.05l-0.77 0.81v-0.05c0.22-0.55 0.74-0.91 1.34-0.93h0.03c0.79 0 1.46 0.65 1.46 1.44s-0.62 1.46-1.44 1.46c-0.79 0-1.44-0.62-1.46-1.44 0-0.43 0.19-0.84 0.5-1.13l0.03-0.02 0.07-0.05-0.15 0.12 0.1-0.09 0.12-0.12-0.29 0.38 0.05-0.07c0.02-0.07 0.07-0.12 0.12-0.19l0.17-0.24-0.12 0.16 0.14-0.26 0.05-0.07 0.07-0.15-0.07 0.17 0.05-0.14c0.05-0.07 0.07-0.15 0.12-0.22l0.07-0.12 0.05-0.07 0.24-0.34 0.05-0.04 0.02-0.03c0.05-0.09 0.12-0.17 0.19-0.21l0.03-0.03-0.24 0.27 0.02-0.05c0.29-0.39 0.72-0.63 1.2-0.63h0.02l-1.24 0.72 0.02-0.04c0.07-0.12 0.19-0.24 0.31-0.36l0.05-0.05c0.26-0.22 0.6-0.36 0.96-0.36h0.05l-0.72 0.19 0.02-0.02-0.07 0.04 0.05-0.02c0.07-0.05 0.14-0.1 0.21-0.12l0.05-0.02-0.67 0.6c0.22-0.36 0.55-0.6 0.96-0.7l0.05-0.02c0.09 0 0.21-0.03 0.31-0.03h0.07l-0.93 0.36 0.02-0.02c0.26-0.24 0.6-0.36 0.94-0.36h0.09l-0.17 0.02 0.1-0.02c0.14 0 0.29 0 0.43 0.02l0.12 0.03h0.07l0.08 0.02c0.09 0.02 0.16 0.05 0.24 0.1l0.09 0.02-0.24-0.07 0.1 0.02c0.12 0.03 0.21 0.07 0.33 0.15l0.1 0.04-0.05-0.02 0.07 0.02-0.04-0.02 0.09 0.05 0.15 0.07 0.07 0.05c0.05 0.02 0.09 0.05 0.14 0.09l0.24 0.2-0.12-0.1 0.22 0.14 0.07 0.05 0.19 0.12 0.05 0.03 0.17 0.14c0.05 0.05 0.09 0.1 0.14 0.14l0.17 0.15 0.41 0.43h0.02l0.55 0.6-0.45-0.31 0.07 0.02c0.5 0.22 0.86 0.75 0.84 1.32v0.03l-0.48-1.08h0.02l-0.24-0.15 0.05 0.03c0.27 0.12 0.46 0.36 0.58 0.62l0.02 0.05-1.27-0.84 0.02 0.02c0.2 0 0.39 0.03 0.56 0.1l0.04 0.02c0.12 0.07 0.27 0.15 0.36 0.24l0.05 0.05-0.91-0.36h0.02c0.36 0 0.68 0.12 0.94 0.36l0.02 0.02-0.93-0.36h0.07c0.34 0 0.67 0.12 0.94 0.36l0.02 0.03-0.94-0.36h0.05c0.17 0 0.31 0.02 0.46 0.07l0.07 0.02-0.46-0.07h0.05l-0.93 0.34 0.02-0.03 0.02-0.04c0.27-0.22 0.6-0.34 0.94-0.32h0.1l-0.72 0.17 0.02-0.02-0.41 0.36 0.03-0.03c0.14-0.19 0.33-0.33 0.55-0.43l0.05-0.02-0.15 0.07 0.05-0.02-0.07 0.04 0.05-0.04-0.32 0.26 0.05-0.02-0.36 0.91v-0.03c0-0.4 0.19-0.79 0.51-1.05l0.07-0.07 0.02-0.03 0.05-0.02-0.36 0.43 0.02-0.07c0.05-0.05 0.08-0.1 0.1-0.15l0.05-0.07c0.05-0.07 0.09-0.09 0.12-0.17l0.05-0.02-0.12 0.14 0.04-0.07-0.14 0.27 0.02-0.08c0.05-0.12 0.12-0.21 0.17-0.31l0.05-0.05-0.19 0.36 0.02-0.07 0.03-0.07 0.02-0.05 0.07-0.19-0.09 0.48v-0.1c0-0.07 0.02-0.16 0.04-0.26v-0.07c0.03-0.1 0.08-0.22 0.12-0.31l0.03-0.08c0.02-0.04 0.07-0.09 0.09-0.16l0.05-0.05-0.24 0.98v-0.07c-0.05-0.38 0.05-0.77 0.31-1.08l0.05-0.05-0.05 0.05 0.05-0.05-0.12 0.17 0.05-0.1c0.02-0.07 0.07-0.12 0.12-0.16l0.02-0.05-0.04 0.07 0.02-0.02c0.02-0.08 0.07-0.12 0.12-0.17l0.05-0.07-0.05 0.07 0.02-0.05 0.12-0.12 0.12-0.14c0.05-0.05 0.1-0.08 0.12-0.12l0.03-0.03c0.26-0.21 0.57-0.31 0.91-0.31h0.1-0.03 0.1l-1.32 0.86 0.02-0.04c0.22-0.51 0.72-0.84 1.3-0.84h0.12-0.03 0.03c0.33 0 0.65 0.12 0.91 0.36h0.02l-0.88-0.34h0.02-0.02 0.14c0.17 0 0.34 0.05 0.48 0.12l0.05 0.02-0.51-0.12h0.03c0.31 0 0.62 0.15 0.86 0.34l0.03 0.02-0.22-0.14 0.07 0.02-0.07-0.02 0.07 0.05-0.05-0.05 0.12 0.05 0.24 0.14 0.08 0.05 0.24 0.17c0.07 0.05 0.14 0.12 0.21 0.17l0.1 0.12-0.22-0.17 0.12 0.07c0.07 0.05 0.12 0.1 0.17 0.14l0.12 0.1c0.05 0.07 0.12 0.12 0.17 0.19l0.24 0.34-0.05-0.07 0.1 0.12-0.05-0.08 0.09 0.12c0.05 0.05 0.1 0.1 0.12 0.15l0.1 0.14-0.19-0.21 0.24 0.21 0.21 0.19 0.15 0.15-0.15-0.15 0.12 0.12 0.05 0.08c0.07 0.07 0.15 0.14 0.19 0.24l0.03 0.02-0.65-0.55 0.05 0.02c0.17 0.07 0.33 0.17 0.45 0.31l0.05 0.05-0.45-0.31 0.04 0.02 0.15 0.08 0.12 0.04-0.67-0.16h0.02-0.02 0.04c0.32 0 0.63 0.12 0.87 0.31l0.02 0.02-0.86-0.33h0.05l-0.89 0.33 0.02-0.02c0.24-0.19 0.58-0.31 0.89-0.31h0.02l-0.88 0.31h0.02l0.02-0.03c0.24-0.21 0.56-0.33 0.87-0.33h0.07l-0.89 0.33 0.03-0.02-0.48 1.03v-0.02c0-0.77 0.6-1.37 1.36-1.37h0.03l-0.89 0.34 0.02-0.03-0.45 1.03v-0.02c0-0.74 0.6-1.34 1.34-1.34h0.03c0.55 0 1.03 0.31 1.24 0.84 0.22 0.48 0.1 1.08-0.28 1.46-0.39 0.38-0.99 0.5-1.49 0.29-0.51-0.22-0.84-0.7-0.84-1.25v-0.05c0-0.36 0.14-0.69 0.41-0.96 0.26-0.26 0.6-0.41 0.96-0.41h0.02l-1.15 0.63 0.12-0.17c0.02-0.05 0.07-0.12 0.12-0.17l0.09-0.09-0.14 0.16 0.05-0.07 0.02-0.02 0.1-0.15-0.03 0.05 0.05-0.09 0.07-0.1 0.08-0.12-0.15 0.29 0.12-0.31-0.02 0.02 0.02-0.07 0.03-0.07 0.02-0.05-0.05 0.17v-0.05l0.05-0.12 0.02-0.07c0.03-0.05 0.05-0.12 0.08-0.17l0.04-0.07c0.08-0.17 0.17-0.32 0.32-0.44l0.04-0.04-0.43 0.72v-0.05c0.05-0.15 0.12-0.31 0.22-0.43l0.02-0.08-0.02 0.08 0.02-0.05-0.05 0.07 0.03-0.07c0.09-0.17 0.21-0.31 0.33-0.41l0.12-0.1c0.24-0.21 0.56-0.33 0.87-0.33h0.02c0.77 0 1.37 0.62 1.37 1.37 0 0.74-0.62 1.34-1.37 1.34-0.74 0-1.34-0.6-1.34-1.34v-0.05c0-0.48 0.26-0.91 0.67-1.15l0.05-0.03-0.22 0.15 0.03-0.03c0.26-0.21 0.55-0.33 0.88-0.33h0.03l-1.08 0.52 0.02-0.02c0.27-0.34 0.67-0.53 1.08-0.53h0.07l-1.36 1.35v-0.03c0-0.74 0.6-1.34 1.34-1.34h0.07l-1.27 0.86v-0.02c0.22-0.53 0.72-0.87 1.27-0.87h0.15-0.03 0.17c0.31 0 0.65 0.12 0.89 0.32l0.02 0.02-0.89-0.31h0.03c0.19 0 0.36 0.02 0.53 0.09l0.04 0.03-0.52-0.1h0.04c0.22 0 0.46 0.05 0.65 0.17l0.17 0.1 0.1 0.04 0.12 0.1-0.15-0.1 0.12 0.08c0.1 0.04 0.17 0.09 0.27 0.16l0.09 0.1-0.12-0.1 0.12 0.1c0.1 0.05 0.17 0.1 0.22 0.17l0.12 0.12-0.17-0.15 0.24 0.2c0.12 0.07 0.22 0.19 0.29 0.31l0.09 0.14-0.04-0.07 0.19 0.24-0.03-0.05 0.27 0.34 0.02 0.02 0.17 0.24-0.1-0.12 0.08 0.07c0.14 0.12 0.24 0.29 0.31 0.46l0.02 0.07-0.19-0.33 0.07 0.09-0.19-0.21 0.05 0.04 0.07 0.08 0.07 0.07 0.03 0.02 0.04 0.05-0.24-0.19 0.15 0.09c0.05 0.03 0.12 0.08 0.14 0.1l0.03 0.02-0.87-0.31h0.03c0.48 0 0.93 0.27 1.17 0.67v0.03l-0.29-0.36 0.03 0.02-0.89-0.33h0.02c0.44 0 0.82 0.21 1.08 0.52l0.03 0.05-1.61-0.43h0.02c0.17-0.07 0.36-0.12 0.53-0.12h0.24l-0.74 0.22 0.05-0.03c0.21-0.14 0.45-0.21 0.72-0.21h0.02l-1.15 0.67v-0.03c0.26-0.4 0.69-0.67 1.17-0.67h0.03l-0.89 0.34 0.02-0.03-0.19 0.2 0.03-0.03c0.26-0.33 0.67-0.53 1.08-0.53h0.02l-1.18 0.68 0.03-0.03c0.07-0.12 0.17-0.24 0.29-0.33l0.02-0.03-0.1 0.1 0.17-0.19v0.02l0.15-0.17-0.12 0.12 0.12-0.17 0.02-0.02 0.17-0.19-0.07 0.07 0.33-0.48-0.07 0.14 0.12-0.24 0.05-0.09 0.14-0.24 0.1-0.12 0.48-0.63c0.02-0.04 0.07-0.09 0.12-0.14l0.19-0.17c0.53-0.53 1.39-0.5 1.9 0.03 0.52 0.52 0.5 1.39-0.03 1.89l-0.19 0.19 0.12-0.14-0.48 0.62 0.1-0.12-0.15 0.22 0.05-0.07-0.12 0.24c-0.02 0.05-0.05 0.09-0.1 0.14l-0.33 0.51-0.05 0.04-0.14 0.2 0.02-0.03-0.12 0.15c-0.02 0.04-0.07 0.09-0.1 0.14l-0.16 0.17-0.17 0.17-0.1 0.09-0.02 0.03 0.29-0.34h-0.03c-0.24 0.43-0.67 0.7-1.15 0.7h-0.02l1.05-0.53-0.02 0.02c-0.05 0.07-0.12 0.15-0.19 0.19l-0.03 0.03c-0.24 0.21-0.55 0.33-0.86 0.33h-0.03l1.16-0.67v0.03c-0.24 0.4-0.7 0.64-1.18 0.64h-0.02l0.74-0.19-0.05 0.03c-0.21 0.14-0.48 0.21-0.72 0.21h-0.24l0.53-0.12-0.02 0.03c-0.56 0.24-1.2 0.07-1.59-0.44l-0.02-0.02 1.05 0.53h-0.02c-0.31 0-0.62-0.12-0.86-0.34h-0.03c-0.12-0.09-0.21-0.21-0.29-0.36l-0.02-0.02 1.18 0.67h-0.03c-0.33 0-0.62-0.12-0.89-0.31l-0.02-0.03 0.17 0.1-0.17-0.07c-0.07-0.07-0.17-0.15-0.22-0.19l-0.07-0.08h0.03l-0.08-0.04 0.08 0.04-0.05-0.04c-0.07-0.05-0.15-0.12-0.19-0.2l-0.08-0.07c-0.07-0.12-0.14-0.21-0.19-0.33l-0.02-0.08 0.31 0.46-0.17-0.17-0.19-0.24 0.02 0.03-0.28-0.34-0.03-0.02-0.19-0.24-0.05-0.1-0.09-0.14 0.31 0.33-0.12-0.09-0.12-0.1c-0.07-0.02-0.12-0.07-0.17-0.12l-0.1-0.12 0.22 0.19-0.12-0.09-0.12-0.1-0.12-0.07 0.26 0.17-0.12-0.08c-0.04-0.02-0.09-0.04-0.14-0.09l-0.14-0.07 0.09 0.04-0.14-0.07 0.69 0.17h-0.04c-0.2 0-0.36-0.02-0.53-0.1l-0.05-0.02 0.53 0.1h-0.03c-0.31 0-0.62-0.1-0.88-0.32l-0.03-0.02 0.89 0.34h-0.17 0.03-0.15l1.27-0.87-0.02 0.03c-0.19 0.5-0.7 0.86-1.25 0.86h-0.07c-0.74 0-1.34-0.6-1.34-1.34 0-0.77 0.6-1.37 1.34-1.37 0.77 0 1.37 0.6 1.37 1.34v0.03c0 0.36-0.15 0.72-0.41 0.96-0.24 0.26-0.58 0.4-0.94 0.4h-0.07l1.08-0.52-0.02 0.02c-0.27 0.34-0.67 0.53-1.08 0.53h-0.03l0.89-0.34-0.02 0.03c-0.07 0.07-0.15 0.12-0.22 0.14l-0.02 0.02 0.67-1.17v0.05c0 0.74-0.6 1.34-1.37 1.34h-0.02l0.89-0.34-0.1 0.1 0.31-0.41-0.02 0.07-0.05 0.08-0.02 0.02-0.03 0.1-0.07 0.04 0.19-0.43v0.05c-0.07 0.29-0.21 0.53-0.43 0.72l-0.05 0.05 0.34-0.43-0.05 0.07 0.07-0.17-0.02 0.07 0.02-0.12v0.05c0 0.07-0.02 0.12-0.05 0.19l-0.02 0.05 0.02-0.05-0.02 0.07h-0.02l-0.1 0.32c-0.05 0.12-0.07 0.19-0.14 0.28l-0.08 0.12-0.07 0.1-0.05 0.1-0.02 0.02-0.07 0.12 0.02-0.02-0.07 0.09c-0.05 0.05-0.1 0.12-0.14 0.17l-0.08 0.1 0.12-0.17-0.09 0.17c-0.27 0.36-0.67 0.6-1.13 0.6h-0.02l1.34-1.35v0.05c0 0.74-0.6 1.34-1.34 1.34h-0.03c-0.55 0-1.03-0.31-1.25-0.81-0.21-0.53-0.09-1.11 0.29-1.49 0.39-0.38 0.96-0.5 1.49-0.29 0.5 0.22 0.82 0.7 0.82 1.25v0.02c0 0.39-0.17 0.77-0.46 1.04h-0.02c-0.27 0.21-0.56 0.33-0.89 0.33h-0.03c-0.55 0-1.05-0.33-1.27-0.84-0.19-0.5-0.09-1.08 0.31-1.46 0.39-0.39 0.96-0.51 1.47-0.31 0.5 0.21 0.84 0.72 0.84 1.27v0.02c0 0.39-0.17 0.77-0.48 1.03l-0.03 0.03c-0.24 0.19-0.55 0.31-0.86 0.31h-0.07l0.89-0.31-0.03 0.02v-0.02 0.02c-0.26 0.22-0.55 0.34-0.89 0.34h-0.02l0.89-0.34-0.03 0.03c-0.24 0.21-0.57 0.31-0.88 0.31h-0.05c-0.34 0-0.65-0.1-0.89-0.31l-0.02-0.03 0.88 0.34h-0.04 0.02-0.02c-0.24 0-0.48-0.07-0.68-0.19l-0.12-0.05 0.15 0.07-0.05-0.02c-0.19-0.1-0.34-0.2-0.46-0.34l-0.04-0.05 0.45 0.31h-0.05c-0.26-0.12-0.5-0.31-0.64-0.57l-0.03-0.05 0.19 0.24-0.04-0.05 0.09 0.12-0.02-0.02c-0.05-0.05-0.1-0.1-0.12-0.15l-0.05-0.04 0.1 0.12-0.17-0.17-0.27-0.22c-0.07-0.07-0.12-0.14-0.19-0.21l-0.09-0.15 0.12 0.15-0.1-0.12-0.07-0.05-0.1-0.12-0.05-0.07-0.24-0.34 0.15 0.19-0.12-0.12 0.17 0.15-0.12-0.1c-0.08-0.05-0.15-0.12-0.22-0.17l-0.1-0.12 0.22 0.19-0.24-0.16 0.1 0.07-0.1-0.07 0.14 0.07-0.12-0.05-0.07-0.02-0.07-0.05-0.1-0.05-0.07-0.02c-0.07-0.05-0.14-0.1-0.19-0.15l-0.02-0.02 0.91 0.31h-0.03c-0.21 0-0.38-0.02-0.57-0.1l-0.05-0.02 0.6 0.1h-0.14 0.02-0.02c-0.34 0.02-0.65-0.1-0.92-0.32l-0.02-0.02 0.89 0.34h-0.03 0.03-0.12l1.27-0.92-0.02 0.03c-0.2 0.53-0.68 0.89-1.25 0.91h-0.1 0.03-0.1l0.89-0.36-0.03 0.02 0.12-0.09-0.12 0.14 0.12-0.17-0.04 0.05-0.08 0.12-0.04 0.07 0.14-0.24-0.02 0.05-0.08 0.12-0.02 0.05 0.07-0.14-0.05 0.09-0.07 0.15-0.05 0.04-0.04 0.08-0.05 0.07 0.26-1.11v0.08c0.07 0.36 0 0.72-0.19 1l-0.05 0.08 0.12-0.2-0.02 0.05 0.09-0.33-0.02 0.07 0.02-0.27v0.1c0 0.19-0.02 0.36-0.09 0.55l-0.07 0.17 0.04-0.07-0.04 0.14c-0.05 0.15-0.12 0.27-0.2 0.36l-0.02 0.05 0.14-0.29-0.02 0.1c-0.05 0.09-0.1 0.19-0.14 0.26l-0.05 0.07c-0.03 0.08-0.07 0.1-0.1 0.15l-0.05 0.05 0.12-0.15-0.04 0.07 0.07-0.14-0.03 0.07c-0.09 0.17-0.19 0.31-0.33 0.43l-0.05 0.05-0.02 0.03-0.08 0.07 0.48-1.11v0.03c0.03 0.36-0.12 0.69-0.33 0.96l-0.03 0.05c-0.09 0.09-0.19 0.16-0.31 0.24l-0.02 0.02-0.1 0.05-0.02 0.02-0.15 0.07-0.04 0.03 0.55-0.43-0.03 0.02c-0.09 0.14-0.24 0.26-0.4 0.36l-0.05 0.02c-0.19 0.12-0.43 0.2-0.67 0.2h-0.1l0.94-0.34-0.05 0.02v0.03c-0.27 0.21-0.6 0.33-0.94 0.33h-0.05c-0.16 0.03-0.33-0.02-0.48-0.04l-0.04-0.03 0.45 0.07h-0.05c-0.33 0-0.67-0.12-0.93-0.33l-0.03-0.03 0.94 0.34h-0.07c-0.34 0-0.67-0.12-0.94-0.34l-0.02-0.02 0.93 0.34h-0.02c-0.34 0-0.67-0.12-0.94-0.34l-0.02-0.02h-0.02l0.36 0.21-0.05-0.02 0.57 0.09-0.02 0.03c-0.55 0-1.08-0.31-1.32-0.82l-0.02-0.07 0.6 0.65-0.05-0.03c-0.07-0.04-0.15-0.09-0.22-0.14l-0.02-0.02c-0.31-0.27-0.51-0.68-0.51-1.08v-0.03l0.87 1.3-0.03-0.03c-0.19-0.04-0.33-0.16-0.48-0.28l-0.57-0.6-0.41-0.41-0.14-0.15 0.14 0.12-0.17-0.12 0.03 0.03-0.2-0.15 0.08 0.05-0.22-0.12-0.12-0.09-0.24-0.17 0.17 0.09-0.07-0.02 0.14 0.07-0.1-0.05-0.07-0.02-0.07-0.05-0.05-0.02-0.09-0.05 0.33 0.12-0.07-0.02c-0.1 0-0.17-0.03-0.24-0.08l-0.1-0.02 0.24 0.07-0.09-0.02 0.07 0.02-0.1-0.02 0.41 0.02h-0.33l0.96-0.33h-0.05c-0.27 0.24-0.58 0.36-0.94 0.36h-0.07l0.29-0.03h-0.03l0.94-0.69v0.02c-0.17 0.29-0.41 0.48-0.7 0.6l-0.04 0.02 0.21-0.09-0.05 0.02-0.07 0.03-0.02 0.02c-0.22 0.14-0.48 0.22-0.72 0.22h-0.05l0.94-0.36-0.03 0.02-0.02 0.02 0.31-0.38-0.05 0.05c-0.24 0.45-0.72 0.72-1.25 0.72h-0.02l1.2-0.63-0.05 0.08c-0.05 0.09-0.14 0.16-0.24 0.26l-0.02 0.02 0.21-0.21-0.02 0.02 0.02-0.05-0.26 0.36 0.05-0.07-0.07 0.12 0.12-0.21-0.08 0.14c0 0.05-0.04 0.1-0.07 0.17l-0.09 0.14 0.04-0.07-0.14 0.29c-0.02 0.05-0.07 0.12-0.1 0.17l-0.19 0.24 0.12-0.2-0.05 0.08c-0.04 0.14-0.14 0.26-0.26 0.38l-0.07 0.07 0.05-0.05-0.08 0.08c-0.04 0.04-0.09 0.09-0.14 0.12l-0.05 0.07-0.05 0.02 0.53-1.08c0 0.82-0.67 1.44-1.46 1.44h-0.03l1.37-0.91-0.02 0.02c-0.15 0.36-0.41 0.65-0.77 0.8l-0.05 0.02 0.36-0.22-0.02 0.03c-0.27 0.21-0.6 0.33-0.94 0.33h-0.05l1.16-0.55-0.03 0.03c-0.29 0.36-0.69 0.55-1.15 0.55h-0.1l0.96-0.34-0.02 0.03c-0.26 0.21-0.6 0.33-0.96 0.33l0.31-0.02h-0.07c-0.1 0.02-0.19 0.02-0.31 0.02h-0.05c-0.24 0-0.48-0.05-0.67-0.17l-0.15-0.07-0.02-0.02-0.07-0.05c-0.07-0.05-0.17-0.1-0.24-0.17h-0.03l0.24 0.15-0.07-0.03c-0.07-0.05-0.17-0.12-0.24-0.17l-0.02-0.02h0.02l-0.07-0.05c-0.12-0.09-0.22-0.24-0.31-0.38l-0.03-0.03 0.7 0.6-0.07-0.02c-0.31-0.14-0.58-0.38-0.72-0.72l-0.03-0.05 0.36 0.48-0.04-0.02-0.05-0.05c-0.15-0.14-0.27-0.31-0.36-0.5l-0.03-0.05-0.02-0.07-0.02-0.08 0.74 0.82-0.02-0.02c-0.53-0.24-0.87-0.75-0.87-1.32v-0.08l0.12 0.6-0.02-0.04 0.12 0.21-0.12-0.19-0.1-0.14-0.05-0.08 0.05 0.08-0.07-0.12 0.58 0.52-0.08-0.04c-0.24-0.12-0.43-0.29-0.57-0.48l-0.05-0.1 0.07 0.1-0.05-0.08 0.12 0.17-0.24-0.26-0.19-0.19 0.15 0.12-0.1-0.08-0.07-0.04 0.09 0.07-0.07-0.05c-0.07-0.05-0.12-0.12-0.19-0.17l-0.05-0.07 0.46 0.34-0.05-0.03 0.55 0.12h-0.02c-0.79-0.02-1.42-0.67-1.42-1.44v-0.02c0-0.79 0.65-1.44 1.44-1.42 0.79 0 1.44 0.63 1.42 1.44 0 0.77-0.65 1.42-1.44 1.42h-0.03c-0.38 0-0.74-0.17-1-0.43-0.27-0.27-0.41-0.63-0.41-1.01v-0.05c0-0.77 0.65-1.42 1.44-1.42s1.41 0.65 1.41 1.44c0 0.8-0.64 1.44-1.44 1.42h-0.02c-0.34 0-0.67-0.12-0.91-0.34l-0.03-0.02 0.92 0.34h-0.08l0.6-0.1h-0.02c-0.17 0.07-0.36 0.12-0.55 0.12h-0.1 0.03-0.12l0.93-0.34-0.02 0.03c-0.27 0.21-0.58 0.33-0.94 0.33h-0.02l1.34-0.91-0.02 0.05c-0.22 0.53-0.75 0.89-1.32 0.89h-0.03l1.44-1.42v0.03c-0.02 0.4-0.19 0.81-0.5 1.08l-0.26 0.21 0.12-0.12-0.08 0.1-0.09 0.07 0.24-0.31-0.07 0.12c-0.05 0.07-0.1 0.17-0.17 0.24l-0.05 0.09v-0.02l-0.07 0.1 0.14-0.22-0.07 0.12-0.02 0.05-0.08 0.12 0.08-0.15-0.03 0.1c-0.02 0.05-0.07 0.12-0.09 0.17l-0.22 0.41v-0.05l-0.07 0.17c-0.05 0.07-0.1 0.14-0.17 0.21l-0.1 0.12v0.03l-0.12 0.12v0.02l-0.07 0.07 0.19-0.29-0.02 0.08c-0.26 0.48-0.79 0.79-1.37 0.74h-0.02l0.74-0.14h-0.02l0.74-1.08c-0.05 0.45-0.29 0.84-0.67 1.05l-0.05 0.03-0.07 0.04-0.05 0.03 0.05-0.03-0.05 0.05c-0.07 0.03-0.12 0.05-0.17 0.07h-0.04l0.62-0.48v0.03c-0.29 0.38-0.72 0.6-1.2 0.57h-0.05l1.11-0.48-0.03 0.03c-0.29 0.33-0.67 0.5-1.1 0.48h-0.05c-0.36-0.03-0.67-0.17-0.91-0.41l-0.03-0.02 0.68 0.38h-0.03c-0.26-0.07-0.5-0.19-0.67-0.38l-0.02-0.03 0.81 0.41h-0.02l-0.03-0.02c-0.36-0.03-0.69-0.22-0.91-0.51-0.21-0.29-0.33-0.65-0.29-1.01l0.03-0.02c0.09-0.74 0.77-1.25 1.49-1.15 0.74 0.09 1.27 0.77 1.17 1.49-0.07 0.74-0.74 1.27-1.49 1.17h-0.02c-0.38-0.05-0.74-0.24-0.96-0.57l-0.02-0.05 1.8 0.41h-0.03c-0.24 0.16-0.53 0.24-0.81 0.19h-0.03c-0.72-0.07-1.25-0.72-1.2-1.44v-0.05l0.39 1.06h-0.03l0.82 0.38h-0.03c-0.36-0.05-0.69-0.24-0.91-0.5-0.21-0.29-0.31-0.65-0.26-1.01v-0.03l0.36 1.11-0.03-0.03 0.8 0.41c-0.36-0.05-0.7-0.21-0.92-0.5-0.21-0.29-0.31-0.65-0.26-0.99v-0.02 0.05-0.03l0.38 1.04-0.02-0.03c-0.29-0.29-0.43-0.69-0.38-1.08v-0.02l0.19 0.84-0.63-1.03c-0.04-0.08-0.07-0.12-0.09-0.2l-0.17-0.4-0.02-0.08-0.15-0.43 0.05 0.12-0.22-0.48c-0.24-0.53-0.04-1.15 0.46-1.41 0.5-0.29 1.13-0.12 1.44 0.33z"/>
  <path transform="matrix(1.3333 0 0 -1.3333 0 1120.8)" d="m156.29 695.47 0.02 0.03c0.05 0.07 0.12 0.12 0.15 0.21l0.02 0.03-0.53-0.48 0.05 0.02c0.14 0.07 0.26 0.17 0.38 0.26l0.03 0.03h-0.03l0.1 0.09-0.02-0.02 0.07 0.07-0.07-0.07 0.09 0.07-0.12-0.07 0.1 0.05c0.05 0.05 0.12 0.09 0.17 0.14l0.07 0.07-0.24-0.19 0.09 0.07-0.07-0.04 0.1 0.04 0.12 0.08 0.09 0.07-0.19-0.12 0.1 0.05 0.09 0.04-0.09-0.04 0.07 0.02 0.05 0.02 0.12 0.05-0.1-0.05 0.19 0.08-0.33-0.05h0.05c0.09 0 0.16 0 0.26 0.02h0.07l-0.24-0.02h0.29l-0.19 0.02 0.07-0.02c0.07 0 0.14 0 0.19-0.03h0.07l-0.19 0.03h0.07-0.04l0.07-0.03-0.22 0.08 0.07-0.03c0.08-0.02 0.15-0.05 0.22-0.07l0.07-0.02-0.41 0.16 0.08-0.04c0.14-0.08 0.28-0.15 0.45-0.17h0.07l-0.55 0.24 0.07-0.05 0.12-0.1 0.17-0.09-0.02 0.02 0.12-0.09-0.1 0.07 0.12-0.1-0.07 0.07 0.1-0.09-0.08 0.07 0.1-0.1 0.1-0.09 0.09-0.1-0.17 0.22 0.08-0.12c0.02-0.05 0.07-0.1 0.09-0.15l0.1-0.09-0.05 0.05 0.07-0.12-0.09 0.19 0.04-0.1 0.05-0.12 0.07-0.12-0.04 0.12 0.04-0.12-0.02 0.05 0.07-0.14-0.02 0.07 0.12-0.34-0.03 0.1 0.08-0.31 0.09-0.32-0.02 0.1 0.05-0.29v0.05l0.02-0.34v0.05l0.07-0.74 0.03-0.39 0.02-0.04 0.02-0.39 0.03-0.07 0.14-0.89 0.03-0.12 0.04-0.14v-0.05l0.05-0.14 0.03-0.1 0.04-0.14 0.05-0.08 0.07-0.16 0.15-0.32c0.09-0.19 0.24-0.33 0.41-0.45l0.04-0.03-0.19 0.15 0.03-0.03-0.1 0.12 0.02-0.04 0.12-0.15 0.03-0.02 0.02-0.03 0.05-0.04c0.12-0.15 0.29-0.24 0.48-0.29l0.05-0.03-0.63 0.48 0.03-0.04c0.17-0.24 0.41-0.44 0.69-0.51h0.08l-0.39 0.17 0.07-0.07c0.1-0.05 0.2-0.1 0.32-0.15h0.02-0.02l0.09-0.04-0.05 0.02 0.1-0.05c0.07-0.02 0.17-0.05 0.24-0.07h0.07l-0.09 0.02 0.09-0.04-0.05 0.02 0.08-0.02c0.14-0.05 0.26-0.08 0.4-0.08h0.08l-0.12 0.03 0.26-0.05h0.24l0.31 0.05 0.31 0.02h0.1l0.34 0.07 0.31 0.05 0.12 0.03 0.69 0.21h-0.04l1.05 0.27-0.12-0.03 0.19 0.03 0.1 0.02 0.19 0.02-0.19-0.02 0.22 0.02h-0.08 0.48-0.12l0.24-0.02h-0.07l0.29-0.05-0.1 0.03 0.24-0.05h-0.04l0.26-0.07-0.12 0.04 0.7-0.28-0.05 0.02 0.19-0.07h-0.02l0.16-0.07-0.12 0.07 0.17-0.12 0.19-0.12-0.09 0.07 0.17-0.14-0.05 0.04 0.45-0.4-0.07 0.07 0.1-0.12 0.07-0.03 0.12-0.12-0.05 0.05 0.12-0.14-0.05 0.05 0.12-0.12-0.07 0.07 0.1-0.15 0.12-0.12-0.07 0.08 0.21-0.34-0.05 0.07 0.15-0.26v0.02l0.12-0.26-0.03 0.07 0.24-0.55-0.04 0.12 0.07-0.27v-0.02l0.09-0.29-0.02 0.12 0.05-0.26 0.05-0.29v0.02l0.04-0.28v0.12l0.05-0.72v0.12l-0.07-2.19v0.03l-0.07-1.06v-0.02l-0.03-1.08c0-0.44 0.22-0.84 0.58-1.06 0.38-0.24 0.84-0.24 1.22-0.05 0.36 0.22 0.6 0.6 0.63 1.03l0.02 1.08v-0.02l0.05 1.06v0.02l0.07 2.18v0.12l-0.07 0.75v0.12l-0.07 0.31-0.05 0.29-0.07 0.26v0.1l-0.1 0.29v-0.03l-0.07 0.29-0.05 0.14-0.24 0.56-0.02 0.07-0.15 0.29-0.02 0.02-0.14 0.26-0.05 0.05-0.19 0.34-0.05 0.09-0.12 0.12-0.1 0.15-0.02 0.05-0.12 0.12-0.05 0.07-0.12 0.12-0.07 0.05-0.12 0.12 0.07-0.05-0.12 0.12-0.07 0.05-0.46 0.4-0.05 0.05-0.16 0.12-0.1 0.07-0.19 0.12-0.17 0.12-0.14 0.08-0.17 0.09h-0.03l-0.21 0.1-0.03 0.02-0.69 0.27-0.15 0.04-0.24 0.08h-0.04l-0.24 0.04-0.08 0.03-0.26 0.05h-0.07l-0.24 0.04h-0.72l-0.22-0.02c-0.05 0-0.12 0-0.17-0.02l-0.19-0.05 0.07 0.02-0.19-0.02-0.12-0.03-1.05-0.28h-0.03l-0.69-0.22 0.12 0.05-0.32-0.07-0.31-0.05 0.07 0.02-0.28-0.05-0.32-0.02h0.22l-0.24 0.02-0.14 0.03h-0.08l0.39-0.07-0.07 0.02-0.08 0.02-0.07 0.03-0.09 0.02h-0.1l0.26-0.07-0.09 0.05-0.05 0.02-0.12 0.05h-0.05l-0.05 0.02 0.32-0.14-0.05 0.02-0.05 0.03c-0.12 0.09-0.24 0.14-0.38 0.17l-0.05 0.02 0.69-0.5-0.02 0.02c-0.14 0.24-0.36 0.41-0.6 0.5h-0.05l0.46-0.28-0.03 0.04-0.02 0.03-0.05 0.02 0.12-0.12-0.05 0.05-0.09 0.12-0.05 0.05c-0.05 0.05-0.1 0.09-0.17 0.14l-0.05 0.03 0.41-0.46-0.17 0.31-0.04 0.15 0.02-0.1-0.05 0.14 0.03-0.09-0.05 0.14 0.02-0.02-0.05 0.14 0.03-0.09-0.15 0.91v-0.07l-0.02 0.38v-0.05l-0.02 0.39v0.04l-0.08 0.77-0.02 0.03-0.02 0.33-0.03 0.07-0.05 0.29-0.02 0.1-0.07 0.31v0.02l-0.1 0.29-0.02 0.1-0.12 0.36-0.03 0.05-0.04 0.14-0.03 0.05-0.07 0.12-0.05 0.09-0.07 0.12 0.07-0.12-0.07 0.12c-0.02 0.08-0.05 0.15-0.1 0.2l-0.09 0.12-0.05 0.04-0.07 0.12 0.09-0.16-0.07 0.12c-0.05 0.09-0.09 0.16-0.17 0.24l-0.43 0.43-0.07 0.05-0.1 0.09-0.09 0.05-0.1 0.07-0.05 0.03-0.16 0.12 0.09-0.1-0.05 0.05c-0.16 0.12-0.36 0.19-0.55 0.24h-0.07l0.43-0.15-0.07 0.05c-0.12 0.07-0.24 0.12-0.38 0.15h-0.1l0.24-0.05-0.07 0.02c-0.07 0.03-0.15 0.05-0.22 0.05l-0.07 0.02h-0.05l-0.07 0.03c-0.07 0-0.14 0.02-0.22 0h-0.07 0.22-0.07c-0.08 0.02-0.15 0.02-0.22 0.02h-0.29c-0.09 0-0.17-0.02-0.26-0.05h-0.07l0.24 0.03h-0.05c-0.12 0-0.24-0.03-0.34-0.05l-0.19-0.07-0.1-0.03-0.12-0.04h0.05l-0.09-0.03-0.1-0.05-0.1-0.04-0.09-0.03c-0.07-0.05-0.12-0.07-0.19-0.12l-0.08-0.07 0.12 0.1-0.07-0.05-0.07-0.03-0.07-0.07c-0.1-0.05-0.19-0.12-0.27-0.21l-0.04-0.05 0.16 0.14-0.09-0.05-0.1-0.09-0.07-0.07-0.07-0.08-0.07-0.07-0.1-0.12-0.07-0.09c-0.12-0.17-0.19-0.34-0.22-0.51v-0.05l0.31 0.65-0.02-0.02c-0.19-0.19-0.29-0.43-0.31-0.7l-0.03-0.05 0.03 0.05-0.03-0.02c-0.04-0.48 0.2-0.96 0.65-1.18 0.43-0.21 0.96-0.12 1.3 0.24z"/>
  <path transform="matrix(1.3333 0 0 -1.3333 0 1120.8)" d="m175.58 680.76v0.53l-0.07 3.45v-0.07l0.03 1.61v0.72l-0.03 5.23v-0.09l0.1 1.89v-0.12l0.05 0.41-0.03-0.07 0.1 0.41-0.05-0.17 0.31 0.98-0.02-0.09 0.05 0.12 0.02 0.07 0.05 0.14-0.22-0.38 0.12 0.14-0.05-0.07 0.1 0.14 0.02 0.03 0.22 0.29c0.05 0.07 0.1 0.12 0.14 0.21l0.03 0.03-0.55-0.58 0.04 0.02c0.24 0.15 0.41 0.36 0.56 0.6l0.02 0.05-0.55-0.6 0.05 0.05c0.09 0.05 0.16 0.1 0.24 0.17l0.07 0.05 0.05 0.07-0.27-0.19 0.07 0.02-0.24-0.12 0.08 0.05c0.26 0.09 0.45 0.26 0.62 0.45l0.05 0.03-0.63-0.46 0.08 0.03c0.07 0.04 0.14 0.07 0.21 0.12l0.07 0.04-0.24-0.12 0.08 0.03-0.27-0.1 0.07 0.03c0.17 0.04 0.36 0.09 0.51 0.21l0.05 0.03-0.22-0.12 0.07 0.02-0.24-0.07 0.22 0.05 0.09 0.02 0.05 0.02-0.45-0.07h0.48l-0.48 0.07 0.04-0.02h0.05c0.17-0.05 0.31-0.07 0.48-0.07h0.03l-0.48 0.07 0.07-0.02-0.36 0.16 0.02-0.02c0.17-0.1 0.36-0.17 0.58-0.22l0.12-0.02-0.99 0.58 0.03-0.03c0.21-0.29 0.53-0.48 0.89-0.55l0.09-0.02-0.77 0.38 0.05-0.05c0.19-0.14 0.39-0.26 0.63-0.36h0.04l-0.6 0.36 0.05-0.05c0.17-0.16 0.39-0.28 0.6-0.36l0.05-0.02-0.91 0.77 0.02-0.05c0.12-0.24 0.34-0.46 0.55-0.6l0.05-0.02-0.55 0.57 0.02-0.02c0.08-0.12 0.15-0.24 0.24-0.34l0.1-0.12-0.05 0.1 0.1-0.15 0.07-0.07 0.1-0.12-0.32 0.53 0.05-0.14 0.03-0.05 0.04-0.15c0.03-0.07 0.08-0.14 0.12-0.21l0.08-0.15-0.2 0.53 0.03-0.14c0-0.05 0.02-0.1 0.02-0.17l0.1-0.26-0.07 0.36 0.04-0.63-0.02 0.07 0.02-0.62v0.19l-0.19-1.68v0.03l-0.09-0.7-0.1-0.65v-0.26-0.19c0.02-0.82 0.7-1.47 1.51-1.47 0.82 0 1.49 0.65 1.51 1.47l0.03 0.19-0.05-0.22 0.14 0.65v0.02l0.12 0.68v0.07l0.22 1.68c0 0.07 0.02 0.12 0.02 0.19v0.67l-0.02 0.65c0 0.12-0.02 0.26-0.05 0.41l-0.09 0.26 0.04-0.19-0.02 0.14c-0.02 0.2-0.1 0.39-0.19 0.56l-0.1 0.12 0.12-0.22-0.05 0.12 0.03-0.05-0.07 0.15c-0.05 0.19-0.17 0.38-0.32 0.52l-0.09 0.12 0.05-0.07-0.1 0.15-0.07 0.07-0.1 0.12 0.22-0.34-0.03 0.05c-0.12 0.24-0.31 0.46-0.55 0.6l-0.05 0.02 0.56-0.57-0.03 0.05c-0.19 0.36-0.53 0.62-0.91 0.74l-0.05 0.02 0.6-0.36-0.05 0.08c-0.16 0.14-0.38 0.26-0.62 0.33l-0.05 0.03 0.63-0.36-0.08 0.04c-0.19 0.2-0.45 0.34-0.74 0.41h-0.1l0.92-0.55-0.03 0.02c-0.24 0.32-0.6 0.53-0.98 0.58l-0.1 0.02 0.58-0.21h-0.03c-0.09 0.07-0.24 0.14-0.36 0.17l-0.04 0.02c-0.15 0.05-0.32 0.07-0.48 0.07h-0.03l0.48-0.07-0.05 0.02h-0.07c-0.14 0.08-0.31 0.08-0.45 0.08h-0.48c-0.17 0-0.32 0-0.48-0.08h-0.05l0.12 0.03-0.22-0.05c-0.09-0.02-0.17-0.05-0.24-0.07l-0.09-0.05c-0.08-0.02-0.15-0.07-0.22-0.12l-0.05-0.02 0.51 0.21-0.08-0.02c-0.09-0.03-0.19-0.05-0.28-0.1l-0.08-0.02c-0.09-0.05-0.16-0.07-0.24-0.12l-0.04-0.05 0.21 0.12-0.07-0.02c-0.24-0.1-0.46-0.27-0.62-0.48l-0.03-0.03 0.63 0.48-0.08-0.05c-0.09-0.02-0.16-0.07-0.24-0.12l-0.04-0.02c-0.1-0.05-0.17-0.12-0.24-0.19l-0.05-0.05-0.07-0.05 0.24 0.19-0.05-0.04c-0.22-0.15-0.41-0.36-0.55-0.6l-0.03-0.05 0.55 0.6-0.04-0.03c-0.24-0.14-0.44-0.36-0.56-0.6l-0.02-0.04 0.12 0.21-0.19-0.29 0.02 0.03-0.12-0.12-0.05-0.07-0.09-0.15c-0.1-0.12-0.15-0.26-0.22-0.41l-0.02-0.14v0.07l-0.05-0.14-0.02-0.1-0.32-0.98c-0.02-0.07-0.04-0.15-0.04-0.22l-0.08-0.43-0.02-0.1-0.05-0.43v-0.12l-0.07-1.87v-0.1l0.19-5.23v0.03-0.7l0.03-1.61v-0.07l0.26-3.43v-0.03l0.05-0.5c0.07-0.7 0.67-1.22 1.37-1.18 0.69 0.03 1.24 0.6 1.24 1.3z"/>
  <path transform="matrix(1.3333 0 0 -1.3333 0 1120.8)" d="m162.58 674.42 0.14 0.1c0.12 0.1 0.22 0.19 0.29 0.29l0.09 0.12 0.03 0.05 0.05 0.09-0.03-0.05 0.07 0.12-0.07-0.12 0.07 0.1-0.12-0.1 0.12 0.08 0.1 0.09 0.1 0.1 0.07 0.09-0.1-0.09 0.1 0.07-0.07-0.05 0.24 0.19v-0.02l0.21 0.17-0.17-0.1 0.22 0.1 0.1 0.07 0.21 0.12-0.09-0.05 0.5 0.24c0.05 0.05 0.1 0.07 0.14 0.12l0.1 0.07-0.48-0.21 0.12 0.02c0.1 0.03 0.19 0.05 0.29 0.1l0.09 0.05-0.28-0.1 0.12 0.02h0.04l0.1 0.03-0.05-0.03 0.12 0.03 0.05 0.02 0.1 0.03 0.09 0.02-0.29-0.05h0.36-0.02 0.22l-0.29 0.05 0.09-0.02 0.05-0.03 0.12-0.02-0.05 0.02 0.1-0.05-0.02 0.03 0.26-0.07-0.14 0.04 0.12-0.04-0.1 0.04 0.14-0.09 0.1-0.03 0.12-0.04-0.29 0.16 0.1-0.09-0.03 0.02 0.12-0.09 0.12-0.08 0.12-0.09 0.12-0.07-0.14 0.09 0.12-0.09-0.1 0.09 0.1-0.09 0.1-0.1-0.1 0.12 0.1-0.12-0.03 0.02 0.07-0.09-0.02 0.02 0.22-0.29-0.08 0.1 0.24-0.43 0.22-0.43-0.07 0.16 0.19-0.48-0.02 0.05 0.38-1.1 0.02-0.05 0.41-1.08 0.03-0.02 0.21-0.56 0.24-0.57 0.03-0.05 0.26-0.55 0.05-0.1 0.31-0.53 0.02-0.02 0.34-0.53 0.05-0.07 0.91-1.25 0.05-0.07 0.14-0.17c0.46-0.53 1.27-0.57 1.78-0.12 0.55 0.43 0.6 1.25 0.14 1.78l-0.14 0.17 0.07-0.08-0.91 1.25 0.05-0.07-0.34 0.5 0.02-0.02-0.31 0.53 0.05-0.12-0.26 0.55 0.02-0.05-0.22 0.55-0.24 0.58v-0.02l-0.43 1.08 0.03-0.05-0.39 1.08-0.02 0.07-0.19 0.46-0.08 0.14-0.24 0.43-0.21 0.41-0.07 0.1-0.22 0.31-0.05 0.05-0.07 0.09-0.1 0.15-0.09 0.09-0.12 0.1-0.07 0.09-0.24 0.2-0.36 0.21 0.14-0.09-0.12 0.09-0.05 0.03-0.09 0.07c-0.08 0.07-0.2 0.12-0.29 0.14l-0.12 0.05 0.09-0.02-0.12 0.04-0.36 0.15-0.24 0.07h-0.04l-0.1 0.02h-0.05l-0.12 0.03h0.05l-0.1 0.02c-0.09 0.03-0.19 0.03-0.28 0.03h-0.22 0.02-0.36c-0.12 0-0.21-0.03-0.31-0.05l-0.07-0.03-0.1-0.02 0.05 0.02-0.12-0.02-0.05-0.02-0.09-0.03 0.05 0.03-0.12-0.05c-0.1-0.03-0.2-0.05-0.29-0.1l-0.1-0.05 0.31 0.12-0.12-0.02c-0.19-0.05-0.36-0.12-0.48-0.24l-0.12-0.07 0.17 0.09-0.48-0.24-0.12-0.09-0.21-0.15 0.07 0.05-0.19-0.12c-0.05-0.02-0.1-0.05-0.15-0.09l-0.21-0.17-0.03-0.03-0.21-0.19-0.12-0.09-0.1-0.12c-0.02-0.03-0.07-0.08-0.1-0.12l-0.07-0.1 0.1 0.12-0.07-0.1-0.1-0.09-0.1-0.15-0.07-0.09-0.05-0.07-0.07-0.15-0.05-0.07-0.02-0.1 0.05 0.08-0.07-0.12c-0.15-0.29-0.17-0.63-0.05-0.92l0.07-0.19c0.12-0.26 0.34-0.45 0.6-0.53 0.26-0.09 0.58-0.04 0.82 0.12z"/>
  <path transform="matrix(1.3333 0 0 -1.3333 0 1120.8)" d="m162.58 674.09 0.02 0.02-0.38-0.07h0.21l-0.24 0.02 0.1-0.02c0.07-0.02 0.14-0.02 0.21-0.05h0.1l-0.17 0.03 0.12-0.03 0.12-0.02-0.24 0.09 0.1-0.04c0.07-0.05 0.14-0.08 0.24-0.1l0.12-0.02-0.24 0.07 0.09-0.05c0.05-0.02 0.12-0.05 0.17-0.07l0.1-0.03-0.24 0.12 0.12-0.09v0.02l0.19-0.14-0.05 0.05 0.15-0.12 0.14-0.1-0.14 0.14 0.09-0.12 0.07-0.07 0.15-0.12-0.12 0.12 0.09-0.14 0.15-0.15 0.12-0.09-0.15 0.14 0.24-0.33-0.02 0.07 0.26-0.39-0.07 0.1 0.19-0.41 0.22-0.41 0.02-0.02 0.2-0.36-0.05 0.1 0.41-1.06-0.03 0.05 0.29-0.82 0.05-0.12 1.03-2.23 0.02-0.07 0.15-0.24-0.03 0.02 0.15-0.26c0.05-0.05 0.09-0.12 0.14-0.19l0.19-0.22-0.07 0.1 0.15-0.22 0.09-0.12 0.19-0.19 0.17-0.22 0.1-0.09 0.21-0.2 0.41-0.38 0.07-0.05 0.27-0.21 0.07-0.05 0.34-0.22 0.31-0.21h0.02l0.34-0.2 0.12-0.07 0.96-0.43 0.07-0.02 0.29-0.1c0.38-0.14 0.79-0.05 1.1 0.22 0.29 0.26 0.43 0.67 0.36 1.05-0.09 0.39-0.38 0.7-0.77 0.84l-0.28 0.07 0.12-0.02-0.99 0.41 0.1-0.05-0.34 0.19 0.05-0.02-0.31 0.19v-0.02l-0.31 0.21 0.04-0.05-0.28 0.22 0.09-0.07-0.43 0.38-0.22 0.17 0.1-0.07-0.19 0.21-0.19 0.22 0.07-0.12-0.17 0.24-0.07 0.1-0.19 0.21 0.14-0.19-0.14 0.24-0.03 0.05-0.14 0.24 0.05-0.1-1.04 2.21 0.03-0.1-0.29 0.82v0.05l-0.46 1.05-0.04 0.12-0.22 0.39v-0.03l-0.22 0.41-0.21 0.39-0.07 0.09-0.27 0.39-0.02 0.04-0.27 0.32c-0.04 0.07-0.12 0.14-0.19 0.16l-0.12 0.1 0.17-0.12-0.14 0.12c-0.03 0.05-0.08 0.1-0.12 0.12l-0.15 0.12 0.07-0.05-0.12 0.1c-0.04 0.05-0.12 0.09-0.16 0.12l-0.15 0.09-0.14 0.1-0.19 0.12h-0.03l-0.12 0.07c-0.09 0.05-0.19 0.07-0.29 0.1l-0.09 0.02 0.21-0.05-0.09 0.03c-0.07 0.05-0.17 0.07-0.24 0.07l-0.12 0.02 0.24-0.07-0.1 0.05c-0.07 0.02-0.17 0.05-0.24 0.07h-0.12v0.03h-0.12c-0.05 0.02-0.12 0.02-0.19 0.02h-0.1l0.24-0.02-0.09 0.02c-0.07 0-0.15 0.02-0.22 0h-0.21l0.38-0.07h-0.02c-0.39 0.17-0.82 0.05-1.08-0.27-0.24-0.33-0.24-0.79 0-1.1 0.26-0.34 0.69-0.46 1.08-0.31z"/>
  <path transform="matrix(1.3333 0 0 -1.3333 0 1120.8)" d="m170.71 667.56 0.17-0.22 0.07-0.09 0.07-0.1-0.14 0.19 0.05-0.07c0.05-0.07 0.09-0.14 0.14-0.19l0.07-0.1-0.14 0.22 0.05-0.1 0.05-0.07 0.07-0.09-0.12 0.19 0.07-0.12 0.05-0.12 0.05-0.07-0.05 0.12 0.02-0.1 0.07-0.12 0.05-0.1-0.14 0.39 0.02-0.1c0.03-0.09 0.05-0.19 0.07-0.26l0.05-0.1-0.07 0.24 0.05-0.21-0.03 0.07 0.03-0.17v0.02l0.02-0.16v-0.03l0.03-0.17-0.03 0.22v-0.36 0.02-0.16l0.03 0.21-0.1-0.41c0-0.07-0.02-0.14-0.02-0.24v-0.07l0.38 0.89-0.02-0.02c-0.24-0.24-0.39-0.56-0.39-0.89v-0.1l0.39 0.87-0.03-0.03c-0.24-0.21-0.38-0.55-0.38-0.86v-0.03l0.38 0.87-0.02-0.03 0.89 0.36h-0.03c-0.33 0-0.65-0.12-0.89-0.36s-0.38-0.55-0.38-0.88v-0.05l0.38 0.89-0.02-0.03c-0.24-0.24-0.38-0.55-0.38-0.89v-0.02c-0.03-0.5 0.28-0.96 0.74-1.18 0.48-0.19 1.03-0.09 1.39 0.27 0.36 0.33 0.48 0.89 0.29 1.37-0.19 0.45-0.65 0.76-1.15 0.79h-0.05c-0.34 0-0.67-0.12-0.91-0.36l-0.03-0.03c-0.24-0.24-0.36-0.55-0.38-0.88v-0.03l0.38 0.89-0.02-0.02-0.02-0.03 0.91 0.36h-0.05c-0.34 0-0.67-0.12-0.91-0.36l-0.03-0.02-0.02-0.05 0.89 0.36c-0.22 0.02-0.41-0.02-0.6-0.12l-0.05-0.02 0.58 0.14h-0.2c-0.69 0-1.27-0.58-1.27-1.27 0-0.7 0.58-1.27 1.27-1.27h0.2c0.19 0 0.38 0.04 0.55 0.14l0.05 0.02-0.53-0.14c0.33 0 0.65 0.14 0.89 0.38l0.02 0.03 0.05 0.05-0.89-0.39h0.05c0.33 0 0.65 0.15 0.86 0.39h0.03l0.04 0.02c0.22 0.26 0.36 0.58 0.34 0.91v0.03l-0.34-0.89 0.03 0.02-0.89-0.38h0.05c0.69 0 1.25 0.57 1.22 1.27v0.02l-0.33-0.88 0.02 0.02c0.22 0.24 0.36 0.55 0.36 0.89v0.05l-1.25-1.28h0.03c0.33 0.03 0.64 0.15 0.88 0.39l0.03 0.02c0.24 0.24 0.36 0.58 0.36 0.91v0.03l-0.36-0.91 0.02 0.02c0.24 0.24 0.36 0.58 0.36 0.91v0.1l-0.36-0.89 0.03 0.02c0.24 0.24 0.36 0.56 0.36 0.89v0.07l-0.03-0.24 0.07 0.44c0.03 0.07 0.03 0.16 0.03 0.24v0.16-0.02l-0.03 0.19v0.17c0 0.05 0 0.12-0.02 0.19l-0.02 0.17v-0.05l-0.03 0.17v0.05l-0.05 0.14v0.05l-0.07 0.24c-0.02 0.12-0.05 0.22-0.12 0.31l-0.05 0.1 0.1-0.24-0.02 0.09c-0.03 0.15-0.1 0.27-0.2 0.39l-0.04 0.07 0.09-0.14-0.14 0.24-0.07 0.07 0.09-0.15-0.05 0.12c-0.04 0.05-0.07 0.1-0.12 0.17l-0.09 0.1 0.02-0.05-0.05 0.1-0.21 0.21 0.14-0.14-0.07 0.07c-0.02 0.05-0.07 0.12-0.14 0.14l-0.08 0.1 0.03-0.02-0.22 0.19c-0.41 0.38-1.08 0.41-1.51 0.02-0.43-0.38-0.5-1.03-0.17-1.51z"/>
  <path transform="matrix(1.3333 0 0 -1.3333 0 1120.8)" d="m165.31 676.68-0.05 0.02c-0.36 0.15-0.76-0.02-0.93-0.38-0.15-0.34-0.03-0.74 0.33-0.94 0.34-0.19 0.75-0.07 0.96 0.24l0.03 0.05c0.09 0.19 0.14 0.41 0.07 0.6s-0.22 0.34-0.41 0.41z"/>
  <path transform="matrix(1.3333 0 0 -1.3333 0 1120.8)" d="m165.38 670.44-0.24-0.24c-0.07-0.05-0.12-0.12-0.16-0.19l-0.58-0.87 0.02 0.03-1.22-1.75 0.02 0.02-0.21-0.31-0.07-0.07-0.41-0.7-0.03-0.05-0.02-0.05c-0.19-0.38-0.17-0.81 0.05-1.15 0.24-0.36 0.62-0.55 1.05-0.53 0.41 0.03 0.77 0.27 0.96 0.65v0.05l-0.02-0.07 0.38 0.67-0.02-0.05 0.19 0.31 0.05 0.05 1.08 1.85 0.05 0.1 0.43 0.93-0.05-0.07 0.17 0.26c0.22 0.41 0.14 0.89-0.22 1.18s-0.86 0.29-1.2 0z"/>
  <path transform="matrix(1.3333 0 0 -1.3333 0 1120.8)" d="m166.46 667.87-0.12-0.26-0.02-0.05-0.1-0.17 0.03 0.05-0.05-0.12-0.05-0.07-0.05-0.17 0.03 0.1-0.24-0.44v0.03l-0.36-0.65 0.12 0.17-0.03-0.05c-0.04-0.02-0.09-0.1-0.12-0.12l-0.04-0.1c-0.27-0.4-0.15-0.98 0.26-1.24 0.41-0.29 0.98-0.17 1.27 0.24l0.05 0.07-0.12-0.15 0.05 0.05c0.05 0.05 0.09 0.12 0.14 0.19l0.39 0.63 0.02 0.05 0.24 0.4 0.05 0.1 0.05 0.17-0.03-0.05 0.07 0.14 0.03 0.05 0.07 0.17c0.05 0.1 0.07 0.22 0.07 0.34v0.28c0 0.39-0.26 0.75-0.65 0.84-0.38 0.1-0.79-0.09-0.96-0.43z"/>
  <path transform="matrix(1.3333 0 0 -1.3333 0 1120.8)" d="m161.59 664.13 0.27-0.05h0.04l1.3-0.17h0.07l2.02-0.12h0.07l1.9-0.02h0.14c0.46 0 0.86 0.24 1.08 0.62 0.24 0.39 0.24 0.87 0 1.25-0.22 0.38-0.62 0.62-1.08 0.62h-0.19l-1.92-0.09h0.05l-2.02-0.05h0.07l-1.29 0.1h-0.32c-0.55 0-0.98-0.41-1.05-0.96-0.05-0.56 0.33-1.04 0.86-1.13z"/>
 </g>
</svg>
