<?xml version="1.0" encoding="UTF-8" standalone="no"?>
<!-- Created with Inkscape (http://www.inkscape.org/) -->

<svg
   version="1.1"
   id="svg1"
   width="300"
   height="300"
   viewBox="0 0 300 299.99999"
   sodipodi:docname="lesson1.pdf"
   inkscape:export-filename="multichoice\multichoice14\multichoice14_option4.svg"
   inkscape:export-xdpi="96"
   inkscape:export-ydpi="96"
   xmlns:inkscape="http://www.inkscape.org/namespaces/inkscape"
   xmlns:sodipodi="http://sodipodi.sourceforge.net/DTD/sodipodi-0.dtd"
   xmlns="http://www.w3.org/2000/svg"
   xmlns:svg="http://www.w3.org/2000/svg">
  <defs
     id="defs1" />
  <sodipodi:namedview
     id="namedview1"
     pagecolor="#ffffff"
     bordercolor="#000000"
     borderopacity="0.25"
     inkscape:showpageshadow="2"
     inkscape:pageopacity="0.0"
     inkscape:pagecheckerboard="0"
     inkscape:deskcolor="#d1d1d1">
    <inkscape:page
       x="0"
       y="0"
       inkscape:label="1"
       id="page1"
       width="300"
       height="300"
       margin="0"
       bleed="0" />
  </sodipodi:namedview>
  <g
     id="g1"
     inkscape:groupmode="layer"
     inkscape:label="1">
    <g
       id="g329"
       transform="matrix(11.458852,-0.25321172,0.25321172,11.458852,-8639.228,-2255.3481)"
       style="fill:#1a1a1a">
      <path
         id="path330"
         d="m 563.28,666.84 -0.19,0.17 0.07,-0.05 -0.12,0.17 c -0.19,0.21 -0.46,0.31 -0.72,0.21 -0.24,-0.09 -0.43,-0.33 -0.43,-0.6 0.02,-0.26 0.21,-0.5 0.45,-0.6 h 0.05 c 0.07,-0.02 0.12,-0.02 0.17,-0.02 h 0.19 -0.12 0.05 0.07 l 0.12,-0.02 h -0.05 l 1.01,-0.1 0.05,-0.02 0.67,-0.05 h 0.05 l 0.84,0.05 h -0.05 l 1.27,-0.08 v 0 l 3.15,-0.12 h 0.02 l 5.98,-0.12 h 0.02 0.53 0.02 l 3.39,0.1 h 0.05 l 0.43,0.02 h -0.05 0.05 c 0.33,0 0.65,0.2 0.79,0.46 0.17,0.26 0.17,0.62 0,0.89 -0.14,0.29 -0.46,0.45 -0.79,0.45 h -0.05 -0.1 l -0.4,-0.02 h 0.02 l -3.36,-0.12 v 0 h -0.53 v 0 l -5.95,0.05 v 0 l -3.17,0.05 h -0.05 l -1.27,-0.05 -0.02,-0.03 -0.82,-0.04 v 0 h -0.67 0.05 -1.01 -0.05 -0.12 l -0.07,-0.05 h -0.05 l 0.12,0.05 -0.19,-0.05 c -0.05,0 -0.1,0 -0.17,0 l -0.05,-0.03 c -0.26,-0.09 -0.48,-0.36 -0.45,-0.64 0.02,-0.32 0.26,-0.53 0.57,-0.56 l 0.22,-0.02 h 0.02 l 0.24,-0.02 c 0.17,0 0.36,0.07 0.41,0.26 0.1,0.14 0.05,0.34 -0.07,0.48 z"
         style="fill:#1a1a1a;fill-opacity:1;fill-rule:nonzero;stroke:none"
         transform="matrix(1.3333333,0,0,-1.3333333,0,1120.8)" />
    </g>
    <g
       id="g330"
       transform="matrix(11.458852,-0.25321172,0.25321172,11.458852,-8639.228,-2255.3481)"
       style="fill:#1a1a1a">
      <path
         id="path331"
         d="m 562.99,671.02 0.1,-0.12 v 0 l 0.09,-0.12 0.03,-0.08 0.09,-0.04 -0.09,0.12 0.19,-0.32 -0.05,0.03 0.07,-0.12 c 0.03,-0.05 0.05,-0.07 0.1,-0.15 l 0.07,-0.09 -0.02,0.05 0.21,-0.29 0.03,-0.05 0.91,-0.98 0.05,-0.08 0.98,-0.93 0.05,-0.03 0.17,-0.14 0.02,-0.02 0.19,-0.17 0.03,-0.03 0.21,-0.12 0.03,-0.02 0.21,-0.14 v 0 l 0.17,-0.12 0.07,-0.05 0.22,-0.12 v 0 l 0.24,-0.07 0.07,-0.08 0.22,-0.09 h 0.02 l 0.53,-0.17 h 0.05 l 0.26,-0.1 0.07,-0.02 0.29,-0.07 h 0.05 l 0.29,-0.05 v 0 l 0.33,-0.02 0.1,-0.05 h 0.29 v 0 l 0.33,-0.03 h 0.05 l 0.89,0.03 c 0.05,0 0.07,0 0.14,0 l 0.6,0.12 0.03,0.05 1.22,0.26 0.07,0.02 0.29,0.1 0.07,0.02 0.27,0.12 v 0 l 0.31,0.1 0.02,0.02 0.27,0.12 0.09,0.08 0.58,0.28 0.02,0.03 0.22,0.12 0.02,0.05 0.22,0.14 0.02,0.02 0.17,0.15 0.05,0.05 0.19,0.14 v 0 l 0.19,0.14 0.05,0.08 0.19,0.16 v 0 l 0.15,0.2 0.07,0.04 0.14,0.2 v 0 l 0.17,0.19 0.05,0.07 0.14,0.22 0.03,0.02 0.12,0.22 v 0 l 0.12,0.19 0.05,0.05 0.12,0.24 0.02,0.07 0.1,0.21 0.02,0.08 0.24,0.62 v 0 l 0.02,0.12 c 0.12,0.29 0.08,0.62 -0.14,0.86 -0.22,0.24 -0.5,0.36 -0.84,0.32 -0.31,-0.08 -0.55,-0.29 -0.67,-0.58 l -0.05,-0.12 h 0.02 l -0.24,-0.62 v 0.02 l -0.09,-0.24 0.02,0.1 -0.12,-0.24 0.05,0.02 -0.12,-0.22 v 0 l -0.12,-0.21 v 0.05 l -0.12,-0.22 0.02,0.05 -0.14,-0.17 v 0 l -0.17,-0.22 0.07,0.08 -0.19,-0.2 v 0 l -0.17,-0.16 0.05,0.04 -0.17,-0.16 v 0 l -0.19,-0.17 0.05,0.05 -0.22,-0.17 0.03,0.05 -0.17,-0.17 h 0.02 l -0.21,-0.12 0.02,0.05 -0.53,-0.34 0.05,0.02 -0.26,-0.12 v 0 l -0.27,-0.12 v 0 L 573,668.33 h 0.02 l -0.31,-0.07 0.1,0.02 -1.23,-0.31 h 0.03 l -0.6,-0.12 0.12,0.05 -0.87,-0.05 h 0.1 -0.34 v 0 l -0.31,0.05 0.1,-0.05 -0.34,0.07 v 0 l -0.29,0.02 h 0.05 l -0.29,0.08 h 0.03 l -0.29,0.07 0.05,-0.03 -0.51,0.2 h 0.03 l -0.24,0.07 0.12,-0.05 -0.24,0.12 v 0 l -0.22,0.12 0.07,-0.02 -0.21,0.12 0.02,-0.05 -0.19,0.17 0.02,-0.05 -0.19,0.17 v -0.05 l -0.17,0.17 0.03,-0.05 -0.17,0.17 0.02,-0.05 -0.98,0.96 0.05,-0.05 -0.89,0.98 0.05,-0.04 -0.22,0.26 -0.02,0.02 -0.1,0.12 0.1,-0.14 -0.05,0.12 -0.05,0.05 -0.17,0.31 c -0.02,0.05 -0.09,0.1 -0.12,0.14 l -0.09,0.1 0.07,-0.07 -0.1,0.09 c -0.09,0.1 -0.19,0.2 -0.31,0.24 l -0.14,0.08 c -0.34,0.12 -0.7,0.02 -0.94,-0.24 -0.19,-0.32 -0.19,-0.7 0,-0.96 z"
         style="fill:#1a1a1a;fill-opacity:1;fill-rule:nonzero;stroke:none"
         transform="matrix(1.3333333,0,0,-1.3333333,0,1120.8)" />
    </g>
    <g
       id="g331"
       transform="matrix(11.458852,-0.25321172,0.25321172,11.458852,-8639.228,-2255.3481)"
       style="fill:#1a1a1a">
      <path
         id="path332"
         d="m 567.55,667.42 v 0 c -0.02,0.04 -0.07,0.12 -0.12,0.16 h -0.02 v 0 l -0.03,0.03 0.1,-0.07 -0.05,0.02 0.05,-0.07 v 0 0 0.05 l -0.07,0.07 -0.03,0.05 0.05,-0.1 v 0.02 l -0.05,0.1 -0.02,0.02 0.07,-0.16 -0.02,0.04 v 0.08 l -0.03,0.02 0.03,-0.1 v 0.03 l -0.03,0.09 v 0.03 l -0.07,0.09 -0.02,0.03 0.09,-0.41 v 0.02 c 0.03,0.1 0.03,0.15 0,0.24 v 0.03 0 0.07 l -0.02,-0.26 0.02,0.02 c 0.03,0.1 0.03,0.17 0,0.26 l -0.02,0.1 0.02,-0.14 v 0.04 0 0.03 0 0.07 0 0.02 0.03 0.07 0 0.02 -0.12 0.08 -0.08 0.08 l 0.03,0.04 0.02,0.08 -0.02,-0.08 0.02,0.08 -0.02,-0.08 0.07,0.12 0.02,0.08 0.03,0.12 -0.03,-0.08 0.05,0.1 0.05,0.02 0.05,0.15 -0.03,-0.05 0.05,0.1 v -0.05 l 0.07,0.12 -0.02,-0.03 0.17,0.22 -0.03,-0.02 0.1,0.07 -0.07,-0.05 0.09,0.1 -0.02,-0.05 0.24,0.19 c 0.07,0.05 0.14,0.14 0.17,0.22 l 0.02,0.02 -0.38,-0.31 h 0.02 c 0.12,0.05 0.19,0.09 0.29,0.17 v 0.02 l -0.24,-0.14 h 0.05 c 0.09,0.02 0.19,0.07 0.24,0.14 l 0.02,0.05 -0.48,-0.19 h 0.05 c 0.12,0 0.19,0.02 0.29,0.04 l 0.07,0.03 v 0 h 0.02 l -0.09,-0.03 0.02,0.03 -0.19,-0.03 h 0.02 c 0.05,0 0.15,0 0.22,0.03 h 0.05 l -0.24,-0.03 h 0.02 v 0 h 0.05 0.02 0.03 v 0 h 0.02 0.05 0.07 l -0.14,0.03 0.14,-0.05 v 0 l 0.12,-0.02 v 0 l 0.12,-0.05 -0.05,0.05 0.29,-0.12 v 0 l 0.53,-0.2 h 0.02 l 0.82,-0.21 0.02,-0.03 h 0.1 v 0 l 0.07,-0.02 c 0.05,0 0.1,0 0.12,0 h 0.1 -0.15 0.1 c 0.02,-0.02 0.07,-0.02 0.14,-0.02 h 0.05 v 0 h 0.07 c 0.05,0 0.12,0 0.15,0 l 0.09,0.02 h -0.14 l 0.05,-0.02 c 0.07,0 0.12,0.02 0.14,0.02 h 0.1 v 0 l 0.14,0.05 h 0.1 l 0.07,0.05 v 0 h 0.02 v 0 l 0.05,0.02 0.1,0.02 0.02,0.03 0.1,0.05 0.02,0.02 -0.17,-0.1 0.05,0.03 c 0.12,0.05 0.22,0.09 0.31,0.19 l 0.03,0.02 -0.29,-0.16 0.05,0.02 c 0.09,0.02 0.21,0.1 0.26,0.17 l 0.07,0.05 v 0 l 0.1,0.07 0.02,0.07 0.05,0.05 v 0 l 0.07,0.09 0.05,0.08 0.07,0.07 -0.07,-0.05 0.1,0.1 c 0.02,0.04 0.07,0.12 0.09,0.16 l 0.05,0.1 -0.05,-0.1 0.05,0.1 c 0.05,0.05 0.07,0.12 0.07,0.17 l 0.03,0.12 -0.05,-0.17 0.02,0.1 c 0.03,0.02 0.05,0.07 0.1,0.14 l 0.02,0.12 v 0.02 l 0.1,0.32 -0.07,-0.12 0.07,0.12 c 0.02,0.04 0.02,0.12 0.05,0.16 v 0.12 l -0.05,-0.16 0.05,0.12 v 0 l 0.07,0.12 0.02,0.04 0.03,0.12 -0.1,-0.14 0.1,0.12 0.02,0.05 0.05,0.12 -0.07,-0.12 0.14,0.21 -0.02,-0.02 0.07,0.05 v 0 l 0.02,0.07 v 0 l 0.05,0.1 -0.05,-0.1 0.03,0.05 -0.05,-0.07 0.05,0.04 0.07,0.08 0.05,0.04 -0.05,-0.04 0.12,0.07 -0.46,-0.15 v 0 c 0.22,0 0.41,0.1 0.53,0.24 h 0.05 l -0.55,-0.24 v 0 c 0.21,0 0.43,0.1 0.55,0.24 l 0.02,0.03 -0.55,-0.24 v 0 c 0.12,0 0.24,0.05 0.36,0.09 h 0.05 v 0 l 0.02,0.03 -0.36,-0.07 h 0.03 v 0 0 0 h 0.02 v 0 h 0.05 v 0 h 0.02 v 0 0 0 h 0.03 v 0 h 0.02 v 0 0 l -0.36,0.07 0.07,-0.03 c 0.1,-0.04 0.22,-0.04 0.34,-0.04 h 0.02 l -0.55,0.19 v 0 c 0.17,-0.15 0.34,-0.24 0.55,-0.24 h 0.03 l -0.53,0.24 v -0.03 0 h 0.02 c 0.12,-0.14 0.34,-0.24 0.53,-0.24 v 0 0 h 0.05 l -0.36,0.1 0.02,-0.02 -0.38,0.64 v 0 c 0,-0.21 0.05,-0.38 0.19,-0.52 v 0 0 l 0.05,-0.05 c 0.14,-0.15 0.31,-0.19 0.53,-0.19 v 0 l -0.7,0.5 v -0.07 c 0.07,-0.15 0.17,-0.27 0.31,-0.36 l 0.03,-0.03 -0.22,0.22 0.05,-0.07 c 0.02,-0.03 0.05,-0.07 0.07,-0.12 l 0.07,-0.05 -0.19,0.29 0.05,-0.05 c 0.02,-0.1 0.07,-0.19 0.17,-0.26 l 0.02,-0.08 -0.17,0.32 0.03,-0.08 0.02,-0.09 0.05,-0.05 -0.05,0.1 v -0.08 0 l 0.05,-0.02 0.02,-0.1 0.03,-0.09 -0.05,0.24 0.02,-0.12 v -0.07 l 0.05,-0.24 v 0.07 l 0.07,-0.51 v 0 l 0.05,-0.52 v -0.08 l 0.19,-0.76 v 0 l 0.24,-1.13 v 0.05 l 0.03,-0.22 c 0.09,-0.36 0.43,-0.58 0.79,-0.55 0.36,0.07 0.6,0.41 0.55,0.77 l -0.02,0.19 v 0.05 l -0.15,1.08 v 0.02 l -0.14,0.82 v -0.08 l -0.07,0.51 v 0.05 l -0.05,0.5 v 0.1 l -0.1,0.24 0.03,-0.08 -0.03,0.12 c 0,0.08 -0.02,0.15 -0.07,0.22 l -0.02,0.05 0.02,-0.07 v 0.04 0 l -0.02,0.03 -0.03,0.09 -0.02,0.1 0.02,-0.12 v 0.05 c -0.02,0.12 -0.09,0.21 -0.19,0.31 l -0.02,0.02 0.14,-0.26 v 0.02 c -0.02,0.12 -0.07,0.22 -0.17,0.32 l -0.07,0.04 0.12,-0.12 -0.05,0.03 c -0.02,0.09 -0.12,0.19 -0.19,0.21 l -0.05,0.08 0.29,-0.41 -0.02,0.05 c -0.1,0.31 -0.39,0.52 -0.72,0.52 v 0 l 0.55,-0.24 -0.05,0.03 v 0 0 l 0.22,-0.51 v 0 c 0,0.32 -0.15,0.56 -0.41,0.7 h -0.05 c -0.07,0.05 -0.19,0.1 -0.31,0.1 h -0.05 v 0 0 l 0.55,-0.24 -0.02,0.02 v 0 0 c -0.17,0.14 -0.34,0.24 -0.55,0.24 h -0.03 l 0.53,-0.24 v 0.02 c -0.14,0.15 -0.31,0.24 -0.53,0.24 h -0.02 l 0.36,-0.09 h -0.05 c -0.12,0.07 -0.24,0.09 -0.36,0.09 v 0 0 h -0.02 v 0 h -0.03 v 0 0 0 h -0.02 v 0 h -0.05 v 0 h -0.02 v 0 0 0 h -0.03 c -0.12,0 -0.24,-0.02 -0.33,-0.09 h -0.03 v 0 l -0.02,-0.03 0.31,0.1 v 0 c -0.19,0 -0.41,-0.1 -0.53,-0.24 h -0.02 l 0.53,0.24 v 0 c -0.22,0 -0.41,-0.1 -0.53,-0.24 l -0.05,-0.02 0.55,0.24 v 0 c -0.19,0 -0.36,-0.08 -0.48,-0.2 l -0.14,-0.09 -0.07,-0.07 -0.05,-0.05 0.07,0.07 -0.05,-0.02 -0.09,-0.1 -0.03,-0.02 -0.09,-0.1 -0.03,-0.07 v 0 l -0.07,-0.07 v 0 l -0.02,-0.08 -0.03,-0.02 -0.14,-0.22 c -0.05,-0.02 -0.05,-0.09 -0.07,-0.12 l -0.03,-0.12 0.03,0.1 -0.05,-0.12 c -0.05,-0.07 -0.07,-0.12 -0.1,-0.19 l -0.02,-0.07 0.02,0.04 -0.02,-0.09 v 0 l -0.07,-0.12 c 0,-0.05 -0.03,-0.12 -0.03,-0.19 l -0.02,-0.12 0.05,0.16 -0.05,-0.09 c 0,-0.05 -0.05,-0.07 -0.05,-0.12 l -0.05,-0.29 v 0.02 l -0.02,-0.12 0.07,0.2 -0.05,-0.1 c -0.02,-0.02 -0.07,-0.1 -0.07,-0.14 l -0.02,-0.12 0.07,0.16 -0.05,-0.09 -0.05,-0.07 -0.02,-0.12 0.07,0.16 -0.05,-0.09 -0.02,-0.05 -0.07,-0.1 0.02,0.08 -0.05,-0.1 v 0 l -0.07,-0.1 0.07,0.08 -0.09,-0.08 v 0 l -0.05,-0.04 0.29,0.16 h -0.05 c -0.1,-0.04 -0.22,-0.12 -0.29,-0.21 l -0.02,-0.03 0.26,0.2 h -0.02 c -0.05,-0.05 -0.12,-0.08 -0.17,-0.1 l -0.07,-0.02 0.09,0.02 h -0.02 l 0.07,0.02 h -0.05 v 0 l -0.02,-0.02 v 0 h -0.07 0.12 l -0.17,-0.02 v 0 h -0.07 0.12 -0.05 c -0.07,0 -0.1,0 -0.17,0 l -0.07,-0.05 0.14,0.05 h -0.07 v 0 h -0.05 l 0.12,-0.05 -0.07,0.05 c -0.05,0 -0.07,0 -0.14,0 h -0.1 0.17 -0.07 v 0 l -0.1,0.02 0.05,-0.02 -0.82,0.19 h 0.03 l -0.51,0.17 h 0.03 l -0.29,0.07 -0.07,0.05 -0.12,0.02 v 0 l -0.15,0.02 v 0 l -0.14,0.03 c -0.05,0 -0.1,0 -0.17,0 h -0.07 -0.05 -0.02 v 0 h -0.03 -0.02 -0.05 v 0 h -0.02 c -0.05,0 -0.12,-0.03 -0.22,-0.05 h -0.02 l 0.21,0.02 h -0.02 c -0.1,0 -0.17,0 -0.22,-0.02 l -0.07,-0.02 -0.07,-0.05 -0.05,-0.03 v 0 h -0.02 l 0.31,0.08 h -0.05 c -0.17,0 -0.36,-0.08 -0.43,-0.22 l -0.05,-0.02 0.24,0.16 -0.02,-0.02 c -0.12,-0.02 -0.22,-0.1 -0.27,-0.19 l -0.02,-0.03 0.26,0.22 -0.07,-0.02 c -0.14,-0.08 -0.29,-0.2 -0.36,-0.36 v -0.05 l 0.17,0.24 -0.22,-0.19 -0.09,-0.08 -0.05,-0.09 -0.05,-0.05 -0.07,-0.1 0.02,0.03 -0.14,-0.19 -0.05,-0.05 -0.07,-0.12 v -0.03 l -0.07,-0.09 -0.05,-0.05 -0.07,-0.14 0.02,0.02 -0.05,-0.1 -0.02,-0.09 -0.07,-0.07 v 0 l -0.03,-0.12 -0.07,-0.12 v -0.05 -0.05 l -0.02,-0.07 0.02,0.05 -0.02,-0.05 v -0.03 -0.09 c -0.03,-0.03 -0.03,-0.07 -0.03,-0.15 v -0.02 0 l 0.03,-0.07 v -0.03 -0.02 0 -0.07 0 -0.03 0 -0.04 c 0,-0.08 0.02,-0.12 0.07,-0.2 l 0.02,-0.12 -0.02,0.1 v -0.02 c 0.02,-0.1 0.05,-0.17 0.12,-0.22 l 0.02,-0.02 v 0 -0.05 l -0.09,0.21 v -0.02 c 0.02,-0.12 0.12,-0.24 0.21,-0.31 l 0.03,-0.03 0.09,-0.04 h 0.03 l -0.17,0.14 v -0.02 c 0.05,-0.08 0.12,-0.12 0.19,-0.17 v 0 l -0.17,0.17 0.03,-0.05 c 0.02,-0.05 0.07,-0.07 0.09,-0.07 l 0.03,-0.05 0.09,-0.05 h 0.03 l -0.1,0.02 h 0.05 l 0.07,-0.04 v 0 0 l 0.05,-0.05 -0.1,0.07 0.05,-0.02 c 0.05,-0.05 0.1,-0.08 0.17,-0.08 l 0.02,-0.02 v 0 h 0.03 l -0.05,0.02 v 0 c 0.14,-0.09 0.31,-0.04 0.48,0.08 0.12,0.12 0.14,0.28 0.07,0.48 z"
         style="fill:#1a1a1a;fill-opacity:1;fill-rule:nonzero;stroke:none"
         transform="matrix(1.3333333,0,0,-1.3333333,0,1120.8)" />
    </g>
    <g
       id="g332"
       transform="matrix(11.458852,-0.25321172,0.25321172,11.458852,-8639.228,-2255.3481)"
       style="fill:#1a1a1a">
      <path
         id="path333"
         d="m 576.07,675.36 v 0 c -0.26,0.05 -0.53,-0.07 -0.72,-0.24 -0.17,-0.22 -0.24,-0.48 -0.19,-0.74 l 0.05,-0.17 v -0.05 l 0.24,-0.79 v 0 l 0.26,-0.89 0.05,-0.02 0.5,-1.49 v 0 l 0.27,-0.75 v -0.02 l 0.84,-2.23 0.07,-0.07 0.1,-0.22 c 0.04,-0.1 0.07,-0.14 0.14,-0.22 l 0.1,-0.09 c 0.31,-0.31 0.86,-0.31 1.22,0 0.34,0.33 0.36,0.89 0.02,1.25 l -0.09,0.04 0.17,-0.21 -0.1,0.24 0.02,-0.07 -0.84,2.2 v -0.02 l -0.24,0.74 v 0 l -0.52,1.52 v -0.05 l -0.32,0.89 v 0.02 l -0.24,0.74 c -0.07,0.1 -0.09,0.2 -0.14,0.27 l -0.12,0.12 c -0.24,0.33 -0.67,0.43 -1.03,0.21 -0.34,-0.16 -0.51,-0.6 -0.39,-0.96 0.12,-0.38 0.51,-0.6 0.89,-0.52 v 0 c 0.43,0.02 0.72,0.38 0.72,0.76 0,0.44 -0.29,0.75 -0.72,0.82 z"
         style="fill:#1a1a1a;fill-opacity:1;fill-rule:nonzero;stroke:none"
         transform="matrix(1.3333333,0,0,-1.3333333,0,1120.8)" />
    </g>
    <g
       id="g333"
       transform="matrix(11.458852,-0.25321172,0.25321172,11.458852,-8639.228,-2255.3481)"
       style="fill:#1a1a1a">
      <path
         id="path334"
         d="m 577.92,668.38 -0.19,-0.22 c -0.05,-0.1 -0.07,-0.19 -0.12,-0.31 l -0.15,-0.53 0.46,0.53 h -0.02 c -0.22,-0.12 -0.36,-0.29 -0.44,-0.53 l -0.02,-0.12 v 0 l -0.07,-0.12 v 0 l -0.03,-0.14 c 0,-0.08 0,-0.12 0,-0.2 l -0.02,-0.12 0.02,0.1 -0.02,-0.14 v -0.1 -0.36 0 -0.07 0 0 0 -0.05 c 0,-0.12 0.02,-0.24 0.05,-0.36 l 0.05,-0.02 -0.1,0.36 v -0.08 0 -0.02 c 0,-0.12 0.02,-0.24 0.1,-0.36 v -0.02 0 l 0.02,-0.05 v 0 -0.03 l -0.02,0.12 0.02,-0.04 c 0.02,-0.12 0.1,-0.24 0.17,-0.34 v 0 l -0.17,0.29 0.02,-0.03 c 0.08,-0.21 0.22,-0.38 0.39,-0.48 l 0.05,-0.02 -0.41,0.48 v -0.02 c 0.05,-0.12 0.12,-0.24 0.19,-0.34 l 0.02,-0.02 v 0 l 0.03,-0.05 -0.15,0.21 0.03,-0.02 c 0.05,-0.07 0.09,-0.14 0.17,-0.22 l 0.02,-0.02 -0.14,0.22 v -0.05 c 0.14,-0.27 0.4,-0.43 0.74,-0.43 h 0.02 l -0.72,0.43 v -0.03 c 0.08,-0.04 0.1,-0.14 0.15,-0.21 l 0.05,-0.03 c 0.14,-0.14 0.38,-0.26 0.6,-0.26 h 0.02 l -0.6,0.26 0.02,-0.02 c 0.1,-0.1 0.22,-0.19 0.34,-0.22 l 0.1,-0.02 -0.32,0.22 v -0.05 c 0.08,-0.05 0.15,-0.12 0.22,-0.15 l 0.02,-0.02 -0.21,0.17 0.05,-0.03 c 0.14,-0.14 0.36,-0.24 0.55,-0.24 h 0.07 l -0.6,0.24 0.02,-0.02 c 0.15,-0.14 0.36,-0.24 0.6,-0.24 h 0.03 v 0 h 0.05 v 0 h 0.02 v 0 h 0.02 l -0.38,0.1 h 0.02 c 0.12,-0.08 0.24,-0.1 0.39,-0.1 h 0.05 c 0.19,0 0.4,0.1 0.55,0.24 l 0.05,0.02 -0.6,-0.26 h 0.04 v 0 0 0 h 0.03 v 0 h 0.05 c 0.14,0 0.26,0.02 0.38,0.1 l 0.02,0.02 -0.36,-0.1 v 0 c 0.12,0 0.27,0.03 0.39,0.1 h 0.05 v 0 l 0.02,0.02 v 0 l 0.02,0.03 -0.38,-0.12 h 0.02 c 0.24,0 0.46,0.09 0.6,0.29 v 0 0 l 0.03,0.02 v 0.02 h 0.05 l -0.6,-0.24 h 0.02 c 0.22,0 0.41,0.1 0.58,0.24 l 0.02,0.03 c 0.05,0.07 0.12,0.17 0.14,0.21 l 0.03,0.03 -0.75,-0.43 h 0.03 c 0.31,0 0.57,0.14 0.72,0.38 l 0.05,0.1 v -0.05 l 0.02,0.07 0.02,0.05 0.03,0.07 -0.15,-0.24 0.03,0.05 c 0.07,0.07 0.12,0.12 0.17,0.21 l 0.02,0.08 v 0 l 0.02,0.02 0.03,0.1 v 0.04 0 l 0.05,0.08 v 0 l 0.02,0.02 c 0,0.1 0.02,0.17 0.02,0.24 v 0.05 l -0.02,-0.27 v 0.08 l 0.02,0.04 v 0.08 c 0.03,0.04 0.03,0.12 0.03,0.16 v 0.08 l -0.07,-0.36 0.02,0.02 c 0.05,0.12 0.05,0.24 0.05,0.36 v 0.05 0 l 0.05,0.07 v 0 0.05 c 0,0.07 -0.05,0.17 -0.08,0.24 v 0.07 l 0.03,-0.26 v 0.02 c 0,0.05 0,0.14 -0.03,0.22 l -0.02,0.12 0.02,-0.22 v 0.1 c 0,0.07 0,0.19 -0.04,0.28 l -0.05,0.1 v 0 l -0.03,0.05 0.08,-0.12 -0.05,0.07 c 0,0.12 -0.05,0.24 -0.12,0.34 l -0.05,0.04 0.12,-0.16 -0.02,0.07 -0.05,0.07 -0.03,0.05 -0.02,0.07 -0.07,0.1 -0.03,0.04 -0.04,0.08 0.07,-0.12 -0.03,0.04 c -0.02,0.1 -0.09,0.2 -0.14,0.24 l -0.07,0.08 0.07,-0.1 -0.02,0.05 c -0.05,0.05 -0.08,0.07 -0.1,0.09 l -0.07,0.08 v 0 l -0.03,0.04 v 0 l -0.04,0.08 -0.1,0.07 -0.07,0.07 -0.07,0.05 -0.2,0.12 0.24,-0.27 -0.02,0.03 c -0.14,0.29 -0.46,0.45 -0.74,0.43 -0.32,0 -0.6,-0.19 -0.77,-0.46 -0.12,-0.28 -0.12,-0.62 0.07,-0.86 l 0.02,-0.07 c 0.1,-0.07 0.15,-0.17 0.27,-0.24 l 0.21,-0.12 -0.04,0.05 0.04,-0.08 -0.09,0.1 0.07,-0.07 v 0 l 0.05,-0.05 v 0 l 0.07,-0.07 -0.1,0.09 0.08,-0.04 0.04,-0.1 0.08,-0.07 -0.17,0.21 0.05,-0.04 c 0.02,-0.08 0.04,-0.1 0.07,-0.12 l 0.07,-0.08 -0.07,0.08 0.07,-0.1 -0.02,0.05 0.02,-0.05 -0.02,0.05 0.02,-0.07 c 0.02,-0.08 0.05,-0.12 0.1,-0.2 l 0.04,-0.04 -0.14,0.31 0.02,-0.07 c 0,-0.05 0,-0.1 0.03,-0.12 l 0.05,-0.1 v 0 l 0.02,-0.1 -0.07,0.32 v -0.1 c 0,-0.07 0.05,-0.12 0.05,-0.19 l 0.02,-0.12 -0.02,0.19 v -0.02 c 0,-0.1 0.02,-0.17 0.04,-0.24 v -0.08 l -0.02,0.27 v -0.05 0 -0.07 0 -0.05 l 0.05,0.36 v -0.02 c -0.05,-0.12 -0.07,-0.24 -0.07,-0.36 v -0.08 l 0.02,0.22 v -0.07 0.07 -0.07 c -0.02,-0.07 -0.07,-0.17 -0.07,-0.24 v -0.05 l 0.07,0.26 -0.02,-0.04 v 0 -0.05 0 l -0.05,-0.05 0.05,0.1 v -0.05 0 l -0.05,-0.05 0.17,0.22 -0.05,-0.05 c -0.05,-0.05 -0.12,-0.12 -0.15,-0.19 l -0.02,-0.05 0.05,0.09 -0.03,-0.04 -0.02,-0.05 -0.02,-0.05 0.67,0.38 h -0.03 c -0.28,0 -0.6,-0.16 -0.72,-0.45 l -0.02,-0.03 0.14,0.22 -0.02,-0.02 0.6,0.24 h -0.02 c -0.22,0 -0.44,-0.1 -0.58,-0.24 l -0.02,-0.05 v 0 l -0.05,-0.03 v 0 0 l 0.57,0.24 h -0.02 c -0.12,0 -0.26,-0.02 -0.36,-0.09 l -0.07,-0.03 v 0 h -0.03 v 0 l -0.02,-0.02 0.38,0.1 v 0 c -0.14,0 -0.26,-0.05 -0.38,-0.1 h -0.02 l 0.36,0.1 h -0.05 v 0 h -0.03 v 0 0 0 h -0.04 c -0.22,0 -0.44,-0.1 -0.58,-0.29 h -0.02 l 0.6,0.24 h -0.05 l 0.36,-0.07 -0.03,0.02 c -0.12,0.05 -0.24,0.1 -0.36,0.1 h -0.02 v 0 h -0.02 v 0 h -0.05 v 0 h -0.03 l 0.58,-0.29 v 0.05 c -0.14,0.14 -0.38,0.24 -0.6,0.24 h -0.07 l 0.6,-0.24 v 0 c -0.05,0.04 -0.15,0.12 -0.19,0.16 h -0.08 l 0.24,-0.14 h -0.02 c -0.1,0.12 -0.22,0.17 -0.34,0.22 l -0.09,0.04 0.33,-0.21 -0.02,0.05 c -0.14,0.14 -0.38,0.24 -0.6,0.24 h -0.02 l 0.6,-0.24 -0.05,0.02 0.17,-0.22 -0.05,0.03 c -0.12,0.29 -0.41,0.45 -0.75,0.45 h -0.02 l 0.74,-0.45 -0.02,0.05 c -0.02,0.04 -0.1,0.14 -0.14,0.19 l -0.05,0.05 0.17,-0.22 -0.05,0.02 c -0.03,0.1 -0.05,0.15 -0.12,0.22 l -0.05,0.02 v 0 0.03 l 0.17,-0.31 v 0.04 c -0.05,0.22 -0.19,0.36 -0.41,0.48 h -0.02 l 0.4,-0.48 -0.02,0.08 c -0.02,0.12 -0.1,0.24 -0.19,0.31 h -0.03 L 579,666 l -0.02,0.02 -0.05,0.12 -0.03,0.03 v 0 0.05 0 l -0.02,0.02 0.1,-0.36 v 0.02 0 0.08 c 0,0.12 -0.05,0.24 -0.1,0.36 v 0.02 l 0.05,-0.36 v 0.05 0 0 0 0.07 0 0.36 -0.1 l 0.05,0.12 v 0.12 0.12 l -0.05,-0.16 0.05,0.12 v 0 l 0.02,0.12 v 0 l 0.02,0.14 -0.04,-0.14 H 579 l 0.02,0.12 0.15,0.52 -0.03,-0.04 0.1,0.24 c 0.14,0.36 0,0.74 -0.36,0.91 -0.34,0.19 -0.74,0.09 -0.96,-0.19 z"
         style="fill:#1a1a1a;fill-opacity:1;fill-rule:nonzero;stroke:none"
         transform="matrix(1.3333333,0,0,-1.3333333,0,1120.8)" />
    </g>
  </g>
</svg>
