<?xml version="1.0" encoding="UTF-8" standalone="no"?>
<!-- Created with Inkscape (http://www.inkscape.org/) -->

<svg
   version="1.1"
   id="svg1"
   width="300"
   height="300"
   viewBox="0 0 300 299.99999"
   sodipodi:docname="lesson1.pdf"
   inkscape:export-filename="multichoice\multichoice1\option1.svg"
   inkscape:export-xdpi="96"
   inkscape:export-ydpi="96"
   xmlns:inkscape="http://www.inkscape.org/namespaces/inkscape"
   xmlns:sodipodi="http://sodipodi.sourceforge.net/DTD/sodipodi-0.dtd"
   xmlns="http://www.w3.org/2000/svg"
   xmlns:svg="http://www.w3.org/2000/svg">
  <defs
     id="defs1" />
  <sodipodi:namedview
     id="namedview1"
     pagecolor="#ffffff"
     bordercolor="#000000"
     borderopacity="0.25"
     inkscape:showpageshadow="2"
     inkscape:pageopacity="0.0"
     inkscape:pagecheckerboard="0"
     inkscape:deskcolor="#d1d1d1"
     inkscape:zoom="26.581011"
     inkscape:cx="328.42994"
     inkscape:cy="115.43955"
     inkscape:window-width="1920"
     inkscape:window-height="1191"
     inkscape:window-x="-9"
     inkscape:window-y="-9"
     inkscape:window-maximized="1"
     inkscape:current-layer="g1">
    <inkscape:page
       x="0"
       y="0"
       inkscape:label="1"
       id="page1"
       width="300"
       height="300"
       margin="0"
       bleed="0" />
  </sodipodi:namedview>
  <g
     id="g1"
     inkscape:groupmode="layer"
     inkscape:label="1">
    <g
       id="g187"
       style="fill:#1a1a1a"
       transform="matrix(10.356803,0,0,10.356803,-3358.1522,-1962.1307)">
      <path
         id="path187"
         d="m 245.74,695.93 v 0.02 l -0.05,0.07 -0.03,0.03 c -0.07,0.07 -0.14,0.14 -0.24,0.17 v 0.02 l 0.27,-0.26 V 696 l 0.05,-0.12 -0.03,0.02 c -0.02,0.05 -0.02,0.1 -0.05,0.12 v 0.05 -0.02 l -0.02,0.02 0.02,-0.53 v 0 c 0.08,0.15 0.08,0.29 0.03,0.44 V 696 c 0,0.05 -0.03,0.1 -0.05,0.12 l -0.02,0.02 0.07,-0.12 -0.03,0.05 c 0,0.03 -0.02,0.07 -0.04,0.12 v 0 -0.55 h 0.02 c 0.02,0.05 0.02,0.1 0.05,0.14 v 0.03 l -0.05,-0.15 0.02,0.03 c 0.05,0.14 0.08,0.31 0.03,0.45 l -0.03,0.05 0.03,-0.33 v 0.04 c 0.02,0.15 0,0.32 -0.07,0.44 v 0.04 l 0.02,-0.62 v 0.02 c 0.02,0.05 0.02,0.08 0.05,0.15 v 0.02 l -0.05,-0.14 0.02,0.02 c 0,0.03 0.03,0.07 0.03,0.15 V 696 l -0.03,-0.14 v 0 l -0.09,-0.12 0.05,0.02 c 0.04,0.05 0.07,0.12 0.09,0.19 l 0.03,0.07 c 0,0.05 0.02,0.08 0.02,0.12 l 0.02,0.08 v 0 0.04 l -0.16,-0.38 0.04,0.05 c 0.03,0.05 0.08,0.09 0.08,0.14 l 0.04,0.05 v 0 0.05 0 l 0.03,0.05 -0.1,-0.17 0.03,0.05 0.04,0.04 0.03,0.03 c 0.02,0.02 0.05,0.07 0.07,0.12 l 0.02,0.05 -0.36,-0.36 0.05,0.02 c 0.12,0.07 0.22,0.14 0.29,0.22 l 0.02,0.04 -0.07,-0.07 0.1,0.12 v -0.02 l 0.07,0.07 -0.07,-0.05 0.12,0.07 -0.07,-0.04 0.09,0.07 c 0.05,0.02 0.1,0.05 0.12,0.09 l 0.1,0.08 -0.19,-0.12 0.12,0.07 -0.05,-0.03 0.12,0.05 0.09,0.05 0.08,0.07 -0.12,-0.09 0.12,0.04 v 0 l 0.12,0.08 -0.08,-0.03 0.1,0.03 h 0.02 l 0.15,0.04 h -0.07 l 0.24,0.05 -0.24,-0.02 h 0.07 c 0.07,0 0.12,0 0.17,0.02 h 0.07 -0.15 0.1 v 0 h 0.07 v 0 h 0.1 v 0 h 0.09 -0.14 l 0.1,-0.02 c 0.04,0 0.09,0 0.14,-0.03 h 0.07 l -0.14,0.03 0.09,-0.03 h -0.02 0.07 l -0.14,0.05 0.09,-0.05 c 0.05,0 0.08,-0.02 0.15,-0.04 h 0.07 l -0.26,0.09 0.09,-0.05 c 0.07,-0.04 0.17,-0.09 0.27,-0.12 h 0.12 l -0.39,0.17 0.07,-0.05 0.08,-0.07 0.21,-0.12 -0.02,0.03 0.14,-0.1 -0.07,0.05 0.14,-0.1 -0.04,0.03 0.12,-0.1 -0.08,0.05 0.12,-0.1 v 0 l 0.12,-0.12 v 0 l 0.1,-0.12 -0.12,0.15 0.1,-0.12 c 0,-0.03 0.04,-0.08 0.07,-0.1 l 0.09,-0.12 -0.04,0.05 0.09,-0.15 -0.07,0.15 0.07,-0.15 0.03,-0.04 0.09,-0.15 -0.05,0.07 0.08,-0.12 -0.03,0.03 0.07,-0.15 -0.02,0.05 0.14,-0.38 v 0.05 l 0.08,-0.34 v 0.02 l 0.12,-0.36 -0.03,0.05 0.07,-0.33 v 0.04 l 0.05,-0.38 v 0.02 l 0.07,-0.84 v 0 l 0.03,-0.43 0.02,-0.05 0.03,-0.43 v -0.05 l 0.21,-1.03 v -0.07 l 0.05,-0.17 v -0.02 l 0.07,-0.17 v -0.07 l 0.07,-0.17 0.03,-0.05 0.09,-0.17 v 0 l 0.17,-0.36 c 0.07,-0.14 0.17,-0.24 0.29,-0.31 l 0.05,-0.05 -0.12,0.1 0.02,-0.02 -0.07,0.09 0.05,-0.07 0.07,-0.1 0.02,-0.02 v 0 l 0.05,-0.05 v 0 l 0.05,-0.05 c 0.1,-0.07 0.19,-0.16 0.31,-0.19 h 0.07 l -0.43,0.31 0.03,-0.04 c 0.12,-0.17 0.28,-0.29 0.48,-0.36 h 0.07 l -0.27,0.12 0.05,-0.03 v 0 l 0.07,-0.05 c 0.05,-0.04 0.12,-0.07 0.2,-0.09 l 0.04,-0.03 -0.04,0.03 0.14,-0.07 -0.05,0.02 0.12,-0.05 c 0.07,-0.02 0.12,-0.05 0.17,-0.05 h 0.1 -0.08 l 0.12,-0.04 -0.04,0.02 0.09,-0.02 c 0.1,-0.05 0.19,-0.05 0.27,-0.05 h 0.09 -0.09 l 0.33,-0.03 c 0.03,0 0.1,0 0.15,0 l 0.38,0.03 v 0 l 0.36,0.05 h 0.07 l 0.39,0.04 v 0.03 l 0.36,0.05 0.09,0.02 0.79,0.22 v 0 l 1.25,0.33 -0.09,-0.02 0.21,0.02 h 0.07 l 0.22,0.07 -0.12,-0.02 0.26,0.02 h -0.07 0.6 -0.09 l 0.28,-0.04 h -0.04 l 0.33,-0.03 h -0.07 l 0.26,-0.07 v 0.02 l 0.29,-0.09 -0.07,0.02 0.82,-0.31 -0.03,0.02 0.22,-0.09 h -0.03 l 0.22,-0.1 -0.1,0.05 0.24,-0.14 v 0 l 0.22,-0.12 -0.1,0.04 0.22,-0.16 -0.05,0.04 0.55,-0.45 -0.04,0.05 0.12,-0.15 0.04,-0.02 0.12,-0.15 -0.02,0.05 0.14,-0.14 -0.02,0.02 0.12,-0.14 -0.02,0.05 0.12,-0.17 v 0 l 0.09,-0.12 -0.02,0.05 0.24,-0.39 -0.03,0.07 0.17,-0.31 -0.02,0.03 0.17,-0.32 -0.03,0.05 0.29,-0.62 -0.05,0.09 0.1,-0.33 v -0.03 l 0.09,-0.28 -0.02,0.07 0.07,-0.31 v 0 l 0.07,-0.32 v 0 l 0.05,-0.33 v 0.12 l 0.07,-0.84 v 0.09 l -0.09,-2.47 v 0.03 l -0.05,-1.2 v -0.05 l -0.1,-2.23 v 0 -0.32 c 0,-0.28 0.17,-0.57 0.44,-0.72 0.26,-0.16 0.57,-0.16 0.84,0 0.26,0.15 0.4,0.44 0.4,0.72 v 0.32 -0.05 l 0.08,2.25 v -0.02 l 0.04,1.2 v 0.02 l 0.1,2.48 v 0.07 l -0.07,0.84 -0.03,0.09 -0.04,0.34 v 0.02 l -0.08,0.29 v 0 l -0.07,0.31 v 0.08 l -0.12,0.31 v 0 l -0.07,0.33 -0.05,0.08 -0.29,0.64 -0.02,0.05 -0.17,0.31 v 0.03 l -0.17,0.29 -0.02,0.04 -0.24,0.39 -0.05,0.05 -0.12,0.16 v 0 l -0.09,0.12 -0.05,0.05 -0.15,0.15 -0.02,0.04 -0.14,0.15 -0.03,0.02 -0.17,0.15 0.05,-0.03 -0.12,0.12 -0.05,0.05 -0.55,0.46 -0.05,0.02 -0.19,0.14 -0.05,0.05 -0.21,0.15 v 0 l -0.22,0.12 -0.07,0.04 -0.24,0.1 v 0.02 l -0.24,0.08 -0.02,0.02 -0.82,0.31 -0.1,0.03 -0.31,0.09 v 0 l -0.29,0.07 h -0.07 l -0.31,0.05 h -0.02 l -0.32,0.03 -0.07,0.02 h -0.6 l -0.05,-0.02 h -0.24 c -0.04,0 -0.07,0 -0.12,-0.03 l -0.24,-0.05 0.05,0.03 -0.21,-0.05 -0.08,-0.02 -1.24,-0.29 -0.03,-0.03 -0.81,-0.21 0.07,0.02 -0.36,-0.07 h 0.02 l -0.41,-0.05 h 0.08 l -0.36,-0.05 v 0 l -0.39,-0.02 h 0.17 l -0.31,0.02 h -0.1 -0.09 l 0.26,-0.04 -0.1,0.04 h -0.04 l -0.1,0.05 -0.07,0.03 h -0.07 l 0.16,-0.05 -0.12,0.05 h -0.04 l -0.12,0.07 h -0.03 l -0.05,0.02 0.2,-0.09 -0.05,0.02 v 0 l -0.05,0.02 c -0.1,0.08 -0.17,0.12 -0.26,0.12 l -0.08,0.03 0.51,-0.34 -0.03,0.03 c -0.12,0.16 -0.26,0.28 -0.43,0.33 l -0.05,0.03 0.32,-0.2 -0.05,0.05 v 0 l -0.03,0.03 v 0 l -0.04,0.04 0.09,-0.09 -0.05,0.05 -0.07,0.09 -0.05,0.03 c -0.04,0.04 -0.07,0.09 -0.12,0.12 l -0.04,0.02 0.26,-0.31 -0.17,0.36 v 0 l -0.09,0.17 0.04,-0.08 -0.07,0.17 0.03,-0.07 -0.05,0.17 v -0.03 l -0.05,0.17 0.02,-0.07 -0.19,1.03 0.03,-0.05 -0.05,0.44 v -0.03 l -0.03,0.43 v 0.03 l -0.09,0.86 v 0.03 l -0.05,0.38 -0.02,0.05 -0.05,0.33 -0.03,0.08 -0.07,0.36 h -0.02 l -0.1,0.36 -0.02,0.04 -0.15,0.41 -0.02,0.03 -0.05,0.16 -0.02,0.03 -0.07,0.14 -0.03,0.07 -0.09,0.12 0.04,-0.07 -0.07,0.15 c -0.02,0.04 -0.05,0.07 -0.07,0.12 l -0.1,0.12 -0.04,0.04 -0.1,0.12 0.07,-0.09 -0.07,0.12 c -0.02,0.05 -0.07,0.09 -0.12,0.14 l -0.12,0.12 v 0 l -0.1,0.1 v 0 l -0.12,0.12 -0.04,0.05 -0.1,0.09 -0.05,0.03 -0.12,0.09 -0.07,0.05 -0.14,0.1 h -0.03 l -0.19,0.12 0.07,-0.05 -0.05,0.05 c -0.12,0.09 -0.24,0.12 -0.38,0.14 l -0.1,0.02 0.32,-0.12 -0.1,0.08 c -0.07,0.04 -0.17,0.07 -0.26,0.09 h -0.08 l 0.15,-0.02 -0.1,0.02 c -0.05,0.03 -0.09,0.03 -0.14,0.05 l -0.07,0.02 h -0.03 -0.09 c -0.08,0 -0.12,0.03 -0.15,0 h -0.07 0.14 l -0.09,0.03 c -0.05,0 -0.12,0 -0.15,0 h -0.09 v 0 h -0.1 v 0 h -0.07 v 0 h -0.1 c -0.04,0 -0.12,0 -0.16,-0.03 h -0.08 0.15 -0.07 c -0.08,0 -0.17,0 -0.22,-0.02 l -0.24,-0.07 -0.07,-0.03 -0.12,-0.04 h 0.02 l -0.09,-0.03 -0.08,-0.02 -0.09,-0.05 v 0 l -0.12,-0.05 c -0.05,-0.02 -0.1,-0.05 -0.15,-0.09 l -0.09,-0.05 0.09,0.05 -0.09,-0.05 -0.03,-0.03 -0.12,-0.07 c -0.07,-0.02 -0.12,-0.07 -0.16,-0.12 l -0.1,-0.09 0.12,0.12 -0.1,-0.08 -0.07,-0.04 -0.09,-0.1 -0.05,-0.05 -0.07,-0.09 -0.08,-0.05 -0.09,-0.12 c -0.05,-0.07 -0.12,-0.19 -0.12,-0.27 l -0.03,-0.04 0.27,0.38 -0.05,-0.02 c -0.14,-0.12 -0.24,-0.29 -0.26,-0.46 l -0.03,-0.05 0.03,0.07 v -0.04 l 0.04,0.14 -0.02,-0.05 c -0.05,-0.07 -0.07,-0.14 -0.07,-0.21 l -0.03,-0.05 v 0 -0.05 0 -0.05 l 0.08,0.19 -0.05,-0.04 c -0.07,-0.15 -0.1,-0.29 -0.07,-0.44 v -0.04 0 l 0.02,-0.08 v 0.22 l -0.02,-0.05 0.02,0.07 v -0.02 c -0.05,-0.17 -0.02,-0.34 0.02,-0.5 h 0.03 l -0.07,0.14 0.02,-0.02 c 0.02,-0.08 0.02,-0.12 0.05,-0.15 v -0.02 l -0.05,0.14 0.02,-0.02 c 0,-0.07 0,-0.1 0.03,-0.15 v -0.02 c 0.07,-0.14 0.17,-0.26 0.31,-0.31 l 0.02,-0.03 -0.33,0.48 v -0.04 c 0.02,-0.1 0.05,-0.2 0.12,-0.27 l 0.02,-0.02 -0.07,0.12 v -0.03 l -0.05,0.15 0.03,-0.03 c 0,-0.04 0,-0.09 0.02,-0.14 h 0.02 c 0.05,-0.14 0.15,-0.24 0.27,-0.31 h 0.02 l -0.21,0.17 0.04,-0.03 c 0.03,-0.07 0.12,-0.12 0.2,-0.17 l 0.02,-0.02 -0.22,0.19 0.03,-0.05 -0.07,0.12 v 0 c 0.07,-0.12 0.16,-0.24 0.28,-0.28 l 0.03,-0.03 h -0.03 0.03 l -0.19,0.15 0.02,-0.03 c 0.05,-0.05 0.12,-0.12 0.19,-0.17 h 0.03 c 0.16,-0.07 0.36,-0.07 0.52,0 v 0 l -0.57,0.05 0.02,-0.02 0.07,-0.05 h 0.03 c 0.21,-0.12 0.48,-0.07 0.67,0.1 0.17,0.16 0.22,0.45 0.1,0.67 z"
         style="fill:#1a1a1a;fill-opacity:1;fill-rule:nonzero;stroke:none"
         transform="matrix(1.3333333,0,0,-1.3333333,0,1120.8)" />
    </g>
  </g>
</svg>
