<?xml version="1.0" encoding="UTF-8" standalone="no"?>
<!-- Created with Inkscape (http://www.inkscape.org/) -->

<svg
   version="1.1"
   id="svg1"
   width="300"
   height="300"
   viewBox="0 0 300 299.99999"
   sodipodi:docname="lesson1.pdf"
   inkscape:export-filename="multichoice\multichoice1\option4.svg"
   inkscape:export-xdpi="96"
   inkscape:export-ydpi="96"
   xmlns:inkscape="http://www.inkscape.org/namespaces/inkscape"
   xmlns:sodipodi="http://sodipodi.sourceforge.net/DTD/sodipodi-0.dtd"
   xmlns="http://www.w3.org/2000/svg"
   xmlns:svg="http://www.w3.org/2000/svg">
  <defs
     id="defs1" />
  <sodipodi:namedview
     id="namedview1"
     pagecolor="#ffffff"
     bordercolor="#000000"
     borderopacity="0.25"
     inkscape:showpageshadow="2"
     inkscape:pageopacity="0.0"
     inkscape:pagecheckerboard="0"
     inkscape:deskcolor="#d1d1d1"
     inkscape:zoom="26.581011"
     inkscape:cx="328.42994"
     inkscape:cy="115.43955"
     inkscape:window-width="1920"
     inkscape:window-height="1191"
     inkscape:window-x="-9"
     inkscape:window-y="-9"
     inkscape:window-maximized="1"
     inkscape:current-layer="g1">
    <inkscape:page
       x="0"
       y="0"
       inkscape:label="1"
       id="page1"
       width="300"
       height="300"
       margin="0"
       bleed="0" />
  </sodipodi:namedview>
  <g
     id="g1"
     inkscape:groupmode="layer"
     inkscape:label="1">
    <g
       id="g290"
       transform="matrix(11.120539,0,0,11.120539,-7006.728,-1173.4657)">
      <path
         id="path290"
         d="m 481.78,760.85 -0.05,-0.15 c -0.03,-0.07 -0.03,-0.12 -0.03,-0.19 l 0.03,-0.77 v 0.03 l -0.05,-1.83 v 0 l -0.07,-1.34 v -0.07 l 0.17,-3.34 v -0.02 l 0.09,-1.78 v 0.03 l 0.07,-2.09 v 0.05 -0.1 c 0,-0.46 0.39,-0.84 0.82,-0.84 0.46,0 0.84,0.38 0.84,0.84 v 0.1 0.02 l -0.1,2.09 v 0 l -0.12,1.8 v 0 l -0.21,3.33 v -0.09 l 0.05,1.37 v 0.02 l -0.03,1.82 v 0.08 l -0.07,0.79 -0.02,0.09 -0.03,0.15 c -0.07,0.29 -0.33,0.5 -0.67,0.5 -0.31,0 -0.58,-0.21 -0.62,-0.5 z"
         style="fill:#000000;fill-opacity:1;fill-rule:nonzero;stroke:none"
         transform="matrix(1.3333333,0,0,-1.3333333,0,1120.8)" />
    </g>
    <g
       id="g291"
       transform="matrix(11.120539,0,0,11.120539,-7006.728,-1173.4657)">
      <path
         id="path291"
         d="m 480.34,756.72 0.31,0.05 -0.1,-0.03 0.65,-0.02 h 0.1 l 1.03,0.07 h -0.03 l 0.99,0.05 v 0 l 0.19,0.02 h -0.1 l 0.2,-0.04 h 0.02 l 0.58,-0.05 h -0.03 l 0.15,-0.03 c 0.26,-0.02 0.5,0.08 0.67,0.29 0.17,0.22 0.19,0.51 0.07,0.75 -0.1,0.24 -0.31,0.4 -0.6,0.43 h -0.12 -0.02 l -0.58,0.05 h -0.02 -0.22 -0.1 l -0.21,-0.03 h 0.05 l -1.01,-0.07 v 0 l -1.01,-0.1 h 0.05 -0.67 c -0.05,0 -0.08,0 -0.12,0 l -0.32,-0.07 c -0.33,-0.07 -0.55,-0.38 -0.5,-0.74 0.05,-0.34 0.36,-0.55 0.7,-0.53 z"
         style="fill:#000000;fill-opacity:1;fill-rule:nonzero;stroke:none"
         transform="matrix(1.3333333,0,0,-1.3333333,0,1120.8)" />
    </g>
    <g
       id="g292"
       transform="matrix(10.80155,-2.64441,2.64441,10.80155,-7136.1511,570.86746)">
      <path
         id="path292"
         d="m 482.23,745.06 0.15,0.14 -0.29,-0.17 0.33,0.12 -0.21,-0.05 0.19,0.03 c 0.1,0 0.17,0.02 0.26,0.05 l 0.08,0.04 -0.41,-0.07 h 0.12 c 0.07,-0.02 0.17,0 0.24,0.03 l 0.12,0.02 -0.19,-0.02 h 0.07 0.02 0.27 0.07 0.07 l -0.26,0.02 0.09,-0.02 c 0.07,0 0.17,0 0.27,0 h 0.07 l -0.27,0.02 0.08,-0.02 -0.12,0.02 0.09,-0.02 c 0.07,-0.03 0.15,-0.05 0.22,-0.05 h 0.07 l -0.31,0.07 0.07,-0.02 c 0.1,-0.05 0.17,-0.08 0.24,-0.1 h 0.12 l -0.29,0.1 0.07,-0.05 0.08,-0.03 0.07,-0.04 h 0.05 l 0.07,-0.05 -0.19,0.09 0.07,-0.04 0.07,-0.03 0.07,-0.05 -0.14,0.1 0.07,-0.05 c 0.05,-0.07 0.12,-0.09 0.17,-0.14 l 0.07,-0.05 -0.22,0.19 0.08,-0.07 0.02,-0.02 0.07,-0.08 -0.05,0.05 0.08,-0.05 v -0.02 l 0.14,-0.14 -0.07,0.07 0.07,-0.07 c 0.05,-0.08 0.1,-0.12 0.17,-0.17 l 0.07,-0.05 c 0.36,-0.29 0.91,-0.22 1.2,0.17 0.31,0.36 0.24,0.91 -0.14,1.2 l -0.08,0.07 0.15,-0.14 -0.05,0.07 -0.07,0.07 -0.17,0.17 v 0 l -0.07,0.07 -0.05,0.05 -0.05,0.05 0.05,-0.05 -0.05,0.05 c -0.07,0.07 -0.14,0.12 -0.24,0.14 l -0.07,0.05 0.19,-0.12 -0.07,0.07 c -0.05,0.05 -0.12,0.07 -0.17,0.1 l -0.07,0.04 0.05,-0.02 -0.07,0.05 c -0.05,0.02 -0.1,0.05 -0.17,0.07 l -0.07,0.02 0.04,-0.02 -0.07,0.05 0.07,-0.05 -0.07,0.05 c -0.09,0.05 -0.19,0.07 -0.26,0.09 l -0.12,0.03 0.24,-0.07 -0.05,0.02 c -0.1,0.05 -0.19,0.07 -0.31,0.07 l -0.07,0.03 0.19,-0.05 -0.07,0.02 c -0.05,0.03 -0.1,0.03 -0.12,0.03 l -0.1,0.02 c -0.07,0 -0.17,0 -0.24,0 h -0.1 0.27 -0.07 c -0.1,0.02 -0.2,0.02 -0.27,0 h -0.09 0.02 l -0.26,-0.02 h -0.1 l -0.07,-0.03 c -0.05,0 -0.1,-0.02 -0.15,-0.05 l -0.09,-0.02 0.24,0.05 h -0.12 c -0.12,-0.03 -0.27,-0.07 -0.39,-0.17 l -0.07,-0.02 0.27,0.12 -0.22,-0.05 c -0.07,-0.05 -0.14,-0.07 -0.24,-0.12 l -0.26,-0.19 c -0.2,-0.12 -0.32,-0.34 -0.34,-0.53 l -0.02,-0.22 c -0.05,-0.31 0.12,-0.57 0.38,-0.72 0.26,-0.12 0.6,-0.07 0.79,0.15 z"
         style="fill:#000000;fill-opacity:1;fill-rule:nonzero;stroke:none"
         transform="matrix(1.3333333,0,0,-1.3333333,0,1120.8)" />
    </g>
    <g
       id="g293"
       transform="matrix(11.120539,0,0,11.120539,-7006.728,-1173.4657)">
      <path
         id="path293"
         d="m 482.9,750.62 h -0.02 l 0.31,-0.12 -0.02,0.03 0.17,-0.17 -0.03,0.02 c -0.05,0.08 -0.09,0.12 -0.19,0.17 v 0.03 l 0.02,-0.05 -0.02,0.02 c -0.07,0.05 -0.19,0.1 -0.29,0.15 h -0.02 v 0 0 l 0.41,-0.22 h -0.03 c -0.26,0.29 -0.69,0.31 -1.03,0.07 v -0.02 l 0.6,0.17 v 0 l 0.31,-0.15 -0.02,0.03 -0.05,0.02 v 0 c -0.07,0.05 -0.19,0.1 -0.26,0.12 h -0.05 c -0.12,0 -0.24,0 -0.36,-0.02 h -0.03 l 0.39,0.02 h -0.03 c -0.14,0.02 -0.28,0 -0.43,-0.05 l -0.02,-0.02 c -0.12,-0.05 -0.24,-0.12 -0.31,-0.24 h -0.03 l 0.46,0.29 -0.03,-0.03 c -0.16,-0.02 -0.33,-0.12 -0.45,-0.24 l -0.03,-0.02 0.41,0.21 h -0.02 c -0.1,-0.02 -0.19,-0.07 -0.29,-0.14 l -0.05,-0.02 c -0.05,-0.03 -0.09,-0.08 -0.14,-0.12 v -0.03 l 0.07,0.1 -0.02,-0.03 -0.1,-0.07 -0.02,-0.07 c -0.08,-0.05 -0.12,-0.12 -0.15,-0.19 l -0.14,-0.24 0.05,0.07 -0.15,-0.24 -0.02,-0.07 -0.12,-0.22 -0.05,-0.07 -0.07,-0.24 -0.03,-0.02 -0.09,-0.24 v -0.05 l -0.19,-0.58 v -0.07 l -0.12,-0.38 v -0.1 l -0.1,-0.38 v -0.08 l -0.1,-1.08 -0.02,-0.04 v -0.29 -0.05 -0.31 0 -0.29 -0.1 l 0.1,-0.64 v -0.05 l 0.02,-0.15 0.02,-0.04 0.03,-0.15 V 744 l 0.02,-0.14 c 0.03,-0.05 0.03,-0.1 0.05,-0.17 l 0.05,-0.12 -0.03,0.07 0.03,-0.12 0.05,-0.12 0.04,-0.1 0.03,-0.07 0.07,-0.12 v 0 l 0.07,-0.12 -0.02,0.03 0.07,-0.12 c 0,-0.05 0.05,-0.08 0.05,-0.1 l 0.19,-0.29 c 0.05,-0.05 0.07,-0.09 0.12,-0.14 l 0.07,-0.07 -0.02,0.04 0.05,-0.09 v 0 l 0.07,-0.05 c 0.05,-0.07 0.09,-0.12 0.14,-0.14 l 0.1,-0.08 -0.07,0.08 0.07,-0.08 0.07,-0.04 0.1,-0.08 0.02,-0.02 0.1,-0.07 v 0 l 0.07,-0.05 c 0.02,-0.02 0.07,-0.02 0.12,-0.05 l 0.09,-0.07 h 0.05 l 0.07,-0.02 h -0.02 l 0.1,-0.05 0.07,-0.03 0.07,-0.02 0.05,-0.02 0.07,-0.03 0.07,-0.02 0.27,-0.07 h 0.07 l 0.07,-0.03 h 0.02 l 0.08,-0.02 v 0 h 0.07 c 0.07,0 0.17,0 0.24,0 h 0.07 l -0.31,0.02 0.05,-0.02 c 0.09,0 0.19,0 0.31,0 h 0.05 v 0 l 0.02,0.02 -0.36,0.03 0.07,-0.03 c 0.12,-0.02 0.24,-0.05 0.39,-0.02 h 0.02 c 0.1,0.02 0.17,0.05 0.22,0.07 l 0.07,0.02 -0.22,-0.04 h 0.05 v 0 h 0.05 c 0.05,0 0.09,0.02 0.14,0.02 l 0.07,0.05 c 0.03,0 0.08,0.02 0.1,0.05 h 0.05 l 0.05,0.02 0.07,0.05 -0.31,-0.12 h 0.02 c 0.17,0.05 0.29,0.07 0.41,0.17 l 0.05,0.02 -0.12,-0.05 0.02,0.03 c 0.05,0 0.1,0.02 0.12,0.07 l 0.07,0.02 -0.07,-0.02 h 0.05 c 0.07,0.05 0.12,0.09 0.17,0.14 l 0.04,0.05 0.08,0.05 0.02,0.05 -0.14,-0.12 h 0.02 c 0.05,0.02 0.07,0.07 0.1,0.09 l 0.04,0.05 0.08,0.05 0.02,0.05 -0.07,-0.05 0.05,0.05 -0.17,-0.17 0.05,0.05 c 0.14,0.07 0.26,0.24 0.36,0.38 l 0.04,0.12 -0.02,-0.07 0.07,0.17 0.03,0.02 0.07,0.14 0.02,0.08 0.05,0.16 v -0.04 l 0.05,0.14 0.05,0.07 0.04,0.17 0.03,0.05 0.05,0.14 v 0.03 l 0.02,0.14 0.02,0.1 0.03,0.14 v 0 l 0.05,0.17 v 0.05 l 0.02,0.16 v 0.1 0.34 0 0.36 0 l -0.02,0.33 v 0.07 l -0.03,0.34 -0.02,0.1 -0.19,0.93 v 0.07 l -0.1,0.32 v 0 l -0.1,0.31 -0.02,0.05 -0.26,0.74 c 0,0.05 -0.05,0.12 -0.08,0.17 l -0.09,0.12 0.05,-0.07 -0.05,0.14 -0.05,0.1 -0.1,0.12 -0.04,0.07 -0.1,0.12 0.07,-0.07 -0.09,0.14 c 0,0.05 -0.05,0.1 -0.1,0.12 l -0.07,0.12 v -0.02 l -0.07,0.12 -0.08,0.07 -0.21,0.21 c -0.05,0.08 -0.1,0.1 -0.17,0.15 l -0.12,0.09 c -0.31,0.22 -0.67,0.24 -1.03,0.1 -0.31,-0.17 -0.53,-0.48 -0.55,-0.84 -0.05,-0.38 0.12,-0.72 0.43,-0.94 l 0.12,-0.09 -0.17,0.17 0.22,-0.24 -0.05,0.04 0.12,-0.12 v -0.02 l 0.12,-0.12 -0.1,0.14 0.1,-0.14 0.05,-0.1 0.09,-0.09 -0.07,0.07 0.1,-0.12 -0.05,0.07 0.07,-0.14 0.05,-0.07 0.07,-0.15 -0.07,0.17 0.29,-0.72 -0.03,0.02 0.1,-0.28 v 0.02 l 0.09,-0.31 -0.02,0.12 0.22,-0.96 -0.03,0.07 0.05,-0.31 v 0.05 -0.34 0.02 l 0.02,-0.33 v 0.05 -0.34 l 0.03,0.1 -0.03,-0.17 v 0.05 l -0.02,-0.17 v 0 l -0.02,-0.17 0.02,0.12 -0.02,-0.17 v 0.03 l -0.05,-0.17 v 0.05 l -0.05,-0.17 0.02,0.07 -0.04,-0.14 v -0.05 l -0.08,-0.15 0.03,0.08 -0.07,-0.15 0.02,0.03 -0.07,-0.12 -0.03,-0.05 -0.04,-0.12 0.36,0.41 -0.05,-0.03 c -0.05,-0.02 -0.12,-0.07 -0.17,-0.14 l -0.02,-0.05 -0.08,-0.05 -0.04,-0.05 0.07,0.08 -0.05,-0.05 0.1,0.07 -0.03,-0.02 c -0.07,-0.03 -0.09,-0.1 -0.14,-0.12 l -0.05,-0.08 0.05,0.08 -0.05,-0.05 0.19,0.14 -0.05,-0.02 -0.04,-0.05 -0.08,-0.02 0.12,0.07 -0.02,-0.03 c -0.05,-0.02 -0.1,-0.04 -0.12,-0.07 l -0.07,-0.05 0.38,0.17 -0.05,-0.02 c -0.09,0 -0.21,-0.05 -0.28,-0.1 l -0.08,-0.02 h 0.05 -0.02 l 0.12,0.05 -0.07,-0.03 0.12,0.03 h -0.05 v 0 h -0.05 c -0.07,-0.03 -0.14,-0.05 -0.19,-0.08 l -0.07,-0.02 0.21,0.05 h -0.05 0.39 -0.07 c -0.12,0.05 -0.24,0.05 -0.39,0.02 l -0.05,-0.02 v 0 h -0.04 0.31 -0.05 c -0.12,0.05 -0.22,0.05 -0.31,0 h -0.05 0.26 l -0.04,0.02 v 0 h -0.1 0.05 -0.05 l 0.1,-0.02 -0.27,0.07 h 0.05 l -0.12,0.02 h 0.05 l -0.1,0.03 0.05,-0.03 -0.1,0.05 -0.04,0.03 -0.08,0.02 0.05,-0.02 -0.09,0.07 0.12,-0.07 -0.1,0.02 v 0.02 l -0.1,0.08 0.05,-0.05 -0.09,0.07 0.07,-0.07 -0.07,0.07 -0.08,0.05 -0.09,0.07 0.17,-0.12 -0.08,0.07 h -0.02 l -0.07,0.1 -0.03,0.02 -0.07,0.07 0.12,-0.14 -0.19,0.29 0.05,-0.1 -0.05,0.1 v 0.05 l -0.07,0.12 v 0 l -0.07,0.12 0.02,-0.1 -0.02,0.12 0.02,-0.1 -0.02,0.15 -0.05,0.07 -0.05,0.12 0.05,-0.14 -0.03,0.12 -0.02,0.02 -0.02,0.14 0.02,-0.04 -0.02,0.14 v -0.02 l -0.1,0.64 v -0.09 0.29 -0.05 0.31 -0.05 0.29 -0.02 l 0.12,1.08 v -0.05 l 0.05,0.41 v -0.08 l 0.09,0.44 -0.02,-0.08 0.17,0.58 v -0.02 l 0.07,0.26 v -0.02 l 0.1,0.21 -0.05,-0.07 0.12,0.24 -0.03,-0.07 0.15,0.24 0.02,0.05 0.12,0.24 h -0.02 l 0.05,0.04 0.02,0.08 v 0.02 c 0.05,0.07 0.05,0.12 0.07,0.17 v 0.05 l -0.14,-0.34 0.05,0.05 h -0.03 0.03 c 0.04,0.07 0.07,0.17 0.12,0.24 v 0.05 L 483,749.28 h 0.02 c 0.08,0.07 0.15,0.14 0.2,0.24 v 0 l -0.15,-0.17 0.03,0.03 -0.44,-0.24 h 0.03 c 0.12,0.02 0.24,0.07 0.31,0.14 h 0.02 l -0.33,-0.12 h 0.05 c 0.07,0.02 0.19,0.05 0.26,0.12 v 0 l -0.62,-0.1 v 0 c 0.12,-0.02 0.24,-0.04 0.38,-0.02 v 0 c 0.19,0.05 0.36,0.14 0.48,0.29 v 0.02 l -0.7,-0.29 h 0.03 c 0.07,-0.02 0.14,-0.02 0.24,0 v 0 0 h 0.02 l -0.36,0.03 h 0.03 c 0.19,-0.07 0.43,-0.05 0.62,0.07 v 0.02 l -0.86,0.03 h 0.02 c 0.07,-0.05 0.17,-0.1 0.24,-0.12 v 0 c 0.12,-0.05 0.24,-0.05 0.36,-0.05 l 0.02,0.02 c 0.34,0.08 0.6,0.36 0.6,0.72 0,0.36 -0.26,0.68 -0.6,0.72 z"
         style="fill:#000000;fill-opacity:1;fill-rule:nonzero;stroke:none"
         transform="matrix(1.3333333,0,0,-1.3333333,0,1120.8)" />
    </g>
  </g>
</svg>
