<?xml version="1.0" encoding="UTF-8" standalone="no"?>
<!-- Created with Inkscape (http://www.inkscape.org/) -->

<svg
   version="1.1"
   id="svg1"
   width="300"
   height="300"
   viewBox="0 0 300 299.99999"
   sodipodi:docname="lesson1.pdf"
   inkscape:export-filename="lesson1.svg"
   inkscape:export-xdpi="96"
   inkscape:export-ydpi="96"
   xmlns:inkscape="http://www.inkscape.org/namespaces/inkscape"
   xmlns:sodipodi="http://sodipodi.sourceforge.net/DTD/sodipodi-0.dtd"
   xmlns="http://www.w3.org/2000/svg"
   xmlns:svg="http://www.w3.org/2000/svg">
  <defs
     id="defs1" />
  <sodipodi:namedview
     id="namedview1"
     pagecolor="#ffffff"
     bordercolor="#000000"
     borderopacity="0.25"
     inkscape:showpageshadow="2"
     inkscape:pageopacity="0.0"
     inkscape:pagecheckerboard="0"
     inkscape:deskcolor="#d1d1d1"
     inkscape:zoom="26.581011"
     inkscape:cx="328.42994"
     inkscape:cy="115.43955"
     inkscape:window-width="1920"
     inkscape:window-height="1191"
     inkscape:window-x="-9"
     inkscape:window-y="-9"
     inkscape:window-maximized="1"
     inkscape:current-layer="g1">
    <inkscape:page
       x="0"
       y="0"
       inkscape:label="1"
       id="page1"
       width="300"
       height="300"
       margin="0"
       bleed="0" />
  </sodipodi:namedview>
  <g
     id="g1"
     inkscape:groupmode="layer"
     inkscape:label="1">
    <g
       id="g152"
       transform="matrix(10.419519,0,0,10.419519,-3310.9925,-1060.5327)">
      <path
         id="path152"
         d="m 247.78,762.65 0.02,0.24 v 0 0 l -0.26,-0.55 0.04,0.02 h -0.02 l 0.02,0.02 c 0.17,0.15 0.24,0.36 0.27,0.56 v 0.04 l -0.27,-0.6 v 0.03 h 0.03 l 0.02,0.05 v 0 h 0.03 v 0 l 0.02,0.04 -0.02,-0.04 0.02,0.04 -0.65,-0.24 h 0.03 c 0.24,-0.02 0.48,0.08 0.67,0.24 l 0.02,0.03 v 0 l 0.03,0.02 -0.68,-0.26 v 0 c 0.24,0 0.48,0.07 0.65,0.24 0.17,0.14 0.27,0.36 0.29,0.6 v 0.02 l -0.48,-0.74 0.05,0.02 -0.46,-0.09 h 0.03 -0.05 0.02 0.07 0.03 v 0 0 c 0.26,-0.03 0.5,0.07 0.69,0.26 l 0.03,0.02 -0.67,-0.28 h 0.04 0.08 l 0.64,0.04 h -0.09 0.02 0.03 0.09 v 0 h 0.1 l -0.19,0.03 0.09,-0.03 c 0.07,0 0.12,-0.02 0.19,-0.02 h 0.12 l -0.24,0.05 0.08,-0.03 v 0 l 0.09,-0.04 h 0.03 l 0.12,-0.03 -0.24,0.1 0.09,-0.05 c 0.05,-0.05 0.15,-0.07 0.22,-0.1 l 0.09,-0.02 -0.24,0.1 0.1,-0.05 0.07,-0.03 0.12,-0.04 -0.09,0.02 0.09,-0.05 v 0 l 0.07,-0.05 -0.12,0.12 0.08,-0.09 v 0.02 l 0.16,-0.17 -0.07,0.08 0.07,-0.08 -0.04,0.08 0.09,-0.12 0.05,-0.08 0.1,-0.12 v 0 l 0.09,-0.09 -0.12,0.14 0.1,-0.14 -0.03,0.05 0.08,-0.12 0.04,-0.1 0.08,-0.1 -0.03,0.05 0.07,-0.14 -0.07,0.21 0.03,-0.14 0.02,-0.05 0.14,-0.38 v 0.05 l 0.17,-0.6 v 0.04 l 0.15,-0.57 -0.03,0.05 0.12,-0.6 v 0.07 l 0.19,-1.39 v 0.04 l 0.17,-1.96 v 0.09 -1.27 -0.02 l 0.03,-2.19 v 0 l 0.07,-5.52 v -0.07 l 0.09,-1.42 v 0.03 l 0.1,-2.04 v 0.07 -0.1 c -0.02,-0.33 0.17,-0.64 0.46,-0.84 0.31,-0.16 0.67,-0.16 0.96,0 0.28,0.2 0.48,0.51 0.48,0.84 v 0.1 0.05 l -0.12,2.01 v 0.03 l -0.12,1.41 v -0.04 l -0.08,5.52 v 0 l -0.04,2.2 v -0.02 1.27 l -0.03,0.07 -0.17,1.95 v 0.05 l -0.19,1.39 v 0.07 l -0.12,0.6 -0.02,0.02 -0.15,0.58 v 0.05 l -0.19,0.6 -0.02,0.05 -0.15,0.38 v -0.07 l -0.02,0.14 c -0.02,0.07 -0.05,0.15 -0.1,0.22 l -0.07,0.12 -0.05,0.07 -0.09,0.12 0.07,-0.1 -0.07,0.12 -0.03,0.03 -0.07,0.12 c -0.05,0.07 -0.07,0.12 -0.12,0.14 l -0.07,0.1 v 0 l -0.1,0.12 0.05,-0.07 -0.09,0.12 -0.05,0.07 -0.07,0.09 -0.1,0.08 -0.17,0.14 -0.02,0.02 -0.1,0.08 c -0.05,0.02 -0.09,0.04 -0.12,0.07 l -0.09,0.05 v 0 l -0.1,0.04 -0.05,0.03 -0.12,0.05 0.07,-0.03 -0.07,0.05 c -0.09,0.05 -0.17,0.07 -0.24,0.1 h -0.12 l 0.24,-0.08 -0.09,0.03 c -0.08,0.05 -0.15,0.09 -0.24,0.09 l -0.1,0.03 h 0.05 l -0.07,0.02 v 0 l -0.1,0.03 c -0.07,0 -0.14,0.02 -0.22,0.02 h -0.12 l 0.2,-0.02 -0.12,0.02 c -0.05,0.02 -0.12,0.02 -0.17,0.02 h -0.1 v 0 h -0.09 -0.03 -0.02 -0.05 l -0.62,-0.04 h 0.04 -0.04 c -0.24,-0.03 -0.48,-0.12 -0.65,-0.32 l -0.03,-0.02 0.63,0.29 v 0 0 h -0.03 -0.07 -0.02 0.05 -0.03 c -0.14,0 -0.26,-0.03 -0.38,-0.12 h -0.05 c -0.29,-0.17 -0.46,-0.48 -0.43,-0.82 v -0.02 l 0.81,0.93 v 0 c -0.24,-0.02 -0.48,-0.14 -0.64,-0.33 v 0 0 l -0.03,-0.03 0.63,0.29 h -0.03 c -0.26,-0.02 -0.5,-0.14 -0.65,-0.33 v 0 0 0 0 l -0.04,-0.05 v 0 0 l -0.03,-0.03 -0.02,-0.04 c -0.12,-0.17 -0.19,-0.36 -0.19,-0.56 v -0.04 l 0.21,0.6 h -0.02 v 0 l -0.03,-0.05 c -0.12,-0.15 -0.21,-0.36 -0.19,-0.6 v 0 c 0,-0.17 0.05,-0.31 0.15,-0.43 l 0.12,-0.2 c 0.19,-0.28 0.52,-0.43 0.86,-0.33 0.34,0.09 0.58,0.38 0.58,0.72 z"
         style="fill:#000000;fill-opacity:1;fill-rule:nonzero;stroke:none"
         transform="matrix(1.3333333,0,0,-1.3333333,0,1120.8)" />
    </g>
    <g
       id="g153"
       transform="matrix(10.419519,0,0,10.419519,-3310.9925,-1060.5327)">
      <path
         id="path153"
         style="fill:#000000;fill-opacity:1;fill-rule:nonzero;stroke:none"
         transform="matrix(1.3333333,0,0,-1.3333333,0,1120.8)"
         d="m 246.80549,763.64345 c -0.31172,0.002 -0.60043,-0.19849 -0.70543,-0.51349 l -0.0801,-0.2699 c -0.02,-0.09 -0.0399,-0.21003 -0.0199,-0.31003 l 0.33997,-2.23009 v 0.0201 l 0.4,-3.38009 v 0.05 l 0.0184,-0.26546 c 0.003,-0.003 0.005,-0.008 8.2e-4,-0.0105 l 0.004,-0.0571 v -1.6e-4 c 1e-5,-6e-5 -1e-5,-1.2e-4 0,-1.7e-4 0.002,-0.01 0.003,-0.0198 0.004,-0.0298 0.001,-0.009 0.002,-0.0188 0.002,-0.0283 2.9e-4,-0.008 2.8e-4,-0.0167 3.3e-4,-0.025 -1.7e-4,-0.007 -3.4e-4,-0.0132 0,-0.0197 3.5e-4,-0.007 8.1e-4,-0.014 0.001,-0.0211 3e-4,-0.009 4.1e-4,-0.0188 3.3e-4,-0.0283 -1.3e-4,-0.0129 -5.6e-4,-0.0258 -10e-4,-0.0387 -6.8e-4,-0.0148 -0.001,-0.0297 -0.002,-0.0446 -8.6e-4,-0.0177 -0.002,-0.0354 -0.003,-0.0531 -0.002,-0.0231 -0.003,-0.0461 -0.004,-0.0693 -0.001,-0.0225 -0.002,-0.0451 -0.004,-0.0676 -1.7e-4,-0.003 -6.1e-4,-0.005 -0.001,-0.007 l 0.18108,-3.36791 -0.0293,-0.78635 -0.0181,-0.87418 -0.0937,-0.43552 c -0.0383,-0.0553 -0.0713,-0.11529 -0.098,-0.18026 v -0.005 c -0.0108,-0.0213 -0.0209,-0.043 -0.0301,-0.0653 h -0.0199 v -0.0299 c -0.15688,-0.35067 -0.10936,-0.74399 0.12681,-1.04622 0.0958,-0.16859 0.23353,-0.3005 0.39523,-0.38865 0.003,-0.002 0.007,-0.005 0.01,-0.007 0.10015,-0.0852 0.21952,-0.15353 0.35806,-0.18816 l 0.09,-0.0199 v -0.0117 c 10e-4,3.7e-4 0.002,3.5e-4 0.004,6.6e-4 0.007,2.2e-4 0.0129,-10e-4 0.0191,-0.003 0.007,-0.002 0.0142,-0.005 0.0212,-0.008 0.008,-0.003 0.0158,-0.005 0.0237,-0.008 0.009,-0.003 0.0174,-0.006 0.0258,-0.009 0.0101,-0.004 0.0204,-0.007 0.0308,-0.01 0.0114,-0.003 0.0225,-0.007 0.0337,-0.0112 0.0107,-0.004 0.0217,-0.007 0.0326,-0.0107 0.0117,-0.004 0.0233,-0.007 0.035,-0.011 0.015,-0.004 0.0301,-0.009 0.0452,-0.0132 0.0164,-0.005 0.0326,-0.009 0.0488,-0.0143 0.0149,-0.005 0.0297,-0.0112 0.0438,-0.0178 0.002,-0.001 0.004,-0.002 0.007,-0.003 l -0.0104,0.0104 0.89473,-0.31891 0.81529,-0.43109 0.09,-0.0201 0.18997,-0.1 0.22006,-0.0901 c 0.58,-0.24 1.27003,0.02 1.51003,0.6 0.27,0.57 -6e-5,1.25002 -0.57006,1.51002 l -0.22007,0.1 -0.2199,0.0901 0.0799,-0.05 -0.86989,0.46004 c -0.05,0.05 -0.12007,0.05 -0.17007,0.1 l -1,0.31003 -0.01,0.002 0.01,0.0674 c 0,0.05 0.0199,0.10006 0.0199,0.17006 l -0.0199,0.96003 v 0.81003 0.0798 l -0.27006,3.68996 -0.0199,0.46003 v 0.0701 l -0.51003,3.33996 v 0.0702 l -0.46711,2.06463 0.0171,0.1653 c 0.05,0.36 -0.19,0.69996 -0.55,0.78996 -0.045,0.009 -0.09,0.0132 -0.13454,0.0135 z m 0.83355,-14.82594 c -1.1e-4,-3e-5 -3e-4,-9e-5 -5e-4,-1.6e-4 l 3.3e-4,-1.7e-4 1.7e-4,1.7e-4 z" />
    </g>
  </g>
</svg>
