<?xml version="1.0" encoding="UTF-8" standalone="no"?>
<!-- Created with Inkscape (http://www.inkscape.org/) -->

<svg
   version="1.1"
   id="svg1"
   width="29.903969"
   height="135.22665"
   viewBox="0 0 29.903969 135.22665"
   sodipodi:docname="lesson1.pdf"
   xmlns:inkscape="http://www.inkscape.org/namespaces/inkscape"
   xmlns:sodipodi="http://sodipodi.sourceforge.net/DTD/sodipodi-0.dtd"
   xmlns="http://www.w3.org/2000/svg"
   xmlns:svg="http://www.w3.org/2000/svg">
  <defs
     id="defs1" />
  <sodipodi:namedview
     id="namedview1"
     pagecolor="#ffffff"
     bordercolor="#000000"
     borderopacity="0.25"
     inkscape:showpageshadow="2"
     inkscape:pageopacity="0.0"
     inkscape:pagecheckerboard="0"
     inkscape:deskcolor="#d1d1d1">
    <inkscape:page
       x="0"
       y="0"
       inkscape:label="1"
       id="page1"
       width="29.903969"
       height="135.22665"
       margin="0"
       bleed="0" />
  </sodipodi:namedview>
  <g
     id="g1"
     inkscape:groupmode="layer"
     inkscape:label="1"
     transform="translate(-324.22269,-101.89336)">
    <g
       id="g152">
      <path
         id="path152"
         d="m 247.78,762.65 0.02,0.24 v 0 0 l -0.26,-0.55 0.04,0.02 h -0.02 l 0.02,0.02 c 0.17,0.15 0.24,0.36 0.27,0.56 v 0.04 l -0.27,-0.6 v 0.03 h 0.03 l 0.02,0.05 v 0 h 0.03 v 0 l 0.02,0.04 -0.02,-0.04 0.02,0.04 -0.65,-0.24 h 0.03 c 0.24,-0.02 0.48,0.08 0.67,0.24 l 0.02,0.03 v 0 l 0.03,0.02 -0.68,-0.26 v 0 c 0.24,0 0.48,0.07 0.65,0.24 0.17,0.14 0.27,0.36 0.29,0.6 v 0.02 l -0.48,-0.74 0.05,0.02 -0.46,-0.09 h 0.03 -0.05 0.02 0.07 0.03 v 0 0 c 0.26,-0.03 0.5,0.07 0.69,0.26 l 0.03,0.02 -0.67,-0.28 h 0.04 0.08 l 0.64,0.04 h -0.09 0.02 0.03 0.09 v 0 h 0.1 l -0.19,0.03 0.09,-0.03 c 0.07,0 0.12,-0.02 0.19,-0.02 h 0.12 l -0.24,0.05 0.08,-0.03 v 0 l 0.09,-0.04 h 0.03 l 0.12,-0.03 -0.24,0.1 0.09,-0.05 c 0.05,-0.05 0.15,-0.07 0.22,-0.1 l 0.09,-0.02 -0.24,0.1 0.1,-0.05 0.07,-0.03 0.12,-0.04 -0.09,0.02 0.09,-0.05 v 0 l 0.07,-0.05 -0.12,0.12 0.08,-0.09 v 0.02 l 0.16,-0.17 -0.07,0.08 0.07,-0.08 -0.04,0.08 0.09,-0.12 0.05,-0.08 0.1,-0.12 v 0 l 0.09,-0.09 -0.12,0.14 0.1,-0.14 -0.03,0.05 0.08,-0.12 0.04,-0.1 0.08,-0.1 -0.03,0.05 0.07,-0.14 -0.07,0.21 0.03,-0.14 0.02,-0.05 0.14,-0.38 v 0.05 l 0.17,-0.6 v 0.04 l 0.15,-0.57 -0.03,0.05 0.12,-0.6 v 0.07 l 0.19,-1.39 v 0.04 l 0.17,-1.96 v 0.09 -1.27 -0.02 l 0.03,-2.19 v 0 l 0.07,-5.52 v -0.07 l 0.09,-1.42 v 0.03 l 0.1,-2.04 v 0.07 -0.1 c -0.02,-0.33 0.17,-0.64 0.46,-0.84 0.31,-0.16 0.67,-0.16 0.96,0 0.28,0.2 0.48,0.51 0.48,0.84 v 0.1 0.05 l -0.12,2.01 v 0.03 l -0.12,1.41 v -0.04 l -0.08,5.52 v 0 l -0.04,2.2 v -0.02 1.27 l -0.03,0.07 -0.17,1.95 v 0.05 l -0.19,1.39 v 0.07 l -0.12,0.6 -0.02,0.02 -0.15,0.58 v 0.05 l -0.19,0.6 -0.02,0.05 -0.15,0.38 v -0.07 l -0.02,0.14 c -0.02,0.07 -0.05,0.15 -0.1,0.22 l -0.07,0.12 -0.05,0.07 -0.09,0.12 0.07,-0.1 -0.07,0.12 -0.03,0.03 -0.07,0.12 c -0.05,0.07 -0.07,0.12 -0.12,0.14 l -0.07,0.1 v 0 l -0.1,0.12 0.05,-0.07 -0.09,0.12 -0.05,0.07 -0.07,0.09 -0.1,0.08 -0.17,0.14 -0.02,0.02 -0.1,0.08 c -0.05,0.02 -0.09,0.04 -0.12,0.07 l -0.09,0.05 v 0 l -0.1,0.04 -0.05,0.03 -0.12,0.05 0.07,-0.03 -0.07,0.05 c -0.09,0.05 -0.17,0.07 -0.24,0.1 h -0.12 l 0.24,-0.08 -0.09,0.03 c -0.08,0.05 -0.15,0.09 -0.24,0.09 l -0.1,0.03 h 0.05 l -0.07,0.02 v 0 l -0.1,0.03 c -0.07,0 -0.14,0.02 -0.22,0.02 h -0.12 l 0.2,-0.02 -0.12,0.02 c -0.05,0.02 -0.12,0.02 -0.17,0.02 h -0.1 v 0 h -0.09 -0.03 -0.02 -0.05 l -0.62,-0.04 h 0.04 -0.04 c -0.24,-0.03 -0.48,-0.12 -0.65,-0.32 l -0.03,-0.02 0.63,0.29 v 0 0 h -0.03 -0.07 -0.02 0.05 -0.03 c -0.14,0 -0.26,-0.03 -0.38,-0.12 h -0.05 c -0.29,-0.17 -0.46,-0.48 -0.43,-0.82 v -0.02 l 0.81,0.93 v 0 c -0.24,-0.02 -0.48,-0.14 -0.64,-0.33 v 0 0 l -0.03,-0.03 0.63,0.29 h -0.03 c -0.26,-0.02 -0.5,-0.14 -0.65,-0.33 v 0 0 0 0 l -0.04,-0.05 v 0 0 l -0.03,-0.03 -0.02,-0.04 c -0.12,-0.17 -0.19,-0.36 -0.19,-0.56 v -0.04 l 0.21,0.6 h -0.02 v 0 l -0.03,-0.05 c -0.12,-0.15 -0.21,-0.36 -0.19,-0.6 v 0 c 0,-0.17 0.05,-0.31 0.15,-0.43 l 0.12,-0.2 c 0.19,-0.28 0.52,-0.43 0.86,-0.33 0.34,0.09 0.58,0.38 0.58,0.72 z"
         style="fill:#000000;fill-opacity:1;fill-rule:nonzero;stroke:none"
         transform="matrix(1.3333333,0,0,-1.3333333,0,1120.8)" />
    </g>
    <g
       id="g153">
      <path
         id="path153"
         d="m 246.1,763.13 -0.08,-0.27 c -0.02,-0.09 -0.04,-0.21 -0.02,-0.31 l 0.34,-2.23 v 0.02 l 0.4,-3.38 v 0.05 l 0.03,-0.43 h -0.03 l 0.2,-3.72 v 0.04 l -0.03,-0.81 v 0 l -0.02,-0.96 0.02,0.17 -0.14,-0.65 0.09,0.21 -0.09,-0.19 0.77,0.53 h -0.03 c -0.36,-0.05 -0.67,-0.26 -0.81,-0.6 v -0.02 0 -0.03 l 0.31,0.41 h -0.03 c -0.12,-0.12 -0.24,-0.26 -0.31,-0.43 h -0.02 v 0 -0.03 c -0.17,-0.38 -0.1,-0.81 0.19,-1.12 l 0.02,-0.03 c 0.15,-0.17 0.34,-0.26 0.56,-0.33 h 0.02 l -0.55,0.31 h 0.02 l -0.21,1.03 -0.03,-0.02 c -0.14,-0.51 0.07,-1.06 0.55,-1.3 h 0.03 l -0.31,0.24 0.02,-0.02 c 0.14,-0.17 0.34,-0.29 0.55,-0.34 h 0.03 l -0.56,0.34 0.03,-0.05 c 0.09,-0.1 0.19,-0.17 0.31,-0.24 h 0.02 l -0.33,0.24 0.05,-0.03 c 0.12,-0.14 0.28,-0.26 0.48,-0.31 l 0.09,-0.02 v -0.03 l 0.39,-0.12 -0.03,0.03 1.01,-0.36 -0.17,0.07 0.87,-0.46 0.09,-0.02 0.19,-0.1 v 0 l 0.22,-0.09 c 0.58,-0.24 1.27,0.02 1.51,0.6 0.27,0.57 0,1.25 -0.57,1.51 l -0.22,0.1 v 0 l -0.22,0.09 0.08,-0.05 -0.87,0.46 c -0.05,0.05 -0.12,0.05 -0.17,0.1 l -1,0.31 -0.08,0.02 -0.38,0.1 -0.1,0.05 h -0.09 l 0.31,-0.1 h -0.02 c -0.32,0.17 -0.72,0.17 -1.04,0 h -0.02 1.03 -0.05 c -0.24,0.14 -0.5,0.17 -0.76,0.12 l -0.03,-0.02 0.75,-0.1 -0.03,0.02 c -0.31,0.17 -0.67,0.17 -0.98,0 l -0.03,-0.02 c -0.52,-0.24 -0.72,-0.86 -0.5,-1.39 0.22,-0.53 0.82,-0.77 1.37,-0.55 0.53,0.19 0.81,0.76 0.65,1.32 v 0.02 c -0.08,0.26 -0.27,0.5 -0.56,0.65 h -0.02 c -0.22,0.12 -0.48,0.14 -0.72,0.09 h -0.02 l 0.72,-0.09 h -0.03 l 0.48,-0.51 v 0.03 0 h -0.02 c -0.07,0.17 -0.19,0.31 -0.31,0.43 h -0.03 l 0.31,-0.41 v 0.03 0 0.02 c -0.16,0.34 -0.48,0.55 -0.84,0.6 v 0 c -0.48,0.05 -0.93,-0.31 -1.03,-0.79 -0.09,-0.48 0.22,-0.96 0.7,-1.08 0.48,-0.15 0.98,0.12 1.15,0.57 l 0.07,0.22 c 0.03,0.05 0.03,0.12 0.05,0.17 l 0.1,0.67 c 0,0.05 0.02,0.1 0.02,0.17 l -0.02,0.96 v 0 0.81 0.08 l -0.27,3.69 v 0 l -0.02,0.46 v 0.07 l -0.51,3.34 v 0.07 l -0.5,2.21 0.02,-0.27 0.03,0.29 c 0.05,0.36 -0.19,0.7 -0.55,0.79 -0.36,0.07 -0.72,-0.14 -0.84,-0.5 z"
         style="fill:#000000;fill-opacity:1;fill-rule:nonzero;stroke:none"
         transform="matrix(1.3333333,0,0,-1.3333333,0,1120.8)" />
    </g>
    <g
       id="g154">
      <path
         id="path154"
         d="m 259.37,763.13 v 0 c -0.03,0.38 -0.29,0.69 -0.67,0.72 -0.39,0.05 -0.72,-0.19 -0.82,-0.55 l -0.05,-0.17 v -0.07 l -0.05,-0.2 v 0.03 l -0.02,-0.19 c 0,-0.05 0,-0.08 0,-0.12 v -0.53 0.05 -0.32 -0.02 l 0.1,-4.15 v 0 l 0.12,-3.67 v 0 l 0.02,-1.83 v 0 l 0.14,-6.02 v -0.05 l 0.12,-2.09 v 0.03 l 0.03,-0.34 c 0.02,-0.31 0.21,-0.6 0.5,-0.74 0.29,-0.15 0.63,-0.12 0.89,0.04 0.26,0.2 0.41,0.48 0.38,0.8 v 0.31 0.02 l -0.14,2.09 v -0.02 l -0.19,6.02 v 0 l -0.03,1.82 h -0.02 l -0.14,3.68 v 0 l -0.17,4.15 v -0.03 l -0.03,0.32 v 0.02 l -0.02,0.5 v -0.07 l 0.02,0.17 v 0 0.19 -0.07 0.17 l -0.04,-0.22 v 0.03 c 0.04,0.09 0.07,0.19 0.07,0.31 z"
         style="fill:#000000;fill-opacity:1;fill-rule:nonzero;stroke:none"
         transform="matrix(1.3333333,0,0,-1.3333333,0,1120.8)" />
    </g>
    <g
       id="g155">
      <path
         id="path155"
         d="m 258.55,755.66 -0.21,0.2 c -0.1,0.07 -0.24,0.14 -0.39,0.16 h -0.02 c -0.29,0.03 -0.58,-0.12 -0.75,-0.38 -0.12,-0.26 -0.09,-0.58 0.08,-0.82 0.19,-0.24 0.5,-0.33 0.79,-0.26 0.29,0.1 0.5,0.34 0.55,0.62 v 0.03 c 0.02,0.33 -0.17,0.67 -0.48,0.77 l -0.02,0.02 -0.1,0.02 v 0 l 0.14,-0.07 v 0.03 c -0.04,0.02 -0.12,0.04 -0.16,0.04 h -0.03 v 0 0.03 c -0.21,0.05 -0.43,0 -0.62,-0.12 -0.19,-0.15 -0.31,-0.34 -0.34,-0.55 v 0 c -0.05,-0.44 0.24,-0.8 0.65,-0.87 0.41,-0.05 0.79,0.22 0.86,0.63 0.1,0.4 -0.14,0.79 -0.55,0.88 h -0.02 v 0 h -0.03 c -0.38,0.1 -0.76,-0.12 -0.91,-0.48 v 0 l 0.84,0.48 -0.02,0.03 c -0.39,0.05 -0.77,-0.24 -0.87,-0.6 v -0.03 l 0.87,0.6 h -0.03 c -0.36,0.05 -0.69,-0.16 -0.84,-0.5 v -0.02 c -0.09,-0.29 -0.02,-0.65 0.22,-0.84 0.24,-0.24 0.6,-0.29 0.86,-0.15 0.29,0.15 0.48,0.43 0.48,0.75 -0.02,0.31 -0.24,0.6 -0.52,0.72 h -0.03 c -0.21,0.07 -0.48,0.07 -0.69,-0.08 -0.2,-0.12 -0.34,-0.33 -0.36,-0.57 v -0.03 c -0.05,-0.33 0.12,-0.64 0.4,-0.79 0.29,-0.17 0.63,-0.14 0.89,0.07 0.24,0.2 0.36,0.53 0.27,0.84 -0.1,0.32 -0.36,0.56 -0.68,0.6 h -0.02 c -0.41,0.03 -0.77,-0.24 -0.89,-0.62 v -0.02 l 0.03,0.09 v -0.02 l -0.03,-0.07 v -0.03 l -0.02,-0.09 v -0.05 l 0.12,0.36 -0.03,-0.03 c -0.04,-0.12 -0.09,-0.24 -0.12,-0.36 v -0.02 l 0.12,0.34 v -0.03 c -0.07,-0.09 -0.12,-0.21 -0.14,-0.33 v -0.05 0 -0.03 -0.04 l -0.02,-0.1 v -0.02 -0.03 c 0,-0.21 0.09,-0.43 0.24,-0.6 l 0.02,-0.02 -0.24,0.62 v -0.02 c 0,-0.22 0.07,-0.43 0.24,-0.6 l 0.02,-0.03 -0.24,0.63 v -0.03 c 0,-0.16 0.03,-0.28 0.08,-0.4 l 0.02,-0.05 c 0.02,-0.07 0.1,-0.15 0.14,-0.22 l 0.03,-0.02 v 0 h 0.02 c 0.15,-0.17 0.36,-0.27 0.55,-0.27 h 0.03 l -0.82,0.87 v -0.03 c 0,-0.24 0.1,-0.45 0.24,-0.6 l 0.03,-0.02 v 0 -0.02 c 0.16,-0.17 0.38,-0.27 0.6,-0.27 h 0.02 l -0.6,0.27 0.02,-0.03 v 0 -0.02 0 h 0.03 v 0 l 0.02,-0.03 c 0.15,-0.16 0.36,-0.24 0.58,-0.26 h 0.02 v 0 0 l -0.57,0.26 v 0 c 0.09,-0.09 0.16,-0.14 0.24,-0.19 l 0.02,-0.02 c 0.05,0 0.1,-0.03 0.12,-0.03 l 0.05,-0.02 h -0.03 l 0.05,-0.02 h 0.07 l 0.08,-0.05 v 0 h 0.07 v 0 l 0.07,-0.03 v 0 h 0.05 c 0.07,-0.04 0.14,-0.04 0.21,-0.04 h 0.05 0.05 0.12 0.02 0.05 c 0.48,0 0.89,0.38 0.89,0.86 0,0.48 -0.41,0.86 -0.89,0.86 h -0.05 -0.02 -0.12 -0.05 -0.05 0.22 -0.07 v 0 l -0.05,0.03 h -0.02 -0.08 v 0 l -0.04,0.02 0.04,-0.02 -0.04,0.02 0.02,-0.02 -0.05,0.02 0.12,-0.05 -0.05,0.03 0.22,-0.15 v 0.03 c -0.17,0.14 -0.41,0.24 -0.65,0.21 v 0 0 h -0.02 l 0.62,-0.21 h -0.02 v 0 l -0.03,0.02 v 0 0.03 0 h -0.02 c -0.17,0.16 -0.38,0.24 -0.6,0.24 h -0.02 l 0.62,-0.24 -0.02,0.02 v 0 l -0.03,0.02 0.29,-0.6 v 0.03 c -0.02,0.21 -0.12,0.45 -0.29,0.6 -0.17,0.14 -0.38,0.24 -0.62,0.21 h -0.03 l 0.65,-0.21 h -0.05 v 0 0.02 l 0.17,-0.21 v 0.02 l 0.07,-0.34 v 0.03 c 0,0.21 -0.09,0.41 -0.26,0.57 v 0 l 0.26,-0.57 v 0.02 c -0.02,0.22 -0.12,0.43 -0.26,0.58 h -0.02 l 0.26,-0.58 v 0.03 0.02 0.1 0.04 0.03 0 l -0.02,0.05 -0.05,-0.41 0.02,0.05 c 0.05,0.12 0.05,0.24 0.05,0.38 v 0.02 l -0.05,-0.38 v 0.02 c 0.05,0.15 0.07,0.27 0.05,0.39 v 0.05 0.09 l -0.02,0.03 -0.03,0.07 v 0.02 l 0.03,-0.09 v 0.02 c -0.1,0.41 -0.51,0.7 -0.94,0.6 -0.43,-0.07 -0.72,-0.48 -0.65,-0.91 0.07,-0.43 0.46,-0.72 0.89,-0.67 h 0.02 c 0.22,0.02 0.41,0.12 0.53,0.28 0.12,0.17 0.19,0.39 0.17,0.6 v 0.03 l -0.53,-0.84 h 0.03 c 0.4,0.14 0.62,0.6 0.45,1.01 v 0.02 c -0.12,0.38 -0.55,0.6 -0.93,0.48 -0.41,-0.1 -0.65,-0.5 -0.58,-0.91 0.07,-0.39 0.48,-0.67 0.86,-0.63 h 0.03 c 0.21,0.03 0.43,0.15 0.55,0.34 0.12,0.17 0.17,0.41 0.12,0.62 v 0.03 c -0.1,0.41 -0.5,0.65 -0.91,0.57 -0.43,-0.07 -0.7,-0.48 -0.63,-0.88 0.08,-0.41 0.46,-0.7 0.87,-0.65 h 0.02 c 0.24,0.02 0.43,0.17 0.55,0.36 0.15,0.21 0.17,0.45 0.1,0.69 v 0 c -0.17,0.39 -0.58,0.6 -0.98,0.48 -0.39,-0.12 -0.63,-0.55 -0.51,-0.96 0.12,-0.4 0.53,-0.64 0.91,-0.52 h 0.03 v 0 h 0.02 c 0.36,0.07 0.63,0.43 0.58,0.84 v 0 l -0.58,-0.84 v 0 0 l 0.03,0.02 c 0.04,0.02 0.12,0.02 0.16,0.05 v 0 L 258,754.56 v 0 l 0.1,0.02 h 0.02 c 0.36,0.15 0.55,0.53 0.43,0.92 -0.09,0.36 -0.48,0.6 -0.84,0.52 -0.38,-0.07 -0.65,-0.43 -0.6,-0.81 v -0.03 c 0.03,-0.19 0.12,-0.36 0.29,-0.48 0.14,-0.12 0.34,-0.19 0.53,-0.16 h 0.02 -0.07 0.26 c 0.29,0 0.51,0.16 0.6,0.43 0.1,0.24 0,0.53 -0.19,0.69 z"
         style="fill:#000000;fill-opacity:1;fill-rule:nonzero;stroke:none"
         transform="matrix(1.3333333,0,0,-1.3333333,0,1120.8)" />
    </g>
    <g
       id="g156">
      <path
         id="path156"
         d="m 257.3,753.7 v -0.05 l 0.05,0.17 -0.02,-0.05 c -0.03,-0.05 -0.05,-0.12 -0.07,-0.19 v -0.05 l 0.07,0.21 -0.03,-0.04 v 0 l -0.02,-0.05 v 0 l -0.02,-0.05 0.07,0.12 -0.03,-0.02 c -0.02,-0.05 -0.04,-0.08 -0.07,-0.12 l -0.07,-0.15 0.1,0.15 -0.03,-0.05 -0.07,-0.07 -0.05,-0.08 v 0 l -0.05,-0.07 c -0.02,-0.05 -0.04,-0.12 -0.07,-0.17 l -0.05,-0.21 0.05,0.14 -0.12,-0.26 0.05,0.09 -0.02,-0.04 -0.05,-0.05 -0.03,-0.03 v 0 -0.02 c -0.04,-0.05 -0.04,-0.07 -0.07,-0.12 v -0.05 l 0.19,0.29 -0.04,-0.02 c -0.12,-0.12 -0.22,-0.29 -0.24,-0.46 l -0.03,-0.1 0.05,0.15 -0.02,-0.05 -0.03,-0.07 v -0.07 0.07 -0.05 c -0.05,-0.07 -0.05,-0.14 -0.07,-0.24 v -0.05 l 0.02,0.19 v -0.09 l 0.08,0.19 -0.1,-0.14 c -0.14,-0.24 -0.14,-0.51 -0.02,-0.75 l 0.02,-0.05 c 0.14,-0.31 0.46,-0.5 0.79,-0.5 l 0.43,0.05 h 0.03 0.14 v 0 h 0.12 -0.07 0.38 -0.07 l 0.24,-0.03 0.07,-0.02 h 0.05 c 0.31,0 0.6,0.17 0.77,0.46 0.14,0.26 0.14,0.6 0,0.88 -0.17,0.27 -0.46,0.44 -0.77,0.44 h -0.05 0.05 -0.21 -0.08 -0.38 c -0.05,0 -0.1,-0.03 -0.12,-0.03 l -0.14,-0.02 v 0 l -0.15,-0.03 h 0.07 l -0.43,-0.04 h 0.19 -0.04 c -0.41,0.07 -0.8,-0.17 -0.89,-0.56 -0.1,-0.38 0.09,-0.79 0.45,-0.93 0.39,-0.17 0.82,0 1.01,0.36 l 0.07,0.14 c 0.03,0.07 0.05,0.15 0.08,0.22 l 0.02,0.07 c 0,0.05 0,0.14 0,0.19 v 0.05 l -0.02,-0.24 0.02,0.05 v 0.05 0.07 -0.07 0.07 l 0.02,0.09 0.03,0.12 -0.17,-0.4 0.02,0.04 c 0.08,0.08 0.12,0.17 0.15,0.29 l 0.02,0.05 -0.05,-0.07 0.03,0.02 v 0 l 0.02,0.03 -0.05,-0.1 0.03,0.05 c 0.02,0.05 0.05,0.09 0.07,0.17 l 0.07,0.28 0.03,0.05 0.04,0.19 -0.02,-0.09 0.02,0.07 v 0 0.05 -0.05 0.05 l 0.05,0.05 0.05,0.16 0.02,0.08 v 0.02 l 0.03,0.05 0.02,0.05 v 0 0.04 0 0.08 c 0.03,0.07 0.03,0.12 0,0.19 v 0.05 -0.2 0.05 c 0.03,0.07 0.03,0.15 0,0.22 v 0.05 c -0.05,0.31 -0.31,0.52 -0.62,0.52 -0.31,0 -0.58,-0.21 -0.63,-0.52 z"
         style="fill:#000000;fill-opacity:1;fill-rule:nonzero;stroke:none"
         transform="matrix(1.3333333,0,0,-1.3333333,0,1120.8)" />
    </g>
    <g
       id="g157">
      <path
         id="path157"
         d="m 243.62,737.04 0.24,-0.07 c 0.08,0 0.12,0 0.17,0 l 2.14,0.02 v 0 l 2.66,0.07 h -0.05 l 5.21,-0.14 h 0.03 l 2.25,-0.02 h 0.03 l 0.81,-0.03 v 0 l 3.12,-0.05 v 0 h 4.39 l -0.26,0.05 0.1,-0.02 c 0.07,-0.05 0.16,-0.05 0.26,-0.05 h 0.05 c 0.31,0 0.57,0.14 0.72,0.41 0.14,0.24 0.14,0.55 0,0.81 -0.15,0.27 -0.41,0.44 -0.72,0.44 h -0.05 l 0.26,-0.05 -0.09,0.02 c -0.1,0.03 -0.19,0.05 -0.29,0.05 l -4.39,-0.14 h 0.02 l -3.09,0.02 h -0.03 -0.81 v 0 l -2.28,0.02 v 0 l -5.21,0.05 h -0.03 l -2.64,-0.12 v 0 l -2.13,-0.07 h -0.05 l -0.26,-0.02 c -0.29,-0.05 -0.53,-0.29 -0.53,-0.58 -0.03,-0.26 0.17,-0.55 0.45,-0.6 z"
         style="fill:#000000;fill-opacity:1;fill-rule:nonzero;stroke:none"
         transform="matrix(1.3333333,0,0,-1.3333333,0,1120.8)" />
    </g>
    <g
       id="g158">
      <path
         id="path158"
         d="m 255.38,738.96 -0.12,0.05 v 0 l -0.12,0.07 -0.07,0.02 -0.09,0.03 v 0 l -0.12,0.05 v 0 l -0.12,0.04 -0.1,0.03 -0.14,0.05 0.07,-0.03 -0.1,0.03 h -0.05 l -0.14,0.02 h 0.02 l -0.12,0.02 v 0.03 h -0.14 l -0.1,0.02 -0.12,0.03 v 0 h -0.12 -0.07 -0.14 v 0 l -0.12,-0.03 v 0 h -0.12 0.02 -0.14 l -0.12,-0.02 -0.1,-0.03 0.1,0.03 -0.12,-0.03 c -0.07,0 -0.15,-0.02 -0.19,-0.02 l -0.34,-0.12 h -0.05 l -0.02,-0.02 h -0.03 -0.02 c -0.29,-0.12 -0.48,-0.41 -0.5,-0.7 v -0.02 l 0.31,0.57 -0.03,-0.02 0.2,0.12 h -0.03 l 0.34,0.05 h -0.03 c -0.21,0 -0.43,-0.08 -0.6,-0.22 -0.14,-0.14 -0.24,-0.36 -0.24,-0.55 v -0.05 l 0.51,0.72 h -0.05 c -0.07,-0.02 -0.14,-0.07 -0.19,-0.12 l -0.03,-0.02 v 0 h -0.02 c -0.17,-0.17 -0.29,-0.39 -0.31,-0.63 v -0.02 l 0.31,0.6 h -0.02 v 0 -0.03 c -0.2,-0.14 -0.32,-0.38 -0.32,-0.62 v -0.02 l 0.29,0.62 v -0.02 0 h -0.02 c -0.19,-0.17 -0.31,-0.39 -0.31,-0.63 v -0.05 0.03 0 -0.05 -0.02 l 0.12,0.4 -0.03,-0.02 c -0.07,-0.12 -0.12,-0.24 -0.12,-0.38 v 0 0 -0.03 -0.02 -0.05 0.05 -0.03 -0.02 -0.05 0.03 0 -0.05 -0.03 c -0.02,-0.14 0.03,-0.26 0.07,-0.4 l 0.03,-0.03 -0.1,0.41 v -0.02 0 -0.05 c 0,-0.24 0.1,-0.48 0.27,-0.65 v 0 l -0.15,0.22 0.03,-0.05 -0.12,0.45 v -0.02 c 0,-0.24 0.09,-0.48 0.28,-0.65 v -0.02 l -0.16,0.21 0.02,-0.04 -0.1,0.48 v -0.03 c -0.02,-0.26 0.08,-0.5 0.27,-0.67 l 0.02,-0.02 c 0.07,-0.05 0.15,-0.12 0.22,-0.15 l 0.05,-0.02 -0.39,0.36 v -0.03 c 0.07,-0.14 0.19,-0.26 0.31,-0.33 l 0.08,-0.03 -0.15,0.1 0.1,-0.1 c 0.05,-0.02 0.09,-0.04 0.14,-0.09 l 0.12,-0.05 v 0 l 0.1,-0.07 c 0.05,-0.03 0.09,-0.05 0.14,-0.07 l 0.12,-0.05 -0.12,0.07 0.12,-0.07 c 0.05,-0.05 0.12,-0.07 0.19,-0.1 l 0.15,-0.02 -0.22,0.07 0.12,-0.05 c 0.07,-0.05 0.15,-0.07 0.22,-0.09 l 0.14,-0.05 v 0 l 0.12,-0.03 v 0 l 0.12,-0.02 v 0 l 0.15,-0.02 c 0.04,-0.03 0.09,-0.05 0.12,-0.05 l 0.33,-0.03 h -0.05 l 0.27,-0.02 0.05,-0.02 0.76,-0.05 h 0.05 0.12 c 0.05,0 0.07,0 0.12,0.02 l 0.12,0.03 -0.12,-0.03 h 0.1 c 0.05,0 0.07,0 0.12,0.03 h 0.12 0.02 l 0.1,0.02 h -0.03 0.12 l 0.1,0.02 0.12,0.05 h 0.02 l 0.27,0.1 -0.27,-0.05 v 0 0 h 0.03 c 0.21,0 0.41,0.07 0.57,0.22 v 0 l -0.55,-0.22 h 0.03 c 0.19,0 0.4,0.1 0.55,0.22 l 0.02,0.02 v 0 h 0.03 v 0 0.02 l -0.56,-0.21 h 0.03 c 0.21,0 0.41,0.07 0.55,0.21 l 0.02,0.03 v 0 h 0.03 v 0 l 0.02,0.02 c 0.19,0.17 0.29,0.41 0.29,0.65 v 0.02 l -0.29,-0.64 0.03,0.02 h -0.03 0.03 c 0.21,0.17 0.31,0.41 0.31,0.67 v 0.03 l -0.31,-0.68 0.02,0.03 c 0.19,0.17 0.31,0.41 0.31,0.65 v 0.02 l -0.31,-0.67 0.02,0.02 c 0.2,0.17 0.29,0.41 0.29,0.65 v 0.02 0 0.03 0 0 0 0.02 l -0.29,-0.67 0.03,0.02 c 0.17,0.17 0.31,0.41 0.31,0.68 v 0 0 0.02 0 0.02 0 0.05 c 0,0.15 -0.05,0.29 -0.14,0.43 v 0.03 l 0.12,-0.43 v 0.02 0 0 0 0.05 c 0,0.24 -0.12,0.48 -0.32,0.65 l -0.02,0.02 v 0 h -0.02 l 0.31,-0.65 v 0.03 c 0,0.14 -0.05,0.31 -0.12,0.43 l -0.03,0.05 c -0.14,0.26 -0.43,0.43 -0.74,0.43 h -0.02 l 0.88,-0.89 v 0.05 c 0,0.24 -0.12,0.48 -0.31,0.65 l -0.02,0.02 v 0 h -0.03 v 0 0.02 0 l -0.02,0.03 v 0 h -0.02 v 0 l -0.03,0.02 c -0.14,0.15 -0.36,0.22 -0.57,0.22 v 0 l 0.57,-0.22 -0.05,0.03 h 0.03 l -0.03,0.02 c -0.07,0.05 -0.14,0.1 -0.24,0.12 l -0.02,0.02 0.22,-0.14 -0.03,0.02 c -0.09,0.08 -0.19,0.15 -0.33,0.2 h -0.03 l 0.15,-0.05 -0.1,0.05 c -0.05,0.02 -0.1,0.02 -0.17,0.04 l -0.09,0.03 v 0 l -0.12,0.05 h 0.04 l -0.09,0.02 h -0.05 l -0.12,0.05 h -0.1 l -0.07,0.05 h -0.05 -0.09 v 0 l -0.12,0.02 h -0.07 l -0.22,0.02 h -0.07 -0.1 c -0.33,0 -0.62,-0.16 -0.77,-0.43 -0.16,-0.26 -0.16,-0.62 0,-0.89 0.15,-0.26 0.44,-0.43 0.77,-0.43 h 0.1 -0.07 l 0.24,-0.02 h -0.08 0.12 v 0 l 0.12,-0.03 -0.02,0.03 0.1,-0.05 -0.1,0.05 0.12,-0.05 -0.05,0.02 0.1,-0.04 h 0.05 l 0.12,-0.05 v 0 l 0.09,-0.03 -0.14,0.08 0.09,-0.05 c 0.05,-0.03 0.1,-0.05 0.17,-0.07 h 0.03 l -0.32,0.16 0.03,-0.02 c 0.07,-0.05 0.14,-0.1 0.21,-0.14 h 0.05 l -0.21,0.12 v 0 0 l 0.02,-0.03 c 0.17,-0.14 0.36,-0.21 0.58,-0.19 v 0 l -0.56,0.19 0.03,-0.02 v 0 h 0.02 v 0 -0.03 0 l 0.03,-0.02 v 0 h 0.02 v 0 l 0.02,-0.02 -0.31,0.67 v -0.05 c 0,-0.24 0.1,-0.46 0.27,-0.6 0.16,-0.17 0.38,-0.26 0.6,-0.26 h 0.02 l -0.74,0.43 v -0.05 l -0.12,0.46 v -0.03 c 0,-0.26 0.12,-0.5 0.33,-0.67 v 0 0 l 0.03,-0.02 -0.32,0.67 v -0.05 0 0 0 -0.02 c 0,-0.17 0.05,-0.32 0.12,-0.44 l 0.03,-0.02 -0.12,0.43 v -0.05 0 -0.02 0 -0.02 0 0 l 0.29,0.64 V 738 c -0.2,-0.14 -0.32,-0.38 -0.32,-0.65 v -0.02 0 0 0 -0.03 0 -0.02 l 0.32,0.67 -0.03,-0.02 c -0.19,-0.17 -0.31,-0.41 -0.31,-0.65 v -0.02 l 0.31,0.67 -0.02,-0.03 c -0.19,-0.16 -0.31,-0.4 -0.31,-0.64 v -0.03 l 0.31,0.65 -0.03,-0.02 v 0 0 c -0.19,-0.17 -0.31,-0.41 -0.31,-0.68 v -0.02 l 0.31,0.67 -0.02,-0.02 v 0 h -0.02 v 0 l -0.03,-0.03 0.58,0.22 h -0.03 c -0.19,0 -0.4,-0.07 -0.55,-0.22 l -0.05,-0.02 h 0.03 -0.03 v 0 l -0.02,-0.02 0.58,0.21 h -0.03 c -0.21,0 -0.41,-0.07 -0.57,-0.21 h -0.03 l 0.58,0.19 h -0.03 v 0 0 c -0.12,0 -0.19,0 -0.28,-0.05 l -0.24,-0.07 h 0.02 l -0.12,-0.03 0.12,0.03 -0.1,-0.03 h -0.04 l -0.08,-0.02 v 0 h -0.09 0.12 -0.1 c -0.05,0 -0.09,0 -0.12,0 l -0.12,-0.02 0.12,0.02 h -0.12 l 0.07,-0.02 -0.76,0.07 0.04,-0.03 -0.24,0.03 -0.02,0.02 -0.34,0.03 0.12,-0.03 -0.12,0.05 v 0 l -0.14,0.02 v 0 l -0.14,0.03 v 0 l -0.12,0.05 0.21,-0.1 -0.12,0.05 c -0.07,0.05 -0.12,0.07 -0.21,0.09 l -0.15,0.03 0.24,-0.07 -0.12,0.07 c -0.05,0 -0.09,0.02 -0.12,0.05 l -0.14,0.04 0.14,-0.04 -0.12,0.04 v 0 l -0.12,0.08 0.12,-0.1 -0.09,0.1 c -0.03,0.02 -0.08,0.04 -0.12,0.07 l -0.08,0.05 0.32,-0.32 -0.03,0.05 c -0.09,0.15 -0.24,0.27 -0.41,0.34 h -0.02 l 0.19,-0.12 v 0.02 l 0.31,-0.6 v 0.03 c 0,0.12 -0.04,0.26 -0.12,0.38 l -0.02,0.02 c -0.05,0.08 -0.12,0.15 -0.19,0.22 h -0.03 l 0.32,-0.6 v 0.02 c 0,0.15 -0.05,0.27 -0.12,0.39 l -0.03,0.05 c -0.05,0.07 -0.12,0.14 -0.19,0.21 l -0.02,0.03 0.33,-0.65 v 0.05 0 0.02 c 0,0.14 -0.07,0.29 -0.14,0.43 l -0.03,0.03 0.15,-0.44 -0.03,0.03 v 0.05 0 -0.03 0.05 0.02 0.03 -0.05 0.05 0.02 0.03 0 0 l -0.09,-0.46 0.02,0.05 c 0.07,0.12 0.12,0.26 0.1,0.41 v 0.02 0.05 0 -0.03 0.05 l -0.27,-0.62 h 0.03 v 0 l 0.02,0.02 c 0.17,0.17 0.27,0.39 0.24,0.63 v 0.02 l -0.24,-0.62 v 0.02 0 l 0.03,0.02 c 0.16,0.15 0.26,0.39 0.26,0.63 v 0.02 l -0.26,-0.62 0.02,0.02 v 0 l 0.02,0.03 -0.21,-0.15 0.02,0.03 c 0.31,0.12 0.48,0.43 0.48,0.74 v 0.05 l -0.77,-0.84 h 0.03 c 0.09,0 0.19,0.02 0.29,0.07 h 0.04 c 0.08,0.05 0.15,0.1 0.2,0.17 h 0.02 c 0.19,0.17 0.26,0.41 0.26,0.65 v 0.02 l -0.48,-0.79 0.05,0.02 v 0 l 0.03,0.03 -0.03,-0.03 0.31,0.12 -0.12,-0.05 0.12,0.03 0.1,0.05 0.1,0.02 -0.12,-0.02 0.14,0.02 h 0.02 l 0.12,0.02 v 0 l 0.12,0.03 h -0.04 l 0.14,0.02 h -0.1 0.12 v 0 l 0.12,0.03 h -0.07 l 0.12,-0.03 v 0 h 0.12 v 0 l 0.15,-0.02 h -0.03 0.1 0.02 0.12 -0.09 0.12 v 0 l 0.12,-0.05 v 0 h 0.12 -0.08 l 0.1,-0.02 v 0 l 0.12,-0.05 c 0.31,-0.1 0.65,0.05 0.79,0.36 0.12,0.29 0,0.65 -0.29,0.79 z"
         style="fill:#000000;fill-opacity:1;fill-rule:nonzero;stroke:none"
         transform="matrix(1.3333333,0,0,-1.3333333,0,1120.8)" />
    </g>
    <g
       id="g159">
      <path
         id="path159"
         d="m 245.18,725.04 0.03,-0.02 c 0.09,-0.1 0.21,-0.17 0.33,-0.22 l 0.15,-0.05 0.09,-0.02 0.15,-0.03 v 0 l 0.12,-0.02 -0.12,0.02 0.14,-0.04 c 0.05,-0.03 0.1,-0.03 0.15,-0.03 l 0.14,-0.02 h 0.12 l 0.34,-0.03 h 0.02 l 1.1,0.03 h 0.05 l 0.63,0.02 v 0 l 1.7,0.05 h 0.02 l 0.24,0.05 c 0.32,0 0.6,0.19 0.72,0.5 0.17,0.29 0.12,0.63 -0.07,0.89 -0.17,0.26 -0.48,0.41 -0.81,0.36 h -0.22 0.02 l -1.68,-0.1 h -0.02 l -0.65,-0.07 h 0.03 l -1.13,-0.05 h 0.05 -0.34 0.1 l -0.17,0.03 0.12,-0.05 -0.12,0.05 -0.12,0.02 h -0.15 v 0 l -0.12,0.03 0.12,-0.03 -0.14,0.05 0.26,-0.12 h -0.04 c -0.34,0.24 -0.8,0.17 -1.06,-0.12 -0.26,-0.31 -0.26,-0.77 0.02,-1.08 z"
         style="fill:#000000;fill-opacity:1;fill-rule:nonzero;stroke:none"
         transform="matrix(1.3333333,0,0,-1.3333333,0,1120.8)" />
    </g>
    <g
       id="g160">
      <path
         id="path160"
         d="m 244.1,731.95 0.05,-0.17 v 0 l 0.1,-0.5 v -0.05 l 0.09,-0.36 v 0.05 l 0.15,-0.96 v 0.07 l 0.07,-1.2 v 0.05 l 0.02,-1.8 v -0.05 l 0.03,-0.93 c 0,-0.03 0.02,-0.08 0.02,-0.12 l 0.03,-0.1 c 0.07,-0.36 0.45,-0.6 0.84,-0.5 0.36,0.07 0.6,0.45 0.5,0.81 l -0.02,0.1 0.02,-0.12 -0.05,0.93 v -0.02 l -0.02,1.8 v 0.05 l -0.07,1.17 v 0.08 l -0.17,0.98 v 0.05 l -0.1,0.36 v 0 l -0.12,0.5 -0.02,0.05 -0.03,0.17 c -0.12,0.36 -0.48,0.55 -0.81,0.45 -0.36,-0.09 -0.55,-0.43 -0.51,-0.79 z"
         style="fill:#000000;fill-opacity:1;fill-rule:nonzero;stroke:none"
         transform="matrix(1.3333333,0,0,-1.3333333,0,1120.8)" />
    </g>
    <g
       id="g161">
      <path
         id="path161"
         d="m 245.45,732.38 -0.07,0.17 c -0.15,0.29 -0.44,0.43 -0.72,0.36 -0.29,-0.05 -0.53,-0.29 -0.56,-0.6 -0.02,-0.26 0.15,-0.55 0.44,-0.67 l 0.36,-0.12 0.04,-0.02 0.08,-0.03 c 0.07,-0.02 0.12,-0.02 0.19,-0.02 l 0.12,-0.03 -0.07,0.03 0.16,-0.05 -0.02,0.02 0.12,-0.02 0.12,-0.02 h 0.12 v 0 l 0.14,-0.03 0.12,0.03 h 0.12 v 0 l 0.36,0.04 v 0 l 0.44,0.05 h -0.08 l 4.16,0.1 v 0 l 3.98,0.07 h 0.02 l 1.61,0.07 h -0.02 l 2.47,-0.02 v 0 h 0.94 v 0 h 0.24 -0.03 0.31 v 0 l 0.94,-0.07 -0.1,0.02 0.2,-0.05 v 0 h 0.16 l 0.12,-0.02 h 0.2 0.04 l 0.41,0.02 h -0.02 0.45 -0.02 0.02 0.03 0.02 c 0.53,0 0.94,0.41 0.96,0.94 0,0.5 -0.43,0.96 -0.96,0.96 -0.5,0 -0.93,-0.41 -0.93,-0.94 v -0.02 c -0.03,-0.51 0.38,-0.94 0.91,-0.96 h 0.02 0.03 0.02 c 0.5,0 0.94,0.41 0.96,0.93 0,0.51 -0.41,0.94 -0.94,0.96 -0.5,0.03 -0.96,-0.38 -0.96,-0.91 v -0.02 l -0.02,-0.03 v -0.02 c 0,-0.5 0.41,-0.91 0.91,-0.96 h 0.03 l -0.58,0.24 h 0.02 l -0.33,0.72 v -0.05 c 0,-0.05 0.02,-0.12 0.02,-0.17 l 0.05,-0.21 v 0.29 l -0.1,-0.51 0.05,0.15 -0.02,-0.08 c -0.03,-0.07 -0.03,-0.12 -0.03,-0.19 l -0.12,-1.15 v -0.05 l -0.12,-2.85 v -0.1 l 0.05,-0.98 c 0,-0.08 0,-0.15 0.03,-0.2 l 0.09,-0.33 -0.02,0.02 0.05,-0.21 v 0.04 l 0.02,-0.14 c 0.02,-0.24 0.14,-0.43 0.31,-0.6 h 0.03 l -0.34,0.6 0.02,-0.12 c 0.05,-0.53 0.53,-0.91 1.06,-0.86 0.5,0.04 0.91,0.5 0.86,1.03 -0.04,0.5 -0.48,0.91 -1,0.89 l -1.28,-0.08 v 0 l -1.65,-0.12 h -0.03 l -1.1,-0.09 h 0.07 -0.09 v 0 h -0.08 c -0.36,0 -0.69,-0.17 -0.86,-0.48 -0.17,-0.31 -0.17,-0.7 0,-1.01 0.17,-0.29 0.5,-0.48 0.86,-0.48 h 0.08 v 0 h 0.09 0.07 l 1.13,0.12 v 0 l 1.66,0.12 h -0.03 l 1.28,0.1 c 0.26,0.02 0.52,0.16 0.69,0.38 0.17,0.22 0.24,0.5 0.17,0.79 l -0.02,0.12 c -0.05,0.22 -0.17,0.39 -0.32,0.53 h -0.02 l 0.31,-0.58 v 0.15 l -0.02,0.05 -0.05,0.24 v 0.07 l -0.1,0.33 0.03,-0.21 -0.05,1.01 v -0.08 l 0.12,2.86 v -0.07 l 0.12,1.17 -0.05,-0.16 0.03,0.07 c 0.02,0.05 0.02,0.09 0.02,0.14 l 0.07,0.48 c 0,0.12 0,0.22 0,0.34 l -0.05,0.21 v -0.19 0.05 c 0,0.26 -0.12,0.53 -0.33,0.72 h -0.03 c -0.19,0.17 -0.4,0.24 -0.64,0.24 h -0.03 c -0.53,-0.05 -0.91,-0.48 -0.89,-1.01 0,-0.5 0.44,-0.91 0.96,-0.91 0.51,0.02 0.94,0.43 0.94,0.96 v 0.02 0.03 0.02 c -0.05,0.53 -0.46,0.91 -0.96,0.91 h -0.02 -0.03 -0.02 c -0.53,-0.02 -0.94,-0.45 -0.91,-0.98 0.02,-0.5 0.43,-0.91 0.96,-0.91 0.52,0.02 0.93,0.43 0.93,0.96 v 0.02 c -0.02,0.53 -0.43,0.94 -0.96,0.94 h -0.02 -0.03 -0.02 -0.05 l -0.45,-0.05 h 0.02 l -0.41,-0.02 h 0.03 -0.2 0.1 l -0.19,0.02 v 0 h -0.17 -0.05 l -0.93,0.05 h -0.08 l -0.31,-0.03 h 0.03 -0.24 v 0 l -0.94,-0.02 v 0 h -2.47 -0.05 l -1.63,-0.1 h 0.02 l -3.98,-0.14 v 0 l -4.15,-0.17 h -0.08 l -0.45,-0.07 h 0.05 l -0.36,-0.05 h -0.05 l -0.15,-0.02 h 0.12 -0.14 v 0 h -0.12 0.1 -0.12 -0.03 l -0.14,0.02 h -0.12 -0.12 0.12 -0.1 -0.05 l -0.38,0.03 c -0.31,0 -0.6,-0.22 -0.67,-0.51 -0.07,-0.31 0.07,-0.62 0.36,-0.74 0.26,-0.17 0.6,-0.1 0.81,0.17 l 0.12,0.14 c 0.08,0.12 0.1,0.26 0.03,0.38 z"
         style="fill:#000000;fill-opacity:1;fill-rule:nonzero;stroke:none"
         transform="matrix(1.3333333,0,0,-1.3333333,0,1120.8)" />
    </g>
    <g
       id="g162">
      <path
         id="path162"
         d="m 248.33,702.89 0.19,0.05 0.1,0.04 1.32,0.68 v 0 l 0.96,0.45 h -0.03 l 1.71,0.84 h 0.02 l 0.6,0.31 h 0.02 l 1.56,0.84 v 0 l 1.61,0.87 -0.02,-0.03 0.45,0.24 -0.07,-0.02 1.03,0.43 -0.12,-0.05 0.29,0.1 c 0.07,0.02 0.17,0.05 0.22,0.1 l 0.31,0.16 c 0.07,0.05 0.12,0.1 0.17,0.12 l 0.07,0.08 -0.29,-0.2 0.05,0.03 c 0.02,0.02 0.07,0.05 0.12,0.07 l 0.05,0.02 v 0 l 0.05,0.03 -0.1,-0.05 0.02,0.02 c 0.05,0 0.08,0.03 0.12,0.05 l 0.05,0.05 -0.26,-0.12 0.14,0.02 c 0.1,0.03 0.19,0.08 0.29,0.12 l 0.12,0.1 -0.14,-0.1 0.04,0.05 c 0.51,0.19 0.77,0.77 0.58,1.27 -0.19,0.53 -0.74,0.82 -1.27,0.65 -0.53,-0.14 -0.84,-0.67 -0.72,-1.22 l 0.05,-0.15 -0.03,0.03 0.15,-0.63 v 0 l 0.33,-1.87 v 0.05 l 0.39,-2.74 -0.03,0.15 v -0.15 0 -0.07 c 0,-0.57 0.48,-1.05 1.03,-1.05 0.58,0 1.06,0.48 1.06,1.05 v 0.07 0 0.15 c 0,0.05 0,0.09 -0.02,0.14 l -0.36,2.71 -0.03,0.05 -0.36,1.9 v 0.02 l -0.12,0.65 v 0.02 l -0.05,0.17 c -0.07,0.34 -0.36,0.6 -0.67,0.72 -0.36,0.12 -0.72,0.05 -0.98,-0.19 l -0.05,-0.05 -0.05,-0.05 -0.12,-0.07 0.43,0.24 -0.12,-0.05 c -0.12,-0.02 -0.19,-0.07 -0.26,-0.12 l -0.07,-0.02 0.09,0.05 -0.02,-0.03 -0.12,-0.04 -0.05,-0.05 v 0 l -0.05,-0.03 0.1,0.05 -0.05,-0.02 c -0.07,-0.03 -0.17,-0.1 -0.24,-0.17 l -0.05,-0.05 0.17,0.12 -0.33,-0.19 0.24,0.12 -0.29,-0.1 -0.1,-0.02 -1.03,-0.46 -0.07,-0.04 -0.46,-0.24 v -0.03 l -1.56,-0.89 v 0 l -1.56,-0.86 0.03,0.02 -0.6,-0.31 v 0 l -1.68,-0.91 v 0 l -0.94,-0.53 v 0 l -1.3,-0.74 v -0.03 l -0.16,-0.09 c -0.36,-0.22 -0.48,-0.65 -0.32,-1.03 0.17,-0.36 0.6,-0.56 0.99,-0.41 z"
         style="fill:#000000;fill-opacity:1;fill-rule:nonzero;stroke:none"
         transform="matrix(1.3333333,0,0,-1.3333333,0,1120.8)" />
    </g>
    <g
       id="g163">
      <path
         id="path163"
         d="m 248.16,702.36 1.8,-0.14 c 0.05,0 0.1,0 0.12,0 l 1.78,0.09 h 0.04 l 0.65,0.07 h -0.05 l 0.7,0.05 v 0 l 2.38,0.17 h -0.05 l 1.53,0.02 h 0.05 l 0.55,0.05 -0.04,-0.02 0.81,0.02 h -0.07 l 1.03,-0.05 -0.24,0.05 0.05,-0.02 c 0.55,-0.19 1.15,0.14 1.32,0.69 0.19,0.56 -0.12,1.18 -0.7,1.32 l -0.04,0.05 c -0.1,0 -0.2,0.03 -0.27,0.05 l -1.03,0.02 h -0.1 -0.81 l -0.05,-0.02 -0.55,-0.02 h 0.05 l -1.54,-0.05 h -0.05 l -2.4,-0.22 h 0.03 l -0.7,-0.05 h -0.02 l -0.65,-0.07 h 0.05 l -1.76,-0.12 v 0 l -1.8,-0.09 c -0.45,-0.03 -0.84,-0.41 -0.84,-0.87 0,-0.48 0.36,-0.86 0.82,-0.91 z"
         style="fill:#000000;fill-opacity:1;fill-rule:nonzero;stroke:none"
         transform="matrix(1.3333333,0,0,-1.3333333,0,1120.8)" />
    </g>
    <g
       id="g164">
      <path
         id="path164"
         d="m 246.91,709.03 -0.02,-0.6 v -0.07 l 0.12,-1.39 v -0.03 l 0.17,-1.51 v 0 l 0.16,-1.49 v 0.12 -0.5 0 -0.07 c 0,-0.34 0.17,-0.63 0.44,-0.79 0.28,-0.17 0.64,-0.17 0.93,0 0.27,0.16 0.43,0.45 0.43,0.79 v 0.07 0 0.5 0.1 l -0.16,1.46 v 0 l -0.22,1.54 v 0 l -0.17,1.37 v -0.03 l -0.05,0.58 c -0.04,0.43 -0.4,0.77 -0.84,0.74 -0.45,0 -0.79,-0.36 -0.79,-0.79 z"
         style="fill:#000000;fill-opacity:1;fill-rule:nonzero;stroke:none"
         transform="matrix(1.3333333,0,0,-1.3333333,0,1120.8)" />
    </g>
    <g
       id="g165">
      <path
         id="path165"
         d="m 247.44,708.36 0.34,-0.17 c 0.07,-0.02 0.14,-0.05 0.21,-0.07 l 0.22,-0.02 -0.29,0.09 0.19,-0.09 c 0.07,-0.03 0.12,-0.08 0.19,-0.08 l 0.22,-0.07 -0.12,0.05 0.19,-0.07 -0.05,0.02 0.48,-0.26 -0.04,0.02 0.21,-0.12 0.1,-0.05 0.24,-0.09 v 0 l 0.24,-0.1 0.05,-0.02 0.5,-0.17 h 0.02 l 1.9,-0.65 -0.05,0.03 1.23,-0.51 -0.27,0.19 0.12,-0.12 c 0.22,-0.19 0.55,-0.26 0.87,-0.19 0.28,0.12 0.52,0.36 0.6,0.67 0.07,0.32 -0.03,0.65 -0.27,0.84 l -0.12,0.12 c -0.07,0.08 -0.17,0.12 -0.26,0.17 l -1.27,0.48 -0.03,0.03 -1.92,0.57 v 0 l -0.48,0.17 h 0.03 l -0.24,0.07 v 0 l -0.24,0.1 0.09,-0.05 -0.21,0.12 -0.03,0.02 -0.53,0.24 -0.07,0.03 -0.17,0.07 c -0.04,0.02 -0.09,0.02 -0.12,0.02 l -0.24,0.05 0.22,-0.07 -0.19,0.1 c -0.1,0.04 -0.19,0.07 -0.29,0.07 l -0.22,0.02 0.12,-0.02 -0.36,0.09 c -0.36,0.1 -0.76,-0.12 -0.91,-0.5 -0.12,-0.36 0.05,-0.79 0.41,-0.96 z"
         style="fill:#000000;fill-opacity:1;fill-rule:nonzero;stroke:none"
         transform="matrix(1.3333333,0,0,-1.3333333,0,1120.8)" />
    </g>
    <g
       id="g166">
      <path
         id="path166"
         d="m 251.66,713.59 0.08,-0.19 0.04,-0.07 0.32,-0.58 -0.03,0.07 0.82,-1.72 -0.03,0.04 0.41,-1 v 0.02 l 0.55,-1.44 0.03,-0.07 0.36,-0.82 -0.07,0.19 0.02,-0.12 c 0.1,-0.48 0.58,-0.81 1.1,-0.72 0.51,0.1 0.84,0.58 0.77,1.08 l -0.02,0.1 c -0.03,0.07 -0.05,0.14 -0.07,0.24 l -0.39,0.84 0.03,-0.05 -0.56,1.44 v 0.03 l -0.4,1 -0.03,0.05 -0.84,1.71 -0.05,0.09 -0.36,0.55 v 0 l -0.12,0.2 c -0.24,0.4 -0.76,0.52 -1.17,0.31 -0.43,-0.22 -0.58,-0.75 -0.39,-1.18 z"
         style="fill:#000000;fill-opacity:1;fill-rule:nonzero;stroke:none"
         transform="matrix(1.3333333,0,0,-1.3333333,0,1120.8)" />
    </g>
    <g
       id="g167">
      <path
         id="path167"
         d="m 257.18,714.43 0.08,-1.99 v -0.07 l 0.09,-0.75 v 0 l 0.15,-1.29 0.02,-0.05 0.31,-1.94 0.03,-0.1 0.02,-0.07 v 0 -0.05 c 0.14,-0.53 0.67,-0.84 1.2,-0.7 0.5,0.15 0.82,0.68 0.67,1.2 v 0.05 0 l -0.05,0.07 0.05,-0.07 -0.36,1.92 0.03,-0.05 -0.17,1.32 v 0 l -0.1,0.75 v -0.03 l -0.24,2 c -0.07,0.45 -0.48,0.79 -0.93,0.76 -0.46,-0.04 -0.82,-0.43 -0.8,-0.91 z"
         style="fill:#000000;fill-opacity:1;fill-rule:nonzero;stroke:none"
         transform="matrix(1.3333333,0,0,-1.3333333,0,1120.8)" />
    </g>
    <g
       id="g168">
      <path
         id="path168"
         d="m 257.5,713.83 0.09,-0.07 c 0.07,-0.05 0.17,-0.1 0.29,-0.12 l 1.1,-0.29 0.1,-0.02 1.56,-0.27 c 0.05,-0.02 0.12,-0.02 0.14,-0.02 h 0.12 l -0.33,0.07 0.09,-0.05 c 0.05,0 0.1,-0.02 0.17,-0.02 l 0.07,-0.02 0.05,-0.03 h 0.1 l -0.34,0.12 0.1,-0.07 c 0.07,-0.02 0.09,-0.05 0.17,-0.07 l 0.24,-0.07 h -0.03 l 0.36,-0.15 -0.24,0.15 0.1,-0.08 -0.27,1.3 -0.04,-0.07 0.52,0.45 -0.31,-0.09 0.05,0.02 -0.72,-0.26 -0.1,-0.03 -0.24,-0.12 h -0.04 l -0.24,-0.12 v -0.02 l -0.56,-0.26 -0.02,-0.03 -1.37,-0.72 -0.07,-0.05 -0.1,-0.04 0.17,0.09 -0.12,-0.07 v 0 l -0.33,-0.14 0.14,0.04 -0.07,-0.02 c -0.55,-0.17 -0.87,-0.77 -0.7,-1.32 0.17,-0.55 0.77,-0.86 1.32,-0.7 h 0.05 c 0.05,0.03 0.1,0.05 0.14,0.08 l 0.34,0.14 v 0 l 0.12,0.05 c 0.05,0.02 0.1,0.07 0.14,0.09 l 0.1,0.05 -0.12,-0.05 1.37,0.72 h -0.03 l 0.53,0.29 v -0.02 l 0.24,0.14 -0.05,-0.05 0.24,0.12 -0.07,-0.02 0.75,0.24 0.04,0.02 0.29,0.12 c 0.29,0.12 0.51,0.36 0.6,0.65 l 0.03,0.07 c 0.16,0.48 -0.08,1.04 -0.53,1.28 l -0.12,0.04 -0.1,0.05 -0.38,0.12 v 0 l -0.24,0.1 0.14,-0.07 -0.09,0.04 c -0.1,0.05 -0.22,0.1 -0.34,0.12 h -0.12 0.02 l -0.07,0.03 0.17,-0.05 -0.1,0.02 c -0.12,0.05 -0.24,0.08 -0.36,0.08 h -0.12 l 0.17,-0.03 -1.61,0.22 h 0.05 l -1.15,0.19 0.12,-0.02 -0.12,0.02 c -0.43,0.12 -0.89,-0.1 -1.08,-0.48 -0.17,-0.41 -0.05,-0.89 0.34,-1.13 z"
         style="fill:#000000;fill-opacity:1;fill-rule:nonzero;stroke:none"
         transform="matrix(1.3333333,0,0,-1.3333333,0,1120.8)" />
    </g>
    <g
       id="g169">
      <path
         id="path169"
         d="m 251.9,714.74 -0.02,-0.02 c -0.1,-0.07 -0.17,-0.14 -0.22,-0.24 l -0.07,-0.12 0.07,0.07 -0.48,-0.55 -0.02,-0.07 -0.1,-0.15 0.08,0.1 -0.12,-0.12 c -0.03,-0.05 -0.05,-0.07 -0.08,-0.12 l -0.24,-0.36 -0.04,-0.05 -0.17,-0.31 0.02,0.07 -0.29,-0.48 0.05,0.07 -0.24,-0.26 0.31,0.24 -0.24,-0.12 0.53,0.1 h -0.05 l 0.36,-0.1 -0.07,0.02 v 0 l -0.05,0.03 0.2,-0.12 -0.24,0.19 -0.08,0.07 -0.12,0.07 0.17,-0.14 -0.09,0.1 v 0 l -0.08,0.09 v -0.02 l -0.24,0.26 -0.07,0.05 -0.12,0.12 0.05,-0.05 -0.12,0.12 -0.05,0.05 -0.14,0.12 -0.07,0.05 -0.15,0.09 v 0 l -0.12,0.12 c -0.05,0.03 -0.09,0.05 -0.14,0.1 l -0.41,0.22 -0.02,0.02 h -0.03 l -0.05,0.02 -0.04,0.03 c -0.36,0.17 -0.8,0.14 -1.11,-0.1 -0.33,-0.24 -0.53,-0.62 -0.48,-1.03 0.03,-0.38 0.29,-0.72 0.65,-0.89 l 0.05,-0.02 0.05,-0.03 0.04,-0.02 -0.12,0.05 0.41,-0.22 -0.07,0.05 0.14,-0.1 v 0 l 0.17,-0.09 -0.07,0.05 0.14,-0.1 -0.04,0.02 0.12,-0.12 0.09,-0.02 0.12,-0.12 -0.12,0.12 0.27,-0.26 0.04,-0.05 0.1,-0.07 v 0 l 0.1,-0.1 c 0.04,-0.05 0.09,-0.07 0.16,-0.1 l 0.12,-0.07 -0.12,0.07 0.24,-0.19 c 0.08,-0.05 0.15,-0.07 0.22,-0.12 l 0.05,-0.02 v 0 l 0.07,-0.03 c 0.14,-0.07 0.34,-0.09 0.5,-0.07 h 0.05 c 0.34,0.03 0.63,0.22 0.79,0.51 l 0.17,0.26 -0.05,-0.1 0.2,0.29 0.04,0.07 0.29,0.48 0.03,0.05 0.16,0.31 -0.02,-0.07 0.22,0.39 -0.03,-0.08 0.1,0.17 c 0.02,0.03 0.05,0.05 0.07,0.1 l 0.1,0.14 -0.05,-0.05 0.41,0.63 0.04,0.07 0.08,0.14 c 0.07,0.17 0.09,0.36 0.07,0.58 l -0.03,0.02 c -0.04,0.29 -0.24,0.51 -0.52,0.6 -0.27,0.1 -0.56,0.05 -0.8,-0.12 z"
         style="fill:#000000;fill-opacity:1;fill-rule:nonzero;stroke:none"
         transform="matrix(1.3333333,0,0,-1.3333333,0,1120.8)" />
    </g>
    <g
       id="g170">
      <path
         id="path170"
         d="m 252.84,713.71 0.22,0.1 -0.24,-0.05 h 0.33 l -0.17,0.02 0.27,-0.07 c 0.31,-0.07 0.65,0.05 0.86,0.29 0.22,0.24 0.29,0.6 0.17,0.89 -0.1,0.31 -0.38,0.55 -0.7,0.57 v 0 l 0.72,-0.96 0.05,0.17 c 0,0.12 0,0.24 -0.05,0.34 l -0.07,0.31 c 0,0.05 -0.02,0.1 -0.05,0.12 l -0.04,0.12 -0.03,0.05 -0.05,0.09 v 0 l -0.04,0.1 c 0,0.02 -0.03,0.07 -0.08,0.12 l -0.04,0.1 -0.03,0.02 -0.19,0.24 -0.02,0.02 -0.12,0.17 c -0.05,0.05 -0.1,0.1 -0.15,0.12 l -0.45,0.36 0.09,-0.07 -0.12,0.14 c -0.05,0.03 -0.09,0.05 -0.12,0.1 l -0.14,0.1 0.09,-0.1 -0.12,0.12 h 0.03 l -0.29,0.26 0.07,-0.07 -0.21,0.24 -0.08,0.1 -0.04,0.07 c -0.03,0.02 -0.08,0.05 -0.12,0.07 l -0.08,0.07 0.32,-0.38 -0.03,0.07 c -0.02,0.05 -0.05,0.12 -0.09,0.17 l -0.08,0.07 v 0 l -0.04,0.07 0.12,-0.19 -0.03,0.07 v 0 l -0.05,0.1 v 0 l -0.04,0.05 0.04,-0.1 -0.07,0.19 0.03,-0.12 -0.03,0.15 v 0 l -0.02,0.14 0.02,-0.12 -0.02,0.12 v -0.02 l -0.03,0.14 0.03,-0.17 v 0.15 0 0.14 0 0.12 0 0.15 0 0.14 l -0.03,-0.29 0.03,0.12 v 0 l 0.05,0.15 c 0,0.04 0,0.09 0.02,0.14 l 0.02,0.14 -0.09,-0.31 0.05,0.12 c 0.02,0.05 0.04,0.1 0.07,0.17 l 0.05,0.14 -0.08,-0.19 0.05,0.12 -0.02,-0.05 0.19,0.34 0.02,0.07 0.08,0.12 -0.1,-0.14 0.07,0.09 -0.05,-0.04 0.08,0.09 v 0 l 0.09,0.1 -0.17,-0.17 0.08,0.07 v 0 l 0.09,0.1 0.07,0.07 0.1,0.1 -0.17,-0.15 0.12,0.07 c 0.03,0 0.05,0.05 0.07,0.08 l 0.1,0.09 -0.1,-0.07 0.1,0.05 -0.07,-0.05 0.09,0.07 0.1,0.05 0.1,0.07 -0.2,-0.12 0.1,0.05 v 0 l 0.12,0.05 h -0.05 l 0.12,0.02 c 0.05,0.03 0.07,0.05 0.12,0.07 l 0.1,0.05 -0.27,-0.09 0.15,0.02 0.05,0.02 0.09,0.03 h -0.05 l 0.36,0.07 h -0.07 l 0.19,0.02 -0.07,-0.02 0.17,0.02 h -0.1 0.2 v 0 h 0.21 v 0 h 0.17 -0.1 l 0.22,-0.02 h -0.02 0.16 -0.07 l 0.19,-0.02 v 0 l 0.2,-0.03 v 0 l 0.16,-0.05 -0.14,0.05 0.46,-0.14 h -0.03 l 0.19,-0.07 -0.12,0.04 0.17,-0.07 v 0 l 0.17,-0.09 v 0 l 0.17,-0.1 -0.12,0.07 0.14,-0.07 0.05,-0.05 0.17,-0.09 -0.1,0.04 0.36,-0.26 -0.12,0.1 0.19,-0.2 0.08,-0.07 0.21,-0.17 -0.12,0.12 0.17,-0.19 -0.02,0.05 0.16,-0.22 v 0 l 0.17,-0.19 -0.02,0.03 0.17,-0.22 -0.08,0.12 0.12,-0.24 v 0.02 l 0.29,-0.5 -0.05,0.07 0.1,-0.19 -0.02,0.02 0.09,-0.19 v 0 l 0.07,-0.17 -0.04,0.1 0.04,-0.19 v -0.03 l 0.08,-0.19 -0.03,0.12 0.05,-0.19 v 0 l 0.02,-0.22 -0.02,0.2 0.02,-0.2 v -0.09 -0.22 0.15 -0.56 -0.02 -0.17 l 0.03,0.24 -0.05,-0.19 0.02,0.02 -0.04,-0.14 v -0.02 l -0.08,-0.34 0.1,0.26 -0.05,-0.07 0.07,0.12 -0.02,-0.05 c -0.07,-0.12 -0.12,-0.21 -0.17,-0.36 v -0.04 l 0.15,0.33 -0.03,-0.05 c -0.07,-0.12 -0.12,-0.21 -0.17,-0.36 l -0.02,-0.04 0.31,0.5 -0.07,-0.05 c -0.12,-0.12 -0.22,-0.29 -0.26,-0.43 l -0.03,-0.05 0.17,0.31 -0.05,-0.07 -0.05,-0.05 -0.02,-0.07 0.14,0.17 -0.07,-0.05 h 0.03 l -0.12,-0.09 0.64,0.26 v 0 c -0.26,0 -0.48,-0.1 -0.67,-0.26 l -0.02,-0.03 c -0.22,-0.19 -0.31,-0.48 -0.31,-0.77 v -0.02 c 0,-0.58 0.5,-1.01 1.05,-1.01 0.55,0.03 1.01,0.48 1.01,1.06 -0.02,0.57 -0.48,1.03 -1.06,1.01 h -0.02 c -0.24,0 -0.5,-0.1 -0.7,-0.29 v -0.03 l 0.7,0.29 h -0.05 c -0.24,0 -0.5,-0.12 -0.67,-0.29 l -0.02,-0.02 0.64,0.31 v 0 h 0.03 -0.03 v 0 h -0.02 v 0 0 l -0.05,-0.02 v 0 h 0.05 -0.07 -0.03 -0.07 c -0.55,-0.03 -0.98,-0.46 -0.98,-1.01 0,-0.55 0.43,-1.01 0.98,-1.03 h 0.07 0.03 0.07 -0.05 v 0 h 0.05 v 0 0 h 0.02 v 0 h 0.03 -0.03 v 0 c 0.29,-0.03 0.53,0.07 0.72,0.24 l 0.03,0.02 -0.7,-0.24 h 0.05 c 0.24,-0.02 0.5,0.07 0.7,0.24 l 0.02,0.03 -0.72,-0.27 h 0.02 c 0.58,0 1.04,0.43 1.06,1.01 v 0.02 l -0.36,-0.74 h 0.02 l -0.72,-0.24 v 0 c 0.29,-0.02 0.56,0.07 0.75,0.26 l 0.12,0.1 h -0.03 l 0.08,0.05 c 0.04,0.05 0.09,0.09 0.14,0.14 l 0.02,0.05 -0.02,-0.05 0.05,0.07 c 0.07,0.1 0.14,0.2 0.19,0.29 v 0.05 l -0.26,-0.38 0.04,0.04 c 0.15,0.12 0.24,0.29 0.32,0.48 l 0.02,0.08 -0.17,-0.34 0.03,0.05 c 0.09,0.09 0.14,0.21 0.16,0.33 l 0.03,0.08 -0.17,-0.34 0.02,0.05 c 0.05,0.02 0.08,0.07 0.1,0.12 l 0.02,0.07 c 0.05,0.07 0.1,0.17 0.12,0.26 l 0.08,0.36 v -0.02 l 0.04,0.14 v 0.03 l 0.05,0.17 c 0,0.07 0,0.14 0,0.21 l 0.03,0.17 -0.03,-0.05 0.05,0.55 c 0,0.05 0,0.1 0,0.12 l -0.02,0.22 v -0.1 0.2 c 0,0.04 0,0.12 -0.03,0.16 l -0.02,0.22 v 0 l -0.03,0.22 -0.02,0.09 -0.07,0.19 0.02,-0.02 -0.07,0.22 -0.02,0.12 -0.08,0.16 v 0 l -0.07,0.22 -0.02,0.02 -0.1,0.22 -0.05,0.07 -0.26,0.53 v 0.02 l -0.14,0.22 c -0.03,0.02 -0.05,0.07 -0.08,0.12 l -0.14,0.22 -0.05,0.02 -0.17,0.22 v 0 l -0.14,0.21 -0.05,0.03 -0.17,0.19 c -0.02,0.02 -0.07,0.07 -0.12,0.12 l -0.19,0.17 0.07,-0.08 -0.16,0.2 c -0.05,0.02 -0.08,0.07 -0.12,0.09 l -0.36,0.29 -0.1,0.05 -0.17,0.12 0.05,-0.05 -0.14,0.12 c -0.03,0.02 -0.08,0.05 -0.12,0.07 l -0.17,0.1 v 0 l -0.17,0.07 v 0 l -0.17,0.07 c -0.05,0.03 -0.09,0.05 -0.12,0.07 l -0.19,0.05 -0.02,0.03 -0.48,0.14 c -0.05,0.02 -0.1,0.05 -0.15,0.05 l -0.19,0.02 v 0 l -0.17,0.05 h -0.02 l -0.22,0.05 h -0.07 l -0.17,0.02 v 0 h -0.21 -0.1 -0.17 v 0 h -0.21 v 0 h -0.2 -0.09 -0.19 l -0.08,-0.02 -0.21,-0.03 -0.07,-0.02 -0.36,-0.07 -0.08,-0.03 -0.09,-0.02 h 0.05 l -0.15,-0.05 c -0.09,0 -0.17,-0.05 -0.24,-0.09 l -0.09,-0.05 0.12,0.07 -0.12,-0.05 -0.08,-0.02 -0.12,-0.05 v 0 l -0.09,-0.07 c -0.07,-0.03 -0.15,-0.07 -0.19,-0.12 l -0.1,-0.05 0.07,0.05 -0.09,-0.07 -0.1,-0.05 -0.1,-0.07 c -0.02,-0.03 -0.04,-0.05 -0.07,-0.08 l -0.09,-0.09 0.09,0.07 -0.09,-0.07 c -0.08,-0.03 -0.12,-0.1 -0.17,-0.12 l -0.1,-0.12 0.07,0.07 -0.09,-0.07 v 0 l -0.07,-0.1 c -0.05,-0.02 -0.12,-0.09 -0.15,-0.14 l -0.07,-0.12 v 0 l -0.07,-0.1 -0.03,-0.05 -0.07,-0.07 c -0.02,-0.05 -0.05,-0.09 -0.07,-0.14 l -0.05,-0.12 0.03,0.07 -0.2,-0.36 -0.04,-0.07 -0.03,-0.12 c -0.05,-0.05 -0.05,-0.12 -0.07,-0.17 l -0.05,-0.14 0.07,0.16 -0.04,-0.12 c -0.05,-0.09 -0.08,-0.19 -0.1,-0.31 l -0.02,-0.12 0.04,0.12 -0.04,-0.12 v 0 l -0.03,-0.14 c -0.05,-0.1 -0.05,-0.19 -0.05,-0.29 v -0.14 0 -0.15 0 -0.12 0 -0.14 0 -0.15 c 0,-0.02 0.03,-0.09 0.03,-0.14 l 0.02,-0.12 v -0.02 l 0.03,-0.12 0.02,-0.12 0.02,-0.15 v 0 l 0.05,-0.12 0.05,-0.12 0.07,-0.19 c 0.03,-0.05 0.05,-0.1 0.07,-0.12 l 0.05,-0.1 v 0 l 0.03,-0.04 v 0 l 0.04,-0.08 c 0.03,-0.04 0.08,-0.12 0.12,-0.14 l 0.05,-0.07 v 0 l 0.05,-0.07 -0.1,0.16 0.03,-0.07 c 0.09,-0.14 0.21,-0.26 0.33,-0.36 l 0.08,-0.05 -0.12,0.1 0.07,-0.05 -0.1,0.07 0.22,-0.24 0.05,-0.04 0.28,-0.27 0.05,-0.05 0.12,-0.12 c 0.05,-0.02 0.07,-0.04 0.12,-0.07 l 0.15,-0.09 -0.1,0.09 0.12,-0.12 0.07,-0.05 0.46,-0.33 -0.07,0.07 0.14,-0.14 -0.07,0.07 0.19,-0.22 0.07,-0.07 0.07,-0.07 -0.07,0.09 0.07,-0.07 v 0 l 0.05,-0.07 -0.05,0.07 0.08,-0.12 -0.12,0.24 0.09,-0.31 -0.05,0.19 0.03,-0.17 c 0.02,-0.26 0.17,-0.48 0.36,-0.62 0.19,-0.14 0.45,-0.22 0.69,-0.17 v 0 c 0.39,0.07 0.68,0.34 0.75,0.72 0.05,0.36 -0.1,0.72 -0.43,0.91 -0.32,0.22 -0.72,0.2 -1.01,-0.04 l -0.22,-0.17 0.34,0.14 -0.34,-0.07 c -0.07,0 -0.14,-0.02 -0.21,-0.07 l -0.22,-0.1 c -0.34,-0.19 -0.46,-0.6 -0.29,-0.93 0.15,-0.34 0.55,-0.51 0.89,-0.39 z"
         style="fill:#000000;fill-opacity:1;fill-rule:nonzero;stroke:none"
         transform="matrix(1.3333333,0,0,-1.3333333,0,1120.8)" />
    </g>
    <g
       id="g171">
      <path
         id="path171"
         d="m 251.76,718.82 0.22,-0.04 c 0.04,-0.03 0.12,-0.03 0.19,-0.03 l 0.24,0.05 h -0.1 l 0.07,-0.02 c 0.05,0 0.1,0 0.15,0.02 h 0.07 -0.14 0.09 v 0 h 0.07 v 0 l 0.08,-0.02 h -0.03 l 0.19,-0.03 h 0.03 l 0.36,-0.02 h 0.02 l 0.07,-0.03 v 0 h 0.08 l -0.15,0.05 0.07,-0.05 c 0.05,0 0.12,0 0.17,0 h 0.07 -0.16 0.07 v 0 l 0.07,-0.02 h -0.02 l 0.16,-0.05 0.1,-0.02 0.12,-0.03 -0.14,0.05 0.12,-0.05 v 0 l 0.09,-0.04 v 0.02 l 0.12,-0.07 -0.17,0.09 0.1,-0.07 c 0.05,-0.02 0.1,-0.05 0.14,-0.07 l 0.1,-0.05 -0.14,0.07 0.12,-0.07 0.07,-0.05 0.09,-0.04 -0.07,0.04 0.07,-0.07 v 0 l 0.12,-0.07 -0.07,0.05 0.22,-0.22 h -0.03 l 0.12,-0.09 v -0.03 l 0.12,-0.12 -0.07,0.07 0.1,-0.12 v 0 l 0.09,-0.14 -0.02,0.02 0.1,-0.14 v 0.02 l 0.16,-0.28 -0.04,0.09 0.07,-0.19 c 0.02,-0.05 0.05,-0.1 0.07,-0.12 l 0.1,-0.19 v 0 l 0.12,-0.17 v 0 l 0.24,-0.36 0.09,-0.1 0.48,-0.5 -0.05,0.02 0.1,-0.12 0.02,-0.02 0.08,-0.1 -0.05,0.1 0.17,-0.29 h 0.02 l 0.22,-0.31 0.07,-0.1 0.29,-0.31 0.04,-0.07 0.05,-0.02 c 0.31,-0.27 0.77,-0.24 1.03,0.04 0.24,0.29 0.24,0.75 -0.04,1.01 l -0.03,0.05 0.03,-0.05 -0.29,0.34 0.07,-0.07 -0.24,0.33 v 0 l -0.17,0.27 -0.07,0.04 -0.07,0.1 0.02,-0.02 -0.07,0.12 -0.05,0.04 -0.48,0.53 0.07,-0.07 -0.24,0.36 v -0.02 l -0.12,0.16 v 0 l -0.12,0.17 0.08,-0.12 -0.08,0.17 -0.04,0.12 -0.15,0.29 -0.02,0.02 -0.1,0.15 v 0.02 l -0.12,0.14 v 0 l -0.09,0.12 c 0,0.05 -0.03,0.1 -0.08,0.12 l -0.12,0.12 v 0 l -0.12,0.12 v 0.03 l -0.24,0.21 -0.07,0.08 -0.12,0.07 v 0.02 l -0.09,0.07 -0.08,0.05 -0.12,0.05 0.1,-0.05 -0.1,0.05 c -0.04,0.02 -0.07,0.07 -0.12,0.07 l -0.12,0.07 0.12,-0.07 -0.07,0.05 c -0.07,0.05 -0.12,0.07 -0.17,0.1 l -0.14,0.04 h -0.02 l -0.08,0.05 v 0 L 254.3,720 c -0.04,0 -0.12,0.02 -0.16,0.05 h -0.12 l 0.12,-0.03 -0.17,0.05 -0.07,0.03 h -0.08 v 0 l -0.07,0.02 c -0.07,0 -0.12,0 -0.17,0 h -0.07 0.15 -0.08 c -0.04,0.02 -0.09,0.02 -0.16,0.02 h -0.08 v 0 l -0.07,-0.02 h 0.05 -0.38 0.04 l -0.19,0.02 h -0.09 -0.08 v 0 h -0.07 v 0 l -0.09,-0.02 c -0.05,0 -0.1,0 -0.15,0 l -0.07,-0.05 0.14,0.05 h -0.07 l -0.09,-0.02 -0.24,-0.05 h 0.09 -0.21 c -0.32,0 -0.56,-0.27 -0.6,-0.58 -0.03,-0.31 0.19,-0.6 0.5,-0.65 z"
         style="fill:#000000;fill-opacity:1;fill-rule:nonzero;stroke:none"
         transform="matrix(1.3333333,0,0,-1.3333333,0,1120.8)" />
    </g>
    <g
       id="g172">
      <path
         id="path172"
         d="m 245.38,672.86 v -0.24 c 0,-0.07 0,-0.14 0.04,-0.21 l 0.17,-0.72 -0.02,0.07 0.12,-0.72 v 0 l 0.09,-0.72 v 0.1 l 0.12,-1.9 v 0 l 0.03,-0.19 -0.03,0.07 v -0.07 0 -0.07 0 -0.05 0 -0.1 0 -0.07 0 -0.05 l 0.03,0.22 v -0.07 l -0.03,-0.05 v -0.07 0.02 l -0.04,-0.12 0.91,0.67 h -0.03 c -0.33,0 -0.62,-0.17 -0.79,-0.43 -0.17,-0.29 -0.17,-0.62 0,-0.91 0.17,-0.29 0.46,-0.46 0.79,-0.43 h 0.03 c 0.41,0 0.74,0.26 0.84,0.67 l 0.02,0.12 v 0.05 l 0.03,0.07 v -0.03 0.08 c 0.02,0.07 0.02,0.14 0.02,0.21 v 0.05 0 0.07 0 0.1 0 0.05 0 0.07 0 0.07 0.05 l -0.02,0.21 v 0 l -0.15,1.88 v 0.07 l -0.12,0.72 v 0 l -0.17,0.72 v 0.07 l -0.21,0.72 v 0 l -0.07,0.24 c -0.12,0.38 -0.48,0.62 -0.87,0.58 -0.38,-0.08 -0.69,-0.41 -0.69,-0.8 z"
         style="fill:#000000;fill-opacity:1;fill-rule:nonzero;stroke:none"
         transform="matrix(1.3333333,0,0,-1.3333333,0,1120.8)" />
    </g>
    <g
       id="g173">
      <path
         id="path173"
         d="m 247.01,673.06 -0.03,0.16 c -0.04,0.27 -0.24,0.46 -0.5,0.51 -0.26,0.07 -0.53,-0.03 -0.67,-0.27 -0.15,-0.21 -0.15,-0.5 0,-0.69 l 0.02,-0.05 -0.07,0.12 0.02,-0.02 -0.04,0.31 v 0 c -0.05,-0.31 0.14,-0.6 0.43,-0.72 l 0.05,-0.03 -0.46,0.75 v -0.03 c -0.02,-0.12 0.02,-0.24 0.05,-0.33 l 0.02,-0.05 -0.05,0.36 v -0.02 c -0.04,-0.29 0.1,-0.56 0.34,-0.72 h 0.02 v 0 l 0.03,-0.03 -0.24,0.22 0.02,-0.03 v 0 l 0.03,-0.02 c 0.12,-0.14 0.28,-0.26 0.45,-0.34 l 0.07,-0.02 c 0.05,0 0.1,-0.02 0.15,-0.02 l 0.48,-0.05 -0.07,0.02 0.28,-0.07 h 0.05 l 0.27,-0.02 0.09,-0.03 0.77,-0.02 v 0 l 0.38,-0.03 c 0.05,0 0.1,0 0.15,0 l 0.31,0.03 h 0.02 l 0.2,0.02 h -0.05 l 0.09,0.03 h 0.08 0.16 -0.16 0.12 c 0.14,0 0.28,0 0.4,0.04 l 0.05,0.03 -0.77,0.02 v 0 l -0.52,0.55 0.04,-0.07 -0.07,0.17 0.27,-1.49 v 0.05 l 0.12,-0.91 v 0 L 249.5,669 v -0.02 l 0.08,-0.34 -0.03,0.02 0.07,-0.57 v 0.17 l -0.02,-0.39 1.03,0.99 h -0.02 c -0.58,0 -1.03,-0.48 -1.03,-1.06 v 0 -0.02 0 0 0 0 -0.03 l 1.03,1.03 h -0.03 c -0.26,0 -0.52,-0.09 -0.72,-0.31 -0.19,-0.19 -0.28,-0.45 -0.28,-0.74 v 0 0 -0.03 c 0,-0.26 0.12,-0.52 0.31,-0.72 l 0.02,-0.02 -0.33,0.72 v 0 -0.02 -0.03 c 0.02,-0.14 0.04,-0.29 0.12,-0.43 l 0.02,-0.02 c 0.24,-0.48 0.82,-0.7 1.34,-0.48 v 0 c 0.39,0.16 0.63,0.55 0.63,0.96 0,0.38 -0.24,0.74 -0.63,0.91 v 0.02 l 0.51,-0.5 -0.03,0.05 0.12,-0.51 v 0.03 0.02 0 c 0,0.29 -0.12,0.55 -0.28,0.74 l -0.03,0.03 0.29,-0.75 v 0.03 0 0 l -1.06,-1.01 h 0.03 c 0.57,0 1.05,0.46 1.05,1.03 v 0.03 0 0 0 0 0.02 0 c 0,0.58 -0.45,1.06 -1.03,1.06 -0.57,0 -1.03,-0.46 -1.05,-1.01 0,-0.58 0.45,-1.06 1.03,-1.06 h 0.02 c 0.55,-0.02 1.03,0.41 1.03,0.99 l 0.03,0.38 c 0,0.05 0,0.1 0,0.14 l -0.07,0.6 v 0.03 l -0.05,0.36 v -0.05 l -0.17,1.39 v 0.03 l -0.14,0.91 v 0.05 l -0.27,1.48 c -0.02,0.08 -0.05,0.15 -0.07,0.22 l -0.02,0.07 c -0.12,0.27 -0.32,0.46 -0.58,0.58 -0.26,0.09 -0.55,0.09 -0.82,-0.03 v 0 c -0.04,-0.04 -0.09,-0.04 -0.16,-0.09 l -0.03,-0.03 0.31,0.15 -0.16,-0.05 v 0 l -0.15,-0.05 0.05,0.03 -0.1,-0.05 v 0 l -0.19,-0.03 v 0 l -0.33,-0.07 0.16,0.03 -0.38,-0.03 h 0.05 -0.79 v 0 h -0.27 0.03 -0.29 0.05 l -0.48,0.05 c -0.12,0.02 -0.22,0 -0.32,-0.02 l -0.07,-0.03 0.19,0.03 h -0.02 v 0 h -0.05 c -0.14,0 -0.26,-0.05 -0.38,-0.12 l -0.03,-0.03 v 0 l -0.02,-0.02 0.34,0.14 -0.03,-0.02 0.36,-0.03 h -0.02 c -0.12,0.05 -0.24,0.08 -0.36,0.05 h -0.03 c -0.04,0 -0.12,-0.02 -0.16,-0.05 h -0.05 l 0.17,0.03 v 0 l 0.31,-0.03 h -0.03 c -0.09,0.03 -0.19,0.08 -0.28,0.05 h -0.03 c -0.36,-0.02 -0.62,-0.31 -0.62,-0.67 0.05,-0.36 0.33,-0.62 0.69,-0.6 h 0.15 c 0.14,0 0.29,0.1 0.36,0.19 0.09,0.1 0.12,0.27 0.12,0.39 z"
         style="fill:#000000;fill-opacity:1;fill-rule:nonzero;stroke:none"
         transform="matrix(1.3333333,0,0,-1.3333333,0,1120.8)" />
    </g>
    <g
       id="g174">
      <path
         id="path174"
         d="m 246.7,666.53 0.24,-0.03 0.07,-0.02 0.81,-0.02 v 0 l 0.68,-0.05 h 0.04 0.44 c 0.04,0 0.09,0 0.14,0 l 0.38,0.07 h 0.05 l 0.12,0.02 v 0 l 0.15,0.03 h -0.12 0.12 -0.03 0.39 l -0.24,0.05 0.04,-0.03 c 0.51,-0.12 1.01,0.17 1.13,0.67 0.12,0.51 -0.17,0.99 -0.67,1.11 l -0.05,0.05 c -0.09,0 -0.21,0.02 -0.29,0 h -0.4 l -0.1,-0.03 -0.14,-0.02 -0.1,-0.03 -0.12,-0.04 v 0 l -0.14,-0.03 0.09,0.03 -0.36,-0.1 0.1,0.02 -0.46,-0.02 h 0.03 l -0.68,-0.05 h -0.02 l -0.82,-0.07 h -0.04 l -0.24,-0.02 c -0.36,-0.08 -0.65,-0.39 -0.65,-0.75 0,-0.38 0.29,-0.69 0.65,-0.74 z"
         style="fill:#000000;fill-opacity:1;fill-rule:nonzero;stroke:none"
         transform="matrix(1.3333333,0,0,-1.3333333,0,1120.8)" />
    </g>
    <g
       id="g175">
      <path
         id="path175"
         d="m 255.05,674.76 0.02,0.1 -0.05,-0.17 v 0.02 l -0.07,-0.17 v 0.03 c 0.05,0.07 0.1,0.17 0.12,0.26 v 0.03 0 0 0 0.02 l -0.05,-0.14 v 0.02 0 l 0.03,0.02 c 0.02,0.03 0.02,0.08 0.05,0.12 v 0.03 0 0 l -0.36,-0.48 v 0.02 0 l 0.04,0.03 0.08,0.04 h 0.02 c 0.14,0.12 0.24,0.27 0.29,0.44 V 675 l -0.84,-0.55 h 0.02 c 0.39,-0.07 0.75,0.17 0.84,0.55 v 0.02 l -0.29,-0.45 0.03,0.02 c 0.02,0.03 0.05,0.05 0.09,0.07 l 0.2,0.22 0.02,0.02 0.07,0.08 v 0 l 0.03,0.04 -0.08,-0.07 0.08,0.07 0.09,0.08 0.05,0.04 -0.07,-0.07 0.07,0.07 -0.1,-0.07 0.08,0.05 0.09,0.05 0.07,0.07 -0.16,-0.1 0.09,0.03 0.07,0.05 0.08,0.04 -0.05,-0.02 0.17,0.1 -0.12,-0.05 0.14,0.05 h 0.02 l 0.12,0.04 -0.12,-0.02 0.12,0.02 0.1,0.03 0.1,0.05 -0.24,-0.05 h 0.12 l 0.12,0.02 0.12,0.03 h -0.1 0.1 -0.12 0.12 0.12 0.12 v 0 l 0.09,0.02 h -0.14 l 0.29,-0.02 h 0.04 0.05 l -0.14,0.02 0.09,-0.02 c 0.05,0 0.1,-0.03 0.15,-0.03 h 0.07 l -0.36,0.1 0.07,-0.03 c 0.05,-0.04 0.1,-0.04 0.15,-0.07 l 0.09,-0.02 v 0 l 0.05,-0.03 -0.1,0.05 0.08,-0.05 -0.15,0.1 0.05,-0.02 0.1,-0.08 0.07,-0.02 v 0 l 0.05,-0.05 v 0 l 0.09,-0.02 -0.09,0.05 0.04,-0.03 -0.14,0.1 0.07,-0.05 c 0.03,-0.02 0.05,-0.07 0.07,-0.07 l 0.08,-0.07 h 0.04 l 0.05,-0.05 -0.12,0.09 0.05,-0.04 -0.1,0.12 0.03,-0.05 0.02,-0.03 0.12,-0.14 v -0.02 l 0.19,-0.24 -0.07,0.09 0.17,-0.24 -0.02,0.03 0.16,-0.27 v 0 l 0.15,-0.26 -0.05,0.07 0.31,-0.67 -0.05,0.09 0.63,-1.84 v -0.03 l 0.67,-2.06 0.05,-0.1 0.07,-0.19 v 0.05 l 0.31,-0.77 0.05,-0.07 1.08,-2.07 0.02,-0.04 0.34,-0.48 v -0.03 l 0.31,-0.45 0.05,-0.05 0.34,-0.43 0.04,-0.05 0.77,-0.89 0.05,-0.02 0.22,-0.24 c 0.33,-0.34 0.88,-0.36 1.22,0 0.36,0.31 0.36,0.86 0.02,1.22 l -0.21,0.22 0.02,-0.03 -0.79,0.89 0.02,-0.05 -0.31,0.46 0.03,-0.05 -0.34,0.46 h 0.02 l -0.31,0.48 0.05,-0.08 -1.1,2.04 0.04,-0.07 -0.33,0.77 -0.03,0.05 -0.07,0.19 0.05,-0.12 -0.7,2.06 v 0 l -0.62,1.88 -0.02,0.07 -0.32,0.69 -0.04,0.08 -0.15,0.24 v 0 l -0.17,0.28 v 0 l -0.14,0.24 -0.1,0.1 -0.16,0.22 v 0 l -0.1,0.12 0.02,-0.03 -0.02,0.05 c -0.05,0.05 -0.1,0.1 -0.12,0.14 l -0.07,0.05 c -0.05,0.05 -0.1,0.07 -0.15,0.1 l -0.04,0.05 0.04,-0.05 -0.07,0.05 0.1,-0.05 -0.05,0.05 c -0.05,0.02 -0.1,0.07 -0.14,0.09 l -0.05,0.03 -0.1,0.04 -0.07,0.03 v 0 l -0.05,0.05 v 0 l -0.07,0.02 0.07,-0.05 -0.05,0.03 c -0.04,0.04 -0.09,0.07 -0.14,0.07 l -0.1,0.05 -0.09,0.02 -0.07,0.02 v 0 h -0.08 l 0.17,-0.04 -0.07,0.02 c -0.1,0.05 -0.24,0.1 -0.36,0.1 l -0.07,-0.03 h 0.17 l -0.1,0.03 c -0.05,0 -0.1,0 -0.17,0 h -0.05 0.05 -0.29 c -0.07,0 -0.14,0 -0.19,0 l -0.12,-0.03 h 0.03 l -0.12,-0.02 h 0.12 -0.12 c -0.05,0 -0.1,0 -0.15,0 l -0.09,-0.03 -0.08,-0.02 -0.12,-0.02 0.1,0.02 -0.12,-0.02 c -0.07,-0.03 -0.17,-0.05 -0.24,-0.08 l -0.1,-0.07 0.1,0.05 -0.1,-0.02 -0.09,-0.05 -0.1,-0.05 0.03,0.02 -0.12,-0.04 -0.08,-0.08 -0.16,-0.09 -0.1,-0.07 -0.05,-0.05 0.05,0.05 -0.07,-0.05 c -0.07,-0.03 -0.1,-0.07 -0.15,-0.12 l -0.07,-0.07 0.07,0.07 -0.04,-0.05 -0.08,-0.07 -0.07,-0.07 -0.09,-0.08 -0.03,-0.09 0.07,0.09 -0.07,-0.04 -0.07,-0.1 -0.05,-0.07 v 0 l -0.05,-0.07 0.05,0.04 -0.19,-0.24 v 0 h -0.02 c -0.12,-0.16 -0.17,-0.4 -0.12,-0.6 V 675 c 0.07,-0.38 0.45,-0.62 0.84,-0.55 0.4,0.07 0.64,0.45 0.57,0.84 -0.09,0.41 -0.45,0.65 -0.84,0.57 h -0.02 c -0.19,-0.04 -0.36,-0.16 -0.46,-0.31 -0.12,-0.17 -0.17,-0.36 -0.12,-0.55 v -0.02 l 0.15,0.6 -0.03,-0.03 -0.05,-0.07 v -0.02 0 l -0.02,-0.03 c -0.1,-0.14 -0.1,-0.31 -0.07,-0.5 v 0 0 -0.03 c 0.02,-0.04 0.02,-0.09 0.05,-0.12 v -0.02 0 -0.02 l -0.03,0.14 v -0.02 0 0 0 -0.03 c 0.03,-0.09 0.07,-0.19 0.12,-0.26 l 0.03,-0.03 -0.1,0.17 v -0.02 c 0.07,-0.19 0.24,-0.34 0.43,-0.39 0.19,-0.04 0.41,-0.02 0.58,0.12 l 0.07,0.03 c 0.1,0.09 0.14,0.19 0.17,0.31 z"
         style="fill:#000000;fill-opacity:1;fill-rule:nonzero;stroke:none"
         transform="matrix(1.3333333,0,0,-1.3333333,0,1120.8)" />
    </g>
    <g
       id="g176">
      <path
         id="path176"
         d="m 253.97,674.42 0.21,-0.24 v -0.02 l 0.22,-0.22 -0.02,0.03 0.16,-0.22 -0.04,0.07 0.16,-0.24 -0.04,0.03 0.4,-0.65 -0.07,0.14 0.27,-0.62 -0.03,0.02 0.24,-0.62 -0.02,0.1 0.41,-1.71 v 0.05 l 0.16,-0.79 0.03,-0.1 0.53,-1.68 c 0,-0.07 0.04,-0.12 0.07,-0.19 l 0.12,-0.24 -0.03,0.05 0.12,-0.24 c 0,-0.05 0.03,-0.07 0.05,-0.12 l 0.15,-0.24 c 0.04,-0.05 0.04,-0.07 0.09,-0.12 l 0.17,-0.22 -0.02,0.03 0.16,-0.24 0.05,-0.03 0.17,-0.21 0.02,-0.05 0.17,-0.19 c 0.03,-0.03 0.05,-0.05 0.07,-0.1 l 0.24,-0.19 v 0 l 0.22,-0.19 0.07,-0.08 0.58,-0.45 c 0.02,-0.05 0.07,-0.07 0.09,-0.07 l 0.24,-0.15 h -0.02 l 0.24,-0.14 c 0.05,-0.05 0.1,-0.05 0.14,-0.07 l 0.27,-0.12 -0.1,0.02 0.24,-0.12 0.1,-0.05 0.26,-0.12 c 0.05,-0.02 0.07,-0.02 0.12,-0.02 l 0.27,-0.1 -0.03,0.03 0.29,-0.12 -0.05,0.02 0.27,-0.12 c 0.04,0 0.09,-0.02 0.14,-0.02 l 0.29,-0.1 v 0 l 0.29,-0.05 0.07,-0.02 0.81,-0.12 0.05,-0.03 0.31,-0.02 c 0.6,-0.07 1.18,0.36 1.23,0.98 0.07,0.63 -0.39,1.16 -0.99,1.23 l -0.31,0.05 h 0.07 l -0.81,0.12 h 0.07 l -0.29,0.04 v 0 l -0.29,0.08 0.17,-0.05 -0.29,0.09 -0.02,0.03 -0.29,0.09 h -0.02 l -0.27,0.1 0.12,-0.05 -0.26,0.12 0.07,-0.05 -0.24,0.15 -0.07,0.05 -0.26,0.09 0.14,-0.07 -0.24,0.17 h -0.02 l -0.22,0.12 0.12,-0.07 -0.6,0.48 0.07,-0.05 -0.24,0.19 v 0 l -0.21,0.22 0.09,-0.1 -0.19,0.19 0.02,-0.02 -0.16,0.19 0.02,-0.02 -0.17,0.24 -0.05,0.02 -0.14,0.22 0.07,-0.1 -0.17,0.24 0.08,-0.12 -0.12,0.24 -0.03,0.05 -0.12,0.26 0.07,-0.19 -0.55,1.68 0.05,-0.07 -0.19,0.77 -0.03,0.02 -0.43,1.7 c 0,0.05 -0.02,0.08 -0.05,0.12 l -0.24,0.63 -0.02,0.05 -0.26,0.62 c -0.03,0.05 -0.08,0.1 -0.1,0.17 l -0.43,0.65 -0.07,0.07 -0.2,0.24 -0.04,0.05 -0.22,0.21 -0.02,0.03 -0.24,0.21 c -0.08,0.07 -0.15,0.1 -0.22,0.15 l -0.29,0.16 c -0.41,0.17 -0.89,0.08 -1.13,-0.28 -0.28,-0.34 -0.26,-0.84 0.03,-1.16 z"
         style="fill:#000000;fill-opacity:1;fill-rule:nonzero;stroke:none"
         transform="matrix(1.3333333,0,0,-1.3333333,0,1120.8)" />
    </g>
    <g
       id="g177">
      <path
         id="path177"
         d="m 257.69,674.86 c 0,-0.32 -0.27,-0.58 -0.58,-0.58 -0.33,0 -0.6,0.26 -0.6,0.58 0,0.31 0.27,0.6 0.6,0.6 0.31,0 0.58,-0.29 0.58,-0.6 z"
         style="fill:#000000;fill-opacity:1;fill-rule:evenodd;stroke:none"
         transform="matrix(1.3333333,0,0,-1.3333333,0,1120.8)" />
    </g>
    <g
       id="g178">
      <path
         id="path178"
         d="m 257.06,667.1 v -0.02 0 0 -0.05 -0.02 l 0.24,0.48 -0.02,-0.03 c -0.14,-0.09 -0.22,-0.26 -0.24,-0.43 v -0.02 l 0.24,0.43 h -0.02 c -0.05,-0.05 -0.12,-0.12 -0.15,-0.19 l -0.02,-0.03 0.69,0.34 h -0.02 c -0.29,0.05 -0.58,-0.1 -0.7,-0.36 l -0.04,-0.07 0.04,0.09 -0.04,-0.09 -0.05,-0.07 -0.65,-1.13 -0.02,-0.03 -0.24,-0.45 v 0 l -0.32,-0.6 c -0.04,-0.07 -0.07,-0.15 -0.07,-0.22 l -0.02,-0.07 c -0.07,-0.26 0.02,-0.58 0.26,-0.74 0.19,-0.22 0.51,-0.27 0.77,-0.17 0.26,0.07 0.46,0.31 0.5,0.6 l 0.03,0.07 -0.07,-0.19 0.31,0.65 v 0 l 0.21,0.45 v 0 l 0.56,1.18 -0.03,-0.07 0.05,0.12 0.05,0.04 0.02,0.08 -0.55,-0.41 h 0.02 c 0.24,0.05 0.46,0.19 0.56,0.43 l 0.02,0.02 -0.12,-0.16 0.02,0.02 c 0.12,0.14 0.17,0.34 0.15,0.53 v 0.02 l -0.15,-0.55 v 0.02 c 0.12,0.15 0.17,0.32 0.17,0.51 v 0.02 0.05 0 0 0.02 c -0.05,0.34 -0.33,0.6 -0.67,0.6 -0.36,0 -0.65,-0.26 -0.7,-0.6 z"
         style="fill:#000000;fill-opacity:1;fill-rule:nonzero;stroke:none"
         transform="matrix(1.3333333,0,0,-1.3333333,0,1120.8)" />
    </g>
    <g
       id="g179">
      <path
         id="path179"
         d="m 258.72,665.88 -0.12,-0.17 -0.02,-0.02 -0.08,-0.07 c -0.02,-0.05 -0.02,-0.1 -0.07,-0.12 l -0.05,-0.12 v -0.05 l -0.14,-0.34 -0.02,-0.05 -0.03,-0.12 0.03,0.1 -0.05,-0.12 0.02,0.02 -0.17,-0.28 0.08,0.12 -0.05,-0.08 c -0.27,-0.33 -0.17,-0.81 0.14,-1.05 0.36,-0.27 0.82,-0.19 1.08,0.14 l 0.05,0.05 c 0.02,0.05 0.05,0.1 0.07,0.14 l 0.15,0.29 0.02,0.05 0.05,0.12 0.02,0.1 0.05,0.12 -0.05,-0.1 0.15,0.36 -0.03,-0.02 0.05,0.12 -0.05,-0.12 0.05,0.12 0.05,0.07 0.09,0.19 c 0.17,0.34 0.03,0.74 -0.28,0.94 -0.32,0.16 -0.72,0.09 -0.94,-0.22 z"
         style="fill:#000000;fill-opacity:1;fill-rule:nonzero;stroke:none"
         transform="matrix(1.3333333,0,0,-1.3333333,0,1120.8)" />
    </g>
    <g
       id="g180">
      <path
         id="path180"
         d="m 255.36,662.86 h 0.19 -0.05 0.22 0.05 1.03 -0.05 l 0.67,-0.05 h 0.05 l 1.85,-0.05 h 0.02 0.12 c 0.32,0 0.6,0.17 0.77,0.46 0.17,0.26 0.17,0.6 0,0.88 -0.17,0.29 -0.45,0.46 -0.77,0.46 h -0.12 -0.02 l -1.85,-0.05 v 0 l -0.69,-0.02 h -0.08 l -1.03,-0.12 h 0.05 -0.22 l -0.07,-0.03 -0.21,-0.02 c -0.36,-0.07 -0.63,-0.41 -0.6,-0.79 0.04,-0.39 0.36,-0.67 0.74,-0.67 z"
         style="fill:#000000;fill-opacity:1;fill-rule:nonzero;stroke:none"
         transform="matrix(1.3333333,0,0,-1.3333333,0,1120.8)" />
    </g>
    <g
       id="g187">
      <path
         id="path187"
         d="m 245.74,695.93 v 0.02 l -0.05,0.07 -0.03,0.03 c -0.07,0.07 -0.14,0.14 -0.24,0.17 v 0.02 l 0.27,-0.26 V 696 l 0.05,-0.12 -0.03,0.02 c -0.02,0.05 -0.02,0.1 -0.05,0.12 v 0.05 -0.02 l -0.02,0.02 0.02,-0.53 v 0 c 0.08,0.15 0.08,0.29 0.03,0.44 V 696 c 0,0.05 -0.03,0.1 -0.05,0.12 l -0.02,0.02 0.07,-0.12 -0.03,0.05 c 0,0.03 -0.02,0.07 -0.04,0.12 v 0 -0.55 h 0.02 c 0.02,0.05 0.02,0.1 0.05,0.14 v 0.03 l -0.05,-0.15 0.02,0.03 c 0.05,0.14 0.08,0.31 0.03,0.45 l -0.03,0.05 0.03,-0.33 v 0.04 c 0.02,0.15 0,0.32 -0.07,0.44 v 0.04 l 0.02,-0.62 v 0.02 c 0.02,0.05 0.02,0.08 0.05,0.15 v 0.02 l -0.05,-0.14 0.02,0.02 c 0,0.03 0.03,0.07 0.03,0.15 V 696 l -0.03,-0.14 v 0 l -0.09,-0.12 0.05,0.02 c 0.04,0.05 0.07,0.12 0.09,0.19 l 0.03,0.07 c 0,0.05 0.02,0.08 0.02,0.12 l 0.02,0.08 v 0 0.04 l -0.16,-0.38 0.04,0.05 c 0.03,0.05 0.08,0.09 0.08,0.14 l 0.04,0.05 v 0 0.05 0 l 0.03,0.05 -0.1,-0.17 0.03,0.05 0.04,0.04 0.03,0.03 c 0.02,0.02 0.05,0.07 0.07,0.12 l 0.02,0.05 -0.36,-0.36 0.05,0.02 c 0.12,0.07 0.22,0.14 0.29,0.22 l 0.02,0.04 -0.07,-0.07 0.1,0.12 v -0.02 l 0.07,0.07 -0.07,-0.05 0.12,0.07 -0.07,-0.04 0.09,0.07 c 0.05,0.02 0.1,0.05 0.12,0.09 l 0.1,0.08 -0.19,-0.12 0.12,0.07 -0.05,-0.03 0.12,0.05 0.09,0.05 0.08,0.07 -0.12,-0.09 0.12,0.04 v 0 l 0.12,0.08 -0.08,-0.03 0.1,0.03 h 0.02 l 0.15,0.04 h -0.07 l 0.24,0.05 -0.24,-0.02 h 0.07 c 0.07,0 0.12,0 0.17,0.02 h 0.07 -0.15 0.1 v 0 h 0.07 v 0 h 0.1 v 0 h 0.09 -0.14 l 0.1,-0.02 c 0.04,0 0.09,0 0.14,-0.03 h 0.07 l -0.14,0.03 0.09,-0.03 h -0.02 0.07 l -0.14,0.05 0.09,-0.05 c 0.05,0 0.08,-0.02 0.15,-0.04 h 0.07 l -0.26,0.09 0.09,-0.05 c 0.07,-0.04 0.17,-0.09 0.27,-0.12 h 0.12 l -0.39,0.17 0.07,-0.05 0.08,-0.07 0.21,-0.12 -0.02,0.03 0.14,-0.1 -0.07,0.05 0.14,-0.1 -0.04,0.03 0.12,-0.1 -0.08,0.05 0.12,-0.1 v 0 l 0.12,-0.12 v 0 l 0.1,-0.12 -0.12,0.15 0.1,-0.12 c 0,-0.03 0.04,-0.08 0.07,-0.1 l 0.09,-0.12 -0.04,0.05 0.09,-0.15 -0.07,0.15 0.07,-0.15 0.03,-0.04 0.09,-0.15 -0.05,0.07 0.08,-0.12 -0.03,0.03 0.07,-0.15 -0.02,0.05 0.14,-0.38 v 0.05 l 0.08,-0.34 v 0.02 l 0.12,-0.36 -0.03,0.05 0.07,-0.33 v 0.04 l 0.05,-0.38 v 0.02 l 0.07,-0.84 v 0 l 0.03,-0.43 0.02,-0.05 0.03,-0.43 v -0.05 l 0.21,-1.03 v -0.07 l 0.05,-0.17 v -0.02 l 0.07,-0.17 v -0.07 l 0.07,-0.17 0.03,-0.05 0.09,-0.17 v 0 l 0.17,-0.36 c 0.07,-0.14 0.17,-0.24 0.29,-0.31 l 0.05,-0.05 -0.12,0.1 0.02,-0.02 -0.07,0.09 0.05,-0.07 0.07,-0.1 0.02,-0.02 v 0 l 0.05,-0.05 v 0 l 0.05,-0.05 c 0.1,-0.07 0.19,-0.16 0.31,-0.19 h 0.07 l -0.43,0.31 0.03,-0.04 c 0.12,-0.17 0.28,-0.29 0.48,-0.36 h 0.07 l -0.27,0.12 0.05,-0.03 v 0 l 0.07,-0.05 c 0.05,-0.04 0.12,-0.07 0.2,-0.09 l 0.04,-0.03 -0.04,0.03 0.14,-0.07 -0.05,0.02 0.12,-0.05 c 0.07,-0.02 0.12,-0.05 0.17,-0.05 h 0.1 -0.08 l 0.12,-0.04 -0.04,0.02 0.09,-0.02 c 0.1,-0.05 0.19,-0.05 0.27,-0.05 h 0.09 -0.09 l 0.33,-0.03 c 0.03,0 0.1,0 0.15,0 l 0.38,0.03 v 0 l 0.36,0.05 h 0.07 l 0.39,0.04 v 0.03 l 0.36,0.05 0.09,0.02 0.79,0.22 v 0 l 1.25,0.33 -0.09,-0.02 0.21,0.02 h 0.07 l 0.22,0.07 -0.12,-0.02 0.26,0.02 h -0.07 0.6 -0.09 l 0.28,-0.04 h -0.04 l 0.33,-0.03 h -0.07 l 0.26,-0.07 v 0.02 l 0.29,-0.09 -0.07,0.02 0.82,-0.31 -0.03,0.02 0.22,-0.09 h -0.03 l 0.22,-0.1 -0.1,0.05 0.24,-0.14 v 0 l 0.22,-0.12 -0.1,0.04 0.22,-0.16 -0.05,0.04 0.55,-0.45 -0.04,0.05 0.12,-0.15 0.04,-0.02 0.12,-0.15 -0.02,0.05 0.14,-0.14 -0.02,0.02 0.12,-0.14 -0.02,0.05 0.12,-0.17 v 0 l 0.09,-0.12 -0.02,0.05 0.24,-0.39 -0.03,0.07 0.17,-0.31 -0.02,0.03 0.17,-0.32 -0.03,0.05 0.29,-0.62 -0.05,0.09 0.1,-0.33 v -0.03 l 0.09,-0.28 -0.02,0.07 0.07,-0.31 v 0 l 0.07,-0.32 v 0 l 0.05,-0.33 v 0.12 l 0.07,-0.84 v 0.09 l -0.09,-2.47 v 0.03 l -0.05,-1.2 v -0.05 l -0.1,-2.23 v 0 -0.32 c 0,-0.28 0.17,-0.57 0.44,-0.72 0.26,-0.16 0.57,-0.16 0.84,0 0.26,0.15 0.4,0.44 0.4,0.72 v 0.32 -0.05 l 0.08,2.25 v -0.02 l 0.04,1.2 v 0.02 l 0.1,2.48 v 0.07 l -0.07,0.84 -0.03,0.09 -0.04,0.34 v 0.02 l -0.08,0.29 v 0 l -0.07,0.31 v 0.08 l -0.12,0.31 v 0 l -0.07,0.33 -0.05,0.08 -0.29,0.64 -0.02,0.05 -0.17,0.31 v 0.03 l -0.17,0.29 -0.02,0.04 -0.24,0.39 -0.05,0.05 -0.12,0.16 v 0 l -0.09,0.12 -0.05,0.05 -0.15,0.15 -0.02,0.04 -0.14,0.15 -0.03,0.02 -0.17,0.15 0.05,-0.03 -0.12,0.12 -0.05,0.05 -0.55,0.46 -0.05,0.02 -0.19,0.14 -0.05,0.05 -0.21,0.15 v 0 l -0.22,0.12 -0.07,0.04 -0.24,0.1 v 0.02 l -0.24,0.08 -0.02,0.02 -0.82,0.31 -0.1,0.03 -0.31,0.09 v 0 l -0.29,0.07 h -0.07 l -0.31,0.05 h -0.02 l -0.32,0.03 -0.07,0.02 h -0.6 l -0.05,-0.02 h -0.24 c -0.04,0 -0.07,0 -0.12,-0.03 l -0.24,-0.05 0.05,0.03 -0.21,-0.05 -0.08,-0.02 -1.24,-0.29 -0.03,-0.03 -0.81,-0.21 0.07,0.02 -0.36,-0.07 h 0.02 l -0.41,-0.05 h 0.08 l -0.36,-0.05 v 0 l -0.39,-0.02 h 0.17 l -0.31,0.02 h -0.1 -0.09 l 0.26,-0.04 -0.1,0.04 h -0.04 l -0.1,0.05 -0.07,0.03 h -0.07 l 0.16,-0.05 -0.12,0.05 h -0.04 l -0.12,0.07 h -0.03 l -0.05,0.02 0.2,-0.09 -0.05,0.02 v 0 l -0.05,0.02 c -0.1,0.08 -0.17,0.12 -0.26,0.12 l -0.08,0.03 0.51,-0.34 -0.03,0.03 c -0.12,0.16 -0.26,0.28 -0.43,0.33 l -0.05,0.03 0.32,-0.2 -0.05,0.05 v 0 l -0.03,0.03 v 0 l -0.04,0.04 0.09,-0.09 -0.05,0.05 -0.07,0.09 -0.05,0.03 c -0.04,0.04 -0.07,0.09 -0.12,0.12 l -0.04,0.02 0.26,-0.31 -0.17,0.36 v 0 l -0.09,0.17 0.04,-0.08 -0.07,0.17 0.03,-0.07 -0.05,0.17 v -0.03 l -0.05,0.17 0.02,-0.07 -0.19,1.03 0.03,-0.05 -0.05,0.44 v -0.03 l -0.03,0.43 v 0.03 l -0.09,0.86 v 0.03 l -0.05,0.38 -0.02,0.05 -0.05,0.33 -0.03,0.08 -0.07,0.36 h -0.02 l -0.1,0.36 -0.02,0.04 -0.15,0.41 -0.02,0.03 -0.05,0.16 -0.02,0.03 -0.07,0.14 -0.03,0.07 -0.09,0.12 0.04,-0.07 -0.07,0.15 c -0.02,0.04 -0.05,0.07 -0.07,0.12 l -0.1,0.12 -0.04,0.04 -0.1,0.12 0.07,-0.09 -0.07,0.12 c -0.02,0.05 -0.07,0.09 -0.12,0.14 l -0.12,0.12 v 0 l -0.1,0.1 v 0 l -0.12,0.12 -0.04,0.05 -0.1,0.09 -0.05,0.03 -0.12,0.09 -0.07,0.05 -0.14,0.1 h -0.03 l -0.19,0.12 0.07,-0.05 -0.05,0.05 c -0.12,0.09 -0.24,0.12 -0.38,0.14 l -0.1,0.02 0.32,-0.12 -0.1,0.08 c -0.07,0.04 -0.17,0.07 -0.26,0.09 h -0.08 l 0.15,-0.02 -0.1,0.02 c -0.05,0.03 -0.09,0.03 -0.14,0.05 l -0.07,0.02 h -0.03 -0.09 c -0.08,0 -0.12,0.03 -0.15,0 h -0.07 0.14 l -0.09,0.03 c -0.05,0 -0.12,0 -0.15,0 h -0.09 v 0 h -0.1 v 0 h -0.07 v 0 h -0.1 c -0.04,0 -0.12,0 -0.16,-0.03 h -0.08 0.15 -0.07 c -0.08,0 -0.17,0 -0.22,-0.02 l -0.24,-0.07 -0.07,-0.03 -0.12,-0.04 h 0.02 l -0.09,-0.03 -0.08,-0.02 -0.09,-0.05 v 0 l -0.12,-0.05 c -0.05,-0.02 -0.1,-0.05 -0.15,-0.09 l -0.09,-0.05 0.09,0.05 -0.09,-0.05 -0.03,-0.03 -0.12,-0.07 c -0.07,-0.02 -0.12,-0.07 -0.16,-0.12 l -0.1,-0.09 0.12,0.12 -0.1,-0.08 -0.07,-0.04 -0.09,-0.1 -0.05,-0.05 -0.07,-0.09 -0.08,-0.05 -0.09,-0.12 c -0.05,-0.07 -0.12,-0.19 -0.12,-0.27 l -0.03,-0.04 0.27,0.38 -0.05,-0.02 c -0.14,-0.12 -0.24,-0.29 -0.26,-0.46 l -0.03,-0.05 0.03,0.07 v -0.04 l 0.04,0.14 -0.02,-0.05 c -0.05,-0.07 -0.07,-0.14 -0.07,-0.21 l -0.03,-0.05 v 0 -0.05 0 -0.05 l 0.08,0.19 -0.05,-0.04 c -0.07,-0.15 -0.1,-0.29 -0.07,-0.44 v -0.04 0 l 0.02,-0.08 v 0.22 l -0.02,-0.05 0.02,0.07 v -0.02 c -0.05,-0.17 -0.02,-0.34 0.02,-0.5 h 0.03 l -0.07,0.14 0.02,-0.02 c 0.02,-0.08 0.02,-0.12 0.05,-0.15 v -0.02 l -0.05,0.14 0.02,-0.02 c 0,-0.07 0,-0.1 0.03,-0.15 v -0.02 c 0.07,-0.14 0.17,-0.26 0.31,-0.31 l 0.02,-0.03 -0.33,0.48 v -0.04 c 0.02,-0.1 0.05,-0.2 0.12,-0.27 l 0.02,-0.02 -0.07,0.12 v -0.03 l -0.05,0.15 0.03,-0.03 c 0,-0.04 0,-0.09 0.02,-0.14 h 0.02 c 0.05,-0.14 0.15,-0.24 0.27,-0.31 h 0.02 l -0.21,0.17 0.04,-0.03 c 0.03,-0.07 0.12,-0.12 0.2,-0.17 l 0.02,-0.02 -0.22,0.19 0.03,-0.05 -0.07,0.12 v 0 c 0.07,-0.12 0.16,-0.24 0.28,-0.28 l 0.03,-0.03 h -0.03 0.03 l -0.19,0.15 0.02,-0.03 c 0.05,-0.05 0.12,-0.12 0.19,-0.17 h 0.03 c 0.16,-0.07 0.36,-0.07 0.52,0 v 0 l -0.57,0.05 0.02,-0.02 0.07,-0.05 h 0.03 c 0.21,-0.12 0.48,-0.07 0.67,0.1 0.17,0.16 0.22,0.45 0.1,0.67 z"
         style="fill:#00a0d7;fill-opacity:1;fill-rule:nonzero;stroke:none"
         transform="matrix(1.3333333,0,0,-1.3333333,0,1120.8)" />
    </g>
    <g
       id="g188">
      <path
         id="path188"
         d="m 249.19,680.98 -0.53,0.14 0.22,-0.1 -0.1,0.08 c -0.24,0.16 -0.55,0.19 -0.79,0.04 -0.26,-0.14 -0.41,-0.45 -0.36,-0.72 0.05,-0.31 0.27,-0.52 0.55,-0.6 l 0.27,-0.04 c 0.05,0 0.09,-0.03 0.14,-0.03 l 2.21,-0.05 v 0 l 0.5,-0.02 h -0.04 l 1.29,-0.1 h 0.07 0.12 c 0.32,0 0.63,0.17 0.8,0.44 0.14,0.28 0.14,0.64 0,0.91 -0.17,0.29 -0.48,0.45 -0.8,0.45 h -0.12 0.03 l -1.3,0.03 h -0.05 l -0.5,-0.03 h -0.02 l -2.21,-0.09 c -0.05,0 -0.07,0 -0.12,0 l -0.27,-0.07 c -0.28,-0.05 -0.52,-0.32 -0.55,-0.63 -0.05,-0.31 0.15,-0.6 0.43,-0.72 0.29,-0.14 0.63,-0.05 0.82,0.19 l 0.07,0.08 -0.24,-0.17 0.48,0.17 c 0.19,0.07 0.31,0.24 0.31,0.43 0,0.19 -0.14,0.36 -0.31,0.41 z"
         style="fill:#00a0d7;fill-opacity:1;fill-rule:nonzero;stroke:none"
         transform="matrix(1.3333333,0,0,-1.3333333,0,1120.8)" />
    </g>
    <g
       id="g189">
      <path
         id="path189"
         d="m 249.07,681.31 -0.09,0.22 0.02,-0.05 -0.02,0.05 v 0 l -0.03,0.09 0.03,-0.04 -0.03,0.07 v 0 l -0.05,0.09 0.05,-0.16 v 0.07 0 l -0.02,0.09 v 0.03 l -0.03,0.07 v -0.02 0.21 -0.17 0.2 0 l 0.03,0.16 v 0.03 l 0.02,0.43 -0.02,-0.14 0.02,0.07 -0.02,-0.03 0.02,0.08 -0.02,-0.08 0.02,0.08 0.03,0.12 0.04,0.07 -0.07,-0.15 0.03,0.08 c 0.04,0.04 0.07,0.12 0.09,0.19 v 0.09 l -0.12,-0.33 0.05,0.09 c 0.02,0.03 0.05,0.08 0.07,0.12 l 0.03,0.08 -0.08,-0.12 0.08,0.07 c 0,0.05 0.04,0.09 0.04,0.12 l 0.05,0.09 -0.07,-0.12 0.07,0.08 v 0 l 0.03,0.07 -0.08,-0.12 0.15,0.17 -0.05,-0.05 0.05,0.05 v 0 l 0.05,0.04 c 0.04,0.03 0.07,0.08 0.09,0.1 l 0.05,0.07 -0.26,-0.21 0.07,0.02 -0.1,-0.07 0.07,0.05 c 0.08,0.04 0.17,0.09 0.24,0.16 l 0.05,0.05 -0.24,-0.17 0.05,0.03 c 0.07,0.02 0.1,0.05 0.17,0.09 l 0.05,0.05 -0.36,-0.17 0.09,0.03 c 0.05,0 0.12,0.05 0.19,0.07 l 0.08,0.02 -0.22,-0.07 0.07,0.03 c 0.07,0 0.15,0.02 0.19,0.04 l 0.08,0.05 v -0.02 l 0.07,0.05 -0.46,-0.08 0.07,-0.02 c 0.08,0 0.17,0.02 0.24,0.02 l 0.08,0.03 v 0 h 0.04 l -0.12,-0.03 0.2,0.03 h 0.04 l 0.12,0.02 -0.16,-0.02 h 0.12 l -0.15,0.02 0.12,-0.02 h -0.05 0.12 v -0.03 h 0.12 v 0 l 0.12,-0.02 h -0.02 l 0.1,-0.02 -0.24,0.07 0.12,-0.05 c 0.09,-0.02 0.16,-0.05 0.24,-0.07 h 0.09 l -0.29,0.09 0.1,-0.04 v 0 l 0.1,-0.08 c 0.04,0 0.09,-0.02 0.12,-0.04 l 0.12,-0.05 -0.15,0.07 0.12,-0.05 -0.12,0.07 0.1,-0.07 v 0 l 0.09,-0.07 -0.07,0.05 0.07,-0.07 v 0 l 0.08,-0.05 v 0 l 0.09,-0.07 v 0 l 0.07,-0.08 -0.07,0.08 0.07,-0.08 -0.04,0.08 0.07,-0.1 -0.03,0.02 0.08,-0.09 v 0 l 0.07,-0.07 -0.05,0.04 0.12,-0.19 -0.05,0.1 0.07,-0.15 c 0.03,-0.04 0.05,-0.09 0.08,-0.12 l 0.09,-0.14 -0.05,0.07 0.08,-0.14 -0.05,0.12 0.05,-0.17 0.04,-0.02 0.05,-0.17 -0.05,0.12 0.17,-0.48 -0.02,0.05 0.02,-0.08 -0.02,0.05 0.02,-0.07 v -0.07 l 0.03,-0.05 -0.03,0.26 v -0.09 0 -0.07 0 -0.05 0 -0.07 0 -0.08 0 -0.09 0.02 -0.09 l 0.03,0.26 -0.03,-0.07 0.07,0.21 -0.02,-0.07 c -0.05,-0.07 -0.07,-0.17 -0.1,-0.26 v -0.07 l 0.03,0.12 -0.05,-0.15 0.02,0.07 -0.04,-0.12 c -0.22,-0.52 0.04,-1.12 0.55,-1.34 0.53,-0.22 1.13,0.02 1.37,0.53 l 0.04,0.12 0.03,0.09 0.05,0.15 c 0,0.05 0.02,0.09 0.04,0.12 v 0.09 l -0.07,-0.28 0.03,0.07 c 0.02,0.07 0.04,0.14 0.07,0.21 l 0.02,0.08 c 0.03,0.07 0.03,0.16 0.03,0.24 v 0.09 -0.02 0.09 0 0.08 0 0.07 0 0.05 0 0.07 0 0.09 c 0,0.08 0,0.15 -0.03,0.24 v 0.08 -0.05 l -0.02,0.07 v 0.05 l -0.03,0.07 v 0.05 l -0.16,0.48 c 0,0.05 -0.03,0.09 -0.03,0.12 l -0.09,0.17 0.02,-0.05 -0.05,0.17 c -0.02,0.04 -0.05,0.07 -0.07,0.12 l -0.07,0.14 -0.05,0.07 -0.1,0.15 0.08,-0.12 -0.1,0.16 c -0.02,0.05 -0.05,0.08 -0.05,0.12 l -0.14,0.2 -0.07,0.07 -0.08,0.09 v 0 l -0.04,0.08 -0.03,0.02 -0.07,0.1 -0.07,0.07 -0.07,0.07 -0.1,0.07 -0.1,0.07 v 0 l -0.07,0.08 v 0 l -0.09,0.04 v 0 l -0.08,0.08 -0.07,0.04 -0.09,0.08 v 0 l -0.1,0.04 c -0.02,0.03 -0.07,0.05 -0.1,0.08 l -0.12,0.04 c -0.04,0.03 -0.07,0.03 -0.12,0.05 l -0.12,0.03 0.15,-0.05 -0.1,0.05 v 0 l -0.09,0.04 c -0.1,0.05 -0.2,0.08 -0.29,0.1 l -0.1,0.02 0.24,-0.07 -0.12,0.05 c -0.09,0.02 -0.17,0.05 -0.24,0.05 l -0.09,0.02 h -0.03 l -0.12,0.03 v 0 h -0.12 0.03 l -0.1,0.02 h -0.02 l -0.12,0.02 c -0.03,0 -0.08,0 -0.12,0 h -0.12 c -0.08,0 -0.12,0 -0.17,0 l -0.1,-0.02 h 0.07 l -0.16,-0.02 c -0.08,0 -0.12,0 -0.2,-0.03 l -0.04,-0.02 v 0 l -0.08,-0.03 0.24,0.05 h -0.07 c -0.14,-0.02 -0.29,-0.05 -0.43,-0.12 l -0.05,-0.05 v 0 l -0.09,-0.02 0.21,0.07 -0.07,-0.02 c -0.05,0 -0.14,-0.03 -0.19,-0.07 l -0.07,-0.05 0.21,0.09 -0.07,-0.02 c -0.14,-0.02 -0.24,-0.1 -0.34,-0.17 l -0.07,-0.05 0.15,0.1 -0.08,-0.05 c -0.07,-0.05 -0.16,-0.09 -0.24,-0.17 l -0.04,-0.07 0.24,0.19 -0.05,-0.02 c -0.05,-0.02 -0.07,-0.05 -0.12,-0.07 l -0.05,-0.03 c -0.07,-0.07 -0.14,-0.16 -0.22,-0.24 l -0.04,-0.07 0.09,0.1 -0.05,-0.03 v 0 l -0.04,-0.07 -0.03,-0.02 -0.17,-0.17 c -0.04,-0.05 -0.07,-0.1 -0.09,-0.17 l -0.05,-0.09 v 0 l -0.05,-0.08 c -0.02,-0.04 -0.05,-0.09 -0.05,-0.14 l -0.04,-0.07 0.07,0.12 -0.05,-0.07 c -0.02,-0.05 -0.05,-0.1 -0.05,-0.15 l -0.05,-0.07 0.08,0.14 -0.05,-0.09 c -0.07,-0.12 -0.1,-0.22 -0.12,-0.34 v -0.09 l 0.05,0.19 -0.05,-0.07 c 0,-0.08 -0.03,-0.12 -0.03,-0.17 v -0.1 l 0.03,0.12 -0.03,-0.09 c -0.02,-0.05 -0.04,-0.08 -0.04,-0.12 v -0.08 -0.02 l -0.03,-0.1 c 0,-0.04 0,-0.09 0,-0.14 l 0.03,-0.43 v -0.03 -0.16 0 l 0.02,-0.2 0.02,-0.09 0.03,-0.19 c 0,-0.05 0.02,-0.1 0.05,-0.15 v -0.07 0.05 l 0.02,-0.07 v 0 l 0.02,-0.08 c 0,-0.04 0.05,-0.09 0.05,-0.14 l 0.05,-0.07 v 0 l 0.02,-0.07 0.05,-0.08 0.03,-0.07 v 0 l 0.04,-0.05 0.05,-0.04 0.12,-0.2 c 0.24,-0.31 0.67,-0.4 1.01,-0.21 0.34,0.21 0.48,0.62 0.31,0.98 z"
         style="fill:#00a0d7;fill-opacity:1;fill-rule:nonzero;stroke:none"
         transform="matrix(1.3333333,0,0,-1.3333333,0,1120.8)" />
    </g>
  </g>
</svg>
