<?xml version="1.0" encoding="UTF-8" standalone="no"?>
<!-- Created with Inkscape (http://www.inkscape.org/) -->

<svg
   version="1.1"
   id="svg1"
   width="29.903971"
   height="20"
   viewBox="0 0 29.903971 19.999999"
   sodipodi:docname="lesson1_sentence6_word4.svg"
   inkscape:version="1.4.3 (0d15f75, 2025-12-25)"
   xmlns:inkscape="http://www.inkscape.org/namespaces/inkscape"
   xmlns:sodipodi="http://sodipodi.sourceforge.net/DTD/sodipodi-0.dtd"
   xmlns="http://www.w3.org/2000/svg"
   xmlns:svg="http://www.w3.org/2000/svg">
  <defs
     id="defs1" />
  <sodipodi:namedview
     id="namedview1"
     pagecolor="#ffffff"
     bordercolor="#000000"
     borderopacity="0.25"
     inkscape:showpageshadow="2"
     inkscape:pageopacity="0.0"
     inkscape:pagecheckerboard="0"
     inkscape:deskcolor="#d1d1d1"
     inkscape:zoom="9.7364887"
     inkscape:cx="13.146423"
     inkscape:cy="11.862593"
     inkscape:window-width="1920"
     inkscape:window-height="1191"
     inkscape:window-x="-9"
     inkscape:window-y="-9"
     inkscape:window-maximized="1"
     inkscape:current-layer="g1">
    <inkscape:page
       x="0"
       y="0"
       inkscape:label="1"
       id="page1"
       width="29.903971"
       height="19.999998"
       margin="0"
       bleed="0" />
  </sodipodi:namedview>
  <g
     id="g1"
     inkscape:groupmode="layer"
     inkscape:label="1"
     transform="translate(-324.22269,-101.89336)">
    <g
       id="g172"
       transform="translate(-0.44890107,-115.66539)">
      <path
         id="path172"
         d="m 245.38,672.86 v -0.24 c 0,-0.07 0,-0.14 0.04,-0.21 l 0.17,-0.72 -0.02,0.07 0.12,-0.72 v 0 l 0.09,-0.72 v 0.1 l 0.12,-1.9 v 0 l 0.03,-0.19 -0.03,0.07 v -0.07 0 -0.07 0 -0.05 0 -0.1 0 -0.07 0 -0.05 l 0.03,0.22 v -0.07 l -0.03,-0.05 v -0.07 0.02 l -0.04,-0.12 0.91,0.67 h -0.03 c -0.33,0 -0.62,-0.17 -0.79,-0.43 -0.17,-0.29 -0.17,-0.62 0,-0.91 0.17,-0.29 0.46,-0.46 0.79,-0.43 h 0.03 c 0.41,0 0.74,0.26 0.84,0.67 l 0.02,0.12 v 0.05 l 0.03,0.07 v -0.03 0.08 c 0.02,0.07 0.02,0.14 0.02,0.21 v 0.05 0 0.07 0 0.1 0 0.05 0 0.07 0 0.07 0.05 l -0.02,0.21 v 0 l -0.15,1.88 v 0.07 l -0.12,0.72 v 0 l -0.17,0.72 v 0.07 l -0.21,0.72 v 0 l -0.07,0.24 c -0.12,0.38 -0.48,0.62 -0.87,0.58 -0.38,-0.08 -0.69,-0.41 -0.69,-0.8 z"
         style="fill:#000000;fill-opacity:1;fill-rule:nonzero;stroke:none"
         transform="matrix(1.3333333,0,0,-1.3333333,0,1120.8)" />
    </g>
    <g
       id="g173"
       transform="translate(-0.44890107,-115.66539)">
      <path
         id="path173"
         d="m 247.01,673.06 -0.03,0.16 c -0.04,0.27 -0.24,0.46 -0.5,0.51 -0.26,0.07 -0.53,-0.03 -0.67,-0.27 -0.15,-0.21 -0.15,-0.5 0,-0.69 l 0.02,-0.05 -0.07,0.12 0.02,-0.02 -0.04,0.31 v 0 c -0.05,-0.31 0.14,-0.6 0.43,-0.72 l 0.05,-0.03 -0.46,0.75 v -0.03 c -0.02,-0.12 0.02,-0.24 0.05,-0.33 l 0.02,-0.05 -0.05,0.36 v -0.02 c -0.04,-0.29 0.1,-0.56 0.34,-0.72 h 0.02 v 0 l 0.03,-0.03 -0.24,0.22 0.02,-0.03 v 0 l 0.03,-0.02 c 0.12,-0.14 0.28,-0.26 0.45,-0.34 l 0.07,-0.02 c 0.05,0 0.1,-0.02 0.15,-0.02 l 0.48,-0.05 -0.07,0.02 0.28,-0.07 h 0.05 l 0.27,-0.02 0.09,-0.03 0.77,-0.02 v 0 l 0.38,-0.03 c 0.05,0 0.1,0 0.15,0 l 0.31,0.03 h 0.02 l 0.2,0.02 h -0.05 l 0.09,0.03 h 0.08 0.16 -0.16 0.12 c 0.14,0 0.28,0 0.4,0.04 l 0.05,0.03 -0.77,0.02 v 0 l -0.52,0.55 0.04,-0.07 -0.07,0.17 0.27,-1.49 v 0.05 l 0.12,-0.91 v 0 L 249.5,669 v -0.02 l 0.08,-0.34 -0.03,0.02 0.07,-0.57 v 0.17 l -0.02,-0.39 1.03,0.99 h -0.02 c -0.58,0 -1.03,-0.48 -1.03,-1.06 v 0 -0.02 0 0 0 0 -0.03 l 1.03,1.03 h -0.03 c -0.26,0 -0.52,-0.09 -0.72,-0.31 -0.19,-0.19 -0.28,-0.45 -0.28,-0.74 v 0 0 -0.03 c 0,-0.26 0.12,-0.52 0.31,-0.72 l 0.02,-0.02 -0.33,0.72 v 0 -0.02 -0.03 c 0.02,-0.14 0.04,-0.29 0.12,-0.43 l 0.02,-0.02 c 0.24,-0.48 0.82,-0.7 1.34,-0.48 v 0 c 0.39,0.16 0.63,0.55 0.63,0.96 0,0.38 -0.24,0.74 -0.63,0.91 v 0.02 l 0.51,-0.5 -0.03,0.05 0.12,-0.51 v 0.03 0.02 0 c 0,0.29 -0.12,0.55 -0.28,0.74 l -0.03,0.03 0.29,-0.75 v 0.03 0 0 l -1.06,-1.01 h 0.03 c 0.57,0 1.05,0.46 1.05,1.03 v 0.03 0 0 0 0 0.02 0 c 0,0.58 -0.45,1.06 -1.03,1.06 -0.57,0 -1.03,-0.46 -1.05,-1.01 0,-0.58 0.45,-1.06 1.03,-1.06 h 0.02 c 0.55,-0.02 1.03,0.41 1.03,0.99 l 0.03,0.38 c 0,0.05 0,0.1 0,0.14 l -0.07,0.6 v 0.03 l -0.05,0.36 v -0.05 l -0.17,1.39 v 0.03 l -0.14,0.91 v 0.05 l -0.27,1.48 c -0.02,0.08 -0.05,0.15 -0.07,0.22 l -0.02,0.07 c -0.12,0.27 -0.32,0.46 -0.58,0.58 -0.26,0.09 -0.55,0.09 -0.82,-0.03 v 0 c -0.04,-0.04 -0.09,-0.04 -0.16,-0.09 l -0.03,-0.03 0.31,0.15 -0.16,-0.05 v 0 l -0.15,-0.05 0.05,0.03 -0.1,-0.05 v 0 l -0.19,-0.03 v 0 l -0.33,-0.07 0.16,0.03 -0.38,-0.03 h 0.05 -0.79 v 0 h -0.27 0.03 -0.29 0.05 l -0.48,0.05 c -0.12,0.02 -0.22,0 -0.32,-0.02 l -0.07,-0.03 0.19,0.03 h -0.02 v 0 h -0.05 c -0.14,0 -0.26,-0.05 -0.38,-0.12 l -0.03,-0.03 v 0 l -0.02,-0.02 0.34,0.14 -0.03,-0.02 0.36,-0.03 h -0.02 c -0.12,0.05 -0.24,0.08 -0.36,0.05 h -0.03 c -0.04,0 -0.12,-0.02 -0.16,-0.05 h -0.05 l 0.17,0.03 v 0 l 0.31,-0.03 h -0.03 c -0.09,0.03 -0.19,0.08 -0.28,0.05 h -0.03 c -0.36,-0.02 -0.62,-0.31 -0.62,-0.67 0.05,-0.36 0.33,-0.62 0.69,-0.6 h 0.15 c 0.14,0 0.29,0.1 0.36,0.19 0.09,0.1 0.12,0.27 0.12,0.39 z"
         style="fill:#000000;fill-opacity:1;fill-rule:nonzero;stroke:none"
         transform="matrix(1.3333333,0,0,-1.3333333,0,1120.8)" />
    </g>
    <g
       id="g174"
       transform="translate(-0.44890107,-115.66539)">
      <path
         id="path174"
         d="m 246.7,666.53 0.24,-0.03 0.07,-0.02 0.81,-0.02 v 0 l 0.68,-0.05 h 0.04 0.44 c 0.04,0 0.09,0 0.14,0 l 0.38,0.07 h 0.05 l 0.12,0.02 v 0 l 0.15,0.03 h -0.12 0.12 -0.03 0.39 l -0.24,0.05 0.04,-0.03 c 0.51,-0.12 1.01,0.17 1.13,0.67 0.12,0.51 -0.17,0.99 -0.67,1.11 l -0.05,0.05 c -0.09,0 -0.21,0.02 -0.29,0 h -0.4 l -0.1,-0.03 -0.14,-0.02 -0.1,-0.03 -0.12,-0.04 v 0 l -0.14,-0.03 0.09,0.03 -0.36,-0.1 0.1,0.02 -0.46,-0.02 h 0.03 l -0.68,-0.05 h -0.02 l -0.82,-0.07 h -0.04 l -0.24,-0.02 c -0.36,-0.08 -0.65,-0.39 -0.65,-0.75 0,-0.38 0.29,-0.69 0.65,-0.74 z"
         style="fill:#000000;fill-opacity:1;fill-rule:nonzero;stroke:none"
         transform="matrix(1.3333333,0,0,-1.3333333,0,1120.8)" />
    </g>
    <g
       id="g175"
       transform="translate(-0.44890107,-115.66539)">
      <path
         id="path175"
         d="m 255.05,674.76 0.02,0.1 -0.05,-0.17 v 0.02 l -0.07,-0.17 v 0.03 c 0.05,0.07 0.1,0.17 0.12,0.26 v 0.03 0 0 0 0.02 l -0.05,-0.14 v 0.02 0 l 0.03,0.02 c 0.02,0.03 0.02,0.08 0.05,0.12 v 0.03 0 0 l -0.36,-0.48 v 0.02 0 l 0.04,0.03 0.08,0.04 h 0.02 c 0.14,0.12 0.24,0.27 0.29,0.44 V 675 l -0.84,-0.55 h 0.02 c 0.39,-0.07 0.75,0.17 0.84,0.55 v 0.02 l -0.29,-0.45 0.03,0.02 c 0.02,0.03 0.05,0.05 0.09,0.07 l 0.2,0.22 0.02,0.02 0.07,0.08 v 0 l 0.03,0.04 -0.08,-0.07 0.08,0.07 0.09,0.08 0.05,0.04 -0.07,-0.07 0.07,0.07 -0.1,-0.07 0.08,0.05 0.09,0.05 0.07,0.07 -0.16,-0.1 0.09,0.03 0.07,0.05 0.08,0.04 -0.05,-0.02 0.17,0.1 -0.12,-0.05 0.14,0.05 h 0.02 l 0.12,0.04 -0.12,-0.02 0.12,0.02 0.1,0.03 0.1,0.05 -0.24,-0.05 h 0.12 l 0.12,0.02 0.12,0.03 h -0.1 0.1 -0.12 0.12 0.12 0.12 v 0 l 0.09,0.02 h -0.14 l 0.29,-0.02 h 0.04 0.05 l -0.14,0.02 0.09,-0.02 c 0.05,0 0.1,-0.03 0.15,-0.03 h 0.07 l -0.36,0.1 0.07,-0.03 c 0.05,-0.04 0.1,-0.04 0.15,-0.07 l 0.09,-0.02 v 0 l 0.05,-0.03 -0.1,0.05 0.08,-0.05 -0.15,0.1 0.05,-0.02 0.1,-0.08 0.07,-0.02 v 0 l 0.05,-0.05 v 0 l 0.09,-0.02 -0.09,0.05 0.04,-0.03 -0.14,0.1 0.07,-0.05 c 0.03,-0.02 0.05,-0.07 0.07,-0.07 l 0.08,-0.07 h 0.04 l 0.05,-0.05 -0.12,0.09 0.05,-0.04 -0.1,0.12 0.03,-0.05 0.02,-0.03 0.12,-0.14 v -0.02 l 0.19,-0.24 -0.07,0.09 0.17,-0.24 -0.02,0.03 0.16,-0.27 v 0 l 0.15,-0.26 -0.05,0.07 0.31,-0.67 -0.05,0.09 0.63,-1.84 v -0.03 l 0.67,-2.06 0.05,-0.1 0.07,-0.19 v 0.05 l 0.31,-0.77 0.05,-0.07 1.08,-2.07 0.02,-0.04 0.34,-0.48 v -0.03 l 0.31,-0.45 0.05,-0.05 0.34,-0.43 0.04,-0.05 0.77,-0.89 0.05,-0.02 0.22,-0.24 c 0.33,-0.34 0.88,-0.36 1.22,0 0.36,0.31 0.36,0.86 0.02,1.22 l -0.21,0.22 0.02,-0.03 -0.79,0.89 0.02,-0.05 -0.31,0.46 0.03,-0.05 -0.34,0.46 h 0.02 l -0.31,0.48 0.05,-0.08 -1.1,2.04 0.04,-0.07 -0.33,0.77 -0.03,0.05 -0.07,0.19 0.05,-0.12 -0.7,2.06 v 0 l -0.62,1.88 -0.02,0.07 -0.32,0.69 -0.04,0.08 -0.15,0.24 v 0 l -0.17,0.28 v 0 l -0.14,0.24 -0.1,0.1 -0.16,0.22 v 0 l -0.1,0.12 0.02,-0.03 -0.02,0.05 c -0.05,0.05 -0.1,0.1 -0.12,0.14 l -0.07,0.05 c -0.05,0.05 -0.1,0.07 -0.15,0.1 l -0.04,0.05 0.04,-0.05 -0.07,0.05 0.1,-0.05 -0.05,0.05 c -0.05,0.02 -0.1,0.07 -0.14,0.09 l -0.05,0.03 -0.1,0.04 -0.07,0.03 v 0 l -0.05,0.05 v 0 l -0.07,0.02 0.07,-0.05 -0.05,0.03 c -0.04,0.04 -0.09,0.07 -0.14,0.07 l -0.1,0.05 -0.09,0.02 -0.07,0.02 v 0 h -0.08 l 0.17,-0.04 -0.07,0.02 c -0.1,0.05 -0.24,0.1 -0.36,0.1 l -0.07,-0.03 h 0.17 l -0.1,0.03 c -0.05,0 -0.1,0 -0.17,0 h -0.05 0.05 -0.29 c -0.07,0 -0.14,0 -0.19,0 l -0.12,-0.03 h 0.03 l -0.12,-0.02 h 0.12 -0.12 c -0.05,0 -0.1,0 -0.15,0 l -0.09,-0.03 -0.08,-0.02 -0.12,-0.02 0.1,0.02 -0.12,-0.02 c -0.07,-0.03 -0.17,-0.05 -0.24,-0.08 l -0.1,-0.07 0.1,0.05 -0.1,-0.02 -0.09,-0.05 -0.1,-0.05 0.03,0.02 -0.12,-0.04 -0.08,-0.08 -0.16,-0.09 -0.1,-0.07 -0.05,-0.05 0.05,0.05 -0.07,-0.05 c -0.07,-0.03 -0.1,-0.07 -0.15,-0.12 l -0.07,-0.07 0.07,0.07 -0.04,-0.05 -0.08,-0.07 -0.07,-0.07 -0.09,-0.08 -0.03,-0.09 0.07,0.09 -0.07,-0.04 -0.07,-0.1 -0.05,-0.07 v 0 l -0.05,-0.07 0.05,0.04 -0.19,-0.24 v 0 h -0.02 c -0.12,-0.16 -0.17,-0.4 -0.12,-0.6 V 675 c 0.07,-0.38 0.45,-0.62 0.84,-0.55 0.4,0.07 0.64,0.45 0.57,0.84 -0.09,0.41 -0.45,0.65 -0.84,0.57 h -0.02 c -0.19,-0.04 -0.36,-0.16 -0.46,-0.31 -0.12,-0.17 -0.17,-0.36 -0.12,-0.55 v -0.02 l 0.15,0.6 -0.03,-0.03 -0.05,-0.07 v -0.02 0 l -0.02,-0.03 c -0.1,-0.14 -0.1,-0.31 -0.07,-0.5 v 0 0 -0.03 c 0.02,-0.04 0.02,-0.09 0.05,-0.12 v -0.02 0 -0.02 l -0.03,0.14 v -0.02 0 0 0 -0.03 c 0.03,-0.09 0.07,-0.19 0.12,-0.26 l 0.03,-0.03 -0.1,0.17 v -0.02 c 0.07,-0.19 0.24,-0.34 0.43,-0.39 0.19,-0.04 0.41,-0.02 0.58,0.12 l 0.07,0.03 c 0.1,0.09 0.14,0.19 0.17,0.31 z"
         style="fill:#000000;fill-opacity:1;fill-rule:nonzero;stroke:none"
         transform="matrix(1.3333333,0,0,-1.3333333,0,1120.8)" />
    </g>
    <g
       id="g176"
       transform="translate(-0.44890107,-115.66539)">
      <path
         id="path176"
         d="m 253.97,674.42 0.21,-0.24 v -0.02 l 0.22,-0.22 -0.02,0.03 0.16,-0.22 -0.04,0.07 0.16,-0.24 -0.04,0.03 0.4,-0.65 -0.07,0.14 0.27,-0.62 -0.03,0.02 0.24,-0.62 -0.02,0.1 0.41,-1.71 v 0.05 l 0.16,-0.79 0.03,-0.1 0.53,-1.68 c 0,-0.07 0.04,-0.12 0.07,-0.19 l 0.12,-0.24 -0.03,0.05 0.12,-0.24 c 0,-0.05 0.03,-0.07 0.05,-0.12 l 0.15,-0.24 c 0.04,-0.05 0.04,-0.07 0.09,-0.12 l 0.17,-0.22 -0.02,0.03 0.16,-0.24 0.05,-0.03 0.17,-0.21 0.02,-0.05 0.17,-0.19 c 0.03,-0.03 0.05,-0.05 0.07,-0.1 l 0.24,-0.19 v 0 l 0.22,-0.19 0.07,-0.08 0.58,-0.45 c 0.02,-0.05 0.07,-0.07 0.09,-0.07 l 0.24,-0.15 h -0.02 l 0.24,-0.14 c 0.05,-0.05 0.1,-0.05 0.14,-0.07 l 0.27,-0.12 -0.1,0.02 0.24,-0.12 0.1,-0.05 0.26,-0.12 c 0.05,-0.02 0.07,-0.02 0.12,-0.02 l 0.27,-0.1 -0.03,0.03 0.29,-0.12 -0.05,0.02 0.27,-0.12 c 0.04,0 0.09,-0.02 0.14,-0.02 l 0.29,-0.1 v 0 l 0.29,-0.05 0.07,-0.02 0.81,-0.12 0.05,-0.03 0.31,-0.02 c 0.6,-0.07 1.18,0.36 1.23,0.98 0.07,0.63 -0.39,1.16 -0.99,1.23 l -0.31,0.05 h 0.07 l -0.81,0.12 h 0.07 l -0.29,0.04 v 0 l -0.29,0.08 0.17,-0.05 -0.29,0.09 -0.02,0.03 -0.29,0.09 h -0.02 l -0.27,0.1 0.12,-0.05 -0.26,0.12 0.07,-0.05 -0.24,0.15 -0.07,0.05 -0.26,0.09 0.14,-0.07 -0.24,0.17 h -0.02 l -0.22,0.12 0.12,-0.07 -0.6,0.48 0.07,-0.05 -0.24,0.19 v 0 l -0.21,0.22 0.09,-0.1 -0.19,0.19 0.02,-0.02 -0.16,0.19 0.02,-0.02 -0.17,0.24 -0.05,0.02 -0.14,0.22 0.07,-0.1 -0.17,0.24 0.08,-0.12 -0.12,0.24 -0.03,0.05 -0.12,0.26 0.07,-0.19 -0.55,1.68 0.05,-0.07 -0.19,0.77 -0.03,0.02 -0.43,1.7 c 0,0.05 -0.02,0.08 -0.05,0.12 l -0.24,0.63 -0.02,0.05 -0.26,0.62 c -0.03,0.05 -0.08,0.1 -0.1,0.17 l -0.43,0.65 -0.07,0.07 -0.2,0.24 -0.04,0.05 -0.22,0.21 -0.02,0.03 -0.24,0.21 c -0.08,0.07 -0.15,0.1 -0.22,0.15 l -0.29,0.16 c -0.41,0.17 -0.89,0.08 -1.13,-0.28 -0.28,-0.34 -0.26,-0.84 0.03,-1.16 z"
         style="fill:#000000;fill-opacity:1;fill-rule:nonzero;stroke:none"
         transform="matrix(1.3333333,0,0,-1.3333333,0,1120.8)" />
    </g>
    <g
       id="g177"
       transform="translate(-0.44890107,-115.66539)">
      <path
         id="path177"
         d="m 257.69,674.86 c 0,-0.32 -0.27,-0.58 -0.58,-0.58 -0.33,0 -0.6,0.26 -0.6,0.58 0,0.31 0.27,0.6 0.6,0.6 0.31,0 0.58,-0.29 0.58,-0.6 z"
         style="fill:#000000;fill-opacity:1;fill-rule:evenodd;stroke:none"
         transform="matrix(1.3333333,0,0,-1.3333333,0,1120.8)" />
    </g>
    <g
       id="g178"
       transform="translate(-0.44890107,-115.66539)">
      <path
         id="path178"
         d="m 257.06,667.1 v -0.02 0 0 -0.05 -0.02 l 0.24,0.48 -0.02,-0.03 c -0.14,-0.09 -0.22,-0.26 -0.24,-0.43 v -0.02 l 0.24,0.43 h -0.02 c -0.05,-0.05 -0.12,-0.12 -0.15,-0.19 l -0.02,-0.03 0.69,0.34 h -0.02 c -0.29,0.05 -0.58,-0.1 -0.7,-0.36 l -0.04,-0.07 0.04,0.09 -0.04,-0.09 -0.05,-0.07 -0.65,-1.13 -0.02,-0.03 -0.24,-0.45 v 0 l -0.32,-0.6 c -0.04,-0.07 -0.07,-0.15 -0.07,-0.22 l -0.02,-0.07 c -0.07,-0.26 0.02,-0.58 0.26,-0.74 0.19,-0.22 0.51,-0.27 0.77,-0.17 0.26,0.07 0.46,0.31 0.5,0.6 l 0.03,0.07 -0.07,-0.19 0.31,0.65 v 0 l 0.21,0.45 v 0 l 0.56,1.18 -0.03,-0.07 0.05,0.12 0.05,0.04 0.02,0.08 -0.55,-0.41 h 0.02 c 0.24,0.05 0.46,0.19 0.56,0.43 l 0.02,0.02 -0.12,-0.16 0.02,0.02 c 0.12,0.14 0.17,0.34 0.15,0.53 v 0.02 l -0.15,-0.55 v 0.02 c 0.12,0.15 0.17,0.32 0.17,0.51 v 0.02 0.05 0 0 0.02 c -0.05,0.34 -0.33,0.6 -0.67,0.6 -0.36,0 -0.65,-0.26 -0.7,-0.6 z"
         style="fill:#000000;fill-opacity:1;fill-rule:nonzero;stroke:none"
         transform="matrix(1.3333333,0,0,-1.3333333,0,1120.8)" />
    </g>
    <g
       id="g179"
       transform="translate(-0.44890107,-115.66539)">
      <path
         id="path179"
         d="m 258.72,665.88 -0.12,-0.17 -0.02,-0.02 -0.08,-0.07 c -0.02,-0.05 -0.02,-0.1 -0.07,-0.12 l -0.05,-0.12 v -0.05 l -0.14,-0.34 -0.02,-0.05 -0.03,-0.12 0.03,0.1 -0.05,-0.12 0.02,0.02 -0.17,-0.28 0.08,0.12 -0.05,-0.08 c -0.27,-0.33 -0.17,-0.81 0.14,-1.05 0.36,-0.27 0.82,-0.19 1.08,0.14 l 0.05,0.05 c 0.02,0.05 0.05,0.1 0.07,0.14 l 0.15,0.29 0.02,0.05 0.05,0.12 0.02,0.1 0.05,0.12 -0.05,-0.1 0.15,0.36 -0.03,-0.02 0.05,0.12 -0.05,-0.12 0.05,0.12 0.05,0.07 0.09,0.19 c 0.17,0.34 0.03,0.74 -0.28,0.94 -0.32,0.16 -0.72,0.09 -0.94,-0.22 z"
         style="fill:#000000;fill-opacity:1;fill-rule:nonzero;stroke:none"
         transform="matrix(1.3333333,0,0,-1.3333333,0,1120.8)" />
    </g>
    <g
       id="g180"
       transform="translate(-0.44890107,-115.66539)">
      <path
         id="path180"
         d="m 255.36,662.86 h 0.19 -0.05 0.22 0.05 1.03 -0.05 l 0.67,-0.05 h 0.05 l 1.85,-0.05 h 0.02 0.12 c 0.32,0 0.6,0.17 0.77,0.46 0.17,0.26 0.17,0.6 0,0.88 -0.17,0.29 -0.45,0.46 -0.77,0.46 h -0.12 -0.02 l -1.85,-0.05 v 0 l -0.69,-0.02 h -0.08 l -1.03,-0.12 h 0.05 -0.22 l -0.07,-0.03 -0.21,-0.02 c -0.36,-0.07 -0.63,-0.41 -0.6,-0.79 0.04,-0.39 0.36,-0.67 0.74,-0.67 z"
         style="fill:#000000;fill-opacity:1;fill-rule:nonzero;stroke:none"
         transform="matrix(1.3333333,0,0,-1.3333333,0,1120.8)" />
    </g>
  </g>
</svg>
