<svg width="32.74" height="14.188" version="1.1" viewBox="0 0 32.74 14.188" xmlns="http://www.w3.org/2000/svg">
 <g transform="translate(-536.03 -125.26)">
  <path transform="matrix(1.3333,0,0,-1.3333,0,1120.8)" d="m402.19 738.29v-0.05h-0.02v-0.02l0.02 0.02-0.02-0.02 0.98 0.38c-0.31 0.12-0.65 0.05-0.89-0.19s-0.28-0.6-0.16-0.89l0.07-0.14c0.05-0.12 0.12-0.24 0.21-0.34l0.34-0.31c0.12-0.12 0.26-0.22 0.43-0.27l0.55-0.16 0.12-0.05 0.84-0.17h0.05l0.19-0.02 0.12-0.03h0.29l0.43 0.03h0.12l0.6 0.07h-0.04l0.16 0.02c0.15 0.03 0.27 0.05 0.39 0.1l0.14 0.07-0.33-0.1 0.14 0.03c0.1 0 0.19 0.05 0.26 0.07l0.17 0.07 0.07 0.03 0.12 0.07-0.04-0.05 0.16 0.07 0.05 0.03 0.15 0.07 0.14 0.07 0.12 0.1 0.1 0.04 0.09 0.1h0.03l0.31 0.24 0.09 0.1 0.05 0.02-0.17-0.12 0.05 0.05c0.15 0.07 0.27 0.19 0.36 0.31l0.05 0.07-0.17-0.19 0.05 0.05c0.05 0.07 0.12 0.12 0.14 0.19l0.05 0.07-0.14-0.19 0.05 0.05c0.04 0.05 0.09 0.12 0.14 0.19l0.07 0.05 0.05 0.07c0.05 0.1 0.1 0.19 0.12 0.29l0.02 0.07-0.28-0.48 0.04 0.05c0.12 0.14 0.24 0.29 0.29 0.48l0.05 0.07 0.02 0.1v0.07l-0.02-0.07 0.02 0.04-0.14-0.26 0.07 0.05c0.12 0.19 0.19 0.43 0.19 0.65v0.16l-0.07-0.38 0.05 0.07 0.02 0.1 0.03 0.07c0.02 0.1 0.02 0.22 0.05 0.29v0.31c0 0.12-0.03 0.22-0.03 0.31l-0.05 0.17-0.02 0.1-0.05 0.14c-0.12 0.41-0.48 0.74-0.91 0.84-0.46 0.1-0.89-0.07-1.18-0.38-0.31-0.36-0.4-0.82-0.24-1.25l0.05-0.12-0.05 0.09 0.05-0.16-0.02 0.26v-0.31l0.02 0.31v-0.1 0.1-0.07c-0.05-0.12-0.07-0.27-0.07-0.39l0.02-0.09v-0.07l0.17 0.72-0.05-0.1c-0.04-0.07-0.09-0.19-0.12-0.29l-0.04-0.14-0.03-0.1 0.03 0.07-0.03-0.04 0.29 0.45-0.05-0.05c-0.12-0.14-0.21-0.28-0.29-0.45v-0.07l0.12 0.26-0.02-0.05-0.05-0.07 0.12 0.17-0.05-0.05c-0.02-0.05-0.09-0.12-0.12-0.17l-0.04-0.07 0.14 0.17-0.05-0.05c-0.05-0.05-0.12-0.12-0.14-0.17l-0.05-0.07 0.31 0.34-0.05-0.05c-0.07-0.05-0.14-0.1-0.19-0.17l-0.05-0.02 0.12 0.12-0.31-0.29h-0.02l-0.12-0.1 0.09 0.05-0.14-0.07 0.12 0.07-0.14-0.07 0.07 0.02-0.15-0.07-0.07-0.02-0.14-0.08 0.05 0.03-0.15-0.07 0.27 0.07h-0.15c-0.12-0.05-0.21-0.07-0.33-0.12l-0.12-0.07 0.36 0.12-0.17-0.03-0.05-0.02-0.58-0.1 0.15 0.03-0.46-0.03h0.03l-0.2-0.02h0.17l-0.21 0.02h0.04l-0.81 0.1h0.09l-0.6 0.12-0.04 0.02-0.51 0.07-0.07 0.03h-0.17c-0.33 0.02-0.65-0.17-0.79-0.46-0.14-0.31-0.1-0.67 0.14-0.91 0.22-0.24 0.56-0.34 0.89-0.22v0.03c0.24 0.07 0.39 0.24 0.48 0.45 0.07 0.22 0.07 0.46-0.05 0.68v0.02-0.02 0.02l-0.02 0.05c-0.14 0.24-0.41 0.41-0.7 0.41-0.28 0-0.52-0.17-0.67-0.41z"/>
  <path transform="matrix(1.3333,0,0,-1.3333,0,1120.8)" d="m408.62 737.3 0.24-0.04c0.12-0.05 0.29-0.05 0.44-0.05l0.86 0.12h-0.05l2.19 0.17h-0.1l3.26 0.02h-0.04l5.54-0.22h-0.05l0.79-0.04h0.03l3.24-0.12h0.24c0.5 0 0.96 0.24 1.2 0.67 0.24 0.41 0.24 0.93 0 1.37-0.24 0.4-0.7 0.67-1.2 0.67h-0.19 0.04l-3.24 0.07h0.03l-0.77 0.05h-0.05l-5.54 0.12h-0.1l-3.26-0.17h-0.1l-2.16-0.29 0.05 0.03-0.89-0.1c-0.26-0.02-0.53-0.14-0.72-0.34l-0.17-0.16c-0.26-0.27-0.36-0.65-0.26-1.01 0.12-0.36 0.38-0.65 0.74-0.75z"/>
  <path transform="matrix(1.3333,0,0,-1.3333,0,1120.8)" d="m420.41 745.32v-0.98l0.02-0.34v0.12l-0.02-0.96-0.03-1.27 0.03 0.12-0.05-0.24v-0.24l0.05-0.65v0.12l-0.03-0.55v-0.07l0.03-0.72v0.09-0.09c0-0.46 0.24-0.87 0.62-1.08 0.36-0.24 0.84-0.24 1.25 0 0.38 0.21 0.6 0.62 0.6 1.08v0.16l-0.07 0.72 0.02-0.09-0.02 0.55v0.07l-0.05 0.65v-0.19 0.26l0.02 0.1-0.02 1.27-0.02 0.96c0 0.07-0.03 0.14-0.03 0.22l-0.07 0.31 0.05-0.12-0.1 0.86c-0.02 0.58-0.53 1.01-1.1 1.01-0.6-0.02-1.06-0.48-1.08-1.08z"/>
  <path transform="matrix(1.3333,0,0,-1.3333,0,1120.8)" d="m421.54 744.58 0.21-0.1c0.07 0 0.12-0.02 0.22-0.02l0.62-0.08-0.12 0.03 0.48-0.12c0.1 0 0.17 0 0.22-0.03l1.34-0.02h-0.07l0.67-0.07-1.13 1.27-0.04-2.59v-0.03l-0.05-2.66v0.02l-0.05-1.46v-0.14c0-0.48 0.26-0.92 0.67-1.16s0.91-0.24 1.32 0 0.67 0.68 0.67 1.16v0.12-0.05l0.05 1.46v2.74l-0.05 2.59c-0.02 0.36-0.16 0.7-0.43 0.94-0.26 0.21-0.6 0.33-0.96 0.28l-0.67-0.04h0.07l-1.34-0.05h0.12l-0.53 0.02h-0.07l-0.65-0.02h0.12l-0.22 0.02c-0.55 0.05-1.03-0.31-1.12-0.81-0.1-0.53 0.19-1.06 0.72-1.2z"/>
 </g>
</svg>
