<svg width="56.17" height="33.73" version="1.1" viewBox="0 0 56.17 33.73" xmlns="http://www.w3.org/2000/svg">
 <g transform="translate(-65.737 -107.49)">
  <path transform="matrix(1.3333 0 0 -1.3333 0 1120.8)" d="m63.672 740.14-0.408 0.16c-0.048 0.03-0.12 0.03-0.168 0.05h-0.072l0.6-0.45v0.02c-0.096 0.17-0.216 0.31-0.384 0.38l-0.072 0.05 0.384-0.38v0.02c-0.096 0.17-0.216 0.29-0.384 0.39l-0.072 0.02c-0.072 0.05-0.12 0.07-0.192 0.07l-0.048 0.03h-0.048l-0.048 0.02h-0.096l0.312-0.1-0.024 0.03c-0.12 0.05-0.264 0.09-0.384 0.09l-0.192 0.03 0.144-0.03-0.288 0.08 0.12-0.05-0.336 0.12c-0.072 0.02-0.12 0.05-0.192 0.05l-0.336 0.04-0.096 0.03-1.008 0.05-0.504 0.02h-0.024l-0.864 0.02h-0.096l-0.576-0.04h-0.072l-0.936-0.1-0.36-0.05h-0.096l-0.24-0.05 0.144 0.03-0.216-0.03c-0.048-0.02-0.12-0.02-0.168-0.04l-0.48-0.1-0.12-0.05-0.384-0.12-0.576-0.21c-0.096-0.03-0.168-0.08-0.264-0.12l-0.504-0.32c-0.072-0.02-0.12-0.07-0.168-0.12l-0.312-0.28 0.072 0.07-0.36-0.29 0.072 0.07-0.24-0.17 0.744 0.2h-0.024c-0.336 0.02-0.672-0.1-0.912-0.32l-0.024-0.02v-0.02h-0.024l0.024 0.02-0.024-0.02 0.888 0.31h-0.024c-0.696 0.02-1.296-0.51-1.344-1.23v-0.02l0.408 0.89-0.024-0.03v-0.02l-0.048-0.02c-0.24-0.24-0.384-0.56-0.408-0.89v-0.03l0.144 0.56-0.048-0.1c-0.096-0.17-0.144-0.36-0.144-0.58v-0.04l0.408 0.93-0.024-0.02c-0.144-0.15-0.264-0.34-0.336-0.53l-0.024-0.07c-0.048-0.12-0.072-0.24-0.072-0.36v-0.03l0.144 0.56-0.024-0.05c-0.096-0.19-0.144-0.39-0.144-0.6l-0.024-0.05v-0.22c0-0.09 0.024-0.16 0.024-0.26l0.048-0.24c0.048-0.24 0.168-0.48 0.36-0.67l0.024-0.03-0.24 0.34 0.024-0.05-0.144 0.6v-0.02c0-0.34 0.12-0.67 0.384-0.94l0.024-0.02 0.024-0.03-0.24 0.34 0.024-0.05c0.048-0.12 0.144-0.24 0.24-0.33l0.024-0.03c0.24-0.24 0.576-0.38 0.912-0.38h0.024l-1.152 0.72 0.024-0.05c0.12-0.26 0.336-0.46 0.576-0.58l0.048-0.02-0.72 1.18v-0.03c0-0.33 0.12-0.67 0.384-0.93 0.24-0.24 0.576-0.39 0.912-0.39h0.048l-0.912 0.39 0.024-0.03 0.024-0.02 0.024-0.03c0.168-0.16 0.384-0.28 0.6-0.33l0.096-0.03-0.264 0.1 0.192-0.1 0.12-0.04c0.072-0.03 0.144-0.05 0.24-0.08l0.12-0.02-0.168 0.05 0.288-0.1c0.096-0.02 0.168-0.05 0.264-0.07l0.552-0.07 0.576-0.07h0.12l0.576-0.03h0.048l1.32-0.02h0.072l4.2 0.14h-0.024l3.936 0.05h-0.024l1.104-0.02h0.024l1.92 0.02h0.12l2.016 0.17h-0.12 0.024c0.792 0.02 1.392 0.65 1.392 1.39 0 0.79-0.6 1.42-1.392 1.42h-0.168l-2.016-0.22 0.096 0.02-1.92-0.04h0.024-1.128l-3.912-0.08h-0.048l-4.224-0.19h0.048-1.32 0.048l-0.576 0.03h0.12l-0.576 0.04-0.576 0.08 0.24-0.05-0.288 0.09c-0.048 0-0.096 0.03-0.144 0.03l-0.12 0.02 0.216-0.05-0.12 0.05 0.096-0.05-0.096 0.05c-0.096 0.03-0.168 0.07-0.264 0.1l-0.096 0.02 0.6-0.33-0.048 0.04-0.024 0.03c-0.24 0.24-0.576 0.36-0.912 0.36h-0.048l1.32-1.3v0.03c-0.024 0.5-0.288 0.96-0.744 1.17l-0.048 0.03 0.6-0.6-0.024 0.04c-0.24 0.46-0.696 0.72-1.176 0.72h-0.024l0.912-0.36-0.024 0.03 0.264-0.36-0.024 0.05c-0.072 0.14-0.168 0.24-0.264 0.36h-0.024l-0.024 0.02 0.408-0.91v0.02c0 0.22-0.072 0.41-0.144 0.58l-0.024 0.05c-0.072 0.12-0.144 0.24-0.264 0.36h-0.024l0.384-0.65-0.072 0.24 0.048-0.27v0.2l-0.024 0.02v0.05l-0.12-0.58 0.024 0.05c0.096 0.19 0.144 0.41 0.12 0.62v0.03l-0.048-0.46 0.024 0.05-0.288-0.48 0.024 0.02c0.216 0.24 0.336 0.58 0.336 0.92v0.04l-0.12-0.57 0.024 0.05 0.024 0.02c0.096 0.22 0.12 0.41 0.12 0.62v0.03l-0.36-0.94 0.024 0.03 0.048 0.04c0.24 0.24 0.36 0.6 0.36 0.94v0.02c-0.048 0.72-0.648 1.25-1.344 1.23-0.72-0.05-1.248-0.65-1.224-1.35 0.048-0.69 0.648-1.24 1.344-1.22h0.024c0.336 0.02 0.672 0.19 0.888 0.43l0.024 0.03-0.024-0.03 0.024 0.03 0.024 0.02-0.864-0.38h0.024c0.24 0 0.48 0.09 0.696 0.24l0.24 0.16 0.048 0.05 0.36 0.29 0.048 0.05 0.312 0.29-0.144-0.12 0.504 0.33-0.264-0.12 0.576 0.22 0.384 0.14-0.144-0.05 0.48 0.12-0.144-0.02 0.216 0.02 0.12 0.03 0.216 0.05h-0.096l0.36 0.04h-0.024l0.96 0.12h-0.048l0.552 0.08h-0.072 0.888l0.504 0.04 1.008 0.05h0.096l0.336 0.05h-0.216l0.36-0.02h0.12l0.288 0.02h0.192c0.12 0.02 0.264 0.05 0.384 0.12h0.024l-0.312-0.1 0.096 0.03h0.048l0.048 0.02h0.048-0.336l0.072-0.02-0.216 0.07 0.024-0.02c0.072-0.03 0.144-0.05 0.216-0.05l0.072-0.03-0.216 0.08 0.024-0.03c0.144-0.07 0.312-0.09 0.48-0.05h0.096l0.432 0.08c0.288 0.07 0.528 0.31 0.552 0.6 0.024 0.31-0.144 0.6-0.432 0.72z"/>
  <path transform="matrix(1.3333 0 0 -1.3333 0 1120.8)" d="m58.272 739.78 0.024 0.26-0.024-0.07 0.024 0.07c0.024 0.14 0.024 0.31-0.048 0.46v0.04l-0.048-0.74 0.024 0.07c0.024 0.05 0.048 0.1 0.072 0.17l0.024 0.05v0.05l0.024 0.02-0.192-0.34 0.024 0.05v-0.02l0.024 0.05c0.12 0.09 0.168 0.21 0.216 0.36l0.024 0.04v0.03l-0.216-0.36 0.048 0.05-0.408-0.27h0.048c0.216 0.1 0.408 0.24 0.528 0.46l0.024 0.05-0.528-0.46 0.024 0.02c0.144 0.05 0.288 0.15 0.408 0.27l0.048 0.05-0.432-0.29 0.024 0.02c0.216 0.07 0.408 0.22 0.528 0.39l0.048 0.09-0.552-0.41h0.048c0.12 0.05 0.24 0.1 0.336 0.2l0.048 0.02-0.096-0.07 0.024 0.02 0.024 0.03-0.24-0.12 0.048 0.02c0.24 0.07 0.432 0.22 0.576 0.41l0.024 0.05-1.104-0.46h0.072c0.264-0.05 0.528 0 0.744 0.14h0.024l-0.336-0.12h0.072c0.144 0.05 0.24 0.08 0.36 0.15l0.024 0.02-0.24-0.12 0.048 0.03-0.552-0.05h0.096c0.216-0.05 0.432-0.03 0.648 0.05l0.096 0.04-0.408-0.07 0.816 0.03h0.12l0.48 0.07h-0.168 0.312l-0.24 0.02 0.12-0.02h-0.072l0.096-0.03c0.096-0.02 0.192-0.04 0.288-0.04h0.12l-0.312 0.04 0.264-0.07h0.048l0.456-0.09 0.024-0.03 0.864-0.17 0.384-0.07 0.096-0.02 0.864-0.1 0.816-0.09h-0.024l0.336-0.05 0.096-0.03 0.768-0.04h-0.024l0.312-0.03-0.048 0.03 0.744-0.12h0.048l0.288-0.03h-0.024l0.744-0.07h0.072l1.032-0.05h1.32l0.552 0.05c0.072 0.02 0.144 0.02 0.216 0.05l0.096 0.02-0.312-0.05h0.048-0.024 0.12-0.024 0.024l-0.912 0.36 0.024-0.02c0.24-0.24 0.576-0.36 0.912-0.36h0.072c0.696 0.05 1.248 0.65 1.224 1.34-0.048 0.7-0.624 1.25-1.32 1.23-0.696-0.03-1.248-0.6-1.248-1.3v-0.02c0.024-0.7 0.6-1.27 1.296-1.27h0.024l-0.888 0.36 0.024-0.03-0.408 0.89v-0.02c0.024-0.7 0.6-1.25 1.296-1.23h0.024c0.72 0 1.272 0.58 1.248 1.27 0 0.72-0.576 1.28-1.272 1.28-0.72-0.03-1.272-0.6-1.272-1.3v-0.02l0.024-0.05v-0.05c0-0.31 0.144-0.62 0.384-0.84l0.024-0.02-0.408 0.88v-0.07c0.024-0.17 0.048-0.33 0.12-0.48l0.072-0.17-0.048 0.15 0.096-0.31v0.04l0.096-0.33v-0.05l0.096-0.31-0.048 0.19 0.096-0.7 0.024-0.07 0.192-0.96 0.024-0.09c0-0.08 0.024-0.15 0.048-0.22l0.12-0.29c0.24-0.65 0.984-0.96 1.632-0.72s0.984 0.99 0.72 1.63l-0.096 0.29 0.048-0.21-0.216 1.08 0.024-0.1-0.096 0.72c-0.024 0.07-0.024 0.14-0.048 0.22l-0.096 0.28v-0.04l-0.096 0.36v0.04l-0.096 0.32-0.048 0.12-0.072 0.14 0.096-0.53v0.07c0.024 0.36-0.12 0.68-0.36 0.94l-0.024 0.02 0.36-0.98v0.12c0.024 0.7-0.528 1.27-1.248 1.3h-0.024c-0.696 0-1.272-0.56-1.296-1.25 0-0.7 0.552-1.3 1.248-1.3 0.696-0.02 1.296 0.53 1.32 1.23v0.02c0 0.34-0.12 0.7-0.36 0.94l-0.024 0.02c-0.24 0.24-0.576 0.38-0.912 0.38h-0.024c-0.696 0-1.272-0.55-1.296-1.24 0-0.72 0.552-1.3 1.272-1.32 0.696 0 1.272 0.57 1.296 1.27v0.02c0 0.67-0.528 1.25-1.224 1.3h-0.072l0.864-0.39v0.03c-0.24 0.24-0.552 0.38-0.888 0.38h-0.024 0.024-0.12 0.024-0.048c-0.096 0-0.192 0-0.288-0.02l-0.12-0.03 0.192 0.03-0.552-0.05 0.072 0.02h-1.128l0.072-0.02-1.056 0.05h0.072l-0.744 0.07h-0.024l-0.288 0.02h0.072l-0.744 0.08-0.072 0.02-0.312 0.02h-0.024l-0.744 0.05 0.072-0.02-0.336 0.05h-0.024l-0.816 0.09-0.864 0.1 0.072-0.03-0.384 0.08-0.84 0.14-0.456 0.1 0.096-0.03-0.288 0.07c-0.096 0.03-0.216 0.05-0.312 0.05h-0.12l0.312-0.05-0.096 0.03-0.048 0.02-0.12 0.03h-0.24-0.312-0.192l-0.48-0.1h0.048l-0.816-0.1c-0.168-0.02-0.312-0.07-0.456-0.14l-0.096-0.07 0.408 0.17-0.048-0.03h-0.048c-0.168-0.02-0.336-0.09-0.456-0.19l-0.048-0.02c-0.12-0.1-0.24-0.22-0.336-0.36v-0.03l0.504 0.46-0.072-0.05c-0.216-0.07-0.384-0.24-0.504-0.43l-0.024-0.03 0.792 0.53-0.072-0.02c-0.384-0.07-0.744-0.36-0.864-0.75l-0.024-0.04 0.432 0.55-0.048-0.03c-0.12-0.07-0.24-0.19-0.312-0.33l-0.024-0.03v-0.02l0.072 0.1-0.048-0.05 0.24 0.21-0.048-0.02c-0.192-0.12-0.336-0.31-0.408-0.53l-0.024-0.09v0.02l-0.024-0.02c0-0.05-0.024-0.12-0.024-0.17l-0.024-0.05 0.048 0.17v-0.05c-0.024-0.05-0.048-0.14-0.072-0.22v-0.07l0.048 0.22v-0.03l-0.048-0.14-0.024-0.05c-0.024-0.17-0.024-0.33 0.048-0.5v-0.03l0.024-0.04-0.024 0.48-0.024-0.08v-0.04c-0.048-0.15-0.024-0.32 0.024-0.46v-0.02l0.024-0.05v-0.05l-0.024 0.38v-0.07c-0.072-0.41 0.168-0.79 0.552-0.93h0.024l-0.552 0.62 0.024-0.07c0.024-0.07 0.048-0.15 0.096-0.22l0.096-0.21c0.168-0.32 0.504-0.48 0.816-0.41 0.336 0.05 0.576 0.33 0.624 0.65z"/>
  <path transform="matrix(1.3333 0 0 -1.3333 0 1120.8)" d="m56.088 757.34-0.264 0.29c-0.096 0.12-0.192 0.19-0.336 0.24l-0.072 0.03-0.048 0.04 0.144-0.09-0.048 0.02c-0.072 0.07-0.144 0.1-0.24 0.12l-0.096 0.05c-0.072 0.02-0.12 0.02-0.192 0.02l-0.072 0.03 0.048-0.03-0.048 0.03-0.192 0.02h0.024l-0.408 0.07 0.072-0.02-0.144 0.05-0.12 0.02h-0.168l-0.168 0.03h0.048l-0.12 0.02h-0.168 0.024l-0.12 0.02h-0.216l-0.144-0.02h-0.144c-0.072 0-0.144-0.02-0.216-0.05l-0.12-0.02 0.192 0.02h-0.12l-0.144-0.02-0.144-0.03h0.168-0.144c-0.12 0-0.24-0.04-0.384-0.09l-0.336-0.15-0.096-0.04-0.072-0.05c-0.072-0.05-0.144-0.1-0.192-0.15l-0.096-0.07-0.072-0.05 0.144 0.1-0.096-0.07 0.072 0.05-0.072-0.05c-0.192-0.12-0.36-0.27-0.48-0.46l-0.048-0.09 0.12 0.16-0.072-0.07-0.024-0.05-0.12-0.16 0.048 0.09-0.216-0.24 0.072 0.07-0.048-0.04c-0.24-0.24-0.408-0.56-0.408-0.92v-0.02l0.408 0.89-0.024-0.03-0.048-0.04c-0.264-0.22-0.408-0.56-0.432-0.92v-0.02l0.432 0.89-0.024-0.03c-0.24-0.21-0.408-0.52-0.432-0.86v-0.1 0.03-0.05l0.168 0.53-0.048-0.03c-0.072-0.16-0.12-0.36-0.144-0.55v-0.12 0.05-0.05c-0.024-0.21 0.024-0.43 0.12-0.62l0.024-0.05-0.12 0.62v-0.07l-0.024-0.05 0.024 0.05-0.024-0.05c0-0.33 0.12-0.69 0.36-0.96l0.024-0.02-0.36 0.94v-0.05c0-0.34 0.12-0.67 0.36-0.94l0.024-0.02-0.144 0.19 0.048-0.07-0.216 0.74v-0.05c0-0.36 0.144-0.69 0.384-0.96l0.048-0.04-0.24 0.36 0.024-0.05c0.048-0.15 0.12-0.24 0.216-0.34l0.024-0.02-0.216 0.33 0.024-0.04c0.12-0.27 0.312-0.46 0.576-0.6l0.024-0.03-0.576 0.6 0.024-0.05 0.024-0.04c0.144-0.27 0.336-0.48 0.576-0.6l0.072-0.03-0.36 0.27 0.024-0.03v-0.02l0.072-0.05c0.24-0.24 0.552-0.38 0.888-0.38h0.048l-1.152 0.74 0.024-0.05c0.12-0.26 0.336-0.48 0.576-0.6l0.048-0.02 0.048-0.03c0.192-0.09 0.384-0.14 0.576-0.14h0.048l-0.744 0.26 0.072-0.07c0.168-0.12 0.36-0.21 0.552-0.24l0.12-0.02 0.12-0.03 0.12-0.02h0.024l0.144-0.05-0.096 0.03 0.096-0.03c0.096-0.02 0.216-0.02 0.312-0.02h0.144l0.12-0.03h0.36c0.072 0 0.144 0.03 0.216 0.03l0.144 0.02 0.168 0.05 0.24 0.07-0.096-0.05 0.336 0.08 0.048 0.02 0.096 0.02-0.336-0.04h0.096c0.144 0 0.288 0.02 0.408 0.07l0.096 0.02-0.096-0.02 0.096 0.02c0.072 0 0.144 0.05 0.216 0.07l0.216 0.1 0.24 0.1 0.072 0.04 0.144 0.1 0.12 0.07 0.168 0.1 0.072 0.07 0.168 0.12-0.264-0.17 0.192 0.1c0.12 0.05 0.216 0.12 0.312 0.21l0.312 0.27 0.024 0.02 0.024 0.03c0.264 0.24 0.408 0.57 0.432 0.93v0.03l-0.432-0.94 0.024 0.02-0.024-0.02 0.024 0.02c0.264 0.24 0.432 0.6 0.456 0.99v0.05l-0.432-0.96 0.024 0.02c0.264 0.24 0.408 0.58 0.432 0.94v0.02l-1.416-1.3h0.024c0.744-0.04 1.392 0.56 1.416 1.3v0.02l-0.432-0.96 0.024 0.03c0.264 0.26 0.408 0.57 0.432 0.93v0.08l-0.072-0.44 0.024 0.08c0.216 0.6 0 1.24-0.504 1.6l-0.216 0.12 0.192-0.14-0.072 0.07c-0.36 0.34-0.864 0.48-1.32 0.34-0.48-0.12-0.84-0.51-0.96-0.96-0.12-0.48 0-0.99 0.36-1.32l0.072-0.07c0.072-0.08 0.144-0.12 0.216-0.2l0.216-0.12-0.576 1.56-0.024-0.07c-0.024-0.17-0.048-0.31-0.048-0.45v-0.08l0.384 1.01-0.024-0.02c-0.264-0.27-0.384-0.63-0.384-0.99v-0.02c0.048-0.74 0.672-1.34 1.416-1.3 0.744 0.03 1.32 0.65 1.296 1.4-0.024 0.74-0.672 1.34-1.416 1.29h-0.024c-0.36 0-0.696-0.17-0.936-0.43s-0.36-0.6-0.36-0.96v-0.02l0.384 0.98-0.024-0.02c-0.24-0.27-0.384-0.6-0.384-0.96v-0.05l0.36 0.93-0.024-0.02 0.024 0.02-0.024-0.02c-0.24-0.26-0.384-0.62-0.36-0.98v-0.03l0.36 0.99-0.024-0.03 0.072 0.07-0.312-0.28 0.288 0.19-0.168-0.1c-0.096-0.05-0.192-0.09-0.264-0.17l-0.144-0.12 0.072 0.08-0.168-0.12 0.12 0.07-0.168-0.1 0.072 0.03-0.192-0.1 0.048 0.02-0.216-0.07 0.216 0.07-0.096-0.02-0.096-0.05-0.072-0.02 0.408 0.07h-0.096c-0.096 0-0.216 0-0.312-0.02l-0.096-0.03h0.048l-0.432-0.09-0.24-0.08 0.144 0.03-0.144-0.03 0.216 0.03h-0.624l0.312-0.03h-0.096l-0.096 0.03-0.144 0.02h0.048l-0.12 0.03-0.24 0.04 0.528-0.24-0.096 0.08c-0.24 0.16-0.528 0.26-0.816 0.26h-0.048l0.6-0.12-0.048 0.02h-0.048l0.6-0.55-0.024 0.05c-0.24 0.43-0.696 0.7-1.2 0.7l-0.048-0.03 0.96-0.36-0.072 0.05v0.02l-0.024 0.03c-0.096 0.09-0.216 0.17-0.336 0.21l-0.048 0.03 0.6-0.58-0.048 0.1c-0.144 0.26-0.36 0.45-0.6 0.57l-0.048 0.03 0.6-0.58-0.024 0.05c-0.072 0.14-0.168 0.26-0.264 0.36l-0.024 0.02 0.264-0.36-0.024 0.05c-0.072 0.12-0.168 0.24-0.264 0.34l-0.048 0.05 0.408-0.92v0.05c0 0.24-0.096 0.51-0.24 0.72l-0.048 0.07c-0.048 0.08-0.12 0.15-0.192 0.22l-0.024 0.02 0.432-0.93v0.05c-0.024 0.36-0.168 0.69-0.432 0.91l-0.024 0.02 0.432-0.89v0.05-0.05 0.05l-0.024 0.05v0.02c0 0.2-0.072 0.39-0.144 0.56l-0.024 0.04 0.144-0.55v0.05-0.05 0.12l-0.12-0.62 0.024 0.05c0.096 0.19 0.144 0.4 0.12 0.62v0.05-0.03 0.1l-0.336-0.94 0.024 0.03c0.216 0.24 0.336 0.57 0.336 0.91v0.02l-0.336-0.88v0.02l0.024 0.02 0.024 0.03c0.24 0.24 0.36 0.57 0.336 0.91v0.02l-0.336-0.88 0.048 0.04 0.096 0.1 0.192 0.26 0.024 0.05 0.12 0.17 0.072 0.1c0.048 0.07 0.072 0.14 0.12 0.21l0.024 0.1-0.36-0.51 0.048 0.08 0.048 0.02 0.096 0.07c0.048 0.05 0.072 0.07 0.12 0.12l0.072 0.07 0.072 0.1-0.168-0.17 0.072 0.05-0.168-0.1 0.336 0.17-0.216-0.07 0.12 0.02 0.12 0.05 0.144 0.07-0.12-0.04 0.12 0.02 0.168 0.07 0.12 0.07-0.24-0.09 0.144 0.05 0.144 0.02-0.144-0.02 0.12 0.02h-0.024 0.168l0.12 0.02h-0.048 0.216l0.12 0.03-0.216-0.03h0.192l0.384-0.02h-0.024 0.192c0.072-0.02 0.168 0 0.24 0h0.048-0.048 0.072l-0.264 0.02 0.096-0.02-0.144 0.02h0.048l0.096-0.02 0.072-0.02 0.072-0.03c0.144-0.02 0.264-0.02 0.384 0l0.408 0.07c0.24 0.08 0.456 0.24 0.528 0.51 0.096 0.24 0.024 0.5-0.144 0.69z"/>
  <path transform="matrix(1.3333 0 0 -1.3333 0 1120.8)" d="m56.112 755.09 0.264 0.17c0.072 0.04 0.144 0.09 0.216 0.16l0.192 0.24-0.072-0.09 0.096 0.09-0.072-0.07 0.12 0.1 0.072 0.05 0.096 0.09-0.192-0.14 0.24 0.14 0.12 0.1-0.12-0.07 0.12 0.04-0.144-0.07 0.24 0.1 0.288 0.14-0.024-0.02 0.48 0.21-0.072-0.04 1.056 0.33h-0.048l0.48 0.15-0.048-0.03 0.648 0.17-0.072-0.02 0.624 0.09h-0.024l0.648 0.12-0.072-0.02 0.624 0.07h-0.048l1.368 0.05h0.024l1.32 0.09-0.024-0.02 0.888 0.05h-0.072l1.92-0.03h-0.096l1.848-0.21-0.072 0.02 0.312-0.05-0.096 0.03 0.288-0.07-0.096 0.02 0.288-0.1 0.288-0.09-0.072 0.02 0.264-0.12-0.024 0.03 0.576-0.27h-0.024l0.6-0.29-0.024 0.03 0.192-0.1-0.168 0.12 0.072-0.07c0.072-0.05 0.12-0.1 0.192-0.12l0.096-0.05-0.168 0.12 0.096-0.07-0.144 0.1 0.072-0.08 0.072-0.04 0.192-0.2-0.048 0.08 0.048-0.05-0.24 0.31 0.024-0.05c0.12-0.24 0.312-0.43 0.552-0.55l0.048-0.02-0.312 0.24 0.048-0.05-0.24 0.31 0.048-0.1c0.072-0.12 0.144-0.24 0.24-0.31l0.048-0.05-0.36 0.87v-0.05c0-0.34 0.12-0.65 0.36-0.86l0.048-0.05-0.312 0.48 0.024-0.07c0.024-0.08 0.048-0.12 0.072-0.17l0.024-0.05-0.12 0.55v-0.05c0-0.19 0.048-0.36 0.12-0.55l0.024-0.05-0.12 0.58v-0.07-0.17l0.024-0.17 0.024-0.14c0.048-0.27 0.168-0.51 0.336-0.7l0.024-0.02-0.336 0.89v-0.03 0.05-0.12 0.02-0.02l-0.024-0.02v-0.1l0.408 0.86-0.048-0.02c-0.144-0.14-0.24-0.31-0.312-0.48l-0.024-0.1 0.072 0.2-0.072-0.15 0.24 0.31-0.048-0.04c-0.144-0.15-0.24-0.32-0.312-0.48l-0.024-0.08 0.336 0.48h-0.024c-0.072-0.07-0.144-0.14-0.192-0.21l-0.048-0.07 0.192 0.21-0.024-0.02-0.024-0.03-0.048-0.04-0.048-0.05 0.336 0.24-0.048-0.03c-0.12-0.04-0.24-0.14-0.336-0.24l-0.048-0.02 0.336 0.22-0.048-0.03c-0.12-0.05-0.24-0.14-0.336-0.21l-0.048-0.08-0.048-0.02 0.888 0.34h-0.048c-0.336 0-0.648-0.12-0.888-0.34l-0.048-0.05 0.48 0.29-0.144-0.05h-0.024l-0.144-0.05-0.144-0.04h0.072l-0.192-0.05 0.168 0.05-0.312-0.05-0.6-0.15h0.024l-0.408-0.09 0.096 0.02-1.056-0.17h0.192-0.192l-1.032-0.09h0.072l-2.496-0.07h0.144l-4.728 0.38h-0.144l0.216-0.02-3.096 0.55h0.024l-0.24 0.05 0.072-0.03-1.416 0.36-0.072 0.03-0.792 0.16 0.624-0.36-0.048 0.08c-0.336 0.31-0.792 0.43-1.224 0.31s-0.792-0.46-0.888-0.91c-0.12-0.44 0-0.89 0.336-1.2l0.048-0.08c0.168-0.16 0.408-0.26 0.648-0.31l0.816-0.17h-0.072l1.416-0.33h0.048l0.264-0.05h0.024l3.096-0.55c0.072-0.03 0.144-0.03 0.216-0.03h0.048-0.12l4.752-0.36h0.12l2.496 0.05 0.096 0.03 1.008 0.07h-0.096 0.072c0.048 0 0.12 0 0.192 0.02l1.056 0.17h0.072l0.408 0.1h0.024l0.48 0.12-0.096-0.03 0.312 0.05 0.144 0.02 0.168 0.05 0.048 0.03 0.144 0.04 0.288 0.1c0.192 0.07 0.36 0.17 0.504 0.31l0.048 0.05-0.864-0.36h0.048c0.336 0 0.624 0.14 0.864 0.36l0.096 0.1-0.312-0.24 0.048 0.04c0.12 0.05 0.216 0.12 0.312 0.22l0.048 0.05-0.312-0.24 0.048 0.02c0.12 0.07 0.216 0.15 0.312 0.24l0.096 0.1 0.024 0.02v0.03c0.072 0.04 0.12 0.09 0.144 0.16l0.048 0.08-0.144-0.17 0.024 0.02c0.144 0.12 0.24 0.29 0.288 0.48l0.024 0.07-0.288-0.5 0.048 0.05c0.096 0.09 0.168 0.21 0.216 0.33l0.072 0.15c0.024 0.05 0.048 0.09 0.072 0.14l0.024 0.07-0.288-0.48v0.03c0.24 0.24 0.384 0.57 0.36 0.91v0.14-0.02 0.12-0.05 0.03c0 0.33-0.144 0.64-0.384 0.86l-0.024 0.02 0.36-0.64-0.024 0.14v-0.07l-0.024 0.17 0.024-0.17v0.07c0 0.17-0.048 0.36-0.144 0.53l-0.024 0.05 0.144-0.56v0.05c-0.024 0.19-0.048 0.39-0.144 0.55l-0.024 0.05 0.072-0.17-0.024 0.08c-0.072 0.19-0.168 0.36-0.312 0.48l-0.048 0.04 0.384-0.86v0.05c-0.024 0.33-0.144 0.65-0.384 0.86l-0.048 0.05 0.24-0.31-0.024 0.05-0.024 0.04c-0.072 0.12-0.144 0.22-0.24 0.32l-0.048 0.04c-0.096 0.1-0.216 0.17-0.312 0.22l-0.048 0.02 0.552-0.52-0.024 0.04c-0.072 0.12-0.144 0.22-0.24 0.32l-0.048 0.04-0.048 0.03-0.216 0.19 0.048-0.02-0.072 0.04c-0.048 0.05-0.072 0.1-0.12 0.12l-0.096 0.08c-0.072 0.04-0.12 0.07-0.192 0.12l-0.096 0.04 0.192-0.12-0.12 0.08c-0.048 0.04-0.12 0.07-0.168 0.09l-0.192 0.1h-0.024l-0.6 0.29-0.024 0.02-0.576 0.24-0.024 0.02-0.288 0.12-0.384 0.12-0.288 0.1-0.096 0.02-0.264 0.08-0.12 0.02-0.312 0.05h-0.048l-1.848 0.19h-2.112l-0.888-0.05h-0.024l-1.32-0.12h0.024l-1.368-0.07-0.072-0.02-0.624-0.08h-0.072l-0.648-0.14h-0.024l-0.624-0.12-0.072-0.02-0.624-0.2h-0.024l-0.48-0.14h-0.024l-1.056-0.38-0.096-0.03-0.48-0.24-0.048-0.02-0.288-0.15 0.024 0.03-0.096-0.05-0.144-0.1-0.12-0.07-0.096-0.07-0.12-0.1 0.096 0.08-0.12-0.08c-0.048-0.04-0.12-0.12-0.168-0.16l-0.096-0.1 0.096 0.07-0.12-0.09-0.096-0.1-0.072-0.1-0.072-0.07-0.096-0.12-0.072-0.14-0.096-0.12-0.144-0.29c-0.168-0.34-0.072-0.77 0.216-1.03 0.288-0.27 0.72-0.31 1.056-0.12z"/>
  <path transform="matrix(1.3333 0 0 -1.3333 0 1120.8)" d="m50.232 754.06-0.312-0.27c-0.072-0.07-0.144-0.17-0.168-0.26l-0.072-0.12 0.048 0.07-0.048-0.05c-0.144-0.26-0.144-0.6 0.024-0.86 0.168-0.27 0.456-0.41 0.768-0.39 0.288 0.03 0.576 0.22 0.696 0.51l0.024 0.05 0.024 0.04 0.024 0.12-0.12-0.24 0.264 0.34c0.24 0.31 0.216 0.77-0.072 1.06-0.312 0.28-0.768 0.28-1.08 0z"/>
  <path transform="matrix(1.3333 0 0 -1.3333 0 1120.8)" d="m52.56 753.84-0.072-0.34-0.024-0.09-0.048-0.29-0.024-0.1v-0.04c-0.024-0.34 0.168-0.68 0.456-0.87 0.288-0.17 0.672-0.17 0.984 0 0.288 0.19 0.456 0.53 0.432 0.87v0.14l-0.048 0.29v-0.15 0.32c0.024 0.43-0.288 0.79-0.72 0.86-0.408 0.05-0.816-0.22-0.936-0.6z"/>
  <path transform="matrix(1.3333 0 0 -1.3333 0 1120.8)" d="m53.832 753.6 0.192-0.26c0.024-0.05 0.072-0.1 0.12-0.15l0.576-0.5 0.048-0.05 0.096-0.07c0.264-0.19 0.624-0.24 0.912-0.12 0.312 0.14 0.504 0.43 0.552 0.74 0.024 0.34-0.12 0.65-0.384 0.84l-0.096 0.07 0.024-0.02-0.6 0.48-0.12 0.07-0.264 0.15c-0.336 0.19-0.768 0.12-1.008-0.17-0.264-0.29-0.264-0.72-0.048-1.01z"/>
  <path transform="matrix(1.3333 0 0 -1.3333 0 1120.8)" d="m77.136 743.42-0.096-0.19c-0.048-0.09-0.072-0.21-0.096-0.33l-0.048-0.34v0.05l-0.024-0.15 0.048 0.17-0.048-0.14-0.024-0.1-0.096-0.33-0.048-0.24-0.024-0.08-0.144-0.64v0.02l-0.12-0.6 0.024 0.1-0.672-2.28 0.024 0.04-0.216-0.6-0.024-0.04-0.096-0.29-0.024-0.15-0.048-0.21 0.048 0.17-0.072-0.24v0.04l-0.072-0.24 0.024 0.05-0.096-0.17c-0.168-0.43-0.12-0.91 0.168-1.29 0.288-0.36 0.744-0.58 1.2-0.51 0.48 0.05 0.864 0.36 1.032 0.8l0.096 0.16 0.024 0.08 0.072 0.21v0.03l0.096 0.26c0 0.05 0.024 0.12 0.048 0.17l0.024 0.24-0.024-0.15 0.072 0.32v-0.08l0.192 0.63 0.024 0.05 0.624 2.3 0.024 0.1 0.096 0.6 0.12 0.64v-0.02l0.072 0.26-0.024-0.02 0.072 0.34v-0.03l0.048 0.15c0 0.04 0.024 0.12 0.024 0.16v0.17l0.048 0.36-0.024-0.09 0.048 0.19c0.096 0.6-0.264 1.15-0.816 1.32-0.576 0.19-1.176-0.1-1.416-0.63z"/>
  <path transform="matrix(1.3333 0 0 -1.3333 0 1120.8)" d="m79.488 741.84 0.072 0.24c0.12 0.48-0.024 1.01-0.408 1.32-0.36 0.34-0.888 0.43-1.344 0.24s-0.792-0.62-0.816-1.1v-0.05c-0.024-0.22 0-0.43 0.072-0.63l0.048-0.07-0.048 0.15 0.12-0.46v0.02l0.144-0.52-0.024 0.07 0.336-1.44-0.024 0.09 0.12-0.62v-0.1l0.144-0.6v-0.02l0.168-0.62 0.048-0.12 0.48-1.37 0.024-0.07 0.096-0.2-0.072 0.15 0.072-0.22v0.03l0.024-0.17c0.12-0.51 0.504-0.89 1.008-1.03 0.504-0.15 1.032 0 1.392 0.36s0.528 0.88 0.384 1.39l-0.048 0.17v0.02l-0.048 0.22-0.072 0.16-0.072 0.2 0.024-0.05-0.504 1.39 0.024-0.1-0.168 0.6v-0.02l-0.144 0.58 0.024-0.1-0.12 0.62-0.024 0.1-0.36 1.44-0.048 0.12-0.192 0.5v0.03l-0.168 0.41 0.072-0.34v0.1c-0.096 0.74-0.744 1.27-1.488 1.2h-0.024c-0.48-0.05-0.888-0.36-1.08-0.8-0.192-0.43-0.12-0.93 0.168-1.32 0.288-0.38 0.744-0.57 1.224-0.5l0.264 0.05c0.36 0.05 0.648 0.31 0.744 0.67z"/>
  <path transform="matrix(1.3333 0 0 -1.3333 0 1120.8)" d="m80.424 752.23 0.048-0.31 0.024-0.34 0.024-0.33 0.024-0.07 0.048-0.34 0.024-0.12 0.24-0.84v-0.05l0.168-0.53v0.05l0.168-0.62v-0.03l0.24-0.86v0.07l0.144-0.6-0.024 0.07 0.264-1.41 0.048-0.17 0.24-0.77-0.048 0.22 0.096-0.58-0.024 0.12v-0.02c0.048-0.72 0.648-1.3 1.392-1.3 0.72 0 1.32 0.58 1.368 1.3v0.02c0 0.07 0 0.17-0.024 0.27l-0.072 0.57c-0.024 0.07-0.024 0.17-0.072 0.24l-0.24 0.77 0.048-0.14-0.288 1.39v0.07l-0.144 0.6-0.024 0.05-0.24 0.86v-0.02l-0.168 0.62-0.024 0.05-0.144 0.53v-0.05l-0.24 0.84 0.024-0.1-0.072 0.34 0.024-0.1-0.096 0.68-0.048 0.31c-0.096 0.72-0.768 1.25-1.512 1.15-0.72-0.1-1.224-0.74-1.152-1.49z"/>
  <path transform="matrix(1.3333 0 0 -1.3333 0 1120.8)" d="m86.016 753.1-0.192-0.56c-0.024-0.04-0.024-0.09-0.024-0.16l-0.192-0.94 0.024 0.05-0.24-1.08 0.024 0.05-0.192-0.7-0.168-0.7-0.024-0.07-0.12-0.72v0.03l-0.072-0.36v0.04l-0.168-0.72 0.024 0.08-0.624-2.12 0.144 0.34-0.312-0.48c-0.12-0.17-0.192-0.36-0.216-0.58v-0.02l0.816 1.08-0.024-0.02h-0.048c-0.48-0.22-0.816-0.68-0.84-1.18v-0.02c-0.048-0.51 0.216-1.01 0.648-1.28 0.432-0.26 0.984-0.26 1.416 0 0.432 0.27 0.696 0.77 0.648 1.28v0.02l-0.096-0.62v0.02l0.024 0.05c0.096 0.21 0.12 0.43 0.096 0.67v0.02l-0.072-0.64 0.192 0.52c0.024 0.05 0.048 0.1 0.072 0.17l0.528 2.14v0.02l0.168 0.72 0.024 0.07 0.048 0.36 0.12 0.72-0.024-0.07 0.168 0.7 0.144 0.69 0.024 0.08 0.192 1.05 0.144 0.96c0.024 0.05 0.024 0.1 0.024 0.17l0.024 0.58c0 0.52-0.36 0.96-0.888 1.05-0.504 0.1-1.032-0.19-1.2-0.69z"/>
  <path transform="matrix(1.3333 0 0 -1.3333 0 1120.8)" d="m49.392 757.22 0.12-0.21 0.096-0.15 0.336-0.31 0.024-0.05 0.24-0.21 0.096-0.07 0.048-0.08 0.072-0.02c0.192-0.14 0.456-0.17 0.696-0.05 0.216 0.1 0.36 0.34 0.384 0.58 0 0.24-0.12 0.48-0.312 0.62l-0.072 0.03 0.048-0.03-0.096 0.07-0.24 0.2 0.024-0.03-0.36 0.31 0.096-0.12-0.168 0.24c-0.192 0.27-0.576 0.32-0.84 0.15-0.288-0.19-0.36-0.58-0.192-0.87z"/>
  <path transform="matrix(1.3333 0 0 -1.3333 0 1120.8)" d="m51.984 758.38 0.072-0.34 0.048-0.1 0.144-0.36c0.096-0.31 0.408-0.5 0.72-0.5h0.024c0.264 0 0.528 0.14 0.672 0.38s0.144 0.53 0 0.8c-0.144 0.24-0.408 0.38-0.672 0.38h-0.024l0.72-0.48-0.168 0.38 0.048-0.09-0.12 0.33c-0.12 0.41-0.528 0.63-0.912 0.53-0.408-0.12-0.648-0.53-0.552-0.93z"/>
  <path transform="matrix(1.3333 0 0 -1.3333 0 1120.8)" d="m54.864 758.76-0.192-0.24-0.072-0.1-0.168-0.31 0.144 0.17-0.048-0.02c-0.048-0.08-0.096-0.12-0.144-0.2l-0.048-0.09 0.048 0.09-0.024-0.04c-0.048-0.08-0.072-0.12-0.096-0.2l-0.024-0.04 0.096 0.16-0.048-0.04c-0.048-0.05-0.072-0.12-0.096-0.2l-0.072-0.24-0.024-0.09 0.096 0.24-0.024-0.03c-0.168-0.24-0.168-0.57 0-0.81 0.144-0.27 0.432-0.41 0.72-0.39 0.288 0.05 0.528 0.24 0.648 0.51v0.05l0.048 0.14v0.1l-0.024-0.12 0.072 0.16-0.096-0.16 0.048 0.07c0.024 0.05 0.072 0.12 0.072 0.19l0.024 0.05-0.072-0.19 0.024 0.04 0.048 0.1 0.024 0.07-0.12-0.19 0.048 0.05c0.024 0.05 0.072 0.09 0.12 0.17l0.144 0.33-0.024-0.05 0.144 0.24c0.192 0.32 0.096 0.72-0.216 0.94-0.288 0.22-0.696 0.17-0.936-0.12z"/>
  <path transform="matrix(1.3333 0 0 -1.3333 0 1120.8)" d="m54.768 747.29v0.02l-0.24-0.45-0.504-0.24c0.216 0.02 0.408 0.12 0.552 0.26l0.024 0.02c0.096 0.1 0.168 0.22 0.216 0.36l0.024 0.03-0.408-0.51 0.24 0.15 0.048 0.05 0.144 0.09-0.144-0.07 0.168 0.07 0.192 0.12-0.12-0.07 0.168 0.07 0.192 0.07h-0.024l0.504 0.2-0.12-0.03 1.488 0.41 0.48 0.12-0.072-0.02 0.528 0.09 0.552 0.1h-0.072l0.528 0.07 0.528 0.05h-0.024l0.552 0.05 0.552 0.04h-0.12l0.576-0.02h0.048l0.528 0.02h-0.072l0.552-0.02h-0.024l0.552-0.02h-0.072l1.464-0.15h-0.048l0.504-0.07h-0.048l0.48-0.1 0.504-0.12-0.048 0.03 0.48-0.12h-0.048l0.48-0.15-0.048 0.03 0.48-0.17-0.048 0.02 1.056-0.38-0.096 0.02 1.128-0.5-0.288 0.17 0.168-0.12c0.36-0.29 0.84-0.36 1.272-0.19 0.432 0.16 0.72 0.55 0.792 1 0.072 0.46-0.12 0.92-0.48 1.2l-0.168 0.12c-0.072 0.05-0.168 0.1-0.264 0.15l-1.104 0.5-0.096 0.03-1.032 0.38-0.048 0.02-0.48 0.15-0.048 0.02-0.48 0.15h-0.048l-0.48 0.12h-0.048l-0.504 0.12-0.504 0.09h-0.072l-0.504 0.07h-0.072l-1.464 0.15-0.072 0.02h-1.2l-0.528-0.02h0.048-0.576l-0.12-0.03-0.552-0.04h0.024l-0.576-0.08h-0.048l-0.528-0.09h-0.024l-0.528-0.07-0.072-0.03-0.528-0.09-0.528-0.12-0.096-0.03-0.48-0.14-0.048-0.03-1.44-0.48-0.096-0.02-0.504-0.22-0.072-0.04-0.168-0.1-0.168-0.07-0.12-0.07-0.144-0.1 0.048 0.02-0.168-0.09-0.264-0.22-0.048-0.07-0.216-0.19c-0.264-0.29-0.36-0.72-0.216-1.08v-0.03c0.048-0.14 0.12-0.26 0.24-0.36v-0.02c0.144-0.14 0.36-0.24 0.576-0.26l-0.504 0.24h0.024c0.216-0.22 0.504-0.32 0.816-0.24h0.024c0.336 0.07 0.6 0.33 0.672 0.67z"/>
  <path transform="matrix(1.3333 0 0 -1.3333 0 1120.8)" d="m54.384 748.39-0.024 0.03c-0.144 0.02-0.336 0-0.48-0.05l-0.144-0.05v-0.02l1.08-0.12c-0.384 0.33-0.96 0.31-1.344-0.05l-0.024-0.03c-0.384-0.38-0.408-1.03-0.024-1.44l0.192-0.19 0.096-0.09 0.144-0.12c0.048-0.05 0.12-0.1 0.192-0.12l0.168-0.1-0.12 0.07 0.12-0.09 0.072-0.03 0.144-0.09c0.048-0.05 0.12-0.08 0.168-0.1l0.192-0.07-0.048 0.02 0.504-0.24 0.096-0.02 1.464-0.48 0.048-0.03 0.504-0.12 0.072-0.02 0.504-0.12h0.024l0.552-0.1 0.048-0.02 0.528-0.07h0.024l0.528-0.07h0.048l0.552-0.08h0.024l0.528-0.04h0.072l0.576-0.03h1.176l0.552 0.03h0.048l1.488 0.14h0.048l0.552 0.1h0.048l0.504 0.09 0.504 0.12h0.048l0.456 0.12 0.12 0.03 0.48 0.16-0.072-0.02 0.48 0.14 0.096 0.03 1.056 0.38 0.12 0.05 1.104 0.53c0.096 0.05 0.168 0.09 0.24 0.14l0.144 0.12c0.36 0.29 0.552 0.75 0.48 1.2-0.048 0.46-0.36 0.84-0.792 1.01s-0.912 0.1-1.272-0.19l-0.144-0.12 0.24 0.14-1.104-0.53 0.12 0.05-1.056-0.38 0.096 0.02-0.504-0.14-0.072-0.03-0.48-0.16 0.096 0.02-0.456-0.12h0.048l-0.504-0.1-0.504-0.12 0.072 0.03-0.528-0.1 0.072 0.03-1.464-0.17h0.048l-0.552-0.05h0.048-0.552 0.048-0.552 0.024-0.576 0.072l-0.528 0.02h0.024l-0.576 0.05h0.024l-0.528 0.05h0.024l-0.552 0.07 0.048-0.02-0.528 0.09h0.024l-0.528 0.1 0.048-0.02-0.528 0.12h0.048l-1.488 0.38 0.144-0.05-0.504 0.22-0.096 0.02-0.192 0.05 0.192-0.05-0.168 0.07 0.072-0.02-0.168 0.1-0.12 0.04-0.168 0.08 0.216-0.12-0.168 0.12-0.264 0.16 0.144-0.12v0.03h-0.024l0.048-0.05c-0.072 0.1-0.168 0.17-0.264 0.22l-0.024 0.02-0.12 0.05h-0.024l0.6-0.67-0.024 0.02c-0.048 0.34-0.336 0.6-0.672 0.67z"/>
  <path transform="matrix(1.3333 0 0 -1.3333 0 1120.8)" d="m78.552 741.79 3.744 0.46 0.024 0.02 0.672 0.1-0.072-0.03 1.392 0.15h-0.24 0.168c0.504-0.05 0.984 0.19 1.248 0.62 0.288 0.41 0.312 0.96 0.096 1.39-0.216 0.46-0.672 0.75-1.176 0.8h-0.168-0.264l-1.392-0.2-0.072-0.02-0.648-0.12h-0.048l-3.672-0.84c-0.6-0.12-1.008-0.72-0.912-1.34 0.12-0.63 0.696-1.06 1.32-0.99z"/>
  <path transform="matrix(1.3333 0 0 -1.3333 0 1120.8)" d="m82.272 751.49 0.264 0.07c0.144 0.05 0.264 0.1 0.384 0.17l0.072 0.05-0.144-0.08 0.072 0.03-0.24-0.07h0.072c0.096 0.02 0.168 0.07 0.264 0.09l0.072 0.05-0.24-0.1 0.072 0.03-0.168-0.03 0.192 0.03h0.096l0.072 0.02h0.024l0.096 0.03-0.456-0.03h0.072c0.672-0.12 1.32 0.31 1.512 0.99 0.144 0.64-0.216 1.34-0.84 1.58l-0.072 0.02 0.552-0.38-0.024 0.02c-0.096 0.12-0.216 0.22-0.36 0.29l-0.048 0.03c-0.168 0.09-0.384 0.14-0.576 0.16h-0.048l0.936-0.45v0.02l-0.024 0.03-0.048 0.04 0.024-0.02-0.024 0.02c-0.048 0.05-0.12 0.12-0.168 0.17l-0.096 0.07-0.048 0.03-0.072 0.05 0.36-0.39-0.024 0.07-0.048 0.08-0.072 0.07c-0.024 0.05-0.072 0.09-0.12 0.14l-0.024 0.05 0.144-0.22-0.024 0.08-0.048 0.04 0.072-0.12-0.072 0.17v-0.02l-0.048 0.14-0.072 0.12 0.072-0.19-0.12 0.38 0.024-0.14-0.072 0.41 0.024-0.12-0.024 0.19v0.19-0.17 0.63-0.15l0.024 0.22-0.024-0.17 0.048 0.19v0.12l0.024 0.2-0.048-0.24 0.096 0.28 0.096 0.41-0.096-0.29 0.024 0.08 0.048 0.09 0.048 0.07 0.096 0.2 0.048 0.09-0.072-0.09 0.048 0.07-0.264-0.36 0.096 0.09c0.048 0.05 0.12 0.12 0.168 0.2l0.048 0.07-0.048-0.05 0.072 0.07 0.048 0.07-0.12-0.14 0.072 0.1v-0.03l0.072 0.07-0.144-0.12 0.072 0.05-0.072-0.05 0.072 0.05c0.072 0.05 0.144 0.12 0.216 0.17l0.096 0.1-0.384-0.27 0.072 0.05 0.096 0.02c0.072 0.05 0.144 0.1 0.216 0.15l0.096 0.05-0.576-0.24 0.096 0.02c0.216 0.02 0.408 0.12 0.576 0.24l0.072 0.07-0.456-0.24 0.216 0.07c0.096 0.03 0.192 0.05 0.264 0.1l0.096 0.02-0.648-0.12h0.072c0.12 0 0.24 0 0.36 0.03l0.096 0.02-0.36-0.05h0.12c0.096 0 0.216 0.03 0.336 0.05l0.072 0.03-0.336-0.05h0.192l-0.36 0.05 0.096-0.03c0.096-0.02 0.216-0.05 0.336-0.05h0.072l-0.336 0.05 0.072-0.02c0.12-0.03 0.24-0.05 0.36-0.05h0.096l-0.36 0.05 0.072-0.03-0.288 0.12 0.096-0.04c0.048-0.03 0.12-0.08 0.192-0.08l0.24-0.09-0.072 0.02 0.096-0.02-0.096 0.05 0.12-0.08-0.264 0.17 0.12-0.09c0.048-0.03 0.096-0.08 0.144-0.1l0.12-0.07-0.168 0.12 0.096-0.1 0.12-0.07 0.096-0.1-0.216 0.24 0.072-0.12 0.36-0.36-0.192 0.22 0.144-0.19-0.048 0.07 0.12-0.22c0.048-0.04 0.072-0.09 0.096-0.14l0.144-0.19-0.144 0.24 0.12-0.19 0.192-0.44-0.048 0.12 0.096-0.21-0.024 0.05 0.072-0.22-0.024 0.07 0.072-0.21v0.04l0.048-0.24-0.024 0.15 0.072-0.51v0.08l0.096-0.72-0.024 0.16v-0.33 0.09l-0.024-0.79-0.048-0.65v-0.21c0.024-0.75 0.648-1.37 1.416-1.37s1.392 0.62 1.416 1.37v0.12-0.07l0.048 0.64v0.03l0.048 0.79v0.55l-0.096 0.72v0.07l-0.096 0.51-0.072 0.36-0.024 0.02-0.048 0.22-0.024 0.07-0.096 0.24v0.05l-0.096 0.19-0.048 0.12-0.096 0.19-0.12 0.22-0.096 0.21c-0.048 0.08-0.096 0.17-0.144 0.24l-0.144 0.17 0.096-0.14-0.12 0.21-0.048 0.08-0.12 0.16c-0.048 0.1-0.12 0.17-0.192 0.24l-0.24 0.24 0.096-0.12-0.072 0.1c-0.072 0.1-0.144 0.17-0.24 0.24l-0.096 0.07-0.096 0.1-0.096 0.07c-0.072 0.05-0.12 0.07-0.168 0.12l-0.096 0.05 0.144-0.1-0.096 0.07c-0.096 0.08-0.168 0.12-0.264 0.17l-0.12 0.05-0.096 0.05-0.12 0.05-0.072 0.02-0.264 0.1 0.192-0.08-0.072 0.03c-0.096 0.05-0.192 0.09-0.312 0.12l-0.072 0.02c-0.12 0.03-0.24 0.03-0.336 0.03h-0.096l0.336-0.03h-0.072c-0.12 0.05-0.24 0.05-0.36 0.05h-0.072l0.36-0.05-0.096 0.03c-0.12 0.04-0.24 0.04-0.336 0.04h-0.192c-0.12 0-0.24-0.02-0.36-0.04l-0.072-0.03 0.36 0.05h-0.12c-0.12 0-0.24-0.02-0.336-0.05l-0.096-0.02 0.336 0.05h-0.072c-0.216 0-0.432-0.05-0.624-0.17l-0.096-0.03 0.264 0.1-0.216-0.07c-0.192-0.05-0.36-0.12-0.48-0.24l-0.096-0.05 0.576 0.26-0.12-0.02c-0.192-0.05-0.384-0.14-0.552-0.26l-0.096-0.08 0.216 0.15-0.072-0.05-0.096-0.05c-0.12-0.07-0.24-0.14-0.36-0.26l-0.072-0.1 0.192 0.19-0.048-0.04-0.144-0.1c-0.048-0.05-0.096-0.1-0.144-0.14l-0.072-0.08 0.024 0.03-0.096-0.1c-0.048-0.05-0.096-0.09-0.144-0.17l-0.048-0.07-0.072-0.07-0.024-0.1-0.048-0.04 0.168 0.21-0.072-0.07c-0.12-0.12-0.192-0.24-0.264-0.38l-0.048-0.08-0.048-0.12-0.024-0.09 0.048 0.09-0.096-0.14-0.024-0.1-0.048-0.07c-0.048-0.09-0.072-0.19-0.096-0.29l-0.096-0.4v0.04l-0.048-0.21c-0.024-0.07-0.048-0.15-0.048-0.24l-0.024-0.19 0.024 0.16-0.048-0.19-0.024-0.17v-1.1l0.024-0.19 0.024-0.17 0.024-0.12 0.096-0.41 0.024-0.14 0.144-0.39c0.024-0.07 0.024-0.14 0.072-0.21l0.072-0.12 0.048-0.12 0.096-0.15c0.024-0.07 0.048-0.12 0.096-0.16l0.024-0.08 0.048-0.04c0.048-0.08 0.12-0.15 0.168-0.22l0.048-0.05-0.144 0.17 0.072-0.1-0.024 0.08 0.024-0.08c0.12-0.14 0.24-0.26 0.384-0.36l0.072-0.04-0.072 0.04 0.096-0.07-0.12 0.1 0.024-0.03-0.024 0.03 0.048-0.03 0.048-0.04c0.264-0.24 0.6-0.36 0.936-0.34h0.048l-0.6 0.12 0.024-0.02-0.336 0.21 0.024-0.02c0.144-0.12 0.312-0.22 0.504-0.27l0.072-0.02c0.672-0.22 1.368 0.14 1.632 0.79 0.24 0.67-0.072 1.39-0.696 1.68-0.648 0.29-1.416 0.03-1.728-0.6l-0.048-0.05 0.888 0.65-0.096-0.02c-0.12-0.03-0.216-0.05-0.312-0.1l-0.048-0.02 0.408 0.09h-0.192c-0.072-0.02-0.12-0.02-0.192-0.04l-0.072-0.03c-0.096-0.02-0.168-0.05-0.264-0.09l-0.072-0.03 0.264 0.1-0.096-0.03c-0.096-0.02-0.168-0.07-0.264-0.09l-0.216-0.15-0.048-0.02-0.096-0.07-0.216-0.17c-0.432-0.36-0.576-0.96-0.312-1.46 0.264-0.51 0.816-0.77 1.368-0.65z"/>
  <path transform="matrix(1.3333 0 0 -1.3333 0 1120.8)" d="m88.224 752.3c0-0.38-0.312-0.69-0.696-0.69-0.36 0-0.672 0.31-0.672 0.69 0 0.36 0.312 0.68 0.672 0.68 0.384 0 0.696-0.32 0.696-0.68z" fill-rule="evenodd"/>
  <path transform="matrix(1.3333 0 0 -1.3333 0 1120.8)" d="m86.88 750.98 0.288-0.16-0.264 0.19 0.12-0.1 0.144-0.14 0.12-0.1 0.336-0.24-0.048 0.03 0.144-0.12h0.024l0.408-0.34 0.864-0.62 0.048-0.05 0.24-0.17-0.384 1.63-0.024-0.02c-0.192-0.36-0.192-0.79 0-1.15 0.168-0.39 0.528-0.63 0.936-0.7h0.024c0.504-0.07 1.008 0.14 1.272 0.6 0.264 0.43 0.24 0.98-0.048 1.42-0.312 0.4-0.816 0.6-1.32 0.48s-0.888-0.53-0.96-1.04v-0.02c-0.12-0.67 0.312-1.3 0.96-1.44h0.024l-0.984 1.44v-0.02c-0.072-0.51 0.144-1.01 0.576-1.28l0.024-0.02-0.36 0.34 0.024-0.03-0.192 1.15-0.024-0.09-0.024-0.03 0.12 0.29 0.288 0.36-0.024-0.02 0.312 0.21-0.072-0.02-0.096-0.05-0.072-0.05 0.336 0.12-0.12-0.02h-0.048l-0.096-0.02c-0.048-0.03-0.12-0.05-0.168-0.08l-0.12-0.02 0.36 0.07-0.192-0.02h-0.144l-0.384-0.1h-0.096l-1.512-0.41h0.048l-1.008-0.24-0.096-0.02-0.12-0.05c-0.072 0-0.12-0.02-0.168-0.05l-0.048-0.02h-0.024l-0.024-0.02 0.624 0.14h-0.312 0.024-0.072l0.96-0.41-0.048 0.03c-0.096 0.12-0.216 0.21-0.36 0.26l-0.048 0.02c-0.672 0.34-1.488 0.08-1.824-0.62-0.36-0.67-0.072-1.49 0.6-1.82l0.048-0.03-0.36 0.24 0.048-0.05c0.264-0.24 0.624-0.38 0.984-0.38h0.072-0.024 0.312c0.216 0 0.408 0.07 0.6 0.14l0.048 0.03v0.02l0.048 0.03-0.192-0.1 0.12 0.05-0.096-0.05 0.984 0.26 0.048 0.03 1.488 0.43-0.072-0.02 0.384 0.09-0.144-0.05 0.192 0.03c0.144 0.02 0.264 0.07 0.384 0.09l0.096 0.05-0.144-0.05 0.072 0.03-0.072-0.03 0.096 0.03c0.12 0.02 0.24 0.07 0.336 0.12l0.096 0.05 0.072 0.04 0.096 0.05c0.12 0.07 0.264 0.17 0.36 0.29h0.024c0.36 0.43 0.432 1.01 0.168 1.51l0.12-0.29-0.024 0.03-0.024 0.09c-0.096 0.29-0.24 0.51-0.48 0.68l-0.024 0.02c-0.432 0.29-1.008 0.31-1.44 0.02h-0.024c-0.552-0.36-0.744-1.05-0.48-1.63 0.288-0.57 0.936-0.86 1.536-0.67 0.624 0.17 1.008 0.79 0.912 1.42v0.02c-0.072 0.36-0.264 0.67-0.552 0.86-0.312 0.2-0.672 0.27-1.008 0.2l-0.024-0.03c-0.696-0.14-1.104-0.81-0.96-1.51 0.144-0.67 0.792-1.1 1.464-0.98 0.696 0.14 1.152 0.76 1.056 1.46l-0.024 0.02c-0.048 0.34-0.216 0.63-0.504 0.82-0.264 0.22-0.6 0.29-0.936 0.24h-0.024l1.32-0.67v0.02c-0.12 0.22-0.288 0.39-0.528 0.51l-0.264 0.16 0.048-0.02-0.912 0.55v-0.02l-0.432 0.29 0.024-0.03-0.144 0.1v0.02l-0.36 0.19 0.072-0.02-0.144 0.12h-0.024l-0.144 0.1c-0.072 0.04-0.144 0.09-0.216 0.12l-0.312 0.14c-0.552 0.22-1.176-0.02-1.416-0.58-0.264-0.52-0.048-1.17 0.48-1.44z"/>
  <path transform="matrix(1.3333 0 0 -1.3333 0 1120.8)" d="m82.104 752.81-0.024 0.09c-0.096 0.2-0.288 0.36-0.504 0.44-0.216 0.07-0.48 0.04-0.672-0.05l-0.216-0.12-0.024-0.03-0.192-0.09-0.048-0.03-0.168-0.12-0.096-0.04-0.192-0.15-0.048-0.05-0.504-0.45-0.528-0.46h0.024l-1.272-1.01-0.096-0.07-0.576-0.6 0.888 0.31h-0.024c-0.552 0.08-1.08-0.31-1.176-0.86v-0.02l0.456 0.69-0.024-0.02 0.672 0.19h-0.024c-0.552 0.02-1.056-0.36-1.152-0.94v-0.02c-0.072-0.58 0.288-1.1 0.864-1.22 0.576-0.15 1.128 0.19 1.296 0.76 0.168 0.56-0.12 1.16-0.672 1.35h-0.024c-0.048 0.02-0.096 0.05-0.168 0.05h-0.024v0.02h-0.096l0.936-1.22v0.02l0.024 0.1v0.21l-0.048-0.33 0.144 0.48-0.144-0.32 0.144 0.22 0.024 0.02 0.096 0.17 0.024 0.05 0.096 0.19 0.264 0.55-0.024-0.02 0.288 0.55-0.12-0.19 0.072 0.1c0.024 0.04 0.072 0.12 0.096 0.16l0.072 0.12 0.048 0.15 0.048 0.07 0.12 0.31 0.024 0.1 0.312 1.03-0.072-0.22 0.072 0.15c0.024 0.07 0.048 0.12 0.072 0.17l0.072 0.16-0.096-0.16 0.192 0.33-0.048-0.07 0.168 0.26 0.048 0.05 0.072 0.17c0.312 0.53 0.12 1.22-0.432 1.54-0.528 0.31-1.224 0.12-1.56-0.41l-0.072-0.15 0.048 0.08-0.168-0.27-0.048-0.07-0.192-0.34-0.072-0.14-0.072-0.17 0.072 0.17-0.072-0.14c-0.048-0.08-0.072-0.15-0.096-0.22l-0.36-1.03 0.024 0.07-0.12-0.34 0.048 0.12-0.072-0.14-0.072-0.12 0.12 0.19-0.048-0.09c-0.048-0.08-0.096-0.12-0.12-0.2l-0.288-0.55v-0.05l-0.216-0.45 0.048 0.09-0.12-0.19 0.048 0.05-0.12-0.17-0.144-0.21c-0.048-0.12-0.12-0.24-0.144-0.39l-0.096-0.48c-0.048-0.14-0.048-0.31 0-0.48l0.048-0.19-0.024 0.12v-0.02c0.024-0.32 0.168-0.58 0.432-0.8 0.24-0.16 0.552-0.26 0.864-0.21h0.024l0.072 0.02h0.024c0.072 0.03 0.12 0.03 0.168 0.05h0.024c0.504 0.19 0.792 0.7 0.72 1.2v0.02c-0.096 0.6-0.648 1.01-1.224 0.94-0.6-0.07-1.032-0.6-0.984-1.18 0.048-0.6 0.552-1.05 1.152-1.03l0.024 0.03c0.336 0 0.648 0.16 0.864 0.45v0.03c0.192 0.24 0.24 0.55 0.192 0.84v0.02c-0.12 0.58-0.696 0.96-1.272 0.86-0.576-0.09-0.984-0.62-0.912-1.22 0.096-0.58 0.6-1.01 1.2-0.94h0.024c0.288 0.03 0.528 0.15 0.72 0.36l0.528 0.63-0.048-0.07 1.176 1.12 0.024 0.05 0.504 0.51h-0.024l0.48 0.48 0.192 0.19-0.048-0.05 0.144 0.14-0.048-0.04 0.192 0.14-0.048-0.02 0.192 0.14-0.192-0.12 0.072 0.02c0.216 0.08 0.384 0.24 0.48 0.46 0.072 0.22 0.072 0.46-0.048 0.65z"/>
 </g>
</svg>
