<svg width="33.833" height="70.732" version="1.1" viewBox="0 0 33.833 70.732" xmlns="http://www.w3.org/2000/svg">
 <g transform="translate(-78.587 -180.87)">
  <path transform="matrix(1.3333 0 0 -1.3333 0 1120.8)" d="m73.632 685.06-0.408 0.16c-0.048 0.03-0.12 0.05-0.168 0.05h-0.072l0.624-0.45-0.024 0.02c-0.072 0.17-0.216 0.31-0.384 0.41l-0.072 0.02 0.384-0.38v0.02c-0.096 0.17-0.24 0.31-0.408 0.41l-0.072 0.02c-0.048 0.03-0.12 0.05-0.168 0.08h-0.048l-0.048 0.02-0.072 0.02h-0.072l0.288-0.09h-0.024c-0.12 0.07-0.24 0.12-0.384 0.12h-0.192 0.144l-0.288 0.05 0.12-0.03-0.36 0.12c-0.048 0.03-0.12 0.03-0.168 0.05l-0.336 0.05h-0.12l-1.032 0.07-0.504 0.02h-0.024l-0.888 0.03h-0.12l-0.576-0.05h-0.072l-0.96-0.1-0.36-0.04-0.12-0.03-0.216-0.02h0.144l-0.216-0.03c-0.072 0-0.12 0-0.192-0.02l-0.48-0.12-0.12-0.02-0.408-0.15h0.024l-0.6-0.19c-0.096-0.05-0.168-0.07-0.264-0.12l-0.528-0.34c-0.048-0.04-0.096-0.07-0.168-0.12l-0.312-0.28 0.072 0.07-0.36-0.29 0.072 0.05-0.264-0.17 0.768 0.22h-0.024c-0.336 0.02-0.672-0.12-0.936-0.34l-0.024-0.02-0.024-0.03 0.024 0.03-0.024-0.03 0.912 0.31h-0.024c-0.72 0.03-1.32-0.52-1.368-1.24v-0.03l0.432 0.91-0.048-0.04-0.024-0.03c-0.264-0.24-0.408-0.55-0.432-0.91v-0.02l0.144 0.55-0.024-0.03-0.024-0.04c-0.096-0.2-0.144-0.39-0.144-0.6v-0.05l0.408 0.93v-0.02c-0.168-0.14-0.288-0.31-0.36-0.53l-0.024-0.07c-0.048-0.12-0.072-0.24-0.096-0.36v-0.02l0.168 0.55-0.024-0.05c-0.096-0.19-0.144-0.38-0.168-0.6v-0.29c0-0.07 0.024-0.17 0.024-0.26l0.048-0.24c0.048-0.24 0.168-0.48 0.36-0.7l0.024-0.02-0.24 0.36 0.024-0.05-0.144 0.62v-0.04c0-0.36 0.144-0.7 0.384-0.96l0.024-0.03 0.024-0.02-0.24 0.36 0.024-0.05c0.072-0.14 0.144-0.24 0.24-0.36l0.024-0.02c0.24-0.24 0.576-0.39 0.936-0.39h0.024l-1.176 0.75 0.024-0.08c0.12-0.24 0.336-0.45 0.6-0.57l0.048-0.03-0.744 1.23v-0.05c0-0.34 0.12-0.7 0.384-0.94 0.24-0.26 0.576-0.4 0.936-0.4h0.048l-0.936 0.38 0.024-0.02 0.024-0.03 0.024-0.02c0.192-0.17 0.384-0.29 0.624-0.36l0.096-0.03-0.264 0.12 0.096-0.04 0.096-0.05 0.12-0.05c0.072-0.05 0.168-0.07 0.24-0.07l0.12-0.03-0.144 0.03 0.288-0.1c0.072-0.02 0.168-0.05 0.24-0.05l0.6-0.07 0.576-0.07 0.12-0.02 0.576-0.03h1.464l4.32 0.15h-0.048l4.032 0.02h-0.024 3.12l0.12 0.02 2.04 0.17h-0.096 0.024c0.792 0 1.416 0.65 1.416 1.42 0 0.79-0.624 1.44-1.416 1.44h-0.168l-2.064-0.22 0.096 0.03-1.944-0.05h-1.128l-4.032-0.07h-0.024l-4.32-0.2h0.048-1.344 0.048l-0.6 0.03h0.12l-0.6 0.05-0.576 0.07 0.264-0.05-0.312 0.1c-0.048 0-0.096 0.02-0.144 0.02l-0.144 0.02 0.24-0.04-0.12 0.04 0.096-0.04-0.096 0.04c-0.096 0.03-0.168 0.08-0.264 0.1l-0.096 0.02 0.624-0.33-0.048 0.02-0.024 0.03-0.024 0.02c-0.24 0.24-0.576 0.36-0.936 0.36h-0.048l1.344-1.32v0.05c0 0.48-0.288 0.96-0.744 1.17l-0.048 0.03 0.6-0.6-0.024 0.05c-0.24 0.45-0.696 0.72-1.2 0.72h-0.024l0.936-0.36-0.024 0.02 0.264-0.36-0.024 0.05c-0.072 0.12-0.168 0.24-0.264 0.36h-0.024l-0.024 0.05 0.408-0.96v0.04c0 0.2-0.048 0.39-0.144 0.58l-0.024 0.05c-0.072 0.12-0.168 0.24-0.264 0.36h-0.024l0.384-0.65-0.072 0.24 0.048-0.29v0.29l-0.144-0.6 0.024 0.05c0.096 0.19 0.144 0.43 0.12 0.65v0.02l-0.048-0.48 0.024 0.07-0.312-0.5 0.024 0.02c0.24 0.27 0.384 0.6 0.36 0.94v0.05l-0.12-0.6 0.024 0.04 0.024 0.05c0.096 0.19 0.144 0.41 0.12 0.63v0.02l-0.36-0.96 0.024 0.02 0.024 0.03 0.024 0.02c0.24 0.27 0.384 0.6 0.36 0.96v0.03c-0.024 0.72-0.648 1.27-1.368 1.24-0.72-0.02-1.272-0.64-1.248-1.36 0.048-0.72 0.648-1.28 1.368-1.25h0.024c0.36 0.02 0.696 0.19 0.912 0.45l0.024 0.03-0.024-0.05 0.024 0.02v0.03h0.024l-0.888-0.39h0.024c0.264 0 0.504 0.1 0.72 0.24l0.24 0.17 0.048 0.05 0.36 0.29 0.072 0.07 0.312 0.29-0.144-0.12 0.504 0.36-0.264-0.15 0.576 0.24 0.384 0.15-0.144-0.05 0.504 0.12-0.144-0.02 0.216 0.02 0.12 0.02 0.216 0.05-0.096-0.02 0.384 0.07h-0.024l0.96 0.12h-0.048l0.576 0.05h-0.072l0.888 0.02h0.024l0.504 0.05 1.032 0.05h0.12l0.336 0.05h-0.216l0.36-0.03h0.096l0.288 0.03h0.216c0.144 0.02 0.264 0.04 0.384 0.12h0.024l-0.288-0.1 0.072 0.02h0.072l0.048 0.03h0.048-0.36l0.072-0.03-0.216 0.08 0.024-0.03c0.072-0.02 0.144-0.05 0.216-0.05l0.072-0.02-0.216 0.07 0.024-0.02c0.168-0.07 0.336-0.1 0.504-0.05h0.072l0.456 0.07c0.288 0.07 0.528 0.31 0.552 0.63 0.048 0.31-0.144 0.6-0.432 0.72z"/>
  <path transform="matrix(1.3333 0 0 -1.3333 0 1120.8)" d="m68.112 684.7 0.024 0.26-0.024-0.07 0.024 0.07c0.024 0.17 0.024 0.34-0.048 0.48v0.02l-0.048-0.74 0.024 0.07c0.024 0.05 0.048 0.1 0.072 0.17l0.024 0.05v0.05l0.024 0.04-0.216-0.36 0.048 0.03 0.048 0.05c0.072 0.09 0.144 0.21 0.192 0.36l0.024 0.04v0.05l-0.216-0.38 0.048 0.05-0.408-0.29 0.024 0.02c0.24 0.1 0.432 0.24 0.552 0.46l0.048 0.07-0.576-0.46h0.048c0.168 0.05 0.288 0.15 0.408 0.27l0.048 0.05-0.432-0.29 0.024 0.02c0.216 0.07 0.408 0.22 0.528 0.41l0.072 0.07-0.576-0.41h0.048c0.12 0.05 0.24 0.12 0.336 0.2l0.048 0.04-0.096-0.09 0.024 0.02 0.024 0.03-0.24-0.12 0.048 0.02c0.24 0.07 0.456 0.22 0.6 0.43l0.024 0.03-1.128-0.46h0.048c0.264-0.05 0.552 0 0.792 0.14l0.024 0.03-0.36-0.15 0.072 0.03c0.144 0.02 0.264 0.07 0.36 0.12l0.024 0.02-0.24-0.12 0.048 0.03-0.552-0.05h0.096c0.216-0.05 0.456-0.03 0.648 0.07l0.096 0.05-0.408-0.1 0.84 0.03 0.12 0.02 0.48 0.05h-0.168 0.312l-0.24 0.02 0.12-0.02h-0.048 0.096c0.096-0.05 0.192-0.05 0.288-0.05h0.12l-0.336 0.05 0.264-0.1h0.072l0.48-0.12 0.888-0.17 0.384-0.09h0.12l0.888-0.12h-0.024l0.84-0.1h-0.024l0.336-0.02 0.096-0.03 0.792-0.04h-0.024l0.312-0.03h-0.048l0.768-0.09h0.048l0.288-0.03h-0.024l0.768-0.07 0.072-0.02 1.032-0.05h1.368l0.552 0.07c0.096 0 0.168 0.02 0.24 0.05h0.096l-0.312-0.03h0.048-0.024 0.12l-0.936 0.36 0.024-0.02c0.264-0.24 0.576-0.38 0.936-0.36h0.072c0.72 0.05 1.272 0.65 1.248 1.37-0.048 0.69-0.648 1.25-1.344 1.22-0.72 0-1.296-0.6-1.272-1.32v-0.02c0-0.72 0.6-1.3 1.32-1.27h0.024l-0.912 0.36 0.024-0.03-0.408 0.91v-0.02c0.024-0.72 0.6-1.27 1.32-1.27h0.024c0.72 0 1.296 0.6 1.272 1.32 0 0.72-0.6 1.29-1.32 1.27-0.72 0-1.272-0.6-1.272-1.3v-0.12c0.024-0.33 0.168-0.64 0.408-0.86l0.024-0.02-0.408 0.91v-0.1c0.024-0.17 0.048-0.33 0.12-0.48l0.072-0.17-0.048 0.15 0.096-0.31-0.024 0.04 0.096-0.36 0.024-0.04 0.096-0.32-0.048 0.22 0.096-0.72 0.024-0.1 0.216-1.08c0.024-0.07 0.048-0.14 0.048-0.21l0.12-0.29c0.264-0.67 1.008-0.98 1.68-0.74 0.672 0.26 0.984 1 0.744 1.68l-0.12 0.28 0.072-0.21-0.216 1.08v-0.07l-0.096 0.72c0 0.07-0.024 0.14-0.048 0.21l-0.096 0.31v-0.04l-0.096 0.36v0.04l-0.096 0.32-0.048 0.12-0.072 0.16 0.096-0.55v0.1c0.024 0.33-0.12 0.69-0.36 0.93l-0.024 0.03 0.36-0.99v0.12c0.024 0.7-0.552 1.3-1.272 1.3h-0.024c-0.72 0.02-1.296-0.55-1.32-1.27s0.552-1.3 1.272-1.32c0.72-0.03 1.32 0.55 1.344 1.27v0.02c0 0.34-0.12 0.7-0.384 0.94l-0.024 0.02c-0.24 0.27-0.552 0.39-0.912 0.39h-0.024c-0.72 0.02-1.32-0.55-1.32-1.27-0.024-0.72 0.552-1.32 1.272-1.32 0.72-0.03 1.32 0.55 1.344 1.27v0.02c0 0.7-0.552 1.3-1.248 1.32h-0.024l-0.024 0.03h-0.024l0.888-0.41-0.024 0.02c-0.24 0.24-0.552 0.39-0.888 0.41h-0.12 0.024-0.048c-0.12 0-0.216 0-0.312-0.02l-0.096-0.03 0.168 0.03-0.552-0.05h0.072-1.152 0.048l-1.032 0.05h0.048l-0.744 0.07h-0.024l-0.312 0.02 0.072-0.02-0.768 0.09-0.048 0.03h-0.336l-0.792 0.05h0.096l-0.336 0.04h-0.048l-0.816 0.1h-0.024l-0.888 0.1 0.096-0.03-0.408 0.07h0.024l-0.888 0.15h0.024l-0.48 0.09 0.096-0.02-0.264 0.07c-0.12 0.05-0.24 0.05-0.336 0.05h-0.12l0.312-0.02-0.096 0.02h-0.072l-0.12 0.02c-0.072 0.03-0.144 0.03-0.24 0.03h-0.312c-0.072 0-0.12 0-0.192-0.03l-0.48-0.07h0.024l-0.816-0.12c-0.168-0.02-0.312-0.07-0.456-0.14l-0.096-0.05 0.408 0.14-0.048-0.02h-0.048c-0.168-0.02-0.336-0.1-0.48-0.19l-0.048-0.03c-0.144-0.09-0.24-0.21-0.336-0.36v-0.02l0.504 0.46-0.072-0.05c-0.216-0.1-0.384-0.24-0.504-0.43l-0.024-0.05 0.792 0.55-0.048-0.02c-0.408-0.05-0.768-0.36-0.888-0.77l-0.024-0.05 0.432 0.58-0.048-0.03c-0.12-0.09-0.24-0.19-0.312-0.33l-0.024-0.03-0.024-0.02 0.096 0.09-0.048-0.04 0.24 0.21-0.048-0.02c-0.192-0.15-0.336-0.34-0.408-0.55l-0.048-0.1 0.024 0.02-0.024-0.02c-0.024-0.05-0.024-0.1-0.048-0.17v-0.05l0.048 0.17-0.024-0.02c-0.024-0.07-0.048-0.17-0.048-0.24l-0.024-0.07 0.072 0.21-0.024-0.02-0.024-0.15-0.024-0.07c-0.024-0.14-0.024-0.31 0.024-0.48v-0.05l0.024-0.04-0.024 0.48v-0.05l-0.024-0.05c-0.024-0.17-0.024-0.31 0.024-0.46l0.024-0.04v-0.05l0.024-0.05-0.048 0.38v-0.07c-0.048-0.41 0.192-0.81 0.576-0.93l0.024-0.03-0.552 0.65 0.024-0.07c0-0.07 0.048-0.15 0.072-0.22l0.12-0.24c0.168-0.29 0.504-0.45 0.84-0.38 0.336 0.05 0.576 0.31 0.624 0.65z"/>
  <path transform="matrix(1.3333 0 0 -1.3333 0 1120.8)" d="m65.88 702.67-0.264 0.29c-0.096 0.1-0.192 0.19-0.336 0.24l-0.072 0.02-0.072 0.05 0.168-0.09-0.048 0.02c-0.072 0.05-0.168 0.1-0.24 0.12l-0.096 0.02c-0.072 0.03-0.144 0.05-0.216 0.05l-0.072 0.03 0.048-0.03-0.048 0.03-0.192 0.02h0.024l-0.408 0.07 0.072-0.02-0.144 0.05-0.144 0.02h-0.168l-0.168 0.02h0.048l-0.12 0.03h-0.168 0.024l-0.12 0.02h-0.216l-0.144-0.02h-0.144c-0.096 0-0.168-0.03-0.24-0.05l-0.12-0.02 0.216 0.02h-0.12l-0.168-0.02-0.168-0.03 0.192 0.03-0.144-0.03c-0.12 0-0.264-0.05-0.384-0.09l-0.336-0.17-0.096-0.05-0.096-0.02c-0.072-0.05-0.144-0.1-0.192-0.15l-0.096-0.07-0.072-0.07 0.144 0.09-0.12-0.07 0.096 0.05-0.096-0.02c-0.192-0.12-0.336-0.29-0.456-0.48l-0.048-0.1 0.12 0.19-0.072-0.09-0.048-0.05-0.12-0.17 0.072 0.1-0.24-0.27 0.096 0.1-0.048-0.05c-0.264-0.24-0.432-0.58-0.432-0.94l-0.024-0.04 0.456 0.93-0.048-0.02-0.024-0.03-0.024-0.02c-0.264-0.24-0.408-0.58-0.432-0.94v-0.04l0.432 0.93-0.024-0.02c-0.24-0.22-0.408-0.55-0.432-0.89v-0.12 0.05-0.05l0.168 0.55-0.048-0.05c-0.072-0.16-0.144-0.36-0.144-0.55v-0.09l-0.024-0.05 0.024 0.05v-0.03c-0.024-0.21 0.024-0.45 0.12-0.65l0.024-0.04-0.12 0.64-0.024-0.02v-0.12 0.05-0.03c-0.024-0.36 0.12-0.72 0.36-0.98l0.024-0.02-0.36 0.93v-0.05c0-0.33 0.12-0.67 0.36-0.93l0.024-0.03-0.144 0.17 0.048-0.07-0.216 0.77v-0.05c0-0.36 0.12-0.72 0.384-0.98l0.048-0.03-0.24 0.34 0.024-0.05c0.048-0.12 0.144-0.24 0.216-0.34l0.048-0.02-0.24 0.34v-0.05c0.144-0.27 0.36-0.46 0.6-0.6l0.048-0.03-0.576 0.6 0.024-0.04 0.024-0.05c0.12-0.27 0.312-0.48 0.576-0.6l0.048-0.03-0.36 0.27 0.024-0.03 0.024-0.02 0.048-0.05c0.24-0.24 0.576-0.38 0.936-0.41h0.048l-1.2 0.77 0.024-0.05c0.144-0.26 0.336-0.48 0.6-0.6l0.048-0.04h0.048c0.192-0.12 0.384-0.15 0.6-0.17h0.048l-0.792 0.29 0.12-0.1c0.144-0.12 0.336-0.19 0.528-0.24l0.12-0.02 0.12-0.03 0.12-0.02h0.048l0.144-0.03-0.096 0.03 0.096-0.03c0.096-0.04 0.216-0.04 0.336-0.04h0.624 0.216l0.144 0.02 0.168 0.05 0.24 0.07-0.096-0.02 0.336 0.07h0.048l0.096 0.02-0.312-0.02h0.096c0.144 0 0.288 0.02 0.408 0.05l0.096 0.02-0.096-0.02 0.096 0.02c0.072 0.02 0.144 0.05 0.216 0.1l0.216 0.07 0.048 0.02 0.192 0.1 0.072 0.05 0.168 0.09 0.12 0.07 0.168 0.1 0.096 0.07 0.144 0.12-0.264-0.17 0.192 0.1c0.12 0.05 0.216 0.12 0.336 0.22l0.312 0.28 0.024 0.03 0.024 0.02c0.264 0.24 0.408 0.58 0.432 0.94v0.02l-0.432-0.93h0.024-0.024c0.312 0.26 0.48 0.62 0.48 1v0.08l-0.432-0.99 0.024 0.03c0.264 0.24 0.408 0.57 0.432 0.93v0.03l-1.44-1.32h0.024c0.768-0.03 1.416 0.57 1.44 1.32v0.02l-0.432-0.96 0.024 0.02c0.264 0.27 0.432 0.6 0.432 0.96v0.03l0.024 0.02-0.096-0.41 0.024 0.08c0.216 0.6 0 1.24-0.504 1.6l-0.24 0.17 0.192-0.17-0.072 0.08c-0.36 0.36-0.864 0.48-1.344 0.36-0.48-0.15-0.864-0.53-0.984-1.01s0.024-0.99 0.384-1.35l0.072-0.07c0.072-0.07 0.144-0.12 0.24-0.19l0.216-0.12-0.6 1.58-0.024-0.07c-0.024-0.14-0.048-0.31-0.048-0.48v-0.05l0.384 1.04-0.024-0.03c-0.264-0.29-0.408-0.65-0.384-1.03v-0.02c0.024-0.75 0.672-1.35 1.44-1.32 0.768 0.02 1.368 0.67 1.32 1.44-0.024 0.76-0.672 1.34-1.44 1.32h-0.024c-0.36 0-0.696-0.17-0.96-0.44-0.24-0.28-0.384-0.64-0.36-1v-0.03l0.384 1.01-0.024-0.02c-0.264-0.24-0.384-0.6-0.384-0.96v-0.08l0.36 0.96-0.024-0.02 0.024 0.02-0.024-0.02c-0.24-0.26-0.384-0.62-0.384-1.01v-0.02l0.384 1.01-0.024-0.03 0.072 0.07-0.312-0.28 0.312 0.21-0.192-0.09c-0.096-0.05-0.192-0.12-0.288-0.2l-0.144-0.12 0.096 0.08-0.168-0.12 0.096 0.07-0.168-0.1 0.072 0.03-0.192-0.1 0.072 0.02-0.216-0.09 0.192 0.07-0.096-0.02-0.096-0.03-0.072-0.02 0.432 0.07h-0.096c-0.12 0-0.216-0.02-0.336-0.02l-0.096-0.05 0.048 0.02-0.432-0.09-0.264-0.08 0.168 0.03-0.144-0.03 0.216 0.03h-0.624l0.312-0.05-0.096 0.02-0.096 0.03-0.168 0.02h0.048l-0.12 0.03-0.24 0.04 0.528-0.24-0.096 0.08c-0.24 0.16-0.528 0.26-0.816 0.26l-0.048-0.02 0.6-0.12-0.096 0.04 0.6-0.57-0.024 0.05c-0.24 0.45-0.696 0.72-1.2 0.72h-0.048l0.96-0.39-0.072 0.05v0.02l-0.024 0.03c-0.12 0.07-0.216 0.17-0.36 0.21l-0.048 0.03 0.624-0.58-0.048 0.1c-0.144 0.24-0.36 0.45-0.624 0.57l-0.048 0.03 0.624-0.58-0.024 0.05c-0.072 0.12-0.168 0.24-0.288 0.34l-0.024 0.02 0.288-0.34-0.024 0.05c-0.072 0.12-0.168 0.24-0.264 0.34l-0.048 0.05 0.408-0.94v0.05c0 0.26-0.096 0.53-0.24 0.74l-0.048 0.05c-0.072 0.1-0.12 0.17-0.216 0.24v0.02l0.432-0.96v0.05c-0.024 0.36-0.168 0.72-0.432 0.96l-0.024 0.03 0.432-0.92v0.03-0.05 0.05l-0.024 0.05v0.04c0 0.2-0.048 0.39-0.144 0.56l-0.024 0.04 0.144-0.55v0.03-0.05 0.14l-0.12-0.65 0.024 0.05c0.096 0.22 0.144 0.43 0.12 0.65v0.05-0.05 0.12l-0.36-0.98 0.024 0.04c0.24 0.24 0.36 0.58 0.36 0.92v0.04l-0.36-0.91 0.024 0.03 0.048 0.04c0.24 0.24 0.36 0.58 0.36 0.92v0.04l-0.36-0.91 0.144 0.15 0.216 0.28 0.024 0.05 0.096 0.17 0.072 0.1c0.048 0.07 0.096 0.14 0.12 0.21l0.048 0.1-0.384-0.51 0.072 0.05 0.024 0.03 0.096 0.09c0.048 0.03 0.096 0.07 0.144 0.12l0.072 0.07 0.048 0.08-0.168-0.15 0.072 0.05-0.168-0.1 0.336 0.2-0.192-0.1 0.12 0.02 0.096 0.05 0.144 0.05-0.096-0.02 0.12 0.02c0.048 0.02 0.12 0.05 0.168 0.1l0.12 0.04-0.24-0.09 0.144 0.05 0.144 0.02-0.144-0.02 0.12 0.02-0.024-0.02 0.144 0.02h0.024l0.12 0.02h-0.048 0.216l0.12 0.03h-0.192l0.144-0.03h0.024l0.408-0.02h-0.024 0.192c0.072-0.02 0.168-0.02 0.24 0h0.048-0.048 0.072l-0.264 0.02 0.096-0.02-0.144 0.05 0.048-0.03 0.096-0.02 0.072-0.02h0.072c0.144-0.05 0.288-0.05 0.408-0.03l0.408 0.1c0.264 0.05 0.456 0.24 0.552 0.48 0.072 0.26 0.024 0.53-0.168 0.74z"/>
  <path transform="matrix(1.3333 0 0 -1.3333 0 1120.8)" d="m65.904 700.34 0.264 0.17c0.096 0.03 0.168 0.1 0.216 0.17l0.12 0.12 0.096 0.1-0.096-0.08 0.12 0.1-0.096-0.07 0.144 0.09 0.072 0.08 0.12 0.07-0.216-0.15 0.12 0.08 0.12 0.07 0.144 0.09-0.144-0.07 0.144 0.05-0.168-0.05 0.12 0.03 0.12 0.04 0.312 0.15-0.048-0.03 0.504 0.22-0.072-0.02 1.08 0.33h-0.048l0.48 0.12h-0.024l0.648 0.15h-0.096l0.648 0.12v-0.03l0.648 0.12h-0.072l0.648 0.05h-0.072l1.416 0.05 1.368 0.09h-0.024l0.912 0.03h-0.072l1.944-0.03h-0.096l1.896-0.19h-0.072l0.312-0.05-0.096 0.03 0.288-0.07-0.096 0.02 0.312-0.1 0.288-0.09-0.096 0.02 0.312-0.12-0.048 0.03 0.6-0.27h-0.024l0.6-0.29h-0.024l0.216-0.09-0.192 0.12 0.096-0.07c0.048-0.05 0.12-0.1 0.192-0.12l0.096-0.05-0.192 0.12 0.096-0.07-0.144 0.12 0.072-0.08 0.072-0.04 0.216-0.22-0.072 0.07 0.072-0.05-0.24 0.32 0.024-0.05c0.12-0.24 0.312-0.43 0.552-0.55l0.048-0.03-0.336 0.24 0.072-0.05-0.24 0.32 0.048-0.1c0.048-0.12 0.12-0.24 0.24-0.31l0.048-0.07-0.384 0.91v-0.05c0-0.34 0.144-0.67 0.384-0.89l0.048-0.07-0.312 0.5 0.024-0.07c0.024-0.07 0.048-0.12 0.072-0.17l0.024-0.04-0.144 0.57v-0.05c0-0.19 0.048-0.4 0.144-0.57l0.024-0.05-0.144 0.58v-0.05c0-0.07 0-0.15 0.024-0.19l0.024-0.17 0.024-0.15c0.024-0.26 0.144-0.52 0.336-0.69l0.024-0.05-0.36 0.94v-0.05 0.05-0.12 0.02-0.1 0.03-0.07l0.384 0.86-0.024-0.02c-0.144-0.12-0.24-0.32-0.312-0.48l-0.024-0.08 0.072 0.17-0.024-0.05-0.024-0.04-0.024-0.05 0.24 0.31-0.048-0.05c-0.144-0.12-0.264-0.31-0.312-0.48l-0.024-0.07 0.312 0.5-0.024-0.02c-0.048-0.07-0.12-0.14-0.168-0.22l-0.048-0.07 0.168 0.22-0.024-0.03v-0.02l-0.072-0.05-0.024-0.05 0.336 0.24-0.048-0.02c-0.144-0.05-0.264-0.14-0.36-0.24l-0.048-0.02 0.36 0.21-0.072-0.02c-0.12-0.05-0.24-0.15-0.336-0.22l-0.048-0.07-0.048-0.02 0.912 0.33h-0.048c-0.336 0.03-0.672-0.12-0.912-0.33l-0.048-0.05 0.504 0.29-0.168-0.05-0.288-0.1h0.048l-0.168-0.05 0.144 0.05-0.312-0.05-0.12-0.02-0.48-0.12-0.408-0.1h0.096l-1.08-0.16 0.192 0.02h-0.192l-1.056-0.1h0.096l-2.568-0.07h0.144l-4.824 0.39h-0.144l0.216-0.03-3.168 0.55h0.024l-0.24 0.05 0.072-0.02-1.464 0.38h-0.048l-0.816 0.17 0.624-0.34-0.048 0.05c-0.336 0.34-0.792 0.46-1.248 0.34-0.432-0.12-0.792-0.48-0.912-0.94-0.096-0.45 0.024-0.91 0.36-1.25l0.048-0.04c0.192-0.17 0.408-0.29 0.648-0.34l0.84-0.14h-0.072l1.464-0.36h0.048l0.24-0.05h0.048l3.144-0.55c0.072-0.03 0.144-0.03 0.24-0.03h0.024-0.096l4.848-0.38h0.12l2.568 0.05 0.072 0.02 1.056 0.1h-0.12 0.072 0.192l1.08 0.16 0.096 0.03 0.408 0.09h0.024l0.504 0.12-0.12-0.02 0.312 0.05 0.168 0.02 0.168 0.05 0.048 0.02 0.288 0.1h0.024l0.144 0.05c0.192 0.07 0.36 0.17 0.504 0.31l0.048 0.05-0.888-0.39h0.048c0.336 0.03 0.648 0.17 0.888 0.39l0.048 0.05 0.048 0.04-0.312-0.21 0.048 0.02c0.12 0.05 0.216 0.15 0.312 0.24l0.048 0.03-0.312-0.22 0.048 0.02c0.12 0.05 0.216 0.15 0.312 0.24l0.096 0.1h0.024l0.024 0.02c0.048 0.08 0.096 0.12 0.144 0.2l0.024 0.07-0.12-0.19 0.024 0.02c0.12 0.14 0.216 0.31 0.288 0.5l0.024 0.08-0.312-0.51 0.048 0.05c0.096 0.1 0.168 0.22 0.24 0.34l0.024 0.04 0.048 0.1c0.024 0.05 0.048 0.1 0.072 0.17l0.024 0.07-0.312-0.5 0.024 0.02c0.24 0.24 0.384 0.58 0.36 0.94v0.07-0.03 0.1-0.02 0.12-0.05 0.05c-0.024 0.31-0.168 0.62-0.408 0.86l-0.024 0.02 0.384-0.67-0.024 0.15v-0.05l-0.024 0.17 0.024-0.17v0.05c-0.024 0.19-0.072 0.38-0.144 0.55l-0.048 0.05 0.144-0.56v0.05c0 0.19-0.048 0.39-0.144 0.55l-0.024 0.05 0.096-0.17-0.048 0.08c-0.048 0.19-0.168 0.36-0.312 0.48l-0.048 0.04 0.384-0.86v0.05c0 0.33-0.144 0.65-0.384 0.89l-0.048 0.02 0.24-0.31-0.024 0.05-0.024 0.04c-0.072 0.12-0.144 0.24-0.24 0.32l-0.048 0.04c-0.096 0.1-0.192 0.2-0.312 0.24l-0.072 0.03 0.576-0.55-0.024 0.04c-0.072 0.12-0.144 0.22-0.24 0.32l-0.048 0.04-0.048 0.05-0.216 0.19 0.048-0.04-0.072 0.07c-0.048 0.05-0.096 0.07-0.144 0.12l-0.096 0.07c-0.048 0.05-0.12 0.07-0.192 0.12l-0.096 0.05 0.192-0.12-0.096 0.07c-0.048 0.05-0.12 0.07-0.192 0.12l-0.192 0.1h-0.024l-0.624 0.28-0.6 0.27-0.024 0.02-0.312 0.12-0.072 0.03-0.312 0.09-0.288 0.1-0.072 0.02-0.312 0.07-0.096 0.03-0.312 0.05h-0.072l-1.896 0.19h-0.096l-1.968 0.02h-0.096l-0.912-0.07h-0.024l-1.344-0.12h0.024l-1.392-0.07h-0.072l-0.648-0.1h-0.072l-0.648-0.14h-0.024l-0.624-0.12-0.072-0.03-0.648-0.19h-0.024l-0.48-0.14-0.048-0.03-1.056-0.36-0.12-0.04-0.48-0.24h-0.048l-0.288-0.17 0.024 0.02-0.12-0.07-0.144-0.07-0.12-0.07-0.096-0.1-0.12-0.1 0.12 0.08-0.12-0.08c-0.072-0.04-0.144-0.09-0.192-0.16l-0.096-0.1 0.096 0.07-0.12-0.09-0.192-0.2-0.048-0.07-0.096-0.12-0.096-0.14-0.072-0.15-0.144-0.26c-0.168-0.38-0.096-0.79 0.192-1.08 0.312-0.26 0.744-0.31 1.08-0.1z"/>
  <path transform="matrix(1.3333 0 0 -1.3333 0 1120.8)" d="m59.904 699.29-0.312-0.29c-0.072-0.07-0.144-0.14-0.192-0.26l-0.072-0.12 0.048 0.07-0.024-0.05c-0.168-0.26-0.168-0.6 0-0.86 0.168-0.27 0.48-0.44 0.792-0.41 0.312 0.02 0.576 0.21 0.696 0.5l0.024 0.05 0.024 0.07 0.048 0.12-0.144-0.24 0.288 0.34c0.24 0.31 0.216 0.79-0.096 1.08-0.288 0.29-0.768 0.29-1.08 0z"/>
  <path transform="matrix(1.3333 0 0 -1.3333 0 1120.8)" d="m62.28 699.05-0.096-0.31-0.024-0.12-0.024-0.29-0.024-0.1v-0.05c-0.024-0.36 0.168-0.69 0.456-0.88 0.312-0.17 0.696-0.17 0.984 0 0.312 0.19 0.504 0.52 0.48 0.88v0.05l-0.024 0.1-0.048 0.29 0.024-0.15v0.34c0 0.43-0.312 0.79-0.744 0.86s-0.84-0.21-0.96-0.62z"/>
  <path transform="matrix(1.3333 0 0 -1.3333 0 1120.8)" d="m63.576 698.81 0.192-0.27c0.048-0.04 0.072-0.09 0.12-0.14l0.6-0.5 0.048-0.05 0.096-0.07c0.264-0.22 0.624-0.24 0.936-0.12s0.528 0.4 0.552 0.74c0.048 0.34-0.096 0.67-0.384 0.86l-0.096 0.08 0.024-0.03-0.624 0.48-0.096 0.07-0.288 0.17c-0.336 0.19-0.768 0.12-1.032-0.19-0.264-0.29-0.288-0.72-0.048-1.03z"/>
  <path transform="matrix(1.3333 0 0 -1.3333 0 1120.8)" d="m64.752 660.89-0.096-0.19c-0.048-0.12-0.096-0.24-0.12-0.36l-0.048-0.36v0.04l-0.024-0.14 0.048 0.19-0.048-0.14-0.024-0.1-0.12-0.33h0.024l-0.096-0.27-0.024-0.07-0.168-0.65 0.024 0.03-0.168-0.6 0.024 0.07-0.792-2.33 0.024 0.07-0.264-0.62-0.024-0.05-0.096-0.29-0.048-0.14-0.048-0.24 0.072 0.21-0.096-0.26v0.05l-0.096-0.24 0.024 0.05-0.096-0.17c-0.216-0.43-0.192-0.94 0.072-1.32 0.288-0.41 0.72-0.63 1.2-0.6 0.48 0.02 0.912 0.31 1.104 0.74l0.096 0.17 0.024 0.07 0.096 0.24 0.024 0.03 0.096 0.26c0.024 0.07 0.048 0.12 0.072 0.19l0.048 0.24-0.048-0.14 0.096 0.29-0.024-0.08 0.24 0.65 0.048 0.07 0.744 2.33 0.024 0.12 0.144 0.6v0.03l0.144 0.64v-0.02l0.048 0.26v-0.02l0.096 0.36v-0.05l0.024 0.15c0.024 0.07 0.048 0.14 0.048 0.21l0.024 0.15v0.02l0.048 0.36-0.024-0.14 0.048 0.21c0.12 0.6-0.192 1.2-0.768 1.39-0.576 0.22-1.2-0.04-1.488-0.57z"/>
  <path transform="matrix(1.3333 0 0 -1.3333 0 1120.8)" d="m67.248 659.4 0.024 0.34c0.024 0.48-0.216 0.96-0.648 1.22-0.456 0.26-0.984 0.24-1.416-0.02-0.408-0.27-0.648-0.75-0.6-1.25v-0.05c0-0.14 0.048-0.31 0.12-0.43l0.024-0.1-0.048 0.12 0.168-0.45v0.02l0.168-0.53-0.024 0.07 0.408-1.46-0.024 0.12 0.12-0.65 0.192-0.72v-0.02l0.192-0.63 0.072-0.14 0.576-1.42 0.048-0.07 0.096-0.21-0.072 0.19 0.072-0.24-0.024 0.02 0.072-0.14c0.144-0.51 0.552-0.89 1.056-1.03 0.504-0.12 1.056 0.04 1.416 0.43 0.36 0.38 0.48 0.93 0.336 1.44l-0.048 0.17-0.024 0.02-0.072 0.24c-0.024 0.07-0.048 0.12-0.072 0.17l-0.096 0.21 0.024-0.07-0.6 1.44 0.024-0.12-0.192 0.6v-0.02l-0.168 0.6 0.024-0.12-0.144 0.62-0.024 0.15-0.456 1.44-0.048 0.16-0.216 0.51v0.02l-0.216 0.41 0.12-0.34-0.024 0.08c-0.12 0.72-0.744 1.22-1.464 1.17h-0.072c-0.48-0.05-0.888-0.33-1.104-0.79-0.192-0.43-0.144-0.96 0.144-1.34 0.288-0.39 0.768-0.6 1.248-0.53l0.336 0.05c0.432 0.04 0.792 0.4 0.816 0.86z"/>
  <path transform="matrix(1.3333 0 0 -1.3333 0 1120.8)" d="m68.76 669.82 0.048-0.34 0.024-0.34 0.048-0.33 0.024-0.1 0.072-0.33 0.024-0.15 0.288-0.86v-0.05l0.216-0.55-0.024 0.07 0.192-0.65 0.024-0.02 0.288-0.87-0.024 0.05 0.168-0.6v0.07l0.312-1.44c0.024-0.04 0.048-0.12 0.072-0.16l0.288-0.82-0.072 0.26 0.12-0.6-0.024 0.17v-0.02c0.024-0.75 0.648-1.32 1.392-1.32s1.368 0.57 1.416 1.32v0.02c0 0.1 0 0.19-0.024 0.29l-0.096 0.6c-0.024 0.1-0.048 0.19-0.072 0.29l-0.312 0.79 0.048-0.19-0.312 1.44-0.024 0.09-0.168 0.6-0.024 0.08-0.312 0.86 0.024-0.02-0.216 0.62-0.024 0.07-0.192 0.53 0.024-0.05-0.288 0.87 0.024-0.1-0.072 0.31 0.024-0.09-0.072 0.33-0.048 0.34-0.048 0.33c-0.144 0.72-0.816 1.23-1.56 1.13-0.744-0.12-1.248-0.79-1.152-1.53z"/>
  <path transform="matrix(1.3333 0 0 -1.3333 0 1120.8)" d="m75.456 670.75-0.216-0.55c-0.024-0.05-0.048-0.12-0.048-0.17l-0.216-0.96 0.024 0.05-0.288-1.08 0.024 0.05-0.216-0.72-0.192-0.7-0.024-0.09-0.168-0.77v0.02l-0.072-0.33v0.04l-0.192-0.72v0.08l-0.744-2.16 0.192 0.36-0.36-0.48c-0.144-0.22-0.24-0.44-0.288-0.68v-0.02l0.912 1.13-0.048-0.03h-0.024v-0.02c-0.552-0.17-0.912-0.65-0.96-1.22-0.024-0.53 0.24-1.04 0.696-1.3 0.432-0.26 0.984-0.26 1.44 0 0.432 0.26 0.696 0.77 0.672 1.3l-0.192-0.77 0.024 0.02 0.024 0.05c0.144 0.26 0.216 0.55 0.168 0.84v0.02l-0.144-0.76 0.288 0.55c0.024 0.05 0.048 0.12 0.072 0.19l0.672 2.21v0.02l0.192 0.75 0.024 0.07 0.072 0.36 0.12 0.77v-0.1l0.192 0.72 0.192 0.7v0.07l0.24 1.08v0.02l0.192 0.96 0.024 0.17 0.024 0.6c0.048 0.53-0.312 1.01-0.84 1.1-0.528 0.12-1.056-0.16-1.248-0.67z"/>
  <path transform="matrix(1.3333 0 0 -1.3333 0 1120.8)" d="m59.04 702.53 0.12-0.24 0.096-0.12 0.336-0.34 0.024-0.02 0.24-0.22 0.024-0.02 0.096-0.07 0.048-0.08 0.072-0.02c0.192-0.14 0.48-0.17 0.696-0.05 0.24 0.1 0.384 0.34 0.408 0.58 0 0.26-0.12 0.5-0.336 0.65l-0.048 0.02 0.024-0.02-0.096 0.07h0.024l-0.264 0.19 0.024-0.02-0.36 0.31 0.096-0.1-0.168 0.22c-0.192 0.26-0.576 0.33-0.864 0.14s-0.384-0.57-0.192-0.86z"/>
  <path transform="matrix(1.3333 0 0 -1.3333 0 1120.8)" d="m61.68 703.7 0.096-0.33 0.024-0.1 0.144-0.38c0.12-0.31 0.408-0.53 0.744-0.53h0.024c0.288 0 0.552 0.17 0.696 0.41s0.144 0.55 0 0.79c-0.144 0.26-0.408 0.41-0.696 0.41h-0.024l0.744-0.48-0.168 0.36 0.024-0.07-0.096 0.36c-0.12 0.38-0.552 0.62-0.96 0.5s-0.648-0.53-0.552-0.94z"/>
  <path transform="matrix(1.3333 0 0 -1.3333 0 1120.8)" d="m64.632 704.09-0.192-0.24-0.072-0.1-0.168-0.33 0.144 0.19-0.048-0.05c-0.072-0.05-0.12-0.12-0.168-0.19l-0.024-0.07 0.048 0.09-0.048-0.07c-0.024-0.05-0.072-0.12-0.096-0.17l-0.024-0.07 0.096 0.19-0.024-0.07c-0.048-0.05-0.072-0.12-0.12-0.19l-0.048-0.17-0.048-0.14 0.096 0.21-0.024-0.02c-0.168-0.27-0.168-0.58 0-0.84 0.144-0.27 0.432-0.41 0.744-0.36 0.288 0.02 0.552 0.21 0.648 0.5l0.024 0.03 0.024 0.16 0.024 0.1-0.024-0.12 0.048 0.17-0.072-0.17 0.024 0.05c0.048 0.07 0.072 0.14 0.096 0.19l0.024 0.07-0.096-0.19 0.048 0.05 0.024 0.09 0.048 0.08-0.12-0.2 0.024 0.05c0.048 0.05 0.096 0.1 0.12 0.17l0.168 0.34-0.024-0.05 0.144 0.26c0.192 0.31 0.096 0.75-0.216 0.94-0.288 0.21-0.72 0.17-0.96-0.12z"/>
  <path transform="matrix(1.3333 0 0 -1.3333 0 1120.8)" d="m64.536 692.38v0.02l-0.264-0.48 0.024 0.02-0.528-0.26c0.216 0.02 0.408 0.12 0.576 0.29v0.02c0.12 0.1 0.192 0.22 0.24 0.36h0.024l-0.432-0.5 0.264 0.17 0.048 0.02 0.144 0.12-0.144-0.1 0.168 0.08 0.048 0.04 0.168 0.08-0.144-0.05 0.168 0.07 0.192 0.07h-0.024l0.504 0.19-0.096-0.04 1.512 0.43 0.504 0.12-0.096-0.03 0.552 0.12 0.552 0.1-0.072-0.02 1.104 0.14h-0.048l0.576 0.05 0.552 0.05-0.12-0.03h0.624l0.552 0.03h-0.072l0.552-0.03h-0.024l0.552-0.02h-0.048l1.488-0.17h-0.048l0.528-0.07-0.048 0.02 0.504-0.12h-0.024l0.504-0.09h-0.048l0.504-0.12-0.048 0.02 0.48-0.17-0.048 0.03 0.504-0.17-0.048 0.02 1.056-0.41-0.072 0.05 1.128-0.53-0.264 0.17 0.144-0.12c0.36-0.29 0.864-0.36 1.32-0.19 0.432 0.17 0.744 0.58 0.792 1.03 0.072 0.48-0.12 0.94-0.48 1.23l-0.168 0.12c-0.072 0.07-0.168 0.12-0.264 0.16l-1.152 0.51-0.072 0.02-1.056 0.39-0.048 0.02-0.504 0.17h-0.048l-0.504 0.14-0.024 0.03-0.504 0.09-0.048 0.03-0.504 0.09h-0.024l-0.504 0.12h-0.072l-0.528 0.07h-0.048l-1.488 0.15-0.096 0.02h-1.224l-0.552-0.02h0.072-0.6l-0.12-0.03-0.552-0.07-0.576-0.05h-0.048l-0.552-0.09-0.552-0.1h-0.072l-0.528-0.12-0.552-0.12-0.096-0.02-0.504-0.15-0.024-0.02-1.488-0.48-0.096-0.05-0.504-0.21-0.096-0.03-0.168-0.09-0.168-0.1-0.12-0.07-0.168-0.1 0.072 0.03-0.168-0.1-0.264-0.22-0.072-0.07-0.192-0.19c-0.288-0.29-0.384-0.74-0.24-1.13 0.048-0.14 0.144-0.26 0.24-0.36l0.024-0.02c0.144-0.17 0.36-0.27 0.576-0.29h0.024l-0.528 0.26v-0.02c0.216-0.22 0.528-0.31 0.84-0.24h0.024c0.36 0.07 0.624 0.34 0.696 0.7z"/>
  <path transform="matrix(1.3333 0 0 -1.3333 0 1120.8)" d="m64.152 693.5h-0.048c-0.144 0.05-0.312 0.03-0.48-0.02l-0.144-0.07 1.104-0.15c-0.384 0.36-1.008 0.34-1.368-0.04h-0.024v-0.03 0.03-0.03c-0.408-0.38-0.408-1.03-0.024-1.44l0.192-0.24 0.096-0.07 0.144-0.12c0.048-0.05 0.12-0.1 0.192-0.14l0.168-0.08-0.12 0.08 0.144-0.12 0.192-0.12c0.048-0.03 0.12-0.08 0.192-0.1l0.168-0.07-0.024 0.02 0.504-0.24 0.12-0.02 1.488-0.48 0.048-0.03 0.528-0.14h0.048l0.528-0.12h0.024l0.552-0.12h0.048l0.552-0.1h0.024l0.552-0.07h0.024l0.576-0.07h0.024l0.552-0.05h0.072l0.576-0.02h1.2l0.552 0.02h0.072l1.488 0.15h0.072l0.552 0.09h0.072l0.504 0.12 0.528 0.1 0.048 0.02 0.456 0.12 0.12 0.03 0.48 0.16-0.072-0.02 0.504 0.14 0.096 0.03 1.08 0.38 0.12 0.05 1.128 0.55c0.096 0.03 0.168 0.1 0.24 0.15l0.144 0.12c0.384 0.28 0.576 0.74 0.504 1.22-0.072 0.46-0.384 0.86-0.816 1.03s-0.936 0.1-1.296-0.19l-0.144-0.12 0.24 0.14-1.128-0.55 0.12 0.05-1.08-0.38 0.096 0.02-0.504-0.14-0.096-0.03-0.48-0.19 0.12 0.05-0.48-0.12h0.048l-0.504-0.1-0.504-0.12h0.048l-0.528-0.07h0.048l-1.488-0.17h0.048l-0.552-0.02h0.048l-0.552-0.03h0.024-0.552 0.024-0.576 0.072l-0.552 0.03h0.024l-0.6 0.05h0.048l-0.552 0.04h0.024l-0.552 0.08h0.048l-0.552 0.09 0.024-0.02-0.528 0.09h0.048l-0.528 0.12h0.024l-1.512 0.39 0.144-0.05-0.504 0.22-0.096 0.02-0.192 0.07 0.168-0.07-0.144 0.07 0.048-0.02-0.168 0.09-0.288 0.12 0.216-0.12-0.168 0.12v0.03l-0.264 0.14 0.144-0.12v0.03-0.03 0.03h-0.024l0.048-0.03c-0.072 0.1-0.168 0.15-0.288 0.22l-0.144 0.07 0.6-0.7-0.024 0.03c-0.048 0.36-0.336 0.62-0.672 0.69z"/>
  <path transform="matrix(1.3333 0 0 -1.3333 0 1120.8)" d="m66.192 659.18 4.512 0.46h0.024l0.792 0.1h-0.072l1.704 0.14h-0.216 0.192c0.504-0.02 1.008 0.22 1.296 0.65 0.264 0.43 0.288 0.98 0.072 1.44-0.24 0.45-0.696 0.74-1.224 0.77l-0.192 0.02c-0.072 0-0.144 0-0.24-0.02l-1.656-0.2h-0.072l-0.792-0.14h-0.024l-4.44-0.84c-0.648-0.12-1.056-0.72-0.984-1.34 0.096-0.65 0.696-1.11 1.32-1.04z"/>
  <path transform="matrix(1.3333 0 0 -1.3333 0 1120.8)" d="m70.632 669.07 0.336 0.07c0.12 0.03 0.24 0.08 0.336 0.15l0.072 0.05-0.12-0.08 0.096 0.05-0.24-0.07h0.096c0.096 0.02 0.168 0.05 0.24 0.1l0.12 0.02-0.24-0.07 0.096 0.02-0.144-0.02 0.216 0.02 0.096 0.03h0.096l0.12 0.02h-0.384l0.072-0.02c0.696-0.1 1.368 0.38 1.512 1.05 0.144 0.7-0.24 1.39-0.936 1.59l-0.072 0.02 0.552-0.31-0.024 0.02c-0.12 0.1-0.24 0.19-0.384 0.27l-0.048 0.02c-0.168 0.07-0.336 0.1-0.528 0.12h-0.048l0.888-0.38-0.048 0.04-0.048 0.05 0.024-0.02-0.024 0.02c-0.048 0.05-0.12 0.1-0.168 0.15l-0.096 0.07-0.072 0.02-0.072 0.05 0.384-0.36-0.096 0.14-0.072 0.1c-0.048 0.02-0.072 0.07-0.12 0.12l-0.072 0.05 0.192-0.19-0.048 0.04-0.048 0.08 0.096-0.15-0.096 0.17-0.144 0.24 0.096-0.19-0.144 0.38 0.048-0.17-0.096 0.44 0.024-0.15-0.024 0.19-0.024 0.2 0.024-0.2v0.63-0.17l0.024 0.22-0.048-0.2 0.048 0.2c0.024 0.04 0.024 0.09 0.048 0.16l0.024 0.2-0.072-0.29 0.072 0.21 0.024 0.08 0.144 0.43-0.144-0.34 0.048 0.07 0.096 0.2 0.048 0.07 0.072 0.12 0.048 0.09-0.072-0.12 0.048 0.1-0.288-0.36 0.096 0.1c0.072 0.04 0.12 0.12 0.192 0.19l0.048 0.05-0.048-0.05 0.072 0.09 0.072 0.08-0.144-0.15 0.096 0.07 0.072 0.08-0.144-0.12 0.096 0.07-0.072-0.05 0.072 0.05c0.096 0.05 0.168 0.09 0.24 0.14l0.096 0.1-0.36-0.22 0.096 0.03 0.096 0.04c0.072 0.03 0.144 0.08 0.216 0.12l0.096 0.05-0.528-0.19 0.12 0.02c0.192 0.03 0.384 0.1 0.528 0.2l0.12 0.04-0.456-0.16 0.264 0.04c0.096 0.03 0.168 0.05 0.24 0.1l0.12 0.02-0.576-0.09h0.096c0.096 0 0.192 0 0.312 0.02l0.096 0.03-0.312-0.03h0.12c0.12 0 0.216 0 0.312 0.03l0.096 0.02-0.312-0.02 0.12-0.03h0.12l-0.312 0.05 0.096-0.02c0.12-0.03 0.216-0.03 0.312-0.05h0.096l-0.288 0.05 0.096-0.03c0.096-0.02 0.192-0.02 0.288-0.05h0.12l-0.312 0.05 0.096-0.02-0.264 0.09 0.288-0.12 0.288-0.07-0.072 0.03 0.12-0.05-0.096 0.02 0.144-0.05-0.24 0.12 0.12-0.07c0.048-0.05 0.12-0.07 0.168-0.09l0.12-0.08-0.168 0.1 0.12-0.07 0.144-0.1 0.12-0.07-0.24 0.19 0.096-0.09 0.12-0.12 0.288-0.24-0.192 0.19 0.144-0.19-0.024 0.07 0.144-0.22c0.024-0.05 0.072-0.09 0.12-0.14l0.168-0.19-0.192 0.24 0.144-0.2 0.12-0.21 0.12-0.22-0.072 0.12 0.096-0.21-0.024 0.04 0.12-0.24-0.048 0.1 0.072-0.22v0.05l0.072-0.24-0.048 0.17 0.096-0.5v0.07l0.096-0.72v0.19-0.34 0.1l-0.048-0.82v0.03l-0.048-0.67v-0.24c0.024-0.77 0.672-1.4 1.44-1.4 0.792 0 1.416 0.63 1.44 1.4v0.12-0.1l0.048 0.65 0.024 0.05 0.048 0.79v0.43 0.19l-0.048 0.36-0.072 0.39v0.07l-0.096 0.5-0.048 0.17-0.072 0.24-0.024 0.05-0.072 0.21-0.024 0.08-0.096 0.24-0.024 0.04-0.096 0.22-0.072 0.12-0.12 0.22-0.12 0.19-0.144 0.21c-0.048 0.1-0.096 0.17-0.168 0.24l-0.168 0.22 0.096-0.17-0.144 0.22-0.048 0.07-0.144 0.19c-0.072 0.07-0.12 0.15-0.216 0.22l-0.288 0.24 0.12-0.1-0.096 0.1c-0.072 0.07-0.168 0.14-0.24 0.21l-0.144 0.08-0.12 0.09-0.12 0.07c-0.048 0.05-0.096 0.08-0.168 0.1l-0.12 0.07 0.168-0.09-0.12 0.07c-0.096 0.07-0.168 0.09-0.264 0.14l-0.144 0.07-0.096 0.03-0.144 0.05-0.072 0.02-0.288 0.07 0.168-0.05-0.096 0.05c-0.096 0.03-0.192 0.07-0.288 0.07l-0.096 0.03c-0.096 0.02-0.192 0.02-0.288 0.02h-0.12l0.312-0.02-0.096 0.02c-0.096 0.03-0.192 0.03-0.312 0.03h-0.096l0.312-0.03-0.096 0.03c-0.096 0.02-0.216 0.02-0.312 0.02h-0.24c-0.096 0-0.192-0.02-0.288-0.05l-0.096-0.02 0.288 0.05h-0.12c-0.096 0-0.192-0.03-0.288-0.05l-0.12-0.03 0.312 0.05h-0.096c-0.192 0-0.384-0.05-0.576-0.12l-0.096-0.05 0.24 0.1-0.264-0.07c-0.168-0.05-0.336-0.12-0.48-0.19l-0.096-0.08 0.552 0.22-0.12-0.02c-0.216-0.05-0.384-0.12-0.552-0.22l-0.096-0.07 0.216 0.12-0.192-0.1c-0.144-0.05-0.264-0.12-0.384-0.21l-0.096-0.1 0.216 0.14-0.072-0.02-0.048-0.05-0.096-0.05c-0.072-0.04-0.12-0.09-0.168-0.12l-0.072-0.07-0.096-0.09c-0.048-0.05-0.096-0.1-0.144-0.15l-0.072-0.07-0.072-0.1-0.072-0.07-0.048-0.05 0.216 0.22-0.12-0.1c-0.12-0.12-0.216-0.24-0.288-0.38l-0.048-0.07-0.072-0.12-0.048-0.1 0.072 0.1-0.048-0.07-0.048-0.1-0.048-0.07-0.048-0.1c-0.072-0.09-0.096-0.19-0.144-0.31l-0.12-0.43 0.024 0.07-0.072-0.22c-0.024-0.09-0.048-0.19-0.072-0.28l-0.024-0.2 0.048 0.17-0.048-0.17c-0.024-0.07-0.024-0.14-0.048-0.21l-0.024-0.19v-0.8c0-0.04 0.024-0.12 0.024-0.16l0.024-0.2v-0.02l0.024-0.17 0.024-0.14 0.12-0.41 0.048-0.17 0.144-0.41c0.024-0.07 0.072-0.14 0.12-0.21l0.072-0.12 0.072-0.15v0.03l0.096-0.17c0.024-0.07 0.072-0.12 0.12-0.17l0.048-0.07 0.048-0.05c0.048-0.07 0.12-0.14 0.192-0.21l0.072-0.03-0.168 0.15 0.072-0.1-0.048 0.05 0.048-0.05c0.12-0.14 0.264-0.26 0.432-0.36l0.072-0.02-0.072 0.02 0.096-0.05-0.096 0.07 0.024-0.02-0.024 0.02 0.048-0.04h0.024l0.024-0.03c0.24-0.19 0.552-0.31 0.864-0.29h0.048l-0.528 0.1 0.048-0.02-0.336 0.19 0.024-0.03c0.144-0.12 0.312-0.19 0.48-0.24l0.072-0.02c0.672-0.17 1.368 0.19 1.608 0.82 0.264 0.62 0 1.36-0.6 1.7s-1.344 0.17-1.752-0.38l-0.048-0.08 0.816 0.51-0.12-0.03c-0.096-0.02-0.168-0.04-0.264-0.07l-0.072-0.02 0.36 0.07h-0.216l-0.168-0.02-0.096-0.03c-0.072-0.02-0.168-0.05-0.24-0.09l-0.096-0.03 0.24 0.07-0.096-0.02c-0.096-0.02-0.168-0.05-0.24-0.07l-0.096-0.05-0.144-0.07-0.072-0.05-0.072-0.02-0.264-0.2c-0.48-0.33-0.672-0.96-0.456-1.48 0.24-0.56 0.816-0.87 1.392-0.75z"/>
  <path transform="matrix(1.3333 0 0 -1.3333 0 1120.8)" d="m77.784 669.91c0-0.41-0.312-0.69-0.696-0.69s-0.696 0.28-0.696 0.69c0 0.39 0.312 0.67 0.696 0.67s0.696-0.28 0.696-0.67z" fill-rule="evenodd"/>
  <path transform="matrix(1.3333 0 0 -1.3333 0 1120.8)" d="m76.44 668.52 0.36-0.14-0.264 0.14 0.144-0.12 0.168-0.12 0.144-0.1 0.384-0.24h-0.024l0.168-0.09 0.48-0.34h0.024l1.056-0.67h0.048l0.312-0.19-0.504 1.7c-0.216-0.38-0.216-0.84 0-1.2 0.192-0.38 0.552-0.65 0.96-0.69h0.024c0.72-0.1 1.368 0.38 1.464 1.1s-0.384 1.37-1.08 1.46c-0.72 0.1-1.368-0.38-1.488-1.08v-0.02c-0.12-0.7 0.36-1.34 1.032-1.49h0.024l-1.032 1.49v-0.02c-0.096-0.56 0.192-1.11 0.696-1.37l-0.384 0.31 0.024-0.02-0.264 1.27v-0.03l-0.024-0.09-0.024-0.03 0.12 0.32v-0.03l0.384 0.46-0.048-0.03 0.336 0.2-0.12-0.05-0.096-0.05-0.096-0.02 0.312 0.07-0.12-0.03h-0.072l-0.096-0.02-0.168-0.05-0.12-0.02 0.312 0.05-0.24-0.03h-0.12l-0.48-0.07-0.072-0.02-1.8-0.41h0.024l-1.2-0.24-0.096-0.03-0.144-0.04-0.168-0.05-0.024-0.03h-0.024l-0.048-0.02 0.552 0.12h-0.264 0.024-0.12 0.024-0.096l0.912-0.34-0.048 0.05c-0.12 0.07-0.24 0.17-0.384 0.22l-0.048 0.02c-0.72 0.31-1.536-0.02-1.848-0.74s0.048-1.54 0.744-1.85l0.048-0.02-0.336 0.21 0.048-0.05c0.264-0.21 0.576-0.33 0.912-0.31h0.096-0.024 0.12-0.024 0.264c0.192 0 0.36 0.05 0.528 0.12l0.12 0.05-0.168-0.07 0.144 0.05-0.096-0.03 1.2 0.27h0.024l1.8 0.43h-0.072l0.48 0.09-0.12-0.02 0.24 0.02c0.12 0 0.216 0.03 0.336 0.08l0.12 0.04-0.144-0.04 0.096 0.02h-0.048 0.12c0.096 0.02 0.192 0.07 0.288 0.12l0.096 0.02 0.12 0.05 0.096 0.05c0.144 0.07 0.264 0.14 0.36 0.24l0.024 0.02c0.456 0.44 0.552 1.08 0.288 1.61l-0.024 0.03 0.12-0.32v0.03l-0.024 0.09v0.03c-0.12 0.31-0.312 0.55-0.576 0.72l-0.024 0.02c-0.408 0.24-0.888 0.27-1.32 0.05v-0.02c-0.6-0.32-0.864-1.01-0.624-1.64 0.24-0.62 0.912-0.96 1.56-0.79s1.056 0.79 0.96 1.47v0.02c-0.072 0.36-0.264 0.67-0.552 0.86-0.288 0.22-0.648 0.29-1.008 0.22h-0.024c-0.696-0.14-1.152-0.82-1.032-1.51 0.144-0.72 0.816-1.18 1.512-1.06s1.176 0.79 1.056 1.49v0.02c-0.096 0.7-0.744 1.18-1.464 1.08h-0.024l1.32-0.67c-0.12 0.27-0.336 0.46-0.6 0.58l-0.312 0.17 0.048-0.05-1.104 0.57h0.024l-0.528 0.27h0.024l-0.192 0.09-0.408 0.22 0.072-0.02-0.192 0.12h-0.024l-0.144 0.09c-0.072 0.05-0.144 0.07-0.216 0.1l-0.384 0.14c-0.576 0.19-1.2-0.09-1.44-0.65-0.216-0.57 0.048-1.22 0.6-1.46z"/>
  <path transform="matrix(1.3333 0 0 -1.3333 0 1120.8)" d="m70.344 670.56-0.072 0.07c-0.24 0.34-0.672 0.46-1.056 0.29l-0.264-0.1-0.024-0.02-0.288-0.12-0.192-0.12-0.096-0.02-0.216-0.17-0.072-0.05-0.6-0.48v0.02l-0.648-0.48 0.048 0.03-1.536-1.06-0.072-0.07-0.696-0.58 0.816 0.27h-0.024c-0.576 0.05-1.08-0.34-1.2-0.89v-0.02l0.528 0.74-0.024-0.02 0.624 0.16h-0.024c-0.576 0.03-1.08-0.38-1.152-0.98-0.096-0.6 0.288-1.18 0.888-1.3 0.576-0.09 1.176 0.27 1.32 0.84 0.144 0.6-0.192 1.18-0.768 1.37h-0.024l-0.144 0.05h-0.144l1.008-1.25v0.36l-0.072-0.41 0.168 0.48-0.168-0.33 0.168 0.24 0.024 0.02 0.12 0.17 0.024 0.05 0.144 0.19 0.048 0.1 0.24 0.45v-0.02l0.312 0.57-0.144-0.19 0.096 0.07c0.048 0.08 0.072 0.12 0.12 0.2l0.072 0.14 0.072 0.12 0.048 0.1 0.168 0.31 0.024 0.09 0.384 1.06-0.12-0.24 0.12 0.17c0.024 0.05 0.048 0.12 0.096 0.17l0.072 0.16-0.12-0.16 0.24 0.33-0.048-0.07 0.192 0.24 0.048 0.1 0.096 0.14c0.36 0.53 0.216 1.25-0.336 1.61-0.528 0.36-1.248 0.21-1.608-0.31l-0.096-0.15 0.048 0.07-0.192-0.26-0.072-0.07-0.24-0.34c-0.024-0.05-0.048-0.09-0.072-0.17l-0.072-0.16 0.096 0.19-0.096-0.15c-0.072-0.09-0.12-0.16-0.144-0.26l-0.408-1.06 0.024 0.1-0.144-0.34 0.048 0.1-0.144-0.24 0.144 0.19-0.096-0.09c-0.048-0.05-0.096-0.12-0.144-0.22l-0.312-0.55-0.024-0.05-0.24-0.46 0.048 0.1-0.12-0.19 0.024 0.05-0.12-0.17-0.168-0.24c-0.096-0.12-0.168-0.24-0.192-0.41l-0.144-0.48c-0.048-0.19-0.048-0.38 0-0.58l0.048-0.19-0.024 0.15v-0.03c0.024-0.31 0.192-0.6 0.432-0.79s0.552-0.26 0.864-0.24h0.048l0.048 0.02h0.048l0.144 0.03 0.024 0.02c0.528 0.17 0.864 0.7 0.792 1.25-0.096 0.62-0.648 1.03-1.248 0.96-0.624-0.05-1.056-0.6-1.008-1.2s0.576-1.06 1.176-1.03h0.024c0.312 0 0.6 0.14 0.816 0.38l0.024 0.03c0.216 0.26 0.312 0.62 0.24 0.96v0.02c-0.12 0.58-0.696 0.96-1.272 0.86-0.6-0.07-1.008-0.62-0.936-1.22s0.6-1.03 1.2-0.98h0.024c0.264 0.02 0.504 0.14 0.672 0.31l0.672 0.65-0.072-0.08 1.44 1.16 0.024 0.02 0.6 0.53h-0.024l0.6 0.5 0.216 0.17-0.048-0.02 0.192 0.14-0.048-0.02 0.216 0.14-0.048-0.05 0.24 0.15-0.192-0.08 0.096 0.03c0.264 0.07 0.456 0.26 0.552 0.53 0.072 0.24 0.024 0.52-0.12 0.74z"/>
 </g>
</svg>
