<?xml version="1.0" encoding="UTF-8" standalone="no"?>
<!-- Created with Inkscape (http://www.inkscape.org/) -->

<svg
   version="1.1"
   id="svg1"
   width="300"
   height="300"
   viewBox="0 0 300 299.99999"
   sodipodi:docname="lesson1.pdf"
   inkscape:export-filename="multichoice\multichoice12\multichoice12_option3.svg"
   inkscape:export-xdpi="96"
   inkscape:export-ydpi="96"
   xmlns:inkscape="http://www.inkscape.org/namespaces/inkscape"
   xmlns:sodipodi="http://sodipodi.sourceforge.net/DTD/sodipodi-0.dtd"
   xmlns="http://www.w3.org/2000/svg"
   xmlns:svg="http://www.w3.org/2000/svg">
  <defs
     id="defs1" />
  <sodipodi:namedview
     id="namedview1"
     pagecolor="#ffffff"
     bordercolor="#000000"
     borderopacity="0.25"
     inkscape:showpageshadow="2"
     inkscape:pageopacity="0.0"
     inkscape:pagecheckerboard="0"
     inkscape:deskcolor="#d1d1d1">
    <inkscape:page
       x="0"
       y="0"
       inkscape:label="1"
       id="page1"
       width="300"
       height="300"
       margin="0"
       bleed="0" />
  </sodipodi:namedview>
  <g
     id="g1"
     inkscape:groupmode="layer"
     inkscape:label="1">
    <g
       id="g80"
       transform="matrix(9.5526586,0,0,9.5526586,-2130.4586,-2462.0935)">
      <path
         id="path80"
         d="m 173.66,643.63 0.12,0.19 c 0.08,0.1 0.1,0.2 0.12,0.32 v 0.02 l -0.12,-0.31 0.03,0.05 c 0.05,0.07 0.07,0.12 0.09,0.19 v 0.02 l 0.03,0.1 v 0.02 l -0.31,-0.5 h 0.02 c 0.07,0.07 0.14,0.14 0.19,0.21 l 0.03,0.03 -0.2,-0.19 h 0.03 v 0 0.02 c 0.19,0.12 0.29,0.31 0.33,0.53 v 0.02 l -0.12,-0.31 0.03,0.02 -0.75,-0.33 h 0.05 c 0.29,-0.05 0.6,0.12 0.75,0.36 l 0.04,0.07 -0.19,-0.19 0.34,0.24 h -0.03 l 0.22,0.17 c 0.05,0.04 0.07,0.09 0.12,0.14 l 0.05,0.05 -0.1,-0.12 0.03,0.05 -0.12,-0.1 0.04,0.02 c 0.05,0.03 0.1,0.08 0.15,0.1 l 0.05,0.05 -0.27,-0.15 h 0.03 c 0.07,0.03 0.12,0.05 0.19,0.1 l 0.05,0.05 -0.15,-0.1 0.12,0.05 v 0.02 l 0.07,0.03 0.08,0.02 0.09,0.05 -0.26,-0.1 0.07,0.03 0.07,0.02 0.12,0.03 h 0.03 l 0.09,0.04 -0.33,-0.04 0.09,-0.03 c 0.05,0 0.1,0 0.15,0.03 l 0.21,0.02 h -0.05 0.17 -0.09 0.14 v 0 h 0.17 -0.1 l 0.17,-0.02 -0.1,0.02 0.15,-0.05 h 0.07 l 0.43,-0.07 -0.24,0.07 0.12,-0.05 c 0.05,-0.02 0.07,-0.04 0.12,-0.04 l 0.15,-0.05 h -0.03 l 0.12,-0.05 -0.05,0.02 0.15,-0.07 -0.03,0.03 0.12,-0.08 -0.07,0.03 0.39,-0.22 -0.1,0.07 0.96,-0.76 v 0 l 0.19,-0.17 -0.05,0.05 2.76,-2.64 v 0 l 0.32,-0.32 v 0.03 l 1.77,-1.78 0.07,-0.05 0.24,-0.21 -0.02,0.02 0.24,-0.19 0.05,-0.05 0.24,-0.17 0.02,-0.02 0.27,-0.17 h 0.02 l 0.24,-0.17 0.1,-0.04 0.76,-0.39 c 0.05,-0.02 0.1,-0.05 0.15,-0.05 l 0.33,-0.12 c 0.46,-0.12 0.96,0.15 1.11,0.6 0.14,0.48 -0.12,0.99 -0.6,1.13 l -0.31,0.1 0.14,-0.05 -0.79,0.38 0.07,-0.04 -0.26,0.16 0.02,-0.02 -0.24,0.17 0.02,-0.03 -0.24,0.2 0.05,-0.05 -0.21,0.19 -0.03,0.02 -0.24,0.2 0.05,-0.08 -1.78,1.78 v 0.02 l -0.31,0.29 v 0 l -2.76,2.64 -0.05,0.05 -0.19,0.17 h -0.02 l -0.96,0.77 -0.1,0.07 -0.38,0.21 -0.07,0.05 -0.12,0.05 -0.03,0.02 -0.17,0.08 -0.04,0.02 -0.12,0.05 h -0.03 l -0.17,0.05 0.12,-0.05 -0.12,0.07 c -0.09,0.05 -0.19,0.07 -0.28,0.07 l -0.44,0.07 h 0.05 l -0.14,0.03 h -0.1 l -0.17,0.02 h -0.09 -0.17 v 0 l -0.14,-0.02 h -0.08 l -0.16,-0.03 h -0.05 l -0.22,-0.02 h 0.12 -0.09 c -0.1,0 -0.22,-0.02 -0.32,-0.07 l -0.07,-0.05 0.05,0.02 -0.1,-0.02 h 0.05 l -0.07,-0.02 c -0.07,-0.03 -0.14,-0.05 -0.19,-0.1 l -0.1,-0.05 0.05,0.03 -0.05,-0.03 0.05,0.03 -0.12,-0.05 c -0.05,-0.03 -0.12,-0.07 -0.17,-0.12 l -0.07,-0.05 0.1,0.05 h -0.03 c -0.07,-0.05 -0.12,-0.1 -0.19,-0.15 l -0.05,-0.07 0.12,0.12 -0.05,-0.02 c -0.04,-0.05 -0.07,-0.07 -0.09,-0.12 l -0.07,-0.05 c -0.03,-0.05 -0.05,-0.1 -0.1,-0.14 l -0.02,-0.05 0.12,0.17 -0.2,-0.2 v -0.02 l -0.26,-0.29 c -0.07,-0.07 -0.12,-0.14 -0.17,-0.21 l -0.02,-0.08 0.62,0.46 h -0.05 c -0.28,-0.05 -0.52,-0.22 -0.62,-0.5 v -0.03 c -0.05,-0.12 -0.05,-0.24 -0.05,-0.36 v -0.02 l 0.15,0.5 h -0.03 v 0 -0.02 c -0.05,-0.05 -0.07,-0.12 -0.09,-0.17 l -0.03,-0.02 0.1,0.16 v -0.02 c -0.12,-0.17 -0.17,-0.34 -0.15,-0.53 l 0.03,-0.02 v -0.1 l 0.02,-0.02 v 0.45 -0.04 c -0.05,-0.1 -0.05,-0.22 -0.05,-0.34 v -0.02 c 0.03,-0.1 0.05,-0.17 0.08,-0.24 l 0.12,-0.2 c 0.09,-0.19 0.26,-0.31 0.48,-0.33 0.21,0 0.4,0.09 0.52,0.26 z"
         style="fill:#000000;fill-opacity:1;fill-rule:nonzero;stroke:none"
         transform="matrix(1.3333333,0,0,-1.3333333,0,1120.8)" />
    </g>
    <g
       id="g81"
       transform="matrix(9.5526586,0,0,9.5526586,-2130.4586,-2462.0935)">
      <path
         id="path81"
         d="m 172.99,643.18 0.12,-0.1 0.1,-0.05 0.02,-0.02 v 0 l 0.05,-0.03 -0.24,0.22 0.02,-0.05 c 0.08,-0.07 0.17,-0.14 0.27,-0.19 l 0.05,-0.02 -0.27,0.19 0.03,-0.03 c 0.04,-0.04 0.09,-0.09 0.14,-0.14 l 0.02,-0.02 -0.02,0.02 0.05,-0.02 -0.12,0.09 0.02,-0.02 c 0.07,-0.1 0.17,-0.17 0.27,-0.22 l 0.04,-0.02 -0.26,0.21 0.07,-0.09 v 0 l 0.24,-0.31 -0.05,0.07 0.53,-0.82 v 0 l 0.39,-0.62 0.02,-0.05 1.25,-1.68 0.02,-0.02 0.29,-0.34 0.05,-0.07 0.84,-0.82 0.02,-0.02 0.15,-0.1 0.02,-0.02 2.23,-1.75 0.03,-0.05 0.26,-0.17 0.05,-0.02 1.01,-0.63 0.04,-0.02 0.29,-0.15 0.05,-0.02 0.29,-0.12 0.02,-0.02 0.29,-0.12 0.1,-0.03 0.93,-0.29 v 0 l 0.19,-0.04 c 0.05,-0.03 0.08,-0.03 0.12,-0.03 l 0.17,-0.02 h -0.05 l 0.2,-0.03 h 0.04 l 0.2,-0.02 h 0.07 0.17 v 0 h 0.16 0.08 l 0.19,0.02 v 0 h 0.19 l 0.07,0.03 0.51,0.09 c 0.07,0 0.14,0.03 0.19,0.08 l 0.07,0.02 v 0 l 0.07,0.02 -0.17,-0.04 0.08,0.02 c 0.04,0 0.12,0.02 0.14,0.05 l 0.07,0.02 v 0 l 0.07,0.05 c 0.05,0.02 0.1,0.05 0.12,0.07 l 0.08,0.05 -0.03,-0.02 0.17,0.12 c 0.02,0.02 0.07,0.04 0.1,0.09 l 0.07,0.07 c 0.31,0.29 0.31,0.8 0,1.08 -0.31,0.32 -0.79,0.32 -1.11,0 l -0.07,-0.04 0.1,0.07 -0.17,-0.12 v 0 l -0.07,-0.05 0.12,0.07 -0.07,-0.05 v 0 l -0.08,-0.02 0.17,0.07 -0.07,-0.02 c -0.05,-0.03 -0.1,-0.03 -0.14,-0.05 l -0.08,-0.05 v 0 l -0.07,-0.02 0.22,0.07 -0.53,-0.1 h 0.1 l -0.2,-0.02 v 0 h -0.19 0.07 -0.16 v 0 h -0.17 0.07 -0.19 0.07 l -0.22,0.02 h -0.04 l -0.15,0.03 0.12,-0.03 -0.19,0.05 h 0.02 l -0.93,0.29 0.07,-0.05 -0.29,0.15 v 0 l -0.29,0.12 0.03,-0.03 -0.29,0.17 0.07,-0.05 -1.03,0.63 0.05,-0.03 -0.27,0.19 0.03,-0.04 -2.21,1.75 0.02,-0.03 -0.12,0.12 0.03,-0.02 -0.87,0.82 0.05,-0.08 -0.26,0.34 0.02,-0.05 -1.25,1.68 0.05,-0.05 -0.41,0.63 v 0 l -0.55,0.79 -0.07,0.1 -0.24,0.28 v 0 l -0.1,0.08 c -0.09,0.12 -0.24,0.19 -0.38,0.21 l -0.05,0.03 0.29,-0.15 -0.05,0.05 c -0.02,0.02 -0.05,0.05 -0.09,0.05 l -0.05,0.02 c -0.03,0.03 -0.07,0.05 -0.12,0.07 h -0.03 l 0.22,-0.12 -0.05,0.03 c -0.07,0.07 -0.17,0.12 -0.26,0.14 h -0.05 l 0.26,-0.12 -0.04,0.03 c -0.08,0.07 -0.17,0.09 -0.27,0.12 l -0.05,0.02 v 0 h -0.04 0.02 l -0.17,0.05 c -0.29,0.05 -0.6,-0.1 -0.72,-0.36 -0.12,-0.29 -0.02,-0.63 0.24,-0.79 z"
         style="fill:#000000;fill-opacity:1;fill-rule:nonzero;stroke:none"
         transform="matrix(1.3333333,0,0,-1.3333333,0,1120.8)" />
    </g>
    <g
       id="g82"
       transform="matrix(9.5526586,0,0,9.5526586,-2130.4586,-2462.0935)">
      <path
         id="path82"
         d="m 184.99,638.57 -0.02,-0.03 c -0.07,-0.02 -0.12,-0.04 -0.19,-0.09 v -0.03 0 h -0.03 v 0 l -0.02,-0.02 0.19,0.1 h -0.05 c -0.24,-0.1 -0.41,-0.32 -0.45,-0.58 v -0.02 l 0.45,0.57 h -0.02 c -0.07,-0.05 -0.15,-0.07 -0.19,-0.12 h -0.03 c -0.07,-0.07 -0.12,-0.14 -0.19,-0.21 v -0.03 c -0.05,-0.09 -0.1,-0.17 -0.1,-0.29 h -0.02 l 0.31,0.48 -0.02,-0.02 c -0.07,-0.05 -0.15,-0.12 -0.19,-0.22 l -0.03,-0.02 0.19,0.22 -0.02,-0.03 v 0 0 c -0.19,-0.14 -0.29,-0.33 -0.31,-0.55 v -0.05 0.07 0 l 0.09,0.27 -0.02,-0.03 c -0.05,-0.12 -0.1,-0.24 -0.1,-0.36 v -0.02 l 0.32,0.55 h -0.03 c -0.14,-0.09 -0.24,-0.24 -0.29,-0.41 l -0.02,-0.07 v -0.05 l -0.02,-0.12 -0.03,-0.12 v -0.09 0 l -0.02,-0.1 v -0.05 -0.26 -0.02 -0.05 0 -0.05 0 -0.05 c 0,-0.09 0,-0.17 0.02,-0.26 l 0.03,-0.05 0.04,-0.1 v -0.04 l -0.04,0.16 0.02,-0.07 v -0.05 l 0.02,-0.04 0.05,-0.12 v -0.03 l 0.05,-0.09 0.05,-0.05 -0.1,0.19 0.03,-0.05 0.02,-0.09 0.02,-0.05 c 0.05,-0.07 0.1,-0.15 0.17,-0.22 l 0.05,-0.05 -0.14,0.17 0.07,-0.12 c 0.02,-0.05 0.07,-0.12 0.14,-0.17 l 0.05,-0.07 c 0.22,-0.21 0.53,-0.31 0.84,-0.24 0.29,0.1 0.53,0.31 0.6,0.63 0.07,0.28 0,0.6 -0.24,0.81 l -0.05,0.07 0.15,-0.16 -0.08,0.09 c -0.04,0.07 -0.09,0.15 -0.14,0.19 l -0.05,0.05 0.15,-0.21 v 0.04 l 0.04,-0.12 -0.02,0.05 c -0.02,0.07 -0.05,0.12 -0.1,0.19 l -0.02,0.05 0.02,-0.07 v 0.02 l 0.05,-0.12 -0.02,0.05 0.02,-0.05 -0.02,0.05 c 0,0.07 -0.03,0.12 -0.07,0.19 v 0.03 l 0.04,-0.12 -0.02,0.05 0.05,-0.27 v 0.05 0 0.05 0 0.05 0.02 0.26 l -0.03,0.05 v 0.1 0 0.09 -0.09 0.09 l -0.02,-0.09 0.02,0.07 -0.14,-0.34 v 0 c 0.12,0.17 0.19,0.36 0.17,0.58 v 0.02 l -0.05,-0.36 v 0.03 c 0.07,0.14 0.07,0.31 0.05,0.45 v 0 l 0.02,-0.07 -0.02,0.05 -0.17,-0.55 h 0.02 v 0 l 0.03,0.02 c 0.05,0.07 0.07,0.12 0.09,0.19 l 0.03,0.03 -0.12,-0.17 h 0.02 c 0.15,0.19 0.19,0.41 0.15,0.62 v 0 l -0.05,-0.4 0.02,0.02 -0.09,-0.19 v 0.02 l -0.22,-0.17 h 0.05 c 0.26,0.17 0.41,0.48 0.36,0.8 l -0.03,0.02 -0.36,-0.79 0.05,0.02 c 0.07,0.05 0.15,0.1 0.19,0.19 h 0.03 v 0 l 0.02,0.03 v 0 0.02 l -0.19,-0.19 0.02,0.02 c 0.34,0.2 0.46,0.63 0.29,0.99 -0.19,0.33 -0.6,0.5 -0.96,0.36 z"
         style="fill:#000000;fill-opacity:1;fill-rule:nonzero;stroke:none"
         transform="matrix(1.3333333,0,0,-1.3333333,0,1120.8)" />
    </g>
    <g
       id="g83"
       transform="matrix(9.5526586,0,0,9.5526586,-2130.4586,-2462.0935)">
      <path
         id="path83"
         d="m 176.33,644.21 c 0,-0.31 -0.27,-0.55 -0.58,-0.55 -0.31,0 -0.57,0.24 -0.57,0.55 0,0.33 0.26,0.57 0.57,0.57 0.31,0 0.58,-0.24 0.58,-0.57 z"
         style="fill:#000000;fill-opacity:1;fill-rule:evenodd;stroke:none"
         transform="matrix(1.3333333,0,0,-1.3333333,0,1120.8)" />
    </g>
    <g
       id="g84"
       transform="matrix(9.5526586,0,0,9.5526586,-2130.4586,-2462.0935)">
      <path
         id="path84"
         d="m 177.1,638.69 -0.22,-0.19 -0.07,-0.08 -0.27,-0.31 -0.04,-0.05 -0.22,-0.31 -0.02,-0.05 -0.53,-0.84 0.02,0.05 -0.05,-0.05 v 0 l -0.02,-0.04 v 0 l -0.05,-0.08 v 0 l -0.02,-0.02 0.14,0.14 -0.12,-0.09 c -0.02,-0.03 -0.07,-0.07 -0.09,-0.1 l -0.22,-0.26 0.02,0.02 -0.14,-0.14 0.05,0.02 -0.03,-0.02 c -0.31,-0.31 -0.31,-0.82 0,-1.13 0.32,-0.34 0.84,-0.34 1.16,0 h 0.02 l 0.02,0.05 0.15,0.14 0.02,0.03 0.19,0.28 -0.09,-0.12 0.12,0.1 c 0.05,0.05 0.09,0.12 0.14,0.17 l 0.03,0.05 v 0 l 0.04,0.04 v 0 l 0.03,0.05 v 0 l 0.02,0.07 h 0.03 l 0.5,0.87 v 0 l 0.22,0.33 -0.05,-0.04 0.24,0.31 -0.03,-0.03 0.2,0.24 c 0.21,0.29 0.16,0.72 -0.1,0.99 -0.26,0.24 -0.7,0.24 -0.98,0 z"
         style="fill:#000000;fill-opacity:1;fill-rule:nonzero;stroke:none"
         transform="matrix(1.3333333,0,0,-1.3333333,0,1120.8)" />
    </g>
    <g
       id="g85"
       transform="matrix(9.5526586,0,0,9.5526586,-2130.4586,-2462.0935)">
      <path
         id="path85"
         d="m 178.44,637.42 -0.14,-0.2 -0.08,-0.09 -0.4,-0.67 v -0.05 l -0.12,-0.19 c -0.05,-0.1 -0.08,-0.2 -0.1,-0.29 v 0 c -0.02,-0.29 0.12,-0.58 0.36,-0.75 0.24,-0.14 0.58,-0.14 0.82,0 0.24,0.17 0.38,0.46 0.36,0.75 h -0.03 l -0.05,-0.36 0.1,0.21 h -0.02 l 0.33,0.72 -0.07,-0.12 0.14,0.22 c 0.2,0.29 0.12,0.7 -0.16,0.91 -0.29,0.22 -0.7,0.17 -0.94,-0.09 z"
         style="fill:#000000;fill-opacity:1;fill-rule:nonzero;stroke:none"
         transform="matrix(1.3333333,0,0,-1.3333333,0,1120.8)" />
    </g>
    <g
       id="g86"
       transform="matrix(9.5526586,0,0,9.5526586,-2130.4586,-2462.0935)">
      <path
         id="path86"
         d="m 174.22,634.7 0.24,-0.02 h 0.09 l 0.6,0.05 h -0.05 l 0.89,-0.03 h -0.02 l 0.45,-0.04 v 0 l 0.58,-0.03 h -0.02 l 0.26,-0.02 h 0.05 l 0.26,-0.03 v 0 h 0.27 0.09 l 0.65,0.08 h 0.1 l 0.07,0.02 c 0.29,0.05 0.55,0.26 0.65,0.55 0.09,0.29 0.02,0.6 -0.17,0.82 -0.19,0.24 -0.51,0.33 -0.82,0.26 h -0.07 0.1 l -0.68,-0.07 h 0.08 -0.27 v 0 h -0.26 0.05 -0.27 -0.02 -0.58 v 0 h -0.45 -0.05 l -0.91,-0.07 h -0.03 l -0.6,-0.05 h 0.03 l -0.24,-0.02 c -0.36,-0.03 -0.65,-0.32 -0.65,-0.7 0,-0.36 0.29,-0.67 0.65,-0.7 z"
         style="fill:#000000;fill-opacity:1;fill-rule:nonzero;stroke:none"
         transform="matrix(1.3333333,0,0,-1.3333333,0,1120.8)" />
    </g>
    <g
       id="g87"
       transform="matrix(9.5526586,0,0,9.5526586,-2129.7815,-2451.2584)">
      <path
         id="path87"
         d="m 175.97,626.88 0.33,-0.05 h 0.12 l 2.14,0.05 h -0.02 3.88 -0.07 l 0.48,-0.02 h 0.07 0.05 c 0.55,0 1.01,0.45 1.01,1.03 0,0.55 -0.46,1.03 -1.01,1.03 h -0.05 v 0 h -0.45 -0.07 l -3.87,-0.14 -0.07,-0.03 -2.11,-0.19 h -0.03 l -0.33,-0.02 c -0.43,-0.05 -0.75,-0.41 -0.75,-0.84 0,-0.44 0.32,-0.8 0.75,-0.82 z"
         style="fill:#000000;fill-opacity:1;fill-rule:nonzero;stroke:none"
         transform="matrix(1.3333333,0,0,-1.3333333,0,1120.8)" />
    </g>
    <g
       id="g88"
       transform="matrix(9.5526586,0,0,9.5526586,-2129.7815,-2451.2584)">
      <path
         id="path88"
         d="m 176.33,628.46 -0.17,0.08 0.34,-0.32 -0.03,0.03 c -0.02,0.09 -0.09,0.17 -0.17,0.21 l -0.04,0.05 0.19,-0.24 v 0.05 -0.62 l 0.02,0.02 c 0.05,0.14 0.07,0.31 0.03,0.48 l -0.03,0.05 c 0,0.05 -0.02,0.07 -0.05,0.12 v 0.02 0 l -0.02,0.05 0.07,-0.14 -0.02,0.02 -0.05,-0.48 h 0.02 c 0.1,0.22 0.08,0.46 -0.02,0.65 l -0.02,0.02 0.07,-0.14 -0.03,0.05 c 0,0.04 -0.02,0.09 -0.04,0.14 l -0.03,0.02 0.07,-0.5 0.03,0.02 c 0,0.1 0.02,0.17 0,0.24 v 0.05 -0.24 0.05 0 0.02 l -0.05,-0.14 v 0 c 0.02,0.05 0.05,0.12 0.07,0.17 v 0.05 0.07 l 0.03,0.09 v -0.02 0.12 0 l 0.02,0.12 v 0 l 0.02,0.12 -0.02,-0.12 0.1,0.38 -0.03,-0.09 0.1,0.26 -0.03,-0.02 0.1,0.24 0.02,0.02 0.29,0.75 -0.09,-0.17 0.07,0.09 0.02,0.08 0.07,0.12 -0.04,-0.08 0.07,0.1 -0.07,-0.1 0.09,0.1 c 0.03,0.05 0.05,0.07 0.07,0.12 l 0.05,0.1 -0.07,-0.1 0.1,0.1 v 0 l 0.09,0.09 -0.17,-0.14 0.1,0.07 0.07,0.05 0.22,0.19 -0.03,-0.02 0.1,0.07 -0.12,-0.07 0.12,0.07 v 0 l 0.1,0.07 c 0.04,0 0.07,0.02 0.12,0.07 l 0.09,0.07 -0.17,-0.12 0.12,0.08 -0.07,-0.03 0.1,0.03 0.07,0.02 0.12,0.07 -0.12,-0.05 0.12,0.05 0.05,0.03 0.12,0.02 -0.24,-0.05 0.14,0.03 c 0.1,0 0.17,0.02 0.24,0.04 l 0.1,0.05 -0.22,-0.07 0.15,0.02 h -0.15 l 0.1,-0.02 c 0.05,0 0.09,0.02 0.14,0.02 l 0.15,0.03 -0.15,-0.03 h 0.1 c 0.05,0 0.09,0 0.14,0.03 l 0.15,0.02 h -0.29 l 0.12,-0.02 c 0.05,-0.03 0.09,-0.03 0.17,-0.03 h 0.12 l -0.17,0.03 0.12,-0.03 v 0 l 0.12,-0.02 v 0 l 0.14,-0.02 -0.17,0.04 0.12,-0.04 c 0.08,-0.03 0.1,-0.03 0.17,-0.05 l 0.12,-0.03 -0.21,0.08 0.26,-0.12 0.05,-0.03 0.17,-0.05 -0.1,0.05 0.17,-0.09 0.09,-0.05 0.17,-0.05 -0.21,0.12 0.12,-0.12 0.09,-0.05 0.15,-0.07 -0.15,0.1 0.12,-0.1 c 0.05,-0.02 0.07,-0.07 0.12,-0.1 l 0.17,-0.09 -0.19,0.14 0.26,-0.24 0.07,-0.07 0.22,-0.19 -0.14,0.14 0.19,-0.24 v 0 l 0.19,-0.21 v 0 l 0.19,-0.22 -0.07,0.1 0.38,-0.63 v 0 l 0.05,-0.09 v 0.02 l 0.07,-0.14 -0.04,0.12 0.02,-0.1 -0.02,0.1 0.04,-0.15 c 0,-0.07 0.05,-0.12 0.08,-0.17 l 0.04,-0.14 -0.09,0.29 0.02,-0.12 0.03,-0.07 0.04,-0.17 -0.02,0.09 0.05,-0.28 v -0.05 l 0.02,-0.12 v 0 l 0.05,-0.22 c 0.12,-0.53 0.62,-0.84 1.15,-0.74 0.53,0.09 0.87,0.6 0.77,1.13 l -0.02,0.21 v 0.03 l -0.03,0.09 v -0.05 l -0.02,0.29 -0.03,0.1 -0.04,0.17 0.02,-0.1 -0.02,0.14 c -0.03,0.1 -0.05,0.2 -0.1,0.29 l -0.05,0.12 0.05,-0.19 -0.02,0.17 -0.05,0.07 -0.03,0.12 c -0.02,0.05 -0.04,0.07 -0.07,0.12 l -0.07,0.14 v 0.03 l -0.07,0.09 -0.03,0.03 -0.38,0.62 c -0.02,0.05 -0.05,0.07 -0.07,0.1 l -0.19,0.21 v 0 l -0.2,0.24 v 0 l -0.16,0.22 c -0.05,0.07 -0.1,0.12 -0.15,0.14 l -0.21,0.2 0.04,-0.08 -0.24,0.27 c -0.04,0.05 -0.12,0.09 -0.16,0.14 l -0.17,0.1 0.09,-0.07 -0.12,0.09 c -0.04,0.03 -0.09,0.07 -0.14,0.1 l -0.14,0.07 0.09,-0.05 -0.14,0.1 c -0.07,0.07 -0.15,0.09 -0.24,0.14 l -0.17,0.05 0.1,-0.05 -0.17,0.1 -0.07,0.05 -0.17,0.04 0.02,-0.02 -0.29,0.12 c -0.07,0.05 -0.14,0.07 -0.24,0.07 l -0.12,0.03 0.17,-0.03 -0.14,0.03 c -0.05,0.02 -0.1,0.02 -0.15,0.04 l -0.12,0.03 v 0 h -0.12 v 0 l -0.12,0.02 c -0.07,0.03 -0.12,0.03 -0.16,0.03 h -0.12 l 0.14,-0.03 -0.12,0.03 c -0.1,0.02 -0.19,0.02 -0.29,0 l -0.14,-0.03 0.12,0.03 h -0.1 c -0.05,0 -0.09,0 -0.14,-0.03 l -0.15,-0.02 0.15,0.02 h -0.1 c -0.05,0 -0.09,0 -0.14,-0.02 l -0.15,-0.03 c -0.07,0 -0.16,-0.02 -0.21,-0.04 l -0.12,-0.05 0.24,0.07 -0.15,-0.02 c -0.07,-0.03 -0.16,-0.05 -0.24,-0.08 l -0.09,-0.04 0.05,0.02 -0.12,-0.02 c -0.05,-0.03 -0.1,-0.05 -0.12,-0.08 l -0.15,-0.04 0.1,0.02 -0.12,-0.05 -0.07,-0.02 -0.12,-0.07 c -0.05,-0.03 -0.12,-0.08 -0.17,-0.1 l -0.1,-0.1 0.1,0.08 -0.1,-0.08 v 0 l -0.12,-0.04 c -0.02,-0.03 -0.05,-0.05 -0.09,-0.08 l -0.1,-0.09 -0.05,-0.05 -0.24,-0.19 0.05,0.02 -0.1,-0.07 c -0.07,-0.05 -0.12,-0.12 -0.14,-0.17 l -0.1,-0.09 v 0 l -0.07,-0.12 c -0.02,-0.03 -0.05,-0.08 -0.07,-0.1 l -0.05,-0.12 0.05,0.12 -0.07,-0.12 c -0.03,-0.02 -0.05,-0.05 -0.07,-0.1 l -0.05,-0.09 -0.05,-0.07 -0.05,-0.12 0.03,0.04 -0.05,-0.09 c -0.03,-0.05 -0.05,-0.1 -0.07,-0.17 l -0.27,-0.74 v -0.08 l -0.07,-0.24 v -0.02 l -0.07,-0.26 v -0.05 l -0.07,-0.39 c -0.03,-0.07 -0.03,-0.16 -0.03,-0.26 l 0.03,-0.12 v 0 l 0.02,-0.12 v 0 -0.12 0.02 l 0.02,-0.09 v -0.07 l 0.03,-0.05 c 0,-0.05 0.02,-0.12 0.05,-0.17 v 0 l -0.05,0.14 v -0.02 0 l 0.02,-0.05 c 0.03,-0.17 0.12,-0.31 0.24,-0.43 l 0.03,-0.02 -0.24,0.4 v -0.02 c 0.04,-0.22 0.19,-0.41 0.4,-0.5 l 0.03,-0.03 -0.27,0.22 0.05,-0.05 c 0.05,-0.07 0.15,-0.14 0.24,-0.19 l 0.03,-0.03 -0.34,0.34 h 0.02 c 0.03,-0.05 0.05,-0.1 0.08,-0.14 l 0.02,-0.05 c 0.07,-0.07 0.14,-0.15 0.24,-0.19 h 0.02 v 0 l 0.03,-0.03 -0.22,0.19 v -0.02 l -0.07,0.12 0.02,-0.02 c 0.05,-0.12 0.17,-0.24 0.29,-0.32 l 0.03,-0.02 c 0.04,0 0.09,-0.02 0.14,-0.05 h 0.02 l -0.12,0.05 h 0.03 c 0.17,-0.1 0.38,-0.12 0.55,-0.05 l 0.17,0.07 c 0.21,0.1 0.36,0.32 0.36,0.56 0,0.24 -0.15,0.45 -0.36,0.52 z"
         style="fill:#000000;fill-opacity:1;fill-rule:nonzero;stroke:none"
         transform="matrix(1.3333333,0,0,-1.3333333,0,1120.8)" />
    </g>
  </g>
</svg>
