<?xml version="1.0" encoding="UTF-8" standalone="no"?>
<!-- Created with Inkscape (http://www.inkscape.org/) -->

<svg
   version="1.1"
   id="svg1"
   width="46.151257"
   height="33.294498"
   viewBox="0 0 46.151257 33.294497"
   sodipodi:docname="word2.svg"
   xmlns:inkscape="http://www.inkscape.org/namespaces/inkscape"
   xmlns:sodipodi="http://sodipodi.sourceforge.net/DTD/sodipodi-0.dtd"
   xmlns="http://www.w3.org/2000/svg"
   xmlns:svg="http://www.w3.org/2000/svg">
  <defs
     id="defs1" />
  <sodipodi:namedview
     id="namedview1"
     pagecolor="#ffffff"
     bordercolor="#000000"
     borderopacity="0.25"
     inkscape:showpageshadow="2"
     inkscape:pageopacity="0.0"
     inkscape:pagecheckerboard="0"
     inkscape:deskcolor="#d1d1d1"
     inkscape:zoom="1.6785563"
     inkscape:cx="-7.1490008"
     inkscape:cy="82.511384"
     inkscape:window-width="1920"
     inkscape:window-height="1191"
     inkscape:window-x="-9"
     inkscape:window-y="-9"
     inkscape:window-maximized="1"
     inkscape:current-layer="g1">
    <inkscape:page
       x="0"
       y="0"
       inkscape:label="1"
       id="page1"
       width="46.151257"
       height="33.294498"
       margin="0"
       bleed="0" />
  </sodipodi:namedview>
  <g
     id="g1"
     inkscape:groupmode="layer"
     inkscape:label="1"
     transform="translate(-524.38433,-107.50552)">
    <g
       id="g114">
      <path
         id="path114"
         d="m 394.15,735.05 0.24,-0.03 c 0.12,-0.02 0.24,0 0.36,0.05 l 0.17,0.05 h -0.05 l 0.19,0.05 v 0 l 0.2,0.05 0.12,0.04 0.16,0.08 -0.04,-0.03 0.19,0.07 0.07,0.03 0.17,0.09 0.09,0.05 0.34,0.19 0.12,0.1 0.1,0.1 v 0 l 0.07,0.04 v -0.02 l 0.09,0.1 c 0.05,0.02 0.1,0.07 0.15,0.12 l 0.07,0.09 v 0.03 l 0.07,0.07 0.1,0.12 0.05,0.09 -0.12,-0.16 0.09,0.09 c 0.07,0.05 0.12,0.15 0.17,0.22 l 0.07,0.12 -0.12,-0.17 0.05,0.07 c 0.1,0.1 0.14,0.22 0.19,0.31 l 0.05,0.15 -0.14,-0.27 0.09,0.1 c 0.05,0.1 0.07,0.17 0.12,0.24 l 0.1,0.26 0.02,0.03 0.07,0.29 0.05,0.07 0.07,0.29 v 0 l 0.05,0.26 0.03,0.1 0.04,0.31 v 0.02 l 0.05,0.29 v 0 l 0.03,0.29 0.02,0.09 v 0.32 l 0.02,0.02 v 0.29 l -0.02,0.12 -0.07,0.77 v 0.07 l -0.1,0.6 v 0 l -0.12,0.57 -0.02,0.1 -0.15,0.55 -0.04,0.07 -0.44,1.28 v 0.02 l -0.96,2.42 v 0 l -0.09,0.24 V 747 l -0.1,0.29 0.03,-0.05 -0.1,0.26 0.05,-0.16 -0.07,0.26 v 0 l -0.05,0.26 v -0.02 l -0.07,0.29 0.04,-0.12 -0.04,0.29 v -0.05 l -0.03,0.26 0.03,-0.07 -0.03,0.26 v 0.03 l -0.02,0.29 v -0.12 l 0.02,0.26 -0.02,-0.07 0.05,0.26 v -0.07 l 0.04,0.24 v 0 l 0.1,0.7 -0.05,-0.22 0.12,0.36 v -0.02 l 0.12,0.36 v -0.03 l 0.12,0.34 -0.05,-0.12 0.39,0.77 -0.03,-0.08 0.68,1.13 v 0 l 0.45,0.77 v -0.02 l 0.1,0.16 0.02,0.03 0.12,0.19 -0.05,-0.02 0.12,0.16 0.05,0.08 0.12,0.19 0.05,0.14 0.1,0.19 v 0.03 l 0.09,0.21 v 0 l 0.07,0.24 v 0.03 l 0.17,0.48 c 0.03,0.12 0.05,0.21 0.05,0.31 l 0.02,0.12 -0.04,-0.26 0.02,0.12 c 0.02,0.07 0.05,0.16 0.05,0.26 l 0.02,0.12 v 0 0.12 -0.07 0.12 c 0.03,0.09 0.03,0.17 0,0.26 v 0.12 -0.09 0.12 0.09 0.12 0.1 l -0.05,0.12 v 0.05 l -0.02,0.12 v 0.04 l -0.02,0.12 -0.03,0.08 -0.05,0.12 -0.02,0.12 -0.05,0.12 0.03,-0.12 -0.03,0.12 -0.02,0.12 -0.1,0.24 c -0.05,0.12 -0.12,0.26 -0.24,0.36 l -0.05,0.07 0.15,-0.19 -0.03,0.04 c -0.07,0.1 -0.14,0.2 -0.21,0.27 l -0.05,0.05 0.07,-0.05 -0.07,0.05 0.07,-0.08 -0.07,0.08 c -0.05,0.07 -0.12,0.16 -0.19,0.21 l -0.07,0.05 0.16,-0.14 -0.07,0.07 c -0.05,0.07 -0.12,0.12 -0.19,0.17 l -0.07,0.07 0.14,-0.12 -0.05,0.05 c -0.14,0.12 -0.28,0.21 -0.45,0.28 l -0.07,0.03 0.4,-0.24 -0.09,0.07 c -0.07,0.07 -0.17,0.14 -0.27,0.17 l -0.07,0.05 0.1,-0.05 -0.15,0.09 c -0.09,0.03 -0.14,0.08 -0.21,0.1 l -0.17,0.05 c -0.65,0.24 -1.37,-0.07 -1.61,-0.72 -0.26,-0.63 0.07,-1.35 0.7,-1.61 l 0.17,-0.07 -0.2,0.09 0.15,-0.09 0.09,-0.03 0.08,-0.04 -0.29,0.19 0.09,-0.07 c 0.12,-0.12 0.24,-0.2 0.39,-0.24 l 0.07,-0.05 -0.46,0.31 0.08,-0.07 c 0.02,-0.03 0.07,-0.07 0.12,-0.12 l 0.07,-0.03 -0.19,0.17 0.04,-0.07 c 0.05,-0.05 0.1,-0.1 0.15,-0.14 l 0.05,-0.05 -0.2,0.21 0.05,-0.04 0.07,-0.08 0.05,-0.09 0.07,-0.05 0.05,-0.05 -0.21,0.27 0.04,-0.05 c 0.03,-0.07 0.08,-0.15 0.15,-0.22 l 0.05,-0.07 -0.22,0.38 0.1,-0.24 -0.05,0.1 0.05,-0.12 0.02,-0.1 0.05,-0.12 -0.03,0.12 0.03,-0.12 -0.03,0.08 0.03,-0.12 v 0.04 l 0.02,-0.16 -0.02,0.07 0.02,-0.12 v 0.09 -0.12 0.08 -0.12 -0.08 l 0.03,-0.12 v 0.24 l -0.03,-0.14 v -0.07 l -0.02,-0.12 v 0 -0.12 l 0.05,0.26 -0.05,-0.12 c 0,-0.09 -0.03,-0.17 -0.03,-0.26 v -0.12 l 0.05,0.29 -0.17,-0.48 0.03,0.04 -0.07,-0.21 v 0 l -0.08,-0.19 v 0.04 l -0.07,-0.21 0.07,0.17 -0.12,-0.22 0.05,0.07 -0.09,-0.17 -0.05,-0.04 -0.12,-0.2 0.02,0.03 -0.12,-0.19 -0.02,-0.03 -0.43,-0.74 v 0 l -0.68,-1.13 -0.04,-0.07 -0.39,-0.79 -0.05,-0.12 -0.14,-0.36 v -0.03 l -0.12,-0.33 v 0 l -0.12,-0.36 c -0.02,-0.08 -0.05,-0.12 -0.05,-0.22 l -0.12,-0.65 v -0.02 l -0.02,-0.27 -0.03,-0.09 -0.02,-0.27 v -0.07 -0.26 -0.12 l 0.02,-0.27 v 0.03 -0.24 -0.07 l 0.03,-0.29 v -0.05 l 0.05,-0.26 0.02,-0.12 0.05,-0.27 h 0.02 l 0.07,-0.26 v 0 l 0.05,-0.24 0.05,-0.17 0.1,-0.24 v -0.02 l 0.12,-0.27 v 0 l 0.09,-0.24 v 0.03 l 0.99,-2.4 v 0.02 l 0.43,-1.22 v 0.02 l 0.17,-0.55 -0.03,0.09 0.15,-0.57 v 0.05 l 0.12,-0.58 -0.03,0.1 0.1,-0.77 v 0.05 -0.29 0.05 l 0.02,-0.32 v 0.1 l -0.02,-0.29 v 0 -0.29 0.03 l -0.03,-0.29 v 0.1 l -0.04,-0.29 v 0 l -0.05,-0.27 0.02,0.08 -0.07,-0.29 0.02,0.07 -0.09,-0.24 0.09,0.19 -0.04,-0.09 c -0.08,-0.1 -0.1,-0.17 -0.12,-0.24 l -0.05,-0.15 0.17,0.31 -0.08,-0.09 c -0.04,-0.05 -0.07,-0.1 -0.09,-0.17 l -0.07,-0.12 0.16,0.24 -0.09,-0.12 c -0.05,-0.02 -0.07,-0.1 -0.12,-0.14 l -0.05,-0.12 0.07,0.12 -0.07,-0.1 0.02,0.02 -0.09,-0.09 0.14,0.12 -0.09,-0.07 -0.05,-0.03 -0.07,-0.09 v 0 l -0.1,-0.1 0.17,0.14 -0.34,-0.21 0.07,0.05 -0.16,-0.1 0.04,0.02 -0.16,-0.07 -0.08,-0.02 -0.14,-0.07 0.12,0.02 -0.19,-0.05 v 0 l -0.19,-0.07 -0.05,-0.02 -0.15,-0.05 0.24,0.05 -0.24,-0.03 c -0.48,-0.07 -0.84,-0.48 -0.81,-0.93 0.02,-0.51 0.38,-0.87 0.86,-0.89 z"
         style="fill:#000000;fill-opacity:1;fill-rule:nonzero;stroke:none"
         transform="matrix(1.3333333,0,0,-1.3333333,0,1120.8)" />
    </g>
    <g
       id="g115">
      <path
         id="path115"
         d="m 398.3,736.85 -0.21,0.05 0.21,-0.08 -0.16,0.08 h -0.03 l -0.19,0.07 v 0 l -0.19,0.07 0.12,-0.05 -0.15,0.07 -0.07,0.03 -0.17,0.07 0.05,-0.02 -0.17,0.09 0.08,-0.05 -0.34,0.22 0.17,-0.12 -0.1,0.1 v 0 l -0.09,0.07 -0.03,0.02 -0.09,0.1 0.12,-0.15 -0.08,0.1 h 0.03 l -0.07,0.07 0.07,-0.12 -0.05,0.1 c -0.02,0.07 -0.07,0.14 -0.12,0.19 l -0.1,0.1 0.15,-0.24 -0.05,0.12 c -0.02,0.07 -0.07,0.12 -0.1,0.19 l -0.07,0.07 0.15,-0.31 -0.03,0.14 c -0.02,0.1 -0.05,0.17 -0.09,0.24 l -0.08,0.1 0.1,-0.19 -0.1,0.26 0.03,-0.07 -0.07,0.29 v -0.1 l -0.05,0.29 v 0 l -0.03,0.26 v -0.09 l -0.02,0.28 v -0.02 l -0.02,0.29 v 0 0.29 -0.1 0.29 -0.03 l 0.02,0.32 v -0.1 l 0.1,0.79 -0.03,-0.09 0.15,0.57 -0.03,-0.02 0.15,0.55 -0.05,-0.07 0.19,0.55 -0.02,-0.05 0.45,1.25 v -0.05 l 0.99,2.38 v 0 l 0.09,0.24 v 0 l 0.12,0.26 v 0.03 l 0.1,0.24 0.05,0.14 0.04,0.29 v 0 l 0.08,0.24 v 0 l 0.07,0.29 0.02,0.12 0.03,0.26 v 0.05 l 0.04,0.26 v 0.07 0.27 -0.05 l 0.03,0.29 v 0.12 0.24 0.07 l -0.03,0.29 v 0.07 l -0.04,0.26 v 0.03 l -0.12,0.67 c 0,0.05 -0.03,0.12 -0.05,0.19 l -0.12,0.34 v 0.02 l -0.12,0.34 v 0.02 l -0.12,0.36 -0.07,0.15 -0.39,0.76 -0.05,0.08 -0.67,1.12 v 0 l -0.45,0.75 v 0.05 l -0.12,0.16 v 0 l -0.12,0.2 v 0.02 l -0.12,0.17 0.04,-0.07 -0.12,0.19 0.08,-0.12 -0.08,0.19 v -0.05 l -0.07,0.22 v -0.03 l -0.07,0.22 0.02,-0.05 -0.16,0.51 0.04,-0.32 v 0.12 c 0,0.1 -0.02,0.2 -0.04,0.27 l -0.05,0.12 0.05,-0.27 v 0.12 0 0.12 0.08 l -0.03,0.14 v -0.24 l 0.03,0.12 v 0.1 0.12 -0.1 0.12 -0.1 0.12 -0.04 l 0.02,0.12 v -0.03 l 0.02,0.12 -0.02,-0.07 0.02,0.12 -0.02,-0.1 0.05,0.1 0.02,0.1 0.03,0.12 -0.03,-0.1 0.1,0.24 -0.24,-0.38 0.07,0.07 c 0.05,0.07 0.1,0.14 0.14,0.21 l 0.03,0.05 -0.19,-0.26 0.04,0.05 0.08,0.07 0.04,0.07 0.08,0.07 0.04,0.07 -0.21,-0.21 0.05,0.05 c 0.07,0.04 0.12,0.07 0.16,0.12 l 0.05,0.07 -0.19,-0.17 0.07,0.05 c 0.05,0.05 0.1,0.07 0.12,0.12 l 0.07,0.05 -0.45,-0.29 0.07,0.02 c 0.14,0.07 0.26,0.15 0.38,0.24 l 0.08,0.07 -0.27,-0.19 0.07,0.03 0.1,0.07 0.14,0.09 -0.19,-0.09 0.15,0.05 c 0.64,0.26 0.96,0.98 0.72,1.63 -0.24,0.65 -0.96,0.96 -1.61,0.72 l -0.17,-0.07 c -0.07,-0.03 -0.14,-0.05 -0.22,-0.1 l -0.14,-0.1 0.1,0.05 -0.08,-0.02 c -0.09,-0.05 -0.19,-0.12 -0.26,-0.19 l -0.1,-0.08 0.41,0.24 -0.07,-0.02 c -0.17,-0.07 -0.31,-0.14 -0.46,-0.29 l -0.04,-0.05 0.14,0.12 -0.07,-0.04 c -0.07,-0.05 -0.15,-0.12 -0.19,-0.2 l -0.08,-0.04 0.15,0.12 -0.03,-0.05 c -0.09,-0.05 -0.16,-0.12 -0.21,-0.19 l -0.05,-0.08 0.05,0.08 -0.05,-0.08 0.05,0.08 -0.05,-0.08 c -0.07,-0.07 -0.14,-0.16 -0.22,-0.24 l -0.02,-0.07 0.14,0.19 -0.04,-0.04 c -0.12,-0.12 -0.2,-0.24 -0.24,-0.39 l -0.08,-0.24 -0.04,-0.12 -0.05,-0.12 0.05,0.1 -0.05,-0.1 -0.03,-0.09 -0.04,-0.12 -0.03,-0.1 -0.02,-0.12 v -0.02 l -0.03,-0.15 v -0.05 l -0.02,-0.12 -0.02,-0.09 v -0.12 -0.07 -0.12 0.07 -0.12 c -0.03,-0.07 0,-0.15 0,-0.24 v -0.15 0.08 -0.12 0 l 0.02,-0.12 c 0,-0.08 0.02,-0.17 0.05,-0.27 l 0.02,-0.12 -0.05,0.27 0.03,-0.12 c 0,-0.1 0.02,-0.2 0.05,-0.29 l 0.16,-0.48 v -0.07 l 0.08,-0.2 v -0.02 l 0.09,-0.22 0.03,-0.02 0.07,-0.19 0.05,-0.15 0.12,-0.19 0.04,-0.07 0.12,-0.17 -0.02,0.03 0.12,-0.2 v 0 l 0.1,-0.19 v 0.03 l 0.43,-0.77 h 0.02 l 0.67,-1.11 -0.04,0.08 0.4,-0.8 -0.04,0.15 0.12,-0.36 v 0.02 l 0.12,-0.33 v 0 l 0.12,-0.36 -0.05,0.21 0.09,-0.67 v 0 l 0.05,-0.26 v 0.07 l 0.03,-0.27 v 0.08 -0.27 0.12 -0.26 -0.05 -0.26 0.07 l -0.05,-0.27 0.02,0.03 -0.05,-0.27 0.03,0.12 -0.05,-0.26 v 0 l -0.07,-0.24 v 0 l -0.05,-0.26 0.05,0.14 -0.1,-0.24 h 0.03 L 396.22,747 v 0 l -0.08,-0.24 v 0 l -0.96,-2.4 v -0.05 l -0.45,-1.27 -0.03,-0.07 -0.14,-0.55 -0.02,-0.1 -0.12,-0.55 v -0.03 l -0.08,-0.57 -0.02,-0.07 -0.07,-0.8 -0.03,-0.12 0.03,-0.28 v -0.05 -0.29 -0.07 l 0.05,-0.31 v 0 l 0.04,-0.29 v -0.03 l 0.03,-0.28 0.05,-0.12 0.04,-0.27 v 0 l 0.08,-0.26 0.04,-0.1 0.08,-0.26 0.02,-0.05 0.1,-0.26 c 0.04,-0.08 0.07,-0.15 0.12,-0.22 l 0.07,-0.12 -0.12,0.26 0.05,-0.14 c 0.04,-0.12 0.09,-0.22 0.19,-0.31 l 0.07,-0.07 -0.14,0.19 0.07,-0.12 c 0.05,-0.1 0.09,-0.17 0.17,-0.24 l 0.07,-0.07 -0.12,0.14 0.07,-0.1 0.1,-0.12 0.07,-0.09 v 0 l 0.07,-0.07 c 0.05,-0.05 0.1,-0.1 0.14,-0.15 l 0.12,-0.07 h -0.04 l 0.09,-0.07 -0.02,0.02 0.12,-0.09 0.12,-0.1 0.33,-0.19 0.1,-0.05 0.17,-0.07 0.07,-0.05 0.19,-0.07 -0.05,0.02 0.17,-0.07 0.12,-0.05 0.19,-0.05 v 0 l 0.2,-0.04 h -0.05 l 0.17,-0.05 C 397.78,735 397.9,735 398.02,735 l 0.24,0.02 c 0.48,0.03 0.84,0.41 0.86,0.89 0.02,0.46 -0.34,0.89 -0.82,0.94 z"
         style="fill:#000000;fill-opacity:1;fill-rule:nonzero;stroke:none"
         transform="matrix(1.3333333,0,0,-1.3333333,0,1120.8)" />
    </g>
    <g
       id="g116">
      <path
         id="path116"
         d="m 405.38,754.94 0.29,0.44 0.03,0.04 0.24,0.36 -0.05,-0.07 0.26,0.34 v 0 l 0.72,0.96 c 0.15,0.19 0.22,0.41 0.24,0.62 v 0.03 l -0.53,-0.89 h 0.05 c 0.29,0.24 0.48,0.57 0.51,0.96 l 0.02,0.02 -0.02,-0.05 v 0.03 l -1.42,-1.13 h 0.02 c 0.32,-0.02 0.65,0.05 0.92,0.22 v 0.04 c 0.31,0.2 0.5,0.51 0.55,0.87 v 0.02 l -1.42,-1.13 v 0 c 0.31,-0.02 0.65,0.05 0.91,0.24 l 0.03,0.03 c 0.31,0.21 0.5,0.57 0.55,0.93 v 0.03 c 0.05,0.72 -0.48,1.37 -1.18,1.44 -0.72,0.05 -1.36,-0.48 -1.44,-1.18 -0.07,-0.72 0.44,-1.37 1.16,-1.44 h 0.04 l -0.88,0.46 H 405 c 0.24,-0.31 0.6,-0.48 0.98,-0.48 0.36,0 0.75,0.17 1.01,0.43 v 0.02 l -1.1,-0.4 h 0.02 c 0.72,-0.08 1.37,0.4 1.44,1.12 v 0.03 l -1.44,-1.15 h 0.03 v 0 h 0.02 c 0.31,-0.05 0.65,0.04 0.91,0.24 l 0.03,0.02 -1.08,-0.22 h 0.04 c 0.36,-0.09 0.75,0 1.06,0.2 l 0.02,0.04 -0.84,-0.26 h 0.08 l -1.04,0.58 0.03,-0.05 c 0.24,-0.34 0.62,-0.55 1.03,-0.55 h 0.05 l -1.15,0.74 v -0.02 c 0.14,-0.29 0.36,-0.51 0.64,-0.63 l 0.05,-0.02 -0.24,0.12 0.05,-0.03 0.1,-0.04 0.02,-0.03 -0.05,0.03 0.05,-0.03 -0.58,1.25 v -0.02 c -0.04,-0.51 0.2,-1.01 0.63,-1.28 l 0.05,-0.02 c 0.16,-0.12 0.38,-0.19 0.6,-0.22 h 0.02 l -1.13,0.84 0.03,-0.07 c 0.04,-0.09 0.09,-0.21 0.16,-0.31 l 0.08,-0.07 h -0.03 l 0.12,-0.12 -0.02,0.02 0.09,-0.12 -0.14,0.22 0.1,-0.17 0.02,-0.07 0.22,-0.39 -0.08,0.2 0.03,-0.1 c 0.02,-0.07 0.05,-0.1 0.07,-0.14 l 0.07,-0.12 -0.02,0.04 0.05,-0.12 c 0.04,-0.09 0.09,-0.16 0.12,-0.24 l 0.09,-0.09 0.03,-0.03 0.07,-0.09 -0.15,0.24 0.05,-0.12 c 0.05,-0.12 0.12,-0.24 0.22,-0.34 l 0.09,-0.09 v 0 l 0.08,-0.08 c 0.04,-0.04 0.09,-0.09 0.12,-0.14 l 0.26,-0.22 -0.5,1.08 v -0.02 c 0,-0.36 0.14,-0.72 0.4,-0.98 0.27,-0.27 0.63,-0.41 0.99,-0.44 h 0.02 l -1.29,0.92 0.02,-0.05 c 0.19,-0.53 0.72,-0.87 1.3,-0.89 H 408 l -0.89,0.34 v -0.03 c 0.27,-0.21 0.58,-0.33 0.91,-0.33 v 0 0 h 0.05 v 0 h 0.03 -0.03 0.03 0.02 v 0 0 h 0.02 v 0 h 0.03 v 0 h 0.02 l -0.53,0.12 v 0 c 0.17,-0.08 0.36,-0.12 0.53,-0.12 v 0 h 0.05 0.02 c 0.34,0 0.65,0.12 0.92,0.31 l 0.02,0.02 -0.91,-0.31 h 0.02 c 0.77,-0.02 1.39,0.62 1.39,1.37 v 0.05 l -1.39,-1.4 h 0.03 c 0.76,0 1.39,0.63 1.41,1.4 v 0.02 c 0,0.77 -0.62,1.39 -1.39,1.42 -0.77,0 -1.42,-0.63 -1.42,-1.4 0,-0.79 0.6,-1.41 1.4,-1.41 h 0.02 c 0.19,0 0.36,0.02 0.55,0.09 l 0.05,0.03 c 0.17,0.07 0.31,0.17 0.43,0.31 l 0.07,0.05 -0.19,-0.15 0.07,0.03 0.1,0.09 0.07,0.05 v 0.03 l 0.1,0.04 c 0.05,0.05 0.09,0.1 0.12,0.15 l 0.12,0.12 -0.05,-0.07 0.24,0.24 c 0.05,0.04 0.1,0.09 0.12,0.16 l 0.07,0.05 0.05,0.07 0.05,0.08 -0.55,-0.48 0.09,0.04 c 0.22,0.12 0.41,0.29 0.55,0.51 l 0.05,0.09 0.05,0.03 0.02,0.07 -0.02,-0.07 0.02,0.07 v 0 l 0.12,0.17 c 0.05,0.05 0.1,0.12 0.12,0.19 l 0.03,0.05 c 0.09,0.19 0.14,0.38 0.14,0.6 v 0.07 l -0.89,-1.3 0.05,0.03 c 0.36,0.14 0.65,0.41 0.77,0.77 l 0.02,0.07 -0.02,-0.1 0.02,0.05 -0.36,-0.46 0.05,0.03 v 0 l 0.05,0.05 c 0.14,0.12 0.26,0.28 0.36,0.48 l 0.02,0.04 -0.74,-0.69 0.07,0.02 c 0.27,0.1 0.51,0.31 0.65,0.58 l 0.02,0.02 -0.28,-0.33 0.04,0.04 v 0 h 0.03 l -0.22,-0.12 0.07,0.03 c 0.08,0.05 0.15,0.09 0.22,0.14 l 0.02,0.03 -0.21,-0.15 0.07,0.03 v 0 l 0.12,0.07 -0.7,-0.17 h 0.05 -0.02 0.05 l -0.29,0.02 h 0.05 c 0.09,-0.02 0.19,-0.02 0.28,-0.02 l 0.03,-0.02 -0.91,0.36 0.02,-0.03 c 0.26,-0.21 0.58,-0.33 0.89,-0.33 h 0.02 v 0 h 0.05 v 0 h 0.02 l -1.08,0.52 v -0.02 c 0.29,-0.34 0.7,-0.55 1.13,-0.55 h 0.03 l -0.92,0.36 v -0.03 c 0.12,-0.09 0.24,-0.16 0.39,-0.24 h 0.07 l -0.77,0.8 v -0.05 c 0.19,-0.53 0.72,-0.89 1.32,-0.91 v 0 c 0.79,0 1.44,0.62 1.44,1.41 0,0.79 -0.6,1.42 -1.39,1.42 -0.79,0.02 -1.44,-0.6 -1.44,-1.39 v 0 c 0,-0.44 0.17,-0.84 0.5,-1.11 v -0.02 h 0.03 l 0.07,-0.05 -0.14,0.12 0.09,-0.1 0.05,-0.04 0.05,-0.08 -0.27,0.39 0.05,-0.07 c 0.03,-0.08 0.07,-0.15 0.12,-0.2 l 0.17,-0.24 -0.12,0.17 0.14,-0.29 0.05,-0.04 0.07,-0.15 -0.07,0.17 0.05,-0.14 c 0.02,-0.08 0.07,-0.15 0.12,-0.22 l 0.07,-0.1 0.05,-0.09 0.24,-0.34 0.02,-0.05 0.05,-0.02 c 0.05,-0.07 0.12,-0.14 0.19,-0.19 l 0.03,-0.03 -0.27,0.27 0.05,-0.07 c 0.29,-0.36 0.7,-0.58 1.15,-0.58 h 0.05 l -1.25,0.7 0.05,-0.05 c 0.07,-0.15 0.17,-0.27 0.29,-0.36 l 0.05,-0.03 v 0 l 0.02,-0.02 c 0.24,-0.22 0.58,-0.34 0.91,-0.34 h 0.05 l -0.69,0.2 0.02,-0.05 -0.05,0.05 0.05,-0.03 c 0.07,-0.05 0.12,-0.07 0.19,-0.09 l 0.05,-0.05 -0.65,0.6 v -0.03 c 0.19,-0.33 0.55,-0.57 0.94,-0.67 h 0.05 c 0.09,-0.02 0.19,-0.02 0.28,-0.02 h 0.03 v 0 h 0.07 l -0.94,0.33 0.03,-0.02 c 0.26,-0.22 0.57,-0.34 0.93,-0.34 h 0.05 v 0 h 0.03 -0.15 0.07 c 0.17,-0.02 0.29,0 0.44,0 l 0.09,0.03 0.07,0.02 0.1,0.03 c 0.07,0 0.14,0.04 0.22,0.07 l 0.09,0.05 -0.21,-0.08 h 0.09 c 0.1,0.03 0.22,0.08 0.31,0.15 l 0.1,0.05 -0.05,-0.03 0.1,0.03 -0.07,-0.03 0.09,0.05 0.15,0.07 0.07,0.05 c 0.07,0.02 0.09,0.05 0.14,0.1 l 0.24,0.16 -0.12,-0.07 0.24,0.15 0.05,0.04 0.19,0.12 0.05,0.03 0.17,0.12 c 0.05,0.05 0.09,0.09 0.14,0.14 l 0.17,0.15 v 0 l 0.41,0.43 h 0.02 l 0.55,0.57 -0.43,-0.28 h 0.05 c 0.5,0.24 0.84,0.76 0.84,1.32 v 0.02 l -0.48,-1.08 0.02,0.02 -0.21,-0.16 0.02,0.02 c 0.27,0.14 0.46,0.36 0.58,0.62 l 0.02,0.05 -1.25,-0.81 h 0.03 c 0.19,0 0.36,0.04 0.55,0.12 l 0.02,0.02 c 0.15,0.05 0.27,0.14 0.36,0.22 l 0.05,0.04 v 0 0 l -0.89,-0.33 h 0.03 c 0.33,0 0.67,0.12 0.91,0.33 l 0.02,0.03 -0.91,-0.34 h 0.05 -0.02 0.04 c 0.34,0 0.65,0.12 0.92,0.34 l 0.02,0.02 -0.91,-0.33 h 0.05 c 0.14,0 0.28,0.02 0.45,0.07 l 0.05,0.02 -0.46,-0.07 h 0.08 l -0.92,0.31 0.05,-0.02 h -0.02 l 0.02,-0.03 c 0.27,-0.21 0.6,-0.33 0.91,-0.33 h 0.05 0.03 0.02 l -0.7,0.19 0.03,-0.02 -0.41,0.36 0.02,-0.05 c 0.15,-0.19 0.34,-0.31 0.56,-0.41 l 0.04,-0.02 -0.14,0.07 0.05,-0.03 -0.05,0.03 0.02,-0.03 -0.28,0.27 0.02,-0.05 -0.36,0.91 v -0.02 c 0.02,-0.41 0.19,-0.79 0.5,-1.06 l 0.1,-0.05 v -0.02 l 0.05,-0.05 -0.34,0.43 0.03,-0.07 c 0.02,-0.05 0.04,-0.09 0.09,-0.14 l 0.05,-0.07 c 0.02,-0.05 0.07,-0.1 0.12,-0.15 l 0.02,-0.05 -0.12,0.15 0.05,-0.07 -0.14,0.28 0.05,-0.09 c 0.04,-0.12 0.09,-0.19 0.16,-0.31 l 0.03,-0.05 -0.17,0.36 v -0.07 0 l 0.02,-0.08 0.03,-0.04 0.07,-0.17 -0.1,0.48 v -0.1 c 0,-0.09 0.03,-0.19 0.05,-0.29 v -0.04 c 0.05,-0.12 0.07,-0.22 0.12,-0.32 l 0.05,-0.07 c 0.02,-0.05 0.05,-0.09 0.07,-0.14 l 0.07,-0.07 -0.24,0.98 -0.02,-0.07 c -0.05,-0.39 0.07,-0.77 0.31,-1.08 l 0.05,-0.05 -0.05,0.05 0.05,-0.05 -0.12,0.17 0.07,-0.1 c 0.03,-0.05 0.05,-0.12 0.1,-0.17 l 0.02,-0.04 -0.05,0.07 0.03,-0.03 c 0.05,-0.07 0.07,-0.12 0.12,-0.16 l 0.07,-0.08 -0.07,0.08 0.05,-0.05 0.09,-0.12 0.12,-0.12 c 0.05,-0.05 0.07,-0.07 0.12,-0.12 l 0.05,-0.03 c 0.24,-0.21 0.55,-0.31 0.86,-0.28 h 0.05 v 0 h 0.03 v 0 h 0.02 v 0 h 0.02 0.03 0.02 l -1.27,0.81 v -0.02 c 0.22,-0.51 0.72,-0.84 1.27,-0.84 h 0.05 v 0 h 0.05 v 0 h 0.02 -0.02 0.02 c 0.34,0 0.65,0.12 0.89,0.33 v 0.03 l -0.84,-0.34 h 0.02 -0.02 l 0.05,0.03 h 0.02 0.03 0.02 0.02 c 0.17,0 0.32,0.04 0.46,0.09 l 0.05,0.03 -0.48,-0.12 h 0.02 c 0.31,0.02 0.6,0.12 0.84,0.33 l 0.03,0.03 -0.22,-0.17 0.07,0.05 -0.07,-0.03 0.07,0.03 -0.05,-0.03 0.12,0.07 0.15,0.05 0.09,0.07 0.08,0.05 0.21,0.15 c 0.1,0.04 0.17,0.12 0.24,0.19 l 0.1,0.12 -0.22,-0.19 0.12,0.07 c 0.07,0.05 0.12,0.09 0.17,0.14 l 0.12,0.1 c 0.05,0.07 0.12,0.12 0.17,0.19 l 0.24,0.34 -0.05,-0.08 0.1,0.12 -0.05,-0.07 0.09,0.12 c 0.05,0.05 0.1,0.1 0.12,0.15 l 0.1,0.12 -0.19,-0.2 0.24,0.22 v 0 l 0.19,0.17 0.12,0.09 0.05,0.05 -0.15,-0.14 0.03,0.05 0.09,0.07 0.05,0.07 c 0.07,0.07 0.12,0.14 0.17,0.24 l 0.05,0.02 -0.65,-0.52 h 0.07 c 0.17,0.07 0.31,0.19 0.43,0.31 l 0.05,0.05 -0.43,-0.29 h 0.05 l 0.12,0.07 0.12,0.05 -0.65,-0.15 v 0 0 h 0.05 c 0.31,0 0.6,0.1 0.84,0.32 h 0.02 l -0.86,-0.32 h 0.02 v 0 h 0.03 v 0 H 420 l -0.86,0.32 h 0.02 c 0.24,-0.22 0.55,-0.32 0.86,-0.32 h 0.03 l -0.84,0.32 v -0.03 0 l 0.02,-0.02 c 0.24,-0.19 0.53,-0.31 0.84,-0.31 h 0.05 v 0 0 l -0.84,0.31 0.02,-0.03 -0.45,1.04 v -0.05 c 0,-0.72 0.57,-1.32 1.32,-1.32 v 0 0 h 0.02 l -0.86,0.31 0.02,-0.02 -0.48,1.03 v -0.03 c 0,-0.74 0.6,-1.32 1.35,-1.32 h 0.02 c 0.53,0 1.01,0.32 1.22,0.8 0.22,0.5 0.1,1.08 -0.28,1.46 -0.39,0.38 -0.94,0.5 -1.44,0.29 -0.51,-0.22 -0.82,-0.7 -0.82,-1.23 v -0.04 0 0 c 0,-0.36 0.12,-0.7 0.38,-0.96 0.27,-0.24 0.58,-0.39 0.94,-0.39 h 0.02 l -1.1,0.6 0.1,-0.17 c 0.02,-0.04 0.07,-0.09 0.12,-0.16 l 0.09,-0.08 -0.14,0.15 0.07,-0.07 v -0.03 l 0.1,-0.12 -0.03,0.03 0.07,-0.1 v 0 l 0.05,-0.1 v 0.03 l 0.07,-0.12 -0.14,0.29 0.12,-0.32 v 0.03 -0.07 l 0.05,-0.08 0.02,-0.04 -0.07,0.16 0.02,-0.04 0.03,-0.12 0.02,-0.08 c 0.03,-0.04 0.05,-0.12 0.07,-0.16 l 0.05,-0.08 c 0.07,-0.16 0.19,-0.31 0.34,-0.4 l 0.02,-0.05 -0.43,0.69 0.02,-0.04 c 0.03,-0.17 0.1,-0.29 0.17,-0.44 l 0.07,-0.07 -0.04,0.07 0.02,-0.04 -0.05,0.07 0.05,-0.07 c 0.07,-0.15 0.19,-0.29 0.31,-0.41 l 0.12,-0.07 c 0.24,-0.22 0.53,-0.32 0.84,-0.32 h 0.05 c 0.72,0 1.32,0.6 1.32,1.32 0,0.72 -0.6,1.32 -1.34,1.32 -0.72,0 -1.32,-0.6 -1.32,-1.32 v -0.04 c 0,-0.48 0.26,-0.92 0.67,-1.16 h 0.05 l -0.22,0.12 h 0.05 c 0.24,-0.21 0.53,-0.33 0.84,-0.33 h 0.02 l -1.03,0.53 v -0.05 c 0.26,-0.31 0.65,-0.51 1.06,-0.51 h 0.02 v 0 h 0.05 l -1.35,1.32 v 0 c 0.03,-0.74 0.6,-1.32 1.35,-1.32 h 0.02 l -1.22,0.82 0.02,-0.02 c 0.19,-0.51 0.7,-0.84 1.23,-0.84 h 0.02 v 0 h 0.02 v 0 h 0.05 v 0 h 0.03 v 0 h 0.02 -0.02 0.07 v 0 0 0 h 0.02 v 0 h 0.05 v 0 h 0.02 c 0.32,0 0.63,0.12 0.87,0.31 l 0.02,0.02 -0.86,-0.31 h 0.02 c 0.17,0 0.36,0.02 0.51,0.1 l 0.07,0.02 -0.53,-0.1 h 0.05 c 0.21,0 0.43,0.05 0.62,0.17 l 0.17,0.07 0.1,0.08 0.12,0.09 -0.15,-0.09 0.12,0.07 c 0.1,0.05 0.17,0.09 0.24,0.17 l 0.12,0.07 -0.12,-0.07 0.12,0.07 c 0.1,0.05 0.15,0.12 0.22,0.19 l 0.12,0.1 -0.17,-0.12 0.12,0.07 v 0 l 0.12,0.09 c 0.1,0.08 0.19,0.2 0.29,0.32 l 0.09,0.14 -0.07,-0.07 0.22,0.24 -0.05,-0.05 0.29,0.34 0.02,0.02 0.17,0.22 -0.1,-0.12 0.08,0.07 c 0.12,0.12 0.21,0.29 0.31,0.45 v 0.08 l -0.17,-0.34 0.05,0.1 -0.17,-0.2 0.05,0.03 0.07,0.09 0.07,0.05 v 0.03 l 0.07,0.04 -0.24,-0.16 0.15,0.07 c 0.05,0.05 0.12,0.07 0.14,0.12 h 0.03 l -0.87,-0.31 h 0.05 c 0.46,0 0.89,0.26 1.13,0.67 v 0 l -0.27,-0.31 h 0.03 l -0.87,-0.32 h 0.03 c 0.41,0 0.79,0.2 1.03,0.51 l 0.05,0.05 -1.56,-0.41 0.02,-0.03 c 0.17,-0.04 0.34,-0.09 0.51,-0.09 h 0.02 v 0 h 0.02 v 0 h 0.03 v 0 h 0.02 v 0 h 0.05 v 0 h 0.02 v 0 h 0.03 v 0 0 0 h 0.02 l -0.72,0.21 0.07,-0.04 c 0.22,-0.12 0.46,-0.2 0.7,-0.2 h 0.02 l -1.12,0.65 v -0.02 c 0.24,-0.41 0.67,-0.65 1.15,-0.65 h 0.02 l -0.86,0.31 0.02,-0.02 -0.19,0.19 0.05,-0.02 c 0.24,-0.32 0.62,-0.51 1.03,-0.51 h 0.02 l -1.15,0.65 0.03,-0.02 c 0.07,-0.12 0.16,-0.24 0.28,-0.34 l 0.03,-0.02 -0.1,0.09 0.17,-0.17 v 0 l 0.14,-0.16 -0.09,0.12 0.12,-0.15 v -0.05 l 0.14,-0.16 -0.02,0.07 0.31,-0.51 -0.07,0.15 0.12,-0.24 0.05,-0.07 0.14,-0.24 0.07,-0.12 0.48,-0.6 c 0.05,-0.05 0.1,-0.1 0.15,-0.15 l 0.19,-0.17 c 0.53,-0.5 1.34,-0.48 1.85,0.03 0.5,0.53 0.48,1.37 -0.05,1.87 l -0.17,0.17 0.12,-0.12 -0.48,0.6 0.07,-0.12 -0.14,0.24 0.07,-0.1 -0.12,0.24 c -0.05,0.05 -0.07,0.1 -0.1,0.15 l -0.33,0.48 -0.05,0.07 -0.14,0.17 0.02,-0.03 -0.12,0.17 c -0.05,0.05 -0.07,0.1 -0.12,0.14 l -0.17,0.15 v 0 l -0.14,0.17 -0.1,0.09 -0.02,0.03 0.26,-0.34 v 0.02 c -0.24,0.39 -0.67,0.65 -1.13,0.65 h -0.02 l 1.03,-0.5 -0.02,0.02 c -0.05,0.07 -0.12,0.15 -0.19,0.19 l -0.03,0.03 c -0.24,0.21 -0.55,0.31 -0.84,0.31 h -0.02 l 1.13,-0.65 -0.03,0.03 c -0.24,0.4 -0.67,0.64 -1.13,0.64 h -0.02 l 0.72,-0.21 -0.05,0.05 c -0.21,0.12 -0.48,0.19 -0.72,0.19 h -0.02 v 0 0 0 h -0.03 v 0 h -0.02 v 0 h -0.05 v 0 h -0.02 v 0 h -0.03 v 0 h -0.02 v 0 h -0.02 l 0.5,-0.1 v 0 c -0.55,0.24 -1.2,0.07 -1.56,-0.38 l -0.02,-0.03 1.03,0.48 h -0.03 c -0.31,0 -0.62,-0.09 -0.84,-0.31 l -0.02,-0.02 c -0.12,-0.07 -0.22,-0.19 -0.29,-0.31 l -0.02,-0.05 1.15,0.65 h -0.05 c -0.29,0 -0.6,-0.1 -0.84,-0.29 l -0.02,-0.03 0.14,0.1 -0.14,-0.1 c -0.1,-0.04 -0.17,-0.12 -0.22,-0.16 L 423,758.9 v 0.03 l -0.05,-0.07 0.07,0.04 -0.07,-0.02 c -0.05,-0.07 -0.12,-0.12 -0.17,-0.19 l -0.07,-0.1 c -0.07,-0.09 -0.14,-0.21 -0.19,-0.33 l -0.02,-0.05 0.31,0.45 -0.1,-0.09 -0.07,-0.1 -0.19,-0.21 0.02,0.02 -0.26,-0.34 -0.05,-0.02 -0.19,-0.24 -0.05,-0.1 -0.1,-0.12 0.29,0.32 -0.09,-0.08 -0.03,-0.02 -0.12,-0.1 c -0.02,-0.02 -0.09,-0.07 -0.14,-0.12 l -0.1,-0.12 0.22,0.2 -0.12,-0.1 -0.12,-0.07 -0.12,-0.1 0.26,0.17 -0.12,-0.07 c -0.05,-0.03 -0.12,-0.05 -0.14,-0.07 l -0.15,-0.1 0.1,0.05 -0.14,-0.07 0.67,0.16 h -0.05 c -0.17,0 -0.36,-0.02 -0.53,-0.09 l -0.02,-0.03 0.5,0.12 h -0.02 c -0.31,0 -0.6,-0.12 -0.84,-0.33 h -0.05 l 0.86,0.29 h -0.02 v 0 h -0.05 v 0 h -0.02 v 0 0 0 h -0.07 0.02 -0.02 v 0 h -0.03 v 0 h -0.05 v 0 h -0.02 v 0 h -0.02 l 1.22,-0.84 v 0.04 c -0.19,0.51 -0.7,0.84 -1.25,0.84 h -0.02 c -0.75,0 -1.35,-0.6 -1.35,-1.32 0,-0.74 0.6,-1.32 1.35,-1.32 0.72,0 1.32,0.58 1.32,1.32 v 0 c 0,0.36 -0.15,0.7 -0.41,0.96 -0.24,0.24 -0.58,0.39 -0.91,0.39 h -0.05 v 0 h -0.02 l 1.03,-0.51 v 0.03 c -0.27,0.31 -0.65,0.5 -1.06,0.5 h -0.02 l 0.86,-0.31 -0.02,0.02 c -0.07,0.05 -0.15,0.1 -0.22,0.15 h -0.02 l 0.67,-1.15 v 0.04 c 0,0.72 -0.6,1.32 -1.32,1.32 h -0.05 l 0.87,-0.31 -0.1,0.1 0.31,-0.43 -0.02,0.07 -0.05,0.09 -0.02,0.03 -0.05,0.07 -0.05,0.07 0.19,-0.45 v 0.07 c -0.07,0.26 -0.24,0.53 -0.43,0.69 l -0.05,0.05 0.31,-0.41 -0.02,0.08 0.07,-0.2 -0.02,0.08 0.02,-0.12 v 0.04 c -0.02,0.08 -0.02,0.15 -0.07,0.2 l -0.02,0.07 0.02,-0.07 -0.02,0.07 v 0.02 l -0.1,0.31 c -0.05,0.08 -0.1,0.17 -0.14,0.27 l -0.08,0.12 h -0.02 l -0.05,0.09 v 0 l -0.07,0.08 v 0.04 l -0.07,0.12 v -0.04 l -0.05,0.12 c -0.05,0.04 -0.1,0.09 -0.14,0.16 l -0.1,0.08 0.14,-0.17 -0.09,0.17 c -0.27,0.36 -0.67,0.6 -1.11,0.6 h -0.02 l 1.32,-1.32 v 0 0 0.04 c 0,0.72 -0.6,1.32 -1.32,1.32 h -0.02 c -0.53,0 -1.01,-0.33 -1.23,-0.81 -0.19,-0.51 -0.09,-1.08 0.29,-1.44 0.38,-0.39 0.96,-0.51 1.44,-0.29 0.5,0.19 0.82,0.67 0.82,1.22 v 0.03 c 0,0.38 -0.17,0.74 -0.46,1.01 h -0.05 c -0.24,0.21 -0.53,0.31 -0.84,0.31 h -0.02 v 0 0 c -0.55,0 -1.03,-0.31 -1.25,-0.79 -0.19,-0.51 -0.07,-1.08 0.29,-1.47 0.38,-0.38 0.96,-0.48 1.46,-0.29 0.48,0.22 0.82,0.7 0.82,1.23 v 0.05 c 0,0.38 -0.17,0.76 -0.48,1 l -0.03,0.03 c -0.24,0.19 -0.55,0.31 -0.86,0.31 v 0 0 h -0.05 l 0.87,-0.31 h -0.03 v 0 0.02 c -0.24,0.19 -0.55,0.31 -0.86,0.31 h -0.03 l 0.87,-0.31 -0.03,0.03 c -0.24,0.19 -0.55,0.31 -0.86,0.31 h -0.02 v 0 h -0.03 v 0 h -0.02 c -0.29,0 -0.6,-0.12 -0.84,-0.31 l -0.03,-0.03 0.87,0.31 h -0.05 v 0 0 c -0.24,0 -0.46,-0.04 -0.67,-0.16 l -0.1,-0.08 0.12,0.08 -0.02,-0.03 c -0.17,-0.05 -0.34,-0.17 -0.46,-0.29 l -0.05,-0.07 0.46,0.31 h -0.05 c -0.26,-0.12 -0.48,-0.31 -0.62,-0.57 l -0.05,-0.03 0.19,0.24 -0.05,-0.04 0.1,0.09 v -0.02 c -0.07,-0.03 -0.12,-0.07 -0.17,-0.12 l -0.02,-0.05 0.12,0.1 -0.22,-0.17 h 0.03 l -0.27,-0.22 c -0.07,-0.05 -0.12,-0.14 -0.19,-0.21 l -0.07,-0.12 0.12,0.14 -0.12,-0.1 -0.05,-0.07 -0.1,-0.12 -0.07,-0.05 -0.24,-0.36 0.17,0.2 -0.12,-0.12 0.17,0.12 -0.12,-0.08 c -0.1,-0.04 -0.17,-0.09 -0.24,-0.16 l -0.1,-0.12 0.22,0.19 -0.24,-0.15 0.12,0.03 -0.15,-0.05 0.15,0.07 -0.12,-0.05 -0.05,-0.02 -0.1,-0.05 -0.07,-0.05 -0.07,-0.02 c -0.07,-0.05 -0.12,-0.1 -0.19,-0.14 h -0.03 l 0.89,0.28 h -0.02 c -0.19,0 -0.39,-0.02 -0.55,-0.09 l -0.05,-0.03 0.57,0.1 h -0.02 -0.02 -0.03 -0.02 -0.05 0.02 l -0.02,0.02 c -0.34,0 -0.65,-0.12 -0.89,-0.33 h -0.02 l 0.86,0.29 h -0.02 0.02 -0.02 v 0 h -0.05 v 0 h -0.05 l 1.25,-0.87 -0.02,0.03 c -0.17,0.52 -0.68,0.88 -1.23,0.88 h -0.02 -0.03 -0.02 v 0 h -0.02 v 0 h -0.03 v 0 h -0.05 l 0.87,-0.33 v 0.02 l 0.09,-0.09 -0.14,0.12 0.14,-0.17 -0.04,0.07 -0.08,0.1 -0.07,0.07 0.17,-0.22 -0.05,0.05 -0.05,0.1 -0.02,0.07 0.07,-0.15 -0.05,0.08 -0.07,0.16 -0.05,0.03 -0.04,0.09 -0.05,0.05 0.26,-1.1 v 0.09 c 0.07,0.34 0,0.7 -0.19,0.99 l -0.05,0.09 0.12,-0.21 -0.02,0.05 0.09,-0.32 -0.02,0.08 0.02,-0.27 v 0.1 c 0.03,0.17 -0.02,0.36 -0.09,0.53 l -0.07,0.16 0.02,-0.07 v 0.07 0 l -0.05,0.08 c -0.02,0.12 -0.09,0.24 -0.17,0.36 l -0.02,0.04 0.14,-0.28 -0.02,0.09 c -0.05,0.1 -0.1,0.19 -0.14,0.27 l -0.05,0.07 c -0.03,0.05 -0.07,0.09 -0.1,0.14 l -0.05,0.03 0.1,-0.12 -0.05,0.07 0.1,-0.15 -0.03,0.08 c -0.09,0.16 -0.19,0.31 -0.36,0.43 l -0.02,0.02 -0.02,0.03 -0.08,0.07 0.48,-1.08 v 0.02 c 0.03,0.34 -0.09,0.67 -0.36,0.94 l -0.02,0.05 c -0.07,0.07 -0.17,0.16 -0.29,0.24 l -0.05,0.04 -0.07,0.03 -0.02,0.02 -0.15,0.07 -0.04,0.03 0.55,-0.43 -0.03,0.04 c -0.12,0.12 -0.24,0.24 -0.4,0.34 l -0.03,0.02 c -0.21,0.12 -0.43,0.2 -0.67,0.2 h -0.02 -0.03 -0.05 l 0.89,-0.34 -0.02,0.02 v 0 l -0.03,0.03 c -0.24,0.21 -0.55,0.33 -0.88,0.33 h -0.08 c -0.14,0 -0.28,-0.02 -0.43,-0.07 l -0.07,-0.02 0.46,0.07 h -0.05 c -0.34,0 -0.65,-0.1 -0.89,-0.31 l -0.02,-0.03 0.88,0.32 h -0.04 0.02 -0.05 c -0.31,0 -0.65,-0.1 -0.89,-0.32 l -0.02,-0.02 0.89,0.34 h -0.03 c -0.33,0 -0.64,-0.12 -0.91,-0.34 l -0.02,-0.02 v 0 h -0.03 l 0.36,0.19 h -0.04 l 0.55,0.09 h -0.03 c -0.55,0 -1.03,-0.28 -1.27,-0.79 l -0.05,-0.05 0.6,0.63 -0.02,-0.03 c -0.1,-0.04 -0.17,-0.09 -0.22,-0.14 l -0.02,-0.02 c -0.34,-0.27 -0.5,-0.65 -0.53,-1.06 v -0.02 l 0.89,1.27 -0.05,-0.03 c -0.19,-0.07 -0.33,-0.16 -0.45,-0.28 l -0.58,-0.58 v 0 l -0.43,-0.41 h 0.02 l -0.17,-0.14 0.17,0.12 -0.19,-0.12 0.02,0.02 -0.19,-0.14 0.07,0.05 -0.21,-0.12 -0.12,-0.08 -0.24,-0.19 0.17,0.1 -0.08,-0.03 0.15,0.08 -0.1,-0.05 -0.07,-0.03 -0.07,-0.04 -0.05,-0.03 -0.1,-0.05 0.34,0.12 h -0.1 c -0.07,-0.02 -0.14,-0.04 -0.21,-0.09 l -0.1,-0.03 0.22,0.08 -0.07,-0.03 0.04,0.03 -0.09,-0.03 0.41,0.03 h -0.1 -0.14 -0.03 v 0 h -0.05 l 0.92,-0.32 h -0.03 c -0.26,0.22 -0.6,0.34 -0.91,0.34 h -0.07 v 0 h -0.03 l 0.29,-0.02 h -0.05 l 0.94,-0.68 v 0.03 c -0.17,0.26 -0.41,0.48 -0.7,0.6 h -0.02 l 0.19,-0.1 -0.05,0.03 -0.07,0.04 -0.02,0.03 c -0.22,0.12 -0.46,0.17 -0.7,0.17 h -0.05 l 0.94,-0.32 h -0.05 v 0 l -0.02,0.03 0.31,-0.36 -0.05,0.05 c -0.24,0.43 -0.72,0.69 -1.2,0.69 h -0.05 l 1.18,-0.6 -0.05,0.05 c -0.07,0.1 -0.14,0.19 -0.24,0.26 l -0.02,0.03 0.21,-0.19 -0.02,0.02 0.02,-0.05 -0.26,0.34 0.05,-0.05 -0.07,0.1 0.12,-0.22 -0.08,0.14 c -0.02,0.08 -0.02,0.12 -0.07,0.17 l -0.07,0.15 0.02,-0.05 -0.14,0.26 c -0.05,0.07 -0.07,0.1 -0.12,0.17 l -0.17,0.24 0.12,-0.19 -0.05,0.07 c -0.04,0.14 -0.14,0.26 -0.26,0.38 l -0.07,0.05 0.07,-0.05 -0.1,0.1 c -0.04,0.05 -0.07,0.07 -0.12,0.12 l -0.07,0.05 v 0 l -0.02,0.02 0.5,-1.05 v 0 c 0,0.79 -0.65,1.41 -1.44,1.39 v 0 l 1.32,-0.87 -0.02,0.03 c -0.15,0.33 -0.41,0.62 -0.77,0.77 l -0.05,0.02 0.36,-0.22 -0.02,0.03 c -0.27,0.21 -0.58,0.33 -0.91,0.33 h -0.03 l 1.11,-0.55 -0.03,0.03 c -0.26,0.36 -0.67,0.55 -1.13,0.55 h -0.02 v 0 h -0.05 v 0 h -0.02 l 0.93,-0.34 -0.02,0.03 c -0.24,0.21 -0.58,0.31 -0.91,0.31 h -0.03 l 0.29,-0.03 -0.05,0.03 c -0.09,0 -0.19,0.02 -0.28,0.02 h -0.05 0.02 -0.05 c -0.21,-0.02 -0.43,-0.07 -0.64,-0.17 l -0.15,-0.09 h -0.02 l -0.05,-0.03 c -0.1,-0.04 -0.17,-0.12 -0.24,-0.16 l -0.02,-0.05 0.21,0.17 -0.07,-0.03 c -0.07,-0.05 -0.14,-0.09 -0.22,-0.17 l -0.02,-0.02 v 0.02 l -0.05,-0.04 c -0.12,-0.12 -0.24,-0.24 -0.31,-0.39 l -0.02,-0.05 0.64,0.6 -0.02,-0.02 c -0.34,-0.14 -0.58,-0.38 -0.72,-0.7 l -0.02,-0.04 0.36,0.48 -0.05,-0.05 v 0 l -0.05,-0.03 c -0.17,-0.14 -0.29,-0.31 -0.36,-0.48 l -0.02,-0.07 -0.03,-0.07 -0.05,-0.07 0.77,0.79 -0.05,-0.02 c -0.5,-0.22 -0.86,-0.75 -0.84,-1.3 v -0.07 l 0.12,0.6 -0.02,-0.05 0.12,0.22 -0.12,-0.2 v 0 l -0.05,-0.07 -0.05,-0.07 -0.04,-0.07 0.04,0.07 -0.07,-0.1 0.55,0.48 -0.07,-0.02 c -0.21,-0.12 -0.41,-0.29 -0.55,-0.48 l -0.05,-0.07 0.07,0.09 -0.04,-0.07 0.12,0.15 -0.27,-0.24 -0.05,-0.08 -0.12,-0.12 0.12,0.12 -0.07,-0.09 v 0 l -0.07,-0.05 0.1,0.07 -0.08,-0.05 c -0.07,-0.04 -0.14,-0.09 -0.19,-0.16 l -0.05,-0.05 0.46,0.29 h -0.07 l 0.55,0.12 h -0.02 c -0.8,-0.03 -1.4,-0.65 -1.4,-1.42 v -0.02 c 0,-0.77 0.65,-1.4 1.42,-1.4 0.77,0 1.39,0.63 1.39,1.42 -0.02,0.77 -0.65,1.39 -1.41,1.37 h -0.03 c -0.38,0 -0.72,-0.15 -1.01,-0.41 -0.24,-0.26 -0.4,-0.62 -0.38,-0.98 v -0.05 c 0,-0.75 0.62,-1.39 1.42,-1.37 0.76,0 1.39,0.62 1.36,1.39 0,0.79 -0.62,1.42 -1.39,1.39 h -0.02 c -0.34,0 -0.65,-0.12 -0.89,-0.33 l -0.05,-0.03 0.91,0.36 h -0.02 -0.05 v 0 l 0.58,-0.12 h -0.03 c -0.16,0.08 -0.36,0.12 -0.55,0.12 h -0.02 v 0 h -0.03 v 0 h -0.02 v 0 0 h -0.02 -0.03 0.03 -0.03 v 0 h -0.05 v 0 0 l 0.89,-0.33 v 0.02 c -0.26,0.22 -0.57,0.34 -0.91,0.34 h -0.02 l 1.29,-0.87 v 0.03 c -0.21,0.53 -0.74,0.86 -1.32,0.86 h -0.02 l 1.41,-1.39 v 0.02 c 0,0.41 -0.19,0.8 -0.5,1.06 l -0.24,0.22 0.12,-0.12 -0.1,0.09 v 0 l -0.07,0.1 0.22,-0.34 -0.05,0.12 c -0.05,0.1 -0.12,0.19 -0.17,0.27 l -0.07,0.07 0.02,-0.03 -0.09,0.12 0.14,-0.21 -0.07,0.12 v 0.05 l -0.1,0.09 0.1,-0.14 -0.05,0.09 c -0.02,0.08 -0.05,0.12 -0.07,0.17 l -0.24,0.39 0.02,-0.03 -0.09,0.15 c -0.05,0.09 -0.1,0.16 -0.15,0.24 l -0.12,0.12 v 0 l -0.12,0.14 v 0.02 l -0.07,0.05 0.19,-0.26 -0.02,0.05 c -0.24,0.48 -0.77,0.76 -1.32,0.72 h -0.02 l 0.72,-0.12 h -0.03 l 0.75,-1.08 -0.03,0.02 c -0.02,0.43 -0.29,0.82 -0.65,1.03 l -0.04,0.03 -0.08,0.04 -0.04,0.03 0.04,-0.03 -0.07,0.03 c -0.05,0.05 -0.09,0.05 -0.17,0.09 h -0.04 l 0.64,-0.48 -0.02,0.03 c -0.26,0.36 -0.7,0.57 -1.15,0.57 h -0.05 l 1.08,-0.48 -0.05,0.03 c -0.26,0.33 -0.65,0.48 -1.05,0.48 l -0.08,-0.03 c -0.31,0 -0.64,-0.14 -0.88,-0.38 l -0.03,-0.02 0.67,0.36 h -0.04 c -0.24,-0.05 -0.46,-0.2 -0.63,-0.36 l -0.02,-0.03 0.79,0.39 h -0.02 v 0 h -0.03 c -0.36,-0.05 -0.69,-0.22 -0.89,-0.51 -0.24,-0.29 -0.31,-0.62 -0.28,-0.98 v -0.03 c 0.09,-0.72 0.76,-1.22 1.48,-1.12 0.72,0.07 1.23,0.72 1.13,1.44 -0.07,0.72 -0.72,1.24 -1.44,1.17 l -0.02,-0.02 c -0.39,-0.03 -0.75,-0.24 -0.94,-0.55 l -0.05,-0.03 1.76,0.39 v 0 c -0.24,0.16 -0.53,0.21 -0.8,0.19 h -0.04 c -0.7,-0.1 -1.23,-0.72 -1.16,-1.44 v -0.03 l 0.39,1.04 h -0.03 l 0.77,0.36 v 0 c -0.36,-0.05 -0.69,-0.22 -0.89,-0.48 -0.21,-0.29 -0.31,-0.65 -0.28,-0.99 v -0.02 l 0.38,1.08 h -0.02 l 0.76,0.36 h -0.02 c -0.34,-0.03 -0.65,-0.22 -0.86,-0.48 -0.22,-0.27 -0.32,-0.63 -0.27,-0.96 v -0.03 0.05 -0.02 l 0.36,1.01 v 0 c -0.29,-0.29 -0.43,-0.7 -0.38,-1.08 l 0.02,-0.03 0.17,0.84 -0.65,-1.03 c -0.02,-0.07 -0.05,-0.12 -0.09,-0.19 l -0.15,-0.39 -0.05,-0.09 -0.12,-0.41 0.05,0.12 -0.24,-0.48 c -0.21,-0.5 -0.02,-1.1 0.46,-1.39 0.48,-0.27 1.1,-0.12 1.41,0.33 z"
         style="fill:#000000;fill-opacity:1;fill-rule:nonzero;stroke:none"
         transform="matrix(1.3333333,0,0,-1.3333333,0,1120.8)" />
    </g>
    <g
       id="g117">
      <path
         id="path117"
         d="m 402.19,738.29 v -0.05 h -0.02 v -0.02 l 0.02,0.02 -0.02,-0.02 0.98,0.38 v 0 c -0.31,0.12 -0.65,0.05 -0.89,-0.19 -0.24,-0.24 -0.28,-0.6 -0.16,-0.89 l 0.07,-0.14 c 0.05,-0.12 0.12,-0.24 0.21,-0.34 l 0.34,-0.31 c 0.12,-0.12 0.26,-0.22 0.43,-0.27 l 0.55,-0.16 0.12,-0.05 0.84,-0.17 h 0.05 l 0.19,-0.02 0.12,-0.03 h 0.2 0.09 l 0.43,0.03 h 0.12 l 0.6,0.07 h -0.04 l 0.16,0.02 c 0.15,0.03 0.27,0.05 0.39,0.1 l 0.14,0.07 -0.33,-0.1 0.14,0.03 c 0.1,0 0.19,0.05 0.26,0.07 l 0.17,0.07 0.07,0.03 0.12,0.07 -0.04,-0.05 0.16,0.07 0.05,0.03 0.15,0.07 0.14,0.07 0.12,0.1 0.1,0.04 0.09,0.1 h 0.03 l 0.31,0.24 0.09,0.1 0.05,0.02 -0.17,-0.12 0.05,0.05 c 0.15,0.07 0.27,0.19 0.36,0.31 l 0.05,0.07 -0.17,-0.19 0.05,0.05 c 0.05,0.07 0.12,0.12 0.14,0.19 l 0.05,0.07 -0.14,-0.19 0.05,0.05 c 0.04,0.05 0.09,0.12 0.14,0.19 l 0.07,0.05 v 0 l 0.05,0.07 c 0.05,0.1 0.1,0.19 0.12,0.29 l 0.02,0.07 -0.28,-0.48 0.04,0.05 c 0.12,0.14 0.24,0.29 0.29,0.48 l 0.05,0.07 0.02,0.1 v 0.07 l -0.02,-0.07 0.02,0.04 -0.14,-0.26 0.07,0.05 c 0.12,0.19 0.19,0.43 0.19,0.65 v 0.04 0.03 0.09 l -0.07,-0.38 0.05,0.07 0.02,0.1 0.03,0.07 c 0.02,0.1 0.02,0.22 0.05,0.29 v 0.07 0 0.07 0 0.07 0 0.1 c 0,0.12 -0.03,0.22 -0.03,0.31 l -0.05,0.17 -0.02,0.1 -0.05,0.14 c -0.12,0.41 -0.48,0.74 -0.91,0.84 -0.46,0.1 -0.89,-0.07 -1.18,-0.38 -0.31,-0.36 -0.4,-0.82 -0.24,-1.25 l 0.05,-0.12 -0.05,0.09 0.05,-0.16 -0.02,0.26 v -0.1 0 -0.07 0 -0.07 0 -0.07 l 0.02,0.31 v -0.1 0.1 -0.07 c -0.05,-0.12 -0.07,-0.27 -0.07,-0.39 l 0.02,-0.09 v -0.03 -0.04 l 0.17,0.72 -0.05,-0.1 c -0.04,-0.07 -0.09,-0.19 -0.12,-0.29 l -0.02,-0.07 -0.02,-0.07 -0.03,-0.1 0.03,0.07 -0.03,-0.04 0.29,0.45 -0.05,-0.05 c -0.12,-0.14 -0.21,-0.28 -0.29,-0.45 v -0.07 l 0.12,0.26 -0.02,-0.05 v 0 l -0.05,-0.07 0.12,0.17 -0.05,-0.05 c -0.02,-0.05 -0.09,-0.12 -0.12,-0.17 l -0.04,-0.07 0.14,0.17 -0.05,-0.05 c -0.05,-0.05 -0.12,-0.12 -0.14,-0.17 l -0.05,-0.07 0.31,0.34 -0.05,-0.05 c -0.07,-0.05 -0.14,-0.1 -0.19,-0.17 l -0.05,-0.02 0.12,0.12 -0.31,-0.29 h -0.02 l -0.12,-0.1 0.09,0.05 -0.14,-0.07 0.12,0.07 -0.14,-0.07 0.07,0.02 -0.15,-0.07 -0.07,-0.02 -0.14,-0.08 0.05,0.03 -0.15,-0.07 0.27,0.07 h -0.15 c -0.12,-0.05 -0.21,-0.07 -0.33,-0.12 l -0.12,-0.07 0.36,0.12 -0.17,-0.03 -0.05,-0.02 -0.58,-0.1 0.15,0.03 -0.46,-0.03 h 0.03 l -0.2,-0.02 h 0.17 l -0.21,0.02 h 0.04 l -0.81,0.1 h 0.09 l -0.6,0.12 -0.04,0.02 -0.51,0.07 -0.07,0.03 h -0.17 c -0.33,0.02 -0.65,-0.17 -0.79,-0.46 -0.14,-0.31 -0.1,-0.67 0.14,-0.91 0.22,-0.24 0.56,-0.34 0.89,-0.22 v 0.03 c 0.24,0.07 0.39,0.24 0.48,0.45 0.07,0.22 0.07,0.46 -0.05,0.68 v 0.02 -0.02 0.02 0 l -0.02,0.05 c -0.14,0.24 -0.41,0.41 -0.7,0.41 -0.28,0 -0.52,-0.17 -0.67,-0.41 z"
         style="fill:#000000;fill-opacity:1;fill-rule:nonzero;stroke:none"
         transform="matrix(1.3333333,0,0,-1.3333333,0,1120.8)" />
    </g>
    <g
       id="g118">
      <path
         id="path118"
         d="m 408.62,737.3 0.24,-0.04 c 0.12,-0.05 0.29,-0.05 0.44,-0.05 l 0.86,0.12 h -0.05 l 2.19,0.17 h -0.1 l 3.26,0.02 h -0.04 l 5.54,-0.22 h -0.05 l 0.79,-0.04 h 0.03 l 3.24,-0.12 h 0.05 0.19 c 0.5,0 0.96,0.24 1.2,0.67 0.24,0.41 0.24,0.93 0,1.37 -0.24,0.4 -0.7,0.67 -1.2,0.67 h -0.19 0.04 l -3.24,0.07 h 0.03 l -0.77,0.05 h -0.05 l -5.54,0.12 h -0.1 l -3.26,-0.17 h -0.1 l -2.16,-0.29 0.05,0.03 -0.89,-0.1 c -0.26,-0.02 -0.53,-0.14 -0.72,-0.34 l -0.17,-0.16 c -0.26,-0.27 -0.36,-0.65 -0.26,-1.01 0.12,-0.36 0.38,-0.65 0.74,-0.75 z"
         style="fill:#000000;fill-opacity:1;fill-rule:nonzero;stroke:none"
         transform="matrix(1.3333333,0,0,-1.3333333,0,1120.8)" />
    </g>
    <g
       id="g119">
      <path
         id="path119"
         d="m 420.41,745.32 v -0.86 -0.12 l 0.02,-0.34 v 0.12 l -0.02,-0.96 v 0 l -0.03,-1.27 0.03,0.12 -0.05,-0.24 c 0,-0.07 0,-0.17 0,-0.24 l 0.05,-0.65 V 741 l -0.03,-0.55 v -0.07 l 0.03,-0.72 v 0.09 -0.09 c 0,-0.46 0.24,-0.87 0.62,-1.08 0.36,-0.24 0.84,-0.24 1.25,0 0.38,0.21 0.6,0.62 0.6,1.08 v 0.09 0.07 l -0.07,0.72 0.02,-0.09 -0.02,0.55 v 0.07 l -0.05,0.65 v -0.19 0.26 l 0.02,0.1 -0.02,1.27 v 0 l -0.02,0.96 c 0,0.07 -0.03,0.14 -0.03,0.22 l -0.07,0.31 0.05,-0.12 -0.1,0.86 c -0.02,0.58 -0.53,1.01 -1.1,1.01 -0.6,-0.02 -1.06,-0.48 -1.08,-1.08 z"
         style="fill:#000000;fill-opacity:1;fill-rule:nonzero;stroke:none"
         transform="matrix(1.3333333,0,0,-1.3333333,0,1120.8)" />
    </g>
    <g
       id="g120">
      <path
         id="path120"
         d="m 421.54,744.58 0.21,-0.1 c 0.07,0 0.12,-0.02 0.22,-0.02 l 0.62,-0.08 -0.12,0.03 0.48,-0.12 c 0.1,0 0.17,0 0.22,-0.03 l 1.34,-0.02 h -0.07 l 0.67,-0.07 -1.13,1.27 -0.04,-2.59 v -0.03 l -0.05,-2.66 v 0.02 l -0.05,-1.46 v -0.02 -0.12 c 0,-0.48 0.26,-0.92 0.67,-1.16 0.41,-0.24 0.91,-0.24 1.32,0 0.41,0.24 0.67,0.68 0.67,1.16 v 0.12 -0.05 l 0.05,1.46 v 0.03 2.66 0.05 l -0.05,2.59 c -0.02,0.36 -0.16,0.7 -0.43,0.94 -0.26,0.21 -0.6,0.33 -0.96,0.28 l -0.67,-0.04 h 0.07 l -1.34,-0.05 h 0.12 l -0.53,0.02 h -0.07 l -0.65,-0.02 h 0.12 l -0.22,0.02 c -0.55,0.05 -1.03,-0.31 -1.12,-0.81 -0.1,-0.53 0.19,-1.06 0.72,-1.2 z"
         style="fill:#000000;fill-opacity:1;fill-rule:nonzero;stroke:none"
         transform="matrix(1.3333333,0,0,-1.3333333,0,1120.8)" />
    </g>
  </g>
</svg>
