<?xml version="1.0" encoding="UTF-8" standalone="no"?>
<!-- Created with Inkscape (http://www.inkscape.org/) -->

<svg
   version="1.1"
   id="svg1"
   width="60"
   height="90"
   viewBox="0 0 59.999999 89.999995"
   sodipodi:docname="lesson1_sentence4_word3.svg"
   inkscape:version="1.4.3 (0d15f75, 2025-12-25)"
   xmlns:inkscape="http://www.inkscape.org/namespaces/inkscape"
   xmlns:sodipodi="http://sodipodi.sourceforge.net/DTD/sodipodi-0.dtd"
   xmlns="http://www.w3.org/2000/svg"
   xmlns:svg="http://www.w3.org/2000/svg">
  <defs
     id="defs1" />
  <sodipodi:namedview
     id="namedview1"
     pagecolor="#ffffff"
     bordercolor="#000000"
     borderopacity="0.25"
     inkscape:showpageshadow="2"
     inkscape:pageopacity="0.0"
     inkscape:pagecheckerboard="0"
     inkscape:deskcolor="#d1d1d1"
     inkscape:zoom="4.1528939"
     inkscape:cx="28.654717"
     inkscape:cy="26.607951"
     inkscape:window-width="1920"
     inkscape:window-height="1191"
     inkscape:window-x="-9"
     inkscape:window-y="-9"
     inkscape:window-maximized="1"
     inkscape:current-layer="g1">
    <inkscape:page
       x="1.3201259e-06"
       y="6.1970016e-09"
       inkscape:label="1"
       id="page1"
       width="55.896"
       height="78.173325"
       margin="0"
       bleed="0" />
  </sodipodi:namedview>
  <g
     id="g1"
     inkscape:groupmode="layer"
     inkscape:label="1"
     transform="translate(-689.37039,-680.41334)">
    <g
       id="g98"
       transform="translate(1.9263675,5.7791026)">
      <path
         id="path98"
         d="m 520.61,322.03 0.38,0.58 c 0.17,0.26 0.29,0.57 0.36,0.93 v 0.1 l -0.33,-0.91 0.07,0.09 c 0.12,0.17 0.19,0.39 0.26,0.63 l 0.03,0.02 0.07,0.31 v 0.1 l -0.94,-1.54 0.05,0.03 c 0.24,0.14 0.43,0.36 0.6,0.6 l 0.07,0.12 -0.6,-0.63 0.05,0.03 h -0.02 l 0.07,0.02 c 0.53,0.41 0.89,0.96 0.96,1.61 l 0.02,0.07 -0.36,-0.96 0.05,0.1 -2.21,-1.01 h 0.12 c 0.89,-0.12 1.8,0.31 2.28,1.13 l 0.1,0.19 -0.53,-0.6 0.94,0.74 h -0.03 l 0.63,0.48 c 0.14,0.12 0.26,0.27 0.38,0.41 l 0.12,0.17 -0.31,-0.34 0.14,0.12 -0.38,-0.31 0.14,0.1 c 0.15,0.09 0.27,0.19 0.41,0.31 l 0.17,0.14 -0.79,-0.48 0.09,0.03 c 0.17,0.09 0.36,0.19 0.53,0.26 l 0.19,0.17 -0.48,-0.29 0.34,0.17 0.07,0.02 0.22,0.1 0.19,0.07 0.26,0.17 -0.74,-0.29 0.19,0.05 0.24,0.05 0.31,0.09 0.12,0.03 0.24,0.09 -0.96,-0.14 h 0.24 c 0.15,0 0.29,0 0.48,0.02 l 0.63,0.1 -0.15,-0.05 0.48,0.05 h -0.26 0.43 v 0 l 0.53,-0.05 -0.29,0.05 0.48,-0.07 -0.29,0.07 0.41,-0.12 0.24,-0.05 1.32,-0.19 -0.77,0.24 0.39,-0.19 c 0.12,-0.05 0.21,-0.12 0.33,-0.15 l 0.46,-0.14 -0.1,0.02 0.39,-0.14 -0.15,0.05 0.46,-0.22 -0.12,0.07 0.38,-0.21 -0.19,0.12 1.13,-0.7 -0.29,0.22 2.88,-2.33 -0.02,0.05 0.57,-0.51 -0.12,0.12 8.26,-7.92 h 0.02 l 0.94,-0.91 -0.07,0.07 5.35,-5.32 0.21,-0.17 0.75,-0.6 -0.07,0.05 0.69,-0.56 0.15,-0.12 0.72,-0.55 0.12,-0.09 0.72,-0.48 0.07,-0.03 0.81,-0.5 0.2,-0.12 2.35,-1.18 c 0.14,-0.05 0.29,-0.12 0.45,-0.14 l 0.96,-0.31 c 1.4,-0.41 2.91,0.4 3.34,1.8 0.41,1.41 -0.36,2.92 -1.78,3.33 l -1,0.31 0.43,-0.19 -2.35,1.18 0.21,-0.12 -0.77,0.48 0.05,-0.03 -0.72,0.48 0.1,-0.07 -0.72,0.55 0.14,-0.12 -0.69,0.56 -0.05,0.07 -0.72,0.6 0.21,-0.19 -5.35,5.3 -0.05,0.02 -0.93,0.89 0.02,-0.02 -8.28,7.94 -0.14,0.12 -0.6,0.48 -0.05,0.07 -2.9,2.28 -0.27,0.17 -1.1,0.7 -0.22,0.12 -0.38,0.19 -0.12,0.05 -0.46,0.19 -0.14,0.05 -0.41,0.14 -0.07,0.05 -0.43,0.14 0.33,-0.14 -0.38,0.19 c -0.24,0.12 -0.55,0.22 -0.82,0.24 l -1.32,0.19 h 0.15 l -0.46,0.05 -0.29,0.07 -0.5,0.03 h -0.24 -0.53 v 0 l -0.43,-0.03 h -0.24 l -0.48,-0.07 -0.12,-0.02 -0.65,-0.12 0.31,0.07 -0.24,-0.05 c -0.33,0 -0.67,-0.07 -0.93,-0.19 l -0.24,-0.12 0.14,0.05 -0.29,-0.1 0.15,0.05 -0.22,-0.07 c -0.19,-0.05 -0.41,-0.17 -0.62,-0.29 l -0.24,-0.17 0.14,0.1 -0.19,-0.12 0.19,0.09 -0.36,-0.14 c -0.17,-0.1 -0.36,-0.22 -0.5,-0.34 l -0.22,-0.14 0.29,0.17 -0.1,-0.05 c -0.21,-0.12 -0.38,-0.29 -0.55,-0.46 l -0.12,-0.14 0.34,0.29 -0.15,-0.1 c -0.12,-0.07 -0.21,-0.19 -0.33,-0.29 l -0.12,-0.19 c -0.12,-0.12 -0.24,-0.24 -0.29,-0.38 l -0.1,-0.15 0.34,0.46 -0.55,-0.58 -0.03,-0.02 -0.81,-0.89 c -0.17,-0.17 -0.34,-0.41 -0.46,-0.65 l -0.07,-0.21 1.82,1.39 -0.12,-0.05 c -0.84,-0.07 -1.53,-0.65 -1.82,-1.46 l -0.05,-0.1 c -0.14,-0.36 -0.17,-0.72 -0.12,-1.08 v -0.07 l 0.41,1.56 -0.07,-0.07 v 0 l -0.03,-0.05 c -0.09,-0.17 -0.19,-0.31 -0.26,-0.48 l -0.05,-0.12 0.29,0.5 -0.05,-0.07 c -0.34,-0.43 -0.46,-0.98 -0.38,-1.51 l 0.02,-0.1 0.02,-0.31 0.05,-0.02 0.05,1.29 -0.02,-0.09 c -0.12,-0.34 -0.2,-0.7 -0.12,-1.01 v -0.1 c 0.02,-0.26 0.12,-0.48 0.21,-0.72 l 0.29,-0.6 c 0.31,-0.55 0.84,-0.93 1.49,-0.96 0.62,-0.02 1.22,0.27 1.56,0.77 z"
         style="fill:#000000;fill-opacity:1;fill-rule:nonzero;stroke:none"
         transform="matrix(1.3333333,0,0,-1.3333333,0,1120.8)" />
    </g>
    <g
       id="g99"
       transform="translate(1.9263675,5.7791026)">
      <path
         id="path99"
         d="m 518.57,320.66 0.38,-0.26 0.29,-0.17 0.12,-0.05 v 0 l 0.17,-0.07 -0.77,0.6 0.1,-0.12 c 0.19,-0.24 0.45,-0.43 0.74,-0.6 l 0.12,-0.05 -0.74,0.6 0.09,-0.09 c 0.12,-0.17 0.27,-0.29 0.41,-0.41 l 0.1,-0.07 -0.1,0.07 0.12,-0.12 -0.31,0.36 0.07,-0.12 c 0.22,-0.29 0.48,-0.48 0.79,-0.65 l 0.15,-0.05 -0.82,0.65 0.24,-0.31 v 0.02 l 0.7,-0.93 -0.12,0.14 1.53,-2.42 v 0 l 1.18,-1.87 0.07,-0.15 3.72,-4.97 0.1,-0.12 0.84,-1 0.14,-0.17 2.57,-2.43 0.05,-0.09 0.38,-0.34 0.1,-0.09 6.67,-5.24 0.12,-0.07 0.77,-0.53 0.12,-0.09 3.04,-1.87 0.17,-0.08 0.87,-0.45 0.09,-0.03 0.87,-0.4 0.07,-0.03 0.93,-0.38 0.24,-0.1 2.79,-0.84 h 0.02 l 0.55,-0.14 c 0.15,-0.03 0.27,-0.07 0.39,-0.1 l 0.48,-0.02 h -0.15 l 0.6,-0.1 0.17,-0.02 0.55,-0.03 0.2,-0.04 h 0.55 v 0 h 0.48 0.17 l 0.6,0.07 h 0.04 l 0.53,0.05 0.22,0.04 1.53,0.29 c 0.2,0.03 0.41,0.1 0.6,0.19 l 0.2,0.12 v 0 l 0.19,0.08 -0.48,-0.17 0.21,0.05 c 0.15,0.04 0.32,0.09 0.48,0.19 l 0.17,0.09 v 0 l 0.22,0.08 c 0.12,0.07 0.24,0.16 0.36,0.21 l 0.17,0.15 -0.05,-0.03 0.48,0.34 c 0.12,0.09 0.24,0.17 0.33,0.26 l 0.22,0.22 c 0.89,0.89 0.89,2.4 0,3.29 -0.94,0.91 -2.42,0.91 -3.34,0 l -0.19,-0.2 0.31,0.27 -0.48,-0.34 -0.07,-0.05 -0.21,-0.16 0.36,0.24 -0.2,-0.12 v 0 l -0.19,-0.08 0.48,0.17 -0.21,-0.05 c -0.15,-0.04 -0.32,-0.09 -0.48,-0.19 l -0.17,-0.09 v 0 l -0.22,-0.08 0.6,0.2 -1.49,-0.29 0.2,0.02 -0.51,-0.05 v 0 l -0.57,-0.04 h 0.19 -0.48 v 0 h -0.55 0.21 l -0.53,0.04 0.17,-0.04 -0.6,0.12 h -0.14 l -0.48,0.07 0.36,-0.07 -0.55,0.12 h 0.07 l -2.79,0.84 0.24,-0.08 -0.93,0.39 0.02,-0.03 -0.86,0.39 0.09,-0.03 -0.88,0.41 0.19,-0.09 -3.07,1.87 0.12,-0.07 -0.77,0.55 0.12,-0.1 -6.7,5.23 0.12,-0.09 -0.38,0.36 0.05,-0.1 -2.55,2.47 0.17,-0.19 -0.84,0.99 0.1,-0.12 -3.72,4.99 0.09,-0.12 -1.2,1.87 -0.02,0.05 -1.63,2.37 -0.17,0.24 -0.79,0.84 v 0 l -0.27,0.27 c -0.31,0.33 -0.69,0.57 -1.15,0.67 l -0.14,0.02 0.86,-0.38 -0.12,0.07 c -0.07,0.07 -0.17,0.12 -0.29,0.19 l -0.14,0.1 c -0.12,0.05 -0.24,0.12 -0.36,0.14 l -0.12,0.03 0.65,-0.34 -0.12,0.07 c -0.24,0.22 -0.51,0.34 -0.82,0.39 l -0.14,0.02 0.81,-0.36 -0.09,0.07 c -0.27,0.22 -0.53,0.34 -0.84,0.39 l -0.15,0.02 v 0 l -0.14,0.05 0.05,-0.05 -0.46,0.12 c -0.89,0.22 -1.8,-0.24 -2.18,-1.08 -0.36,-0.84 -0.1,-1.8 0.67,-2.33 z"
         style="fill:#000000;fill-opacity:1;fill-rule:nonzero;stroke:none"
         transform="matrix(1.3333333,0,0,-1.3333333,0,1120.8)" />
    </g>
    <g
       id="g100"
       transform="translate(1.9263675,5.7791026)">
      <path
         id="path100"
         d="m 554.59,306.82 -0.12,-0.03 c -0.17,-0.09 -0.36,-0.17 -0.5,-0.29 l -0.07,-0.07 v 0 l -0.05,-0.02 v 0 l -0.07,-0.07 0.55,0.33 -0.1,-0.05 c -0.72,-0.28 -1.25,-0.93 -1.37,-1.72 l -0.04,-0.05 1.41,1.73 -0.12,-0.03 c -0.17,-0.09 -0.36,-0.17 -0.53,-0.33 l -0.07,-0.03 c -0.21,-0.17 -0.38,-0.38 -0.53,-0.62 l -0.07,-0.1 c -0.14,-0.26 -0.24,-0.53 -0.29,-0.81 v -0.03 l 0.84,1.42 -0.04,-0.03 c -0.24,-0.19 -0.41,-0.4 -0.56,-0.64 l -0.07,-0.12 0.58,0.67 -0.07,-0.07 v 0 l -0.05,-0.03 c -0.51,-0.38 -0.84,-0.98 -0.91,-1.65 v -0.08 l 0.04,0.17 -0.04,-0.02 0.33,0.81 -0.05,-0.09 c -0.21,-0.34 -0.31,-0.67 -0.33,-1.03 l -0.03,-0.12 0.92,1.72 -0.05,-0.07 c -0.39,-0.29 -0.7,-0.72 -0.84,-1.2 l -0.07,-0.21 -0.03,-0.15 -0.05,-0.36 -0.07,-0.33 -0.02,-0.32 v 0.03 l -0.03,-0.31 v -0.15 l -0.04,-0.81 v -0.03 -0.14 0 -0.15 0 -0.16 c 0,-0.27 0.04,-0.53 0.12,-0.8 l 0.04,-0.16 0.12,-0.29 0.05,-0.1 -0.17,0.48 0.05,-0.21 0.03,-0.15 0.07,-0.14 0.12,-0.34 0.02,-0.09 0.19,-0.29 0.08,-0.15 -0.29,0.6 0.05,-0.16 0.12,-0.29 0.04,-0.1 c 0.12,-0.26 0.29,-0.5 0.51,-0.72 l 0.12,-0.14 -0.39,0.53 0.2,-0.36 c 0.09,-0.17 0.24,-0.36 0.4,-0.53 l 0.2,-0.19 c 0.64,-0.65 1.6,-0.92 2.49,-0.68 0.87,0.24 1.56,0.92 1.8,1.83 0.24,0.86 -0.02,1.82 -0.65,2.45 l -0.21,0.21 0.43,-0.53 -0.22,0.32 c -0.12,0.21 -0.28,0.4 -0.43,0.57 l -0.14,0.12 0.48,-0.6 -0.07,0.1 0.16,-0.36 -0.07,0.14 c -0.05,0.22 -0.17,0.43 -0.29,0.6 l -0.09,0.15 0.14,-0.24 -0.05,0.09 0.15,-0.36 -0.03,0.15 0.05,-0.2 -0.05,0.2 c -0.07,0.19 -0.12,0.36 -0.21,0.55 l -0.07,0.09 0.16,-0.33 -0.07,0.14 0.15,-0.81 v 0.16 0 0.15 0 0.14 0.03 l -0.03,0.81 v 0.15 l -0.02,0.31 v -0.03 l -0.03,0.32 v -0.36 l 0.03,0.36 -0.07,-0.32 0.07,0.2 -0.46,-0.99 0.03,0.03 c 0.36,0.48 0.55,1.08 0.52,1.68 l -0.04,0.12 -0.15,-1.11 0.03,0.1 c 0.19,0.41 0.21,0.86 0.16,1.32 l -0.04,0.02 0.04,-0.17 v 0.08 l -0.48,-1.68 0.03,0.07 v 0 l 0.02,0.05 c 0.15,0.19 0.27,0.36 0.34,0.57 l 0.05,0.1 -0.32,-0.55 0.03,0.04 c 0.41,0.53 0.57,1.2 0.48,1.85 l -0.03,0.03 -0.12,-1.25 0.03,0.09 -0.34,-0.55 0.07,0.03 -0.64,-0.53 0.09,0.05 c 0.82,0.48 1.25,1.41 1.08,2.35 v 0.05 l -1.08,-2.33 0.1,0.02 c 0.24,0.15 0.45,0.34 0.62,0.58 l 0.03,0.05 v 0 l 0.07,0.04 v 0 l 0.02,0.05 -0.62,-0.53 0.12,0.05 c 0.98,0.6 1.34,1.9 0.84,2.91 -0.55,1.05 -1.78,1.53 -2.86,1.08 z"
         style="fill:#000000;fill-opacity:1;fill-rule:nonzero;stroke:none"
         transform="matrix(1.3333333,0,0,-1.3333333,0,1120.8)" />
    </g>
    <g
       id="g101"
       transform="translate(1.9263675,5.7791026)">
      <path
         id="path101"
         d="m 528.6,323.81 c 0,-0.96 -0.77,-1.71 -1.7,-1.71 -0.96,0 -1.71,0.75 -1.71,1.71 0,0.93 0.75,1.7 1.71,1.7 0.93,0 1.7,-0.77 1.7,-1.7 z"
         style="fill:#000000;fill-opacity:1;fill-rule:evenodd;stroke:none"
         transform="matrix(1.3333333,0,0,-1.3333333,0,1120.8)" />
    </g>
    <g
       id="g102"
       transform="translate(1.9263675,5.7791026)">
      <path
         id="path102"
         d="m 530.93,307.22 -0.65,-0.57 -0.24,-0.22 -0.74,-0.89 -0.15,-0.19 -0.67,-0.96 -0.05,-0.09 -1.63,-2.52 0.07,0.09 -0.09,-0.14 v 0 l -0.12,-0.15 v 0 l -0.1,-0.16 v 0 l -0.07,-0.15 0.41,0.48 -0.36,-0.29 c -0.1,-0.09 -0.22,-0.19 -0.29,-0.31 l -0.65,-0.77 0.07,0.08 -0.38,-0.44 0.07,0.08 -0.05,-0.03 c -0.93,-0.96 -0.93,-2.49 0,-3.45 0.96,-0.96 2.5,-0.96 3.46,0 l 0.05,0.07 0.09,0.09 0.39,0.44 0.09,0.09 0.63,0.79 -0.34,-0.31 0.36,0.31 c 0.19,0.15 0.34,0.32 0.46,0.51 l 0.09,0.14 v 0 l 0.1,0.15 v 0 l 0.07,0.16 v 0 l 0.1,0.15 0.07,0.05 1.51,2.59 v 0 l 0.6,0.98 -0.12,-0.17 0.7,0.96 -0.03,-0.04 0.53,0.69 c 0.67,0.91 0.55,2.16 -0.26,2.91 -0.84,0.79 -2.09,0.79 -2.93,0.04 z"
         style="fill:#000000;fill-opacity:1;fill-rule:nonzero;stroke:none"
         transform="matrix(1.3333333,0,0,-1.3333333,0,1120.8)" />
    </g>
    <g
       id="g103"
       transform="translate(1.9263675,5.7791026)">
      <path
         id="path103"
         d="m 534.96,303.38 -0.48,-0.55 -0.17,-0.29 -1.22,-2.04 -0.05,-0.09 -0.31,-0.6 c -0.17,-0.27 -0.24,-0.55 -0.29,-0.84 v -0.03 c -0.07,-0.88 0.34,-1.72 1.08,-2.2 0.72,-0.44 1.66,-0.44 2.4,0 0.77,0.48 1.15,1.32 1.06,2.2 v 0.03 l -0.15,-1.08 0.27,0.65 -0.03,-0.05 0.94,2.16 -0.19,-0.34 0.43,0.63 c 0.6,0.91 0.38,2.11 -0.48,2.76 -0.89,0.64 -2.11,0.52 -2.81,-0.32 z"
         style="fill:#000000;fill-opacity:1;fill-rule:nonzero;stroke:none"
         transform="matrix(1.3333333,0,0,-1.3333333,0,1120.8)" />
    </g>
    <g
       id="g104"
       transform="translate(1.9263675,5.7791026)">
      <path
         id="path104"
         d="m 522.31,295.27 0.72,-0.05 h 0.24 l 1.83,0.12 h -0.17 l 2.69,-0.09 h -0.12 l 1.39,-0.1 h 0.02 l 1.73,-0.12 -0.05,0.03 0.77,-0.08 h 0.17 l 0.77,-0.04 v 0 l 0.79,-0.03 h 0.29 l 1.94,0.19 0.24,0.03 0.24,0.05 c 0.91,0.16 1.63,0.79 1.94,1.65 0.29,0.87 0.12,1.83 -0.48,2.5 -0.64,0.69 -1.53,0.98 -2.44,0.77 l -0.24,-0.03 0.24,0.03 -1.95,-0.2 h 0.22 l -0.79,-0.04 v 0 h -0.77 0.14 -0.79 l -0.07,0.04 -1.78,-0.04 v 0 h -1.34 -0.17 l -2.69,-0.17 h -0.09 l -1.8,-0.19 h 0.09 l -0.72,-0.05 c -1.1,-0.07 -1.99,-0.96 -1.99,-2.07 0,-1.12 0.89,-2.04 1.99,-2.11 z"
         style="fill:#000000;fill-opacity:1;fill-rule:nonzero;stroke:none"
         transform="matrix(1.3333333,0,0,-1.3333333,0,1120.8)" />
    </g>
    <g
       id="g105"
       transform="translate(1.9263675,5.7791026)">
      <path
         id="path105"
         d="m 527.52,271.78 1.03,-0.1 0.34,-0.02 6.41,0.19 -0.05,-0.05 11.64,0.07 h -0.22 l 1.42,-0.09 h 0.21 0.15 c 1.7,0 3.09,1.34 3.09,3.07 0,1.68 -1.39,3.05 -3.09,3.05 h -0.15 0.05 l -1.44,0.02 h -0.14 l -11.64,-0.43 h -0.17 l -6.38,-0.6 h -0.03 l -1.03,-0.12 c -1.25,-0.12 -2.23,-1.2 -2.23,-2.5 0,-1.27 0.98,-2.35 2.23,-2.49 z"
         style="fill:#000000;fill-opacity:1;fill-rule:nonzero;stroke:none"
         transform="matrix(1.3333333,0,0,-1.3333333,0,1120.8)" />
    </g>
    <g
       id="g106"
       transform="translate(1.9263675,5.7791026)">
      <path
         id="path106"
         d="m 528.58,276.6 -0.48,0.19 1.03,-0.91 -0.05,0.07 c -0.14,0.27 -0.31,0.48 -0.55,0.65 l -0.1,0.1 0.53,-0.7 -0.02,0.1 0.07,-1.8 v 0.07 c 0.19,0.41 0.24,0.91 0.12,1.39 l -0.05,0.12 c -0.05,0.17 -0.07,0.31 -0.17,0.43 l -0.02,0.05 v 0 l -0.05,0.1 0.17,-0.41 -0.05,0.12 -0.12,-1.51 0.05,0.07 c 0.29,0.62 0.26,1.34 -0.07,1.94 l -0.03,0.05 0.17,-0.41 -0.05,0.12 c -0.02,0.15 -0.09,0.29 -0.14,0.46 l -0.07,0.05 0.21,-1.54 0.03,0.12 c 0.07,0.22 0.07,0.46 0.07,0.67 l -0.05,0.15 -0.02,-0.7 0.02,0.12 v 0 l 0.05,0.12 -0.19,-0.5 0.02,0.07 c 0.07,0.14 0.12,0.31 0.17,0.5 l 0.02,0.12 0.05,0.24 v 0.24 -0.02 l 0.07,0.36 v 0 l 0.03,0.36 v 0 l 0.07,0.36 -0.07,-0.34 0.26,1.11 -0.07,-0.27 0.29,0.77 -0.03,-0.05 0.29,0.72 0.05,0.05 0.86,2.21 -0.26,-0.53 0.17,0.31 0.12,0.22 0.21,0.36 -0.12,-0.19 0.17,0.31 -0.19,-0.31 0.26,0.31 c 0.05,0.07 0.15,0.17 0.22,0.29 l 0.17,0.31 -0.22,-0.31 0.29,0.31 v 0 l 0.24,0.29 -0.46,-0.46 0.29,0.24 0.19,0.17 0.7,0.62 -0.12,-0.12 0.29,0.24 -0.34,-0.21 0.31,0.19 v 0 l 0.34,0.17 c 0.12,0.07 0.19,0.16 0.31,0.21 l 0.31,0.24 -0.5,-0.29 0.36,0.17 -0.24,-0.12 0.31,0.12 0.22,0.12 0.38,0.19 -0.38,-0.16 0.36,0.12 0.19,0.04 0.29,0.12 -0.65,-0.16 0.41,0.07 c 0.24,0.02 0.45,0.09 0.67,0.14 l 0.31,0.12 -0.67,-0.14 0.43,0.05 -0.41,-0.03 h 0.29 c 0.17,0 0.29,0 0.43,0.03 l 0.46,0.07 -0.46,-0.03 h 0.34 c 0.12,-0.04 0.26,0 0.41,0 l 0.43,0.05 -0.91,0.03 0.36,-0.05 c 0.19,-0.03 0.33,-0.07 0.5,-0.07 H 537 l -0.48,0.07 0.36,-0.07 v 0 l 0.41,-0.08 v 0 l 0.36,-0.07 -0.46,0.12 0.36,-0.12 c 0.15,-0.05 0.31,-0.09 0.46,-0.12 l 0.38,-0.05 -0.69,0.2 0.88,-0.39 0.15,-0.05 0.48,-0.19 -0.27,0.12 0.48,-0.24 0.29,-0.12 0.48,-0.19 -0.69,0.38 0.45,-0.33 0.24,-0.17 0.46,-0.24 -0.46,0.31 0.39,-0.33 c 0.09,-0.05 0.21,-0.15 0.33,-0.24 l 0.48,-0.29 -0.53,0.41 0.75,-0.75 0.24,-0.19 0.65,-0.55 -0.41,0.41 0.57,-0.7 v 0 l 0.53,-0.65 v 0 l 0.58,-0.69 -0.22,0.31 1.18,-1.87 -0.03,0.07 0.17,-0.34 -0.02,0.05 0.26,-0.41 -0.17,0.36 0.12,-0.31 -0.12,0.29 0.15,-0.43 c 0.02,-0.17 0.12,-0.36 0.17,-0.51 l 0.21,-0.36 -0.29,0.84 0.05,-0.38 0.07,-0.22 0.12,-0.5 -0.07,0.29 0.12,-0.87 0.03,-0.19 0.09,-0.29 v -0.07 l 0.15,-0.6 c 0.33,-1.56 1.89,-2.54 3.45,-2.23 1.56,0.31 2.62,1.82 2.35,3.38 l -0.12,0.63 v 0.07 l -0.07,0.29 0.03,-0.15 -0.12,0.87 -0.05,0.31 -0.12,0.5 0.02,-0.24 -0.05,0.36 c -0.04,0.29 -0.12,0.58 -0.28,0.84 l -0.17,0.39 0.21,-0.51 -0.12,0.41 -0.12,0.31 -0.12,0.29 c -0.04,0.12 -0.09,0.24 -0.19,0.41 l -0.24,0.41 -0.02,0.07 -0.19,0.29 -0.05,0.09 -1.18,1.83 c -0.05,0.12 -0.12,0.21 -0.21,0.31 l -0.53,0.69 v 0 l -0.58,0.68 v 0 l -0.53,0.67 c -0.16,0.14 -0.28,0.29 -0.43,0.41 l -0.69,0.57 0.21,-0.21 -0.74,0.76 c -0.15,0.15 -0.34,0.29 -0.51,0.41 l -0.52,0.31 0.33,-0.21 -0.36,0.29 c -0.14,0.12 -0.29,0.21 -0.45,0.31 l -0.41,0.24 0.24,-0.15 -0.43,0.29 c -0.2,0.15 -0.44,0.27 -0.68,0.36 l -0.48,0.19 0.27,-0.12 -0.48,0.24 -0.31,0.12 -0.48,0.2 0.12,-0.05 -0.87,0.36 c -0.24,0.12 -0.48,0.17 -0.72,0.21 l -0.36,0.05 0.46,-0.12 -0.36,0.12 c -0.15,0.07 -0.31,0.1 -0.46,0.12 l -0.38,0.07 v 0 l -0.36,0.05 v 0 l -0.39,0.07 c -0.16,0.03 -0.31,0.03 -0.5,0.03 h -0.36 l 0.48,-0.03 -0.36,0.05 c -0.29,0.03 -0.62,0.03 -0.91,0 l -0.43,-0.05 0.43,0.03 h -0.34 c -0.12,0 -0.26,-0.03 -0.38,-0.03 l -0.46,-0.07 0.41,0.03 -0.29,-0.03 c -0.14,0 -0.26,0 -0.43,-0.02 l -0.41,-0.07 c -0.24,-0.03 -0.48,-0.08 -0.69,-0.17 l -0.29,-0.12 0.65,0.17 -0.41,-0.05 c -0.24,-0.03 -0.48,-0.1 -0.7,-0.19 l -0.31,-0.15 0.17,0.07 -0.36,-0.12 c -0.12,-0.04 -0.29,-0.09 -0.41,-0.16 l -0.36,-0.17 0.22,0.09 -0.29,-0.12 -0.22,-0.12 -0.38,-0.19 c -0.19,-0.09 -0.36,-0.21 -0.53,-0.33 l -0.29,-0.24 0.29,0.21 -0.29,-0.17 v 0 l -0.31,-0.21 c -0.12,-0.07 -0.19,-0.12 -0.31,-0.22 l -0.31,-0.24 -0.15,-0.14 -0.67,-0.63 0.1,0.12 -0.29,-0.28 c -0.17,-0.15 -0.31,-0.29 -0.46,-0.44 l -0.24,-0.33 v 0 l -0.24,-0.31 c -0.07,-0.12 -0.14,-0.24 -0.21,-0.32 l -0.17,-0.33 0.24,0.33 -0.24,-0.33 c -0.1,-0.1 -0.17,-0.22 -0.24,-0.31 l -0.17,-0.32 -0.12,-0.19 -0.14,-0.38 0.09,0.21 -0.19,-0.33 c -0.07,-0.15 -0.14,-0.31 -0.19,-0.48 l -0.77,-2.26 -0.05,-0.19 -0.21,-0.74 v -0.05 l -0.22,-0.82 -0.02,-0.14 -0.22,-1.13 c -0.02,-0.26 -0.02,-0.53 0,-0.79 l 0.05,-0.36 v 0 l 0.05,-0.36 v 0 l 0.02,-0.36 v 0.02 l 0.05,-0.24 0.02,-0.24 0.03,-0.12 c 0.02,-0.19 0.09,-0.36 0.19,-0.5 v -0.07 l -0.17,0.5 0.05,-0.12 v 0 l 0.02,-0.12 c 0.1,-0.5 0.36,-0.91 0.72,-1.25 l 0.1,-0.09 -0.72,1.22 0.02,-0.12 c 0.15,-0.65 0.58,-1.22 1.18,-1.51 l 0.05,-0.05 -0.72,0.65 0.09,-0.12 c 0.17,-0.29 0.41,-0.48 0.72,-0.65 l 0.05,-0.02 -0.96,1.03 0.05,-0.07 c 0.05,-0.12 0.14,-0.27 0.24,-0.39 l 0.07,-0.12 c 0.19,-0.24 0.43,-0.45 0.7,-0.6 l 0.09,-0.02 v 0 l 0.05,-0.05 -0.67,0.58 0.07,-0.1 -0.24,0.41 0.05,-0.07 c 0.17,-0.41 0.5,-0.75 0.89,-0.96 l 0.07,-0.03 c 0.14,-0.07 0.26,-0.12 0.38,-0.14 l 0.15,-0.07 -0.39,0.14 0.05,-0.02 c 0.53,-0.27 1.13,-0.29 1.66,-0.1 l 0.48,0.19 c 0.67,0.27 1.1,0.94 1.1,1.66 0,0.72 -0.43,1.37 -1.1,1.63 z"
         style="fill:#000000;fill-opacity:1;fill-rule:nonzero;stroke:none"
         transform="matrix(1.3333333,0,0,-1.3333333,0,1120.8)" />
    </g>
  </g>
</svg>
