<?xml version="1.0" encoding="UTF-8" standalone="no"?>
<!-- Created with Inkscape (http://www.inkscape.org/) -->

<svg
   version="1.1"
   id="svg1"
   width="172.34802"
   height="87.14698"
   viewBox="0 0 172.34802 87.146976"
   sodipodi:docname="lesson1_sentence4_word2.svg"
   inkscape:version="1.4.3 (0d15f75, 2025-12-25)"
   xmlns:inkscape="http://www.inkscape.org/namespaces/inkscape"
   xmlns:sodipodi="http://sodipodi.sourceforge.net/DTD/sodipodi-0.dtd"
   xmlns="http://www.w3.org/2000/svg"
   xmlns:svg="http://www.w3.org/2000/svg">
  <defs
     id="defs1" />
  <sodipodi:namedview
     id="namedview1"
     pagecolor="#ffffff"
     bordercolor="#000000"
     borderopacity="0.25"
     inkscape:showpageshadow="2"
     inkscape:pageopacity="0.0"
     inkscape:pagecheckerboard="0"
     inkscape:deskcolor="#d1d1d1"
     inkscape:zoom="4.1528939"
     inkscape:cx="56.34625"
     inkscape:cy="31.42387"
     inkscape:window-width="1920"
     inkscape:window-height="1191"
     inkscape:window-x="-9"
     inkscape:window-y="-9"
     inkscape:window-maximized="1"
     inkscape:current-layer="g1">
    <inkscape:page
       x="0"
       y="0"
       inkscape:label="1"
       id="page1"
       width="172.34802"
       height="87.146973"
       margin="0"
       bleed="0" />
  </sodipodi:namedview>
  <g
     id="g1"
     inkscape:groupmode="layer"
     inkscape:label="1"
     transform="translate(-500.25332,-676.03969)">
    <g
       id="g90">
      <path
         id="path90"
         d="m 379.01,325.27 0.17,0.12 c 0.74,0.55 1.08,1.51 0.86,2.4 -0.22,0.91 -0.96,1.63 -1.87,1.78 -0.94,0.19 -1.85,-0.22 -2.38,-0.99 l -0.14,-0.19 c -0.27,-0.41 -0.41,-0.89 -0.41,-1.37 l -0.05,-0.98 v -0.22 l 0.07,-1.08 v 0 l 0.17,-2.37 v -0.03 l 0.22,-2.95 v 0.05 l 0.02,-0.46 0.05,-0.21 0.31,-2.31 0.05,-0.09 0.26,-1.59 v 0.03 l 0.05,-0.39 0.05,-0.16 0.19,-0.96 -0.05,0.67 v -0.1 c -0.02,-1.1 0.58,-2.13 1.52,-2.66 0.96,-0.55 2.11,-0.55 3.07,0 0.93,0.53 1.53,1.56 1.51,2.66 v 0.1 c 0,0.26 -0.02,0.53 -0.12,0.77 l -0.24,1 v -0.12 l -0.1,0.39 v 0 l -0.36,1.56 0.03,-0.1 -0.48,2.28 0.07,-0.24 -0.07,0.46 v 0.07 l -0.41,2.9 v 0 l -0.34,2.33 -0.04,0.24 -0.24,1.08 0.02,-0.12 -0.19,0.96 c -0.05,0.34 -0.19,0.67 -0.39,0.96 l -0.14,0.19 c -0.55,0.84 -1.58,1.23 -2.57,0.96 -0.96,-0.26 -1.63,-1.1 -1.73,-2.11 -0.07,-0.98 0.48,-1.92 1.42,-2.33 l 0.14,-0.07 c 0.7,-0.29 1.47,-0.19 2.07,0.24 z"
         style="fill:#000000;fill-opacity:1;fill-rule:nonzero;stroke:none"
         transform="matrix(1.3333333,0,0,-1.3333333,0,1120.8)" />
    </g>
    <g
       id="g91">
      <path
         id="path91"
         d="m 376.82,325.8 0.36,-0.22 c 0.32,-0.21 0.68,-0.33 1.04,-0.36 l 4.2,-0.57 0.14,-0.03 5.76,-0.43 h 0.1 l 0.91,-0.02 h -0.19 l 2.11,-0.24 -0.51,0.12 0.72,-0.22 c 0.27,-0.07 0.58,-0.12 0.84,-0.12 h 0.22 c 1.73,0 3.14,1.42 3.14,3.17 0,1.73 -1.41,3.14 -3.14,3.14 h -0.22 l 0.82,-0.09 -0.72,0.19 c -0.22,0.05 -0.38,0.07 -0.58,0.07 l -2.13,0.17 -0.36,0.02 -0.91,-0.07 0.14,0.05 -5.74,0.05 h -0.02 -4.22 -0.34 l -0.43,-0.05 c -1.01,-0.12 -1.9,-0.91 -2.09,-1.92 -0.24,-1.03 0.19,-2.09 1.1,-2.64 z"
         style="fill:#000000;fill-opacity:1;fill-rule:nonzero;stroke:none"
         transform="matrix(1.3333333,0,0,-1.3333333,0,1120.8)" />
    </g>
    <g
       id="g92">
      <path
         id="path92"
         d="m 379.73,310.54 0.57,0.07 h -0.24 l 3.75,0.05 h -0.12 l 1.53,-0.03 h -0.24 l 0.84,-0.09 c 0.15,0 0.32,0 0.48,0 l 2.04,0.09 0.12,0.03 0.58,0.04 h -0.26 0.6 -0.17 l 1.25,-0.07 -0.2,0.03 0.56,-0.05 c 0.5,-0.03 1,0.02 1.48,0.21 l 0.2,0.08 c 0.16,0.07 0.36,0.16 0.5,0.28 l 0.1,0.03 c 1,0.62 1.6,1.73 1.58,2.9 -0.02,1.18 -0.7,2.26 -1.7,2.83 -1.06,0.58 -2.33,0.53 -3.34,-0.07 l -0.1,-0.05 0.08,0.03 -0.2,-0.12 1.4,0.45 -0.56,-0.07 0.2,0.05 -1.25,-0.07 c -0.12,0 -0.24,0 -0.36,-0.03 l -0.6,-0.09 -0.29,-0.05 -0.55,-0.17 0.33,0.07 -2.01,-0.26 h 0.09 l -0.84,-0.1 h -0.12 l -1.48,-0.24 -0.22,-0.02 -3.67,-0.82 c -0.24,-0.07 -0.51,-0.19 -0.75,-0.33 l -0.48,-0.31 c -0.88,-0.56 -1.29,-1.68 -0.96,-2.67 0.36,-1.01 1.35,-1.65 2.43,-1.53 z"
         style="fill:#000000;fill-opacity:1;fill-rule:nonzero;stroke:none"
         transform="matrix(1.3333333,0,0,-1.3333333,0,1120.8)" />
    </g>
    <g
       id="g93">
      <path
         id="path93"
         d="m 390.26,326.76 -0.14,-3.89 v -0.14 l 0.05,-3.99 v 0 l 0.12,-7.68 0.05,-0.07 0.07,-2.52 v -0.05 l 0.67,-10.87 v -0.05 l 0.48,-6.19 v -0.02 l 0.7,-8.14 v 0.1 l 0.38,-6.53 v 0.22 -4.47 0.12 l -0.07,-1.08 c -0.03,-1.17 0.57,-2.25 1.61,-2.85 0.98,-0.6 2.23,-0.6 3.26,0 0.98,0.6 1.58,1.68 1.56,2.85 l -0.05,1.08 v -0.12 4.47 0.19 l -0.43,6.5 v 0.1 l -0.74,8.09 0.02,-0.03 -0.5,6.19 v -0.04 l -0.72,10.87 v -0.07 l -0.12,2.56 v -0.07 l -0.29,7.66 v 0.02 l -0.17,4.01 v 0.07 l -0.31,3.89 c -0.12,1.44 -1.32,2.54 -2.79,2.52 -1.44,-0.05 -2.61,-1.2 -2.64,-2.64 z"
         style="fill:#000000;fill-opacity:1;fill-rule:nonzero;stroke:none"
         transform="matrix(1.3333333,0,0,-1.3333333,0,1120.8)" />
    </g>
    <g
       id="g94"
       transform="translate(-1.2039797)">
      <path
         id="path94"
         d="m 410.86,315.77 v 0.12 l -0.32,-0.82 0.08,0.1 c 0.16,0.24 0.28,0.55 0.28,0.86 l 0.05,0.12 -0.05,-0.02 0.05,0.09 -0.17,-0.57 0.08,0.14 -0.15,-0.26 0.05,0.09 v 0 l 0.07,0.1 0.15,0.26 0.09,0.15 c 0.05,0.19 0.12,0.38 0.15,0.57 v 0.1 l -0.44,-1.01 0.12,0.17 -0.36,-0.31 0.08,0.02 c 0.26,0.19 0.5,0.46 0.62,0.77 l 0.07,0.12 -0.55,-0.67 0.12,0.09 v 0 l 0.12,0.1 c 0.14,0.12 0.31,0.24 0.38,0.38 l 0.1,0.1 -0.36,-0.36 0.24,0.17 -0.12,-0.1 0.48,0.34 -0.17,-0.1 0.55,0.29 0.12,0.05 1.16,0.69 -0.1,-0.07 0.79,0.43 0.12,0.1 0.84,0.5 -0.19,-0.09 0.94,0.48 h 0.04 l 0.89,0.48 -0.21,-0.1 0.96,0.41 -0.05,-0.05 1.01,0.41 h 0.02 l 0.94,0.38 -0.22,-0.09 1.01,0.26 v 0 l 0.98,0.31 -0.12,-0.02 1.06,0.19 h -0.1 l 2.55,0.43 -0.05,-0.02 1.08,0.14 h -0.12 l 1.1,0.1 h -0.09 l 1.08,0.02 h -0.1 1.13 v 0 h 1.1 l -0.19,0.03 1.13,-0.12 v 0 l 1.1,-0.1 h -0.12 l 1.11,-0.14 -0.15,0.02 3.15,-0.62 -0.29,0.09 0.91,-0.36 0.1,-0.02 0.93,-0.29 -0.09,0.05 0.93,-0.36 -0.14,0.05 0.86,-0.39 -0.12,0.05 1.9,-0.98 -0.15,0.09 0.65,-0.38 0.03,-0.05 0.57,-0.31 -0.12,0.05 0.6,-0.39 -0.17,0.15 0.51,-0.46 0.09,-0.07 0.53,-0.41 -0.09,0.1 0.52,-0.46 -0.21,0.22 1.1,-1.2 -0.09,0.09 0.33,-0.43 -0.14,0.24 0.24,-0.38 c 0.62,-1.06 1.97,-1.42 3.02,-0.79 1.06,0.64 1.42,1.99 0.79,3.07 l -0.24,0.38 -0.19,0.24 -0.33,0.43 -0.08,0.12 -1.12,1.23 -0.24,0.21 -0.51,0.46 -0.09,0.05 -0.53,0.38 0.09,-0.05 -0.52,0.41 -0.17,0.17 -0.6,0.38 -0.12,0.1 -0.58,0.31 0.03,-0.02 -0.63,0.38 -0.14,0.1 -1.87,0.96 -0.12,0.07 -0.87,0.41 -0.14,0.02 -0.94,0.36 -0.09,0.05 -0.92,0.29 0.08,-0.03 -0.94,0.34 -0.31,0.07 -3.17,0.65 -0.14,0.02 -1.11,0.15 h -0.09 l -1.11,0.12 v 0 l -1.1,0.09 h -0.22 -1.1 v 0 h -1.13 -0.07 l -1.13,-0.07 h -0.07 l -1.13,-0.07 -0.12,-0.05 -1.03,-0.14 h -0.07 l -2.57,-0.46 -0.17,-0.05 -1.03,-0.24 -0.12,-0.02 -1.01,-0.34 v 0 l -0.98,-0.31 -0.22,-0.07 -0.94,-0.41 h 0.08 l -0.99,-0.38 -0.07,-0.03 -0.94,-0.38 -0.19,-0.12 -0.89,-0.53 0.08,0.05 -0.94,-0.53 -0.17,-0.07 -0.81,-0.58 0.09,0.05 -0.77,-0.48 -0.12,-0.07 -1.08,-0.79 -0.07,-0.05 -0.48,-0.41 -0.17,-0.17 -0.4,-0.43 0.12,0.1 -0.24,-0.17 c -0.2,-0.17 -0.32,-0.36 -0.44,-0.58 l -0.04,-0.09 0.38,0.5 -0.12,-0.12 v 0 l -0.1,-0.07 c -0.19,-0.22 -0.38,-0.46 -0.48,-0.72 l -0.04,-0.17 0.38,0.65 -0.02,-0.05 -0.15,-0.17 -0.12,-0.14 c -0.24,-0.36 -0.36,-0.79 -0.31,-1.2 v -0.1 l 0.1,0.72 -0.08,-0.14 0.1,0.19 -0.05,-0.07 v 0 l -0.07,-0.12 -0.05,-0.22 -0.07,-0.14 c -0.1,-0.22 -0.1,-0.46 -0.1,-0.7 l 0.05,-0.09 -0.05,0.02 0.05,-0.12 0.15,0.84 -0.03,-0.12 c -0.17,-0.26 -0.21,-0.55 -0.19,-0.86 l 0.02,-0.12 c 0.08,-0.84 0.8,-1.51 1.66,-1.51 0.84,0 1.56,0.67 1.66,1.51 z"
         style="fill:#000000;fill-opacity:1;fill-rule:nonzero;stroke:none"
         transform="matrix(1.3333333,0,0,-1.3333333,0,1120.8)" />
    </g>
    <g
       id="g95"
       transform="translate(-0.35263749,0.25540266)">
      <path
         id="path95"
         d="m 408,313.82 0.46,-0.31 h -0.03 l 0.48,-0.36 h 0.03 l 1.08,-0.74 0.09,-0.07 0.31,-0.2 -0.31,0.24 0.29,-0.28 c 0.1,-0.08 0.19,-0.15 0.31,-0.24 l 0.31,-0.2 v 0 l 0.36,-0.21 0.12,-0.07 0.41,-0.24 0.07,-0.03 0.34,-0.14 0.19,-0.1 0.79,-0.29 c 0.22,-0.09 0.46,-0.16 0.68,-0.16 h 0.04 l -0.43,0.07 3.24,-0.87 0.27,-0.07 1.65,-0.21 v 0 l 1.73,-0.24 0.19,-0.03 4.32,-0.21 h 0.17 l 7.9,0.19 h 0.26 l 2.47,0.33 0.03,0.03 0.62,0.09 -0.12,-0.04 0.48,0.07 h 0.17 l 0.57,0.12 v 0 l 0.6,0.09 v 0 l 0.56,0.08 c 0.12,0.04 0.24,0.07 0.36,0.09 l 0.6,0.19 -0.12,-0.04 0.52,0.16 0.12,0.03 0.6,0.21 0.05,0.03 0.55,0.17 0.17,0.09 0.51,0.24 -0.24,-0.12 0.57,0.22 c 0.15,0.02 0.31,0.09 0.43,0.17 l 0.53,0.31 0.15,0.09 1.36,0.87 -0.09,-0.07 0.98,0.6 0.07,0.04 0.2,0.15 c 1.15,0.72 1.51,2.23 0.79,3.36 -0.72,1.1 -2.23,1.46 -3.36,0.74 l -0.24,-0.14 0.05,0.02 -0.99,-0.55 -0.09,-0.07 -1.35,-0.89 0.15,0.07 -0.53,-0.29 0.41,0.17 -0.56,-0.17 -0.28,-0.12 -0.51,-0.24 0.15,0.1 -0.51,-0.22 0.1,0.03 -0.6,-0.22 0.12,0.03 -0.51,-0.12 -0.12,-0.05 -0.6,-0.19 0.39,0.09 -0.6,-0.12 v 0 l -0.58,-0.09 v 0 l -0.6,-0.08 h 0.15 l -0.48,-0.04 -0.1,-0.03 -0.65,-0.09 h 0.03 l -2.43,-0.36 0.27,0.04 -7.9,-0.21 h 0.19 l -4.32,0.14 h 0.12 l -1.77,0.19 0.02,-0.04 -1.63,0.19 0.26,-0.03 -3.31,0.68 c -0.17,0.04 -0.36,0.07 -0.58,0.04 h -0.04 l 0.81,-0.09 -0.84,0.26 0.05,-0.02 -0.36,0.12 0.12,-0.03 -0.41,0.17 0.12,-0.05 -0.36,0.17 v 0 l -0.36,0.19 0.31,-0.21 -0.31,0.24 c -0.09,0.07 -0.21,0.14 -0.31,0.19 l -0.36,0.17 0.07,-0.03 -1.15,0.63 -0.17,0.09 -0.57,0.22 -0.08,0.02 -0.5,0.17 c -0.84,0.34 -1.8,-0.05 -2.21,-0.86 -0.43,-0.77 -0.19,-1.8 0.53,-2.31 z"
         style="fill:#000000;fill-opacity:1;fill-rule:nonzero;stroke:none"
         transform="matrix(1.3333333,0,0,-1.3333333,0,1120.8)" />
    </g>
    <g
       id="g96"
       transform="translate(-1.2039797)">
      <path
         id="path96"
         d="m 418.78,272.26 0.98,-0.12 h 0.36 l 6.41,0.14 h -0.05 l 11.62,0.05 -0.2,0.02 1.44,-0.12 h 0.17 0.19 c 1.68,0 3.05,1.37 3.05,3.1 0,1.68 -1.37,3.05 -3.05,3.05 h -0.19 0.07 l -1.41,0.02 h -0.19 l -11.62,-0.43 -0.14,-0.05 -6.39,-0.55 h -0.07 l -0.98,-0.12 c -1.3,-0.12 -2.26,-1.2 -2.26,-2.5 0,-1.29 0.96,-2.37 2.26,-2.49 z"
         style="fill:#000000;fill-opacity:1;fill-rule:nonzero;stroke:none"
         transform="matrix(1.3333333,0,0,-1.3333333,0,1120.8)" />
    </g>
    <g
       id="g97"
       transform="translate(-1.2039797)">
      <path
         id="path97"
         d="m 419.83,277.06 -0.5,0.21 1.01,-0.93 -0.03,0.09 c -0.14,0.24 -0.33,0.48 -0.55,0.65 l -0.12,0.07 0.58,-0.67 -0.05,0.1 0.05,-1.8 0.02,0.02 c 0.22,0.46 0.24,0.96 0.1,1.44 l -0.03,0.12 c -0.02,0.17 -0.09,0.29 -0.14,0.43 l -0.05,0.05 h -0.02 l -0.03,0.1 0.17,-0.41 -0.02,0.12 -0.12,-1.51 v 0.07 c 0.31,0.6 0.26,1.32 -0.03,1.94 l -0.07,0.05 0.19,-0.41 -0.02,0.12 c -0.07,0.15 -0.12,0.29 -0.19,0.46 l -0.03,0.05 0.22,-1.54 0.02,0.12 c 0.03,0.22 0.05,0.46 0.03,0.67 v 0.12 l -0.05,-0.69 0.02,0.12 v 0.02 l 0.03,0.1 -0.17,-0.48 0.02,0.02 c 0.1,0.19 0.15,0.34 0.17,0.53 l 0.05,0.12 0.02,0.26 0.03,0.24 v -0.07 l 0.02,0.41 v 0 l 0.07,0.36 v 0 l 0.03,0.36 -0.05,-0.36 0.29,1.1 -0.1,-0.26 0.31,0.79 -0.02,-0.07 0.29,0.72 v 0.05 l 0.86,2.23 -0.26,-0.53 0.21,0.31 0.12,0.22 0.17,0.36 -0.12,-0.22 0.22,0.29 -0.24,-0.29 0.26,0.29 c 0.1,0.12 0.17,0.22 0.22,0.34 l 0.21,0.31 -0.24,-0.31 0.27,0.31 v 0 l 0.24,0.29 -0.46,-0.46 0.34,0.24 0.14,0.17 0.7,0.6 -0.12,-0.1 0.31,0.24 -0.34,-0.24 0.34,0.19 v 0 l 0.29,0.17 c 0.12,0.1 0.24,0.15 0.33,0.24 l 0.29,0.24 -0.5,-0.33 0.38,0.19 -0.24,-0.1 0.31,0.12 0.24,0.1 0.36,0.17 -0.38,-0.15 0.38,0.12 0.15,0.07 0.31,0.12 -0.67,-0.19 0.43,0.07 c 0.24,0.03 0.48,0.08 0.67,0.17 l 0.31,0.12 -0.67,-0.17 0.43,0.05 -0.43,-0.02 h 0.31 c 0.15,0 0.29,0.02 0.46,0.02 l 0.41,0.07 -0.41,-0.04 h 0.29 c 0.14,0 0.31,0 0.43,0.04 l 0.43,0.05 -0.89,0.03 0.36,-0.08 c 0.15,0 0.34,-0.04 0.48,-0.04 h 0.39 l -0.51,0.04 0.39,-0.07 v 0 l 0.36,-0.05 v 0 l 0.36,-0.07 -0.46,0.12 0.41,-0.12 c 0.14,-0.05 0.29,-0.09 0.43,-0.12 l 0.36,-0.09 -0.65,0.21 0.87,-0.36 0.12,-0.05 0.5,-0.19 -0.29,0.12 0.48,-0.24 0.29,-0.14 0.53,-0.19 -0.7,0.36 0.41,-0.29 0.29,-0.15 0.41,-0.28 -0.41,0.31 0.36,-0.31 c 0.07,-0.1 0.19,-0.15 0.31,-0.24 l 0.48,-0.29 -0.5,0.41 0.74,-0.75 0.22,-0.21 0.69,-0.53 -0.43,0.41 0.55,-0.7 v 0 l 0.58,-0.67 v 0 l 0.53,-0.67 -0.22,0.31 1.2,-1.87 -0.02,0.02 0.19,-0.29 -0.05,0.05 0.24,-0.41 -0.17,0.36 0.12,-0.33 -0.09,0.31 0.12,-0.43 c 0.07,-0.17 0.12,-0.36 0.21,-0.51 l 0.17,-0.38 -0.26,0.84 0.07,-0.36 0.05,-0.24 0.12,-0.48 -0.05,0.29 0.12,-0.87 0.02,-0.19 0.05,-0.29 V 276 l 0.17,-0.6 c 0.36,-1.58 1.89,-2.57 3.45,-2.23 1.59,0.29 2.6,1.82 2.33,3.38 l -0.09,0.63 -0.03,0.07 -0.05,0.29 0.03,-0.15 -0.12,0.87 -0.07,0.31 -0.12,0.48 0.07,-0.24 -0.07,0.38 c -0.05,0.29 -0.15,0.58 -0.27,0.84 l -0.21,0.36 0.21,-0.5 -0.12,0.43 -0.09,0.29 -0.12,0.31 c -0.05,0.12 -0.12,0.24 -0.17,0.36 l -0.24,0.46 -0.03,0.02 -0.21,0.34 -0.03,0.07 -1.17,1.85 c -0.07,0.09 -0.15,0.21 -0.22,0.31 l -0.57,0.69 v 0 l -0.53,0.65 v 0 l -0.58,0.7 c -0.12,0.14 -0.26,0.29 -0.41,0.41 l -0.69,0.57 0.24,-0.21 -0.77,0.76 c -0.17,0.15 -0.31,0.29 -0.53,0.41 l -0.48,0.31 0.34,-0.24 -0.41,0.29 c -0.12,0.12 -0.26,0.24 -0.41,0.31 l -0.45,0.27 0.26,-0.19 -0.43,0.33 c -0.22,0.15 -0.43,0.27 -0.7,0.36 l -0.48,0.19 0.29,-0.12 -0.5,0.24 -0.29,0.12 -0.48,0.17 0.12,-0.02 -0.89,0.36 c -0.19,0.09 -0.43,0.14 -0.67,0.21 l -0.41,0.05 0.48,-0.12 -0.38,0.12 c -0.15,0.07 -0.29,0.1 -0.46,0.12 l -0.36,0.07 v 0 l -0.38,0.05 v 0 l -0.36,0.07 c -0.17,0 -0.34,0.03 -0.48,0.03 h -0.39 l 0.48,-0.07 -0.36,0.07 c -0.31,0.05 -0.6,0.05 -0.91,0.02 l -0.43,-0.09 0.41,0.07 -0.29,-0.03 c -0.17,0 -0.29,0 -0.43,-0.04 l -0.41,-0.05 0.38,0.02 H 426 c -0.12,0 -0.26,0 -0.41,-0.02 l -0.43,-0.07 c -0.24,-0.03 -0.43,-0.08 -0.67,-0.17 l -0.31,-0.15 0.69,0.2 -0.45,-0.05 c -0.22,-0.07 -0.46,-0.12 -0.65,-0.22 l -0.34,-0.12 0.17,0.07 -0.38,-0.12 c -0.12,-0.07 -0.24,-0.09 -0.36,-0.19 l -0.39,-0.17 0.24,0.12 -0.33,-0.16 -0.22,-0.08 -0.36,-0.19 c -0.17,-0.09 -0.36,-0.21 -0.5,-0.33 l -0.34,-0.27 0.34,0.24 -0.29,-0.21 v 0 l -0.34,-0.17 c -0.09,-0.07 -0.21,-0.15 -0.31,-0.22 l -0.29,-0.26 -0.14,-0.12 -0.7,-0.63 0.12,0.08 -0.33,-0.24 c -0.15,-0.15 -0.29,-0.29 -0.41,-0.48 l -0.24,-0.29 v 0 l -0.24,-0.34 c -0.1,-0.09 -0.17,-0.21 -0.22,-0.33 l -0.19,-0.29 0.22,0.33 -0.24,-0.33 c -0.1,-0.1 -0.15,-0.22 -0.22,-0.34 l -0.17,-0.29 -0.09,-0.19 -0.2,-0.38 0.1,0.17 -0.17,-0.29 c -0.09,-0.15 -0.17,-0.34 -0.21,-0.48 l -0.75,-2.26 -0.07,-0.19 -0.17,-0.77 -0.05,-0.02 -0.16,-0.82 -0.03,-0.14 -0.21,-1.15 c -0.08,-0.24 -0.08,-0.51 -0.03,-0.77 l 0.05,-0.36 v 0 l 0.02,-0.36 v 0 l 0.08,-0.41 -0.03,0.07 0.03,-0.24 0.04,-0.26 0.05,-0.12 c 0.03,-0.19 0.07,-0.34 0.15,-0.53 l 0.02,-0.02 -0.17,0.48 0.03,-0.1 v -0.02 l 0.02,-0.12 c 0.12,-0.48 0.36,-0.94 0.74,-1.25 l 0.1,-0.1 -0.72,1.25 0.02,-0.12 c 0.12,-0.65 0.56,-1.22 1.16,-1.51 l 0.09,-0.07 -0.77,0.62 0.1,-0.07 c 0.19,-0.29 0.46,-0.48 0.72,-0.65 l 0.1,-0.02 -0.99,1.03 0.03,-0.07 c 0.04,-0.15 0.14,-0.27 0.24,-0.41 l 0.09,-0.1 c 0.17,-0.24 0.41,-0.45 0.72,-0.6 l 0.05,-0.02 v 0 l 0.1,-0.07 -0.7,0.6 0.07,-0.12 -0.21,0.38 v -0.02 c 0.21,-0.41 0.5,-0.75 0.91,-0.96 l 0.07,-0.05 c 0.12,-0.07 0.24,-0.12 0.41,-0.17 l 0.12,-0.02 -0.41,0.14 0.1,-0.02 c 0.5,-0.27 1.1,-0.29 1.63,-0.1 l 0.5,0.19 c 0.65,0.27 1.11,0.94 1.11,1.66 0,0.72 -0.46,1.34 -1.11,1.61 z"
         style="fill:#000000;fill-opacity:1;fill-rule:nonzero;stroke:none"
         transform="matrix(1.3333333,0,0,-1.3333333,0,1120.8)" />
    </g>
    <g
       id="g158"
       transform="matrix(1,0,0,0.96230284,-6.2606944,25.725572)">
      <path
         id="path158"
         d="m 477.12,328.39 0.05,0.1 c 0.41,0.62 0.41,1.41 0.02,2.04 l -0.14,0.24 0.02,-0.05 -0.02,0.05 -0.17,0.26 -0.05,0.05 c -0.05,0.12 -0.14,0.19 -0.26,0.29 l -0.05,0.07 c -0.1,0.07 -0.22,0.14 -0.34,0.24 l -0.07,0.02 h 0.05 l -0.17,0.05 0.17,-0.07 -0.12,0.07 -0.07,0.05 -0.1,0.07 c -0.17,0.12 -0.38,0.22 -0.55,0.29 l -0.36,0.12 0.55,-0.31 -0.19,0.14 c -0.12,0.1 -0.29,0.19 -0.41,0.24 l -0.72,0.31 -0.17,0.05 -0.74,0.29 0.19,-0.1 -0.17,0.1 c -0.19,0.07 -0.38,0.14 -0.6,0.17 l -0.5,0.09 -0.19,0.03 -0.46,0.07 h -0.19 l -0.34,0.02 h -0.24 l -0.69,-0.07 h -0.22 l -0.62,-0.07 -0.24,-0.05 -0.27,-0.05 -0.24,-0.07 -1.03,-0.31 0.22,0.05 -0.22,-0.03 v 0 l -0.05,-0.02 c -0.31,-0.07 -0.62,-0.22 -0.91,-0.41 l -0.05,-0.02 0.72,0.33 h -0.07 l 0.94,0.12 H 468 c -0.58,0.03 -1.15,-0.14 -1.63,-0.45 l -0.03,-0.03 0.27,0.15 -0.12,-0.05 -0.12,-0.07 -0.24,-0.12 -0.17,-0.12 -0.07,-0.03 v 0 l -0.03,-0.02 0.29,0.17 -0.05,-0.03 c -0.12,-0.07 -0.21,-0.12 -0.33,-0.19 l -0.03,-0.02 c -0.14,-0.12 -0.31,-0.24 -0.45,-0.36 l -0.03,-0.03 v -0.02 l -0.07,-0.05 0.46,0.36 -0.03,-0.02 c -0.19,-0.12 -0.33,-0.24 -0.48,-0.36 l -0.09,-0.12 c -0.12,-0.1 -0.22,-0.22 -0.29,-0.34 l -0.1,-0.12 0.46,0.48 -0.12,-0.12 -0.19,-0.14 -0.1,-0.1 0.22,0.19 -0.27,-0.21 -0.07,-0.05 -0.14,-0.12 -0.1,-0.1 -0.36,-0.36 c -0.07,-0.07 -0.17,-0.14 -0.24,-0.26 l -0.41,-0.48 0.05,0.05 -0.07,-0.12 c -0.17,-0.17 -0.31,-0.36 -0.41,-0.58 l -0.07,-0.14 0.07,0.14 -0.05,-0.12 -0.09,-0.12 -0.05,-0.14 -0.1,-0.17 -0.14,-0.41 c -0.07,-0.17 -0.12,-0.36 -0.19,-0.53 l -0.03,-0.14 0.05,0.17 -0.05,-0.17 c -0.02,-0.17 -0.07,-0.34 -0.09,-0.48 v -0.19 l 0.02,0.24 -0.02,-0.15 -0.03,-0.24 -0.02,-0.19 -0.05,-0.26 v -0.17 0 -0.19 l 0.05,-0.27 v -0.19 0 l 0.02,-0.17 0.03,-0.31 0.09,-0.48 0.1,-0.26 0.05,-0.27 0.07,-0.19 0.14,-0.41 c 0.05,-0.14 0.12,-0.26 0.17,-0.38 l 0.07,-0.12 v 0 l 0.05,-0.12 c 0.1,-0.12 0.17,-0.24 0.24,-0.34 l 0.24,-0.33 0.17,-0.17 0.26,-0.34 c 0.12,-0.14 0.24,-0.26 0.39,-0.38 l 0.19,-0.12 -0.05,0.02 0.19,-0.14 0.27,-0.22 0.21,-0.12 0.05,-0.07 0.55,-0.29 0.22,-0.12 0.43,-0.21 0.19,-0.1 0.7,-0.26 0.19,-0.1 0.91,-0.29 0.12,-0.02 0.6,-0.17 0.12,-0.05 0.29,-0.07 -0.14,0.07 0.57,-0.19 v 0 l 0.17,-0.05 -0.05,0.03 0.15,-0.05 0.33,-0.07 0.17,-0.05 h 0.1 l 0.43,-0.07 h 0.02 l 0.46,-0.1 -0.07,0.05 0.26,-0.07 0.17,-0.03 0.38,-0.02 h -0.02 l 0.48,-0.1 -0.22,0.05 0.34,-0.07 0.17,-0.05 0.72,-0.07 0.19,-0.05 1.1,-0.07 h 0.1 l 0.72,-0.07 v 0 l 0.98,-0.03 c 0.15,-0.02 0.29,-0.02 0.44,0 l 0.64,0.03 h -0.26 0.1 c 0.31,0 0.64,0.07 0.98,0.14 l 0.1,0.05 -0.12,-0.05 0.12,0.05 0.28,0.07 0.08,0.05 -0.29,-0.1 0.09,0.03 c 0.44,0.12 0.8,0.31 1.11,0.55 l 0.07,0.05 -0.96,-0.51 0.1,0.03 c 0.14,0.07 0.28,0.12 0.4,0.19 l 0.1,0.02 c 0.12,0.05 0.24,0.15 0.36,0.22 l 0.22,0.12 0.19,0.14 0.07,0.05 -0.7,-0.38 0.1,0.02 c 0.22,0.1 0.38,0.22 0.58,0.34 l 0.07,0.07 -0.19,-0.17 0.07,0.07 c 0.19,0.1 0.33,0.22 0.48,0.36 l 0.24,0.17 -0.07,-0.05 0.02,0.03 c 0.22,0.14 0.38,0.36 0.53,0.57 l 0.05,0.05 -1.32,-1.08 0.02,0.05 c 0.82,0.31 1.42,0.98 1.7,1.75 l 0.03,0.07 -1.71,-1.77 h 0.03 c 0.79,0.33 1.41,0.98 1.73,1.77 v 0.05 l -0.2,-0.43 v 0.02 l -0.6,-0.79 0.03,0.07 c 0.36,0.34 0.65,0.75 0.81,1.2 l 0.03,0.05 c 0.09,0.24 0.17,0.48 0.19,0.72 v 0 l -0.19,-0.72 0.05,0.07 h -0.05 l 0.05,0.03 0.02,0.07 0.02,0.12 c 0.1,0.19 0.12,0.41 0.15,0.65 l 0.05,0.24 v -0.03 l 0.02,0.24 0.02,0.24 v 0.24 0 l 0.03,0.27 c 0,0.14 0,0.31 -0.03,0.45 l -0.02,0.53 v -0.05 l -0.02,0.46 c 0,0.12 -0.05,0.24 -0.08,0.36 l -0.16,1.03 -0.05,0.19 -0.05,0.17 0.05,-0.26 -0.03,0.21 -0.02,0.24 -0.07,0.22 c -0.03,0.17 -0.07,0.31 -0.15,0.5 l -0.24,0.6 -0.09,0.22 -0.07,0.19 0.28,-1.49 v 0.03 c 0.03,0.55 -0.09,1.05 -0.28,1.53 l -0.05,0.03 v -0.03 0.03 l 0.17,-0.39 v 0.03 c -0.17,0.48 -0.41,0.93 -0.72,1.29 l -0.05,0.03 0.72,-1.3 v 0.05 c -0.15,0.5 -0.41,0.98 -0.77,1.34 l -0.02,0.03 0.6,-0.89 v 0.02 c -0.17,0.34 -0.41,0.65 -0.65,0.94 l -0.03,0.02 v 0 l -0.02,0.03 0.62,-0.94 -0.02,0.05 c -0.14,0.36 -0.38,0.67 -0.67,0.96 l -0.05,0.05 0.02,-0.03 -0.02,0.05 v 0 l -0.07,0.05 0.05,-0.05 -0.05,0.05 -0.03,0.05 -0.02,0.02 0.6,-0.89 -0.02,0.05 c -0.08,0.12 -0.12,0.24 -0.2,0.36 l -0.02,0.07 v -0.02 l -0.07,0.12 -0.12,0.14 -0.24,0.36 -0.12,0.17 -0.15,0.19 c -0.09,0.12 -0.21,0.24 -0.33,0.36 l -0.17,0.17 v 0 l -0.19,0.17 -0.12,0.12 -0.39,0.36 c -0.12,0.07 -0.24,0.17 -0.38,0.26 l -0.19,0.12 c -0.15,0.1 -0.29,0.17 -0.41,0.24 l -0.58,0.27 0.12,-0.05 -0.36,0.17 h -0.02 l -0.43,0.21 0.41,-0.21 -0.2,0.12 c -0.12,0.09 -0.26,0.14 -0.38,0.24 l -0.24,0.09 -0.22,0.12 -0.48,0.22 -0.09,0.02 -0.27,0.1 0.96,-0.55 h -0.02 c -0.72,0.6 -1.63,0.86 -2.52,0.79 h -0.07 l 2.52,-0.79 -0.03,0.02 c -0.38,0.34 -0.86,0.58 -1.39,0.7 l -0.05,0.02 v 0 h -0.07 l 0.36,-0.07 h -0.02 c -0.12,0.02 -0.24,0.07 -0.36,0.12 h -0.03 c -0.19,0.02 -0.33,0.05 -0.5,0.07 h -0.12 c -0.41,0.05 -0.79,0 -1.15,-0.07 h -0.05 c -1.54,-0.41 -2.62,-1.78 -2.62,-3.36 0,-1.56 1.08,-2.95 2.62,-3.34 h 0.05 l 0.31,-0.07 0.12,-0.02 -0.84,0.24 h 0.05 l -0.53,0.31 0.02,-0.05 c 0.15,-0.12 0.34,-0.19 0.53,-0.29 l 0.05,-0.02 v 0 h 0.05 l -1.32,0.96 0.02,-0.05 c 0.6,-0.72 1.44,-1.15 2.38,-1.25 h 0.07 l -2.38,1.25 0.03,-0.02 c 0.31,-0.39 0.69,-0.7 1.15,-0.89 l 0.26,-0.17 0.22,-0.07 0.48,-0.19 -0.24,0.09 0.24,-0.12 -0.41,0.22 0.22,-0.12 c 0.12,-0.07 0.24,-0.17 0.36,-0.22 l 0.43,-0.21 h 0.02 l 0.36,-0.17 0.1,-0.07 0.55,-0.24 -0.31,0.19 0.19,-0.12 -0.43,0.29 0.38,-0.34 -0.07,0.07 0.19,-0.14 v 0 l 0.17,-0.17 -0.36,0.36 0.17,-0.17 -0.17,0.17 0.24,-0.31 -0.12,0.17 0.1,-0.12 0.09,-0.15 0.03,-0.02 -0.24,0.36 0.02,-0.07 c 0.19,-0.34 0.41,-0.6 0.67,-0.87 l 0.05,-0.02 0.05,-0.07 0.05,-0.03 -0.05,0.03 0.05,-0.03 v 0 l 0.07,-0.07 -0.07,0.07 0.07,-0.09 -0.6,0.84 v -0.03 c 0.17,-0.33 0.41,-0.62 0.65,-0.86 l 0.02,-0.05 v 0 l 0.05,-0.02 -0.65,0.86 v -0.02 c 0.19,-0.34 0.41,-0.63 0.67,-0.87 l 0.03,-0.02 -0.87,1.32 0.03,-0.05 c 0.19,-0.53 0.5,-1.01 0.93,-1.37 v -0.02 l -0.93,1.37 0.02,-0.03 c 0.07,-0.19 0.12,-0.33 0.22,-0.48 l 0.02,-0.07 v 0.05 -0.05 l -0.41,1.54 v -0.03 c 0.03,-0.55 0.15,-1.08 0.41,-1.56 l 0.12,-0.21 -0.12,0.21 0.31,-0.6 -0.07,0.15 0.07,-0.22 -0.07,0.22 0.07,-0.17 0.12,-0.34 0.05,-0.19 -0.14,0.43 0.31,-1.03 v -0.02 l 0.14,-0.46 -0.12,0.46 0.1,-0.53 -0.05,0.29 v -0.27 0 l 0.05,-0.24 v 0.22 -0.24 0 -0.24 l 0.12,0.89 -0.05,-0.1 v -0.05 l -0.02,-0.07 v 0.05 -0.07 c -0.12,-0.41 -0.15,-0.84 -0.12,-1.3 v 0 l 0.12,1.27 -0.03,-0.02 0.72,1.25 -0.02,-0.05 c -0.24,-0.24 -0.43,-0.55 -0.58,-0.89 l -0.02,-0.02 c -0.05,-0.12 -0.1,-0.24 -0.12,-0.36 l -0.05,-0.05 1.49,1.85 -0.02,-0.03 c -0.7,-0.38 -1.25,-1.05 -1.49,-1.82 v -0.07 l 1.49,1.87 -0.05,-0.05 c -0.48,-0.26 -0.84,-0.62 -1.13,-1.08 l -0.05,-0.02 0.29,0.36 v -0.03 l 0.19,0.24 -0.19,-0.19 0.29,0.24 -0.1,-0.05 -0.19,-0.19 -0.1,-0.07 0.56,0.38 -0.1,-0.02 c -0.17,-0.1 -0.29,-0.19 -0.43,-0.31 l -0.05,-0.05 0.19,0.14 -0.17,-0.12 0.29,0.17 -0.07,-0.02 0.41,0.19 -0.12,-0.07 c -0.34,-0.12 -0.65,-0.29 -0.94,-0.51 l -0.07,-0.09 1.08,0.6 -0.12,-0.03 -0.31,-0.12 -0.05,-0.02 0.29,0.07 -0.12,-0.02 -0.12,-0.03 -0.12,-0.02 1.01,0.17 -0.1,-0.03 h -0.34 l -0.67,-0.09 0.48,0.02 -1.01,0.05 v 0 l -0.72,0.02 h 0.1 l -1.13,0.05 h 0.22 l -0.72,0.1 0.19,-0.03 -0.34,0.05 -0.19,0.05 -0.48,0.05 h -0.05 l -0.38,0.02 h 0.14 l -0.31,0.05 -0.05,0.02 -0.45,0.05 0.02,-0.02 -0.41,0.07 h 0.05 l -0.17,0.02 0.34,-0.07 -0.17,0.05 -0.07,0.02 -0.17,0.03 v 0 l -0.55,0.14 -0.17,0.07 -0.29,0.05 0.12,-0.02 -0.62,0.14 0.12,-0.02 -0.89,0.26 0.17,-0.05 -0.7,0.24 0.17,-0.07 -0.43,0.22 0.24,-0.15 -0.55,0.29 -0.05,0.05 -0.19,0.12 0.31,-0.19 -0.22,0.12 -0.02,0.02 -0.19,0.12 0.5,-0.43 -0.29,0.31 0.17,-0.19 -0.24,0.29 0.19,-0.27 -0.07,0.12 v 0 l -0.05,0.12 0.22,-0.43 -0.19,0.43 0.07,-0.19 -0.1,0.29 0.12,-0.36 -0.12,0.48 0.05,-0.29 -0.02,0.19 v 0 0.17 -0.26 0.19 0 0.17 -0.29 0.17 l -0.03,-0.24 0.03,0.19 0.02,0.24 0.05,0.17 -0.1,-0.51 0.03,0.17 0.07,0.22 0.02,0.14 -0.19,-0.55 0.19,0.38 -0.09,-0.19 0.07,0.17 -0.07,-0.17 0.07,0.12 0.05,0.12 0.07,0.17 -0.41,-0.6 0.1,0.12 0.07,0.05 0.41,0.5 -0.27,-0.29 0.36,0.36 -0.09,-0.09 0.14,0.12 -0.07,-0.05 0.26,0.24 0.22,0.17 0.12,0.09 -0.19,-0.14 0.12,0.07 c 0.14,0.17 0.31,0.31 0.43,0.48 l 0.12,0.12 -0.29,-0.29 0.12,0.1 -0.43,-0.34 0.05,0.03 c 0.14,0.09 0.31,0.21 0.43,0.36 l 0.05,0.02 v 0.05 l 0.02,0.02 -0.43,-0.38 0.05,0.02 -0.29,-0.19 0.05,0.05 c 0.09,0.05 0.21,0.12 0.31,0.19 l 0.05,0.05 v 0 l 0.02,0.02 -0.14,-0.12 0.24,0.15 -0.17,-0.1 0.14,0.07 c 0.12,0.05 0.22,0.12 0.34,0.22 l 0.05,0.02 L 468,327 h 0.05 c 0.31,0 0.62,0.05 0.91,0.14 l 0.05,0.03 c 0.24,0.09 0.48,0.21 0.69,0.36 l 0.03,0.02 -0.89,-0.41 h 0.05 v 0 l 0.21,0.05 0.24,0.1 0.99,0.36 -0.22,-0.05 0.29,0.05 -0.19,-0.03 0.67,0.12 -0.24,-0.02 0.65,0.07 h 0.02 l 0.31,0.07 -0.26,-0.02 h 0.43 l -0.29,0.02 0.51,-0.07 -0.12,0.05 0.19,-0.05 h 0.02 l 0.82,-0.07 h 0.02 l 0.75,-0.07 c 0.31,-0.03 0.6,0 0.91,0.07 l 0.24,0.07 -0.67,-0.07 h 0.36 c 0.14,-0.05 0.26,0 0.43,0 l 0.14,0.02 -0.26,-0.02 0.14,0.02 -0.72,0.1 0.15,-0.07 c 0.24,-0.05 0.48,-0.1 0.72,-0.1 h 0.07 l -0.53,0.05 h 0.07 l -0.12,0.02 h 0.05 l -0.48,0.17 0.07,-0.02 0.12,-0.05 0.22,-0.12 c 0.41,-0.19 0.86,-0.24 1.27,-0.17 l 0.12,0.05 c 0.46,0.07 0.89,0.38 1.13,0.79 z"
         style="fill:#000000;fill-opacity:1;fill-rule:nonzero;stroke:none"
         transform="matrix(1.3333333,0,0,-1.3333333,0,1120.8)" />
    </g>
    <g
       id="g159"
       transform="matrix(1,0,0,0.96230284,-6.2606944,25.725572)">
      <path
         id="path159"
         d="m 478.08,321.89 -0.24,0.19 c -0.22,0.17 -0.46,0.31 -0.72,0.41 l -0.24,0.09 c -0.17,0.05 -0.31,0.1 -0.48,0.12 l -0.65,0.1 0.12,-0.05 -0.14,0.05 c -0.17,0.02 -0.36,0.05 -0.53,0.02 h -0.17 v 0 h -0.14 v 0 h -0.15 c -0.14,-0.02 -0.26,-0.02 -0.43,-0.07 l -0.31,-0.07 -0.17,-0.05 -0.19,-0.05 0.19,0.05 -0.05,-0.02 c -0.21,-0.03 -0.38,-0.1 -0.57,-0.17 l -0.05,-0.05 0.53,0.19 h -0.05 c -0.29,-0.07 -0.58,-0.19 -0.82,-0.33 l -0.07,-0.03 0.29,0.15 -0.07,-0.03 -0.27,-0.14 -0.02,-0.05 0.24,0.17 -0.07,-0.05 c -0.22,-0.07 -0.41,-0.24 -0.6,-0.38 l -0.15,-0.12 0.34,0.24 -0.07,-0.03 0.26,0.15 -0.05,-0.03 c -0.24,-0.12 -0.45,-0.26 -0.67,-0.45 l -0.02,-0.03 0.38,0.29 -0.02,-0.02 0.43,0.21 -0.19,-0.07 0.21,0.07 -0.24,-0.07 -0.31,-0.12 -0.05,-0.02 1.13,0.24 h -0.05 c -0.26,0 -0.57,-0.03 -0.84,-0.12 h -0.02 l 0.17,0.02 h -0.05 l -0.19,-0.02 -0.05,-0.03 0.17,0.03 h -0.05 v 0 h -0.07 c -0.29,-0.1 -0.6,-0.17 -0.84,-0.36 l -0.05,-0.03 h -0.05 l -0.12,-0.07 0.6,0.29 -0.17,-0.07 0.94,0.12 v 0 0 0 c -0.72,0.02 -1.44,-0.22 -1.97,-0.72 l -0.02,-0.03 1.94,0.75 h -0.02 c -0.72,0.02 -1.42,-0.24 -1.92,-0.72 l -0.03,-0.03 1.95,0.72 h -0.03 v 0 0 0 0 c -0.72,0.03 -1.41,-0.21 -1.94,-0.69 -0.53,-0.48 -0.84,-1.18 -0.84,-1.9 v 0 l 0.79,1.85 v 0 0 l -0.02,-0.05 0.69,0.48 h -0.02 c -0.12,-0.05 -0.24,-0.14 -0.36,-0.24 l -0.1,-0.02 0.24,0.12 -0.09,-0.03 0.21,0.1 -0.07,-0.05 -0.19,-0.07 -0.1,-0.07 0.53,0.24 -0.07,-0.03 -0.34,-0.12 -0.09,-0.02 0.36,0.12 -0.22,-0.07 0.1,0.02 -0.05,-0.02 0.84,0.09 h -0.1 c -0.21,0.03 -0.43,0 -0.67,-0.02 l -0.05,-0.05 c -0.31,-0.05 -0.57,-0.14 -0.84,-0.29 l -0.07,-0.02 0.7,0.26 h -0.05 v 0 l -0.05,-0.02 c -0.24,-0.07 -0.48,-0.17 -0.67,-0.29 l -0.07,-0.02 0.69,0.26 h -0.02 c -0.29,-0.05 -0.48,-0.14 -0.72,-0.29 L 469.75,321 c -0.14,-0.1 -0.26,-0.19 -0.41,-0.29 l -0.02,-0.02 0.67,0.43 -0.05,-0.05 c -0.26,-0.12 -0.48,-0.24 -0.69,-0.41 l -0.03,-0.02 c -0.14,-0.17 -0.26,-0.29 -0.38,-0.43 l -0.05,-0.05 0.48,0.5 -0.07,-0.09 -0.22,-0.17 -0.12,-0.12 0.77,0.53 h -0.02 c -0.24,-0.12 -0.48,-0.27 -0.65,-0.46 h -0.05 c -0.24,-0.19 -0.43,-0.48 -0.6,-0.74 l -0.02,-0.03 2.54,1.42 h -0.02 c -1.06,0.05 -2.04,-0.53 -2.55,-1.42 l -0.02,-0.02 c -0.19,-0.41 -0.31,-0.79 -0.34,-1.2 v -0.05 l 2.91,2.62 h -0.05 c -1.06,0.07 -2.04,-0.51 -2.57,-1.42 v -0.02 c -0.07,-0.15 -0.14,-0.27 -0.17,-0.39 l -0.02,-0.07 0.31,0.65 -0.02,-0.05 0.43,0.48 v -0.02 c -0.36,-0.29 -0.6,-0.7 -0.79,-1.11 v -0.07 l 0.69,1.08 -0.02,-0.02 v 0 l -0.05,-0.03 0.07,0.05 -0.02,-0.02 c -0.17,-0.15 -0.31,-0.29 -0.43,-0.48 l -0.03,-0.05 0.46,0.5 -0.05,-0.02 0.22,0.17 -0.05,-0.05 0.12,0.07 -0.07,-0.02 c -0.39,-0.27 -0.72,-0.6 -0.94,-1.06 l -0.02,-0.02 1.29,1.22 h -0.02 c -0.46,-0.24 -0.84,-0.53 -1.13,-0.96 l -0.05,-0.05 0.41,0.48 -0.02,-0.02 -0.03,-0.05 -0.02,-0.02 c -0.22,-0.22 -0.41,-0.46 -0.55,-0.7 v -0.02 l 0.14,0.26 -0.02,-0.05 -0.17,-0.31 -0.05,-0.05 0.29,0.41 -0.19,-0.24 -0.03,-0.02 -0.14,-0.17 -0.1,-0.17 -0.12,-0.14 c -0.07,-0.12 -0.12,-0.24 -0.19,-0.36 l -0.24,-0.48 -0.05,-0.12 -0.12,-0.34 -0.09,-0.19 -0.29,-1.03 0.12,0.33 -0.1,-0.19 -0.12,-0.26 -0.07,-0.17 v -0.05 l -0.12,-0.38 c -0.05,-0.12 -0.07,-0.24 -0.12,-0.36 l -0.02,-0.27 v 0 l -0.05,-0.28 -0.05,-0.15 -0.02,-0.24 -0.03,-0.24 -0.02,-0.62 v 0 l -0.05,-0.46 v -0.17 -1.15 0.07 -1.51 -0.05 -0.84 0.17 -0.57 0.07 l -0.02,-0.22 v -0.09 l -0.05,-1.76 v -0.19 -0.48 0 l 0.02,-0.38 v 0 -0.39 0.24 l -0.02,-0.81 0.02,0.24 -0.07,-0.46 c -0.02,-0.12 -0.02,-0.26 -0.02,-0.41 v -0.69 0 -0.51 l 0.02,0.36 -0.12,-1 v -0.03 l -0.05,-0.65 v 0.03 l -0.26,-2.47 0.02,0.21 -0.14,-0.77 0.02,0.05 -0.09,-0.38 0.07,0.24 -0.36,-1.35 v 0.05 l -0.1,-0.33 v -0.05 l -0.07,-0.15 -0.05,-0.33 -0.02,-0.15 -0.05,-0.31 -0.05,-0.48 0.03,0.22 -0.03,-0.19 -0.02,-0.15 -0.07,-0.57 v 0.07 l -0.1,-0.72 -0.02,-0.36 v -0.15 l 0.02,0.27 -0.02,-0.19 0.07,0.33 -0.1,-0.41 -0.02,-0.16 -0.1,-0.6 v 0 l -0.09,-0.44 v -0.07 l -0.05,-0.36 v -0.05 l -0.05,-0.31 0.07,0.36 -0.14,-0.6 0.02,0.1 -0.31,-1.18 -0.02,-0.17 -0.27,-1.36 v 0.04 l -0.26,-1.32 0.07,0.32 -0.07,-0.2 -0.07,-0.31 -0.17,-0.77 c -0.05,-0.12 -0.07,-0.24 -0.07,-0.4 l -0.03,-0.24 v 0.19 l -0.21,-1.3 v 0.03 l -0.05,-0.36 -0.05,-0.08 -0.02,-0.21 v 0.02 l -0.03,-0.19 -0.02,-0.31 -0.05,-0.41 v -0.14 l -0.05,-1.37 v -0.36 l 0.05,-1.27 v -0.1 l 0.05,-0.43 v 0.07 l 0.02,-0.31 V 279 l 0.03,-0.53 0.02,-0.26 0.05,-0.36 0.02,-0.12 0.17,-1.15 -0.02,0.26 v -0.17 c 0.02,-0.31 0.12,-0.62 0.21,-0.93 l 0.05,-0.12 -0.07,0.26 0.07,-0.36 0.07,-0.12 0.1,-0.31 -0.05,0.05 0.1,-0.22 c 0.02,-0.14 0.09,-0.29 0.14,-0.43 l 0.24,-0.55 v 0.02 l 0.19,-0.43 -0.02,0.14 0.05,-0.19 c 0.07,-0.17 0.14,-0.36 0.24,-0.5 l 0.12,-0.17 0.09,-0.17 0.1,-0.14 0.05,-0.05 0.31,-0.46 -0.05,0.05 0.34,-0.48 -0.63,2.09 v -0.05 c 0,-0.74 0.22,-1.49 0.65,-2.09 l 0.1,-0.19 -0.22,0.36 0.1,-0.17 c 0.09,-0.12 0.14,-0.24 0.24,-0.36 l 0.09,-0.14 0.15,-0.19 0.12,-0.17 0.12,-0.17 0.14,-0.12 -0.12,0.12 0.12,-0.14 0.12,-0.15 0.12,-0.14 c 0.12,-0.12 0.24,-0.24 0.36,-0.34 l 0.36,-0.33 c 0.24,-0.22 0.55,-0.39 0.84,-0.53 l 0.36,-0.19 -0.05,0.02 0.05,-0.02 c 0.17,-0.1 0.34,-0.15 0.48,-0.22 h 0.07 l -0.48,0.22 0.05,-0.05 v 0 l 0.07,-0.05 v 0 l 0.05,-0.02 -0.38,0.24 0.07,-0.03 -0.41,0.29 0.12,-0.12 0.17,-0.12 0.14,-0.12 0.15,-0.12 0.19,-0.12 v 0 l 0.14,-0.07 0.22,-0.17 0.43,-0.26 c 0.19,-0.12 0.36,-0.22 0.55,-0.27 l 0.15,-0.07 -0.27,0.12 0.15,-0.07 c 0.21,-0.1 0.38,-0.19 0.6,-0.24 l 0.19,-0.05 v 0 l 0.14,-0.05 0.15,-0.02 0.43,-0.12 h 0.07 l 0.6,-0.17 -0.17,0.05 0.24,-0.07 0.24,-0.05 0.53,-0.12 c 0.17,-0.05 0.34,-0.07 0.48,-0.07 l 2.95,-0.24 c 0.15,0 0.27,0 0.41,0 h 0.46 l 0.26,0.02 1.27,0.12 c 0.12,0.05 0.27,0.05 0.39,0.07 l 1.15,0.24 c 0.17,0.05 0.36,0.12 0.53,0.17 l 1.85,0.7 0.04,0.02 0.51,0.22 0.24,0.09 1.01,0.46 -0.44,-0.17 0.12,0.05 c 0.15,0.05 0.34,0.12 0.48,0.19 l 0.1,0.07 c 0.22,0.1 0.38,0.22 0.58,0.34 l 0.04,0.05 -1.05,-0.58 0.09,0.05 c 0.27,0.07 0.51,0.19 0.75,0.36 l 0.09,0.05 c 0.12,0.09 0.27,0.19 0.39,0.26 l 0.09,0.07 c 0.1,0.1 0.22,0.17 0.32,0.29 l 0.04,0.07 -0.72,-0.57 0.1,0.07 c 0.14,0.05 0.26,0.17 0.38,0.26 l 0.1,0.05 c 0.12,0.1 0.22,0.19 0.29,0.29 l 0.07,0.07 c 0.12,0.1 0.22,0.19 0.26,0.31 l 0.1,0.1 -0.26,-0.34 0.04,0.1 V 270 l 0.08,0.1 c 0.16,0.19 0.36,0.38 0.48,0.6 l 0.12,0.19 c 0.07,0.14 0.16,0.29 0.24,0.48 l 0.07,0.19 c 0.84,1.85 0.05,4.03 -1.8,4.9 -1.85,0.84 -4.03,0.07 -4.92,-1.8 l -0.07,-0.22 0.19,0.43 -0.07,-0.19 0.5,0.67 -0.07,-0.07 v 0 l -0.05,-0.07 c -0.12,-0.1 -0.22,-0.19 -0.31,-0.31 l -0.05,-0.05 0.26,0.29 -0.04,-0.05 0.28,0.26 -0.04,-0.09 0.38,0.31 -0.07,-0.07 c -0.27,-0.15 -0.51,-0.34 -0.72,-0.53 l -0.05,-0.07 0.29,0.26 -0.07,-0.05 0.4,0.27 -0.09,-0.03 0.77,0.34 -0.1,-0.05 c -0.38,-0.14 -0.74,-0.31 -1.08,-0.55 l -0.07,-0.05 0.57,0.34 -0.09,-0.03 0.48,0.17 -0.07,-0.02 c -0.17,-0.03 -0.32,-0.1 -0.46,-0.17 l -0.96,-0.46 0.24,0.1 -0.55,-0.22 0.07,0.03 -1.87,-0.7 0.55,0.17 -1.15,-0.24 0.43,0.05 -1.27,-0.12 0.24,0.02 -0.48,-0.02 h 0.43 l -2.95,0.21 0.48,-0.07 -0.51,0.12 0.24,-0.05 -0.21,0.05 -0.17,0.05 -0.6,0.14 0.05,-0.02 -0.41,0.12 0.12,-0.05 -0.17,0.05 v 0 l -0.17,0.05 0.6,-0.24 -0.14,0.09 -0.29,0.12 -0.17,0.05 0.58,-0.26 -0.46,0.26 0.17,-0.12 -0.14,0.12 v 0 l -0.15,0.1 0.12,-0.1 -0.12,0.1 0.15,-0.12 -0.12,0.12 c -0.12,0.09 -0.24,0.19 -0.39,0.26 l -0.02,0.05 c -0.17,0.07 -0.29,0.17 -0.43,0.24 l -0.05,0.02 v 0 l -0.07,0.03 v 0 l -0.05,0.02 c -0.19,0.1 -0.34,0.17 -0.53,0.22 l -0.02,0.02 0.48,-0.19 -0.05,0.02 -0.07,0.03 -0.36,0.19 0.81,-0.55 -0.36,0.31 0.36,-0.34 -0.14,0.15 0.14,-0.15 -0.14,0.15 -0.12,0.14 -0.12,0.17 0.12,-0.17 -0.12,0.17 0.12,-0.19 -0.1,0.14 0.22,-0.31 -0.1,0.17 c -0.09,0.12 -0.14,0.24 -0.24,0.33 l -0.12,0.17 0.7,-2.16 v 0.05 c 0,0.74 -0.22,1.46 -0.65,2.09 l -0.36,0.48 -0.02,0.07 -0.29,0.41 0.05,-0.05 -0.1,0.12 0.1,-0.17 -0.1,0.19 0.24,-0.55 -0.05,0.17 -0.07,0.14 -0.17,0.41 -0.02,0.05 -0.24,0.53 0.17,-0.41 -0.1,0.19 v 0.1 l -0.12,0.33 0.07,-0.19 -0.12,0.34 -0.09,0.33 -0.05,0.12 0.24,-0.93 -0.05,0.14 -0.02,0.24 -0.17,1.15 v -0.14 l -0.05,0.36 v -0.29 l -0.02,0.58 v -0.05 0.31 0.1 l -0.03,0.45 v -0.07 l -0.07,1.27 v -0.31 l 0.05,1.42 v -0.22 l 0.02,0.43 -0.02,-0.33 0.02,0.21 v 0.03 l 0.03,0.21 -0.03,-0.09 0.1,0.36 v 0.02 l 0.19,1.3 0.05,0.16 0.02,0.27 -0.07,-0.31 0.19,0.81 -0.07,-0.29 0.07,0.2 0.1,0.33 0.24,1.35 v 0 l 0.26,1.36 -0.02,-0.16 0.29,1.15 0.02,0.14 0.12,0.6 c 0.05,0.12 0.07,0.27 0.07,0.39 l 0.03,0.31 v -0.12 l 0.02,0.36 v 0.02 l 0.07,0.46 v 0.05 l 0.05,0.57 -0.02,-0.24 0.09,0.43 c 0,0.15 0.03,0.29 0.03,0.44 l 0.02,0.19 v 0.33 l -0.02,0.15 v -0.46 l 0.07,0.72 0.02,0.12 0.03,0.58 v 0.21 0.2 -0.12 0.48 0.09 0.19 -0.31 0.19 l -0.05,-0.43 0.07,0.34 0.05,0.21 0.19,1.37 v 0 l 0.07,0.39 v 0.04 l 0.12,0.8 v 0.21 l 0.17,2.5 0.05,0.09 0.02,0.65 v -0.02 l 0.03,1.01 v 0.33 0.55 -0.04 l -0.03,0.69 v -0.21 0.45 0.1 0.77 c 0,0.16 0,0.31 -0.02,0.43 l -0.07,0.38 v 0.03 l -0.05,0.4 v 0.12 l -0.1,0.44 0.03,-0.32 -0.12,1.76 v -0.03 0.22 l -0.03,0.12 -0.07,0.57 v 0.08 l -0.12,0.84 0.05,-0.12 -0.17,1.48 v -0.12 l -0.02,1.11 v -0.19 0.45 -0.09 l 0.02,0.64 -0.02,-0.19 0.02,0.27 v -0.15 l 0.05,0.27 v 0 l 0.05,0.28 -0.12,-0.43 0.12,0.36 v 0.03 l 0.07,0.19 -0.1,-0.27 0.1,0.17 0.07,0.31 0.34,1.01 -0.05,-0.17 0.12,0.34 -0.07,-0.12 0.24,0.5 -0.12,-0.24 0.09,0.17 -0.19,-0.26 0.17,0.19 -0.05,-0.05 0.19,0.29 c 0.1,0.12 0.17,0.26 0.27,0.41 l 0.02,0.07 -0.17,-0.31 0.03,0.07 c 0.07,0.07 0.12,0.19 0.19,0.29 l 0.02,0.02 -0.55,-0.74 0.05,0.02 0.05,0.07 v 0 c 0.12,0.12 0.21,0.27 0.31,0.39 l 0.02,0.07 -1.03,-0.96 0.05,0.02 c 0.53,0.27 0.96,0.72 1.2,1.25 l 0.02,0.05 -0.96,-1.13 0.05,0.05 0.12,0.12 0.07,0.02 c 0.15,0.12 0.27,0.24 0.39,0.36 l 0.02,0.03 c 0.1,0.09 0.19,0.21 0.24,0.33 l 0.05,0.05 -0.29,-0.36 0.05,0.05 -0.07,-0.07 0.02,0.02 v 0 l 0.05,0.05 c 0.29,0.29 0.5,0.67 0.62,1.1 l 0.03,0.03 -0.58,-1.06 v 0.05 c 0.1,0.12 0.19,0.24 0.29,0.36 l 0.02,0.05 c 0.15,0.21 0.24,0.45 0.34,0.69 v 0.03 l -0.12,-0.34 v 0.05 l -2.4,-1.63 h 0.05 c 0.72,0.02 1.41,0.36 1.92,0.91 0.48,0.53 0.74,1.25 0.69,1.99 v 0.05 l -0.24,-1.3 0.03,0.03 -2.4,-1.61 h 0.02 c 1.06,0.05 1.99,0.67 2.4,1.61 v 0.02 l -0.41,-0.65 v 0 l -0.74,-0.6 0.05,0.03 c 0.33,0.19 0.62,0.45 0.86,0.74 l 0.1,0.17 -0.39,-0.43 0.1,0.07 c 0.19,0.19 0.41,0.41 0.55,0.67 l 0.05,0.05 -0.31,-0.41 0.02,0.05 -0.74,-0.6 0.07,0.02 c 0.29,0.15 0.53,0.36 0.74,0.6 l 0.03,0.03 -0.41,-0.39 0.02,0.03 -0.6,-0.34 h 0.05 c 0.22,0.1 0.43,0.22 0.6,0.36 l 0.05,0.05 -0.6,-0.36 0.05,0.02 h -0.03 l 0.05,0.03 c 0.22,0.09 0.43,0.21 0.6,0.33 l 0.07,0.03 -0.84,-0.41 0.05,0.02 -0.65,-0.12 h 0.1 c 0.29,0.03 0.55,0.1 0.86,0.22 h 0.03 l -0.17,-0.07 0.19,0.07 c 0.19,0.05 0.34,0.12 0.48,0.19 l 0.07,0.05 -0.36,-0.17 0.1,0.05 c 0.17,0.05 0.36,0.14 0.53,0.26 l 0.07,0.03 -0.17,-0.1 0.07,0.05 0.15,0.07 0.09,0.07 0.24,0.17 0.05,0.05 -0.43,-0.29 h 0.02 c 0.27,0.17 0.51,0.34 0.72,0.55 v 0 0 l 0.03,0.03 c 0.48,0.5 0.74,1.22 0.72,1.94 v 0 l -2.55,-2.76 v 0 0 0 0 h 0.03 c 0.69,0.05 1.34,0.34 1.82,0.84 h 0.05 l -1.87,-0.84 h 0.02 c 0.7,0.05 1.37,0.34 1.85,0.84 l 0.02,0.05 -1.82,-0.84 v 0 0 0 c 0.29,0 0.62,0.07 0.89,0.17 l 0.19,0.09 c 0.17,0.05 0.36,0.15 0.53,0.27 l 0.09,0.09 0.05,0.03 0.05,0.02 -0.82,-0.41 0.05,0.03 v 0 h 0.07 l 0.22,0.09 0.05,0.03 -0.24,-0.1 0.09,0.05 0.22,0.05 0.02,0.02 -0.84,-0.17 h 0.05 c 0.43,0.03 0.84,0.15 1.25,0.36 l 0.05,0.03 -0.39,-0.17 0.24,0.07 0.1,0.05 0.14,0.05 c 0.17,0.09 0.36,0.19 0.53,0.31 l 0.05,0.02 c 0.14,0.12 0.29,0.24 0.41,0.36 l 0.02,0.03 -0.67,-0.53 0.05,0.02 0.31,0.22 0.02,0.02 0.22,0.17 0.14,0.1 -0.5,-0.34 0.05,0.05 0.31,0.17 0.05,0.02 -0.29,-0.17 0.05,0.03 0.31,0.19 0.02,0.05 -0.81,-0.41 0.09,0.02 c 0.17,0.05 0.34,0.12 0.51,0.22 l 0.07,0.02 -0.53,-0.21 0.07,0.02 c 0.17,0.05 0.36,0.12 0.53,0.22 l 0.19,0.12 -0.36,-0.17 0.34,0.12 0.02,0.02 0.15,0.05 v 0 l 0.12,0.07 v 0 l 0.14,0.03 -0.5,-0.12 h 0.14 l 0.34,0.09 0.62,0.22 0.05,0.02 0.24,0.1 h 0.02 l 0.32,0.12 c 0.64,0.24 1.15,0.79 1.27,1.51 0.12,0.7 -0.12,1.42 -0.65,1.9 z"
         style="fill:#000000;fill-opacity:1;fill-rule:nonzero;stroke:none"
         transform="matrix(1.3333333,0,0,-1.3333333,0,1120.8)" />
    </g>
    <g
       id="g160"
       transform="matrix(1,0,0,0.96230284,-6.2606944,25.725572)">
      <path
         id="path160"
         d="m 478.44,324.53 -0.12,-0.15 c -0.26,-0.33 -0.38,-0.72 -0.38,-1.1 l 0.02,-0.12 v 0.24 l -0.02,-0.12 v -0.05 -0.12 -0.19 -0.12 -0.05 -0.07 l 0.02,-0.22 0.02,-0.12 v 0 l 0.03,-0.12 0.09,-0.33 0.12,-0.29 -0.02,0.12 v -0.07 0 l 0.17,-0.51 c 0.05,-0.14 0.09,-0.26 0.19,-0.38 l 0.12,-0.22 -0.12,0.27 0.12,-0.34 c 0.05,-0.14 0.12,-0.26 0.17,-0.38 l 0.53,-0.75 -0.08,0.12 0.22,-0.36 0.02,-0.09 0.08,-0.1 -0.17,0.29 0.07,-0.1 0.05,-0.14 0.07,-0.07 0.17,-0.29 0.07,-0.07 h -0.02 l 0.12,-0.15 -0.08,0.1 0.51,-0.77 0.09,-0.12 0.24,-0.29 -0.14,0.22 0.22,-0.34 0.02,-0.09 0.46,-0.7 v 0.05 l 0.28,-0.48 0.12,-0.19 0.75,-0.94 0.17,-0.17 0.14,-0.16 -0.36,0.45 0.12,-0.17 0.05,-0.09 0.29,-0.43 -0.08,0.09 0.32,-0.48 c 0.07,-0.17 0.19,-0.33 0.31,-0.45 l 0.07,-0.05 -0.31,0.38 0.07,-0.12 0.05,-0.05 0.09,-0.16 -0.12,0.21 0.08,-0.14 -0.12,0.29 0.12,-0.29 0.04,-0.12 0.2,-0.39 -0.05,0.05 0.24,-0.53 -0.05,0.12 0.46,-1.15 0.07,-0.21 0.19,-0.36 -0.1,0.24 0.15,-0.39 -0.05,0.12 0.34,-0.96 -0.1,0.39 0.17,-1.08 -0.03,0.07 0.12,-0.75 -0.02,0.2 0.02,-0.36 0.03,-0.15 0.05,-0.33 -0.05,0.4 v -0.36 0 -0.33 0.12 l -0.03,-0.34 0.03,0.19 -0.12,-0.76 v 0 l -0.03,-0.39 v 0.1 l -0.21,-1.15 0.09,0.33 -0.04,-0.17 v 0 l -0.05,-0.19 v 0.1 l -0.03,-0.19 0.08,0.24 -0.08,-0.15 v 0 l -0.14,-0.38 0.17,0.36 -0.12,-0.19 0.09,0.12 -0.33,-0.48 0.19,0.24 -0.14,-0.17 c -0.1,-0.12 -0.2,-0.22 -0.29,-0.36 l -0.12,-0.19 0.05,0.04 -0.24,-0.4 0.02,0.07 -0.38,-0.6 c -0.17,-0.22 -0.29,-0.48 -0.34,-0.72 l -0.02,-0.1 0.5,0.99 -0.07,-0.05 c -0.07,-0.15 -0.17,-0.27 -0.27,-0.43 l -0.02,-0.05 0.58,0.72 -0.08,-0.07 v 0 l -0.04,-0.03 v 0 l -0.05,-0.05 -0.05,-0.07 -0.14,-0.12 0.02,0.03 -0.26,-0.27 c -0.1,-0.09 -0.2,-0.17 -0.29,-0.26 l -0.03,-0.07 0.27,0.31 -0.03,-0.07 v 0 l -0.04,-0.03 0.12,0.12 -0.2,-0.17 -0.16,-0.16 -0.32,-0.27 -0.12,-0.14 -0.33,-0.34 0.09,0.1 -0.12,-0.15 -0.21,-0.21 -0.36,-0.43 v -0.03 l -0.07,-0.12 v 0 l -0.1,-0.09 0.34,0.33 -0.1,-0.09 -0.14,-0.12 -0.24,-0.24 0.14,0.12 -0.34,-0.29 -0.24,-0.24 -0.96,-1.08 0.15,0.14 -0.55,-0.57 0.07,0.09 -0.65,-0.6 -0.19,-0.21 -0.31,-0.32 0.19,0.2 -0.96,-0.87 -0.07,-0.09 -0.1,-0.08 0.17,0.15 -0.48,-0.39 -0.15,-0.12 -0.19,-0.19 v 0 l -0.17,-0.17 c -0.09,-0.09 -0.19,-0.21 -0.26,-0.31 l -0.17,-0.21 0.1,0.12 -0.17,-0.17 c -0.1,-0.1 -0.17,-0.22 -0.24,-0.31 l -0.31,-0.48 0.07,0.12 -0.19,-0.27 0.12,0.15 -0.53,-0.63 v 0 l -0.1,-0.12 -0.12,-0.14 -0.09,-0.15 -0.22,-0.31 -0.05,-0.12 0.29,0.46 -0.07,-0.12 c -0.17,-0.19 -0.31,-0.39 -0.41,-0.6 l -0.07,-0.15 0.05,0.12 -0.1,-0.16 -0.05,-0.12 -0.07,-0.15 -0.12,-0.26 -0.05,-0.12 -0.09,-0.24 -0.1,-0.34 0.05,0.15 -0.17,-0.48 0.07,0.16 -0.74,-1.75 -0.1,-0.21 -0.14,-0.41 0.05,0.14 -0.17,-0.38 -0.07,-0.22 -0.15,-0.41 -0.07,-0.21 -0.24,-0.87 -0.02,-0.19 -0.12,-0.65 v 0.05 l -0.05,-0.29 v 0.03 l -0.07,-0.27 -0.05,-0.21 -0.07,-0.31 c 0,-0.12 -0.03,-0.27 -0.03,-0.39 l -0.02,-0.62 v -0.12 l -0.05,-0.51 v -0.26 l 0.07,-1.03 0.03,-0.24 0.12,-1.13 v 0 l 0.02,-0.19 0.05,-0.19 0.07,-0.48 v -0.05 l 0.07,-0.24 0.03,-0.17 0.09,-0.43 0.1,-0.22 0.38,-1.32 c 0.05,-0.19 0.15,-0.36 0.24,-0.55 l 0.29,-0.6 -0.07,0.19 0.07,-0.19 0.12,-0.19 0.1,-0.19 -0.15,0.33 0.17,-0.48 0.05,-0.02 0.14,-0.34 -0.02,0.05 0.12,-0.29 c 0.05,-0.14 0.12,-0.26 0.17,-0.38 l 0.19,-0.31 0.05,-0.12 0.5,-0.89 v 0 l 0.22,-0.31 -0.03,0.07 0.05,-0.12 0.19,-0.31 0.1,-0.1 v 0 l 0.05,-0.12 -0.12,0.19 0.09,-0.14 c 0.1,-0.12 0.17,-0.24 0.27,-0.36 l 0.09,-0.1 0.22,-0.24 0.07,-0.09 -0.17,0.19 0.1,-0.1 c 0.17,-0.21 0.38,-0.43 0.6,-0.57 l 0.12,-0.05 -0.43,0.36 0.09,-0.12 c 0.1,-0.1 0.22,-0.19 0.34,-0.29 l 0.26,-0.19 0.15,-0.12 0.43,-0.31 -0.05,0.02 0.39,-0.24 0.07,-0.07 0.17,-0.1 -0.2,0.12 0.15,-0.09 c 0.17,-0.12 0.33,-0.24 0.53,-0.34 l 0.14,-0.07 v 0 l 0.17,-0.07 0.12,-0.1 0.17,-0.05 0.19,-0.09 0.19,-0.05 -0.22,0.07 0.15,-0.05 c 0.17,-0.07 0.31,-0.12 0.48,-0.19 l 0.19,-0.02 0.22,-0.05 0.16,-0.05 -0.33,0.07 0.19,-0.02 c 0.22,-0.07 0.46,-0.12 0.7,-0.17 h 0.16 -0.09 l 0.45,-0.02 c 0.12,-0.03 0.24,-0.03 0.36,-0.03 h 0.44 -0.36 0.16 l 0.34,-0.02 h 0.14 v 0 h 0.15 v 0 h 0.12 l 0.36,0.02 h 0.17 l 0.28,0.05 0.34,0.07 0.34,0.1 0.16,0.02 c 1.78,0.53 2.79,2.43 2.26,4.23 -0.55,1.77 -2.4,2.78 -4.2,2.25 l -0.14,-0.07 0.31,0.1 -0.31,-0.05 0.28,0.05 -0.16,-0.03 0.31,0.03 h -0.12 v 0 h -0.15 v 0 h -0.14 l 0.34,-0.03 -0.17,0.03 h -0.31 -0.44 l 0.39,-0.03 -0.43,0.05 h -0.1 l -0.19,0.05 0.69,-0.17 -0.16,0.07 -0.32,0.1 -0.14,0.02 0.22,-0.07 -0.2,0.07 0.48,-0.19 -0.14,0.07 -0.22,0.1 -0.16,0.05 0.24,-0.1 -0.17,0.07 0.12,-0.07 -0.15,0.1 v 0 l -0.14,0.07 0.5,-0.31 -0.12,0.09 -0.16,0.12 -0.12,0.1 0.07,-0.07 -0.36,0.24 v 0 l -0.43,0.33 0.14,-0.12 -0.31,0.24 0.31,-0.26 -0.1,0.07 c -0.12,0.12 -0.26,0.24 -0.4,0.36 l -0.12,0.07 0.6,-0.55 -0.1,0.12 -0.19,0.19 -0.07,0.1 0.19,-0.22 -0.07,0.1 0.26,-0.36 -0.1,0.12 -0.09,0.17 -0.07,0.12 v 0 l -0.1,0.09 0.17,-0.26 -0.05,0.07 -0.02,0.07 -0.2,0.34 v 0 l -0.52,0.89 0.04,-0.12 -0.16,0.33 0.16,-0.38 -0.12,0.31 -0.02,0.1 -0.14,0.33 v -0.02 l -0.2,0.43 c -0.04,0.12 -0.09,0.24 -0.14,0.34 l -0.12,0.19 0.12,-0.22 -0.1,0.17 -0.04,0.17 -0.34,0.6 0.24,-0.55 -0.43,1.29 0.07,-0.19 -0.12,0.46 0.02,-0.17 -0.04,0.24 v 0.05 l -0.1,0.48 v -0.03 l -0.07,0.22 0.05,-0.17 -0.2,1.13 0.03,-0.34 -0.05,1.06 v -0.15 0.51 -0.22 0.63 l -0.02,-0.32 0.04,0.32 -0.02,-0.2 0.05,0.29 v 0.03 l 0.07,0.31 v 0.02 l 0.12,0.67 -0.02,-0.19 0.19,0.91 -0.03,-0.12 0.12,0.41 -0.04,-0.21 0.14,0.43 v 0.02 l 0.14,0.43 -0.02,-0.12 0.7,1.8 0.04,0.2 0.15,0.52 0.05,0.12 0.07,0.32 v -0.03 l 0.05,0.12 -0.1,-0.26 0.05,0.14 -0.05,-0.14 0.05,0.14 0.07,0.15 0.05,0.16 -0.31,-0.64 0.07,0.12 c 0.12,0.19 0.21,0.36 0.31,0.52 l 0.05,0.15 -0.19,-0.39 0.07,0.15 -0.07,-0.12 0.07,0.12 -0.05,-0.1 0.48,0.67 c 0.1,0.15 0.17,0.29 0.26,0.44 l 0.15,0.31 -0.17,-0.31 0.29,0.48 -0.15,-0.24 0.15,0.19 0.09,0.14 0.15,0.19 -0.29,-0.33 0.17,0.17 v 0 l 0.19,0.19 -0.19,-0.19 0.48,0.43 0.12,0.14 0.09,0.1 -0.09,-0.1 0.96,0.87 c 0.09,0.09 0.19,0.19 0.29,0.31 l 0.28,0.36 -0.21,-0.24 0.65,0.62 0.07,0.1 0.55,0.57 0.14,0.17 0.92,1.11 -0.22,-0.24 0.29,0.33 0.12,0.12 0.24,0.24 h -0.03 l 0.1,0.1 c 0.12,0.12 0.22,0.24 0.29,0.38 l 0.09,0.12 v 0 l 0.08,0.1 -0.12,-0.15 0.31,0.41 -0.05,-0.05 0.12,0.15 v 0 l 0.29,0.36 -0.17,-0.19 0.29,0.31 -0.19,-0.22 0.16,0.15 0.24,0.24 0.08,0.07 v 0 l 0.02,0.05 c 0.1,0.09 0.17,0.19 0.26,0.31 l 0.03,0.05 -0.27,-0.32 0.27,0.27 -0.03,-0.03 0.12,0.15 0.08,0.05 0.04,0.04 v 0 l 0.03,0.05 v 0 l 0.07,0.07 c 0.22,0.2 0.36,0.48 0.48,0.75 l 0.02,0.05 -0.24,-0.44 0.03,0.05 c 0.24,0.31 0.41,0.67 0.45,1.06 l 0.03,0.05 -0.31,-0.87 0.31,0.6 v 0 l 0.24,0.39 0.05,0.07 0.12,0.21 -0.24,-0.4 0.12,0.19 0.14,0.21 0.34,0.51 0.14,0.29 0.1,0.19 0.04,0.14 0.2,0.39 0.02,0.09 0.05,0.15 0.07,0.24 0.05,0.16 v 0.05 l 0.07,0.19 v 0 l 0.02,0.17 0.08,0.27 0.14,1.15 v 0.09 l 0.05,0.36 v 0 l 0.09,0.75 v 0.24 l 0.03,0.33 v 0.15 l -0.03,0.33 v 0 0.36 c 0,0.15 0,0.27 -0.02,0.41 l -0.07,0.31 0.05,-0.16 -0.08,0.36 v 0.12 l -0.12,0.76 v 0.03 l -0.21,1.1 c -0.03,0.12 -0.05,0.24 -0.07,0.36 l -0.34,0.96 -0.07,0.15 -0.15,0.36 -0.09,0.21 -0.17,0.36 0.1,-0.17 -0.46,1.11 -0.1,0.17 -0.26,0.55 -0.07,0.12 -0.19,0.36 0.07,-0.15 -0.12,0.27 c -0.05,0.14 -0.15,0.26 -0.19,0.38 l -0.1,0.12 -0.14,0.17 -0.1,0.14 0.02,-0.07 -0.09,0.12 c -0.05,0.1 -0.15,0.19 -0.24,0.29 l -0.05,0.05 0.38,-0.48 -0.28,0.45 -0.05,0.05 -0.29,0.43 h 0.02 l -0.12,0.17 c -0.12,0.17 -0.24,0.31 -0.36,0.43 l -0.14,0.15 0.12,-0.15 -0.79,0.87 0.05,-0.03 -0.36,0.41 -0.05,0.07 -0.53,0.6 -0.22,0.17 -0.28,0.29 -0.22,0.17 -0.34,0.21 0.22,-0.19 -0.72,0.65 0.12,-0.1 -0.12,0.12 -0.22,0.17 -0.04,0.07 0.16,-0.19 -0.04,0.07 0.16,-0.21 -0.04,0.09 -0.17,0.17 -0.07,0.07 0.04,-0.07 -0.28,0.34 0.02,-0.03 -0.62,0.7 v 0.02 l -0.24,0.24 0.07,-0.09 -0.17,0.19 0.1,-0.1 -0.32,0.46 h -0.02 l -0.02,0.05 0.07,-0.12 -0.17,0.26 -0.07,0.12 -0.07,0.1 v 0 l -0.08,0.12 0.03,-0.05 -0.03,0.05 0.08,-0.1 -0.08,0.1 0.12,-0.27 -0.02,0.12 -0.02,0.05 -0.08,0.12 -0.09,0.19 -0.03,0.1 0.03,-0.1 -0.05,0.17 c -0.22,0.48 -0.67,0.82 -1.18,0.89 -0.5,0.05 -1,-0.17 -1.34,-0.55 z"
         style="fill:#000000;fill-opacity:1;fill-rule:nonzero;stroke:none"
         transform="matrix(1.3333333,0,0,-1.3333333,0,1120.8)" />
    </g>
    <g
       id="g161"
       transform="matrix(1,0,0,0.96230284,-6.2606944,25.725572)">
      <path
         id="path161"
         d="m 480.22,271.08 0.19,-0.19 c 0.09,-0.1 0.19,-0.19 0.31,-0.24 l 0.1,-0.1 c 0.14,-0.09 0.26,-0.14 0.4,-0.24 l 0.15,-0.07 0.12,-0.05 0.17,-0.02 c 0.26,-0.12 0.52,-0.19 0.84,-0.19 h 0.36 0.14 0.46 c 0.31,0 0.67,0.09 0.98,0.21 l 0.22,0.05 0.19,0.12 0.09,0.05 -1.22,-0.31 h 0.05 c 0.43,0 0.84,0.12 1.25,0.31 l 0.04,0.05 -0.33,-0.15 h 0.07 c 0.26,0.12 0.53,0.24 0.74,0.41 l 0.15,0.1 -0.72,-0.39 0.05,0.03 c 0.16,0.07 0.31,0.14 0.48,0.24 l 0.14,0.07 0.1,0.07 h 0.02 c 0.72,0.48 1.2,1.27 1.3,2.14 l 0.02,0.02 -1.32,-2.11 0.02,0.02 -2.08,-0.5 h 0.02 c 0.74,-0.1 1.49,0.07 2.09,0.5 h 0.05 c 0.6,0.41 1,1.01 1.2,1.71 h 0.02 l -1.22,-1.68 h 0.02 l -0.7,-0.36 0.03,0.02 c 0.17,0.07 0.31,0.12 0.48,0.22 l 0.05,0.02 0.19,0.12 0.05,0.05 -2.52,-0.43 h 0.02 c 0.86,-0.24 1.8,-0.1 2.54,0.43 l 0.03,0.02 v 0 h 0.05 l -1.06,-0.45 0.05,0.02 c 0.36,0.07 0.72,0.24 1.03,0.46 l 0.05,0.02 c 0.19,0.12 0.33,0.29 0.53,0.43 l 0.04,0.1 -0.33,-0.34 0.05,0.03 c 0.24,0.19 0.43,0.43 0.6,0.67 l 0.02,0.02 -1.58,-1.17 h 0.02 c 0.65,0.21 1.2,0.62 1.58,1.17 l 0.03,0.03 -1.59,-1.18 h 0.03 v 0 l 0.05,0.05 c 0.64,0.19 1.2,0.62 1.58,1.15 l 0.02,0.05 -1.32,-1.08 0.12,0.05 c 0.24,0.12 0.48,0.24 0.7,0.43 l 0.02,0.02 0.12,0.1 0.03,0.02 -2.64,-0.74 0.05,-0.05 c 0.91,-0.14 1.87,0.12 2.59,0.79 h 0.05 l -2.38,-0.79 v 0 c 1.78,-0.14 3.29,1.15 3.46,2.88 v 0.05 0 0 0 0.02 c 0.12,1.71 -1.13,3.22 -2.84,3.41 -1.7,0.19 -3.26,-1.01 -3.5,-2.71 -0.24,-1.68 0.94,-3.29 2.64,-3.58 v 0 c 0.96,-0.14 1.92,0.12 2.64,0.77 h 0.02 c 0.6,0.55 0.99,1.3 1.06,2.11 v 0.03 l -0.38,-1.25 0.02,0.02 -2.98,-1.65 v 0 c 1.78,-0.1 3.27,1.22 3.36,3 v 0 -0.15 0 0.22 0 0 0 c 0.1,1.27 -0.62,2.47 -1.8,3.05 -1.12,0.55 -2.52,0.36 -3.48,-0.51 -0.96,-0.84 -1.32,-2.23 -0.88,-3.43 0.4,-1.22 1.56,-2.06 2.8,-2.11 h 0.03 v 0 h 0.05 c 1.72,-0.1 3.24,1.22 3.36,3 v 0.02 l -1.13,-2.25 v 0.02 l 0.09,0.07 h 0.03 c 0.57,0.53 0.91,1.23 1.01,2.02 v 0 l -3.34,-2.83 h 0.02 -0.02 0.02 c 0.82,-0.05 1.64,0.21 2.26,0.74 v 0.05 l -2.23,-0.79 v 0 c 0.89,-0.03 1.73,0.26 2.35,0.84 l 0.02,0.02 -0.24,-0.19 0.03,0.02 -1.01,-0.5 h 0.02 l -1.22,-0.12 h 0.02 c 0.82,-0.1 1.59,0.14 2.26,0.62 v 0.03 h 0.02 v 0 0 l 0.03,0.02 v 0 0 l -2.52,-0.6 v 0 c 0.91,-0.17 1.85,0.07 2.57,0.6 v 0 c 0.62,0.48 1.08,1.2 1.22,1.99 v 0 l -0.43,-1.05 0.05,0.02 -3.41,-1.49 h 0.05 c 1.36,-0.26 2.76,0.36 3.43,1.59 l 0.05,0.07 -0.17,-0.22 0.21,0.29 c 0.15,0.22 0.24,0.43 0.34,0.67 l 0.02,0.05 -0.38,-0.72 0.05,0.1 c 0.21,0.31 0.36,0.62 0.48,0.96 v 0.09 l -0.07,-0.33 0.02,0.09 0.05,0.12 v 0.05 c 0.07,0.12 0.09,0.24 0.12,0.36 l 0.05,0.1 0.02,0.21 0.02,0.22 -0.02,-0.17 0.02,0.1 c 0.03,0.19 0.08,0.36 0.08,0.55 l 0.02,0.07 -0.19,-0.86 v 0.07 l -0.03,-0.17 0.03,0.1 c 0.07,0.14 0.12,0.33 0.17,0.48 l 0.02,0.12 -0.19,-0.53 0.09,0.17 -0.16,-0.36 0.02,0.07 c 0.05,0.07 0.12,0.19 0.17,0.31 v 0.07 c 0.17,0.36 0.24,0.72 0.29,1.11 v 0.07 l -0.44,-1.49 0.03,0.07 c 0.24,0.46 0.41,0.96 0.43,1.47 v 0.07 l -0.14,-0.82 0.02,0.05 c 0.05,0.22 0.12,0.43 0.14,0.6 v 0.19 l -0.02,-0.19 0.05,0.31 -0.03,-0.09 0.34,1.44 c 0.02,0.12 0.02,0.26 0.05,0.43 l 0.17,1.68 0.02,0.19 0.12,3.55 v 0.1 l 0.05,2.33 v 0 0.12 0.04 0.08 -0.03 l 0.05,1.06 -0.05,-0.24 0.17,1.37 v 0.19 l 0.07,1.77 v 0.15 0.24 -0.24 0.26 l -0.03,-0.24 0.1,0.6 -0.07,-0.33 0.07,0.21 -0.1,-0.24 0.1,0.22 -0.12,-0.34 0.05,0.19 v 0 l 0.09,0.2 v 0 l 0.1,0.19 -0.31,-0.58 0.12,0.19 0.12,0.2 0.09,0.19 -0.16,-0.27 0.28,0.41 -0.14,-0.21 0.1,0.16 -0.2,-0.24 0.2,0.2 -0.32,-0.29 0.22,0.17 -0.31,-0.24 0.33,0.24 -0.6,-0.32 0.24,0.08 -0.14,-0.05 0.53,0.21 -0.6,-0.16 0.19,0.04 0.14,0.03 0.22,0.05 -0.58,-0.12 0.2,0.04 h 0.02 l 0.14,0.03 -0.02,-0.03 0.17,0.03 h -0.43 l 0.43,-0.03 h 0.17 0.28 -0.26 0.17 -0.05 0.12 l 0.1,-0.04 h 0.14 l -0.67,0.12 0.41,-0.12 0.16,-0.03 0.44,-0.09 0.12,-0.03 0.14,-0.02 -0.55,0.14 0.19,-0.05 0.1,-0.07 0.14,-0.02 -0.1,0.02 0.2,-0.05 -0.24,0.08 0.14,-0.05 -0.14,0.05 0.14,-0.05 -0.12,0.05 0.12,-0.08 -0.24,0.15 0.14,-0.1 0.24,-0.14 0.15,-0.07 -0.53,0.36 0.34,-0.27 -0.48,0.46 0.07,-0.1 0.21,-0.21 0.1,-0.12 -0.38,0.48 0.19,-0.32 0.09,-0.09 0.15,-0.22 -0.12,0.15 0.6,-0.87 0.07,-0.05 0.05,-0.12 -0.36,0.63 0.07,-0.15 0.1,-0.16 0.04,-0.12 v 0 l 0.08,-0.12 -0.22,0.48 0.05,-0.15 -0.03,0.1 0.1,-0.31 0.02,-0.12 0.1,-0.2 0.02,-0.09 0.2,-0.51 v 0.03 l 0.07,-0.27 0.05,-0.12 0.12,-0.28 -0.1,0.28 0.05,-0.28 -0.05,0.31 0.05,-0.34 -0.03,0.27 0.1,-0.84 -0.02,0.4 0.07,-2.25 v 0.12 -0.07 -0.03 -0.84 0 -1.82 -0.17 l 0.07,-2.3 c 0.02,-0.15 0.02,-0.34 0.05,-0.48 l 0.05,-0.1 -0.08,0.43 0.08,-1.03 v 0.1 -0.7 -0.12 l 0.02,-0.26 v 0 -0.29 c 0.02,-0.17 0.02,-0.34 0.05,-0.48 l 0.17,-0.67 -0.05,0.02 0.17,-0.72 v 0 l 0.04,-0.41 c 0.03,-0.12 0.08,-0.24 0.1,-0.36 l 0.17,-0.67 0.05,-0.02 0.12,-0.48 0.07,-0.24 0.41,-1.06 c 0.04,-0.12 0.07,-0.24 0.14,-0.36 l 0.1,-0.14 0.14,-0.24 0.1,-0.17 v 0 l 0.07,-0.17 c 0.07,-0.12 0.17,-0.24 0.24,-0.36 l 0.36,-0.43 -0.15,0.17 0.39,-0.53 v -0.05 l 0.12,-0.14 -0.15,0.21 0.1,-0.14 c 0.12,-0.19 0.24,-0.36 0.38,-0.55 l 0.12,-0.12 0.03,-0.05 0.33,-0.34 c 0.15,-0.19 0.32,-0.33 0.51,-0.45 l 0.67,-0.51 c 0.1,-0.09 0.22,-0.19 0.34,-0.24 l 0.28,-0.14 c 0.22,-0.12 0.44,-0.24 0.68,-0.34 l 0.48,-0.14 c 0.36,-0.12 0.76,-0.19 1.2,-0.19 h 0.04 l -1.6,0.36 0.12,-0.05 c 1.8,-0.91 3.98,-0.17 4.89,1.63 0.89,1.8 0.17,4.01 -1.63,4.92 l -0.12,0.07 c -0.5,0.24 -1.08,0.39 -1.66,0.39 h -0.04 l 1.17,-0.22 -0.45,0.19 0.64,-0.31 -0.28,0.17 0.36,-0.24 -0.68,0.5 0.53,-0.48 -0.31,0.36 0.02,-0.07 -0.12,0.12 0.41,-0.5 -0.09,0.14 -0.15,0.22 -0.12,0.19 v 0 l -0.36,0.53 -0.12,0.12 -0.33,0.45 0.24,-0.36 -0.1,0.15 v 0 l -0.1,0.14 0.17,-0.24 -0.09,0.19 0.14,-0.33 -0.41,1.05 0.05,-0.19 -0.14,0.46 0.02,-0.03 -0.22,0.63 0.1,-0.39 -0.05,0.41 v -0.02 l -0.12,0.72 -0.05,0.02 -0.12,0.7 0.08,-0.48 -0.03,0.26 v 0 0.31 -0.12 0.7 l -0.05,0.05 -0.02,1.03 c 0,0.14 -0.02,0.29 -0.05,0.43 v 0.1 l 0.03,-0.48 -0.08,2.35 v -0.12 1.82 0 0.84 0.03 0.07 0.12 l -0.07,2.28 -0.05,0.33 -0.12,0.84 -0.02,0.24 -0.1,0.32 -0.04,0.28 -0.1,0.27 -0.1,0.29 -0.12,0.28 0.08,-0.09 -0.12,0.26 v 0.03 l -0.2,0.52 0.05,-0.09 -0.07,0.17 0.02,-0.08 -0.12,0.32 -0.02,0.12 -0.02,0.12 c -0.08,0.19 -0.12,0.33 -0.22,0.48 l -0.05,0.16 v 0 l -0.07,0.12 0.07,-0.16 -0.07,0.16 c -0.1,0.2 -0.22,0.41 -0.36,0.63 l -0.1,0.12 0.1,-0.1 -0.6,0.87 -0.12,0.16 -0.14,0.2 0.04,-0.08 -0.21,0.32 c -0.12,0.16 -0.27,0.33 -0.41,0.48 l -0.1,0.12 0.2,-0.2 -0.1,0.12 c -0.14,0.15 -0.31,0.29 -0.48,0.44 l -0.34,0.28 c -0.14,0.12 -0.33,0.24 -0.5,0.32 l -0.12,0.09 0.24,-0.14 -0.14,0.09 -0.24,0.15 -0.17,0.09 -0.15,0.08 -0.14,0.07 -0.14,0.09 -0.17,0.05 -0.24,0.1 -0.17,0.05 -0.1,0.04 -0.12,0.05 0.08,-0.02 -0.17,0.05 c -0.17,0.07 -0.36,0.12 -0.53,0.16 l -0.14,0.05 0.07,-0.02 -0.41,0.09 0.14,-0.04 -0.38,0.12 c -0.22,0.07 -0.43,0.09 -0.62,0.12 h -0.2 0.1 l -0.14,0.04 h -0.1 l -0.19,0.03 c -0.12,0 -0.24,0 -0.39,0 h -0.28 0.12 l -0.48,0.02 c -0.17,0 -0.32,0 -0.46,-0.02 h -0.19 -0.03 l -0.14,-0.03 h 0.02 -0.16 c -0.2,-0.04 -0.41,-0.07 -0.58,-0.12 l -0.19,-0.04 0.17,0.04 -0.17,-0.04 c -0.19,-0.03 -0.39,-0.08 -0.6,-0.17 l -0.53,-0.22 -0.12,-0.02 -0.24,-0.1 c -0.22,-0.12 -0.43,-0.21 -0.62,-0.36 l -0.36,-0.24 c -0.1,-0.09 -0.22,-0.14 -0.32,-0.24 l -0.24,-0.21 c -0.09,-0.08 -0.21,-0.17 -0.28,-0.29 l -0.22,-0.22 -0.19,-0.24 -0.12,-0.12 -0.15,-0.24 -0.28,-0.41 -0.17,-0.28 -0.12,-0.17 0.17,0.21 -0.12,-0.19 c -0.12,-0.17 -0.22,-0.36 -0.32,-0.53 l -0.09,-0.21 v 0 l -0.05,-0.19 v 0 l -0.1,-0.2 -0.12,-0.33 -0.04,-0.22 -0.1,-0.24 -0.02,-0.21 c -0.05,-0.12 -0.08,-0.24 -0.08,-0.39 l -0.09,-0.6 -0.03,-0.26 v -0.24 l -0.02,-0.24 0.02,-0.24 v 0.12 l -0.04,-1.78 v 0.15 l -0.1,-1.4 v -0.21 -1.08 -0.07 -0.08 -0.04 -0.12 0.07 -2.38 0.1 l -0.07,-3.58 v 0.03 l -0.03,-1.71 v 0.17 l -0.09,-1.46 v -0.17 l -0.03,-0.34 0.03,0.17 -0.03,-0.14 0.08,0.36 -0.05,-0.05 c -0.03,-0.31 -0.05,-0.58 -0.03,-0.84 v -0.07 l 0.27,1.53 -0.03,-0.07 c -0.21,-0.48 -0.28,-1.01 -0.26,-1.51 v -0.07 l 0.1,0.98 v -0.02 l 0.16,0.5 -0.02,-0.05 -0.1,-0.21 -0.04,-0.22 c -0.1,-0.24 -0.17,-0.48 -0.2,-0.74 l -0.02,-0.1 0.12,0.53 -0.02,-0.1 -0.1,-0.36 v -0.07 c -0.02,-0.24 -0.07,-0.48 -0.02,-0.72 v -0.07 0.53 -0.1 0 l -0.05,-0.19 v -0.07 -0.1 0.17 -0.07 l 0.07,0.36 v -0.1 c -0.07,-0.14 -0.1,-0.29 -0.1,-0.43 l -0.02,-0.1 0.34,1.11 -0.05,-0.1 c -0.17,-0.31 -0.27,-0.67 -0.31,-1.08 v -0.05 l 0.36,1.13 -0.2,-0.31 -0.09,-0.22 -0.03,-0.07 2.36,1.87 -0.05,-0.02 c -1.08,-0.19 -1.97,-0.94 -2.35,-1.97 l -0.05,-0.02 c -0.24,-0.58 -0.29,-1.2 -0.17,-1.83 v 0 l 0.62,2.55 h -0.02 l 1.97,1.2 v 0 c -0.79,-0.15 -1.49,-0.58 -1.97,-1.2 l -0.02,-0.03 v 0 -0.02 0.02 -0.02 h -0.05 v -0.05 l 2.25,1.27 h -0.02 c -0.58,-0.07 -1.15,-0.26 -1.58,-0.6 l -0.05,-0.02 c -0.24,-0.19 -0.48,-0.41 -0.65,-0.65 l -0.02,-0.02 0.19,0.24 -0.03,-0.03 2.19,1.01 v 0 c -0.87,-0.02 -1.71,-0.43 -2.28,-1.1 v -0.03 l 2.25,1.13 -0.02,-0.02 0.02,0.02 -0.02,-0.02 c -0.86,-0.03 -1.68,-0.41 -2.28,-1.11 -0.58,-0.67 -0.84,-1.56 -0.72,-2.42 v 0 l 0.82,2.52 v -0.05 l -0.1,-0.05 v -0.02 c -0.55,-0.65 -0.82,-1.44 -0.79,-2.26 v -0.02 c 0.09,-1.3 0.93,-2.4 2.13,-2.83 1.23,-0.46 2.6,-0.1 3.46,0.86 0.84,0.96 1.06,2.35 0.48,3.53 -0.55,1.15 -1.78,1.87 -3.02,1.8 h -0.05 v 0 h -0.03 c -1.72,-0.1 -3.09,-1.61 -3,-3.36 v 0 0 0 l 0.03,-0.22 v 0 l -0.03,0.15 v 0 c 0.1,-1.3 0.94,-2.4 2.14,-2.81 1.22,-0.43 2.57,-0.1 3.41,0.86 0.89,0.96 1.08,2.33 0.53,3.51 -0.58,1.17 -1.78,1.87 -3.08,1.8 v 0 c -1.17,-0.05 -2.2,-0.77 -2.73,-1.85 v -0.05 c -0.24,-0.5 -0.31,-1.03 -0.27,-1.58 v -0.03 l 0.8,2.4 v -0.02 l 1.82,1.01 v 0 c -1.66,-0.27 -2.78,-1.73 -2.64,-3.39 v -0.02 0 0 0 -0.05 c 0.1,-1.25 0.96,-2.35 2.18,-2.76 1.23,-0.38 2.55,0 3.39,1.01 0.84,0.98 1.01,2.35 0.41,3.5 -0.58,1.13 -1.8,1.8 -3.1,1.68 v 0 c -0.82,-0.07 -1.56,-0.43 -2.11,-1.05 h -0.03 l 1.88,1.03 h -0.05 c -0.72,-0.12 -1.35,-0.48 -1.83,-1.03 l -0.02,-0.03 -0.12,-0.12 v -0.02 l 0.94,0.77 -0.12,-0.05 c -0.7,-0.41 -1.2,-1.03 -1.44,-1.78 v -0.02 l 1.15,1.58 h -0.03 v 0 l -0.02,-0.02 c -0.55,-0.41 -0.96,-0.96 -1.18,-1.61 v -0.02 l 1.18,1.58 -0.02,-0.02 c -0.58,-0.39 -0.96,-0.96 -1.18,-1.59 l -0.02,-0.02 0.52,0.96 -0.02,-0.05 -0.14,-0.17 -0.08,-0.09 0.03,0.02 -0.03,-0.05 0.58,0.63 h -0.02 c -0.22,-0.22 -0.44,-0.41 -0.58,-0.63 l -0.02,-0.07 v 0 l -0.05,-0.02 1.75,1.22 h -0.02 c -0.7,-0.17 -1.32,-0.62 -1.76,-1.22 v -0.03 l 0.63,0.7 -0.03,-0.05 0.2,0.12 h -0.05 c -0.31,-0.19 -0.6,-0.5 -0.84,-0.84 v 0 c -0.51,-0.74 -0.65,-1.68 -0.41,-2.54 v 0 l 0.41,2.52 v 0 l 2.11,1.29 h -0.02 c -0.89,-0.12 -1.64,-0.6 -2.14,-1.32 v -0.02 c -0.43,-0.6 -0.6,-1.37 -0.5,-2.09 v -0.02 l 0.5,2.06 v 0 l -0.1,-0.12 -0.04,-0.12 c -0.12,-0.17 -0.2,-0.31 -0.29,-0.5 v 0 l 0.67,0.98 -0.12,-0.12 -0.07,-0.05 -0.03,-0.02 v 0 l -0.04,-0.07 0.86,0.62 -0.07,-0.02 c -0.31,-0.15 -0.6,-0.36 -0.84,-0.6 l -0.05,-0.05 c -0.24,-0.29 -0.46,-0.58 -0.58,-0.91 l -0.09,-0.22 0.89,1.18 -0.36,-0.29 0.43,0.29 -0.31,-0.15 c -0.2,-0.12 -0.36,-0.24 -0.56,-0.38 l -0.12,-0.1 0.27,0.22 -0.15,-0.1 -0.04,-0.07 -0.1,-0.05 c -0.12,-0.09 -0.22,-0.19 -0.31,-0.26 l -0.19,-0.19 c -0.41,-0.39 -0.6,-0.89 -0.6,-1.44 0,-0.53 0.19,-1.06 0.6,-1.42 z"
         style="fill:#000000;fill-opacity:1;fill-rule:nonzero;stroke:none"
         transform="matrix(1.3333333,0,0,-1.3333333,0,1120.8)" />
    </g>
  </g>
</svg>
