<?xml version="1.0" encoding="UTF-8" standalone="no"?>
<svg
   width="27.406466"
   height="24.615108"
   version="1.1"
   viewBox="0 0 27.406465 24.615109"
   id="svg10"
   sodipodi:docname="symbol.svg"
   inkscape:version="1.4.3 (0d15f75, 2025-12-25)"
   xmlns:inkscape="http://www.inkscape.org/namespaces/inkscape"
   xmlns:sodipodi="http://sodipodi.sourceforge.net/DTD/sodipodi-0.dtd"
   xmlns="http://www.w3.org/2000/svg"
   xmlns:svg="http://www.w3.org/2000/svg">
  <defs
     id="defs10" />
  <sodipodi:namedview
     id="namedview10"
     pagecolor="#ffffff"
     bordercolor="#000000"
     borderopacity="0.25"
     inkscape:showpageshadow="2"
     inkscape:pageopacity="0.0"
     inkscape:pagecheckerboard="0"
     inkscape:deskcolor="#d1d1d1"
     inkscape:zoom="4.7718636"
     inkscape:cx="22.108763"
     inkscape:cy="17.498405"
     inkscape:window-width="958"
     inkscape:window-height="1181"
     inkscape:window-x="952"
     inkscape:window-y="0"
     inkscape:window-maximized="0"
     inkscape:current-layer="g10" />
  <g
     transform="translate(-201.06782,-116.6651)"
     id="g10">
    <path
       transform="matrix(1.3333,0,0,-1.3333,0,1120.8)"
       d="m 152.64,750.24 0.02,0.02 c 0.08,0.05 0.12,0.12 0.2,0.2 v 0.04 l -0.56,-0.43 0.05,0.03 c 0.15,0.04 0.29,0.12 0.39,0.21 l 0.02,0.03 -0.02,-0.03 0.12,0.1 -0.03,-0.03 0.07,0.08 -0.07,-0.08 0.1,0.08 -0.1,-0.05 0.1,0.05 c 0.07,0.02 0.14,0.07 0.19,0.12 l 0.1,0.07 -0.24,-0.15 0.12,0.05 -0.08,-0.02 0.1,0.05 0.12,0.04 0.1,0.05 -0.17,-0.07 0.12,0.05 0.12,0.02 -0.07,-0.02 0.09,0.05 h 0.05 l 0.14,0.02 h -0.07 l 0.24,0.05 -0.29,-0.03 h 0.08 0.21 l 0.07,0.03 -0.19,-0.03 h 0.12 -0.02 0.29 l -0.17,0.03 0.09,-0.03 0.17,-0.02 h 0.05 l -0.14,0.02 0.12,-0.02 h -0.05 0.07 l -0.17,0.05 0.1,-0.03 c 0.05,-0.02 0.12,-0.04 0.17,-0.04 l 0.09,-0.03 -0.33,0.12 0.07,-0.05 c 0.12,-0.04 0.24,-0.09 0.38,-0.12 l 0.1,-0.02 -0.48,0.19 0.07,-0.05 0.12,-0.07 0.22,-0.09 h -0.03 l 0.15,-0.08 -0.1,0.05 0.14,-0.07 -0.07,0.02 0.12,-0.07 -0.07,0.05 0.12,-0.1 0.12,-0.07 h -0.02 l 0.12,-0.09 -0.17,0.19 0.07,-0.12 c 0.05,-0.05 0.1,-0.1 0.12,-0.15 l 0.1,-0.09 -0.05,0.07 0.12,-0.12 -0.15,0.19 0.08,-0.12 0.07,-0.09 0.07,-0.12 -0.07,0.09 0.07,-0.09 -0.02,0.04 0.07,-0.14 -0.05,0.1 0.17,-0.34 -0.05,0.1 0.1,-0.32 v 0.03 l 0.09,-0.31 -0.02,0.09 0.07,-0.29 -0.02,0.1 0.04,-0.34 v 0.05 l 0.1,-0.74 v 0.02 l 0.02,-0.38 v -0.05 l 0.08,-0.38 v -0.08 l 0.19,-0.88 0.05,-0.12 0.04,-0.17 v -0.03 l 0.05,-0.14 0.05,-0.12 0.12,-0.24 0.1,-0.12 0.19,-0.34 c 0.09,-0.16 0.24,-0.31 0.43,-0.4 l 0.05,-0.03 -0.19,0.12 0.04,-0.02 -0.12,0.12 0.05,-0.07 c 0.03,-0.05 0.07,-0.08 0.12,-0.12 l 0.03,-0.03 0.04,-0.02 0.05,-0.05 c 0.12,-0.1 0.29,-0.17 0.43,-0.22 l 0.05,-0.02 -0.6,0.41 0.03,-0.05 c 0.19,-0.22 0.43,-0.36 0.69,-0.41 l 0.07,-0.02 -0.33,0.12 0.05,-0.03 0.04,-0.02 c 0.1,-0.05 0.17,-0.1 0.27,-0.12 h 0.05 -0.03 l 0.12,-0.02 h -0.05 l 0.12,-0.05 c 0.08,-0.03 0.15,-0.03 0.22,-0.05 h 0.07 -0.07 l 0.12,-0.02 -0.05,0.02 0.1,-0.02 c 0.12,-0.05 0.21,-0.05 0.31,-0.05 h 0.12 -0.12 l 0.34,-0.03 c 0.07,-0.02 0.12,-0.02 0.19,0 l 0.38,0.03 0.39,0.02 h 0.07 l 0.41,0.07 h 0.02 l 0.36,0.05 0.1,0.03 0.86,0.19 h -0.05 l 1.3,0.26 -0.1,-0.02 0.24,0.05 h 0.07 l 0.24,0.04 -0.14,-0.02 0.26,0.02 -0.07,-0.02 h 0.6 l -0.09,0.02 0.31,-0.02 h -0.05 l 0.31,-0.05 -0.07,0.03 0.29,-0.08 h -0.03 l 0.34,-0.04 -0.1,0.02 0.84,-0.26 h -0.04 l 0.24,-0.1 -0.03,0.02 0.22,-0.09 -0.1,0.07 0.22,-0.12 0.21,-0.12 -0.09,0.05 0.21,-0.12 -0.04,0.02 0.55,-0.38 -0.07,0.05 0.14,-0.1 0.05,-0.05 0.14,-0.12 -0.05,0.05 0.15,-0.14 -0.05,0.04 0.14,-0.12 -0.04,0.08 0.12,-0.15 0.12,-0.12 -0.08,0.07 0.27,-0.31 -0.07,0.07 0.19,-0.26 -0.03,0.02 0.17,-0.26 -0.05,0.07 0.29,-0.55 -0.07,0.17 0.12,-0.29 v -0.02 l 0.1,-0.27 -0.05,0.12 0.07,-0.26 0.07,-0.27 0.07,-0.26 -0.02,0.17 0.05,-0.72 v 0.14 l -0.1,-2.13 0.03,0.04 -0.08,-1.05 v -0.03 l -0.04,-1.05 c -0.03,-0.43 0.19,-0.82 0.55,-1.06 0.36,-0.21 0.81,-0.24 1.2,-0.02 0.36,0.19 0.6,0.57 0.6,1.01 l 0.05,1.05 v -0.05 l 0.07,1.04 v 0.02 l 0.07,2.14 v 0.16 l -0.07,0.72 c 0,0.05 0,0.1 -0.03,0.17 l -0.07,0.27 v 0.02 l -0.07,0.26 -0.07,0.27 -0.03,0.14 -0.12,0.27 0.03,-0.03 -0.12,0.29 -0.05,0.14 -0.31,0.56 -0.03,0.07 -0.19,0.29 v 0.02 l -0.17,0.24 -0.07,0.07 -0.24,0.34 -0.31,0.31 -0.05,0.07 -0.14,0.12 -0.05,0.05 -0.17,0.12 -0.05,0.05 -0.14,0.12 0.05,-0.05 -0.12,0.12 -0.1,0.05 -0.55,0.38 -0.05,0.05 -0.21,0.12 -0.08,0.05 -0.24,0.12 -0.21,0.12 -0.12,0.05 -0.22,0.07 -0.02,0.02 -0.24,0.07 -0.05,0.03 -0.84,0.26 -0.1,0.03 -0.33,0.07 h -0.03 l -0.28,0.07 h -0.08 l -0.33,0.05 h -0.03 l -0.31,0.02 -0.12,0.03 h -0.6 l -0.07,-0.03 h -0.24 l -0.14,-0.02 -0.24,-0.05 0.04,0.02 -0.24,-0.02 -0.09,-0.02 -1.3,-0.27 h -0.02 l -0.84,-0.21 0.07,0.02 -0.36,-0.05 -0.38,-0.07 0.04,0.02 -0.36,-0.02 -0.38,-0.02 0.19,-0.03 -0.33,0.05 h -0.22 l 0.34,-0.05 -0.12,0.03 -0.03,0.02 -0.12,0.02 h -0.09 l -0.08,0.03 0.2,-0.05 -0.12,0.05 h -0.05 l -0.12,0.05 -0.05,0.02 h -0.05 l 0.27,-0.1 -0.05,0.03 h -0.03 l -0.02,0.02 c -0.12,0.05 -0.24,0.1 -0.34,0.12 l -0.07,0.03 0.67,-0.44 -0.02,0.05 c -0.17,0.19 -0.36,0.34 -0.6,0.41 h -0.07 l 0.43,-0.22 -0.02,0.05 -0.05,0.03 -0.03,0.02 0.12,-0.12 -0.04,0.05 c -0.05,0.05 -0.1,0.09 -0.12,0.12 l -0.05,0.05 c -0.05,0.02 -0.12,0.07 -0.17,0.12 l -0.07,0.02 0.45,-0.43 -0.19,0.31 -0.09,0.14 0.04,-0.09 -0.04,0.14 0.02,-0.12 -0.02,0.15 v -0.03 l -0.05,0.15 0.02,-0.12 -0.19,0.88 0.02,-0.09 -0.04,0.38 v -0.05 l -0.03,0.39 v 0.02 l -0.09,0.75 v 0.04 l -0.05,0.34 -0.03,0.07 -0.04,0.29 -0.05,0.12 -0.1,0.31 v 0.03 l -0.09,0.28 -0.05,0.1 -0.15,0.36 -0.04,0.05 -0.08,0.14 -0.02,0.05 -0.07,0.12 -0.07,0.1 -0.08,0.12 0.08,-0.12 -0.08,0.12 c -0.04,0.07 -0.09,0.12 -0.14,0.19 l -0.1,0.09 -0.04,0.08 -0.12,0.09 0.12,-0.14 -0.08,0.12 c -0.04,0.07 -0.12,0.14 -0.19,0.19 l -0.12,0.1 -0.09,0.09 -0.12,0.1 -0.08,0.05 -0.12,0.09 -0.04,0.05 -0.15,0.07 -0.09,0.05 -0.12,0.07 -0.05,0.03 -0.19,0.09 0.09,-0.05 -0.07,0.03 c -0.14,0.09 -0.31,0.14 -0.48,0.17 l -0.1,0.02 0.39,-0.12 -0.1,0.05 c -0.09,0.05 -0.21,0.09 -0.33,0.09 l -0.1,0.03 0.19,-0.05 -0.09,0.02 c -0.05,0.03 -0.12,0.03 -0.17,0.05 h -0.12 l -0.1,0.03 h -0.19 -0.05 0.17 l -0.1,0.02 h -0.45 0.02 -0.12 c -0.07,0 -0.12,-0.02 -0.19,-0.02 l -0.07,-0.03 0.17,0.03 h -0.08 c -0.09,0 -0.16,-0.03 -0.26,-0.05 L 153,753 l -0.07,-0.02 -0.15,-0.05 h 0.03 l -0.1,-0.03 -0.07,-0.02 -0.24,-0.1 c -0.05,0 -0.12,-0.04 -0.17,-0.07 l -0.12,-0.05 0.12,0.05 -0.09,-0.05 -0.05,-0.02 -0.12,-0.05 c -0.1,-0.05 -0.17,-0.09 -0.24,-0.17 l -0.1,-0.07 0.19,0.12 -0.09,-0.05 -0.1,-0.07 -0.12,-0.05 -0.36,-0.36 c -0.12,-0.12 -0.21,-0.28 -0.24,-0.48 l -0.02,-0.02 0.41,0.6 -0.05,-0.02 c -0.22,-0.2 -0.36,-0.44 -0.41,-0.7 l -0.02,-0.05 0.02,0.1 v -0.03 c -0.12,-0.48 0.07,-0.98 0.5,-1.22 0.41,-0.26 0.94,-0.22 1.3,0.12 z"
       id="path2" />
  </g>
</svg>
