<?xml version="1.0" encoding="UTF-8" standalone="no"?>
<!-- Created with Inkscape (http://www.inkscape.org/) -->

<svg
   version="1.1"
   id="svg1"
   width="32.056232"
   height="96.289696"
   viewBox="0 0 32.056232 96.289692"
   sodipodi:docname="word1.svg"
   inkscape:version="1.4.3 (0d15f75, 2025-12-25)"
   xmlns:inkscape="http://www.inkscape.org/namespaces/inkscape"
   xmlns:sodipodi="http://sodipodi.sourceforge.net/DTD/sodipodi-0.dtd"
   xmlns="http://www.w3.org/2000/svg"
   xmlns:svg="http://www.w3.org/2000/svg">
  <defs
     id="defs1">
    <clipPath
       clipPathUnits="userSpaceOnUse"
       id="clipPath2">
      <path
         d="M -3.0240001,1.27 H 45.408001 V -4.2020001 H -3.0240001 Z"
         clip-rule="evenodd"
         id="path2" />
    </clipPath>
    <clipPath
       clipPathUnits="userSpaceOnUse"
       id="clipPath4">
      <path
         d="M -3.0240001,1.2799975 H 40.032001 V -4.1920026 H -3.0240001 Z"
         clip-rule="evenodd"
         id="path4" />
    </clipPath>
    <clipPath
       clipPathUnits="userSpaceOnUse"
       id="clipPath6">
      <path
         d="M -3.0240001,1.2700025 H 35.160001 V -4.2019976 H -3.0240001 Z"
         clip-rule="evenodd"
         id="path6" />
    </clipPath>
    <clipPath
       clipPathUnits="userSpaceOnUse"
       id="clipPath8">
      <path
         d="M -3.0240001,1.2700025 H 35.160001 V -4.1779976 H -3.0240001 Z"
         clip-rule="evenodd"
         id="path8" />
    </clipPath>
    <clipPath
       clipPathUnits="userSpaceOnUse"
       id="clipPath10">
      <path
         d="M -3.0240001,1.27 H 102.556 V -4.2020001 H -3.0240001 Z"
         clip-rule="evenodd"
         id="path10" />
    </clipPath>
    <clipPath
       clipPathUnits="userSpaceOnUse"
       id="clipPath12">
      <path
         d="M -3.0240001,1.27 H 38.184001 V -4.2020001 H -3.0240001 Z"
         clip-rule="evenodd"
         id="path12" />
    </clipPath>
    <clipPath
       clipPathUnits="userSpaceOnUse"
       id="clipPath14">
      <path
         d="M -3.0240001,1.2700025 H 36.432001 V -4.2019976 H -3.0240001 Z"
         clip-rule="evenodd"
         id="path14" />
    </clipPath>
    <clipPath
       clipPathUnits="userSpaceOnUse"
       id="clipPath16">
      <path
         d="M -3.0240001,1.2799975 H 101.136 V -4.1920026 H -3.0240001 Z"
         clip-rule="evenodd"
         id="path16" />
    </clipPath>
    <clipPath
       clipPathUnits="userSpaceOnUse"
       id="clipPath18">
      <path
         d="M -3.0240001,1.2799975 H 36.432001 V -4.1920026 H -3.0240001 Z"
         clip-rule="evenodd"
         id="path18" />
    </clipPath>
    <clipPath
       clipPathUnits="userSpaceOnUse"
       id="clipPath20">
      <path
         d="M -3.0199976,1.2700025 H 36.412003 V -4.1779976 H -3.0199976 Z"
         clip-rule="evenodd"
         id="path20" />
    </clipPath>
    <clipPath
       clipPathUnits="userSpaceOnUse"
       id="clipPath312">
      <path
         d="M -3.0240001,2.2300001 H 43.056001 V -7.6820002 H -3.0240001 Z"
         clip-rule="evenodd"
         id="path312" />
    </clipPath>
    <clipPath
       clipPathUnits="userSpaceOnUse"
       id="clipPath314">
      <path
         d="M -3.0240001,1.1099998 H 42.768001 V -3.8580003 H -3.0240001 Z"
         clip-rule="evenodd"
         id="path314" />
    </clipPath>
    <clipPath
       clipPathUnits="userSpaceOnUse"
       id="clipPath316">
      <path
         d="M -3.0240001,1.1099998 H 19.152 V -3.8580003 H -3.0240001 Z"
         clip-rule="evenodd"
         id="path316" />
    </clipPath>
    <clipPath
       clipPathUnits="userSpaceOnUse"
       id="clipPath318">
      <path
         d="M -3.0240001,0.98400002 H 18.744 V -3.5040001 H -3.0240001 Z"
         clip-rule="evenodd"
         id="path318" />
    </clipPath>
    <clipPath
       clipPathUnits="userSpaceOnUse"
       id="clipPath320">
      <path
         d="M -92.016002,0.98400002 H 150.124 V -3.5040001 H -92.016002 Z"
         clip-rule="evenodd"
         id="path320" />
    </clipPath>
    <clipPath
       clipPathUnits="userSpaceOnUse"
       id="clipPath322">
      <path
         d="M -15.670003,0.98400002 H 6.1219977 V -3.5040001 H -15.670003 Z"
         clip-rule="evenodd"
         id="path322" />
    </clipPath>
  </defs>
  <sodipodi:namedview
     id="namedview1"
     pagecolor="#ffffff"
     bordercolor="#000000"
     borderopacity="0.25"
     inkscape:showpageshadow="2"
     inkscape:pageopacity="0.0"
     inkscape:pagecheckerboard="0"
     inkscape:deskcolor="#d1d1d1"
     inkscape:zoom="6.6452528"
     inkscape:cx="17.230345"
     inkscape:cy="44.166868"
     inkscape:window-width="1920"
     inkscape:window-height="1191"
     inkscape:window-x="-9"
     inkscape:window-y="-9"
     inkscape:window-maximized="1"
     inkscape:current-layer="g1">
    <inkscape:page
       x="0"
       y="0"
       inkscape:label="1"
       id="page1"
       width="32.056232"
       height="96.289696"
       margin="0"
       bleed="0" />
  </sodipodi:namedview>
  <g
     id="g1"
     inkscape:groupmode="layer"
     inkscape:label="1"
     transform="translate(-208.13043,-641.21698)">
    <g
       id="g278"
       transform="matrix(0.89625981,0,0,1,23.308152,1.3543503)">
      <path
         id="path278"
         d="m 160.75,358.63 0.53,-0.05 h 0.12 l 0.43,0.03 v 0 l 0.43,0.02 h -0.02 l 0.91,-0.02 h -0.02 0.57 -0.02 l 2.23,-0.1 v 0 l 2.28,-0.12 0.05,-0.02 h 1.68 -0.02 0.19 c 0.41,-0.03 0.79,0.19 0.98,0.55 0.22,0.36 0.22,0.82 0,1.18 -0.19,0.36 -0.57,0.55 -0.98,0.55 h -0.19 -0.03 l -1.68,-0.07 h 0.05 l -2.28,-0.03 h 0.02 -2.28 v 0 l -0.57,-0.02 h 0.02 -0.91 -0.07 l -0.46,-0.05 v 0 l -0.43,-0.02 h 0.1 l -0.56,0.02 c -0.48,0 -0.88,-0.38 -0.91,-0.86 -0.05,-0.51 0.34,-0.94 0.84,-0.99 z"
         style="fill:#000000;fill-opacity:1;fill-rule:nonzero;stroke:none"
         transform="matrix(1.3333333,0,0,-1.3333333,0,1120.8)" />
    </g>
    <g
       id="g279"
       transform="matrix(0.89625981,0,0,1,23.308152,1.3543503)">
      <path
         id="path279"
         d="m 169.56,359.69 0.02,-0.29 v 0.05 l -0.02,-0.6 v -0.03 l 0.02,-1.58 v -0.1 l 0.12,-1.05 0.03,-0.12 0.45,-1.75 v -0.1 l 0.87,-2.54 v -0.05 l 0.48,-1.37 0.02,-0.07 0.29,-0.67 v 0 l 1.37,-3.77 v -0.03 l 1.03,-2.49 0.02,-0.05 0.27,-0.53 -0.03,0.07 1.2,-2.76 -0.02,0.03 0.14,-0.34 -0.07,0.12 0.1,-0.36 0.02,-0.02 0.1,-0.29 -0.03,0.07 0.05,-0.36 v 0 l 0.07,-0.36 v 0.12 l 0.03,-0.36 v 0.05 l 0.02,-0.77 v 0.19 l -0.02,-0.24 c -0.1,-0.6 0.33,-1.15 0.93,-1.22 0.6,-0.07 1.16,0.36 1.23,0.91 l 0.05,0.24 c 0,0.07 0,0.12 0,0.19 l -0.05,0.77 v 0.07 l -0.03,0.36 -0.02,0.1 -0.07,0.36 v 0 l -0.05,0.36 -0.02,0.07 -0.1,0.34 0.02,-0.03 -0.12,0.36 -0.02,0.12 -0.12,0.34 v 0.05 l -1.25,2.76 v 0.02 l -0.24,0.53 v -0.07 l -1.01,2.47 0.03,-0.02 -1.42,3.74 v 0.02 l -0.26,0.72 v -0.02 l -0.51,1.37 v 0 l -0.93,2.57 0.02,-0.08 -0.53,1.76 0.03,-0.17 -0.12,1.05 v -0.12 l -0.05,1.59 v 0 0.6 0.17 l -0.07,0.26 c -0.05,0.5 -0.51,0.86 -1.01,0.82 -0.48,-0.08 -0.89,-0.48 -0.84,-1.01 z"
         style="fill:#000000;fill-opacity:1;fill-rule:nonzero;stroke:none"
         transform="matrix(1.3333333,0,0,-1.3333333,0,1120.8)" />
    </g>
    <g
       id="g280"
       transform="matrix(0.89625981,0,0,1,23.308152,1.3543503)">
      <path
         id="path280"
         d="m 160.25,358.44 0.57,-0.17 0.05,-0.02 0.94,-0.24 h 0.07 l 0.6,-0.12 h 0.12 l 0.12,-0.03 -0.24,0.05 0.12,-0.02 c 0.07,-0.05 0.17,-0.05 0.24,-0.05 l 0.14,-0.02 -0.43,0.12 0.12,-0.05 c 0.07,-0.05 0.17,-0.07 0.24,-0.1 l 0.36,-0.09 -0.31,0.14 0.07,-0.05 c 0.07,-0.05 0.17,-0.07 0.24,-0.09 l 0.12,-0.05 c 0.07,-0.03 0.15,-0.05 0.22,-0.05 h 0.09 l -0.48,0.17 0.05,-0.05 c 0.15,-0.07 0.31,-0.14 0.48,-0.14 l 0.1,-0.03 -0.07,0.03 0.24,-0.05 c 0.14,-0.03 0.28,0 0.45,0.02 l 0.07,0.03 c 0.41,0.12 0.72,0.43 0.84,0.84 0.1,0.38 -0.02,0.81 -0.36,1.1 -0.28,0.29 -0.72,0.36 -1.12,0.24 l -0.1,-0.02 0.48,0.04 -0.24,0.03 c -0.07,0 -0.12,0 -0.19,0 h -0.1 l 0.43,-0.05 h -0.07 c -0.12,0.05 -0.29,0.07 -0.41,0.05 h -0.09 0.26 -0.12 l 0.17,-0.03 -0.07,0.03 -0.1,0.02 -0.36,0.07 0.17,-0.04 -0.12,0.02 c -0.14,0.07 -0.29,0.1 -0.46,0.1 l -0.14,-0.03 0.24,-0.02 -0.12,0.05 c -0.1,0 -0.17,0 -0.24,0 h -0.12 0.14 l -0.6,0.02 v 0 l -0.96,0.1 h -0.02 l -0.62,0.02 c -0.44,0 -0.8,-0.29 -0.87,-0.72 -0.07,-0.41 0.17,-0.82 0.58,-0.96 z"
         style="fill:#000000;fill-opacity:1;fill-rule:nonzero;stroke:none"
         transform="matrix(1.3333333,0,0,-1.3333333,0,1120.8)" />
    </g>
    <g
       id="g281"
       transform="matrix(0.89625981,0,0,1,23.308152,1.3543503)">
      <path
         id="path281"
         d="m 164.54,358.82 -0.14,-0.36 -0.05,-0.14 -0.14,-0.7 -0.03,-0.12 -0.12,-1.77 v -0.07 -0.89 0 -0.89 -0.14 l 0.34,-1.97 v 0 l 0.24,-1.32 v 0 l 0.5,-2.52 0.03,-0.07 0.14,-0.53 v -0.07 l 0.19,-0.53 0.03,-0.07 0.67,-1.42 v -0.05 l 0.12,-0.17 v 0 l 0.07,-0.19 0.07,-0.14 0.12,-0.17 v 0 l 0.12,-0.19 c 0.05,-0.05 0.1,-0.12 0.15,-0.17 l 0.14,-0.17 h -0.02 l 0.38,-0.38 h 0.05 l 0.14,-0.17 c 0.27,-0.31 0.72,-0.43 1.11,-0.31 0.38,0.09 0.72,0.43 0.81,0.81 0.12,0.41 0,0.84 -0.31,1.13 l -0.14,0.17 0.02,-0.05 -0.38,0.41 -0.03,0.02 -0.14,0.15 0.12,-0.15 -0.12,0.17 v 0 l -0.12,0.19 0.05,-0.12 -0.1,0.17 v 0 l -0.07,0.19 0.02,-0.02 -0.69,1.42 0.02,-0.08 -0.19,0.48 0.02,-0.04 -0.19,0.5 0.05,-0.1 -0.58,2.5 h 0.03 l -0.27,1.3 v 0 l -0.38,1.92 0.02,-0.17 -0.07,0.91 v 0 l -0.05,0.86 v -0.09 l 0.05,1.77 v -0.09 l 0.1,0.69 v -0.09 l 0.09,0.36 c 0.12,0.45 -0.12,0.93 -0.57,1.08 -0.46,0.17 -0.94,-0.07 -1.11,-0.51 z"
         style="fill:#000000;fill-opacity:1;fill-rule:nonzero;stroke:none"
         transform="matrix(1.3333333,0,0,-1.3333333,0,1120.8)" />
    </g>
    <g
       id="g282"
       transform="matrix(0.89625981,0,0,1,23.308152,1.3543503)">
      <path
         id="path282"
         d="m 168.41,346.01 0.02,-0.05 -0.12,0.7 -0.05,-0.36 -0.02,-0.08 -0.12,-0.86 0.05,0.19 -0.15,-0.36 c -0.02,-0.05 -0.02,-0.14 -0.07,-0.24 l -0.07,-0.86 c -0.07,-0.39 0.12,-0.82 0.43,-1.06 0.34,-0.24 0.79,-0.26 1.15,-0.05 0.36,0.17 0.6,0.53 0.6,0.96 l 0.03,0.87 -0.03,-0.12 0.05,0.36 v 0.09 l 0.07,0.87 v 0.09 0.36 l -0.14,-0.5 0.02,0.05 c 0.27,0.43 0.22,0.96 -0.19,1.29 -0.36,0.34 -0.91,0.34 -1.27,0 -0.36,-0.33 -0.46,-0.86 -0.19,-1.29 z"
         style="fill:#000000;fill-opacity:1;fill-rule:nonzero;stroke:none"
         transform="matrix(1.3333333,0,0,-1.3333333,0,1120.8)" />
    </g>
    <g
       id="g283"
       transform="matrix(0.89625981,0,0,1,23.308152,1.3543503)">
      <path
         id="path283"
         d="m 166.9,359.33 -0.12,-0.12 c -0.27,-0.19 -0.39,-0.55 -0.27,-0.89 0.12,-0.31 0.43,-0.53 0.79,-0.5 0.34,0 0.65,0.24 0.75,0.55 l 0.02,0.17 c 0.1,0.31 -0.02,0.62 -0.29,0.81 -0.26,0.19 -0.62,0.17 -0.88,-0.02 z"
         style="fill:#000000;fill-opacity:1;fill-rule:nonzero;stroke:none"
         transform="matrix(1.3333333,0,0,-1.3333333,0,1120.8)" />
    </g>
    <g
       id="g284"
       transform="matrix(0.89625981,0,0,1,23.308152,1.3543503)">
      <path
         id="path284"
         d="m 166.08,346.92 -0.34,-0.22 c -0.09,-0.04 -0.14,-0.12 -0.21,-0.21 l -0.94,-1.08 -0.05,-0.05 -1.68,-2.4 -0.02,-0.05 -0.79,-1.15 -0.03,-0.07 -0.02,-0.05 v 0 l -1.51,-2.47 0.07,0.07 -0.36,-0.53 -0.05,-0.05 -0.07,-0.12 c -0.24,-0.36 -0.24,-0.81 -0.05,-1.17 0.22,-0.39 0.6,-0.6 1.03,-0.6 0.41,0 0.82,0.21 1.01,0.6 l 0.07,0.12 -0.02,-0.05 0.31,0.53 0.05,0.02 1.44,2.5 v 0 l 0.05,0.07 -0.03,-0.05 0.75,1.18 v 0 l 1.63,2.47 -0.05,-0.07 0.84,1.17 0.07,0.05 0.22,0.36 c 0.19,0.36 0.14,0.87 -0.19,1.15 -0.29,0.32 -0.77,0.34 -1.13,0.1 z"
         style="fill:#000000;fill-opacity:1;fill-rule:nonzero;stroke:none"
         transform="matrix(1.3333333,0,0,-1.3333333,0,1120.8)" />
    </g>
    <g
       id="g285"
       transform="matrix(0.89625981,0,0,1,23.308152,1.3543503)">
      <path
         id="path285"
         d="m 168.17,344.06 -0.15,-0.26 0.03,0.02 -0.75,-1.39 0.03,0.07 -2.09,-3.36 0.02,0.1 -0.26,-0.41 -0.05,-0.02 -0.12,-0.17 c -0.24,-0.36 -0.26,-0.82 -0.07,-1.2 0.17,-0.36 0.53,-0.65 0.96,-0.67 0.43,-0.03 0.84,0.19 1.08,0.55 l 0.12,0.17 v -0.03 l 0.26,0.39 0.05,0.09 1.99,3.41 0.05,0.12 0.65,1.42 0.02,0.09 0.1,0.29 c 0.17,0.48 -0.07,1.06 -0.55,1.27 -0.51,0.22 -1.08,0 -1.32,-0.48 z"
         style="fill:#000000;fill-opacity:1;fill-rule:nonzero;stroke:none"
         transform="matrix(1.3333333,0,0,-1.3333333,0,1120.8)" />
    </g>
    <g
       id="g286"
       transform="matrix(0.89625981,0,0,1,23.308152,1.3543503)">
      <path
         id="path286"
         d="m 159.29,338.59 -0.58,-0.02 c -0.55,-0.03 -1.01,-0.46 -1.08,-1.01 -0.02,-0.55 0.36,-1.06 0.91,-1.15 l 0.87,-0.17 c 0.09,-0.05 0.14,-0.05 0.24,-0.05 l 5.13,-0.07 h -0.07 l 1.18,-0.07 h 0.07 l 3.19,-0.05 v 0 h 0.34 c 0.5,0 0.98,0.26 1.22,0.72 0.29,0.43 0.29,0.98 0,1.44 -0.24,0.41 -0.72,0.72 -1.22,0.67 h -0.34 v 0 l -3.19,-0.02 v 0 l -1.18,-0.03 h -0.02 l -5.14,-0.14 h -0.07 l -0.89,-0.07 c -0.45,-0.03 -0.81,-0.34 -0.96,-0.75 -0.12,-0.43 0,-0.86 0.29,-1.17 0.34,-0.27 0.82,-0.36 1.2,-0.17 l 0.53,0.24 c 0.43,0.17 0.65,0.65 0.55,1.1 -0.12,0.48 -0.53,0.77 -0.98,0.77 z"
         style="fill:#000000;fill-opacity:1;fill-rule:nonzero;stroke:none"
         transform="matrix(1.3333333,0,0,-1.3333333,0,1120.8)" />
    </g>
    <g
       id="g287"
       transform="matrix(0.89625981,0,0,1,23.308152,1.3543503)">
      <path
         id="path287"
         d="m 168.26,346.3 v -0.56 -0.07 l 0.03,-0.14 c 0,-0.12 0.02,-0.24 0.09,-0.36 l 0.05,-0.15 -0.07,0.34 v -0.12 c 0.02,-0.12 0.05,-0.24 0.12,-0.36 l 0.12,-0.31 v 0.02 l 0.07,-0.24 c 0.05,-0.05 0.07,-0.12 0.1,-0.14 l 0.14,-0.27 0.1,-0.09 0.5,-0.7 v 0 l 0.17,-0.17 v 0 l 0.14,-0.19 c 0.05,-0.07 0.12,-0.12 0.17,-0.17 l 0.19,-0.19 h 0.03 l 0.48,-0.41 0.07,-0.02 1.75,-1.32 -0.02,0.02 1.56,-1.2 -0.12,0.12 0.21,-0.21 0.05,-0.05 0.22,-0.19 -0.03,0.02 0.22,-0.19 -0.17,0.14 0.19,-0.24 v 0.03 l 0.15,-0.22 0.07,-0.05 0.17,-0.24 -0.1,0.12 0.17,-0.24 v 0 l 0.14,-0.24 -0.07,0.15 0.34,-0.72 -0.1,0.21 0.19,-0.72 -0.02,0.17 0.02,-0.24 c 0.05,-0.43 0.34,-0.84 0.75,-1.01 0.43,-0.19 0.91,-0.12 1.27,0.15 0.36,0.26 0.58,0.69 0.5,1.15 l -0.02,0.24 c 0,0.05 0,0.12 -0.02,0.17 l -0.2,0.72 c -0.02,0.09 -0.04,0.14 -0.09,0.24 l -0.31,0.72 c -0.05,0.07 -0.08,0.12 -0.1,0.14 l -0.19,0.24 v 0 l -0.15,0.24 -0.09,0.12 -0.17,0.22 0.05,-0.05 -0.15,0.19 -0.02,0.05 -0.19,0.24 c -0.05,0.05 -0.1,0.12 -0.15,0.14 l -0.21,0.22 -0.05,0.02 -0.24,0.22 0.05,-0.07 -0.22,0.21 -0.12,0.1 -1.56,1.13 -0.02,0.02 -1.8,1.27 0.07,-0.02 -0.53,0.38 -0.05,0.03 -0.21,0.14 0.19,-0.14 -0.19,0.19 v 0 l -0.15,0.14 0.03,-0.02 -0.58,0.65 h -0.02 l -0.22,0.24 0.12,-0.12 -0.17,0.21 0.05,-0.07 -0.17,0.29 0.12,-0.22 -0.07,0.12 c -0.02,0.12 -0.05,0.22 -0.12,0.29 l -0.07,0.12 0.14,-0.31 -0.07,0.17 0.05,-0.1 -0.1,0.55 c -0.09,0.51 -0.55,0.84 -1.05,0.82 -0.51,-0.07 -0.89,-0.48 -0.87,-0.98 z"
         style="fill:#000000;fill-opacity:1;fill-rule:nonzero;stroke:none"
         transform="matrix(1.3333333,0,0,-1.3333333,0,1120.8)" />
    </g>
    <g
       id="g288">
      <path
         id="path288"
         d="m 165.05,331.94 -0.03,-0.19 C 165,331.7 165,331.63 165,331.56 l 0.02,-2.21 v -0.02 l 0.05,-2.14 0.05,-0.07 0.02,-0.31 -0.02,0.19 v -0.84 -0.05 -0.14 c 0,-0.41 0.19,-0.82 0.55,-1.01 0.36,-0.22 0.82,-0.22 1.18,0 0.36,0.19 0.57,0.6 0.57,1.01 v 0.14 -0.02 l 0.03,0.84 c 0,0.07 0,0.12 -0.03,0.19 l -0.02,0.29 v -0.1 l -0.12,2.14 v 0.02 l -0.22,2.21 c 0,0.12 -0.02,0.19 -0.09,0.29 l -0.05,0.19 c -0.19,0.38 -0.58,0.62 -1.03,0.55 -0.41,-0.02 -0.77,-0.36 -0.84,-0.77 z"
         style="fill:#000000;fill-opacity:1;fill-rule:nonzero;stroke:none"
         transform="matrix(1.3333333,0,0,-1.3333333,0,1120.8)" />
    </g>
    <g
       id="g289">
      <path
         id="path289"
         d="m 166.51,332.69 -0.05,0.02 c -0.31,0.12 -0.67,0.07 -0.91,-0.14 -0.26,-0.22 -0.38,-0.53 -0.31,-0.87 0.05,-0.33 0.29,-0.6 0.6,-0.69 l 0.02,-0.03 c 0.1,0 0.15,-0.02 0.22,-0.02 l 1.58,-0.19 v 0 l 1.59,-0.15 h 0.07 l 1.34,-0.07 h 0.03 0.14 c 0.6,0 1.08,0.48 1.08,1.08 0,0.58 -0.48,1.06 -1.08,1.06 h -0.14 0.02 l -1.32,0.02 v 0 l -1.58,0.07 h -0.03 -1.58 c -0.12,0.03 -0.22,0 -0.34,-0.02 l -0.02,-0.05 c -0.31,-0.07 -0.55,-0.36 -0.6,-0.67 -0.07,-0.34 0.05,-0.67 0.31,-0.89 0.24,-0.19 0.6,-0.26 0.91,-0.14 l 0.05,0.02 c 0.36,0.17 0.58,0.46 0.58,0.84 0,0.36 -0.22,0.7 -0.58,0.82 z"
         style="fill:#000000;fill-opacity:1;fill-rule:nonzero;stroke:none"
         transform="matrix(1.3333333,0,0,-1.3333333,0,1120.8)" />
    </g>
    <g
       id="g290">
      <path
         id="path290"
         d="m 169.99,331.8 -0.02,-0.17 c -0.03,-0.07 -0.03,-0.14 -0.03,-0.19 l 0.03,-2.23 v 0 l 0.07,-2.14 0.02,-0.12 0.03,-0.29 v 0.17 l -0.03,-0.84 v -0.02 -0.15 c 0,-0.43 0.22,-0.81 0.58,-0.98 0.36,-0.22 0.79,-0.22 1.15,0 0.36,0.17 0.58,0.55 0.58,0.98 v 0.15 0 l 0.02,0.81 c 0,0.05 0,0.12 -0.02,0.22 l -0.03,0.26 v -0.09 l -0.12,2.13 v 0.03 l -0.21,2.18 c 0,0.12 -0.03,0.24 -0.1,0.34 l -0.05,0.14 c -0.19,0.41 -0.57,0.65 -1.03,0.6 -0.41,-0.05 -0.77,-0.38 -0.84,-0.79 z"
         style="fill:#000000;fill-opacity:1;fill-rule:nonzero;stroke:none"
         transform="matrix(1.3333333,0,0,-1.3333333,0,1120.8)" />
    </g>
    <g
       id="g291">
      <path
         id="path291"
         d="m 166.85,326.57 -0.05,0.02 c -0.34,0.07 -0.7,-0.02 -0.91,-0.29 -0.24,-0.26 -0.29,-0.62 -0.15,-0.96 0.12,-0.31 0.41,-0.5 0.75,-0.55 h 0.07 v 0 l 1.58,-0.12 h 0.03 l 1.58,-0.05 h 0.07 1.35 0.07 0.12 c 0.6,0.05 1.03,0.58 0.98,1.13 -0.02,0.6 -0.55,1.06 -1.15,1.01 h -0.12 0.07 l -1.34,-0.05 v 0 l -1.63,-0.02 v 0 l -1.59,-0.05 c -0.14,0 -0.33,-0.07 -0.48,-0.17 h -0.02 c -0.41,-0.26 -0.55,-0.79 -0.31,-1.22 0.26,-0.41 0.81,-0.58 1.22,-0.36 l 0.07,0.02 c 0.34,0.19 0.51,0.55 0.48,0.91 -0.07,0.36 -0.33,0.65 -0.69,0.75 z"
         style="fill:#000000;fill-opacity:1;fill-rule:nonzero;stroke:none"
         transform="matrix(1.3333333,0,0,-1.3333333,0,1120.8)" />
    </g>
    <g
       id="g292">
      <path
         id="path292"
         d="m 169.46,320.06 -0.43,0.17 c -0.02,0.05 -0.07,0.05 -0.14,0.05 l -0.1,0.02 0.65,-0.45 -0.05,0.02 c -0.07,0.17 -0.19,0.31 -0.36,0.36 l -0.07,0.05 0.38,-0.36 v 0 c -0.09,0.17 -0.24,0.31 -0.38,0.41 l -0.07,0.02 c -0.05,0.05 -0.15,0.05 -0.22,0.07 h -0.02 v 0 l -0.05,0.03 h -0.07 l -0.05,0.02 0.26,-0.12 v 0.05 c -0.12,0.05 -0.26,0.07 -0.38,0.07 l -0.19,0.05 0.12,-0.05 -0.27,0.07 0.12,-0.02 -0.36,0.12 c -0.07,0.02 -0.12,0.02 -0.19,0.02 l -0.31,0.05 -0.1,0.05 -1.03,0.02 v 0 l -0.48,0.03 h -0.02 l -0.87,0.02 h -0.12 l -0.57,-0.02 h -0.05 l -0.94,-0.12 v 0 l -0.36,-0.03 -0.12,-0.02 -0.21,-0.05 0.12,0.05 -0.22,-0.05 c -0.05,0 -0.12,-0.02 -0.14,-0.02 l -0.51,-0.12 -0.12,-0.03 -0.36,-0.14 v 0.02 l -0.57,-0.21 c -0.1,-0.03 -0.17,-0.05 -0.27,-0.12 l -0.5,-0.34 c -0.07,-0.02 -0.12,-0.05 -0.17,-0.12 l -0.31,-0.26 0.07,0.07 -0.38,-0.29 0.09,0.05 -0.24,-0.17 0.75,0.22 h -0.03 c -0.33,0 -0.67,-0.12 -0.93,-0.34 l -0.03,-0.02 v 0 -0.03 l 0.03,0.03 h -0.03 l 0.89,0.31 h -0.02 c -0.72,0.02 -1.32,-0.53 -1.35,-1.25 v 0 l 0.41,0.89 -0.02,-0.05 v 0 l -0.03,-0.02 v 0 h -0.02 c -0.24,-0.24 -0.41,-0.58 -0.41,-0.89 v -0.05 l 0.17,0.58 -0.05,-0.05 v 0 l -0.02,-0.07 c -0.1,-0.15 -0.15,-0.36 -0.15,-0.58 v -0.02 l 0.41,0.91 h -0.02 c -0.15,-0.17 -0.27,-0.34 -0.36,-0.55 v -0.05 c -0.05,-0.12 -0.1,-0.24 -0.1,-0.36 v -0.05 l 0.17,0.55 -0.05,-0.02 c -0.07,-0.19 -0.14,-0.41 -0.14,-0.6 v -0.05 0 -0.05 0 -0.02 -0.05 -0.12 c 0,-0.07 0,-0.17 0.02,-0.24 l 0.05,-0.24 c 0.05,-0.26 0.17,-0.5 0.36,-0.67 l 0.02,-0.05 -0.24,0.34 0.03,-0.03 -0.15,0.6 v -0.02 c 0,-0.36 0.12,-0.7 0.39,-0.94 v -0.02 0 l 0.02,-0.05 -0.24,0.34 0.05,-0.03 c 0.05,-0.12 0.14,-0.24 0.24,-0.33 l 0.02,-0.03 c 0.24,-0.24 0.58,-0.38 0.89,-0.38 h 0.05 l -1.15,0.72 v -0.07 c 0.14,-0.24 0.33,-0.46 0.6,-0.58 l 0.02,-0.02 -0.72,1.2 v -0.03 c 0,-0.36 0.17,-0.69 0.41,-0.93 0.24,-0.24 0.55,-0.39 0.91,-0.39 h 0.05 l -0.91,0.39 v -0.03 0 l 0.02,-0.02 v 0 l 0.05,-0.05 c 0.17,-0.14 0.38,-0.26 0.6,-0.31 l 0.12,-0.05 -0.31,0.1 0.12,-0.03 0.09,-0.07 0.12,-0.02 c 0.05,-0.03 0.15,-0.05 0.22,-0.1 l 0.12,-0.02 -0.12,0.07 0.26,-0.1 c 0.1,-0.04 0.15,-0.07 0.24,-0.07 l 0.58,-0.09 v 0 l 0.6,-0.05 0.07,-0.03 0.58,-0.04 h 0.07 1.32 0.05 l 4.22,0.16 h -0.02 l 3.93,0.03 h -0.02 1.1 0.03 1.92 0.09 l 2.04,0.19 h -0.12 0.03 c 0.77,0 1.39,0.62 1.39,1.39 0,0.77 -0.62,1.39 -1.39,1.42 h -0.03 l -0.14,-0.03 -2.02,-0.19 h 0.1 l -1.92,-0.02 h 0.02 l -1.1,-0.03 v 0 l -3.94,-0.07 h -0.07 l -4.2,-0.17 h 0.05 -1.32 0.05 -0.58 0.1 l -0.58,0.05 v 0 l -0.55,0.1 0.24,-0.05 -0.29,0.07 c -0.05,0 -0.12,0.05 -0.17,0.05 l -0.12,0.02 0.24,-0.07 -0.12,0.05 0.1,-0.05 -0.1,0.07 c -0.09,0.03 -0.19,0.05 -0.26,0.1 h -0.1 l 0.6,-0.34 -0.02,0.03 v 0 l -0.05,0.02 v 0 0.05 c -0.26,0.24 -0.55,0.36 -0.91,0.36 h -0.05 l 1.3,-1.3 v 0.03 c 0,0.48 -0.27,0.93 -0.72,1.15 l -0.05,0.02 0.6,-0.57 -0.05,0.02 c -0.19,0.46 -0.67,0.72 -1.15,0.72 h -0.05 l 0.94,-0.36 -0.03,0.05 0.27,-0.36 -0.03,0.05 c -0.07,0.12 -0.14,0.24 -0.26,0.33 l -0.05,0.03 v 0 0.02 l 0.41,-0.91 v 0.02 c 0,0.22 -0.07,0.39 -0.17,0.58 l -0.02,0.05 c -0.05,0.12 -0.15,0.24 -0.24,0.33 l -0.03,0.03 0.36,-0.65 -0.02,0.24 0.02,-0.29 v 0.12 0.05 l -0.02,0.02 v 0 0.05 0 0.05 l -0.12,-0.6 0.02,0.05 c 0.1,0.21 0.12,0.43 0.12,0.62 v 0.05 l -0.07,-0.48 0.05,0.07 -0.31,-0.5 0.02,0.02 c 0.24,0.24 0.36,0.58 0.36,0.94 v 0.02 l -0.14,-0.55 0.02,0.02 v 0 l 0.05,0.05 c 0.07,0.19 0.12,0.41 0.12,0.6 v 0.05 l -0.36,-0.94 h 0.02 v 0 l 0.03,0.03 v 0 l 0.02,0.02 c 0.24,0.24 0.36,0.6 0.34,0.96 v 0 c -0.03,0.72 -0.63,1.27 -1.32,1.25 -0.72,-0.05 -1.25,-0.65 -1.23,-1.37 0.03,-0.67 0.63,-1.22 1.35,-1.2 h 0.02 c 0.34,0 0.67,0.17 0.89,0.43 l 0.02,0.03 -0.02,-0.03 h 0.02 v 0.03 h 0.03 l -0.87,-0.39 h 0.03 c 0.24,0.03 0.48,0.1 0.69,0.24 l 0.22,0.17 0.05,0.05 0.36,0.29 0.07,0.07 0.29,0.29 -0.12,-0.12 0.48,0.33 -0.24,-0.12 0.57,0.22 v 0 l 0.36,0.14 -0.12,-0.07 0.48,0.17 -0.14,-0.05 h 0.19 l 0.12,0.05 0.22,0.05 -0.1,-0.03 0.36,0.05 v 0 l 0.94,0.12 h -0.03 l 0.58,0.07 h -0.1 l 0.87,0.03 h 0.02 l 0.48,0.02 v 0 l 1.03,0.07 h 0.1 l 0.31,0.05 -0.19,-0.02 h 0.36 0.12 0.26 0.03 l 0.19,0.02 c 0.12,0 0.26,0.05 0.38,0.1 v 0.02 l -0.26,-0.12 0.05,0.05 h 0.07 l 0.05,0.02 v 0 h 0.02 l -0.31,-0.02 h 0.05 l -0.22,0.05 h 0.05 c 0.05,-0.03 0.14,-0.05 0.19,-0.05 l 0.1,-0.05 -0.24,0.07 h 0.02 c 0.17,-0.07 0.34,-0.09 0.48,-0.07 h 0.1 v 0 l 0.45,0.1 c 0.27,0.07 0.51,0.31 0.53,0.6 0.05,0.31 -0.14,0.57 -0.41,0.69 z"
         style="fill:#000000;fill-opacity:1;fill-rule:nonzero;stroke:none"
         transform="matrix(1.3333333,0,0,-1.3333333,0,1120.8)" />
    </g>
    <g
       id="g293">
      <path
         id="path293"
         d="m 164.04,319.73 0.02,0.24 v -0.05 0.05 c 0.03,0.14 0.03,0.33 -0.02,0.48 v 0.02 l -0.07,-0.74 0.02,0.09 c 0.05,0.03 0.07,0.1 0.1,0.15 v 0.07 0 0.02 0 l 0.02,0.05 -0.19,-0.36 0.02,0.05 v 0 l 0.05,0.05 c 0.1,0.09 0.17,0.21 0.19,0.33 l 0.03,0.05 v 0 0.05 l -0.22,-0.36 0.05,0.02 -0.41,-0.24 h 0.05 c 0.24,0.1 0.41,0.24 0.53,0.46 l 0.02,0.05 -0.53,-0.46 h 0.03 c 0.14,0.07 0.31,0.17 0.43,0.29 l 0.02,0.05 -0.43,-0.29 0.05,0.02 c 0.19,0.05 0.38,0.22 0.5,0.39 l 0.05,0.09 -0.55,-0.43 h 0.05 c 0.12,0.07 0.24,0.12 0.33,0.19 l 0.05,0.05 -0.12,-0.07 0.05,0.02 v 0 h 0.02 l -0.21,-0.09 h 0.02 c 0.24,0.09 0.46,0.24 0.58,0.43 l 0.02,0.02 -1.08,-0.45 h 0.05 c 0.26,-0.03 0.53,0 0.77,0.14 h 0.02 l -0.36,-0.12 h 0.1 c 0.12,0.05 0.24,0.1 0.33,0.17 l 0.03,0.02 -0.24,-0.12 h 0.07 l -0.55,-0.02 h 0.02 v 0 h 0.07 c 0.22,-0.07 0.41,-0.05 0.63,0.05 l 0.09,0.02 -0.38,-0.07 0.79,0.05 h 0.12 l 0.48,0.07 h -0.17 0.12 v 0 h 0.1 v 0 h 0.07 -0.19 0.12 -0.07 l 0.09,-0.05 c 0.1,-0.02 0.17,-0.02 0.29,-0.02 h 0.1 l -0.29,0.02 0.24,-0.05 0.05,-0.02 0.48,-0.1 v 0 l 0.86,-0.19 v 0 l 0.41,-0.07 h 0.07 l 0.89,-0.1 v 0 l 0.79,-0.12 h -0.02 l 0.33,-0.02 0.1,-0.05 0.77,-0.02 h -0.03 l 0.34,-0.03 h -0.07 l 0.74,-0.09 h 0.05 l 0.29,-0.03 h -0.03 l 0.75,-0.07 0.07,-0.02 1.03,-0.03 h 0.07 1.11 0.14 l 0.55,0.05 c 0.1,0 0.15,0 0.22,0.05 l 0.12,0.02 -0.34,-0.07 h 0.03 v 0 h 0.02 -0.02 0.02 0.05 v 0 h 0.02 0.03 -0.03 0.03 l -0.89,0.36 v -0.02 c 0.26,-0.24 0.6,-0.36 0.91,-0.34 h 0.05 0.02 0.03 c 0.69,0.05 1.22,0.65 1.2,1.32 -0.03,0.7 -0.63,1.25 -1.32,1.25 -0.7,-0.05 -1.25,-0.6 -1.23,-1.3 v -0.02 c 0,-0.72 0.58,-1.27 1.3,-1.27 h 0.02 l -0.91,0.36 0.05,-0.03 -0.43,0.87 v 0 c 0.02,-0.72 0.6,-1.25 1.29,-1.25 h 0.03 c 0.72,0.02 1.27,0.6 1.27,1.32 0,0.67 -0.6,1.25 -1.3,1.22 -0.69,0 -1.27,-0.57 -1.27,-1.29 v 0 -0.05 -0.05 c 0.05,-0.31 0.19,-0.62 0.41,-0.86 h 0.02 l -0.38,0.86 v 0 0 -0.02 0 -0.03 c 0,-0.19 0.05,-0.33 0.12,-0.48 l 0.05,-0.19 -0.05,0.17 0.12,-0.31 -0.05,0.02 0.1,-0.31 0.02,-0.07 0.1,-0.29 -0.03,0.19 0.1,-0.72 v -0.07 l 0.19,-0.94 v 0 -0.12 c 0.05,-0.07 0.07,-0.12 0.07,-0.21 l 0.12,-0.27 c 0.24,-0.67 0.99,-0.98 1.61,-0.72 0.67,0.24 1.01,0.96 0.77,1.61 l -0.12,0.31 0.05,-0.21 -0.03,0.12 v 0 l -0.16,0.93 v -0.07 l -0.1,0.7 c 0,0.07 -0.02,0.14 -0.02,0.21 l -0.12,0.29 0.02,-0.02 -0.1,0.36 -0.02,0.02 -0.1,0.31 -0.02,0.12 -0.1,0.17 0.12,-0.53 v 0.03 0 0.02 0 0 c 0,0.36 -0.12,0.7 -0.36,0.94 l -0.02,0.02 0.36,-0.96 v 0.05 0.05 0 c 0,0.72 -0.55,1.29 -1.27,1.29 h -0.03 c -0.69,0.03 -1.27,-0.55 -1.29,-1.22 0,-0.72 0.55,-1.3 1.27,-1.32 0.67,0 1.27,0.53 1.27,1.25 v 0 c 0.05,0.36 -0.12,0.69 -0.36,0.93 l -0.02,0.03 c -0.22,0.24 -0.53,0.38 -0.87,0.38 h -0.02 c -0.72,0 -1.3,-0.53 -1.3,-1.25 -0.02,-0.69 0.53,-1.29 1.25,-1.29 0.7,0 1.27,0.55 1.3,1.27 v 0.02 c 0,0.65 -0.53,1.23 -1.2,1.3 h -0.03 -0.02 -0.05 l 0.89,-0.41 -0.05,0.05 c -0.19,0.24 -0.53,0.36 -0.86,0.38 h -0.03 0.03 -0.03 -0.02 v 0 h -0.05 -0.02 0.02 -0.02 v 0 h -0.03 c -0.09,0 -0.19,0 -0.31,-0.02 l -0.07,-0.05 0.17,0.05 -0.58,-0.05 h 0.1 -1.11 0.03 l -1.01,0.05 h 0.05 l -0.72,0.05 h -0.03 l -0.31,0.02 h 0.07 l -0.74,0.1 h -0.07 l -0.29,0.02 h -0.05 l -0.74,0.05 h 0.09 l -0.33,0.05 h -0.03 l -0.84,0.09 v 0 l -0.86,0.1 0.07,-0.05 -0.38,0.07 h 0.02 l -0.86,0.15 v 0 l -0.46,0.09 h 0.1 l -0.27,0.05 c -0.12,0.05 -0.21,0.05 -0.33,0.05 h -0.1 l 0.29,-0.05 -0.1,0.05 h -0.07 l -0.12,0.02 c -0.05,0.03 -0.14,0.03 -0.24,0.03 h -0.07 v 0 h -0.1 v 0 h -0.12 c -0.07,0 -0.12,-0.03 -0.19,-0.03 l -0.48,-0.07 h 0.05 l -0.82,-0.12 c -0.14,-0.02 -0.31,-0.05 -0.45,-0.14 l -0.1,-0.05 0.43,0.14 h -0.07 v 0 h -0.02 c -0.17,-0.02 -0.34,-0.12 -0.48,-0.21 l -0.03,-0.03 c -0.14,-0.09 -0.26,-0.21 -0.33,-0.33 l -0.03,-0.03 0.51,0.46 -0.05,-0.05 c -0.22,-0.07 -0.41,-0.26 -0.53,-0.43 l -0.02,-0.05 0.79,0.53 h -0.05 c -0.41,-0.07 -0.74,-0.36 -0.89,-0.77 v -0.05 l 0.41,0.58 -0.05,-0.05 c -0.12,-0.07 -0.21,-0.17 -0.31,-0.31 l -0.02,-0.05 h 0.02 l -0.02,-0.02 0.07,0.12 -0.05,-0.05 0.24,0.19 -0.05,-0.02 c -0.19,-0.12 -0.33,-0.29 -0.38,-0.51 l -0.05,-0.09 v 0 -0.03 c -0.02,-0.02 -0.05,-0.09 -0.05,-0.14 v -0.07 l 0.03,0.19 v -0.05 c -0.03,-0.07 -0.05,-0.14 -0.05,-0.24 v -0.05 l 0.05,0.22 -0.03,-0.05 -0.02,-0.14 -0.05,-0.05 c -0.02,-0.17 0,-0.31 0.05,-0.48 l 0.02,-0.05 v 0 -0.05 l -0.02,0.48 v -0.07 0 -0.02 c -0.05,-0.15 -0.05,-0.34 0,-0.46 l 0.02,-0.05 v 0 -0.02 0 l 0.03,-0.07 -0.03,0.38 -0.02,-0.05 c -0.07,-0.43 0.17,-0.81 0.55,-0.93 l 0.05,-0.03 -0.55,0.63 v -0.05 c 0.02,-0.1 0.07,-0.17 0.09,-0.22 l 0.12,-0.24 c 0.15,-0.31 0.48,-0.45 0.82,-0.38 0.31,0.05 0.55,0.31 0.6,0.65 z"
         style="fill:#000000;fill-opacity:1;fill-rule:nonzero;stroke:none"
         transform="matrix(1.3333333,0,0,-1.3333333,0,1120.8)" />
    </g>
    <g
       id="g294">
      <path
         id="path294"
         d="m 156.82,308.09 0.88,-0.27 0.1,-0.04 0.29,-0.05 -0.17,0.05 0.26,-0.08 0.03,-0.04 0.74,-0.27 -0.12,0.07 0.19,-0.12 h 0.05 l 0.17,-0.09 -0.1,0.05 0.22,-0.15 -0.05,0.03 0.19,-0.08 -0.09,0.05 0.14,-0.12 v 0 l 0.19,-0.14 v 0 l 0.15,-0.1 -0.1,0.07 0.17,-0.16 v 0 l 0.14,-0.15 -0.07,0.1 0.12,-0.15 v 0 l 0.17,-0.16 -0.07,0.07 0.12,-0.15 -0.03,0.03 0.12,-0.15 -0.09,0.12 0.24,-0.43 -0.03,0.1 0.12,-0.31 -0.02,0.09 0.07,-0.26 v 0 l 0.12,-0.27 -0.02,0.12 0.07,-0.33 v 0.09 l 0.02,-0.28 v 0 l 0.05,-0.27 v 0.07 l 0.07,-0.6 v 0.15 l -0.02,-0.48 0.02,0.05 -0.07,-0.44 0.05,0.05 -0.22,-1.37 0.03,0.08 -0.22,-0.87 v -0.02 l -0.31,-1.63 -0.05,-0.12 -0.07,-1.01 c 0,-0.1 0,-0.19 0,-0.24 l 0.07,-0.67 v 0.16 -0.12 c 0,-0.16 0.05,-0.31 0.07,-0.45 l 0.05,-0.12 v 0 l 0.07,-0.15 -0.07,0.2 0.05,-0.12 c 0,-0.12 0.02,-0.2 0.07,-0.29 l 0.05,-0.12 v 0 l 0.05,-0.12 0.07,-0.1 0.07,-0.14 -0.05,0.12 0.05,-0.12 c 0.05,-0.07 0.07,-0.12 0.1,-0.19 l 0.09,-0.12 -0.07,0.09 0.1,-0.14 c 0.02,-0.1 0.09,-0.15 0.14,-0.22 l 0.12,-0.12 0.05,-0.05 0.19,-0.21 -0.07,0.12 0.14,-0.19 c 0.1,-0.08 0.17,-0.17 0.29,-0.27 l 0.19,-0.12 -0.24,0.22 0.12,-0.15 c 0.1,-0.07 0.15,-0.12 0.24,-0.19 l 0.22,-0.12 v 0 l 0.17,-0.12 v 0 l 0.19,-0.12 0.07,-0.05 0.6,-0.31 0.1,-0.02 0.45,-0.19 0.05,-0.03 0.48,-0.17 h 0.07 l 0.46,-0.16 h 0.05 l 0.98,-0.27 h 0.07 l 1.59,-0.29 0.07,-0.04 1.39,-0.17 h 0.07 l 3.6,-0.34 h 0.1 l 5.04,-0.05 h 0.02 0.22 v 0 h 0.65 c 0.72,0 1.29,0.56 1.29,1.25 0,0.72 -0.57,1.3 -1.29,1.3 h -0.65 v 0 h -0.22 v 0 l -5.04,0.05 h 0.1 l -3.6,0.31 h 0.05 l -1.42,0.17 0.07,-0.03 -1.56,0.31 0.05,-0.04 -0.98,0.28 0.07,-0.04 -0.46,0.16 h 0.03 l -0.48,0.15 0.07,-0.03 -0.46,0.17 0.12,-0.02 -0.6,0.29 0.1,-0.05 -0.22,0.12 v 0 l -0.19,0.12 v 0 l -0.17,0.09 0.24,-0.19 -0.12,0.15 c -0.09,0.07 -0.19,0.12 -0.26,0.19 l -0.19,0.12 0.31,-0.27 -0.12,0.15 -0.1,0.12 -0.21,0.17 0.02,-0.03 -0.07,0.12 0.14,-0.24 -0.09,0.15 -0.03,0.09 -0.09,0.12 0.09,-0.17 -0.02,0.08 -0.07,0.12 -0.1,0.12 0.07,-0.08 -0.07,0.12 v 0 l -0.05,0.12 0.1,-0.31 v 0.15 c -0.05,0.07 -0.07,0.16 -0.07,0.21 l -0.05,0.12 v 0 l -0.07,0.15 0.09,-0.44 v 0.12 l -0.02,0.15 -0.07,0.65 v -0.27 l 0.07,1.03 v -0.12 l 0.29,1.59 v 0 l 0.19,0.86 v 0.1 l 0.17,1.41 v 0.08 l 0.02,0.48 v 0.07 0.48 l -0.02,0.14 -0.05,0.6 -0.05,0.07 -0.05,0.29 v 0 l -0.07,0.27 v 0.07 l -0.07,0.29 -0.07,0.12 -0.1,0.28 v 0 l -0.12,0.29 -0.02,0.07 -0.15,0.29 -0.02,0.07 -0.24,0.41 c -0.05,0.03 -0.07,0.1 -0.12,0.15 l -0.1,0.12 -0.02,0.04 -0.17,0.15 -0.05,0.05 -0.12,0.16 v 0 l -0.14,0.12 -0.07,0.05 -0.17,0.15 v 0 l -0.17,0.12 -0.12,0.09 -0.12,0.1 0.05,-0.03 -0.19,0.12 h -0.03 l -0.14,0.12 -0.12,0.05 -0.17,0.1 h -0.02 l -0.22,0.12 -0.07,0.02 -0.17,0.07 h 0.05 l -0.19,0.08 -0.1,0.04 -0.77,0.27 h -0.02 l -0.29,0.09 c -0.05,0 -0.12,0.03 -0.17,0.03 l -0.31,0.02 0.17,-0.02 -0.91,0.24 c -0.51,0.14 -1.08,-0.15 -1.23,-0.7 -0.16,-0.5 0.15,-1.08 0.68,-1.22 z"
         style="fill:#000000;fill-opacity:1;fill-rule:nonzero;stroke:none"
         transform="matrix(1.3333333,0,0,-1.3333333,0,1120.8)" />
    </g>
    <g
       id="g295">
      <path
         id="path295"
         d="m 167.16,294.65 -0.19,-0.03 c -0.24,-0.09 -0.46,-0.24 -0.58,-0.45 l -0.79,-1.39 v 0 l -0.43,-0.77 0.02,0.05 -0.38,-0.6 v 0.04 l -0.1,-0.16 v 0 l -0.07,-0.12 -0.1,-0.12 -0.07,-0.15 v 0 l -0.05,-0.14 -0.02,-0.03 -0.1,-0.19 v -0.02 l -0.12,-0.31 -0.07,-0.15 -0.02,-0.09 c -0.15,-0.56 0.21,-1.13 0.79,-1.28 0.55,-0.16 1.15,0.17 1.32,0.75 v 0.09 l -0.05,-0.12 0.12,0.29 -0.02,-0.02 0.09,0.14 -0.02,-0.05 0.05,0.15 v 0 l 0.09,0.14 -0.09,-0.12 0.12,0.12 v 0 l 0.09,0.15 0.03,0.04 0.36,0.6 0.02,0.08 0.43,0.79 0.03,0.02 0.69,1.44 c 0.03,0.07 0.05,0.15 0.1,0.24 l 0.02,0.19 c 0.05,0.29 -0.07,0.6 -0.26,0.8 -0.24,0.21 -0.58,0.31 -0.84,0.19 z"
         style="fill:#000000;fill-opacity:1;fill-rule:nonzero;stroke:none"
         transform="matrix(1.3333333,0,0,-1.3333333,0,1120.8)" />
    </g>
    <g
       id="g296">
      <path
         id="path296"
         d="m 170.64,293.57 -0.07,-0.07 0.24,0.21 h -0.03 c -0.09,-0.05 -0.19,-0.14 -0.24,-0.24 l -0.07,-0.05 0.19,0.17 -0.07,-0.05 c -0.12,-0.09 -0.24,-0.24 -0.29,-0.4 l -0.02,-0.08 0.07,0.17 -0.07,-0.09 c -0.1,-0.17 -0.17,-0.36 -0.19,-0.53 v -0.03 l 0.19,0.51 -0.36,-0.58 v 0.03 l -0.29,-0.41 v 0 l -0.29,-0.43 c -0.02,-0.05 -0.07,-0.12 -0.09,-0.17 l -0.6,-1.27 -0.05,-0.15 -0.05,-0.14 c -0.14,-0.43 -0.02,-0.87 0.24,-1.2 0.31,-0.34 0.77,-0.46 1.18,-0.34 0.43,0.1 0.79,0.43 0.86,0.84 l 0.07,0.15 -0.07,-0.15 0.58,1.3 -0.05,-0.1 0.24,0.46 v 0 l 0.24,0.45 v 0 l 0.31,0.6 c 0.1,0.17 0.12,0.39 0.12,0.6 v 0.03 l -0.14,-0.63 0.07,0.12 c 0.05,0.08 0.07,0.17 0.12,0.27 l 0.02,0.05 -0.24,-0.44 0.03,0.05 c 0.07,0.07 0.09,0.1 0.12,0.15 l 0.07,0.09 -0.07,-0.09 v 0.04 l 0.07,0.08 0.05,0.07 c 0.26,0.48 0.14,1.08 -0.34,1.41 -0.43,0.32 -1.08,0.24 -1.39,-0.21 z"
         style="fill:#000000;fill-opacity:1;fill-rule:nonzero;stroke:none"
         transform="matrix(1.3333333,0,0,-1.3333333,0,1120.8)" />
    </g>
    <g
       id="g297">
      <path
         id="path297"
         d="m 161.47,288.67 v -0.05 c 0.12,-0.57 0.6,-0.93 1.18,-0.93 h 0.81 0.03 l 1.03,0.02 h -0.1 l 3.72,-0.12 h -0.02 l 2.81,-0.12 h 0.07 0.26 c 0.48,0 0.94,0.24 1.18,0.67 0.24,0.41 0.24,0.96 0,1.37 -0.24,0.43 -0.7,0.67 -1.18,0.67 h -0.26 0.02 l -2.83,0.05 h -0.02 l -3.72,-0.02 h -0.05 l -1.03,-0.07 h -0.12 l -0.82,-0.15 c -0.48,-0.05 -0.86,-0.41 -0.96,-0.89 v -0.07 c -0.02,-0.12 -0.02,-0.24 0,-0.36 z"
         style="fill:#000000;fill-opacity:1;fill-rule:nonzero;stroke:none"
         transform="matrix(1.3333333,0,0,-1.3333333,0,1120.8)" />
    </g>
    <g
       id="g298">
      <path
         id="path298"
         d="m 164.28,298.78 0.29,0.07 h -0.27 l 0.51,-0.07 v 0 l 0.55,-0.03 -0.12,0.03 1.46,-0.27 -0.09,0.03 2.49,-0.63 h -0.07 l 0.91,-0.26 v 0 l 0.7,-0.22 -0.12,0.03 1.87,-0.77 -0.07,0.02 1.63,-0.84 -0.12,0.07 0.77,-0.52 v 0.04 l 0.77,-0.55 -0.1,0.07 1.9,-1.53 -0.05,0.05 0.26,-0.24 0.03,-0.03 0.29,-0.24 -0.1,0.1 0.24,-0.27 c 0.29,-0.33 0.77,-0.48 1.22,-0.4 0.46,0.12 0.82,0.45 0.96,0.88 0.12,0.44 0.03,0.92 -0.28,1.28 l -0.24,0.24 -0.1,0.12 -0.26,0.24 v -0.03 l -0.29,0.24 -0.05,0.07 -1.9,1.52 -0.09,0.07 -0.77,0.5 -0.05,0.03 -0.74,0.52 -0.12,0.05 -1.66,0.84 -0.07,0.03 -1.9,0.79 -0.12,0.05 -0.72,0.21 v 0 l -0.91,0.24 -0.05,0.03 -2.49,0.6 -0.12,0.04 -1.47,0.2 c -0.07,0.04 -0.12,0.04 -0.19,0.04 h -0.53 v 0 h -0.5 c -0.1,0 -0.22,0 -0.31,-0.04 l -0.29,-0.08 c -0.6,-0.16 -0.96,-0.76 -0.84,-1.36 0.12,-0.63 0.67,-1.01 1.32,-0.96 z"
         style="fill:#000000;fill-opacity:1;fill-rule:nonzero;stroke:none"
         transform="matrix(1.3333333,0,0,-1.3333333,0,1120.8)" />
    </g>
    <g
       id="g299">
      <path
         id="path299"
         d="m 157.82,308.33 h 0.03 c 0.12,0 0.26,0 0.36,0.05 h 0.07 l -0.17,-0.03 h 0.05 v 0 l 0.05,0.03 c 0.09,0 0.19,0.04 0.26,0.07 l 0.05,0.02 -0.07,-0.02 h 0.02 -0.05 0.03 0.07 l 0.05,0.02 c 0.09,0.03 0.19,0.07 0.26,0.12 l 0.05,0.03 h -0.05 0.05 l -0.1,-0.03 0.12,0.07 0.12,0.05 0.17,0.12 h -0.02 l 0.24,0.12 -0.15,-0.05 0.24,0.08 0.1,0.07 0.17,0.09 -0.12,-0.07 0.24,0.12 h 0.02 l 0.22,0.12 -0.1,-0.05 0.24,0.08 -0.05,-0.03 0.22,0.07 h -0.05 l 0.24,0.05 h 0.05 l 0.19,0.07 v 0 l 0.24,0.05 -0.12,-0.02 0.29,0.02 h -0.1 l 0.75,0.03 v 0 l 0.12,0.04 h -0.24 l 0.12,-0.04 -0.15,0.04 h 0.1 c 0.12,-0.07 0.26,-0.07 0.38,-0.07 h 0.12 l -0.36,0.07 0.27,-0.09 h -0.03 l 1.06,-0.31 -0.24,0.09 0.14,-0.05 c 0.05,-0.07 0.15,-0.09 0.22,-0.09 l 0.14,-0.07 -0.33,0.19 0.09,-0.1 c 0.12,-0.05 0.24,-0.12 0.36,-0.17 l 0.15,-0.04 -0.36,0.19 0.12,-0.1 0.07,-0.02 0.12,-0.1 -0.05,0.03 0.12,-0.08 -0.05,0.03 0.12,-0.1 v 0 l 0.1,-0.09 -0.07,0.07 0.12,-0.12 -0.03,0.05 0.1,-0.12 -0.1,0.12 0.05,-0.12 0.12,-0.12 0.12,-0.12 -0.14,0.19 0.09,-0.12 -0.09,0.14 0.02,-0.12 c 0.05,-0.05 0.07,-0.12 0.12,-0.17 l 0.07,-0.12 -0.07,0.15 0.17,-0.34 v 0 l 0.07,-0.24 -0.05,0.19 0.05,-0.28 0.07,-0.12 0.1,-0.24 -0.07,0.19 0.07,-0.27 v 0 l 0.05,-0.24 -0.03,0.12 0.03,-0.28 v 0.07 -0.27 0.03 l 0.02,-0.79 v 0.21 l -0.07,-0.62 v 0 l -0.07,-0.58 v 0.03 l -0.12,-0.6 0.02,0.12 -0.38,-1.4 0.02,0.05 -0.24,-0.62 -0.02,-0.1 -0.05,-0.36 0.02,0.15 -0.12,-0.32 v 0.03 l -0.14,-0.36 0.05,0.09 -0.36,-0.76 0.02,0.12 -0.07,-0.15 c -0.22,-0.36 -0.22,-0.84 0,-1.2 0.19,-0.38 0.6,-0.62 1.01,-0.62 0.43,0 0.84,0.24 1.05,0.6 l 0.1,0.14 0.02,0.07 0.36,0.75 0.03,0.09 0.14,0.32 v 0.04 l 0.12,0.32 0.07,0.12 0.05,0.33 v -0.09 l 0.22,0.67 v 0.05 l 0.38,1.39 0.05,0.12 0.12,0.6 v 0.05 l 0.07,0.57 v 0.03 l 0.1,0.6 c 0,0.07 0,0.12 0,0.19 l -0.03,0.74 v 0.07 0.27 0.05 l -0.02,0.28 -0.05,0.12 -0.05,0.27 v 0 l -0.07,0.24 c 0,0.05 -0.02,0.12 -0.02,0.17 l -0.12,0.24 0.07,-0.12 -0.07,0.28 c -0.03,0.05 -0.05,0.15 -0.1,0.2 l -0.07,0.24 v 0 l -0.19,0.33 c 0,0.07 -0.03,0.12 -0.1,0.15 l -0.05,0.12 0.1,-0.15 -0.07,0.12 c -0.03,0.07 -0.05,0.12 -0.1,0.19 l -0.07,0.12 c -0.05,0.05 -0.1,0.12 -0.17,0.17 l -0.07,0.1 0.07,-0.12 -0.07,0.12 -0.1,0.12 -0.12,0.12 -0.02,0.02 -0.12,0.12 -0.07,0.03 -0.1,0.09 v 0 l -0.12,0.1 -0.05,0.02 -0.12,0.1 -0.02,0.05 -0.17,0.09 0.07,-0.05 -0.14,0.08 c -0.1,0.09 -0.22,0.16 -0.34,0.19 l -0.19,0.05 0.36,-0.17 -0.12,0.09 c -0.07,0.05 -0.19,0.12 -0.31,0.17 l -0.17,0.03 0.22,-0.08 -0.15,0.08 c -0.09,0.04 -0.19,0.07 -0.26,0.09 l -1.06,0.27 h -0.02 l -0.31,0.07 c -0.12,0.02 -0.27,0.05 -0.39,0.02 h -0.12 l 0.39,-0.02 -0.12,0.02 h -0.12 l -0.12,0.03 c -0.1,0 -0.15,0 -0.24,-0.03 h -0.12 0.07 l -0.77,-0.05 -0.12,-0.04 -0.26,-0.05 -0.12,-0.03 -0.24,-0.09 v 0 l -0.22,-0.1 v 0.03 l -0.24,-0.08 v 0 l -0.19,-0.09 -0.1,-0.03 -0.21,-0.09 -0.12,-0.07 -0.22,-0.12 h 0.07 l -0.24,-0.08 -0.12,-0.09 -0.14,-0.12 0.07,0.05 -0.19,-0.12 c -0.07,-0.03 -0.12,-0.05 -0.17,-0.08 l -0.19,-0.16 -0.05,-0.03 -0.14,-0.14 0.12,0.09 -0.12,-0.07 c -0.1,-0.05 -0.15,-0.12 -0.22,-0.17 l -0.02,-0.04 0.02,0.04 -0.02,-0.04 0.24,0.19 -0.05,-0.03 -0.07,-0.04 -0.03,-0.03 0.05,0.03 -0.05,-0.03 -0.09,-0.05 -0.03,-0.04 0.24,0.16 -0.02,-0.04 v 0 h -0.07 c -0.05,-0.03 -0.12,-0.05 -0.15,-0.08 h -0.07 l 0.34,0.08 h -0.03 c -0.48,-0.05 -0.84,-0.44 -0.84,-0.92 0,-0.48 0.36,-0.88 0.84,-0.93 z"
         style="fill:#000000;fill-opacity:1;fill-rule:nonzero;stroke:none"
         transform="matrix(1.3333333,0,0,-1.3333333,0,1120.8)" />
    </g>
    <g
       id="g300"
       transform="matrix(0.89625981,0,0,1,23.308152,1.3543503)">
      <path
         id="path300"
         d="m 167.04,353.26 -0.17,-0.24 c -0.07,-0.17 -0.14,-0.32 -0.14,-0.48 v -0.17 l 0.02,0.19 -0.02,-0.14 c -0.03,-0.08 -0.03,-0.12 -0.03,-0.2 v -0.14 c -0.02,-0.07 0,-0.12 0,-0.22 l 0.03,-0.12 -0.03,0.22 v -0.19 0 -0.12 c 0,-0.05 0,-0.12 0,-0.17 l 0.03,-0.19 c 0,-0.05 0.02,-0.15 0.02,-0.19 l 0.07,-0.17 -0.07,0.21 0.05,-0.14 0.02,-0.14 0.05,-0.17 c 0,-0.07 0.05,-0.15 0.1,-0.19 l 0.14,-0.32 v -0.02 l 0.12,-0.22 v 0 l 0.12,-0.16 0.07,-0.1 0.12,-0.19 v 0 l 0.15,-0.19 c 0.02,-0.05 0.07,-0.1 0.09,-0.12 l 0.17,-0.2 -0.05,0.1 0.12,-0.14 c 0.03,-0.08 0.1,-0.12 0.15,-0.17 l 0.48,-0.41 0.07,-0.07 0.53,-0.39 0.07,-0.02 1.15,-0.79 h -0.02 l 1.15,-0.79 -0.07,0.04 0.67,-0.57 v 0 l 0.19,-0.17 -0.02,0.02 0.19,-0.19 v 0 l 0.19,-0.19 -0.07,0.12 0.48,-0.65 -0.1,0.17 0.05,-0.12 c 0.22,-0.36 0.6,-0.58 1.06,-0.58 0.43,0 0.81,0.24 1.03,0.6 0.19,0.39 0.17,0.84 -0.05,1.2 l -0.05,0.1 -0.09,0.12 -0.48,0.62 c -0.05,0.08 -0.1,0.1 -0.12,0.12 l -0.24,0.22 v 0 l -0.17,0.17 -0.07,0.07 -0.22,0.17 v 0 l -0.67,0.57 -0.1,0.08 -1.17,0.79 v 0 l -1.2,0.79 0.02,-0.02 -0.53,0.38 0.05,-0.07 -0.48,0.43 0.12,-0.12 -0.14,0.14 -0.05,0.1 -0.19,0.14 0.12,-0.12 -0.12,0.2 v 0 l -0.15,0.16 0.05,-0.09 -0.12,0.19 v 0 l -0.07,0.17 v -0.03 l -0.19,0.32 0.09,-0.2 -0.07,0.2 0.05,-0.17 -0.05,0.17 c 0,0.04 -0.02,0.12 -0.05,0.16 l -0.07,0.15 0.07,-0.24 -0.02,0.19 0.02,-0.19 v 0.12 0 0.19 c -0.02,0.05 -0.02,0.12 -0.07,0.22 l -0.02,0.12 0.02,-0.22 v 0.14 -0.16 l 0.05,0.14 c 0,0.05 0,0.12 0,0.17 v 0.17 l -0.07,-0.34 0.09,0.26 c 0.12,0.48 -0.12,0.99 -0.57,1.18 -0.46,0.22 -0.99,0.02 -1.25,-0.38 z"
         style="fill:#000000;fill-opacity:1;fill-rule:nonzero;stroke:none"
         transform="matrix(1.3333333,0,0,-1.3333333,0,1120.8)" />
    </g>
    <g
       id="g301">
      <path
         id="path301"
         d="m 164.18,297.55 0.05,-0.12 0.1,-0.12 0.09,-0.12 -0.02,0.03 0.07,-0.08 0.1,-0.12 0.09,-0.09 -0.07,0.09 0.1,-0.12 0.07,-0.09 0.07,-0.1 v 0 l 0.12,-0.09 0.07,-0.05 0.12,-0.1 0.12,-0.09 0.12,-0.05 -0.12,0.05 0.12,-0.08 h 0.03 l 0.09,-0.09 0.1,-0.07 0.12,-0.05 0.14,-0.07 0.12,-0.05 -0.02,0.02 0.29,-0.14 c 0.07,-0.03 0.12,-0.07 0.21,-0.07 l 0.22,-0.05 -0.17,0.05 0.22,-0.08 0.12,-0.04 0.21,-0.05 v 0 l 0.24,-0.03 0.1,-0.04 0.19,-0.03 v 0 h 0.22 l 0.12,-0.02 h 0.21 0.05 l 0.65,0.02 h 0.02 l 1.08,0.1 h -0.02 l 1.99,0.09 h -0.02 0.26 v 0 h 0.31 -0.09 l 0.26,-0.04 h -0.07 l 0.24,-0.03 h 0.02 l 0.29,-0.05 -0.12,0.03 0.6,-0.19 h 0.12 l 0.12,-0.03 -0.26,0.1 0.14,-0.07 0.12,-0.05 0.17,-0.07 v 0 l 0.14,-0.03 -0.21,0.1 0.12,-0.1 0.07,-0.02 0.14,-0.07 v 0 l 0.15,-0.08 -0.22,0.12 0.12,-0.09 h 0.05 l 0.31,-0.27 -0.07,0.08 0.14,-0.15 0.05,-0.05 0.19,-0.16 c 0.29,-0.24 0.7,-0.29 1.06,-0.15 0.36,0.12 0.62,0.43 0.67,0.82 0.07,0.38 -0.07,0.74 -0.38,0.98 l -0.15,0.15 0.05,-0.05 -0.17,0.14 -0.09,0.1 -0.34,0.26 v 0 l -0.12,0.1 c -0.05,0.02 -0.12,0.05 -0.19,0.09 l -0.12,0.08 v 0 l -0.17,0.07 0.07,-0.03 -0.12,0.05 c -0.07,0.03 -0.12,0.07 -0.21,0.1 l -0.15,0.05 v 0 l -0.12,0.04 0.12,-0.07 -0.14,0.1 c -0.1,0.02 -0.19,0.05 -0.29,0.09 h -0.14 0.09 l -0.6,0.15 -0.09,0.02 -0.29,0.03 h 0.02 l -0.26,0.07 h -0.1 l -0.26,0.02 h -0.1 -0.31 v 0 h -0.26 -0.05 l -2.02,-0.12 h -0.07 l -1.08,-0.09 h 0.07 l -0.62,-0.03 h 0.02 -0.21 0.12 l -0.22,0.03 v 0 h -0.24 0.12 l -0.19,0.04 v 0 l -0.24,0.05 0.14,-0.02 -0.21,0.05 -0.12,0.04 -0.22,0.05 0.22,-0.09 -0.34,0.16 -0.05,0.03 -0.12,0.02 0.15,-0.05 -0.12,0.05 0.09,-0.05 -0.09,0.08 0.02,-0.03 -0.12,0.1 -0.12,0.05 -0.12,0.09 0.12,-0.09 -0.12,0.09 0.07,-0.05 -0.09,0.08 v 0 l -0.1,0.09 0.1,-0.09 -0.12,0.12 -0.05,0.09 -0.12,0.1 0.12,-0.12 -0.1,0.09 v 0.03 l -0.12,0.12 0.1,-0.12 -0.07,0.12 c -0.29,0.48 -0.94,0.6 -1.37,0.33 -0.48,-0.31 -0.65,-0.93 -0.34,-1.39 z"
         style="fill:#000000;fill-opacity:1;fill-rule:nonzero;stroke:none"
         transform="matrix(1.3333333,0,0,-1.3333333,0,1120.8)" />
    </g>
  </g>
</svg>
