<svg width="85.098" height="38.853" version="1.1" viewBox="0 0 85.098 38.853" xmlns="http://www.w3.org/2000/svg">
 <g transform="translate(-302.71 -116.92)">
  <path transform="matrix(1.3333 0 0 -1.3333 0 1120.8)" d="m274.01 749.9-0.07-0.36 0.02 0.03-0.07-0.36-0.03-0.19-0.02-0.36v-0.89l-0.02-1.25v-0.38l0.02-0.94v-0.02l0.05-0.89v-0.05l0.07-1.15v0.07-0.24l0.05 0.34-0.03-0.05-0.02-0.07v-0.1c-0.05-0.36 0.05-0.74 0.29-1.06v-0.02c0.24-0.31 0.6-0.5 0.96-0.58h0.02l-1.22 1.54v-0.02c-0.07-0.77 0.48-1.44 1.22-1.54h0.05l-0.89 0.46 0.03-0.03-0.39 1.06v-0.05c-0.02-0.77 0.55-1.44 1.32-1.51h0.17c0.79-0.05 1.49 0.57 1.51 1.39 0.05 0.82-0.57 1.49-1.39 1.54-0.79 0.02-1.49-0.6-1.51-1.42h-0.03c-0.02-0.77 0.51-1.44 1.25-1.54h0.05l0.12-0.02h0.05-0.1 0.12c0.41-0.02 0.82 0.12 1.11 0.41h0.02l-1.08-0.39h0.02c0.22-0.02 0.41 0.03 0.63 0.1l0.19 0.1 0.34 0.14-0.22-0.07 0.22 0.07c0.09 0.02 0.19 0.07 0.31 0.12l0.41 0.26 0.12 0.08 0.48 0.36h0.02l0.02 0.02-1.08-0.29h0.03c0.41-0.05 0.81 0.07 1.13 0.34 0.31 0.24 0.5 0.62 0.55 1.03v0.02c0.07 0.84-0.53 1.59-1.37 1.66-0.84 0.1-1.61-0.5-1.68-1.34s0.53-1.61 1.37-1.68h0.02c0.43-0.05 0.87 0.07 1.18 0.36l0.02 0.02 0.03 0.02-1.18-0.38h0.05c0.41-0.02 0.79 0.1 1.13 0.36 0.31 0.24 0.5 0.62 0.55 1.03v0.03l-1.61-1.4h0.05-0.07 0.02l-0.17 0.03h0.05l0.14-0.03h0.03l0.05-0.02-0.03 0.02 0.03-0.02h0.09-0.02 0.05l-0.17 0.02h0.05l0.14-0.02h0.12l0.05-0.02c0.89-0.03 1.61 0.62 1.65 1.48 0.08 0.87-0.57 1.61-1.44 1.68-0.86 0.08-1.63-0.55-1.7-1.41v-0.05c-0.05-0.38 0.07-0.82 0.34-1.15 0.26-0.31 0.67-0.53 1.08-0.55h0.02l-0.62 0.19 0.07-0.05-0.17 0.12 0.07-0.07c0.24-0.17 0.55-0.29 0.89-0.29l0.05-0.02-1.54 1.68v-0.05c-0.02-0.24 0.05-0.51 0.15-0.75l0.02-0.04c0.17-0.32 0.38-0.56 0.67-0.72l0.07-0.03-0.4 0.29h0.02l-0.43 1.15v-0.02c-0.03-0.43 0.14-0.84 0.43-1.15l0.02-0.05 0.05-0.05-0.43 1.18v-0.05c0-0.24 0.05-0.48 0.14-0.72l0.03-0.05-0.15 0.7v-0.05 0.02-0.05c-0.02-0.19 0.03-0.38 0.08-0.55l0.02-0.07-0.05 0.24 0.1-0.65-0.03 0.17 0.08-1.85 0.24-6.96v0.05-0.53 0.07l-0.05-1.46v-0.19c0-0.89 0.72-1.66 1.63-1.66 0.94 0 1.66 0.77 1.66 1.66v0.12-0.05l0.04 1.46 0.03 0.05-0.03 0.53v0.07l-0.26 6.96v0.03l-0.1 1.84-0.02 0.2-0.12 0.64c0 0.1-0.02 0.2-0.07 0.27v0.07l0.07-0.46v0.05-0.02 0.05c0 0.26-0.07 0.5-0.19 0.74l-0.03 0.05 0.2-0.72v0.05c-0.03 0.4-0.22 0.79-0.51 1.1h-0.02l-0.05 0.05h0.02l-0.02 0.02 0.48-1.1v0.02c0 0.41-0.19 0.82-0.48 1.11l-0.02 0.02c-0.15 0.12-0.29 0.22-0.46 0.29l-0.05 0.02 0.75-0.69v0.02l0.16-0.67v0.05c-0.02 0.4-0.21 0.81-0.5 1.1-0.31 0.29-0.74 0.43-1.15 0.41h-0.05l0.89-0.22-0.1 0.05c-0.07 0.02-0.09 0.05-0.17 0.1l-0.04 0.02c-0.27 0.1-0.53 0.14-0.82 0.12h-0.02l1.72-1.44v0.05c-0.07 0.84-0.81 1.46-1.65 1.41h-0.12l-0.03-0.02v0.02l-0.02-0.02h-0.14l-0.05-0.02 0.17 0.02h-0.05 0.02-0.12 0.03-0.08l-0.14-0.02h-0.05 0.17-0.02l0.07 0.02-0.05-0.02c-0.43 0-0.82-0.22-1.1-0.53-0.27-0.31-0.41-0.72-0.36-1.15v-0.03l1.39 1.68h-0.05c-0.38-0.05-0.74-0.21-1.01-0.53l-0.02-0.02h0.02l-0.02-0.02 0.98 0.5h-0.02c-0.84-0.07-1.44-0.82-1.37-1.66v-0.02l1.37 1.66h-0.03c-0.43-0.05-0.81-0.24-1.05-0.6l-0.03-0.03 0.24 0.27-0.45-0.41 0.14 0.12-0.43-0.27 0.24 0.12-0.19-0.09c-0.1-0.03-0.15-0.05-0.22-0.1l-0.19-0.09 0.29 0.12-0.22-0.1 0.43 0.1h-0.02c-0.38 0-0.77-0.17-1.01-0.46l-0.02-0.02 0.98 0.45h-0.12 0.1-0.05l-0.12-0.02h-0.05c-0.77-0.12-1.32-0.84-1.22-1.61 0.07-0.79 0.79-1.37 1.56-1.32 0.79 0.1 1.39 0.77 1.34 1.56-0.02 0.82-0.72 1.44-1.51 1.42h-0.17c-0.79-0.1-1.39-0.8-1.32-1.59 0.07-0.81 0.77-1.39 1.56-1.34 0.82 0.05 1.42 0.72 1.37 1.51v0.05c-0.02 0.38-0.19 0.74-0.48 1.01l-0.02 0.02c-0.34 0.29-0.75 0.41-1.18 0.36h-0.05c-0.77-0.12-1.32-0.84-1.22-1.61 0.07-0.79 0.79-1.34 1.56-1.29 0.79 0.07 1.39 0.76 1.32 1.56v0.02c-0.03 0.41-0.22 0.77-0.53 1.03-0.31 0.27-0.72 0.39-1.13 0.31h-0.02l1.08-0.28-0.03 0.02 0.58-0.96-0.02 0.02v0.08l-0.03 0.07v0.05-0.03l-0.02 0.22v-0.1l-0.12 1.15v-0.04l-0.07 0.86v-0.02l-0.03 0.91v-0.05 0.36l-0.02 1.25v0.89l-0.03 0.36v-0.2l0.03 0.39 0.02 0.17-0.02 0.36c0 0.64-0.53 1.2-1.18 1.22-0.67 0.07-1.25-0.38-1.34-1.06z"/>
  <path transform="matrix(1.3333 0 0 -1.3333 0 1120.8)" d="m277.56 727.1-0.05 0.03 0.48-0.77-0.02 0.07c0 0.12-0.05 0.24-0.12 0.34v0.02l0.12-0.33-0.03 0.07-0.02 0.12v0.05l-0.02 0.07v0.02l0.02-0.55v0.07c0.02 0.22 0.02 0.41-0.02 0.58l-0.03 0.07 0.03-0.67v0.02c0.02 0.17 0.04 0.31 0.02 0.46v0.14l-0.02 0.07v0.2-0.15 0.24l-0.03 0.15-0.02 0.26v-0.12 0.19-0.17 0.27l0.02 0.24 0.03 0.24v-0.03 0.22-0.12l0.02 0.24v-0.02l0.05 0.24-0.05-0.17 0.07 0.24-0.02-0.05 0.07 0.19 0.02 0.05 0.08 0.24-0.08-0.17 0.27 0.58 0.02 0.12 0.03 0.07-0.41-0.67 0.02 0.02c0.17 0.19 0.34 0.41 0.41 0.67l0.05 0.08-0.43-0.65 0.02 0.02c0.12 0.12 0.24 0.27 0.34 0.43l0.02 0.05-0.31-0.43 0.05 0.07c0.12 0.12 0.24 0.27 0.31 0.41l0.02 0.05 0.03 0.07-0.75-0.74 0.05 0.02c0.34 0.17 0.6 0.41 0.77 0.74l0.02 0.05-0.77-0.74 0.05 0.02c0.17 0.1 0.31 0.17 0.43 0.29l0.03 0.05h0.02l0.05 0.07-0.43-0.31 0.05 0.02h0.04l0.05 0.05c0.17 0.07 0.31 0.17 0.46 0.31l0.05 0.05-1.2-0.48h0.04c0.27 0 0.53 0.05 0.75 0.17l0.07 0.02 0.05 0.03 0.05 0.02-0.77-0.17h0.07c0.24 0 0.53 0.05 0.74 0.17l0.08 0.02-0.77-0.16h0.48l-0.27 0.02 0.17-0.05-0.26 0.1 0.17-0.07c0.07-0.03 0.12-0.05 0.19-0.05l0.14-0.03-0.43 0.15 0.17-0.1 0.12-0.05 0.12-0.04-0.24 0.12 0.14-0.08c0.1-0.07 0.22-0.12 0.34-0.16l0.17-0.05-0.36 0.14 0.14-0.07-0.14 0.1 0.09-0.08-0.05 0.03 0.15-0.1c0.05-0.05 0.12-0.09 0.19-0.12l0.12-0.09-0.31 0.26 0.09-0.12 0.15-0.12 0.12-0.1-0.15 0.12 0.1-0.09-0.14 0.19 0.07-0.12 0.05-0.05 0.09-0.12 0.12-0.14 0.1-0.1-0.15 0.17 0.08-0.1-0.1 0.15 0.1-0.12 0.07-0.15-0.17 0.34 0.05-0.17c0.07-0.17 0.17-0.33 0.26-0.48l0.07-0.09-0.24 0.48 0.05-0.17 0.05-0.15 0.05-0.09 0.05-0.12-0.1 0.26 0.1-0.38c0-0.1 0.02-0.17 0.07-0.27l0.07-0.21-0.12 0.6v-0.24c0-0.12 0.02-0.24 0.05-0.36l0.05-0.24-0.03 0.17 0.03-0.22v0.22-0.56l0.16 0.75-0.02-0.05c-0.12-0.24-0.19-0.48-0.17-0.77v-0.07l0.05 0.43-0.02-0.12 0.12 0.36-0.03-0.07c-0.12-0.24-0.19-0.48-0.19-0.74v-0.1l0.1 0.55-0.03-0.07-0.02-0.07-0.03-0.1 0.1 0.22-0.02-0.05 0.09 0.19-0.07-0.07h0.02l-0.04-0.1c-0.05-0.07-0.1-0.12-0.12-0.19l-0.03-0.02 0.1 0.17-0.05-0.08 0.05 0.05-0.15-0.19 0.36 0.36-0.09-0.07c-0.77-0.58-0.89-1.63-0.34-2.38 0.55-0.74 1.61-0.89 2.35-0.33l0.1 0.07c0.17 0.12 0.29 0.24 0.38 0.38l0.15 0.17 0.02 0.05 0.05 0.07c0.05 0.07 0.07 0.12 0.12 0.19v0.05l-0.1-0.17 0.08 0.07 0.02 0.08c0.05 0.07 0.1 0.12 0.12 0.19l0.02 0.05c0.03 0.07 0.08 0.14 0.1 0.21l0.02 0.1 0.03 0.07 0.05 0.07c0.02 0.17 0.07 0.36 0.07 0.53v0.1l-0.19-0.77 0.02 0.05c0.07 0.12 0.12 0.24 0.14 0.36l0.03 0.09c0.05 0.15 0.05 0.29 0.05 0.41v0.07l-0.17-0.74 0.02 0.05c0.12 0.24 0.17 0.5 0.17 0.76v0.56 0.21l-0.02 0.22-0.05 0.14-0.05 0.24 0.05-0.38v0.24c0 0.21-0.05 0.41-0.12 0.6l-0.07 0.21 0.07-0.26-0.07 0.41c0 0.09-0.05 0.19-0.1 0.29l-0.05 0.14 0.05-0.12-0.07 0.17-0.05 0.14c-0.05 0.19-0.14 0.36-0.24 0.51l-0.1 0.09 0.27-0.48-0.05 0.17c-0.05 0.12-0.1 0.22-0.17 0.31l-0.07 0.15-0.07 0.14-0.12 0.14-0.07 0.1c-0.05 0.07-0.1 0.12-0.15 0.19l-0.09 0.1 0.12-0.15-0.12 0.15 0.02-0.05-0.07 0.1c-0.05 0.07-0.1 0.14-0.17 0.19l-0.1 0.09-0.14 0.15-0.12 0.09 0.14-0.14-0.12 0.12c-0.09 0.1-0.19 0.17-0.31 0.24l-0.14 0.07 0.19-0.12-0.12 0.12-0.05 0.03-0.09 0.07-0.17 0.12-0.12 0.07c-0.12 0.05-0.22 0.12-0.34 0.14l-0.17 0.05 0.34-0.14-0.12 0.07c-0.07 0.05-0.17 0.07-0.24 0.12l-0.14 0.05 0.14-0.05-0.17 0.07c-0.14 0.07-0.26 0.12-0.43 0.15l-0.12 0.02 0.22-0.05-0.17 0.05c-0.07 0.05-0.17 0.05-0.27 0.07l-0.16 0.03c-0.1 0.02-0.17 0.02-0.29 0.02h-0.48c-0.27-0.02-0.53-0.07-0.75-0.19l-0.07-0.05 0.77 0.19h-0.07c-0.24 0-0.51-0.07-0.72-0.19l-0.07-0.02-0.05-0.03-0.05-0.02 0.74 0.19h-0.04c-0.46 0-0.87-0.19-1.18-0.53l-0.05-0.02 0.41 0.31-0.05-0.05-0.05-0.02h-0.04c-0.17-0.1-0.29-0.22-0.41-0.34l-0.07-0.05-0.03-0.02-0.02-0.02 0.45 0.33-0.07-0.02c-0.31-0.17-0.55-0.46-0.72-0.77l-0.02-0.05 0.74 0.77-0.07-0.05c-0.31-0.14-0.55-0.43-0.72-0.74l-0.05-0.05h0.03l-0.03-0.07 0.29 0.45-0.05-0.07c-0.12-0.12-0.21-0.26-0.31-0.43v-0.05l0.29 0.43-0.03-0.02c-0.19-0.19-0.31-0.41-0.38-0.65l-0.02-0.07 0.38 0.62-0.05-0.02c-0.14-0.17-0.29-0.41-0.36-0.65l-0.02-0.07 0.02 0.07-0.24-0.6c-0.02-0.12-0.05-0.21-0.07-0.31l-0.05-0.24 0.03 0.02-0.05-0.21v-0.03l-0.05-0.24v-0.43l-0.02-0.26v-0.17l0.02-0.22v0.03-0.24l0.02-0.24v-0.03l0.03-0.24c0-0.07 0-0.12 0.02-0.19l0.05-0.19v-0.1l0.07-0.26-0.02 0.12 0.05-0.24c0.02-0.12 0.07-0.24 0.09-0.34l0.1-0.16-0.1 0.24 0.05-0.15v-0.02c0.05-0.22 0.14-0.41 0.26-0.58l0.05-0.02-0.29 0.62 0.03-0.07c0.02-0.24 0.12-0.43 0.26-0.65l0.05-0.02 0.02-0.05 0.03-0.05-0.12 0.22 0.02-0.05c0.12-0.29 0.34-0.48 0.6-0.6l0.03-0.02-0.58 0.57 0.02-0.07c0.17-0.31 0.46-0.55 0.82-0.67h0.07c0.58-0.17 1.23 0.12 1.49 0.67s0.12 1.2-0.36 1.58z"/>
  <path transform="matrix(1.3333 0 0 -1.3333 0 1120.8)" d="m264.98 751.37h-1.34c-0.67-0.03-1.22-0.55-1.25-1.25-0.05-0.67 0.48-1.25 1.15-1.32l2.16-0.22h0.12l12.2-0.09h-0.03l2.76-0.07h0.03l7.63-0.08 0.77-0.02c0.6 0 1.15 0.34 1.44 0.84 0.31 0.53 0.31 1.18 0 1.68-0.29 0.53-0.84 0.86-1.44 0.86h-0.77l-7.63-0.09h-2.76l-12.22-0.17h-0.02l-2.16-0.1c-0.48 0-0.92-0.28-1.13-0.74-0.19-0.43-0.15-0.96 0.19-1.32 0.29-0.38 0.79-0.55 1.25-0.46l1.32 0.29c0.57 0.12 0.96 0.65 0.91 1.25-0.1 0.58-0.58 1.03-1.18 1.01z"/>
  <path transform="matrix(1.3333 0 0 -1.3333 0 1120.8)" d="m231.58 749.64 0.14-0.12-0.14 0.14 0.12-0.12-0.2 0.24 0.12-0.19 0.03-0.05 0.07-0.12 0.02-0.02 0.1-0.17-0.05 0.07 0.12-0.19-0.02 0.05 0.07-0.17-0.07 0.19 0.05-0.19 0.04-0.12 0.08-0.19-0.03 0.07 0.05-0.14-0.02 0.07 0.04-0.22 0.03-0.07 0.05-0.17-0.03 0.1 0.05-0.24-0.02 0.12 0.04-0.41v0.05l0.05-0.58v0.05-0.53l0.03-0.52v0.07l-0.08-1.23v0.08l-0.04-0.68v0.1l-0.32-1.58 0.03 0.07-0.07-0.31v-0.03l-0.08-0.21-0.04-0.22 0.02 0.12-0.07-0.22-0.17-0.43 0.02 0.03-0.38-0.92 0.38 0.51-0.02-0.03c-0.22-0.16-0.36-0.38-0.43-0.62v-0.02c-0.19-0.63 0.17-1.3 0.79-1.49 0.65-0.19 1.3 0.17 1.49 0.79 0.21 0.62-0.12 1.3-0.75 1.49l-0.02 0.02c-0.31 0.1-0.65 0.07-0.96-0.09-0.29-0.15-0.5-0.41-0.6-0.72v-0.08l0.43 0.65-0.05-0.02 0.24 0.14-0.04-0.02c-0.08-0.05-0.15-0.07-0.22-0.15l-0.02-0.02 1.15 0.19-0.03 0.03c-0.43 0.14-0.93 0.02-1.27-0.29l-0.07-0.07 1.15 0.33h-0.02c-0.53 0.12-1.03-0.09-1.32-0.53-0.31-0.43-0.31-1 0-1.44 0.29-0.43 0.79-0.64 1.32-0.52h0.02c0.31 0.07 0.6 0.24 0.79 0.52l0.05 0.08-0.65-0.48h0.03c0.31 0.09 0.55 0.31 0.69 0.6l0.03 0.02c0.05 0.07 0.07 0.17 0.09 0.24l0.03 0.05-0.1-0.24 0.03 0.02c0.14 0.29 0.16 0.63 0.09 0.91l-0.02 0.05v0.03l-0.77-1.47h0.02c0.6 0.19 0.94 0.84 0.77 1.47v0.02l-0.12-0.89 0.03 0.03 0.07 0.16 0.33 0.92 0.17 0.45 0.07 0.22 0.05 0.12 0.05 0.21 0.05 0.22 0.07 0.31 0.02 0.07 0.29 1.61v0.15l0.05 0.64v0.03l0.05 1.22v0.12l-0.05 0.53-0.05 0.55v0.05l-0.07 0.55v0.03l-0.05 0.4-0.02 0.12-0.05 0.22-0.05 0.12-0.05 0.14 0.03-0.09-0.05 0.21-0.05 0.1-0.05 0.17-0.02 0.07-0.1 0.17 0.05-0.12-0.05 0.19c-0.02 0.07-0.04 0.12-0.09 0.19l-0.07 0.17-0.03 0.02-0.12 0.2-0.05 0.07-0.09 0.14v-0.02l-0.07 0.14 0.02-0.07-0.12 0.19c-0.05 0.1-0.12 0.17-0.19 0.24l-0.15 0.12c-0.12 0.12-0.28 0.22-0.48 0.24l-0.16 0.05c-0.48 0.07-0.94-0.19-1.11-0.62-0.17-0.44 0-0.94 0.39-1.18z"/>
  <path transform="matrix(1.3333 0 0 -1.3333 0 1120.8)" d="m231.07 739.25 0.24-0.19 0.27-0.22 0.24-0.22 0.12-0.09 0.28-0.19 0.27-0.2c0.07-0.04 0.14-0.07 0.21-0.12l0.32-0.12-0.1 0.05 0.29-0.17 0.09-0.04 0.32-0.15 0.09-0.05 0.7-0.24 0.17-0.04 1.41-0.32c0.07-0.02 0.15-0.02 0.22-0.02l0.36-0.02 0.33-0.03 0.12-0.02h0.46l0.34 0.05 0.36 0.02h0.09l0.87 0.14 0.19 0.05 0.62 0.17 0.03 0.02 0.57 0.2 0.12 0.02 1.3 0.58-0.07-0.03 0.28 0.1c0.48 0.17 0.82 0.57 0.92 1.05 0.07 0.48-0.1 0.99-0.48 1.3-0.39 0.34-0.89 0.43-1.37 0.26l-0.29-0.12-0.1-0.02-1.29-0.58 0.12 0.05-0.58-0.19 0.05 0.02-0.65-0.19 0.19 0.03-0.84-0.12h0.1l-0.34-0.03-0.36-0.02h0.12-0.36 0.1l-0.34 0.02h-0.02l-0.36 0.03 0.22-0.03-1.44 0.34 0.14-0.05-0.7 0.24 0.1-0.05-0.29 0.15 0.1-0.05-0.31 0.17-0.1 0.02-0.29 0.14 0.19-0.12-0.26 0.2-0.29 0.19 0.12-0.1-0.24 0.22-0.26 0.21-0.05 0.05-0.24 0.17c-0.6 0.46-1.42 0.34-1.87-0.22-0.48-0.57-0.41-1.41 0.14-1.89z"/>
  <path transform="matrix(1.3333 0 0 -1.3333 0 1120.8)" d="m230.76 752.38-0.62-0.03c-0.65-0.02-1.2-0.53-1.25-1.17-0.05-0.65 0.38-1.23 1.01-1.37l1-0.19c0.1-0.03 0.2-0.05 0.27-0.05l5.81-0.1h-0.08l1.32-0.07h0.05l3.65-0.07h0.36c0.6 0 1.15 0.31 1.46 0.84 0.29 0.5 0.29 1.15 0 1.68-0.31 0.5-0.86 0.84-1.46 0.81h-0.36l-3.65-0.04h0.03l-1.3-0.03h-0.05l-5.81-0.17h-0.07l-1.01-0.07c-0.52-0.05-0.96-0.41-1.1-0.89-0.17-0.48-0.02-1 0.36-1.34 0.38-0.36 0.94-0.43 1.39-0.22l0.58 0.29c0.5 0.22 0.77 0.77 0.65 1.3-0.15 0.53-0.63 0.89-1.18 0.89z"/>
  <path transform="matrix(1.3333 0 0 -1.3333 0 1120.8)" d="m241.22 751.46-0.19-0.04c-0.17-0.03-0.31-0.1-0.43-0.2l-0.17-0.12c-0.07-0.07-0.17-0.14-0.21-0.26l-0.12-0.19 0.04 0.07-0.09-0.12h-0.03l-0.12-0.17-0.02-0.07-0.14-0.19-0.03-0.05-0.09-0.17c-0.03-0.05-0.08-0.12-0.08-0.19l-0.07-0.19 0.05 0.14-0.1-0.19-0.02-0.1-0.07-0.16-0.03-0.1-0.07-0.22 0.03 0.1-0.08-0.17-0.02-0.09-0.07-0.22-0.03-0.14-0.07-0.44v-0.02l-0.07-0.6v-0.05l-0.05-0.55-0.05-0.58v-0.12l0.05-1.29 0.03-0.03 0.04-0.69v-0.15l0.34-1.68 0.02-0.07 0.08-0.33v0.02l0.04-0.24v-0.02l0.08-0.22 0.04-0.14 0.1-0.22h-0.02l0.19-0.46 0.38-0.98c0.03-0.07 0.07-0.17 0.15-0.24l0.02-0.02-0.17 1.03-0.02-0.03c-0.1-0.28-0.05-0.64 0.09-0.91 0.15-0.29 0.41-0.5 0.72-0.6h0.03l-0.84 1.39v-0.04l0.02 0.14v-0.02c-0.12-0.36-0.05-0.77 0.17-1.08l0.02-0.05-0.19 0.36 0.03-0.05c0.04-0.12 0.09-0.24 0.16-0.36l0.03-0.02c0.17-0.24 0.41-0.41 0.69-0.48l-0.67 0.45 0.07-0.07c0.2-0.26 0.48-0.46 0.82-0.5h0.02c0.51-0.1 1.01 0.12 1.3 0.55 0.29 0.41 0.29 0.98 0 1.39-0.29 0.43-0.79 0.65-1.3 0.58l-0.02-0.03 1.1-0.33-0.07 0.07c-0.33 0.31-0.79 0.43-1.25 0.31v-0.02l0.99-0.12-0.03 0.02 0.08-0.05-0.05 0.03-0.07 0.04-0.05 0.03 0.55-0.67v0.02l0.02-0.14v0.04c-0.07 0.34-0.28 0.63-0.57 0.8-0.29 0.16-0.63 0.21-0.96 0.12h-0.03l1.47-0.8v0.03c-0.07 0.29-0.27 0.53-0.51 0.67l-0.04 0.02 0.48-0.55-0.41 0.96v-0.05l-0.17 0.48-0.02 0.03-0.1 0.21 0.05-0.14-0.05 0.24v-0.02l-0.07 0.24v0.02l-0.1 0.34 0.03-0.1-0.36 1.68 0.02-0.12-0.07 0.7v-0.05l-0.07 1.27v-0.1l0.02 0.58 0.02 0.55v-0.05l0.03 0.6v-0.04l0.07 0.4-0.02-0.12 0.04 0.24-0.02-0.07 0.05 0.17 0.02 0.07 0.07 0.22-0.02-0.07 0.05 0.16-0.03-0.09 0.08 0.21 0.04 0.12 0.08 0.22-0.08-0.19 0.08 0.17-0.03-0.08 0.12 0.22-0.05-0.07 0.12 0.19 0.1 0.12 0.02 0.05 0.12 0.21-0.19-0.26 0.15 0.14-0.15-0.12 0.17 0.1c0.41 0.26 0.58 0.77 0.41 1.2-0.17 0.46-0.63 0.72-1.11 0.62z"/>
  <path transform="matrix(1.3333 0 0 -1.3333 0 1120.8)" d="m238.32 741.48c0-0.86-0.72-1.58-1.61-1.58s-1.61 0.72-1.61 1.58c0 0.89 0.72 1.61 1.61 1.61s1.61-0.72 1.61-1.61z" fill-rule="evenodd"/>
  <path transform="matrix(1.3333 0 0 -1.3333 0 1120.8)" d="m229.3 729.29v0.02l-0.29-0.55v0.02l-0.6-0.31c0.24 0.05 0.48 0.17 0.65 0.34h0.02v0.02c0.12 0.12 0.22 0.24 0.26 0.41l0.03 0.02-0.48-0.57 0.29 0.19 0.04 0.02 0.2 0.15-0.17-0.12 0.17 0.09 0.07 0.03 0.17 0.12-0.15-0.1 0.17 0.1h0.02l0.22 0.09-0.02-0.02 0.57 0.24-0.12-0.05 1.73 0.48 0.58 0.15-0.1-0.03 0.6 0.12 0.65 0.12-0.07-0.02 0.6 0.07 0.64 0.07h-0.04l0.64 0.05v0.02l0.63 0.05h-0.12l0.67-0.02h0.05l0.62 0.02h-0.09l0.64-0.02h-0.02l0.62-0.05-0.07 0.02 1.71-0.19h-0.05l0.6-0.07h-0.07l0.57-0.12h-0.02l0.6-0.12h-0.05l0.55-0.12h-0.05l0.56-0.17-0.05 0.03 0.55-0.17h-0.05l1.23-0.46-0.1 0.05 1.3-0.6-0.32 0.19 0.17-0.14c0.43-0.34 0.99-0.41 1.49-0.22 0.5 0.22 0.86 0.65 0.94 1.18 0.07 0.55-0.15 1.08-0.56 1.39l-0.19 0.14c-0.09 0.08-0.19 0.15-0.31 0.17l-1.3 0.6-0.09 0.03-1.23 0.45h-0.04l-0.56 0.19-0.07 0.03-0.55 0.14-0.07 0.03-0.55 0.14h-0.05l-0.6 0.12-0.58 0.12h-0.07l-0.62 0.1h-0.05l-1.71 0.16-0.12 0.03h-1.39l-0.62-0.05 0.07 0.02-0.67-0.02h-0.17l-0.6-0.07-0.67-0.07-0.05-0.03-0.62-0.07-0.65-0.12h-0.07l-0.6-0.14-0.65-0.15-0.1-0.02-0.57-0.17h-0.03l-1.7-0.58-0.1-0.02-0.57-0.26-0.1-0.05-0.22-0.1-0.16-0.09-0.17-0.1-0.17-0.12 0.05 0.05-0.17-0.12-0.14-0.1-0.17-0.14-0.31-0.31c-0.34-0.34-0.44-0.82-0.27-1.28v-0.02c0.07-0.17 0.17-0.29 0.29-0.41v-0.02c0.19-0.17 0.41-0.29 0.67-0.34h0.03l-0.6 0.31v-0.02c0.26-0.24 0.62-0.36 0.96-0.29h0.02c0.41 0.1 0.72 0.41 0.82 0.82z"/>
  <path transform="matrix(1.3333 0 0 -1.3333 0 1120.8)" d="m228.84 730.56-0.02 0.02c-0.2 0.03-0.39 0.03-0.58-0.04l-0.14-0.05-0.03-0.03 1.27-0.14c-0.45 0.41-1.12 0.36-1.58-0.07h-0.02 0.02-0.02c-0.46-0.48-0.46-1.2-0.03-1.68l0.24-0.24 0.1-0.12 0.17-0.12c0.07-0.07 0.14-0.12 0.24-0.17l0.16-0.1-0.14 0.1 0.17-0.12 0.07-0.05 0.17-0.12c0.05-0.02 0.12-0.07 0.19-0.09l0.22-0.1-0.05 0.05 0.6-0.29 0.12-0.05 1.68-0.53 0.07-0.02 0.6-0.17h0.05l0.62-0.14h0.03l0.62-0.12h0.05l0.65-0.12h0.02l0.6-0.1h0.05l0.67-0.07 0.65-0.05h0.07l0.67-0.02h1.39l0.6 0.02h0.08l1.72 0.17h0.08l0.64 0.1 0.05 0.02 0.6 0.12 0.58 0.12h0.07l0.53 0.14 0.12 0.05 0.57 0.19-0.09-0.02 0.57 0.14 0.12 0.05 1.23 0.43 0.12 0.05 1.29 0.63c0.1 0.04 0.2 0.09 0.29 0.16l0.17 0.15c0.43 0.31 0.65 0.86 0.58 1.39-0.08 0.53-0.44 0.98-0.94 1.18-0.5 0.19-1.06 0.12-1.49-0.22l-0.17-0.14 0.27 0.19-1.3-0.65 0.15 0.05-1.23-0.46 0.1 0.05-0.55-0.17-0.12-0.02-0.56-0.22 0.15 0.05-0.55-0.14 0.07 0.02-0.6-0.12-0.58-0.14 0.07 0.02-0.62-0.12 0.1 0.02-1.73-0.19h0.05l-0.63-0.02h0.07l-0.64-0.05h0.04-0.64 0.02-0.67 0.09l-0.62 0.05-0.65 0.05h0.03l-0.6 0.07-0.63 0.07 0.05-0.02-0.62 0.09h0.02l-0.6 0.12h0.05l-0.6 0.12h0.05l-1.73 0.46 0.17-0.05-0.6 0.24-0.1 0.05-0.24 0.05 0.22-0.1-0.17 0.12 0.05-0.05-0.17 0.1-0.17 0.07-0.19 0.1 0.26-0.15-0.19 0.12v0.03l-0.29 0.19 0.17-0.12h-0.02 0.02-0.02l0.02-0.05c-0.07 0.12-0.19 0.19-0.31 0.26l-0.03 0.03-0.14 0.05 0.67-0.77c-0.07 0.41-0.38 0.72-0.79 0.79z"/>
  <path transform="matrix(1.3333 0 0 -1.3333 0 1120.8)" d="m252.67 723.79h0.27c0.14-0.02 0.28 0 0.4 0.05l0.2 0.07-0.03-0.02 0.22 0.07 0.21 0.05 0.15 0.07 0.19 0.07-0.05-0.02 0.22 0.09 0.07 0.03 0.22 0.09 0.09 0.05 0.39 0.24 0.16 0.12 0.12 0.1h-0.02l0.1 0.07-0.03-0.02 0.12 0.09c0.07 0.05 0.12 0.1 0.17 0.15l0.1 0.09v0.03l0.09 0.09 0.1 0.12 0.07 0.12-0.14-0.17 0.09 0.1c0.07 0.07 0.15 0.17 0.19 0.26l0.08 0.15-0.15-0.22 0.07 0.1c0.12 0.12 0.2 0.24 0.24 0.36l0.05 0.14-0.14-0.26 0.07 0.12c0.07 0.07 0.1 0.14 0.14 0.26l0.12 0.29 0.03 0.05 0.09 0.31 0.05 0.1 0.07 0.31 0.08 0.33 0.04 0.12 0.05 0.34v0.05l0.03 0.33 0.04 0.34 0.03 0.12 0.02 0.34v0.5l-0.09 0.91-0.03 0.1-0.12 0.67v0.05l-0.12 0.65-0.02 0.09-0.19 0.65-0.03 0.1-0.5 1.46-0.03 0.05-1.08 2.83h-0.02l-0.1 0.26-0.12 0.32v-0.05l-0.09 0.31 0.05-0.19-0.08 0.31-0.04 0.29-0.08 0.31 0.03-0.14-0.05 0.31 0.02-0.05-0.04 0.34v-0.1 0.36l-0.03 0.31v-0.14l0.03 0.31v-0.1l0.02 0.34-0.02-0.12 0.07 0.34 0.14 0.76-0.09-0.24 0.16 0.44v-0.03l0.12 0.39 0.17 0.4-0.09-0.16 0.48 0.91-0.05-0.1 0.79 1.32h0.02l0.51 0.89-0.03-0.02 0.15 0.21 0.14 0.24-0.02-0.05 0.14 0.2 0.03 0.09 0.14 0.22 0.07 0.17 0.1 0.24 0.02 0.02 0.07 0.24 0.03 0.02 0.09 0.24v0.08l0.2 0.55c0.02 0.12 0.04 0.24 0.04 0.36l0.03 0.12-0.05-0.29 0.02 0.12c0.05 0.12 0.05 0.22 0.08 0.31v0.15l0.02 0.14-0.02-0.07 0.02 0.17c0.02 0.07 0.02 0.16 0 0.26v0.14-0.09 0.38l-0.02 0.1-0.03 0.14v0.05l-0.05 0.17v0.05l-0.02 0.14-0.02 0.1-0.05 0.12-0.03 0.14-0.07 0.12 0.05-0.12-0.05 0.12-0.05 0.14-0.09 0.29c-0.05 0.17-0.15 0.31-0.27 0.43l-0.07 0.08 0.17-0.24-0.05 0.07c-0.05 0.12-0.12 0.21-0.21 0.33l-0.08 0.05 0.08-0.07-0.08 0.07 0.08-0.09-0.08 0.09c-0.07 0.1-0.14 0.17-0.24 0.24l-0.04 0.07 0.16-0.16-0.28 0.28-0.1 0.05 0.17-0.14-0.07 0.07c-0.15 0.14-0.32 0.26-0.51 0.34l-0.09 0.02 0.45-0.26-0.09 0.07c-0.08 0.09-0.2 0.17-0.32 0.21l-0.07 0.03 0.12-0.05-0.19 0.12c-0.07 0.05-0.17 0.07-0.24 0.1l-0.17 0.07c-0.77 0.29-1.61-0.07-1.89-0.84-0.29-0.75 0.07-1.59 0.81-1.87l0.19-0.1-0.24 0.12 0.2-0.12 0.09-0.05 0.1-0.02-0.34 0.19 0.1-0.07c0.14-0.12 0.29-0.22 0.45-0.29l0.08-0.02-0.51 0.36 0.07-0.08c0.05-0.04 0.08-0.09 0.15-0.14l0.07-0.07-0.22 0.21 0.08-0.07c0.04-0.07 0.09-0.09 0.16-0.17l0.05-0.04-0.24 0.24 0.07-0.08 0.08-0.09 0.07-0.07 0.05-0.08 0.07-0.04-0.24 0.31 0.05-0.07c0.04-0.1 0.09-0.17 0.16-0.24l0.08-0.1-0.27 0.43 0.12-0.26-0.05 0.12 0.05-0.15 0.03-0.12 0.04-0.14-0.04 0.14 0.04-0.14-0.02 0.1 0.02-0.15v0.05l0.05-0.17-0.02 0.05 0.02-0.12v0.1-0.15 0.1-0.36 0.29-0.24l-0.02-0.15-0.03-0.14 0.08 0.29-0.05-0.12c-0.03-0.12-0.05-0.22-0.05-0.32l-0.02-0.14 0.07 0.34-0.19-0.58 0.02 0.07-0.1-0.26 0.03 0.02-0.1-0.24 0.03 0.05-0.1-0.24 0.07 0.17-0.12-0.22 0.05 0.07-0.14-0.19-0.03-0.05-0.12-0.21-0.12-0.19-0.02-0.05-0.53-0.89v0.02l-0.77-1.32-0.05-0.09-0.48-0.89-0.07-0.19-0.14-0.41-0.15-0.41v-0.02l-0.14-0.41c-0.02-0.07-0.02-0.14-0.05-0.22l-0.12-0.76v-0.03l-0.05-0.31-0.02-0.1-0.02-0.33v-0.84 0.05l0.02-0.29v-0.1l0.05-0.33v-0.03l0.05-0.33v-0.12l0.09-0.34 0.07-0.29 0.08-0.31 0.04-0.17 0.24-0.62h0.03l0.09-0.29 1.16-2.78v0.07l0.52-1.47-0.02 0.05 0.22-0.62-0.03 0.07 0.15-0.65v0.03l0.12-0.68v0.12l0.12-0.91-0.03 0.1 0.03-0.36v0.05-0.34 0.12-0.36l-0.03-0.34v0.03-0.34 0.12l-0.05-0.31-0.07-0.34 0.03 0.1-0.1-0.34 0.02 0.1-0.09-0.31 0.12 0.24-0.07-0.12c-0.08-0.1-0.12-0.19-0.15-0.29l-0.05-0.17 0.2 0.39-0.08-0.1c-0.04-0.07-0.09-0.14-0.12-0.22l-0.07-0.14 0.17 0.29-0.1-0.12c-0.04-0.07-0.09-0.15-0.14-0.22l-0.05-0.12 0.07 0.15-0.07-0.1h0.03l-0.1-0.12 0.14 0.17-0.12-0.1-0.24-0.24 0.2 0.15-0.39-0.24 0.07 0.04-0.19-0.09 0.07 0.02-0.28-0.12-0.17-0.09 0.14 0.07-0.21-0.1-0.24-0.07-0.03-0.02-0.21-0.08 0.28 0.08-0.28-0.03c-0.56-0.07-0.96-0.55-0.94-1.1 0.02-0.58 0.46-1.01 1.03-1.06z"/>
  <path transform="matrix(1.3333 0 0 -1.3333 0 1120.8)" d="m257.52 725.93-0.29 0.02 0.29-0.07-0.22 0.07-0.04 0.03-0.44 0.14 0.15-0.05-0.19 0.1-0.05 0.02-0.22 0.1 0.07-0.05-0.19 0.12 0.07-0.05-0.4 0.24 0.21-0.14-0.12 0.12-0.09 0.07-0.03 0.05-0.12 0.12 0.15-0.17-0.1 0.1 0.02-0.03-0.07 0.12 0.07-0.14-0.04 0.12-0.15 0.21-0.09 0.1 0.16-0.26-0.07 0.14c-0.02 0.07-0.07 0.14-0.12 0.22l-0.07 0.09 0.19-0.36-0.05 0.15c-0.04 0.09-0.07 0.19-0.14 0.28l-0.07 0.12 0.12-0.21-0.1 0.29 0.03-0.1-0.1 0.34 0.02-0.1-0.07 0.31-0.05 0.34 0.03-0.12-0.03 0.36v-0.05l-0.02 0.36-0.02 0.31v-0.09l0.02 0.33v-0.02l0.02 0.31v-0.05l0.1 0.89-0.02-0.12 0.14 0.67v-0.02l0.14 0.67-0.02-0.12 0.22 0.67-0.03-0.07 0.53 1.46-0.02-0.07 1.17 2.81 0.12 0.26v0.03l0.12 0.29v0.02l0.12 0.29 0.05 0.17 0.07 0.31 0.07 0.29v0.02l0.1 0.31v0.15l0.05 0.31 0.02 0.05 0.03 0.31v0.07l0.02 0.31v-0.05 0.34l0.02 0.12-0.02 0.31v0.1l-0.02 0.31-0.03 0.1-0.05 0.31-0.12 0.79c0 0.1-0.02 0.17-0.04 0.22l-0.15 0.43-0.14 0.41v0.02l-0.15 0.41-0.07 0.17-0.45 0.91-0.08 0.07-0.76 1.32-0.53 0.86-0.03 0.03-0.12 0.21-0.12 0.22-0.04 0.05-0.12 0.19 0.04-0.07-0.12 0.24 0.08-0.17-0.1 0.22 0.02-0.05-0.09 0.24h0.02l-0.09 0.24v-0.05l-0.17 0.58 0.05-0.36v0.14c0 0.1-0.03 0.22-0.05 0.31l-0.05 0.15 0.07-0.32-0.02 0.15v0.14l-0.03 0.07v0.17-0.31 0.41-0.12l0.03 0.14-0.03-0.09 0.03 0.14v-0.07l0.02 0.17v-0.05l0.03 0.14-0.03-0.09 0.03 0.14-0.03-0.12 0.05 0.12 0.02 0.12 0.05 0.14-0.05-0.14 0.12 0.29-0.26-0.41 0.07 0.07c0.07 0.07 0.12 0.15 0.17 0.24l0.05 0.07-0.24-0.31 0.05 0.05 0.07 0.1 0.14 0.14 0.07 0.1-0.24-0.24 0.05 0.02c0.07 0.05 0.12 0.12 0.17 0.17l0.07 0.07-0.21-0.19 0.07 0.05c0.05 0.04 0.09 0.09 0.17 0.14l0.04 0.05-0.52-0.31 0.09 0.02c0.15 0.05 0.31 0.14 0.46 0.26l0.09 0.1-0.31-0.24 0.07 0.05 0.1 0.07 0.19 0.1-0.24-0.1 0.19 0.07c0.75 0.29 1.13 1.15 0.82 1.9-0.29 0.74-1.13 1.13-1.9 0.84l-0.16-0.07c-0.08-0.05-0.17-0.08-0.24-0.12l-0.2-0.12 0.12 0.07-0.07-0.05c-0.12-0.07-0.24-0.12-0.33-0.22l-0.08-0.07 0.44 0.27-0.08-0.03c-0.19-0.07-0.36-0.19-0.52-0.33l-0.05-0.05 0.17 0.12-0.1-0.05-0.29-0.29 0.17 0.15-0.05-0.05c-0.09-0.07-0.17-0.15-0.24-0.24l-0.07-0.07 0.07 0.07-0.07-0.07 0.07 0.07-0.05-0.07c-0.12-0.08-0.19-0.2-0.24-0.29l-0.04-0.07 0.16 0.24-0.07-0.1c-0.12-0.12-0.21-0.26-0.26-0.43l-0.1-0.29-0.05-0.12-0.04-0.14 0.04 0.12-0.04-0.12-0.05-0.12-0.05-0.15-0.02-0.09-0.03-0.15v-0.02l-0.05-0.17v-0.07l-0.02-0.15-0.02-0.09v-0.39 0.1-0.14c-0.03-0.1 0-0.17 0-0.29l0.02-0.15-0.02 0.08 0.02-0.15 0.02-0.14c0-0.1 0-0.19 0.05-0.29l0.03-0.14-0.05 0.31 0.02-0.17c0-0.1 0.03-0.22 0.05-0.31l0.19-0.58v-0.07l0.1-0.24 0.02-0.02 0.07-0.24 0.03-0.05 0.09-0.19 0.08-0.17 0.12-0.24 0.04-0.07 0.15-0.22-0.03 0.05 0.15-0.24 0.14-0.22-0.02 0.03 0.53-0.89 0.79-1.32-0.05 0.09 0.46-0.88-0.08 0.14 0.17-0.41v0.03l0.12-0.41 0.15-0.41-0.05 0.24 0.12-0.77 0.05-0.31v0.1l0.02-0.34v0.1l0.02-0.29v0.12l-0.02-0.31v-0.05l-0.02-0.29v0.07-0.31 0.05l-0.05-0.31 0.02 0.12-0.07-0.32 0.02 0.03-0.07-0.31-0.07-0.32 0.05 0.2-0.1-0.29v0.02l-0.12-0.31-0.09-0.26-1.11-2.81-0.02-0.07-0.51-1.47-0.04-0.07-0.17-0.67-0.03-0.1-0.24-1.34-0.02-0.12-0.1-0.89v-0.53l0.03-0.33 0.02-0.12 0.03-0.34 0.04-0.34v-0.02l0.05-0.36 0.03-0.12 0.09-0.31 0.07-0.34 0.05-0.07 0.12-0.34v-0.04l0.12-0.29c0.03-0.1 0.07-0.19 0.15-0.27l0.09-0.12-0.17 0.29 0.05-0.14c0.07-0.15 0.12-0.29 0.24-0.39l0.07-0.09-0.14 0.21 0.07-0.14c0.05-0.1 0.12-0.17 0.19-0.26l0.1-0.1-0.14 0.19 0.07-0.12 0.09-0.14 0.1-0.1 0.1-0.12c0.04-0.05 0.09-0.09 0.16-0.14l0.12-0.1-0.04 0.03 0.12-0.1v0.02l0.09-0.09 0.15-0.12 0.4-0.24 0.1-0.05 0.22-0.1 0.07-0.02 0.21-0.07h-0.04l0.19-0.1 0.14-0.02 0.22-0.07 0.21-0.05h-0.04l0.21-0.07c0.12-0.05 0.27-0.05 0.41-0.05l0.26 0.02c0.58 0.03 1.01 0.48 1.04 1.03 0.02 0.56-0.39 1.01-0.94 1.11z"/>
 </g>
</svg>
