<svg width="38.218" height="77.945" version="1.1" viewBox="0 0 38.218 77.945" xmlns="http://www.w3.org/2000/svg">
 <g transform="translate(-303.85 -191.86)">
  <path transform="matrix(1.3333 0 0 -1.3333 0 1120.8)" d="m239.71 661.06-0.05-0.32v0.03l-0.07-0.31c-0.02-0.1-0.02-0.15-0.02-0.22l-0.03-0.34v-0.76l-0.02-1.08v-0.36l0.02-0.82v-0.05l0.05-0.77v-0.02l0.07-1.01v0.05-0.19l0.05 0.38v-0.02l-0.02-0.12v-0.05l-0.03-0.02c-0.04-0.41 0.08-0.84 0.36-1.18v-0.02c0.24-0.27 0.56-0.44 0.92-0.48h0.02l-1.27 1.53c-0.05-0.79 0.5-1.46 1.27-1.56h0.02l-0.81 0.36h0.05l-0.48 1.13c-0.05-0.79 0.55-1.49 1.32-1.56h0.16c0.8-0.05 1.49 0.58 1.54 1.39 0.05 0.82-0.58 1.49-1.39 1.54-0.79 0.05-1.51-0.58-1.56-1.37v-0.05c-0.03-0.74 0.53-1.41 1.27-1.51l0.02-0.02 0.15-0.03h0.02l-0.07 0.03h0.02l0.08-0.03h0.04c0.34 0 0.7 0.12 0.96 0.34l0.03 0.02-0.99-0.31 0.03-0.02c0.19 0 0.38 0.02 0.55 0.07l0.22 0.07 0.12 0.07 0.19 0.07-0.19-0.07 0.21 0.07c0.1 0.03 0.19 0.05 0.29 0.1l0.43 0.24 0.1 0.05 0.48 0.31h0.02l0.03 0.02-0.96-0.24h0.04c0.82-0.07 1.56 0.53 1.66 1.35v0.02l-1.66-1.34h0.03c0.36-0.05 0.74 0.07 1.05 0.29l0.03 0.02 0.02 0.02-1.05-0.31h0.02c0.84-0.07 1.58 0.53 1.68 1.37v0.02l-1.61-1.36h0.07-0.09 0.05l-0.17 0.02h0.02l0.15-0.02h0.04l0.03-0.03h0.12l-0.15 0.03h0.03l0.17-0.03h0.04l0.08-0.02h0.04c0.87-0.03 1.59 0.62 1.66 1.46 0.05 0.89-0.58 1.63-1.44 1.71-0.86 0.07-1.63-0.53-1.7-1.4v-0.02c-0.08-0.43 0.07-0.84 0.33-1.18 0.27-0.33 0.65-0.55 1.08-0.57h0.03l-0.53 0.14 0.05-0.02-0.17 0.07 0.09-0.05c0.24-0.14 0.51-0.24 0.77-0.24h0.07c0.87-0.02 1.61 0.65 1.64 1.54 0.04 0.86-0.65 1.63-1.52 1.65-0.88 0.03-1.63-0.64-1.65-1.53l-0.03-0.03c0-0.28 0.08-0.57 0.22-0.84l0.02-0.04c0.17-0.29 0.44-0.53 0.72-0.68l0.05-0.02-0.38 0.26 0.02-0.02-0.53 1.27v-0.02c-0.02-0.48 0.17-0.96 0.53-1.27l0.05-0.05 0.02-0.03-0.52 1.25c0-0.29 0.04-0.6 0.19-0.84l0.02-0.05-0.19 0.82v-0.05 0.03-0.05c-0.02-0.22 0.02-0.43 0.1-0.65l0.02-0.05-0.07 0.29 0.09-0.6v0.24l0.05-1.63 0.27-6.07v0.07-0.46 0.05l-0.08-1.27v-0.17c0-0.91 0.75-1.63 1.66-1.63s1.66 0.72 1.66 1.63v0.1-0.05l0.04 1.27v0.6l-0.28 6.07-0.1 1.63c0 0.08-0.02 0.15-0.02 0.22l-0.12 0.58c-0.03 0.09-0.05 0.21-0.08 0.31l-0.04 0.07 0.12-0.55v0.05-0.03 0.05c0 0.29-0.1 0.55-0.24 0.82l-0.05 0.04 0.24-0.79c0 0.48-0.22 0.91-0.58 1.2l-0.02 0.03-0.03 0.02-0.04 0.02 0.6-1.17v0.02c-0.03 0.46-0.24 0.89-0.6 1.18l-0.03 0.02c-0.12 0.1-0.26 0.17-0.41 0.24h-0.07l0.79-0.62-0.02 0.02 0.22-0.77v0.03c-0.03 0.86-0.77 1.56-1.64 1.53h-0.07l0.79-0.19-0.09 0.05-0.15 0.07-0.07 0.03c-0.21 0.09-0.45 0.12-0.69 0.09h-0.03l1.73-1.39-0.02 0.02c-0.08 0.82-0.8 1.44-1.64 1.4h-0.12l-0.04-0.03h-0.17l-0.03-0.02 0.15 0.02h-0.19l-0.15-0.02h-0.02 0.17-0.05l0.09 0.02-0.07-0.02c-0.41 0-0.81-0.22-1.1-0.53-0.27-0.31-0.39-0.74-0.36-1.18v-0.02c0.09-0.84 0.86-1.44 1.7-1.37 0.84 0.1 1.47 0.84 1.37 1.71-0.1 0.84-0.84 1.46-1.68 1.36h-0.02c-0.36-0.02-0.68-0.19-0.94-0.43l-0.05-0.05 0.94 0.44h-0.03c-0.4-0.05-0.79-0.24-1.05-0.58-0.27-0.31-0.39-0.72-0.34-1.13l0.03-0.02c0.07-0.82 0.84-1.44 1.65-1.35 0.84 0.1 1.47 0.84 1.37 1.68s-0.82 1.44-1.66 1.37h-0.04c-0.39-0.05-0.72-0.24-0.99-0.5l-0.02-0.05 0.24 0.24-0.46-0.34 0.15 0.1-0.44-0.24 0.24 0.1-0.21-0.08c-0.07-0.02-0.15-0.04-0.22-0.09l-0.17-0.1 0.27 0.12-0.24-0.07 0.36 0.07h-0.03c-0.33-0.02-0.67-0.17-0.93-0.38v-0.05l0.93 0.41h-0.12l-0.02-0.03 0.07 0.03h-0.02l-0.15-0.03h-0.02c-0.79-0.12-1.34-0.84-1.25-1.63 0.1-0.79 0.79-1.37 1.59-1.29 0.79 0.07 1.39 0.74 1.34 1.53v0.05c-0.05 0.79-0.74 1.39-1.54 1.37h-0.16c-0.8-0.1-1.37-0.79-1.3-1.59 0.05-0.79 0.74-1.39 1.56-1.34 0.79 0.07 1.39 0.74 1.34 1.56-0.02 0.43-0.21 0.84-0.57 1.08l-0.03 0.02c-0.28 0.24-0.69 0.34-1.08 0.29h-0.02c-0.79-0.12-1.34-0.81-1.25-1.61 0.1-0.79 0.79-1.36 1.59-1.27 0.79 0.07 1.36 0.77 1.32 1.56-0.05 0.41-0.24 0.77-0.56 1.03-0.31 0.27-0.69 0.36-1.1 0.32h-0.02l0.96-0.22-0.05 0.02 0.69-1v0.02h-0.02v0.05l-0.02 0.12v0.02-0.02l-0.05 0.19 0.02-0.12-0.14 1.01v-0.07l-0.05 0.76v-0.04l-0.02 0.79v-0.03 0.32l-0.03 1.08v0.02l-0.02 0.72v0.36-0.24l0.02 0.34 0.03 0.19v0.31c-0.03 0.65-0.53 1.2-1.18 1.25-0.67 0.05-1.25-0.39-1.37-1.03z"/>
  <path transform="matrix(1.3333 0 0 -1.3333 0 1120.8)" d="m243.24 641.28-0.05 0.02 0.53-0.79-0.02 0.07c-0.03 0.12-0.08 0.24-0.15 0.36l-0.02 0.05 0.17-0.38-0.03 0.07-0.02 0.12-0.03 0.05v0.05l-0.02 0.04 0.05-0.64v0.04c0.05 0.24 0.02 0.46-0.03 0.68l-0.02 0.04 0.02-0.79v0.05c0.03 0.17 0.05 0.36 0.03 0.53v0.14l-0.03 0.07v0.17-0.17 0.22l-0.02 0.14-0.05 0.24 0.03-0.14v0.17-0.19 0.21l0.02 0.24v-0.02l0.02 0.19v0.17l-0.02-0.15 0.05 0.22v-0.02l0.05 0.21-0.08-0.19 0.08 0.19-0.03-0.05 0.07 0.17 0.03 0.05 0.07 0.22-0.07-0.2 0.24 0.53 0.05 0.1 0.04 0.07-0.5-0.67 0.02 0.02c0.22 0.17 0.39 0.41 0.51 0.67l0.02 0.05-0.5-0.65 0.02 0.03c0.15 0.12 0.29 0.26 0.39 0.43l0.02 0.05-0.36-0.43 0.05 0.04c0.14 0.12 0.26 0.27 0.36 0.41l0.05 0.05 0.02 0.05-0.79-0.67 0.05 0.02c0.31 0.12 0.6 0.36 0.79 0.67l0.02 0.05-0.79-0.67 0.05 0.02c0.17 0.05 0.29 0.12 0.41 0.24l0.04 0.03 0.03 0.02 0.05 0.05-0.44-0.29 0.05 0.05h0.05l0.05 0.02c0.17 0.07 0.31 0.17 0.45 0.27l0.05 0.04-1.1-0.38h0.05c0.24 0 0.45 0.05 0.67 0.12l0.05 0.02 0.04 0.03 0.08 0.02-0.68-0.12h0.05c0.22-0.02 0.46 0.03 0.67 0.12h0.05l-0.65-0.12h0.48l-0.21 0.03 0.17-0.03-0.24 0.05 0.16-0.05 0.2-0.02 0.12-0.05-0.39 0.12 0.17-0.07 0.12-0.05 0.14-0.05-0.24 0.1 0.15-0.05c0.09-0.07 0.19-0.1 0.29-0.12l0.16-0.05-0.28 0.12 0.12-0.07-0.15 0.07 0.1-0.07-0.03 0.05 0.12-0.1c0.08-0.05 0.12-0.09 0.2-0.12l0.14-0.07-0.34 0.22 0.12-0.1 0.15-0.1 0.12-0.09-0.15 0.12 0.12-0.1-0.16 0.17 0.07-0.1 0.14-0.14 0.15-0.14 0.09-0.1-0.17 0.19 0.08-0.12-0.12 0.17 0.07-0.12 0.09-0.12-0.19 0.36 0.05-0.14c0.07-0.17 0.17-0.34 0.31-0.51l0.07-0.07-0.28 0.48 0.04-0.12 0.05-0.14 0.05-0.1 0.05-0.12-0.12 0.34 0.09-0.34c0.03-0.12 0.05-0.22 0.1-0.31l0.07-0.19-0.14 0.69v-0.21c0-0.15 0.02-0.29 0.05-0.44l0.07-0.19-0.05 0.17 0.02-0.17v0.24-0.48l0.22 0.84-0.02-0.05c-0.15-0.24-0.24-0.55-0.24-0.84v-0.07l0.07 0.48-0.03-0.07 0.17 0.36-0.02-0.05c-0.15-0.26-0.24-0.55-0.24-0.86v-0.05l0.12 0.6-0.03-0.05-0.02-0.07-0.02-0.1 0.12 0.24-0.05-0.02 0.14 0.19-0.05-0.07-0.07-0.07c-0.05-0.05-0.09-0.12-0.12-0.19l-0.02-0.05 0.12 0.19-0.05-0.07 0.05 0.05-0.15-0.17 0.39 0.33-0.12-0.07c-0.79-0.5-1.01-1.53-0.51-2.33 0.51-0.79 1.56-1 2.33-0.5l0.12 0.05c0.15 0.09 0.27 0.21 0.39 0.33l0.14 0.17 0.02 0.05 0.08 0.07c0.04 0.05 0.09 0.12 0.12 0.19l0.02 0.05-0.12-0.19 0.05 0.07 0.05 0.05c0.04 0.07 0.09 0.12 0.12 0.19l0.04 0.05c0.05 0.07 0.08 0.14 0.12 0.24l0.03 0.07 0.02 0.07 0.03 0.08c0.07 0.19 0.12 0.4 0.12 0.62v0.05l-0.24-0.87 0.02 0.05c0.07 0.12 0.14 0.27 0.17 0.41l0.02 0.07c0.05 0.17 0.07 0.31 0.07 0.48v0.07l-0.24-0.86 0.05 0.05c0.15 0.26 0.24 0.55 0.24 0.86v0.48c0 0.07-0.02 0.17-0.05 0.24v0.19l-0.04 0.17-0.05 0.22 0.05-0.43v0.21c0 0.24-0.05 0.46-0.15 0.7l-0.09 0.17 0.12-0.29-0.08 0.33c-0.04 0.12-0.07 0.24-0.12 0.34l-0.07 0.12 0.05-0.1-0.05 0.15-0.05 0.12c-0.07 0.19-0.19 0.36-0.31 0.5l-0.09 0.1 0.31-0.51-0.05 0.15c-0.05 0.12-0.12 0.24-0.19 0.36l-0.1 0.12h0.03l-0.1 0.09-0.12 0.15-0.07 0.09c-0.05 0.05-0.1 0.12-0.19 0.17l-0.1 0.1 0.14-0.12-0.12 0.09 0.05-0.02-0.09 0.07c-0.05 0.07-0.1 0.12-0.17 0.17l-0.1 0.1-0.14 0.12-0.15 0.09 0.15-0.12-0.12 0.1c-0.07 0.07-0.19 0.14-0.31 0.21l-0.12 0.08 0.16-0.12-0.16 0.12-0.12 0.07-0.15 0.07-0.14 0.07c-0.07 0.05-0.19 0.1-0.29 0.12l-0.17 0.05 0.31-0.12-0.12 0.07c-0.09 0.05-0.16 0.07-0.24 0.1l-0.12 0.05 0.12-0.05-0.16 0.07c-0.12 0.05-0.27 0.07-0.41 0.12h-0.12l0.17-0.02-0.15 0.04c-0.07 0.03-0.14 0.03-0.21 0.05h-0.17c-0.1 0.03-0.17 0.03-0.27 0.03h-0.48c-0.24 0-0.45-0.05-0.67-0.15l-0.05-0.02 0.65 0.14h-0.05c-0.21 0-0.45-0.05-0.64-0.14l-0.08-0.03-0.04-0.02-0.05-0.02 0.65 0.14h-0.05c-0.39 0-0.79-0.17-1.08-0.41l-0.05-0.07 0.41 0.29-0.03-0.03-0.07-0.02-0.05-0.02c-0.16-0.08-0.28-0.17-0.43-0.27l-0.05-0.07-0.04-0.02 0.43 0.28-0.03-0.02c-0.33-0.14-0.6-0.41-0.79-0.72l-0.02-0.05 0.77 0.72-0.05-0.02c-0.34-0.15-0.6-0.41-0.77-0.72l-0.02-0.05-0.05-0.05 0.36 0.46-0.05-0.05c-0.14-0.12-0.26-0.29-0.34-0.43l-0.04-0.05 0.33 0.41h-0.02c-0.19-0.19-0.36-0.41-0.43-0.67l-0.05-0.05 0.45 0.62-0.02-0.02c-0.19-0.17-0.34-0.39-0.43-0.65l-0.03-0.05 0.03 0.05-0.24-0.53c-0.05-0.12-0.07-0.24-0.1-0.36l-0.05-0.19 0.03 0.02-0.05-0.19v-0.02l-0.05-0.22c-0.02-0.07-0.02-0.12-0.02-0.19v-0.22l-0.03-0.21v-0.24l0.03-0.17v-0.19 0.02l0.02-0.24h0.03v-0.21c0-0.08 0.02-0.15 0.04-0.22l0.03-0.19 0.05-0.1 0.04-0.24-0.02 0.15 0.05-0.2c0.02-0.14 0.07-0.26 0.12-0.38l0.09-0.17-0.12 0.29 0.03-0.12 0.02-0.05c0.07-0.21 0.17-0.41 0.34-0.57l0.02-0.05-0.33 0.69v-0.04c0.04-0.27 0.16-0.51 0.36-0.7l0.02-0.05 0.07-0.07-0.17 0.24 0.03-0.07c0.17-0.27 0.41-0.46 0.69-0.55l0.03-0.03-0.67 0.55 0.04-0.04c0.17-0.32 0.48-0.56 0.84-0.63h0.08c0.6-0.12 1.2 0.19 1.44 0.77 0.24 0.55 0.04 1.2-0.46 1.56z"/>
  <path transform="matrix(1.3333 0 0 -1.3333 0 1120.8)" d="m230.71 662.4h-1.34c-0.67 0-1.25-0.5-1.27-1.2-0.05-0.7 0.48-1.27 1.15-1.34l2.16-0.2 0.12-0.02 12.17-0.1 2.76-0.04h0.02l7.63-0.1h0.75c0.6 0 1.17 0.34 1.46 0.84 0.31 0.53 0.31 1.18 0 1.68-0.29 0.53-0.86 0.84-1.46 0.84h-0.75l-7.63-0.07h-2.78l-12.2-0.17h-0.02l-2.18-0.12c-0.48 0-0.89-0.29-1.08-0.72-0.22-0.46-0.17-0.96 0.14-1.34 0.29-0.36 0.77-0.56 1.25-0.46l1.32 0.26c0.57 0.1 0.98 0.65 0.91 1.23-0.05 0.6-0.55 1.03-1.13 1.03z"/>
  <path transform="matrix(1.3333 0 0 -1.3333 0 1120.8)" d="m230.81 693.41 0.14-0.1-0.17 0.15 0.12-0.15-0.16 0.24 0.09-0.17 0.03-0.04 0.07-0.12 0.02-0.05 0.1-0.15-0.05 0.08 0.12-0.2-0.02 0.05 0.07-0.17-0.07 0.2 0.04-0.2 0.05-0.12 0.07-0.19-0.02 0.07 0.05-0.16-0.03 0.09 0.05-0.21 0.03-0.1 0.04-0.14-0.02 0.07 0.05-0.22-0.03 0.12 0.08-0.43-0.03 0.07 0.05-0.57v0.04l0.02-0.55v-0.53 0.1l-0.04-1.22v0.04l-0.08-0.64v0.09l-0.28-1.58v0.07l-0.08-0.31v-0.03l-0.04-0.21-0.08-0.22 0.05 0.12-0.09-0.21-0.17-0.46 0.02 0.05-0.36-0.91 0.36 0.48-0.02-0.03c-0.19-0.14-0.36-0.36-0.43-0.62-0.17-0.65 0.19-1.3 0.81-1.49 0.63-0.19 1.27 0.17 1.49 0.79 0.19 0.63-0.14 1.3-0.77 1.49h-0.02c-0.31 0.12-0.65 0.1-0.94-0.07-0.31-0.15-0.53-0.41-0.6-0.72l-0.02-0.05v-0.02l0.43 0.64-0.02-0.02 0.21 0.12h-0.02c-0.1-0.05-0.17-0.1-0.24-0.14l-0.03-0.03 1.16 0.19h-0.03c-0.43 0.15-0.93 0.05-1.27-0.26l-0.05-0.07 1.13 0.33h-0.02c-0.51 0.1-1.04-0.12-1.32-0.55-0.29-0.43-0.29-0.98 0-1.41 0.28-0.44 0.81-0.65 1.32-0.53h0.02c0.31 0.05 0.6 0.24 0.79 0.5l0.05 0.07-0.65-0.48 0.03 0.03c0.31 0.09 0.55 0.31 0.72 0.57l0.02 0.05c0.02 0.07 0.07 0.15 0.1 0.24v0.05l-0.1-0.26 0.02 0.04c0.15 0.27 0.2 0.6 0.1 0.92v0.02l-0.02 0.05-0.77-1.49 0.02 0.02c0.6 0.2 0.94 0.84 0.77 1.47l-0.12-0.89 0.02 0.05 0.1 0.17 0.31 0.91 0.17 0.43v0.02l0.07 0.22 0.05 0.12 0.05 0.22 0.05 0.21v-0.02l0.07 0.33 0.02 0.08 0.29 1.6v0.12l0.05 0.68v0.02l0.05 1.22v0.12l-0.1 1.06v0.07l-0.05 0.55-0.02 0.03-0.05 0.41-0.02 0.12-0.05 0.21-0.05 0.12-0.05 0.15 0.03-0.1-0.05 0.22-0.05 0.09-0.05 0.15-0.02 0.07-0.1 0.19 0.05-0.12-0.05 0.19c-0.02 0.07-0.05 0.12-0.07 0.19l-0.1 0.15-0.02 0.05-0.12 0.16-0.02 0.08-0.12 0.16 0.02-0.02-0.1 0.12 0.03-0.05-0.1 0.19c-0.07 0.08-0.12 0.17-0.21 0.24l-0.12 0.12c-0.15 0.12-0.32 0.2-0.51 0.24l-0.17 0.03c-0.45 0.09-0.91-0.17-1.1-0.6-0.14-0.46 0-0.94 0.41-1.2z"/>
  <path transform="matrix(1.3333 0 0 -1.3333 0 1120.8)" d="m230.28 683.04 0.24-0.19 0.26-0.22 0.27-0.21 0.09-0.1 0.29-0.19 0.27-0.19c0.07-0.05 0.14-0.08 0.21-0.12l0.31-0.12-0.09 0.02 0.31-0.14 0.07-0.05 0.31-0.15 0.1-0.04 0.72-0.24 0.14-0.05 1.44-0.31c0.05-0.03 0.12-0.03 0.2-0.03l0.38-0.05h-0.02l0.36-0.02h0.55l0.33 0.02 0.36 0.03 0.12 0.02 0.84 0.15 0.2 0.02 0.62 0.19 0.02 0.03 0.58 0.19 0.14 0.02 1.3 0.58-0.1-0.03 0.29 0.1c0.48 0.17 0.82 0.58 0.91 1.06 0.1 0.48-0.09 0.98-0.48 1.29-0.36 0.34-0.88 0.43-1.34 0.27l-0.31-0.12-0.1-0.03-1.27-0.57 0.12 0.04-0.58-0.19h0.03l-0.63-0.17 0.17 0.03-0.84-0.12h0.1l-0.34-0.03-0.36-0.02h0.12-0.36 0.12l-0.36 0.02-0.38 0.03 0.21-0.03-1.44 0.32 0.15-0.03-0.7 0.24 0.12-0.05-0.31 0.15 0.1-0.05-0.32 0.17-0.07 0.02-0.31 0.15 0.22-0.12-0.58 0.38 0.12-0.1-0.24 0.22-0.26 0.22-0.05 0.04-0.24 0.17c-0.58 0.46-1.42 0.34-1.87-0.21-0.48-0.58-0.39-1.42 0.14-1.9z"/>
  <path transform="matrix(1.3333 0 0 -1.3333 0 1120.8)" d="m229.99 696.17-0.65-0.03c-0.64-0.02-1.17-0.52-1.24-1.17-0.05-0.65 0.38-1.25 1.03-1.37l1.01-0.22c0.07 0 0.16-0.02 0.24-0.02l5.8-0.1h-0.04l1.29-0.07h0.07l3.63-0.07h0.36c0.6 0 1.17 0.31 1.46 0.84 0.31 0.5 0.31 1.15 0 1.68-0.29 0.5-0.86 0.82-1.46 0.82h-0.36l-3.63-0.05-1.29-0.03h-0.05l-5.78-0.16h-0.1l-1.01-0.1c-0.5-0.02-0.93-0.38-1.1-0.86s-0.03-1.01 0.36-1.37c0.38-0.34 0.93-0.41 1.39-0.19l0.58 0.26c0.5 0.24 0.76 0.79 0.64 1.32-0.14 0.53-0.62 0.89-1.15 0.89z"/>
  <path transform="matrix(1.3333 0 0 -1.3333 0 1120.8)" d="m240.43 695.26-0.19-0.05c-0.17-0.03-0.31-0.1-0.43-0.19l-0.15-0.15c-0.09-0.05-0.16-0.14-0.24-0.24l-0.12-0.19 0.05 0.07-0.09-0.12-0.12-0.17-0.05-0.07-0.15-0.19-0.02-0.05-0.1-0.17c-0.02-0.07-0.04-0.12-0.07-0.19l-0.07-0.19 0.05 0.12-0.1-0.19-0.02-0.07-0.07-0.17-0.03-0.1-0.07-0.21 0.02 0.09-0.04-0.19-0.05-0.07-0.05-0.24-0.05-0.12-0.05-0.43v-0.03l-0.09-0.6v-0.05l-0.03-0.55-0.04-0.57v-0.12l0.04-1.3v-0.02l0.05-0.7v-0.14l0.34-1.68 0.02-0.1 0.07-0.31v0.02l0.08-0.24v-0.02l0.04-0.22 0.05-0.14 0.1-0.22 0.17-0.45v-0.03l0.38-0.96c0.05-0.09 0.1-0.17 0.14-0.24l0.03-0.05-0.17 1.06v-0.02c-0.1-0.32-0.07-0.65 0.07-0.94 0.17-0.26 0.41-0.48 0.72-0.58h0.03l-0.84 1.4v-0.05l0.02 0.12v-0.03c-0.12-0.36-0.05-0.76 0.17-1.05l0.02-0.05-0.17 0.36v-0.05c0.05-0.12 0.1-0.26 0.2-0.36l0.02-0.02c0.14-0.24 0.38-0.41 0.67-0.48l0.03-0.03-0.68 0.48 0.05-0.07c0.19-0.26 0.48-0.45 0.82-0.5h0.02c0.51-0.12 1.01 0.12 1.3 0.55 0.29 0.41 0.29 0.96 0 1.39s-0.79 0.65-1.3 0.55h-0.02l1.1-0.33-0.07 0.07c-0.34 0.31-0.79 0.43-1.22 0.29h-0.03l0.99-0.12-0.03 0.02 0.07-0.05-0.04 0.03-0.08 0.05-0.02 0.02 0.53-0.7v0.03l0.02-0.12v0.05c-0.07 0.33-0.29 0.62-0.57 0.79-0.29 0.17-0.63 0.21-0.96 0.12h-0.03l1.49-0.79-0.02 0.02c-0.08 0.29-0.27 0.5-0.51 0.65l-0.05 0.02 0.48-0.53-0.4 0.96v-0.04l-0.17 0.45-0.03 0.03-0.09 0.24 0.05-0.15-0.05 0.22-0.07 0.24v0.02l-0.1 0.34 0.02-0.1-0.36 1.68 0.03-0.12-0.07 0.7v-0.05l-0.08 1.27v-0.09l0.03 0.57 0.02 0.55v-0.04l0.05 0.57v-0.05l0.05 0.44-0.03-0.12 0.05 0.21-0.02-0.07 0.07 0.19 0.02 0.07 0.05 0.22-0.02-0.07 0.05 0.17-0.03-0.1 0.07 0.19 0.08 0.15 0.04 0.19-0.07-0.19 0.07 0.19-0.02-0.07 0.12 0.21-0.02-0.07 0.09 0.17 0.03 0.02 0.07 0.12 0.05 0.05 0.12 0.19-0.22-0.24 0.14 0.12-0.14-0.09 0.17 0.09c0.41 0.24 0.57 0.75 0.41 1.2-0.17 0.46-0.63 0.72-1.11 0.63z"/>
  <path transform="matrix(1.3333 0 0 -1.3333 0 1120.8)" d="m237.53 685.27c0-0.86-0.72-1.58-1.61-1.58-0.86 0-1.58 0.72-1.58 1.58 0 0.89 0.72 1.61 1.58 1.61 0.89 0 1.61-0.72 1.61-1.61z" fill-rule="evenodd"/>
  <path transform="matrix(1.3333 0 0 -1.3333 0 1120.8)" d="m230.09 672.5v0.03l-0.24-0.39v0.03l-0.6-0.31h0.02c0.22 0.02 0.41 0.14 0.58 0.26l0.07 0.07v0.03c0.12 0.12 0.22 0.24 0.29 0.4v0.03l-0.41-0.55 0.24 0.19 0.05 0.05 0.17 0.12-0.17-0.12 0.17 0.09 0.21 0.15-0.14-0.1 0.17 0.1 0.19 0.07h-0.05l0.53 0.24-0.15-0.07 1.54 0.48h-0.02l0.5 0.16-0.1-0.04 0.56 0.12 0.55 0.12-0.1-0.03 0.55 0.07 0.56 0.1-0.05-0.02 0.57 0.07 0.56 0.05h-0.17l0.6-0.03h0.07l0.53 0.03h-0.07l0.55-0.03h-0.03l0.56-0.05-0.08 0.03 1.49-0.19h-0.07l0.53-0.08h-0.07l0.5-0.09h-0.02l0.52-0.15-0.04 0.03 0.48-0.15-0.08 0.03 0.51-0.17-0.07 0.02 0.5-0.19-0.05 0.03 1.06-0.46-0.1 0.05 1.15-0.6-0.33 0.24 0.17-0.17c0.4-0.36 0.96-0.48 1.46-0.31s0.89 0.6 1.01 1.13c0.09 0.52-0.07 1.08-0.48 1.44l-0.15 0.12c-0.12 0.09-0.21 0.16-0.33 0.21l-1.15 0.58-0.08 0.05-1.08 0.43-0.04 0.05-0.51 0.16-0.05 0.03-0.5 0.17-0.07 0.02-0.51 0.12-0.04 0.02-0.51 0.12h-0.02l-0.51 0.12h-0.09l-0.53 0.1h-0.07l-1.51 0.17h-0.12l-0.56 0.02h-0.69l-0.55-0.05 0.07 0.03-0.6-0.03h-0.17l-0.53-0.09h0.03l-0.6-0.05-0.05-0.02-0.58-0.1-0.55-0.1h-0.07l-0.55-0.14-0.56-0.14-0.12-0.05-0.5-0.15-0.02-0.02-1.52-0.58-0.09-0.04-0.53-0.24-0.07-0.05-0.19-0.12-0.17-0.1-0.15-0.09-0.14-0.12 0.05 0.04-0.15-0.12-0.28-0.24-0.08-0.09-0.21-0.24c-0.29-0.34-0.36-0.79-0.19-1.2v-0.03c0.07-0.16 0.14-0.28 0.26-0.4l0.02-0.03c0.17-0.17 0.39-0.29 0.63-0.33h0.05l-0.6 0.31 0.02-0.03c0.24-0.26 0.62-0.36 0.98-0.26h0.03c0.31 0.07 0.6 0.31 0.72 0.62z"/>
  <path transform="matrix(1.3333 0 0 -1.3333 0 1120.8)" d="m229.68 673.94h-0.02c-0.22 0.05-0.41 0.05-0.6-0.02l0.28 0.05h-0.02c-0.26 0-0.55-0.12-0.74-0.34l-0.03-0.02h0.03-0.03c-0.43-0.43-0.48-1.13-0.09-1.61l0.21-0.24 0.1-0.12 0.14-0.12c0.07-0.07 0.15-0.14 0.22-0.19l0.17-0.1-0.15 0.1 0.15-0.12 0.21-0.15c0.05-0.04 0.15-0.09 0.22-0.12l0.17-0.09-0.05 0.05 0.53-0.29 0.14-0.05 1.49-0.55 0.05-0.03 0.52-0.14 0.08-0.02 0.52-0.12 0.05-0.03 0.53-0.12 0.07-0.02 0.58-0.07v-0.03l0.55-0.07 0.05-0.02 0.57-0.08h0.03l0.55-0.04h0.1l0.6-0.05h1.22l0.55 0.05h0.1l1.49 0.14 0.09 0.02 0.55 0.1 0.08 0.02 0.52 0.12 0.51 0.12 0.09 0.03 0.46 0.12 0.14 0.05 0.51 0.19-0.12-0.03 0.5 0.15 0.15 0.05 1.05 0.45 0.15 0.05 1.15 0.62c0.09 0.08 0.19 0.12 0.26 0.2l0.17 0.14c0.41 0.36 0.58 0.89 0.48 1.42-0.12 0.52-0.5 0.96-1.01 1.12-0.5 0.17-1.08 0.05-1.46-0.31l-0.15-0.14 0.27 0.21-1.13-0.64 0.14 0.07-1.08-0.43 0.12 0.02-0.52-0.17-0.08-0.02-0.5-0.22 0.14 0.05-0.48-0.14 0.08 0.02-0.53-0.12-0.51-0.14 0.08 0.02-0.56-0.1 0.12 0.03-1.53-0.19h0.07l-0.55-0.05h0.07l-0.55-0.03h0.02-0.55 0.02-0.57 0.07l-0.55 0.03h0.05l-0.6 0.07h0.04l-0.55 0.05h0.03l-0.56 0.07h0.08l-0.58 0.1h0.05l-0.55 0.12 0.07-0.03-0.53 0.15h0.05l-1.51 0.43 0.14-0.07-0.5 0.24-0.12 0.07-0.2 0.05 0.22-0.1-0.14 0.1 0.04-0.05-0.14 0.12-0.17 0.09-0.17 0.08 0.27-0.17-0.17 0.12-0.02 0.02-0.24 0.19 0.12-0.09h-0.03 0.03l-0.03 0.02h-0.02c-0.1 0.1-0.22 0.19-0.36 0.27l-0.07 0.02 0.62-0.62-0.02 0.02c-0.1 0.31-0.36 0.55-0.7 0.62z"/>
  <path transform="matrix(1.3333 0 0 -1.3333 0 1120.8)" d="m250.42 667.58 0.28-0.02c0.15 0 0.29 0.02 0.44 0.07l0.19 0.05h-0.05l0.22 0.07 0.21 0.05 0.15 0.05 0.19 0.09-0.05-0.02 0.22 0.1 0.09 0.02 0.19 0.1 0.1 0.04 0.38 0.24 0.17 0.1 0.12 0.1 0.1 0.09-0.03-0.02 0.12 0.09 0.15 0.15 0.09 0.12 0.1 0.07 0.1 0.17 0.09 0.12-0.17-0.19 0.1 0.09c0.1 0.07 0.14 0.17 0.19 0.27l0.07 0.14-0.14-0.24 0.1 0.12c0.09 0.1 0.16 0.22 0.21 0.36l0.05 0.14-0.14-0.28 0.09 0.12c0.05 0.09 0.1 0.19 0.15 0.26l0.09 0.31 0.03 0.05 0.12 0.34 0.02 0.07 0.07 0.31 0.1 0.34 0.02 0.12 0.05 0.36v0.02l0.05 0.34 0.05 0.33v0.1l0.02 0.36v0.36l-0.02 0.17-0.08 0.88v0.12l-0.12 0.65v0.03l-0.14 0.67-0.02 0.09-0.17 0.65-0.03 0.1-0.52 1.46v0.07l-1.11 2.79v0.02l-0.12 0.27-0.12 0.28h0.03l-0.12 0.27 0.04-0.17-0.04 0.29-0.08 0.31-0.07 0.29 0.03-0.12-0.03 0.33v-0.04l-0.05 0.31 0.03-0.1-0.03 0.31v0.36-0.14 0.29-0.07l0.05 0.31-0.02-0.07 0.05 0.28 0.12 0.8-0.05-0.24 0.14 0.4 0.15 0.39 0.14 0.41-0.07-0.17 0.45 0.91-0.04-0.1 0.81 1.32 0.51 0.89v-0.02l0.12 0.21 0.14 0.24-0.02-0.04 0.14 0.21 0.05 0.07 0.12 0.22 0.09 0.19 0.08 0.19 0.02 0.05 0.1 0.24v0.03l0.09 0.24 0.03 0.07 0.16 0.57c0.05 0.1 0.05 0.2 0.08 0.32v0.14l-0.05-0.29 0.05 0.15c0.02 0.09 0.04 0.19 0.04 0.28v0.15l0.03 0.14-0.03-0.09 0.03 0.16c0.02 0.1 0.02 0.2 0.02 0.29l-0.02 0.15v-0.1 0.38l-0.03 0.1v0.14l-0.02 0.08-0.02 0.14-0.03 0.05-0.02 0.14-0.03 0.1-0.04 0.14-0.03 0.12-0.05 0.12 0.05-0.12-0.09 0.27-0.12 0.28c-0.05 0.17-0.15 0.32-0.27 0.44l-0.07 0.09 0.19-0.24-0.05 0.05c-0.07 0.12-0.16 0.22-0.24 0.31l-0.07 0.07 0.07-0.07-0.07 0.07 0.07-0.07-0.04 0.07c-0.08 0.08-0.15 0.17-0.24 0.24l-0.08 0.05 0.17-0.17-0.07 0.1c-0.05 0.07-0.14 0.14-0.22 0.19l-0.07 0.07 0.15-0.14-0.05 0.07c-0.15 0.15-0.34 0.27-0.53 0.34l-0.1 0.02 0.48-0.29-0.09 0.1c-0.1 0.07-0.22 0.14-0.31 0.22l-0.1 0.04 0.12-0.07-0.17 0.12c-0.09 0.03-0.17 0.07-0.24 0.12l-0.21 0.05c-0.75 0.31-1.59-0.07-1.88-0.82-0.28-0.76 0.08-1.6 0.84-1.92l0.17-0.04-0.21 0.09 0.16-0.09 0.12-0.08 0.08-0.04-0.32 0.21 0.08-0.07c0.14-0.12 0.28-0.22 0.48-0.26l0.07-0.03-0.53 0.31 0.07-0.04c0.03-0.05 0.1-0.1 0.15-0.15l0.09-0.05-0.24 0.2 0.07-0.08c0.05-0.04 0.12-0.12 0.17-0.16l0.07-0.05-0.24 0.26 0.05-0.09 0.07-0.08 0.08-0.09 0.12-0.12-0.24 0.29 0.04-0.05c0.05-0.1 0.12-0.17 0.17-0.24l0.07-0.1-0.26 0.43 0.12-0.28-0.05 0.14 0.03-0.14 0.04-0.12 0.05-0.12-0.02 0.12 0.02-0.15v0.1l0.03-0.15-0.03 0.05 0.03-0.17v0.08l0.02-0.15-0.02 0.1 0.02-0.15v0.12-0.24l0.02-0.16v0.28l-0.02-0.14-0.02-0.1v-0.26l0.04 0.31-0.04-0.17c-0.03-0.07-0.03-0.19-0.05-0.28v-0.15l0.05 0.36-0.17-0.57 0.02 0.04-0.09-0.24-0.1-0.24 0.02 0.05-0.07-0.21 0.07 0.16-0.14-0.24 0.05 0.08-0.12-0.2-0.03-0.04-0.14-0.24v0.02l-0.14-0.22v-0.02l-0.51-0.89v0.03l-0.79-1.32-0.05-0.1-0.45-0.91-0.08-0.15-0.16-0.43v-0.02l-0.15-0.39-0.12-0.43c-0.05-0.07-0.05-0.14-0.07-0.21l-0.12-0.8-0.05-0.33v-0.07l-0.05-0.32v-0.52l0.03-0.34v0.05l0.02-0.31v-0.08l0.03-0.33v-0.03l0.04-0.33 0.03-0.15 0.07-0.28v-0.03l0.07-0.29 0.07-0.31 0.08-0.17 0.09-0.28 0.03-0.05 0.12-0.29 0.12-0.26 1.15-2.81-0.03 0.05 0.53-1.44v0.04l0.19-0.64-0.02 0.12 0.14-0.68v0.03l0.15-0.67-0.03 0.12 0.12-0.92v0.08-0.32 0.03l0.03-0.36v0.12l-0.03-0.34v-0.33 0.02l-0.04-0.36 0.02 0.14-0.05-0.33-0.05-0.31v0.09l-0.07-0.33 0.03 0.09-0.12-0.31 0.12 0.24-0.08-0.12c-0.04-0.1-0.09-0.19-0.12-0.29l-0.04-0.14 0.16 0.36-0.07-0.12c-0.05-0.05-0.09-0.12-0.12-0.19l-0.07-0.15 0.19 0.27-0.12-0.12c-0.05-0.05-0.09-0.12-0.12-0.2l-0.07-0.12 0.1 0.15-0.08-0.12v0.02l-0.07-0.12 0.15 0.17-0.12-0.1-0.03-0.04-0.12-0.1-0.09-0.1 0.16 0.15-0.36-0.24 0.05 0.05-0.19-0.12 0.1 0.04-0.24-0.09-0.05-0.03-0.19-0.09 0.14 0.05-0.22-0.08-0.21-0.07-0.07-0.02-0.17-0.07 0.26 0.07-0.29-0.05c-0.52-0.07-0.93-0.55-0.91-1.1 0-0.56 0.46-0.99 0.99-1.04z"/>
  <path transform="matrix(1.3333 0 0 -1.3333 0 1120.8)" d="m255.29 669.72-0.27 0.02 0.27-0.07-0.19 0.07-0.05 0.03-0.22 0.07-0.21 0.1 0.12-0.08-0.24 0.12-0.22 0.1 0.07-0.02-0.19 0.09 0.07-0.05-0.38 0.27 0.19-0.17-0.22 0.22-0.04 0.02-0.1 0.1 0.14-0.17-0.07 0.12-0.07 0.09 0.1-0.14-0.08 0.12c-0.04 0.07-0.07 0.14-0.14 0.22l-0.1 0.12 0.17-0.29-0.05 0.14c-0.04 0.07-0.07 0.15-0.12 0.22l-0.07 0.09 0.17-0.38-0.05 0.17c-0.02 0.09-0.07 0.19-0.12 0.29l-0.09 0.12 0.12-0.24-0.12 0.31 0.04-0.1-0.07 0.34v-0.1l-0.05 0.34-0.07 0.31 0.03-0.12-0.03 0.34v-0.03 0.34l-0.05 0.36v-0.12l0.03 0.33v-0.04l0.02 0.36v-0.08l0.12 0.89-0.02-0.12 0.14 0.67 0.15 0.63-0.03-0.07 0.19 0.64-0.02-0.07 0.55 1.47-0.05-0.08 1.18 2.81v-0.02l0.1 0.29h0.02l0.24 0.62 0.07 0.17 0.05 0.31 0.07 0.29h0.03l0.04 0.33 0.05 0.12 0.03 0.34v0.05l0.04 0.31v0.1l0.03 0.28v-0.04l0.02 0.31v0.45l-0.02 0.08-0.03 0.33v0.1l-0.04 0.31v0.02l-0.15 0.77c0 0.07-0.02 0.15-0.05 0.22l-0.14 0.41v0.02l-0.14 0.41-0.15 0.43-0.07 0.17-0.46 0.89-0.04 0.09-0.8 1.32-0.52 0.87v0.04l-0.15 0.2h0.03l-0.15 0.21-0.02 0.05-0.15 0.19 0.05-0.07-0.12 0.22 0.07-0.15-0.07 0.22v-0.05l-0.09 0.24v-0.02l-0.08 0.26 0.03-0.05-0.19 0.55 0.07-0.31-0.03 0.12c0 0.12 0 0.19-0.04 0.31l-0.03 0.12 0.05-0.28-0.02 0.14v0.22l-0.03 0.16v-0.28l0.03 0.12v0.26-0.1 0.12-0.09 0.14-0.07l0.02 0.17v-0.05l0.02 0.14-0.02-0.09 0.05 0.14-0.05-0.12 0.1 0.24 0.04 0.15-0.04-0.12 0.09 0.28-0.24-0.43 0.05 0.07c0.07 0.08 0.14 0.17 0.19 0.24l0.03 0.08-0.24-0.32 0.07 0.05 0.05 0.07 0.09 0.08 0.05 0.09 0.07 0.07-0.24-0.24 0.07 0.05c0.05 0.07 0.1 0.12 0.17 0.17l0.05 0.07-0.22-0.19 0.08 0.07c0.07 0.03 0.12 0.07 0.16 0.12l0.05 0.07-0.5-0.36 0.07 0.05c0.17 0.05 0.31 0.15 0.46 0.27l0.09 0.09-0.33-0.21 0.09 0.02 0.12 0.07 0.17 0.12-0.22-0.12 0.17 0.07c0.75 0.29 1.11 1.13 0.84 1.88-0.31 0.76-1.15 1.12-1.89 0.84l-0.2-0.05c-0.07-0.05-0.16-0.07-0.24-0.12l-0.16-0.12 0.09 0.05-0.07-0.03c-0.12-0.05-0.22-0.12-0.34-0.21l-0.07-0.08 0.46 0.27-0.07-0.03c-0.2-0.07-0.39-0.19-0.53-0.33l-0.07-0.07 0.16 0.14-0.07-0.05c-0.09-0.07-0.17-0.14-0.24-0.21l-0.07-0.08 0.19 0.17-0.07-0.07c-0.1-0.05-0.17-0.14-0.24-0.24l-0.05-0.07 0.05 0.07-0.05-0.07 0.05 0.07-0.05-0.05c-0.09-0.09-0.17-0.21-0.24-0.33l-0.05-0.08 0.17 0.24-0.07-0.07c-0.1-0.12-0.19-0.26-0.26-0.43l-0.12-0.29-0.03-0.12-0.05-0.14 0.05 0.12-0.05-0.12-0.04-0.12-0.03-0.15-0.05-0.09-0.02-0.15v-0.04l-0.02-0.15-0.03-0.07v-0.14l-0.02-0.1-0.03-0.14v-0.24 0.09-0.12-0.29l0.03-0.16v0.07l0.02-0.15v-0.12c0-0.12 0.03-0.21 0.05-0.31l0.02-0.14-0.04 0.29 0.02-0.12c0-0.12 0.02-0.24 0.07-0.36l0.17-0.56 0.02-0.04 0.08-0.27h0.02l0.1-0.24v-0.05l0.09-0.24 0.07-0.16 0.15-0.22 0.05-0.07 0.12-0.22-0.03 0.05 0.15-0.24 0.12-0.22v0.03l0.52-0.87v-0.02l0.8-1.32-0.05 0.1 0.45-0.92-0.04 0.17 0.14-0.41-0.02 0.03 0.16-0.41v0.02l0.12-0.43-0.04 0.24 0.12-0.77 0.07-0.33-0.03 0.12 0.05-0.34v0.1-0.31 0.14l-0.02-0.31v-0.36 0.09l-0.03-0.33v0.05l-0.04-0.32 0.04 0.15-0.07-0.31-0.07-0.29-0.07-0.31 0.05 0.19-0.1-0.31v0.04l-0.12-0.31h0.02l-0.12-0.26-1.1-2.83-0.02-0.05-0.51-1.47-0.02-0.09-0.19-0.65-0.03-0.1-0.12-0.64v-0.05l-0.12-0.67v-0.1l-0.09-0.91v-0.84l0.02-0.12 0.02-0.34 0.05-0.33 0.03-0.05 0.04-0.34 0.03-0.12 0.07-0.33 0.1-0.32 0.02-0.09 0.1-0.31 0.02-0.05 0.12-0.29c0.02-0.1 0.1-0.19 0.14-0.26l0.08-0.12-0.15 0.26 0.07-0.14c0.05-0.12 0.12-0.24 0.2-0.36l0.09-0.1-0.14 0.22 0.07-0.15c0.07-0.09 0.12-0.19 0.19-0.26l0.12-0.1-0.17 0.17 0.08-0.1 0.12-0.14 0.07-0.1 0.02-0.02 0.07-0.1c0.05-0.04 0.12-0.09 0.17-0.14l0.12-0.1-0.02 0.03 0.09-0.07 0.12-0.1 0.15-0.12 0.38-0.24 0.12-0.05 0.19-0.09 0.32-0.12-0.08 0.02 0.2-0.07 0.14-0.05 0.22-0.07 0.24-0.07-0.05 0.02 0.19-0.07c0.14-0.05 0.26-0.07 0.41-0.05h0.29c0.55 0.05 0.98 0.48 1 1.06 0.03 0.55-0.38 1.03-0.93 1.1z"/>
 </g>
</svg>
