<svg width="37.975" height="36.733" version="1.1" viewBox="0 0 37.975 36.733" xmlns="http://www.w3.org/2000/svg">
 <g transform="translate(-736.13 -116.29)">
  <path transform="matrix(1.3333 0 0 -1.3333 0 1120.8)" d="m554.71 753.05h-1.34c-0.7-0.03-1.23-0.58-1.27-1.23-0.03-0.69 0.48-1.27 1.17-1.36l2.16-0.22h0.12l12.19-0.07h-0.02l2.76-0.1h0.02l7.64-0.07h0.76c0.6 0 1.16 0.34 1.44 0.84 0.32 0.53 0.32 1.15 0 1.7-0.28 0.51-0.84 0.84-1.44 0.84h-0.76l-7.64-0.09h-2.76l-12.21-0.19h-0.03l-2.16-0.08c-0.48 0-0.91-0.31-1.12-0.76-0.2-0.41-0.15-0.92 0.19-1.32 0.29-0.39 0.77-0.53 1.25-0.46l1.32 0.31c0.57 0.12 0.96 0.67 0.91 1.23-0.1 0.6-0.58 1.05-1.18 1.03z"/>
  <path transform="matrix(1.3333 0 0 -1.3333 0 1120.8)" d="m558.31 746.69 0.05-0.07 0.05-0.05v-0.05c0.38-0.53 1.1-0.72 1.68-0.41 0.6 0.27 0.91 0.94 0.72 1.56l-0.03 0.1v-0.05l-0.02 0.1c-0.19 0.74-0.91 1.2-1.63 1.05-0.75-0.12-1.25-0.81-1.18-1.56 0.1-0.72 0.72-1.29 1.49-1.27h0.07l-1.27 0.89 0.02-0.1c0.22-0.55 0.72-0.86 1.3-0.86 0.6 0.02 1.08 0.41 1.25 0.96 0.14 0.53-0.05 1.13-0.51 1.46l-0.02 0.03-0.07 0.07-0.05 0.02c-0.55 0.34-1.2 0.24-1.66-0.19-0.43-0.43-0.5-1.1-0.19-1.63z"/>
  <path transform="matrix(1.3333 0 0 -1.3333 0 1120.8)" d="m567.91 747.17c0-0.79-0.65-1.42-1.44-1.42-0.77 0-1.39 0.63-1.39 1.42s0.62 1.44 1.39 1.44c0.79 0 1.44-0.65 1.44-1.44z" fill-rule="evenodd"/>
  <path transform="matrix(1.3333 0 0 -1.3333 0 1120.8)" d="m574.39 747.29c0-0.82-0.62-1.44-1.44-1.44-0.77 0-1.44 0.62-1.44 1.44 0 0.79 0.67 1.44 1.44 1.44 0.82 0 1.44-0.65 1.44-1.44z" fill-rule="evenodd"/>
  <path transform="matrix(1.3333 0 0 -1.3333 0 1120.8)" d="m554.69 735.55h-0.63c-0.67 0-1.24-0.48-1.29-1.15-0.07-0.65 0.36-1.25 1.01-1.39l1-0.19c0.08-0.03 0.15-0.03 0.24-0.03l5.69-0.12h-0.02l1.29-0.07h0.03l3.57-0.05h0.36c0.6 0 1.18 0.29 1.47 0.84 0.31 0.51 0.31 1.13 0 1.68-0.29 0.51-0.87 0.82-1.47 0.82h-0.36l-3.57-0.07h0.02-1.32l-5.69-0.17h-0.09l-1.03-0.1c-0.48-0.07-0.92-0.38-1.08-0.86-0.15-0.48-0.03-1.03 0.33-1.37 0.39-0.36 0.94-0.43 1.39-0.24l0.56 0.24c0.52 0.22 0.79 0.77 0.69 1.3-0.12 0.5-0.57 0.91-1.1 0.93z"/>
  <path transform="matrix(1.3333 0 0 -1.3333 0 1120.8)" d="m554.83 728.81-0.62 0.02c-0.67 0-1.23-0.48-1.3-1.15-0.09-0.65 0.36-1.27 1.03-1.39l0.99-0.19c0.05-0.03 0.14-0.03 0.24-0.03l5.71-0.12h-0.07l1.29-0.07h0.05l3.58-0.05h0.36c0.6 0 1.17 0.29 1.46 0.82 0.31 0.53 0.31 1.15 0 1.68-0.29 0.53-0.86 0.84-1.46 0.84h-0.36l-3.58-0.07h-1.27l-0.05-0.03-5.69-0.14h-0.09l-0.99-0.1c-0.52-0.07-0.93-0.38-1.08-0.86-0.19-0.48-0.04-1.03 0.32-1.37 0.36-0.36 0.91-0.43 1.39-0.24l0.57 0.24c0.51 0.22 0.77 0.77 0.68 1.3-0.12 0.5-0.56 0.91-1.11 0.91z"/>
  <path transform="matrix(1.3333 0 0 -1.3333 0 1120.8)" d="m554.74 733.3 0.04-0.1-0.07 0.31v-0.09c0-0.1 0.03-0.17 0.07-0.29v-0.07l0.03-0.1 0.02-0.07v-0.1c0.03-0.07 0.07-0.12 0.1-0.21l0.09-0.17-0.04 0.02 0.19-0.43-0.07 0.19 0.12-0.43 0.04-0.14 0.41-1.01v-0.05l0.31-0.67v-0.05l0.89-1.94 0.1-0.17c0.26-0.65 0.98-0.91 1.63-0.65 0.6 0.31 0.86 1.01 0.6 1.63l-0.07 0.22-0.03 0.02-0.93 1.92 0.02-0.02-0.31 0.67 0.02-0.02-0.43 1.03 0.07-0.17-0.12 0.43-0.07 0.15-0.17 0.43-0.09 0.19 0.09-0.19-0.04 0.07-0.03 0.1-0.02 0.09v0.1l0.02-0.31v0.09c0 0.1-0.02 0.17-0.02 0.29l-0.03 0.07c-0.16 0.65-0.81 1.06-1.44 0.87-0.67-0.15-1.05-0.77-0.88-1.44z"/>
  <path transform="matrix(1.3333 0 0 -1.3333 0 1120.8)" d="m560.78 733.87 0.1-0.48c0.02-0.07 0.02-0.14 0.05-0.21l0.02-0.05 0.1-0.17 0.02-0.07c0.05-0.07 0.1-0.12 0.12-0.19l0.07-0.03-0.31 0.89v-0.05c-0.02-0.24 0.05-0.48 0.17-0.72l0.02-0.07-0.07 0.19v-0.07l-0.02 0.17v-0.07l0.02-0.03 0.05-0.14 0.02-0.07 0.12-0.34 0.03-0.12 1.68-3.48v0.05l0.24-0.55 0.07-0.15 0.05-0.09c0.36-0.6 1.1-0.77 1.7-0.41 0.58 0.31 0.77 1.1 0.43 1.68l-0.07 0.12 0.07-0.17-0.24 0.55-0.02 0.03-1.68 3.48 0.02-0.05-0.12 0.31v-0.02l-0.07 0.12v0.02l-0.02 0.07c-0.03 0.05-0.05 0.12-0.1 0.17v0.07l-0.07 0.1-0.05 0.05 0.24-0.63-0.02 0.05c0 0.31-0.15 0.6-0.39 0.79l-0.02 0.05 0.14-0.17-0.02 0.05 0.05-0.07-0.03 0.02c-0.07 0.12-0.19 0.22-0.26 0.29l-0.36 0.31c-0.34 0.27-0.82 0.29-1.18 0.1-0.36-0.22-0.57-0.65-0.48-1.06z"/>
  <path transform="matrix(1.3333 0 0 -1.3333 0 1120.8)" d="m574.7 734.16v-0.02c-0.02-0.1-0.02-0.17-0.02-0.27l0.05-1.51v0.05l0.12-3.22v-0.09l0.09-0.94v0.17-0.07c0-0.39 0.17-0.75 0.53-0.96 0.34-0.22 0.77-0.22 1.13 0 0.31 0.21 0.53 0.57 0.53 0.96v0.07l-0.03 0.12-0.12 0.89 0.03-0.05-0.17 3.19v0.05l-0.17 1.49v0.12l-0.02 0.02c-0.1 0.46-0.51 0.79-0.96 0.79-0.48 0-0.89-0.33-0.99-0.79z"/>
 </g>
</svg>
