<?xml version="1.0" encoding="UTF-8" standalone="no"?>
<!-- Created with Inkscape (http://www.inkscape.org/) -->

<svg
   version="1.1"
   id="svg1"
   width="300"
   height="300"
   viewBox="0 0 300 299.99999"
   sodipodi:docname="lesson1.pdf"
   inkscape:export-filename="multichoice\multichoice12\multichoice12_option4.svg"
   inkscape:export-xdpi="96"
   inkscape:export-ydpi="96"
   xmlns:inkscape="http://www.inkscape.org/namespaces/inkscape"
   xmlns:sodipodi="http://sodipodi.sourceforge.net/DTD/sodipodi-0.dtd"
   xmlns="http://www.w3.org/2000/svg"
   xmlns:svg="http://www.w3.org/2000/svg">
  <defs
     id="defs1" />
  <sodipodi:namedview
     id="namedview1"
     pagecolor="#ffffff"
     bordercolor="#000000"
     borderopacity="0.25"
     inkscape:showpageshadow="2"
     inkscape:pageopacity="0.0"
     inkscape:pagecheckerboard="0"
     inkscape:deskcolor="#d1d1d1">
    <inkscape:page
       x="0"
       y="0"
       inkscape:label="1"
       id="page1"
       width="300"
       height="300"
       margin="0"
       bleed="0" />
  </sodipodi:namedview>
  <g
     id="g1"
     inkscape:groupmode="layer"
     inkscape:label="1">
    <g
       id="g89"
       transform="matrix(10.778833,0,0,11.105563,-1035.3749,-3539.5817)"
       style="fill:#1a1a1a">
      <path
         id="path89"
         d="m 73.68,590.81 v -0.19 c 0,-0.05 0,-0.1 0.024,-0.12 l 0.048,-0.41 v 0.05 l 0.072,-1.06 v 0 l 0.048,-0.6 -0.024,0.05 0.168,-3.99 0.024,-0.09 v -0.1 0.05 l 0.024,-0.34 v 0.1 L 74.04,583.2 v 0.1 l -0.024,-0.15 c -0.048,-0.36 0.12,-0.69 0.408,-0.93 0.288,-0.22 0.672,-0.24 1.008,-0.1 0.336,0.14 0.552,0.46 0.6,0.82 v 0.14 0.1 l 0.024,0.96 c 0,0.02 -0.024,0.07 -0.024,0.12 l -0.024,0.36 v 0 l -0.024,0.12 v -0.1 l -0.216,3.96 v 0.05 l -0.072,0.6 v -0.03 l -0.096,1.06 v 0.1 l -0.072,0.4 v 0 l -0.048,0.2 c -0.072,0.43 -0.504,0.76 -0.96,0.72 -0.48,-0.05 -0.84,-0.44 -0.84,-0.89 z"
         style="fill:#1a1a1a;fill-opacity:1;fill-rule:nonzero;stroke:none"
         transform="matrix(1.3333333,0,0,-1.3333333,0,1120.8)" />
    </g>
    <g
       id="g90"
       transform="matrix(10.778833,0,0,10.778833,-1035.3749,-3431.1524)"
       style="fill:#1a1a1a">
      <path
         id="path90"
         d="m 74.568,590.16 0.48,-0.14 c 0.048,-0.05 0.12,-0.05 0.168,-0.05 l 0.96,-0.07 H 76.2 l 0.6,-0.05 h 0.072 l 1.656,0.05 c 0.048,0 0.096,0 0.144,0.02 l 0.432,0.07 c 0.072,0 0.096,0.03 0.144,0.03 l 0.144,0.04 -0.216,-0.04 0.12,0.02 v 0 h 0.12 v 0 l 0.288,0.02 h -0.168 0.096 c 0.36,-0.02 0.696,0.15 0.888,0.46 0.192,0.29 0.192,0.7 0,0.98 -0.192,0.32 -0.528,0.48 -0.888,0.46 l -0.096,-0.02 h -0.048 l -0.288,-0.03 -0.048,-0.02 h -0.12 v 0 l -0.096,-0.05 c -0.072,0 -0.144,-0.02 -0.216,-0.02 l -0.12,-0.08 0.168,0.08 -0.432,-0.1 h 0.144 l -1.68,-0.07 v 0 l -0.6,-0.05 h 0.048 -0.96 l 0.12,-0.02 -0.528,0.09 c -0.384,0.05 -0.768,-0.21 -0.864,-0.6 -0.096,-0.41 0.144,-0.79 0.552,-0.91 z"
         style="fill:#1a1a1a;fill-opacity:1;fill-rule:nonzero;stroke:none"
         transform="matrix(1.3333333,0,0,-1.3333333,0,1120.8)" />
    </g>
    <g
       id="g91"
       transform="matrix(10.778833,0,0,10.778833,-1035.3749,-3434.764)"
       style="fill:#1a1a1a">
      <path
         id="path91"
         d="m 78.744,590.83 v -0.33 -0.05 l 0.072,-1.68 v 0 l 0.168,-2.55 v -0.02 l 0.072,-0.62 v -0.03 l 0.144,-1.44 v 0.1 -0.96 c 0,-0.07 0,-0.12 0.024,-0.17 l 0.024,-0.07 -0.024,0.19 v -0.07 -0.03 -0.09 0 -0.07 l 0.024,0.19 -0.024,-0.07 v 0 l -0.024,-0.1 v -0.02 l -0.024,-0.1 c 0,-0.05 0,-0.12 0,-0.14 v -0.1 l 0.024,0.31 -0.048,-0.19 0.024,0.07 -0.048,-0.07 c -0.144,-0.36 -0.072,-0.74 0.144,-1.03 0.216,-0.29 0.576,-0.43 0.96,-0.39 0.36,0.05 0.672,0.32 0.792,0.65 l 0.024,0.1 0.024,0.02 0.048,0.19 c 0.048,0.12 0.072,0.24 0.048,0.34 v 0.1 -0.2 l 0.024,0.1 -0.024,-0.02 0.024,0.07 v 0 l 0.024,0.09 c 0,0.08 0,0.12 0,0.2 v 0.07 0 0.09 0.03 0.07 c 0,0.05 0,0.12 -0.024,0.19 l -0.024,0.07 0.024,-0.16 -0.048,0.96 -0.024,0.07 -0.144,1.44 v 0 l -0.096,0.62 v -0.02 l -0.192,2.52 v 0 l -0.096,1.65 -0.024,0.05 -0.024,0.34 c -0.048,0.45 -0.456,0.79 -0.936,0.79 -0.48,-0.02 -0.84,-0.43 -0.864,-0.89 z"
         style="fill:#1a1a1a;fill-opacity:1;fill-rule:nonzero;stroke:none"
         transform="matrix(1.3333333,0,0,-1.3333333,0,1120.8)" />
    </g>
    <g
       id="g92"
       transform="matrix(10.776121,-0.24179008,0.24179008,10.776121,-1125.5339,-3406.2921)"
       style="fill:#1a1a1a">
      <path
         id="path92"
         d="m 75.528,581.66 0.984,-0.04 -0.048,0.02 2.016,-0.17 h 0.048 l 1.584,-0.09 h 0.048 0.12 c 0.576,0 1.008,0.48 1.008,1.03 0,0.57 -0.432,1.03 -1.008,1.03 h -0.12 0.048 l -1.608,0.05 v 0 l -2.016,0.07 h -0.072 l -0.984,-0.02 C 75,583.51 74.616,583.1 74.616,582.6 c 0,-0.5 0.384,-0.91 0.912,-0.94 z"
         style="fill:#1a1a1a;fill-opacity:1;fill-rule:nonzero;stroke:none"
         transform="matrix(1.3333333,0,0,-1.3333333,0,1120.8)" />
    </g>
    <g
       id="g93"
       transform="matrix(10.778833,0,0,10.778833,-1035.3749,-3431.1524)"
       style="fill:#1a1a1a">
      <path
         id="path93"
         d="m 78.192,588.46 c 0,-0.46 -0.384,-0.82 -0.84,-0.82 -0.456,0 -0.84,0.36 -0.84,0.82 0,0.48 0.384,0.84 0.84,0.84 0.456,0 0.84,-0.36 0.84,-0.84 z"
         style="fill:#1a1a1a;fill-opacity:1;fill-rule:evenodd;stroke:none"
         transform="matrix(1.3333333,0,0,-1.3333333,0,1120.8)" />
    </g>
    <g
       id="g94"
       transform="matrix(10.778833,0,0,10.778833,-1035.3749,-3431.1524)"
       style="fill:#1a1a1a">
      <path
         id="path94"
         d="m 78.24,585.58 c 0,-0.46 -0.36,-0.82 -0.84,-0.82 -0.456,0 -0.84,0.36 -0.84,0.82 0,0.48 0.384,0.84 0.84,0.84 0.48,0 0.84,-0.36 0.84,-0.84 z"
         style="fill:#1a1a1a;fill-opacity:1;fill-rule:evenodd;stroke:none"
         transform="matrix(1.3333333,0,0,-1.3333333,0,1120.8)" />
    </g>
    <g
       id="g95"
       transform="matrix(10.778833,0,0,10.778833,-1035.3749,-3431.1524)"
       style="fill:#1a1a1a">
      <path
         id="path95"
         d="m 77.616,590.81 v 0.24 0.12 l -0.048,0.36 -0.024,0.12 -0.024,0.14 v -0.07 l -0.024,0.12 v 0 0.12 -0.12 0.41 0 0.62 -0.07 l 0.144,1.68 v -0.1 l 0.072,0.39 v -0.05 l 0.072,0.36 v -0.02 l 0.096,0.36 -0.024,-0.05 0.36,0.98 -0.048,-0.12 0.096,0.19 0.024,0.03 0.072,0.21 v -0.02 l 0.096,0.19 -0.048,-0.09 0.12,0.19 v 0 l 0.12,0.19 v -0.02 l 0.12,0.16 0.024,0.03 0.144,0.21 -0.12,-0.14 0.432,0.43 -0.024,-0.02 0.144,0.17 -0.048,-0.05 0.168,0.12 -0.072,-0.03 0.144,0.12 -0.024,-0.04 0.144,0.12 -0.048,-0.05 0.168,0.09 0.024,0.03 0.192,0.12 -0.096,-0.07 0.144,0.07 0.072,0.05 0.168,0.09 -0.144,-0.05 0.216,0.08 H 80.4 l 0.168,0.09 -0.12,-0.05 0.432,0.12 h -0.048 l 0.144,0.03 v 0 l 0.144,0.02 -0.12,-0.02 0.168,0.02 v 0 l 0.168,0.03 h -0.024 0.168 -0.12 0.168 -0.096 0.168 0.096 0.168 -0.216 l 0.144,-0.03 c 0.048,0 0.072,-0.02 0.12,-0.02 h 0.168 -0.12 l 0.144,-0.03 v 0 l 0.144,-0.02 -0.072,0.02 0.144,-0.04 -0.12,0.04 0.168,-0.09 -0.048,0.05 0.12,-0.08 0.048,-0.02 0.168,-0.07 v 0 l 0.12,-0.07 v 0 l 0.144,-0.05 -0.12,0.05 0.12,-0.08 -0.024,0.03 0.264,-0.19 -0.12,0.12 0.192,-0.2 0.048,-0.04 0.216,-0.2 -0.096,0.08 0.216,-0.2 -0.048,0.03 0.192,-0.22 v 0 l 0.192,-0.21 -0.072,0.07 0.168,-0.22 -0.024,0.03 0.168,-0.24 -0.024,0.04 0.144,-0.26 -0.024,0.02 0.144,-0.24 -0.024,0.08 0.12,-0.29 -0.048,0.09 0.288,-0.64 -0.024,0.04 0.192,-0.52 -0.024,0.07 0.144,-0.53 v 0.05 l 0.12,-0.53 -0.024,0.12 0.096,-0.53 -0.024,0.03 0.192,-1.42 v 0.1 -0.48 0 l 0.024,-0.48 v 0.09 l -0.072,-1.05 v 0.12 l -0.024,-0.24 c -0.096,-0.56 0.312,-1.08 0.864,-1.18 0.576,-0.07 1.104,0.29 1.2,0.86 l 0.048,0.22 v 0.1 l 0.072,1.03 v 0.12 l -0.024,0.48 v 0 0.48 l -0.024,0.09 -0.192,1.42 v 0.02 l -0.072,0.53 -0.024,0.1 -0.144,0.53 v 0.02 l -0.144,0.5 -0.024,0.05 -0.168,0.51 -0.024,0.04 -0.264,0.65 -0.024,0.07 -0.144,0.27 -0.024,0.05 -0.12,0.24 -0.024,0.02 -0.144,0.24 -0.024,0.05 -0.168,0.24 v 0 l -0.144,0.21 -0.072,0.1 -0.216,0.22 h 0.024 l -0.168,0.21 -0.048,0.03 -0.192,0.24 c -0.024,0.02 -0.048,0.04 -0.096,0.07 l -0.216,0.17 0.072,-0.05 -0.192,0.21 c -0.048,0.03 -0.096,0.08 -0.144,0.1 l -0.264,0.19 -0.048,0.03 -0.144,0.09 c -0.048,0.03 -0.096,0.05 -0.144,0.07 l -0.12,0.08 v 0 l -0.144,0.04 v 0 l -0.168,0.08 0.048,-0.03 -0.12,0.07 -0.048,0.03 -0.168,0.05 c -0.024,0.02 -0.072,0.04 -0.12,0.04 l -0.144,0.05 -0.096,0.03 -0.12,0.04 v 0 l -0.144,0.03 c -0.048,0 -0.096,0 -0.12,0 l -0.168,0.02 0.12,-0.02 -0.168,0.05 c -0.072,0 -0.144,0.02 -0.216,0.02 h -0.168 l 0.12,-0.02 -0.168,0.02 -0.12,0.02 H 81.36 l -0.072,-0.02 -0.168,-0.02 h -0.024 -0.144 0.024 l -0.168,-0.03 c -0.048,0 -0.072,-0.02 -0.12,-0.02 l -0.168,-0.03 v 0 l -0.144,-0.04 h -0.048 l -0.456,-0.12 c -0.048,-0.03 -0.096,-0.05 -0.144,-0.08 l -0.192,-0.07 h 0.024 l -0.192,-0.07 c -0.048,-0.02 -0.072,-0.05 -0.12,-0.07 l -0.168,-0.1 0.072,0.03 -0.168,-0.08 -0.096,-0.04 -0.168,-0.12 0.024,0.02 -0.168,-0.1 -0.048,-0.04 -0.168,-0.12 -0.048,-0.03 -0.144,-0.12 -0.048,-0.05 -0.144,-0.12 -0.048,-0.04 -0.168,-0.15 v -0.02 l -0.432,-0.43 c -0.024,-0.05 -0.072,-0.1 -0.096,-0.15 l -0.144,-0.19 0.024,0.02 -0.12,-0.16 -0.024,-0.05 -0.12,-0.19 v 0 l -0.144,-0.2 c -0.024,-0.04 -0.048,-0.09 -0.072,-0.12 l -0.072,-0.19 -0.024,-0.02 -0.096,-0.22 v 0.03 l -0.072,-0.2 c -0.048,-0.04 -0.048,-0.09 -0.072,-0.12 l -0.336,-1 -0.024,-0.08 -0.096,-0.38 v -0.05 l -0.072,-0.38 v -0.05 l -0.072,-0.36 v -0.1 L 75.6,592.94 c 0,-0.04 0,-0.09 0,-0.12 l 0.048,-0.64 v 0.02 -0.43 c 0.024,-0.05 0.024,-0.12 0.048,-0.19 l 0.048,-0.15 v -0.02 l 0.048,-0.12 0.024,-0.07 0.072,-0.12 -0.024,0.02 0.12,-0.34 c 0.024,-0.04 0.024,-0.09 0.048,-0.12 l 0.12,-0.21 c 0.168,-0.31 0.528,-0.48 0.864,-0.39 0.336,0.08 0.6,0.39 0.6,0.75 z"
         style="fill:#1a1a1a;fill-opacity:1;fill-rule:nonzero;stroke:none"
         transform="matrix(1.3333333,0,0,-1.3333333,0,1120.8)" />
    </g>
    <g
       id="g96"
       transform="matrix(10.778833,0,0,10.778833,-1035.3749,-3431.1524)"
       style="fill:#1a1a1a">
      <path
         id="path96"
         d="m 87.144,589.32 0.024,0.1 c 0.048,0.12 0.048,0.26 0,0.38 l -0.048,0.26 c -0.024,0.15 -0.12,0.27 -0.192,0.34 l -0.024,0.02 c -0.144,0.17 -0.336,0.27 -0.528,0.29 h -0.024 l 0.744,-0.91 v 0.02 c 0.024,0.22 -0.048,0.44 -0.192,0.63 -0.144,0.17 -0.336,0.26 -0.552,0.29 h -0.024 l 0.12,-0.03 v 0 l 0.456,-0.31 -0.024,0.05 c -0.144,0.17 -0.36,0.29 -0.6,0.29 v 0.02 l 0.576,-0.29 -0.048,0.03 c -0.096,0.12 -0.24,0.21 -0.408,0.24 l -0.024,0.02 c -0.048,0 -0.096,0 -0.12,0 h -0.024 v 0 h -0.024 v 0 0 h 0.12 v 0 c -0.048,0 -0.096,0 -0.144,0.02 H 86.16 v 0 0 0 h -0.024 c -0.48,0.03 -0.888,-0.31 -0.936,-0.76 v -0.05 l 0.936,0.79 v 0 c -0.24,0.02 -0.48,-0.05 -0.648,-0.22 l -0.024,-0.02 0.696,0.22 -0.024,0.02 h -0.048 -0.024 0.072 -0.024 c -0.24,0.02 -0.48,-0.02 -0.672,-0.19 -0.192,-0.15 -0.312,-0.36 -0.312,-0.6 v -0.03 c -0.048,-0.45 0.312,-0.88 0.768,-0.93 0.48,-0.05 0.888,0.31 0.96,0.77 0.048,0.48 -0.288,0.88 -0.744,0.96 h -0.024 c -0.24,0.02 -0.48,-0.03 -0.672,-0.2 v -0.02 0.02 l -0.024,-0.02 0.024,0.02 v -0.02 c -0.216,-0.12 -0.336,-0.34 -0.36,-0.55 v -0.03 -0.04 -0.05 l 0.312,0.65 -0.024,-0.03 c -0.168,-0.14 -0.288,-0.33 -0.312,-0.55 v -0.02 l 0.936,0.74 h -0.024 c -0.48,0.05 -0.888,-0.31 -0.936,-0.82 v -0.02 -0.02 -0.03 0.05 -0.02 0 0 -0.05 -0.05 c -0.024,-0.22 0.072,-0.46 0.216,-0.62 h 0.024 l -0.24,0.62 v -0.02 0 -0.05 c -0.024,-0.48 0.336,-0.89 0.816,-0.91 l 0.024,-0.03 -0.816,0.94 v -0.05 0 l -0.024,-0.02 c 0,-0.15 0.048,-0.29 0.096,-0.41 l 0.024,-0.07 c 0.048,-0.05 0.072,-0.1 0.096,-0.12 l 0.048,-0.1 v 0 l 0.048,-0.05 -0.048,0.07 0.048,-0.09 0.048,-0.07 0.048,-0.05 0.024,-0.05 0.144,-0.19 0.072,-0.07 v 0 0 l 0.024,-0.03 v 0 -0.02 c 0.096,-0.07 0.168,-0.12 0.24,-0.17 l 0.048,-0.02 v 0 h 0.048 l -0.24,0.16 v -0.02 0 H 85.8 c 0.072,-0.07 0.144,-0.14 0.24,-0.19 h 0.024 c 0.12,-0.07 0.264,-0.12 0.408,-0.12 h 0.024 l -0.648,0.29 v -0.03 c 0.192,-0.17 0.408,-0.26 0.648,-0.26 h 0.024 l -0.624,0.26 v -0.02 c 0.192,-0.17 0.408,-0.27 0.648,-0.27 h 0.024 L 86.16,588 h 0.048 c 0.12,-0.07 0.24,-0.12 0.408,-0.12 h 0.024 v 0 0 0 h 0.048 v 0 h 0.072 v 0 0 c 0.24,0 0.48,0.1 0.648,0.29 h 0.024 l -0.648,-0.27 h 0.024 v 0 0 c 0.24,0 0.48,0.1 0.648,0.27 l 0.024,0.02 v 0 l 0.024,0.03 -0.648,-0.29 v 0 c 0.264,0 0.48,0.12 0.648,0.29 h 0.024 l -0.648,-0.27 h 0.024 c 0.504,0 0.912,0.41 0.912,0.91 v 0.03 0 0 l -0.264,-0.65 0.024,0.02 -0.648,-0.26 v 0 c 0.24,0 0.48,0.1 0.648,0.26 l 0.024,0.03 v 0 l 0.024,0.02 c 0.144,0.17 0.264,0.39 0.264,0.65 v 0 0 0.02 0 0.03 l -0.264,-0.65 v 0 c 0.192,0.17 0.264,0.41 0.264,0.65 v 0.02 0 0.03 l -0.264,-0.65 h 0.024 c 0.168,0.19 0.264,0.41 0.264,0.65 v 0.02 0 0 0 0.05 -0.03 0.03 0 0.02 c 0,0.15 -0.024,0.29 -0.096,0.41 v 0.02 l 0.072,-0.45 v 0.05 0 0.04 c 0,0.1 0,0.22 -0.024,0.32 v 0.02 l 0.024,-0.29 v 0.03 c 0,0.12 0,0.21 -0.024,0.31 l -0.024,0.05 v 0 l -0.024,0.04 c 0,0.05 -0.024,0.08 -0.048,0.12 v 0.03 0 l -0.024,0.05 0.072,-0.2 -0.024,0.08 c -0.024,0.07 -0.024,0.12 -0.048,0.16 l -0.024,0.05 c -0.048,0.1 -0.096,0.17 -0.168,0.27 l -0.024,0.02 0.168,-0.26 -0.024,0.02 c -0.048,0.1 -0.096,0.19 -0.168,0.26 l -0.048,0.03 0.24,-0.36 -0.024,0.05 c -0.048,0.14 -0.12,0.26 -0.216,0.38 l -0.048,0.02 v 0 l -0.024,0.03 -0.072,0.07 -0.096,0.1 0.072,-0.1 v 0.02 0 l -0.024,0.03 0.264,-0.7 v 0.03 c 0,0.36 -0.192,0.72 -0.504,0.86 L 87,590.81 c -0.12,0.05 -0.264,0.07 -0.384,0.09 h -0.024 l 0.624,-0.28 v 0 0 l -0.024,0.02 c -0.168,0.17 -0.384,0.29 -0.624,0.29 h -0.024 l 0.408,-0.12 -0.024,0.02 -0.048,0.03 h -0.024 c -0.12,0.07 -0.24,0.12 -0.384,0.12 H 86.448 86.4 86.376 v 0 h -0.024 c -0.528,0.02 -0.984,-0.39 -0.984,-0.92 -0.048,-0.5 0.36,-0.96 0.888,-0.98 0.528,-0.02 0.984,0.36 1.008,0.89 v 0 c 0.024,0.29 -0.072,0.53 -0.24,0.72 -0.168,0.19 -0.408,0.31 -0.672,0.31 h -0.048 0.048 -0.024 v 0 h -0.024 c -0.144,0 -0.312,-0.02 -0.456,-0.07 L 85.8,590.9 86.28,591 h -0.024 v 0 0 h -0.048 -0.024 0.024 v 0 0 h -0.024 c -0.264,0 -0.528,-0.07 -0.72,-0.26 H 85.44 l 0.696,0.24 h -0.048 c -0.24,0.02 -0.48,-0.08 -0.672,-0.24 v -0.03 h -0.024 l -0.024,-0.02 v 0 0 l 0.72,0.24 H 86.04 c -0.144,0.02 -0.312,0 -0.48,-0.07 l -0.024,-0.03 c -0.096,-0.05 -0.168,-0.09 -0.24,-0.17 v -0.02 c -0.096,-0.05 -0.168,-0.12 -0.216,-0.22 v -0.02 l 0.168,0.22 -0.048,-0.05 -0.024,-0.03 v -0.02 c -0.192,-0.17 -0.288,-0.41 -0.312,-0.67 v -0.03 l 0.552,0.87 h -0.024 c -0.336,-0.17 -0.552,-0.51 -0.552,-0.89 v 0 l 0.288,0.7 v -0.03 0 l -0.024,-0.02 c -0.192,-0.17 -0.288,-0.43 -0.288,-0.67 v -0.05 l 0.288,0.69 -0.024,-0.02 c -0.192,-0.17 -0.288,-0.43 -0.288,-0.67 v -0.03 l 0.096,0.44 v -0.05 c -0.072,-0.12 -0.12,-0.27 -0.12,-0.41 v -0.02 l 0.312,0.67 h -0.024 c -0.192,-0.19 -0.288,-0.43 -0.288,-0.7 v -0.02 0 -0.03 l 0.288,0.7 -0.024,-0.02 c -0.192,-0.17 -0.288,-0.44 -0.288,-0.7 v 0 l -0.024,-0.02 v -0.03 0.03 -0.03 0 -0.02 0 -0.05 c 0,-0.26 0.12,-0.5 0.288,-0.7 l 0.024,-0.02 -0.264,0.72 -0.024,-0.02 v 0 -0.03 c 0,-0.26 0.096,-0.53 0.288,-0.69 l 0.024,-0.03 -0.288,0.7 v 0 c 0,-0.17 0.048,-0.31 0.096,-0.46 l 0.024,-0.02 c 0.168,-0.36 0.504,-0.55 0.864,-0.55 h 0.024 l -0.96,0.98 v -0.02 0 -0.03 c -0.024,-0.26 0.072,-0.5 0.264,-0.69 v -0.03 0 l 0.048,-0.02 -0.192,0.26 0.024,-0.02 c 0.048,-0.1 0.096,-0.19 0.168,-0.27 v -0.02 h 0.024 l 0.048,-0.05 -0.192,0.27 0.024,-0.05 c 0.096,-0.17 0.192,-0.29 0.336,-0.39 l 0.048,-0.02 -0.144,0.12 0.024,-0.02 v 0 l 0.048,-0.05 c 0.072,-0.07 0.144,-0.12 0.264,-0.17 l 0.024,-0.02 -0.096,0.07 0.024,-0.05 -0.144,0.12 0.024,-0.02 c 0.096,-0.08 0.168,-0.15 0.264,-0.2 L 85.752,588 c 0.024,0 0.072,-0.02 0.12,-0.02 l 0.048,-0.03 -0.384,0.22 0.024,-0.03 c 0.192,-0.16 0.456,-0.28 0.696,-0.28 h 0.072 l -0.312,0.04 0.024,-0.02 -0.12,0.07 0.048,-0.02 c 0.048,-0.03 0.072,-0.05 0.12,-0.05 l 0.048,-0.02 v 0 h 0.048 c 0.096,-0.05 0.216,-0.05 0.312,-0.05 h 0.12 v 0 h 0.024 v 0 0 h 0.048 0.024 -0.024 v 0 h 0.024 0.024 -0.024 0.024 0.024 v 0 h -0.024 0.024 c 0.24,0 0.504,0.12 0.696,0.29 0.168,0.19 0.288,0.45 0.264,0.72 v 0 c 0,0.4 -0.264,0.74 -0.624,0.91 -0.36,0.14 -0.792,0.05 -1.056,-0.24 -0.288,-0.29 -0.36,-0.72 -0.192,-1.08 0.144,-0.36 0.504,-0.6 0.912,-0.6 v 0 0 h 0.024 c 0.264,0.02 0.504,0.12 0.696,0.31 0.168,0.19 0.288,0.46 0.264,0.7 v 0.02 l -0.264,-0.7 0.024,0.03 v 0 h 0.024 l -0.696,-0.29 h 0.024 c 0.264,0 0.504,0.12 0.672,0.29 l 0.024,0.02 c 0.192,0.19 0.264,0.46 0.264,0.7 v 0.05 -0.03 0.03 l -0.264,-0.72 0.024,0.02 c 0.168,0.19 0.264,0.43 0.264,0.7 v 0.02 l -0.096,-0.43 v 0.02 c 0.072,0.15 0.12,0.29 0.12,0.46 v 0 0 0.05 0 0.02 0 0.02 0.03 0 c -0.024,0.17 -0.048,0.29 -0.12,0.43 l -0.024,0.02 0.096,-0.43 v 0.03 0.02 0 c 0,0.1 0,0.17 -0.024,0.24 l -0.024,0.05 v 0.09 l -0.024,0.05 v 0 l -0.12,0.34 0.072,-0.34 v 0.03 0 0.02 0 0 c 0,0.55 -0.456,0.98 -0.984,0.98 h -0.024 c -0.408,0 -0.744,-0.24 -0.912,-0.6 -0.144,-0.38 -0.048,-0.79 0.216,-1.05 0.288,-0.29 0.696,-0.36 1.056,-0.22 0.384,0.15 0.6,0.51 0.6,0.89 v 0.02 c 0.024,0.27 -0.072,0.51 -0.288,0.7 v 0 c -0.192,0.19 -0.432,0.29 -0.696,0.29 H 86.64 c -0.528,0 -0.96,-0.43 -0.96,-0.96 0,-0.55 0.432,-0.99 0.96,-0.99 0.552,0 0.984,0.44 0.984,0.99 v 0 c 0,0.26 -0.096,0.53 -0.288,0.69 v 0.03 l 0.288,-0.7 v 0.03 c 0,0.52 -0.456,0.96 -0.984,0.96 h -0.024 v 0 0 l 0.672,-0.29 v 0.02 c -0.192,0.17 -0.432,0.29 -0.696,0.29 h -0.024 c -0.528,0 -0.96,-0.43 -0.96,-0.98 0,-0.53 0.432,-0.96 0.96,-0.96 0.552,0 0.984,0.43 0.984,0.96 v 0.02 c 0,0.53 -0.432,0.96 -0.984,0.96 v 0 l 0.672,-0.26 v 0 c -0.192,0.19 -0.432,0.28 -0.696,0.28 H 86.52 v 0 h -0.024 v 0 0 0 h -0.024 v 0 h -0.024 v 0 0 c -0.288,0.03 -0.528,-0.09 -0.72,-0.26 v -0.02 l 0.672,0.26 v 0 0 h -0.024 c -0.528,0.02 -0.96,-0.41 -0.96,-0.96 v 0 l 0.96,0.96 v 0 c -0.264,0 -0.528,-0.1 -0.696,-0.29 l -0.024,-0.02 0.696,0.29 h -0.024 v 0 0 c -0.552,0 -0.984,-0.44 -1.008,-0.96 v -0.03 l 0.312,0.7 -0.024,-0.03 v 0 l -0.024,-0.02 v 0 H 85.56 l 0.696,0.29 v 0 c -0.552,0 -0.984,-0.43 -0.984,-0.99 v -0.02 l 0.288,0.7 h -0.024 v 0 -0.05 0.02 l -0.024,-0.02 0.696,0.29 h -0.024 c -0.528,0 -0.984,-0.46 -0.984,-0.99 v -0.02 0 -0.03 0 -0.02 c 0,-0.53 0.456,-0.96 0.984,-0.96 0.552,0 0.984,0.43 0.984,0.96 0,0.55 -0.432,0.98 -0.984,0.98 H 86.16 c -0.264,0 -0.504,-0.09 -0.672,-0.28 -0.192,-0.17 -0.288,-0.44 -0.288,-0.7 v -0.02 l 0.288,0.69 -0.048,-0.02 c -0.168,-0.17 -0.264,-0.43 -0.264,-0.67 v -0.03 0 -0.02 l 0.048,0.31 -0.024,-0.05 c -0.024,-0.09 -0.048,-0.21 -0.048,-0.33 v -0.05 c 0.024,-0.53 0.456,-0.96 0.984,-0.96 0.528,0 0.96,0.43 0.96,0.96 l 0.024,0.05 -0.072,-0.29 0.024,0.05 c 0.024,0.12 0.048,0.21 0.048,0.31 v 0.02 0 0.03 l -0.264,-0.7 v 0 c 0.192,0.19 0.288,0.46 0.288,0.7 v 0.02 c 0,0.55 -0.432,0.98 -0.984,0.98 -0.528,0 -0.96,-0.43 -0.96,-0.98 0,-0.53 0.432,-0.96 0.96,-0.96 h 0.024 c 0.552,0 0.984,0.43 0.984,0.96 v 0.02 0 0.03 0 0.02 c 0,0.53 -0.432,0.99 -0.984,0.99 -0.528,0 -0.984,-0.46 -0.984,-0.99 0,-0.53 0.456,-0.98 0.984,-0.98 h 0.024 c 0.24,0 0.504,0.12 0.672,0.29 l 0.024,0.02 v 0 h 0.024 v 0.02 0.03 c 0.192,0.17 0.288,0.41 0.288,0.67 v 0.02 c 0,0.56 -0.432,0.99 -0.96,0.99 -0.552,0 -0.984,-0.43 -0.984,-0.99 0,-0.52 0.432,-0.98 0.984,-0.98 v 0 c 0.264,0 0.504,0.1 0.696,0.29 l 0.024,0.02 v 0 0.03 H 87 v 0 c 0.192,0.19 0.288,0.43 0.288,0.69 v 0.03 c 0,0.52 -0.432,0.96 -0.984,0.96 -0.528,0 -0.984,-0.44 -0.984,-0.96 0.024,-0.56 0.456,-0.99 1.008,-0.99 v 0 0 h 0.024 c 0.264,0 0.504,0.1 0.696,0.29 v 0 l -0.672,-0.26 v 0 c 0.264,0 0.504,0.09 0.696,0.26 0.168,0.22 0.288,0.46 0.288,0.72 v 0 c 0,0.55 -0.456,0.98 -0.984,0.96 -0.552,0 -0.96,-0.43 -0.96,-0.96 0,-0.55 0.432,-0.98 0.96,-0.98 H 86.4 v 0 0 c 0.288,0 0.528,0.12 0.696,0.28 l 0.024,0.03 -0.672,-0.29 v 0 0 h 0.024 v 0 h 0.024 v 0 0 0 h 0.024 v 0 h 0.024 l -0.696,0.29 0.024,-0.03 c 0.168,-0.16 0.432,-0.28 0.696,-0.28 v 0 c 0.552,0 0.984,0.45 0.984,0.98 0,0.53 -0.432,0.96 -0.984,0.96 -0.528,0 -0.96,-0.43 -0.96,-0.96 v -0.02 c 0,-0.24 0.096,-0.51 0.288,-0.7 0.168,-0.17 0.432,-0.26 0.672,-0.26 h 0.024 l -0.696,0.26 h 0.024 c 0.168,-0.19 0.432,-0.29 0.696,-0.29 v 0 0 h 0.024 c 0.408,0 0.744,0.24 0.888,0.6 0.168,0.39 0.096,0.77 -0.192,1.06 -0.288,0.29 -0.696,0.36 -1.08,0.21 -0.36,-0.14 -0.6,-0.5 -0.6,-0.88 v -0.03 c 0,-0.26 0.12,-0.5 0.288,-0.69 h 0.024 l -0.288,0.67 v 0 c 0,-0.55 0.432,-0.99 0.96,-0.99 h 0.024 l -0.696,0.29 0.048,-0.02 -0.312,0.69 v -0.02 c 0.024,-0.53 0.456,-0.96 0.984,-0.96 h 0.024 c 0.528,0 0.984,0.43 0.984,0.96 0,0.55 -0.456,0.98 -0.984,0.98 -0.552,0 -0.984,-0.43 -0.984,-0.98 v 0 0 -0.02 0 -0.03 c 0,-0.09 0.024,-0.21 0.048,-0.31 l 0.12,-0.34 v 0.03 -0.05 0.07 -0.07 l -0.024,0.24 v 0 -0.02 -0.03 c 0,-0.14 0.024,-0.31 0.096,-0.43 l 0.024,-0.02 -0.096,0.43 v 0 -0.03 -0.02 0 -0.02 0 -0.05 0 0 l 0.096,0.41 -0.024,-0.03 c -0.048,-0.14 -0.096,-0.29 -0.096,-0.43 v -0.02 l 0.288,0.69 v -0.02 c -0.192,-0.17 -0.312,-0.43 -0.312,-0.67 v -0.03 0.03 -0.05 l 0.312,0.69 -0.024,-0.02 0.72,0.29 h -0.024 c -0.264,0 -0.504,-0.1 -0.696,-0.29 h -0.024 v -0.02 h -0.024 c -0.192,-0.2 -0.288,-0.44 -0.312,-0.7 v -0.02 l 1.008,0.96 H 86.76 v 0 0 c -0.264,0.02 -0.504,-0.1 -0.72,-0.27 -0.168,-0.19 -0.264,-0.43 -0.288,-0.69 v 0 l 1.008,0.96 h -0.024 0.024 v 0 h -0.024 -0.024 0.024 -0.024 -0.024 v 0 h 0.024 -0.024 -0.048 v 0 0 h -0.024 v 0 h -0.12 l 0.312,-0.05 H 86.76 v 0 l -0.048,0.02 0.144,-0.05 -0.048,0.03 c -0.048,0 -0.072,0.02 -0.12,0.05 l -0.048,0.02 c -0.12,0.02 -0.216,0.05 -0.312,0.05 h -0.072 l 0.72,-0.29 -0.048,0.02 c -0.096,0.1 -0.24,0.2 -0.384,0.24 l -0.048,0.03 0.144,-0.07 -0.048,0.02 0.264,-0.19 -0.048,0.05 c -0.048,0.02 -0.072,0.07 -0.144,0.12 l -0.048,0.02 c -0.024,0.02 -0.072,0.05 -0.096,0.07 l -0.024,0.03 0.24,-0.22 -0.024,0.05 v 0 l -0.024,0.05 c -0.072,0.02 -0.12,0.07 -0.168,0.12 l -0.048,0.02 0.336,-0.38 v 0.02 c -0.072,0.1 -0.12,0.19 -0.192,0.29 l -0.072,0.05 v 0 l -0.024,0.02 0.216,-0.26 -0.024,0.02 c -0.072,0.1 -0.12,0.17 -0.192,0.24 l -0.024,0.02 v 0.03 0 l 0.288,-0.7 v 0.03 0 0.02 c -0.024,0.26 -0.12,0.53 -0.288,0.7 -0.216,0.19 -0.456,0.28 -0.72,0.28 h -0.024 l 0.888,-0.52 v 0.02 l 0.096,-0.43 v 0 c 0,0.26 -0.096,0.53 -0.288,0.69 l -0.024,0.03 0.312,-0.7 v 0.03 0 0.02 c 0,0.26 -0.12,0.5 -0.312,0.7 H 86.4 l 0.312,-0.7 v 0.05 0 0.02 0 0.03 -0.03 0.03 0.02 0 l -0.288,-0.7 0.024,0.03 c 0.168,0.19 0.288,0.43 0.288,0.69 v 0.03 0 0.02 l -0.288,-0.69 v 0.02 c 0.192,0.17 0.288,0.43 0.288,0.7 v 0.02 l -0.096,-0.46 v 0.03 c 0.096,0.14 0.12,0.29 0.12,0.45 v 0.03 l -0.288,-0.72 0.024,0.02 c 0.192,0.17 0.264,0.43 0.264,0.7 v 0.05 l -0.264,-0.72 0.024,0.02 v 0 0 c 0.192,0.22 0.288,0.46 0.288,0.72 v 0 l -0.528,-0.86 h 0.024 c 0.336,0.16 0.552,0.5 0.528,0.88 v 0.03 l -0.264,-0.7 v 0.03 0 l 0.048,0.02 c 0.096,0.1 0.144,0.22 0.192,0.31 l 0.024,0.03 -0.168,-0.27 0.024,0.03 -0.288,-0.22 0.048,0.02 -0.408,-0.12 h 0.048 c 0.24,0.03 0.48,0.15 0.648,0.34 h 0.024 v 0 0.02 0 l 0.024,0.03 -0.696,-0.31 h 0.048 c 0.264,0 0.504,0.12 0.672,0.31 h 0.024 l -0.648,-0.31 h 0.024 v 0 0 h -0.024 0.024 0.048 v 0 0 l 0.024,0.02 c 0.12,0 0.264,0.05 0.384,0.1 l 0.024,0.02 -0.384,-0.12 h 0.024 v 0 h 0.024 -0.048 0.048 l -0.984,0.89 v 0 c 0.024,-0.53 0.456,-0.91 0.984,-0.89 h 0.024 v 0 h 0.024 0.048 0.024 l -0.456,0.1 0.024,-0.03 0.024,-0.02 h 0.048 c 0.144,-0.07 0.288,-0.07 0.432,-0.07 h 0.024 l -0.72,0.24 h 0.024 v 0 l 0.024,-0.05 c 0.192,-0.17 0.432,-0.24 0.696,-0.24 h 0.024 l -0.48,0.09 0.024,-0.02 -0.528,0.82 v -0.03 c 0.024,-0.26 0.144,-0.48 0.312,-0.65 l 0.024,-0.02 v 0 0 l 0.048,-0.02 0.096,-0.1 -0.048,0.05 0.024,-0.03 v 0 l 0.048,-0.04 -0.24,0.38 0.024,-0.07 c 0.048,-0.12 0.12,-0.24 0.216,-0.36 l 0.048,-0.03 -0.168,0.22 v -0.02 c 0.048,-0.08 0.12,-0.15 0.192,-0.22 l 0.024,-0.02 -0.192,0.21 0.024,-0.02 -0.072,0.19 0.024,-0.07 c 0,-0.05 0.024,-0.12 0.072,-0.19 l 0.024,-0.03 v 0 l 0.024,-0.02 -0.072,0.12 0.024,-0.05 v 0 -0.05 l -0.048,0.27 v -0.03 c 0,-0.09 0.024,-0.19 0.048,-0.26 l 0.048,-0.07 -0.072,0.28 v -0.04 0 -0.05 c 0.024,-0.12 0.048,-0.24 0.096,-0.36 l 0.024,-0.05 -0.096,0.43 v -0.02 0 -0.03 0.03 -0.05 0 0 0 -0.02 l 0.264,0.64 -0.024,-0.02 c -0.168,-0.14 -0.264,-0.38 -0.264,-0.62 v -0.03 0 -0.02 l 0.264,0.65 v 0 c -0.192,-0.17 -0.288,-0.41 -0.288,-0.65 v -0.03 0 -0.02 0 0 l 0.288,0.65 -0.024,-0.03 v 0 l -0.024,-0.02 0.648,0.26 v 0 c -0.264,0 -0.48,-0.09 -0.648,-0.26 l -0.024,-0.02 c -0.168,-0.17 -0.264,-0.39 -0.264,-0.65 v 0 0 -0.03 c 0,-0.5 0.408,-0.91 0.912,-0.91 0.504,0 0.912,0.41 0.912,0.91 0,0.51 -0.408,0.92 -0.912,0.92 H 86.88 c -0.24,0 -0.48,-0.1 -0.648,-0.27 l -0.024,-0.02 0.648,0.29 v 0 c -0.24,0 -0.48,-0.1 -0.648,-0.29 h -0.024 v 0 l -0.024,-0.03 0.648,0.27 v 0 0 h -0.024 c -0.24,0 -0.48,-0.1 -0.648,-0.27 v -0.02 l 0.624,0.29 v 0 0 h -0.072 v 0 H 86.64 v 0 0 0 h -0.024 l 0.384,-0.12 -0.024,0.05 c -0.12,0.04 -0.264,0.07 -0.408,0.07 h -0.024 l 0.648,-0.27 -0.024,0.03 c -0.168,0.17 -0.408,0.26 -0.648,0.26 h -0.024 l 0.648,-0.26 H 87.12 c -0.144,0.19 -0.384,0.29 -0.624,0.29 h -0.024 l 0.408,-0.1 h -0.024 l 0.24,-0.17 -0.024,0.03 v 0 l -0.024,0.02 c -0.072,0.05 -0.144,0.12 -0.24,0.17 H 86.784 86.76 l -0.024,0.02 0.24,-0.17 v 0.03 0 h -0.024 v 0 l -0.024,0.02 0.072,-0.07 -0.144,0.19 v -0.02 l -0.048,0.07 0.048,-0.1 -0.048,0.1 -0.048,0.07 -0.048,0.05 v 0 l -0.048,0.1 0.096,-0.17 -0.048,0.07 0.096,-0.38 v 0.02 0 0.05 c 0,0.24 -0.12,0.48 -0.288,0.65 -0.192,0.14 -0.432,0.24 -0.672,0.21 h -0.024 c -0.48,-0.05 -0.864,-0.45 -0.816,-0.96 0.048,-0.5 0.456,-0.86 0.936,-0.84 0.504,0.03 0.864,0.46 0.864,0.94 v 0.05 0 0.02 c -0.024,0.24 -0.12,0.46 -0.312,0.62 v 0.03 l 0.264,-0.65 v 0.05 0.05 0 0 0.02 -0.05 0.03 0.02 0.02 c -0.024,0.51 -0.456,0.87 -0.936,0.82 -0.48,-0.02 -0.864,-0.46 -0.816,-0.94 0.048,-0.48 0.456,-0.86 0.936,-0.81 h 0.024 c 0.24,0 0.48,0.12 0.624,0.31 0.144,0.22 0.216,0.46 0.192,0.7 l -0.024,0.02 -0.168,-0.7 0.024,0.03 c 0.12,0.17 0.192,0.41 0.192,0.6 v 0.05 l -0.024,0.04 v 0.03 l -0.168,-0.65 h 0.024 l -0.024,-0.02 v 0.02 0 h 0.024 l -0.552,-0.31 0.024,0.02 c 0.456,0.05 0.768,0.46 0.744,0.91 v 0.03 l -0.744,-0.91 h 0.024 -0.072 0.024 0.048 0.024 c 0.192,0.02 0.36,0.12 0.504,0.26 l 0.024,0.02 -0.552,-0.28 v 0 c 0.48,0.04 0.84,0.45 0.792,0.91 v 0.05 c -0.048,0.45 -0.456,0.79 -0.912,0.76 -0.48,-0.04 -0.84,-0.45 -0.816,-0.91 0.048,-0.48 0.456,-0.81 0.936,-0.79 h 0.024 v 0 0 0 h 0.024 c 0.048,0 0.096,0 0.144,0.02 v 0 l -0.12,-0.02 v 0 0 h 0.024 v 0 h 0.024 c 0.024,0 0.072,0.02 0.12,0.02 l 0.024,0.03 -0.744,0.17 v 0 c 0.168,-0.17 0.384,-0.24 0.624,-0.22 v 0 l -0.576,0.17 h 0.024 c 0.192,-0.17 0.48,-0.22 0.72,-0.17 v 0 h -0.12 0.024 l -0.912,0.74 v -0.02 c 0.024,-0.19 0.12,-0.41 0.312,-0.55 0.168,-0.15 0.384,-0.19 0.6,-0.19 h 0.024 l -0.624,0.21 0.024,-0.02 c 0.024,-0.05 0.072,-0.05 0.12,-0.07 l 0.24,-0.17 c 0.024,-0.03 0.096,-0.05 0.144,-0.07 l 0.12,-0.03 c 0.336,-0.09 0.648,0.1 0.744,0.41 z"
         style="fill:#1a1a1a;fill-opacity:1;fill-rule:nonzero;stroke:none"
         transform="matrix(1.3333333,0,0,-1.3333333,0,1120.8)" />
    </g>
    <g
       id="g97"
       transform="matrix(10.778833,0,0,10.778833,-1035.3749,-3431.1524)"
       style="fill:#1a1a1a">
      <path
         id="path97"
         d="m 87.456,589.8 0.096,0.07 c 0.12,0.1 0.192,0.22 0.264,0.34 v 0.07 l -0.024,-0.07 0.024,0.05 -0.048,-0.08 0.048,0.08 c 0.024,0.02 0.048,0.09 0.072,0.14 v 0.05 l -0.048,-0.15 0.024,0.08 -0.048,-0.1 0.048,0.05 0.048,0.09 0.024,0.08 v 0 l 0.048,0.04 -0.096,-0.14 0.096,0.12 c 0.024,0.05 0.072,0.07 0.072,0.1 l 0.12,0.16 v 0 l 0.048,0.1 -0.12,-0.14 0.072,0.04 v 0 l 0.072,0.08 0.048,0.07 0.072,0.07 -0.144,-0.14 0.048,0.04 0.072,0.05 0.168,0.15 h -0.024 l 0.36,0.28 0.048,0.05 0.12,0.1 -0.048,-0.05 0.12,0.1 -0.072,-0.05 0.12,0.07 h -0.048 l 0.12,0.07 0.048,0.03 0.12,0.07 -0.072,-0.05 0.12,0.07 -0.048,-0.02 0.36,0.17 c 0.072,0.02 0.144,0.07 0.216,0.14 l 0.024,0.02 -0.312,-0.19 0.144,0.05 0.072,0.05 0.096,0.05 -0.144,-0.08 0.12,0.03 0.096,0.05 0.12,0.04 -0.12,-0.04 0.12,0.02 0.024,0.02 0.12,0.03 -0.12,-0.03 0.12,0.03 h -0.024 l 0.288,0.02 h -0.12 0.072 v 0 H 90.6 v 0 h 0.048 0.024 0.072 l -0.288,0.05 0.048,-0.02 0.072,-0.03 0.072,-0.02 c 0.048,0 0.12,-0.03 0.192,-0.03 h 0.072 l -0.264,0.08 0.048,-0.05 -0.12,0.05 0.072,-0.03 c 0.048,-0.02 0.12,-0.05 0.168,-0.07 h 0.072 -0.072 0.048 l -0.096,0.05 0.048,-0.05 c 0.072,-0.02 0.12,-0.05 0.192,-0.07 h 0.048 l -0.408,0.24 0.072,-0.07 c 0.096,-0.1 0.192,-0.17 0.336,-0.22 h 0.048 l -0.288,0.17 0.12,-0.12 -0.072,0.05 0.048,-0.03 c 0.072,-0.07 0.144,-0.12 0.216,-0.17 l 0.048,-0.02 v 0 H 91.2 l -0.384,0.38 v -0.02 c 0.096,-0.17 0.24,-0.31 0.408,-0.38 l 0.024,-0.03 -0.384,0.39 0.024,-0.03 v 0 -0.02 c 0.048,-0.1 0.096,-0.17 0.168,-0.24 l 0.048,-0.05 h -0.024 0.024 l -0.216,0.34 0.024,-0.05 c 0.048,-0.12 0.096,-0.24 0.192,-0.34 l 0.024,-0.02 -0.144,0.24 0.024,-0.07 v 0 -0.05 l -0.072,0.41 v -0.05 0 0 0 -0.05 0 -0.02 0.02 -0.02 0 -0.05 0 0 0 -0.05 l 0.072,0.41 v -0.05 0 l -0.024,-0.02 c -0.048,-0.12 -0.096,-0.27 -0.096,-0.41 v -0.03 l 0.264,0.63 -0.024,-0.03 v 0 -0.02 c -0.168,-0.14 -0.264,-0.36 -0.264,-0.6 v -0.02 l 0.192,0.5 -0.072,-0.07 -0.024,-0.03 -0.072,-0.09 v 0 l -0.048,-0.1 0.096,0.15 -0.048,-0.1 -0.072,-0.07 -0.072,-0.07 0.024,0.02 -0.144,-0.14 0.072,0.07 -0.12,-0.12 0.048,0.05 -0.12,-0.1 -0.048,-0.05 -0.144,-0.09 0.144,0.07 -0.432,-0.24 0.048,0.02 -0.456,-0.21 0.072,0.02 -1.08,-0.43 v 0 l -0.216,-0.07 h -0.024 l -0.36,-0.12 h 0.096 l -0.384,-0.1 h 0.024 l -0.36,-0.07 h 0.048 l -0.816,-0.15 0.048,0.03 -0.144,-0.05 c -0.48,-0.02 -0.792,-0.46 -0.744,-0.91 0.048,-0.48 0.48,-0.82 0.936,-0.77 l 0.144,0.02 h 0.072 l 0.816,0.15 h 0.024 l 0.36,0.07 0.024,0.02 0.384,0.1 0.072,0.02 0.36,0.12 v 0 l 0.24,0.1 v 0 l 1.104,0.41 0.072,0.05 0.48,0.24 h 0.024 l 0.432,0.26 c 0.048,0.02 0.096,0.05 0.144,0.1 l 0.12,0.12 -0.048,-0.05 0.144,0.09 0.048,0.03 0.12,0.12 0.096,0.07 0.12,0.17 0.048,0.05 0.072,0.07 -0.072,-0.07 0.072,0.07 c 0.024,0.05 0.072,0.07 0.096,0.12 l 0.072,0.12 v 0 l 0.072,0.07 -0.048,-0.02 0.048,0.07 c 0.12,0.14 0.192,0.31 0.192,0.53 v 0.02 l -0.264,-0.62 0.024,0.02 v 0 0 c 0.168,0.17 0.264,0.41 0.264,0.62 v 0.03 l -0.096,-0.36 0.024,0.02 v 0 0.03 c 0.072,0.12 0.096,0.26 0.096,0.38 v 0.05 0 0 0 0.05 0 0.02 -0.02 0.02 0 0.05 0 0 0 0.05 c 0,0.12 -0.024,0.26 -0.096,0.38 v 0.02 0 l -0.024,0.08 c -0.048,0.07 -0.12,0.16 -0.192,0.24 h -0.024 l 0.24,-0.34 -0.024,0.05 c -0.048,0.12 -0.12,0.24 -0.216,0.33 l -0.024,0.03 v 0 l -0.024,0.02 0.168,-0.21 -0.024,0.02 v 0 0.05 c -0.096,0.17 -0.24,0.29 -0.408,0.36 l -0.024,0.02 0.384,-0.38 v 0.05 c -0.096,0.14 -0.24,0.28 -0.408,0.38 h -0.024 v 0 l -0.048,0.02 0.24,-0.16 -0.048,0.02 -0.024,0.05 -0.12,0.09 c -0.096,0.08 -0.192,0.15 -0.312,0.17 l -0.048,0.03 0.36,-0.22 -0.048,0.05 c -0.12,0.12 -0.264,0.19 -0.408,0.24 h -0.072 l 0.168,-0.05 -0.048,0.02 c -0.048,0.03 -0.072,0.03 -0.12,0.05 l -0.048,0.03 h -0.072 l -0.072,0.02 0.192,-0.07 -0.072,0.05 c -0.048,0 -0.072,0.02 -0.12,0.02 l -0.048,0.02 c -0.072,0.03 -0.168,0.05 -0.264,0.05 H 90.84 l 0.216,-0.02 h -0.072 0.072 -0.048 c -0.096,0.05 -0.192,0.05 -0.264,0.05 H 90.672 90.648 90.6 v 0 h -0.072 v 0 h -0.072 -0.072 l -0.288,-0.05 h -0.024 l -0.12,-0.03 -0.096,-0.02 -0.12,-0.02 h 0.024 l -0.144,-0.03 c -0.048,-0.02 -0.072,-0.02 -0.12,-0.05 l -0.12,-0.04 0.12,0.02 -0.12,-0.02 c -0.048,-0.03 -0.096,-0.05 -0.168,-0.08 l -0.072,-0.04 0.072,0.04 -0.12,-0.04 c -0.12,-0.05 -0.24,-0.12 -0.312,-0.22 v 0 l 0.24,0.17 -0.36,-0.17 -0.048,-0.02 -0.12,-0.1 -0.072,-0.02 -0.12,-0.1 0.048,0.05 -0.12,-0.1 -0.048,-0.02 -0.12,-0.07 -0.048,-0.05 -0.12,-0.12 -0.048,-0.05 -0.096,-0.1 0.048,0.05 -0.36,-0.31 v -0.02 l -0.168,-0.15 0.048,0.05 -0.072,-0.07 c -0.048,-0.03 -0.096,-0.07 -0.144,-0.12 l -0.048,-0.1 0.048,0.07 -0.048,-0.07 v 0 l -0.072,-0.07 c -0.048,-0.02 -0.096,-0.1 -0.12,-0.14 l -0.048,-0.1 v 0 l -0.096,-0.17 0.072,0.12 -0.096,-0.12 c -0.048,-0.07 -0.072,-0.12 -0.096,-0.19 l -0.024,-0.07 v 0 l -0.048,-0.05 0.048,0.07 -0.024,-0.07 -0.048,-0.07 -0.024,-0.05 c -0.024,-0.07 -0.024,-0.12 -0.048,-0.17 l -0.024,-0.07 0.072,0.17 -0.024,-0.07 c -0.024,-0.05 -0.048,-0.1 -0.048,-0.12 l -0.024,-0.05 v -0.05 -0.07 c -0.072,-0.29 0.072,-0.6 0.36,-0.77 l 0.12,-0.05 c 0.192,-0.09 0.408,-0.09 0.6,0.05 z"
         style="fill:#1a1a1a;fill-opacity:1;fill-rule:nonzero;stroke:none"
         transform="matrix(1.3333333,0,0,-1.3333333,0,1120.8)" />
    </g>
    <g
       id="g98"
       transform="matrix(10.778833,0,0,10.778833,-1035.3749,-3431.1524)"
       style="fill:#1a1a1a">
      <path
         id="path98"
         d="m 88.92,597.53 v 0 l -0.072,0.17 0.096,-0.32 -0.024,0.08 0.048,-0.34 v 0.05 l 0.048,-0.75 v -0.04 l 0.072,-0.58 -0.024,0.07 0.048,-2.76 v 0.03 l -0.024,-1.2 v 0 -0.2 -0.02 l 0.12,-4.01 v -0.05 l 0.336,-3.93 v 0 -0.17 0.05 l 0.024,-0.41 v 0.02 -0.86 0.12 l -0.024,-0.24 c -0.048,-0.26 0.072,-0.58 0.312,-0.74 0.24,-0.2 0.552,-0.24 0.84,-0.12 0.264,0.12 0.456,0.36 0.48,0.67 l 0.048,0.24 c 0,0.05 0,0.07 0,0.12 l -0.024,0.84 v 0.02 l -0.024,0.39 v 0.04 0.2 0 l -0.408,3.91 v -0.05 l -0.12,4.01 v -0.03 0.2 -0.03 l 0.024,1.2 v 0.03 l -0.048,2.76 -0.024,0.07 -0.072,0.57 v 0 l -0.072,0.75 v 0.05 l -0.048,0.33 -0.024,0.07 -0.096,0.32 -0.048,-0.53 h 0.024 c 0.144,0.33 0.072,0.72 -0.216,0.96 -0.264,0.24 -0.672,0.24 -0.96,0 -0.264,-0.24 -0.36,-0.63 -0.168,-0.96 z"
         style="fill:#1a1a1a;fill-opacity:1;fill-rule:nonzero;stroke:none"
         transform="matrix(1.3333333,0,0,-1.3333333,0,1120.8)" />
    </g>
    <g
       id="g99"
       transform="matrix(10.778833,0,0,10.778833,-1035.3749,-3431.1524)"
       style="fill:#1a1a1a">
      <path
         id="path99"
         d="m 86.76,600.14 0.24,-0.38 0.024,-0.02 0.072,-0.1 -0.048,0.05 0.072,-0.1 0.024,-0.05 0.048,-0.09 0.072,-0.07 0.168,-0.2 -0.048,0.05 0.096,-0.12 0.048,-0.05 0.096,-0.12 -0.048,0.08 0.192,-0.29 v -0.03 l 0.096,-0.12 -0.024,0.05 0.096,-0.14 c 0.024,-0.03 0.048,-0.07 0.096,-0.12 l 0.24,-0.27 v 0.03 l 0.072,-0.07 H 88.32 l 0.024,-0.03 v 0 l 0.048,-0.05 v 0 l 0.024,-0.02 v 0 l 0.048,-0.05 v 0 l 0.024,-0.02 v 0 l 0.024,-0.03 -0.168,0.24 0.024,-0.02 0.048,-0.1 0.048,-0.09 c 0.072,-0.12 0.192,-0.24 0.312,-0.31 l 0.048,-0.03 c 0.12,-0.09 0.288,-0.14 0.456,-0.14 h 0.024 c 0.336,0 0.624,0.17 0.816,0.45 0.144,0.29 0.144,0.65 0,0.94 -0.192,0.29 -0.48,0.46 -0.816,0.46 H 89.28 l 0.36,-0.08 h -0.048 l 0.432,-0.36 -0.048,0.1 0.024,-0.02 -0.024,0.02 c -0.048,0.07 -0.12,0.14 -0.192,0.22 l -0.024,0.02 v 0 l -0.024,0.02 v 0 l -0.048,0.05 v 0 l -0.024,0.03 v 0 l -0.048,0.04 v 0 l -0.024,0.03 v -0.03 l -0.072,0.08 h 0.024 l -0.264,0.24 0.048,-0.08 -0.096,0.12 -0.048,0.05 -0.096,0.12 0.048,-0.05 -0.192,0.24 c -0.048,0.05 -0.072,0.08 -0.12,0.12 l -0.12,0.1 0.048,-0.05 -0.096,0.12 v -0.02 l -0.192,0.19 h 0.024 l -0.072,0.07 0.048,-0.05 -0.072,0.08 -0.048,0.07 -0.072,0.07 0.024,-0.02 -0.312,0.36 c -0.264,0.28 -0.72,0.36 -1.032,0.12 -0.312,-0.24 -0.408,-0.7 -0.192,-1.04 z"
         style="fill:#1a1a1a;fill-opacity:1;fill-rule:nonzero;stroke:none"
         transform="matrix(1.3333333,0,0,-1.3333333,0,1120.8)" />
    </g>
    <g
       id="g100"
       transform="matrix(10.778833,0,0,10.778833,-1035.3749,-3431.1524)"
       style="fill:#1a1a1a">
      <path
         id="path100"
         d="m 90.648,601.18 -0.384,-0.56 -0.048,-0.07 -0.072,-0.07 0.072,0.07 -0.072,-0.09 v 0 l -0.192,-0.24 0.144,0.14 -0.072,-0.07 c -0.048,-0.03 -0.096,-0.07 -0.144,-0.12 l -0.072,-0.07 c -0.024,-0.05 -0.072,-0.1 -0.096,-0.15 l -0.048,-0.09 0.024,0.04 -0.12,-0.21 -0.024,-0.03 -0.408,-0.72 0.048,0.08 -0.048,-0.08 c -0.168,-0.24 -0.192,-0.57 -0.072,-0.84 0.144,-0.26 0.408,-0.45 0.72,-0.48 0.312,0 0.6,0.12 0.768,0.39 l 0.024,0.05 0.048,0.07 0.384,0.74 -0.024,-0.05 0.12,0.22 0.048,0.07 0.048,0.1 -0.096,-0.15 0.072,0.1 -0.144,-0.14 0.096,0.07 c 0.048,0.05 0.096,0.09 0.12,0.14 l 0.192,0.27 0.048,0.04 0.048,0.12 0.048,0.1 0.048,0.1 -0.024,-0.05 0.312,0.6 c 0.168,0.36 0.048,0.77 -0.264,0.96 -0.336,0.21 -0.768,0.12 -1.008,-0.19 z"
         style="fill:#1a1a1a;fill-opacity:1;fill-rule:nonzero;stroke:none"
         transform="matrix(1.3333333,0,0,-1.3333333,0,1120.8)" />
    </g>
    <g
       id="g101"
       transform="matrix(10.778833,0,0,10.778833,-1035.3749,-3431.1524)"
       style="fill:#1a1a1a">
      <path
         id="path101"
         d="m 89.832,600.46 0.072,0.14 c 0.12,0.26 0.048,0.58 -0.144,0.77 -0.216,0.21 -0.552,0.24 -0.792,0.12 -0.264,-0.15 -0.408,-0.43 -0.36,-0.72 l 0.024,-0.07 v -0.03 l 0.024,-0.17 v 0.03 l 0.048,-0.17 -0.024,0.05 0.024,-0.15 v -0.07 l 0.048,-0.17 -0.024,0.15 v -0.15 -0.07 l 0.048,-0.38 v 0.02 -0.38 0.05 -0.34 0.02 -0.04 c -0.024,-0.32 0.144,-0.6 0.408,-0.77 0.264,-0.17 0.6,-0.17 0.888,0 0.264,0.17 0.432,0.45 0.408,0.77 v 0.04 0.05 l -0.048,0.34 -0.024,0.09 -0.072,0.39 0.024,-0.03 -0.072,0.36 -0.024,0.03 -0.024,0.17 c 0,0.04 -0.024,0.07 -0.024,0.12 l -0.072,0.16 v -0.04 l -0.024,0.14 -0.024,0.02 -0.048,0.17 -0.024,0.05 -0.072,0.14 c -0.024,0.08 -0.072,0.15 -0.144,0.2 l -0.024,0.04 c -0.264,0.27 -0.696,0.29 -0.96,0.03 -0.288,-0.27 -0.288,-0.67 -0.024,-0.96 l 0.096,-0.12 c 0.144,-0.15 0.336,-0.19 0.528,-0.17 0.168,0.02 0.336,0.14 0.408,0.34 z"
         style="fill:#1a1a1a;fill-opacity:1;fill-rule:nonzero;stroke:none"
         transform="matrix(1.3333333,0,0,-1.3333333,0,1120.8)" />
    </g>
  </g>
</svg>
