<?xml version="1.0" encoding="UTF-8" standalone="no"?>
<!-- Created with Inkscape (http://www.inkscape.org/) -->

<svg
   version="1.1"
   id="svg1"
   width="30.990196"
   height="147.21999"
   viewBox="0 0 30.990196 147.21998"
   sodipodi:docname="lesson1.pdf"
   xmlns:inkscape="http://www.inkscape.org/namespaces/inkscape"
   xmlns:sodipodi="http://sodipodi.sourceforge.net/DTD/sodipodi-0.dtd"
   xmlns="http://www.w3.org/2000/svg"
   xmlns:svg="http://www.w3.org/2000/svg">
  <defs
     id="defs1" />
  <sodipodi:namedview
     id="namedview1"
     pagecolor="#ffffff"
     bordercolor="#000000"
     borderopacity="0.25"
     inkscape:showpageshadow="2"
     inkscape:pageopacity="0.0"
     inkscape:pagecheckerboard="0"
     inkscape:deskcolor="#d1d1d1">
    <inkscape:page
       x="9.9521913e-14"
       y="0"
       inkscape:label="1"
       id="page1"
       width="30.990196"
       height="147.21999"
       margin="0"
       bleed="0" />
  </sodipodi:namedview>
  <g
     id="g1"
     inkscape:groupmode="layer"
     inkscape:label="1"
     transform="translate(-519.17332,-103.65336)">
    <g
       id="g190">
      <path
         id="path190"
         d="m 392.62,761.33 v 0.24 0 0 l -0.24,-0.55 0.02,0.02 v 0 l 0.02,0.02 c 0.15,0.15 0.24,0.36 0.24,0.56 v 0.04 l -0.26,-0.6 0.02,0.03 h 0.03 v 0.05 0 h 0.05 v 0 0.04 -0.04 0.04 l -0.65,-0.24 h 0.05 c 0.24,-0.02 0.48,0.08 0.64,0.24 l 0.03,0.03 v 0 l 0.02,0.02 -0.67,-0.26 h 0.02 c 0.24,0 0.48,0.07 0.63,0.24 0.19,0.14 0.29,0.36 0.29,0.6 v 0.02 l -0.46,-0.74 0.02,0.02 -0.45,-0.09 h 0.05 -0.05 v 0 h 0.09 0.03 -0.03 0.03 c 0.24,-0.03 0.5,0.07 0.69,0.26 v 0.02 l -0.64,-0.28 h 0.04 l 0.08,0.02 0.62,0.02 h -0.1 0.03 0.02 0.1 v 0 h 0.09 l -0.19,0.03 0.1,-0.03 c 0.07,0 0.14,-0.02 0.21,-0.02 h 0.1 l -0.24,0.05 0.1,-0.03 v 0 l 0.07,-0.04 h 0.05 l 0.09,-0.03 -0.24,0.1 0.1,-0.05 c 0.07,-0.05 0.14,-0.07 0.24,-0.1 h 0.09 l -0.24,0.08 0.08,-0.05 0.07,-0.03 0.12,-0.04 -0.07,0.02 0.07,-0.05 v 0 l 0.09,-0.05 -0.14,0.12 0.1,-0.09 -0.03,0.02 0.19,-0.17 -0.09,0.08 0.09,-0.08 -0.04,0.08 0.07,-0.12 0.05,-0.08 0.12,-0.12 v 0 l 0.07,-0.09 -0.1,0.14 0.07,-0.14 v 0.05 l 0.05,-0.12 0.07,-0.1 0.08,-0.1 -0.05,0.05 0.09,-0.14 -0.09,0.21 0.05,-0.12 v -0.07 l 0.16,-0.38 -0.02,0.05 0.17,-0.6 v 0.04 l 0.14,-0.57 v 0.05 l 0.12,-0.6 -0.02,0.07 0.21,-1.39 -0.02,0.04 0.17,-1.94 v 0.07 -1.27 -0.02 l 0.05,-2.19 v 0 l 0.04,-5.52 0.03,-0.07 0.09,-1.42 v 0.03 l 0.08,-2.04 v 0.07 -0.1 c 0,-0.33 0.19,-0.64 0.48,-0.81 0.28,-0.19 0.64,-0.19 0.96,0 0.28,0.17 0.48,0.48 0.48,0.81 v 0.1 l -0.03,0.05 -0.09,2.01 -0.03,0.03 -0.09,1.41 v -0.04 l -0.1,5.52 v 0 l -0.05,2.2 v -0.02 1.27 0.07 l -0.17,1.95 v 0.05 l -0.19,1.39 -0.02,0.07 -0.12,0.6 v 0.02 l -0.15,0.58 -0.02,0.05 -0.19,0.6 -0.03,0.05 -0.12,0.38 v -0.07 l -0.04,0.14 c 0,0.07 -0.05,0.15 -0.08,0.22 l -0.09,0.12 -0.05,0.07 -0.07,0.12 0.05,-0.1 -0.05,0.12 -0.03,0.03 -0.09,0.12 c -0.03,0.07 -0.07,0.12 -0.1,0.17 l -0.09,0.07 v 0 l -0.1,0.12 0.05,-0.07 -0.07,0.12 -0.05,0.07 -0.1,0.09 -0.07,0.08 -0.19,0.16 h -0.03 l -0.09,0.08 c -0.03,0.02 -0.07,0.04 -0.12,0.07 l -0.1,0.05 v 0 l -0.07,0.04 -0.07,0.03 -0.12,0.05 0.09,-0.03 -0.09,0.05 c -0.07,0.05 -0.15,0.07 -0.24,0.1 h -0.12 l 0.24,-0.08 -0.07,0.05 c -0.08,0.03 -0.17,0.07 -0.24,0.07 l -0.1,0.03 h 0.05 l -0.1,0.02 v 0 l -0.07,0.03 c -0.1,0 -0.17,0.02 -0.24,0.02 h -0.1 l 0.2,-0.02 -0.12,0.02 c -0.05,0.02 -0.12,0.02 -0.2,0.02 h -0.09 v 0 h -0.1 -0.02 -0.03 -0.02 l -0.62,-0.04 h 0.04 -0.04 c -0.24,-0.03 -0.48,-0.12 -0.65,-0.32 l -0.03,-0.02 0.63,0.29 h -0.03 0.03 -0.03 -0.09 v 0 h 0.05 -0.05 c -0.12,0 -0.27,-0.03 -0.39,-0.12 h -0.04 c -0.29,-0.17 -0.44,-0.48 -0.44,-0.82 v -0.02 l 0.84,0.93 h -0.02 c -0.24,-0.02 -0.46,-0.14 -0.62,-0.33 h -0.03 v 0 l -0.02,-0.03 0.65,0.29 h -0.05 c -0.24,0 -0.48,-0.12 -0.63,-0.33 h -0.02 0.02 -0.02 v 0 l -0.02,-0.05 v 0 0 l -0.05,-0.03 v -0.02 c -0.15,-0.17 -0.19,-0.38 -0.19,-0.58 v -0.04 l 0.19,0.62 v -0.02 0 l -0.03,-0.05 c -0.14,-0.15 -0.21,-0.36 -0.21,-0.6 v 0 c 0.02,-0.17 0.07,-0.31 0.14,-0.43 l 0.12,-0.2 c 0.19,-0.28 0.55,-0.43 0.89,-0.33 0.34,0.09 0.55,0.38 0.58,0.72 z"
         style="fill:#000000;fill-opacity:1;fill-rule:nonzero;stroke:none"
         transform="matrix(1.3333333,0,0,-1.3333333,0,1120.8)" />
    </g>
    <g
       id="g191">
      <path
         id="path191"
         d="m 390.94,761.81 -0.08,-0.27 c -0.04,-0.09 -0.04,-0.21 -0.04,-0.31 l 0.36,-2.23 v 0.02 l 0.38,-3.36 v 0.03 l 0.02,-0.43 v 0 l 0.17,-3.72 v 0.07 l -0.02,-0.84 v 0 -0.96 l 0.02,0.17 -0.14,-0.65 0.09,0.21 -0.12,-0.19 0.77,0.53 v 0 c -0.36,-0.05 -0.67,-0.26 -0.81,-0.6 v -0.02 0 l -0.03,-0.03 0.31,0.41 v 0 c -0.14,-0.12 -0.24,-0.26 -0.33,-0.43 v 0 0 -0.03 c -0.17,-0.38 -0.1,-0.81 0.17,-1.12 l 0.04,-0.03 c 0.15,-0.17 0.32,-0.26 0.53,-0.33 h 0.03 l -0.53,0.31 v 0 l -0.22,1.03 -0.02,-0.02 c -0.15,-0.51 0.09,-1.06 0.57,-1.3 v 0 l -0.31,0.24 0.03,-0.02 c 0.16,-0.17 0.36,-0.29 0.55,-0.34 h 0.05 l -0.56,0.34 v -0.05 c 0.1,-0.07 0.2,-0.17 0.32,-0.24 h 0.04 l -0.33,0.24 0.02,-0.03 c 0.15,-0.14 0.31,-0.26 0.48,-0.31 l 0.1,-0.02 0.02,-0.03 0.39,-0.09 h -0.05 l 1.03,-0.36 -0.17,0.07 0.87,-0.43 0.07,-0.05 0.21,-0.1 v 0 l 0.22,-0.09 c 0.58,-0.24 1.25,0.02 1.49,0.6 0.26,0.57 0,1.27 -0.58,1.51 l -0.21,0.1 v 0 l -0.2,0.09 0.08,-0.02 -0.89,0.43 c -0.03,0.05 -0.1,0.05 -0.15,0.1 l -1.03,0.31 -0.05,0.02 -0.38,0.1 -0.12,0.05 h -0.1 l 0.32,-0.1 h -0.03 c -0.31,0.17 -0.69,0.17 -1.01,0 h -0.04 1.03 l -0.03,0.02 c -0.24,0.1 -0.52,0.15 -0.76,0.1 l -0.05,-0.02 0.77,-0.1 -0.05,0.02 c -0.29,0.17 -0.67,0.17 -0.99,0 v -0.02 c -0.52,-0.24 -0.74,-0.86 -0.52,-1.39 0.24,-0.53 0.84,-0.77 1.36,-0.55 0.56,0.19 0.84,0.76 0.68,1.32 v 0.02 c -0.1,0.26 -0.29,0.5 -0.56,0.65 h -0.04 c -0.2,0.12 -0.48,0.14 -0.72,0.09 l -0.03,-0.02 0.72,-0.07 h -0.02 l 0.48,-0.51 v 0.03 0 0 c -0.07,0.17 -0.19,0.31 -0.34,0.43 h -0.02 l 0.33,-0.41 v 0.03 0 l -0.02,0.02 c -0.14,0.34 -0.46,0.55 -0.82,0.6 v 0 c -0.48,0.05 -0.93,-0.31 -1.03,-0.79 -0.09,-0.48 0.19,-0.96 0.67,-1.08 0.48,-0.15 0.99,0.12 1.16,0.57 l 0.07,0.22 c 0.02,0.05 0.05,0.12 0.05,0.17 l 0.12,0.67 c 0,0.05 0,0.1 0,0.17 v 0.96 0 l -0.03,0.84 v 0.05 l -0.24,3.69 v 0 l -0.05,0.46 v 0.07 l -0.48,3.36 -0.02,0.05 -0.5,2.21 0.02,-0.27 0.02,0.29 c 0.08,0.36 -0.16,0.7 -0.52,0.79 -0.39,0.07 -0.75,-0.14 -0.84,-0.5 z"
         style="fill:#000000;fill-opacity:1;fill-rule:nonzero;stroke:none"
         transform="matrix(1.3333333,0,0,-1.3333333,0,1120.8)" />
    </g>
    <g
       id="g192"
       transform="matrix(1,0,0,0.82149294,0,20.009456)">
      <path
         id="path192"
         d="m 402.65,755.86 -0.12,0.16 -0.12,-1.41 h 0.02 l -0.6,-0.24 h 0.15 v 0 h 0.12 -0.05 l 0.38,0.02 h -0.05 l 0.39,-0.02 v 0 l 2.66,-0.03 h -0.07 l 1.75,-0.12 h -0.09 l 0.52,-0.07 0.1,-0.02 0.79,-0.05 c 0.07,0 0.17,0 0.24,0.02 h 0.12 c 0.41,0.05 0.77,0.32 0.94,0.7 0.17,0.38 0.09,0.82 -0.15,1.15 -0.24,0.34 -0.64,0.51 -1.08,0.46 l -0.12,-0.03 0.2,0.03 -0.82,0.02 h 0.07 l -0.53,0.07 h -0.07 l -1.77,0.03 h -0.05 l -2.67,-0.07 h 0.03 -0.39 -0.04 l -0.36,-0.05 h -0.12 l -0.12,-0.03 v 0 h -0.15 l 0.84,-0.24 h -0.02 l 0.26,-1.2 0.07,0.2 c 0.12,0.24 0.08,0.52 -0.09,0.72 z"
         style="fill:#000000;fill-opacity:1;fill-rule:nonzero;stroke:none"
         transform="matrix(1.3333333,0,0,-1.3333333,0,1120.8)" />
    </g>
    <g
       id="g193">
      <path
         id="path193"
         d="m 401.64,754.75 h 0.07 -0.02 0.02 c 0.1,0 0.19,0 0.27,0.03 l 0.07,0.02 0.09,0.02 0.03,0.03 -0.36,-0.07 h 0.02 0.03 0.04 c 0.12,0 0.24,0.02 0.36,0.07 h 0.05 l -0.12,-0.03 0.07,0.03 0.08,0.02 0.04,0.03 v 0 h 0.05 v 0 l 0.03,0.02 c 0.09,0.02 0.16,0.07 0.24,0.14 l 0.02,0.03 -0.22,-0.15 0.03,0.03 c 0.05,0.02 0.12,0.05 0.17,0.09 l 0.09,0.08 h 0.03 l 0.12,0.09 0.09,0.07 0.36,0.39 v 0 l 0.31,0.29 -0.07,-0.05 0.19,0.17 0.08,0.04 0.12,0.17 0.04,0.03 0.17,0.19 0.03,0.05 0.26,0.36 -0.02,-0.03 0.48,0.58 0.02,0.02 0.58,0.82 v 0 l 0.52,0.69 -0.07,-0.07 0.27,0.27 v 0 l 0.24,0.28 -0.03,-0.04 0.27,0.24 -0.05,-0.05 0.81,0.69 v 0 l 0.1,0.08 0.07,0.07 0.12,0.09 -0.26,-0.16 0.14,0.07 h 0.05 l 0.12,0.09 0.07,0.03 0.15,0.09 -0.22,-0.09 0.12,0.05 c 0.05,0 0.12,0.04 0.14,0.04 l 0.12,0.08 -0.02,-0.03 0.12,0.07 -0.14,-0.04 0.28,0.07 -0.04,-0.03 0.14,0.05 c 0.53,0.1 0.84,0.63 0.74,1.15 -0.12,0.51 -0.62,0.84 -1.15,0.72 l -0.17,-0.04 h -0.04 l -0.32,-0.1 c -0.02,-0.02 -0.09,-0.02 -0.14,-0.07 l -0.14,-0.07 h -0.05 l -0.12,-0.08 0.14,0.05 -0.14,-0.05 c -0.07,-0.02 -0.15,-0.07 -0.22,-0.12 l -0.12,-0.09 0.07,0.07 -0.12,-0.07 h 0.05 l -0.14,-0.05 c -0.1,-0.05 -0.17,-0.1 -0.24,-0.19 l -0.1,-0.1 0.05,0.07 -0.1,-0.09 v 0 l -0.84,-0.72 -0.04,-0.05 -0.27,-0.26 -0.05,-0.05 -0.24,-0.27 v 0 l -0.24,-0.28 -0.04,-0.08 -0.51,-0.72 v 0 l -0.57,-0.84 0.02,0.03 -0.43,-0.6 h -0.03 l -0.24,-0.39 0.03,0.05 -0.17,-0.19 0.02,0.02 -0.12,-0.16 0.05,0.07 -0.17,-0.15 -0.04,-0.04 -0.29,-0.32 h 0.02 l -0.38,-0.4 0.05,0.04 -0.12,-0.09 0.04,0.02 -0.09,-0.07 0.09,0.07 -0.02,-0.02 c -0.07,-0.03 -0.14,-0.07 -0.19,-0.15 l -0.03,-0.04 0.2,0.16 -0.03,-0.02 v 0 l -0.05,-0.02 v 0 h -0.04 l 0.12,0.04 -0.03,-0.02 c -0.05,-0.02 -0.09,-0.02 -0.12,-0.07 h -0.05 l 0.36,0.09 h -0.04 -0.03 -0.02 c -0.12,0 -0.24,-0.04 -0.34,-0.09 l -0.05,-0.03 0.12,0.05 -0.04,-0.02 0.21,0.05 h -0.02 0.02 -0.07 c -0.41,0 -0.74,-0.36 -0.74,-0.8 0,-0.4 0.33,-0.76 0.74,-0.79 z"
         style="fill:#000000;fill-opacity:1;fill-rule:nonzero;stroke:none"
         transform="matrix(1.3333333,0,0,-1.3333333,0,1120.8)" />
    </g>
    <g
       id="g194"
       transform="matrix(1,0,0,0.96275943,0,3.8752917)">
      <path
         id="path194"
         d="m 409.56,761.04 v 0.14 -0.12 l 0.02,0.2 -0.21,-0.44 0.09,0.08 c 0.32,0.31 0.36,0.81 0.12,1.2 -0.24,0.38 -0.69,0.55 -1.1,0.4 -0.43,-0.16 -0.7,-0.57 -0.65,-1.03 v -0.09 0.07 l 0.07,-1.39 v 0.04 -0.16 -0.03 l 0.03,-2.09 v 0 -1.41 0 -0.22 0 -0.53 l 0.02,0.12 -0.07,-0.36 c 0,-0.04 0,-0.09 0,-0.14 v -0.05 c 0,-0.55 0.46,-1.01 0.98,-1.01 0.58,0 1.01,0.46 1.01,1.01 v 0.05 -0.14 l 0.05,0.38 c 0,0.05 0,0.1 0,0.14 v 0.53 0 0.22 0 1.41 0.03 l -0.05,2.11 v -0.02 0.16 0.08 l -0.12,1.36 v 0.12 l -0.02,0.1 c -0.1,0.46 -0.46,0.77 -0.91,0.79 -0.46,0.03 -0.84,-0.29 -0.96,-0.72 -0.1,-0.43 0.09,-0.89 0.48,-1.1 l 0.12,-0.05 -0.41,0.58 0.02,-0.2 c 0.03,-0.14 0.1,-0.28 0.19,-0.4 l 0.1,-0.08 c 0.19,-0.21 0.48,-0.28 0.74,-0.19 0.29,0.1 0.46,0.36 0.46,0.65 z"
         style="fill:#000000;fill-opacity:1;fill-rule:nonzero;stroke:none"
         transform="matrix(1.3333333,0,0,-1.3333333,0,1120.8)" />
    </g>
    <g
       id="g195">
      <path
         id="path195"
         d="m 399.7,750.1 v -0.03 0 -0.02 0 0 c -0.03,-0.24 0.04,-0.43 0.21,-0.6 v -0.05 0 h 0.03 v 0 -0.02 0 h 0.02 l -0.22,0.6 v 0 c 0,-0.24 0.08,-0.46 0.22,-0.63 l 0.02,-0.02 v 0 0 0 l 0.03,-0.03 c 0.14,-0.16 0.33,-0.26 0.55,-0.26 l 0.02,-0.02 c 0.32,0 0.65,0.16 0.8,0.48 0.14,0.26 0.09,0.62 -0.12,0.88 -0.22,0.27 -0.56,0.34 -0.87,0.24 -0.33,-0.09 -0.55,-0.38 -0.57,-0.72 v -0.02 c -0.03,-0.31 0.14,-0.62 0.43,-0.79 l 0.07,-0.03 -0.05,0.03 0.34,-0.19 v 0 l 0.21,-0.12 v 0 l 0.29,-0.17 v 0 l 0.27,-0.15 0.04,-0.02 0.27,-0.12 0.05,-0.02 0.28,-0.12 0.05,-0.03 0.29,-0.09 0.05,-0.03 0.29,-0.09 v 0 l 0.28,-0.1 h 0.08 l 0.28,-0.07 h 0.05 l 0.31,-0.07 h 0.08 l 0.76,-0.08 h 0.05 l 0.53,-0.02 h 0.02 0.58 0.07 l 0.55,0.05 h 0.05 l 0.55,0.07 v 0 l 0.56,0.05 h 0.04 l 0.58,0.12 c 0.02,0 0.07,0 0.12,0.02 l 1.39,0.41 0.1,0.05 0.67,0.26 0.02,0.03 0.1,0.02 c 0.36,0.17 0.6,0.48 0.62,0.84 0.05,0.36 -0.12,0.72 -0.38,0.94 -0.31,0.24 -0.7,0.26 -1.06,0.12 l -0.09,-0.05 v 0 l -0.67,-0.29 0.09,0.05 -1.39,-0.46 0.07,0.03 -0.57,-0.15 0.07,0.03 -0.55,-0.1 v 0 l -0.56,-0.12 0.08,0.02 -0.56,-0.07 0.05,0.03 -0.57,-0.05 h 0.02 l -0.53,-0.03 h 0.1 l -0.75,0.08 h 0.05 l -0.31,0.02 h 0.05 l -0.31,0.05 h 0.04 l -0.28,0.07 v 0 l -0.32,0.07 h 0.05 l -0.29,0.1 0.05,-0.03 -0.31,0.1 h 0.07 l -0.29,0.12 0.05,-0.02 -0.29,0.14 v 0 l -0.28,0.14 v 0 l -0.22,0.1 h 0.02 l -0.33,0.17 -0.03,0.02 -0.07,0.03 0.48,-0.7 v 0.02 c -0.02,0.22 -0.12,0.44 -0.29,0.58 -0.16,0.12 -0.4,0.22 -0.6,0.19 h -0.02 l 0.6,-0.21 -0.02,0.02 v 0 0 0 l -0.03,0.02 0.27,-0.52 v 0 c 0,0.21 -0.12,0.4 -0.27,0.55 v 0 0 l -0.02,0.02 v 0 l -0.03,0.03 v 0 h -0.02 l 0.26,-0.53 v 0 0 0.02 0 0.03 c -0.02,0.4 -0.38,0.74 -0.79,0.74 -0.43,0 -0.79,-0.34 -0.81,-0.74 z"
         style="fill:#000000;fill-opacity:1;fill-rule:nonzero;stroke:none"
         transform="matrix(1.3333333,0,0,-1.3333333,0,1120.8)" />
    </g>
    <g
       id="g196">
      <path
         id="path196"
         d="m 400.87,749.81 0.03,0.05 -0.27,-0.24 v 0.02 c 0.12,0.05 0.24,0.12 0.31,0.22 v 0.02 c 0.05,0.05 0.08,0.1 0.08,0.17 h 0.02 l -0.29,-0.34 0.03,0.03 c 0.04,0.02 0.09,0.04 0.12,0.09 l 0.04,0.03 -0.28,-0.17 0.04,0.02 c 0.2,0.05 0.36,0.22 0.44,0.39 v 0.02 l -0.24,-0.29 0.04,0.03 -0.07,-0.05 h 0.03 v 0 0.02 l -0.08,-0.05 0.03,0.03 -0.07,-0.05 0.04,0.02 -0.12,-0.02 h 0.03 c 0.02,0 0.07,0 0.12,0.02 l 0.02,0.03 v 0 h 0.03 l 0.09,0.05 0.07,0.02 -0.07,-0.02 0.12,0.02 h 0.03 l 0.24,0.12 -0.03,-0.02 0.27,0.09 h 0.04 l 0.29,0.1 h -0.05 l 0.68,0.19 -0.1,-0.02 1.54,0.31 -0.05,-0.03 0.38,0.08 h -0.02 l 0.41,0.02 h -0.05 0.38 v 0 l 0.41,0.05 h -0.14 l 1.12,-0.12 h -0.07 l 0.29,-0.05 h 0.02 l 0.32,-0.07 -0.08,0.02 0.34,-0.07 h -0.02 l 0.28,-0.1 -0.09,0.05 0.29,-0.14 v 0.02 l 0.28,-0.14 h 0.03 l 0.31,-0.12 -0.14,0.05 0.26,-0.17 h 0.02 l 0.63,-0.36 h -0.05 l 0.36,-0.22 v 0 l 0.19,-0.12 c 0.43,-0.29 0.99,-0.17 1.27,0.27 0.27,0.43 0.15,0.98 -0.26,1.27 l -0.22,0.12 h 0.03 l -0.34,0.21 -0.05,0.03 -0.62,0.38 v 0 l -0.26,0.15 c -0.05,0.04 -0.1,0.07 -0.15,0.07 l -0.29,0.12 h 0.03 l -0.29,0.12 h -0.02 l -0.29,0.12 -0.1,0.05 -0.31,0.07 -0.02,0.02 -0.34,0.07 -0.05,0.03 -0.33,0.05 v 0 l -0.29,0.04 -0.1,0.03 -1.13,0.09 c -0.04,0 -0.09,0 -0.14,0 l -0.38,-0.02 v 0 l -0.39,-0.02 h -0.05 l -0.4,-0.05 h -0.03 l -0.41,-0.07 h -0.04 l -1.52,-0.34 c -0.04,-0.02 -0.09,-0.02 -0.12,-0.02 l -0.67,-0.27 c -0.05,-0.02 -0.07,-0.02 -0.12,-0.05 l -0.24,-0.14 0.03,0.02 -0.27,-0.14 -0.05,-0.02 -0.24,-0.15 c -0.04,-0.02 -0.07,-0.05 -0.12,-0.09 l -0.07,-0.08 0.05,0.08 -0.05,-0.05 v 0 l -0.05,-0.03 v 0 l -0.02,-0.02 c -0.02,-0.02 -0.07,-0.07 -0.1,-0.1 v -0.02 l 0.08,0.1 -0.03,-0.03 c -0.02,-0.02 -0.05,-0.05 -0.09,-0.07 v -0.02 c -0.05,-0.05 -0.1,-0.1 -0.12,-0.15 v -0.02 0 h -0.03 l 0.05,0.07 -0.02,-0.02 c -0.15,-0.22 -0.2,-0.48 -0.1,-0.7 l 0.02,-0.02 0.22,0.81 -0.02,-0.02 c -0.08,-0.05 -0.15,-0.12 -0.2,-0.22 l -0.02,-0.05 v 0.03 -0.03 c -0.1,-0.16 -0.12,-0.38 -0.05,-0.57 v 0 0.43 l -0.02,-0.02 0.17,0.24 h -0.03 c -0.07,-0.1 -0.12,-0.17 -0.17,-0.29 v -0.03 c -0.09,-0.28 0.05,-0.62 0.32,-0.76 0.28,-0.12 0.64,-0.05 0.81,0.19 z"
         style="fill:#000000;fill-opacity:1;fill-rule:nonzero;stroke:none"
         transform="matrix(1.3333333,0,0,-1.3333333,0,1120.8)" />
    </g>
    <g
       id="g197"
       transform="matrix(0.97543854,0,0,1,13.072455,0)">
      <path
         id="path197"
         d="m 399.34,742.32 0.04,-0.07 c 0.29,-0.43 0.84,-0.6 1.32,-0.43 l 0.05,0.02 -0.5,-0.05 0.81,-0.09 0.08,-0.03 0.57,-0.05 h 0.07 0.22 0.02 0.32 v 0 l 0.36,-0.02 h -0.03 0.51 0.02 l 0.86,-0.02 h 0.03 0.57 -0.04 l 1.92,-0.1 v 0 l 1.92,-0.07 h 0.02 l 1.63,-0.03 h 0.03 0.4 0.05 l 1.15,0.03 c 0.1,0 0.15,0.02 0.22,0.02 l 0.07,0.03 c 0.63,0.12 1.03,0.72 0.91,1.34 -0.14,0.62 -0.74,1.03 -1.34,0.91 l -0.1,-0.02 0.2,0.02 -1.18,-0.02 h 0.02 -0.4 0.02 l -1.66,0.02 h 0.03 l -1.9,0.05 v 0 l -1.92,0.1 h -0.05 -0.57 0.02 -0.86 0.02 l -0.53,0.02 h -0.04 -0.36 v 0 l -0.32,-0.02 h -0.02 -0.22 0.05 l -0.57,0.02 h 0.02 l -0.84,0.05 0.31,-0.07 -0.05,0.02 c -0.4,0.17 -0.84,0.07 -1.12,-0.19 l -0.08,-0.07 c -0.36,-0.34 -0.43,-0.89 -0.16,-1.3 z"
         style="fill:#000000;fill-opacity:1;fill-rule:nonzero;stroke:none"
         transform="matrix(1.3333333,0,0,-1.3333333,0,1120.8)" />
    </g>
    <g
       id="g198">
      <path
         id="path198"
         d="m 405.77,743.14 v 0.12 l -0.03,-0.1 0.03,0.1 v -0.05 l 0.02,0.12 -0.05,-0.12 v 0 0 l 0.03,0.02 v 0 0.03 c 0.14,0.5 -0.15,1.03 -0.65,1.17 h -0.02 l 0.64,-1.17 v 0 h 0.03 v 0.02 0 0 l -0.12,-0.26 v 0.02 l -0.27,-0.26 v 0 c 0.2,0.12 0.36,0.31 0.41,0.55 v 0 0 l 0.03,0.02 v 0 0.03 c 0.14,0.5 -0.15,1.08 -0.7,1.22 -0.53,0.17 -1.08,-0.14 -1.22,-0.67 -0.17,-0.53 0.14,-1.08 0.67,-1.25 h 0.02 c 0.53,-0.14 1.08,0.14 1.23,0.7 h 0.02 v 0 0.02 l -0.14,-0.29 0.02,0.03 -0.19,-0.22 h 0.02 c 0.07,0.1 0.17,0.17 0.24,0.29 v 0.05 l -0.24,-0.29 h 0.03 v 0 l 0.02,0.02 h -0.02 l 0.04,0.03 -0.26,-0.17 0.02,0.02 c 0.1,0.03 0.2,0.1 0.27,0.15 l 0.02,0.02 v 0 0 l -0.24,-0.14 0.03,0.02 c 0.09,0.02 0.16,0.1 0.26,0.14 l 0.02,0.03 -0.26,-0.17 0.02,0.02 -0.55,-0.07 h 0.03 c 0.28,-0.05 0.57,0.03 0.81,0.22 v 0 l -0.24,-0.15 0.03,0.03 -0.48,-0.07 h 0.02 c 0.26,-0.03 0.55,0.04 0.74,0.21 l 0.03,0.03 -0.75,-0.24 h 0.05 c 0.27,-0.03 0.51,0.07 0.72,0.24 h 0.03 l -0.75,-0.22 0.03,-0.02 v 0 h 0.04 v 0 h 0.03 v 0 h 0.02 0.05 0.07 0.03 0.02 v 0 h 0.02 l -0.24,0.02 h 0.08 l -0.24,0.07 0.04,-0.02 v 0 h 0.03 c 0.14,-0.07 0.31,-0.12 0.48,-0.12 h 0.05 l -0.48,0.12 0.04,-0.03 c 0.05,-0.02 0.08,-0.04 0.12,-0.04 l 0.05,-0.03 -0.12,0.05 h 0.03 l -0.27,0.19 0.03,-0.02 c 0.19,-0.22 0.45,-0.31 0.76,-0.34 h 0.05 l -0.96,0.63 v -0.05 c 0.07,-0.17 0.22,-0.31 0.36,-0.41 l 0.05,-0.05 c 0.05,-0.02 0.07,-0.05 0.12,-0.07 h 0.02 l -0.16,0.1 0.09,-0.05 -0.21,0.19 0.04,-0.05 -0.04,0.05 0.04,-0.05 v 0 l 0.03,-0.05 v 0 l 0.02,-0.04 0.03,-0.03 0.09,-0.12 v 0.03 l 0.15,-0.24 c 0.09,-0.15 0.21,-0.24 0.36,-0.34 v 0 c 0.43,-0.24 0.93,-0.14 1.27,0.17 0.33,0.33 0.41,0.86 0.19,1.27 h -0.02 l 0.02,-0.02 -0.12,0.26 c -0.05,0.05 -0.05,0.1 -0.1,0.12 l -0.07,0.12 v -0.02 l -0.02,0.04 v 0 l -0.03,0.05 v 0 l -0.04,0.05 -0.03,0.05 -0.05,0.07 c -0.07,0.1 -0.14,0.17 -0.24,0.22 l -0.04,0.04 c -0.08,0.05 -0.12,0.08 -0.2,0.1 l -0.02,0.02 0.12,-0.04 -0.05,0.02 0.39,-0.41 -0.03,0.03 c -0.19,0.36 -0.57,0.6 -0.96,0.6 h -0.05 l 0.77,-0.34 -0.05,0.05 c -0.07,0.07 -0.19,0.14 -0.28,0.19 l -0.03,0.02 c -0.05,0.03 -0.09,0.03 -0.14,0.05 l -0.05,0.03 0.14,-0.05 h -0.04 c -0.15,0.07 -0.32,0.12 -0.48,0.12 h -0.05 l 0.48,-0.12 -0.03,0.02 v 0 l -0.04,0.03 c -0.08,0.02 -0.12,0.04 -0.2,0.07 h -0.07 c -0.09,0.02 -0.19,0.05 -0.29,0.05 h -0.02 v 0 h -0.02 -0.03 -0.07 -0.05 l -0.02,-0.03 v 0 h -0.03 v 0 h -0.04 v 0 h -0.03 c -0.29,-0.02 -0.57,-0.17 -0.74,-0.38 l -0.03,-0.03 0.77,0.39 h -0.05 c -0.28,-0.03 -0.55,-0.17 -0.74,-0.39 l -0.02,-0.02 0.74,0.38 h -0.02 c -0.15,-0.02 -0.32,-0.04 -0.46,-0.14 l -0.02,-0.02 c -0.12,-0.05 -0.22,-0.12 -0.29,-0.24 h -0.03 l 0.68,0.36 h -0.03 c -0.12,0 -0.24,-0.05 -0.36,-0.12 l -0.05,-0.03 c -0.09,-0.07 -0.19,-0.14 -0.28,-0.24 v -0.02 l 0.28,0.24 -0.04,-0.03 c -0.12,-0.04 -0.2,-0.14 -0.27,-0.24 l -0.02,-0.02 v 0 h -0.03 l 0.29,0.24 -0.02,-0.02 c -0.12,-0.05 -0.22,-0.15 -0.29,-0.24 l -0.02,-0.03 v 0.03 -0.05 0 h -0.03 c -0.05,-0.07 -0.09,-0.17 -0.14,-0.24 l -0.03,-0.05 0.17,0.24 h -0.02 c -0.07,-0.1 -0.15,-0.19 -0.17,-0.31 L 403.9,744 c -0.08,-0.19 -0.08,-0.41 0,-0.6 v -0.02 0 0 c 0.16,-0.56 0.72,-0.84 1.24,-0.7 0.53,0.14 0.84,0.72 0.68,1.25 -0.15,0.53 -0.7,0.84 -1.23,0.67 h -0.02 c -0.53,-0.14 -0.84,-0.72 -0.67,-1.22 v -0.03 0 -0.02 0 0 l 0.12,0.81 v -0.02 c -0.24,-0.34 -0.24,-0.74 0,-1.08 v -0.02 l -0.12,0.26 v 0 0 -0.02 0 0 c 0.16,-0.53 0.69,-0.82 1.2,-0.68 l 0.02,0.03 c 0.5,0.12 0.79,0.67 0.65,1.17 -0.15,0.51 -0.67,0.8 -1.18,0.65 -0.53,-0.14 -0.81,-0.67 -0.67,-1.17 l 0.02,-0.03 v 0 -0.02 0 0 c 0,-0.05 0.03,-0.1 0.05,-0.15 l 0.05,-0.09 v 0 l 0.05,-0.1 c 0.02,-0.07 0.07,-0.14 0.12,-0.19 l 0.09,-0.12 c 0.22,-0.24 0.6,-0.36 0.92,-0.24 0.33,0.14 0.55,0.46 0.55,0.82 z"
         style="fill:#000000;fill-opacity:1;fill-rule:nonzero;stroke:none"
         transform="matrix(1.3333333,0,0,-1.3333333,0,1120.8)" />
    </g>
    <g
       id="g199">
      <path
         id="path199"
         d="m 407.78,745.25 -0.19,-0.12 c -0.05,-0.05 -0.09,-0.1 -0.14,-0.15 l -0.17,-0.24 h -0.02 l -0.32,-0.4 -0.07,-0.1 -0.33,-0.62 0.04,0.07 -0.04,-0.05 c -0.15,-0.22 -0.2,-0.5 -0.1,-0.74 0.1,-0.24 0.34,-0.41 0.6,-0.46 0.26,-0.02 0.5,0.1 0.67,0.34 l 0.05,0.04 c 0.02,0.03 0.05,0.08 0.07,0.1 l 0.31,0.65 -0.07,-0.07 0.31,0.43 v 0 l 0.17,0.24 -0.09,-0.12 0.14,0.17 c 0.26,0.24 0.29,0.62 0.07,0.88 -0.21,0.27 -0.6,0.34 -0.89,0.15 z"
         style="fill:#000000;fill-opacity:1;fill-rule:nonzero;stroke:none"
         transform="matrix(1.3333333,0,0,-1.3333333,0,1120.8)" />
    </g>
    <g
       id="g200">
      <path
         id="path200"
         d="m 402.86,743.83 0.72,-0.57 c 0.03,-0.05 0.08,-0.05 0.12,-0.1 l 0.05,-0.02 c 0.31,-0.15 0.67,0 0.84,0.28 0.15,0.32 0.03,0.68 -0.29,0.82 l -0.07,0.02 0.1,-0.04 -0.75,0.52 c -0.24,0.2 -0.6,0.15 -0.79,-0.09 -0.21,-0.27 -0.17,-0.63 0.07,-0.82 z"
         style="fill:#000000;fill-opacity:1;fill-rule:nonzero;stroke:none"
         transform="matrix(1.3333333,0,0,-1.3333333,0,1120.8)" />
    </g>
    <g
       id="g201">
      <path
         id="path201"
         d="m 396.07,735.67 v 0.1 l -0.05,-0.17 0.03,0.02 -0.1,-0.16 0.03,0.02 c 0.04,0.07 0.09,0.17 0.12,0.26 v 0.03 0 0 0 0.02 l -0.05,-0.14 v 0.02 0 0.03 c 0.05,0.02 0.05,0.07 0.05,0.12 l 0.02,0.02 v 0 0 l -0.36,-0.48 0.02,0.02 v 0 0 l 0.1,0.05 0.02,0.03 c 0.15,0.12 0.24,0.26 0.27,0.43 l 0.02,0.02 -0.86,-0.55 h 0.02 c 0.39,-0.1 0.79,0.17 0.87,0.55 v 0.03 l -0.29,-0.46 v 0.02 c 0.05,0.03 0.07,0.05 0.09,0.08 l 0.22,0.19 0.02,0.05 0.05,0.04 v 0 l 0.07,0.08 -0.09,-0.08 0.09,0.08 0.08,0.07 0.04,0.05 -0.09,-0.08 0.09,0.08 -0.09,-0.1 0.07,0.05 0.1,0.07 0.07,0.07 -0.17,-0.09 0.1,0.02 0.04,0.05 0.08,0.05 -0.05,-0.03 0.19,0.1 -0.1,-0.05 0.12,0.05 h 0.03 l 0.12,0.05 -0.12,-0.03 0.09,0.03 0.12,0.02 0.1,0.05 -0.24,-0.05 h 0.12 l 0.1,0.02 0.12,0.03 h -0.08 0.1 -0.12 0.12 0.1 0.12 0.02 l 0.1,0.02 h -0.15 l 0.29,-0.02 h 0.02 0.08 -0.15 0.07 c 0.08,-0.03 0.12,-0.03 0.17,-0.03 h 0.07 l -0.36,0.1 0.08,-0.05 c 0.04,-0.02 0.09,-0.05 0.16,-0.07 h 0.05 v 0 l 0.07,-0.02 -0.09,0.02 0.09,-0.02 -0.16,0.07 0.04,-0.03 0.1,-0.04 0.07,-0.05 v 0 l 0.07,-0.03 v 0 l 0.05,-0.02 -0.09,0.05 0.04,-0.05 -0.12,0.12 0.05,-0.05 c 0.03,-0.02 0.07,-0.07 0.1,-0.09 l 0.07,-0.05 h 0.02 l 0.08,-0.05 -0.15,0.1 0.07,-0.05 -0.12,0.12 0.05,-0.05 0.03,-0.05 0.12,-0.14 v 0 l 0.19,-0.24 -0.07,0.09 0.16,-0.24 -0.02,0.03 0.14,-0.27 v 0 l 0.17,-0.26 -0.05,0.07 0.32,-0.67 -0.03,0.1 0.6,-1.88 v 0 l 0.67,-2.06 0.05,-0.1 0.07,-0.19 v 0.05 l 0.32,-0.79 0.04,-0.07 1.08,-2.04 0.05,-0.05 0.29,-0.48 0.02,-0.03 0.32,-0.45 0.04,-0.05 0.34,-0.46 0.02,-0.04 0.8,-0.87 0.02,-0.02 0.22,-0.24 c 0.36,-0.34 0.88,-0.36 1.24,-0.03 0.34,0.34 0.36,0.89 0.03,1.25 l -0.22,0.22 0.03,-0.03 -0.8,0.89 0.05,-0.05 -0.36,0.44 0.03,-0.03 -0.32,0.46 h 0.03 l -0.31,0.48 0.04,-0.1 -1.1,2.04 0.02,-0.07 -0.31,0.79 v 0.05 l -0.09,0.17 0.04,-0.1 -0.69,2.07 v 0 l -0.63,1.87 -0.04,0.07 -0.29,0.67 -0.05,0.07 -0.14,0.27 v 0 l -0.17,0.26 -0.03,0.03 -0.14,0.24 -0.05,0.09 -0.21,0.22 h 0.02 l -0.1,0.12 0.03,-0.03 -0.05,0.05 c -0.02,0.05 -0.05,0.1 -0.1,0.12 l -0.07,0.07 c -0.05,0.03 -0.09,0.08 -0.14,0.1 l -0.05,0.05 0.05,-0.05 -0.07,0.05 0.09,-0.07 -0.05,0.04 c -0.04,0.05 -0.09,0.08 -0.14,0.1 l -0.05,0.05 -0.09,0.05 -0.08,0.02 v 0 l -0.07,0.05 v 0 l -0.05,0.02 0.08,-0.05 -0.05,0.03 c -0.05,0.05 -0.1,0.05 -0.15,0.07 l -0.09,0.05 -0.1,0.02 -0.07,0.03 v 0 h -0.07 l 0.17,-0.05 -0.08,0.02 c -0.12,0.05 -0.24,0.07 -0.36,0.07 h -0.07 l 0.15,-0.02 -0.08,0.02 c -0.04,0.03 -0.09,0.03 -0.16,0.03 h -0.08 0.08 -0.29 c -0.07,0 -0.15,0 -0.22,0 l -0.09,-0.05 0.02,0.02 -0.12,-0.02 h 0.12 -0.12 c -0.05,0 -0.1,0 -0.14,0 l -0.1,-0.02 -0.07,-0.03 -0.12,-0.02 h 0.09 -0.12 c -0.09,-0.03 -0.16,-0.05 -0.24,-0.07 l -0.09,-0.08 0.09,0.05 -0.09,-0.02 -0.12,-0.05 -0.07,-0.07 0.04,0.05 -0.12,-0.08 -0.09,-0.04 -0.19,-0.1 -0.08,-0.07 -0.07,-0.05 0.07,0.05 -0.09,-0.05 c -0.03,-0.02 -0.07,-0.07 -0.12,-0.12 l -0.07,-0.07 0.07,0.07 -0.07,-0.05 -0.08,-0.07 -0.04,-0.07 -0.08,-0.07 -0.04,-0.1 0.07,0.1 -0.07,-0.08 -0.08,-0.09 -0.04,-0.05 v 0 l -0.05,-0.07 0.02,0.05 -0.17,-0.24 v 0 0 c -0.14,-0.17 -0.21,-0.41 -0.16,-0.6 v -0.03 c 0.09,-0.38 0.48,-0.65 0.86,-0.55 0.38,0.07 0.65,0.46 0.58,0.84 -0.08,0.38 -0.48,0.65 -0.87,0.58 h -0.02 c -0.17,-0.05 -0.34,-0.17 -0.43,-0.34 -0.12,-0.14 -0.17,-0.34 -0.12,-0.53 v -0.02 l 0.14,0.6 -0.02,-0.03 -0.05,-0.09 h -0.03 v 0 -0.03 c -0.09,-0.14 -0.12,-0.33 -0.09,-0.5 h 0.02 v 0 -0.02 c 0.03,-0.05 0.03,-0.1 0.05,-0.12 v -0.03 0 l 0.02,-0.02 -0.04,0.14 v -0.02 0 0 0 -0.03 c 0.02,-0.09 0.07,-0.19 0.12,-0.26 v -0.02 l -0.08,0.16 v -0.02 c 0.08,-0.19 0.24,-0.34 0.44,-0.41 0.19,-0.05 0.4,0 0.55,0.12 l 0.09,0.05 c 0.1,0.07 0.15,0.19 0.17,0.31 z"
         style="fill:#000000;fill-opacity:1;fill-rule:nonzero;stroke:none"
         transform="matrix(1.3333333,0,0,-1.3333333,0,1120.8)" />
    </g>
    <g
       id="g202">
      <path
         id="path202"
         d="m 394.99,735.34 0.22,-0.27 v 0 l 0.21,-0.24 -0.04,0.05 0.19,-0.22 -0.05,0.08 0.17,-0.24 -0.03,0.02 0.39,-0.65 -0.07,0.15 0.26,-0.63 -0.02,0.05 0.24,-0.65 -0.05,0.1 0.45,-1.71 -0.02,0.05 0.17,-0.79 0.02,-0.1 0.51,-1.68 c 0.04,-0.07 0.04,-0.12 0.09,-0.19 l 0.12,-0.24 v 0.05 l 0.1,-0.24 c 0.02,-0.05 0.02,-0.07 0.05,-0.12 l 0.16,-0.24 c 0,-0.05 0.05,-0.07 0.08,-0.12 l 0.16,-0.22 -0.02,0.03 0.19,-0.24 v -0.03 l 0.19,-0.21 0.03,-0.03 0.17,-0.21 c 0.02,-0.03 0.04,-0.05 0.09,-0.1 l 0.22,-0.19 v 0 l 0.21,-0.19 0.05,-0.05 0.6,-0.48 c 0.03,-0.05 0.07,-0.07 0.12,-0.07 l 0.22,-0.15 h -0.03 l 0.24,-0.14 c 0.05,-0.05 0.1,-0.05 0.15,-0.07 l 0.26,-0.12 -0.09,0.02 0.24,-0.12 0.09,-0.02 0.27,-0.12 c 0.04,-0.03 0.07,-0.05 0.12,-0.05 l 0.26,-0.1 -0.05,0.03 0.29,-0.12 -0.02,0.02 0.26,-0.12 c 0.05,0 0.1,-0.02 0.14,-0.02 l 0.29,-0.07 v 0 l 0.29,-0.08 0.07,-0.02 0.82,-0.12 0.05,-0.02 0.31,-0.03 c 0.62,-0.07 1.17,0.36 1.22,0.99 0.07,0.62 -0.36,1.17 -0.98,1.22 l -0.31,0.05 h 0.07 l -0.82,0.12 h 0.07 l -0.28,0.05 v 0 l -0.27,0.07 0.12,-0.05 -0.24,0.1 -0.05,0.02 -0.28,0.1 h -0.03 l -0.26,0.09 0.12,-0.05 -0.27,0.12 0.08,-0.04 -0.24,0.14 -0.08,0.05 -0.26,0.12 0.14,-0.1 -0.24,0.17 h -0.02 l -0.22,0.12 0.12,-0.07 -0.6,0.48 0.05,-0.05 -0.21,0.19 v 0 l -0.22,0.22 0.1,-0.1 -0.2,0.19 0.05,-0.02 -0.19,0.19 0.02,-0.02 -0.16,0.24 -0.03,0.02 -0.19,0.24 0.1,-0.12 -0.15,0.24 0.03,-0.12 -0.1,0.24 -0.02,0.05 -0.12,0.26 0.07,-0.19 -0.55,1.68 0.04,-0.07 -0.19,0.77 v 0.02 l -0.45,1.71 c -0.03,0.04 -0.03,0.09 -0.05,0.12 l -0.24,0.62 -0.03,0.05 -0.26,0.62 c -0.02,0.05 -0.05,0.1 -0.1,0.17 l -0.43,0.65 -0.05,0.07 -0.21,0.24 -0.05,0.05 -0.22,0.21 -0.04,0.05 -0.22,0.19 c -0.07,0.08 -0.14,0.12 -0.22,0.15 l -0.28,0.17 c -0.41,0.19 -0.89,0.07 -1.16,-0.29 -0.24,-0.34 -0.24,-0.84 0.05,-1.15 z"
         style="fill:#000000;fill-opacity:1;fill-rule:nonzero;stroke:none"
         transform="matrix(1.3333333,0,0,-1.3333333,0,1120.8)" />
    </g>
    <g
       id="g203">
      <path
         id="path203"
         d="m 398.71,735.77 c 0,-0.31 -0.26,-0.58 -0.6,-0.58 -0.31,0 -0.57,0.27 -0.57,0.58 0,0.31 0.26,0.6 0.57,0.6 0.34,0 0.6,-0.29 0.6,-0.6 z"
         style="fill:#000000;fill-opacity:1;fill-rule:evenodd;stroke:none"
         transform="matrix(1.3333333,0,0,-1.3333333,0,1120.8)" />
    </g>
    <g
       id="g204">
      <path
         id="path204"
         d="m 398.09,728.02 v -0.03 0 0 l -0.03,-0.05 v -0.02 l 0.27,0.48 -0.03,-0.02 c -0.12,-0.1 -0.21,-0.27 -0.24,-0.44 v -0.02 l 0.24,0.43 h -0.02 c -0.05,-0.05 -0.1,-0.12 -0.14,-0.19 l -0.03,-0.05 0.7,0.36 h -0.03 c -0.28,0.05 -0.55,-0.12 -0.69,-0.36 l -0.05,-0.07 0.07,0.1 -0.09,-0.1 -0.03,-0.07 -0.65,-1.13 v -0.02 l -0.24,-0.46 h -0.02 l -0.31,-0.6 c -0.03,-0.07 -0.07,-0.14 -0.07,-0.22 l -0.03,-0.07 c -0.05,-0.29 0.03,-0.57 0.24,-0.74 0.22,-0.22 0.51,-0.27 0.79,-0.17 0.27,0.07 0.46,0.31 0.53,0.6 v 0.07 l -0.07,-0.19 0.31,0.65 v 0 l 0.22,0.45 -0.03,-0.02 0.58,1.2 -0.02,-0.07 0.04,0.12 0.05,0.05 0.03,0.07 -0.56,-0.41 h 0.03 c 0.24,0.05 0.45,0.19 0.55,0.43 l 0.02,0.03 -0.12,-0.17 0.03,0.02 c 0.12,0.15 0.17,0.34 0.14,0.53 v 0.02 l -0.14,-0.55 v 0.03 c 0.12,0.14 0.17,0.31 0.17,0.5 v 0.02 0.05 0 0 l -0.03,0.03 c -0.05,0.33 -0.33,0.6 -0.67,0.6 -0.34,0 -0.62,-0.27 -0.67,-0.6 z"
         style="fill:#000000;fill-opacity:1;fill-rule:nonzero;stroke:none"
         transform="matrix(1.3333333,0,0,-1.3333333,0,1120.8)" />
    </g>
    <g
       id="g205">
      <path
         id="path205"
         d="m 399.74,726.79 -0.14,-0.17 v -0.02 l -0.07,-0.07 c -0.03,-0.05 -0.05,-0.1 -0.07,-0.12 l -0.05,-0.12 -0.03,-0.05 -0.12,-0.34 -0.02,-0.04 -0.02,-0.12 0.02,0.09 -0.05,-0.12 v 0.03 l -0.14,-0.29 0.07,0.12 -0.05,-0.07 c -0.24,-0.34 -0.19,-0.82 0.15,-1.06 0.33,-0.26 0.81,-0.19 1.08,0.14 l 0.04,0.05 c 0.03,0.05 0.05,0.1 0.08,0.12 l 0.14,0.31 0.02,0.05 0.05,0.12 0.03,0.1 0.02,0.12 -0.02,-0.1 0.12,0.36 v -0.02 l 0.04,0.12 -0.04,-0.12 0.04,0.12 0.05,0.07 0.1,0.19 c 0.14,0.34 0.02,0.75 -0.29,0.94 -0.31,0.17 -0.74,0.09 -0.94,-0.22 z"
         style="fill:#000000;fill-opacity:1;fill-rule:nonzero;stroke:none"
         transform="matrix(1.3333333,0,0,-1.3333333,0,1120.8)" />
    </g>
    <g
       id="g206">
      <path
         id="path206"
         d="m 396.38,723.77 h 0.2 -0.05 0.21 l 0.05,-0.03 1.03,0.03 h -0.07 l 0.7,-0.05 h 0.02 l 1.87,-0.05 v 0 h 0.12 c 0.34,-0.02 0.65,0.17 0.8,0.46 0.16,0.26 0.16,0.6 0,0.89 -0.15,0.28 -0.46,0.45 -0.8,0.45 h -0.12 v 0 l -1.87,-0.05 h 0.03 l -0.7,-0.02 h -0.1 l -1,-0.12 h 0.04 -0.21 l -0.07,-0.02 -0.2,-0.03 c -0.38,-0.07 -0.64,-0.41 -0.62,-0.79 0.02,-0.38 0.36,-0.67 0.74,-0.67 z"
         style="fill:#000000;fill-opacity:1;fill-rule:nonzero;stroke:none"
         transform="matrix(1.3333333,0,0,-1.3333333,0,1120.8)" />
    </g>
    <g
       id="g207">
      <path
         id="path207"
         d="m 402.58,736.3 -0.03,-0.17 c -0.05,-0.22 0,-0.48 0.15,-0.67 l 0.19,-0.27 0.05,-0.07 0.12,-0.12 -0.05,0.07 0.33,-0.45 0.08,-0.1 0.12,-0.12 -0.08,0.07 0.08,-0.09 0.02,-0.03 0.1,-0.12 -0.08,0.1 0.22,-0.34 h 0.02 l 0.44,-0.65 -0.08,0.15 0.05,-0.15 c 0.15,-0.28 0.41,-0.5 0.75,-0.52 0.31,-0.03 0.62,0.09 0.81,0.36 0.19,0.26 0.22,0.6 0.1,0.91 l -0.07,0.14 c -0.03,0.05 -0.05,0.1 -0.08,0.15 l -0.45,0.62 h 0.02 l -0.21,0.31 c -0.03,0.05 -0.08,0.07 -0.08,0.1 l -0.12,0.12 v 0 l -0.07,0.07 -0.05,0.07 -0.12,0.12 0.08,-0.09 -0.36,0.43 c -0.03,0.05 -0.05,0.07 -0.08,0.12 l -0.12,0.09 0.08,-0.09 -0.2,0.24 -0.07,0.07 -0.09,0.12 c -0.2,0.22 -0.51,0.29 -0.77,0.19 -0.29,-0.07 -0.48,-0.31 -0.55,-0.57 z"
         style="fill:#000000;fill-opacity:1;fill-rule:nonzero;stroke:none"
         transform="matrix(1.3333333,0,0,-1.3333333,0,1120.8)" />
    </g>
    <g
       id="g208">
      <path
         id="path208"
         d="m 405.79,736.63 v -0.17 c 0,-0.12 0.03,-0.24 0.1,-0.33 l 0.41,-0.65 v -0.05 l 0.14,-0.19 -0.02,0.05 0.33,-0.55 v 0 l 0.6,-0.99 v -0.02 l 0.07,-0.1 c 0.17,-0.24 0.44,-0.38 0.72,-0.36 0.27,0 0.53,0.19 0.65,0.43 0.12,0.27 0.1,0.56 -0.07,0.8 l -0.05,0.09 v -0.02 l -0.6,0.98 h -0.02 l -0.34,0.53 -0.05,0.07 -0.16,0.19 0.02,-0.02 -0.5,0.6 0.12,-0.17 -0.08,0.15 c -0.12,0.31 -0.43,0.48 -0.74,0.4 -0.34,-0.04 -0.55,-0.33 -0.53,-0.67 z"
         style="fill:#000000;fill-opacity:1;fill-rule:nonzero;stroke:none"
         transform="matrix(1.3333333,0,0,-1.3333333,0,1120.8)" />
    </g>
    <g
       id="g209">
      <path
         id="path209"
         d="m 393.58,701.26 -0.05,0.5 v 0.02 l -0.03,0.2 v -0.12 0.21 0.03 0.19 -0.12 l 0.03,0.19 v 0.07 0.39 -0.03 l 0.02,0.29 v 0.02 l 0.05,1.04 v 0.02 l -0.02,2.81 v 0.02 l -0.05,1.32 v 0 l -0.03,0.84 v 0 l -0.12,4.63 v -0.02 l 0.03,0.72 v -0.05 l 0.02,0.77 v 0 l 0.05,0.74 -0.02,-0.09 0.24,1.58 -0.03,-0.02 0.05,0.26 -0.02,-0.14 0.16,0.6 -0.02,-0.07 0.1,0.21 -0.03,-0.05 0.1,0.24 v 0 l 0.09,0.24 -0.07,-0.12 0.27,0.46 c 0,0.02 0.04,0.07 0.04,0.12 l 0.03,0.07 -0.24,-0.36 0.05,0.05 c 0.07,0.05 0.12,0.12 0.16,0.19 l 0.03,0.05 -0.03,-0.05 0.05,0.07 -0.02,-0.02 0.07,0.07 -0.1,-0.09 0.08,0.04 c 0.02,0.05 0.04,0.1 0.09,0.12 l 0.05,0.08 -0.1,-0.12 0.05,0.04 -0.14,-0.12 0.19,0.15 -0.02,-0.03 0.02,0.03 v 0 l 0.02,0.02 v 0 h 0.03 l -0.12,-0.07 0.02,0.02 c 0.12,0.05 0.22,0.12 0.31,0.22 l 0.03,0.02 -0.82,-0.33 h 0.03 l -0.48,0.12 v -0.03 c 0.16,-0.07 0.33,-0.12 0.5,-0.12 h 0.05 c 0.29,0.03 0.6,0.15 0.81,0.36 l 0.03,0.03 -0.82,-0.34 h 0.05 v 0 h 0.02 v 0 h 0.03 c 0.09,0 0.19,0 0.29,0.05 h 0.02 l -0.26,-0.05 v 0 l -0.58,0.17 0.05,-0.02 c 0.17,-0.1 0.36,-0.17 0.6,-0.17 v 0 c 0.07,0 0.14,0.02 0.21,0.02 h 0.05 l -0.74,0.1 0.05,-0.03 -0.12,0.1 v -0.02 c 0.04,-0.03 0.09,-0.05 0.12,-0.08 l 0.04,-0.02 c 0.1,-0.05 0.2,-0.07 0.29,-0.1 h 0.03 c 0.09,-0.02 0.16,-0.02 0.24,-0.02 h 0.02 l -0.65,0.19 0.03,-0.02 -0.27,0.24 0.05,-0.05 c 0.14,-0.19 0.38,-0.34 0.62,-0.38 h 0.03 l -0.36,0.14 0.07,-0.05 -0.31,0.31 0.05,-0.07 c 0.02,-0.05 0.04,-0.07 0.07,-0.09 l 0.09,-0.1 v 0 l 0.08,-0.1 0.07,-0.07 0.07,-0.07 -0.19,0.24 0.07,-0.12 -0.02,0.05 0.04,-0.1 c 0.03,-0.05 0.05,-0.07 0.08,-0.12 l 0.07,-0.09 -0.03,0.04 0.08,-0.12 -0.12,0.22 0.04,-0.12 0.03,-0.05 0.05,-0.12 -0.05,0.17 v -0.1 c 0.02,-0.07 0.05,-0.12 0.09,-0.19 l 0.03,-0.12 -0.05,0.17 0.05,-0.24 v 0.02 l 0.07,-0.26 -0.02,0.1 0.04,-0.32 v 0 l 0.03,-0.26 v 0.07 l 0.05,-0.72 v 0.07 l -0.05,-1.63 v 0 -0.89 0 l -0.03,-0.86 0.03,0.14 -0.05,-0.24 c -0.1,-0.55 0.29,-1.08 0.84,-1.17 0.53,-0.1 1.08,0.26 1.18,0.81 l 0.04,0.24 c 0,0.05 0.03,0.1 0.03,0.12 l 0.05,0.89 v -0.02 l 0.04,0.89 v 0.02 l 0.1,1.63 v 0.07 l -0.02,0.75 v 0.07 l -0.05,0.26 v 0 l -0.03,0.32 v 0.09 l -0.04,0.29 -0.03,0.07 -0.05,0.27 c -0.02,0.04 -0.04,0.09 -0.07,0.14 l -0.05,0.12 0.08,-0.19 -0.03,0.09 c -0.02,0.08 -0.02,0.12 -0.05,0.17 l -0.04,0.12 v -0.05 l -0.03,0.12 c -0.02,0.1 -0.05,0.17 -0.09,0.22 l -0.08,0.12 -0.02,0.05 -0.07,0.07 0.09,-0.12 -0.04,0.12 -0.05,0.05 -0.07,0.12 c -0.05,0.07 -0.1,0.14 -0.17,0.24 l -0.07,0.07 0.07,-0.07 -0.07,0.07 v 0.02 l -0.1,0.1 0.07,-0.12 -0.05,0.07 c -0.07,0.15 -0.19,0.27 -0.33,0.36 l -0.07,0.05 c -0.1,0.07 -0.22,0.12 -0.34,0.17 h -0.02 l 0.6,-0.41 -0.05,0.05 c -0.05,0.07 -0.15,0.17 -0.24,0.24 h -0.03 c -0.16,0.14 -0.4,0.19 -0.62,0.19 h -0.02 0.21 -0.02 l 0.29,-0.1 -0.05,0.03 0.12,-0.1 -0.03,0.03 c -0.02,0.02 -0.07,0.04 -0.12,0.07 l -0.02,0.02 c -0.22,0.12 -0.5,0.15 -0.74,0.1 h -0.05 l 0.24,0.02 v 0 l 0.57,-0.17 -0.04,0.03 c -0.17,0.09 -0.39,0.14 -0.6,0.14 v 0 c -0.12,0 -0.2,0 -0.29,-0.02 h -0.03 l 0.27,0.02 h -0.03 v 0 h -0.02 v 0 h -0.05 c -0.29,0 -0.6,-0.12 -0.81,-0.31 l -0.03,-0.05 0.82,0.34 h -0.05 l 0.53,-0.12 h -0.03 c -0.16,0.09 -0.33,0.14 -0.52,0.14 h -0.03 c -0.31,0 -0.6,-0.12 -0.81,-0.33 l -0.03,-0.03 0.31,0.22 -0.04,-0.03 c -0.05,-0.02 -0.08,-0.04 -0.12,-0.07 h -0.03 v -0.02 h -0.02 v 0 l -0.03,-0.03 -0.04,-0.02 -0.2,-0.12 c -0.04,-0.05 -0.09,-0.1 -0.14,-0.14 l -0.05,-0.05 c -0.05,-0.05 -0.07,-0.1 -0.12,-0.12 l -0.05,-0.07 0.12,0.12 -0.07,-0.05 c -0.02,-0.05 -0.05,-0.07 -0.09,-0.12 l -0.05,-0.07 v -0.03 l -0.07,-0.05 -0.03,-0.07 -0.05,-0.07 0.15,0.19 -0.07,-0.07 c -0.12,-0.12 -0.2,-0.24 -0.24,-0.38 l -0.05,-0.08 0.05,0.12 -0.24,-0.48 c -0.03,-0.02 -0.05,-0.07 -0.05,-0.12 l -0.1,-0.24 v 0.03 l -0.09,-0.22 v -0.05 l -0.1,-0.24 -0.02,-0.07 -0.17,-0.6 c 0,-0.05 -0.03,-0.07 -0.03,-0.12 l -0.04,-0.26 v -0.03 l -0.2,-1.58 -0.02,-0.1 -0.02,-0.74 v -0.02 l -0.05,-0.77 v -0.05 -0.72 -0.05 l 0.21,-4.63 v 0 l 0.03,-0.84 v -0.02 l 0.09,-1.32 v 0.02 l 0.12,-2.81 v 0.03 l 0.03,-1.01 v 0 -0.31 -0.03 l 0.02,-0.41 v -0.02 l 0.03,-0.19 v -0.1 l 0.04,-0.21 v 0.04 l 0.03,-0.19 0.02,-0.09 0.07,-0.2 c 0,-0.04 0.03,-0.09 0.03,-0.12 l 0.21,-0.43 c 0.17,-0.36 0.56,-0.55 0.94,-0.45 0.38,0.12 0.62,0.48 0.58,0.84 z"
         style="fill:#000000;fill-opacity:1;fill-rule:nonzero;stroke:none"
         transform="matrix(1.3333333,0,0,-1.3333333,0,1120.8)" />
    </g>
    <g
       id="g210">
      <path
         id="path210"
         d="m 406.03,720.84 h -0.24 0.1 l -0.22,0.02 h -0.07 l -0.22,0.03 h -0.07 -0.21 v 0 h -0.2 v 0 h -0.24 c -0.04,0 -0.07,0 -0.12,0 l -0.21,-0.05 h -0.07 l -0.58,-0.14 -0.1,-0.03 -0.26,-0.09 -0.02,-0.03 -0.22,-0.07 -0.07,-0.05 -0.24,-0.12 h 0.02 l -0.24,-0.09 -0.09,-0.05 -0.22,-0.12 h 0.02 l -0.24,-0.15 -0.07,-0.04 -0.21,-0.15 -0.03,-0.05 -0.19,-0.14 -0.05,-0.02 -0.19,-0.2 -0.02,-0.02 -0.48,-0.46 -0.08,-0.09 -0.14,-0.15 v 0 l -0.14,-0.16 -0.03,-0.05 -0.12,-0.17 -0.05,-0.1 -0.09,-0.16 0.02,0.04 -0.09,-0.16 c -0.03,-0.05 -0.05,-0.08 -0.08,-0.12 l -0.07,-0.2 v 0.05 l -0.09,-0.19 -0.03,-0.05 -0.07,-0.17 -0.05,-0.09 -0.05,-0.19 v 0 l -0.07,-0.2 -0.02,-0.07 -0.05,-0.19 -0.02,-0.1 -0.03,-0.19 v -0.05 l -0.07,-0.55 -0.02,-0.02 v -0.19 0.02 l -0.03,-0.19 v -0.1 -0.17 -0.07 l 0.03,-0.19 v 0 -0.17 l 0.02,-0.07 0.02,-0.22 v 0 l 0.05,-0.19 v -0.09 l 0.07,-0.17 v 0 l 0.1,-0.39 0.02,-0.12 0.08,-0.09 -0.03,0.02 0.05,-0.12 c 0.02,-0.07 0.07,-0.12 0.1,-0.19 l 0.07,-0.1 -0.05,0.05 0.07,-0.12 v 0 l 0.07,-0.09 0.03,-0.08 0.05,-0.09 0.09,-0.07 0.07,-0.1 v 0 l 0.08,-0.1 v 0 l 0.09,-0.12 0.03,-0.04 0.09,-0.1 0.07,-0.05 0.1,-0.07 -0.07,0.05 0.09,-0.1 c 0.05,-0.05 0.1,-0.09 0.17,-0.12 l 0.27,-0.19 0.04,-0.05 0.2,-0.12 h 0.04 l 0.2,-0.12 0.07,-0.02 0.21,-0.1 0.03,-0.02 0.19,-0.1 h 0.05 l 0.24,-0.07 h -0.03 l 0.2,-0.1 c 0.04,-0.02 0.09,-0.02 0.14,-0.02 l 0.22,-0.07 h 0.02 l 0.24,-0.05 h -0.02 l 0.21,-0.05 h 0.07 l 0.24,-0.05 h 0.08 l 0.57,-0.04 h 0.05 0.29 v 0 h 0.29 v 0 h 0.28 0.12 l 0.29,0.02 v 0 l 0.31,0.02 0.1,0.05 0.31,0.05 v 0 l 0.6,0.14 0.1,0.05 0.21,0.07 h 0.03 l 0.21,0.1 v 0 l 0.22,0.07 c 0.05,0.03 0.1,0.05 0.14,0.07 l 0.22,0.12 -0.05,-0.02 0.22,0.12 h 0.02 l 0.19,0.12 0.05,0.02 0.19,0.12 0.05,0.05 0.19,0.12 0.05,0.05 0.41,0.34 0.02,0.02 0.15,0.12 0.05,0.05 0.14,0.14 0.02,0.05 0.15,0.14 v 0 l 0.14,0.15 c 0.03,0.02 0.07,0.07 0.1,0.12 l 0.09,0.19 v -0.02 l 0.1,0.14 0.02,0.02 0.12,0.17 0.03,0.07 0.09,0.17 -0.02,-0.05 0.12,0.17 c 0.02,0.07 0.05,0.12 0.07,0.17 l 0.17,0.48 0.02,0.07 0.05,0.12 -0.02,-0.07 0.05,0.12 c 0.02,0.07 0.04,0.14 0.04,0.22 l 0.03,0.12 -0.03,-0.1 0.05,0.12 c 0,0.02 0,0.07 0,0.12 l 0.03,0.12 v 0 l 0.02,0.14 c 0,0.05 0,0.1 0,0.12 v 0.12 0 0.12 0 0.15 c 0,0.05 0,0.07 0,0.12 v 0.14 0 l -0.02,0.12 c 0,0.05 -0.03,0.12 -0.03,0.17 l -0.05,0.12 0.05,-0.17 -0.02,0.12 c -0.03,0.05 -0.03,0.12 -0.03,0.17 l -0.02,0.12 v 0 l -0.05,0.12 c 0,0.02 -0.02,0.07 -0.05,0.1 l -0.14,0.36 -0.02,0.07 -0.1,0.19 c -0.02,0.05 -0.05,0.1 -0.07,0.14 l -0.12,0.17 0.05,-0.07 -0.1,0.19 -0.05,0.07 -0.12,0.17 -0.05,0.05 -0.12,0.14 -0.04,0.05 -0.15,0.17 -0.05,0.05 -0.14,0.14 v 0 l -0.14,0.17 -0.05,0.02 -0.15,0.12 -0.02,0.05 -0.17,0.12 v 0 l -0.17,0.15 -0.02,0.02 -0.19,0.14 c -0.05,0.03 -0.07,0.05 -0.1,0.08 l -0.53,0.28 c -0.04,0.03 -0.09,0.05 -0.14,0.05 l -0.24,0.12 0.12,-0.05 -0.24,0.12 c -0.07,0.03 -0.12,0.05 -0.17,0.08 l -0.24,0.07 -0.05,0.02 -0.24,0.07 v 0 l -0.24,0.08 c -0.04,0.02 -0.09,0.02 -0.14,0.04 l -0.29,0.05 h 0.03 l -0.27,0.05 v 0 l -0.26,0.05 c -0.05,0 -0.1,0.02 -0.15,0.02 h -0.26 -0.05 l -0.67,0.03 h -0.02 -0.15 c -0.05,0 -0.09,0 -0.12,0 l -0.12,-0.03 v 0 l -0.14,-0.02 v 0 h -0.15 c -0.04,0 -0.07,-0.03 -0.12,-0.03 l -0.12,-0.02 v 0 l -0.14,-0.05 c -0.02,0 -0.07,-0.02 -0.1,-0.02 l -0.14,-0.05 h 0.02 l -0.31,-0.12 c -0.09,-0.02 -0.17,-0.05 -0.21,-0.1 l -0.22,-0.14 c -0.5,-0.29 -0.65,-0.96 -0.34,-1.44 0.29,-0.5 0.96,-0.65 1.44,-0.36 l 0.22,0.14 -0.22,-0.12 0.34,0.12 h 0.02 l 0.12,0.08 -0.09,-0.05 0.12,0.05 v 0 l 0.14,0.02 -0.12,-0.02 0.12,0.02 v 0 h 0.12 v 0 l 0.15,0.02 h -0.15 0.15 -0.03 l 0.67,-0.02 h -0.04 0.28 -0.12 l 0.27,-0.05 v 0 l 0.26,-0.05 v 0 l 0.27,-0.04 -0.15,0.04 0.27,-0.09 v 0 l 0.26,-0.1 -0.02,0.03 0.24,-0.1 -0.15,0.07 0.24,-0.12 0.12,-0.05 0.24,-0.09 -0.12,0.07 0.53,-0.31 -0.12,0.07 0.19,-0.12 -0.05,0.02 0.17,-0.14 v 0 l 0.17,-0.12 -0.05,0.02 0.15,-0.12 -0.05,0.05 0.14,-0.17 v 0 l 0.17,-0.14 -0.05,0.05 0.15,-0.17 -0.03,0.05 0.12,-0.17 -0.05,0.07 0.12,-0.17 -0.04,0.08 0.12,-0.2 0.04,-0.07 0.12,-0.17 -0.07,0.12 0.07,-0.19 -0.02,0.07 0.14,-0.36 -0.02,0.12 0.02,-0.12 v 0 l 0.05,-0.12 -0.05,0.17 0.03,-0.14 c 0,-0.05 0.02,-0.1 0.02,-0.15 l 0.05,-0.12 -0.05,0.17 0.03,-0.14 v 0 l 0.02,-0.15 v 0.15 -0.15 0 -0.12 0 -0.12 0.12 -0.12 0 l -0.02,-0.12 0.02,0.12 -0.05,-0.14 v -0.1 l -0.02,-0.12 0.05,0.22 -0.05,-0.12 -0.03,-0.1 -0.02,-0.12 0.02,0.1 -0.19,-0.48 0.07,0.17 -0.07,-0.17 -0.05,-0.02 -0.07,-0.2 0.03,0.08 -0.1,-0.2 v 0.03 l -0.1,-0.15 -0.02,-0.02 -0.1,-0.17 0.1,0.12 -0.12,-0.17 v 0.03 l -0.14,-0.15 0.04,0.05 -0.14,-0.17 0.02,0.05 -0.14,-0.12 h 0.02 l -0.4,-0.33 0.04,0.04 -0.16,-0.14 0.02,0.02 -0.19,-0.12 0.07,0.03 -0.22,-0.12 0.05,0.02 -0.24,-0.12 h -0.02 l -0.19,-0.12 0.14,0.07 -0.22,-0.09 v 0 l -0.19,-0.07 v 0 l -0.21,-0.08 0.09,0.03 -0.6,-0.15 h 0.03 l -0.29,-0.07 0.09,0.03 -0.28,-0.05 v 0 l -0.29,-0.03 h 0.09 -0.28 v 0 h -0.29 v 0 h -0.29 0.07 l -0.57,0.03 h 0.09 l -0.24,0.02 h 0.07 l -0.19,0.05 h -0.05 l -0.24,0.05 0.03,-0.03 -0.22,0.05 0.15,-0.02 -0.22,0.07 -0.02,0.02 -0.24,0.08 0.04,-0.03 -0.19,0.07 h 0.03 l -0.2,0.1 0.05,-0.02 -0.21,0.09 h 0.02 l -0.19,0.12 0.05,-0.05 -0.29,0.22 0.14,-0.12 -0.09,0.07 -0.08,0.07 -0.09,0.1 0.05,-0.07 -0.08,0.07 0.08,-0.05 -0.1,0.07 v 0 l -0.07,0.12 v 0 l -0.1,0.1 0.07,-0.1 -0.07,0.1 0.03,-0.05 -0.05,0.12 v 0 l -0.07,0.12 -0.03,0.05 -0.07,0.1 0.1,-0.2 -0.05,0.12 -0.03,0.05 -0.04,0.12 0.04,-0.12 -0.12,0.41 v 0 l -0.04,0.14 0.02,-0.07 -0.02,0.17 v 0 l -0.03,0.19 v -0.07 l -0.02,0.17 v 0 l -0.03,0.19 v -0.1 0.17 -0.07 l 0.03,0.19 v 0 l 0.02,0.19 v -0.04 l 0.05,0.52 v 0 l 0.02,0.22 v -0.1 l 0.05,0.2 -0.05,-0.08 0.08,0.22 v 0 l 0.07,0.19 -0.03,-0.09 0.08,0.16 -0.03,-0.02 0.12,0.19 v 0.05 l 0.07,0.17 -0.04,-0.12 0.09,0.19 0.03,0.05 0.12,0.19 -0.08,-0.1 0.12,0.17 -0.02,-0.05 0.12,0.17 v 0 l 0.14,0.17 -0.07,-0.1 0.48,0.48 -0.05,-0.02 0.2,0.19 -0.03,-0.02 0.19,0.17 -0.02,-0.03 0.22,0.17 -0.08,-0.05 0.2,0.12 h 0.02 l 0.22,0.17 -0.08,-0.05 0.24,0.12 v 0 l 0.24,0.15 -0.04,-0.03 0.21,0.1 v -0.03 l 0.24,0.12 -0.12,-0.02 0.58,0.14 h 0.02 l 0.19,0.08 -0.12,-0.03 0.22,0.03 0.02,0.02 0.2,0.02 v 0 l 0.21,0.03 -0.05,-0.03 0.22,0.03 h -0.05 0.24 v 0 l 0.24,0.02 c 0.41,0 0.72,0.31 0.72,0.72 0,0.41 -0.31,0.75 -0.72,0.77 z"
         style="fill:#000000;fill-opacity:1;fill-rule:nonzero;stroke:none"
         transform="matrix(1.3333333,0,0,-1.3333333,0,1120.8)" />
    </g>
    <g
       id="g211">
      <path
         id="path211"
         d="m 402.24,717.1 0.12,-0.03 h -0.02 l 0.33,-0.07 h 0.03 l 0.33,-0.05 h 0.03 l 0.69,-0.07 h 0.03 l 0.62,-0.05 h -0.02 l 0.36,-0.05 c 0.04,0 0.09,0 0.12,0 l 1.1,0.08 h 0.02 l 0.77,0.04 h 0.03 l 0.57,0.05 h -0.09 0.02 c 0.31,0 0.62,0.17 0.79,0.43 0.15,0.29 0.15,0.6 0,0.89 -0.17,0.29 -0.48,0.43 -0.79,0.43 h -0.02 -0.12 l -0.56,-0.07 v 0 l -0.76,-0.09 0.02,0.02 -1.1,-0.12 h 0.07 -0.39 0.03 -0.63 0.05 l -0.69,0.02 v 0 h -0.34 0.05 l -0.34,0.03 0.19,-0.05 -0.09,0.05 c -0.27,0.09 -0.55,0.05 -0.77,-0.15 -0.19,-0.19 -0.29,-0.48 -0.22,-0.72 0.08,-0.26 0.32,-0.48 0.58,-0.52 z"
         style="fill:#000000;fill-opacity:1;fill-rule:nonzero;stroke:none"
         transform="matrix(1.3333333,0,0,-1.3333333,0,1120.8)" />
    </g>
    <g
       id="g212">
      <path
         id="path212"
         d="m 401.54,715.58 -0.33,0.15 c -0.24,0.09 -0.51,0.07 -0.7,-0.1 -0.19,-0.19 -0.26,-0.45 -0.17,-0.69 0.08,-0.24 0.29,-0.41 0.56,-0.44 l 0.81,-0.04 h 0.07 l 3.36,0.04 h -0.02 l 3.74,0.03 h 0.1 l 0.38,0.07 h 0.12 l 0.2,0.05 c 0.31,0.07 0.55,0.31 0.64,0.62 0.1,0.29 0,0.63 -0.21,0.84 -0.22,0.24 -0.55,0.34 -0.87,0.27 l -0.19,-0.08 0.12,0.05 -0.41,-0.07 0.1,0.02 -3.74,-0.12 h -0.03 l -3.36,-0.21 -0.09,-0.03 -0.82,-0.16 c -0.24,-0.05 -0.41,-0.22 -0.48,-0.46 -0.05,-0.24 0.02,-0.48 0.19,-0.65 0.17,-0.17 0.43,-0.19 0.65,-0.12 l 0.34,0.12 c 0.21,0.07 0.33,0.24 0.33,0.43 0,0.22 -0.09,0.39 -0.29,0.48 z"
         style="fill:#000000;fill-opacity:1;fill-rule:nonzero;stroke:none"
         transform="matrix(1.3333333,0,0,-1.3333333,0,1120.8)" />
    </g>
    <g
       id="g213">
      <path
         id="path213"
         d="m 402.5,712.1 1.11,0.12 -0.05,-0.02 0.58,0.02 h -0.03 l 1.23,0.03 h -0.03 1.06 0.07 l 0.19,0.02 c 0.29,0 0.55,0.19 0.67,0.46 0.15,0.26 0.12,0.57 -0.04,0.81 -0.2,0.24 -0.48,0.36 -0.75,0.34 h -0.21 0.04 l -1.05,-0.05 h -0.03 l -1.2,-0.07 h -0.04 l -0.58,-0.1 h -0.1 l -1.08,-0.28 c -0.31,-0.08 -0.52,-0.41 -0.45,-0.75 0.05,-0.33 0.36,-0.55 0.69,-0.53 z"
         style="fill:#000000;fill-opacity:1;fill-rule:nonzero;stroke:none"
         transform="matrix(1.3333333,0,0,-1.3333333,0,1120.8)" />
    </g>
    <g
       id="g214">
      <path
         id="path214"
         d="m 399.38,704.42 v -0.02 0 0 0 -0.02 c -0.02,-0.24 0.05,-0.46 0.2,-0.63 h 0.02 v 0 l 0.02,-0.02 v 0 -0.03 0 h 0.03 l -0.22,0.6 v -0.02 c 0,-0.22 0.07,-0.43 0.22,-0.6 l 0.02,-0.02 v 0 -0.03 0 h 0.03 c 0.12,-0.17 0.33,-0.26 0.52,-0.29 h 0.03 c 0.33,0 0.65,0.17 0.81,0.46 0.15,0.31 0.1,0.67 -0.12,0.91 -0.21,0.27 -0.57,0.36 -0.88,0.24 -0.32,-0.09 -0.56,-0.38 -0.56,-0.72 v 0 c -0.04,-0.33 0.15,-0.65 0.44,-0.81 l 0.04,-0.03 -0.02,0.03 0.34,-0.2 v 0 l 0.21,-0.12 v 0 l 0.27,-0.16 v 0 l 0.28,-0.15 0.05,-0.02 0.27,-0.15 h 0.04 l 0.29,-0.12 0.05,-0.02 0.29,-0.1 0.05,-0.02 0.28,-0.1 v 0 l 0.29,-0.07 0.05,-0.02 0.31,-0.07 h 0.05 l 0.31,-0.08 h 0.07 l 0.77,-0.07 h 0.03 l 0.55,-0.02 h 0.02 0.58 0.05 l 0.57,0.05 h 0.05 l 0.55,0.04 v 0 l 0.55,0.08 h 0.05 l 0.55,0.12 c 0.05,0 0.1,0 0.12,0 l 1.42,0.45 0.07,0.03 0.67,0.26 h 0.05 l 0.1,0.07 c 0.33,0.12 0.57,0.43 0.62,0.82 0.05,0.36 -0.12,0.72 -0.41,0.93 -0.28,0.24 -0.67,0.29 -1.03,0.12 l -0.12,-0.02 h 0.03 l -0.68,-0.29 0.1,0.03 -1.42,-0.48 0.1,0.04 -0.58,-0.14 0.05,0.02 -0.53,-0.12 v 0 l -0.55,-0.07 h 0.07 l -0.55,-0.07 h 0.05 l -0.58,-0.02 h 0.03 l -0.55,-0.03 h 0.12 l -0.75,0.07 0.03,-0.02 -0.29,0.05 h 0.05 l -0.32,0.05 h 0.05 l -0.29,0.07 v 0 l -0.31,0.07 0.05,-0.02 -0.29,0.09 h 0.03 l -0.29,0.12 0.05,-0.05 -0.27,0.15 0.03,-0.03 -0.27,0.15 v 0 l -0.29,0.14 v 0 l -0.21,0.12 v -0.02 l -0.34,0.19 v 0 l -0.09,0.02 0.48,-0.67 v 0 c -0.03,0.24 -0.12,0.43 -0.29,0.58 -0.17,0.14 -0.39,0.21 -0.6,0.19 h -0.03 l 0.63,-0.22 -0.03,0.03 v 0 0.02 0 h -0.02 l 0.26,-0.55 v 0.02 c 0,0.22 -0.12,0.41 -0.26,0.56 l -0.02,0.02 v 0 h -0.03 v 0 0.02 0 h -0.02 l 0.26,-0.52 v 0.02 0 0 0 0.02 c -0.02,0.41 -0.38,0.75 -0.81,0.75 -0.41,0 -0.77,-0.34 -0.8,-0.75 z"
         style="fill:#000000;fill-opacity:1;fill-rule:nonzero;stroke:none"
         transform="matrix(1.3333333,0,0,-1.3333333,0,1120.8)" />
    </g>
    <g
       id="g215">
      <path
         id="path215"
         d="m 400.56,704.14 0.02,0.04 -0.28,-0.24 0.02,0.03 c 0.12,0.05 0.22,0.12 0.29,0.21 l 0.02,0.05 c 0.03,0.03 0.07,0.07 0.07,0.12 v 0.03 l -0.28,-0.34 0.02,0.02 c 0.07,0.03 0.1,0.05 0.14,0.1 l 0.05,0.02 -0.29,-0.16 h 0.03 c 0.21,0.07 0.36,0.21 0.43,0.4 l 0.02,0.03 -0.24,-0.29 0.05,0.02 -0.09,-0.04 h 0.02 v 0 h 0.02 l -0.07,-0.03 h 0.03 -0.08 0.05 l -0.12,-0.02 v 0 c 0.05,0 0.1,0.02 0.12,0.02 h 0.05 v 0 l 0.02,0.03 0.1,0.02 0.07,0.02 h -0.07 l 0.1,0.03 0.02,0.02 0.26,0.07 h -0.04 l 0.28,0.1 h 0.05 l 0.27,0.12 -0.03,-0.02 0.67,0.21 -0.09,-0.05 1.53,0.32 -0.07,-0.03 0.41,0.07 -0.02,-0.02 0.38,0.05 h -0.02 l 0.38,0.02 v 0 h 0.38 l -0.12,0.03 1.13,-0.12 -0.09,0.02 0.31,-0.07 h 0.02 l 0.31,-0.05 h -0.07 l 0.31,-0.1 -0.02,0.03 0.31,-0.1 -0.09,0.05 0.28,-0.12 h -0.02 l 0.31,-0.12 0.03,-0.02 0.28,-0.12 -0.12,0.04 0.27,-0.16 h 0.02 l 0.6,-0.36 h -0.02 l 0.33,-0.22 v 0 l 0.22,-0.14 c 0.41,-0.27 0.98,-0.15 1.27,0.28 0.27,0.41 0.15,0.99 -0.29,1.28 l -0.19,0.12 h 0.03 l -0.34,0.21 -0.05,0.05 -0.65,0.36 v 0 l -0.26,0.14 c -0.02,0.05 -0.07,0.05 -0.12,0.08 l -0.31,0.14 0.02,-0.02 -0.29,0.12 v 0.02 l -0.28,0.12 -0.1,0.02 -0.34,0.1 h -0.02 l -0.31,0.07 -0.07,0.03 -0.32,0.04 v 0 l -0.31,0.05 -0.07,0.03 -1.13,0.09 c -0.05,0 -0.09,0 -0.14,0 l -0.39,-0.02 v 0 l -0.4,-0.03 h -0.03 l -0.41,-0.04 -0.04,-0.03 -0.39,-0.05 h -0.05 l -1.51,-0.33 c -0.05,-0.03 -0.09,-0.03 -0.14,-0.05 l -0.67,-0.24 c -0.03,0 -0.08,-0.02 -0.1,-0.05 l -0.26,-0.14 0.04,0.02 -0.28,-0.14 -0.03,-0.03 -0.24,-0.14 c -0.05,-0.02 -0.09,-0.05 -0.12,-0.1 l -0.09,-0.07 0.07,0.05 -0.07,-0.02 v -0.03 h -0.03 v 0 l -0.02,-0.05 c -0.05,0 -0.07,-0.02 -0.1,-0.07 h -0.02 l 0.09,0.07 -0.02,-0.02 c -0.02,0 -0.05,-0.05 -0.1,-0.07 l -0.02,-0.03 c -0.02,-0.02 -0.07,-0.07 -0.1,-0.14 h -0.02 v 0 -0.05 l 0.05,0.1 -0.03,-0.05 c -0.16,-0.19 -0.19,-0.46 -0.09,-0.67 v -0.03 l 0.24,0.82 h -0.03 c -0.07,-0.07 -0.16,-0.17 -0.19,-0.24 l -0.02,-0.05 v 0.03 l -0.03,-0.03 c -0.07,-0.17 -0.09,-0.38 -0.02,-0.57 v -0.03 l -0.02,0.46 v -0.05 l 0.16,0.26 h -0.04 c -0.08,-0.07 -0.12,-0.16 -0.15,-0.26 v -0.05 c -0.09,-0.29 0.03,-0.62 0.31,-0.77 0.29,-0.14 0.63,-0.04 0.82,0.2 z"
         style="fill:#000000;fill-opacity:1;fill-rule:nonzero;stroke:none"
         transform="matrix(1.3333333,0,0,-1.3333333,0,1120.8)" />
    </g>
    <g
       id="g216">
      <path
         id="path216"
         d="m 392.38,695.11 0.12,-0.09 c 0.26,-0.2 0.6,-0.27 0.91,-0.17 l 0.12,0.02 -0.36,-0.02 1.2,-0.12 h 0.05 l 0.84,-0.05 h 0.04 l 0.32,-0.02 v 0 h 0.5 v 0 h 0.5 -0.02 0.74 0.03 l 1.25,-0.03 h 0.02 0.82 -0.03 l 2.76,-0.09 v 0 l 2.79,-0.08 v 0 l 2.37,-0.02 h 0.03 l 0.6,-0.02 H 408 l 1.7,0.04 c 0.05,0 0.1,0 0.12,0 l 0.12,0.03 c 0.65,0.09 1.08,0.67 0.99,1.29 -0.1,0.65 -0.65,1.08 -1.3,0.99 l -0.12,-0.03 0.15,0.03 -1.71,-0.03 h 0.03 -0.6 0.02 l -2.4,0.03 h 0.02 l -2.76,0.05 v 0 l -2.76,0.09 h -0.04 -0.82 v 0 h -1.25 v 0 h -0.74 -0.03 -0.5 v 0 h -0.5 v 0 h -0.32 0.03 l -0.84,0.03 h 0.02 l -1.2,0.04 0.22,-0.04 -0.12,0.04 c -0.24,0.05 -0.51,0.03 -0.75,-0.09 l -0.14,-0.07 c -0.31,-0.15 -0.53,-0.46 -0.55,-0.8 -0.03,-0.36 0.12,-0.69 0.41,-0.91 z"
         style="fill:#000000;fill-opacity:1;fill-rule:nonzero;stroke:none"
         transform="matrix(1.3333333,0,0,-1.3333333,0,1120.8)" />
    </g>
    <g
       id="g217">
      <path
         id="path217"
         d="m 400.66,696.31 -0.03,0.15 0.03,-0.2 v 0.1 -0.02 0.09 l -0.03,-0.17 v 0 0 0.03 0 0.02 c 0.07,0.24 0.05,0.51 -0.09,0.75 -0.15,0.24 -0.36,0.38 -0.63,0.45 h -0.02 c -0.51,0.1 -1.01,-0.24 -1.13,-0.72 -0.12,-0.53 0.19,-1.03 0.7,-1.17 0.5,-0.12 1,0.16 1.17,0.67 v 0.02 0 0.03 -0.03 0.03 l -0.12,-0.27 v 0 l -0.38,-0.33 h 0.02 c 0.27,0.12 0.43,0.36 0.53,0.64 v 0 0 0 0.03 0.02 l -1.15,-0.72 h 0.02 c 0.51,-0.09 1.01,0.19 1.15,0.7 v 0.02 h 0.03 v 0 l -0.22,-0.38 0.03,0.02 -0.27,-0.21 0.03,0.02 c 0.12,0.07 0.21,0.14 0.28,0.24 l 0.03,0.02 -0.29,-0.24 0.02,0.03 v 0 l 0.05,0.02 v 0 0 l -0.21,-0.09 0.04,0.02 c 0.08,0.02 0.17,0.05 0.24,0.1 v 0 0 l 0.05,0.02 -0.24,-0.1 0.05,0.03 c 0.07,0.02 0.14,0.05 0.22,0.09 h 0.04 l -0.24,-0.07 h 0.05 l -0.41,-0.05 h 0.05 c 0.19,-0.02 0.43,0.05 0.63,0.15 v 0.02 l -0.22,-0.12 0.05,0.03 -0.34,-0.05 h 0.03 c 0.21,0 0.4,0.05 0.6,0.14 h 0.02 l -0.58,-0.12 h 0.05 c 0.19,-0.02 0.39,0.03 0.58,0.12 l 0.02,0.03 -0.57,-0.15 h 0.04 v 0 h 0.05 v 0 h 0.03 v 0 h 0.04 0.05 0.07 0.03 0.05 v 0 h 0.04 -0.16 0.09 l -0.19,0.03 h 0.07 v 0 l 0.03,-0.03 c 0.12,-0.05 0.24,-0.05 0.36,-0.05 h 0.07 l -0.36,0.05 h 0.05 l 0.12,-0.05 0.07,-0.02 -0.12,0.05 0.05,-0.03 -0.27,0.12 0.05,-0.02 c 0.19,-0.12 0.41,-0.19 0.62,-0.19 h 0.08 l -0.87,0.45 v -0.04 c 0.12,-0.15 0.27,-0.27 0.43,-0.34 l 0.08,-0.05 0.09,-0.02 0.05,-0.03 -0.14,0.08 0.09,-0.08 -0.21,0.17 0.04,-0.05 -0.04,0.05 0.04,-0.07 h 0.03 l 0.05,-0.05 v 0 l 0.04,-0.05 v -0.02 l 0.12,-0.1 v 0 l 0.22,-0.21 c 0.1,-0.1 0.22,-0.19 0.36,-0.24 l 0.02,-0.03 c 0.46,-0.16 0.99,-0.02 1.28,0.39 0.28,0.41 0.24,0.96 -0.1,1.32 l -0.02,0.02 0.07,-0.09 -0.19,0.26 c -0.03,0.05 -0.08,0.1 -0.12,0.12 l -0.12,0.12 0.04,-0.02 -0.04,0.04 v 0 l -0.08,0.05 v 0 l -0.04,0.05 -0.03,0.05 -0.07,0.05 c -0.07,0.09 -0.17,0.14 -0.26,0.19 l -0.08,0.05 c -0.04,0.02 -0.12,0.04 -0.16,0.04 l -0.03,0.03 0.1,-0.03 -0.07,0.03 0.4,-0.34 -0.02,0.03 c -0.19,0.28 -0.53,0.43 -0.86,0.43 h -0.08 l 0.6,-0.19 -0.04,0.04 c -0.08,0.05 -0.15,0.1 -0.24,0.12 l -0.08,0.03 -0.09,0.02 -0.07,0.03 0.12,-0.03 h -0.08 c -0.09,0.03 -0.21,0.07 -0.33,0.07 l -0.07,-0.02 0.36,-0.05 -0.05,0.03 v 0 h -0.07 c -0.03,0.02 -0.1,0.04 -0.15,0.04 l -0.09,0.03 c -0.08,0 -0.12,0.02 -0.2,0.02 h -0.04 v 0 h -0.05 -0.03 l -0.07,-0.02 h -0.05 -0.04 v 0 h -0.03 v 0 h -0.05 v 0 h -0.04 c -0.24,-0.03 -0.46,-0.1 -0.63,-0.24 l -0.02,-0.03 0.62,0.24 h -0.05 c -0.24,-0.02 -0.45,-0.09 -0.62,-0.24 l -0.02,-0.02 0.6,0.24 h -0.03 c -0.12,-0.02 -0.24,-0.02 -0.33,-0.07 l -0.08,-0.03 c -0.07,-0.04 -0.16,-0.09 -0.26,-0.16 l -0.02,-0.03 0.57,0.24 h -0.05 c -0.07,0 -0.19,-0.02 -0.28,-0.07 l -0.03,-0.02 c -0.09,-0.03 -0.19,-0.08 -0.29,-0.15 l -0.02,-0.02 0.29,0.17 -0.05,-0.03 c -0.1,-0.05 -0.19,-0.09 -0.29,-0.17 v -0.02 0 l -0.05,-0.02 0.29,0.16 h -0.05 c -0.09,-0.04 -0.19,-0.09 -0.28,-0.16 v -0.03 0 h -0.03 v 0 l -0.02,-0.05 c -0.1,-0.04 -0.15,-0.14 -0.22,-0.24 l -0.02,-0.02 0.21,0.24 -0.02,-0.02 c -0.1,-0.08 -0.17,-0.17 -0.24,-0.27 l -0.02,-0.05 c -0.12,-0.24 -0.15,-0.52 -0.08,-0.79 v 0 0 -0.02 c 0.15,-0.53 0.68,-0.82 1.23,-0.7 0.53,0.15 0.84,0.67 0.72,1.2 -0.12,0.53 -0.65,0.87 -1.18,0.77 h -0.02 c -0.27,-0.05 -0.51,-0.22 -0.67,-0.46 -0.15,-0.24 -0.17,-0.52 -0.1,-0.79 v -0.02 -0.03 h 0.02 v 0 0 l 0.27,0.96 h -0.03 c -0.36,-0.33 -0.4,-0.86 -0.14,-1.27 h 0.02 l -0.14,0.27 0.02,-0.03 -0.02,0.03 0.02,-0.03 v 0 -0.02 c 0.12,-0.46 0.6,-0.77 1.11,-0.67 h 0.02 l -1.1,0.69 v -0.02 0 l 0.02,-0.03 v 0 0 c 0,-0.07 0.03,-0.14 0.07,-0.19 l 0.05,-0.09 v -0.03 l 0.05,-0.09 c 0.05,-0.08 0.1,-0.15 0.17,-0.2 l 0.09,-0.12 c 0.29,-0.24 0.68,-0.28 0.99,-0.12 0.31,0.2 0.48,0.53 0.41,0.89 z"
         style="fill:#000000;fill-opacity:1;fill-rule:nonzero;stroke:none"
         transform="matrix(1.3333333,0,0,-1.3333333,0,1120.8)" />
    </g>
    <g
       id="g218">
      <path
         id="path218"
         d="m 404.21,698.35 -0.24,-0.12 c -0.07,-0.05 -0.1,-0.07 -0.17,-0.12 l -0.26,-0.24 v 0 l -0.46,-0.41 c -0.02,-0.02 -0.05,-0.04 -0.1,-0.07 l -0.48,-0.65 0.08,0.1 -0.05,-0.05 c -0.22,-0.19 -0.29,-0.45 -0.24,-0.72 0.05,-0.24 0.26,-0.45 0.5,-0.53 0.27,-0.07 0.53,-0.02 0.72,0.17 l 0.07,0.07 c 0.05,0.03 0.08,0.05 0.1,0.1 l 0.46,0.65 -0.08,-0.1 0.44,0.43 v 0 l 0.24,0.27 -0.12,-0.1 0.24,0.15 c 0.28,0.19 0.4,0.57 0.21,0.88 -0.17,0.32 -0.53,0.44 -0.86,0.29 z"
         style="fill:#000000;fill-opacity:1;fill-rule:nonzero;stroke:none"
         transform="matrix(1.3333333,0,0,-1.3333333,0,1120.8)" />
    </g>
    <g
       id="g219">
      <path
         id="path219"
         d="m 397.22,698.11 -0.07,-0.09 c -0.09,-0.22 -0.07,-0.46 0.07,-0.63 l 0.8,-0.96 c 0.02,-0.05 0.04,-0.07 0.09,-0.09 l 0.07,-0.08 c 0.29,-0.19 0.65,-0.12 0.87,0.15 0.19,0.26 0.14,0.65 -0.12,0.86 l -0.07,0.03 0.09,-0.08 -0.84,0.92 c -0.07,0.09 -0.17,0.14 -0.29,0.16 l -0.09,0.05 c -0.22,0.05 -0.43,-0.05 -0.51,-0.24 z"
         style="fill:#000000;fill-opacity:1;fill-rule:nonzero;stroke:none"
         transform="matrix(1.3333333,0,0,-1.3333333,0,1120.8)" />
    </g>
    <g
       id="g220">
      <path
         id="path220"
         d="m 392.33,690.29 -0.05,-0.27 v -0.04 l -0.02,-0.24 v -0.12 l 0.04,-0.68 v 0 -0.52 0.04 -0.09 c 0,-0.31 0.15,-0.6 0.41,-0.75 0.27,-0.16 0.58,-0.16 0.84,0 0.27,0.15 0.43,0.44 0.41,0.75 v 0.09 0.05 l -0.05,0.55 v 0 l -0.07,0.68 v 0 l -0.02,0.24 v -0.03 0.24 c 0,0.41 -0.32,0.72 -0.7,0.75 -0.41,0.02 -0.74,-0.24 -0.79,-0.65 z"
         style="fill:#000000;fill-opacity:1;fill-rule:nonzero;stroke:none"
         transform="matrix(1.3333333,0,0,-1.3333333,0,1120.8)" />
    </g>
    <g
       id="g221">
      <path
         id="path221"
         d="m 400.51,690.22 -0.02,-0.32 v 0 l -0.03,-0.31 c 0,-0.05 0,-0.12 0.03,-0.17 l 0.14,-0.88 -0.02,0.16 v -0.04 c -0.03,-0.32 0.14,-0.6 0.38,-0.75 0.27,-0.17 0.6,-0.17 0.84,0 0.27,0.15 0.41,0.43 0.39,0.75 v 0.04 c 0,0.05 0,0.1 -0.03,0.15 l -0.21,0.86 v -0.05 l -0.03,0.32 v 0 l -0.07,0.28 c -0.05,0.36 -0.36,0.6 -0.72,0.58 -0.34,-0.02 -0.62,-0.29 -0.65,-0.62 z"
         style="fill:#000000;fill-opacity:1;fill-rule:nonzero;stroke:none"
         transform="matrix(1.3333333,0,0,-1.3333333,0,1120.8)" />
    </g>
    <g
       id="g222">
      <path
         id="path222"
         d="m 409.27,690.41 v -0.1 c 0,-0.09 0,-0.17 0,-0.24 l 0.07,-0.48 v 0.03 l 0.15,-0.92 -0.03,0.12 v -0.07 c 0,-0.14 0.05,-0.26 0.12,-0.38 l 0.03,-0.07 c 0.14,-0.29 0.43,-0.46 0.72,-0.48 0.31,-0.03 0.62,0.12 0.79,0.38 0.17,0.26 0.19,0.6 0.05,0.86 l -0.03,0.08 0.1,-0.39 v 0.07 c 0,0.05 0,0.1 -0.02,0.15 l -0.17,0.91 v 0.05 l -0.12,0.48 0.02,-0.1 v 0.1 c -0.05,0.41 -0.41,0.74 -0.84,0.74 -0.43,0 -0.79,-0.33 -0.84,-0.74 z"
         style="fill:#000000;fill-opacity:1;fill-rule:nonzero;stroke:none"
         transform="matrix(1.3333333,0,0,-1.3333333,0,1120.8)" />
    </g>
    <g
       id="g223">
      <path
         id="path223"
         d="m 390.65,671.76 0.05,0.05 c 0.24,0.19 0.36,0.5 0.28,0.79 -0.07,0.31 -0.31,0.55 -0.6,0.62 -0.33,0.03 -0.62,-0.09 -0.81,-0.33 l -0.03,-0.07 c -0.09,-0.15 -0.16,-0.29 -0.16,-0.46 v -0.34 -0.07 l 0.04,-0.36 v 0 l 0.03,-0.79 v 0 l 0.09,-0.98 v 0 -0.15 -0.07 l 0.12,-0.77 v -0.02 l 0.1,-0.53 v 0 l 0.02,-0.14 v -0.03 l 0.08,-0.33 -0.03,0.24 v -0.05 c 0,-0.36 0.19,-0.72 0.51,-0.89 0.31,-0.19 0.72,-0.19 1.03,0 0.31,0.17 0.5,0.53 0.5,0.89 v 0.05 c 0,0.07 -0.02,0.14 -0.02,0.24 l -0.1,0.33 v -0.05 l -0.02,0.15 v 0 l -0.12,0.5 v -0.02 l -0.15,0.77 v -0.1 0.17 0 l -0.14,0.98 v 0 l -0.12,0.77 -0.02,0.1 -0.08,0.36 v -0.05 l -0.04,0.31 c -0.03,0.12 -0.08,0.24 -0.12,0.34 l -0.05,0.07 c -0.19,0.26 -0.55,0.41 -0.87,0.31 -0.33,-0.1 -0.55,-0.38 -0.57,-0.72 -0.03,-0.31 0.17,-0.62 0.45,-0.77 l 0.08,-0.02 c 0.21,-0.1 0.48,-0.07 0.67,0.07 z"
         style="fill:#000000;fill-opacity:1;fill-rule:nonzero;stroke:none"
         transform="matrix(1.3333333,0,0,-1.3333333,0,1120.8)" />
    </g>
    <g
       id="g224">
      <path
         id="path224"
         d="m 389.93,671.95 0.12,-0.07 c 0.09,-0.07 0.21,-0.12 0.33,-0.14 l 1.4,-0.17 0.07,-0.03 1.92,-0.14 h 0.02 0.31 -0.07 l 0.7,-0.07 -0.15,0.05 0.24,-0.1 c 0.08,-0.02 0.17,-0.02 0.27,-0.02 h 0.07 c 0.58,0 1.06,0.48 1.06,1.03 0,0.6 -0.48,1.08 -1.06,1.08 h -0.07 l 0.26,-0.05 -0.24,0.05 c -0.05,0.05 -0.12,0.05 -0.17,0.05 l -0.72,0.04 h -0.12 -0.31 0.05 l -1.92,0.03 v 0 h -1.42 -0.09 l -0.15,-0.03 c -0.36,-0.04 -0.64,-0.28 -0.72,-0.64 -0.07,-0.34 0.08,-0.7 0.39,-0.87 z"
         style="fill:#000000;fill-opacity:1;fill-rule:nonzero;stroke:none"
         transform="matrix(1.3333333,0,0,-1.3333333,0,1120.8)" />
    </g>
    <g
       id="g225">
      <path
         id="path225"
         d="m 390.89,666.86 0.19,0.03 h -0.07 1.25 -0.05 0.53 -0.1 l 0.29,-0.03 c 0.05,-0.02 0.09,-0.02 0.17,-0.02 l 0.67,0.05 h 0.05 l 0.16,0.02 h -0.09 0.21 -0.04 l 0.4,-0.02 h -0.04 0.16 c 0.17,-0.03 0.34,0 0.51,0.07 l 0.07,0.02 c 0.05,0.03 0.1,0.05 0.17,0.08 v 0.02 c 0.36,0.22 0.57,0.58 0.55,0.96 -0.02,0.41 -0.22,0.77 -0.58,0.96 -0.36,0.17 -0.76,0.17 -1.1,-0.02 l -0.02,-0.03 v 0.03 l -0.05,-0.05 0.45,0.14 -0.16,-0.02 h 0.04 -0.4 c -0.05,0 -0.08,0 -0.12,-0.03 l -0.2,-0.02 -0.12,-0.02 -0.16,-0.05 0.12,0.02 -0.68,-0.09 h 0.03 l -0.29,-0.03 h -0.02 l -0.53,-0.09 h -0.05 l -1.22,-0.27 c -0.08,-0.02 -0.17,-0.07 -0.24,-0.09 l -0.17,-0.12 c -0.31,-0.2 -0.43,-0.56 -0.31,-0.89 0.12,-0.34 0.43,-0.55 0.79,-0.51 z"
         style="fill:#000000;fill-opacity:1;fill-rule:nonzero;stroke:none"
         transform="matrix(1.3333333,0,0,-1.3333333,0,1120.8)" />
    </g>
    <g
       id="g226">
      <path
         id="path226"
         d="m 394.42,672.26 -0.05,-1.29 v -0.05 -1.32 -0.02 l 0.05,-2.55 v -0.02 l 0.04,-0.84 v -0.03 l 0.22,-3.62 v -0.02 l 0.14,-2.04 v -0.03 l 0.24,-2.71 v 0.02 l 0.15,-2.18 v 0.07 l -0.03,-1.46 v 0.02 -0.36 c -0.02,-0.38 0.2,-0.74 0.51,-0.96 0.36,-0.19 0.77,-0.19 1.1,0 0.34,0.22 0.55,0.58 0.53,0.96 l -0.02,0.36 v -0.02 1.46 0.07 l -0.15,2.19 v 0.02 l -0.24,2.69 v 0 l -0.17,2.06 v -0.02 l -0.24,3.65 v -0.03 l -0.04,0.84 v -0.02 l -0.08,2.57 v 0 l -0.07,1.32 v 0.05 l -0.09,1.27 c -0.05,0.48 -0.44,0.86 -0.92,0.84 -0.48,0 -0.88,-0.39 -0.88,-0.87 z"
         style="fill:#000000;fill-opacity:1;fill-rule:nonzero;stroke:none"
         transform="matrix(1.3333333,0,0,-1.3333333,0,1120.8)" />
    </g>
    <g
       id="g227">
      <path
         id="path227"
         d="m 397.97,671.57 0.05,0.05 c 0.24,0.19 0.36,0.5 0.28,0.79 -0.07,0.31 -0.31,0.55 -0.62,0.6 -0.29,0.05 -0.62,-0.07 -0.79,-0.31 l -0.03,-0.1 c -0.09,-0.12 -0.16,-0.26 -0.16,-0.43 v -0.34 -0.07 l 0.02,-0.36 v 0 l 0.05,-0.79 v 0 l 0.09,-1.01 v 0.02 -0.14 -0.07 l 0.12,-0.77 v -0.02 l 0.1,-0.53 v 0 l 0.02,-0.15 v -0.04 l 0.08,-0.32 -0.03,0.22 v -0.02 c 0,-0.36 0.19,-0.72 0.51,-0.89 0.33,-0.19 0.72,-0.19 1.03,0 0.31,0.17 0.5,0.53 0.5,0.89 v 0.02 c 0,0.1 0,0.17 -0.05,0.26 l -0.07,0.34 v -0.05 l -0.02,0.15 v 0 l -0.12,0.5 v -0.02 l -0.15,0.74 v -0.07 0.17 h -0.02 l -0.14,0.98 v 0 l -0.1,0.77 -0.02,0.09 -0.08,0.34 v -0.02 l -0.04,0.31 c -0.03,0.12 -0.08,0.24 -0.15,0.31 l -0.05,0.1 c -0.16,0.26 -0.52,0.38 -0.84,0.31 -0.33,-0.1 -0.57,-0.39 -0.57,-0.72 -0.03,-0.31 0.14,-0.65 0.45,-0.77 l 0.05,-0.02 c 0.24,-0.1 0.51,-0.08 0.7,0.07 z"
         style="fill:#000000;fill-opacity:1;fill-rule:nonzero;stroke:none"
         transform="matrix(1.3333333,0,0,-1.3333333,0,1120.8)" />
    </g>
    <g
       id="g228">
      <path
         id="path228"
         d="m 397.25,671.76 0.12,-0.07 c 0.09,-0.07 0.21,-0.12 0.33,-0.15 l 1.4,-0.16 0.07,-0.03 1.89,-0.14 h 0.05 0.31 -0.07 l 0.72,-0.07 -0.19,0.02 0.24,-0.07 c 0.1,-0.03 0.19,-0.05 0.29,-0.05 h 0.07 c 0.58,0 1.06,0.48 1.06,1.06 0,0.6 -0.48,1.05 -1.06,1.05 h -0.07 l 0.26,-0.02 -0.24,0.05 c -0.05,0.02 -0.12,0.04 -0.19,0.04 l -0.7,0.05 h -0.12 l -0.31,-0.02 0.05,0.02 -1.92,0.03 h -0.02 -1.4 -0.12 l -0.12,-0.03 c -0.36,-0.05 -0.64,-0.31 -0.72,-0.65 -0.07,-0.33 0.08,-0.69 0.39,-0.86 z"
         style="fill:#000000;fill-opacity:1;fill-rule:nonzero;stroke:none"
         transform="matrix(1.3333333,0,0,-1.3333333,0,1120.8)" />
    </g>
    <g
       id="g229">
      <path
         id="path229"
         d="m 398.21,666.67 0.19,0.03 h -0.07 1.25 -0.03 0.51 -0.1 l 0.29,-0.03 c 0.05,-0.02 0.09,-0.02 0.14,-0.02 l 0.7,0.05 h 0.02 l 0.19,0.02 h -0.07 0.19 -0.04 l 0.4,-0.02 h -0.04 0.16 c 0.17,-0.03 0.34,0 0.51,0.07 l 0.05,0.02 c 0.07,0.03 0.12,0.05 0.16,0.07 l 0.05,0.03 c 0.34,0.19 0.53,0.55 0.53,0.96 -0.02,0.41 -0.24,0.77 -0.58,0.96 -0.36,0.17 -0.76,0.17 -1.1,-0.05 h -0.02 v 0 l -0.05,-0.02 0.45,0.14 -0.16,-0.02 h 0.04 -0.4 c -0.03,0 -0.08,0 -0.12,-0.03 l -0.2,-0.02 -0.12,-0.03 -0.16,-0.04 0.12,0.02 -0.7,-0.1 h 0.05 l -0.29,-0.02 h -0.05 l -0.48,-0.1 h -0.07 l -1.22,-0.26 c -0.1,-0.02 -0.17,-0.07 -0.24,-0.12 l -0.17,-0.1 c -0.31,-0.19 -0.43,-0.55 -0.31,-0.88 0.09,-0.34 0.45,-0.56 0.79,-0.51 z"
         style="fill:#000000;fill-opacity:1;fill-rule:nonzero;stroke:none"
         transform="matrix(1.3333333,0,0,-1.3333333,0,1120.8)" />
    </g>
    <g
       id="g230">
      <path
         id="path230"
         d="m 401.71,672.07 -0.05,-1.29 v -0.05 l 0.03,-1.32 v -0.03 l 0.05,-2.54 v -0.02 l 0.04,-0.84 v -0.03 l 0.2,-3.62 v -0.03 l 0.16,-2.06 v 0 l 0.24,-2.71 v 0.02 l 0.15,-2.18 -0.03,0.07 v -1.49 0.05 -0.36 c -0.02,-0.41 0.17,-0.77 0.53,-0.96 0.31,-0.19 0.75,-0.19 1.08,0 0.34,0.19 0.55,0.55 0.53,0.96 l -0.02,0.36 v -0.05 1.49 0.07 l -0.15,2.19 v 0.02 l -0.24,2.69 v 0 l -0.17,2.06 v -0.02 l -0.24,3.65 v -0.03 l -0.04,0.84 v -0.02 l -0.08,2.57 v 0 l -0.07,1.32 v 0.02 l -0.09,1.3 c -0.03,0.48 -0.44,0.86 -0.92,0.84 -0.5,0 -0.88,-0.39 -0.91,-0.87 z"
         style="fill:#000000;fill-opacity:1;fill-rule:nonzero;stroke:none"
         transform="matrix(1.3333333,0,0,-1.3333333,0,1120.8)" />
    </g>
    <g
       id="g231">
      <path
         id="path231"
         d="m 405.38,671.5 0.05,0.02 c 0.24,0.19 0.36,0.53 0.27,0.82 -0.08,0.31 -0.32,0.52 -0.6,0.6 -0.32,0.04 -0.63,-0.1 -0.8,-0.34 l -0.04,-0.07 c -0.1,-0.12 -0.15,-0.29 -0.15,-0.46 v -0.31 -0.1 -0.36 0 l 0.07,-0.76 v -0.03 l 0.08,-0.98 v 0.02 -0.14 -0.07 l 0.12,-0.8 v -0.02 l 0.09,-0.53 v 0 l 0.03,-0.12 v -0.05 l 0.09,-0.33 -0.05,0.24 v -0.05 c 0,-0.36 0.2,-0.7 0.53,-0.86 0.31,-0.22 0.7,-0.22 1.01,0 0.31,0.16 0.5,0.5 0.5,0.86 v 0.05 c 0,0.07 0,0.17 -0.02,0.24 l -0.1,0.33 v -0.02 l -0.02,0.12 v 0 l -0.12,0.53 v -0.05 l -0.14,0.77 v -0.07 0.14 0.02 l -0.15,0.99 v 0 l -0.12,0.77 v 0.07 l -0.09,0.36 v -0.05 l -0.05,0.34 c -0.03,0.12 -0.07,0.21 -0.15,0.31 l -0.04,0.07 c -0.17,0.29 -0.51,0.41 -0.84,0.31 -0.32,-0.09 -0.56,-0.36 -0.58,-0.69 -0.02,-0.34 0.17,-0.65 0.46,-0.77 l 0.07,-0.05 c 0.21,-0.1 0.48,-0.05 0.69,0.1 z"
         style="fill:#000000;fill-opacity:1;fill-rule:nonzero;stroke:none"
         transform="matrix(1.3333333,0,0,-1.3333333,0,1120.8)" />
    </g>
    <g
       id="g232">
      <path
         id="path232"
         d="m 404.64,671.66 0.12,-0.07 c 0.1,-0.07 0.22,-0.09 0.34,-0.12 l 1.41,-0.19 h 0.05 l 1.92,-0.14 h 0.02 0.32 -0.08 l 0.72,-0.1 -0.19,0.05 0.24,-0.07 c 0.1,-0.03 0.19,-0.05 0.29,-0.05 h 0.07 c 0.58,0 1.06,0.48 1.06,1.05 0,0.58 -0.48,1.06 -1.06,1.06 h -0.07 l 0.26,-0.02 -0.24,0.04 c -0.04,0.03 -0.12,0.03 -0.19,0.03 l -0.69,0.07 h -0.12 l -0.32,-0.02 h 0.05 l -1.92,0.02 v 0 l -1.41,0.02 -0.12,-0.02 -0.12,-0.02 c -0.36,-0.03 -0.63,-0.29 -0.72,-0.63 -0.08,-0.33 0.09,-0.69 0.38,-0.89 z"
         style="fill:#000000;fill-opacity:1;fill-rule:nonzero;stroke:none"
         transform="matrix(1.3333333,0,0,-1.3333333,0,1120.8)" />
    </g>
    <g
       id="g233">
      <path
         id="path233"
         d="m 405.6,666.58 0.19,0.02 h -0.07 l 1.25,0.02 h -0.03 l 0.51,-0.02 h -0.1 l 0.29,-0.02 c 0.05,0 0.12,0 0.14,0 l 0.7,0.02 h 0.05 l 0.19,0.02 h -0.1 0.22 -0.05 l 0.39,-0.02 h -0.05 0.19 c 0.14,-0.02 0.31,0 0.48,0.07 l 0.07,0.03 c 0.05,0.02 0.12,0.04 0.17,0.09 l 0.02,0.03 c 0.34,0.19 0.53,0.55 0.53,0.96 0,0.38 -0.21,0.74 -0.57,0.93 -0.34,0.19 -0.77,0.17 -1.11,-0.02 l -0.02,-0.03 0.02,0.03 -0.07,-0.05 0.48,0.14 -0.19,-0.02 0.05,0.02 -0.39,-0.02 c -0.05,0 -0.09,0 -0.14,0 l -0.19,-0.05 -0.1,-0.02 -0.19,-0.05 0.12,0.02 -0.67,-0.09 h 0.02 l -0.29,-0.03 h -0.05 l -0.48,-0.07 -0.07,-0.02 -1.22,-0.27 c -0.07,-0.02 -0.17,-0.04 -0.24,-0.09 l -0.17,-0.12 c -0.29,-0.17 -0.43,-0.55 -0.31,-0.89 0.12,-0.34 0.45,-0.55 0.79,-0.5 z"
         style="fill:#000000;fill-opacity:1;fill-rule:nonzero;stroke:none"
         transform="matrix(1.3333333,0,0,-1.3333333,0,1120.8)" />
    </g>
    <g
       id="g234">
      <path
         id="path234"
         d="m 409.1,671.98 -0.02,-1.3 v -0.02 l 0.02,-1.35 v 0 l 0.05,-2.54 v -0.05 l 0.03,-0.84 v -0.02 l 0.21,-3.6 v -0.03 l 0.17,-2.06 v -0.03 l 0.24,-2.71 v 0.05 l 0.12,-2.18 v 0.07 -1.49 0.05 l -0.02,-0.36 c -0.03,-0.41 0.19,-0.77 0.52,-0.96 0.34,-0.22 0.77,-0.22 1.08,0 0.34,0.19 0.56,0.55 0.53,0.96 v 0.36 -0.05 l -0.02,1.49 v 0.05 l -0.15,2.18 v 0.02 l -0.24,2.72 v 0 l -0.14,2.04 v 0 l -0.24,3.62 v -0.02 l -0.05,0.84 v 0 l -0.09,2.54 v 0 l -0.08,1.34 v 0.03 l -0.09,1.29 c -0.03,0.48 -0.43,0.84 -0.91,0.84 -0.48,-0.02 -0.87,-0.4 -0.92,-0.88 z"
         style="fill:#000000;fill-opacity:1;fill-rule:nonzero;stroke:none"
         transform="matrix(1.3333333,0,0,-1.3333333,0,1120.8)" />
    </g>
    <g
       id="g339">
      <path
         id="path340"
         d="m 397.87,682.46 0.46,-0.09 0.09,-0.03 0.53,-0.07 h 0.07 l 3.39,-0.05 h 0.02 1.18 c 0.05,0 0.09,0 0.14,0 l 0.19,0.03 h -0.14 0.07 c 0.51,0 0.89,0.41 0.89,0.89 0,0.5 -0.38,0.91 -0.89,0.91 h -0.07 c -0.05,0 -0.1,0 -0.14,-0.03 l -0.2,-0.02 0.12,0.02 -1.2,-0.04 h 0.03 l -3.39,-0.05 h 0.08 l -0.53,0.02 h -0.07 -0.48 c -0.39,-0.02 -0.72,-0.29 -0.75,-0.67 -0.05,-0.38 0.22,-0.74 0.6,-0.82 z"
         style="fill:#000000;fill-opacity:1;fill-rule:nonzero;stroke:none"
         transform="matrix(1.3333333,0,0,-1.3333333,0,1120.8)" />
    </g>
    <g
       id="g340">
      <path
         id="path341"
         d="m 399.96,682.97 -0.1,0.12 c -0.19,0.21 -0.52,0.29 -0.79,0.17 l -0.09,-0.05 c -0.05,0 -0.1,-0.03 -0.12,-0.05 l -0.1,-0.07 v 0 l -0.1,-0.05 -0.04,-0.07 -0.1,-0.07 0.07,0.07 -0.09,-0.07 v 0 l -0.08,-0.05 c -0.04,-0.03 -0.09,-0.07 -0.12,-0.12 l -0.07,-0.07 -0.05,-0.05 -0.07,-0.1 0.03,0.07 -0.05,-0.09 v 0 l -0.07,-0.07 c -0.03,-0.05 -0.08,-0.08 -0.12,-0.15 l -0.03,-0.09 0.03,0.07 -0.05,-0.07 -0.05,-0.08 -0.05,-0.09 v 0 l -0.05,-0.1 c -0.04,-0.02 -0.04,-0.09 -0.07,-0.14 l -0.05,-0.1 0.05,0.1 -0.05,-0.07 -0.04,-0.12 -0.08,-0.2 c 0,-0.04 -0.02,-0.09 -0.02,-0.14 l -0.02,-0.12 0.04,0.14 -0.04,-0.09 c 0,-0.03 -0.03,-0.07 -0.03,-0.12 l -0.02,-0.12 c 0,-0.03 -0.03,-0.07 -0.03,-0.12 v -0.1 0 -0.09 0 -0.12 0 -0.1 0 -0.12 c 0,-0.05 0,-0.1 0.03,-0.14 l 0.02,-0.1 -0.02,0.05 0.02,-0.12 c 0,-0.05 0,-0.1 0.03,-0.15 l 0.02,-0.09 -0.02,0.26 v -0.09 c 0,-0.12 0.02,-0.27 0.07,-0.39 l 0.05,-0.09 -0.08,0.24 0.03,-0.1 c 0,-0.07 0.02,-0.17 0.05,-0.24 l 0.07,-0.1 -0.05,0.12 0.02,-0.12 c 0.03,-0.04 0.05,-0.09 0.08,-0.14 l 0.14,-0.26 0.07,-0.1 0.07,-0.14 v 0.04 l 0.08,-0.12 0.04,-0.07 0.12,-0.12 v 0 l 0.08,-0.09 0.04,-0.08 0.12,-0.09 v 0 l 0.12,-0.12 0.05,-0.05 0.12,-0.1 -0.05,0.03 0.1,-0.1 c 0.05,-0.05 0.1,-0.09 0.14,-0.12 l 0.39,-0.24 0.05,-0.02 0.09,-0.07 0.1,-0.05 0.12,-0.03 h -0.05 l 0.1,-0.04 0.09,-0.05 0.12,-0.03 v 0 l 0.12,-0.04 0.07,-0.05 0.12,-0.03 -0.12,0.05 0.12,-0.05 c 0.08,-0.04 0.17,-0.04 0.24,-0.07 l 0.12,-0.02 -0.12,0.05 0.12,-0.05 c 0.05,0 0.08,-0.03 0.12,-0.03 h 0.12 l 0.12,-0.02 h 0.12 v 0 h 0.12 v 0 h 0.15 v 0 h 0.12 v 0 h 0.14 l 0.1,0.02 h 0.14 l 0.1,0.03 0.12,0.02 v 0 l 0.26,0.07 v 0 l 0.12,0.03 0.07,0.02 0.15,0.05 0.09,0.02 0.29,0.15 h 0.03 l 0.09,0.05 v 0 l 0.12,0.07 0.05,0.02 0.07,0.05 0.03,0.02 0.12,0.08 v 0 l 0.09,0.04 0.05,0.05 0.1,0.07 0.04,0.08 0.1,0.07 -0.07,-0.07 0.09,0.07 0.05,0.05 0.1,0.09 0.05,0.07 0.19,0.24 h 0.02 l 0.03,0.08 c 0.04,0.07 0.09,0.12 0.12,0.19 l 0.04,0.09 -0.14,-0.21 0.07,0.07 c 0.05,0.05 0.1,0.14 0.12,0.22 l 0.03,0.07 -0.03,-0.05 0.05,0.05 c 0.02,0.05 0.02,0.09 0.05,0.12 l 0.02,0.09 v -0.04 l 0.03,0.07 c 0,0.07 0.02,0.12 0.04,0.17 v 0.07 0 l 0.03,0.09 -0.03,-0.12 0.03,0.12 c 0.02,0.08 0.05,0.17 0.05,0.27 v 0.07 l -0.03,-0.17 0.03,0.1 c 0,0.05 0.02,0.09 0.02,0.17 v 0.19 0 0.14 l -0.02,0.1 v 0.17 0 l -0.03,0.12 v 0.07 l -0.05,0.17 0.03,-0.08 -0.03,0.12 c 0,0.05 0,0.12 -0.02,0.17 l -0.05,0.15 v 0 l -0.05,0.14 v 0.02 l -0.07,0.15 v 0 l -0.05,0.12 -0.02,0.09 -0.05,0.12 v 0 l -0.09,0.15 v 0.05 l -0.08,0.09 -0.02,0.03 -0.07,0.14 c -0.03,0.05 -0.05,0.07 -0.07,0.1 l -0.12,0.12 h 0.02 l -0.26,0.28 v 0 l -0.08,0.12 v 0 l -0.21,0.27 0.05,-0.07 -0.03,0.07 c -0.19,0.24 -0.48,0.41 -0.81,0.38 -0.32,-0.02 -0.6,-0.21 -0.75,-0.5 -0.12,-0.27 -0.09,-0.6 0.07,-0.87 l 0.05,-0.04 0.05,-0.08 0.22,-0.28 h 0.02 l 0.1,-0.12 v 0 l 0.24,-0.29 v 0 l 0.09,-0.12 -0.07,0.09 0.1,-0.12 -0.03,0.03 0.07,-0.12 -0.04,0.05 0.09,-0.12 v 0 l 0.05,-0.12 -0.02,0.07 0.04,-0.15 v 0 l 0.05,-0.12 v 0.03 l 0.03,-0.15 v 0 l 0.04,-0.14 -0.02,0.17 0.02,-0.15 v -0.07 l 0.05,-0.14 -0.02,0.09 0.02,-0.14 v 0.02 -0.16 0.09 -0.14 0 -0.19 l 0.03,0.16 -0.03,-0.09 c 0,-0.05 0,-0.12 0,-0.17 v -0.07 l 0.03,0.26 -0.03,-0.09 -0.02,-0.1 -0.03,-0.1 v 0 -0.07 l 0.05,0.15 -0.05,-0.08 -0.02,-0.04 -0.02,-0.1 0.04,0.1 -0.04,-0.05 -0.03,-0.07 -0.02,-0.08 0.12,0.22 -0.07,-0.1 c -0.03,-0.04 -0.08,-0.12 -0.12,-0.21 l -0.03,-0.07 0.12,0.19 -0.05,-0.07 v 0.02 l -0.19,-0.22 0.07,0.08 -0.07,-0.1 0.07,0.07 -0.07,-0.07 -0.09,-0.07 -0.08,-0.07 0.08,0.07 -0.08,-0.07 0.05,0.04 -0.09,-0.07 v 0 l -0.1,-0.05 h 0.02 l -0.07,-0.04 0.05,0.04 -0.1,-0.04 v 0 l -0.09,-0.08 0.05,0.03 -0.32,-0.12 0.08,0.02 -0.15,-0.05 0.07,0.03 -0.12,-0.03 v 0 l -0.26,-0.09 v 0 l -0.14,-0.03 0.12,0.03 -0.15,-0.03 0.12,0.03 h -0.14 v 0 h -0.12 v 0 h -0.15 v 0 h -0.12 v 0 h -0.12 l 0.12,-0.03 -0.14,0.03 0.14,-0.03 -0.12,0.03 c -0.04,0 -0.09,0.02 -0.14,0.02 l -0.12,0.03 0.22,-0.08 -0.12,0.08 -0.08,0.02 -0.12,0.02 h 0.05 l -0.12,0.03 v 0 l -0.12,0.05 0.07,-0.03 -0.09,0.05 -0.05,0.02 -0.12,0.05 0.1,-0.05 -0.12,0.08 0.04,-0.03 -0.38,0.24 0.14,-0.09 -0.12,0.09 -0.04,0.05 -0.12,0.1 0.04,-0.05 -0.12,0.12 v 0 l -0.09,0.12 0.05,-0.05 -0.12,0.1 v 0 l -0.1,0.12 0.05,-0.05 -0.07,0.09 -0.03,0.03 -0.09,0.12 0.07,-0.07 -0.15,0.24 0.05,-0.12 -0.02,0.09 c -0.03,0.03 -0.03,0.07 -0.05,0.1 l -0.05,0.09 0.07,-0.21 -0.02,0.09 c -0.02,0.08 -0.02,0.15 -0.07,0.24 l -0.05,0.08 0.1,-0.36 v 0.09 c 0,0.1 -0.03,0.19 -0.05,0.27 l -0.05,0.09 0.05,-0.14 -0.03,0.12 v 0.05 l -0.02,0.07 0.02,-0.17 v 0.12 0 0.1 0 0.12 0 0.09 0 0.1 l -0.02,-0.15 0.02,0.12 -0.04,-0.12 0.04,0.08 c 0,0.04 0.03,0.09 0.03,0.16 l 0.02,0.1 -0.02,-0.1 0.05,0.2 v 0 l 0.02,0.07 0.02,0.05 0.03,0.12 -0.05,-0.12 0.05,0.09 v 0 l 0.02,0.1 v -0.05 l 0.03,0.1 0.02,0.04 0.05,0.1 -0.07,-0.14 0.04,0.07 v 0 l 0.08,0.09 0.02,0.05 0.07,0.1 -0.05,-0.03 0.08,0.08 -0.12,-0.12 0.09,0.07 v 0 l 0.07,0.07 0.05,0.05 0.07,0.09 -0.04,-0.07 0.07,0.07 v 0 l 0.07,0.08 -0.12,-0.08 0.1,0.05 -0.03,-0.02 0.15,0.09 c 0.14,0.08 0.26,0.22 0.28,0.39 0.03,0.19 -0.02,0.36 -0.14,0.48 z"
         style="fill:#000000;fill-opacity:1;fill-rule:nonzero;stroke:none"
         transform="matrix(1.3333333,0,0,-1.3333333,0,1120.8)" />
    </g>
  </g>
</svg>
