<?xml version="1.0" encoding="UTF-8" standalone="no"?>
<!-- Created with Inkscape (http://www.inkscape.org/) -->

<svg
   version="1.1"
   id="svg1"
   width="30.990196"
   height="30"
   viewBox="0 0 30.990196 29.999999"
   sodipodi:docname="lesson1_sentence8_word5.svg"
   inkscape:version="1.4.3 (0d15f75, 2025-12-25)"
   xmlns:inkscape="http://www.inkscape.org/namespaces/inkscape"
   xmlns:sodipodi="http://sodipodi.sourceforge.net/DTD/sodipodi-0.dtd"
   xmlns="http://www.w3.org/2000/svg"
   xmlns:svg="http://www.w3.org/2000/svg">
  <defs
     id="defs1" />
  <sodipodi:namedview
     id="namedview1"
     pagecolor="#ffffff"
     bordercolor="#000000"
     borderopacity="0.25"
     inkscape:showpageshadow="2"
     inkscape:pageopacity="0.0"
     inkscape:pagecheckerboard="0"
     inkscape:deskcolor="#d1d1d1"
     inkscape:zoom="6.3238694"
     inkscape:cx="8.3809448"
     inkscape:cy="48.467162"
     inkscape:window-width="1920"
     inkscape:window-height="1191"
     inkscape:window-x="-9"
     inkscape:window-y="-9"
     inkscape:window-maximized="1"
     inkscape:current-layer="g1">
    <inkscape:page
       x="9.9521913e-14"
       y="0"
       inkscape:label="1"
       id="page1"
       width="30.990196"
       height="147.21999"
       margin="0"
       bleed="0" />
  </sodipodi:namedview>
  <g
     id="g1"
     inkscape:groupmode="layer"
     inkscape:label="1"
     transform="translate(-519.17332,-103.65336)">
    <g
       id="g223"
       transform="translate(0.4472621,-117.85356)">
      <path
         id="path223"
         d="m 390.65,671.76 0.05,0.05 c 0.24,0.19 0.36,0.5 0.28,0.79 -0.07,0.31 -0.31,0.55 -0.6,0.62 -0.33,0.03 -0.62,-0.09 -0.81,-0.33 l -0.03,-0.07 c -0.09,-0.15 -0.16,-0.29 -0.16,-0.46 v -0.34 -0.07 l 0.04,-0.36 v 0 l 0.03,-0.79 v 0 l 0.09,-0.98 v 0 -0.15 -0.07 l 0.12,-0.77 v -0.02 l 0.1,-0.53 v 0 l 0.02,-0.14 v -0.03 l 0.08,-0.33 -0.03,0.24 v -0.05 c 0,-0.36 0.19,-0.72 0.51,-0.89 0.31,-0.19 0.72,-0.19 1.03,0 0.31,0.17 0.5,0.53 0.5,0.89 v 0.05 c 0,0.07 -0.02,0.14 -0.02,0.24 l -0.1,0.33 v -0.05 l -0.02,0.15 v 0 l -0.12,0.5 v -0.02 l -0.15,0.77 v -0.1 0.17 0 l -0.14,0.98 v 0 l -0.12,0.77 -0.02,0.1 -0.08,0.36 v -0.05 l -0.04,0.31 c -0.03,0.12 -0.08,0.24 -0.12,0.34 l -0.05,0.07 c -0.19,0.26 -0.55,0.41 -0.87,0.31 -0.33,-0.1 -0.55,-0.38 -0.57,-0.72 -0.03,-0.31 0.17,-0.62 0.45,-0.77 l 0.08,-0.02 c 0.21,-0.1 0.48,-0.07 0.67,0.07 z"
         style="fill:#000000;fill-opacity:1;fill-rule:nonzero;stroke:none"
         transform="matrix(1.3333333,0,0,-1.3333333,0,1120.8)" />
    </g>
    <g
       id="g224"
       transform="translate(0.4472621,-117.85356)">
      <path
         id="path224"
         d="m 389.93,671.95 0.12,-0.07 c 0.09,-0.07 0.21,-0.12 0.33,-0.14 l 1.4,-0.17 0.07,-0.03 1.92,-0.14 h 0.02 0.31 -0.07 l 0.7,-0.07 -0.15,0.05 0.24,-0.1 c 0.08,-0.02 0.17,-0.02 0.27,-0.02 h 0.07 c 0.58,0 1.06,0.48 1.06,1.03 0,0.6 -0.48,1.08 -1.06,1.08 h -0.07 l 0.26,-0.05 -0.24,0.05 c -0.05,0.05 -0.12,0.05 -0.17,0.05 l -0.72,0.04 h -0.12 -0.31 0.05 l -1.92,0.03 v 0 h -1.42 -0.09 l -0.15,-0.03 c -0.36,-0.04 -0.64,-0.28 -0.72,-0.64 -0.07,-0.34 0.08,-0.7 0.39,-0.87 z"
         style="fill:#000000;fill-opacity:1;fill-rule:nonzero;stroke:none"
         transform="matrix(1.3333333,0,0,-1.3333333,0,1120.8)" />
    </g>
    <g
       id="g225"
       transform="translate(0.4472621,-117.85356)">
      <path
         id="path225"
         d="m 390.89,666.86 0.19,0.03 h -0.07 1.25 -0.05 0.53 -0.1 l 0.29,-0.03 c 0.05,-0.02 0.09,-0.02 0.17,-0.02 l 0.67,0.05 h 0.05 l 0.16,0.02 h -0.09 0.21 -0.04 l 0.4,-0.02 h -0.04 0.16 c 0.17,-0.03 0.34,0 0.51,0.07 l 0.07,0.02 c 0.05,0.03 0.1,0.05 0.17,0.08 v 0.02 c 0.36,0.22 0.57,0.58 0.55,0.96 -0.02,0.41 -0.22,0.77 -0.58,0.96 -0.36,0.17 -0.76,0.17 -1.1,-0.02 l -0.02,-0.03 v 0.03 l -0.05,-0.05 0.45,0.14 -0.16,-0.02 h 0.04 -0.4 c -0.05,0 -0.08,0 -0.12,-0.03 l -0.2,-0.02 -0.12,-0.02 -0.16,-0.05 0.12,0.02 -0.68,-0.09 h 0.03 l -0.29,-0.03 h -0.02 l -0.53,-0.09 h -0.05 l -1.22,-0.27 c -0.08,-0.02 -0.17,-0.07 -0.24,-0.09 l -0.17,-0.12 c -0.31,-0.2 -0.43,-0.56 -0.31,-0.89 0.12,-0.34 0.43,-0.55 0.79,-0.51 z"
         style="fill:#000000;fill-opacity:1;fill-rule:nonzero;stroke:none"
         transform="matrix(1.3333333,0,0,-1.3333333,0,1120.8)" />
    </g>
    <g
       id="g226"
       transform="translate(0.4472621,-117.85356)">
      <path
         id="path226"
         d="m 394.42,672.26 -0.05,-1.29 v -0.05 -1.32 -0.02 l 0.05,-2.55 v -0.02 l 0.04,-0.84 v -0.03 l 0.22,-3.62 v -0.02 l 0.14,-2.04 v -0.03 l 0.24,-2.71 v 0.02 l 0.15,-2.18 v 0.07 l -0.03,-1.46 v 0.02 -0.36 c -0.02,-0.38 0.2,-0.74 0.51,-0.96 0.36,-0.19 0.77,-0.19 1.1,0 0.34,0.22 0.55,0.58 0.53,0.96 l -0.02,0.36 v -0.02 1.46 0.07 l -0.15,2.19 v 0.02 l -0.24,2.69 v 0 l -0.17,2.06 v -0.02 l -0.24,3.65 v -0.03 l -0.04,0.84 v -0.02 l -0.08,2.57 v 0 l -0.07,1.32 v 0.05 l -0.09,1.27 c -0.05,0.48 -0.44,0.86 -0.92,0.84 -0.48,0 -0.88,-0.39 -0.88,-0.87 z"
         style="fill:#000000;fill-opacity:1;fill-rule:nonzero;stroke:none"
         transform="matrix(1.3333333,0,0,-1.3333333,0,1120.8)" />
    </g>
    <g
       id="g227"
       transform="translate(0.4472621,-117.85356)">
      <path
         id="path227"
         d="m 397.97,671.57 0.05,0.05 c 0.24,0.19 0.36,0.5 0.28,0.79 -0.07,0.31 -0.31,0.55 -0.62,0.6 -0.29,0.05 -0.62,-0.07 -0.79,-0.31 l -0.03,-0.1 c -0.09,-0.12 -0.16,-0.26 -0.16,-0.43 v -0.34 -0.07 l 0.02,-0.36 v 0 l 0.05,-0.79 v 0 l 0.09,-1.01 v 0.02 -0.14 -0.07 l 0.12,-0.77 v -0.02 l 0.1,-0.53 v 0 l 0.02,-0.15 v -0.04 l 0.08,-0.32 -0.03,0.22 v -0.02 c 0,-0.36 0.19,-0.72 0.51,-0.89 0.33,-0.19 0.72,-0.19 1.03,0 0.31,0.17 0.5,0.53 0.5,0.89 v 0.02 c 0,0.1 0,0.17 -0.05,0.26 l -0.07,0.34 v -0.05 l -0.02,0.15 v 0 l -0.12,0.5 v -0.02 l -0.15,0.74 v -0.07 0.17 h -0.02 l -0.14,0.98 v 0 l -0.1,0.77 -0.02,0.09 -0.08,0.34 v -0.02 l -0.04,0.31 c -0.03,0.12 -0.08,0.24 -0.15,0.31 l -0.05,0.1 c -0.16,0.26 -0.52,0.38 -0.84,0.31 -0.33,-0.1 -0.57,-0.39 -0.57,-0.72 -0.03,-0.31 0.14,-0.65 0.45,-0.77 l 0.05,-0.02 c 0.24,-0.1 0.51,-0.08 0.7,0.07 z"
         style="fill:#000000;fill-opacity:1;fill-rule:nonzero;stroke:none"
         transform="matrix(1.3333333,0,0,-1.3333333,0,1120.8)" />
    </g>
    <g
       id="g228"
       transform="translate(0.4472621,-117.85356)">
      <path
         id="path228"
         d="m 397.25,671.76 0.12,-0.07 c 0.09,-0.07 0.21,-0.12 0.33,-0.15 l 1.4,-0.16 0.07,-0.03 1.89,-0.14 h 0.05 0.31 -0.07 l 0.72,-0.07 -0.19,0.02 0.24,-0.07 c 0.1,-0.03 0.19,-0.05 0.29,-0.05 h 0.07 c 0.58,0 1.06,0.48 1.06,1.06 0,0.6 -0.48,1.05 -1.06,1.05 h -0.07 l 0.26,-0.02 -0.24,0.05 c -0.05,0.02 -0.12,0.04 -0.19,0.04 l -0.7,0.05 h -0.12 l -0.31,-0.02 0.05,0.02 -1.92,0.03 h -0.02 -1.4 -0.12 l -0.12,-0.03 c -0.36,-0.05 -0.64,-0.31 -0.72,-0.65 -0.07,-0.33 0.08,-0.69 0.39,-0.86 z"
         style="fill:#000000;fill-opacity:1;fill-rule:nonzero;stroke:none"
         transform="matrix(1.3333333,0,0,-1.3333333,0,1120.8)" />
    </g>
    <g
       id="g229"
       transform="translate(0.4472621,-117.85356)">
      <path
         id="path229"
         d="m 398.21,666.67 0.19,0.03 h -0.07 1.25 -0.03 0.51 -0.1 l 0.29,-0.03 c 0.05,-0.02 0.09,-0.02 0.14,-0.02 l 0.7,0.05 h 0.02 l 0.19,0.02 h -0.07 0.19 -0.04 l 0.4,-0.02 h -0.04 0.16 c 0.17,-0.03 0.34,0 0.51,0.07 l 0.05,0.02 c 0.07,0.03 0.12,0.05 0.16,0.07 l 0.05,0.03 c 0.34,0.19 0.53,0.55 0.53,0.96 -0.02,0.41 -0.24,0.77 -0.58,0.96 -0.36,0.17 -0.76,0.17 -1.1,-0.05 h -0.02 v 0 l -0.05,-0.02 0.45,0.14 -0.16,-0.02 h 0.04 -0.4 c -0.03,0 -0.08,0 -0.12,-0.03 l -0.2,-0.02 -0.12,-0.03 -0.16,-0.04 0.12,0.02 -0.7,-0.1 h 0.05 l -0.29,-0.02 h -0.05 l -0.48,-0.1 h -0.07 l -1.22,-0.26 c -0.1,-0.02 -0.17,-0.07 -0.24,-0.12 l -0.17,-0.1 c -0.31,-0.19 -0.43,-0.55 -0.31,-0.88 0.09,-0.34 0.45,-0.56 0.79,-0.51 z"
         style="fill:#000000;fill-opacity:1;fill-rule:nonzero;stroke:none"
         transform="matrix(1.3333333,0,0,-1.3333333,0,1120.8)" />
    </g>
    <g
       id="g230"
       transform="translate(0.4472621,-117.85356)">
      <path
         id="path230"
         d="m 401.71,672.07 -0.05,-1.29 v -0.05 l 0.03,-1.32 v -0.03 l 0.05,-2.54 v -0.02 l 0.04,-0.84 v -0.03 l 0.2,-3.62 v -0.03 l 0.16,-2.06 v 0 l 0.24,-2.71 v 0.02 l 0.15,-2.18 -0.03,0.07 v -1.49 0.05 -0.36 c -0.02,-0.41 0.17,-0.77 0.53,-0.96 0.31,-0.19 0.75,-0.19 1.08,0 0.34,0.19 0.55,0.55 0.53,0.96 l -0.02,0.36 v -0.05 1.49 0.07 l -0.15,2.19 v 0.02 l -0.24,2.69 v 0 l -0.17,2.06 v -0.02 l -0.24,3.65 v -0.03 l -0.04,0.84 v -0.02 l -0.08,2.57 v 0 l -0.07,1.32 v 0.02 l -0.09,1.3 c -0.03,0.48 -0.44,0.86 -0.92,0.84 -0.5,0 -0.88,-0.39 -0.91,-0.87 z"
         style="fill:#000000;fill-opacity:1;fill-rule:nonzero;stroke:none"
         transform="matrix(1.3333333,0,0,-1.3333333,0,1120.8)" />
    </g>
    <g
       id="g231"
       transform="translate(0.4472621,-117.85356)">
      <path
         id="path231"
         d="m 405.38,671.5 0.05,0.02 c 0.24,0.19 0.36,0.53 0.27,0.82 -0.08,0.31 -0.32,0.52 -0.6,0.6 -0.32,0.04 -0.63,-0.1 -0.8,-0.34 l -0.04,-0.07 c -0.1,-0.12 -0.15,-0.29 -0.15,-0.46 v -0.31 -0.1 -0.36 0 l 0.07,-0.76 v -0.03 l 0.08,-0.98 v 0.02 -0.14 -0.07 l 0.12,-0.8 v -0.02 l 0.09,-0.53 v 0 l 0.03,-0.12 v -0.05 l 0.09,-0.33 -0.05,0.24 v -0.05 c 0,-0.36 0.2,-0.7 0.53,-0.86 0.31,-0.22 0.7,-0.22 1.01,0 0.31,0.16 0.5,0.5 0.5,0.86 v 0.05 c 0,0.07 0,0.17 -0.02,0.24 l -0.1,0.33 v -0.02 l -0.02,0.12 v 0 l -0.12,0.53 v -0.05 l -0.14,0.77 v -0.07 0.14 0.02 l -0.15,0.99 v 0 l -0.12,0.77 v 0.07 l -0.09,0.36 v -0.05 l -0.05,0.34 c -0.03,0.12 -0.07,0.21 -0.15,0.31 l -0.04,0.07 c -0.17,0.29 -0.51,0.41 -0.84,0.31 -0.32,-0.09 -0.56,-0.36 -0.58,-0.69 -0.02,-0.34 0.17,-0.65 0.46,-0.77 l 0.07,-0.05 c 0.21,-0.1 0.48,-0.05 0.69,0.1 z"
         style="fill:#000000;fill-opacity:1;fill-rule:nonzero;stroke:none"
         transform="matrix(1.3333333,0,0,-1.3333333,0,1120.8)" />
    </g>
    <g
       id="g232"
       transform="translate(0.4472621,-117.85356)">
      <path
         id="path232"
         d="m 404.64,671.66 0.12,-0.07 c 0.1,-0.07 0.22,-0.09 0.34,-0.12 l 1.41,-0.19 h 0.05 l 1.92,-0.14 h 0.02 0.32 -0.08 l 0.72,-0.1 -0.19,0.05 0.24,-0.07 c 0.1,-0.03 0.19,-0.05 0.29,-0.05 h 0.07 c 0.58,0 1.06,0.48 1.06,1.05 0,0.58 -0.48,1.06 -1.06,1.06 h -0.07 l 0.26,-0.02 -0.24,0.04 c -0.04,0.03 -0.12,0.03 -0.19,0.03 l -0.69,0.07 h -0.12 l -0.32,-0.02 h 0.05 l -1.92,0.02 v 0 l -1.41,0.02 -0.12,-0.02 -0.12,-0.02 c -0.36,-0.03 -0.63,-0.29 -0.72,-0.63 -0.08,-0.33 0.09,-0.69 0.38,-0.89 z"
         style="fill:#000000;fill-opacity:1;fill-rule:nonzero;stroke:none"
         transform="matrix(1.3333333,0,0,-1.3333333,0,1120.8)" />
    </g>
    <g
       id="g233"
       transform="translate(0.4472621,-117.85356)">
      <path
         id="path233"
         d="m 405.6,666.58 0.19,0.02 h -0.07 l 1.25,0.02 h -0.03 l 0.51,-0.02 h -0.1 l 0.29,-0.02 c 0.05,0 0.12,0 0.14,0 l 0.7,0.02 h 0.05 l 0.19,0.02 h -0.1 0.22 -0.05 l 0.39,-0.02 h -0.05 0.19 c 0.14,-0.02 0.31,0 0.48,0.07 l 0.07,0.03 c 0.05,0.02 0.12,0.04 0.17,0.09 l 0.02,0.03 c 0.34,0.19 0.53,0.55 0.53,0.96 0,0.38 -0.21,0.74 -0.57,0.93 -0.34,0.19 -0.77,0.17 -1.11,-0.02 l -0.02,-0.03 0.02,0.03 -0.07,-0.05 0.48,0.14 -0.19,-0.02 0.05,0.02 -0.39,-0.02 c -0.05,0 -0.09,0 -0.14,0 l -0.19,-0.05 -0.1,-0.02 -0.19,-0.05 0.12,0.02 -0.67,-0.09 h 0.02 l -0.29,-0.03 h -0.05 l -0.48,-0.07 -0.07,-0.02 -1.22,-0.27 c -0.07,-0.02 -0.17,-0.04 -0.24,-0.09 l -0.17,-0.12 c -0.29,-0.17 -0.43,-0.55 -0.31,-0.89 0.12,-0.34 0.45,-0.55 0.79,-0.5 z"
         style="fill:#000000;fill-opacity:1;fill-rule:nonzero;stroke:none"
         transform="matrix(1.3333333,0,0,-1.3333333,0,1120.8)" />
    </g>
    <g
       id="g234"
       transform="translate(0.4472621,-117.85356)">
      <path
         id="path234"
         d="m 409.1,671.98 -0.02,-1.3 v -0.02 l 0.02,-1.35 v 0 l 0.05,-2.54 v -0.05 l 0.03,-0.84 v -0.02 l 0.21,-3.6 v -0.03 l 0.17,-2.06 v -0.03 l 0.24,-2.71 v 0.05 l 0.12,-2.18 v 0.07 -1.49 0.05 l -0.02,-0.36 c -0.03,-0.41 0.19,-0.77 0.52,-0.96 0.34,-0.22 0.77,-0.22 1.08,0 0.34,0.19 0.56,0.55 0.53,0.96 v 0.36 -0.05 l -0.02,1.49 v 0.05 l -0.15,2.18 v 0.02 l -0.24,2.72 v 0 l -0.14,2.04 v 0 l -0.24,3.62 v -0.02 l -0.05,0.84 v 0 l -0.09,2.54 v 0 l -0.08,1.34 v 0.03 l -0.09,1.29 c -0.03,0.48 -0.43,0.84 -0.91,0.84 -0.48,-0.02 -0.87,-0.4 -0.92,-0.88 z"
         style="fill:#000000;fill-opacity:1;fill-rule:nonzero;stroke:none"
         transform="matrix(1.3333333,0,0,-1.3333333,0,1120.8)" />
    </g>
  </g>
</svg>
