<?xml version="1.0" encoding="UTF-8" standalone="no"?>
<!-- Created with Inkscape (http://www.inkscape.org/) -->

<svg
   version="1.1"
   id="svg1"
   width="300"
   height="300"
   viewBox="0 0 300 299.99999"
   sodipodi:docname="lesson1.pdf"
   inkscape:export-filename="multichoice\multichoice13\multichoice13_option2.svg"
   inkscape:export-xdpi="96"
   inkscape:export-ydpi="96"
   xmlns:inkscape="http://www.inkscape.org/namespaces/inkscape"
   xmlns:sodipodi="http://sodipodi.sourceforge.net/DTD/sodipodi-0.dtd"
   xmlns="http://www.w3.org/2000/svg"
   xmlns:svg="http://www.w3.org/2000/svg">
  <defs
     id="defs1" />
  <sodipodi:namedview
     id="namedview1"
     pagecolor="#ffffff"
     bordercolor="#000000"
     borderopacity="0.25"
     inkscape:showpageshadow="2"
     inkscape:pageopacity="0.0"
     inkscape:pagecheckerboard="0"
     inkscape:deskcolor="#d1d1d1">
    <inkscape:page
       x="0"
       y="0"
       inkscape:label="1"
       id="page1"
       width="300"
       height="300"
       margin="0"
       bleed="0" />
  </sodipodi:namedview>
  <g
     id="g1"
     inkscape:groupmode="layer"
     inkscape:label="1">
    <g
       id="g144"
       transform="matrix(8.9163621,0,0,8.9163621,-1097.7636,-1808.3131)">
      <path
         id="path144"
         d="m 96.912,683.14 v 0 l -0.072,-0.08 0.024,0.03 0.072,0.07 v 0 c 0.12,0.12 0.192,0.26 0.24,0.41 v 0.05 l -0.072,-0.22 0.024,0.05 c 0.024,0.02 0.024,0.07 0.048,0.12 l 0.072,0.17 0.024,0.12 0.024,0.07 -0.072,-0.24 v 0.05 c 0.024,0.04 0.072,0.12 0.096,0.19 l 0.024,0.09 V 684 l 0.024,0.12 v 0.02 l 0.048,0.15 v -0.03 l 0.048,0.15 v 0 l 0.024,0.07 v 0.02 l 0.072,0.24 -0.024,-0.09 0.024,0.09 0.024,0.03 0.024,0.05 v 0.02 l 0.024,0.05 -0.024,-0.05 0.048,0.14 v 0 l 0.048,0.05 0.024,0.1 v 0.02 l -0.072,-0.19 v 0.02 c 0.024,0.03 0.048,0.08 0.072,0.12 v 0 0 0.03 l -0.096,-0.19 0.024,0.04 -0.072,-0.09 0.072,0.07 -0.072,-0.07 0.024,0.02 c 0.024,0.05 0.048,0.07 0.096,0.1 v 0.02 l 0.048,0.07 0.048,0.05 c 0.024,0.05 0.048,0.1 0.072,0.15 v 0.02 l -0.12,-0.22 v 0.03 0 h 0.024 l 0.048,0.07 v 0.02 l -0.096,-0.12 0.048,0.03 -0.096,-0.1 0.12,0.12 v 0 l 0.12,0.1 v 0 h 0.024 l -0.216,-0.12 h 0.024 c 0.072,0.05 0.144,0.09 0.192,0.14 h 0.024 v 0 0.03 l -0.264,-0.17 h 0.048 c 0.024,0.02 0.072,0.05 0.12,0.07 l 0.024,0.02 -0.168,-0.09 h 0.024 c 0.072,0.05 0.12,0.07 0.192,0.12 l 0.048,0.02 -0.024,-0.02 0.024,0.02 -0.024,-0.02 0.024,0.02 v 0 l 0.024,0.03 -0.12,-0.08 0.048,0.03 h 0.024 l 0.048,0.02 0.096,0.05 0.072,0.05 -0.024,-0.03 0.048,0.03 -0.048,-0.03 0.12,0.05 -0.168,-0.05 0.384,0.12 -0.12,-0.04 0.168,0.04 -0.048,-0.02 0.144,0.02 h 0.024 l 0.096,0.03 h -0.048 0.216 -0.024 l 0.144,0.02 v 0 l 0.12,0.03 -0.12,-0.03 h 0.072 v 0 h 0.024 0.048 0.072 l 0.072,0.03 h 0.096 -0.12 0.12 v 0 h 0.096 0.096 0.048 -0.192 0.072 -0.024 0.096 -0.024 l 0.12,-0.03 -0.12,0.03 0.192,-0.05 v 0 h 0.048 -0.072 0.024 -0.024 0.048 l -0.096,0.02 0.072,-0.02 h 0.024 l 0.096,-0.05 -0.12,0.05 0.144,-0.07 -0.144,0.09 0.308,-0.21 -0.04,0.02 0.07,-0.05 -0.05,0.03 0.17,-0.12 v 0 l 0.12,-0.1 -0.05,0.05 0.05,-0.07 v 0 l 0.07,-0.05 -0.05,0.05 0.12,-0.15 -0.02,0.03 0.07,-0.1 -0.02,0.05 0.02,-0.03 -0.05,0.08 0.05,-0.1 v 0 l 0.07,-0.07 v -0.03 l 0.12,-0.16 -0.05,0.04 0.08,-0.12 v 0.03 l 0.12,-0.22 -0.03,0.05 0.05,-0.1 v 0 l 0.02,-0.07 -0.02,0.05 0.07,-0.17 v 0 l 0.05,-0.09 v -0.03 l 0.12,-0.26 -0.05,0.09 0.05,-0.12 -0.02,0.1 v -0.02 c 0,-0.05 0.02,-0.08 0.02,-0.12 l 0.05,-0.08 0.02,-0.07 v -0.05 l -0.05,0.17 0.03,-0.05 -0.03,0.05 0.03,-0.09 0.02,-0.05 0.03,-0.12 v 0 l 0.02,-0.05 -0.02,0.07 0.02,-0.09 v -0.03 l 0.02,-0.09 v 0.02 l 0.03,-0.14 v -0.03 l 0.05,-0.19 0.02,-0.12 0.02,-0.05 -0.02,0.07 0.02,-0.04 v -0.05 l 0.03,-0.07 0.02,-0.08 0.07,-0.16 0.05,-0.08 0.07,-0.16 0.03,-0.03 v -0.02 l 0.02,-0.05 0.03,-0.02 -0.12,0.24 0.02,-0.03 v -0.05 l 0.02,-0.04 -0.07,0.21 0.03,-0.02 c 0.09,-0.6 0.67,-1.03 1.29,-0.91 0.6,0.09 1.01,0.67 0.91,1.29 v 0.03 c -0.02,0.07 -0.04,0.14 -0.07,0.21 l -0.02,0.07 0.02,-0.04 v 0.02 c -0.05,0.07 -0.07,0.14 -0.12,0.22 v 0.02 l 0.03,-0.07 v 0.02 -0.02 l -0.08,0.17 0.03,-0.08 -0.07,0.15 0.04,-0.07 -0.02,0.04 0.02,-0.07 -0.02,0.07 -0.02,0.08 v 0.04 l 0.02,-0.12 -0.05,0.22 v -0.02 l -0.02,0.14 v 0 l -0.03,0.1 v -0.03 l -0.02,0.1 -0.02,0.09 v 0.05 -0.02 l -0.03,0.12 V 684 l -0.02,0.1 v 0.04 l -0.03,0.03 c 0,0.05 -0.02,0.12 -0.04,0.14 l -0.03,0.05 0.05,-0.07 -0.02,0.07 0.02,-0.1 -0.02,0.03 v 0.09 l -0.05,0.1 -0.05,0.1 -0.1,0.24 v -0.03 l -0.04,0.12 v 0.03 l -0.08,0.16 -0.04,0.08 -0.03,0.09 h -0.02 l -0.05,0.1 -0.02,0.05 -0.12,0.21 -0.03,0.03 -0.07,0.12 -0.02,0.04 -0.12,0.17 v -0.02 l -0.05,0.09 v 0 l -0.07,0.1 -0.03,0.05 -0.02,0.05 -0.05,0.02 -0.07,0.1 -0.03,0.02 -0.14,0.14 -0.05,0.08 -0.07,0.04 v 0 l -0.07,0.08 -0.05,0.04 -0.1,0.08 v 0 l -0.16,0.14 -0.03,0.02 -0.07,0.05 -0.05,0.03 -0.26,0.21 c -0.05,0.03 -0.1,0.05 -0.15,0.07 l -0.12,0.08 c -0.04,0.02 -0.07,0.02 -0.12,0.04 l -0.09,0.03 h 0.02 l -0.07,0.02 -0.07,0.03 -0.03,0.02 h -0.02 l -0.05,0.02 -0.07,0.03 h -0.02 v 0 l -0.2,0.05 c -0.02,0 -0.07,0 -0.116,0.02 h -0.12 -0.024 l -0.096,0.02 h -0.048 -0.072 c -0.072,0.03 -0.12,0.03 -0.168,0 h -0.024 0.096 -0.096 v 0 h -0.12 -0.096 -0.072 0.048 -0.072 0.024 -0.024 v 0 h -0.072 c -0.048,0 -0.096,0 -0.12,0 l -0.12,-0.02 v 0 h -0.12 -0.024 l -0.192,-0.05 H 98.4 l -0.096,-0.02 0.024,0.02 -0.12,-0.02 H 98.16 l -0.168,-0.03 -0.096,-0.02 -0.36,-0.12 c -0.048,0 -0.12,-0.02 -0.168,-0.05 l -0.12,-0.05 -0.048,-0.02 -0.048,-0.02 -0.024,-0.03 -0.072,-0.02 0.096,0.02 -0.072,-0.02 v 0 l -0.048,-0.03 c -0.048,0 -0.096,-0.02 -0.144,-0.04 v -0.03 0 l -0.048,-0.02 h -0.024 l -0.024,-0.03 -0.024,-0.02 -0.048,-0.02 0.192,0.09 v 0 c -0.072,-0.02 -0.12,-0.05 -0.168,-0.07 l -0.024,-0.02 0.144,0.07 -0.048,-0.03 c -0.096,-0.02 -0.192,-0.09 -0.288,-0.16 v 0 0 -0.03 l 0.192,0.15 h -0.024 c -0.072,-0.05 -0.144,-0.1 -0.192,-0.15 H 96.48 v 0 l -0.096,-0.09 v 0 l -0.12,-0.1 c -0.048,-0.02 -0.072,-0.07 -0.096,-0.1 l -0.048,-0.04 c -0.048,-0.05 -0.072,-0.08 -0.096,-0.12 L 96,686.47 l 0.048,0.05 h -0.024 v 0 -0.02 c -0.072,-0.08 -0.096,-0.15 -0.144,-0.22 l -0.024,-0.02 0.096,0.14 -0.048,-0.07 0.024,0.05 v -0.03 l 0.072,0.1 -0.024,-0.03 -0.048,-0.07 -0.072,-0.07 -0.048,-0.07 -0.024,-0.05 c -0.048,-0.07 -0.096,-0.12 -0.096,-0.19 l -0.024,-0.03 v 0 -0.02 l 0.048,0.12 -0.024,-0.02 c -0.024,-0.08 -0.048,-0.12 -0.072,-0.2 v -0.02 l 0.048,0.1 -0.048,-0.08 v 0 l -0.048,-0.14 -0.048,-0.1 v -0.07 0.05 l -0.024,-0.07 0.024,0.05 -0.048,-0.1 c 0,-0.05 -0.024,-0.07 -0.024,-0.12 l -0.048,-0.26 -0.024,-0.05 v -0.07 l -0.024,-0.05 -0.024,-0.15 v -0.09 -0.17 -0.02 -0.12 -0.03 -0.09 c 0,-0.12 0,-0.24 0.048,-0.36 v -0.03 l -0.048,0.22 0.024,-0.1 c 0,-0.02 0,-0.07 0.024,-0.12 l 0.048,-0.17 0.024,-0.09 0.024,-0.05 -0.048,0.17 v -0.05 c 0.024,-0.1 0.048,-0.19 0.12,-0.29 v -0.02 l -0.072,0.12 h 0.024 c 0,-0.05 0.024,-0.1 0.048,-0.12 v -0.03 c 0.144,-0.21 0.384,-0.38 0.648,-0.43 0.264,-0.02 0.528,0.07 0.72,0.27 z"
         style="fill:#000000;fill-opacity:1;fill-rule:nonzero;stroke:none"
         transform="matrix(1.3333333,0,0,-1.3333333,0,1120.8)" />
    </g>
    <g
       id="g145"
       transform="matrix(8.9163621,0,0,8.9163621,-1097.7636,-1808.3131)">
      <path
         id="path145"
         d="m 96.072,683.35 v 0 c 0.216,-0.12 0.432,-0.12 0.648,-0.02 v 0 0 0 c 0.12,0.05 0.24,0.14 0.336,0.26 v 0 l -0.744,-0.31 v 0 c 0.144,-0.02 0.288,-0.02 0.408,0.05 v 0 L 96,683.42 v 0 c 0.168,-0.14 0.36,-0.19 0.552,-0.14 0.216,0.02 0.384,0.14 0.504,0.31 v 0 l -0.336,-0.26 v 0 l -0.384,-0.05 v 0 c 0.072,-0.02 0.144,-0.02 0.216,0 v 0 h -0.024 0.072 0.024 0.024 v 0 0 h -0.168 0.024 v 0 h 0.024 -0.024 0.024 c 0.072,0 0.168,0 0.24,0.02 h 0.024 l -0.24,-0.02 h 0.072 c 0.072,0 0.144,0 0.192,0 l 0.096,0.02 c 0.072,0.03 0.12,0.03 0.192,0.05 v 0 l -0.096,-0.02 v 0 l -0.312,-0.03 v 0 0 0 h 0.024 0.024 -0.024 v 0 h 0.024 v 0 0 0 h -0.024 0.024 0.024 v 0 h -0.024 v 0 l -0.24,0.05 0.024,-0.02 -0.024,0.02 0.072,-0.02 -0.096,0.05 0.096,-0.05 -0.072,0.02 0.024,-0.02 0.096,-0.05 0.024,-0.02 -0.12,0.09 0.024,-0.02 -0.024,0.02 0.096,-0.09 -0.216,0.31 v -0.03 c 0.072,-0.12 0.144,-0.21 0.24,-0.31 l 0.048,-0.02 -0.096,0.09 0.024,-0.02 v 0 l 0.024,-0.05 -0.024,0.05 0.024,-0.02 -0.024,0.02 0.024,-0.02 -0.048,0.04 0.048,-0.07 -0.048,0.07 0.048,-0.07 v 0 -0.02 l 0.024,-0.03 0.024,-0.02 -0.048,0.05 0.024,-0.05 -0.048,0.14 0.072,-0.24 -0.024,0.05 0.024,-0.05 -0.024,0.08 0.024,-0.08 v -0.02 -0.07 0.07 l 0.024,-0.17 v 0.1 l -0.024,-0.34 v -0.02 l 0.024,-0.39 v -0.04 -0.29 0.07 -0.02 -0.08 l 0.024,-0.26 v -0.05 l 0.024,-0.07 v -0.02 -0.05 0.02 0 0.34 -0.03 c 0,-0.09 -0.024,-0.21 0,-0.33 v 0 0 0 -0.03 -0.02 l 0.072,0.53 v 0 c -0.024,-0.07 -0.048,-0.15 -0.072,-0.22 v 0 c -0.072,-0.41 0.12,-0.84 0.48,-1.05 0.336,-0.24 0.792,-0.24 1.152,0 0.336,0.21 0.528,0.64 0.456,1.05 v 0 c -0.024,0.07 -0.024,0.15 -0.048,0.22 v 0 l 0.024,-0.1 v 0.03 c -0.024,0.07 -0.048,0.14 -0.096,0.21 v 0 0 0 l 0.096,-0.29 v 0.03 c -0.024,0.09 -0.048,0.19 -0.096,0.29 h -0.024 l 0.096,-0.17 -0.024,0.02 v 0 l -0.024,0.07 0.024,-0.07 -0.072,0.24 0.024,-0.05 v 0.03 0.02 l -0.048,0.27 v -0.05 l -0.048,0.38 v -0.02 l -0.048,0.36 v 0.07 l -0.048,0.14 c 0,0.08 -0.024,0.12 -0.048,0.2 l -0.024,0.04 v -0.02 0.05 l -0.048,0.07 -0.024,0.07 v -0.02 l -0.096,0.24 -0.024,0.05 -0.048,0.07 c -0.024,0.05 -0.048,0.09 -0.096,0.12 l -0.024,0.02 0.048,-0.02 h -0.024 l 0.048,-0.03 -0.048,0.05 v 0 l -0.048,0.1 -0.048,0.05 -0.024,0.02 -0.024,0.05 -0.024,0.02 -0.048,0.03 -0.024,0.02 v 0 l -0.024,0.02 c -0.024,0.03 -0.048,0.08 -0.096,0.1 l -0.024,0.02 0.264,-0.33 v 0.02 c -0.048,0.1 -0.12,0.19 -0.216,0.27 l -0.096,0.09 -0.024,0.03 -0.024,0.02 c -0.048,0.02 -0.096,0.05 -0.144,0.07 l -0.024,0.03 0.072,-0.05 -0.048,0.02 -0.072,0.05 -0.072,0.07 c -0.072,0.03 -0.12,0.05 -0.168,0.07 l -0.072,0.03 h -0.024 v 0 c -0.12,0.02 -0.24,0.05 -0.36,0.05 v -0.03 l 0.024,0.03 v 0 h -0.024 l -0.024,-0.03 0.024,0.03 v 0 0 0 l -0.024,-0.03 v 0 l 0.024,0.03 -0.024,-0.03 h -0.024 v 0 0 0 c -0.096,0 -0.168,-0.02 -0.264,-0.05 v 0 c -0.048,-0.02 -0.096,-0.04 -0.144,-0.07 v -0.02 l 0.096,0.07 -0.072,-0.05 -0.072,-0.02 -0.072,-0.05 c -0.048,-0.02 -0.096,-0.07 -0.12,-0.1 l -0.024,-0.02 c -0.096,-0.1 -0.168,-0.19 -0.216,-0.31 v 0 l 0.048,0.12 v -0.03 c -0.024,-0.02 -0.048,-0.07 -0.048,-0.12 h -0.024 v -0.07 H 95.76 v 0 -0.02 l 0.048,0.12 -0.024,-0.07 0.288,0.33 v -0.02 c -0.288,-0.15 -0.432,-0.48 -0.36,-0.79 v 0 l 0.024,0.38 v 0 c -0.072,-0.22 -0.048,-0.46 0.096,-0.65 v 0 L 96,684.6 v 0 c -0.12,-0.1 -0.216,-0.22 -0.264,-0.34 v -0.02 c -0.048,-0.12 -0.048,-0.26 -0.024,-0.41 v 0 c 0.024,-0.09 0.072,-0.17 0.12,-0.24 v 0 l -0.096,0.65 v 0 0 0 c -0.096,-0.26 -0.024,-0.55 0.168,-0.74 v 0 c 0.048,-0.08 0.096,-0.12 0.168,-0.15 z"
         style="fill:#000000;fill-opacity:1;fill-rule:nonzero;stroke:none"
         transform="matrix(1.3333333,0,0,-1.3333333,0,1120.8)" />
    </g>
    <g
       id="g146"
       transform="matrix(8.9163621,0,0,8.9163621,-1097.7636,-1808.3131)">
      <path
         id="path146"
         d="m 102.96,680.23 v 0.03 l -0.07,-0.15 v 0 c 0.09,0.17 0.14,0.34 0.12,0.51 v 0.02 l -0.05,-0.38 0.02,0.07 c 0.03,0.09 0.05,0.17 0.05,0.26 l 0.03,0.03 v 0 0.02 c 0,0.19 -0.05,0.41 -0.15,0.58 l -0.05,0.07 0.1,-0.24 v 0.02 l -0.02,0.07 v 0.03 0 h -0.03 l 0.07,-0.19 v 0 c -0.02,0.12 -0.07,0.21 -0.12,0.31 v 0 l 0.05,-0.1 v 0 c -0.05,0.1 -0.09,0.19 -0.17,0.29 v 0 l 0.17,-0.29 v 0.03 c -0.05,0.09 -0.09,0.19 -0.19,0.28 v 0 c -0.02,0.05 -0.1,0.1 -0.14,0.15 v 0 l 0.19,-0.22 v 0 0 0 l 0.19,-0.62 v 0.02 c 0,0.22 -0.07,0.43 -0.19,0.6 v 0.03 l 0.19,-0.63 v 0 c 0,0.22 -0.07,0.46 -0.22,0.63 v 0 l 0.2,-0.63 v 0 c 0.02,0.22 -0.05,0.43 -0.17,0.6 v 0.03 l 0.02,-0.05 -0.02,0.05 c -0.05,0.07 -0.07,0.12 -0.15,0.16 l -0.09,0.1 c -0.07,0.07 -0.15,0.14 -0.22,0.19 l -0.05,0.03 0.12,-0.1 -0.16,0.14 -0.03,0.03 -0.02,0.02 -0.07,0.05 -0.05,0.05 c -0.03,0 -0.07,0.02 -0.12,0.05 l -0.12,0.07 0.17,-0.12 -0.03,0.02 c -0.07,0.07 -0.14,0.12 -0.24,0.15 l -0.02,0.02 0.24,-0.14 -0.03,0.02 v 0 l -0.02,0.02 0.02,-0.04 -0.02,0.02 -0.05,0.05 -0.02,0.02 -0.05,0.03 -0.02,0.02 c -0.05,0.02 -0.1,0.05 -0.15,0.07 l -0.09,0.05 0.09,-0.07 -0.02,0.05 -0.1,0.04 h -0.02 v 0 h -0.03 c -0.04,0.03 -0.07,0.05 -0.12,0.05 h -0.02 l 0.12,-0.02 h -0.02 c -0.05,0.02 -0.12,0.05 -0.17,0.05 l -0.05,0.02 0.05,-0.02 v 0.02 c -0.1,0.02 -0.19,0.02 -0.29,0.05 v 0 l 0.26,-0.05 v 0 l 0.36,-0.19 v 0 c -0.07,0.07 -0.16,0.12 -0.26,0.14 l -0.02,0.03 0.26,-0.15 h -0.02 c -0.2,0.15 -0.41,0.22 -0.65,0.22 v 0 l 0.81,-0.39 v 0.03 c -0.12,0.12 -0.28,0.24 -0.43,0.29 l -0.02,0.02 v 0 0 c -0.12,0.05 -0.27,0.07 -0.39,0.07 h -0.02 l 0.14,-0.02 h -0.02 l 0.14,-0.03 v 0.03 c -0.09,0 -0.19,0.02 -0.28,0.02 h -0.03 l 0.39,-0.07 v 0 0 h -0.03 c -0.12,0.05 -0.24,0.07 -0.36,0.07 h -0.02 l 0.29,-0.02 v 0 l 0.16,-0.07 v 0 l 0.05,-0.03 v 0 c -0.05,0.03 -0.09,0.05 -0.14,0.07 h -0.03 l -0.09,0.03 v 0.02 l 0.09,-0.02 v 0 h -0.07 l -0.05,0.02 c -0.09,0.03 -0.19,0.05 -0.31,0.05 v 0 0 0 l 0.39,-0.07 h -0.03 v 0 0 0 0 l 0.15,-0.07 -0.03,0.02 c -0.07,0.05 -0.17,0.07 -0.24,0.1 v 0 l 0.24,-0.1 v 0 c -0.05,0.02 -0.12,0.05 -0.17,0.07 v 0 l 0.29,-0.14 h -0.02 c -0.19,0.14 -0.43,0.21 -0.67,0.21 v 0 0 0 l 0.38,-0.07 v 0 c -0.07,0.03 -0.14,0.05 -0.22,0.07 h -0.02 c -0.05,0 -0.12,0 -0.17,0 v 0 l 0.53,-0.12 v 0 c -0.17,0.08 -0.36,0.15 -0.53,0.15 h -0.02 l 0.55,-0.15 h -0.02 c -0.15,0.1 -0.34,0.15 -0.51,0.15 h -0.02 v 0 0 l 0.53,-0.15 v 0 0 h -0.03 c -0.05,0.05 -0.12,0.08 -0.19,0.1 h -0.02 c -0.1,0.05 -0.22,0.05 -0.32,0.05 h -0.07 0.07 l -0.09,0.02 0.14,-0.02 h -0.07 l 0.12,-0.03 h -0.02 l -0.1,0.03 v 0 l -0.05,0.02 h -0.02 c -0.05,0 -0.1,0.03 -0.12,0.03 h -0.07 l 0.12,-0.03 -0.1,0.03 -0.1,0.02 -0.09,0.02 H 99.984 99.96 99.984 99.96 l 0.1,-0.02 -0.05,0.02 h -0.05 l -0.048,0.03 v 0 h -0.12 v 0 l -0.072,0.02 H 99.672 L 99.6,682.9 h -0.048 l -0.144,0.02 h -0.096 -0.096 -0.048 -0.216 c -0.072,0 -0.12,0 -0.168,-0.02 l -0.216,-0.03 v 0 l -0.144,-0.02 v 0 h -0.096 0.048 -0.024 -0.024 l -0.096,-0.03 0.144,0.03 v 0 c -0.048,0 -0.12,-0.03 -0.168,-0.03 v 0 0 h -0.024 c -0.048,0 -0.096,-0.02 -0.144,-0.02 l -0.048,-0.02 0.072,0.02 -0.072,-0.02 0.024,0.02 -0.024,-0.02 v 0 0 c -0.072,0 -0.12,-0.03 -0.192,-0.05 h -0.024 l 0.216,0.05 v 0 c -0.12,-0.03 -0.24,-0.05 -0.36,-0.1 l -0.024,-0.02 0.216,0.07 H 97.8 c -0.048,0 -0.072,-0.03 -0.12,-0.03 l -0.024,-0.02 0.12,0.05 H 97.728 97.8 97.776 c -0.048,0 -0.096,-0.03 -0.144,-0.03 v -0.02 h -0.048 l -0.072,-0.02 h 0.024 l -0.072,-0.03 h 0.024 l -0.048,-0.02 c -0.048,0 -0.072,0 -0.12,-0.03 l -0.12,-0.07 -0.072,-0.02 -0.024,-0.03 -0.096,-0.04 -0.048,-0.03 0.072,0.03 h -0.048 c -0.048,-0.05 -0.096,-0.08 -0.144,-0.12 l -0.072,-0.05 0.024,0.02 -0.096,-0.07 -0.048,-0.02 -0.144,-0.12 v 0 l -0.12,-0.12 H 96.36 l -0.024,-0.03 -0.048,-0.05 -0.024,-0.02 -0.048,-0.05 -0.024,-0.02 v 0 l -0.024,-0.03 -0.048,-0.07 -0.072,-0.05 -0.048,-0.09 -0.144,-0.22 -0.024,-0.05 -0.072,-0.14 -0.048,-0.05 -0.024,-0.05 -0.024,-0.09 -0.072,-0.17 -0.048,-0.1 -0.048,-0.12 v -0.07 l -0.048,-0.12 v 0 -0.07 l -0.024,-0.12 -0.024,-0.07 v 0 -0.07 c -0.024,-0.05 -0.024,-0.08 -0.024,-0.12 v -0.2 -0.04 0 -0.05 -0.12 -0.07 -0.17 c 0,-0.05 0.024,-0.07 0.024,-0.12 l 0.048,-0.29 c 0.024,-0.1 0.048,-0.22 0.096,-0.31 v 0 l -0.096,0.31 0.072,-0.36 v -0.07 l 0.096,-0.39 0.024,-0.04 v -0.08 0.03 l 0.024,-0.07 0.024,-0.1 0.072,-0.17 0.024,-0.05 0.024,-0.09 0.048,-0.07 0.096,-0.2 v 0.03 l 0.048,-0.1 -0.072,0.19 v -0.02 c 0.024,-0.1 0.048,-0.14 0.096,-0.22 l 0.024,-0.04 0.024,-0.05 0.048,-0.07 0.024,-0.03 0.096,-0.17 v 0 l 0.048,-0.09 -0.048,0.12 v -0.03 l 0.048,-0.09 0.024,-0.03 0.024,-0.04 0.048,-0.05 v -0.03 l 0.096,-0.12 -0.072,0.12 0.024,-0.04 c 0.024,-0.05 0.048,-0.08 0.072,-0.12 l 0.048,-0.08 0.048,-0.04 0.168,-0.24 v 0 l 0.12,-0.17 v 0.02 l 0.096,-0.12 0.048,-0.07 0.072,-0.1 h 0.024 l 0.048,-0.07 -0.024,0.03 0.048,-0.05 c 0.024,-0.03 0.048,-0.05 0.072,-0.07 l 0.12,-0.12 0.024,-0.03 0.024,-0.02 v 0 l 0.048,-0.03 -0.144,0.15 v -0.03 l -0.024,0.05 0.024,-0.02 v -0.03 l 0.048,-0.07 v 0.03 l 0.096,-0.12 c 0.024,-0.05 0.048,-0.08 0.096,-0.12 l 0.192,-0.22 0.072,-0.07 0.144,-0.15 -0.048,0.05 0.168,-0.14 -0.072,0.05 0.048,-0.05 c 0.024,-0.03 0.072,-0.07 0.096,-0.1 l 0.144,-0.12 c 0.048,-0.05 0.096,-0.09 0.144,-0.14 l 0.12,-0.05 -0.048,0.02 0.048,-0.02 v -0.02 l 0.048,-0.03 0.072,-0.05 0.12,-0.07 -0.024,0.03 0.048,-0.05 -0.048,0.05 0.144,-0.1 -0.024,0.02 0.288,-0.21 0.024,-0.03 0.168,-0.09 0.024,-0.03 0.072,-0.04 0.072,-0.05 0.168,-0.07 0.048,-0.03 0.048,-0.02 0.024,-0.03 0.072,-0.02 0.024,-0.02 h 0.07 l -0.118,0.04 0.118,-0.07 -0.046,0.03 0.046,-0.03 0.1,-0.05 0.14,-0.07 0.1,-0.05 0.09,-0.02 -0.09,0.02 0.26,-0.12 -0.07,0.03 0.05,-0.03 0.09,-0.04 h 0.03 l 0.07,-0.05 0.1,-0.03 h -0.03 l 0.12,-0.04 -0.09,0.04 0.6,-0.31 -0.05,0.03 0.14,-0.1 -0.05,0.02 0.08,-0.02 0.02,-0.02 0.05,-0.03 c 0.05,-0.02 0.09,-0.05 0.12,-0.07 l 0.14,-0.07 v 0 h 0.03 v 0 l 0.09,-0.05 -0.05,0.02 0.08,-0.04 -0.03,0.02 0.17,-0.1 h 0.02 l 0.2,-0.12 0.04,-0.02 0.29,-0.12 h -0.02 l 0.09,-0.05 v 0 l 0.1,-0.05 0.1,-0.02 0.19,-0.1 h 0.05 l 0.07,-0.02 -0.1,0.02 0.15,-0.07 v 0 l 0.14,-0.05 v -0.02 l 0.31,-0.12 -0.07,0.02 0.14,-0.07 h 0.03 l 0.17,-0.07 0.04,-0.05 0.75,-0.31 -0.12,0.07 0.19,-0.12 v 0 l 0.17,-0.09 0.02,-0.03 0.53,-0.29 -0.02,0.03 0.36,-0.19 v 0 l 0.43,-0.24 0.05,-0.03 0.4,-0.21 -0.04,0.02 0.26,-0.14 h -0.02 l 0.16,-0.1 v 0 l 0.22,-0.12 h 0.02 l 0.41,-0.22 h -0.02 l 0.6,-0.33 -0.03,0.02 0.46,-0.29 v 0.03 l 0.41,-0.27 -0.03,0.03 0.36,-0.22 0.03,-0.02 0.45,-0.27 h -0.02 l 0.5,-0.28 0.05,-0.03 0.34,-0.19 -0.03,0.02 0.48,-0.26 -0.04,0.02 0.16,-0.09 -0.02,0.02 0.6,-0.38 -0.07,0.05 0.48,-0.36 -0.03,0.02 0.24,-0.19 -0.09,0.07 0.24,-0.22 h -0.03 l 0.63,-0.6 c 0.48,-0.48 1.27,-0.48 1.77,0.03 0.48,0.48 0.48,1.27 -0.02,1.75 l -0.6,0.6 -0.02,0.02 -0.24,0.24 -0.08,0.08 -0.24,0.19 -0.04,0.02 -0.48,0.36 -0.08,0.05 -0.6,0.38 -0.04,0.03 -0.17,0.09 -0.03,0.03 -0.48,0.24 -0.02,0.02 -0.34,0.17 0.08,-0.02 -0.48,0.28 v 0 l -0.46,0.27 0.02,-0.03 -0.36,0.22 v 0.02 l -0.43,0.24 v 0 l -0.48,0.29 v 0 l -0.6,0.34 h -0.02 l -0.39,0.21 v 0 l -0.21,0.12 h 0.02 l -0.17,0.1 h -0.02 l -0.24,0.14 -0.05,0.03 -0.41,0.19 h 0.05 l -0.45,0.24 v 0 l -0.34,0.19 h -0.02 l -0.51,0.29 0.03,-0.02 -0.17,0.09 v 0 l -0.22,0.12 c -0.05,0.03 -0.07,0.05 -0.12,0.07 l -0.72,0.32 0.05,-0.03 -0.17,0.07 h 0.03 l -0.15,0.08 -0.07,0.02 -0.29,0.14 v 0 l -0.14,0.05 v 0 l -0.17,0.07 -0.1,0.05 -0.07,0.03 0.05,-0.03 -0.19,0.07 0.09,-0.02 -0.09,0.05 v -0.03 l -0.07,0.05 -0.05,0.03 -0.27,0.12 h 0.03 l -0.22,0.09 h 0.03 l -0.17,0.07 v 0.03 l -0.07,0.02 -0.05,0.03 -0.07,0.04 v 0 h -0.03 v 0 l -0.17,0.08 0.15,-0.08 -0.07,0.05 0.02,-0.02 -0.05,0.05 -0.05,0.02 -0.14,0.07 -0.05,0.05 -0.62,0.31 -0.1,0.05 -0.14,0.05 v 0 l -0.1,0.05 0.07,-0.05 -0.04,0.02 0.09,-0.05 -0.05,0.03 -0.04,0.02 -0.27,0.15 -0.09,0.04 -0.12,0.05 0.09,-0.05 -0.17,0.08 0.1,-0.05 -0.05,0.05 h -0.05 l -0.09,0.07 -0.1,0.05 -0.05,0.02 0.03,-0.02 -0.07,0.02 h 0.02 l -0.05,0.02 v 0 l -0.17,0.08 0.08,-0.03 -0.08,0.05 0.03,-0.02 -0.17,0.09 0.05,-0.02 -0.31,0.19 h 0.02 l -0.14,0.1 -0.08,0.04 -0.07,0.03 0.03,-0.03 -0.1,0.08 0.07,-0.05 -0.046,0.02 h 0.026 l -0.05,0.03 -0.048,0.04 -0.12,0.05 0.168,-0.12 -0.12,0.12 0.072,-0.07 -0.048,0.05 -0.048,0.05 -0.144,0.14 -0.048,0.05 -0.168,0.14 0.072,-0.07 -0.216,0.22 0.096,-0.1 -0.096,0.1 h 0.024 l -0.072,0.07 v 0.02 l -0.024,0.03 -0.048,0.04 h -0.024 c -0.048,0.08 -0.096,0.12 -0.144,0.15 L 99,676.99 v 0 l -0.024,0.03 0.072,-0.05 -0.12,0.09 0.048,-0.04 -0.024,0.04 h -0.024 l -0.072,0.08 h 0.024 l -0.072,0.04 0.072,-0.07 -0.096,0.12 -0.024,0.03 -0.12,0.16 -0.048,0.03 -0.192,0.21 0.072,-0.07 -0.072,0.1 0.048,-0.05 -0.024,0.02 -0.048,0.05 -0.072,0.12 0.024,-0.02 -0.048,0.05 0.024,-0.03 -0.024,0.03 0.048,-0.08 v 0.03 l -0.048,0.07 -0.072,0.1 V 678 l -0.12,0.17 0.024,-0.05 -0.048,0.1 0.024,-0.08 -0.024,0.05 0.096,-0.21 V 678 c -0.024,0.07 -0.048,0.12 -0.072,0.19 l -0.072,0.1 v 0.02 l -0.096,0.17 0.048,-0.07 -0.048,0.07 0.024,-0.05 -0.072,0.17 0.048,-0.12 -0.024,0.07 v 0 l -0.024,0.07 0.024,-0.04 -0.096,0.38 0.024,-0.1 -0.072,0.36 c 0,0.1 -0.048,0.22 -0.096,0.32 v 0 l 0.096,-0.32 -0.048,0.29 0.024,-0.09 -0.024,0.16 v -0.04 0.12 0 0 -0.05 0.19 -0.1 l 0.024,0.08 h -0.024 l 0.024,0.07 -0.024,-0.1 0.024,0.07 -0.024,-0.04 0.048,0.12 -0.024,-0.05 0.024,0.12 -0.024,-0.1 0.072,0.17 -0.048,-0.1 0.048,0.08 -0.048,-0.05 0.096,0.14 -0.048,-0.05 0.144,0.2 -0.072,-0.08 0.072,0.05 -0.072,-0.07 v 0.02 0 h 0.024 l -0.048,-0.02 0.024,0.02 -0.048,-0.07 0.024,0.03 v 0 l 0.12,0.09 v 0.03 l 0.144,0.12 -0.024,-0.05 0.072,0.07 0.048,0.02 0.072,0.08 -0.144,-0.12 0.024,0.02 0.072,0.05 0.048,0.02 -0.096,-0.05 h 0.024 l -0.048,-0.02 0.12,0.07 -0.12,-0.05 h 0.048 v 0 l 0.072,0.03 v 0 l 0.072,0.02 h -0.024 0.024 l -0.144,-0.02 h 0.024 l 0.096,0.02 h 0.048 c 0.048,0.03 0.096,0.05 0.144,0.07 h 0.024 L 98.4,680.5 h 0.024 c 0.072,0.02 0.144,0.04 0.192,0.07 l 0.048,0.02 -0.336,-0.09 h 0.024 c 0.072,0 0.144,0.02 0.216,0.04 v 0 L 98.376,680.5 H 98.4 v 0 h 0.024 v 0 l 0.072,0.02 0.072,0.02 h 0.048 l -0.144,-0.02 h 0.024 v 0 h 0.024 -0.144 v 0 c 0.048,0 0.096,0 0.144,0 l 0.096,0.02 h -0.024 v 0 h 0.072 0.096 -0.024 l 0.144,0.03 v 0 l 0.24,0.05 -0.144,-0.03 h 0.216 -0.024 0.096 -0.072 0.144 -0.048 0.048 -0.024 l 0.048,-0.02 h 0.024 l 0.096,-0.03 v 0 h 0.072 -0.048 0.048 l 0.12,-0.02 v 0 h 0.024 0.024 v 0 l 0.096,-0.02 -0.096,0.02 0.096,-0.02 0.12,-0.03 h 0.048 l -0.144,0.03 h 0.024 -0.024 0.024 l -0.096,0.02 h 0.024 c 0.024,-0.02 0.072,-0.02 0.12,-0.05 h 0.072 c 0.046,-0.02 0.096,-0.02 0.146,-0.02 l 0.12,-0.03 h 0.07 0.07 l -0.29,0.05 0.03,-0.02 -0.218,0.09 h 0.024 v 0 0 c 0.164,-0.09 0.364,-0.14 0.554,-0.14 v 0 0 h 0.02 l -0.574,0.14 h 0.024 c 0.17,-0.09 0.34,-0.14 0.53,-0.14 h 0.02 l -0.55,0.14 v 0 c 0.17,-0.09 0.36,-0.14 0.55,-0.14 v 0 l -0.19,0.02 h 0.02 l -0.19,0.03 v 0 c 0.12,-0.03 0.24,-0.05 0.39,-0.05 v 0 0 0 l -0.652,0.19 v 0 c 0.096,-0.05 0.192,-0.09 0.292,-0.14 v 0 l -0.15,0.07 v 0 c 0.07,-0.05 0.15,-0.07 0.24,-0.1 v 0 l -0.24,0.1 0.03,-0.02 c 0.04,-0.03 0.09,-0.05 0.16,-0.08 v 0 0 0 0 h 0.03 c 0.12,-0.04 0.24,-0.07 0.38,-0.04 v 0 0 0 l -0.31,0.02 h 0.02 l -0.07,0.02 h 0.03 l 0.07,-0.02 h 0.02 l -0.09,0.02 h 0.02 l -0.17,0.05 v 0 l 0.07,-0.02 0.03,-0.03 c 0.05,-0.02 0.12,-0.02 0.17,-0.04 h 0.02 c 0.1,-0.03 0.19,-0.05 0.29,-0.05 h 0.02 l -0.38,0.07 v 0 0 0 c 0.12,-0.05 0.26,-0.07 0.38,-0.07 h 0.03 l -0.32,0.02 h 0.03 c 0.02,0 0.07,-0.02 0.14,-0.02 v 0 c 0.07,0 0.12,0 0.17,0 h 0.02 l -0.38,0.05 v 0 0 0 l -0.456,0.28 0.026,-0.02 c 0.21,-0.22 0.5,-0.34 0.84,-0.34 v 0 l -0.67,0.22 v -0.02 c 0.07,-0.05 0.16,-0.08 0.24,-0.12 h 0.02 l -0.22,0.12 v -0.03 c 0.12,-0.07 0.24,-0.12 0.39,-0.14 v 0 c 0.09,-0.03 0.19,-0.03 0.31,-0.03 v 0 l -0.31,0.03 h 0.02 v 0 l 0.05,-0.03 -0.14,0.05 h 0.02 c 0.05,-0.02 0.1,-0.05 0.14,-0.05 v 0 l -0.12,0.03 h 0.03 v 0 h 0.02 l -0.09,0.02 0.04,-0.02 0.05,-0.03 0.1,-0.02 -0.12,0.05 0.05,-0.03 -0.03,0.03 0.03,-0.03 -0.08,0.05 0.03,-0.02 v 0 l 0.02,-0.03 0.07,-0.02 v 0 c 0.08,-0.05 0.17,-0.07 0.24,-0.1 h 0.03 l -0.31,0.12 h 0.02 c 0.05,-0.04 0.1,-0.07 0.14,-0.09 l 0.12,-0.05 v 0 l 0.05,-0.02 -0.09,0.04 0.04,-0.02 v 0 l 0.2,-0.1 c 0.07,-0.04 0.16,-0.09 0.26,-0.12 l 0.07,-0.02 -0.26,0.12 0.12,-0.07 v 0 l 0.02,-0.03 -0.09,0.08 v 0 c 0.19,-0.15 0.38,-0.22 0.6,-0.22 v 0 h 0.02 v 0 h -0.02 v 0 h 0.02 v 0 0 0 h 0.02 v 0 0 0 l -0.28,0.05 v 0 c 0.16,-0.05 0.33,-0.07 0.5,-0.03 h 0.02 l -0.62,0.08 v 0 c 0.19,-0.1 0.41,-0.12 0.62,-0.1 h 0.03 l -0.65,0.1 h 0.02 c 0.08,-0.05 0.17,-0.08 0.27,-0.1 v 0 l -0.07,0.02 v 0 l -0.2,0.05 h 0.03 v 0 0 l 0.09,-0.05 v 0 l -0.19,0.1 0.07,-0.05 c 0.1,-0.05 0.2,-0.09 0.29,-0.12 h 0.03 v 0 h 0.02 0.02 l 0.08,-0.02 -0.41,0.21 v 0 c 0.17,-0.16 0.43,-0.26 0.67,-0.24 v 0 l -0.34,0.05 v 0 c 0.44,-0.14 0.89,0.07 1.06,0.48 z"
         style="fill:#000000;fill-opacity:1;fill-rule:nonzero;stroke:none"
         transform="matrix(1.3333333,0,0,-1.3333333,0,1120.8)" />
    </g>
    <g
       id="g147"
       transform="matrix(8.9163621,0,0,8.9163621,-1097.7636,-1808.3131)">
      <path
         id="path147"
         d="m 101.86,682.66 -0.03,-0.05 c -0.05,-0.24 -0.02,-0.48 0.1,-0.7 v 0 l -0.07,0.19 v -0.02 c 0.02,-0.07 0.04,-0.12 0.07,-0.19 v 0 l -0.1,0.29 v -0.03 l 0.05,0.51 h -0.02 c -0.05,-0.2 -0.05,-0.41 0,-0.58 v 0 c 0.07,-0.19 0.16,-0.36 0.33,-0.48 v 0 l -0.24,0.29 v 0 -0.05 h 0.03 l -0.05,0.07 v 0 l -0.07,0.17 v 0 c 0.02,-0.07 0.04,-0.12 0.07,-0.17 v 0 c 0.02,-0.05 0.05,-0.09 0.07,-0.14 v 0 l -0.14,0.72 v 0 c -0.08,-0.34 0.04,-0.7 0.33,-0.91 v 0 l -0.31,0.45 v -0.02 l -0.02,0.41 v 0 c -0.08,-0.46 0.21,-0.89 0.64,-1.04 v 0 l -0.62,0.6 h 0.02 c 0.03,-0.07 0.05,-0.12 0.08,-0.19 v 0 l -0.1,0.75 v 0 c -0.07,-0.27 -0.02,-0.53 0.1,-0.77 v 0 l -0.1,0.77 v 0 c -0.05,-0.2 -0.05,-0.39 0.02,-0.56 v 0 c 0.1,-0.36 0.39,-0.6 0.75,-0.64 v -0.03 l -0.65,0.46 v 0 l -0.1,0.19 v 0 c 0.03,-0.05 0.05,-0.1 0.08,-0.14 v -0.05 l -0.08,0.69 v 0 c -0.07,-0.26 -0.02,-0.55 0.12,-0.76 v 0 l -0.09,0.19 v 0 l -0.03,0.12 v 0 c 0.03,-0.12 0.08,-0.24 0.15,-0.34 v 0 l -0.15,0.39 v -0.03 c 0.03,-0.21 0.12,-0.41 0.29,-0.55 v 0 l -0.14,0.17 v 0 c 0.05,-0.05 0.07,-0.12 0.14,-0.17 v 0 l -0.24,0.38 v 0 0 0 c 0.07,-0.21 0.19,-0.38 0.36,-0.5 v 0 l -0.36,0.48 v 0 l 0.03,0.58 h -0.03 c -0.07,-0.29 -0.02,-0.63 0.17,-0.87 v -0.02 l -0.14,0.31 v 0 0 -0.02 l -0.03,0.43 v 0 l 0.03,0.14 v 0 c -0.08,-0.17 -0.08,-0.38 0,-0.57 v -0.03 l -0.03,0.15 v -0.03 c 0,-0.05 0.03,-0.12 0.05,-0.17 v -0.02 l -0.02,0.05 0.02,-0.03 0.02,-0.09 v 0 0 l 0.03,-0.03 0.02,-0.04 v -0.03 c 0.03,-0.05 0.05,-0.07 0.07,-0.12 v 0 l 0.05,-0.09 0.05,-0.03 -0.1,0.12 0.05,-0.07 -0.05,0.07 0.03,-0.02 0.02,-0.05 0.07,-0.14 v 0 l 0.1,-0.17 0.02,-0.05 0.05,-0.05 -0.02,0.05 0.02,-0.05 0.03,-0.05 v -0.02 l -0.03,0.02 h 0.03 c 0.02,-0.04 0.04,-0.09 0.07,-0.12 h 0.02 v 0 -0.02 c 0.03,-0.05 0.07,-0.07 0.12,-0.12 l 0.03,-0.02 -0.12,0.12 v 0 c 0.04,-0.05 0.09,-0.1 0.14,-0.15 v 0 l -0.22,0.24 h 0.03 c 0.07,-0.14 0.19,-0.26 0.33,-0.33 v -0.03 l -0.26,0.24 v 0 l -0.14,0.27 v 0 c 0.02,-0.1 0.09,-0.2 0.16,-0.29 v 0 l -0.12,0.17 0.03,-0.03 v -0.02 l 0.02,-0.03 -0.05,0.08 0.03,-0.03 c 0.02,-0.07 0.05,-0.12 0.09,-0.19 l 0.03,-0.02 -0.05,0.07 0.02,-0.03 0.05,-0.09 0.05,-0.03 v -0.02 l 0.02,-0.02 -0.04,0.07 0.04,-0.07 -0.04,0.04 0.19,-0.28 v 0 0 l -0.03,0.04 0.08,-0.14 v 0.02 -0.04 l 0.02,-0.08 0.02,-0.02 0.05,-0.07 0.03,-0.05 -0.03,0.07 0.03,-0.05 c 0,-0.02 0.02,-0.04 0.04,-0.09 l 0.2,-0.24 0.04,-0.05 0.03,-0.05 0.02,-0.02 v -0.03 l -0.05,0.08 0.05,-0.05 -0.05,0.05 0.24,-0.39 0.05,-0.05 0.03,-0.02 -0.03,0.02 0.03,-0.02 c 0.02,-0.05 0.04,-0.1 0.09,-0.14 l 0.07,-0.08 h -0.02 l 0.05,-0.04 0.02,-0.03 0.15,-0.17 v 0.03 l 0.02,-0.03 -0.05,0.03 0.07,-0.07 -0.02,0.02 0.05,-0.05 v 0 l 0.02,-0.05 -0.05,0.1 0.05,-0.07 h -0.02 l 0.02,-0.03 0.03,-0.04 0.07,-0.1 0.05,-0.07 0.12,-0.12 -0.03,0.02 0.07,-0.09 0.08,-0.08 0.19,-0.21 h -0.03 l 0.24,-0.24 v 0 l 0.2,-0.22 v 0 l 0.02,-0.05 0.07,-0.04 0.1,-0.1 v 0 l 0.09,-0.1 -0.07,0.1 0.19,-0.24 -0.04,0.05 0.07,-0.07 0.07,-0.08 0.12,-0.14 0.02,-0.05 0.12,-0.09 v 0 l 0.2,-0.22 v 0.02 l 0.28,-0.31 -0.04,0.07 0.07,-0.09 h -0.03 l 0.1,-0.1 -0.02,0.03 0.02,-0.03 0.1,-0.09 0.07,-0.08 v 0 l 0.07,-0.09 -0.02,0.02 0.07,-0.07 -0.05,0.05 0.12,-0.12 0.02,-0.03 0.08,-0.09 0.04,-0.05 0.03,-0.02 -0.1,0.09 0.07,-0.07 -0.04,0.07 0.02,-0.05 c 0.02,-0.04 0.07,-0.09 0.1,-0.12 l 0.09,-0.12 0.03,-0.02 v -0.02 l -0.05,0.07 0.09,-0.12 -0.02,0.02 0.1,-0.12 0.07,-0.07 0.19,-0.22 -0.07,0.1 0.12,-0.17 0.02,-0.02 0.12,-0.17 0.03,-0.02 0.09,-0.1 0.03,-0.05 0.19,-0.19 v 0 l 0.12,-0.14 -0.03,0.02 0.12,-0.12 0.03,-0.05 0.07,-0.07 v 0 l 0.1,-0.12 0.07,-0.07 0.05,-0.03 -0.08,0.08 0.1,-0.15 v 0.03 l 0.1,-0.1 0.02,-0.05 0.14,-0.17 0.03,-0.02 0.07,-0.07 -0.05,0.05 0.17,-0.2 v 0 l 0.05,-0.04 v 0 l 0.02,-0.03 0.07,-0.07 0.08,-0.07 v -0.03 l 0.09,-0.07 -0.07,0.05 0.24,-0.24 -0.02,0.02 0.12,-0.12 -0.03,0.03 0.19,-0.24 -0.02,0.05 v -0.03 c 0.05,-0.05 0.1,-0.09 0.14,-0.14 l 0.03,-0.03 -0.05,0.05 0.05,-0.05 v 0.03 l 0.05,-0.07 -0.05,0.04 0.19,-0.21 0.02,-0.03 0.34,-0.38 h 0.02 l 0.29,-0.31 0.03,-0.03 0.12,-0.12 0.02,-0.02 0.07,-0.07 -0.07,0.07 0.14,-0.17 -0.02,0.05 0.22,-0.29 h 0.02 l 0.05,-0.09 v 0.02 l 0.41,-0.5 v -0.03 l 0.14,-0.19 v 0 l 0.07,-0.07 v 0 l 0.1,-0.12 -0.07,0.09 0.21,-0.33 0.03,-0.03 0.14,-0.21 0.02,-0.05 0.08,-0.07 -0.08,0.09 0.12,-0.19 v 0 l 0.1,-0.14 v 0 l 0.07,-0.12 -0.02,0.02 0.09,-0.17 0.03,-0.02 0.09,-0.14 -0.02,0.02 0.19,-0.34 -0.02,0.05 0.19,-0.33 v 0 l 0.12,-0.22 -0.05,0.07 0.22,-0.48 -0.05,0.1 0.02,-0.05 0.05,-0.1 0.12,-0.26 -0.02,0.02 0.09,-0.24 v 0 l 0.05,-0.07 -0.05,0.07 0.12,-0.26 v 0 l 0.08,-0.26 v 0.02 l 0.07,-0.24 0.02,-0.02 0.03,-0.08 -0.05,0.1 0.05,-0.17 v 0.05 -0.07 0.09 -0.07 l 0.02,-0.09 v -0.03 c 0.14,-0.69 0.79,-1.13 1.49,-0.98 0.69,0.12 1.13,0.79 0.98,1.49 v 0.02 -0.07 0.09 c 0,0.05 -0.02,0.1 -0.02,0.15 l -0.03,0.07 v 0 l -0.04,0.17 -0.05,0.12 -0.03,0.07 0.03,-0.07 -0.07,0.24 v 0.02 l -0.1,0.27 v 0.02 l -0.1,0.26 -0.02,0.08 -0.05,0.09 v 0 l -0.09,0.22 -0.03,0.05 -0.12,0.26 0.05,-0.12 -0.02,0.05 -0.03,0.09 -0.21,0.48 -0.05,0.1 -0.12,0.22 v 0 l -0.17,0.33 -0.02,0.03 -0.2,0.33 -0.02,0.03 -0.1,0.14 0.03,-0.02 -0.1,0.16 -0.02,0.03 -0.07,0.14 v 0 l -0.1,0.15 v 0 l -0.12,0.19 c -0.02,0.02 -0.05,0.07 -0.07,0.09 l -0.07,0.08 0.04,-0.08 -0.14,0.22 h 0.02 l -0.24,0.34 -0.07,0.09 -0.09,0.12 v 0 l -0.05,0.07 v -0.02 l -0.15,0.19 v 0 l -0.4,0.53 h -0.03 l -0.05,0.1 v -0.03 l -0.24,0.29 -0.02,0.05 -0.14,0.17 -0.08,0.07 -0.07,0.07 0.05,-0.02 -0.14,0.12 0.02,-0.03 -0.31,0.34 v -0.03 l -0.34,0.39 0.03,-0.03 -0.2,0.24 -0.04,0.05 -0.08,0.05 v 0.02 l -0.04,0.03 -0.05,0.05 v 0.02 l 0.14,-0.17 -0.02,0.03 -0.05,0.04 -0.19,0.24 h -0.03 l -0.09,0.12 v 0 l -0.24,0.24 -0.05,0.08 -0.07,0.07 v 0 l -0.07,0.07 0.07,-0.07 -0.05,0.02 v 0 l -0.02,0.05 0.02,-0.02 -0.17,0.19 -0.05,0.07 -0.09,0.07 0.02,-0.02 -0.14,0.17 0.05,-0.05 -0.1,0.09 v 0.03 l -0.12,0.14 c -0.05,0.03 -0.07,0.05 -0.1,0.07 l -0.04,0.05 0.07,-0.07 -0.12,0.14 v 0 l -0.07,0.08 0.02,-0.03 -0.12,0.12 v 0.03 l -0.14,0.14 v 0 l -0.2,0.19 0.03,-0.02 -0.07,0.09 0.02,-0.02 -0.14,0.17 0.02,-0.03 -0.12,0.17 c -0.05,0.03 -0.07,0.07 -0.1,0.1 l -0.21,0.21 0.07,-0.07 -0.1,0.1 -0.02,0.02 -0.07,0.1 -0.07,0.07 v 0.02 l 0.02,-0.04 -0.1,0.12 0.08,-0.1 -0.05,0.05 -0.03,0.05 -0.07,0.07 c -0.02,0.05 -0.07,0.09 -0.12,0.14 l -0.02,0.03 0.07,-0.08 -0.1,0.1 0.03,-0.02 -0.1,0.12 -0.05,0.02 -0.04,0.07 v 0 l -0.1,0.1 v 0 l -0.07,0.07 0.05,-0.07 -0.03,0.05 -0.02,0.02 -0.1,0.12 v 0 l -0.07,0.07 -0.05,0.05 -0.29,0.29 -0.02,0.02 -0.22,0.19 h -0.02 l -0.1,0.12 0.05,-0.04 -0.14,0.14 0.02,-0.05 -0.05,0.07 -0.04,0.03 -0.22,0.21 c -0.02,0.03 -0.05,0.08 -0.07,0.1 l -0.12,0.07 0.02,-0.02 -0.09,0.09 v 0 l -0.03,0.03 0.03,-0.03 -0.2,0.2 v 0 l -0.24,0.24 h 0.03 l -0.19,0.19 0.02,-0.05 -0.07,0.1 v 0 l -0.12,0.12 0.07,-0.08 -0.05,0.08 v -0.03 l -0.02,0.05 0.02,-0.02 -0.05,0.07 c -0.02,0.02 -0.04,0.07 -0.07,0.09 l -0.05,0.03 h 0.03 l -0.05,0.05 -0.02,0.02 -0.05,0.07 -0.07,0.07 -0.03,0.03 v 0 l -0.14,0.14 0.02,-0.02 -0.07,0.07 v 0 l -0.05,0.07 0.07,-0.12 -0.02,0.05 -0.02,0.02 -0.03,0.05 0.03,-0.05 -0.24,0.36 -0.05,0.03 -0.05,0.07 c -0.02,0.05 -0.05,0.1 -0.1,0.12 l -0.02,0.02 0.05,-0.02 -0.05,0.02 0.05,-0.04 -0.22,0.24 0.07,-0.08 -0.02,0.03 -0.02,0.05 -0.05,0.04 v 0 l -0.03,0.03 0.05,-0.07 v 0.02 0 l -0.09,0.12 -0.03,0.05 v 0 0.02 l -0.21,0.29 -0.03,0.05 -0.07,0.05 c -0.02,0.07 -0.07,0.09 -0.12,0.14 l -0.02,0.02 0.09,-0.09 -0.02,0.05 0.02,-0.05 -0.02,0.02 -0.05,0.07 -0.02,0.03 0.14,-0.19 -0.02,0.02 -0.05,0.07 v 0.03 l 0.05,-0.08 -0.03,0.03 c -0.05,0.09 -0.12,0.17 -0.19,0.24 h -0.02 l 0.21,-0.27 v 0.03 c -0.05,0.09 -0.12,0.19 -0.21,0.26 v 0 c -0.1,0.07 -0.2,0.15 -0.29,0.19 v 0 l 0.38,-0.31 v 0.03 c -0.09,0.09 -0.19,0.19 -0.29,0.24 h -0.02 l 0.19,-0.12 v 0 l -0.07,0.04 -0.02,0.03 0.07,-0.05 h -0.03 v 0 0.02 l 0.1,-0.09 h -0.02 v 0 0.02 -0.02 0.02 l -0.05,0.05 -0.05,0.05 0.05,-0.05 -0.1,0.12 v 0 l -0.09,0.14 -0.03,0.03 h -0.02 c -0.03,0.05 -0.05,0.07 -0.07,0.12 l -0.08,0.05 -0.02,0.02 -0.02,0.02 -0.1,0.08 v 0 l 0.14,-0.12 h -0.02 v 0 0.02 0 h -0.02 l 0.09,-0.12 v 0.02 l -0.05,0.05 -0.02,0.03 0.14,-0.22 h -0.02 v 0.05 l -0.02,0.02 0.04,-0.12 v 0 l 0.05,-0.14 v 0 c -0.02,0.14 -0.09,0.29 -0.17,0.41 v 0 0 0 c -0.04,0.07 -0.12,0.14 -0.16,0.19 l -0.03,0.02 0.29,-0.45 v 0 c -0.02,0.09 -0.05,0.16 -0.1,0.24 v 0 c -0.12,0.19 -0.28,0.31 -0.48,0.38 v 0 l 0.46,-0.36 v 0 0 0 c -0.05,0.1 -0.12,0.17 -0.22,0.24 h -0.02 l -0.02,0.02 v 0 c -0.03,0.03 -0.08,0.08 -0.12,0.1 v 0 l 0.4,-0.43 v 0 c -0.07,0.14 -0.16,0.26 -0.28,0.36 v 0 l 0.16,-0.17 v 0 l 0.08,-0.1 v 0 c -0.08,0.12 -0.17,0.2 -0.27,0.27 v 0.02 l 0.36,-0.53 v 0 c -0.05,0.2 -0.14,0.36 -0.31,0.48 l -0.02,0.03 0.19,-0.22 h -0.03 c -0.04,0.12 -0.14,0.22 -0.24,0.29 v 0 c -0.21,0.12 -0.45,0.19 -0.69,0.14 v 0 l 0.93,-0.4 v 0 l 0.12,-0.24 h -0.02 c -0.05,0.19 -0.17,0.38 -0.36,0.5 v 0 l 0.36,-0.5 v 0 c -0.05,0.21 -0.19,0.38 -0.36,0.5 v 0 l 0.26,-0.26 h -0.02 c -0.22,0.36 -0.65,0.52 -1.06,0.38 v 0 c -0.48,-0.14 -0.74,-0.65 -0.62,-1.13 0.12,-0.48 0.6,-0.77 1.08,-0.67 0.5,0.1 0.82,0.55 0.74,1.06 v 0 c 0,0.09 -0.04,0.19 -0.07,0.26 v 0.02 c -0.12,0.24 -0.33,0.41 -0.57,0.48 v 0 l 0.62,-0.69 v 0 c -0.05,0.21 -0.17,0.41 -0.34,0.55 v 0 c -0.04,0.02 -0.07,0.05 -0.12,0.07 v 0 l 0.29,-0.26 v 0.02 c -0.07,0.1 -0.17,0.19 -0.29,0.24 v 0.03 l 0.27,-0.24 -0.03,0.02 c -0.04,0.07 -0.14,0.14 -0.21,0.19 v 0 c -0.07,0.05 -0.12,0.07 -0.19,0.1 v 0 l 0.45,-0.36 v 0 l 0.1,-0.19 v 0 l -0.03,0.07 v 0 c -0.07,0.17 -0.19,0.31 -0.33,0.41 v 0 l 0.26,-0.27 v 0 c -0.09,0.1 -0.17,0.19 -0.29,0.27 v 0 l 0.32,-0.32 -0.03,0.05 c -0.19,0.31 -0.55,0.48 -0.91,0.43 -0.36,-0.04 -0.65,-0.31 -0.74,-0.64 z"
         style="fill:#000000;fill-opacity:1;fill-rule:nonzero;stroke:none"
         transform="matrix(1.3333333,0,0,-1.3333333,0,1120.8)" />
    </g>
    <g
       id="g148"
       transform="matrix(8.9163621,0,0,8.9163621,-1097.7636,-1808.3131)">
      <path
         id="path148"
         d="m 101.93,673.06 -0.05,-0.1 v 0 l -0.05,-0.12 0.03,0.05 -0.15,-0.27 v -0.02 l -0.17,-0.31 v 0 l -0.45,-0.94 -0.03,-0.02 -0.19,-0.43 0.03,0.04 -0.94,-1.77 v -0.03 l -0.072,-0.12 -0.024,-0.04 -0.384,-0.89 h -0.024 l -0.048,-0.17 -0.024,-0.07 -0.24,-0.6 -0.024,-0.12 -0.024,-0.05 c -0.072,-0.34 0.048,-0.72 0.312,-0.96 0.264,-0.26 0.622,-0.36 0.982,-0.24 0.36,0.1 0.63,0.38 0.7,0.74 l 0.02,0.05 -0.02,-0.05 0.19,0.63 -0.02,-0.05 0.04,0.19 v -0.05 l 0.34,0.92 -0.02,-0.05 0.07,0.12 v 0 l 0.84,1.82 0.02,0.05 0.17,0.43 v 0 l 0.38,0.96 0.03,0.05 0.09,0.34 -0.02,-0.05 0.12,0.26 c 0.02,0.05 0.05,0.12 0.05,0.17 l 0.02,0.12 v 0 l 0.03,0.1 c 0.07,0.38 -0.17,0.76 -0.56,0.88 -0.38,0.12 -0.79,-0.04 -0.93,-0.4 z"
         style="fill:#000000;fill-opacity:1;fill-rule:nonzero;stroke:none"
         transform="matrix(1.3333333,0,0,-1.3333333,0,1120.8)" />
    </g>
    <g
       id="g149"
       transform="matrix(8.9163621,0,0,8.9163621,-1097.7636,-1808.3131)">
      <path
         id="path149"
         d="m 105.43,671.9 -0.07,-0.09 c -0.02,-0.05 -0.07,-0.1 -0.12,-0.17 l -0.36,-0.74 -0.02,-0.03 -0.56,-1.2 v -0.02 l -0.57,-1.25 -0.03,-0.02 -0.09,-0.27 0.02,0.03 -0.14,-0.29 -0.05,-0.12 -0.22,-0.72 -0.02,-0.1 -0.05,-0.24 0.1,0.29 v -0.02 c -0.19,-0.34 -0.19,-0.77 0.02,-1.11 0.22,-0.31 0.6,-0.5 1.01,-0.45 0.38,0.02 0.72,0.28 0.86,0.67 l 0.03,0.02 c 0.02,0.07 0.05,0.15 0.05,0.24 l 0.04,0.24 -0.04,-0.12 0.21,0.75 -0.02,-0.05 0.09,0.31 v -0.02 l 0.08,0.26 v -0.05 l 0.48,1.27 v 0 l 0.5,1.23 v 0.05 l 0.29,0.79 v -0.03 l 0.05,0.1 c 0.12,0.38 -0.03,0.82 -0.39,1.03 -0.33,0.22 -0.81,0.15 -1.08,-0.17 z"
         style="fill:#000000;fill-opacity:1;fill-rule:nonzero;stroke:none"
         transform="matrix(1.3333333,0,0,-1.3333333,0,1120.8)" />
    </g>
    <g
       id="g150"
       transform="matrix(8.9163621,0,0,8.9163621,-1097.7636,-1808.3131)">
      <path
         id="path150"
         d="m 98.904,665.42 0.144,-0.02 c 0.048,-0.02 0.12,-0.02 0.168,-0.02 l 0.984,-0.03 h 0.05 l 0.98,0.03 h -0.05 l 0.6,-0.03 h -0.02 l 1.99,-0.09 h -0.02 l 1.17,-0.1 h 0.05 l 0.1,-0.02 -0.55,0.16 h 0.02 c 0.17,-0.09 0.36,-0.16 0.55,-0.16 h 0.03 v 0 0 0 h 0.02 0.02 0.05 -0.09 0.02 c 0.1,0 0.19,0 0.29,0 l 0.07,0.02 -0.14,-0.02 h 0.02 c 0.65,0.02 1.18,0.55 1.18,1.2 0,0.64 -0.53,1.2 -1.18,1.22 h -0.02 c -0.08,0 -0.15,-0.02 -0.22,-0.02 l -0.07,-0.03 0.07,0.03 h -0.02 0.09 -0.05 -0.02 -0.02 v 0 0 0 h -0.03 l 0.58,-0.12 h -0.03 c -0.19,0.09 -0.38,0.14 -0.57,0.12 h -0.1 0.05 -1.18 -0.02 l -1.99,-0.03 h -0.03 l -0.6,-0.02 h -0.09 l -0.99,-0.12 h -0.02 l -0.984,-0.15 0.096,0.03 -0.168,-0.03 c -0.456,-0.02 -0.816,-0.38 -0.84,-0.84 -0.048,-0.45 0.264,-0.86 0.72,-0.96 z"
         style="fill:#000000;fill-opacity:1;fill-rule:nonzero;stroke:none"
         transform="matrix(1.3333333,0,0,-1.3333333,0,1120.8)" />
    </g>
    <g
       id="g151"
       transform="matrix(8.9163621,0,0,8.9163621,-1097.7636,-1808.3131)">
      <path
         id="path151"
         d="m 98.616,684.55 0.096,-0.02 c 0.048,-0.03 0.12,-0.05 0.216,-0.05 v 0 c 0.264,-0.02 0.504,0.1 0.624,0.31 0.12,0.22 0.12,0.48 0,0.7 -0.12,0.21 -0.36,0.36 -0.624,0.33 v 0 c -0.336,-0.02 -0.6,-0.28 -0.648,-0.62 v -0.07 c -0.024,-0.24 0.12,-0.48 0.336,-0.58 z"
         style="fill:#000000;fill-opacity:1;fill-rule:nonzero;stroke:none"
         transform="matrix(1.3333333,0,0,-1.3333333,0,1120.8)" />
    </g>
  </g>
</svg>
