<?xml version="1.0" encoding="UTF-8" standalone="no"?>
<svg
   width="32.904"
   height="32.387"
   version="1.1"
   viewBox="0 0 32.904 32.387"
   id="svg2"
   sodipodi:docname="symbol.svg"
   inkscape:version="1.4.3 (0d15f75, 2025-12-25)"
   xmlns:inkscape="http://www.inkscape.org/namespaces/inkscape"
   xmlns:sodipodi="http://sodipodi.sourceforge.net/DTD/sodipodi-0.dtd"
   xmlns="http://www.w3.org/2000/svg"
   xmlns:svg="http://www.w3.org/2000/svg">
  <defs
     id="defs2" />
  <sodipodi:namedview
     id="namedview2"
     pagecolor="#ffffff"
     bordercolor="#000000"
     borderopacity="0.25"
     inkscape:showpageshadow="2"
     inkscape:pageopacity="0.0"
     inkscape:pagecheckerboard="0"
     inkscape:deskcolor="#d1d1d1"
     inkscape:zoom="20.326563"
     inkscape:cx="14.537628"
     inkscape:cy="19.801675"
     inkscape:window-width="1920"
     inkscape:window-height="1191"
     inkscape:window-x="-9"
     inkscape:window-y="-9"
     inkscape:window-maximized="1"
     inkscape:current-layer="svg2" />
  <g
     transform="matrix(0.74199137,0,0,0.74199137,-471.09997,-76.008793)"
     stroke-width="1.9417"
     id="g2">
    <path
       d="m 650.7,130.45 0.69902,0.0971 h 0.0388 l 0.66018,0.0388 h 0.33009 l 1.767,-0.0971 h 0.0388 l 0.89318,-0.0388 h -0.233 l 4.9902,0.0388 1.767,0.0582 0.0388,-0.0582 1.6893,-0.0388 h -0.0971 0.0971 c 1.0291,0.0388 1.9611,-0.46601 2.4271,-1.3592 0.50484,-0.87377 0.50484,-1.9029 0,-2.7378 -0.46601,-0.89319 -1.398,-1.398 -2.4271,-1.398 h -0.0971 l -0.23301,0.0388 -1.631,0.13592 h 0.0388 l -1.6699,0.0971 h -0.0388 l -5.0484,0.42717 h -0.27184 l -0.83493,0.17476 h 0.13592 l -1.767,0.233 h 0.13592 l -0.66018,0.0583 h 0.0583 -0.69901 c -1.0679,0.0388 -1.9611,0.97085 -2,2.097 -0.0971,1.1068 0.73785,2.097 1.9029,2.233 z"
       id="path1" />
    <path
       d="m 652.43,128.59 0.13592,-0.36892 0.0388,-0.233 0.15534,-0.46601 v 0.17475 l 0.0777,-0.50484 h 0.0582 l 0.13592,-0.46601 -0.13592,0.27184 0.233,-0.50485 0.17475,-0.42717 -0.0388,0.19417 0.46601,-0.93202 -0.13592,0.23301 0.233,-0.42718 0.69902,-0.97085 -0.23301,0.23301 0.17476,-0.23301 0.0583,-0.0971 0.233,-0.23301 -0.13592,0.19417 0.13592,-0.19417 0.13592,-0.0971 0.19417,-0.23301 -0.33009,0.29126 0.17475,-0.19417 0.15534,-0.0971 0.23301,-0.17475 -0.23301,0.17475 0.23301,-0.17475 0.27183,-0.19417 -0.19417,0.13592 0.29126,-0.17476 -0.13592,0.13592 0.233,-0.19417 0.13592,-0.13592 0.23301,-0.0971 -0.36893,0.233 0.23301,-0.13592 0.73785,-0.27183 h -0.0388 l 0.23301,-0.0971 -0.23301,0.0971 0.27184,-0.0971 h 0.0971 l 0.33009,-0.13592 -0.69901,0.13592 h 0.46601 l 0.27184,-0.0971 0.27184,-0.0388 h -0.23301 0.46601 -0.46601 0.75727 -0.23301 l 0.33009,0.0388 h -0.0971 0.233 l -0.233,-0.0388 0.33009,0.0388 h -0.0971 l 0.233,0.0971 -0.13591,-0.0971 0.60192,0.233 -0.13592,-0.0971 0.13592,0.0971 -0.233,-0.0971 0.13592,0.0583 -0.13592,-0.0583 0.17475,0.0583 -0.233,-0.0971 0.19417,0.0971 0.0388,0.0388 0.15534,0.0971 0.13592,0.0971 0.17475,0.13592 -0.54368,-0.46601 0.13592,0.13592 0.17476,0.19417 0.15533,0.13592 -0.19417,-0.19417 0.0971,0.0971 0.17475,0.13592 -0.27184,-0.27183 0.27184,0.36892 0.15534,0.13592 0.233,0.29125 -0.33009,-0.46601 0.17476,0.36893 0.15533,0.13592 0.13592,0.33009 -0.13592,-0.36893 0.0777,0.27184 0.42717,0.89318 -0.13591,-0.233 0.13591,0.40776 v -0.0388 l 0.0971,0.36893 -0.0583,-0.13592 0.15533,0.36892 0.0388,0.19417 0.0971,0.40776 -0.0971,-0.46601 0.19417,1.2233 -0.0971,-0.233 v 0.0388 l 0.0971,0.0971 v 0.0388 l 0.0388,-0.69901 -0.0388,0.0971 c -0.0971,0.233 -0.0971,0.466 -0.0971,0.69901 v 0.0971 l 0.0971,-0.79609 v 0.13591 c -0.0971,0.23301 -0.0971,0.46601 -0.0971,0.69902 v 0.0971 l 0.23301,-1.2621 v 0.0583 c -0.0583,0.13592 -0.0971,0.233 -0.0971,0.36892 l -0.0388,0.0388 0.13592,-0.27183 h -0.0583 l -0.0388,0.0971 -0.0388,0.17475 2.33,-1.6699 h -0.0971 c -1.398,0.0971 -2.466,1.3009 -2.466,2.796 0,1.398 1.0679,2.6019 2.466,2.699 h 0.0971 c 1.165,0.0971 2.2718,-0.5631 2.7378,-1.631 l 0.0582,-0.13592 -0.0582,0.13592 v -0.0388 c 0.0582,-0.0971 0.0971,-0.233 0.13592,-0.33009 l 0.0971,-0.13591 -0.17476,0.40775 v -0.0388 c 0.23301,-0.42718 0.31068,-0.83493 0.31068,-1.2621 v -0.0971 l -0.0777,0.66018 0.0388,-0.13592 c 0.0388,-0.19417 0.0388,-0.42718 0.0388,-0.5631 v -0.0971 l -0.0388,0.66018 v -0.0971 c 0.0388,-0.233 0.13592,-0.42717 0.13592,-0.66018 v -0.17475 c 0,-0.0971 0,-0.29126 -0.0971,-0.42717 l -0.0777,-1.2039 c 0,-0.19417 -0.0583,-0.29126 -0.15534,-0.46601 l -0.0777,-0.42717 0.0388,0.19417 -0.0971,-0.46601 v -0.0971 l -0.13592,-0.42717 -0.0388,-0.13592 -0.19417,-0.36892 -0.0388,-0.33009 -0.42718,-0.83494 v -0.0971 l -0.19417,-0.27184 c -0.0388,-0.0971 -0.0777,-0.233 -0.17475,-0.33009 l -0.23301,-0.33009 0.17476,0.19417 -0.17476,-0.29125 c -0.0971,-0.17476 -0.233,-0.36893 -0.33009,-0.46601 l -0.233,-0.27184 0.0971,0.0971 -0.29125,-0.42717 c -0.0777,-0.0971 -0.17475,-0.13592 -0.27184,-0.27184 l -0.13592,-0.19417 -0.13592,-0.0971 -0.19417,-0.17476 -0.13592,-0.0971 0.17476,0.13592 -0.17476,-0.0971 c -0.13592,-0.17475 -0.33009,-0.36892 -0.56309,-0.46601 l -0.19417,-0.13592 0.19417,0.13592 -0.13592,-0.0388 h 0.0971 l -0.19418,-0.13592 -0.233,-0.0971 -0.19417,-0.13592 -0.0777,-0.0583 -0.19417,-0.0388 -0.46601,-0.27184 -0.19417,-0.0583 -0.64076,-0.17475 -0.29125,-0.0583 -0.23301,-0.0388 h -0.0388 l -0.27184,-0.0583 h -0.19417 l -0.27184,-0.0777 h -0.7961 0.23301 -0.33009 c -0.13592,-0.0583 -0.27184,-0.0583 -0.46601,0 h -0.23301 l -0.27183,0.0777 h -0.19417 l -0.27184,0.0583 -0.23301,0.0388 0.13592,-0.0388 -0.233,0.0388 c -0.23301,0 -0.46601,0.0583 -0.60193,0.19417 l -0.33009,0.0388 0.17475,-0.0388 -0.27184,0.0971 -0.19417,0.0777 -0.27183,0.0971 -0.73785,0.36893 -0.15534,0.0583 -0.27184,0.13592 c -0.13591,0.0388 -0.27183,0.13592 -0.42717,0.233 l -0.233,0.23301 0.15533,-0.13592 -0.233,0.13592 -0.15534,0.0971 -0.233,0.17476 -0.17476,0.0971 -0.233,0.233 -0.23301,0.19418 -0.233,0.233 -0.13592,0.17475 0.0777,-0.13592 -0.233,0.23301 c -0.0388,0.0971 -0.17476,0.19417 -0.27184,0.33009 l -0.19417,0.27184 0.0583,-0.13592 -0.13592,0.233 -0.15534,0.19417 -0.17475,0.23301 0.0971,-0.0583 -0.19417,0.23301 c -0.0388,0.0971 -0.13592,0.19417 -0.19417,0.29125 l -0.54367,1.0679 -0.15534,0.23301 -0.17475,0.466 -0.0582,0.13592 -0.17476,0.46601 -0.13592,0.46601 -0.0971,0.233 -0.0583,0.42718 v -0.0583 l -0.0777,0.52426 -0.0971,0.27184 -0.0582,0.56309 v -0.13592 l -0.0388,0.50484 -0.0388,0.19417 v 0.50485 l -0.0971,0.42717 c 0,1.0679 0.69901,2 1.767,2.1359 1.0291,0.23301 2.097,-0.33009 2.4271,-1.3009 z"
       id="path2" />
  </g>
</svg>
