<?xml version="1.0" encoding="UTF-8" standalone="no"?>
<!-- Created with Inkscape (http://www.inkscape.org/) -->

<svg
   version="1.1"
   id="svg1"
   width="168.09334"
   height="272.56018"
   viewBox="0 0 168.09334 272.56019"
   sodipodi:docname="goddess.svg"
   inkscape:version="1.4.3 (0d15f75, 2025-12-25)"
   xml:space="preserve"
   xmlns:inkscape="http://www.inkscape.org/namespaces/inkscape"
   xmlns:sodipodi="http://sodipodi.sourceforge.net/DTD/sodipodi-0.dtd"
   xmlns="http://www.w3.org/2000/svg"
   xmlns:svg="http://www.w3.org/2000/svg"><defs
     id="defs1" /><sodipodi:namedview
     id="namedview1"
     pagecolor="#ffffff"
     bordercolor="#000000"
     borderopacity="0.25"
     inkscape:showpageshadow="2"
     inkscape:pageopacity="0.0"
     inkscape:pagecheckerboard="0"
     inkscape:deskcolor="#d1d1d1"
     inkscape:zoom="3.1033334"
     inkscape:cx="8.7003221"
     inkscape:cy="117.45435"
     inkscape:window-width="1920"
     inkscape:window-height="1191"
     inkscape:window-x="-9"
     inkscape:window-y="-9"
     inkscape:window-maximized="1"
     inkscape:current-layer="g1" /><g
     inkscape:groupmode="layer"
     inkscape:label="Image"
     id="g1"
     transform="translate(-236.01583,-186.05514)"><path
       style="fill:#000000;fill-opacity:1;stroke:none;stroke-width:12.9;stroke-linecap:round;stroke-linejoin:round;stroke-miterlimit:15;stroke-opacity:1"
       d="m 404.10917,457.22955 c 0,0 -16.86119,-10.93699 -17.08905,-41.92513 -0.22785,-30.98814 -0.20663,-48.32008 -8.77238,-60.3813 -5.9538,-8.3834 -26.54498,-11.27877 -38.05161,-3.30388 -11.50662,7.97489 -11.50662,42.26691 -11.8484,57.4192 -0.34178,15.15229 -8.42133,32.78256 -16.62189,32.62081 -3.7735,-0.0744 -14.67314,-0.34451 -19.40993,-20.4293 -4.85543,-20.5878 -15.21391,35.42784 -15.21391,35.42784 0,0 43.98496,5.80022 52.36305,-8.05585 8.37809,-13.85607 11.43931,-29.48443 11.60043,-47.2073 0.16112,-17.72288 0.9667,-38.34586 9.5059,-40.76262 8.53921,-2.41676 22.71752,-2.25564 24.16757,15.78947 1.45005,18.04511 -3.06122,38.99033 2.73899,55.10204 5.80021,16.11171 18.62229,23.05543 26.63123,25.70602 z"
       id="path1"
       sodipodi:nodetypes="csssssscsssssc" /><path
       style="fill:#ff994c;fill-opacity:1;stroke:#000000;stroke-width:12.9;stroke-linecap:round;stroke-linejoin:round;stroke-miterlimit:15;stroke-opacity:1"
       d="m 259.56075,443.98682 c -5.92001,-3.93679 -12.38763,-14.73785 -10.50619,-31.87235 3.70493,-33.74133 11.39269,-83.50848 10.48127,-107.88885 -0.91141,-24.38037 0.1194,-56.79116 27.57033,-65.39409 6.47041,-2.02778 10.70636,-4.66764 10.70636,-4.66764 0,0 -20.14899,-1.02642 -44.22379,-6.21741 -10.52883,-2.27022 -20.06659,-23.86857 3.43259,-32.37497 13.39346,-4.84826 23.13956,-0.68798 50.36385,14.89221 57.72739,33.03681 33.72238,85.44523 22.78539,104.12926 -10.93699,18.68402 -44.45442,43.7653 -43.97581,92.73656 0.27519,28.15775 8.6699,44.13693 8.6699,44.13693 -13.38942,0.61591 -19.47056,3.04949 -35.3039,-7.47965 z"
       id="path2"
       sodipodi:nodetypes="sssscssssscs" /><path
       style="fill:#e47724;fill-opacity:1;stroke:#000000;stroke-width:13.0451;stroke-linecap:round;stroke-linejoin:round;stroke-miterlimit:15;stroke-opacity:1"
       d="m 293.55388,233.97759 c 0,0 -19.62604,0.21458 -39.53669,-6.08222 -10.50966,-3.3237 -20.59225,-23.7854 3.52251,-32.26217 13.74431,-4.83136 37.33652,-6.42093 51.68316,14.84033 14.83675,21.98758 -21.88246,23.48587 -15.66898,23.50406 z"
       id="path2-2"
       sodipodi:nodetypes="csssc" /><path
       style="fill:#000000;fill-opacity:1;stroke:none;stroke-width:13.938;stroke-linecap:butt;stroke-linejoin:round;stroke-miterlimit:15;stroke-dasharray:none;stroke-opacity:1"
       d="m 255.37476,204.82471 c 2.21953,-2.37186 3.98211,-2.8941 6.52805,-3.08994 2.54594,-0.19585 4.96132,0.9792 6.0058,2.82882 1.04449,1.84961 1.89314,6.46276 -1.67553,8.31238 -3.56866,1.84961 -8.42118,0.84865 -10.31432,-0.28288 -1.89313,-1.13153 -2.35009,-5.72293 -0.544,-7.76838 z"
       id="path6-5" /><path
       style="fill:#ffffff;fill-opacity:1;stroke:#000000;stroke-width:7;stroke-linecap:butt;stroke-linejoin:miter;stroke-miterlimit:15;stroke-dasharray:none;stroke-opacity:1"
       d="m 261.06375,262.74039 83.78088,3.22234"
       id="path3" /><path
       style="fill:#ffffff;fill-opacity:1;stroke:#000000;stroke-width:6.5;stroke-linecap:butt;stroke-linejoin:miter;stroke-miterlimit:15;stroke-dasharray:none;stroke-opacity:1"
       d="m 257.50676,296.21753 83.78088,3.22234"
       id="path3-2" /><path
       style="fill:#ffffff;fill-opacity:1;stroke:#000000;stroke-width:6;stroke-linecap:butt;stroke-linejoin:miter;stroke-miterlimit:15;stroke-dasharray:none;stroke-opacity:1"
       d="m 261.43792,327.61448 54.55052,3.2887"
       id="path3-2-5" /><path
       style="fill:#ffffff;fill-opacity:1;stroke:#000000;stroke-width:5.5;stroke-linecap:butt;stroke-linejoin:miter;stroke-miterlimit:15;stroke-dasharray:none;stroke-opacity:1"
       d="m 255.43841,360.43709 43.65429,1.81204"
       id="path3-2-5-9" /><path
       style="fill:#ffffff;fill-opacity:1;stroke:#000000;stroke-width:5;stroke-linecap:butt;stroke-linejoin:miter;stroke-miterlimit:15;stroke-dasharray:none;stroke-opacity:1"
       d="m 251.80073,389.24541 35.61541,1.84138"
       id="path3-2-5-9-4" /><path
       style="fill:#ffffff;fill-opacity:1;stroke:#000000;stroke-width:4.5;stroke-linecap:butt;stroke-linejoin:miter;stroke-miterlimit:15;stroke-dasharray:none;stroke-opacity:1"
       d="m 251.07885,411.87184 35.61541,1.84138"
       id="path3-2-5-9-4-3" /><path
       style="fill:#ffffff;fill-opacity:1;stroke:#000000;stroke-width:4;stroke-linecap:butt;stroke-linejoin:miter;stroke-miterlimit:15;stroke-dasharray:none;stroke-opacity:1"
       d="m 251.22168,428.88855 35.61541,1.84138"
       id="path3-2-5-9-4-3-8" /><path
       style="fill:#ffffff;fill-opacity:1;stroke:#000000;stroke-width:3.5;stroke-linecap:butt;stroke-linejoin:miter;stroke-miterlimit:15;stroke-dasharray:none;stroke-opacity:1"
       d="m 257.51813,439.20494 35.61541,1.84138"
       id="path3-2-5-9-4-3-8-7" /></g></svg>
