<?xml version="1.0" encoding="UTF-8" standalone="no"?>
<!-- Created with Inkscape (http://www.inkscape.org/) -->

<svg
   version="1.1"
   id="svg1"
   width="178.48503"
   height="317.10757"
   viewBox="0 0 178.48503 317.10759"
   sodipodi:docname="king.svg"
   inkscape:version="1.4.3 (0d15f75, 2025-12-25)"
   xmlns:inkscape="http://www.inkscape.org/namespaces/inkscape"
   xmlns:sodipodi="http://sodipodi.sourceforge.net/DTD/sodipodi-0.dtd"
   xmlns="http://www.w3.org/2000/svg"
   xmlns:svg="http://www.w3.org/2000/svg">
  <defs
     id="defs1" />
  <sodipodi:namedview
     id="namedview1"
     pagecolor="#ffffff"
     bordercolor="#000000"
     borderopacity="0.25"
     inkscape:showpageshadow="2"
     inkscape:pageopacity="0.0"
     inkscape:pagecheckerboard="0"
     inkscape:deskcolor="#d1d1d1"
     inkscape:zoom="1.5516666"
     inkscape:cx="186.25135"
     inkscape:cy="240.70892"
     inkscape:window-width="1920"
     inkscape:window-height="1191"
     inkscape:window-x="-9"
     inkscape:window-y="-9"
     inkscape:window-maximized="1"
     inkscape:current-layer="g1" />
  <g
     inkscape:groupmode="layer"
     inkscape:label="Image"
     id="g1"
     transform="translate(-219.5279,-153.82512)">
    <path
       style="fill:#000000;fill-opacity:1;stroke:none;stroke-width:20.438;stroke-linecap:butt;stroke-linejoin:round;stroke-miterlimit:15;stroke-dasharray:none;stroke-opacity:1;paint-order:stroke fill markers"
       d="m 314.24927,176.72234 c 0,0 -8.82934,2.36398 -11.47814,2.56336 -2.6488,0.19937 -2.53488,-1.65194 -1.96524,-3.36085 0.56963,-1.7089 3.81655,-9.05719 2.93362,-11.25029 -0.88294,-2.19309 -4.07289,-5.52546 -9.19961,-4.44315 -5.12671,1.08231 -6.69321,3.64566 -5.98116,5.98117 0.71204,2.3355 3.24692,2.93362 5.21216,2.56335 1.96524,-0.37026 4.24378,-1.28168 4.24378,-1.28168 0,0 -2.99059,5.32609 -4.07289,9.88317 -1.08231,4.55708 -0.96838,7.4907 0.79749,8.97175 1.76586,1.48105 6.66472,1.50953 10.85154,0.17089 4.18682,-1.33864 8.65845,-9.79772 8.65845,-9.79772 z"
       id="path3" />
    <path
       style="fill:#ffffff;fill-opacity:1;stroke:#010400;stroke-width:24.9062;stroke-linecap:round;stroke-linejoin:round;stroke-miterlimit:15;stroke-dasharray:none;stroke-opacity:1;paint-order:stroke fill markers"
       d="m 361.65686,254.90334 23.90374,44.15983 -28.61719,1.74465 z"
       id="path2"
       sodipodi:nodetypes="cccc" />
    <path
       style="fill:#ffffff;fill-opacity:1;stroke:#010400;stroke-width:24.5405;stroke-linecap:butt;stroke-linejoin:round;stroke-miterlimit:15;stroke-dasharray:none;stroke-opacity:1;paint-order:stroke fill markers"
       d="m 313.19204,191.78112 c 0.53775,-1.89933 7.6013,-24.89112 30.97022,-25.31394 17.47221,-0.31613 24.24018,-2.82056 37.15485,17.99714 10.79485,17.40065 -2.91102,52.16577 -16.11171,66.21912 -22.01519,23.43722 -18.52846,16.59506 -18.52846,16.59506 z"
       id="path1"
       sodipodi:nodetypes="cssscc" />
    <path
       style="fill:#ffffff;fill-opacity:1;stroke:#010400;stroke-width:12.238;stroke-linecap:butt;stroke-linejoin:round;stroke-miterlimit:15;stroke-dasharray:none;stroke-opacity:1"
       d="m 243.68032,464.81368 128.67361,-0.59263 c 0,0 6.52847,-47.44446 5.05135,-76.49466 -3.51485,-69.12532 -10.28008,-97.73841 -9.15317,-131.53616 0.17255,-5.17509 -5.99824,-2.90045 -14.8916,-3.273 -9.31674,-0.39029 -6.4603,-3.30022 -6.89763,-12.42051 -0.45893,-9.57057 -0.84236,-18.74801 -0.8533,-28.02149 -0.008,-6.70269 16.87986,-12.58326 4.56469,-23.12097 -4.69693,-4.01901 -12.22049,1.83219 -24.36744,0.18301 -3.41748,-0.46399 -16.15491,-3.54841 -16.15491,-3.54841 0,0 -16.5492,15.97342 -11.91882,26.52706 2.90314,6.61689 3.79213,21.85179 10.06652,23.06964 5.04447,0.044 14.23579,2.51891 15.87449,5.68683 5.02668,9.71756 6.56477,22.75774 5.98047,23.36485 -1.0655,1.10709 -4.74967,5.99686 -5.97471,7.96034 -12.1455,19.46666 -5.57003,21.93298 -9.74215,66.6092 -2.06021,22.06127 -4.27219,44.64703 -4.27219,44.64703 0,0 -56.93841,-51.89997 -76.68819,-34.01657 -11.878,10.75552 -6.27779,29.41948 -4.0621,34.83562 2.2157,5.41614 17.40244,46.31903 14.76508,80.14082 z"
       id="path16"
       sodipodi:nodetypes="ccssssssscsssssscssc" />
    <path
       style="fill:#000000;fill-opacity:1;stroke:none;stroke-width:13.938;stroke-linecap:butt;stroke-linejoin:round;stroke-miterlimit:15;stroke-dasharray:none;stroke-opacity:1"
       d="m 310.61321,199.78466 c 2.21953,-2.37186 3.98211,-2.8941 6.52805,-3.08994 2.54594,-0.19585 4.96132,0.9792 6.0058,2.82882 1.04449,1.84961 1.89314,6.46276 -1.67553,8.31238 -3.56866,1.84961 -8.42118,0.84865 -10.31432,-0.28288 -1.89313,-1.13153 -2.35009,-5.72293 -0.544,-7.76838 z"
       id="path6-5" />
    <path
       style="fill:#ffffff;fill-opacity:1;stroke:#010400;stroke-width:12.9;stroke-linecap:round;stroke-linejoin:round;stroke-miterlimit:15;stroke-dasharray:none;stroke-opacity:1"
       d="m 304.51131,233.83231 c 0,0 -3.14103,15.273 -9.06428,27.2721 -2.78232,5.6363 -9.41374,12.70698 -9.41374,12.70698"
       id="path18"
       sodipodi:nodetypes="csc" />
    <text
       xml:space="preserve"
       style="font-size:348.874px;line-height:1;font-family:Garamond;-inkscape-font-specification:Garamond;text-align:center;letter-spacing:0px;word-spacing:0px;writing-mode:lr-tb;direction:ltr;text-anchor:middle;display:none;fill:#ff0000;fill-opacity:1;stroke:#000000;stroke-width:93.7598;stroke-linecap:round;stroke-linejoin:round;stroke-miterlimit:15;paint-order:stroke fill markers"
       x="273.57986"
       y="419.90598"
       id="text1"
       sodipodi:insensitive="true"><tspan
         sodipodi:role="line"
         id="tspan1"
         x="0"
         y="0"
         style="font-size:348.874px;fill:#ff0000;fill-opacity:1;stroke:none;stroke-width:93.7598">𓀰</tspan></text>
  </g>
</svg>
