<?xml version="1.0" encoding="UTF-8" standalone="no"?>
<!-- Created with Inkscape (http://www.inkscape.org/) -->

<svg
   version="1.1"
   id="svg1"
   width="167.67885"
   height="312.1304"
   viewBox="0 0 167.67885 312.13041"
   sodipodi:docname="woman.svg"
   inkscape:version="1.4.3 (0d15f75, 2025-12-25)"
   xmlns:inkscape="http://www.inkscape.org/namespaces/inkscape"
   xmlns:sodipodi="http://sodipodi.sourceforge.net/DTD/sodipodi-0.dtd"
   xmlns="http://www.w3.org/2000/svg"
   xmlns:svg="http://www.w3.org/2000/svg">
  <defs
     id="defs1" />
  <sodipodi:namedview
     id="namedview1"
     pagecolor="#ffffff"
     bordercolor="#000000"
     borderopacity="0.25"
     inkscape:showpageshadow="2"
     inkscape:pageopacity="0.0"
     inkscape:pagecheckerboard="0"
     inkscape:deskcolor="#d1d1d1"
     inkscape:zoom="1.5516667"
     inkscape:cx="153.38346"
     inkscape:cy="206.55209"
     inkscape:window-width="1920"
     inkscape:window-height="1191"
     inkscape:window-x="-9"
     inkscape:window-y="-9"
     inkscape:window-maximized="1"
     inkscape:current-layer="g1" />
  <g
     inkscape:groupmode="layer"
     inkscape:label="Image"
     id="g1"
     transform="translate(-218.74998,-159.65229)">
    <path
       style="fill:#ffffff;fill-opacity:1;stroke:#010400;stroke-width:13;stroke-linecap:butt;stroke-linejoin:round;stroke-miterlimit:15;stroke-dasharray:none;stroke-opacity:1"
       d="m 292.20367,206.41856 c 1.72332,-24.98809 13.27666,-36.99458 21.03158,-38.5948 7.75493,-1.60023 24.00334,-4.92377 43.69839,16.00223 19.69504,20.92598 22.5262,153.25208 22.5262,153.25208 l -56.3752,-1.8639 -4.01274,-116.58943 z"
       id="path17"
       sodipodi:nodetypes="ccssc" />
    <path
       style="fill:#ffffff;fill-opacity:1;stroke:#010400;stroke-width:13;stroke-linecap:butt;stroke-linejoin:round;stroke-miterlimit:15;stroke-dasharray:none;stroke-opacity:1"
       d="m 243.68032,464.81368 128.67361,-0.59263 c 0,0 6.36735,-57.59484 4.89023,-86.64504 -1.47713,-29.05019 -1.96951,-43.3291 -1.96951,-43.3291 l -36.68202,-0.86166 c 0,0 -9.10895,-114.72366 -8.49349,-118.17028 0.61548,-3.44664 9.23206,-15.01747 4.55448,-19.81815 -4.67758,-4.80067 -10.83228,-3.07735 -16.86389,-4.43139 -6.0316,-1.35402 -16.24841,-3.32354 -19.69504,-3.20044 -3.44664,0.1231 -2.45996,-0.16496 -2.45996,-0.16496 0,0 -9.70231,10.74878 -9.34094,24.11031 0.14953,5.52885 3.91876,12.17624 7.56549,16.31543 3.64503,4.13726 17.40631,3.59315 18.11663,4.12609 0.55038,0.41295 0.57823,2.5777 0.76697,3.98909 1.03111,7.71067 1.74415,19.77154 1.29067,23.91202 -0.83179,7.59471 -7.9268,15.79646 -8.78846,24.16686 -0.86166,8.37039 0.1231,13.90963 2.83116,21.04908 2.70808,7.13946 4.05116,13.71434 3.92807,35.87127 -0.1231,22.15692 -2.33879,42.71363 -2.33879,42.71363 0,0 -56.93841,-51.89997 -76.68819,-34.01657 -11.878,10.75552 -6.27779,29.41948 -4.0621,34.83562 2.2157,5.41614 17.40244,46.31903 14.76508,80.14082 z"
       id="path16"
       sodipodi:nodetypes="ccsccsssscsssssssscssc" />
    <path
       style="fill:#000000;fill-opacity:1;stroke:none;stroke-width:13;stroke-linecap:butt;stroke-linejoin:round;stroke-miterlimit:15;stroke-dasharray:none;stroke-opacity:1"
       d="m 300.78506,200.26801 c 2.21953,-2.37186 3.98211,-2.8941 6.52805,-3.08994 2.54594,-0.19585 4.96132,0.9792 6.0058,2.82882 1.04449,1.84961 1.89314,6.46276 -1.67553,8.31238 -3.56866,1.84961 -8.42118,0.84865 -10.31432,-0.28288 -1.89313,-1.13153 -2.35009,-5.72293 -0.544,-7.76838 z"
       id="path6-5" />
  </g>
</svg>
