<?xml version="1.0" encoding="UTF-8" standalone="no"?>
<!-- Created with Inkscape (http://www.inkscape.org/) -->

<svg
   version="1.1"
   id="svg1"
   width="300"
   height="300"
   viewBox="0 0 300 299.99999"
   sodipodi:docname="multichoice15_option2.svg"
   inkscape:export-filename="multichoice15_option4.svg"
   inkscape:export-xdpi="96"
   inkscape:export-ydpi="96"
   xmlns:inkscape="http://www.inkscape.org/namespaces/inkscape"
   xmlns:sodipodi="http://sodipodi.sourceforge.net/DTD/sodipodi-0.dtd"
   xmlns="http://www.w3.org/2000/svg"
   xmlns:svg="http://www.w3.org/2000/svg">
  <defs
     id="defs1" />
  <sodipodi:namedview
     id="namedview1"
     pagecolor="#ffffff"
     bordercolor="#000000"
     borderopacity="0.25"
     inkscape:showpageshadow="2"
     inkscape:pageopacity="0.0"
     inkscape:pagecheckerboard="0"
     inkscape:deskcolor="#d1d1d1">
    <inkscape:page
       x="0"
       y="0"
       inkscape:label="1"
       id="page1"
       width="300"
       height="300"
       margin="0"
       bleed="0" />
  </sodipodi:namedview>
  <g
     id="g1"
     inkscape:groupmode="layer"
     inkscape:label="1">
    <g
       id="g252"
       transform="matrix(9.5210834,0,0,9.5210834,-3987.9953,-1587.3041)">
      <path
         id="path252"
         d="m 314.88,700.1 0.41,-0.91 -0.03,0.03 1.2,-3 v 0.02 l 0.41,-1.06 v -0.04 l 0.05,-0.12 -0.05,0.14 0.07,-0.22 c 0.1,-0.38 0.39,-0.67 0.77,-0.76 0.36,-0.08 0.77,0.07 1.01,0.36 0.24,0.31 0.29,0.72 0.12,1.08 l -0.1,0.21 v -0.02 l -0.07,0.12 0.03,-0.05 -0.41,1.06 -0.03,0.04 -1.32,2.93 -0.04,0.1 -0.48,0.86 c -0.22,0.39 -0.72,0.53 -1.13,0.34 -0.41,-0.22 -0.58,-0.7 -0.41,-1.11 z"
         style="fill:#000000;fill-opacity:1;fill-rule:nonzero;stroke:none"
         transform="matrix(1.3333333,0,0,-1.3333333,0,1120.8)" />
    </g>
    <g
       id="g253"
       transform="matrix(9.5210834,0,0,9.5210834,-3987.9953,-1587.3041)">
      <path
         id="path253"
         d="m 318.24,700.37 -0.07,-0.7 0.02,0.07 -0.14,-0.72 v 0 l -0.12,-0.67 0.02,0.12 -0.5,-1.53 v 0.04 l -0.1,-0.24 v -0.04 l -0.24,-0.68 c -0.02,-0.04 -0.05,-0.12 -0.05,-0.16 l -0.07,-0.46 c -0.05,-0.34 0.07,-0.7 0.36,-0.94 0.29,-0.21 0.7,-0.26 1.01,-0.12 0.34,0.12 0.58,0.44 0.6,0.8 l 0.07,0.45 -0.05,-0.21 0.22,0.69 v 0 l 0.07,0.24 0.03,0.03 0.48,1.53 c 0.02,0.05 0.02,0.12 0.02,0.15 l 0.12,0.69 v 0 l 0.07,0.72 0.03,0.07 0.02,0.72 c 0.05,0.48 -0.31,0.89 -0.82,0.94 -0.48,0.05 -0.91,-0.31 -0.98,-0.79 z"
         style="fill:#000000;fill-opacity:1;fill-rule:nonzero;stroke:none"
         transform="matrix(1.3333333,0,0,-1.3333333,0,1120.8)" />
    </g>
    <g
       id="g254"
       transform="matrix(9.5210834,0,0,9.5210834,-3987.9953,-1587.3041)">
      <path
         id="path254"
         d="m 316.3,713.23 -0.03,-0.38 v -0.07 l 0.05,-1.71 v -0.05 l 0.07,-1.1 v 0.02 l 0.24,-8.71 v -0.02 l 0.1,-1.68 v -0.03 l 0.07,-0.67 v 0.03 -0.34 c 0.02,-0.31 0.22,-0.58 0.48,-0.74 0.29,-0.12 0.62,-0.12 0.89,0.07 0.24,0.17 0.38,0.45 0.38,0.77 l -0.02,0.36 V 699 l -0.07,0.65 v -0.03 l -0.1,1.68 v -0.02 l -0.36,8.71 v 0.05 l -0.1,1.1 h 0.03 l -0.12,1.71 v 0 l -0.05,0.38 c -0.02,0.41 -0.34,0.7 -0.72,0.7 -0.41,0 -0.72,-0.29 -0.74,-0.7 z"
         style="fill:#000000;fill-opacity:1;fill-rule:nonzero;stroke:none"
         transform="matrix(1.3333333,0,0,-1.3333333,0,1120.8)" />
    </g>
    <g
       id="g255"
       transform="matrix(9.5210834,0,0,9.5210834,-3987.9953,-1587.3041)">
      <path
         id="path255"
         d="m 323.18,710.16 0.2,0.46 0.02,0.02 0.14,0.38 -0.02,-0.02 0.19,0.36 v 0 l 0.46,0.98 c 0.05,0.12 0.07,0.22 0.09,0.32 v 0.02 l -0.21,-0.5 v 0.02 c 0.14,0.14 0.21,0.34 0.24,0.53 v 0.02 -0.02 0.02 c 0.02,0.51 -0.34,0.94 -0.84,1.01 -0.48,0.02 -0.94,-0.34 -0.99,-0.82 -0.07,-0.5 0.29,-0.96 0.8,-1.03 h 0.02 c 0.29,-0.02 0.6,0.1 0.79,0.31 l 0.03,0.03 c 0.12,0.14 0.19,0.33 0.21,0.53 v 0.02 c 0.05,0.5 -0.31,0.96 -0.84,0.98 -0.48,0.05 -0.93,-0.31 -0.98,-0.79 -0.05,-0.53 0.31,-0.96 0.79,-1.03 h 0.02 c 0.29,-0.05 0.63,0.07 0.82,0.31 v 0.03 c 0.14,0.14 0.22,0.33 0.24,0.52 v 0.05 c 0.02,0.51 -0.36,0.94 -0.86,0.99 -0.51,0.04 -0.94,-0.34 -0.99,-0.84 -0.05,-0.51 0.31,-0.94 0.82,-1.01 v 0 l -0.7,0.48 v -0.03 c 0.17,-0.28 0.48,-0.48 0.82,-0.48 0.33,0 0.65,0.17 0.81,0.48 l 0.03,0.03 -0.94,-0.46 v 0 c 0.27,-0.05 0.53,0.05 0.72,0.19 0.19,0.17 0.31,0.39 0.34,0.65 v 0 c 0.05,0.53 -0.34,0.99 -0.84,1.03 -0.51,0.05 -0.96,-0.31 -1.01,-0.84 -0.07,-0.5 0.29,-0.96 0.79,-1.03 h 0.03 v 0 h 0.02 c 0.31,-0.05 0.62,0.07 0.82,0.31 l 0.02,0.03 -0.94,-0.29 h 0.03 c 0.33,-0.1 0.69,0.02 0.93,0.29 l 0.03,0.02 -0.77,-0.31 h 0.05 l -0.84,0.55 0.02,-0.05 c 0.12,-0.31 0.46,-0.52 0.82,-0.55 h 0.02 l -0.86,0.67 v -0.02 c 0.07,-0.19 0.19,-0.36 0.36,-0.48 l 0.02,-0.02 -0.14,0.14 0.02,-0.05 0.05,-0.05 0.02,-0.02 -0.02,0.02 0.02,-0.02 -0.26,0.72 v -0.02 c 0,-0.27 0.07,-0.56 0.29,-0.75 l 0.02,-0.02 c 0.17,-0.15 0.36,-0.27 0.58,-0.27 h 0.02 l -0.84,0.7 v -0.05 c 0.03,-0.07 0.05,-0.12 0.1,-0.19 l 0.02,-0.07 v 0.02 l 0.05,-0.14 v 0.02 l 0.07,-0.12 -0.05,0.12 0.05,-0.17 v -0.04 l 0.15,-0.39 -0.03,0.07 0.03,-0.07 0.02,-0.07 0.05,-0.12 -0.03,0.02 0.05,-0.12 c 0,-0.04 0.03,-0.09 0.05,-0.14 l 0.05,-0.12 v 0 l 0.05,-0.1 -0.05,0.15 0.02,-0.15 c 0.03,-0.04 0.05,-0.12 0.1,-0.19 l 0.05,-0.07 v 0 l 0.04,-0.1 c 0.03,-0.04 0.05,-0.07 0.08,-0.12 l 0.14,-0.21 -0.17,0.6 v -0.03 c -0.02,-0.55 0.43,-0.98 0.96,-0.98 h 0.03 l -0.96,0.74 0.02,-0.02 c 0.1,-0.46 0.48,-0.77 0.96,-0.77 v 0 l -0.79,0.41 h 0.02 c 0.17,-0.26 0.48,-0.41 0.77,-0.41 h 0.02 v 0 h 0.03 v 0 h 0.02 -0.02 v 0 h 0.02 v 0 0 h 0.03 v 0 h 0.02 v 0 0 l -0.55,0.17 0.02,-0.02 c 0.17,-0.1 0.34,-0.17 0.53,-0.17 v 0 h 0.05 v 0 c 0.31,0 0.62,0.14 0.79,0.38 l 0.02,0.05 -0.79,-0.41 v 0 c 0.27,0 0.53,0.1 0.72,0.29 0.17,0.19 0.29,0.43 0.29,0.7 v 0.02 c 0,0.55 -0.43,0.98 -0.98,0.98 -0.56,0.03 -1.01,-0.43 -1.01,-0.96 0,-0.55 0.43,-1 0.98,-1 h 0.03 c 0.26,0 0.5,0.09 0.69,0.28 0.19,0.2 0.29,0.44 0.31,0.7 v 0.02 c 0,0.56 -0.45,1.01 -0.98,1.01 -0.55,0 -1.01,-0.43 -1.01,-1.01 0,-0.52 0.43,-0.98 0.99,-0.98 h 0.02 c 0.19,0 0.38,0.05 0.55,0.17 l 0.03,0.02 c 0.12,0.07 0.21,0.17 0.31,0.29 l 0.02,0.07 -0.12,-0.14 0.05,0.07 0.07,0.05 0.05,0.07 v 0 l 0.05,0.07 c 0.02,0.03 0.05,0.05 0.07,0.1 l 0.07,0.14 -0.02,-0.07 0.14,0.26 0.07,0.1 0.03,0.07 0.02,0.05 0.05,0.07 -0.31,-0.41 0.05,0.05 c 0.14,0.1 0.24,0.24 0.31,0.41 l 0.02,0.1 0.03,0.02 0.02,0.07 -0.02,-0.05 0.02,0.08 v -0.03 l 0.07,0.19 0.05,0.1 0.02,0.07 c 0.03,0.07 0.05,0.17 0.05,0.29 v 0.07 l -0.45,-0.84 0.02,0.03 c 0.22,0.14 0.36,0.33 0.43,0.57 v 0.07 -0.04 0.04 l -0.14,-0.31 0.02,0.05 v 0 l 0.05,0.02 c 0.05,0.12 0.12,0.22 0.14,0.34 l 0.03,0.02 -0.41,-0.52 0.02,0.02 c 0.17,0.12 0.32,0.26 0.39,0.48 l 0.02,0.02 -0.14,-0.24 0.02,0.05 v 0 l 0.03,0.03 -0.15,-0.15 0.07,0.05 c 0.05,0.05 0.1,0.1 0.12,0.14 h 0.03 l -0.12,-0.12 0.02,0.05 v -0.02 l 0.07,0.07 -0.67,-0.24 h 0.03 v 0 h 0.02 l -0.31,0.05 h 0.02 c 0.12,-0.05 0.22,-0.05 0.34,-0.05 v 0 l -0.79,0.38 h 0.02 c 0.17,-0.26 0.46,-0.4 0.77,-0.4 v 0 h 0.02 v 0 0 h 0.05 l -0.89,0.55 v -0.03 c 0.17,-0.36 0.53,-0.55 0.91,-0.57 h 0.03 l -0.82,0.43 v -0.02 c 0.1,-0.1 0.17,-0.2 0.27,-0.24 l 0.02,-0.03 -0.41,0.6 v -0.05 c 0.12,-0.43 0.53,-0.74 0.96,-0.74 h 0.03 l -0.99,0.98 v 0 c 0,-0.24 0.07,-0.43 0.19,-0.6 l 0.03,-0.02 v 0 l 0.02,-0.05 -0.05,0.07 0.05,-0.07 0.03,-0.05 0.04,-0.07 -0.09,0.24 v -0.07 c 0.02,-0.05 0.02,-0.1 0.05,-0.12 l 0.09,-0.24 -0.02,0.12 0.09,-0.29 v -0.05 l 0.05,-0.14 -0.02,0.1 0.05,-0.15 c 0,-0.05 0.02,-0.07 0.02,-0.12 l 0.05,-0.12 0.02,-0.05 0.17,-0.33 v -0.03 l 0.02,-0.02 c 0.03,-0.07 0.05,-0.12 0.1,-0.17 v -0.02 l -0.1,0.19 0.03,-0.05 c 0.14,-0.36 0.5,-0.6 0.91,-0.6 h 0.02 l -0.93,0.67 v -0.04 c 0.02,-0.1 0.07,-0.2 0.14,-0.27 v -0.02 0 l 0.03,-0.03 c 0.19,-0.24 0.5,-0.38 0.81,-0.38 h 0.03 l -0.65,0.24 v -0.02 l -0.05,0.04 0.05,-0.02 c 0.02,-0.05 0.09,-0.1 0.14,-0.12 l 0.05,-0.05 -0.41,0.48 h 0.03 c 0.09,-0.29 0.33,-0.53 0.62,-0.6 l 0.02,-0.02 c 0.1,-0.03 0.22,-0.05 0.34,-0.05 v 0 0 h 0.05 l -0.82,0.41 v -0.03 c 0.22,-0.26 0.51,-0.4 0.82,-0.4 h 0.05 v 0 h 0.02 l -0.17,0.02 h 0.05 c 0.17,-0.05 0.31,-0.02 0.46,0.02 h 0.07 l 0.07,0.05 h 0.05 c 0.07,0.05 0.17,0.07 0.21,0.12 l 0.08,0.05 -0.22,-0.12 0.05,0.02 c 0.12,0.05 0.19,0.1 0.29,0.17 l 0.07,0.05 -0.05,-0.02 0.05,0.04 -0.05,-0.04 0.07,0.04 c 0.05,0.03 0.07,0.05 0.1,0.1 l 0.05,0.02 c 0.04,0.05 0.07,0.08 0.12,0.12 l 0.14,0.17 -0.07,-0.07 0.12,0.12 0.05,0.05 0.12,0.14 0.02,0.03 0.12,0.14 c 0.02,0.02 0.05,0.07 0.07,0.1 l 0.1,0.16 v 0 l 0.29,0.41 v 0.03 l 0.36,0.57 -0.29,-0.29 0.05,0.03 c 0.26,0.19 0.43,0.5 0.4,0.81 v 0.03 l -0.16,-0.58 v 0 l -0.12,-0.14 v 0.02 c 0.14,0.12 0.24,0.29 0.28,0.46 l 0.03,0.05 -0.94,-0.7 h 0.03 c 0.19,0 0.36,0.05 0.52,0.14 l 0.03,0.05 c 0.09,0.05 0.19,0.12 0.24,0.22 l 0.02,0.02 v 0 l 0.03,0.03 -0.8,-0.41 h 0.03 c 0.31,0 0.6,0.14 0.79,0.41 v 0.02 l -0.79,-0.41 h 0.02 v 0 h 0.03 c 0.31,0 0.62,0.17 0.79,0.41 l 0.02,0.02 -0.79,-0.4 h 0.02 c 0.17,0 0.34,0.04 0.46,0.12 l 0.05,0.02 -0.46,-0.12 h 0.03 l -0.8,0.38 0.03,-0.02 v 0 -0.02 c 0.19,-0.27 0.48,-0.41 0.79,-0.39 h 0.05 v 0 h 0.02 l -0.67,0.24 0.02,-0.02 -0.21,0.29 v -0.03 c 0.07,-0.17 0.19,-0.29 0.33,-0.38 l 0.03,-0.03 -0.1,0.1 0.03,-0.02 -0.05,0.02 0.05,-0.02 -0.17,0.21 v -0.05 l -0.12,0.48 v -0.02 c 0,-0.22 0.07,-0.41 0.19,-0.58 l 0.05,-0.07 h 0.02 l 0.03,-0.05 -0.15,0.29 0.03,-0.07 0.02,-0.1 0.05,-0.07 0.05,-0.09 v -0.03 l -0.05,0.07 0.05,-0.04 -0.05,0.14 v -0.1 c 0.02,-0.07 0.05,-0.12 0.07,-0.16 l 0.02,-0.05 -0.04,0.19 v -0.07 0 l 0.02,-0.07 v -0.03 l 0.05,-0.19 -0.05,0.24 v -0.1 c 0,-0.04 0.02,-0.09 0.02,-0.14 l 0.03,-0.05 c 0,-0.05 0,-0.12 0.02,-0.17 l 0.03,-0.04 0.02,-0.1 0.05,-0.07 -0.1,0.48 v -0.07 c -0.02,-0.2 0.03,-0.36 0.1,-0.53 l 0.05,-0.05 -0.03,0.02 0.03,-0.07 -0.05,0.12 0.05,-0.09 0.02,-0.1 0.05,-0.05 -0.05,0.05 0.02,-0.05 0.05,-0.09 0.05,-0.08 -0.02,0.05 0.02,-0.05 0.05,-0.07 0.07,-0.17 0.07,-0.07 0.03,-0.02 c 0.16,-0.27 0.45,-0.39 0.74,-0.39 h 0.05 v 0 0 h 0.02 0.03 -0.03 0.03 0.02 v 0 l -0.96,0.72 0.02,-0.02 c 0.1,-0.43 0.51,-0.72 0.94,-0.72 h 0.02 0.03 v 0 0 h 0.02 v 0 h 0.03 c 0.28,0 0.57,0.14 0.74,0.38 l 0.02,0.05 -0.74,-0.41 v 0 0 h 0.02 0.03 v 0 h 0.02 0.03 c 0.16,0 0.33,0.08 0.48,0.17 l 0.02,0.03 -0.5,-0.17 h 0.02 c 0.29,0 0.58,0.14 0.72,0.38 l 0.02,0.05 -0.14,-0.17 0.05,0.05 -0.05,-0.05 0.07,0.05 -0.07,-0.05 0.1,0.05 c 0.02,0.02 0.07,0.07 0.09,0.1 l 0.07,0.04 0.05,0.05 0.15,0.17 c 0.04,0.05 0.07,0.12 0.12,0.14 l 0.07,0.12 -0.12,-0.14 0.07,0.07 c 0.05,0.05 0.07,0.07 0.1,0.12 l 0.07,0.12 c 0.05,0.05 0.05,0.07 0.07,0.12 l 0.17,0.34 -0.03,-0.03 0.08,0.1 -0.05,-0.05 0.07,0.12 0.05,0.12 0.07,0.12 -0.1,-0.17 0.17,0.24 v 0 l 0.12,0.17 0.05,0.1 0.02,0.02 -0.04,-0.07 v 0 l 0.04,0.07 0.03,0.07 c 0.05,0.05 0.07,0.1 0.07,0.15 l 0.02,0.05 -0.33,-0.46 0.02,0.02 c 0.1,0.08 0.22,0.17 0.27,0.29 l 0.02,0.05 -0.26,-0.29 0.02,0.03 c 0.05,0.02 0.07,0.04 0.1,0.07 l 0.07,0.07 -0.63,-0.24 h 0.03 v 0 0 c 0.31,0 0.6,0.14 0.77,0.36 l 0.02,0.02 -0.77,-0.38 h 0.03 v 0 0 0 h 0.02 l -0.77,0.38 0.03,-0.02 c 0.16,-0.22 0.45,-0.36 0.74,-0.36 h 0.02 l -0.74,0.36 v 0 0 -0.02 c 0.19,-0.24 0.46,-0.39 0.77,-0.39 v 0 h 0.02 0.03 l -0.77,0.39 v -0.03 l -0.17,0.55 v -0.02 c 0,-0.5 0.41,-0.94 0.94,-0.94 v 0 0 h 0.02 l -0.74,0.39 v -0.03 l -0.2,0.58 v -0.05 c 0,-0.5 0.44,-0.91 0.94,-0.91 h 0.02 c 0.39,0 0.72,0.22 0.87,0.58 0.14,0.33 0.07,0.74 -0.19,1 -0.29,0.29 -0.7,0.36 -1.04,0.22 -0.33,-0.14 -0.57,-0.48 -0.57,-0.89 v -0.02 0 -0.03 c 0,-0.24 0.09,-0.48 0.29,-0.64 0.16,-0.2 0.4,-0.29 0.64,-0.29 h 0.03 l -0.89,0.57 0.07,-0.14 c 0.03,-0.05 0.03,-0.1 0.05,-0.12 l 0.05,-0.1 -0.05,0.12 0.05,-0.09 v -0.03 l 0.05,-0.12 v 0.03 l 0.02,-0.1 v 0 l 0.05,-0.09 v 0.02 l 0.05,-0.12 -0.05,0.14 0.07,-0.31 v 0 -0.07 l 0.02,-0.02 0.03,-0.08 -0.03,0.1 v -0.05 l 0.03,-0.07 v -0.05 l 0.02,-0.09 0.03,-0.08 c 0.02,-0.12 0.07,-0.19 0.14,-0.28 l 0.02,-0.03 -0.16,0.41 v -0.05 c 0.02,-0.07 0.02,-0.17 0.07,-0.24 l 0.05,-0.07 -0.03,0.05 0.03,-0.05 -0.03,0.05 0.03,-0.07 c 0.02,-0.1 0.07,-0.2 0.12,-0.27 l 0.07,-0.09 c 0.19,-0.24 0.48,-0.39 0.77,-0.39 h 0.02 c 0.5,0 0.94,0.43 0.94,0.94 0,0.53 -0.44,0.93 -0.96,0.93 -0.51,0 -0.94,-0.43 -0.94,-0.93 v -0.03 c 0,-0.26 0.12,-0.52 0.34,-0.72 v 0 l -0.12,0.12 h 0.02 c 0.17,-0.24 0.46,-0.38 0.74,-0.38 h 0.03 l -0.84,0.5 v -0.02 c 0.17,-0.31 0.48,-0.53 0.84,-0.53 v 0 h 0.02 0.03 l -0.94,0.96 v -0.02 c 0,-0.53 0.41,-0.94 0.94,-0.94 h 0.02 l -0.91,0.72 v -0.05 c 0.12,-0.4 0.48,-0.72 0.91,-0.72 h 0.02 v 0 h 0.03 v 0 h 0.02 v 0 h 0.03 v 0 0 0 h 0.02 v 0 h 0.02 v 0 h 0.03 v 0 0 0 h 0.02 c 0.29,0 0.58,0.17 0.77,0.39 v 0.02 l -0.74,-0.38 v 0 c 0.19,0 0.38,0.07 0.52,0.17 l 0.03,0.02 -0.53,-0.17 h 0.05 c 0.21,0 0.43,0.1 0.62,0.24 l 0.1,0.07 0.05,0.1 0.09,0.07 -0.09,-0.07 0.07,0.05 c 0.05,0.05 0.12,0.09 0.17,0.17 l 0.07,0.09 -0.07,-0.07 0.07,0.07 c 0.05,0.05 0.07,0.1 0.12,0.17 l 0.05,0.1 -0.08,-0.1 0.08,0.07 v 0 l 0.07,0.07 c 0.07,0.1 0.12,0.17 0.14,0.24 l 0.05,0.17 v -0.07 l 0.12,0.26 -0.02,-0.02 0.19,0.31 v 0.03 l 0.12,0.21 -0.05,-0.07 0.05,0.07 c 0.05,0.1 0.07,0.19 0.12,0.29 v 0.07 l -0.07,-0.19 0.04,0.07 -0.07,-0.12 0.03,0.03 0.02,0.04 0.05,0.1 h 0.02 l 0.03,0.07 -0.12,-0.17 0.09,0.1 c 0.03,0.02 0.05,0.05 0.07,0.07 l 0.03,0.05 -0.77,-0.38 h 0.02 c 0.39,0 0.75,0.24 0.89,0.6 v 0.02 l -0.12,-0.24 0.03,0.02 -0.77,-0.38 h 0.02 c 0.36,0 0.67,0.22 0.84,0.53 l 0.03,0.02 c 0.21,0.46 0.02,1.01 -0.41,1.25 -0.43,0.24 -0.99,0.1 -1.25,-0.34 -0.26,-0.43 -0.14,-0.98 0.29,-1.27 v 0 c 0.17,-0.12 0.33,-0.17 0.53,-0.17 h 0.02 v 0 0 0 0 0 h 0.02 v 0 h 0.05 v 0 h 0.03 v 0 0 0 0 0 h 0.02 l -0.67,0.29 0.05,-0.05 c 0.14,-0.16 0.38,-0.26 0.64,-0.26 h 0.03 l -0.89,0.6 v 0 c 0.14,-0.36 0.5,-0.62 0.89,-0.62 h 0.02 l -0.74,0.38 v -0.02 l -0.07,0.14 v -0.02 c 0.14,-0.34 0.48,-0.53 0.84,-0.53 h 0.02 l -0.89,0.62 0.03,-0.05 c 0.02,-0.07 0.07,-0.14 0.12,-0.21 v -0.03 l -0.05,0.08 0.12,-0.2 v 0.03 l 0.09,-0.17 -0.04,0.1 0.07,-0.17 v -0.03 l 0.09,-0.19 -0.02,0.05 0.22,-0.48 -0.03,0.07 0.07,-0.24 0.03,-0.05 0.09,-0.24 0.03,-0.07 0.31,-0.62 0.05,-0.1 0.12,-0.19 c 0.29,-0.43 0.89,-0.55 1.32,-0.26 0.41,0.28 0.53,0.86 0.24,1.29 l -0.12,0.17 0.07,-0.1 -0.31,0.63 0.05,-0.07 -0.1,0.24 v -0.08 l -0.07,0.24 -0.03,0.1 -0.21,0.5 -0.03,0.05 -0.09,0.17 h 0.02 l -0.07,0.14 -0.07,0.1 -0.07,0.17 v 0 l -0.12,0.19 -0.05,0.07 h -0.03 l 0.15,-0.24 -0.03,0.05 c -0.14,0.36 -0.48,0.6 -0.86,0.6 h -0.02 l 0.84,-0.53 v 0.05 c -0.05,0.02 -0.08,0.07 -0.1,0.12 l -0.02,0.02 c -0.17,0.24 -0.46,0.39 -0.75,0.39 h -0.02 l 0.89,-0.63 v 0.05 c -0.15,0.36 -0.51,0.6 -0.89,0.6 h -0.03 l 0.68,-0.29 -0.05,0.05 c -0.17,0.17 -0.41,0.27 -0.65,0.27 h -0.02 v 0 0 0 0 0 h -0.03 v 0 h -0.05 v 0 h -0.02 v 0 0 0 0 0 h -0.02 l 0.52,-0.15 h -0.02 c -0.22,0.17 -0.5,0.19 -0.74,0.12 -0.29,-0.07 -0.48,-0.24 -0.6,-0.48 l -0.03,-0.05 0.84,0.53 h -0.02 c -0.29,0 -0.55,-0.12 -0.75,-0.36 l -0.02,-0.05 c -0.05,-0.04 -0.1,-0.14 -0.12,-0.21 v -0.03 l 0.86,0.6 h -0.02 c -0.26,0 -0.55,-0.12 -0.74,-0.36 v -0.02 l 0.07,0.1 -0.07,-0.1 c -0.05,-0.05 -0.1,-0.1 -0.15,-0.17 l -0.02,-0.05 v 0 l -0.05,-0.07 0.02,0.07 -0.02,-0.04 c -0.02,-0.05 -0.07,-0.1 -0.07,-0.15 l -0.05,-0.09 c -0.02,-0.08 -0.07,-0.12 -0.07,-0.2 l -0.03,-0.07 0.12,0.29 -0.04,-0.07 -0.05,-0.07 -0.12,-0.24 0.02,0.02 -0.19,-0.34 v -0.02 l -0.12,-0.24 -0.02,-0.05 -0.08,-0.14 0.15,0.21 -0.07,-0.07 v 0 l -0.08,-0.09 c -0.02,-0.03 -0.04,-0.08 -0.07,-0.1 l -0.07,-0.12 0.12,0.14 -0.07,-0.07 -0.07,-0.07 -0.08,-0.1 0.17,0.17 -0.09,-0.07 c -0.03,-0.02 -0.05,-0.05 -0.1,-0.1 l -0.07,-0.09 0.05,0.07 -0.1,-0.1 0.65,0.24 h -0.05 c -0.17,0 -0.36,-0.04 -0.5,-0.14 l -0.05,-0.02 0.53,0.16 v 0 c -0.29,0 -0.58,-0.14 -0.77,-0.38 v -0.02 l 0.74,0.38 h -0.02 v 0 0 0 h -0.03 v 0 h -0.02 v 0 h -0.02 v 0 0 0 h -0.03 v 0 h -0.02 v 0 h -0.03 v 0 h -0.02 l 0.94,-0.72 -0.03,0.02 c -0.09,0.44 -0.48,0.72 -0.91,0.72 h -0.02 c -0.53,0 -0.94,-0.43 -0.94,-0.93 0,-0.53 0.41,-0.94 0.94,-0.94 0.5,0 0.93,0.41 0.93,0.94 v 0.02 c 0,0.24 -0.09,0.48 -0.26,0.65 -0.19,0.19 -0.43,0.29 -0.67,0.29 h -0.03 -0.02 v 0 l 0.84,-0.53 v 0.02 c -0.17,0.34 -0.48,0.53 -0.84,0.53 h -0.03 l 0.75,-0.38 v 0.02 c -0.05,0.05 -0.07,0.1 -0.12,0.15 l -0.05,0.02 0.34,-0.7 v 0.03 c 0,0.5 -0.44,0.93 -0.94,0.93 h -0.02 l 0.74,-0.38 -0.07,0.1 0.14,-0.27 -0.02,0.07 v 0.05 l -0.03,0.03 -0.02,0.04 -0.02,0.08 0.07,-0.22 v 0.02 c -0.05,0.17 -0.1,0.32 -0.19,0.44 l -0.03,0.04 0.15,-0.26 -0.03,0.05 0.03,-0.1 -0.03,0.07 0.03,-0.04 v 0.04 l -0.05,0.1 v 0.07 -0.05 0.1 0 l -0.07,0.31 c -0.03,0.05 -0.05,0.1 -0.05,0.15 l -0.05,0.09 v 0.03 l -0.05,0.09 v 0 l -0.02,0.07 -0.03,0.03 -0.04,0.12 v -0.03 l -0.03,0.12 c -0.02,0.03 -0.05,0.08 -0.07,0.1 l -0.05,0.1 0.05,-0.1 -0.07,0.14 c -0.12,0.36 -0.48,0.6 -0.84,0.6 h -0.03 l 0.94,-0.96 v 0.03 0 0.02 c 0,0.53 -0.41,0.96 -0.94,0.96 h -0.02 c -0.36,0 -0.72,-0.24 -0.86,-0.6 -0.15,-0.33 -0.05,-0.74 0.21,-1.01 0.27,-0.26 0.67,-0.36 1.01,-0.19 0.36,0.12 0.6,0.48 0.6,0.84 v 0.05 c 0,0.19 -0.07,0.38 -0.19,0.55 h -0.03 c -0.16,0.24 -0.45,0.41 -0.74,0.41 h -0.02 v 0 0 c -0.39,0 -0.72,-0.24 -0.87,-0.6 -0.14,-0.34 -0.07,-0.74 0.19,-1.01 0.27,-0.29 0.68,-0.36 1.04,-0.21 0.36,0.14 0.57,0.5 0.57,0.86 v 0.02 c 0,0.22 -0.07,0.41 -0.19,0.58 v 0.02 c -0.19,0.24 -0.48,0.36 -0.74,0.36 h -0.03 -0.02 v 0 l 0.77,-0.36 h -0.03 v 0 l -0.02,0.03 c -0.17,0.24 -0.43,0.38 -0.75,0.38 h -0.02 l 0.77,-0.38 -0.03,0.02 c -0.16,0.24 -0.45,0.39 -0.74,0.39 h -0.02 v 0 0 0 h -0.03 c -0.31,0 -0.57,-0.15 -0.74,-0.39 l -0.03,-0.02 0.75,0.38 v 0 0 h -0.03 c -0.21,0 -0.45,-0.07 -0.62,-0.24 l -0.07,-0.07 0.12,0.1 -0.05,-0.03 c -0.12,-0.07 -0.22,-0.19 -0.26,-0.31 l -0.05,-0.05 0.29,0.31 -0.05,-0.02 c -0.15,-0.12 -0.29,-0.29 -0.34,-0.46 l -0.02,-0.04 0.07,0.16 -0.02,-0.07 0.04,0.1 -0.02,-0.03 c -0.02,-0.02 -0.02,-0.07 -0.05,-0.12 l -0.02,-0.02 0.05,0.07 -0.12,-0.17 v 0 l -0.17,-0.21 c -0.03,-0.05 -0.05,-0.1 -0.07,-0.15 l -0.08,-0.14 0.05,0.1 -0.07,-0.1 -0.02,-0.05 -0.05,-0.12 -0.05,-0.05 -0.14,-0.36 0.07,0.15 -0.07,-0.12 0.07,0.12 -0.07,-0.1 c -0.05,-0.05 -0.08,-0.07 -0.1,-0.14 l -0.07,-0.1 0.12,0.15 -0.17,-0.15 0.07,0.05 -0.07,-0.05 0.12,0.07 -0.1,-0.04 -0.04,-0.05 -0.05,-0.03 -0.05,-0.07 -0.05,-0.02 c -0.05,-0.05 -0.09,-0.1 -0.14,-0.15 v -0.02 l 0.79,0.38 h -0.02 c -0.22,0 -0.39,-0.04 -0.56,-0.14 l -0.02,-0.02 0.58,0.14 h -0.03 -0.02 v 0 h -0.03 -0.02 v 0 0 c -0.31,0.02 -0.6,-0.12 -0.79,-0.36 v -0.02 l 0.77,0.38 h -0.03 v 0 h -0.02 v 0 0 h -0.03 -0.02 l 0.91,-0.74 v 0.02 c -0.09,0.43 -0.45,0.72 -0.91,0.74 v 0 h -0.02 -0.03 0.03 -0.03 -0.02 v 0 0 h -0.05 l 0.77,-0.4 v 0.02 l 0.05,-0.1 -0.1,0.17 0.07,-0.12 -0.02,0.05 -0.05,0.07 -0.02,0.07 0.04,-0.12 -0.02,0.05 v 0.05 l -0.02,0.05 0.02,-0.07 -0.02,0.09 -0.05,0.07 v 0.05 l -0.03,0.05 -0.02,0.07 0.07,-0.55 0.03,0.07 c 0,0.17 0,0.34 -0.08,0.48 l -0.02,0.07 0.02,-0.09 -0.02,0.05 0.05,-0.15 v 0.05 -0.1 0.1 c 0,0.07 0,0.14 -0.03,0.24 l -0.04,0.19 v -0.05 0.08 0 l -0.03,0.07 c -0.02,0.07 -0.02,0.14 -0.07,0.19 v 0.05 l 0.05,-0.15 -0.03,0.1 c -0.02,0.02 -0.02,0.07 -0.04,0.12 l -0.03,0.07 -0.05,0.1 -0.02,0.05 0.05,-0.1 -0.05,0.07 0.05,-0.07 -0.03,0.07 c -0.02,0.1 -0.09,0.19 -0.14,0.29 l -0.02,0.02 v 0 l -0.08,0.1 0.2,-0.6 v 0.02 c 0,0.17 -0.05,0.34 -0.12,0.48 l -0.03,0.05 c -0.02,0.07 -0.09,0.15 -0.14,0.22 l -0.05,0.02 -0.02,0.05 -0.03,0.02 c -0.05,0.03 -0.07,0.05 -0.09,0.1 h -0.05 l 0.31,-0.36 v 0.02 c -0.05,0.1 -0.12,0.22 -0.22,0.29 l -0.02,0.03 c -0.19,0.16 -0.41,0.26 -0.65,0.26 h -0.02 v 0 h -0.05 l 0.82,-0.41 -0.05,0.03 v 0 0.02 c -0.19,0.24 -0.48,0.41 -0.79,0.41 h -0.03 c -0.17,0 -0.33,-0.05 -0.48,-0.12 l -0.02,-0.03 0.45,0.12 h -0.02 c -0.31,0 -0.6,-0.14 -0.79,-0.38 l -0.03,-0.02 0.8,0.38 h -0.03 v 0 h -0.02 c -0.31,0 -0.6,-0.12 -0.79,-0.38 v -0.03 l 0.79,0.41 h -0.03 c -0.31,0 -0.62,-0.17 -0.81,-0.41 v -0.02 0 l -0.03,-0.03 0.24,0.24 -0.02,-0.02 0.58,0.17 h -0.03 c -0.45,0 -0.84,-0.29 -0.98,-0.7 v -0.07 l 0.29,0.48 -0.03,-0.05 c -0.05,-0.05 -0.09,-0.07 -0.14,-0.12 v -0.05 c -0.12,-0.14 -0.19,-0.36 -0.19,-0.57 v -0.03 l 0.43,0.82 h -0.03 c -0.12,-0.1 -0.21,-0.19 -0.28,-0.31 l -0.39,-0.58 h 0.03 l -0.29,-0.43 v 0.02 l -0.1,-0.16 0.1,0.12 -0.12,-0.15 v 0.03 l -0.12,-0.15 0.05,0.05 -0.12,-0.12 -0.1,-0.1 -0.14,-0.16 0.12,0.09 -0.05,-0.02 0.09,0.07 -0.04,-0.02 -0.05,-0.05 -0.07,-0.05 h -0.03 l -0.07,-0.07 0.29,0.17 -0.05,-0.03 c -0.07,-0.02 -0.14,-0.05 -0.19,-0.09 l -0.07,-0.05 0.19,0.09 h -0.05 l 0.07,0.03 -0.07,-0.03 0.46,0.03 -0.05,0.02 c -0.07,0 -0.12,0 -0.17,0 h -0.02 v 0 h -0.05 l 0.81,-0.41 -0.02,0.03 c -0.19,0.26 -0.48,0.41 -0.79,0.41 h -0.05 v 0 0 l 0.31,-0.08 -0.02,0.03 0.62,-0.6 -0.02,0.02 c -0.07,0.19 -0.19,0.36 -0.36,0.48 l -0.05,0.03 0.17,-0.15 -0.05,0.05 -0.02,0.02 -0.05,0.05 c -0.17,0.17 -0.41,0.24 -0.67,0.24 h -0.03 l 0.82,-0.41 -0.03,0.03 v 0 l -0.02,0.02 0.14,-0.24 -0.02,0.05 c -0.14,0.38 -0.5,0.65 -0.94,0.65 h -0.02 l 0.94,-0.6 -0.03,0.07 c -0.02,0.05 -0.07,0.12 -0.12,0.17 l -0.02,0.02 0.09,-0.17 -0.02,0.05 0.02,-0.02 -0.14,0.33 v -0.02 l -0.02,0.12 0.02,-0.12 -0.02,0.14 -0.05,0.1 -0.05,0.12 v -0.02 l -0.07,0.28 -0.05,0.1 -0.12,0.24 0.05,-0.12 -0.03,0.07 c -0.02,0.07 -0.04,0.17 -0.09,0.24 l -0.05,0.07 v -0.02 l -0.02,0.07 -0.08,0.1 -0.04,0.07 v 0 h -0.03 l 0.22,-0.58 v 0 c 0,0.29 -0.12,0.53 -0.31,0.72 -0.2,0.2 -0.46,0.29 -0.72,0.29 h -0.03 l 1.01,-0.77 v 0.05 c -0.07,0.24 -0.22,0.43 -0.43,0.58 l -0.03,0.02 0.24,-0.21 -0.02,0.02 c -0.19,0.24 -0.48,0.38 -0.79,0.38 h -0.03 l 0.89,-0.55 v 0.03 c -0.19,0.33 -0.53,0.57 -0.91,0.55 h -0.05 v 0 0 h -0.02 v 0 l 0.84,-0.39 h -0.03 c -0.19,0.27 -0.5,0.41 -0.81,0.41 v 0 l 0.31,-0.05 h -0.02 c -0.12,0.05 -0.22,0.05 -0.34,0.05 h -0.02 v 0 h -0.03 c -0.24,0 -0.45,-0.07 -0.62,-0.24 l -0.1,-0.07 h -0.02 l -0.05,-0.05 c -0.05,-0.05 -0.07,-0.09 -0.12,-0.17 l -0.02,-0.02 0.14,0.17 -0.05,-0.05 c -0.05,-0.05 -0.09,-0.1 -0.14,-0.14 v -0.03 0 l -0.05,-0.05 c -0.05,-0.07 -0.1,-0.16 -0.12,-0.26 l -0.02,-0.02 0.38,0.48 -0.05,-0.03 c -0.19,-0.12 -0.31,-0.31 -0.38,-0.55 v -0.05 l 0.14,0.31 -0.02,-0.02 v 0 l -0.05,-0.05 c -0.07,-0.09 -0.12,-0.19 -0.14,-0.31 l -0.03,-0.05 v -0.05 l -0.02,-0.07 0.41,0.6 -0.03,-0.02 c -0.26,-0.19 -0.43,-0.51 -0.43,-0.82 v -0.07 l 0.05,0.26 -0.03,-0.04 0.05,0.12 -0.09,-0.2 v 0 l -0.03,-0.07 -0.02,-0.05 -0.03,-0.04 0.03,0.02 -0.05,-0.1 0.31,0.41 -0.05,-0.05 c -0.14,-0.09 -0.24,-0.24 -0.31,-0.38 l -0.02,-0.07 0.02,0.05 -0.02,-0.08 0.05,0.12 -0.17,-0.24 -0.03,-0.07 -0.07,-0.12 0.05,0.1 -0.05,-0.07 v 0 l -0.02,-0.08 0.02,0.1 -0.02,-0.07 c -0.05,-0.05 -0.07,-0.1 -0.1,-0.15 l -0.05,-0.04 0.29,0.28 -0.02,-0.02 0.55,0.19 h -0.02 c -0.56,0 -0.99,-0.45 -0.99,-1.01 v -0.02 l 0.99,0.98 h -0.03 c -0.55,0 -0.98,-0.43 -0.98,-0.98 v -0.02 l 0.98,0.98 v 0 c -0.31,0 -0.62,-0.14 -0.79,-0.41 h -0.02 l 0.79,0.41 v 0 h -0.05 v 0 l 0.58,-0.17 h -0.03 c -0.14,0.12 -0.36,0.17 -0.55,0.17 v 0 0 h -0.02 v 0 h -0.03 v 0 0 h -0.02 v 0 h 0.02 -0.02 v 0 h -0.03 v 0 h -0.02 l 0.82,-0.41 -0.03,0.03 c -0.19,0.26 -0.48,0.4 -0.79,0.4 v 0 l 0.96,-0.74 -0.02,0.02 c -0.1,0.46 -0.51,0.75 -0.96,0.75 h -0.03 c -0.53,0 -0.98,-0.46 -0.96,-0.99 0,-0.55 0.46,-0.98 0.99,-0.98 0.55,0 0.98,0.43 0.98,0.98 v 0.03 c 0,0.21 -0.07,0.43 -0.19,0.57 l -0.17,0.22 0.07,-0.1 -0.07,0.12 v 0 l -0.05,0.1 0.1,-0.22 -0.05,0.12 c 0,0.05 -0.05,0.1 -0.05,0.15 l -0.05,0.09 v -0.02 l -0.07,0.12 0.07,-0.12 -0.04,0.12 v 0.02 l -0.05,0.12 0.02,-0.07 -0.02,0.07 -0.03,0.1 -0.14,0.41 v -0.03 l -0.05,0.17 c -0.02,0.05 -0.02,0.07 -0.07,0.12 l -0.05,0.12 v 0.03 l -0.07,0.14 h -0.02 l -0.03,0.07 0.07,-0.17 -0.02,0.05 c -0.14,0.43 -0.55,0.7 -1.01,0.67 h -0.02 l 0.72,-0.24 -0.05,0.05 0.36,-0.69 v 0.02 c 0,0.24 -0.12,0.48 -0.29,0.62 l -0.02,0.05 -0.07,0.05 h -0.03 0.05 l -0.05,0.02 c -0.02,0.03 -0.07,0.05 -0.12,0.1 h -0.02 l 0.36,-0.41 v 0.03 c -0.17,0.33 -0.53,0.57 -0.94,0.55 h -0.02 l 0.86,-0.51 v 0.05 c -0.19,0.31 -0.5,0.51 -0.86,0.48 h -0.05 c -0.31,0 -0.6,-0.17 -0.77,-0.43 v -0.02 l 0.58,0.4 h -0.03 c -0.24,-0.07 -0.43,-0.19 -0.57,-0.4 v -0.03 l 0.67,0.43 h -0.02 v 0 h -0.03 c -0.48,-0.07 -0.84,-0.5 -0.79,-1.03 v 0 l 0.79,1.01 v 0 c -0.33,-0.05 -0.6,-0.26 -0.74,-0.58 v -0.02 c -0.19,-0.43 -0.03,-0.94 0.36,-1.18 0.41,-0.24 0.93,-0.12 1.22,0.24 0.29,0.36 0.24,0.89 -0.07,1.23 l -0.02,0.02 c -0.2,0.19 -0.48,0.29 -0.77,0.27 v 0 c -0.48,-0.08 -0.84,-0.51 -0.82,-0.99 v -0.05 l 0.12,0.58 v -0.02 l 0.67,0.4 h -0.02 c -0.48,-0.04 -0.84,-0.5 -0.79,-0.98 v -0.02 l 0.14,0.57 -0.02,-0.02 0.67,0.43 h -0.02 c -0.51,-0.07 -0.84,-0.53 -0.82,-1.01 l 0.02,-0.02 -0.02,0.02 0.02,-0.02 0.15,0.55 -0.03,-0.02 c -0.09,-0.2 -0.14,-0.39 -0.14,-0.58 v -0.02 l 0.07,0.4 -0.41,-1.03 -0.02,-0.09 -0.12,-0.39 v -0.05 l -0.07,-0.43 v 0.07 l -0.12,-0.48 c -0.12,-0.38 0.07,-0.79 0.48,-0.93 0.36,-0.15 0.79,0.07 0.93,0.43 z"
         style="fill:#000000;fill-opacity:1;fill-rule:nonzero;stroke:none"
         transform="matrix(1.3333333,0,0,-1.3333333,0,1120.8)" />
    </g>
    <g
       id="g256"
       transform="matrix(9.5210834,0,0,9.5210834,-3987.9953,-1587.3041)">
      <path
         id="path256"
         d="m 326.02,694.1 0.14,0.05 c 0.05,0 0.07,0.03 0.12,0.05 l 0.86,0.43 v 0.03 l 0.63,0.31 h -0.03 l 1.11,0.57 v 0 l 0.38,0.2 0.03,0.02 1,0.58 v 0 l 1.04,0.6 -0.03,-0.03 0.29,0.17 -0.07,-0.02 0.67,0.28 -0.12,-0.04 0.17,0.07 c 0.07,0.02 0.17,0.05 0.24,0.09 l 0.19,0.12 c 0.05,0.05 0.12,0.08 0.17,0.15 l 0.05,0.02 -0.29,-0.19 v 0.02 c 0.05,0 0.09,0.05 0.14,0.05 l 0.03,0.03 v 0 l 0.04,0.02 -0.14,-0.05 h 0.05 c 0.05,0.03 0.07,0.03 0.12,0.07 l 0.05,0.03 -0.29,-0.12 0.07,0.02 c 0.1,0.03 0.19,0.05 0.26,0.12 l 0.08,0.03 -0.15,-0.08 0.03,0.03 c 0.5,0.19 0.79,0.74 0.62,1.27 -0.17,0.53 -0.72,0.82 -1.25,0.67 -0.55,-0.12 -0.86,-0.67 -0.74,-1.2 l 0.02,-0.12 -0.02,0.03 0.09,-0.44 v 0.03 l 0.22,-1.32 v 0.05 l 0.24,-1.9 -0.02,0.12 0.02,-0.1 v 0 -0.04 c 0,-0.58 0.46,-1.04 1.01,-1.04 0.57,0 1.03,0.46 1.03,1.04 v 0.04 0 0.1 c 0,0.05 0,0.1 0,0.14 l -0.24,1.88 v 0.04 l -0.22,1.32 -0.02,0.03 -0.07,0.45 v 0.03 l -0.05,0.09 c -0.07,0.39 -0.36,0.68 -0.72,0.77 -0.36,0.12 -0.74,0 -1.01,-0.29 l -0.02,-0.02 -0.05,-0.02 -0.05,-0.08 0.46,0.32 -0.07,-0.03 c -0.12,-0.05 -0.22,-0.09 -0.29,-0.14 l -0.05,-0.03 0.1,0.05 h -0.03 l -0.09,-0.07 -0.03,-0.02 v 0 l -0.05,-0.03 0.1,0.07 -0.02,-0.02 c -0.1,-0.05 -0.17,-0.12 -0.24,-0.19 l -0.03,-0.03 0.17,0.12 -0.19,-0.12 0.21,0.12 -0.16,-0.07 -0.12,-0.05 -0.65,-0.31 -0.07,-0.05 -0.29,-0.16 v 0 l -1.01,-0.63 v 0 l -0.98,-0.6 h 0.02 l -0.38,-0.21 v 0 l -1.06,-0.63 -0.05,-0.02 -0.55,-0.36 -0.02,-0.03 -0.82,-0.52 -0.02,-0.03 -0.1,-0.07 c -0.31,-0.22 -0.43,-0.65 -0.24,-1.01 0.17,-0.36 0.55,-0.53 0.94,-0.41 z"
         style="fill:#000000;fill-opacity:1;fill-rule:nonzero;stroke:none"
         transform="matrix(1.3333333,0,0,-1.3333333,0,1120.8)" />
    </g>
    <g
       id="g257"
       transform="matrix(9.5210834,0,0,9.5210834,-3987.9953,-1587.3041)">
      <path
         id="path257"
         d="m 325.8,693.72 1.13,-0.14 c 0.05,0 0.12,0 0.14,0 l 1.13,0.04 0.1,0.03 0.38,0.05 -0.02,-0.03 0.43,0.05 v 0 l 1.51,0.1 h -0.05 l 0.99,0.02 h 0.02 l 0.36,0.02 h -0.02 0.5 -0.07 l 0.67,-0.02 -0.29,0.05 0.05,-0.03 c 0.55,-0.16 1.15,0.12 1.32,0.68 0.22,0.57 -0.1,1.17 -0.67,1.36 h -0.03 c -0.09,0.05 -0.16,0.05 -0.28,0.05 l -0.65,0.03 -0.1,0.02 -0.5,-0.02 h -0.07 l -0.34,-0.03 h 0.02 l -0.96,-0.02 -0.07,-0.03 -1.51,-0.12 v 0 l -0.43,-0.04 h -0.05 l -0.38,-0.08 0.02,0.03 -1.13,-0.1 v 0 l -1.15,-0.12 c -0.43,-0.02 -0.79,-0.41 -0.79,-0.86 0,-0.46 0.33,-0.82 0.79,-0.89 z"
         style="fill:#000000;fill-opacity:1;fill-rule:nonzero;stroke:none"
         transform="matrix(1.3333333,0,0,-1.3333333,0,1120.8)" />
    </g>
    <g
       id="g258"
       transform="matrix(9.5210834,0,0,9.5210834,-3987.9953,-1587.3041)">
      <path
         id="path258"
         d="m 324.77,698.64 -0.05,-0.41 0.02,-0.09 0.05,-0.96 v -0.03 l 0.12,-1.05 v 0 l 0.1,-1.04 v 0.1 l -0.03,-0.34 v 0 -0.04 c 0,-0.34 0.17,-0.63 0.46,-0.8 0.29,-0.16 0.65,-0.16 0.91,0 0.29,0.17 0.46,0.46 0.46,0.8 v 0.04 0 0.34 0.1 l -0.12,1.03 v 0 l -0.15,1.05 v 0 l -0.12,0.96 v -0.02 l -0.04,0.41 c -0.05,0.43 -0.41,0.74 -0.84,0.74 -0.41,-0.02 -0.77,-0.36 -0.77,-0.79 z"
         style="fill:#000000;fill-opacity:1;fill-rule:nonzero;stroke:none"
         transform="matrix(1.3333333,0,0,-1.3333333,0,1120.8)" />
    </g>
    <g
       id="g259"
       transform="matrix(9.5210834,0,0,9.5210834,-3987.9953,-1587.3041)">
      <path
         id="path259"
         d="m 325.2,697.97 0.19,-0.12 c 0.1,-0.05 0.19,-0.07 0.29,-0.1 l 0.12,-0.02 -0.29,0.12 0.12,-0.07 c 0.05,-0.05 0.12,-0.08 0.22,-0.12 l 0.12,-0.03 -0.12,0.05 0.12,-0.05 -0.05,0.03 0.31,-0.2 -0.05,0.05 0.12,-0.09 c 0.05,-0.03 0.08,-0.03 0.1,-0.08 l 0.17,-0.04 v 0 l 0.14,-0.08 0.07,-0.04 0.32,-0.12 h 0.02 l 1.2,-0.44 -0.05,0.03 0.79,-0.34 -0.28,0.19 0.07,-0.07 c 0.21,-0.24 0.55,-0.33 0.86,-0.24 0.31,0.07 0.55,0.31 0.65,0.63 0.07,0.31 -0.02,0.64 -0.24,0.88 l -0.07,0.05 c -0.07,0.07 -0.19,0.15 -0.29,0.19 l -0.79,0.34 -0.07,0.02 -1.2,0.41 v 0 l -0.34,0.1 0.05,-0.03 -0.15,0.08 v 0 l -0.14,0.07 0.1,-0.07 -0.15,0.09 -0.05,0.03 -0.31,0.16 -0.09,0.05 -0.12,0.03 c -0.05,0.02 -0.1,0.02 -0.12,0.04 l -0.15,0.03 0.22,-0.07 -0.12,0.04 c -0.1,0.05 -0.22,0.08 -0.31,0.1 h -0.15 l 0.12,-0.02 -0.24,0.07 c -0.36,0.07 -0.74,-0.15 -0.86,-0.51 -0.15,-0.33 0,-0.74 0.31,-0.93 z"
         style="fill:#000000;fill-opacity:1;fill-rule:nonzero;stroke:none"
         transform="matrix(1.3333333,0,0,-1.3333333,0,1120.8)" />
    </g>
    <g
       id="g260"
       transform="matrix(9.5210834,0,0,9.5210834,-3987.9953,-1587.3041)">
      <path
         id="path260"
         d="m 327.77,701.74 0.05,-0.15 0.02,-0.09 0.22,-0.39 -0.03,0.03 0.51,-1.18 v 0.05 l 0.24,-0.7 v 0 l 0.36,-1.01 v -0.04 l 0.24,-0.58 -0.05,0.19 0.02,-0.07 c 0.1,-0.5 0.58,-0.84 1.06,-0.77 0.53,0.1 0.86,0.58 0.79,1.08 l -0.02,0.07 c 0,0.08 -0.03,0.15 -0.05,0.22 l -0.24,0.58 0.02,-0.03 -0.36,0.99 v 0.02 l -0.26,0.7 -0.03,0.07 -0.52,1.17 -0.05,0.08 -0.24,0.4 v 0.03 l -0.1,0.14 c -0.24,0.36 -0.74,0.51 -1.15,0.31 -0.41,-0.21 -0.6,-0.69 -0.43,-1.12 z"
         style="fill:#000000;fill-opacity:1;fill-rule:nonzero;stroke:none"
         transform="matrix(1.3333333,0,0,-1.3333333,0,1120.8)" />
    </g>
    <g
       id="g261"
       transform="matrix(9.5210834,0,0,9.5210834,-3987.9953,-1587.3041)">
      <path
         id="path261"
         d="m 331.3,702.38 0.02,-1.39 v -0.07 l 0.05,-0.5 v 0 l 0.07,-0.92 0.02,-0.07 0.2,-1.32 0.02,-0.09 v -0.05 0 l 0.02,-0.05 c 0.15,-0.53 0.68,-0.84 1.18,-0.7 0.53,0.12 0.84,0.65 0.7,1.16 v 0.04 0 0.05 -0.07 l -0.22,1.34 v -0.04 l -0.1,0.91 v 0.02 l -0.07,0.51 v 0 L 333,702.5 c -0.07,0.46 -0.48,0.8 -0.91,0.77 -0.46,-0.05 -0.79,-0.43 -0.79,-0.89 z"
         style="fill:#000000;fill-opacity:1;fill-rule:nonzero;stroke:none"
         transform="matrix(1.3333333,0,0,-1.3333333,0,1120.8)" />
    </g>
    <g
       id="g262"
       transform="matrix(9.5210834,0,0,9.5210834,-3987.9953,-1587.3041)">
      <path
         id="path262"
         d="m 331.54,701.78 0.07,-0.04 c 0.07,-0.1 0.19,-0.15 0.31,-0.2 l 0.7,-0.19 0.12,-0.05 0.98,-0.19 c 0.05,0 0.12,0 0.17,0 h 0.07 l -0.36,0.07 0.05,-0.04 c 0.05,0 0.12,-0.03 0.17,-0.03 l 0.07,-0.02 0.02,-0.03 h 0.07 l -0.33,0.12 0.05,-0.02 c 0.04,-0.02 0.12,-0.05 0.16,-0.1 l 0.15,-0.04 h -0.03 l 0.24,-0.1 -0.28,0.19 0.07,-0.05 -0.22,1.25 -0.02,-0.05 0.5,0.46 -0.19,-0.1 0.05,0.03 -0.48,-0.17 -0.07,-0.02 -0.15,-0.08 -0.07,-0.04 -0.14,-0.08 v 0 l -0.36,-0.19 h -0.03 l -0.86,-0.53 -0.1,-0.04 -0.07,-0.03 0.17,0.07 -0.07,-0.02 v 0 l -0.22,-0.1 0.14,0.05 -0.02,-0.02 c -0.55,-0.19 -0.86,-0.79 -0.67,-1.35 0.17,-0.55 0.77,-0.84 1.32,-0.64 h 0.05 c 0.04,0.02 0.09,0.04 0.14,0.04 l 0.22,0.12 v 0 l 0.07,0.05 c 0.05,0.03 0.12,0.05 0.17,0.1 l 0.02,0.02 -0.07,-0.05 0.84,0.51 -0.03,-0.03 0.34,0.2 v 0 l 0.17,0.09 -0.07,-0.05 0.14,0.08 -0.07,-0.03 0.48,0.19 0.07,0.03 0.19,0.07 c 0.29,0.14 0.51,0.38 0.58,0.7 v 0.04 c 0.14,0.48 -0.1,1.01 -0.55,1.2 l -0.1,0.05 -0.05,0.03 -0.24,0.09 v 0 l -0.17,0.05 0.15,-0.05 -0.05,0.03 c -0.12,0.04 -0.24,0.09 -0.36,0.12 h -0.07 0.02 -0.07 l 0.19,-0.03 h -0.07 c -0.12,0.05 -0.24,0.07 -0.36,0.07 h -0.07 0.17 l -1.01,0.12 v 0 l -0.72,0.12 0.07,-0.02 -0.07,0.02 c -0.41,0.1 -0.84,-0.09 -1.03,-0.48 -0.17,-0.36 -0.1,-0.81 0.24,-1.08 z"
         style="fill:#000000;fill-opacity:1;fill-rule:nonzero;stroke:none"
         transform="matrix(1.3333333,0,0,-1.3333333,0,1120.8)" />
    </g>
    <g
       id="g263"
       transform="matrix(9.5210834,0,0,9.5210834,-3987.9953,-1587.3041)">
      <path
         id="path263"
         d="m 328.25,702.91 v -0.02 c -0.19,-0.07 -0.34,-0.19 -0.43,-0.36 l -0.05,-0.1 0.05,0.1 -0.29,-0.39 -0.05,-0.07 -0.07,-0.09 0.07,0.09 -0.07,-0.09 c -0.03,-0.03 -0.05,-0.08 -0.07,-0.12 l -0.17,-0.24 -0.03,-0.05 -0.12,-0.22 0.03,0.07 -0.19,-0.31 0.04,0.05 -0.14,-0.19 0.43,0.33 -0.17,-0.07 0.48,0.05 h -0.04 l 0.38,-0.12 -0.05,0.02 v 0 l -0.02,0.03 0.19,-0.15 -0.14,0.15 -0.1,0.05 -0.07,0.04 0.17,-0.12 -0.05,0.05 v 0 l -0.07,0.07 v 0 l -0.17,0.17 -0.03,0.05 -0.07,0.07 0.05,-0.05 -0.07,0.08 -0.07,0.07 -0.1,0.09 -0.05,0.05 -0.07,0.07 v 0 l -0.1,0.08 c -0.04,0.04 -0.09,0.07 -0.14,0.09 l -0.24,0.17 v 0 l -0.05,0.02 -0.07,0.05 h -0.02 c -0.36,0.19 -0.77,0.15 -1.13,-0.05 -0.34,-0.24 -0.53,-0.62 -0.48,-1.03 0,-0.38 0.24,-0.74 0.62,-0.93 v 0 l 0.1,-0.03 0.02,-0.02 -0.14,0.07 0.26,-0.14 -0.07,0.04 0.12,-0.07 v 0 l 0.1,-0.07 -0.08,0.05 0.1,-0.07 -0.05,0.04 0.1,-0.07 0.05,-0.07 0.09,-0.05 -0.14,0.12 0.19,-0.19 0.05,-0.05 0.05,-0.05 v 0 l 0.07,-0.07 c 0.05,-0.05 0.09,-0.07 0.14,-0.12 l 0.1,-0.05 -0.12,0.1 0.14,-0.14 c 0.1,-0.05 0.17,-0.1 0.24,-0.12 l 0.03,-0.03 v 0 l 0.04,-0.02 c 0.17,-0.07 0.39,-0.1 0.56,-0.07 h 0.04 c 0.39,0.04 0.72,0.33 0.84,0.69 l 0.08,0.17 -0.12,-0.22 0.14,0.22 0.05,0.07 0.17,0.31 0.02,0.08 0.1,0.21 -0.03,-0.07 0.15,0.26 -0.03,-0.04 0.05,0.09 c 0.02,0.03 0.05,0.07 0.07,0.12 l 0.05,0.1 -0.02,-0.07 0.24,0.45 0.02,0.07 0.05,0.1 c 0.12,0.26 0.09,0.55 -0.05,0.79 v 0.03 c -0.22,0.33 -0.65,0.48 -1.03,0.33 z"
         style="fill:#000000;fill-opacity:1;fill-rule:nonzero;stroke:none"
         transform="matrix(1.3333333,0,0,-1.3333333,0,1120.8)" />
    </g>
    <g
       id="g264"
       transform="matrix(9.5210834,0,0,9.5210834,-3987.9953,-1587.3041)">
      <path
         id="path264"
         d="m 328.92,701.66 0.14,0.05 -0.26,-0.05 h 0.22 l -0.34,0.1 0.12,-0.07 c 0.29,-0.17 0.67,-0.15 0.96,0.07 0.26,0.19 0.41,0.55 0.34,0.89 -0.05,0.33 -0.32,0.62 -0.65,0.69 v 0 l 0.65,-1 0.02,0.12 c 0,0.12 0,0.24 -0.02,0.36 l -0.05,0.21 -0.03,0.07 -0.02,0.08 v 0.04 l -0.02,0.08 v 0 l -0.05,0.07 c 0,0.05 -0.03,0.07 -0.05,0.12 l -0.02,0.07 -0.05,0.07 -0.12,0.15 v 0.02 l -0.1,0.12 c -0.02,0.07 -0.09,0.1 -0.14,0.14 l -0.29,0.27 0.1,-0.07 -0.1,0.09 c -0.02,0.03 -0.05,0.05 -0.1,0.07 l -0.09,0.1 0.12,-0.1 -0.07,0.1 v -0.02 l -0.17,0.19 0.05,-0.07 -0.12,0.16 -0.08,0.1 -0.02,0.02 c -0.05,0.05 -0.07,0.1 -0.12,0.12 l -0.05,0.05 0.29,-0.41 -0.02,0.05 c 0,0.07 -0.05,0.12 -0.1,0.17 l -0.02,0.05 v 0 l -0.03,0.07 0.1,-0.19 -0.03,0.05 v 0 l -0.02,0.04 v 0 l -0.02,0.05 0.02,-0.07 -0.02,0.12 0.02,-0.1 -0.02,0.1 v 0 l -0.03,0.07 0.03,-0.09 v 0.07 -0.03 l -0.03,0.12 0.03,-0.14 v 0.1 0 0.09 0 0.1 0 0.09 0 0.1 l -0.05,-0.26 0.02,0.09 v 0 l 0.03,0.07 c 0.02,0.05 0.02,0.1 0.02,0.15 l 0.02,0.09 -0.09,-0.31 0.05,0.1 c 0.02,0.05 0.04,0.09 0.07,0.17 v 0.09 l -0.05,-0.17 0.05,0.1 -0.05,-0.05 0.12,0.22 0.05,0.07 0.05,0.07 -0.1,-0.12 0.05,0.05 -0.03,-0.05 0.05,0.07 v 0 l 0.05,0.1 -0.14,-0.19 0.04,0.07 v 0 l 0.08,0.05 0.04,0.07 0.08,0.07 -0.17,-0.17 0.07,0.05 c 0.02,0.05 0.05,0.07 0.1,0.07 l 0.04,0.08 -0.09,-0.08 0.07,0.05 -0.1,-0.07 0.08,0.07 0.07,0.05 0.07,0.02 -0.19,-0.12 0.07,0.05 v 0 l 0.07,0.05 -0.07,-0.05 0.1,0.05 c 0.02,0.02 0.07,0.02 0.12,0.07 l 0.07,0.03 -0.29,-0.1 h 0.1 l 0.04,0.02 0.08,0.03 -0.08,-0.03 0.22,0.05 h -0.07 l 0.14,0.03 -0.09,-0.03 0.12,0.03 -0.12,-0.03 h 0.12 v 0 h 0.14 v 0 h 0.12 l -0.12,0.03 0.14,-0.03 h -0.02 0.1 -0.08 l 0.15,-0.02 -0.03,0.02 0.12,-0.05 v 0 l 0.12,-0.02 -0.16,0.05 0.31,-0.1 h -0.05 l 0.12,-0.05 -0.12,0.08 0.12,-0.08 v 0 l 0.1,-0.04 v 0 l 0.12,-0.08 -0.15,0.1 0.1,-0.07 0.05,-0.05 0.12,-0.05 -0.12,0.07 0.24,-0.19 -0.1,0.07 0.12,-0.12 0.07,-0.07 0.15,-0.12 -0.12,0.12 0.12,-0.12 -0.05,0.05 0.12,-0.17 v 0 l 0.09,-0.12 -0.02,0.03 0.12,-0.15 -0.07,0.1 0.07,-0.15 v 0.03 l 0.17,-0.36 -0.03,0.07 0.08,-0.14 -0.03,0.04 0.05,-0.14 v 0 l 0.05,-0.12 -0.05,0.12 0.05,-0.17 v 0 l 0.05,-0.14 -0.03,0.09 0.03,-0.12 v 0 l 0.02,-0.16 -0.02,0.19 0.02,-0.15 v -0.07 -0.14 0.14 -0.41 -0.04 -0.1 0.22 -0.12 0 l -0.02,-0.1 v -0.02 l -0.05,-0.22 0.07,0.24 -0.02,-0.05 0.07,0.12 -0.03,-0.05 c -0.04,-0.09 -0.09,-0.19 -0.14,-0.31 v -0.05 l 0.12,0.32 v -0.03 c -0.07,-0.09 -0.12,-0.21 -0.14,-0.33 v -0.05 l 0.24,0.5 -0.03,-0.05 c -0.09,-0.12 -0.19,-0.26 -0.24,-0.4 l -0.02,-0.05 0.17,0.31 -0.05,-0.05 -0.03,-0.05 -0.02,-0.04 0.12,0.16 -0.02,-0.04 v 0.02 l -0.08,-0.07 0.68,0.29 h -0.03 c -0.26,0 -0.5,-0.12 -0.67,-0.32 v 0 c -0.19,-0.19 -0.29,-0.48 -0.29,-0.74 v -0.02 c 0.03,-0.56 0.51,-1.01 1.06,-0.99 0.57,0.03 1.03,0.51 1.01,1.08 -0.03,0.55 -0.51,0.99 -1.08,0.99 v 0 c -0.29,-0.03 -0.53,-0.12 -0.72,-0.32 v -0.02 l 0.72,0.31 h -0.03 c -0.29,0 -0.55,-0.12 -0.74,-0.33 v 0 l 0.67,0.33 v 0 h 0.05 -0.03 v 0 0 0 h -0.02 -0.02 v 0 h 0.04 -0.04 -0.05 -0.05 c -0.53,-0.05 -0.96,-0.48 -0.96,-1.03 0,-0.53 0.43,-0.98 0.96,-1.01 h 0.05 0.05 0.04 -0.04 v 0 h 0.02 0.02 v 0 0 0 h 0.03 -0.05 v 0 c 0.29,-0.05 0.58,0.05 0.77,0.24 l 0.02,0.03 -0.72,-0.27 h 0.03 c 0.26,-0.02 0.52,0.07 0.72,0.27 l 0.02,0.02 -0.74,-0.29 v 0 c 0.57,-0.02 1.05,0.43 1.08,0.99 v 0.02 l -0.34,-0.72 0.02,0.02 -0.79,-0.28 h 0.03 c 0.28,-0.03 0.57,0.09 0.79,0.28 l 0.07,0.08 v 0 l 0.02,0.02 c 0.05,0.05 0.1,0.1 0.15,0.14 v 0.05 l -0.03,-0.05 0.05,0.05 c 0.05,0.1 0.12,0.19 0.15,0.29 l 0.02,0.02 -0.26,-0.38 0.02,0.02 c 0.14,0.15 0.24,0.32 0.29,0.48 l 0.02,0.05 -0.14,-0.33 0.02,0.04 c 0.05,0.1 0.12,0.22 0.15,0.32 l 0.02,0.07 -0.17,-0.34 0.03,0.03 c 0.02,0.04 0.04,0.09 0.07,0.12 l 0.02,0.04 c 0.05,0.1 0.1,0.2 0.1,0.29 l 0.05,0.24 v -0.05 l 0.02,0.12 v 0 l 0.05,0.12 c 0,0.08 0,0.15 0,0.22 v 0.1 0 l 0.02,0.36 v 0.12 0.14 -0.1 0.15 c 0,0.05 0,0.12 -0.02,0.17 v 0.14 0 l -0.03,0.14 -0.02,0.1 -0.02,0.14 v -0.02 l -0.05,0.14 -0.03,0.1 -0.04,0.14 v 0 l -0.05,0.12 v 0.05 l -0.07,0.17 -0.03,0.07 -0.19,0.36 v 0 l -0.07,0.17 c -0.03,0.02 -0.05,0.07 -0.07,0.12 l -0.1,0.14 -0.02,0.03 -0.12,0.14 v 0 l -0.1,0.15 -0.02,0.04 -0.1,0.12 c -0.05,0.05 -0.07,0.1 -0.12,0.12 l -0.12,0.12 0.07,-0.07 -0.12,0.12 c -0.05,0.05 -0.07,0.07 -0.12,0.12 l -0.21,0.19 -0.1,0.08 -0.12,0.07 0.05,-0.03 -0.07,0.05 c -0.05,0.05 -0.1,0.07 -0.15,0.1 l -0.09,0.07 v 0 l -0.12,0.05 v 0 l -0.1,0.07 c -0.02,0.02 -0.07,0.02 -0.12,0.05 l -0.12,0.05 -0.05,0.02 -0.31,0.12 c -0.02,0 -0.1,0.02 -0.14,0.02 l -0.12,0.03 v 0 l -0.12,0.02 v 0 l -0.15,0.05 h -0.07 -0.12 -0.02 l -0.12,0.02 h -0.1 -0.12 v 0 h -0.14 v 0 h -0.12 -0.1 l -0.12,-0.02 h -0.1 l -0.14,-0.02 -0.07,-0.03 -0.22,-0.05 -0.07,-0.02 -0.07,-0.02 0.05,0.02 -0.1,-0.05 c -0.1,-0.02 -0.17,-0.05 -0.26,-0.12 l -0.05,-0.02 0.12,0.07 -0.07,-0.05 -0.08,-0.02 -0.04,-0.03 v 0 l -0.1,-0.04 c -0.07,-0.03 -0.12,-0.08 -0.19,-0.12 l -0.05,-0.05 0.07,0.07 -0.07,-0.07 -0.07,-0.05 -0.07,-0.05 c -0.03,-0.02 -0.05,-0.05 -0.1,-0.07 l -0.05,-0.07 0.1,0.07 -0.07,-0.05 c -0.05,-0.05 -0.1,-0.07 -0.15,-0.14 l -0.07,-0.07 0.07,0.07 -0.07,-0.05 v 0 l -0.05,-0.05 c -0.02,-0.07 -0.07,-0.12 -0.12,-0.17 l -0.05,-0.07 v 0 l -0.04,-0.07 -0.03,-0.05 -0.02,-0.07 c -0.05,-0.05 -0.07,-0.1 -0.1,-0.12 l -0.02,-0.1 0.02,0.05 -0.12,-0.21 -0.02,-0.08 -0.05,-0.09 c 0,-0.05 -0.02,-0.1 -0.05,-0.17 l -0.02,-0.1 0.07,0.17 -0.05,-0.07 c -0.02,-0.1 -0.07,-0.22 -0.07,-0.31 v -0.1 0.15 -0.1 0 l -0.05,-0.1 c 0,-0.09 -0.02,-0.19 0,-0.26 v -0.1 0 -0.09 0 -0.1 0 -0.09 0 -0.1 c 0,-0.05 0,-0.1 0,-0.12 l 0.03,-0.12 v 0 l 0.02,-0.1 0.02,-0.12 0.03,-0.07 v 0 l 0.02,-0.09 0.03,-0.12 0.07,-0.12 c 0,-0.05 0.02,-0.1 0.05,-0.15 l 0.02,-0.05 v 0 l 0.02,-0.04 v 0 l 0.03,-0.03 c 0.02,-0.07 0.07,-0.12 0.12,-0.17 l 0.02,-0.04 v 0 l 0.05,-0.05 -0.12,0.17 0.05,-0.08 c 0.07,-0.12 0.17,-0.24 0.31,-0.33 l 0.05,-0.03 -0.12,0.08 0.05,-0.03 -0.1,0.1 0.12,-0.17 0.07,-0.05 0.17,-0.19 0.05,-0.05 0.09,-0.07 c 0.05,-0.05 0.08,-0.07 0.12,-0.1 l 0.1,-0.07 -0.12,0.1 0.1,-0.07 0.07,-0.05 0.29,-0.22 -0.08,0.03 0.1,-0.08 -0.07,0.08 0.12,-0.15 0.07,-0.09 0.07,-0.03 -0.07,0.07 0.05,-0.04 v 0 l 0.05,-0.08 -0.08,0.08 0.05,-0.05 -0.12,0.24 0.05,-0.22 -0.02,0.15 0.02,-0.12 c 0.05,-0.24 0.19,-0.48 0.41,-0.6 0.19,-0.15 0.45,-0.2 0.72,-0.12 v 0 c 0.38,0.09 0.65,0.45 0.67,0.84 0,0.4 -0.26,0.76 -0.62,0.88 -0.39,0.12 -0.82,-0.04 -1.01,-0.36 l -0.1,-0.12 0.46,0.32 -0.22,-0.08 c -0.07,0 -0.14,-0.04 -0.21,-0.07 l -0.12,-0.09 c -0.34,-0.2 -0.44,-0.6 -0.27,-0.92 0.17,-0.33 0.55,-0.48 0.89,-0.36 z"
         style="fill:#000000;fill-opacity:1;fill-rule:nonzero;stroke:none"
         transform="matrix(1.3333333,0,0,-1.3333333,0,1120.8)" />
    </g>
    <g
       id="g265"
       transform="matrix(9.5210834,0,0,9.5210834,-3987.9953,-1587.3041)">
      <path
         id="path265"
         d="m 328.06,705.24 0.12,-0.05 c 0.07,0 0.14,-0.02 0.24,0 h 0.14 -0.12 0.05 c 0.07,0 0.12,0 0.17,0 h 0.07 -0.17 0.05 v 0 h 0.05 v 0 h 0.04 -0.02 l 0.12,-0.02 v 0 l 0.24,-0.03 h 0.05 0.05 v 0 l 0.04,-0.02 -0.16,0.05 0.02,-0.03 c 0.07,-0.02 0.12,-0.02 0.19,-0.02 h 0.05 l -0.19,0.02 0.07,-0.02 v 0 h 0.05 -0.05 l 0.12,-0.05 c 0.02,0 0.07,0 0.12,-0.02 l 0.05,-0.03 -0.15,0.08 0.08,-0.05 h 0.02 l 0.05,-0.03 v 0 l 0.07,-0.02 -0.17,0.1 0.05,-0.05 c 0.05,-0.03 0.1,-0.05 0.14,-0.1 l 0.08,-0.02 -0.12,0.09 0.04,-0.07 0.08,-0.05 0.07,-0.02 -0.07,0.05 0.02,-0.05 v 0 l 0.07,-0.05 -0.07,0.05 0.17,-0.14 -0.03,0.02 0.08,-0.1 v 0 l 0.07,-0.09 -0.05,0.09 0.05,-0.09 v 0 l 0.05,-0.1 v 0.05 l 0.04,-0.12 v 0 l 0.1,-0.19 -0.02,0.09 0.02,-0.14 c 0.02,-0.05 0.05,-0.1 0.07,-0.12 l 0.07,-0.12 v 0 l 0.08,-0.12 v 0 l 0.16,-0.26 0.08,-0.08 0.31,-0.36 -0.05,0.05 0.05,-0.09 0.05,-0.03 0.02,-0.07 -0.02,0.07 0.12,-0.19 v 0 l 0.14,-0.22 0.05,-0.07 0.19,-0.24 0.05,-0.05 0.05,-0.04 c 0.26,-0.24 0.72,-0.24 0.98,0.04 0.29,0.27 0.29,0.72 0.02,1.01 h -0.02 l 0.05,-0.02 -0.19,0.21 0.04,-0.07 -0.14,0.24 v 0 l -0.12,0.19 -0.02,0.05 -0.05,0.07 v -0.04 l -0.05,0.09 -0.02,0.05 -0.34,0.36 0.07,-0.07 -0.14,0.24 v 0 l -0.07,0.12 v 0 l -0.08,0.12 0.08,-0.15 -0.05,0.15 -0.05,0.09 -0.12,0.22 v 0 l -0.05,0.12 -0.02,0.02 -0.05,0.1 v 0 l -0.07,0.1 c -0.03,0.02 -0.05,0.04 -0.07,0.09 l -0.1,0.07 h 0.02 l -0.07,0.1 -0.02,0.02 -0.15,0.15 -0.07,0.07 -0.07,0.07 h -0.02 l -0.05,0.05 -0.07,0.07 -0.08,0.03 0.08,-0.08 -0.05,0.05 c -0.05,0.05 -0.1,0.07 -0.15,0.1 l -0.04,0.02 0.12,-0.07 -0.08,0.05 c -0.04,0.02 -0.09,0.07 -0.16,0.09 l -0.1,0.03 v 0.02 h -0.07 0.02 l -0.07,0.05 c -0.07,0.02 -0.12,0.02 -0.19,0.02 l -0.05,0.03 0.1,-0.03 -0.12,0.05 h -0.08 -0.04 v 0 l -0.05,0.03 c -0.05,0.02 -0.12,0.02 -0.17,0.02 l -0.05,-0.02 h 0.17 -0.05 c -0.07,0.02 -0.12,0.02 -0.17,0.02 h -0.04 v 0 l -0.05,-0.02 0.05,0.02 -0.24,-0.02 h 0.02 l -0.12,0.02 h -0.1 l -0.04,-0.02 v 0 h -0.05 v 0 h -0.05 c -0.05,-0.03 -0.12,-0.03 -0.17,-0.05 l -0.05,-0.03 0.15,0.05 h -0.05 l -0.07,-0.02 -0.17,-0.03 h 0.1 -0.15 c -0.31,-0.04 -0.53,-0.26 -0.55,-0.57 -0.02,-0.29 0.17,-0.55 0.46,-0.65 z"
         style="fill:#000000;fill-opacity:1;fill-rule:nonzero;stroke:none"
         transform="matrix(1.3333333,0,0,-1.3333333,0,1120.8)" />
    </g>
  </g>
</svg>
