<?xml version="1.0" encoding="UTF-8" standalone="no"?>
<!-- Created with Inkscape (http://www.inkscape.org/) -->

<svg
   version="1.1"
   id="svg1"
   width="30.596018"
   height="30"
   viewBox="0 0 30.596018 29.999999"
   sodipodi:docname="lesson1_sentence10_word1.svg"
   inkscape:export-filename="lesson1_sentence10.png"
   inkscape:export-xdpi="709.79663"
   inkscape:export-ydpi="709.79663"
   inkscape:version="1.4.3 (0d15f75, 2025-12-25)"
   xmlns:inkscape="http://www.inkscape.org/namespaces/inkscape"
   xmlns:sodipodi="http://sodipodi.sourceforge.net/DTD/sodipodi-0.dtd"
   xmlns="http://www.w3.org/2000/svg"
   xmlns:svg="http://www.w3.org/2000/svg">
  <defs
     id="defs1" />
  <sodipodi:namedview
     id="namedview1"
     pagecolor="#ffffff"
     bordercolor="#000000"
     borderopacity="0.25"
     inkscape:showpageshadow="2"
     inkscape:pageopacity="0.0"
     inkscape:pagecheckerboard="0"
     inkscape:deskcolor="#d1d1d1"
     inkscape:zoom="4.6282088"
     inkscape:cx="1.0803316"
     inkscape:cy="85.886358"
     inkscape:window-width="1920"
     inkscape:window-height="1191"
     inkscape:window-x="-9"
     inkscape:window-y="-9"
     inkscape:window-maximized="1"
     inkscape:current-layer="g1">
    <inkscape:page
       x="0"
       y="0"
       inkscape:label="1"
       id="page1"
       width="30.596018"
       height="29.999998"
       margin="0"
       bleed="0" />
  </sodipodi:namedview>
  <g
     id="g1"
     inkscape:groupmode="layer"
     inkscape:label="1"
     transform="translate(-746.73849,-102.46669)">
    <g
       id="g303">
      <path
         id="path303"
         d="m 562.68,762.22 v 0.24 0 0 l -0.24,-0.56 v 0.03 0 l 0.02,0.02 c 0.15,0.15 0.24,0.36 0.24,0.58 l 0.03,0.02 -0.29,-0.6 0.02,0.03 h 0.03 l 0.02,0.04 v 0 0.03 0 l 0.05,0.02 -0.05,-0.02 0.05,0.02 -0.65,-0.24 v 0 c 0.29,-0.02 0.53,0.07 0.7,0.24 v 0.03 0 l 0.02,0.04 -0.65,-0.28 v 0 c 0.24,0 0.48,0.07 0.65,0.24 0.17,0.16 0.29,0.36 0.29,0.6 v 0.04 l -0.48,-0.76 0.05,0.04 -0.46,-0.12 v 0 l -0.02,0.03 0.02,-0.03 h 0.07 0.03 v 0 0 c 0.26,0 0.5,0.08 0.69,0.27 l 0.03,0.02 -0.65,-0.26 h 0.02 0.1 l 0.62,0.02 h -0.09 v 0 h 0.02 0.12 v 0 h 0.07 l -0.19,0.03 0.12,-0.03 c 0.07,0 0.12,-0.02 0.19,-0.02 h 0.1 l -0.22,0.05 0.05,-0.03 v 0 l 0.1,-0.02 h 0.07 l 0.07,-0.03 -0.24,0.08 0.1,-0.05 c 0.07,-0.03 0.14,-0.07 0.24,-0.1 l 0.09,-0.02 -0.24,0.09 0.1,-0.04 0.07,-0.03 0.1,-0.05 -0.05,0.03 0.05,-0.03 v 0 l 0.09,-0.07 -0.12,0.1 0.05,-0.07 v 0 l 0.19,-0.15 -0.07,0.1 0.07,-0.1 -0.07,0.07 0.1,-0.09 0.07,-0.1 0.12,-0.12 v 0 l 0.05,-0.09 -0.1,0.16 0.1,-0.16 -0.03,0.04 0.05,-0.09 0.07,-0.12 0.1,-0.1 -0.07,0.07 0.09,-0.16 -0.09,0.21 0.07,-0.14 v -0.03 l 0.14,-0.4 -0.02,0.04 0.19,-0.57 -0.02,0.02 0.14,-0.57 v 0.04 l 0.12,-0.57 v 0.05 l 0.19,-1.37 v 0.02 l 0.15,-1.94 v 0.09 -1.29 0 l 0.02,-2.19 v 0 l 0.1,-5.54 v -0.05 l 0.09,-1.44 v 0.03 l 0.1,-2.04 v 0.07 -0.1 c 0,-0.33 0.17,-0.67 0.48,-0.84 0.29,-0.14 0.65,-0.14 0.96,0 0.26,0.17 0.43,0.51 0.43,0.84 v 0.1 0.05 l -0.12,2.01 v 0.03 l -0.07,1.41 v -0.02 l -0.12,5.52 v 0 l -0.05,2.18 v -0.02 1.29 0.05 l -0.17,1.95 v 0.07 l -0.19,1.37 -0.02,0.07 -0.12,0.6 v 0.02 l -0.15,0.58 v 0.05 l -0.21,0.6 v 0.04 l -0.15,0.39 v -0.07 l -0.02,0.16 c -0.05,0.05 -0.07,0.12 -0.1,0.2 l -0.09,0.12 -0.03,0.07 -0.09,0.12 0.07,-0.1 -0.07,0.12 -0.03,0.03 -0.09,0.12 c -0.03,0.07 -0.05,0.12 -0.1,0.16 l -0.07,0.08 v 0 l -0.1,0.12 0.05,-0.08 -0.07,0.12 -0.07,0.08 -0.1,0.09 -0.07,0.07 -0.19,0.15 v 0.02 l -0.1,0.07 c -0.05,0.03 -0.07,0.05 -0.14,0.08 l -0.1,0.07 v 0 l -0.07,0.02 -0.07,0.03 -0.1,0.07 0.07,-0.03 -0.09,0.03 c -0.05,0.05 -0.15,0.09 -0.24,0.09 l -0.1,0.03 0.24,-0.1 -0.07,0.03 c -0.1,0.07 -0.17,0.09 -0.24,0.09 l -0.12,0.03 h 0.05 l -0.1,0.04 v 0 h -0.07 c -0.07,0.03 -0.17,0.03 -0.24,0.03 h -0.1 0.17 -0.07 c -0.07,0.02 -0.12,0.02 -0.22,0.02 h -0.07 v 0 h -0.12 -0.02 v 0 h -0.05 l -0.65,-0.05 h 0.07 -0.02 c -0.29,0 -0.53,-0.12 -0.67,-0.31 l -0.03,-0.02 0.63,0.29 v 0 0 h -0.03 -0.07 -0.02 0.02 v 0 c -0.14,0 -0.26,-0.03 -0.38,-0.12 l -0.05,-0.03 c -0.29,-0.14 -0.46,-0.45 -0.43,-0.77 v -0.04 l 0.81,0.93 v 0 c -0.24,-0.02 -0.48,-0.14 -0.62,-0.33 h -0.05 v 0 -0.03 l 0.6,0.31 v 0 c -0.26,-0.04 -0.5,-0.16 -0.65,-0.33 v -0.03 0.03 -0.03 0 l -0.02,-0.04 v 0 h -0.05 v -0.03 l -0.02,-0.02 c -0.12,-0.19 -0.22,-0.36 -0.17,-0.58 v -0.02 l 0.19,0.6 -0.02,-0.03 v 0 l -0.03,-0.04 c -0.12,-0.15 -0.21,-0.36 -0.21,-0.6 h 0.02 c 0,-0.17 0.05,-0.29 0.12,-0.44 l 0.12,-0.19 c 0.19,-0.29 0.55,-0.41 0.89,-0.33 0.31,0.09 0.55,0.4 0.6,0.72 z"
         style="fill:#000000;fill-opacity:1;fill-rule:nonzero;stroke:none"
         transform="matrix(1.3333333,0,0,-1.3333333,0,1120.8)" />
    </g>
    <g
       id="g304">
      <path
         id="path304"
         d="m 561,762.7 -0.1,-0.27 c -0.02,-0.09 -0.02,-0.21 -0.02,-0.29 l 0.31,-2.25 v 0.02 l 0.43,-3.38 -0.02,0.05 0.02,-0.44 v 0 l 0.17,-3.69 v 0.02 -0.81 0 l -0.02,-0.96 0.02,0.14 -0.14,-0.62 0.09,0.21 -0.09,-0.19 0.74,0.53 v 0 c -0.36,-0.05 -0.67,-0.29 -0.84,-0.6 v 0 0 -0.05 l 0.31,0.41 v 0 c -0.14,-0.1 -0.24,-0.24 -0.33,-0.43 v 0 0 -0.03 c -0.17,-0.38 -0.1,-0.81 0.19,-1.15 h 0.02 c 0.15,-0.17 0.34,-0.26 0.53,-0.31 h 0.05 l -0.55,0.29 h 0.02 l -0.24,1.03 v -0.05 c -0.17,-0.48 0.07,-1.01 0.55,-1.25 v -0.02 l -0.31,0.24 0.05,-0.05 c 0.14,-0.14 0.31,-0.26 0.55,-0.31 h 0.05 l -0.58,0.31 0.03,-0.02 c 0.09,-0.1 0.19,-0.17 0.31,-0.24 h 0.02 l -0.33,0.24 0.02,-0.03 c 0.12,-0.14 0.31,-0.24 0.48,-0.31 l 0.1,-0.02 0.02,-0.03 0.41,-0.12 -0.07,0.03 1.03,-0.36 -0.17,0.09 0.89,-0.48 0.05,-0.02 0.21,-0.1 v 0 l 0.22,-0.09 c 0.6,-0.24 1.25,0.02 1.51,0.6 0.24,0.57 -0.02,1.27 -0.6,1.51 l -0.19,0.12 v 0 l -0.22,0.07 0.05,-0.05 -0.84,0.48 c -0.05,0.03 -0.12,0.03 -0.17,0.05 l -1.03,0.34 -0.05,0.02 -0.38,0.1 -0.1,0.02 -0.09,0.05 0.31,-0.12 -0.05,0.02 c -0.31,0.15 -0.67,0.15 -1.01,0 l -0.02,-0.02 h 1.01 l -0.03,0.02 c -0.24,0.12 -0.5,0.15 -0.74,0.1 h -0.05 l 0.77,-0.1 h -0.05 c -0.31,0.17 -0.67,0.17 -1.01,0 v 0 c -0.5,-0.26 -0.74,-0.86 -0.5,-1.41 0.24,-0.51 0.84,-0.77 1.37,-0.58 0.5,0.22 0.81,0.79 0.62,1.32 v 0.05 c -0.07,0.26 -0.26,0.5 -0.53,0.65 h -0.02 c -0.22,0.12 -0.48,0.14 -0.72,0.09 h -0.05 l 0.72,-0.09 h -0.02 l 0.48,-0.51 v 0.03 0 0 c -0.1,0.19 -0.17,0.33 -0.34,0.43 v 0 l 0.31,-0.41 v 0.05 0 0 c -0.14,0.31 -0.48,0.55 -0.84,0.6 v 0 c -0.48,0.05 -0.93,-0.31 -1.03,-0.79 -0.07,-0.48 0.22,-0.96 0.7,-1.08 0.45,-0.15 0.96,0.12 1.15,0.57 l 0.05,0.22 c 0.02,0.05 0.07,0.12 0.07,0.17 l 0.07,0.67 c 0.05,0.05 0.05,0.12 0.05,0.17 l -0.05,0.96 v 0 0.81 0.07 l -0.24,3.72 v 0 l -0.02,0.44 -0.03,0.07 -0.48,3.36 -0.02,0.05 -0.48,2.23 v -0.27 l 0.05,0.27 c 0.02,0.36 -0.22,0.72 -0.58,0.81 -0.36,0.05 -0.72,-0.16 -0.79,-0.52 z"
         style="fill:#000000;fill-opacity:1;fill-rule:nonzero;stroke:none"
         transform="matrix(1.3333333,0,0,-1.3333333,0,1120.8)" />
    </g>
    <g
       id="g305">
      <path
         id="path305"
         d="m 571.56,758.62 v 0.09 l -0.05,-0.17 v 0.03 l -0.07,-0.15 v 0 c 0.05,0.08 0.12,0.17 0.14,0.27 v 0.02 0 0 0 0.03 l -0.07,-0.15 0.05,0.03 v 0 0 c 0.02,0.07 0.02,0.09 0.02,0.16 v 0 0 l 0.03,0.03 -0.36,-0.48 v 0 0 l 0.02,0.02 0.1,0.03 v 0.04 c 0.14,0.08 0.26,0.27 0.31,0.41 v 0.03 l -0.84,-0.56 v 0 c 0.38,-0.07 0.77,0.17 0.86,0.56 v 0 l -0.31,-0.41 h 0.05 c 0.02,0.02 0.05,0.05 0.07,0.09 l 0.19,0.17 0.03,0.03 0.07,0.09 v 0 l 0.05,0.07 -0.05,-0.09 0.05,0.05 0.07,0.09 0.05,0.07 -0.05,-0.09 0.05,0.05 -0.1,-0.05 0.1,0.05 0.09,0.07 0.05,0.05 -0.14,-0.12 0.09,0.07 0.05,0.02 0.07,0.07 -0.02,-0.04 0.14,0.09 -0.09,-0.05 0.12,0.05 h 0.02 l 0.12,0.07 -0.12,-0.04 0.12,0.04 0.1,0.03 0.12,0.02 -0.24,-0.05 0.12,0.03 h 0.09 l 0.12,0.02 h -0.09 0.12 -0.15 0.12 0.12 0.12 0.03 l 0.09,0.03 H 573 l 0.26,-0.03 h 0.05 0.07 -0.14 0.07 c 0.07,0 0.1,-0.02 0.17,-0.02 h 0.05 l -0.36,0.09 0.07,-0.04 c 0.05,-0.03 0.12,-0.03 0.17,-0.05 l 0.07,-0.03 v 0 h 0.07 l -0.12,0.03 0.1,-0.03 -0.15,0.08 0.03,-0.05 0.09,-0.03 0.1,-0.04 v 0 l 0.05,-0.05 v 0 l 0.07,-0.03 -0.1,0.05 0.05,-0.02 -0.12,0.09 0.05,-0.04 c 0.02,-0.03 0.05,-0.05 0.07,-0.08 l 0.1,-0.07 h 0.02 l 0.05,-0.02 -0.12,0.09 0.07,-0.07 -0.12,0.12 0.05,-0.02 0.02,-0.07 0.1,-0.12 0.02,-0.03 0.17,-0.24 -0.05,0.1 0.15,-0.24 v 0.02 l 0.14,-0.26 v 0 l 0.17,-0.27 -0.05,0.08 0.31,-0.65 -0.02,0.09 0.6,-1.87 v -0.02 l 0.65,-2.04 0.07,-0.12 0.07,-0.19 -0.02,0.07 0.33,-0.79 0.03,-0.08 1.08,-2.06 0.07,-0.05 0.29,-0.48 v -0.02 l 0.33,-0.46 0.03,-0.07 0.33,-0.41 0.08,-0.07 0.76,-0.86 0.03,-0.03 0.21,-0.24 c 0.34,-0.33 0.92,-0.36 1.23,0 0.36,0.34 0.36,0.87 0.05,1.23 l -0.22,0.21 v -0.02 l -0.79,0.89 0.07,-0.05 -0.36,0.43 0.02,-0.02 -0.28,0.45 v 0 l -0.32,0.48 0.03,-0.05 -1.08,2.04 0.05,-0.09 -0.34,0.77 -0.02,0.04 -0.08,0.17 0.03,-0.09 -0.7,2.08 v 0 l -0.62,1.85 -0.03,0.1 -0.31,0.65 -0.02,0.09 -0.17,0.24 v 0 l -0.17,0.27 v 0.04 l -0.14,0.24 -0.05,0.08 -0.22,0.21 h 0.03 l -0.12,0.12 0.02,-0.02 -0.02,0.05 c -0.03,0.04 -0.05,0.09 -0.12,0.12 l -0.05,0.07 c -0.07,0.05 -0.1,0.09 -0.17,0.12 l -0.02,0.02 0.02,-0.02 -0.05,0.02 0.1,-0.05 -0.07,0.05 c -0.03,0.03 -0.1,0.07 -0.12,0.1 l -0.05,0.02 -0.1,0.07 -0.07,0.03 v 0 l -0.07,0.02 v 0 l -0.07,0.03 0.09,-0.05 -0.07,0.02 c -0.02,0.03 -0.07,0.07 -0.14,0.1 l -0.1,0.02 -0.07,0.03 h -0.1 v 0 l -0.07,0.04 0.19,-0.07 -0.07,0.03 c -0.12,0.07 -0.24,0.09 -0.38,0.07 h -0.05 0.14 -0.07 c -0.05,0.02 -0.12,0.02 -0.17,0.02 h -0.07 0.07 -0.31 c -0.05,0 -0.14,0 -0.19,0 l -0.1,-0.02 h 0.03 -0.12 0.09 -0.12 c -0.02,0 -0.09,0 -0.12,-0.03 h -0.09 l -0.1,-0.04 -0.12,-0.03 0.1,0.03 -0.12,-0.03 c -0.05,-0.02 -0.15,-0.05 -0.24,-0.09 l -0.1,-0.05 0.1,0.05 -0.1,-0.03 -0.07,-0.05 -0.12,-0.07 0.05,0.03 -0.12,-0.05 -0.1,-0.03 -0.17,-0.12 -0.09,-0.07 -0.05,-0.02 0.07,0.02 -0.07,-0.02 c -0.07,-0.07 -0.12,-0.1 -0.17,-0.15 l -0.05,-0.07 0.05,0.1 -0.05,-0.07 -0.07,-0.08 -0.05,-0.07 -0.09,-0.09 -0.03,-0.05 0.05,0.09 -0.05,-0.07 -0.09,-0.09 -0.03,-0.08 v 0 l -0.07,-0.07 0.05,0.03 -0.19,-0.2 v 0 -0.04 c -0.12,-0.15 -0.17,-0.39 -0.15,-0.6 v 0 c 0.1,-0.39 0.48,-0.63 0.87,-0.56 0.38,0.08 0.62,0.48 0.57,0.87 -0.09,0.38 -0.48,0.62 -0.86,0.53 v 0 c -0.22,-0.03 -0.36,-0.15 -0.48,-0.29 -0.1,-0.15 -0.12,-0.36 -0.1,-0.55 v -0.03 l 0.15,0.6 -0.03,-0.02 -0.07,-0.07 v -0.03 0 -0.02 c -0.07,-0.15 -0.12,-0.34 -0.07,-0.48 v -0.03 0 0 c 0,-0.07 0.02,-0.09 0.05,-0.16 v 0 0 -0.03 l -0.03,0.15 v -0.03 0 0 0 -0.02 c 0.03,-0.1 0.05,-0.19 0.12,-0.27 v 0 l -0.09,0.15 0.02,-0.03 c 0.07,-0.19 0.22,-0.33 0.43,-0.4 0.17,-0.03 0.39,0 0.58,0.12 l 0.05,0.07 c 0.09,0.05 0.19,0.17 0.19,0.29 z"
         style="fill:#000000;fill-opacity:1;fill-rule:nonzero;stroke:none"
         transform="matrix(1.3333333,0,0,-1.3333333,0,1120.8)" />
    </g>
    <g
       id="g306">
      <path
         id="path306"
         d="m 570.48,758.3 0.19,-0.24 h 0.05 l 0.19,-0.24 -0.05,0.05 0.22,-0.24 -0.07,0.1 0.14,-0.27 -0.02,0.05 0.43,-0.65 -0.1,0.12 0.27,-0.6 -0.03,0.03 0.24,-0.63 -0.02,0.08 0.41,-1.71 v 0.07 l 0.14,-0.81 0.05,-0.1 0.53,-1.68 c 0,-0.05 0.02,-0.12 0.07,-0.17 l 0.12,-0.24 v 0.03 l 0.07,-0.24 c 0.05,-0.05 0.05,-0.07 0.07,-0.1 l 0.15,-0.26 c 0.02,-0.05 0.07,-0.07 0.09,-0.12 l 0.17,-0.22 -0.02,0.03 0.19,-0.24 0.02,-0.03 0.15,-0.21 0.02,-0.03 0.19,-0.21 c 0.03,-0.03 0.05,-0.05 0.1,-0.1 l 0.19,-0.19 v 0 l 0.22,-0.19 0.09,-0.05 0.58,-0.48 c 0.02,-0.05 0.07,-0.07 0.12,-0.07 l 0.19,-0.15 v 0 l 0.24,-0.14 c 0.05,-0.05 0.1,-0.05 0.12,-0.07 l 0.29,-0.12 -0.1,0.02 0.24,-0.12 0.1,-0.05 0.26,-0.12 c 0.03,0 0.1,-0.02 0.12,-0.02 l 0.27,-0.1 -0.03,0.03 0.27,-0.12 h -0.03 l 0.27,-0.1 c 0.05,0 0.09,-0.02 0.17,-0.02 l 0.26,-0.1 v 0 l 0.29,-0.05 h 0.07 l 0.82,-0.14 h 0.04 l 0.32,-0.05 c 0.62,-0.05 1.15,0.36 1.22,1.01 0.1,0.6 -0.36,1.13 -0.96,1.22 l -0.34,0.03 0.08,-0.03 -0.82,0.15 0.1,-0.03 -0.32,0.1 v 0 l -0.26,0.05 0.12,-0.05 -0.24,0.12 h -0.02 l -0.32,0.07 -0.02,0.05 -0.26,0.07 0.12,-0.05 -0.24,0.12 0.04,-0.02 -0.24,0.12 -0.09,0.05 -0.24,0.09 0.12,-0.07 -0.24,0.17 v 0 l -0.22,0.14 0.1,-0.09 -0.58,0.48 0.05,-0.05 -0.22,0.19 v 0 l -0.21,0.19 0.09,-0.05 -0.19,0.17 0.05,-0.02 -0.19,0.21 0.02,-0.04 -0.17,0.24 -0.02,0.04 -0.19,0.2 0.09,-0.08 -0.14,0.24 0.05,-0.12 -0.12,0.24 -0.03,0.05 -0.12,0.24 0.05,-0.17 -0.53,1.68 0.03,-0.09 -0.17,0.77 v 0.04 l -0.46,1.71 c 0,0.02 -0.02,0.05 -0.02,0.12 l -0.29,0.62 v 0.03 l -0.26,0.64 c -0.03,0.05 -0.05,0.08 -0.1,0.15 l -0.43,0.65 -0.07,0.09 -0.17,0.22 -0.07,0.05 -0.22,0.21 -0.02,0.03 -0.24,0.21 c -0.05,0.07 -0.15,0.12 -0.22,0.15 l -0.29,0.16 c -0.38,0.17 -0.86,0.08 -1.15,-0.28 -0.26,-0.32 -0.24,-0.84 0.05,-1.16 z"
         style="fill:#000000;fill-opacity:1;fill-rule:nonzero;stroke:none"
         transform="matrix(1.3333333,0,0,-1.3333333,0,1120.8)" />
    </g>
    <g
       id="g307">
      <path
         id="path307"
         d="m 574.15,758.74 c 0,-0.32 -0.24,-0.6 -0.55,-0.6 -0.34,0 -0.58,0.28 -0.58,0.6 0,0.31 0.24,0.57 0.58,0.57 0.31,0 0.55,-0.26 0.55,-0.57 z"
         style="fill:#000000;fill-opacity:1;fill-rule:evenodd;stroke:none"
         transform="matrix(1.3333333,0,0,-1.3333333,0,1120.8)" />
    </g>
    <g
       id="g308">
      <path
         id="path308"
         d="m 573.55,750.96 v 0 0 -0.02 -0.03 -0.02 l 0.24,0.48 -0.02,-0.03 c -0.12,-0.09 -0.22,-0.28 -0.24,-0.43 v -0.02 l 0.24,0.45 v -0.04 c -0.05,-0.03 -0.12,-0.12 -0.15,-0.17 l -0.02,-0.03 0.67,0.36 v 0 c -0.29,0.03 -0.55,-0.12 -0.72,-0.4 l -0.02,-0.05 0.07,0.09 -0.1,-0.09 -0.02,-0.07 -0.67,-1.13 v -0.05 l -0.24,-0.43 v 0 l -0.34,-0.6 c -0.02,-0.07 -0.05,-0.17 -0.05,-0.22 l -0.02,-0.09 c -0.07,-0.27 0.02,-0.58 0.24,-0.75 0.19,-0.19 0.5,-0.24 0.77,-0.14 0.26,0.07 0.48,0.31 0.5,0.6 l 0.05,0.07 -0.07,-0.19 0.31,0.62 v 0 l 0.19,0.48 v 0 l 0.58,1.18 -0.05,-0.07 0.07,0.09 0.05,0.05 0.02,0.1 -0.55,-0.41 v 0 c 0.24,0.02 0.46,0.19 0.58,0.41 v 0.02 l -0.12,-0.14 h 0.02 c 0.12,0.14 0.19,0.36 0.17,0.55 v 0.02 l -0.17,-0.55 v 0 c 0.12,0.17 0.19,0.34 0.19,0.53 v 0.02 l -0.02,0.03 v 0.02 0 0 c -0.05,0.38 -0.34,0.62 -0.67,0.62 -0.36,0 -0.63,-0.24 -0.7,-0.62 z"
         style="fill:#000000;fill-opacity:1;fill-rule:nonzero;stroke:none"
         transform="matrix(1.3333333,0,0,-1.3333333,0,1120.8)" />
    </g>
    <g
       id="g309">
      <path
         id="path309"
         d="m 575.21,749.76 -0.12,-0.17 v -0.02 l -0.1,-0.1 c -0.02,-0.02 -0.02,-0.07 -0.05,-0.12 l -0.07,-0.09 v -0.05 l -0.14,-0.34 v -0.07 l -0.05,-0.12 0.05,0.1 -0.05,-0.12 v 0.02 l -0.17,-0.26 0.1,0.09 -0.05,-0.07 c -0.24,-0.31 -0.19,-0.79 0.14,-1.03 0.34,-0.29 0.82,-0.19 1.08,0.14 l 0.03,0.05 c 0.02,0.05 0.07,0.1 0.09,0.12 l 0.12,0.31 0.03,0.05 0.07,0.1 0.02,0.09 0.03,0.12 -0.03,-0.07 0.12,0.34 v 0 l 0.05,0.12 -0.05,-0.12 0.05,0.09 0.05,0.1 0.07,0.19 c 0.17,0.34 0.05,0.72 -0.26,0.91 -0.34,0.17 -0.75,0.12 -0.96,-0.19 z"
         style="fill:#000000;fill-opacity:1;fill-rule:nonzero;stroke:none"
         transform="matrix(1.3333333,0,0,-1.3333333,0,1120.8)" />
    </g>
    <g
       id="g310">
      <path
         id="path310"
         d="m 571.85,746.71 h 0.21 -0.07 0.22 0.07 1.01 -0.05 l 0.67,-0.02 h 0.05 l 1.85,-0.07 h 0.02 0.12 c 0.31,0 0.65,0.19 0.79,0.45 0.15,0.27 0.15,0.63 0,0.89 -0.14,0.31 -0.48,0.46 -0.79,0.46 h -0.12 -0.02 l -1.85,-0.03 v 0 l -0.67,-0.02 h -0.1 l -1.01,-0.12 h 0.03 -0.22 l -0.05,-0.05 -0.21,-0.02 c -0.36,-0.05 -0.63,-0.39 -0.6,-0.77 0.02,-0.41 0.33,-0.7 0.72,-0.7 z"
         style="fill:#000000;fill-opacity:1;fill-rule:nonzero;stroke:none"
         transform="matrix(1.3333333,0,0,-1.3333333,0,1120.8)" />
    </g>
  </g>
</svg>
