<svg width="32.641" height="6.9505" version="1.1" viewBox="0 0 32.641 6.9505" xmlns="http://www.w3.org/2000/svg">
 <g transform="translate(-199.04 -108.59)">
  <path transform="matrix(1.3333,0,0,-1.3333,0,1120.8)" d="m151.25 754.58 0.29 0.44 0.02 0.04 0.24 0.36-0.05-0.07 0.24 0.34 0.75 0.98c0.12 0.17 0.21 0.39 0.24 0.6v0.03l-0.53-0.89 0.02 0.02c0.31 0.22 0.51 0.55 0.55 0.94v0.02l-0.02-0.05-1.42-1.1h0.03c0.31-0.05 0.62 0.05 0.89 0.24h0.02c0.31 0.22 0.5 0.53 0.55 0.89v0.02l-1.44-1.13h0.03c0.33-0.02 0.64 0.05 0.91 0.24l0.02 0.03c0.31 0.21 0.51 0.55 0.53 0.93v0.03c0.07 0.72-0.46 1.37-1.18 1.44-0.72 0.05-1.34-0.46-1.41-1.18s0.43-1.37 1.15-1.44h0.02l-0.86 0.46 0.02-0.03c0.24-0.26 0.6-0.45 0.99-0.45 0.38 0 0.74 0.14 0.98 0.43l0.03 0.02-1.11-0.4 0.03-0.03c0.72-0.07 1.34 0.43 1.44 1.15v0.03l-1.47-1.15h0.07c0.32-0.05 0.65 0.04 0.92 0.24l0.02 0.02-1.08-0.22h0.05c0.36-0.09 0.74-0.02 1.05 0.22h0.03l-0.84-0.24h0.07l-1.03 0.55 0.02-0.02c0.24-0.34 0.6-0.55 1.03-0.55l0.05-0.03-1.15 0.77v-0.02c0.14-0.27 0.36-0.51 0.65-0.63l0.05-0.02-0.24 0.12 0.04-0.03 0.08-0.04 0.04-0.03-0.04 0.03 0.04-0.03-0.57 1.25v-0.02c-0.05-0.51 0.19-1.01 0.62-1.28l0.03-0.02c0.19-0.12 0.4-0.19 0.62-0.22h0.02l-1.15 0.82 0.03-0.05c0.04-0.12 0.12-0.21 0.19-0.31l0.07-0.07h-0.02l0.09-0.12v0.02l0.1-0.12-0.15 0.22 0.08-0.17 0.04-0.07 0.22-0.39-0.07 0.2 0.02-0.1c0.03-0.05 0.05-0.1 0.07-0.17l0.05-0.09v0.04l0.05-0.12c0.02-0.09 0.07-0.16 0.12-0.24l0.1-0.12h0.02l0.07-0.09-0.17 0.24 0.08-0.12c0.04-0.12 0.12-0.24 0.21-0.34l0.07-0.09 0.1-0.08c0.02-0.04 0.07-0.09 0.12-0.14l0.26-0.22-0.5 1.08v-0.02c0-0.36 0.14-0.72 0.41-0.98 0.26-0.27 0.62-0.44 0.98-0.44h0.03l-1.3 0.92 0.02-0.05c0.2-0.53 0.72-0.89 1.28-0.89h0.04l-0.91 0.34 0.03-0.03c0.24-0.21 0.57-0.33 0.88-0.33h0.05-0.02 0.17l-0.56 0.12 0.05-0.03c0.15-0.05 0.31-0.09 0.51-0.09h0.07c0.31 0 0.65 0.09 0.89 0.31l0.02 0.02-0.89-0.31h0.03c0.76-0.02 1.39 0.6 1.39 1.37v0.05l-1.39-1.4c0.79 0 1.41 0.6 1.41 1.4v0.02c0.03 0.77-0.6 1.39-1.39 1.39-0.77 0.03-1.39-0.6-1.39-1.37-0.03-0.79 0.6-1.41 1.37-1.41h0.02c0.19-0.03 0.38 0.02 0.58 0.09l0.02 0.03c0.19 0.07 0.34 0.17 0.46 0.31l0.07 0.05-0.19-0.15 0.07 0.05 0.09 0.07 0.08 0.05 0.09 0.07c0.03 0.05 0.07 0.1 0.12 0.12l0.12 0.15-0.07-0.07 0.26 0.24c0.05 0.04 0.08 0.09 0.12 0.14l0.05 0.07 0.07 0.07 0.05 0.08-0.55-0.48 0.07 0.04c0.24 0.12 0.43 0.29 0.58 0.48l0.05 0.1 0.04 0.07 0.03 0.05-0.05-0.07 0.05 0.07 0.12 0.17c0.05 0.05 0.07 0.12 0.12 0.19l0.02 0.05c0.07 0.19 0.12 0.38 0.15 0.6v0.07l-0.89-1.3 0.05 0.03c0.36 0.14 0.62 0.43 0.76 0.77l0.03 0.04-0.03-0.07 0.03 0.05-0.39-0.46 0.05 0.03 0.05 0.05c0.17 0.12 0.29 0.28 0.38 0.45l0.03 0.07-0.75-0.69 0.05 0.02c0.29 0.1 0.51 0.31 0.67 0.55l0.03 0.05-0.31-0.33 0.07 0.04-0.03-0.02 0.05 0.02-0.21-0.14 0.07 0.05c0.07 0.05 0.14 0.09 0.19 0.14l0.05 0.03-0.22-0.15 0.07 0.03h-0.02l0.12 0.07-0.67-0.17h0.05l-0.27 0.02h0.05c0.1-0.02 0.19-0.02 0.29-0.02h0.02l-0.91 0.34 0.02-0.03c0.24-0.21 0.56-0.33 0.89-0.33h0.1l-1.11 0.52 0.03-0.02c0.26-0.34 0.67-0.55 1.1-0.55h0.05l-0.94 0.36 0.05-0.03c0.1-0.09 0.22-0.16 0.36-0.24l0.05-0.02-0.77 0.79 0.03-0.02c0.19-0.53 0.72-0.89 1.29-0.91h0.03c0.79 0 1.44 0.62 1.44 1.41 0 0.77-0.63 1.42-1.42 1.42-0.77 0.02-1.42-0.6-1.42-1.39v-0.03c-0.02-0.41 0.17-0.81 0.48-1.08l0.03-0.02h0.02l0.05-0.05-0.12 0.12 0.07-0.1 0.05-0.04 0.07-0.08-0.26 0.36 0.02-0.07c0.05-0.05 0.07-0.12 0.12-0.17l0.17-0.24-0.1 0.17 0.15-0.29 0.02-0.04 0.1-0.15-0.1 0.17 0.07-0.14c0.03-0.08 0.08-0.15 0.1-0.22l0.1-0.12 0.02-0.07 0.26-0.34 0.03-0.05 0.02-0.02c0.07-0.07 0.15-0.14 0.22-0.22h0.02l-0.24 0.24 0.03-0.04c0.26-0.36 0.69-0.58 1.15-0.58h0.02l-1.22 0.7 0.02-0.05c0.1-0.15 0.19-0.27 0.31-0.36l0.05-0.03 0.03-0.02c0.24-0.22 0.57-0.34 0.91-0.34h0.05l-0.7 0.17 0.02-0.02-0.04 0.05 0.02-0.03c0.07-0.05 0.14-0.07 0.22-0.12l0.04-0.02-0.67 0.6 0.03-0.03c0.19-0.33 0.52-0.57 0.93-0.67h0.05c0.1-0.02 0.19-0.05 0.29-0.05h0.07l-0.91 0.36 0.02-0.02c0.27-0.22 0.58-0.34 0.91-0.34h0.1-0.14 0.09c0.12-0.02 0.27-0.02 0.41 0l0.12 0.03 0.05 0.02 0.09 0.03c0.08 0.02 0.15 0.04 0.22 0.07l0.1 0.02-0.22-0.05h0.07c0.12 0.03 0.24 0.08 0.34 0.12l0.09 0.08-0.04-0.03 0.09 0.03-0.07-0.03 0.24 0.12 0.07 0.05c0.05 0.02 0.1 0.05 0.15 0.1l0.24 0.16-0.12-0.07 0.21 0.12 0.07 0.05 0.2 0.14 0.02 0.03 0.19 0.12c0.05 0.05 0.1 0.09 0.15 0.14l0.14 0.15 0.43 0.4v0.03l0.58 0.57-0.43-0.28h0.04c0.51 0.24 0.84 0.76 0.84 1.32v0.02l-0.48-1.08 0.03 0.02-0.22-0.16 0.03 0.02c0.26 0.14 0.45 0.36 0.57 0.62l0.03 0.05-1.25-0.81h0.02c0.17 0.02 0.36 0.04 0.53 0.12l0.05 0.02c0.14 0.05 0.26 0.14 0.36 0.24h0.02l0.03 0.02-0.89-0.33h0.02c0.34 0 0.65 0.12 0.91 0.33l0.03 0.03-0.89-0.34h0.05c0.33 0 0.65 0.12 0.91 0.34v0.02l-0.89-0.33h0.05c0.14 0 0.31 0.02 0.46 0.07l0.04 0.02-0.45-0.07h0.07l-0.91 0.31 0.02-0.02 0.05-0.03c0.24-0.21 0.55-0.33 0.89-0.33h0.05l0.02 0.02-0.7 0.17 0.05-0.02-0.41 0.33 0.03-0.02c0.14-0.17 0.33-0.31 0.55-0.41l0.05-0.02-0.15 0.07 0.05-0.03-0.07 0.03 0.05-0.03-0.29 0.27 0.02-0.05-0.36 0.91v-0.02c0-0.41 0.2-0.79 0.51-1.06l0.07-0.07h0.02l0.05-0.05-0.36 0.43 0.05-0.07c0.02-0.05 0.05-0.09 0.1-0.14l0.02-0.07c0.05-0.05 0.1-0.1 0.12-0.15l0.05-0.05-0.12 0.15 0.05-0.05-0.15 0.26 0.05-0.09c0.02-0.12 0.1-0.22 0.17-0.31l0.02-0.05-0.19 0.36 0.02-0.07 0.03-0.08 0.02-0.04 0.07-0.17-0.09 0.48v-0.1c0-0.09 0.02-0.19 0.05-0.29v-0.04c0.02-0.12 0.07-0.22 0.12-0.34l0.02-0.05c0.02-0.05 0.07-0.09 0.12-0.17l0.02-0.04-0.24 0.98v-0.1c-0.04-0.36 0.05-0.74 0.32-1.05l0.04-0.05-0.04 0.05 0.04-0.05-0.12 0.14 0.05-0.07c0.05-0.05 0.07-0.12 0.12-0.17l0.03-0.04-0.05 0.07 0.02-0.03c0.05-0.07 0.07-0.12 0.12-0.16l0.05-0.08-0.05 0.08 0.05-0.05 0.1-0.12 0.12-0.12c0.04-0.05 0.07-0.1 0.12-0.12l0.02-0.03c0.26-0.19 0.58-0.31 0.89-0.31h0.09-0.02 0.07l0.03 0.03-1.3 0.81 0.02-0.02c0.22-0.51 0.72-0.84 1.28-0.84h0.12c0.33 0.02 0.64 0.12 0.86 0.33l0.02 0.03-0.84-0.34h0.03-0.03 0.12c0.17 0.03 0.34 0.05 0.48 0.12l0.05 0.03-0.5-0.12h0.02c0.31 0.02 0.63 0.14 0.87 0.33l0.02 0.03-0.22-0.17 0.08 0.05-0.08-0.03 0.08 0.03-0.08-0.03 0.12 0.05 0.15 0.07 0.12 0.07 0.07 0.05 0.22 0.15c0.09 0.04 0.16 0.12 0.24 0.19l0.09 0.09-0.21-0.16 0.12 0.07c0.04 0.05 0.12 0.09 0.16 0.14l0.12 0.1c0.05 0.07 0.1 0.12 0.15 0.19l0.26 0.34-0.05-0.08 0.1 0.12-0.07-0.07 0.12 0.12c0.05 0.05 0.07 0.1 0.12 0.15l0.09 0.12-0.21-0.22 0.26 0.24 0.19 0.17 0.12 0.09 0.03 0.05-0.15-0.12h0.03l0.17 0.17c0.07 0.07 0.12 0.14 0.16 0.24l0.03 0.02-0.63-0.55 0.05 0.03c0.17 0.07 0.34 0.19 0.46 0.31l0.05 0.05-0.46-0.32 0.05 0.03 0.24 0.12-0.65-0.15h0.05c0.31 0 0.62 0.1 0.86 0.29l0.03 0.03-0.87-0.32h0.07l-0.86 0.32 0.02-0.03c0.24-0.19 0.56-0.29 0.87-0.29h0.02l-0.86 0.29h0.02l0.03-0.02c0.24-0.19 0.52-0.31 0.84-0.31h0.04l-0.84 0.31v-0.03l-0.45 1.04v-0.05c0-0.72 0.6-1.32 1.32-1.32h0.05l-0.87 0.31 0.03-0.02-0.46 1c0-0.74 0.58-1.34 1.32-1.34h0.02c0.53 0 1.01 0.34 1.23 0.84 0.19 0.48 0.09 1.06-0.29 1.44s-0.96 0.48-1.44 0.26c-0.5-0.19-0.82-0.67-0.82-1.2v-0.07c0-0.33 0.12-0.67 0.39-0.93 0.24-0.24 0.57-0.39 0.93-0.39l-1.1 0.6 0.12-0.17c0.02-0.04 0.07-0.12 0.12-0.16l0.1-0.08-0.15 0.17 0.07-0.09v-0.03l0.1-0.12-0.02 0.03 0.04-0.1 0.08-0.1 0.07-0.09-0.15 0.26 0.12-0.29h-0.02l0.02-0.04 0.03-0.08 0.02-0.07-0.05 0.19v-0.04l0.05-0.12 0.03-0.08c0.02-0.07 0.04-0.12 0.07-0.16l0.02-0.08c0.1-0.16 0.19-0.31 0.34-0.43l0.05-0.02-0.44 0.69v-0.04c0.05-0.15 0.12-0.32 0.2-0.44l0.04-0.07-0.02 0.07 0.02-0.04-0.04 0.07 0.04-0.07c0.08-0.15 0.17-0.29 0.32-0.41l0.12-0.1c0.24-0.19 0.52-0.31 0.84-0.31h0.02c0.74 0.02 1.34 0.6 1.32 1.34 0 0.72-0.58 1.32-1.32 1.32-0.72 0-1.32-0.6-1.32-1.32v-0.04c0-0.48 0.26-0.92 0.67-1.16l0.05-0.02-0.22 0.14 0.03-0.02c0.24-0.19 0.55-0.31 0.86-0.31h0.03l-1.06 0.5 0.02-0.02c0.27-0.31 0.65-0.51 1.06-0.51h0.05l-1.32 1.32v-0.02c0-0.72 0.6-1.32 1.32-1.32h0.05l-1.23 0.84v-0.02c0.22-0.51 0.7-0.84 1.25-0.84h0.29c0.31 0 0.6 0.12 0.84 0.31l0.02 0.02-0.84-0.31h0.03c0.16 0 0.33 0.02 0.5 0.1l0.05 0.02-0.51-0.1h0.03c0.24 0 0.45 0.05 0.65 0.17l0.14 0.07 0.12 0.08 0.12 0.09-0.14-0.09 0.12 0.04c0.07 0.05 0.16 0.12 0.24 0.2l0.12 0.07-0.12-0.07 0.12 0.07c0.07 0.05 0.14 0.12 0.21 0.19l0.1 0.1-0.15-0.12 0.12 0.07 0.1 0.09c0.12 0.08 0.22 0.2 0.31 0.32l0.1 0.14-0.07-0.1 0.19 0.24-0.03-0.02 0.27 0.31 0.02 0.05 0.19 0.22-0.09-0.12 0.07 0.07c0.12 0.12 0.22 0.29 0.29 0.45l0.02 0.08-0.19-0.34 0.07 0.1-0.17-0.2 0.03 0.03 0.09 0.07 0.08 0.07v0.03l0.07 0.04-0.24-0.19 0.14 0.1c0.05 0.02 0.1 0.07 0.15 0.09l0.02 0.03-0.86-0.29h0.04c0.46 0 0.89 0.24 1.13 0.62v0.03l-0.26-0.34v0.03l-0.84-0.32h0.02c0.41 0 0.79 0.2 1.03 0.51l0.03 0.02-1.56-0.38 0.02-0.03c0.17-0.07 0.34-0.09 0.53-0.09h0.22l-0.7 0.21 0.05-0.04c0.19-0.12 0.45-0.2 0.69-0.2h0.03l-1.13 0.65v-0.02c0.24-0.41 0.67-0.65 1.13-0.65h0.02l-0.84 0.31 0.03-0.02-0.2 0.19 0.03-0.02c0.26-0.32 0.65-0.51 1.03-0.51h0.05l-1.15 0.65 0.02-0.02c0.07-0.12 0.17-0.24 0.29-0.34v-0.02l-0.1 0.09 0.19-0.17h-0.02l0.17-0.16-0.12 0.14 0.12-0.17 0.02-0.05 0.15-0.16-0.05 0.04 0.33-0.48-0.09 0.15 0.12-0.22 0.07-0.09 0.14-0.24 0.08-0.12 0.48-0.6c0.04-0.05 0.07-0.1 0.14-0.15l0.17-0.19c0.55-0.48 1.37-0.46 1.87 0.05 0.5 0.53 0.48 1.37-0.05 1.87l-0.19 0.19 0.14-0.14-0.48 0.6 0.08-0.12-0.15 0.24 0.05-0.1-0.12 0.24c-0.02 0.05-0.05 0.1-0.07 0.15l-0.34 0.48-0.05 0.07-0.14 0.19 0.02-0.05-0.12 0.17c-0.04 0.05-0.07 0.1-0.12 0.12l-0.14 0.17h-0.02l-0.17 0.19-0.1 0.07-0.02 0.03 0.29-0.34v0.02c-0.24 0.39-0.68 0.65-1.13 0.65h-0.05l1.06-0.5-0.05 0.02c-0.05 0.07-0.1 0.15-0.17 0.19l-0.02 0.03c-0.24 0.19-0.53 0.31-0.87 0.31h-0.02l1.15-0.65-0.02 0.03c-0.24 0.4-0.65 0.64-1.13 0.64h-0.03l0.7-0.21-0.05 0.02c-0.19 0.15-0.45 0.22-0.69 0.22h-0.22l0.5-0.1h-0.02c-0.55 0.24-1.18 0.07-1.54-0.41l-0.02-0.02 1.03 0.5h-0.02c-0.31 0-0.6-0.09-0.84-0.31l-0.03-0.02c-0.12-0.1-0.21-0.19-0.28-0.34l-0.03-0.02 1.15 0.65h-0.04c-0.29 0-0.6-0.1-0.84-0.32h-0.03l0.15 0.1-0.15-0.1c-0.07-0.04-0.17-0.12-0.24-0.19l-0.05-0.05h0.03l-0.1-0.07 0.1 0.07-0.05-0.02c-0.07-0.07-0.14-0.12-0.19-0.19l-0.07-0.1c-0.08-0.09-0.15-0.21-0.2-0.33l-0.02-0.08 0.29 0.48-0.07-0.09-0.1-0.1-0.17-0.21 0.03 0.02-0.29-0.34-0.03-0.02-0.19-0.24-0.05-0.1-0.09-0.12 0.29 0.32-0.1-0.1h-0.02l-0.12-0.1c-0.05-0.02-0.1-0.07-0.15-0.12l-0.09-0.12 0.19 0.17-0.12-0.07-0.1-0.1-0.12-0.07 0.27 0.17-0.12-0.07c-0.05-0.03-0.12-0.05-0.17-0.1l-0.12-0.07 0.09 0.05-0.14-0.07 0.65 0.16h-0.03c-0.19 0-0.36-0.02-0.52-0.09l-0.05-0.03 0.53 0.1h-0.03c-0.31 0-0.62-0.1-0.86-0.31l-0.03-0.03 0.87 0.32h-0.29l1.22-0.84v0.04c-0.21 0.51-0.69 0.84-1.24 0.84h-0.05c-0.72 0-1.32-0.6-1.32-1.32 0-0.74 0.57-1.34 1.32-1.34 0.72 0 1.32 0.6 1.32 1.32v0.02c0 0.36-0.12 0.7-0.39 0.94-0.24 0.26-0.57 0.38-0.93 0.38h-0.05l1.03-0.48-0.02 0.03c-0.24 0.31-0.63 0.5-1.03 0.5h-0.03l0.84-0.31-0.02 0.02c-0.05 0.05-0.12 0.1-0.19 0.12l-0.05 0.03 0.67-1.15v0.04c0.02 0.72-0.58 1.32-1.32 1.32h-0.02l0.86-0.31-0.12 0.07 0.34-0.4-0.05 0.07-0.03 0.07-0.02 0.05-0.1 0.14 0.2-0.43-0.03 0.02c-0.05 0.29-0.21 0.56-0.43 0.72l-0.05 0.05 0.34-0.41-0.03 0.08 0.05-0.2-0.02 0.08 0.05-0.12-0.03 0.04c0 0.08-0.02 0.12-0.05 0.2l-0.02 0.04 0.02-0.04-0.02 0.07v0.02l-0.12 0.29c-0.02 0.1-0.07 0.19-0.12 0.29l-0.07 0.09-0.03 0.03-0.04 0.09-0.08 0.08v0.04l-0.09 0.12 0.02-0.02-0.07 0.07c-0.02 0.07-0.07 0.12-0.12 0.17l-0.1 0.1 0.15-0.17-0.12 0.17c-0.24 0.36-0.65 0.6-1.11 0.6l1.32-1.35v0.07c0 0.72-0.6 1.32-1.32 1.32h-0.02c-0.55 0-1.03-0.33-1.22-0.81-0.22-0.51-0.1-1.08 0.28-1.47 0.36-0.36 0.94-0.48 1.44-0.26 0.48 0.19 0.82 0.67 0.82 1.22 0 0.41-0.17 0.77-0.48 1.04l-0.02 0.02c-0.24 0.19-0.53 0.29-0.84 0.29h-0.05c-0.53 0-1.01-0.31-1.23-0.82-0.19-0.48-0.09-1.05 0.29-1.44 0.39-0.38 0.96-0.48 1.44-0.29 0.51 0.22 0.82 0.7 0.82 1.23v0.05c0 0.38-0.17 0.74-0.46 1h-0.02c-0.24 0.22-0.55 0.34-0.87 0.34h-0.04l0.86-0.34-0.02 0.03v0.02c-0.24 0.19-0.56 0.31-0.87 0.31h-0.02l0.84-0.31-0.03 0.03c-0.24 0.19-0.52 0.31-0.84 0.31h-0.07c-0.31 0-0.62-0.12-0.84-0.31l-0.05-0.03 0.87 0.31h-0.05c-0.22 0-0.46-0.07-0.65-0.16l-0.09-0.08 0.12 0.08-0.05-0.03c-0.17-0.07-0.31-0.17-0.43-0.31l-0.05-0.05 0.43 0.31-0.05-0.02c-0.26-0.1-0.48-0.29-0.62-0.55l-0.03-0.03 0.2 0.24-0.05-0.04 0.09 0.09-0.02-0.02c-0.05-0.05-0.1-0.1-0.12-0.15l-0.05-0.02 0.1 0.1-0.19-0.17h0.02l-0.26-0.22c-0.08-0.05-0.12-0.14-0.2-0.21l-0.09-0.12 0.12 0.14-0.1-0.12-0.17-0.17-0.04-0.07-0.24-0.34 0.14 0.2-0.12-0.12 0.17 0.12-0.12-0.08c-0.07-0.04-0.15-0.12-0.22-0.16l-0.09-0.12 0.21 0.16-0.24-0.14 0.1 0.07-0.12-0.07 0.14 0.07-0.12-0.05-0.05-0.02-0.09-0.05-0.07-0.05-0.08-0.02c-0.07-0.05-0.14-0.1-0.19-0.14l-0.02-0.03 0.86 0.31h-0.02c-0.17 0-0.36-0.02-0.53-0.09l-0.05-0.03 0.55 0.1h-0.12 0.03-0.03c-0.33 0.02-0.64-0.1-0.88-0.29l-0.03-0.02 0.87 0.29h-0.08l-0.04 0.02 1.24-0.89-0.02 0.03c-0.19 0.52-0.67 0.86-1.22 0.88h-0.1 0.02-0.09l0.86-0.33-0.02 0.02 0.09-0.12-0.12 0.15 0.12-0.17-0.02 0.07-0.07 0.1-0.07 0.07 0.14-0.22-0.02 0.05-0.05 0.1-0.05 0.04 0.1-0.12-0.05 0.08-0.1 0.14-0.02 0.05-0.1 0.14 0.24-1.08 0.03 0.07c0.07 0.34 0 0.7-0.2 0.99l-0.04 0.09 0.09-0.21-0.02 0.05 0.09-0.32v0.05l0.03-0.24v0.1c0 0.17-0.03 0.36-0.1 0.53l-0.07 0.16 0.02-0.07-0.02 0.07-0.02 0.08c-0.05 0.12-0.1 0.24-0.17 0.36l-0.03 0.04 0.15-0.28-0.05 0.09c-0.02 0.1-0.07 0.19-0.12 0.27l-0.05 0.07c-0.05 0.05-0.07 0.09-0.12 0.14l-0.02 0.05 0.09-0.14-0.04 0.07 0.09-0.15-0.05 0.05c-0.07 0.17-0.19 0.31-0.33 0.43l-0.03 0.05-0.02 0.03-0.1 0.04 0.51-1.05v0.02c0 0.34-0.12 0.67-0.34 0.94l-0.05 0.05c-0.07 0.09-0.16 0.16-0.28 0.24l-0.05 0.02-0.05 0.05-0.05 0.02-0.14 0.07-0.05 0.03 0.55-0.43-0.02 0.02c-0.12 0.14-0.27 0.26-0.41 0.36l-0.02 0.02c-0.22 0.12-0.46 0.17-0.7 0.2h-0.07l0.89-0.34-0.03 0.02h-0.02c-0.24 0.24-0.58 0.36-0.89 0.36h-0.07c-0.15 0-0.29-0.02-0.43-0.07l-0.08-0.02 0.46 0.07h-0.05c-0.33 0-0.65-0.1-0.91-0.31v-0.03l0.89 0.32h-0.05c-0.36 0-0.67-0.1-0.94-0.32l-0.02-0.02 0.91 0.31h-0.02c-0.34 0.03-0.65-0.09-0.91-0.31l-0.03-0.02-0.02-0.03 0.36 0.22-0.05-0.03 0.55 0.12h-0.02c-0.55 0-1.06-0.31-1.27-0.79l-0.03-0.05 0.58 0.6h-0.05c-0.07-0.04-0.14-0.09-0.22-0.14l-0.02-0.02c-0.31-0.27-0.48-0.65-0.5-1.06v-0.02l0.86 1.27-0.05-0.03c-0.17-0.07-0.31-0.16-0.43-0.28l-0.6-0.58-0.41-0.41h0.03l-0.17-0.14 0.14 0.12-0.17-0.12 0.03 0.02-0.19-0.14 0.07 0.05-0.22-0.12-0.12-0.1-0.24-0.17 0.17 0.1-0.07-0.03 0.14 0.08-0.09-0.05-0.08-0.03-0.07-0.04-0.05-0.03-0.09-0.05 0.31 0.12h-0.07c-0.07-0.02-0.15-0.04-0.22-0.09l-0.09-0.03 0.21 0.08-0.07-0.03 0.07 0.03-0.12-0.03h0.41l-0.1 0.03h-0.24l0.94-0.34-0.02 0.02c-0.27 0.22-0.6 0.34-0.94 0.34h-0.07l0.29-0.02h-0.05l0.93-0.68-0.02 0.03c-0.14 0.26-0.38 0.45-0.67 0.57l-0.05 0.03 0.22-0.1-0.05 0.03-0.05 0.04h-0.05c-0.21 0.12-0.45 0.2-0.69 0.2h-0.05l0.91-0.34-0.05 0.05 0.29-0.36-0.02 0.05c-0.24 0.43-0.72 0.69-1.23 0.69h-0.02l1.15-0.6-0.02 0.05c-0.08 0.1-0.15 0.19-0.24 0.26l-0.03 0.03 0.19-0.22-0.02 0.05 0.05-0.05-0.27 0.34 0.05-0.05-0.07 0.1 0.12-0.22-0.07 0.14c-0.03 0.05-0.05 0.12-0.07 0.17l-0.1 0.15 0.05-0.08-0.17 0.29c-0.02 0.05-0.05 0.12-0.1 0.17l-0.16 0.24 0.12-0.19-0.05 0.07c-0.05 0.14-0.15 0.26-0.27 0.36l-0.07 0.07 0.05-0.05-0.07 0.1c-0.05 0.02-0.1 0.07-0.15 0.12l-0.04 0.05-0.03 0.02 0.51-1.08v0.03c0 0.79-0.65 1.41-1.44 1.39h-0.03l1.35-0.87-0.03 0.03c-0.14 0.33-0.41 0.62-0.77 0.77l-0.04 0.02 0.36-0.22-0.03 0.03c-0.26 0.21-0.57 0.33-0.91 0.31h-0.05l1.13-0.53-0.02 0.03c-0.27 0.36-0.7 0.55-1.13 0.52h-0.1l0.94-0.31-0.03 0.03c-0.26 0.21-0.57 0.31-0.91 0.31h-0.02l0.29-0.03h-0.05c-0.1 0.03-0.19 0.05-0.31 0.05h-0.05c-0.22 0-0.46-0.07-0.65-0.17l-0.14-0.07-0.03-0.02-0.07-0.05c-0.07-0.05-0.14-0.1-0.22-0.17h-0.02l0.22 0.15-0.08-0.03c-0.07-0.05-0.16-0.12-0.21-0.17l-0.03-0.02v0.02l-0.04-0.07c-0.12-0.09-0.24-0.21-0.32-0.36l-0.02-0.05 0.67 0.6-0.07-0.02c-0.31-0.14-0.55-0.38-0.7-0.7l-0.04-0.04 0.38 0.48-0.1-0.1c-0.16-0.12-0.28-0.29-0.36-0.48l-0.02-0.05-0.05-0.07-0.02-0.07 0.77 0.79-0.05-0.02c-0.53-0.22-0.87-0.75-0.87-1.3v-0.07l0.15 0.6-0.03-0.05 0.12 0.22-0.12-0.2h-0.02l-0.02-0.07-0.08-0.07-0.02-0.07 0.02 0.07-0.04-0.1 0.55 0.48-0.07-0.02c-0.24-0.12-0.41-0.29-0.56-0.48l-0.04-0.07 0.04 0.07-0.04-0.05 0.14 0.15-0.26-0.27-0.05-0.05-0.12-0.14 0.12 0.14-0.07-0.09-0.08-0.05 0.1 0.07-0.07-0.05c-0.07-0.04-0.15-0.09-0.19-0.16l-0.08-0.05 0.46 0.31-0.05-0.02 0.53 0.09h-0.02c-0.77 0-1.4-0.62-1.37-1.39v-0.02c0-0.8 0.62-1.4 1.39-1.4 0.79 0 1.42 0.63 1.39 1.42 0 0.77-0.62 1.39-1.41 1.37-0.39 0-0.75-0.15-0.99-0.41-0.26-0.26-0.43-0.62-0.41-0.98v-0.05c0-0.77 0.63-1.39 1.4-1.37 0.79 0 1.41 0.62 1.39 1.39 0 0.79-0.63 1.39-1.39 1.39h-0.03c-0.33 0-0.65-0.12-0.91-0.33l-0.02-0.03 0.91 0.34h-0.07l0.57-0.1h-0.02c-0.19 0.08-0.36 0.12-0.55 0.12h-0.17 0.02-0.05l0.92-0.33-0.03 0.02c-0.24 0.22-0.57 0.31-0.89 0.31h-0.04l1.32-0.86-0.03 0.02c-0.21 0.56-0.72 0.89-1.29 0.89h-0.03l1.42-1.39v0.02c0 0.41-0.19 0.8-0.51 1.06l-0.26 0.22 0.12-0.12-0.07 0.09-0.1 0.1 0.24-0.34-0.07 0.12c-0.05 0.1-0.1 0.17-0.14 0.24l-0.1 0.1 0.02-0.03-0.07 0.12 0.15-0.24-0.08 0.12-0.02 0.05-0.05 0.12 0.05-0.14-0.02 0.09c-0.03 0.05-0.05 0.12-0.1 0.17l-0.24 0.39 0.02-0.03-0.07 0.15c-0.05 0.09-0.09 0.16-0.14 0.24l-0.1 0.12h-0.02l-0.12 0.14-0.07 0.07 0.19-0.26-0.03 0.05c-0.26 0.48-0.76 0.76-1.32 0.72h-0.02l0.72-0.15-0.05 0.03 0.75-1.08v0.02c-0.03 0.43-0.29 0.82-0.65 1.03l-0.07 0.03-0.08 0.04-0.02 0.03 0.02-0.03-0.04 0.03c-0.05 0.02-0.1 0.05-0.17 0.07l-0.05 0.02 0.62-0.48v0.03c-0.26 0.36-0.69 0.57-1.15 0.55h-0.05l1.06-0.46-0.02 0.03c-0.27 0.31-0.65 0.48-1.06 0.48l-0.07-0.03c-0.34 0-0.65-0.14-0.89-0.38l-0.02-0.02 0.67 0.36h-0.05c-0.24-0.05-0.46-0.2-0.65-0.36v-0.03l0.79 0.39h-0.07c-0.33-0.05-0.67-0.22-0.89-0.51-0.21-0.29-0.31-0.65-0.26-0.98v-0.03c0.1-0.72 0.74-1.22 1.46-1.12 0.72 0.07 1.25 0.74 1.16 1.46-0.08 0.7-0.72 1.22-1.44 1.15h-0.03c-0.38-0.05-0.74-0.26-0.96-0.57v-0.03l1.73 0.39c-0.24 0.14-0.53 0.21-0.82 0.19h-0.02c-0.7-0.1-1.22-0.72-1.15-1.44v-0.03l0.38 1.06-0.02-0.02 0.77 0.36h-0.03c-0.33-0.05-0.67-0.22-0.86-0.48-0.22-0.29-0.34-0.65-0.29-0.99v-0.02l0.38 1.08-0.02-0.03 0.77 0.39h-0.03c-0.33-0.03-0.64-0.22-0.86-0.48-0.22-0.27-0.31-0.63-0.26-0.99l-0.03 0.05 0.03-0.02 0.36 1.01-0.03-0.03c-0.26-0.29-0.41-0.67-0.36-1.05v-0.03l0.19 0.84-0.64-1.03c-0.03-0.07-0.05-0.12-0.1-0.19l-0.17-0.39-0.02-0.07-0.12-0.43 0.02 0.12-0.21-0.48c-0.24-0.5-0.03-1.1 0.45-1.39 0.48-0.27 1.08-0.12 1.42 0.33z"/>
 </g>
</svg>
