<?xml version="1.0" encoding="UTF-8" standalone="no"?>
<!-- Created with Inkscape (http://www.inkscape.org/) -->

<svg
   version="1.1"
   id="svg1"
   width="300"
   height="300"
   viewBox="0 0 300 299.99999"
   sodipodi:docname="lesson1.pdf"
   inkscape:export-filename="multichoice\multichoice12\multichoice12_option2.svg"
   inkscape:export-xdpi="96"
   inkscape:export-ydpi="96"
   xmlns:inkscape="http://www.inkscape.org/namespaces/inkscape"
   xmlns:sodipodi="http://sodipodi.sourceforge.net/DTD/sodipodi-0.dtd"
   xmlns="http://www.w3.org/2000/svg"
   xmlns:svg="http://www.w3.org/2000/svg">
  <defs
     id="defs1" />
  <sodipodi:namedview
     id="namedview1"
     pagecolor="#ffffff"
     bordercolor="#000000"
     borderopacity="0.25"
     inkscape:showpageshadow="2"
     inkscape:pageopacity="0.0"
     inkscape:pagecheckerboard="0"
     inkscape:deskcolor="#d1d1d1">
    <inkscape:page
       x="0"
       y="0"
       inkscape:label="1"
       id="page1"
       width="300"
       height="300"
       margin="0"
       bleed="0" />
  </sodipodi:namedview>
  <g
     id="g1"
     inkscape:groupmode="layer"
     inkscape:label="1">
    <g
       id="g311"
       transform="matrix(10.06726,0,0,10.06726,-7523.9165,-1332.4016)">
      <path
         id="path311"
         d="m 571.56,733.3 0.36,-0.03 h 0.07 l 2.16,0.05 h -0.02 3.91 -0.1 l 0.48,-0.02 h 0.08 0.04 c 0.58,0 1.04,0.45 1.04,1.03 0,0.55 -0.46,1.01 -1.04,1.01 h -0.04 0.02 l -0.48,0.02 h -0.07 l -3.87,-0.14 h -0.07 L 571.92,735 v 0 l -0.36,-0.02 c -0.43,-0.05 -0.77,-0.41 -0.77,-0.84 0,-0.41 0.34,-0.77 0.77,-0.84 z"
         style="fill:#000000;fill-opacity:1;fill-rule:nonzero;stroke:none"
         transform="matrix(1.3333333,0,0,-1.3333333,0,1120.8)" />
    </g>
    <g
       id="g312"
       transform="matrix(10.06726,0,0,10.06726,-7523.9165,-1332.4016)">
      <path
         id="path312"
         d="m 571.92,734.93 -0.17,0.05 0.34,-0.29 v 0.02 c -0.05,0.1 -0.12,0.15 -0.22,0.22 l -0.02,0.02 0.19,-0.24 v 0.03 l 0.02,-0.6 v 0.02 c 0.05,0.17 0.1,0.31 0.03,0.48 v 0.05 c -0.03,0.05 -0.03,0.07 -0.05,0.14 h -0.05 v 0 0.03 l 0.07,-0.12 -0.02,0.02 -0.05,-0.5 v 0.02 c 0.12,0.22 0.1,0.46 0,0.67 h -0.02 l 0.07,-0.12 v 0.03 c -0.05,0.07 -0.05,0.09 -0.07,0.14 l -0.03,0.05 0.1,-0.53 v 0.05 c 0.02,0.05 0.02,0.14 0.02,0.19 v 0.07 l -0.02,-0.24 v 0.05 0 l 0.02,0.05 -0.07,-0.19 v 0.02 c 0.05,0.07 0.05,0.12 0.07,0.19 v 0.03 l 0.03,0.09 v 0.05 0 0.12 0 l 0.02,0.12 v 0 0.12 -0.12 l 0.1,0.41 -0.03,-0.1 0.1,0.24 v 0 l 0.07,0.24 v 0 l 0.31,0.75 -0.09,-0.17 0.07,0.12 0.05,0.05 0.07,0.12 -0.07,-0.05 0.09,0.07 -0.09,-0.07 0.09,0.07 c 0.03,0.05 0.05,0.07 0.05,0.1 l 0.1,0.12 -0.1,-0.12 0.1,0.12 v 0 l 0.09,0.09 -0.14,-0.14 0.07,0.07 0.07,0.05 0.24,0.19 -0.07,-0.02 0.12,0.09 -0.12,-0.09 0.12,0.07 v 0 l 0.1,0.05 c 0.02,0.02 0.07,0.07 0.12,0.09 l 0.09,0.1 -0.19,-0.12 0.12,0.05 -0.05,-0.03 0.1,0.03 0.07,0.02 0.12,0.07 -0.12,-0.02 0.12,0.02 0.07,0.03 0.1,0.02 -0.22,-0.05 0.12,0.03 c 0.1,0 0.17,0.02 0.24,0.07 l 0.1,0.02 -0.22,-0.07 0.15,0.05 -0.15,-0.05 h 0.1 c 0.05,0 0.12,0 0.14,0.05 h 0.15 -0.15 0.12 c 0.03,0 0.1,0 0.12,0 l 0.15,0.02 h -0.29 l 0.12,-0.02 c 0.05,0 0.12,0 0.17,0 h 0.12 -0.17 0.14 v 0 l 0.12,-0.05 v 0 l 0.12,-0.02 -0.14,0.02 0.12,-0.02 c 0.05,-0.03 0.07,-0.03 0.14,-0.03 l 0.12,-0.02 -0.21,0.05 0.26,-0.12 0.07,-0.03 0.15,-0.07 -0.1,0.07 0.19,-0.09 0.1,-0.03 0.14,-0.07 -0.21,0.12 0.12,-0.12 0.09,-0.05 0.15,-0.07 -0.15,0.1 0.12,-0.1 c 0.05,-0.02 0.1,-0.05 0.12,-0.07 l 0.17,-0.12 -0.17,0.14 0.24,-0.24 0.05,-0.07 0.24,-0.19 -0.14,0.14 0.19,-0.21 v 0 l 0.19,-0.24 v 0 l 0.19,-0.24 -0.07,0.12 0.41,-0.63 -0.02,0.03 0.04,-0.12 v 0.02 l 0.1,-0.14 -0.07,0.12 0.05,-0.1 -0.05,0.1 0.05,-0.15 c 0.02,-0.07 0.04,-0.12 0.07,-0.19 l 0.07,-0.12 -0.1,0.31 v -0.14 l 0.03,-0.07 0.05,-0.17 v 0.12 l 0.02,-0.31 v -0.05 l 0.02,-0.1 v -0.02 l 0.08,-0.22 c 0.12,-0.5 0.62,-0.84 1.12,-0.74 0.56,0.12 0.87,0.62 0.8,1.13 l -0.05,0.21 v 0.03 l -0.03,0.09 V 735 l -0.02,0.31 -0.02,0.1 -0.05,0.17 0.05,-0.1 -0.05,0.12 c -0.03,0.12 -0.05,0.22 -0.07,0.31 l -0.08,0.12 0.08,-0.19 -0.05,0.17 -0.03,0.07 -0.04,0.12 c 0,0.05 -0.05,0.1 -0.08,0.12 l -0.04,0.17 h -0.05 l -0.05,0.12 v 0.02 l -0.38,0.6 c -0.05,0.03 -0.08,0.05 -0.1,0.1 l -0.19,0.24 v 0 l -0.17,0.24 v 0 l -0.19,0.19 c -0.05,0.07 -0.07,0.1 -0.15,0.17 l -0.21,0.17 0.07,-0.05 -0.24,0.24 c -0.07,0.05 -0.12,0.07 -0.19,0.14 l -0.17,0.1 0.12,-0.07 -0.12,0.09 c -0.07,0.03 -0.1,0.05 -0.17,0.1 l -0.14,0.07 0.09,-0.05 -0.14,0.12 c -0.07,0.03 -0.17,0.1 -0.22,0.12 l -0.19,0.05 0.1,-0.05 -0.15,0.1 -0.09,0.05 -0.17,0.07 0.02,-0.05 -0.26,0.12 c -0.1,0.05 -0.17,0.07 -0.24,0.07 l -0.12,0.03 0.14,-0.03 -0.12,0.03 c -0.07,0.02 -0.12,0.02 -0.14,0.02 l -0.12,0.05 v 0 l -0.17,0.02 v 0 h -0.12 c -0.05,0.03 -0.07,0.03 -0.14,0.03 h -0.12 l 0.14,-0.03 -0.12,0.03 c -0.07,0.02 -0.19,0.02 -0.29,0 l -0.14,-0.03 0.14,0.03 h -0.12 c -0.02,0 -0.09,0 -0.12,-0.03 h -0.14 0.12 -0.1 c -0.07,0 -0.09,0 -0.14,0 l -0.12,-0.02 c -0.1,-0.05 -0.19,-0.05 -0.24,-0.07 l -0.1,-0.05 0.22,0.05 h -0.17 c -0.05,-0.03 -0.14,-0.03 -0.19,-0.05 l -0.12,-0.07 0.05,0.02 -0.12,-0.02 c -0.03,-0.03 -0.1,-0.05 -0.12,-0.05 l -0.12,-0.07 0.07,0.02 -0.1,-0.05 -0.09,-0.02 -0.12,-0.07 c -0.05,-0.03 -0.12,-0.05 -0.17,-0.12 l -0.1,-0.05 0.12,0.05 -0.12,-0.05 v 0 l -0.09,-0.07 c -0.05,-0.03 -0.1,-0.05 -0.12,-0.1 l -0.1,-0.05 -0.05,-0.07 -0.21,-0.19 0.02,0.02 -0.12,-0.09 c -0.02,-0.03 -0.07,-0.1 -0.12,-0.15 l -0.07,-0.09 v 0 l -0.1,-0.12 c -0.02,-0.03 -0.02,-0.05 -0.07,-0.1 l -0.05,-0.12 0.05,0.12 -0.05,-0.12 c -0.02,-0.02 -0.07,-0.05 -0.09,-0.07 l -0.05,-0.12 -0.05,-0.07 -0.05,-0.12 0.03,0.07 -0.05,-0.12 c -0.05,-0.05 -0.05,-0.1 -0.07,-0.17 l -0.24,-0.74 -0.03,-0.05 -0.07,-0.24 v -0.05 l -0.07,-0.26 v -0.05 l -0.07,-0.36 c -0.03,-0.1 -0.03,-0.19 0,-0.29 v -0.12 0 l 0.02,-0.12 v 0 -0.12 0 -0.05 l 0.05,-0.09 v -0.03 c 0,-0.07 0.02,-0.12 0.05,-0.19 v -0.02 l -0.05,0.19 0.02,-0.05 v 0 -0.05 c 0.03,-0.14 0.12,-0.31 0.24,-0.43 l 0.03,-0.02 -0.24,0.43 v -0.05 c 0.07,-0.24 0.21,-0.41 0.38,-0.5 l 0.05,-0.03 -0.24,0.22 0.02,-0.05 c 0.05,-0.07 0.15,-0.14 0.24,-0.19 h 0.03 l -0.34,0.31 v -0.02 c 0.05,-0.03 0.07,-0.1 0.1,-0.12 l 0.02,-0.03 c 0.07,-0.09 0.17,-0.14 0.24,-0.21 h 0.05 v 0 -0.03 l -0.22,0.22 0.03,-0.07 -0.1,0.14 v -0.02 c 0.07,-0.12 0.19,-0.24 0.31,-0.29 l 0.03,-0.05 c 0.07,-0.02 0.09,-0.02 0.14,-0.05 h 0.05 l -0.12,0.05 v -0.02 c 0.17,-0.1 0.38,-0.1 0.55,-0.03 l 0.17,0.05 c 0.24,0.1 0.36,0.34 0.36,0.58 0,0.24 -0.12,0.45 -0.36,0.55 z"
         style="fill:#000000;fill-opacity:1;fill-rule:nonzero;stroke:none"
         transform="matrix(1.3333333,0,0,-1.3333333,0,1120.8)" />
    </g>
    <g
       id="g313"
       transform="matrix(10.06726,0,0,10.06726,-7523.9165,-1332.4016)">
      <path
         id="path313"
         d="m 570.62,722.35 0.22,0.46 v 0.02 l 0.14,0.39 -0.02,-0.03 0.17,0.36 v 0 l 0.45,1.01 c 0.03,0.1 0.05,0.19 0.05,0.29 v 0.02 l -0.19,-0.5 0.02,0.02 c 0.12,0.15 0.17,0.34 0.22,0.51 v 0.02 0 0 c 0.02,0.53 -0.34,0.96 -0.82,1.01 -0.5,0.05 -0.96,-0.31 -1.03,-0.79 -0.05,-0.51 0.31,-0.96 0.79,-1.01 h 0.03 c 0.31,-0.07 0.62,0.05 0.84,0.31 v 0 c 0.12,0.17 0.19,0.34 0.21,0.53 v 0.02 c 0.03,0.48 -0.33,0.94 -0.81,0.99 -0.51,0.07 -0.96,-0.29 -1.01,-0.82 -0.07,-0.5 0.29,-0.96 0.77,-1.01 h 0.02 c 0.34,-0.02 0.65,0.1 0.84,0.34 v 0.02 c 0.12,0.15 0.22,0.34 0.22,0.51 v 0.02 c 0.02,0.53 -0.34,0.94 -0.84,1.01 -0.51,0.02 -0.96,-0.34 -0.99,-0.84 -0.07,-0.48 0.29,-0.94 0.77,-1.03 h 0.05 l -0.72,0.5 v 0 c 0.14,-0.29 0.48,-0.5 0.84,-0.5 0.31,0 0.65,0.19 0.79,0.48 l 0.05,0.02 -0.94,-0.48 v 0 c 0.24,-0.02 0.51,0.05 0.72,0.19 0.17,0.17 0.29,0.41 0.34,0.65 v 0.05 c 0.05,0.5 -0.34,0.96 -0.84,1.01 -0.53,0.02 -0.96,-0.34 -1.03,-0.84 -0.05,-0.51 0.31,-0.96 0.81,-1.01 v -0.05 h 0.03 v 0 c 0.33,-0.02 0.62,0.1 0.84,0.36 h 0.02 l -0.98,-0.29 h 0.02 c 0.36,-0.09 0.77,0.03 0.96,0.29 l 0.05,0.05 -0.79,-0.36 h 0.02 l -0.84,0.6 0.05,-0.05 c 0.14,-0.36 0.43,-0.55 0.84,-0.6 v 0 l -0.89,0.7 h 0.05 c 0.05,-0.22 0.14,-0.39 0.31,-0.51 l 0.05,-0.02 -0.17,0.14 v -0.02 l 0.07,-0.07 h 0.03 l -0.03,0.02 0.03,-0.02 -0.24,0.69 v -0.02 c -0.03,-0.29 0.07,-0.55 0.26,-0.72 v -0.05 c 0.19,-0.14 0.41,-0.26 0.6,-0.29 h 0.05 l -0.84,0.75 v -0.05 c 0.02,-0.07 0.05,-0.12 0.07,-0.19 l 0.05,-0.1 -0.05,0.05 0.1,-0.17 -0.03,0.05 0.05,-0.17 -0.02,0.17 0.02,-0.19 0.05,-0.03 0.12,-0.43 -0.05,0.12 0.05,-0.07 0.02,-0.1 0.03,-0.12 v 0.03 l 0.02,-0.12 c 0,-0.05 0.05,-0.1 0.05,-0.12 l 0.05,-0.12 v -0.03 l 0.02,-0.09 -0.02,0.14 0.02,-0.12 c 0.05,-0.07 0.05,-0.14 0.1,-0.19 l 0.02,-0.1 v 0 l 0.07,-0.09 0.05,-0.1 0.17,-0.24 -0.19,0.58 v 0 c 0,-0.53 0.45,-0.99 0.98,-0.99 v 0 l -0.96,0.75 v -0.03 c 0.12,-0.45 0.53,-0.74 0.96,-0.79 h 0.05 l -0.82,0.46 v -0.03 c 0.22,-0.26 0.51,-0.43 0.82,-0.43 h 0.02 v 0 0 0 h 0.03 -0.03 0.03 v 0 h 0.02 -0.02 0.02 v 0 0 h 0.05 v 0 l -0.58,0.19 v 0 c 0.17,-0.12 0.36,-0.19 0.58,-0.21 v 0 h 0.02 v 0 c 0.34,0 0.63,0.19 0.82,0.43 l 0.02,0.02 -0.81,-0.43 v 0 c 0.26,0 0.5,0.1 0.72,0.31 0.19,0.17 0.26,0.41 0.26,0.7 v 0.02 c 0.05,0.53 -0.41,0.99 -0.96,0.99 -0.55,0 -1.01,-0.41 -1.01,-0.99 0,-0.55 0.46,-0.98 0.99,-0.98 h 0.02 c 0.24,0 0.53,0.07 0.7,0.29 0.19,0.19 0.31,0.43 0.31,0.69 v 0.03 c 0,0.55 -0.46,0.98 -1.01,0.98 -0.53,0 -0.98,-0.43 -0.98,-0.98 0,-0.53 0.43,-0.99 0.98,-0.99 v 0 c 0.22,0 0.43,0.05 0.6,0.17 l 0.05,0.05 c 0.07,0.05 0.19,0.17 0.26,0.29 l 0.03,0.07 -0.1,-0.17 0.05,0.07 0.05,0.05 0.02,0.07 h 0.05 l 0.02,0.1 0.05,0.07 0.1,0.17 -0.03,-0.07 0.15,0.24 0.07,0.12 0.02,0.07 v 0.02 l 0.03,0.1 -0.29,-0.43 0.05,0.07 c 0.14,0.07 0.24,0.24 0.31,0.38 l 0.02,0.1 0.03,0.02 v 0.1 -0.07 l 0.02,0.09 v -0.02 l 0.07,0.17 0.03,0.12 0.02,0.02 c 0.05,0.1 0.05,0.19 0.05,0.29 v 0.07 l -0.43,-0.79 h 0.02 c 0.22,0.14 0.34,0.36 0.41,0.6 l 0.02,0.05 -0.02,-0.03 0.02,0.03 -0.14,-0.29 0.02,0.05 v 0 l 0.03,0.02 c 0.07,0.1 0.12,0.19 0.14,0.31 v 0.05 l -0.38,-0.53 h 0.02 c 0.19,0.12 0.31,0.29 0.36,0.48 l 0.05,0.05 -0.12,-0.24 0.02,0.05 v 0 0.02 l -0.12,-0.14 0.05,0.05 c 0.05,0.02 0.1,0.09 0.12,0.12 v 0.02 l -0.12,-0.14 0.07,0.07 -0.02,-0.05 0.07,0.07 -0.67,-0.24 v 0 0 h 0.02 l -0.33,0.05 0.02,-0.02 c 0.12,-0.03 0.22,-0.03 0.34,-0.05 h 0.02 l -0.84,0.43 0.05,-0.02 c 0.17,-0.27 0.48,-0.41 0.79,-0.41 v 0 0 h 0.05 v 0 h 0.02 l -0.91,0.55 v -0.02 c 0.19,-0.36 0.53,-0.58 0.91,-0.58 h 0.03 l -0.82,0.43 v 0 c 0.07,-0.12 0.17,-0.19 0.24,-0.26 H 573 l -0.41,0.55 v -0.02 c 0.12,-0.46 0.53,-0.77 1.01,-0.77 v 0 l -1.01,1.01 v -0.03 c 0,-0.21 0.07,-0.38 0.19,-0.57 v -0.03 0 l 0.05,-0.02 -0.05,0.07 0.03,-0.07 0.02,-0.07 0.05,-0.05 -0.1,0.24 0.03,-0.1 0.02,-0.09 0.1,-0.24 -0.03,0.09 0.1,-0.26 0.02,-0.07 0.03,-0.12 -0.03,0.09 0.05,-0.14 c 0,-0.05 0,-0.1 0.05,-0.12 l 0.02,-0.12 0.03,-0.05 0.14,-0.36 v -0.02 l 0.05,-0.03 c 0,-0.07 0.02,-0.09 0.07,-0.14 v -0.05 l -0.07,0.22 v -0.05 c 0.17,-0.41 0.53,-0.65 0.91,-0.65 h 0.05 l -0.96,0.7 0.02,-0.05 c 0.03,-0.07 0.05,-0.17 0.12,-0.24 v -0.05 0 h 0.03 c 0.19,-0.26 0.5,-0.43 0.84,-0.43 v 0 l -0.7,0.29 0.05,-0.03 -0.05,0.03 0.05,-0.03 c 0.02,-0.02 0.07,-0.09 0.14,-0.12 l 0.03,-0.02 -0.39,0.48 h 0.03 c 0.09,-0.31 0.31,-0.53 0.6,-0.65 h 0.02 c 0.12,-0.05 0.22,-0.05 0.34,-0.05 h 0.02 v 0 h 0.05 l -0.84,0.41 h 0.02 c 0.17,-0.26 0.48,-0.43 0.82,-0.43 h 0.02 v 0 h 0.03 l -0.17,0.02 0.05,-0.02 c 0.19,-0.05 0.33,0 0.48,0.02 l 0.09,0.03 0.05,0.02 0.07,0.05 c 0.05,0.02 0.12,0.05 0.22,0.12 l 0.02,0.02 -0.19,-0.12 0.05,0.03 c 0.12,0.02 0.19,0.09 0.29,0.19 l 0.07,0.05 -0.05,-0.03 0.05,0.03 -0.05,-0.03 0.07,0.03 c 0.03,0.02 0.05,0.07 0.1,0.09 l 0.05,0.05 c 0.02,0.05 0.07,0.07 0.09,0.1 l 0.12,0.19 -0.07,-0.1 0.12,0.15 0.07,0.02 0.12,0.17 v 0.02 l 0.12,0.12 c 0.03,0.03 0.05,0.1 0.05,0.12 l 0.1,0.15 h 0.02 l 0.24,0.43 v 0.02 l 0.34,0.58 -0.27,-0.31 0.03,0.02 c 0.26,0.19 0.43,0.48 0.43,0.82 v 0.02 l -0.19,-0.55 h 0.02 l -0.14,-0.17 0.02,0.05 c 0.12,0.12 0.22,0.26 0.29,0.43 v 0.07 l -0.94,-0.74 h 0.03 c 0.19,0 0.38,0.07 0.55,0.19 h 0.02 c 0.1,0.1 0.17,0.17 0.24,0.24 l 0.03,0.05 v 0 0.02 l -0.82,-0.45 h 0.05 c 0.31,0.02 0.62,0.19 0.82,0.45 v 0.03 l -0.8,-0.46 v 0 0 h 0.03 c 0.33,0 0.62,0.19 0.81,0.46 v 0 l -0.81,-0.41 h 0.02 c 0.19,0 0.36,0.02 0.53,0.12 l 0.02,0.02 -0.5,-0.12 h 0.02 l -0.81,0.39 h 0.02 v 0 -0.03 c 0.22,-0.26 0.53,-0.43 0.84,-0.43 h 0.05 v 0 0 l -0.7,0.29 0.03,-0.05 -0.22,0.31 v -0.02 c 0.1,-0.17 0.19,-0.31 0.34,-0.41 l 0.02,-0.02 -0.12,0.09 h 0.05 l -0.05,0.03 0.05,-0.03 -0.17,0.22 v -0.05 l -0.12,0.46 v -0.03 c 0.05,-0.21 0.1,-0.38 0.19,-0.57 l 0.05,-0.05 v 0 l 0.05,-0.07 -0.12,0.31 v -0.1 l 0.02,-0.07 0.03,-0.07 0.07,-0.1 0.02,-0.02 -0.07,0.07 0.05,-0.07 -0.05,0.14 v -0.09 c 0.05,-0.05 0.05,-0.12 0.07,-0.15 l 0.03,-0.07 -0.05,0.19 v -0.07 0 l 0.02,-0.07 v 0 l 0.03,-0.22 v 0.22 -0.1 c 0,-0.02 0,-0.07 0,-0.12 v -0.07 c 0,-0.02 0.02,-0.07 0.02,-0.14 l 0.05,-0.03 0.02,-0.09 0.03,-0.1 -0.05,0.46 -0.05,-0.05 c 0,-0.19 0.05,-0.36 0.12,-0.53 l 0.05,-0.05 -0.05,0.03 0.05,-0.05 -0.05,0.07 0.05,-0.07 0.02,-0.1 0.03,-0.02 -0.03,0.02 0.03,-0.02 0.02,-0.12 0.05,-0.07 -0.05,0.07 0.05,-0.07 0.02,-0.05 0.1,-0.17 0.05,-0.07 0.02,-0.05 c 0.19,-0.26 0.48,-0.38 0.79,-0.38 h 0.03 v 0 h 0.05 v 0 0 0 h 0.02 v 0 0 l -0.94,0.72 v -0.03 c 0.1,-0.43 0.48,-0.72 0.94,-0.72 h 0.02 0.03 v 0 0 h 0.05 -0.05 0.05 c 0.28,0 0.6,0.15 0.76,0.41 v 0.05 l -0.74,-0.43 v 0 0 h 0.02 v 0 h 0.03 0.05 v 0 c 0.16,0 0.36,0.07 0.5,0.19 h 0.02 l -0.52,-0.19 h 0.02 c 0.29,0.02 0.58,0.19 0.74,0.43 v 0.02 l -0.12,-0.14 0.03,0.02 -0.03,-0.02 0.03,0.02 -0.03,-0.02 0.08,0.05 c 0.02,0.02 0.04,0.07 0.12,0.09 l 0.04,0.05 0.03,0.05 0.17,0.17 c 0.02,0.02 0.07,0.09 0.12,0.14 l 0.04,0.12 -0.12,-0.14 0.1,0.07 c 0.02,0.05 0.05,0.07 0.05,0.12 l 0.09,0.12 c 0.03,0.02 0.03,0.07 0.08,0.12 l 0.14,0.31 -0.02,-0.02 0.04,0.12 v -0.05 l 0.08,0.12 0.02,0.07 0.05,0.17 -0.07,-0.17 0.14,0.22 v 0 l 0.12,0.19 0.05,0.07 0.05,0.05 -0.08,-0.1 v 0.03 l 0.08,0.07 0.02,0.05 c 0.02,0.07 0.02,0.09 0.05,0.14 v 0.05 l -0.31,-0.46 0.02,0.03 c 0.12,0.09 0.22,0.19 0.26,0.31 l 0.03,0.05 -0.27,-0.29 h 0.03 c 0.05,0.02 0.07,0.05 0.09,0.07 l 0.08,0.07 -0.65,-0.24 v 0 0 h 0.05 c 0.28,0 0.6,0.15 0.74,0.39 l 0.02,0.02 -0.76,-0.41 v 0 h 0.02 v 0 0 0 l -0.74,0.41 v -0.02 c 0.16,-0.24 0.48,-0.39 0.76,-0.39 v 0 l -0.74,0.39 v 0 0 -0.03 c 0.17,-0.24 0.48,-0.38 0.77,-0.38 h 0.05 v 0 0 l -0.8,0.38 0.03,-0.02 -0.17,0.53 v -0.03 c 0,-0.5 0.41,-0.93 0.96,-0.93 v 0 0 0 l -0.74,0.38 v 0 l -0.2,0.53 v 0 c 0,-0.29 0.12,-0.53 0.32,-0.67 0.16,-0.17 0.38,-0.29 0.64,-0.29 v 0 c 0.56,0 0.96,0.41 0.96,0.96 0,0.5 -0.4,0.91 -0.96,0.91 -0.5,0 -0.93,-0.41 -0.93,-0.91 v -0.05 0 -0.02 c 0,-0.24 0.09,-0.48 0.29,-0.65 0.16,-0.19 0.4,-0.29 0.64,-0.29 h 0.03 l -0.89,0.6 0.1,-0.17 0.02,-0.09 0.05,-0.12 -0.05,0.12 0.02,-0.1 h 0.03 l 0.05,-0.14 v 0.02 l 0.02,-0.07 v 0 l 0.02,-0.1 v 0 l 0.08,-0.12 -0.08,0.15 0.1,-0.34 v 0.05 -0.1 -0.02 l 0.02,-0.07 -0.02,0.09 v -0.07 l 0.02,-0.02 v -0.1 l 0.03,-0.07 0.05,-0.07 c 0.02,-0.1 0.04,-0.17 0.12,-0.27 l 0.02,-0.02 -0.14,0.38 v -0.07 c 0,-0.05 0.02,-0.14 0.04,-0.19 l 0.03,-0.07 -0.03,0.02 0.03,-0.02 -0.03,0.02 0.03,-0.05 c 0.05,-0.12 0.07,-0.21 0.12,-0.26 l 0.07,-0.1 c 0.17,-0.26 0.48,-0.43 0.77,-0.43 h 0.05 c 0.5,0 0.91,0.43 0.91,0.96 0,0.53 -0.41,0.94 -0.91,0.94 -0.56,0 -0.96,-0.41 -0.96,-0.96 v -0.03 c 0,-0.31 0.14,-0.57 0.38,-0.74 h 0.02 c 0.44,-0.31 0.99,-0.22 1.32,0.19 0.32,0.43 0.2,1.01 -0.24,1.32 v 0 l 0.39,-0.77 v 0.03 c 0,0.55 -0.41,0.96 -0.91,0.96 h -0.05 l 0.79,-0.41 -0.07,0.07 0.12,-0.26 -0.03,0.09 v 0.03 l -0.02,0.07 v 0.02 l -0.02,0.05 0.04,-0.19 v 0.05 c -0.02,0.14 -0.09,0.26 -0.16,0.38 l -0.05,0.07 0.17,-0.26 -0.05,0.05 0.05,-0.1 -0.05,0.1 v -0.05 0.05 0.07 l -0.03,0.07 v -0.02 0.07 0 l -0.04,0.31 c -0.05,0.05 -0.05,0.1 -0.08,0.12 l -0.02,0.12 v 0 l -0.02,0.1 v 0 l -0.08,0.09 v 0.03 l -0.02,0.12 v 0 l -0.02,0.09 c -0.05,0.03 -0.08,0.05 -0.08,0.1 l -0.04,0.07 0.04,-0.07 -0.04,0.14 c -0.17,0.36 -0.53,0.6 -0.89,0.6 h -0.03 l 0.96,-0.93 v 0.02 0 0.05 c 0,0.24 -0.12,0.48 -0.28,0.65 -0.17,0.19 -0.41,0.26 -0.68,0.26 v 0 c -0.52,0 -0.96,-0.41 -0.96,-0.91 0,-0.55 0.44,-0.96 0.96,-0.96 0.51,0 0.94,0.41 0.94,0.96 v 0 c 0,0.19 -0.07,0.38 -0.19,0.53 v 0.02 c -0.17,0.24 -0.43,0.41 -0.77,0.41 v 0 0 0 c -0.38,0 -0.72,-0.22 -0.86,-0.58 -0.17,-0.36 -0.1,-0.74 0.16,-1.03 0.27,-0.26 0.7,-0.36 1.06,-0.19 0.34,0.14 0.58,0.48 0.58,0.86 v 0.03 c 0,0.21 -0.08,0.38 -0.2,0.55 v 0.02 c -0.16,0.24 -0.48,0.39 -0.76,0.39 v 0 0 h -0.05 l 0.79,-0.39 h -0.02 v 0 0.03 c -0.2,0.24 -0.46,0.38 -0.8,0.38 v 0 l 0.8,-0.38 h -0.05 c -0.17,0.26 -0.43,0.43 -0.77,0.43 v 0 0 0 h -0.02 v 0 c -0.32,0 -0.6,-0.17 -0.77,-0.43 h -0.03 l 0.8,0.38 h -0.05 v 0 0 c -0.24,0 -0.48,-0.07 -0.65,-0.26 l -0.07,-0.05 0.09,0.07 h -0.02 c -0.1,-0.07 -0.19,-0.19 -0.26,-0.31 l -0.05,-0.05 0.31,0.31 -0.02,-0.02 c -0.2,-0.12 -0.32,-0.29 -0.36,-0.46 v -0.02 l 0.04,0.14 -0.02,-0.07 0.05,0.1 -0.03,-0.03 c -0.02,-0.02 -0.02,-0.07 -0.04,-0.12 l -0.05,-0.02 0.07,0.07 -0.12,-0.17 v 0 l -0.14,-0.21 c -0.05,-0.05 -0.08,-0.12 -0.08,-0.15 l -0.04,-0.14 0.02,0.07 -0.07,-0.07 -0.03,-0.07 -0.04,-0.12 v -0.03 l -0.17,-0.33 0.07,0.12 -0.1,-0.12 0.1,0.12 -0.07,-0.1 c -0.05,-0.05 -0.07,-0.07 -0.12,-0.14 l -0.05,-0.12 0.12,0.14 -0.14,-0.14 0.04,0.07 -0.04,-0.07 0.07,0.09 -0.05,-0.07 -0.07,-0.02 -0.03,-0.03 -0.07,-0.07 -0.05,-0.02 c -0.02,-0.05 -0.07,-0.1 -0.12,-0.15 v 0 l 0.82,0.39 h -0.02 c -0.22,0 -0.44,-0.05 -0.58,-0.17 l -0.05,-0.05 0.63,0.19 v 0 h -0.05 -0.03 v 0 h -0.02 v 0 0 c -0.34,0 -0.65,-0.14 -0.82,-0.38 v -0.05 l 0.8,0.41 h -0.05 0.05 -0.05 v 0 0 h -0.03 -0.02 l 0.94,-0.77 v 0.05 c -0.1,0.43 -0.48,0.74 -0.94,0.74 v 0 0 h -0.02 v 0 0 0 h -0.05 v 0 l -0.03,0.03 0.8,-0.46 -0.05,0.05 0.07,-0.1 -0.1,0.15 0.08,-0.1 -0.05,0.05 -0.03,0.07 -0.02,0.07 0.05,-0.12 v 0.03 l -0.03,0.07 -0.02,0.05 0.02,-0.1 -0.02,0.12 -0.02,0.07 v 0.05 l -0.05,0.05 -0.03,0.05 0.1,-0.51 v 0.1 c 0.02,0.14 0,0.29 -0.07,0.43 l -0.03,0.07 0.03,-0.09 v 0.07 l 0.05,-0.17 -0.05,0.07 0.05,-0.12 v 0.1 c 0,0.07 -0.05,0.17 -0.05,0.24 l -0.05,0.17 0.02,-0.03 -0.02,0.1 v 0 0.05 c -0.02,0.07 -0.02,0.12 -0.07,0.19 l -0.03,0.05 0.08,-0.15 -0.05,0.1 c 0,0.05 -0.03,0.07 -0.03,0.14 l -0.02,0.05 -0.02,0.1 -0.05,0.02 0.05,-0.07 -0.05,0.07 0.05,-0.07 -0.05,0.05 c -0.03,0.12 -0.05,0.21 -0.12,0.31 l -0.03,0.02 v 0 l -0.04,0.1 0.16,-0.58 v 0.03 c 0,0.14 -0.02,0.31 -0.12,0.45 v 0.05 c -0.04,0.07 -0.09,0.12 -0.14,0.22 l -0.02,0.02 -0.05,0.05 -0.03,0.02 c -0.02,0.03 -0.04,0.05 -0.12,0.1 l -0.02,0.02 0.34,-0.38 -0.05,0.02 c -0.03,0.1 -0.12,0.22 -0.19,0.29 v 0 c -0.2,0.19 -0.44,0.29 -0.7,0.31 v 0 0 h -0.05 l 0.79,-0.45 v 0.02 0 l -0.02,0.05 c -0.19,0.26 -0.48,0.41 -0.82,0.41 h -0.02 c -0.17,0 -0.34,-0.03 -0.48,-0.12 l -0.05,-0.03 0.48,0.15 h -0.02 c -0.29,0 -0.63,-0.15 -0.82,-0.41 v -0.05 l 0.82,0.43 h -0.03 v 0 0 c -0.33,0 -0.62,-0.14 -0.84,-0.43 v 0 l 0.82,0.41 h -0.05 c -0.31,0.02 -0.62,-0.17 -0.79,-0.41 v -0.02 0 l -0.05,-0.03 0.24,0.24 -0.02,-0.02 0.6,0.17 h -0.03 c -0.45,0.02 -0.84,-0.27 -0.96,-0.72 l -0.02,-0.03 0.26,0.46 v -0.05 c -0.07,-0.02 -0.09,-0.07 -0.14,-0.14 v -0.03 c -0.12,-0.14 -0.19,-0.36 -0.19,-0.55 v -0.02 l 0.43,0.81 -0.05,-0.02 c -0.12,-0.1 -0.19,-0.19 -0.29,-0.31 l -0.33,-0.6 v 0 l -0.27,-0.41 0.03,0.02 -0.12,-0.19 0.09,0.12 -0.12,-0.12 h 0.03 l -0.12,-0.12 0.02,0.05 -0.12,-0.12 -0.05,-0.1 -0.14,-0.19 0.07,0.12 -0.02,-0.02 0.12,0.09 -0.05,-0.07 -0.07,-0.02 -0.05,-0.03 -0.05,-0.02 -0.05,-0.07 0.29,0.19 -0.05,-0.05 c -0.07,-0.02 -0.12,-0.05 -0.21,-0.12 l -0.05,-0.02 0.19,0.12 -0.02,-0.03 0.07,0.03 -0.07,-0.03 0.48,0.03 -0.05,0.02 c -0.07,0 -0.12,0 -0.19,0 h -0.03 v 0 h -0.02 l 0.84,-0.41 -0.05,0.03 c -0.17,0.26 -0.48,0.43 -0.79,0.43 h -0.05 v 0 h -0.02 l 0.36,-0.07 h -0.03 l 0.6,-0.6 v 0 c -0.07,0.21 -0.21,0.38 -0.36,0.5 h -0.02 l 0.14,-0.12 -0.02,0.05 -0.07,0.02 v 0.03 c -0.22,0.19 -0.46,0.26 -0.72,0.26 v 0 l 0.81,-0.41 v 0.03 0 l -0.02,0.02 0.12,-0.24 -0.05,0.05 c -0.12,0.38 -0.5,0.67 -0.91,0.67 h -0.05 l 0.94,-0.62 v 0.07 c -0.03,0.05 -0.05,0.12 -0.12,0.17 v 0.02 l 0.09,-0.17 -0.02,0.05 v -0.02 l -0.17,0.33 0.05,-0.02 -0.07,0.12 0.07,-0.12 -0.07,0.14 v 0.1 l -0.05,0.14 v -0.02 l -0.1,0.26 -0.02,0.1 -0.1,0.24 0.03,-0.1 -0.03,0.05 c 0,0.1 -0.07,0.17 -0.09,0.22 l -0.03,0.09 v -0.02 l -0.02,0.07 -0.07,0.1 -0.05,0.07 v 0 0 l 0.17,-0.58 v 0.03 c 0,0.26 -0.12,0.5 -0.29,0.72 -0.19,0.19 -0.46,0.26 -0.72,0.26 v 0 l 0.98,-0.74 -0.02,0.02 c -0.07,0.22 -0.19,0.43 -0.41,0.58 l -0.02,0.02 0.24,-0.24 -0.03,0.05 c -0.19,0.24 -0.48,0.41 -0.81,0.41 h -0.03 l 0.94,-0.6 -0.05,0.02 c -0.14,0.36 -0.5,0.6 -0.89,0.6 h -0.02 v 0 h -0.05 v 0 0 l 0.84,-0.43 -0.02,0.02 c -0.17,0.27 -0.48,0.41 -0.82,0.41 h -0.02 l 0.36,-0.05 -0.03,0.03 c -0.12,0.02 -0.24,0.07 -0.36,0.07 h -0.02 v 0 0 c -0.24,-0.05 -0.48,-0.12 -0.67,-0.29 l -0.1,-0.07 h -0.02 l -0.03,-0.07 c -0.07,-0.03 -0.09,-0.1 -0.12,-0.15 l -0.02,-0.02 0.14,0.17 -0.07,-0.05 c -0.02,-0.05 -0.07,-0.1 -0.12,-0.17 l -0.02,-0.02 v 0.02 l -0.03,-0.05 c -0.07,-0.09 -0.09,-0.14 -0.12,-0.24 v -0.07 l 0.34,0.48 v 0 c -0.22,-0.14 -0.34,-0.31 -0.41,-0.53 v -0.07 l 0.12,0.31 -0.02,-0.02 v 0 l -0.03,-0.07 c -0.07,-0.1 -0.09,-0.17 -0.12,-0.29 l -0.02,-0.07 v -0.03 l -0.05,-0.07 0.41,0.58 h -0.05 c -0.24,-0.22 -0.38,-0.51 -0.38,-0.82 v -0.07 l 0.02,0.26 -0.02,-0.07 0.07,0.12 -0.1,-0.14 v -0.03 l -0.02,-0.07 v -0.05 l -0.05,-0.07 v 0.05 l -0.02,-0.1 0.31,0.41 -0.07,-0.02 c -0.12,-0.12 -0.22,-0.27 -0.27,-0.41 l -0.02,-0.07 v 0.07 l -0.05,-0.1 0.07,0.12 -0.14,-0.26 -0.05,-0.05 -0.05,-0.14 0.05,0.12 -0.05,-0.1 v 0 l -0.02,-0.05 0.05,0.05 -0.05,-0.02 c -0.05,-0.05 -0.07,-0.1 -0.1,-0.15 l -0.02,-0.07 0.26,0.31 h -0.02 l 0.55,0.17 v 0 c -0.55,0 -0.98,-0.43 -0.98,-0.98 v -0.03 l 0.98,0.99 h -0.02 c -0.53,0 -0.99,-0.46 -0.99,-0.99 v -0.02 l 0.99,0.98 v 0 c -0.34,0 -0.63,-0.14 -0.82,-0.43 l -0.02,-0.02 0.81,0.43 v 0 h -0.02 v 0 l 0.6,-0.19 -0.05,0.02 c -0.14,0.12 -0.36,0.19 -0.55,0.19 v 0 h -0.05 v 0 0 h -0.02 0.02 -0.02 v 0 h -0.03 0.03 -0.03 v 0 0 0 h -0.02 l 0.84,-0.43 h -0.05 c -0.17,0.29 -0.48,0.46 -0.79,0.43 h -0.05 l 1.01,-0.74 -0.05,0.02 c -0.07,0.46 -0.48,0.77 -0.96,0.75 v 0 c -0.53,0 -0.98,-0.46 -0.98,-0.99 0,-0.55 0.45,-0.98 0.98,-0.96 0.55,0 1.01,0.41 1.01,0.99 v 0 c 0,0.21 -0.07,0.43 -0.19,0.57 l -0.15,0.22 0.05,-0.1 -0.05,0.12 v 0 l -0.07,0.1 0.1,-0.22 -0.03,0.12 c -0.02,0.05 -0.02,0.1 -0.07,0.15 l -0.05,0.09 0.03,-0.02 -0.05,0.12 0.05,-0.12 -0.05,0.12 v 0.02 l -0.05,0.12 0.05,-0.09 -0.05,0.09 -0.02,0.1 -0.15,0.41 0.03,-0.03 -0.05,0.17 c -0.05,0.05 -0.05,0.07 -0.07,0.12 l -0.05,0.12 v 0 l -0.07,0.17 h -0.03 l -0.02,0.05 0.05,-0.15 v 0.05 c -0.15,0.43 -0.58,0.72 -1.01,0.67 h -0.05 l 0.77,-0.21 h -0.05 l 0.34,-0.65 v 0.02 c -0.03,0.24 -0.12,0.46 -0.27,0.6 l -0.02,0.03 -0.07,0.07 -0.03,0.02 0.03,-0.02 -0.03,0.02 c -0.02,0.03 -0.09,0.05 -0.12,0.1 l -0.02,0.02 0.36,-0.43 h -0.05 c -0.14,0.36 -0.5,0.6 -0.91,0.6 v -0.02 l 0.86,-0.51 v 0.03 c -0.19,0.33 -0.55,0.55 -0.91,0.5 h -0.02 c -0.34,0 -0.6,-0.17 -0.77,-0.43 v -0.05 l 0.55,0.46 -0.02,-0.03 c -0.24,-0.07 -0.41,-0.21 -0.58,-0.43 v -0.02 l 0.7,0.48 v -0.03 h -0.03 v 0 c -0.5,-0.07 -0.86,-0.5 -0.81,-0.98 v -0.05 l 0.81,1.03 v 0 c -0.36,-0.07 -0.62,-0.26 -0.74,-0.6 l -0.05,-0.02 c -0.14,-0.43 0,-0.91 0.43,-1.15 0.39,-0.24 0.89,-0.15 1.18,0.24 0.29,0.36 0.26,0.86 -0.05,1.2 h -0.02 c -0.17,0.24 -0.48,0.33 -0.77,0.31 h -0.05 c -0.48,-0.07 -0.79,-0.53 -0.77,-1.01 v -0.02 l 0.12,0.55 -0.02,-0.05 0.67,0.46 h -0.02 c -0.48,-0.05 -0.84,-0.51 -0.77,-0.99 v -0.02 l 0.12,0.53 v 0 l 0.65,0.43 h -0.03 c -0.48,-0.07 -0.81,-0.48 -0.79,-1.01 v 0 0 -0.02 l 0.12,0.55 v -0.05 c -0.07,-0.14 -0.14,-0.36 -0.12,-0.53 v -0.02 l 0.05,0.38 -0.36,-1.03 -0.05,-0.12 -0.07,-0.38 v -0.03 l -0.1,-0.43 0.03,0.07 -0.15,-0.48 c -0.09,-0.38 0.12,-0.79 0.51,-0.93 0.38,-0.12 0.79,0.09 0.93,0.45 z"
         style="fill:#000000;fill-opacity:1;fill-rule:nonzero;stroke:none"
         transform="matrix(1.3333333,0,0,-1.3333333,0,1120.8)" />
    </g>
    <g
       id="g314"
       transform="matrix(10.06726,0,0,10.06726,-7523.9165,-1332.4016)">
      <path
         id="path314"
         d="m 564.19,727.39 h 0.19 l -0.14,0.03 0.05,-0.03 h 0.09 0.05 -0.07 0.05 v 0 h 0.07 l -0.12,0.03 0.05,-0.03 -0.1,0.03 0.07,-0.03 -0.02,0.03 0.05,-0.03 c 0.12,-0.07 0.24,-0.09 0.36,-0.09 h 0.07 l -0.24,0.02 0.07,-0.02 -0.17,0.09 0.05,-0.02 -0.07,0.02 0.05,-0.02 0.07,-0.05 0.02,-0.02 h -0.02 l 0.07,-0.03 0.05,-0.02 0.02,-0.05 -0.09,0.1 0.02,-0.05 v 0 l 0.07,-0.05 -0.02,0.05 0.02,-0.05 -0.02,0.07 0.02,-0.07 c 0.03,-0.02 0.05,-0.05 0.1,-0.07 l 0.05,-0.07 -0.12,0.12 0.07,-0.05 -0.07,0.07 0.07,-0.12 c 0.02,-0.02 0.05,-0.05 0.07,-0.07 l 0.12,-0.17 -0.07,0.1 0.43,-0.65 -0.07,0.17 0.02,-0.05 c 0.03,-0.07 0.05,-0.17 0.12,-0.22 l 0.03,-0.02 -0.05,0.07 0.02,-0.07 -0.07,0.17 v -0.03 l -0.02,0.15 v -0.05 c 0.02,-0.1 0.02,-0.17 0.07,-0.22 l 0.02,-0.02 v 0 -0.07 l -0.02,0.12 v -0.05 0 l 0.02,-0.1 -0.02,0.22 v -0.05 c 0,-0.05 0,-0.07 0,-0.12 l 0.02,-0.05 v 0.05 -0.14 0.24 -0.1 c -0.07,-0.29 0.03,-0.6 0.27,-0.79 0.21,-0.22 0.55,-0.29 0.81,-0.17 0.29,0.1 0.51,0.34 0.58,0.65 v 0.12 l 0.02,0.02 v 0.1 l -0.02,-0.12 0.02,0.12 v 0 l 0.03,0.07 -0.1,-0.19 0.07,0.07 c 0.05,0.1 0.1,0.19 0.1,0.24 l 0.02,0.12 -0.07,-0.17 0.07,0.1 v 0 l 0.05,0.12 -0.05,-0.1 0.05,0.1 -0.05,-0.07 0.1,0.09 0.02,0.03 0.05,0.09 v 0 l 0.07,0.1 -0.09,-0.1 0.09,0.05 c 0.03,0.05 0.05,0.07 0.05,0.12 l 0.1,0.1 -0.12,-0.15 0.07,0.1 -0.07,-0.07 0.09,0.07 0.03,0.02 0.21,0.15 -0.19,-0.12 0.07,0.02 h -0.07 l 0.07,0.05 c 0.05,0 0.12,0.02 0.15,0.05 l 0.09,0.07 -0.09,-0.07 0.09,0.02 0.1,0.07 0.07,0.05 -0.24,-0.12 0.22,0.07 h -0.05 l 0.14,0.03 c 0.34,0.07 0.58,0.31 0.7,0.6 0.07,0.33 0,0.67 -0.22,0.91 -0.21,0.24 -0.55,0.31 -0.86,0.26 l -0.17,-0.02 -0.02,-0.05 -0.22,-0.05 c -0.07,0 -0.17,-0.07 -0.26,-0.09 l -0.1,-0.05 0.1,0.02 -0.05,-0.02 -0.1,-0.07 -0.09,-0.05 0.14,0.07 -0.07,-0.02 -0.07,-0.03 -0.05,-0.02 c -0.07,-0.05 -0.12,-0.1 -0.17,-0.12 l -0.19,-0.19 v 0 l -0.1,-0.05 -0.07,-0.07 -0.07,-0.1 c -0.05,-0.02 -0.07,-0.07 -0.1,-0.14 l -0.07,-0.1 0.07,0.12 -0.07,-0.07 c -0.02,-0.05 -0.05,-0.07 -0.07,-0.12 l -0.07,-0.1 v 0 l -0.05,-0.09 0.05,0.07 -0.1,-0.1 -0.05,-0.09 -0.02,-0.1 -0.05,-0.05 -0.05,-0.09 v -0.03 l -0.02,-0.09 c -0.05,-0.05 -0.07,-0.12 -0.1,-0.17 v -0.12 l 0.1,0.24 -0.07,-0.1 c -0.03,-0.07 -0.05,-0.14 -0.1,-0.24 l -0.02,-0.09 v 0.02 l -0.03,-0.14 c 0,-0.03 0,-0.1 0,-0.12 v -0.1 0.05 l -0.02,-0.12 c -0.05,-0.34 0.12,-0.65 0.38,-0.79 0.24,-0.17 0.6,-0.17 0.87,-0.03 0.26,0.12 0.43,0.41 0.43,0.72 v 0.1 0.02 0.15 l -0.05,0.09 v 0.05 l 0.05,-0.12 v 0.05 c -0.05,0.05 -0.05,0.14 -0.05,0.19 l -0.02,0.07 v 0 0.05 l -0.05,0.12 v 0.05 0 l -0.05,0.02 0.07,-0.19 v 0.07 c 0,0.05 -0.02,0.1 -0.02,0.15 l -0.05,0.07 c -0.02,0.05 -0.05,0.12 -0.07,0.17 l -0.05,0.07 -0.05,0.05 -0.02,0.07 0.12,-0.22 -0.05,0.03 c 0,0.07 -0.02,0.12 -0.05,0.14 l -0.45,0.67 -0.05,0.05 -0.12,0.17 0.05,-0.12 -0.05,0.12 -0.07,0.07 -0.03,0.05 c -0.02,0.02 -0.07,0.05 -0.09,0.12 l -0.05,0.02 0.07,-0.09 -0.02,0.07 -0.05,0.02 -0.07,0.05 -0.03,0.05 -0.07,0.05 v 0 l -0.05,0.02 c -0.02,0.05 -0.07,0.07 -0.12,0.1 l -0.02,0.02 0.02,-0.02 -0.07,0.07 -0.02,0.02 h -0.05 l 0.05,-0.02 -0.05,0.05 -0.07,0.02 -0.05,0.05 c -0.07,0.02 -0.12,0.05 -0.19,0.07 h -0.1 c -0.05,0.05 -0.14,0.07 -0.19,0.07 h -0.07 l 0.36,-0.09 -0.05,0.02 h -0.05 l -0.05,0.05 -0.09,0.02 -0.1,0.03 c -0.02,0 -0.05,0.02 -0.12,0.02 h -0.05 v 0 l -0.07,0.05 h -0.12 -0.05 0.12 -0.07 c -0.17,0.02 -0.36,-0.05 -0.5,-0.1 l -0.15,-0.09 c -0.31,-0.17 -0.48,-0.53 -0.36,-0.89 0.1,-0.36 0.41,-0.58 0.77,-0.58 z"
         style="fill:#000000;fill-opacity:1;fill-rule:nonzero;stroke:none"
         transform="matrix(1.3333333,0,0,-1.3333333,0,1120.8)" />
    </g>
    <g
       id="g315"
       transform="matrix(10.06726,0,0,10.06726,-7523.9165,-1332.4016)">
      <path
         id="path315"
         d="m 564.41,732.19 0.07,0.03 -0.31,-0.05 h 0.07 0.07 0.1 c 0.12,0.02 0.24,0.05 0.33,0.14 l 0.05,0.03 -0.43,-0.15 h 0.07 c 0.07,0 0.12,0 0.19,0.03 l 0.15,0.02 h -0.17 0.05 l -0.27,0.05 h 0.03 c 0.09,-0.05 0.14,-0.07 0.24,-0.07 h 0.02 v 0 h 0.05 l -0.24,0.07 0.02,-0.05 c 0.05,-0.02 0.15,-0.02 0.24,-0.02 v 0 h 0.03 0.02 l -0.24,0.02 h 0.05 l -0.31,0.22 v -0.03 c 0.12,-0.12 0.24,-0.19 0.38,-0.21 l 0.07,-0.03 -0.31,0.12 h 0.05 l 0.07,-0.07 v 0 l -0.17,0.17 v -0.05 c 0.12,-0.07 0.27,-0.17 0.41,-0.19 h 0.05 c 0.05,-0.05 0.07,-0.05 0.14,-0.05 h 0.03 l -0.58,0.29 0.05,-0.07 c 0.05,-0.05 0.12,-0.12 0.19,-0.17 l 0.1,-0.07 -0.12,0.12 0.07,-0.1 v 0 l 0.07,-0.05 -0.07,0.12 0.02,-0.07 c 0.05,-0.05 0.1,-0.12 0.15,-0.14 l 0.09,-0.05 -0.14,0.12 0.05,-0.07 0.02,-0.03 0.07,-0.09 -0.07,0.09 0.05,-0.09 0.05,-0.05 0.07,-0.1 -0.05,0.03 0.07,-0.05 -0.07,0.07 0.12,-0.24 -0.05,0.34 v 0 c 0,-0.12 0,-0.24 0.05,-0.34 l 0.1,-0.17 v 0 l 0.09,-0.21 -0.02,0.07 0.05,-0.17 -0.03,0.07 0.05,-0.19 v 0.07 l 0.1,-0.55 c 0.02,-0.02 0.02,-0.07 0.07,-0.12 v -0.02 l -0.05,0.19 0.05,-0.19 c 0.02,-0.39 0.36,-0.7 0.77,-0.7 v 0 c 0.45,0 0.81,0.36 0.79,0.79 0,0.46 -0.34,0.82 -0.79,0.82 -0.41,0 -0.77,-0.36 -0.77,-0.82 v 0 l 0.07,0.34 -0.02,-0.05 c -0.03,-0.07 -0.05,-0.19 -0.05,-0.31 v -0.05 0 -0.02 c 0,-0.41 0.36,-0.77 0.77,-0.75 0.45,0 0.79,0.34 0.79,0.77 0,0.43 -0.36,0.79 -0.79,0.79 h -0.03 c -0.21,0 -0.38,-0.09 -0.55,-0.24 -0.14,-0.14 -0.24,-0.33 -0.24,-0.55 v -0.02 c 0,-0.39 0.31,-0.72 0.67,-0.77 0.39,-0.07 0.75,0.17 0.87,0.53 0.12,0.36 -0.05,0.79 -0.39,0.93 l -0.02,0.03 c -0.1,0.02 -0.22,0.07 -0.34,0.07 h -0.02 l 0.77,-0.79 v 0.02 c 0,0.31 -0.17,0.58 -0.41,0.7 h -0.05 l 0.22,-0.15 -0.03,0.03 0.24,-0.58 v 0.05 c 0,0.43 -0.36,0.77 -0.79,0.77 h -0.02 c -0.39,0.02 -0.75,-0.27 -0.77,-0.7 -0.07,-0.38 0.19,-0.74 0.6,-0.84 0.38,-0.07 0.77,0.12 0.91,0.53 v 0.02 c 0.05,0.05 0.05,0.15 0.05,0.24 v 0.03 0 0 0 0.02 l -0.05,-0.24 v 0.05 -0.05 l 0.1,0.22 c 0.02,0.09 0.02,0.19 0.02,0.26 v 0 l -0.05,-0.29 0.05,0.15 0.05,0.07 0.05,0.12 -0.1,-0.19 0.07,0.12 c 0.03,0.07 0.05,0.12 0.1,0.19 l 0.05,0.14 -0.1,-0.14 0.1,0.07 -0.05,-0.05 0.07,0.12 0.05,0.03 0.12,0.14 -0.07,-0.05 0.09,0.12 h 0.03 l 0.09,0.12 -0.02,-0.02 0.07,0.07 -0.02,-0.02 0.12,0.12 v 0 l 0.12,0.12 -0.15,-0.12 0.12,0.07 c 0.05,0.02 0.1,0.05 0.15,0.12 l 0.12,0.12 -0.24,-0.17 0.14,0.07 h 0.05 l 0.36,0.22 v 0 l 0.12,0.05 c 0.26,0.14 0.41,0.43 0.43,0.72 0,0.31 -0.14,0.6 -0.41,0.74 -0.26,0.17 -0.57,0.17 -0.84,0 l -0.12,-0.05 v 0 l -0.36,-0.21 h 0.03 l -0.15,-0.05 c -0.07,-0.05 -0.14,-0.1 -0.21,-0.17 l -0.1,-0.12 0.12,0.12 -0.12,-0.07 c -0.02,-0.05 -0.07,-0.07 -0.12,-0.12 l -0.12,-0.12 v 0 l -0.12,-0.1 v -0.02 l -0.07,-0.12 -0.07,-0.05 -0.1,-0.12 0.05,0.05 -0.1,-0.12 -0.02,-0.07 -0.12,-0.15 0.02,0.03 -0.09,-0.12 -0.03,-0.05 -0.09,-0.12 c -0.03,-0.05 -0.05,-0.1 -0.05,-0.17 l -0.07,-0.17 0.09,0.17 -0.09,-0.12 c -0.03,-0.05 -0.05,-0.12 -0.1,-0.17 l -0.02,-0.14 0.02,0.05 -0.05,-0.15 c -0.02,-0.09 -0.07,-0.19 -0.07,-0.31 v 0 l 0.07,0.29 -0.09,-0.22 v -0.02 l -0.03,-0.05 c -0.02,-0.05 -0.02,-0.14 -0.02,-0.24 v -0.02 0 0 0 -0.03 l 0.02,0.24 v -0.02 c -0.09,-0.24 -0.02,-0.48 0.12,-0.7 0.15,-0.21 0.39,-0.33 0.63,-0.33 h 0.02 c 0.43,0 0.79,0.36 0.79,0.79 0,0.43 -0.36,0.79 -0.79,0.77 -0.43,0 -0.77,-0.34 -0.77,-0.77 v -0.05 c 0,-0.17 0.05,-0.38 0.22,-0.53 l 0.02,-0.02 c 0.05,-0.07 0.12,-0.1 0.22,-0.12 v -0.05 l -0.43,0.72 v -0.02 c 0,-0.22 0.09,-0.41 0.21,-0.53 0.15,-0.17 0.36,-0.24 0.58,-0.24 h 0.02 l -0.36,0.07 v 0 c 0.24,-0.14 0.53,-0.12 0.77,0.05 0.24,0.12 0.36,0.38 0.36,0.65 v 0.02 l -0.77,-0.77 h 0.03 c 0.43,-0.02 0.79,0.34 0.79,0.75 v 0.02 0 0.05 l -0.1,-0.36 v 0 c 0.05,0.12 0.1,0.24 0.1,0.38 v 0 c 0.02,0.46 -0.34,0.82 -0.79,0.82 v 0 l 0.74,-0.7 v 0.17 c -0.02,0.07 -0.02,0.12 -0.05,0.19 v 0.05 l 0.03,-0.12 -0.12,0.53 v 0.02 l -0.05,0.17 -0.05,0.07 -0.05,0.17 -0.02,0.07 -0.1,0.17 v 0 l -0.07,0.19 0.07,-0.33 v 0 c 0,0.12 -0.02,0.26 -0.09,0.36 l -0.12,0.24 -0.05,0.12 -0.07,0.07 -0.03,0.02 -0.07,0.1 0.07,-0.1 -0.02,0.1 -0.1,0.07 -0.07,0.1 v 0 l -0.05,0.07 c -0.02,0.05 -0.07,0.07 -0.12,0.12 l -0.09,0.07 0.14,-0.14 -0.05,0.07 c -0.02,0.02 -0.07,0.07 -0.09,0.12 l -0.1,0.05 v 0 l -0.05,0.07 c -0.07,0.05 -0.09,0.07 -0.14,0.07 l -0.1,0.07 0.22,-0.14 -0.07,0.05 c -0.15,0.19 -0.39,0.26 -0.6,0.26 h -0.03 0.15 -0.03 l 0.39,-0.19 -0.03,0.02 c -0.07,0.05 -0.12,0.1 -0.21,0.12 v 0.03 l 0.09,-0.05 h -0.02 c -0.1,0.05 -0.19,0.07 -0.29,0.12 h -0.02 l 0.38,-0.19 h -0.02 c -0.1,0.09 -0.17,0.14 -0.29,0.19 h -0.05 c -0.05,0.02 -0.14,0.05 -0.24,0.05 h -0.02 -0.03 v 0 l 0.24,-0.05 -0.02,0.02 c -0.07,0 -0.17,0.03 -0.24,0.03 h -0.05 v 0 h -0.02 l 0.24,-0.03 v 0 c -0.1,0.03 -0.17,0.03 -0.24,0.03 h -0.05 c -0.07,0 -0.17,0 -0.24,-0.03 l -0.17,-0.07 0.1,0.05 -0.1,-0.05 c -0.17,-0.02 -0.31,-0.14 -0.43,-0.29 l -0.05,-0.02 0.34,0.24 -0.05,-0.05 0.05,0.05 H 564 c -0.1,-0.05 -0.19,-0.1 -0.29,-0.17 l -0.05,-0.05 c -0.26,-0.24 -0.33,-0.62 -0.14,-0.93 0.17,-0.29 0.55,-0.41 0.89,-0.27 z"
         style="fill:#000000;fill-opacity:1;fill-rule:nonzero;stroke:none"
         transform="matrix(1.3333333,0,0,-1.3333333,0,1120.8)" />
    </g>
    <g
       id="g316"
       transform="matrix(10.06726,0,0,10.06726,-7523.9165,-1332.4016)">
      <path
         id="path316"
         d="m 563.16,739.03 0.02,0.03 c 0.03,0.02 0.05,0.09 0.1,0.12 l 0.02,0.07 -0.12,-0.19 0.05,0.09 -0.17,-0.14 0.1,0.05 c 0.05,0.02 0.12,0.09 0.17,0.12 l 0.12,0.09 -0.15,-0.09 0.12,0.07 0.1,0.02 0.07,0.1 -0.12,-0.07 0.12,0.02 0.05,0.05 0.12,0.05 -0.12,-0.05 0.31,0.07 c 0.07,0.05 0.12,0.07 0.19,0.12 l 0.05,0.05 -0.55,-0.12 0.05,-0.05 c 0.12,0 0.24,0 0.33,0.05 h 0.05 l 0.07,0.02 h 0.05 -0.41 l 0.03,-0.02 h 0.07 0.05 c 0.12,-0.05 0.24,0 0.36,0.02 h 0.07 L 564,739.49 h 0.05 l -0.27,0.07 0.05,-0.02 c 0.1,-0.05 0.17,-0.05 0.29,-0.1 h 0.05 l -0.24,0.07 0.07,-0.02 c 0.05,-0.05 0.12,-0.05 0.19,-0.07 h 0.05 l -0.24,0.09 0.05,-0.02 c 0.12,-0.07 0.24,-0.12 0.38,-0.12 h 0.05 l -0.65,0.29 0.07,-0.05 c 0.05,-0.1 0.15,-0.17 0.27,-0.19 l 0.02,-0.03 v 0 l 0.07,-0.02 -0.19,0.12 0.12,-0.1 -0.02,0.03 0.07,-0.1 v 0 l 0.07,-0.05 0.07,-0.07 0.1,-0.07 -0.1,0.07 0.05,-0.05 -0.05,0.1 0.05,-0.1 -0.02,0.03 0.07,-0.1 0.05,-0.05 0.07,-0.09 -0.05,0.02 0.07,-0.07 -0.07,0.12 0.05,-0.1 v 0 l 0.12,-0.24 -0.05,0.05 0.17,-0.36 v 0 l 0.12,-0.31 v 0.05 l 0.07,-0.34 v 0.07 l 0.1,-0.36 -0.03,0.05 0.1,-0.36 v -0.02 l 0.05,-0.36 v 0.07 l 0.07,-0.34 -0.05,0.03 0.12,-0.94 -0.02,0.07 0.12,-2.64 v 0.05 l -0.1,-3.98 v -0.03 l -0.02,-5.16 v -0.02 l 0.07,-0.89 v 0 l 0.05,-0.86 v -0.05 l 0.31,-2.04 V 720 l 0.05,-0.24 c 0.09,-0.46 0.5,-0.74 0.96,-0.65 0.48,0.07 0.74,0.51 0.69,0.96 l -0.07,0.24 v -0.02 l -0.29,2.04 0.03,-0.07 -0.05,0.86 v -0.02 l -0.07,0.84 v -0.03 l 0.09,5.16 v 0 l 0.1,3.96 v 0.05 l -0.1,2.64 v 0.07 l -0.09,0.94 -0.03,0.05 -0.02,0.33 -0.05,0.05 -0.05,0.36 v -0.02 l -0.09,0.36 v 0.07 l -0.1,0.31 v 0.07 l -0.12,0.34 -0.02,0.05 -0.12,0.31 v 0 l -0.12,0.36 -0.03,0.05 -0.12,0.24 v 0 l -0.07,0.12 c -0.02,0.02 -0.02,0.09 -0.05,0.12 l -0.09,0.09 v 0.03 l -0.1,0.09 0.07,-0.07 -0.07,0.1 -0.02,0.02 -0.05,0.1 c -0.05,0.02 -0.07,0.07 -0.1,0.09 l -0.07,0.1 c -0.02,0.02 -0.05,0.05 -0.12,0.05 l -0.07,0.09 0.07,-0.07 -0.07,0.07 v 0 l -0.1,0.1 v 0.02 l -0.12,0.1 c -0.07,0.02 -0.12,0.05 -0.19,0.12 l -0.05,0.02 h -0.02 l -0.07,0.03 0.26,-0.22 -0.02,0.07 c -0.17,0.17 -0.39,0.27 -0.65,0.27 h -0.05 l 0.41,-0.1 -0.07,0.05 c -0.1,0.02 -0.17,0.05 -0.27,0.07 h -0.02 l 0.17,-0.05 -0.05,0.03 c -0.07,0.02 -0.12,0.07 -0.22,0.07 h -0.07 l 0.24,-0.07 -0.02,0.02 c -0.1,0.05 -0.17,0.07 -0.27,0.07 h -0.07 c -0.12,0.03 -0.24,0 -0.36,-0.02 l -0.05,-0.05 0.36,0.07 h -0.07 0.05 -0.05 c -0.14,0.03 -0.26,0 -0.41,-0.02 l -0.02,-0.05 0.02,0.05 -0.07,-0.05 0.34,0.05 h -0.05 c -0.22,0.02 -0.43,-0.05 -0.58,-0.12 l -0.07,-0.05 0.17,0.07 -0.31,-0.12 c -0.05,-0.02 -0.12,-0.07 -0.17,-0.09 l -0.12,-0.1 v 0 l -0.1,-0.05 c -0.07,-0.02 -0.09,-0.07 -0.12,-0.09 l -0.09,-0.12 0.07,0.09 -0.1,-0.09 c -0.07,-0.03 -0.09,-0.1 -0.14,-0.12 l -0.1,-0.15 0.12,0.12 -0.09,-0.07 c -0.03,-0.02 -0.05,-0.05 -0.1,-0.07 l -0.05,-0.1 c -0.09,-0.07 -0.12,-0.14 -0.14,-0.24 l -0.05,-0.07 0.1,0.19 -0.03,-0.07 c -0.21,-0.29 -0.14,-0.72 0.15,-0.96 0.31,-0.24 0.74,-0.19 1.03,0.07 z"
         style="fill:#000000;fill-opacity:1;fill-rule:nonzero;stroke:none"
         transform="matrix(1.3333333,0,0,-1.3333333,0,1120.8)" />
    </g>
  </g>
</svg>
