<?xml version="1.0" encoding="UTF-8" standalone="no"?>
<!-- Created with Inkscape (http://www.inkscape.org/) -->

<svg
   version="1.1"
   id="svg1"
   width="300"
   height="300"
   viewBox="0 0 300 299.99999"
   sodipodi:docname="lesson1.pdf"
   inkscape:export-filename="multichoice\multichoice12\multichoice12_option1.svg"
   inkscape:export-xdpi="96"
   inkscape:export-ydpi="96"
   xmlns:inkscape="http://www.inkscape.org/namespaces/inkscape"
   xmlns:sodipodi="http://sodipodi.sourceforge.net/DTD/sodipodi-0.dtd"
   xmlns="http://www.w3.org/2000/svg"
   xmlns:svg="http://www.w3.org/2000/svg">
  <defs
     id="defs1" />
  <sodipodi:namedview
     id="namedview1"
     pagecolor="#ffffff"
     bordercolor="#000000"
     borderopacity="0.25"
     inkscape:showpageshadow="2"
     inkscape:pageopacity="0.0"
     inkscape:pagecheckerboard="0"
     inkscape:deskcolor="#d1d1d1">
    <inkscape:page
       x="0"
       y="0"
       inkscape:label="1"
       id="page1"
       width="300"
       height="300"
       margin="0"
       bleed="0" />
  </sodipodi:namedview>
  <g
     id="g1"
     inkscape:groupmode="layer"
     inkscape:label="1">
    <g
       id="g32"
       transform="matrix(10.149766,0,0,10.149766,-982.30428,-1485.8599)">
      <path
         id="path32"
         d="m 74.28,725.11 0.24,0.48 0.024,0.03 0.192,0.38 -0.024,-0.05 0.216,0.36 v -0.02 l 0.624,1.01 c 0.072,0.12 0.12,0.26 0.12,0.4 v 0.03 l -0.288,-0.6 h 0.024 c 0.168,0.17 0.288,0.41 0.288,0.65 v 0.02 -0.02 0.02 c 0.048,0.5 -0.312,0.94 -0.816,0.98 -0.504,0.05 -0.96,-0.31 -1.008,-0.81 -0.024,-0.51 0.336,-0.96 0.84,-1.01 h 0.024 c 0.24,-0.02 0.504,0.05 0.696,0.22 v 0.02 c 0.192,0.17 0.312,0.38 0.312,0.62 l 0.024,0.03 -1.008,-0.84 h 0.024 c 0.24,-0.03 0.504,0.05 0.672,0.21 l 0.024,0.03 c 0.192,0.17 0.312,0.38 0.312,0.62 v 0.05 c 0.048,0.5 -0.336,0.94 -0.84,0.98 -0.504,0.03 -0.96,-0.36 -0.984,-0.86 -0.048,-0.5 0.312,-0.94 0.84,-0.98 l 0.024,-0.03 -0.672,0.36 h 0.024 c 0.168,-0.24 0.432,-0.36 0.744,-0.36 0.288,0 0.552,0.15 0.744,0.36 v 0.05 l -0.816,-0.38 v 0 c 0.528,-0.05 0.984,0.33 1.032,0.84 v 0.02 l -1.032,-0.84 h 0.024 v 0 h 0.024 c 0.264,-0.02 0.528,0.05 0.72,0.22 l 0.024,0.02 -0.816,-0.22 h 0.024 c 0.288,-0.04 0.576,0.03 0.816,0.22 v 0.02 l -0.648,-0.24 h 0.048 l -0.768,0.46 0.024,-0.05 c 0.144,-0.26 0.456,-0.43 0.768,-0.43 h 0.048 l -0.84,0.58 v -0.03 c 0.072,-0.21 0.24,-0.36 0.408,-0.48 l 0.048,-0.02 -0.168,0.12 0.048,-0.03 0.072,-0.04 0.024,-0.03 -0.048,0.03 0.048,-0.03 -0.36,0.82 v -0.03 c -0.024,-0.33 0.12,-0.64 0.384,-0.84 l 0.048,-0.02 c 0.144,-0.12 0.312,-0.17 0.504,-0.19 v 0 l -0.84,0.62 0.024,-0.05 c 0.024,-0.07 0.072,-0.14 0.12,-0.21 l 0.048,-0.07 v 0.02 l 0.072,-0.14 v 0.02 l 0.072,-0.12 -0.072,0.14 0.072,-0.16 0.024,-0.05 0.192,-0.41 -0.048,0.12 0.024,-0.07 0.048,-0.12 0.048,-0.12 -0.024,0.05 0.048,-0.15 c 0.024,-0.05 0.048,-0.09 0.072,-0.14 l 0.072,-0.12 h 0.024 l 0.048,-0.1 -0.072,0.17 0.048,-0.12 c 0.024,-0.1 0.072,-0.17 0.12,-0.24 l 0.072,-0.07 v 0 l 0.072,-0.12 c 0.024,-0.03 0.072,-0.05 0.096,-0.1 l 0.216,-0.21 -0.288,0.72 v -0.03 c 0,-0.55 0.432,-0.98 0.984,-1.01 h 0.024 l -0.936,0.7 v -0.05 c 0.12,-0.38 0.504,-0.67 0.936,-0.67 h 0.024 l -0.696,0.29 0.024,-0.03 c 0.192,-0.16 0.432,-0.28 0.696,-0.28 v 0 0 h 0.024 v 0 h 0.024 v 0 0 h 0.024 0.024 v 0 0 0 h 0.024 v 0 H 76.8 l -0.432,0.09 h 0.024 c 0.12,-0.07 0.264,-0.09 0.408,-0.09 h 0.024 0.024 v 0 c 0.264,0 0.528,0.09 0.72,0.28 l 0.024,0.03 -0.72,-0.29 h 0.024 c 0.264,-0.02 0.528,0.1 0.72,0.29 0.168,0.17 0.288,0.43 0.288,0.69 v 0.03 c 0,0.55 -0.456,0.98 -1.008,0.98 -0.528,0 -0.984,-0.43 -0.984,-0.98 0,-0.53 0.432,-0.99 0.984,-0.99 h 0.024 c 0.552,0 0.984,0.44 1.008,0.99 v 0.02 c 0,0.55 -0.456,0.99 -1.008,0.99 -0.528,0 -0.984,-0.44 -0.984,-0.99 0,-0.53 0.432,-0.98 0.984,-0.98 h 0.024 c 0.144,0 0.312,0.02 0.432,0.09 l 0.048,0.03 c 0.12,0.05 0.24,0.14 0.312,0.24 l 0.072,0.07 -0.144,-0.12 0.072,0.05 0.072,0.05 0.048,0.07 v 0 l 0.072,0.07 c 0.048,0.02 0.072,0.05 0.096,0.1 l 0.096,0.12 -0.024,-0.05 0.216,0.26 c 0.024,0.03 0.048,0.07 0.072,0.1 l 0.048,0.07 0.024,0.05 0.048,0.07 -0.384,-0.36 0.096,0.05 c 0.144,0.07 0.264,0.21 0.36,0.36 l 0.048,0.09 0.024,0.05 0.048,0.05 -0.048,-0.05 0.048,0.07 v 0 l 0.096,0.17 c 0.024,0.05 0.048,0.1 0.072,0.12 l 0.024,0.07 c 0.048,0.12 0.072,0.24 0.072,0.36 v 0.08 l -0.552,-0.89 0.024,0.02 c 0.24,0.12 0.432,0.34 0.504,0.58 l 0.024,0.05 -0.024,-0.05 0.024,0.05 -0.216,-0.34 0.048,0.05 v 0 l 0.024,0.05 c 0.096,0.09 0.192,0.19 0.24,0.33 v 0.05 l -0.48,-0.53 0.048,0.03 c 0.192,0.09 0.36,0.24 0.456,0.43 l 0.024,0.05 -0.192,-0.27 0.048,0.07 v 0 h 0.024 l -0.168,-0.12 0.072,0.05 c 0.048,0.05 0.096,0.07 0.144,0.12 l 0.024,0.03 -0.144,-0.12 0.048,0.04 v -0.02 l 0.12,0.07 -0.552,-0.14 h 0.024 v 0 h 0.024 l -0.24,0.02 0.048,-0.02 c 0.072,0 0.168,-0.03 0.24,-0.03 h 0.024 l -0.72,0.32 0.024,-0.03 c 0.192,-0.19 0.432,-0.29 0.696,-0.31 h 0.024 v 0 h 0.024 v 0 h 0.048 l -0.84,0.46 0.024,-0.03 c 0.168,-0.29 0.504,-0.45 0.84,-0.45 h 0.024 l -0.72,0.31 0.024,-0.03 c 0.072,-0.09 0.168,-0.14 0.264,-0.19 l 0.048,-0.02 -0.504,0.57 v -0.02 c 0.144,-0.41 0.528,-0.7 0.96,-0.7 h 0.024 l -1.008,1.01 v -0.02 c 0,-0.27 0.096,-0.51 0.288,-0.72 h 0.024 v 0 l 0.048,-0.07 -0.072,0.09 0.072,-0.07 0.024,-0.05 0.072,-0.07 -0.168,0.26 0.024,-0.07 c 0.024,-0.05 0.048,-0.09 0.072,-0.14 l 0.144,-0.24 -0.072,0.12 0.144,-0.27 v -0.04 l 0.096,-0.15 -0.048,0.1 0.048,-0.12 c 0,-0.07 0.024,-0.12 0.048,-0.15 l 0.072,-0.12 0.024,-0.04 0.216,-0.36 0.024,-0.03 0.024,-0.02 c 0.024,-0.07 0.072,-0.12 0.12,-0.17 l 0.024,-0.02 -0.144,0.19 0.024,-0.05 c 0.168,-0.31 0.504,-0.48 0.864,-0.48 h 0.024 l -0.912,0.55 0.024,-0.05 c 0.048,-0.09 0.12,-0.16 0.192,-0.26 l 0.024,-0.02 v 0 l 0.024,-0.03 c 0.192,-0.19 0.456,-0.29 0.72,-0.29 h 0.048 l -0.576,0.17 0.024,-0.02 -0.048,0.02 0.048,-0.02 c 0.048,-0.03 0.096,-0.07 0.168,-0.1 l 0.024,-0.02 -0.432,0.45 v -0.02 c 0.144,-0.26 0.384,-0.46 0.672,-0.53 h 0.024 c 0.096,-0.02 0.168,-0.02 0.24,-0.02 h 0.024 v 0 h 0.048 l -0.696,0.29 v -0.03 c 0.192,-0.19 0.456,-0.29 0.72,-0.29 h 0.048 v 0 h 0.024 -0.12 0.072 c 0.12,-0.02 0.24,-0.02 0.36,0.03 h 0.096 l 0.048,0.02 0.072,0.03 c 0.072,0.02 0.12,0.04 0.168,0.07 l 0.096,0.02 -0.168,-0.05 0.072,0.03 c 0.072,0 0.168,0.05 0.24,0.09 l 0.096,0.05 -0.048,-0.02 0.072,0.05 -0.048,-0.03 0.096,0.05 c 0.024,0.02 0.072,0.05 0.096,0.05 l 0.072,0.05 c 0.024,0.02 0.072,0.07 0.096,0.09 l 0.216,0.17 -0.096,-0.07 0.192,0.14 0.048,0.05 0.168,0.12 0.024,0.02 0.144,0.15 c 0.048,0.02 0.072,0.07 0.096,0.09 l 0.144,0.15 v 0 l 0.36,0.43 v 0.02 l 0.504,0.58 -0.312,-0.24 0.048,0.02 c 0.336,0.17 0.528,0.51 0.528,0.89 v 0.03 l -0.288,-0.7 h 0.024 l -0.144,-0.12 0.024,0.02 c 0.168,0.12 0.288,0.27 0.384,0.46 v 0.05 l -0.912,-0.63 h 0.024 c 0.168,0 0.312,0.05 0.432,0.12 h 0.048 c 0.096,0.05 0.192,0.12 0.264,0.2 l 0.024,0.02 v 0 0.02 l -0.696,-0.28 h 0.048 c 0.264,0 0.504,0.09 0.696,0.28 l 0.024,0.03 -0.696,-0.29 h 0.024 v 0 h 0.024 c 0.264,0 0.528,0.1 0.696,0.29 l 0.024,0.02 -0.696,-0.31 h 0.048 c 0.12,0.02 0.24,0.05 0.36,0.07 l 0.048,0.03 -0.36,-0.08 h 0.048 l -0.696,0.29 0.024,-0.02 h -0.024 l 0.024,-0.03 c 0.192,-0.19 0.456,-0.28 0.72,-0.28 h 0.024 0.024 0.024 l -0.552,0.16 0.024,-0.02 -0.288,0.29 0.024,-0.05 c 0.096,-0.14 0.24,-0.26 0.384,-0.34 h 0.048 l -0.12,0.05 0.048,-0.02 -0.048,0.02 0.048,-0.02 -0.216,0.19 0.048,-0.02 -0.216,0.57 v -0.02 c 0,-0.27 0.12,-0.51 0.288,-0.7 l 0.072,-0.07 h 0.024 l 0.024,-0.05 -0.216,0.31 0.048,-0.07 0.048,-0.09 0.048,-0.08 c 0.024,-0.04 0.048,-0.07 0.072,-0.12 l 0.024,-0.02 -0.072,0.1 0.048,-0.08 -0.096,0.17 0.048,-0.07 c 0.024,-0.07 0.048,-0.14 0.096,-0.22 l 0.024,-0.04 -0.096,0.24 v -0.08 0 l 0.024,-0.07 0.024,-0.02 0.048,-0.19 -0.048,0.28 v -0.09 c 0,-0.05 0.024,-0.1 0.024,-0.17 l 0.024,-0.05 c 0,-0.07 0.024,-0.14 0.048,-0.21 l 0.024,-0.05 c 0.024,-0.03 0.048,-0.07 0.048,-0.12 l 0.048,-0.05 -0.12,0.6 -0.024,-0.07 c -0.024,-0.24 0.048,-0.48 0.168,-0.67 l 0.048,-0.05 -0.024,0.02 0.048,-0.05 -0.072,0.12 0.048,-0.09 c 0.024,-0.05 0.024,-0.07 0.048,-0.12 l 0.048,-0.05 -0.048,0.05 0.024,-0.03 c 0.024,-0.04 0.048,-0.09 0.072,-0.12 l 0.048,-0.07 -0.024,0.05 0.024,-0.05 0.072,-0.07 0.096,-0.14 c 0.024,-0.05 0.048,-0.08 0.096,-0.1 l 0.024,-0.02 c 0.168,-0.17 0.408,-0.27 0.672,-0.27 h 0.024 0.024 v 0 0 h 0.024 v 0 h 0.024 0.024 0.024 l -0.912,0.65 v -0.05 c 0.12,-0.38 0.504,-0.62 0.912,-0.62 H 84.6 v 0 h 0.024 v 0 h 0.024 -0.024 0.048 c 0.24,0 0.48,0.09 0.648,0.29 l 0.024,0.02 -0.648,-0.29 h 0.024 -0.024 0.048 v 0 h 0.024 0.024 v 0 c 0.144,0 0.288,0.03 0.408,0.1 l 0.048,0.02 -0.408,-0.09 v 0 c 0.264,0 0.48,0.09 0.672,0.28 l 0.024,0.03 -0.168,-0.15 0.072,0.05 -0.048,-0.02 0.072,0.02 -0.048,-0.02 0.096,0.05 0.096,0.07 0.096,0.07 0.072,0.02 0.192,0.17 c 0.048,0.05 0.096,0.1 0.144,0.15 l 0.096,0.12 -0.144,-0.15 0.096,0.07 c 0.048,0.03 0.072,0.08 0.12,0.12 l 0.096,0.1 c 0.024,0.05 0.072,0.1 0.096,0.14 l 0.216,0.34 -0.048,-0.05 0.096,0.1 -0.024,-0.03 0.072,0.12 c 0.048,0.03 0.072,0.05 0.096,0.1 l 0.072,0.12 -0.12,-0.14 0.216,0.21 v 0 l 0.168,0.19 0.072,0.08 0.024,0.04 -0.072,-0.09 v 0 l 0.072,0.09 0.048,0.05 c 0.048,0.05 0.072,0.1 0.096,0.17 l 0.024,0.05 -0.408,-0.43 0.048,0.02 c 0.12,0.05 0.216,0.14 0.288,0.26 l 0.048,0.03 -0.312,-0.24 0.048,0.02 0.096,0.05 0.096,0.07 -0.528,-0.17 h 0.024 v 0 h 0.024 c 0.24,0 0.48,0.12 0.672,0.29 l 0.024,0.03 -0.672,-0.29 v 0 0 h 0.024 v 0 h 0.024 l -0.672,0.29 0.024,-0.03 C 86.52,727.22 86.76,727.1 87,727.1 h 0.024 l -0.672,0.29 0.024,-0.02 h -0.024 0.024 c 0.192,-0.19 0.408,-0.29 0.672,-0.29 h 0.024 v 0 h 0.024 l -0.672,0.29 0.024,-0.03 -0.288,0.65 v -0.02 c 0,-0.53 0.432,-0.94 0.96,-0.94 v 0 0 h 0.024 l -0.672,0.27 0.024,-0.03 -0.264,0.67 v -0.02 c 0,-0.5 0.408,-0.94 0.936,-0.94 h 0.024 c 0.36,0 0.72,0.24 0.864,0.58 0.144,0.36 0.048,0.77 -0.216,1.03 -0.264,0.27 -0.672,0.36 -1.008,0.22 -0.36,-0.17 -0.6,-0.51 -0.6,-0.89 v -0.02 0 -0.03 c 0,-0.24 0.12,-0.48 0.288,-0.65 0.168,-0.19 0.408,-0.28 0.672,-0.28 v 0 l -0.816,0.48 0.096,-0.17 c 0.024,-0.05 0.048,-0.07 0.072,-0.12 l 0.072,-0.1 -0.096,0.12 0.072,-0.07 v -0.02 l 0.072,-0.12 v 0 l 0.048,-0.08 v 0 l 0.048,-0.09 v 0 l 0.072,-0.12 -0.072,0.19 0.072,-0.31 v 0 l 0.024,-0.07 0.024,-0.05 v -0.05 l -0.024,0.12 0.024,-0.07 v -0.07 l 0.024,-0.05 c 0.024,-0.05 0.024,-0.1 0.048,-0.12 l 0.024,-0.07 c 0.048,-0.12 0.12,-0.22 0.192,-0.29 l 0.048,-0.05 -0.264,0.48 0.024,-0.05 C 87,726.07 87.024,726 87.072,725.9 l 0.048,-0.07 -0.024,0.05 0.024,-0.05 -0.024,0.05 0.024,-0.07 c 0.048,-0.12 0.12,-0.22 0.192,-0.29 l 0.096,-0.1 c 0.192,-0.16 0.432,-0.26 0.672,-0.26 h 0.024 c 0.504,0 0.936,0.41 0.936,0.94 0,0.5 -0.432,0.93 -0.936,0.93 -0.528,0 -0.936,-0.43 -0.936,-0.93 v -0.05 c 0,-0.31 0.144,-0.6 0.408,-0.77 l 0.048,-0.02 -0.144,0.12 0.024,-0.03 c 0.168,-0.17 0.408,-0.26 0.648,-0.26 h 0.024 l -0.792,0.41 0.024,-0.03 c 0.192,-0.26 0.48,-0.43 0.792,-0.43 v 0 0 h 0.048 l -0.936,0.94 v -0.03 c 0,-0.5 0.408,-0.93 0.936,-0.93 h 0.048 l -0.912,0.64 0.024,-0.02 c 0.12,-0.38 0.48,-0.65 0.888,-0.65 h 0.024 v 0 h 0.024 v 0 h 0.024 v 0 h 0.024 v 0 h 0.024 v 0 h 0.048 v 0 0 0 h 0.024 v 0 h 0.048 v 0 h 0.024 c 0.24,0 0.48,0.1 0.648,0.29 l 0.024,0.02 -0.672,-0.28 h 0.024 c 0.144,0 0.288,0.04 0.432,0.09 l 0.024,0.03 -0.408,-0.1 h 0.024 c 0.192,0 0.36,0.05 0.528,0.17 l 0.12,0.07 0.072,0.05 0.12,0.09 -0.12,-0.07 0.096,0.07 c 0.072,0.03 0.144,0.08 0.192,0.12 l 0.096,0.1 -0.072,-0.07 0.096,0.09 c 0.048,0.03 0.096,0.08 0.144,0.15 l 0.096,0.09 -0.12,-0.09 0.12,0.09 v 0 l 0.096,0.08 c 0.072,0.07 0.12,0.14 0.168,0.24 l 0.096,0.14 -0.048,-0.05 0.168,0.24 v -0.02 l 0.24,0.33 v 0.03 l 0.144,0.21 -0.048,-0.09 0.048,0.09 c 0.096,0.08 0.144,0.2 0.192,0.29 l 0.024,0.07 -0.12,-0.21 0.072,0.09 -0.12,-0.14 0.048,0.05 0.024,0.05 0.072,0.07 h 0.024 l 0.048,0.07 -0.168,-0.17 0.12,0.1 c 0.048,0.02 0.072,0.07 0.12,0.09 v 0.03 L 90.576,727.2 H 90.6 c 0.336,0 0.672,0.22 0.816,0.53 l 0.024,0.02 -0.192,-0.24 h 0.024 l -0.648,-0.26 h 0.024 c 0.312,0 0.6,0.17 0.768,0.41 l 0.024,0.04 -1.2,-0.33 h 0.024 c 0.12,-0.07 0.264,-0.1 0.408,-0.1 h 0.024 v 0 h 0.024 v 0 h 0.024 v 0 0 0 h 0.048 v 0 h 0.024 v 0 h 0.024 v 0 0 0 h 0.024 l -0.552,0.19 0.048,-0.04 c 0.144,-0.12 0.36,-0.17 0.552,-0.17 h 0.024 l -0.84,0.5 v 0 c 0.168,-0.33 0.48,-0.53 0.84,-0.53 h 0.024 l -0.672,0.27 h 0.024 l -0.12,0.12 0.024,-0.03 c 0.168,-0.26 0.48,-0.4 0.792,-0.4 h 0.024 l -0.84,0.5 v -0.02 c 0.048,-0.08 0.096,-0.17 0.192,-0.24 v -0.03 l -0.048,0.07 0.144,-0.16 v 0 l 0.12,-0.17 -0.072,0.09 0.12,-0.16 v -0.03 l 0.12,-0.17 -0.024,0.03 0.288,-0.48 -0.048,0.09 0.12,-0.24 0.024,-0.07 0.12,-0.21 0.048,-0.1 0.408,-0.62 c 0.024,-0.03 0.048,-0.08 0.096,-0.1 l 0.144,-0.19 c 0.36,-0.39 0.96,-0.41 1.344,-0.07 0.36,0.33 0.408,0.93 0.072,1.32 l -0.168,0.19 0.072,-0.12 -0.408,0.62 0.048,-0.07 -0.12,0.24 0.024,-0.07 -0.096,0.24 -0.048,0.09 -0.288,0.51 -0.048,0.05 -0.12,0.19 0.024,-0.03 -0.096,0.17 -0.072,0.07 -0.144,0.17 v 0 l -0.144,0.19 -0.072,0.05 v 0.03 l 0.168,-0.24 -0.024,0.02 c -0.144,0.31 -0.48,0.53 -0.816,0.53 h -0.024 l 0.768,-0.43 -0.024,0.04 c -0.024,0.05 -0.072,0.1 -0.12,0.15 v 0.02 C 91.44,729 91.2,729.1 90.96,729.1 h -0.024 l 0.84,-0.53 v 0.02 c -0.168,0.31 -0.48,0.53 -0.84,0.53 h -0.024 l 0.552,-0.19 -0.024,0.02 c -0.168,0.12 -0.36,0.19 -0.576,0.19 H 90.84 v 0 0 0 h -0.024 v 0 h -0.024 v 0 h -0.048 v 0 0 0 H 90.72 v 0 h -0.024 v 0 h -0.024 l 0.432,-0.09 H 91.08 c -0.432,0.21 -0.936,0.07 -1.2,-0.31 l -0.024,-0.03 0.792,0.41 h -0.024 c -0.24,0 -0.48,-0.1 -0.672,-0.26 l -0.024,-0.03 c -0.048,-0.07 -0.12,-0.14 -0.168,-0.24 v -0.02 l 0.84,0.5 h -0.024 c -0.264,0 -0.504,-0.09 -0.672,-0.26 l -0.024,-0.03 0.12,0.1 -0.144,-0.1 c -0.048,-0.04 -0.096,-0.09 -0.144,-0.14 l -0.048,-0.07 v 0.02 l -0.072,-0.09 0.072,0.07 -0.048,-0.05 c -0.048,-0.05 -0.096,-0.1 -0.12,-0.14 l -0.072,-0.1 c -0.048,-0.07 -0.072,-0.14 -0.096,-0.22 l -0.024,-0.07 0.168,0.31 -0.048,-0.07 -0.072,-0.07 -0.168,-0.24 0.024,0.02 -0.24,-0.33 -0.024,-0.03 -0.144,-0.24 -0.048,-0.04 -0.072,-0.15 0.192,0.22 -0.096,-0.07 v 0 l -0.12,-0.1 c -0.024,-0.02 -0.072,-0.07 -0.096,-0.1 l -0.096,-0.12 0.144,0.15 -0.096,-0.1 -0.072,-0.07 -0.096,-0.07 0.168,0.12 -0.096,-0.05 c -0.048,-0.02 -0.072,-0.05 -0.12,-0.07 l -0.096,-0.1 0.072,0.05 -0.144,-0.07 0.528,0.14 h -0.024 c -0.144,0 -0.288,-0.02 -0.432,-0.09 l -0.024,-0.03 0.408,0.1 H 88.56 c -0.24,0 -0.48,-0.1 -0.648,-0.27 l -0.024,-0.02 0.672,0.26 -0.024,0.03 v 0 h -0.048 v 0 h -0.024 v 0 0 0 h -0.048 v 0 h -0.024 v 0 h -0.024 v 0 h -0.024 v 0 H 88.32 v 0 h -0.024 l 0.888,-0.65 v 0.02 c -0.12,0.39 -0.48,0.65 -0.888,0.65 h -0.048 c -0.528,0 -0.936,-0.43 -0.936,-0.93 0,-0.53 0.408,-0.96 0.936,-0.96 0.504,0 0.936,0.43 0.936,0.93 v 0.03 c 0,0.26 -0.096,0.5 -0.264,0.67 -0.192,0.17 -0.432,0.26 -0.672,0.26 H 88.2 v 0 0 l 0.768,-0.41 -0.024,0.03 c -0.168,0.26 -0.456,0.43 -0.768,0.43 h -0.024 l 0.672,-0.29 -0.024,0.03 c -0.048,0.04 -0.096,0.09 -0.144,0.12 l -0.024,0.02 0.408,-0.79 v 0.05 c 0,0.5 -0.432,0.93 -0.936,0.93 H 88.08 l 0.672,-0.26 -0.096,0.07 0.192,-0.29 -0.024,0.07 -0.024,0.05 -0.024,0.05 -0.024,0.05 -0.048,0.07 0.12,-0.29 -0.024,0.05 c -0.024,0.19 -0.12,0.36 -0.24,0.48 l -0.048,0.05 0.192,-0.29 -0.024,0.05 0.024,-0.1 v 0.07 -0.07 0.05 l -0.024,0.12 -0.024,0.05 v -0.03 l -0.024,0.08 v 0 l -0.096,0.31 c 0,0.07 -0.024,0.12 -0.072,0.19 l -0.048,0.1 v 0.02 l -0.072,0.07 v 0 l -0.048,0.12 v 0 l -0.072,0.12 v 0 l -0.048,0.1 c -0.024,0.02 -0.048,0.07 -0.072,0.12 l -0.072,0.07 0.072,-0.1 -0.096,0.17 c -0.168,0.29 -0.48,0.46 -0.816,0.46 v 0 l 0.936,-0.94 v 0.03 0 0.02 c 0,0.53 -0.432,0.94 -0.936,0.94 h -0.024 c -0.384,0 -0.72,-0.22 -0.888,-0.58 -0.12,-0.34 -0.048,-0.74 0.216,-1.01 0.264,-0.26 0.672,-0.36 1.032,-0.21 0.336,0.14 0.576,0.48 0.576,0.86 v 0.02 c 0,0.27 -0.096,0.51 -0.288,0.68 v 0.02 c -0.192,0.17 -0.432,0.26 -0.672,0.26 H 87.12 v 0 0 c -0.384,0 -0.72,-0.21 -0.888,-0.57 -0.144,-0.34 -0.048,-0.75 0.216,-1.03 0.264,-0.27 0.672,-0.34 1.032,-0.2 0.336,0.15 0.576,0.48 0.576,0.87 v 0.02 c 0,0.27 -0.096,0.51 -0.288,0.67 l -0.024,0.03 c -0.168,0.17 -0.408,0.26 -0.648,0.26 h -0.024 v 0 h -0.024 l 0.672,-0.26 -0.024,0.02 v 0 H 87.672 C 87.504,728.9 87.264,729 87.024,729 H 87 l 0.648,-0.29 v 0.03 c -0.192,0.16 -0.432,0.28 -0.672,0.28 h -0.024 v 0 h -0.024 v 0 0 c -0.264,0 -0.504,-0.12 -0.672,-0.28 l -0.024,-0.03 0.672,0.29 H 86.88 v 0 h -0.024 c -0.192,0 -0.36,-0.05 -0.528,-0.17 l -0.072,-0.05 0.096,0.05 -0.048,-0.02 c -0.12,-0.05 -0.216,-0.15 -0.312,-0.24 l -0.048,-0.07 0.336,0.26 -0.048,-0.02 c -0.192,-0.1 -0.336,-0.24 -0.432,-0.41 l -0.024,-0.05 0.12,0.17 -0.048,-0.05 0.072,0.07 -0.024,-0.02 c -0.024,-0.03 -0.072,-0.07 -0.096,-0.1 l -0.024,-0.05 0.072,0.08 -0.168,-0.17 v 0.02 l -0.216,-0.24 c -0.048,-0.05 -0.072,-0.09 -0.12,-0.14 l -0.072,-0.15 0.072,0.1 -0.096,-0.1 -0.048,-0.04 -0.072,-0.12 -0.024,-0.05 -0.216,-0.34 0.096,0.12 -0.12,-0.12 0.12,0.12 -0.096,-0.09 c -0.048,-0.05 -0.096,-0.08 -0.144,-0.15 l -0.096,-0.09 0.144,0.14 -0.192,-0.17 0.048,0.05 -0.072,-0.07 0.096,0.07 -0.096,-0.05 -0.048,-0.02 -0.072,-0.05 -0.072,-0.02 -0.048,-0.05 c -0.072,-0.03 -0.096,-0.07 -0.144,-0.12 h -0.024 l 0.672,0.26 v 0 c -0.168,0 -0.312,-0.02 -0.456,-0.09 l -0.024,-0.03 0.432,0.1 v 0 h -0.024 -0.024 v 0 h -0.048 0.024 -0.024 c -0.264,0 -0.504,-0.1 -0.696,-0.27 v -0.02 l 0.672,0.26 h -0.048 0.024 -0.024 v 0 H 84.6 v 0 h -0.048 l 0.888,-0.67 v 0.05 c -0.12,0.38 -0.48,0.65 -0.888,0.65 H 84.528 84.504 84.48 v 0 h -0.024 v 0 0 h -0.024 -0.024 l 0.672,-0.27 h -0.024 l 0.072,-0.07 -0.12,0.15 0.072,-0.12 -0.024,0.07 -0.048,0.05 -0.048,0.07 0.096,-0.12 -0.024,0.02 -0.048,0.07 -0.024,0.05 0.048,-0.09 -0.048,0.09 -0.024,0.1 -0.048,0.07 -0.024,0.02 -0.024,0.08 0.12,-0.68 0.024,0.08 c 0.024,0.21 0,0.43 -0.12,0.62 l -0.024,0.07 0.048,-0.14 -0.024,0.05 0.048,-0.2 v 0.08 l 0.024,-0.17 v 0.09 c 0,0.12 -0.024,0.22 -0.072,0.34 l -0.048,0.17 0.024,-0.05 -0.024,0.07 v 0 l -0.024,0.1 c -0.024,0.07 -0.072,0.14 -0.096,0.21 l -0.024,0.05 0.072,-0.19 -0.024,0.1 c -0.024,0.07 -0.048,0.12 -0.072,0.19 l -0.048,0.07 -0.072,0.1 -0.024,0.02 0.072,-0.1 -0.048,0.08 0.048,-0.1 -0.024,0.07 c -0.048,0.12 -0.12,0.22 -0.216,0.31 l -0.024,0.05 h -0.024 l -0.072,0.07 0.288,-0.69 v 0.02 c 0,0.22 -0.048,0.43 -0.192,0.6 l -0.024,0.05 c -0.048,0.07 -0.12,0.12 -0.192,0.19 l -0.048,0.03 -0.048,0.02 -0.024,0.02 c -0.024,0.03 -0.072,0.05 -0.096,0.08 l -0.048,0.02 0.384,-0.34 -0.024,0.03 c -0.072,0.12 -0.168,0.19 -0.288,0.26 l -0.024,0.03 c -0.144,0.12 -0.336,0.16 -0.528,0.19 H 83.328 83.304 83.28 l 0.696,-0.31 -0.048,0.04 0.024,-0.02 -0.024,0.02 c -0.192,0.2 -0.432,0.29 -0.696,0.32 h -0.048 c -0.12,0 -0.264,-0.03 -0.384,-0.08 l -0.048,-0.02 0.384,0.07 h -0.048 c -0.264,0 -0.504,-0.09 -0.696,-0.29 l -0.024,-0.02 0.696,0.29 H 83.04 v 0 h -0.024 c -0.264,0 -0.528,-0.1 -0.72,-0.29 v -0.02 l 0.696,0.28 h -0.048 c -0.264,0 -0.504,-0.09 -0.696,-0.28 l -0.024,-0.03 v 0 H 82.2 l 0.264,0.17 -0.048,-0.02 0.456,0.12 h -0.024 c -0.408,0 -0.768,-0.24 -0.912,-0.63 l -0.024,-0.05 0.36,0.46 -0.024,-0.02 c -0.048,-0.03 -0.096,-0.08 -0.144,-0.12 l -0.024,-0.03 c -0.192,-0.19 -0.288,-0.43 -0.312,-0.69 v -0.03 l 0.552,0.89 -0.024,-0.02 c -0.12,-0.08 -0.24,-0.15 -0.336,-0.27 l -0.48,-0.57 v 0 l -0.36,-0.41 v 0 l -0.144,-0.15 0.12,0.1 -0.168,-0.14 0.024,0.02 -0.168,-0.12 0.048,0.02 -0.192,-0.14 -0.072,-0.07 -0.192,-0.17 0.12,0.1 -0.072,-0.05 0.096,0.07 -0.072,-0.05 -0.048,-0.02 -0.072,-0.05 -0.048,-0.02 -0.072,-0.05 0.264,0.12 -0.072,-0.03 c -0.072,0 -0.12,-0.02 -0.192,-0.07 l -0.072,-0.02 0.168,0.05 h -0.072 0.072 l -0.096,-0.03 0.336,0.03 h -0.096 c -0.024,0.02 -0.072,0.02 -0.12,0.02 h -0.024 v 0 h -0.048 l 0.72,-0.31 -0.024,0.02 c -0.192,0.19 -0.456,0.31 -0.72,0.31 h -0.048 v 0 H 80.16 l 0.24,-0.04 -0.024,0.02 0.648,-0.53 v 0.03 c -0.096,0.19 -0.264,0.33 -0.456,0.43 l -0.048,0.02 0.168,-0.09 -0.048,0.04 -0.048,0.03 -0.024,0.02 c -0.168,0.1 -0.36,0.17 -0.552,0.17 h -0.048 l 0.696,-0.31 v 0.02 0 l -0.048,0.05 0.192,-0.26 -0.024,0.04 c -0.168,0.34 -0.528,0.56 -0.888,0.56 h -0.024 l 0.864,-0.51 -0.024,0.07 c -0.048,0.05 -0.096,0.12 -0.168,0.2 l -0.024,0.02 0.144,-0.17 -0.024,0.03 v -0.03 l -0.192,0.36 0.024,-0.05 -0.072,0.12 0.072,-0.14 -0.048,0.14 c -0.024,0.03 -0.048,0.08 -0.048,0.1 l -0.072,0.14 v -0.02 l -0.12,0.26 c -0.024,0.05 -0.048,0.1 -0.048,0.12 l -0.144,0.24 0.048,-0.12 -0.024,0.08 c -0.048,0.09 -0.096,0.16 -0.168,0.24 l -0.048,0.09 0.024,-0.05 -0.072,0.1 c -0.024,0.02 -0.048,0.07 -0.096,0.1 l -0.048,0.04 v 0 l -0.024,0.03 0.312,-0.72 v 0.02 c 0,0.27 -0.12,0.53 -0.312,0.72 -0.168,0.19 -0.432,0.29 -0.696,0.29 h -0.024 l 0.96,-0.7 -0.024,0.05 c -0.072,0.24 -0.264,0.46 -0.504,0.58 l -0.024,0.02 0.24,-0.19 -0.024,0.02 c -0.192,0.17 -0.432,0.29 -0.696,0.29 h -0.024 l 0.816,-0.45 v 0.04 c -0.192,0.27 -0.528,0.44 -0.84,0.44 h -0.048 v 0 h -0.024 v 0 h -0.024 l 0.72,-0.29 -0.024,0.02 c -0.168,0.19 -0.432,0.29 -0.696,0.29 h -0.024 l 0.24,-0.05 -0.048,0.03 c -0.072,0.02 -0.144,0.02 -0.24,0.02 h -0.024 v 0 h -0.024 c -0.192,0 -0.384,-0.05 -0.528,-0.17 l -0.12,-0.05 -0.024,-0.02 -0.048,-0.05 c -0.072,-0.02 -0.12,-0.07 -0.168,-0.12 l -0.024,-0.02 0.168,0.14 -0.072,-0.05 c -0.048,-0.04 -0.096,-0.09 -0.144,-0.14 l -0.024,-0.02 v 0.02 l -0.048,-0.05 c -0.072,-0.09 -0.144,-0.17 -0.192,-0.26 l -0.024,-0.05 0.456,0.43 h -0.048 c -0.216,-0.12 -0.384,-0.31 -0.48,-0.53 l -0.024,-0.07 0.24,0.36 -0.048,-0.05 v 0 l -0.048,-0.04 c -0.096,-0.1 -0.168,-0.22 -0.216,-0.34 l -0.024,-0.05 -0.024,-0.05 -0.024,-0.07 0.504,0.58 -0.048,-0.03 c -0.336,-0.16 -0.528,-0.5 -0.528,-0.88 v -0.08 l 0.072,0.39 -0.024,-0.07 0.072,0.14 -0.12,-0.17 v -0.02 l -0.048,-0.07 -0.024,-0.05 -0.024,-0.05 0.024,0.02 -0.048,-0.09 0.36,0.38 -0.072,-0.02 c -0.144,-0.1 -0.264,-0.24 -0.36,-0.39 l -0.048,-0.07 0.048,0.07 -0.048,-0.07 0.072,0.1 -0.216,-0.24 -0.048,-0.05 -0.096,-0.14 0.096,0.09 -0.072,-0.07 v 0 l -0.072,-0.05 0.072,0.05 -0.072,-0.05 c -0.048,-0.02 -0.072,-0.07 -0.12,-0.12 l -0.048,-0.07 0.312,0.26 -0.024,-0.02 0.432,0.1 H 76.92 c -0.552,0 -0.984,-0.44 -0.984,-0.99 v -0.02 l 0.984,0.98 h -0.024 c -0.552,0 -0.984,-0.43 -0.984,-0.98 v -0.03 l 0.984,0.99 h -0.024 c -0.264,0 -0.504,-0.1 -0.696,-0.29 l -0.024,-0.02 0.696,0.28 v 0 H 76.824 76.8 l 0.48,-0.09 h -0.024 c -0.144,0.07 -0.288,0.12 -0.456,0.12 h -0.024 v 0 h -0.024 v 0 0 0 h -0.024 -0.024 v 0 0 H 76.68 v 0 h -0.024 v 0 0 l 0.696,-0.29 -0.024,0.02 c -0.192,0.17 -0.432,0.27 -0.696,0.27 h -0.024 l 0.936,-0.65 v 0.02 c -0.144,0.41 -0.528,0.68 -0.936,0.68 h -0.024 c -0.408,0 -0.768,-0.27 -0.912,-0.63 -0.144,-0.36 -0.072,-0.79 0.216,-1.08 0.288,-0.26 0.72,-0.36 1.08,-0.19 0.36,0.14 0.6,0.5 0.6,0.91 v 0.03 c 0,0.26 -0.096,0.5 -0.288,0.69 l -0.216,0.22 0.072,-0.1 -0.072,0.1 v 0 l -0.072,0.09 0.144,-0.24 -0.048,0.15 c -0.048,0.05 -0.072,0.09 -0.096,0.14 l -0.072,0.1 h 0.024 l -0.072,0.09 0.072,-0.14 -0.072,0.12 v 0.02 l -0.048,0.12 0.048,-0.09 -0.048,0.09 c 0,0.05 -0.024,0.08 -0.048,0.12 l -0.192,0.41 v -0.05 l -0.072,0.17 c -0.024,0.05 -0.048,0.12 -0.072,0.17 l -0.096,0.12 v 0 l -0.096,0.14 v 0 l -0.072,0.08 0.12,-0.2 -0.024,0.05 c -0.168,0.39 -0.552,0.63 -0.96,0.6 v 0 l 0.552,-0.14 -0.024,0.02 0.456,-0.77 v 0.03 c -0.024,0.29 -0.168,0.55 -0.408,0.72 l -0.048,0.02 -0.048,0.03 -0.024,0.02 0.024,-0.02 -0.048,0.04 c -0.048,0.03 -0.072,0.05 -0.12,0.08 h -0.048 l 0.432,-0.39 -0.024,0.03 c -0.168,0.31 -0.504,0.48 -0.84,0.48 h -0.048 l 0.816,-0.39 -0.024,0.03 c -0.192,0.24 -0.504,0.4 -0.816,0.38 h -0.048 c -0.264,0 -0.504,-0.12 -0.672,-0.31 l -0.024,-0.03 0.528,0.29 h -0.024 c -0.192,-0.02 -0.384,-0.14 -0.528,-0.29 l -0.024,-0.02 0.624,0.31 H 74.88 v 0 h -0.024 c -0.24,-0.02 -0.456,-0.14 -0.624,-0.33 -0.168,-0.2 -0.24,-0.44 -0.216,-0.7 v -0.02 c 0.048,-0.51 0.504,-0.89 1.032,-0.84 0.504,0.04 0.888,0.5 0.84,1.03 -0.048,0.5 -0.504,0.89 -1.032,0.84 v 0 c -0.312,-0.03 -0.576,-0.22 -0.72,-0.46 l -0.024,-0.02 c -0.264,-0.43 -0.12,-0.99 0.288,-1.27 0.432,-0.27 0.984,-0.17 1.272,0.24 0.288,0.4 0.216,0.98 -0.192,1.27 l -0.024,0.02 c -0.168,0.15 -0.408,0.22 -0.624,0.19 h -0.024 c -0.504,-0.04 -0.888,-0.48 -0.84,-0.98 v -0.05 l 0.216,0.67 -0.024,-0.02 0.624,0.31 H 74.76 c -0.24,-0.02 -0.48,-0.12 -0.624,-0.33 -0.168,-0.17 -0.24,-0.41 -0.216,-0.65 v -0.03 l 0.216,0.68 v -0.03 l 0.6,0.31 h -0.024 c -0.504,-0.04 -0.864,-0.48 -0.84,-0.98 v -0.02 0.02 -0.02 l 0.24,0.64 -0.024,-0.02 c -0.168,-0.17 -0.24,-0.43 -0.216,-0.67 v -0.03 l 0.096,0.51 -0.552,-1.03 -0.048,-0.12 -0.144,-0.39 -0.024,-0.05 -0.12,-0.43 0.024,0.07 -0.192,-0.48 c -0.168,-0.38 0,-0.81 0.36,-0.98 0.36,-0.17 0.816,-0.02 1.008,0.31 z"
         style="fill:#000000;fill-opacity:1;fill-rule:nonzero;stroke:none"
         transform="matrix(1.3333333,0,0,-1.3333333,0,1120.8)" />
    </g>
    <g
       id="g33"
       transform="matrix(10.149766,0,0,10.149766,-982.30428,-1485.8599)">
      <path
         id="path33"
         d="m 80.088,716.66 0.36,-0.04 h 0.096 l 2.136,0.04 v 0 l 3.864,0.03 h -0.072 l 0.48,-0.03 h 0.072 0.048 c 0.576,0 1.032,0.46 1.032,1.01 0,0.58 -0.456,1.03 -1.032,1.03 h -0.048 0.024 -0.48 -0.048 l -3.888,-0.14 h -0.048 l -2.136,-0.19 v -0.03 l -0.36,-0.02 c -0.408,-0.05 -0.744,-0.41 -0.744,-0.82 0,-0.43 0.336,-0.79 0.744,-0.84 z"
         style="fill:#000000;fill-opacity:1;fill-rule:nonzero;stroke:none"
         transform="matrix(1.3333333,0,0,-1.3333333,0,1120.8)" />
    </g>
    <g
       id="g34"
       transform="matrix(10.149766,0,0,10.149766,-982.30428,-1485.8599)">
      <path
         id="path34"
         d="m 80.448,718.27 -0.168,0.05 0.336,-0.29 v 0.03 c -0.048,0.07 -0.12,0.16 -0.192,0.21 l -0.024,0.03 0.192,-0.22 -0.024,0.02 0.024,-0.6 v 0 c 0.072,0.17 0.072,0.34 0.024,0.48 v 0.05 c 0,0.05 -0.024,0.1 -0.048,0.15 l -0.024,0.02 v 0 0.02 l 0.048,-0.14 -0.024,0.05 -0.024,-0.51 v 0.03 c 0.096,0.19 0.096,0.43 -0.024,0.65 v 0.02 l 0.048,-0.14 v 0.04 c -0.024,0.05 -0.048,0.1 -0.072,0.15 v 0.02 l 0.072,-0.53 v 0.05 c 0.024,0.07 0.024,0.15 0.024,0.22 v 0.05 l -0.024,-0.22 v 0.02 0 l 0.024,0.05 -0.072,-0.17 h 0.024 c 0.024,0.08 0.048,0.12 0.048,0.2 v 0.02 l 0.024,0.1 v 0.07 -0.03 l 0.024,0.15 v 0 0.12 0 l 0.024,0.12 -0.024,-0.12 0.096,0.36 -0.024,-0.07 0.096,0.26 v -0.02 l 0.096,0.24 v 0 l 0.288,0.74 -0.096,-0.17 0.072,0.1 0.048,0.07 0.072,0.12 -0.048,-0.07 0.072,0.12 -0.096,-0.12 0.096,0.12 c 0.024,0.02 0.048,0.05 0.072,0.09 l 0.072,0.1 -0.072,-0.1 0.072,0.1 v 0 l 0.096,0.1 -0.168,-0.15 0.12,0.1 0.048,0.02 0.24,0.22 -0.048,-0.03 0.096,0.08 -0.096,-0.08 0.096,0.05 v 0 l 0.096,0.07 c 0.048,0.03 0.096,0.05 0.12,0.08 l 0.096,0.07 -0.168,-0.1 0.12,0.05 -0.072,-0.02 0.096,0.04 0.072,0.03 0.144,0.07 -0.144,-0.07 0.12,0.05 0.072,0.02 0.096,0.05 -0.216,-0.07 0.144,0.02 c 0.072,0 0.144,0.02 0.216,0.05 l 0.096,0.05 -0.216,-0.05 h 0.144 -0.144 0.12 c 0.048,0 0.072,0 0.144,0 l 0.144,0.02 h -0.144 0.096 c 0.048,0 0.096,0 0.144,0 l 0.144,0.03 h -0.312 l 0.12,-0.03 c 0.072,0 0.12,0 0.168,0 h 0.12 -0.168 l 0.144,-0.02 v 0 h 0.12 v 0 l 0.12,-0.03 -0.144,0.03 0.12,-0.03 c 0.048,-0.02 0.096,-0.04 0.144,-0.04 l 0.12,-0.03 -0.216,0.07 0.288,-0.12 0.048,-0.02 0.168,-0.07 -0.096,0.05 0.168,-0.08 0.096,-0.04 0.168,-0.08 -0.24,0.12 0.144,-0.09 0.096,-0.05 0.144,-0.1 -0.144,0.12 0.12,-0.12 c 0.024,-0.02 0.072,-0.04 0.096,-0.07 l 0.168,-0.12 -0.168,0.15 0.24,-0.24 0.072,-0.08 0.24,-0.19 -0.144,0.15 0.192,-0.22 v 0 l 0.168,-0.24 v 0 l 0.192,-0.22 -0.072,0.1 0.384,-0.62 v 0.02 l 0.072,-0.1 h -0.024 l 0.096,-0.14 -0.072,0.14 0.048,-0.12 -0.024,0.1 0.024,-0.14 c 0.024,-0.05 0.048,-0.12 0.072,-0.17 l 0.072,-0.12 -0.096,0.29 0.024,-0.15 0.024,-0.07 0.024,-0.17 -0.024,0.12 0.048,-0.29 v -0.07 l 0.024,-0.09 0.024,-0.03 0.024,-0.19 c 0.12,-0.53 0.648,-0.86 1.176,-0.77 0.528,0.12 0.864,0.63 0.768,1.15 l -0.024,0.2 -0.024,0.02 v 0.1 -0.05 l -0.048,0.29 -0.024,0.09 -0.024,0.17 v -0.07 0.12 c -0.024,0.09 -0.048,0.19 -0.096,0.29 l -0.072,0.12 0.072,-0.17 -0.048,0.14 -0.024,0.1 -0.048,0.09 c 0,0.05 -0.024,0.1 -0.048,0.12 l -0.096,0.15 v 0.02 l -0.072,0.12 v 0.03 l -0.408,0.6 c 0,0.04 -0.024,0.07 -0.072,0.09 l -0.168,0.24 v 0 l -0.192,0.22 v 0 l -0.192,0.24 c -0.048,0.05 -0.096,0.09 -0.144,0.14 l -0.216,0.19 0.072,-0.07 -0.24,0.24 c -0.072,0.05 -0.12,0.1 -0.192,0.15 l -0.168,0.09 0.12,-0.07 -0.12,0.1 c -0.048,0.04 -0.096,0.07 -0.144,0.09 l -0.144,0.1 0.072,-0.05 -0.144,0.1 c -0.072,0.04 -0.144,0.09 -0.216,0.12 l -0.168,0.07 0.096,-0.05 -0.168,0.07 -0.096,0.05 -0.168,0.05 h 0.048 l -0.288,0.12 c -0.072,0.02 -0.168,0.05 -0.24,0.07 l -0.12,0.02 0.144,-0.04 -0.12,0.04 c -0.048,0.03 -0.096,0.03 -0.168,0.03 l -0.12,0.02 v 0 l -0.12,0.03 v 0 l -0.12,0.02 c -0.048,0 -0.12,0 -0.168,0 h -0.12 0.168 l -0.12,0.02 c -0.12,0 -0.216,0 -0.312,0 L 82.728,723 h 0.144 -0.096 c -0.048,0 -0.096,0 -0.144,0 l -0.144,-0.02 h 0.144 -0.12 c -0.048,0 -0.096,0 -0.12,0 l -0.168,-0.03 c -0.072,-0.02 -0.144,-0.02 -0.216,-0.07 l -0.096,-0.05 0.216,0.07 -0.144,-0.02 c -0.072,0 -0.144,-0.02 -0.216,-0.07 l -0.12,-0.03 0.072,0.03 -0.144,-0.05 c -0.024,-0.02 -0.072,-0.05 -0.12,-0.05 l -0.12,-0.07 0.072,0.05 -0.096,-0.05 -0.072,-0.05 -0.12,-0.05 C 81.048,722.5 81,722.47 80.952,722.42 l -0.12,-0.09 0.12,0.09 -0.12,-0.07 v 0 l -0.096,-0.07 c -0.024,-0.02 -0.072,-0.05 -0.12,-0.07 l -0.096,-0.07 -0.048,-0.05 -0.216,-0.22 0.024,0.05 -0.096,-0.1 c -0.048,-0.04 -0.096,-0.09 -0.144,-0.14 l -0.072,-0.12 v 0 l -0.072,-0.1 c -0.048,-0.04 -0.072,-0.07 -0.096,-0.12 l -0.048,-0.09 0.072,0.12 -0.072,-0.12 c -0.024,-0.03 -0.072,-0.07 -0.072,-0.12 l -0.072,-0.1 -0.024,-0.05 -0.048,-0.14 0.024,0.07 -0.072,-0.12 c -0.024,-0.05 -0.048,-0.09 -0.072,-0.14 l -0.24,-0.75 -0.024,-0.07 -0.072,-0.26 v 0 l -0.072,-0.27 v -0.07 l -0.072,-0.36 c 0,-0.09 0,-0.17 0,-0.26 v -0.12 0 l 0.024,-0.12 v 0 l 0.024,-0.15 v 0.03 -0.07 l 0.024,-0.1 v -0.02 c 0.024,-0.08 0.024,-0.12 0.048,-0.2 v 0 l -0.048,0.17 0.024,-0.05 v 0 -0.02 c 0.024,-0.17 0.12,-0.34 0.24,-0.43 l 0.024,-0.03 -0.24,0.41 0.024,-0.05 c 0.048,-0.21 0.192,-0.4 0.384,-0.5 l 0.024,-0.02 -0.24,0.21 0.024,-0.05 c 0.072,-0.07 0.144,-0.14 0.24,-0.19 l 0.024,-0.02 -0.312,0.36 v -0.03 c 0.024,-0.04 0.048,-0.09 0.072,-0.14 l 0.024,-0.02 c 0.072,-0.1 0.168,-0.17 0.24,-0.2 l 0.024,-0.02 v 0 l 0.024,-0.02 -0.216,0.19 0.024,-0.03 -0.072,0.12 v 0 c 0.072,-0.14 0.168,-0.26 0.312,-0.33 h 0.024 c 0.024,-0.03 0.072,-0.05 0.12,-0.05 l 0.048,-0.02 -0.144,0.04 h 0.048 c 0.144,-0.09 0.36,-0.09 0.528,-0.02 l 0.168,0.05 c 0.216,0.09 0.384,0.31 0.384,0.55 0,0.24 -0.168,0.46 -0.384,0.55 z"
         style="fill:#000000;fill-opacity:1;fill-rule:nonzero;stroke:none"
         transform="matrix(1.3333333,0,0,-1.3333333,0,1120.8)" />
    </g>
    <g
       id="g35"
       transform="matrix(10.149766,0,0,10.149766,-982.30428,-1485.8599)">
      <path
         id="path35"
         d="m 74.496,711.96 h -0.024 c -0.288,0.07 -0.6,-0.07 -0.696,-0.36 -0.096,-0.31 0.048,-0.62 0.336,-0.72 0.288,-0.12 0.6,0.02 0.72,0.29 v 0.05 c 0.12,0.26 0.048,0.55 -0.192,0.72 l -0.024,0.02 0.216,-0.74 0.024,0.02 c 0.024,0.05 0.024,0.12 0.048,0.17 v 0.02 l -0.072,-0.21 0.072,0.12 -0.072,-0.1 0.264,0.36 v 0 l 0.072,0.12 c 0.096,0.1 0.144,0.24 0.144,0.38 v 0.03 l -0.216,-0.46 0.048,0.05 v 0 l 0.048,0.02 v 0 l 0.048,0.05 v 0 l 0.024,0.05 c 0.048,0.05 0.096,0.1 0.144,0.17 l 0.024,0.05 -0.24,-0.27 0.072,0.05 0.048,0.05 0.12,0.09 -0.216,-0.12 0.072,0.03 c 0.072,0.02 0.12,0.05 0.192,0.09 l 0.072,0.08 -0.192,-0.12 0.072,0.02 0.096,0.05 0.072,0.02 v 0 l 0.072,0.05 -0.288,-0.07 h 0.072 c 0.12,0 0.216,0.02 0.312,0.07 l 0.072,0.05 -0.168,-0.07 0.24,0.04 h -0.048 0.216 v 0 l 0.192,0.03 H 76.2 76.416 76.344 l 0.216,-0.03 h 0.024 l 0.552,-0.02 h -0.12 l 0.168,-0.02 v 0 l 0.168,-0.05 -0.072,0.02 0.168,-0.07 -0.048,0.02 0.144,-0.07 h 0.048 l 0.144,-0.07 -0.096,0.05 0.144,-0.07 0.048,-0.03 0.168,-0.07 -0.096,0.02 0.408,-0.26 h 0.024 l 0.168,-0.12 0.048,-0.02 0.168,-0.1 -0.048,0.05 0.144,-0.12 h 0.048 l 0.168,-0.12 c 0.048,-0.03 0.072,-0.03 0.12,-0.05 l 0.192,-0.05 h -0.048 l 0.432,-0.17 0.048,-0.02 0.216,-0.05 0.024,-0.02 0.192,-0.05 h 0.024 l 0.192,-0.02 c 0.048,-0.03 0.096,-0.03 0.144,-0.03 h 0.192 l -0.144,0.03 0.216,-0.05 c 0.024,-0.03 0.072,-0.03 0.12,-0.03 h 0.216 v 0 h 0.192 v 0 h 0.216 0.072 l 0.408,0.05 0.096,0.03 0.264,0.04 h -0.048 l 0.312,0.05 0.072,0.03 0.624,0.14 0.072,0.02 0.888,0.36 v 0 l 0.744,0.32 -0.144,-0.05 0.12,0.02 h 0.024 l 0.072,0.03 0.096,0.02 0.12,0.05 -0.288,-0.05 h 0.072 0.024 0.096 v 0 h 0.072 c 0.048,0 0.096,0 0.144,0 l 0.12,0.02 -0.336,0.03 0.072,-0.03 c 0.072,-0.02 0.12,-0.02 0.192,-0.02 h 0.072 v 0 h 0.12 v 0 H 85.8 85.608 l 0.216,-0.05 -0.024,0.03 0.288,-0.12 v 0 l 0.84,-0.32 -0.288,0.2 0.024,-0.03 c 0.096,-0.09 0.192,-0.14 0.288,-0.19 L 87.336,711 h -0.024 l 0.36,-0.14 0.096,-0.03 0.864,-0.19 v 0 l 0.432,-0.1 h -0.048 l 0.12,-0.02 c 0.072,-0.02 0.168,-0.05 0.264,-0.05 h 0.12 -0.144 0.12 v 0 l 0.144,-0.02 v -0.03 h 0.144 l 0.12,-0.02 H 90 v 0 h 0.144 c 0.048,0 0.096,0 0.144,0.02 l 0.12,0.03 -0.024,-0.03 0.336,0.05 h 0.048 l 1.056,0.19 h -0.072 l 0.264,0.03 v 0 l 0.264,0.02 h -0.072 0.24 v 0 h 0.264 -0.072 l 0.552,-0.07 h 0.096 0.12 -0.096 0.168 c 0.432,-0.07 0.816,0.24 0.888,0.7 0.048,0.43 -0.264,0.81 -0.696,0.88 l -0.168,0.03 h -0.096 -0.12 0.072 l -0.552,0.07 h -0.096 -0.264 v 0 h -0.24 -0.072 l -0.24,-0.02 v 0 l -0.264,-0.03 h -0.096 l -1.032,-0.19 h 0.024 l -0.336,-0.02 -0.048,-0.03 -0.12,-0.02 0.12,0.02 H 90 v 0 h -0.096 0.12 -0.144 0.024 l -0.12,0.03 v 0 l -0.144,0.02 c -0.048,0 -0.096,0 -0.12,0 H 89.4 l 0.24,-0.02 -0.12,0.02 -0.096,0.02 -0.456,0.12 v 0 l -0.864,0.17 0.096,-0.02 -0.36,0.12 v 0 l -0.384,0.12 0.312,-0.19 -0.024,0.02 c -0.072,0.07 -0.168,0.14 -0.264,0.17 l -0.864,0.31 -0.024,0.02 -0.312,0.1 h -0.048 l -0.216,0.05 c -0.072,0.02 -0.144,0.05 -0.216,0.05 l -0.072,-0.03 v 0 h -0.12 v 0 h -0.072 l 0.192,-0.02 -0.096,0.02 c -0.096,0.03 -0.216,0.03 -0.336,0 l -0.096,-0.02 0.144,0.02 h -0.072 v 0 H 85.176 85.152 85.08 c -0.096,0 -0.192,-0.02 -0.264,-0.05 l -0.12,-0.04 0.096,0.02 -0.072,-0.02 0.024,0.02 -0.096,-0.02 c -0.048,-0.03 -0.12,-0.05 -0.168,-0.08 l -0.72,-0.33 v 0 l -0.864,-0.39 0.12,0.03 -0.624,-0.17 h 0.048 l -0.336,-0.05 -0.048,-0.02 -0.24,-0.05 h 0.12 l -0.432,-0.02 h 0.072 -0.216 v 0 h -0.192 v 0 h -0.216 l 0.144,-0.03 -0.216,0.05 c -0.024,0 -0.072,0 -0.12,0 h -0.192 0.144 l -0.216,0.02 v 0 l -0.168,0.05 0.048,-0.02 -0.216,0.07 0.072,-0.02 -0.432,0.16 -0.024,0.03 -0.192,0.05 0.12,-0.05 -0.192,0.09 h 0.024 l -0.144,0.1 -0.072,0.02 -0.168,0.1 0.072,-0.05 -0.168,0.12 0.024,-0.02 -0.384,0.26 -0.096,0.05 -0.168,0.1 0.024,-0.03 -0.12,0.07 -0.12,0.05 -0.144,0.07 0.024,-0.02 -0.144,0.07 h -0.024 l -0.192,0.07 -0.048,0.03 -0.168,0.05 v 0 l -0.168,0.02 -0.12,0.02 -0.552,0.05 v 0 h -0.192 l -0.072,0.03 H 76.2 l -0.048,-0.03 h -0.216 v 0 l -0.216,-0.02 -0.048,-0.03 -0.24,-0.02 c -0.072,-0.02 -0.12,-0.05 -0.192,-0.07 l -0.072,-0.05 0.288,0.07 h -0.072 c -0.096,0 -0.216,-0.02 -0.312,-0.07 L 75,713.26 v 0 l -0.072,-0.05 0.072,0.02 -0.048,-0.02 c -0.072,-0.03 -0.144,-0.05 -0.192,-0.1 l -0.096,-0.05 0.192,0.1 -0.048,-0.02 c -0.096,-0.03 -0.168,-0.08 -0.216,-0.12 l -0.12,-0.1 0.048,0.02 -0.072,-0.02 c -0.096,-0.07 -0.168,-0.17 -0.216,-0.26 l -0.024,-0.05 0.12,0.17 -0.048,-0.05 v 0 l -0.024,-0.03 v 0 l -0.048,-0.04 v 0 l -0.048,-0.05 c -0.12,-0.12 -0.192,-0.29 -0.192,-0.48 l 0.024,-0.03 0.072,0.36 -0.072,-0.14 0.024,0.05 -0.24,-0.36 c -0.072,-0.1 -0.096,-0.19 -0.12,-0.31 l -0.024,-0.15 v -0.12 l 0.024,-0.02 c 0,-0.05 0,-0.12 0.048,-0.17 v -0.02 c 0.072,-0.2 0.216,-0.32 0.384,-0.36 0.192,-0.05 0.384,-0.03 0.528,0.07 l 0.024,0.02 -0.48,-0.09 h 0.024 c 0.096,-0.03 0.192,-0.03 0.288,0 h 0.024 c 0.24,0.07 0.408,0.28 0.408,0.55 0,0.24 -0.168,0.45 -0.408,0.55 z"
         style="fill:#000000;fill-opacity:1;fill-rule:nonzero;stroke:none"
         transform="matrix(1.3333333,0,0,-1.3333333,0,1120.8)" />
    </g>
    <g
       id="g36"
       transform="matrix(9.6562954,3.1262931,-3.1262931,9.6562954,-404.21539,-1711.1889)">
      <path
         id="path36"
         d="m 73.584,713.64 0.528,-0.46 -0.024,0.03 0.312,-0.27 0.072,-0.04 0.12,-0.1 -0.216,0.26 0.024,-0.09 c 0.168,-0.31 0.552,-0.46 0.888,-0.29 0.312,0.17 0.456,0.55 0.288,0.86 l -0.048,0.1 c -0.048,0.1 -0.12,0.19 -0.216,0.26 l -0.12,0.08 0.048,-0.05 -0.288,0.26 -0.048,0.03 -0.552,0.4 c -0.288,0.2 -0.672,0.15 -0.864,-0.12 -0.216,-0.28 -0.168,-0.67 0.096,-0.86 z"
         style="fill:#000000;fill-opacity:1;fill-rule:nonzero;stroke:none"
         transform="matrix(1.3333333,0,0,-1.3333333,0,1120.8)" />
    </g>
    <g
       id="g37"
       transform="matrix(10.149766,0,0,10.149766,-982.30428,-1485.8599)">
      <path
         id="path37"
         d="m 77.592,714.43 v 0.07 c -0.048,0.27 -0.24,0.46 -0.504,0.48 -0.264,0.05 -0.504,-0.09 -0.6,-0.33 l -0.168,-0.41 0.096,0.14 -0.072,-0.07 c -0.048,-0.05 -0.072,-0.12 -0.096,-0.19 l -0.048,-0.1 0.072,0.12 -0.048,-0.07 c -0.048,-0.05 -0.072,-0.09 -0.072,-0.17 l -0.072,-0.26 0.024,0.05 -0.072,-0.19 c -0.024,-0.08 -0.024,-0.12 -0.024,-0.2 l -0.024,-0.02 c 0,-0.24 0.12,-0.46 0.312,-0.58 0.216,-0.12 0.456,-0.12 0.648,0 0.216,0.12 0.312,0.34 0.312,0.58 v 0.02 l -0.024,-0.16 0.048,0.19 0.024,0.05 0.048,0.26 -0.024,-0.12 0.024,0.1 c 0.024,0.02 0.024,0.07 0.048,0.12 v 0.07 l -0.096,-0.22 0.072,0.07 c 0.024,0.08 0.048,0.12 0.072,0.17 l 0.12,0.43 -0.144,-0.24 0.048,0.03 c 0.096,0.09 0.144,0.24 0.12,0.38 z"
         style="fill:#000000;fill-opacity:1;fill-rule:nonzero;stroke:none"
         transform="matrix(1.3333333,0,0,-1.3333333,0,1120.8)" />
    </g>
  </g>
</svg>
