<?xml version="1.0" encoding="UTF-8" standalone="no"?>
<!-- Created with Inkscape (http://www.inkscape.org/) -->

<svg
   version="1.1"
   id="svg1"
   width="300"
   height="300"
   viewBox="0 0 300 299.99999"
   sodipodi:docname="lesson1.pdf"
   xmlns:inkscape="http://www.inkscape.org/namespaces/inkscape"
   xmlns:sodipodi="http://sodipodi.sourceforge.net/DTD/sodipodi-0.dtd"
   xmlns="http://www.w3.org/2000/svg"
   xmlns:svg="http://www.w3.org/2000/svg">
  <defs
     id="defs1" />
  <sodipodi:namedview
     id="namedview1"
     pagecolor="#ffffff"
     bordercolor="#000000"
     borderopacity="0.25"
     inkscape:showpageshadow="2"
     inkscape:pageopacity="0.0"
     inkscape:pagecheckerboard="0"
     inkscape:deskcolor="#d1d1d1">
    <inkscape:page
       x="0"
       y="0"
       inkscape:label="1"
       id="page1"
       width="300"
       height="300"
       margin="0"
       bleed="0" />
  </sodipodi:namedview>
  <g
     id="g1"
     inkscape:groupmode="layer"
     inkscape:label="1">
    <g
       id="g3"
       transform="matrix(8.5547281,0,0,8.5547281,-1144.139,-613.83379)"
       style="fill:#1a1a1a">
      <path
         id="path3"
         d="m 112.85,767.83 -0.36,0.12 -0.12,0.03 -0.05,0.02 0.43,-0.29 -0.02,0.03 c -0.05,0.09 -0.15,0.19 -0.27,0.24 l -0.04,0.02 0.26,-0.24 -0.02,0.02 c -0.05,0.1 -0.15,0.2 -0.27,0.24 l -0.05,0.03 c -0.04,0.02 -0.09,0.05 -0.14,0.05 l -0.05,0.02 v 0 h -0.05 -0.02 l -0.07,0.02 0.17,-0.04 h -0.03 c -0.07,0.02 -0.14,0.04 -0.21,0.04 l -0.17,0.03 0.09,-0.03 -0.24,0.05 0.08,-0.02 -0.32,0.09 c -0.02,0.03 -0.07,0.03 -0.12,0.03 l -0.28,0.05 h -0.08 l -0.86,0.04 v 0 l -0.43,0.03 h -0.03 -0.74 -0.07 l -0.51,-0.03 h -0.04 l -0.82,-0.09 v 0 l -0.31,-0.05 h -0.07 l -0.2,-0.05 0.1,0.03 -0.19,-0.03 c -0.05,0 -0.07,0 -0.12,-0.02 l -0.41,-0.1 -0.1,-0.02 -0.33,-0.12 v 0 l -0.51,-0.17 c -0.04,-0.02 -0.12,-0.05 -0.16,-0.1 l -0.46,-0.28 c -0.02,-0.03 -0.07,-0.05 -0.12,-0.08 l -0.26,-0.24 0.04,0.05 -0.31,-0.24 0.05,0.03 -0.22,-0.15 0.56,0.15 h -0.03 c -0.24,0.02 -0.48,-0.08 -0.67,-0.24 l -0.02,-0.03 v 0 -0.02 0.02 -0.02 l 0.62,0.24 h -0.02 c -0.51,0.02 -0.92,-0.36 -0.94,-0.87 v -0.02 l 0.29,0.62 -0.03,-0.02 v 0 l -0.02,-0.02 v 0 l -0.02,-0.03 c -0.17,-0.14 -0.27,-0.38 -0.29,-0.62 v 0 l 0.09,0.38 v -0.05 0 l -0.02,-0.04 c -0.07,-0.12 -0.12,-0.27 -0.12,-0.41 v -0.03 l 0.31,0.65 -0.02,-0.02 c -0.12,-0.1 -0.19,-0.24 -0.27,-0.36 v -0.07 c -0.04,-0.08 -0.04,-0.17 -0.04,-0.27 v -0.02 l 0.09,0.38 -0.02,-0.02 c -0.07,-0.12 -0.1,-0.27 -0.1,-0.41 l -0.02,-0.05 v 0 -0.05 0 -0.02 -0.02 -0.1 c 0,-0.07 0.02,-0.12 0.02,-0.19 l 0.03,-0.19 c 0.04,-0.2 0.14,-0.36 0.26,-0.48 l 0.02,-0.03 -0.16,0.24 0.02,-0.05 -0.1,0.44 v -0.03 c -0.02,-0.26 0.08,-0.5 0.27,-0.67 l 0.02,-0.02 v 0 l 0.03,-0.03 -0.2,0.24 0.03,-0.02 c 0.05,-0.1 0.12,-0.17 0.17,-0.24 l 0.02,-0.03 c 0.17,-0.16 0.41,-0.26 0.65,-0.26 h 0.02 l -0.81,0.5 0.02,-0.04 c 0.1,-0.17 0.24,-0.32 0.41,-0.41 l 0.05,-0.03 -0.51,0.84 v -0.02 c -0.02,-0.24 0.07,-0.48 0.27,-0.65 0.16,-0.19 0.38,-0.29 0.64,-0.29 h 0.05 l -0.67,0.27 h 0.02 v 0 l 0.03,-0.03 v 0 l 0.02,-0.02 c 0.12,-0.12 0.27,-0.19 0.43,-0.24 l 0.08,-0.02 -0.17,0.07 0.07,-0.05 0.07,-0.02 0.1,-0.05 c 0.05,-0.03 0.12,-0.03 0.17,-0.05 l 0.09,-0.02 -0.09,0.02 0.24,-0.07 c 0.07,-0.03 0.12,-0.03 0.19,-0.05 l 0.48,-0.07 v 0 l 0.5,-0.05 0.07,-0.02 0.51,-0.03 h 0.05 1.15 0.05 l 3.67,0.15 h -0.05 l 3.43,0.02 v 0 h 0.96 v 0 h 1.68 0.07 l 1.76,0.17 h -0.08 0.03 c 0.55,0 0.98,0.43 0.98,0.98 0,0.55 -0.43,0.99 -0.98,0.99 h -0.03 -0.09 l -1.75,-0.17 h 0.07 l -1.68,-0.03 h 0.02 -0.96 -0.02 l -3.41,-0.07 h -0.02 l -3.7,-0.14 h 0.05 -1.15 0.02 -0.5 0.09 l -0.5,0.07 v 0 l -0.51,0.05 0.2,-0.03 -0.27,0.08 -0.12,0.02 -0.09,0.02 0.16,-0.04 -0.12,0.04 0.08,-0.04 -0.08,0.04 c -0.07,0.03 -0.12,0.05 -0.19,0.08 l -0.09,0.02 0.43,-0.24 -0.03,0.02 v 0 l -0.02,0.03 v 0 h -0.02 c -0.17,0.17 -0.39,0.26 -0.63,0.26 h -0.05 l 0.92,-0.91 v 0.02 c 0,0.36 -0.2,0.68 -0.51,0.82 l -0.05,0.02 0.44,-0.4 -0.03,0.04 c -0.17,0.32 -0.48,0.51 -0.84,0.51 h -0.02 l 0.65,-0.27 v 0.03 l 0.16,-0.24 -0.02,0.02 c -0.05,0.1 -0.1,0.19 -0.17,0.24 l -0.02,0.03 v 0 l -0.03,0.02 0.29,-0.65 v 0.03 c 0,0.14 -0.05,0.28 -0.12,0.4 l -0.02,0.03 c -0.05,0.09 -0.1,0.19 -0.17,0.26 h -0.02 l 0.26,-0.45 -0.05,0.19 0.03,-0.17 v 0.1 0.02 0.02 0 0.05 0 0.05 l -0.1,-0.43 0.02,0.05 c 0.08,0.14 0.1,0.28 0.08,0.43 v 0.02 l -0.03,-0.31 0.03,0.05 -0.22,-0.34 h 0.02 c 0.17,0.19 0.24,0.43 0.24,0.67 v 0.03 l -0.09,-0.41 0.02,0.05 v 0 l 0.03,0.02 c 0.07,0.15 0.09,0.29 0.09,0.46 v 0 l -0.26,-0.65 h 0.02 v 0 l 0.03,0.02 v 0 l 0.02,0.03 c 0.17,0.19 0.26,0.43 0.24,0.67 v 0.02 c -0.02,0.51 -0.43,0.89 -0.94,0.87 -0.5,-0.03 -0.88,-0.46 -0.86,-0.94 0.02,-0.5 0.43,-0.89 0.94,-0.86 h 0.02 c 0.24,0 0.46,0.09 0.62,0.29 l 0.03,0.02 -0.03,-0.02 0.03,0.02 v 0 l 0.02,0.02 -0.6,-0.28 h 0.03 c 0.16,0.02 0.33,0.07 0.48,0.16 l 0.19,0.15 0.05,0.05 0.31,0.24 0.05,0.04 0.26,0.24 -0.1,-0.07 0.44,0.29 -0.2,-0.1 0.51,0.2 v 0 l 0.33,0.14 -0.09,-0.05 0.41,0.12 -0.1,-0.02 0.19,0.02 h 0.07 l 0.2,0.05 h -0.08 l 0.32,0.05 v 0 l 0.81,0.09 h -0.02 l 0.48,0.05 h -0.05 l 0.74,0.03 h 0.03 l 0.43,0.02 v 0 l 0.86,0.02 h 0.08 l 0.28,0.05 h -0.14 l 0.31,-0.02 h 0.07 0.24 0.03 0.17 c 0.07,0.02 0.14,0.02 0.21,0.05 l 0.03,0.02 -0.17,-0.05 h 0.07 0.02 l 0.05,0.03 v 0 h 0.05 -0.24 l 0.07,-0.03 -0.19,0.07 h 0.02 c 0.08,-0.04 0.12,-0.07 0.2,-0.07 h 0.04 l -0.16,0.05 0.02,-0.02 c 0.12,-0.05 0.24,-0.08 0.36,-0.05 h 0.05 v 0 l 0.38,0.05 c 0.24,0.02 0.41,0.21 0.43,0.43 0.03,0.21 -0.12,0.43 -0.33,0.5 z"
         style="fill:#1a1a1a;fill-opacity:1;fill-rule:nonzero;stroke:none"
         transform="matrix(1.3333333,0,0,-1.3333333,0,1120.8)" />
    </g>
    <g
       id="g4"
       transform="matrix(8.5547281,0,0,8.5547281,-1144.139,-613.83379)"
       style="fill:#1a1a1a">
      <path
         id="path4"
         d="m 108.1,767.66 0.02,0.24 -0.02,-0.07 0.02,0.07 c 0,0.12 0,0.24 -0.05,0.36 l -0.02,0.03 v -0.55 l 0.02,0.04 c 0.03,0.05 0.05,0.1 0.05,0.15 v 0.02 0 l 0.02,0.05 v 0 0.05 l -0.12,-0.27 0.03,0.05 v 0 l 0.02,0.03 c 0.07,0.07 0.12,0.16 0.15,0.26 v 0.05 0 l 0.02,0.02 -0.14,-0.26 0.02,0.02 -0.24,-0.19 0.02,0.02 c 0.15,0.05 0.27,0.17 0.34,0.32 l 0.02,0.04 -0.33,-0.31 h 0.02 c 0.1,0.05 0.19,0.12 0.27,0.22 l 0.02,0.02 -0.26,-0.19 H 108 c 0.12,0.07 0.24,0.17 0.31,0.29 l 0.05,0.07 -0.38,-0.31 0.04,0.02 c 0.1,0.03 0.17,0.07 0.22,0.12 l 0.05,0.05 -0.05,-0.05 h 0.02 v 0 l 0.03,0.03 -0.17,-0.08 h 0.02 c 0.17,0.05 0.32,0.17 0.41,0.32 l 0.03,0.02 -0.77,-0.34 h 0.05 c 0.19,-0.02 0.38,0.03 0.55,0.12 l 0.02,0.03 -0.26,-0.12 0.07,0.02 c 0.07,0 0.17,0.05 0.24,0.1 l 0.02,0.02 -0.16,-0.09 0.04,0.02 -0.38,-0.05 h 0.02 v 0 h 0.05 c 0.15,-0.02 0.29,0 0.43,0.05 l 0.1,0.05 -0.29,-0.07 0.72,0.04 h 0.07 l 0.41,0.05 h -0.12 0.1 v 0 h 0.09 v 0 h 0.08 -0.17 0.12 -0.05 l 0.07,-0.02 c 0.07,-0.03 0.15,-0.03 0.22,-0.03 h 0.07 l -0.22,0.03 0.24,-0.05 0.05,-0.02 0.39,-0.08 0.02,-0.02 0.74,-0.14 v 0 l 0.34,-0.08 h 0.07 l 0.75,-0.09 v 0 l 0.72,-0.07 h -0.03 l 0.29,-0.05 h 0.07 l 0.67,-0.05 H 114 l 0.26,-0.02 h -0.02 l 0.65,-0.08 h 0.02 l 0.27,-0.02 h -0.03 l 0.65,-0.07 h 0.05 l 0.89,-0.05 h 0.04 0.99 0.09 l 0.48,0.05 c 0.05,0.02 0.1,0.02 0.15,0.02 l 0.09,0.03 -0.21,-0.03 v 0 0 h 0.02 v 0 h 0.03 v 0 h 0.02 0.02 0.03 -0.03 0.03 l -0.65,0.24 h 0.02 c 0.17,-0.17 0.41,-0.26 0.65,-0.26 h 0.03 0.02 v 0 c 0.5,0.02 0.89,0.45 0.86,0.93 0,0.51 -0.43,0.89 -0.91,0.89 -0.5,-0.02 -0.89,-0.43 -0.89,-0.93 v 0 c 0,-0.51 0.41,-0.92 0.92,-0.89 h 0.02 l -0.65,0.24 0.03,-0.03 -0.27,0.65 v -0.02 c 0,-0.51 0.41,-0.91 0.91,-0.89 h 0.03 c 0.48,0 0.89,0.41 0.89,0.91 0,0.51 -0.41,0.89 -0.92,0.89 -0.5,0 -0.91,-0.41 -0.88,-0.91 v -0.03 -0.02 -0.02 c 0,-0.24 0.09,-0.46 0.26,-0.63 h 0.02 l -0.26,0.63 v -0.03 0 -0.02 0 -0.03 c 0,-0.12 0.02,-0.21 0.07,-0.33 l 0.07,-0.15 -0.04,0.1 0.07,-0.26 v 0.02 l 0.09,-0.29 v -0.05 l 0.08,-0.26 -0.03,0.14 0.1,-0.6 v -0.07 l 0.17,-0.81 v 0 l 0.02,-0.1 c 0,-0.07 0.02,-0.1 0.05,-0.14 l 0.12,-0.34 c 0,-0.05 0.02,-0.1 0.07,-0.14 l 0.05,-0.1 c 0.26,-0.43 0.81,-0.55 1.25,-0.31 0.43,0.26 0.55,0.81 0.28,1.25 l -0.04,0.09 0.07,-0.14 -0.12,0.31 0.02,-0.12 -0.02,0.1 v 0 l -0.17,0.81 0.02,-0.05 -0.09,0.6 c 0,0.05 0,0.1 -0.03,0.17 l -0.09,0.24 0.02,-0.02 -0.09,0.31 v 0.02 l -0.1,0.29 -0.02,0.07 -0.05,0.15 0.07,-0.39 v 0.03 0 0.02 0 0.03 c 0,0.24 -0.1,0.48 -0.26,0.64 l -0.03,0.03 0.27,-0.67 v 0.02 0.02 0.03 c 0,0.5 -0.41,0.91 -0.89,0.91 h -0.03 c -0.5,0 -0.91,-0.38 -0.91,-0.89 -0.02,-0.5 0.39,-0.91 0.89,-0.91 0.48,-0.02 0.89,0.38 0.91,0.89 v 0.02 c 0,0.24 -0.09,0.48 -0.26,0.65 l -0.03,0.02 c -0.16,0.17 -0.38,0.27 -0.62,0.27 h -0.02 c -0.51,0 -0.92,-0.41 -0.92,-0.89 0,-0.5 0.39,-0.91 0.89,-0.91 0.51,-0.03 0.91,0.38 0.91,0.89 v 0 c 0.03,0.5 -0.36,0.91 -0.86,0.93 v 0 h -0.02 -0.03 l 0.63,-0.29 -0.03,0.03 c -0.17,0.17 -0.38,0.26 -0.62,0.26 h -0.03 0.03 l -0.03,0.03 h -0.02 -0.02 v 0 h -0.03 v 0 h -0.02 v 0 0 c -0.07,0 -0.15,-0.03 -0.22,-0.03 l -0.09,-0.02 0.14,0.02 -0.5,-0.05 0.07,0.03 h -0.99 l 0.05,-0.03 -0.89,0.05 h 0.03 l -0.63,0.05 h -0.02 l -0.26,0.02 h 0.04 l -0.64,0.08 h -0.05 l -0.27,0.02 v 0 l -0.67,0.05 h 0.07 l -0.31,0.02 h -0.02 l -0.7,0.1 h -0.02 l -0.75,0.07 h 0.08 l -0.34,0.05 v 0 l -0.74,0.14 v 0 l -0.39,0.07 0.05,-0.02 -0.24,0.07 c -0.07,0.03 -0.14,0.03 -0.24,0.03 h -0.07 l 0.21,-0.03 -0.09,0.03 h -0.03 l -0.12,0.02 c -0.04,0 -0.12,0.02 -0.16,0.02 h -0.08 v 0 h -0.09 v 0 l -0.1,-0.02 c -0.05,0 -0.09,0 -0.14,0 l -0.41,-0.07 0.02,0.02 -0.69,-0.09 c -0.12,-0.03 -0.22,-0.05 -0.31,-0.12 l -0.08,-0.03 0.29,0.1 h -0.05 v 0 L 108,769.7 c -0.12,0 -0.24,-0.04 -0.36,-0.12 l -0.02,-0.02 c -0.1,-0.05 -0.17,-0.14 -0.24,-0.22 v -0.02 l 0.36,0.29 -0.08,-0.03 c -0.14,-0.07 -0.26,-0.16 -0.36,-0.28 v -0.03 l 0.56,0.34 h -0.05 c -0.29,-0.05 -0.55,-0.24 -0.65,-0.53 v -0.05 l 0.31,0.41 -0.05,-0.02 c -0.09,-0.08 -0.16,-0.15 -0.21,-0.22 l -0.03,-0.02 v 0 l -0.02,-0.03 0.07,0.05 -0.05,-0.05 0.17,0.17 -0.05,-0.02 c -0.12,-0.1 -0.24,-0.22 -0.28,-0.39 l -0.03,-0.07 0.03,0.05 -0.03,-0.03 c -0.02,-0.04 -0.02,-0.07 -0.05,-0.12 v -0.04 l 0.05,0.12 -0.02,-0.03 c -0.03,-0.05 -0.05,-0.12 -0.05,-0.19 l -0.02,-0.05 0.07,0.19 -0.03,-0.04 c -0.02,-0.03 -0.02,-0.08 -0.04,-0.12 v -0.05 c -0.03,-0.1 -0.03,-0.22 0,-0.34 v -0.02 0 -0.05 0.34 -0.05 0 -0.05 c -0.03,-0.1 -0.03,-0.22 0,-0.31 v -0.05 0 -0.05 0 l 0.02,-0.02 -0.02,0.26 v -0.07 c -0.05,-0.29 0.09,-0.55 0.36,-0.65 v -0.02 l -0.34,0.45 0.02,-0.07 c 0,-0.05 0.03,-0.09 0.05,-0.14 l 0.07,-0.22 c 0.12,-0.21 0.36,-0.33 0.6,-0.29 0.24,0.05 0.41,0.24 0.44,0.48 z"
         style="fill:#1a1a1a;fill-opacity:1;fill-rule:nonzero;stroke:none"
         transform="matrix(1.3333333,0,0,-1.3333333,0,1120.8)" />
    </g>
    <g
       id="g187"
       style="fill:#1a1a1a"
       transform="matrix(10.361284,0,0,10.361284,-3358.3502,-1962.9137)">
      <path
         id="path187"
         d="m 245.74,695.93 v 0.02 l -0.05,0.07 -0.03,0.03 c -0.07,0.07 -0.14,0.14 -0.24,0.17 v 0.02 l 0.27,-0.26 V 696 l 0.05,-0.12 -0.03,0.02 c -0.02,0.05 -0.02,0.1 -0.05,0.12 v 0.05 -0.02 l -0.02,0.02 0.02,-0.53 v 0 c 0.08,0.15 0.08,0.29 0.03,0.44 V 696 c 0,0.05 -0.03,0.1 -0.05,0.12 l -0.02,0.02 0.07,-0.12 -0.03,0.05 c 0,0.03 -0.02,0.07 -0.04,0.12 v 0 -0.55 h 0.02 c 0.02,0.05 0.02,0.1 0.05,0.14 v 0.03 l -0.05,-0.15 0.02,0.03 c 0.05,0.14 0.08,0.31 0.03,0.45 l -0.03,0.05 0.03,-0.33 v 0.04 c 0.02,0.15 0,0.32 -0.07,0.44 v 0.04 l 0.02,-0.62 v 0.02 c 0.02,0.05 0.02,0.08 0.05,0.15 v 0.02 l -0.05,-0.14 0.02,0.02 c 0,0.03 0.03,0.07 0.03,0.15 V 696 l -0.03,-0.14 v 0 l -0.09,-0.12 0.05,0.02 c 0.04,0.05 0.07,0.12 0.09,0.19 l 0.03,0.07 c 0,0.05 0.02,0.08 0.02,0.12 l 0.02,0.08 v 0 0.04 l -0.16,-0.38 0.04,0.05 c 0.03,0.05 0.08,0.09 0.08,0.14 l 0.04,0.05 v 0 0.05 0 l 0.03,0.05 -0.1,-0.17 0.03,0.05 0.04,0.04 0.03,0.03 c 0.02,0.02 0.05,0.07 0.07,0.12 l 0.02,0.05 -0.36,-0.36 0.05,0.02 c 0.12,0.07 0.22,0.14 0.29,0.22 l 0.02,0.04 -0.07,-0.07 0.1,0.12 v -0.02 l 0.07,0.07 -0.07,-0.05 0.12,0.07 -0.07,-0.04 0.09,0.07 c 0.05,0.02 0.1,0.05 0.12,0.09 l 0.1,0.08 -0.19,-0.12 0.12,0.07 -0.05,-0.03 0.12,0.05 0.09,0.05 0.08,0.07 -0.12,-0.09 0.12,0.04 v 0 l 0.12,0.08 -0.08,-0.03 0.1,0.03 h 0.02 l 0.15,0.04 h -0.07 l 0.24,0.05 -0.24,-0.02 h 0.07 c 0.07,0 0.12,0 0.17,0.02 h 0.07 -0.15 0.1 v 0 h 0.07 v 0 h 0.1 v 0 h 0.09 -0.14 l 0.1,-0.02 c 0.04,0 0.09,0 0.14,-0.03 h 0.07 l -0.14,0.03 0.09,-0.03 h -0.02 0.07 l -0.14,0.05 0.09,-0.05 c 0.05,0 0.08,-0.02 0.15,-0.04 h 0.07 l -0.26,0.09 0.09,-0.05 c 0.07,-0.04 0.17,-0.09 0.27,-0.12 h 0.12 l -0.39,0.17 0.07,-0.05 0.08,-0.07 0.21,-0.12 -0.02,0.03 0.14,-0.1 -0.07,0.05 0.14,-0.1 -0.04,0.03 0.12,-0.1 -0.08,0.05 0.12,-0.1 v 0 l 0.12,-0.12 v 0 l 0.1,-0.12 -0.12,0.15 0.1,-0.12 c 0,-0.03 0.04,-0.08 0.07,-0.1 l 0.09,-0.12 -0.04,0.05 0.09,-0.15 -0.07,0.15 0.07,-0.15 0.03,-0.04 0.09,-0.15 -0.05,0.07 0.08,-0.12 -0.03,0.03 0.07,-0.15 -0.02,0.05 0.14,-0.38 v 0.05 l 0.08,-0.34 v 0.02 l 0.12,-0.36 -0.03,0.05 0.07,-0.33 v 0.04 l 0.05,-0.38 v 0.02 l 0.07,-0.84 v 0 l 0.03,-0.43 0.02,-0.05 0.03,-0.43 v -0.05 l 0.21,-1.03 v -0.07 l 0.05,-0.17 v -0.02 l 0.07,-0.17 v -0.07 l 0.07,-0.17 0.03,-0.05 0.09,-0.17 v 0 l 0.17,-0.36 c 0.07,-0.14 0.17,-0.24 0.29,-0.31 l 0.05,-0.05 -0.12,0.1 0.02,-0.02 -0.07,0.09 0.05,-0.07 0.07,-0.1 0.02,-0.02 v 0 l 0.05,-0.05 v 0 l 0.05,-0.05 c 0.1,-0.07 0.19,-0.16 0.31,-0.19 h 0.07 l -0.43,0.31 0.03,-0.04 c 0.12,-0.17 0.28,-0.29 0.48,-0.36 h 0.07 l -0.27,0.12 0.05,-0.03 v 0 l 0.07,-0.05 c 0.05,-0.04 0.12,-0.07 0.2,-0.09 l 0.04,-0.03 -0.04,0.03 0.14,-0.07 -0.05,0.02 0.12,-0.05 c 0.07,-0.02 0.12,-0.05 0.17,-0.05 h 0.1 -0.08 l 0.12,-0.04 -0.04,0.02 0.09,-0.02 c 0.1,-0.05 0.19,-0.05 0.27,-0.05 h 0.09 -0.09 l 0.33,-0.03 c 0.03,0 0.1,0 0.15,0 l 0.38,0.03 v 0 l 0.36,0.05 h 0.07 l 0.39,0.04 v 0.03 l 0.36,0.05 0.09,0.02 0.79,0.22 v 0 l 1.25,0.33 -0.09,-0.02 0.21,0.02 h 0.07 l 0.22,0.07 -0.12,-0.02 0.26,0.02 h -0.07 0.6 -0.09 l 0.28,-0.04 h -0.04 l 0.33,-0.03 h -0.07 l 0.26,-0.07 v 0.02 l 0.29,-0.09 -0.07,0.02 0.82,-0.31 -0.03,0.02 0.22,-0.09 h -0.03 l 0.22,-0.1 -0.1,0.05 0.24,-0.14 v 0 l 0.22,-0.12 -0.1,0.04 0.22,-0.16 -0.05,0.04 0.55,-0.45 -0.04,0.05 0.12,-0.15 0.04,-0.02 0.12,-0.15 -0.02,0.05 0.14,-0.14 -0.02,0.02 0.12,-0.14 -0.02,0.05 0.12,-0.17 v 0 l 0.09,-0.12 -0.02,0.05 0.24,-0.39 -0.03,0.07 0.17,-0.31 -0.02,0.03 0.17,-0.32 -0.03,0.05 0.29,-0.62 -0.05,0.09 0.1,-0.33 v -0.03 l 0.09,-0.28 -0.02,0.07 0.07,-0.31 v 0 l 0.07,-0.32 v 0 l 0.05,-0.33 v 0.12 l 0.07,-0.84 v 0.09 l -0.09,-2.47 v 0.03 l -0.05,-1.2 v -0.05 l -0.1,-2.23 v 0 -0.32 c 0,-0.28 0.17,-0.57 0.44,-0.72 0.26,-0.16 0.57,-0.16 0.84,0 0.26,0.15 0.4,0.44 0.4,0.72 v 0.32 -0.05 l 0.08,2.25 v -0.02 l 0.04,1.2 v 0.02 l 0.1,2.48 v 0.07 l -0.07,0.84 -0.03,0.09 -0.04,0.34 v 0.02 l -0.08,0.29 v 0 l -0.07,0.31 v 0.08 l -0.12,0.31 v 0 l -0.07,0.33 -0.05,0.08 -0.29,0.64 -0.02,0.05 -0.17,0.31 v 0.03 l -0.17,0.29 -0.02,0.04 -0.24,0.39 -0.05,0.05 -0.12,0.16 v 0 l -0.09,0.12 -0.05,0.05 -0.15,0.15 -0.02,0.04 -0.14,0.15 -0.03,0.02 -0.17,0.15 0.05,-0.03 -0.12,0.12 -0.05,0.05 -0.55,0.46 -0.05,0.02 -0.19,0.14 -0.05,0.05 -0.21,0.15 v 0 l -0.22,0.12 -0.07,0.04 -0.24,0.1 v 0.02 l -0.24,0.08 -0.02,0.02 -0.82,0.31 -0.1,0.03 -0.31,0.09 v 0 l -0.29,0.07 h -0.07 l -0.31,0.05 h -0.02 l -0.32,0.03 -0.07,0.02 h -0.6 l -0.05,-0.02 h -0.24 c -0.04,0 -0.07,0 -0.12,-0.03 l -0.24,-0.05 0.05,0.03 -0.21,-0.05 -0.08,-0.02 -1.24,-0.29 -0.03,-0.03 -0.81,-0.21 0.07,0.02 -0.36,-0.07 h 0.02 l -0.41,-0.05 h 0.08 l -0.36,-0.05 v 0 l -0.39,-0.02 h 0.17 l -0.31,0.02 h -0.1 -0.09 l 0.26,-0.04 -0.1,0.04 h -0.04 l -0.1,0.05 -0.07,0.03 h -0.07 l 0.16,-0.05 -0.12,0.05 h -0.04 l -0.12,0.07 h -0.03 l -0.05,0.02 0.2,-0.09 -0.05,0.02 v 0 l -0.05,0.02 c -0.1,0.08 -0.17,0.12 -0.26,0.12 l -0.08,0.03 0.51,-0.34 -0.03,0.03 c -0.12,0.16 -0.26,0.28 -0.43,0.33 l -0.05,0.03 0.32,-0.2 -0.05,0.05 v 0 l -0.03,0.03 v 0 l -0.04,0.04 0.09,-0.09 -0.05,0.05 -0.07,0.09 -0.05,0.03 c -0.04,0.04 -0.07,0.09 -0.12,0.12 l -0.04,0.02 0.26,-0.31 -0.17,0.36 v 0 l -0.09,0.17 0.04,-0.08 -0.07,0.17 0.03,-0.07 -0.05,0.17 v -0.03 l -0.05,0.17 0.02,-0.07 -0.19,1.03 0.03,-0.05 -0.05,0.44 v -0.03 l -0.03,0.43 v 0.03 l -0.09,0.86 v 0.03 l -0.05,0.38 -0.02,0.05 -0.05,0.33 -0.03,0.08 -0.07,0.36 h -0.02 l -0.1,0.36 -0.02,0.04 -0.15,0.41 -0.02,0.03 -0.05,0.16 -0.02,0.03 -0.07,0.14 -0.03,0.07 -0.09,0.12 0.04,-0.07 -0.07,0.15 c -0.02,0.04 -0.05,0.07 -0.07,0.12 l -0.1,0.12 -0.04,0.04 -0.1,0.12 0.07,-0.09 -0.07,0.12 c -0.02,0.05 -0.07,0.09 -0.12,0.14 l -0.12,0.12 v 0 l -0.1,0.1 v 0 l -0.12,0.12 -0.04,0.05 -0.1,0.09 -0.05,0.03 -0.12,0.09 -0.07,0.05 -0.14,0.1 h -0.03 l -0.19,0.12 0.07,-0.05 -0.05,0.05 c -0.12,0.09 -0.24,0.12 -0.38,0.14 l -0.1,0.02 0.32,-0.12 -0.1,0.08 c -0.07,0.04 -0.17,0.07 -0.26,0.09 h -0.08 l 0.15,-0.02 -0.1,0.02 c -0.05,0.03 -0.09,0.03 -0.14,0.05 l -0.07,0.02 h -0.03 -0.09 c -0.08,0 -0.12,0.03 -0.15,0 h -0.07 0.14 l -0.09,0.03 c -0.05,0 -0.12,0 -0.15,0 h -0.09 v 0 h -0.1 v 0 h -0.07 v 0 h -0.1 c -0.04,0 -0.12,0 -0.16,-0.03 h -0.08 0.15 -0.07 c -0.08,0 -0.17,0 -0.22,-0.02 l -0.24,-0.07 -0.07,-0.03 -0.12,-0.04 h 0.02 l -0.09,-0.03 -0.08,-0.02 -0.09,-0.05 v 0 l -0.12,-0.05 c -0.05,-0.02 -0.1,-0.05 -0.15,-0.09 l -0.09,-0.05 0.09,0.05 -0.09,-0.05 -0.03,-0.03 -0.12,-0.07 c -0.07,-0.02 -0.12,-0.07 -0.16,-0.12 l -0.1,-0.09 0.12,0.12 -0.1,-0.08 -0.07,-0.04 -0.09,-0.1 -0.05,-0.05 -0.07,-0.09 -0.08,-0.05 -0.09,-0.12 c -0.05,-0.07 -0.12,-0.19 -0.12,-0.27 l -0.03,-0.04 0.27,0.38 -0.05,-0.02 c -0.14,-0.12 -0.24,-0.29 -0.26,-0.46 l -0.03,-0.05 0.03,0.07 v -0.04 l 0.04,0.14 -0.02,-0.05 c -0.05,-0.07 -0.07,-0.14 -0.07,-0.21 l -0.03,-0.05 v 0 -0.05 0 -0.05 l 0.08,0.19 -0.05,-0.04 c -0.07,-0.15 -0.1,-0.29 -0.07,-0.44 v -0.04 0 l 0.02,-0.08 v 0.22 l -0.02,-0.05 0.02,0.07 v -0.02 c -0.05,-0.17 -0.02,-0.34 0.02,-0.5 h 0.03 l -0.07,0.14 0.02,-0.02 c 0.02,-0.08 0.02,-0.12 0.05,-0.15 v -0.02 l -0.05,0.14 0.02,-0.02 c 0,-0.07 0,-0.1 0.03,-0.15 v -0.02 c 0.07,-0.14 0.17,-0.26 0.31,-0.31 l 0.02,-0.03 -0.33,0.48 v -0.04 c 0.02,-0.1 0.05,-0.2 0.12,-0.27 l 0.02,-0.02 -0.07,0.12 v -0.03 l -0.05,0.15 0.03,-0.03 c 0,-0.04 0,-0.09 0.02,-0.14 h 0.02 c 0.05,-0.14 0.15,-0.24 0.27,-0.31 h 0.02 l -0.21,0.17 0.04,-0.03 c 0.03,-0.07 0.12,-0.12 0.2,-0.17 l 0.02,-0.02 -0.22,0.19 0.03,-0.05 -0.07,0.12 v 0 c 0.07,-0.12 0.16,-0.24 0.28,-0.28 l 0.03,-0.03 h -0.03 0.03 l -0.19,0.15 0.02,-0.03 c 0.05,-0.05 0.12,-0.12 0.19,-0.17 h 0.03 c 0.16,-0.07 0.36,-0.07 0.52,0 v 0 l -0.57,0.05 0.02,-0.02 0.07,-0.05 h 0.03 c 0.21,-0.12 0.48,-0.07 0.67,0.1 0.17,0.16 0.22,0.45 0.1,0.67 z"
         style="fill:#1a1a1a;fill-opacity:1;fill-rule:nonzero;stroke:none"
         transform="matrix(1.3333333,0,0,-1.3333333,0,1120.8)" />
    </g>
  </g>
</svg>
