<?xml version="1.0" encoding="UTF-8" standalone="no"?>
<!-- Created with Inkscape (http://www.inkscape.org/) -->

<svg
   version="1.1"
   id="svg1"
   width="115"
   height="100.557"
   viewBox="0 0 115 100.55699"
   sodipodi:docname="lesson1_sentence2_word3.svg"
   inkscape:version="1.4.3 (0d15f75, 2025-12-25)"
   xmlns:inkscape="http://www.inkscape.org/namespaces/inkscape"
   xmlns:sodipodi="http://sodipodi.sourceforge.net/DTD/sodipodi-0.dtd"
   xmlns="http://www.w3.org/2000/svg"
   xmlns:svg="http://www.w3.org/2000/svg">
  <defs
     id="defs1">
    <clipPath
       clipPathUnits="userSpaceOnUse"
       id="clipPath39">
      <path
         d="M -7.4400002,6.2400027 H 141.41 V -21.839998 H -7.4400002 Z"
         clip-rule="evenodd"
         id="path39" />
    </clipPath>
    <clipPath
       clipPathUnits="userSpaceOnUse"
       id="clipPath68">
      <path
         d="M -7.4400002,5.4200001 H 105.86 V -18.964 H -7.4400002 Z"
         clip-rule="evenodd"
         id="path68" />
    </clipPath>
    <clipPath
       clipPathUnits="userSpaceOnUse"
       id="clipPath70">
      <path
         d="M -7.4400002,2.7600003 H 104.06 V -9.48 H -7.4400002 Z"
         clip-rule="evenodd"
         id="path70" />
    </clipPath>
    <clipPath
       clipPathUnits="userSpaceOnUse"
       id="clipPath72">
      <path
         d="M -7.4400002,2.7600003 H 42.000001 V -9.48 H -7.4400002 Z"
         clip-rule="evenodd"
         id="path72" />
    </clipPath>
    <clipPath
       clipPathUnits="userSpaceOnUse"
       id="clipPath74">
      <path
         d="M -7.4400002,2.1600001 H 46.080001 V -8.8800002 H -7.4400002 Z"
         clip-rule="evenodd"
         id="path74" />
    </clipPath>
    <clipPath
       clipPathUnits="userSpaceOnUse"
       id="clipPath76">
      <path
         d="M -226.27,2.1600001 H 369.10001 V -8.8800002 H -226.27 Z"
         clip-rule="evenodd"
         id="path76" />
    </clipPath>
    <clipPath
       clipPathUnits="userSpaceOnUse"
       id="clipPath78">
      <path
         d="M -38.540001,2.1600001 H 15.004 V -8.8800002 h -53.544001 z"
         clip-rule="evenodd"
         id="path78" />
    </clipPath>
  </defs>
  <sodipodi:namedview
     id="namedview1"
     pagecolor="#ffffff"
     bordercolor="#000000"
     borderopacity="0.25"
     inkscape:showpageshadow="2"
     inkscape:pageopacity="0.0"
     inkscape:pagecheckerboard="0"
     inkscape:deskcolor="#d1d1d1"
     inkscape:zoom="1.6613132"
     inkscape:cx="-2.4077339"
     inkscape:cy="63.503981"
     inkscape:window-width="1920"
     inkscape:window-height="1191"
     inkscape:window-x="-9"
     inkscape:window-y="-9"
     inkscape:window-maximized="1"
     inkscape:current-layer="g1">
    <inkscape:page
       x="0"
       y="0"
       inkscape:label="1"
       id="page1"
       width="115"
       height="100.55699"
       margin="0"
       bleed="0" />
  </sodipodi:namedview>
  <g
     id="g1"
     inkscape:groupmode="layer"
     inkscape:label="1"
     transform="translate(-337.32146,-390.30669)">
    <g
       id="g56"
       transform="translate(-254.9959,-0.05163773)">
      <path
         id="path56"
         d="m 452.06,540.38 0.17,0.12 c 0.87,0.68 1.27,1.76 1.01,2.81 -0.24,1.06 -1.1,1.87 -2.16,2.07 -1.06,0.19 -2.14,-0.27 -2.74,-1.16 l -0.16,-0.24 c -0.32,-0.45 -0.48,-1 -0.51,-1.58 l -0.02,-1.13 0.02,-0.26 0.07,-1.25 v 0 l 0.17,-2.74 v -0.04 l 0.27,-3.39 v 0.03 l 0.04,-0.51 0.03,-0.26 0.38,-2.67 0.03,-0.12 0.33,-1.82 -0.02,0.02 0.09,-0.45 0.03,-0.15 0.24,-1.15 -0.07,0.79 v -0.12 c -0.03,-1.27 0.64,-2.44 1.75,-3.09 1.1,-0.63 2.45,-0.63 3.55,0 1.1,0.65 1.75,1.82 1.75,3.09 v 0.12 c 0,0.32 -0.05,0.6 -0.12,0.92 l -0.33,1.12 0.04,-0.14 -0.12,0.46 h 0.03 l -0.43,1.8 0.02,-0.1 -0.53,2.64 0.03,-0.29 -0.05,0.51 -0.03,0.09 -0.48,3.39 v 0 l -0.36,2.71 -0.04,0.26 -0.29,1.23 0.02,-0.12 -0.21,1.1 c -0.08,0.41 -0.24,0.79 -0.46,1.1 l -0.17,0.24 c -0.65,0.96 -1.82,1.4 -2.95,1.11 -1.1,-0.31 -1.92,-1.27 -2.02,-2.43 -0.07,-1.15 0.56,-2.23 1.64,-2.71 l 0.16,-0.09 c 0.8,-0.34 1.73,-0.24 2.4,0.28 z"
         style="fill:#000000;fill-opacity:1;fill-rule:nonzero;stroke:none"
         transform="matrix(1.3333333,0,0,-1.3333333,0,1120.8)" />
    </g>
    <g
       id="g57"
       transform="translate(-254.9959,-0.05163773)">
      <path
         id="path57"
         d="m 449.54,540.98 0.44,-0.24 c 0.36,-0.24 0.76,-0.38 1.17,-0.43 l 4.85,-0.67 0.22,-0.02 6.64,-0.48 h 0.12 l 1.06,-0.05 -0.24,0.02 2.47,-0.26 -0.6,0.09 0.84,-0.21 c 0.31,-0.1 0.65,-0.15 0.99,-0.15 h 0.21 c 2.04,0 3.65,1.64 3.65,3.65 0,2.02 -1.61,3.65 -3.65,3.65 h -0.21 l 0.91,-0.12 -0.84,0.22 c -0.22,0.04 -0.41,0.09 -0.65,0.12 l -2.45,0.16 -0.43,0.03 -1.06,-0.05 h 0.17 l -6.65,0.1 h -0.04 -4.88 l -0.38,-0.03 -0.48,-0.05 c -1.22,-0.14 -2.18,-1.03 -2.45,-2.23 -0.26,-1.17 0.24,-2.4 1.27,-3.05 z"
         style="fill:#000000;fill-opacity:1;fill-rule:nonzero;stroke:none"
         transform="matrix(1.3333333,0,0,-1.3333333,0,1120.8)" />
    </g>
    <g
       id="g58"
       transform="translate(-254.9959,-0.05163773)">
      <path
         id="path58"
         d="m 452.9,523.34 0.65,0.08 -0.26,-0.03 4.34,0.07 h -0.12 l 1.75,-0.04 -0.26,0.02 0.96,-0.1 c 0.17,-0.02 0.36,-0.02 0.55,0 l 2.35,0.12 h 0.15 l 0.67,0.05 -0.34,-0.02 h 0.72 -0.16 l 1.39,-0.03 h -0.17 l 0.6,-0.04 c 0.6,-0.05 1.18,0.02 1.73,0.24 l 0.24,0.09 c 0.19,0.07 0.38,0.19 0.57,0.29 l 0.1,0.05 c 1.18,0.72 1.87,2.01 1.85,3.36 -0.03,1.39 -0.79,2.64 -1.99,3.29 -1.23,0.67 -2.67,0.62 -3.84,-0.08 l -0.1,-0.07 0.07,0.03 -0.24,-0.12 1.61,0.5 -0.6,-0.05 0.17,0.03 -1.39,-0.08 c -0.15,0 -0.29,0 -0.44,-0.04 l -0.69,-0.1 -0.34,-0.07 -0.65,-0.17 0.41,0.07 -2.35,-0.33 0.12,0.02 -0.96,-0.1 -0.17,-0.02 -1.75,-0.26 -0.22,-0.05 -4.22,-0.94 c -0.31,-0.07 -0.6,-0.19 -0.86,-0.36 l -0.58,-0.36 c -1.06,-0.65 -1.49,-1.94 -1.1,-3.09 0.4,-1.16 1.56,-1.9 2.8,-1.76 z"
         style="fill:#000000;fill-opacity:1;fill-rule:nonzero;stroke:none"
         transform="matrix(1.3333333,0,0,-1.3333333,0,1120.8)" />
    </g>
    <g
       id="g59"
       transform="translate(-254.9959,-0.05163773)">
      <path
         id="path59"
         d="m 465.07,542.11 -0.14,-4.51 v -0.14 l 0.07,-4.64 v -0.02 l 0.14,-8.86 v -0.09 l 0.12,-2.93 v -0.07 l 0.77,-12.58 v -0.05 l 0.55,-7.17 V 501 l 0.82,-9.38 v 0.09 l 0.46,-7.56 v 0.24 l -0.03,-5.13 v 0.12 l -0.05,-1.23 c -0.04,-1.37 0.65,-2.64 1.83,-3.36 1.15,-0.67 2.61,-0.67 3.79,0 1.15,0.72 1.85,1.99 1.8,3.36 l -0.05,1.23 v -0.12 l -0.02,5.13 v 0.22 l -0.46,7.56 -0.02,0.09 -0.84,9.39 v -0.05 l -0.58,7.18 v -0.05 l -0.84,12.57 v -0.04 l -0.14,2.92 v -0.04 l -0.29,8.83 v 0.05 l -0.24,4.63 v 0.09 l -0.34,4.49 c -0.12,1.68 -1.53,2.95 -3.21,2.91 -1.68,-0.03 -3.03,-1.37 -3.1,-3.03 z"
         style="fill:#000000;fill-opacity:1;fill-rule:nonzero;stroke:none"
         transform="matrix(1.3333333,0,0,-1.3333333,0,1120.8)" />
    </g>
    <g
       id="g60"
       transform="translate(-254.9959,-0.05163773)">
      <path
         id="path60"
         d="m 477.48,539.71 0.17,0.12 c 0.84,0.67 1.25,1.75 1.01,2.81 -0.27,1.06 -1.11,1.87 -2.19,2.06 -1.05,0.2 -2.13,-0.26 -2.73,-1.15 l -0.17,-0.24 c -0.31,-0.45 -0.48,-1.01 -0.51,-1.58 l -0.02,-1.13 v -0.26 l 0.1,-1.28 v 0.03 l 0.19,-2.74 v -0.05 l 0.26,-3.4 v 0.04 l 0.03,-0.5 0.02,-0.26 0.41,-2.69 v -0.1 l 0.31,-1.82 v 0 l 0.07,-0.46 0.05,-0.14 0.24,-1.13 -0.07,0.77 v -0.1 c 0,-1.27 0.65,-2.45 1.75,-3.09 1.1,-0.65 2.45,-0.65 3.55,0 1.11,0.64 1.78,1.82 1.75,3.09 v 0.1 c 0,0.33 -0.04,0.62 -0.12,0.91 l -0.31,1.13 0.03,-0.12 -0.1,0.45 v 0 l -0.43,1.8 0.05,-0.12 -0.58,2.67 0.05,-0.29 -0.05,0.5 v 0.08 l -0.48,3.4 v 0 l -0.38,2.72 -0.05,0.26 -0.29,1.22 0.02,-0.12 -0.21,1.11 c -0.07,0.38 -0.22,0.77 -0.43,1.1 l -0.17,0.24 c -0.65,0.96 -1.85,1.39 -2.98,1.11 -1.1,-0.32 -1.92,-1.28 -1.99,-2.43 -0.1,-1.17 0.55,-2.25 1.61,-2.71 l 0.19,-0.1 c 0.79,-0.33 1.7,-0.24 2.4,0.29 z"
         style="fill:#000000;fill-opacity:1;fill-rule:nonzero;stroke:none"
         transform="matrix(1.3333333,0,0,-1.3333333,0,1120.8)" />
    </g>
    <g
       id="g61"
       transform="translate(-254.9959,-0.05163773)">
      <path
         id="path61"
         d="m 474.96,540.31 0.41,-0.24 c 0.36,-0.24 0.74,-0.41 1.17,-0.45 l 4.88,-0.68 h 0.19 l 6.65,-0.5 h 0.12 l 1.08,-0.02 h -0.24 l 2.44,-0.24 -0.6,0.09 0.84,-0.21 c 0.34,-0.1 0.68,-0.15 0.99,-0.15 h 0.21 c 2.04,0 3.68,1.61 3.68,3.65 0,2.02 -1.64,3.62 -3.68,3.62 h -0.21 l 0.91,-0.12 -0.84,0.24 c -0.22,0.05 -0.43,0.1 -0.62,0.1 l -2.48,0.19 -0.4,0.03 -1.08,-0.08 h 0.16 l -6.64,0.1 h -0.05 l -4.9,0.02 -0.36,-0.02 -0.48,-0.05 c -1.22,-0.17 -2.18,-1.05 -2.45,-2.23 -0.26,-1.2 0.24,-2.4 1.3,-3.05 z"
         style="fill:#000000;fill-opacity:1;fill-rule:nonzero;stroke:none"
         transform="matrix(1.3333333,0,0,-1.3333333,0,1120.8)" />
    </g>
    <g
       id="g62"
       transform="translate(-254.9959,-0.05163773)">
      <path
         id="path62"
         d="m 478.3,522.65 0.67,0.07 h -0.27 l 4.32,0.05 h -0.12 l 1.78,-0.03 h -0.31 l 1.01,-0.09 c 0.16,-0.03 0.36,-0.03 0.52,-0.03 l 2.38,0.12 0.14,0.03 0.68,0.07 -0.34,-0.02 h 0.7 -0.17 l 1.41,-0.05 h -0.16 l 0.6,-0.05 c 0.55,-0.07 1.15,0.02 1.7,0.26 l 0.24,0.1 c 0.22,0.05 0.41,0.17 0.6,0.26 l 0.1,0.08 c 1.15,0.72 1.84,1.99 1.82,3.36 -0.02,1.36 -0.79,2.64 -1.99,3.28 -1.2,0.68 -2.67,0.6 -3.84,-0.12 l -0.07,-0.02 0.04,0.02 -0.24,-0.14 1.64,0.5 -0.6,-0.02 h 0.16 l -1.41,-0.07 c -0.15,0 -0.29,0 -0.43,-0.03 l -0.7,-0.12 -0.34,-0.04 -0.62,-0.2 0.41,0.1 -2.35,-0.34 h 0.12 l -1.01,-0.09 -0.12,-0.03 -1.75,-0.26 -0.22,-0.02 -4.22,-0.94 c -0.32,-0.1 -0.6,-0.22 -0.89,-0.36 l -0.58,-0.36 c -1.03,-0.67 -1.49,-1.94 -1.1,-3.12 0.43,-1.15 1.58,-1.9 2.81,-1.75 z"
         style="fill:#000000;fill-opacity:1;fill-rule:nonzero;stroke:none"
         transform="matrix(1.3333333,0,0,-1.3333333,0,1120.8)" />
    </g>
    <g
       id="g63"
       transform="translate(-254.9959,-0.05163773)">
      <path
         id="path63"
         d="m 490.49,541.42 -0.15,-4.52 -0.02,-0.14 0.05,-4.63 v -0.03 l 0.19,-8.85 v -0.07 l 0.12,-2.96 v -0.04 l 0.74,-12.58 v -0.07 l 0.58,-7.18 v -0.02 l 0.82,-9.39 v 0.1 l 0.43,-7.56 v 0.24 l -0.03,-5.16 v 0.14 l -0.02,-1.27 c -0.07,-1.34 0.62,-2.59 1.8,-3.31 1.18,-0.7 2.64,-0.7 3.82,0 1.17,0.72 1.84,1.97 1.8,3.31 l -0.08,1.27 v -0.14 5.16 0.19 l -0.48,7.56 v 0.1 l -0.86,9.38 v -0.02 l -0.58,7.17 v -0.04 l -0.79,12.55 v -0.05 l -0.17,2.93 v -0.05 l -0.28,8.86 -0.03,0.04 -0.21,4.64 v 0.09 l -0.34,4.47 c -0.14,1.68 -1.56,2.97 -3.22,2.9 -1.68,-0.02 -3.02,-1.34 -3.09,-3.02 z"
         style="fill:#000000;fill-opacity:1;fill-rule:nonzero;stroke:none"
         transform="matrix(1.3333333,0,0,-1.3333333,0,1120.8)" />
    </g>
    <g
       id="g64"
       transform="translate(-254.9959,-0.05163773)">
      <path
         id="path64"
         d="m 503.16,539.42 0.19,0.12 c 0.84,0.65 1.23,1.76 0.99,2.81 -0.24,1.03 -1.08,1.85 -2.16,2.04 -1.06,0.19 -2.14,-0.24 -2.74,-1.15 l -0.17,-0.22 c -0.31,-0.48 -0.48,-1 -0.53,-1.58 v -1.13 -0.29 l 0.1,-1.24 v 0.02 l 0.19,-2.74 v -0.04 l 0.27,-3.41 -0.03,0.05 0.05,-0.53 0.02,-0.27 0.36,-2.66 0.05,-0.1 0.31,-1.82 v 0 l 0.08,-0.46 0.02,-0.14 0.26,-1.15 -0.07,0.79 v -0.1 c -0.05,-1.29 0.65,-2.44 1.73,-3.09 1.1,-0.65 2.47,-0.65 3.58,0 1.08,0.65 1.77,1.8 1.72,3.09 v 0.1 c 0,0.29 -0.02,0.62 -0.12,0.89 l -0.28,1.15 0.02,-0.12 -0.12,0.46 v -0.05 l -0.41,1.85 0.03,-0.12 -0.56,2.66 0.05,-0.31 -0.07,0.53 v 0.09 l -0.48,3.39 v 0 l -0.36,2.68 -0.05,0.29 -0.31,1.23 0.02,-0.12 -0.19,1.1 c -0.07,0.38 -0.21,0.74 -0.45,1.1 l -0.15,0.22 c -0.67,0.96 -1.87,1.42 -2.97,1.1 -1.11,-0.28 -1.92,-1.24 -2.02,-2.42 -0.1,-1.13 0.58,-2.21 1.63,-2.69 l 0.17,-0.09 c 0.82,-0.34 1.7,-0.24 2.4,0.28 z"
         style="fill:#000000;fill-opacity:1;fill-rule:nonzero;stroke:none"
         transform="matrix(1.3333333,0,0,-1.3333333,0,1120.8)" />
    </g>
    <g
       id="g65"
       transform="translate(-254.9959,-0.05163773)">
      <path
         id="path65"
         d="m 500.62,540.02 0.4,-0.26 c 0.36,-0.22 0.8,-0.36 1.2,-0.41 l 4.88,-0.67 0.16,-0.02 6.68,-0.48 h 0.12 l 1.08,-0.08 -0.27,0.05 2.45,-0.29 -0.58,0.12 0.87,-0.24 c 0.29,-0.07 0.62,-0.14 0.96,-0.14 h 0.24 c 1.99,0 3.65,1.66 3.65,3.67 0,1.99 -1.66,3.65 -3.65,3.65 h -0.24 l 0.91,-0.12 -0.84,0.22 c -0.19,0.04 -0.41,0.09 -0.62,0.12 l -2.5,0.16 h -0.38 l -1.08,-0.02 h 0.16 l -6.64,0.07 h -0.03 l -4.89,0.03 -0.36,-0.03 -0.51,-0.07 c -1.2,-0.14 -2.21,-1.01 -2.45,-2.21 -0.26,-1.17 0.24,-2.4 1.28,-3.05 z"
         style="fill:#000000;fill-opacity:1;fill-rule:nonzero;stroke:none"
         transform="matrix(1.3333333,0,0,-1.3333333,0,1120.8)" />
    </g>
    <g
       id="g66"
       transform="translate(-254.9959,-0.05163773)">
      <path
         id="path66"
         d="m 503.98,522.36 0.69,0.1 -0.29,-0.05 4.32,0.09 h -0.12 l 1.78,-0.04 -0.29,0.02 0.96,-0.12 c 0.19,0 0.39,0 0.55,0 l 2.38,0.12 h 0.14 l 0.68,0.05 h -0.34 0.7 -0.15 l 1.39,-0.05 h -0.16 l 0.6,-0.02 c 0.57,-0.08 1.17,0.02 1.7,0.24 l 0.24,0.07 c 0.22,0.09 0.43,0.19 0.6,0.31 l 0.1,0.05 c 1.17,0.69 1.87,1.99 1.82,3.36 -0.02,1.37 -0.77,2.61 -1.97,3.29 -1.2,0.64 -2.69,0.62 -3.84,-0.1 l -0.09,-0.07 0.04,0.05 -0.24,-0.12 1.64,0.5 -0.6,-0.07 h 0.16 l -1.39,-0.03 c -0.17,-0.02 -0.31,-0.02 -0.45,-0.04 l -0.7,-0.12 -0.34,-0.08 -0.62,-0.16 0.38,0.07 -2.32,-0.31 0.09,0.02 -0.96,-0.12 h -0.17 l -1.72,-0.26 -0.22,-0.08 -4.22,-0.93 c -0.32,-0.05 -0.6,-0.17 -0.87,-0.36 l -0.57,-0.36 c -1.06,-0.63 -1.52,-1.92 -1.11,-3.07 0.41,-1.18 1.56,-1.9 2.79,-1.78 z"
         style="fill:#000000;fill-opacity:1;fill-rule:nonzero;stroke:none"
         transform="matrix(1.3333333,0,0,-1.3333333,0,1120.8)" />
    </g>
    <g
       id="g67"
       transform="translate(-254.9959,-0.05163773)">
      <path
         id="path67"
         d="M 516.19,541.1 516,536.64 v -0.17 l 0.07,-4.63 v 0 l 0.17,-8.88 v -0.1 l 0.12,-2.9 v -0.07 l 0.74,-12.6 v -0.05 l 0.56,-7.18 0.02,-0.02 0.82,-9.41 v 0.1 l 0.45,-7.54 v 0.22 l -0.02,-5.14 v 0.12 l -0.05,-1.22 c -0.05,-1.35 0.65,-2.64 1.8,-3.34 1.18,-0.67 2.64,-0.67 3.82,0 1.15,0.7 1.87,1.99 1.8,3.34 l -0.05,1.22 v -0.12 5.14 l -0.05,0.21 -0.43,7.56 v 0.12 l -0.89,9.36 v -0.02 l -0.55,7.18 v -0.08 l -0.82,12.58 v -0.02 l -0.19,2.92 0.05,-0.09 -0.34,8.88 v 0.05 l -0.21,4.6 v 0.1 l -0.34,4.51 c -0.14,1.63 -1.56,2.93 -3.19,2.91 -1.68,-0.03 -3.05,-1.4 -3.1,-3.08 z"
         style="fill:#000000;fill-opacity:1;fill-rule:nonzero;stroke:none"
         transform="matrix(1.3333333,0,0,-1.3333333,0,1120.8)" />
    </g>
  </g>
</svg>
