<svg width="33.082" height="10.156" version="1.1" viewBox="0 0 33.082 10.156" xmlns="http://www.w3.org/2000/svg">
 <g transform="translate(-65.735 -108.03)">
  <path transform="matrix(1.3333,0,0,-1.3333,0,1120.8)" d="m56.088 757.34-0.264 0.29c-0.096 0.12-0.192 0.19-0.336 0.24l-0.072 0.03-0.048 0.04 0.144-0.09-0.048 0.02c-0.072 0.07-0.144 0.1-0.24 0.12l-0.096 0.05c-0.072 0.02-0.12 0.02-0.192 0.02l-0.072 0.03 0.048-0.03-0.048 0.03-0.192 0.02h0.024l-0.408 0.07 0.072-0.02-0.144 0.05-0.12 0.02h-0.168l-0.168 0.03h0.048l-0.12 0.02h-0.168 0.024l-0.12 0.02h-0.216l-0.144-0.02h-0.144c-0.072 0-0.144-0.02-0.216-0.05l-0.12-0.02 0.192 0.02h-0.12l-0.144-0.02-0.144-0.03h0.168-0.144c-0.12 0-0.24-0.04-0.384-0.09l-0.336-0.15-0.096-0.04-0.072-0.05c-0.072-0.05-0.144-0.1-0.192-0.15l-0.096-0.07-0.072-0.05 0.144 0.1-0.096-0.07 0.072 0.05-0.072-0.05c-0.192-0.12-0.36-0.27-0.48-0.46l-0.048-0.09 0.12 0.16-0.072-0.07-0.024-0.05-0.12-0.16 0.048 0.09-0.216-0.24 0.072 0.07-0.048-0.04c-0.24-0.24-0.408-0.56-0.408-0.92v-0.02l0.408 0.89-0.024-0.03-0.048-0.04c-0.264-0.22-0.408-0.56-0.432-0.92v-0.02l0.432 0.89-0.024-0.03c-0.24-0.21-0.408-0.52-0.432-0.86v-0.1 0.03-0.05l0.168 0.53-0.048-0.03c-0.072-0.16-0.12-0.36-0.144-0.55v-0.12 0.05-0.05c-0.024-0.21 0.024-0.43 0.12-0.62l0.024-0.05-0.12 0.62v-0.07l-0.024-0.05 0.024 0.05-0.024-0.05c0-0.33 0.12-0.69 0.36-0.96l0.024-0.02-0.36 0.94v-0.05c0-0.34 0.12-0.67 0.36-0.94l0.024-0.02-0.144 0.19 0.048-0.07-0.216 0.74v-0.05c0-0.36 0.144-0.69 0.384-0.96l0.048-0.04-0.24 0.36 0.024-0.05c0.048-0.15 0.12-0.24 0.216-0.34l0.024-0.02-0.216 0.33 0.024-0.04c0.12-0.27 0.312-0.46 0.576-0.6l0.024-0.03-0.576 0.6 0.024-0.05 0.024-0.04c0.144-0.27 0.336-0.48 0.576-0.6l0.072-0.03-0.36 0.27 0.024-0.03v-0.02l0.072-0.05c0.24-0.24 0.552-0.38 0.888-0.38h0.048l-1.152 0.74 0.024-0.05c0.12-0.26 0.336-0.48 0.576-0.6l0.048-0.02 0.048-0.03c0.192-0.09 0.384-0.14 0.576-0.14h0.048l-0.744 0.26 0.072-0.07c0.168-0.12 0.36-0.21 0.552-0.24l0.12-0.02 0.12-0.03 0.12-0.02h0.024l0.144-0.05-0.096 0.03 0.096-0.03c0.096-0.02 0.216-0.02 0.312-0.02h0.144l0.12-0.03h0.36c0.072 0 0.144 0.03 0.216 0.03l0.144 0.02 0.168 0.05 0.24 0.07-0.096-0.05 0.336 0.08 0.048 0.02 0.096 0.02-0.336-0.04h0.096c0.144 0 0.288 0.02 0.408 0.07l0.096 0.02-0.096-0.02 0.096 0.02c0.072 0 0.144 0.05 0.216 0.07l0.216 0.1 0.24 0.1 0.072 0.04 0.144 0.1 0.12 0.07 0.168 0.1 0.072 0.07 0.168 0.12-0.264-0.17 0.192 0.1c0.12 0.05 0.216 0.12 0.312 0.21l0.312 0.27 0.024 0.02 0.024 0.03c0.264 0.24 0.408 0.57 0.432 0.93v0.03l-0.432-0.94 0.024 0.02-0.024-0.02 0.024 0.02c0.264 0.24 0.432 0.6 0.456 0.99v0.05l-0.432-0.96 0.024 0.02c0.264 0.24 0.408 0.58 0.432 0.94v0.02l-1.416-1.3h0.024c0.744-0.04 1.392 0.56 1.416 1.3v0.02l-0.432-0.96 0.024 0.03c0.264 0.26 0.408 0.57 0.432 0.93v0.08l-0.072-0.44 0.024 0.08c0.216 0.6 0 1.24-0.504 1.6l-0.216 0.12 0.192-0.14-0.072 0.07c-0.36 0.34-0.864 0.48-1.32 0.34-0.48-0.12-0.84-0.51-0.96-0.96-0.12-0.48 0-0.99 0.36-1.32l0.072-0.07c0.072-0.08 0.144-0.12 0.216-0.2l0.216-0.12-0.576 1.56-0.024-0.07c-0.024-0.17-0.048-0.31-0.048-0.45v-0.08l0.384 1.01-0.024-0.02c-0.264-0.27-0.384-0.63-0.384-0.99v-0.02c0.048-0.74 0.672-1.34 1.416-1.3 0.744 0.03 1.32 0.65 1.296 1.4-0.024 0.74-0.672 1.34-1.416 1.29h-0.024c-0.36 0-0.696-0.17-0.936-0.43s-0.36-0.6-0.36-0.96v-0.02l0.384 0.98-0.024-0.02c-0.24-0.27-0.384-0.6-0.384-0.96v-0.05l0.36 0.93-0.024-0.02 0.024 0.02-0.024-0.02c-0.24-0.26-0.384-0.62-0.36-0.98v-0.03l0.36 0.99-0.024-0.03 0.072 0.07-0.312-0.28 0.288 0.19-0.168-0.1c-0.096-0.05-0.192-0.09-0.264-0.17l-0.144-0.12 0.072 0.08-0.168-0.12 0.12 0.07-0.168-0.1 0.072 0.03-0.192-0.1 0.048 0.02-0.216-0.07 0.216 0.07-0.096-0.02-0.096-0.05-0.072-0.02 0.408 0.07h-0.096c-0.096 0-0.216 0-0.312-0.02l-0.096-0.03h0.048l-0.432-0.09-0.24-0.08 0.144 0.03-0.144-0.03 0.216 0.03h-0.624l0.312-0.03h-0.096l-0.096 0.03-0.144 0.02h0.048l-0.12 0.03-0.24 0.04 0.528-0.24-0.096 0.08c-0.24 0.16-0.528 0.26-0.816 0.26h-0.048l0.6-0.12-0.048 0.02h-0.048l0.6-0.55-0.024 0.05c-0.24 0.43-0.696 0.7-1.2 0.7l-0.048-0.03 0.96-0.36-0.072 0.05v0.02l-0.024 0.03c-0.096 0.09-0.216 0.17-0.336 0.21l-0.048 0.03 0.6-0.58-0.048 0.1c-0.144 0.26-0.36 0.45-0.6 0.57l-0.048 0.03 0.6-0.58-0.024 0.05c-0.072 0.14-0.168 0.26-0.264 0.36l-0.024 0.02 0.264-0.36-0.024 0.05c-0.072 0.12-0.168 0.24-0.264 0.34l-0.048 0.05 0.408-0.92v0.05c0 0.24-0.096 0.51-0.24 0.72l-0.048 0.07c-0.048 0.08-0.12 0.15-0.192 0.22l-0.024 0.02 0.432-0.93v0.05c-0.024 0.36-0.168 0.69-0.432 0.91l-0.024 0.02 0.432-0.89v0.05-0.05 0.05l-0.024 0.05v0.02c0 0.2-0.072 0.39-0.144 0.56l-0.024 0.04 0.144-0.55v0.05-0.05 0.12l-0.12-0.62 0.024 0.05c0.096 0.19 0.144 0.4 0.12 0.62v0.05-0.03 0.1l-0.336-0.94 0.024 0.03c0.216 0.24 0.336 0.57 0.336 0.91v0.02l-0.336-0.88v0.02l0.024 0.02 0.024 0.03c0.24 0.24 0.36 0.57 0.336 0.91v0.02l-0.336-0.88 0.048 0.04 0.096 0.1 0.192 0.26 0.024 0.05 0.12 0.17 0.072 0.1c0.048 0.07 0.072 0.14 0.12 0.21l0.024 0.1-0.36-0.51 0.048 0.08 0.048 0.02 0.096 0.07c0.048 0.05 0.072 0.07 0.12 0.12l0.072 0.07 0.072 0.1-0.168-0.17 0.072 0.05-0.168-0.1 0.336 0.17-0.216-0.07 0.12 0.02 0.12 0.05 0.144 0.07-0.12-0.04 0.12 0.02 0.168 0.07 0.12 0.07-0.24-0.09 0.144 0.05 0.144 0.02-0.144-0.02 0.12 0.02h-0.024 0.168l0.12 0.02h-0.048 0.216l0.12 0.03-0.216-0.03h0.192l0.384-0.02h-0.024 0.192c0.072-0.02 0.168 0 0.24 0h0.048-0.048 0.072l-0.264 0.02 0.096-0.02-0.144 0.02h0.048l0.096-0.02 0.072-0.02 0.072-0.03c0.144-0.02 0.264-0.02 0.384 0l0.408 0.07c0.24 0.08 0.456 0.24 0.528 0.51 0.096 0.24 0.024 0.5-0.144 0.69z"/>
  <path transform="matrix(1.3333,0,0,-1.3333,0,1120.8)" d="m56.112 755.09 0.264 0.17c0.072 0.04 0.144 0.09 0.216 0.16l0.192 0.24-0.072-0.09 0.096 0.09-0.072-0.07 0.12 0.1 0.072 0.05 0.096 0.09-0.192-0.14 0.24 0.14 0.12 0.1-0.12-0.07 0.12 0.04-0.144-0.07 0.24 0.1 0.288 0.14-0.024-0.02 0.48 0.21-0.072-0.04 1.056 0.33h-0.048l0.48 0.15-0.048-0.03 0.648 0.17-0.072-0.02 0.624 0.09h-0.024l0.648 0.12-0.072-0.02 0.624 0.07h-0.048l1.368 0.05h0.024l1.32 0.09-0.024-0.02 0.888 0.05h-0.072l1.92-0.03h-0.096l1.848-0.21-0.072 0.02 0.312-0.05-0.096 0.03 0.288-0.07-0.096 0.02 0.288-0.1 0.288-0.09-0.072 0.02 0.264-0.12-0.024 0.03 0.576-0.27h-0.024l0.6-0.29-0.024 0.03 0.192-0.1-0.168 0.12 0.072-0.07c0.072-0.05 0.12-0.1 0.192-0.12l0.096-0.05-0.168 0.12 0.096-0.07-0.144 0.1 0.072-0.08 0.072-0.04 0.192-0.2-0.048 0.08 0.048-0.05-0.24 0.31 0.024-0.05c0.12-0.24 0.312-0.43 0.552-0.55l0.048-0.02-0.312 0.24 0.048-0.05-0.24 0.31 0.048-0.1c0.072-0.12 0.144-0.24 0.24-0.31l0.048-0.05-0.36 0.87v-0.05c0-0.34 0.12-0.65 0.36-0.86l0.048-0.05-0.312 0.48 0.024-0.07c0.024-0.08 0.048-0.12 0.072-0.17l0.024-0.05-0.12 0.55v-0.05c0-0.19 0.048-0.36 0.12-0.55l0.024-0.05-0.12 0.58v-0.24l0.024-0.17 0.024-0.14c0.048-0.27 0.168-0.51 0.336-0.7l0.024-0.02-0.336 0.89v-0.03 0.05-0.12 0.02-0.02l-0.024-0.02v-0.1l0.408 0.86-0.048-0.02c-0.144-0.14-0.24-0.31-0.312-0.48l-0.024-0.1 0.072 0.2-0.072-0.15 0.24 0.31-0.048-0.04c-0.144-0.15-0.24-0.32-0.312-0.48l-0.024-0.08 0.336 0.48h-0.024c-0.072-0.07-0.144-0.14-0.192-0.21l-0.048-0.07 0.192 0.21-0.024-0.02-0.024-0.03-0.048-0.04-0.048-0.05 0.336 0.24-0.048-0.03c-0.12-0.04-0.24-0.14-0.336-0.24l-0.048-0.02 0.336 0.22-0.048-0.03c-0.12-0.05-0.24-0.14-0.336-0.21l-0.048-0.08-0.048-0.02 0.888 0.34h-0.048c-0.336 0-0.648-0.12-0.888-0.34l-0.048-0.05 0.48 0.29-0.144-0.05h-0.024l-0.144-0.05-0.144-0.04h0.072l-0.192-0.05 0.168 0.05-0.312-0.05-0.6-0.15h0.024l-0.408-0.09 0.096 0.02-1.056-0.17h0.192-0.192l-1.032-0.09h0.072l-2.496-0.07h0.144l-4.728 0.38h-0.144l0.216-0.02-3.096 0.55h0.024l-0.24 0.05 0.072-0.03-1.416 0.36-0.072 0.03-0.792 0.16 0.624-0.36-0.048 0.08c-0.336 0.31-0.792 0.43-1.224 0.31s-0.792-0.46-0.888-0.91c-0.12-0.44 0-0.89 0.336-1.2l0.048-0.08c0.168-0.16 0.408-0.26 0.648-0.31l0.816-0.17h-0.072l1.416-0.33h0.048l0.264-0.05h0.024l3.096-0.55c0.072-0.03 0.144-0.03 0.216-0.03h0.048-0.12l4.752-0.36h0.12l2.496 0.05 0.096 0.03 1.008 0.07h-0.096 0.072c0.048 0 0.12 0 0.192 0.02l1.056 0.17h0.072l0.408 0.1h0.024l0.48 0.12-0.096-0.03 0.312 0.05 0.144 0.02 0.168 0.05 0.048 0.03 0.144 0.04 0.288 0.1c0.192 0.07 0.36 0.17 0.504 0.31l0.048 0.05-0.864-0.36h0.048c0.336 0 0.624 0.14 0.864 0.36l0.096 0.1-0.312-0.24 0.048 0.04c0.12 0.05 0.216 0.12 0.312 0.22l0.048 0.05-0.312-0.24 0.048 0.02c0.12 0.07 0.216 0.15 0.312 0.24l0.096 0.1 0.024 0.02v0.03c0.072 0.04 0.12 0.09 0.144 0.16l0.048 0.08-0.144-0.17 0.024 0.02c0.144 0.12 0.24 0.29 0.288 0.48l0.024 0.07-0.288-0.5 0.048 0.05c0.096 0.09 0.168 0.21 0.216 0.33l0.072 0.15c0.024 0.05 0.048 0.09 0.072 0.14l0.024 0.07-0.288-0.48v0.03c0.24 0.24 0.384 0.57 0.36 0.91v0.14-0.02 0.12-0.05 0.03c0 0.33-0.144 0.64-0.384 0.86l-0.024 0.02 0.36-0.64-0.024 0.14v-0.07l-0.024 0.17 0.024-0.17v0.07c0 0.17-0.048 0.36-0.144 0.53l-0.024 0.05 0.144-0.56v0.05c-0.024 0.19-0.048 0.39-0.144 0.55l-0.024 0.05 0.072-0.17-0.024 0.08c-0.072 0.19-0.168 0.36-0.312 0.48l-0.048 0.04 0.384-0.86v0.05c-0.024 0.33-0.144 0.65-0.384 0.86l-0.048 0.05 0.24-0.31-0.024 0.05-0.024 0.04c-0.072 0.12-0.144 0.22-0.24 0.32l-0.048 0.04c-0.096 0.1-0.216 0.17-0.312 0.22l-0.048 0.02 0.552-0.52-0.024 0.04c-0.072 0.12-0.144 0.22-0.24 0.32l-0.048 0.04-0.048 0.03-0.216 0.19 0.048-0.02-0.072 0.04c-0.048 0.05-0.072 0.1-0.12 0.12l-0.096 0.08c-0.072 0.04-0.12 0.07-0.192 0.12l-0.096 0.04 0.192-0.12-0.12 0.08c-0.048 0.04-0.12 0.07-0.168 0.09l-0.192 0.1h-0.024l-0.6 0.29-0.024 0.02-0.576 0.24-0.024 0.02-0.288 0.12-0.384 0.12-0.288 0.1-0.096 0.02-0.264 0.08-0.12 0.02-0.312 0.05h-0.048l-1.848 0.19h-2.112l-0.888-0.05h-0.024l-1.32-0.12h0.024l-1.368-0.07-0.072-0.02-0.624-0.08h-0.072l-0.648-0.14h-0.024l-0.624-0.12-0.072-0.02-0.624-0.2h-0.024l-0.48-0.14h-0.024l-1.056-0.38-0.096-0.03-0.48-0.24-0.048-0.02-0.288-0.15 0.024 0.03-0.096-0.05-0.144-0.1-0.12-0.07-0.096-0.07-0.12-0.1 0.096 0.08-0.12-0.08c-0.048-0.04-0.12-0.12-0.168-0.16l-0.096-0.1 0.096 0.07-0.12-0.09-0.096-0.1-0.072-0.1-0.072-0.07-0.096-0.12-0.072-0.14-0.096-0.12-0.144-0.29c-0.168-0.34-0.072-0.77 0.216-1.03 0.288-0.27 0.72-0.31 1.056-0.12z"/>
  <path transform="matrix(1.3333,0,0,-1.3333,0,1120.8)" d="m50.232 754.06-0.312-0.27c-0.072-0.07-0.144-0.17-0.168-0.26l-0.072-0.12 0.048 0.07-0.048-0.05c-0.144-0.26-0.144-0.6 0.024-0.86 0.168-0.27 0.456-0.41 0.768-0.39 0.288 0.03 0.576 0.22 0.696 0.51l0.024 0.05 0.024 0.04 0.024 0.12-0.12-0.24 0.264 0.34c0.24 0.31 0.216 0.77-0.072 1.06-0.312 0.28-0.768 0.28-1.08 0z"/>
  <path transform="matrix(1.3333,0,0,-1.3333,0,1120.8)" d="m52.56 753.84-0.072-0.34-0.024-0.09-0.048-0.29-0.024-0.1v-0.04c-0.024-0.34 0.168-0.68 0.456-0.87 0.288-0.17 0.672-0.17 0.984 0 0.288 0.19 0.456 0.53 0.432 0.87v0.14l-0.048 0.29v-0.15 0.32c0.024 0.43-0.288 0.79-0.72 0.86-0.408 0.05-0.816-0.22-0.936-0.6z"/>
  <path transform="matrix(1.3333,0,0,-1.3333,0,1120.8)" d="m53.832 753.6 0.192-0.26c0.024-0.05 0.072-0.1 0.12-0.15l0.576-0.5 0.048-0.05 0.096-0.07c0.264-0.19 0.624-0.24 0.912-0.12 0.312 0.14 0.504 0.43 0.552 0.74 0.024 0.34-0.12 0.65-0.384 0.84l-0.096 0.07 0.024-0.02-0.6 0.48-0.12 0.07-0.264 0.15c-0.336 0.19-0.768 0.12-1.008-0.17-0.264-0.29-0.264-0.72-0.048-1.01z"/>
  <path transform="matrix(1.3333,0,0,-1.3333,0,1120.8)" d="m49.392 757.22 0.12-0.21 0.096-0.15 0.336-0.31 0.024-0.05 0.24-0.21 0.096-0.07 0.048-0.08 0.072-0.02c0.192-0.14 0.456-0.17 0.696-0.05 0.216 0.1 0.36 0.34 0.384 0.58 0 0.24-0.12 0.48-0.312 0.62l-0.072 0.03 0.048-0.03-0.096 0.07-0.24 0.2 0.024-0.03-0.36 0.31 0.096-0.12-0.168 0.24c-0.192 0.27-0.576 0.32-0.84 0.15-0.288-0.19-0.36-0.58-0.192-0.87z"/>
  <path transform="matrix(1.3333,0,0,-1.3333,0,1120.8)" d="m51.984 758.38 0.072-0.34 0.048-0.1 0.144-0.36c0.096-0.31 0.408-0.5 0.72-0.5h0.024c0.264 0 0.528 0.14 0.672 0.38s0.144 0.53 0 0.8c-0.144 0.24-0.408 0.38-0.672 0.38h-0.024l0.72-0.48-0.168 0.38 0.048-0.09-0.12 0.33c-0.12 0.41-0.528 0.63-0.912 0.53-0.408-0.12-0.648-0.53-0.552-0.93z"/>
  <path transform="matrix(1.3333,0,0,-1.3333,0,1120.8)" d="m54.864 758.76-0.192-0.24-0.072-0.1-0.168-0.31 0.144 0.17-0.048-0.02c-0.048-0.08-0.096-0.12-0.144-0.2l-0.048-0.09 0.048 0.09-0.024-0.04c-0.048-0.08-0.072-0.12-0.096-0.2l-0.024-0.04 0.096 0.16-0.048-0.04c-0.048-0.05-0.072-0.12-0.096-0.2l-0.072-0.24-0.024-0.09 0.096 0.24-0.024-0.03c-0.168-0.24-0.168-0.57 0-0.81 0.144-0.27 0.432-0.41 0.72-0.39 0.288 0.05 0.528 0.24 0.648 0.51v0.05l0.048 0.14v0.1l-0.024-0.12 0.072 0.16-0.096-0.16 0.048 0.07c0.024 0.05 0.072 0.12 0.072 0.19l0.024 0.05-0.072-0.19 0.024 0.04 0.048 0.1 0.024 0.07-0.12-0.19 0.048 0.05c0.024 0.05 0.072 0.09 0.12 0.17l0.144 0.33-0.024-0.05 0.144 0.24c0.192 0.32 0.096 0.72-0.216 0.94-0.288 0.22-0.696 0.17-0.936-0.12z"/>
 </g>
</svg>
