<svg width="21.748" height="33.729" version="1.1" viewBox="0 0 21.748 33.729" xmlns="http://www.w3.org/2000/svg">
 <g transform="translate(-100.16 -107.52)">
  <path transform="matrix(1.3333,0,0,-1.3333,0,1120.8)" d="m77.136 743.42-0.096-0.19c-0.048-0.09-0.072-0.21-0.096-0.33l-0.048-0.34v0.05l-0.024-0.15 0.048 0.17-0.048-0.14-0.024-0.1-0.096-0.33-0.048-0.24-0.024-0.08-0.144-0.64v0.02l-0.12-0.6 0.024 0.1-0.672-2.28 0.024 0.04-0.216-0.6-0.024-0.04-0.096-0.29-0.024-0.15-0.048-0.21 0.048 0.17-0.072-0.24v0.04l-0.072-0.24 0.024 0.05-0.096-0.17c-0.168-0.43-0.12-0.91 0.168-1.29 0.288-0.36 0.744-0.58 1.2-0.51 0.48 0.05 0.864 0.36 1.032 0.8l0.096 0.16 0.024 0.08 0.072 0.21v0.03l0.096 0.26c0 0.05 0.024 0.12 0.048 0.17l0.024 0.24-0.024-0.15 0.072 0.32v-0.08l0.192 0.63 0.024 0.05 0.624 2.3 0.024 0.1 0.096 0.6 0.12 0.64v-0.02l0.072 0.26-0.024-0.02 0.072 0.34v-0.03l0.048 0.15c0 0.04 0.024 0.12 0.024 0.16v0.17l0.048 0.36-0.024-0.09 0.048 0.19c0.096 0.6-0.264 1.15-0.816 1.32-0.576 0.19-1.176-0.1-1.416-0.63z"/>
  <path transform="matrix(1.3333,0,0,-1.3333,0,1120.8)" d="m79.488 741.84 0.072 0.24c0.12 0.48-0.024 1.01-0.408 1.32-0.36 0.34-0.888 0.43-1.344 0.24s-0.792-0.62-0.816-1.1v-0.05c-0.024-0.22 0-0.43 0.072-0.63l0.048-0.07-0.048 0.15 0.12-0.46v0.02l0.144-0.52-0.024 0.07 0.336-1.44-0.024 0.09 0.12-0.62v-0.1l0.144-0.6v-0.02l0.168-0.62 0.048-0.12 0.48-1.37 0.024-0.07 0.096-0.2-0.072 0.15 0.072-0.22v0.03l0.024-0.17c0.12-0.51 0.504-0.89 1.008-1.03 0.504-0.15 1.032 0 1.392 0.36s0.528 0.88 0.384 1.39l-0.048 0.17v0.02l-0.048 0.22-0.072 0.16-0.072 0.2 0.024-0.05-0.504 1.39 0.024-0.1-0.168 0.6v-0.02l-0.144 0.58 0.024-0.1-0.12 0.62-0.024 0.1-0.36 1.44-0.048 0.12-0.192 0.5v0.03l-0.168 0.41 0.072-0.34v0.1c-0.096 0.74-0.744 1.27-1.488 1.2h-0.024c-0.48-0.05-0.888-0.36-1.08-0.8-0.192-0.43-0.12-0.93 0.168-1.32 0.288-0.38 0.744-0.57 1.224-0.5l0.264 0.05c0.36 0.05 0.648 0.31 0.744 0.67z"/>
  <path transform="matrix(1.3333,0,0,-1.3333,0,1120.8)" d="m80.424 752.23 0.048-0.31 0.024-0.34 0.024-0.33 0.024-0.07 0.048-0.34 0.024-0.12 0.24-0.84v-0.05l0.168-0.53v0.05l0.168-0.62v-0.03l0.24-0.86v0.07l0.144-0.6-0.024 0.07 0.264-1.41 0.048-0.17 0.24-0.77-0.048 0.22 0.096-0.58-0.024 0.12v-0.02c0.048-0.72 0.648-1.3 1.392-1.3 0.72 0 1.32 0.58 1.368 1.3v0.02c0 0.07 0 0.17-0.024 0.27l-0.072 0.57c-0.024 0.07-0.024 0.17-0.072 0.24l-0.24 0.77 0.048-0.14-0.288 1.39v0.07l-0.144 0.6-0.024 0.05-0.24 0.86v-0.02l-0.168 0.62-0.024 0.05-0.144 0.53v-0.05l-0.24 0.84 0.024-0.1-0.072 0.34 0.024-0.1-0.096 0.68-0.048 0.31c-0.096 0.72-0.768 1.25-1.512 1.15-0.72-0.1-1.224-0.74-1.152-1.49z"/>
  <path transform="matrix(1.3333,0,0,-1.3333,0,1120.8)" d="m86.016 753.1-0.192-0.56c-0.024-0.04-0.024-0.09-0.024-0.16l-0.192-0.94 0.024 0.05-0.24-1.08 0.024 0.05-0.192-0.7-0.168-0.7-0.024-0.07-0.12-0.72v0.03l-0.072-0.36v0.04l-0.168-0.72 0.024 0.08-0.624-2.12 0.144 0.34-0.312-0.48c-0.12-0.17-0.192-0.36-0.216-0.58v-0.02l0.816 1.08-0.024-0.02h-0.048c-0.48-0.22-0.816-0.68-0.84-1.18v-0.02c-0.048-0.51 0.216-1.01 0.648-1.28 0.432-0.26 0.984-0.26 1.416 0 0.432 0.27 0.696 0.77 0.648 1.28v0.02l-0.096-0.62v0.02l0.024 0.05c0.096 0.21 0.12 0.43 0.096 0.67v0.02l-0.072-0.64 0.192 0.52c0.024 0.05 0.048 0.1 0.072 0.17l0.528 2.14v0.02l0.168 0.72 0.024 0.07 0.048 0.36 0.12 0.72-0.024-0.07 0.168 0.7 0.144 0.69 0.024 0.08 0.192 1.05 0.144 0.96c0.024 0.05 0.024 0.1 0.024 0.17l0.024 0.58c0 0.52-0.36 0.96-0.888 1.05-0.504 0.1-1.032-0.19-1.2-0.69z"/>
  <path transform="matrix(1.3333,0,0,-1.3333,0,1120.8)" d="m78.552 741.79 3.744 0.46 0.024 0.02 0.672 0.1-0.072-0.03 1.392 0.15h-0.24 0.168c0.504-0.05 0.984 0.19 1.248 0.62 0.288 0.41 0.312 0.96 0.096 1.39-0.216 0.46-0.672 0.75-1.176 0.8h-0.432l-1.392-0.2-0.072-0.02-0.648-0.12h-0.048l-3.672-0.84c-0.6-0.12-1.008-0.72-0.912-1.34 0.12-0.63 0.696-1.06 1.32-0.99z"/>
  <path transform="matrix(1.3333,0,0,-1.3333,0,1120.8)" d="m82.272 751.49 0.264 0.07c0.144 0.05 0.264 0.1 0.384 0.17l0.072 0.05-0.144-0.08 0.072 0.03-0.24-0.07h0.072c0.096 0.02 0.168 0.07 0.264 0.09l0.072 0.05-0.24-0.1 0.072 0.03-0.168-0.03 0.192 0.03h0.096l0.072 0.02h0.024l0.096 0.03-0.456-0.03h0.072c0.672-0.12 1.32 0.31 1.512 0.99 0.144 0.64-0.216 1.34-0.84 1.58l-0.072 0.02 0.552-0.38-0.024 0.02c-0.096 0.12-0.216 0.22-0.36 0.29l-0.048 0.03c-0.168 0.09-0.384 0.14-0.576 0.16h-0.048l0.936-0.45v0.02l-0.024 0.03-0.048 0.04 0.024-0.02-0.024 0.02c-0.048 0.05-0.12 0.12-0.168 0.17l-0.096 0.07-0.048 0.03-0.072 0.05 0.36-0.39-0.024 0.07-0.048 0.08-0.072 0.07c-0.024 0.05-0.072 0.09-0.12 0.14l-0.024 0.05 0.144-0.22-0.024 0.08-0.048 0.04 0.072-0.12-0.072 0.17v-0.02l-0.048 0.14-0.072 0.12 0.072-0.19-0.12 0.38 0.024-0.14-0.072 0.41 0.024-0.12-0.024 0.19v0.19-0.17 0.63-0.15l0.024 0.22-0.024-0.17 0.048 0.19v0.12l0.024 0.2-0.048-0.24 0.096 0.28 0.096 0.41-0.096-0.29 0.024 0.08 0.048 0.09 0.048 0.07 0.096 0.2 0.048 0.09-0.072-0.09 0.048 0.07-0.264-0.36 0.096 0.09c0.048 0.05 0.12 0.12 0.168 0.2l0.048 0.07-0.048-0.05 0.072 0.07 0.048 0.07-0.12-0.14 0.072 0.1v-0.03l0.072 0.07-0.144-0.12 0.072 0.05-0.072-0.05 0.072 0.05c0.072 0.05 0.144 0.12 0.216 0.17l0.096 0.1-0.384-0.27 0.072 0.05 0.096 0.02c0.072 0.05 0.144 0.1 0.216 0.15l0.096 0.05-0.576-0.24 0.096 0.02c0.216 0.02 0.408 0.12 0.576 0.24l0.072 0.07-0.456-0.24 0.216 0.07c0.096 0.03 0.192 0.05 0.264 0.1l0.096 0.02-0.648-0.12h0.072c0.12 0 0.24 0 0.36 0.03l0.096 0.02-0.36-0.05h0.12c0.096 0 0.216 0.03 0.336 0.05l0.072 0.03-0.336-0.05h0.192l-0.36 0.05 0.096-0.03c0.096-0.02 0.216-0.05 0.336-0.05h0.072l-0.336 0.05 0.072-0.02c0.12-0.03 0.24-0.05 0.36-0.05h0.096l-0.36 0.05 0.072-0.03-0.288 0.12 0.096-0.04c0.048-0.03 0.12-0.08 0.192-0.08l0.24-0.09-0.072 0.02 0.096-0.02-0.096 0.05 0.12-0.08-0.264 0.17 0.12-0.09c0.048-0.03 0.096-0.08 0.144-0.1l0.12-0.07-0.168 0.12 0.096-0.1 0.12-0.07 0.096-0.1-0.216 0.24 0.072-0.12 0.36-0.36-0.192 0.22 0.144-0.19-0.048 0.07 0.12-0.22c0.048-0.04 0.072-0.09 0.096-0.14l0.144-0.19-0.144 0.24 0.12-0.19 0.192-0.44-0.048 0.12 0.096-0.21-0.024 0.05 0.072-0.22-0.024 0.07 0.072-0.21v0.04l0.048-0.24-0.024 0.15 0.072-0.51v0.08l0.096-0.72-0.024 0.16v-0.33 0.09l-0.024-0.79-0.048-0.65v-0.21c0.024-0.75 0.648-1.37 1.416-1.37s1.392 0.62 1.416 1.37v0.12-0.07l0.048 0.64v0.03l0.048 0.79v0.55l-0.096 0.72v0.07l-0.096 0.51-0.072 0.36-0.024 0.02-0.048 0.22-0.024 0.07-0.096 0.24v0.05l-0.096 0.19-0.048 0.12-0.096 0.19-0.12 0.22-0.096 0.21c-0.048 0.08-0.096 0.17-0.144 0.24l-0.144 0.17 0.096-0.14-0.12 0.21-0.048 0.08-0.12 0.16c-0.048 0.1-0.12 0.17-0.192 0.24l-0.24 0.24 0.096-0.12-0.072 0.1c-0.072 0.1-0.144 0.17-0.24 0.24l-0.096 0.07-0.096 0.1-0.096 0.07c-0.072 0.05-0.12 0.07-0.168 0.12l-0.096 0.05 0.144-0.1-0.096 0.07c-0.096 0.08-0.168 0.12-0.264 0.17l-0.12 0.05-0.096 0.05-0.12 0.05-0.072 0.02-0.264 0.1 0.192-0.08-0.072 0.03c-0.096 0.05-0.192 0.09-0.312 0.12l-0.072 0.02c-0.12 0.03-0.24 0.03-0.336 0.03h-0.096l0.336-0.03h-0.072c-0.12 0.05-0.24 0.05-0.36 0.05h-0.072l0.36-0.05-0.096 0.03c-0.12 0.04-0.24 0.04-0.336 0.04h-0.192c-0.12 0-0.24-0.02-0.36-0.04l-0.072-0.03 0.36 0.05h-0.12c-0.12 0-0.24-0.02-0.336-0.05l-0.096-0.02 0.336 0.05h-0.072c-0.216 0-0.432-0.05-0.624-0.17l-0.096-0.03 0.264 0.1-0.216-0.07c-0.192-0.05-0.36-0.12-0.48-0.24l-0.096-0.05 0.576 0.26-0.12-0.02c-0.192-0.05-0.384-0.14-0.552-0.26l-0.096-0.08 0.216 0.15-0.072-0.05-0.096-0.05c-0.12-0.07-0.24-0.14-0.36-0.26l-0.072-0.1 0.192 0.19-0.048-0.04-0.144-0.1c-0.048-0.05-0.096-0.1-0.144-0.14l-0.072-0.08 0.024 0.03-0.096-0.1c-0.048-0.05-0.096-0.09-0.144-0.17l-0.048-0.07-0.072-0.07-0.024-0.1-0.048-0.04 0.168 0.21-0.072-0.07c-0.12-0.12-0.192-0.24-0.264-0.38l-0.048-0.08-0.048-0.12-0.024-0.09 0.048 0.09-0.096-0.14-0.024-0.1-0.048-0.07c-0.048-0.09-0.072-0.19-0.096-0.29l-0.096-0.4v0.04l-0.048-0.21c-0.024-0.07-0.048-0.15-0.048-0.24l-0.024-0.19 0.024 0.16-0.048-0.19-0.024-0.17v-1.1l0.024-0.19 0.024-0.17 0.024-0.12 0.096-0.41 0.024-0.14 0.144-0.39c0.024-0.07 0.024-0.14 0.072-0.21l0.072-0.12 0.048-0.12 0.096-0.15c0.024-0.07 0.048-0.12 0.096-0.16l0.024-0.08 0.048-0.04c0.048-0.08 0.12-0.15 0.168-0.22l0.048-0.05-0.144 0.17 0.072-0.1-0.024 0.08 0.024-0.08c0.12-0.14 0.24-0.26 0.384-0.36l0.072-0.04-0.072 0.04 0.096-0.07-0.12 0.1 0.024-0.03-0.024 0.03 0.048-0.03 0.048-0.04c0.264-0.24 0.6-0.36 0.936-0.34h0.048l-0.6 0.12 0.024-0.02-0.336 0.21 0.024-0.02c0.144-0.12 0.312-0.22 0.504-0.27l0.072-0.02c0.672-0.22 1.368 0.14 1.632 0.79 0.24 0.67-0.072 1.39-0.696 1.68-0.648 0.29-1.416 0.03-1.728-0.6l-0.048-0.05 0.888 0.65-0.096-0.02c-0.12-0.03-0.216-0.05-0.312-0.1l-0.048-0.02 0.408 0.09h-0.192c-0.072-0.02-0.12-0.02-0.192-0.04l-0.072-0.03c-0.096-0.02-0.168-0.05-0.264-0.09l-0.072-0.03 0.264 0.1-0.096-0.03c-0.096-0.02-0.168-0.07-0.264-0.09l-0.216-0.15-0.048-0.02-0.096-0.07-0.216-0.17c-0.432-0.36-0.576-0.96-0.312-1.46 0.264-0.51 0.816-0.77 1.368-0.65z"/>
  <path transform="matrix(1.3333,0,0,-1.3333,0,1120.8)" d="m88.224 752.3c0-0.38-0.312-0.69-0.696-0.69-0.36 0-0.672 0.31-0.672 0.69 0 0.36 0.312 0.68 0.672 0.68 0.384 0 0.696-0.32 0.696-0.68z" fill-rule="evenodd"/>
  <path transform="matrix(1.3333,0,0,-1.3333,0,1120.8)" d="m86.88 750.98 0.288-0.16-0.264 0.19 0.12-0.1 0.144-0.14 0.12-0.1 0.336-0.24-0.048 0.03 0.144-0.12h0.024l0.408-0.34 0.864-0.62 0.048-0.05 0.24-0.17-0.384 1.63-0.024-0.02c-0.192-0.36-0.192-0.79 0-1.15 0.168-0.39 0.528-0.63 0.936-0.7h0.024c0.504-0.07 1.008 0.14 1.272 0.6 0.264 0.43 0.24 0.98-0.048 1.42-0.312 0.4-0.816 0.6-1.32 0.48s-0.888-0.53-0.96-1.04v-0.02c-0.12-0.67 0.312-1.3 0.96-1.44h0.024l-0.984 1.44v-0.02c-0.072-0.51 0.144-1.01 0.576-1.28l0.024-0.02-0.36 0.34 0.024-0.03-0.192 1.15-0.024-0.09-0.024-0.03 0.12 0.29 0.288 0.36-0.024-0.02 0.312 0.21-0.072-0.02-0.096-0.05-0.072-0.05 0.336 0.12-0.12-0.02h-0.048l-0.096-0.02c-0.048-0.03-0.12-0.05-0.168-0.08l-0.12-0.02 0.36 0.07-0.192-0.02h-0.144l-0.384-0.1h-0.096l-1.512-0.41h0.048l-1.008-0.24-0.096-0.02-0.12-0.05c-0.072 0-0.12-0.02-0.168-0.05l-0.048-0.02h-0.024l-0.024-0.02 0.624 0.14h-0.312 0.024-0.072l0.96-0.41-0.048 0.03c-0.096 0.12-0.216 0.21-0.36 0.26l-0.048 0.02c-0.672 0.34-1.488 0.08-1.824-0.62-0.36-0.67-0.072-1.49 0.6-1.82l0.048-0.03-0.36 0.24 0.048-0.05c0.264-0.24 0.624-0.38 0.984-0.38h0.072-0.024 0.312c0.216 0 0.408 0.07 0.6 0.14l0.048 0.03v0.02l0.048 0.03-0.192-0.1 0.12 0.05-0.096-0.05 0.984 0.26 0.048 0.03 1.488 0.43-0.072-0.02 0.384 0.09-0.144-0.05 0.192 0.03c0.144 0.02 0.264 0.07 0.384 0.09l0.096 0.05-0.144-0.05 0.072 0.03-0.072-0.03 0.096 0.03c0.12 0.02 0.24 0.07 0.336 0.12l0.096 0.05 0.072 0.04 0.096 0.05c0.12 0.07 0.264 0.17 0.36 0.29h0.024c0.36 0.43 0.432 1.01 0.168 1.51l0.12-0.29-0.024 0.03-0.024 0.09c-0.096 0.29-0.24 0.51-0.48 0.68l-0.024 0.02c-0.432 0.29-1.008 0.31-1.44 0.02h-0.024c-0.552-0.36-0.744-1.05-0.48-1.63 0.288-0.57 0.936-0.86 1.536-0.67 0.624 0.17 1.008 0.79 0.912 1.42v0.02c-0.072 0.36-0.264 0.67-0.552 0.86-0.312 0.2-0.672 0.27-1.008 0.2l-0.024-0.03c-0.696-0.14-1.104-0.81-0.96-1.51 0.144-0.67 0.792-1.1 1.464-0.98 0.696 0.14 1.152 0.76 1.056 1.46l-0.024 0.02c-0.048 0.34-0.216 0.63-0.504 0.82-0.264 0.22-0.6 0.29-0.936 0.24h-0.024l1.32-0.67v0.02c-0.12 0.22-0.288 0.39-0.528 0.51l-0.264 0.16 0.048-0.02-0.912 0.55v-0.02l-0.432 0.29 0.024-0.03-0.144 0.1v0.02l-0.36 0.19 0.072-0.02-0.144 0.12h-0.024l-0.144 0.1c-0.072 0.04-0.144 0.09-0.216 0.12l-0.312 0.14c-0.552 0.22-1.176-0.02-1.416-0.58-0.264-0.52-0.048-1.17 0.48-1.44z"/>
  <path transform="matrix(1.3333,0,0,-1.3333,0,1120.8)" d="m82.104 752.81-0.024 0.09c-0.096 0.2-0.288 0.36-0.504 0.44-0.216 0.07-0.48 0.04-0.672-0.05l-0.216-0.12-0.024-0.03-0.192-0.09-0.048-0.03-0.168-0.12-0.096-0.04-0.192-0.15-0.048-0.05-0.504-0.45-0.528-0.46h0.024l-1.272-1.01-0.096-0.07-0.576-0.6 0.888 0.31h-0.024c-0.552 0.08-1.08-0.31-1.176-0.86v-0.02l0.456 0.69-0.024-0.02 0.672 0.19h-0.024c-0.552 0.02-1.056-0.36-1.152-0.94v-0.02c-0.072-0.58 0.288-1.1 0.864-1.22 0.576-0.15 1.128 0.19 1.296 0.76 0.168 0.56-0.12 1.16-0.672 1.35h-0.024c-0.048 0.02-0.096 0.05-0.168 0.05h-0.024v0.02h-0.096l0.936-1.22v0.02l0.024 0.1v0.21l-0.048-0.33 0.144 0.48-0.144-0.32 0.144 0.22 0.024 0.02 0.096 0.17 0.024 0.05 0.096 0.19 0.264 0.55-0.024-0.02 0.288 0.55-0.12-0.19 0.072 0.1c0.024 0.04 0.072 0.12 0.096 0.16l0.072 0.12 0.048 0.15 0.048 0.07 0.12 0.31 0.024 0.1 0.312 1.03-0.072-0.22 0.072 0.15c0.024 0.07 0.048 0.12 0.072 0.17l0.072 0.16-0.096-0.16 0.192 0.33-0.048-0.07 0.168 0.26 0.048 0.05 0.072 0.17c0.312 0.53 0.12 1.22-0.432 1.54-0.528 0.31-1.224 0.12-1.56-0.41l-0.072-0.15 0.048 0.08-0.168-0.27-0.048-0.07-0.192-0.34-0.072-0.14-0.072-0.17 0.072 0.17-0.072-0.14c-0.048-0.08-0.072-0.15-0.096-0.22l-0.36-1.03 0.024 0.07-0.12-0.34 0.048 0.12-0.072-0.14-0.072-0.12 0.12 0.19-0.048-0.09c-0.048-0.08-0.096-0.12-0.12-0.2l-0.288-0.55v-0.05l-0.216-0.45 0.048 0.09-0.12-0.19 0.048 0.05-0.12-0.17-0.144-0.21c-0.048-0.12-0.12-0.24-0.144-0.39l-0.096-0.48c-0.048-0.14-0.048-0.31 0-0.48l0.048-0.19-0.024 0.12v-0.02c0.024-0.32 0.168-0.58 0.432-0.8 0.24-0.16 0.552-0.26 0.864-0.21h0.024l0.072 0.02h0.024c0.072 0.03 0.12 0.03 0.168 0.05h0.024c0.504 0.19 0.792 0.7 0.72 1.2v0.02c-0.096 0.6-0.648 1.01-1.224 0.94-0.6-0.07-1.032-0.6-0.984-1.18 0.048-0.6 0.552-1.05 1.152-1.03l0.024 0.03c0.336 0 0.648 0.16 0.864 0.45v0.03c0.192 0.24 0.24 0.55 0.192 0.84v0.02c-0.12 0.58-0.696 0.96-1.272 0.86-0.576-0.09-0.984-0.62-0.912-1.22 0.096-0.58 0.6-1.01 1.2-0.94h0.024c0.288 0.03 0.528 0.15 0.72 0.36l0.528 0.63-0.048-0.07 1.176 1.12 0.024 0.05 0.504 0.51h-0.024l0.48 0.48 0.192 0.19-0.048-0.05 0.144 0.14-0.048-0.04 0.192 0.14-0.048-0.02 0.192 0.14-0.192-0.12 0.072 0.02c0.216 0.08 0.384 0.24 0.48 0.46 0.072 0.22 0.072 0.46-0.048 0.65z"/>
 </g>
</svg>
