<svg width="38.519" height="38.847" version="1.1" viewBox="0 0 38.519 38.847" xmlns="http://www.w3.org/2000/svg">
 <g transform="translate(-60.761 -115.69)">
  <path transform="matrix(1.3333 0 0 -1.3333 0 1120.8)" d="m46.248 749.93 0.336-0.1c0.096-0.05 0.216-0.05 0.336-0.05l2.688 0.05h0.024l3.336 0.12h-0.072l6.576-0.24h0.024l2.856-0.07h1.08-0.024l3.912-0.07h5.592l-0.576 0.12 0.12-0.05c0.192-0.1 0.36-0.12 0.576-0.12h0.048c0.504-0.02 0.96 0.24 1.2 0.67 0.24 0.41 0.24 0.94 0 1.37-0.24 0.41-0.696 0.67-1.2 0.67h-0.048l0.552-0.12-0.12 0.05c-0.192 0.1-0.408 0.14-0.6 0.12l-5.568-0.22h0.072l-3.912 0.03h-1.08 0.024l-2.856 0.05h-0.024l-6.576 0.07h-0.072l-3.36-0.19h0.024l-2.688-0.12h-0.12l-0.312-0.05c-0.456-0.07-0.792-0.43-0.84-0.89-0.048-0.48 0.24-0.89 0.672-1.03z"/>
  <path transform="matrix(1.3333 0 0 -1.3333 0 1120.8)" d="m61.44 753.02-0.12 0.08-0.144 0.09-0.144 0.07-0.12 0.08-0.288 0.14c-0.072 0.02-0.144 0.05-0.216 0.07l-0.168 0.05 0.12-0.02-0.24 0.04-0.144 0.05h0.024l-0.12 0.05h-0.048l-0.168 0.05-0.192 0.02-0.168 0.03h0.024-0.144c-0.072 0.02-0.144 0.02-0.216 0h-0.168l-0.144-0.03h-0.144l-0.168-0.02c-0.072 0-0.144 0-0.24-0.03l-0.144-0.04 0.24 0.04-0.168-0.02c-0.12 0-0.264-0.05-0.384-0.1l-0.432-0.16-0.096-0.05-0.024-0.03-0.072-0.02c-0.408-0.22-0.672-0.62-0.696-1.08v-0.02l0.384 0.84-0.024-0.03 0.312 0.24-0.048-0.02 0.72 0.14h-0.024c-0.36 0.03-0.72-0.09-0.984-0.33-0.288-0.24-0.432-0.58-0.456-0.94v-0.07l0.72 1.15-0.048-0.02c-0.12-0.08-0.24-0.15-0.336-0.24l-0.024-0.05-0.024-0.03c-0.24-0.24-0.36-0.55-0.384-0.88v-0.05l0.384 0.89-0.024-0.03-0.024-0.02c-0.24-0.24-0.384-0.55-0.384-0.89v-0.07l0.384 0.91-0.024-0.02-0.024-0.03c-0.24-0.24-0.384-0.57-0.384-0.91v-0.05 0.05-0.02l-0.024-0.05v-0.05l0.144 0.53-0.024-0.05c-0.072-0.14-0.12-0.34-0.144-0.5v-0.15 0.05-0.12 0.02-0.12c-0.024-0.16 0.024-0.36 0.072-0.52l0.024-0.05-0.072 0.53-0.024-0.05v-0.05c0-0.34 0.096-0.67 0.312-0.94l0.024-0.02-0.192 0.36 0.024-0.07-0.12 0.62v-0.02c-0.024-0.36 0.096-0.7 0.312-0.96l0.024-0.03-0.216 0.34 0.024-0.05-0.096 0.63v-0.03c-0.024-0.36 0.072-0.69 0.312-0.98v-0.03c0.12-0.12 0.24-0.24 0.384-0.31l0.048-0.02-0.576 0.65 0.024-0.05c0.096-0.22 0.24-0.43 0.432-0.58l0.072-0.05-0.192 0.2 0.12-0.15c0.048-0.07 0.12-0.14 0.192-0.19l0.144-0.12 0.144-0.1c0.072-0.04 0.144-0.12 0.24-0.14l0.168-0.1-0.24 0.15 0.144-0.1c0.12-0.09 0.264-0.17 0.408-0.21l0.168-0.08-0.408 0.22 0.144-0.1c0.12-0.09 0.264-0.16 0.408-0.21l0.168-0.05 0.168-0.07 0.168-0.05 0.168-0.07c0.072-0.03 0.168-0.05 0.264-0.05l0.408-0.05h-0.048l0.288-0.07h0.144l0.96-0.1h0.264c0.072 0 0.168 0 0.264 0.03l0.144 0.02-0.264-0.02h0.12c0.072 0 0.168 0.02 0.264 0.02l0.144 0.05h0.048l0.12 0.02-0.048-0.02 0.144 0.05c0.072 0 0.168 0.02 0.24 0.07l0.144 0.05 0.072 0.02 0.312 0.12-0.576-0.09h0.048c0.408-0.03 0.792 0.16 1.056 0.45l0.024 0.05-1.056-0.48h0.024c0.408 0 0.792 0.17 1.056 0.48h0.048l0.024 0.05v0.02l-1.056-0.48h0.024c0.408 0 0.792 0.17 1.056 0.48l0.048 0.03 0.048 0.04c0.216 0.27 0.36 0.6 0.36 0.96v0.03l-0.36-0.96v0.05-0.03l0.024 0.05c0.24 0.24 0.384 0.6 0.384 0.94v0.02l-0.384-0.94 0.048 0.03c0.216 0.26 0.36 0.6 0.36 0.93v0.05l-0.36-0.96 0.024 0.03c0.216 0.26 0.36 0.6 0.36 0.96v0.09l-0.36-0.93 0.024 0.02c0.216 0.24 0.36 0.6 0.36 0.94v0.16c0 0.2-0.048 0.41-0.12 0.58l-0.024 0.05 0.12-0.58v0.12c0 0.34-0.12 0.67-0.36 0.94l-0.024 0.02-0.024 0.05 0.36-0.96c0 0.22-0.048 0.41-0.12 0.6l-0.024 0.05c-0.24 0.53-0.744 0.86-1.296 0.86h-0.024l1.416-1.44v0.05c0 0.36-0.12 0.7-0.36 0.96l-0.024 0.02-0.024 0.03-0.024 0.05v-0.03l-0.024 0.05-0.024 0.02-0.024 0.03c-0.264 0.31-0.648 0.48-1.056 0.48h-0.024l1.056-0.48-0.024 0.02-0.024 0.03c-0.096 0.12-0.24 0.21-0.384 0.31l-0.024 0.02 0.36-0.31-0.024 0.02c-0.168 0.2-0.36 0.34-0.576 0.41l-0.072 0.03 0.312-0.17-0.12 0.09c-0.096 0.08-0.192 0.12-0.312 0.15l-0.144 0.07-0.144 0.05 0.096-0.03-0.12 0.05-0.096 0.03-0.144 0.04-0.168 0.08-0.12 0.02-0.048 0.02-0.168 0.03-0.144 0.02-0.12 0.03-0.288 0.02h-0.288c-0.528 0-1.008-0.26-1.248-0.72-0.264-0.46-0.264-1.01 0-1.44 0.24-0.46 0.72-0.72 1.248-0.72h0.144-0.12l0.264-0.02-0.12 0.02 0.144-0.05 0.144-0.02-0.048 0.02 0.12-0.02-0.192 0.05 0.144-0.05-0.072 0.02 0.12-0.05 0.072-0.02 0.288-0.12-0.288 0.14 0.12-0.07c0.096-0.07 0.192-0.09 0.288-0.14l0.072-0.03-0.552 0.39 0.024-0.05c0.096-0.1 0.216-0.19 0.36-0.29l0.048-0.02-0.36 0.31 0.024-0.05 0.024-0.02c0.264-0.29 0.672-0.48 1.08-0.46h0.024l-1.08 0.46 0.024-0.03 0.048-0.04 0.024-0.03 0.024-0.02 0.024-0.05-0.384 0.96v-0.05c0-0.38 0.168-0.74 0.432-1.01 0.264-0.26 0.648-0.4 1.032-0.4h0.024l-1.32 0.84 0.024-0.08-0.144 0.58c0.024-0.36 0.144-0.7 0.384-0.96l0.024-0.02 0.024-0.03-0.384 0.96v-0.12c0-0.19 0.048-0.41 0.144-0.57l0.024-0.08-0.144 0.6v-0.16l0.384 0.96-0.048-0.03c-0.216-0.26-0.36-0.6-0.36-0.96v-0.09l0.36 0.96v-0.05c-0.24-0.27-0.36-0.6-0.36-0.94v-0.05l0.36 0.96-0.024-0.02c-0.24-0.26-0.36-0.6-0.36-0.96v-0.02l0.36 0.96-0.024-0.03-0.024-0.02c-0.24-0.27-0.384-0.6-0.384-0.96v-0.03l0.36 0.96-0.024-0.02v-0.05l-0.024-0.02 1.056 0.48h-0.024c-0.408 0-0.792-0.17-1.056-0.48l-0.048-0.03h0.024l-0.048-0.02v-0.02l1.056 0.48h-0.024c-0.408 0-0.792-0.2-1.056-0.48l-0.024-0.03 1.056 0.48h-0.048c-0.192 0-0.384-0.05-0.576-0.12l-0.312-0.14 0.072 0.02-0.144-0.05 0.24 0.08-0.144-0.03-0.048-0.02-0.12-0.03h0.048-0.144 0.264-0.12c-0.096 0-0.192 0-0.264-0.02l-0.144-0.02 0.264 0.02h-0.144 0.12l-0.96 0.07h0.12l-0.312 0.05h-0.072l-0.408 0.05 0.24-0.05-0.168 0.05-0.168 0.07-0.336 0.1 0.408-0.22-0.144 0.12c-0.12 0.07-0.264 0.14-0.408 0.19l-0.168 0.07 0.408-0.21-0.144 0.09c-0.072 0.05-0.144 0.1-0.24 0.15l-0.168 0.07 0.24-0.12-0.144 0.1-0.144 0.09 0.216-0.17-0.12 0.12c-0.072 0.08-0.144 0.15-0.216 0.2l-0.096 0.04 0.456-0.52-0.024 0.04c-0.144 0.29-0.336 0.51-0.624 0.65l-0.048 0.03 0.36-0.27-0.024 0.03 0.384-0.87v0.03c0 0.16-0.048 0.33-0.12 0.5l-0.024 0.05c-0.072 0.14-0.168 0.26-0.264 0.36l-0.024 0.05 0.384-0.89v0.02c0 0.19-0.048 0.36-0.144 0.51l-0.024 0.04c-0.048 0.15-0.144 0.27-0.264 0.39l-0.024 0.02 0.408-0.91v0.1c-0.024 0.19-0.072 0.4-0.168 0.6l-0.024 0.04 0.168-0.6-0.024 0.05v0.07-0.02 0.12-0.05 0.15l-0.096-0.6 0.024 0.04c0.072 0.2 0.096 0.39 0.096 0.58v0.12-0.05 0.05l-0.288-0.89 0.024 0.03v0.02c0.216 0.26 0.312 0.58 0.312 0.89v0.07l-0.312-0.89 0.024 0.03 0.024 0.02c0.192 0.26 0.312 0.58 0.312 0.89l-0.024 0.05-0.288-0.89 0.024 0.05 0.024 0.02-0.336-0.31 0.024 0.02c0.432 0.27 0.672 0.7 0.648 1.18v0.07l-1.224-1.37h0.024c0.216 0 0.408 0.07 0.576 0.17l0.048 0.05c0.144 0.07 0.264 0.17 0.36 0.29l0.024 0.04c0.192 0.24 0.312 0.58 0.288 0.92v0.02l-0.648-1.22 0.096 0.04-0.096-0.04 0.408 0.21-0.216-0.09 0.144 0.04c0.072 0.03 0.144 0.05 0.192 0.08l0.144 0.07-0.24-0.1 0.168 0.05 0.048 0.02 0.12 0.03 0.144 0.05-0.048-0.03 0.168 0.05-0.168-0.02 0.144 0.02h-0.024 0.168-0.192 0.168l0.144-0.02h0.168-0.024l0.12-0.03h0.024l0.192-0.02-0.216 0.05 0.144-0.05 0.144-0.03 0.168-0.04-0.168 0.04 0.144-0.04 0.168-0.08c0.48-0.21 1.056-0.02 1.296 0.44 0.264 0.45 0.144 1.05-0.312 1.36z"/>
  <path transform="matrix(1.3333 0 0 -1.3333 0 1120.8)" d="m68.208 739.42v-0.46 0.02l0.048-2.2 0.096-2.67 0.024-0.17 0.024-0.16c0.072-0.39 0.36-0.72 0.744-0.87 0.384-0.12 0.816-0.02 1.104 0.24 0.312 0.27 0.456 0.67 0.36 1.08l-0.024 0.15 0.024-0.17-0.144 2.66v-0.02l-0.072 2.21-0.024 0.04-0.024 0.46c-0.048 0.58-0.576 1.01-1.152 0.96-0.576-0.02-1.008-0.53-0.984-1.1z"/>
  <path transform="matrix(1.3333 0 0 -1.3333 0 1120.8)" d="m49.272 727.63-0.6 0.05c-0.672 0.07-1.272-0.43-1.368-1.1-0.096-0.68 0.36-1.3 1.032-1.44l0.936-0.17c0.072 0 0.168-0.03 0.24-0.03l5.448-0.12h-0.024l1.224-0.04h0.024l3.432-0.08h0.36c0.6 0 1.152 0.32 1.44 0.84 0.312 0.51 0.312 1.16 0 1.66-0.288 0.53-0.84 0.84-1.44 0.84h-0.36l-3.432-0.05h0.024l-1.248-0.02h-0.024l-5.424-0.17h-0.144l-0.936-0.12c-0.504-0.07-0.912-0.41-1.08-0.86-0.144-0.48-0.024-0.99 0.336-1.35 0.336-0.33 0.864-0.43 1.32-0.26l0.552 0.19c0.528 0.19 0.816 0.7 0.744 1.25-0.072 0.53-0.504 0.93-1.032 0.98z"/>
  <path transform="matrix(1.3333 0 0 -1.3333 0 1120.8)" d="m47.016 732.22v-1.35l0.024-1.15 0.072-2.64 0.024-0.07 0.024-0.46v0.1c0-0.82 0.672-1.49 1.488-1.49s1.488 0.67 1.488 1.49l-0.024 0.19-0.048 0.46 0.024-0.08-0.168 2.64-0.024 0.05-0.096 1.15v0.05l-0.168 1.27c-0.072 0.7-0.672 1.2-1.368 1.16-0.696-0.03-1.248-0.6-1.248-1.32z"/>
  <path transform="matrix(1.3333 0 0 -1.3333 0 1120.8)" d="m49.32 725.57 0.144 0.07-0.192-0.07 0.552 0.14v0.03l0.456 0.12 0.168 0.07 0.264 0.12 0.096 0.05 0.192 0.09-0.072-0.02 0.192 0.09-0.072-0.04 0.456 0.19h0.024l0.672 0.29 0.024 0.02 1.272 0.55 1.128 0.53-0.024-0.02 0.84 0.36v0.02l0.768 0.34 0.936 0.4 0.024 0.03 1.128 0.5h-0.024l0.696 0.31-0.048-0.02 0.48 0.19c0.072 0.03 0.144 0.05 0.192 0.1l0.24 0.12-0.168-0.07 0.072 0.02c0.096 0.05 0.216 0.1 0.312 0.19l0.048 0.03-0.312-0.17 0.048 0.02c0.12 0.03 0.216 0.1 0.312 0.17l0.048 0.05-0.36-0.22 0.144 0.07-1.2 0.17c0.072-0.07 0.168-0.12 0.264-0.14v-0.03l-0.264 0.17 0.024-0.02-0.528 0.84v-0.03l0.048-0.14v-0.02c0.12-0.39 0.384-0.68 0.744-0.82v-0.02l-0.792 1.46c-0.072-0.5 0.12-1.01 0.528-1.32l-0.48 0.67v-0.02l-0.024 0.65c-0.024-0.15-0.048-0.27-0.024-0.41l0.024-0.17v0.07l0.024-0.41v0.12-0.16l0.048-1.64 0.072-2.01v0.05-0.08c0-0.81 0.672-1.46 1.488-1.46s1.488 0.65 1.488 1.46v0.15l-0.12 2.01v0.05l-0.144 1.63-0.024 0.2-0.024 0.09 0.024-0.07-0.072 0.41c-0.024 0.14-0.072 0.29-0.12 0.41l-0.096 0.14 0.144-0.38c-0.072 0.43-0.36 0.81-0.744 1-0.456 0.24-1.008 0.2-1.44-0.12-0.528-0.4-0.696-1.12-0.384-1.7 0.288-0.6 0.984-0.89 1.608-0.67 0.648 0.21 1.032 0.86 0.912 1.51-0.072 0.43-0.312 0.77-0.696 0.96-0.36 0.22-0.792 0.22-1.176 0.07l1.128-0.05v0.03c-0.384 0.17-0.816 0.17-1.2 0-0.384-0.19-0.648-0.55-0.72-0.96l0.528 0.81h-0.024l0.264 0.15c-0.096-0.05-0.192-0.1-0.264-0.15l0.264 0.15-0.144-0.07c-0.144-0.05-0.288-0.15-0.408-0.27l-0.048-0.02 0.312 0.21-0.072-0.04c-0.12-0.05-0.216-0.12-0.288-0.22l-0.048-0.05 0.288 0.24-0.048-0.05-0.12-0.04-0.216-0.15 0.192 0.1-0.48-0.22h-0.048l-0.696-0.33-1.104-0.53 0.024 0.02-0.96-0.43-0.768-0.34h0.024l-0.84-0.36-0.024-0.02-1.128-0.5-1.248-0.58-0.672-0.29h0.048l-0.456-0.17-0.12-0.07-0.192-0.09-0.24-0.15 0.048 0.03-0.288-0.15 0.12 0.05-0.408-0.17-0.096-0.05-0.504-0.26c-0.096-0.05-0.168-0.1-0.24-0.17l-0.12-0.12c-0.408-0.36-0.48-0.98-0.168-1.46 0.312-0.46 0.912-0.6 1.416-0.36z"/>
  <path transform="matrix(1.3333 0 0 -1.3333 0 1120.8)" d="m49.416 733.03-0.216 0.19c-0.528 0.51-1.32 0.48-1.8-0.02-0.504-0.48-0.504-1.27-0.024-1.78l0.384-0.38c0.072-0.1 0.192-0.17 0.288-0.24l2.64-1.58h-0.024l0.6-0.36 0.048-0.03 1.656-0.98 0.024-0.03 0.168-0.09c0.528-0.29 1.176-0.29 1.68 0.02 0.528 0.31 0.816 0.87 0.816 1.47s-0.36 1.15-0.888 1.44l-0.168 0.09-0.024 0.03-1.752 0.86-0.624 0.31h-0.024l-2.76 1.37c-0.096 0.02-0.168 0.07-0.264 0.07l-0.504 0.15c-0.504 0.14-1.032-0.03-1.344-0.44-0.312-0.38-0.36-0.93-0.144-1.39 0.24-0.43 0.72-0.72 1.224-0.69l0.312 0.02c0.456 0.02 0.84 0.34 1.008 0.77 0.144 0.41 0.048 0.89-0.288 1.22z"/>
  <path transform="matrix(1.3333 0 0 -1.3333 0 1120.8)" d="m59.088 739.3h-0.072c-0.456-0.12-0.768-0.51-0.816-0.96v-0.68l0.048-0.88v0.04-2.95l0.024 0.1-0.024-0.07v-0.1l0.072-2.93v0.12-0.36l-0.024-0.07v-0.1c0-0.5 0.264-0.98 0.696-1.22 0.432-0.26 0.96-0.26 1.392 0 0.456 0.24 0.696 0.72 0.696 1.22v0.1-0.05 0.36c0 0.07 0 0.15-0.024 0.22l-0.408 2.9 0.024-0.09v0.07l-0.024 0.05-0.192 2.01v-0.05l-0.024 0.63v-0.05 0.34l-0.072 0.91v-0.07 0.31-0.07 0.16l-0.144-0.45 0.024 0.05c0.24 0.36 0.216 0.84-0.048 1.17-0.264 0.34-0.696 0.51-1.104 0.39z"/>
  <path transform="matrix(1.3333 0 0 -1.3333 0 1120.8)" d="m58.536 737.86 0.024-0.03-0.12 0.27v-0.05c0.072-0.17 0.168-0.34 0.288-0.48l0.024-0.03-0.312 0.63v-0.03l0.024-0.14 0.024-0.02c0.096-0.34 0.336-0.6 0.672-0.72l0.024-0.03-0.384 0.27 0.024-0.03-0.144 0.15 0.048-0.05c0.096-0.15 0.216-0.27 0.384-0.34l0.048-0.02-0.24 0.17 0.552-0.53 0.12-0.1 1.08-0.84 0.096-0.05 1.464-0.93h-0.024l0.072-0.05c0.408-0.26 0.912-0.31 1.344-0.1 0.456 0.22 0.72 0.65 0.768 1.13 0.024 0.48-0.216 0.94-0.624 1.2l-0.072 0.05-0.048 0.02-1.488 0.92 0.024-0.03-1.152 0.75-0.072 0.04-0.696 0.39c-0.168 0.09-0.36 0.14-0.552 0.14h-0.072l0.696-0.21-0.048 0.02c-0.168 0.1-0.312 0.19-0.504 0.22h-0.024c-0.192 0.02-0.384 0-0.576-0.08h-0.024l0.696 0.03 0.48-0.29-0.024 0.02c-0.168 0.17-0.384 0.29-0.624 0.32h-0.024l0.144-0.03-0.024 0.03h-0.024l0.264-0.12-0.024 0.02c-0.432 0.24-0.96 0.19-1.296-0.17-0.36-0.33-0.408-0.86-0.168-1.29z"/>
  <path transform="matrix(1.3333 0 0 -1.3333 0 1120.8)" d="m57.264 732.94h0.288c0.096 0 0.192 0.02 0.288 0.04l0.432 0.12-0.072-0.02 0.408 0.1 0.048 0.02 0.888 0.22 0.936 0.24-0.096-0.03 0.888 0.17 0.072 0.02 1.704 0.41-0.192-0.05 0.168 0.03h-0.096 0.048c0.792 0 1.416 0.62 1.416 1.39 0 0.79-0.624 1.42-1.416 1.42h-0.336c-0.096-0.03-0.192-0.03-0.288-0.05l-1.704-0.48 0.048 0.02-0.864-0.21-0.12-0.03-0.936-0.33h-0.024l-0.864-0.34 0.024 0.02-0.384-0.14h-0.048l-0.408-0.17 0.096 0.03-0.264-0.08c-0.576-0.16-0.936-0.74-0.84-1.32 0.096-0.6 0.6-1.03 1.2-1z"/>
  <path transform="matrix(1.3333 0 0 -1.3333 0 1120.8)" d="m52.176 738.41v-0.03l0.024 0.12v-0.04l0.288 0.48-0.024-0.03c-0.216-0.21-0.36-0.53-0.336-0.84v-0.05l0.024 0.32v-0.05c-0.024-0.12-0.048-0.24-0.048-0.34v-0.05l0.048 0.34-0.024-0.05c-0.024-0.12-0.024-0.24-0.024-0.36v-0.02 0.02-0.09c0-0.1 0.024-0.17 0.048-0.24l0.024-0.1-0.048 0.31v-0.07c0-0.07 0-0.17 0.024-0.24l0.504-2.45v-0.05l0.336-1.39 0.024-0.02 0.576-2.26 0.168-0.69 0.048-0.08 0.024-0.09-0.024 0.09 0.024-0.09-0.048 0.14 0.024-0.09v0.04-0.09 0.09-0.12 0.1-0.22 0.1l-0.024-0.19c-0.024-0.51 0.192-0.99 0.6-1.27 0.432-0.27 0.96-0.32 1.392-0.08 0.456 0.22 0.744 0.65 0.768 1.16l0.024 0.21v0.29l-0.024 0.1v0.12l-0.024 0.09v0.1l-0.024 0.02v0.1l-0.048 0.14-0.024 0.1-0.048 0.09-0.024 0.08 0.024-0.1-0.192 0.67-0.696 2.26v-0.03l-0.408 1.4 0.024-0.05-0.648 2.4 0.024-0.05-0.024 0.07c0 0.07-0.024 0.15-0.048 0.19l-0.024 0.08v-0.03 0.03l0.024-0.05-0.024 0.05-0.048 0.14-0.024 0.02 0.12-0.52v0.04c0 0.12-0.024 0.27-0.048 0.39l-0.024 0.02 0.024-0.02h-0.024l0.048-0.31v0.04c0 0.12-0.024 0.24-0.048 0.36l-0.024 0.05-0.072-0.86 0.024 0.05c0.072 0.14 0.12 0.31 0.12 0.48v0.02c0 0.1 0 0.19-0.024 0.26v0.03c-0.096 0.53-0.552 0.91-1.104 0.91-0.528 0-0.984-0.38-1.104-0.91z"/>
  <g>
   <path transform="matrix(1.3333 0 0 -1.3333 0 1120.8)" d="m52.512 737.74 0.12-0.15c0.24-0.29 0.6-0.43 0.984-0.43h0.048l-0.456 0.07 0.048-0.02c0.144-0.05 0.288-0.07 0.432-0.07h0.24l0.12 0.02h-0.048 0.024-0.024 0.12l-0.456 0.05h0.048c0.192-0.05 0.384-0.07 0.576-0.05l0.12 0.02-0.24-0.02h0.168c0.552-0.02 1.08 0.26 1.344 0.74s0.24 1.08-0.072 1.54-0.84 0.7-1.392 0.62l-0.168-0.02c-0.072 0-0.168-0.02-0.264-0.05l-0.12-0.05 0.048 0.03h-0.048c-0.072-0.03-0.144-0.07-0.216-0.1l-0.048-0.02-0.048-0.03-0.168-0.09-0.048-0.03 0.312 0.17-0.12-0.05c-0.12-0.04-0.264-0.12-0.384-0.19l-0.024-0.02-0.024-0.05 0.36 0.22-0.048-0.03c-0.12-0.05-0.24-0.09-0.36-0.19l-0.264-0.22c-0.216-0.19-0.36-0.48-0.36-0.79-0.024-0.31 0.072-0.6 0.288-0.81z"/>
   <path transform="matrix(1.3333 0 0 -1.3333 0 1120.8)" d="m55.68 740.18-0.144 0.2 0.144-0.22-0.312 0.58 0.072-0.17-0.096 0.21c-0.024 0.08-0.072 0.17-0.12 0.24l-0.072 0.1 0.048-0.05-0.048 0.07 0.12-0.28-0.024 0.12c-0.024 0.04-0.048 0.12-0.072 0.16l-0.072 0.12 0.096-0.26-0.024 0.12-0.024 0.07-0.024 0.1 0.048-0.15-0.072 0.24 0.048-0.24-0.024 0.2-0.024 0.14-0.048 0.17 0.048-0.29-0.024 0.19v0.17-0.19l0.024 0.53 0.024 0.12v0.09l-0.024-0.21 0.024 0.12-0.072-0.29 0.024 0.09c0.024 0.1 0.048 0.2 0.072 0.29v0.1l-0.12-0.48 0.024 0.09c0.048 0.08 0.072 0.15 0.096 0.22l0.024 0.1-0.072-0.22 0.048 0.1-0.096-0.17 0.048 0.09c0.048 0.05 0.072 0.12 0.096 0.2l0.048 0.09-0.12-0.21 0.144 0.24-0.048-0.08 0.072 0.12-0.072-0.12 0.048 0.08 0.096 0.12 0.048 0.09-0.072-0.14 0.048 0.07 0.096 0.12 0.048 0.1-0.216-0.27 0.072 0.07c0.024 0.05 0.072 0.08 0.12 0.15l0.048 0.07-0.264-0.29 0.072 0.05 0.072 0.07 0.168 0.15 0.048 0.07h0.024l-0.288-0.24 0.216 0.17-0.096-0.08 0.552 0.32-0.12-0.08 0.096 0.05h-0.024l0.072 0.03-0.192-0.08 0.096 0.03 0.096 0.05 0.072 0.02-0.264-0.07h0.096l0.168 0.05 0.096 0.04-0.168-0.04h0.072l-0.24-0.03 0.264 0.03h-0.024 0.12-0.24 0.12l0.12-0.03h0.12l-0.312 0.05 0.312-0.07-0.096 0.02 0.168-0.05 0.144-0.04h-0.048l0.144-0.05-0.12 0.05 0.144-0.05-0.072 0.02 0.144-0.07-0.12 0.07 0.312-0.19-0.096 0.07 0.12-0.09-0.072 0.07 0.12-0.12-0.072 0.07 0.12-0.12 0.12-0.1h-0.024l0.12-0.12-0.12 0.17 0.096-0.14-0.096 0.12 0.264-0.36-0.048 0.07 0.168-0.24 0.12-0.24-0.096 0.19 0.12-0.26v0.02l0.24-0.53-0.072 0.2 0.048-0.22 0.024-0.02 0.072-0.17-0.048 0.09 0.048-0.16-0.024 0.12 0.048-0.2 0.024-0.14 0.048-0.17-0.048 0.24 0.024-0.19v-0.19 0.09-0.19l0.024-0.19v0.24l-0.024-0.19v-0.24-0.19l0.024 0.33-0.024-0.21v0.02l-0.048-0.17 0.024 0.07-0.12-0.45 0.144 0.36-0.048-0.07c-0.048-0.1-0.096-0.22-0.12-0.32l-0.024-0.07 0.168 0.36-0.048-0.09 0.072 0.12-0.048-0.08c-0.072-0.09-0.12-0.16-0.168-0.28h-0.024c-0.336-0.75-0.024-1.61 0.696-2 0.744-0.36 1.632-0.07 2.016 0.65l-0.168-0.26 0.048 0.07 0.096 0.1 0.048 0.09c0.096 0.12 0.144 0.24 0.192 0.36l0.024 0.07-0.144-0.28 0.048 0.04c0.072 0.15 0.144 0.29 0.192 0.44l0.12 0.45 0.024 0.03 0.024 0.19 0.024 0.02 0.048 0.19c0.024 0.1 0.024 0.22 0.048 0.32v0.19l-0.024-0.22 0.024 0.17c0.024 0.07 0.024 0.17 0.024 0.24l0.024 0.19v0.51l-0.024 0.19c0 0.09 0 0.17-0.024 0.26l-0.024 0.17v-0.12 0.19l-0.024 0.12-0.048 0.19-0.024 0.12-0.048 0.17v-0.02l-0.048 0.19c-0.024 0.1-0.048 0.17-0.072 0.22l-0.216 0.52 0.024-0.02-0.12 0.26c-0.024 0.08-0.048 0.15-0.072 0.2l-0.144 0.24v0.02l-0.12 0.24-0.096 0.12-0.24 0.36-0.024 0.05-0.096 0.14c-0.048 0.05-0.072 0.1-0.144 0.15l-0.192 0.24-0.12 0.12-0.072 0.07-0.12 0.12-0.072 0.07-0.144 0.1-0.144 0.12-0.312 0.19-0.072 0.05-0.192 0.12-0.144 0.07-0.12 0.07-0.144 0.05-0.048 0.02-0.144 0.07-0.168 0.05-0.168 0.07-0.312 0.1-0.168 0.02-0.12 0.03-0.12 0.02-0.096 0.03c-0.072 0-0.144 0.02-0.216 0.02h-0.552l-0.144-0.02h-0.072c-0.096-0.03-0.144-0.03-0.216-0.05l-0.096-0.03 0.192 0.03h-0.072c-0.096-0.03-0.192-0.03-0.264-0.05l-0.096-0.02h0.072l-0.096-0.03-0.168-0.05-0.072-0.02-0.048-0.02-0.12-0.03c-0.048-0.02-0.12-0.07-0.192-0.09l-0.552-0.32-0.072-0.02-0.216-0.14c-0.12-0.08-0.24-0.17-0.36-0.27v-0.02l0.048 0.07-0.144-0.14 0.096 0.07-0.072-0.05c-0.12-0.1-0.216-0.19-0.288-0.29l-0.048-0.07 0.12 0.14-0.072-0.07c-0.072-0.07-0.144-0.17-0.216-0.26l-0.072-0.07 0.096 0.12-0.048-0.08-0.144-0.21 0.096 0.12-0.072-0.05-0.096-0.14-0.072-0.12-0.072-0.1-0.144-0.24c-0.024-0.07-0.072-0.12-0.096-0.22l-0.024-0.09 0.072 0.19-0.048-0.1c-0.024-0.04-0.072-0.12-0.096-0.19l-0.048-0.09c-0.024-0.08-0.048-0.15-0.072-0.22l-0.024-0.1 0.072 0.22-0.024-0.1c-0.072-0.16-0.12-0.31-0.144-0.48l-0.024-0.12 0.072 0.27-0.024-0.1c-0.024-0.09-0.048-0.17-0.072-0.26v-0.12c0-0.07-0.024-0.15-0.024-0.22v-0.09 0.07l-0.024-0.53c0-0.1 0-0.17 0.024-0.26l0.024-0.2v-0.16c0.024-0.12 0.048-0.22 0.072-0.32l0.048-0.16-0.048 0.16 0.048-0.16c0-0.08 0.024-0.15 0.048-0.24l0.072-0.22c0.024-0.1 0.072-0.17 0.12-0.26l0.024-0.1-0.024 0.1 0.048-0.12c0.024-0.08 0.072-0.17 0.12-0.24l0.072-0.1-0.096 0.17 0.048-0.1c0.048-0.09 0.096-0.19 0.168-0.29l0.072-0.07 0.024-0.02 0.072-0.1-0.096 0.15 0.12-0.22c0.048-0.05 0.096-0.12 0.144-0.17l0.432-0.5c0.048-0.07 0.096-0.12 0.168-0.17l0.168-0.14c0.624-0.53 1.56-0.51 2.16 0.04 0.6 0.58 0.672 1.52 0.144 2.16z"/>
  </g>
  <path transform="matrix(1.3333 0 0 -1.3333 0 1120.8)" d="m52.44 739.1-0.072-0.04c-0.096-0.12-0.192-0.24-0.264-0.36l-0.24-0.51-0.648-1.41 0.048 0.12-0.72-1.23-0.024-0.02-0.048-0.12c-0.24-0.43-0.24-0.96 0.024-1.37s0.744-0.65 1.224-0.62c0.504 0.04 0.936 0.36 1.128 0.81l0.048 0.1 0.6 1.29 0.024 0.08 0.528 1.46 0.048 0.14 0.12 0.56c0.048 0.21 0.048 0.4-0.024 0.6l-0.024 0.09c-0.12 0.34-0.408 0.6-0.744 0.7-0.36 0.07-0.72-0.03-0.984-0.27z"/>
  <path transform="matrix(1.3333 0 0 -1.3333 0 1120.8)" d="m47.448 736.85v-0.07c0.024-0.34 0.192-0.65 0.456-0.87l0.288-0.26v0.02l0.312-0.29-0.072 0.08 0.12-0.15 0.072-0.05 0.36-0.33 0.024-0.03 0.36-0.28-0.096 0.07 0.12-0.12 0.12-0.1 0.12-0.12 0.12-0.09-0.048 0.07 0.12-0.12c0.048-0.05 0.12-0.1 0.192-0.15l0.144-0.09 0.144-0.07 0.096-0.05 0.36-0.19 0.168-0.08 0.096-0.02c0.432-0.17 0.936-0.05 1.296 0.26 0.36 0.32 0.528 0.8 0.432 1.28s-0.432 0.84-0.888 1l-0.096 0.03 0.192-0.07-0.36 0.16 0.072-0.04-0.144 0.09-0.144 0.07 0.216-0.14-0.144 0.12-0.048 0.05-0.144 0.09-0.12 0.1 0.12-0.1-0.192 0.2-0.36 0.28 0.024-0.02-0.36 0.34 0.048-0.05-0.12 0.12-0.072 0.05-0.336 0.28-0.024 0.03-0.336 0.24c-0.168 0.17-0.408 0.24-0.648 0.26l-0.072 0.03c-0.384 0.02-0.744-0.1-1.008-0.36-0.264-0.27-0.408-0.65-0.36-1.01z"/>
  <path transform="matrix(1.3333 0 0 -1.3333 0 1120.8)" d="m53.52 742.37 0.168-0.12c0.096-0.07 0.216-0.15 0.36-0.17l0.048-0.02-0.168 0.07 0.072-0.05 0.192-0.05 0.048-0.02-0.048 0.02 0.048-0.02-0.048 0.02 0.072-0.05 0.12-0.02 0.072-0.02c0.072-0.03 0.168-0.03 0.24-0.03h0.192l-0.216 0.03 0.336-0.08-0.096 0.03 0.144-0.05-0.12 0.05 0.12-0.07-0.048 0.02 0.336-0.14h-0.024l0.36-0.2-0.024 0.03 0.072-0.05 0.096-0.05 0.072-0.02 0.072-0.05-0.36 0.29 0.12-0.15c0.384-0.43 1.008-0.6 1.536-0.36 0.552 0.22 0.864 0.77 0.816 1.37-0.072 0.58-0.504 1.06-1.08 1.15l-0.024 0.03c-0.384 0.07-0.816-0.03-1.128-0.29s-0.504-0.62-0.528-1.03v-0.07c0-0.1 0-0.2 0.024-0.27v-0.09 0.04l0.024-0.07v-0.12l0.024-0.09v0.04-0.07c0.024-0.09 0.024-0.21 0.072-0.31l0.024-0.05 0.024-0.07v-0.02l0.024-0.05 0.048-0.12 0.048-0.1-0.024 0.03 0.048-0.05 0.048-0.12 0.024-0.07 0.12-0.2 0.048-0.04 0.072-0.1 0.12-0.17 0.024-0.02 0.12-0.15 0.144-0.16 0.12-0.12c0.048-0.08 0.096-0.12 0.144-0.17l0.312-0.27-0.048 0.03 0.312-0.29-0.024 0.02 0.168-0.16-0.144 0.16 0.168-0.21 0.072-0.07 0.144-0.2-0.12 0.17 0.144-0.24 0.024-0.05 0.336-0.48-0.024 0.05 0.024-0.05 0.024-0.04c0.072-0.08 0.12-0.15 0.192-0.24l0.072-0.05h-0.024l0.048-0.03-0.192 0.22 0.024-0.02c0.12-0.17 0.264-0.32 0.432-0.44l0.024-0.02-0.048 0.05 0.048-0.05c0.072-0.05 0.144-0.12 0.216-0.14l0.072-0.03-0.408 0.27 0.048-0.03c0.12-0.12 0.24-0.21 0.36-0.26l0.168-0.1 0.048-0.02 0.048-0.03c0.744-0.38 1.656-0.07 2.04 0.68 0.36 0.74 0.048 1.65-0.696 2.01l-0.048 0.03h0.048l-0.168 0.07 0.336-0.24-0.048 0.05c-0.12 0.09-0.24 0.19-0.384 0.26l-0.048 0.02 0.216-0.14-0.048 0.05-0.072 0.05-0.048 0.02 0.432-0.41-0.048 0.05c-0.048 0.07-0.12 0.14-0.168 0.22l-0.048 0.04-0.048 0.05 0.168-0.21-0.024 0.04-0.024 0.03-0.024 0.05-0.336 0.45-0.168 0.24c-0.048 0.05-0.096 0.1-0.144 0.15l-0.168 0.19 0.072-0.07-0.168 0.19c-0.048 0.05-0.12 0.12-0.168 0.17l-0.192 0.14-0.312 0.29h-0.024l-0.312 0.26 0.12-0.09-0.12 0.12-0.144 0.16-0.144 0.12 0.072-0.04-0.144 0.16 0.024-0.02-0.048 0.05 0.072-0.12-0.024 0.07-0.048 0.07 0.048-0.09-0.048 0.04h0.024l-0.048 0.08 0.048-0.1-0.024 0.07-0.048 0.07-0.024 0.08 0.096-0.29-0.024 0.07v0.05l-0.024 0.07 0.024-0.05-0.024 0.1-0.024 0.07v0.05l-0.024 0.07 0.024-0.26v0.07 0.21l-0.024 0.05c-0.072 0.41-0.36 0.77-0.744 0.94-0.384 0.19-0.84 0.17-1.2-0.05l-0.168-0.07 0.768 0.12-0.096 0.02-0.072 0.03h-0.096l-0.072 0.02 0.168-0.05-0.36 0.12 0.072-0.02-0.336 0.14-0.168 0.05-0.12 0.02-0.12 0.03-0.12 0.02h-0.024l-0.36 0.05h-0.312 0.168-0.072l0.144-0.02-0.192 0.04h-0.096l-0.072 0.03 0.192-0.05-0.072 0.02-0.192 0.05h-0.072l0.264-0.07-0.168 0.07c-0.456 0.22-1.008 0.05-1.272-0.41-0.24-0.43-0.12-1 0.264-1.29z"/>
 </g>
</svg>
