<svg width="78.447" height="38.147" version="1.1" viewBox="0 0 78.447 38.147" xmlns="http://www.w3.org/2000/svg">
 <g transform="translate(-604.41 -117.31)">
  <path transform="matrix(1.3333 0 0 -1.3333 0 1120.8)" d="m466.7 749.3-0.45 0.2c-0.07 0.02-0.15 0.07-0.22 0.07l-0.07 0.02 0.72-0.57-0.02 0.02c-0.08 0.22-0.22 0.36-0.44 0.48l-0.07 0.05 0.43-0.48-0.02 0.05c-0.07 0.19-0.22 0.36-0.41 0.48l-0.07 0.02c-0.1 0.05-0.17 0.1-0.26 0.12h-0.12l-0.08 0.02-0.07 0.03 0.31-0.12h-0.02c-0.12 0.07-0.29 0.12-0.43 0.14l-0.22 0.03 0.17-0.05-0.34 0.07 0.17-0.02-0.41 0.14c-0.07 0.02-0.14 0.05-0.24 0.05l-0.38 0.07h-0.12l-1.18 0.07-0.57 0.05h-0.05l-1.01 0.02-0.12-0.02-0.67-0.02h-0.1l-1.08-0.17h-0.02l-0.41-0.05-0.14-0.02-0.27-0.05 0.2 0.02-0.27-0.02c-0.07-0.03-0.14-0.05-0.21-0.05l-0.58-0.14-0.14-0.08-0.46-0.16h0.02l-0.69-0.29c-0.1-0.05-0.22-0.1-0.31-0.17l-0.6-0.43c-0.08-0.05-0.12-0.1-0.2-0.17l-0.36-0.36 0.08 0.07-0.41-0.38 0.07 0.07-0.29-0.22 0.99 0.32h-0.03c-0.45 0.02-0.86-0.17-1.17-0.48l-0.05-0.05 0.02 0.02-0.02-0.02 1.13 0.43h-0.03c-0.41 0-0.79-0.12-1.08-0.38-0.29-0.29-0.48-0.65-0.48-1.06v-0.02l0.39 0.96-0.05-0.05-0.03-0.05c-0.24-0.26-0.4-0.6-0.4-0.96v-0.02l0.12 0.55-0.03-0.05-0.02-0.07c-0.07-0.17-0.15-0.39-0.15-0.6v-0.05l0.41 0.98v-0.02c-0.17-0.17-0.29-0.36-0.36-0.6l-0.02-0.07c-0.05-0.12-0.07-0.27-0.07-0.39v-0.02l0.12 0.55-0.03-0.07c-0.07-0.17-0.12-0.38-0.12-0.6v-0.36-0.26l0.05-0.32c0.05-0.26 0.17-0.52 0.36-0.74l0.02-0.02-0.24 0.38 0.03-0.07-0.12 0.62v-0.02c-0.03-0.39 0.12-0.75 0.36-1.03l0.02-0.03 0.03-0.02-0.24 0.38 0.04-0.07c0.05-0.14 0.12-0.26 0.24-0.38l0.03-0.03c0.29-0.33 0.69-0.53 1.13-0.53h0.02l-1.37 0.92 0.03-0.05c0.12-0.31 0.36-0.55 0.64-0.72l0.05-0.05-0.77 1.34v-0.02c0-0.41 0.15-0.79 0.44-1.08 0.28-0.31 0.67-0.48 1.08-0.48h0.04l-1.12 0.53 0.02-0.03 0.02-0.02 0.03-0.02c0.19-0.24 0.45-0.41 0.74-0.48l0.12-0.05-0.36 0.17 0.12-0.08 0.12-0.04 0.15-0.1c0.09-0.02 0.16-0.07 0.28-0.1l0.12-0.02-0.19 0.05 0.36-0.12c0.1-0.05 0.19-0.07 0.31-0.07l0.68-0.12 0.67-0.1h0.14l0.67-0.05h1.68l4.92 0.19h-0.02l4.58 0.05h-0.02l1.27-0.02h0.05l2.23 0.02 0.15 0.03 2.35 0.24-0.12-0.03h0.02c0.89 0.03 1.61 0.75 1.61 1.63 0 0.92-0.72 1.64-1.61 1.64l-0.02 0.02c-0.1 0-0.17-0.02-0.22-0.02l-2.35-0.27 0.14 0.03-2.23-0.08h-1.29l-4.59-0.09h-0.05l-4.94-0.24h0.07-1.53 0.07l-0.67 0.02 0.14-0.02-0.67 0.09-0.67 0.1 0.33-0.07-0.33 0.12c-0.08 0.02-0.15 0.05-0.22 0.05l-0.14 0.02 0.28-0.07-0.12 0.05 0.12-0.05-0.12 0.05c-0.12 0.07-0.21 0.12-0.33 0.14l-0.1 0.02 0.72-0.45-0.07 0.07-0.02 0.05c-0.29 0.31-0.72 0.5-1.16 0.48h-0.04l1.53-1.49v0.02c0 0.56-0.31 1.06-0.77 1.3l-0.07 0.05 0.65-0.72-0.02 0.07c-0.24 0.58-0.82 0.91-1.42 0.91h-0.02l1.15-0.5-0.03 0.02 0.24-0.38-0.02 0.05c-0.05 0.14-0.14 0.26-0.26 0.38l-0.03 0.05-0.02 0.02 0.38-0.98v0.02c0 0.22-0.05 0.41-0.12 0.6l-0.02 0.05c-0.07 0.17-0.15 0.29-0.27 0.41l-0.02 0.05 0.36-0.75-0.05 0.31 0.03-0.26-0.03 0.17v0.19l-0.09-0.6v0.07c0.09 0.19 0.14 0.41 0.12 0.65v0.02l-0.05-0.48 0.02 0.1-0.29-0.55 0.05 0.05c0.22 0.26 0.34 0.62 0.31 0.98v0.05l-0.09-0.6 0.02 0.07 0.03 0.05c0.09 0.19 0.12 0.43 0.12 0.65v0.02l-0.36-1.01 0.04 0.03v0.02l0.05 0.05c0.24 0.29 0.36 0.65 0.34 1.01v0.02l-1.42-1.54h0.03c0.43 0.03 0.84 0.22 1.1 0.58l0.02 0.02-0.02-0.02 0.05 0.05-1.06-0.53h0.03c0.31 0.02 0.62 0.14 0.86 0.34l0.29 0.24 0.05 0.07 0.43 0.38 0.05 0.05 0.38 0.41-0.17-0.17 0.58 0.46-0.29-0.17 0.65 0.29h-0.03l0.46 0.19-0.17-0.05 0.55 0.17-0.19-0.05 0.24 0.02 0.17 0.03 0.26 0.07-0.14-0.02 0.43 0.07h-0.02l1.1 0.17h-0.07l0.67 0.07h-0.12l1.01 0.02h0.05l0.57 0.05 1.18 0.05 0.12 0.02 0.38 0.05h-0.26l0.41-0.02 0.14-0.03 0.31 0.03h0.27c0.14 0.02 0.31 0.07 0.43 0.14h0.02l-0.31-0.12 0.07 0.02 0.08 0.03h0.04l0.08 0.02-0.46-0.02h0.07l-0.29 0.09 0.05-0.02c0.07-0.02 0.17-0.07 0.29-0.1l0.07-0.02-0.29 0.12 0.05-0.02c0.19-0.12 0.41-0.17 0.65-0.12h0.07l0.51 0.09c0.33 0.05 0.62 0.34 0.64 0.7 0.05 0.33-0.14 0.67-0.48 0.81z"/>
  <path transform="matrix(1.3333 0 0 -1.3333 0 1120.8)" d="m460.39 748.99 0.03 0.34v-0.07l0.02 0.12c0.02 0.14 0 0.31-0.05 0.48l-0.02 0.02-0.05-0.74 0.05 0.07 0.07 0.19 0.02 0.05v0.07l0.03 0.05-0.19-0.36 0.04 0.05 0.05 0.04c0.07 0.1 0.15 0.24 0.19 0.39v0.07l0.03 0.05-0.19-0.41 0.02 0.07-0.41-0.33h0.05c0.24 0.12 0.43 0.31 0.53 0.55l0.05 0.07-0.56-0.53 0.05 0.03c0.17 0.07 0.31 0.19 0.43 0.33l0.03 0.05-0.43-0.36 0.04 0.02c0.22 0.1 0.39 0.27 0.53 0.48l0.05 0.12-0.6-0.52 0.05 0.02c0.14 0.05 0.26 0.14 0.38 0.24l0.07 0.05-0.12-0.07 0.05 0.02 0.03 0.02-0.29-0.16 0.07 0.02c0.24 0.12 0.48 0.29 0.62 0.53l0.05 0.07-1.34-0.6 0.05-0.02c0.33-0.05 0.69 0.02 0.98 0.24l0.05 0.02-0.46-0.22 0.1 0.03c0.17 0.05 0.31 0.12 0.45 0.21l0.03 0.03-0.29-0.17 0.05 0.02-0.72-0.07 0.05-0.02h0.04c0.29-0.05 0.58 0 0.84 0.12l0.1 0.05-0.5-0.12 0.96 0.04 0.14 0.03 0.55 0.07-0.24-0.02h0.36l-0.31 0.04 0.14-0.02h-0.07l0.1-0.02c0.14-0.05 0.26-0.05 0.38-0.05h0.12l-0.41 0.05 0.32-0.1 0.07-0.02 0.55-0.12 1.01-0.24 0.45-0.12h0.12l1.01-0.17v0.02l0.96-0.14h-0.05l0.41-0.05 0.12-0.02 0.91-0.08h-0.02l0.36-0.02h-0.1l0.87-0.12h0.07l0.34-0.05h-0.03l0.89-0.09h0.07l1.2-0.08 0.1-0.02h1.32l0.17 0.02 0.64 0.08c0.1 0.02 0.2 0.02 0.29 0.07l0.1 0.02-0.41-0.07h0.05-0.03 0.15-0.03 0.03l-1.13 0.48 0.02-0.02c0.29-0.32 0.7-0.48 1.13-0.48h0.1c0.81 0.04 1.44 0.74 1.41 1.56-0.04 0.81-0.72 1.44-1.53 1.44-0.82-0.05-1.44-0.72-1.44-1.54v-0.02c0-0.39 0.14-0.77 0.43-1.06 0.29-0.26 0.67-0.41 1.08-0.41h0.02l-1.12 0.48 0.02-0.02-0.38 0.96v-0.03c0.02-0.81 0.69-1.46 1.51-1.46h0.02c0.82 0.02 1.49 0.7 1.47 1.51-0.03 0.82-0.68 1.49-1.49 1.47-0.84 0-1.49-0.68-1.49-1.49v-0.12c0.05-0.36 0.17-0.67 0.41-0.94l0.02-0.02-0.38 0.96v-0.1c0-0.19 0.02-0.33 0.09-0.5l0.1-0.22-0.07 0.15 0.12-0.41v0.05l0.12-0.48v-0.05l0.12-0.41-0.05 0.22 0.12-0.96v-0.1l0.22-1.27 0.02-0.17c0.02-0.05 0.05-0.12 0.07-0.19l0.12-0.39c0.24-0.76 1.08-1.2 1.87-0.93 0.77 0.26 1.18 1.08 0.94 1.87l-0.12 0.36 0.05-0.19-0.03 0.17-0.21 1.27v-0.1l-0.12 0.96c0 0.07-0.03 0.15-0.05 0.22l-0.1 0.41 0.03-0.05-0.12 0.48-0.03 0.05-0.09 0.4-0.05 0.12-0.07 0.22 0.07-0.53v0.1c0.02 0.36-0.12 0.72-0.36 1.01v0.02l0.34-1.03v0.12c0.02 0.79-0.65 1.49-1.47 1.49h-0.02c-0.82 0.02-1.49-0.65-1.51-1.44-0.03-0.84 0.64-1.52 1.46-1.54 0.82 0 1.49 0.65 1.51 1.46v0.03c0 0.36-0.12 0.72-0.36 1.01l-0.02 0.02c-0.27 0.34-0.67 0.53-1.11 0.53h-0.02l1.46-1.51v0.02c0.03 0.82-0.62 1.46-1.41 1.54h-0.1l1.11-0.53-0.03 0.02c-0.26 0.31-0.67 0.51-1.1 0.53h-0.03 0.03-0.15 0.03-0.05c-0.12 0.02-0.26 0-0.41-0.05l-0.12-0.02 0.24 0.05-0.62-0.05h0.12-1.32 0.07l-1.2 0.05h0.07l-0.86 0.07h-0.03l-0.33 0.05h0.07l-0.86 0.12h-0.1l-0.36 0.04-0.91 0.05 0.12-0.02-0.39 0.07h-0.02l-0.96 0.12-0.02 0.02-1.01 0.1 0.09-0.02-0.43 0.09-1.01 0.22h0.05l-0.55 0.12 0.12-0.03-0.34 0.08c-0.12 0.04-0.26 0.07-0.43 0.07h-0.12l0.41-0.05-0.12 0.02-0.07 0.03-0.15 0.02c-0.09 0.03-0.19 0.03-0.31 0.03h-0.36c-0.07 0-0.17 0-0.24-0.03l-0.55-0.09h0.05l-0.94-0.12c-0.21-0.05-0.41-0.12-0.57-0.24l-0.1-0.08 0.5 0.24-0.04-0.02-0.05-0.02c-0.22-0.03-0.43-0.12-0.63-0.24l-0.02-0.05c-0.17-0.12-0.29-0.27-0.36-0.43l-0.02-0.03 0.57 0.55-0.07-0.04c-0.24-0.12-0.46-0.32-0.58-0.56l-0.02-0.02 0.94 0.65h-0.05c-0.51-0.07-0.89-0.43-1.06-0.91v-0.08l0.43 0.68-0.02-0.05c-0.17-0.12-0.26-0.24-0.36-0.39v-0.04l-0.05-0.05 0.07 0.12-0.02-0.07 0.24 0.28-0.05-0.04c-0.19-0.17-0.36-0.36-0.43-0.63l-0.02-0.14v0.05-0.05l-0.05-0.17-0.03-0.07 0.05 0.19v-0.05c-0.05-0.07-0.05-0.14-0.07-0.24v-0.09l0.05 0.24-0.03-0.05-0.02-0.17v-0.07c-0.05-0.17-0.05-0.31 0-0.48l0.02-0.05v-0.07 0.48l-0.02-0.07v-0.05c-0.05-0.17-0.02-0.31 0.02-0.48v-0.05l0.03-0.07 0.02-0.05-0.05 0.38v-0.09c-0.04-0.43 0.17-0.84 0.56-1.03h0.04l-0.55 0.72 0.03-0.12c0.02-0.08 0.02-0.15 0.04-0.22l0.17-0.31c0.15-0.36 0.53-0.58 0.94-0.53 0.38 0.07 0.69 0.41 0.74 0.79z"/>
  <path transform="matrix(1.3333 0 0 -1.3333 0 1120.8)" d="m455.18 739.75-0.02-0.14c-0.02-0.1-0.05-0.22-0.05-0.31l0.07-1.83v-0.02l0.08-1.75 0.02-0.17 0.05-0.24-0.03 0.29-0.02-0.68v-0.19c0-0.48 0.26-0.93 0.67-1.17 0.43-0.24 0.94-0.24 1.37 0s0.67 0.69 0.67 1.17v0.12-0.02l0.03 0.67c0 0.12-0.03 0.24-0.03 0.34l-0.07 0.24 0.02-0.17-0.14 1.75v0.05l-0.26 1.8c-0.03 0.17-0.1 0.36-0.2 0.5l-0.07 0.12c-0.26 0.39-0.72 0.55-1.17 0.48-0.44-0.07-0.8-0.41-0.92-0.84z"/>
  <path transform="matrix(1.3333 0 0 -1.3333 0 1120.8)" d="m458.04 740.28-0.41 0.17 0.17-0.1-0.05 0.05c-0.05 0.05-0.12 0.1-0.19 0.12h-0.05l-0.07 0.05 0.19-0.12-0.05 0.05c-0.07 0.04-0.14 0.07-0.21 0.12l-0.05 0.02-0.07 0.02c-0.1 0.05-0.19 0.08-0.31 0.08l-0.29 0.04c-0.39 0.03-0.75-0.14-0.99-0.43-0.21-0.31-0.26-0.72-0.12-1.05 0.17-0.36 0.51-0.6 0.89-0.65h0.22l6.19-0.19 6.19-0.17h0.03l5.18-0.05h0.55c0.7 0 1.25 0.55 1.25 1.25 0 0.67-0.55 1.25-1.25 1.25h-0.53 0.03-5.21l-6.19 0.04h-0.03l-6.16 0.03h-0.12l-0.15-0.03c-0.38-0.04-0.72-0.28-0.89-0.62-0.14-0.36-0.09-0.74 0.12-1.08 0.24-0.29 0.6-0.46 0.99-0.43l0.29 0.05c0.12 0 0.21 0.02 0.31 0.07l0.07 0.05h0.05l-0.27-0.05h0.08c0.09 0 0.16 0.05 0.26 0.07l0.07 0.02 0.05 0.03-0.22-0.07 0.08 0.02h0.09l0.41 0.12c0.29 0.07 0.5 0.34 0.53 0.6 0.02 0.31-0.15 0.6-0.41 0.72z"/>
  <path transform="matrix(1.3333 0 0 -1.3333 0 1120.8)" d="m474 739.54-0.02-0.12c-0.03-0.12-0.05-0.24-0.05-0.34l0.07-1.82v-0.03l0.07-1.75 0.03-0.17 0.04-0.24-0.02 0.29-0.02-0.67-0.03-0.05v-0.12c0-0.5 0.29-0.96 0.7-1.2 0.43-0.24 0.93-0.24 1.34 0 0.43 0.24 0.7 0.7 0.7 1.2v0.12-0.05l0.02 0.67c0 0.12-0.02 0.24-0.05 0.34l-0.04 0.24 0.02-0.14-0.17 1.7v0.07l-0.24 1.8c-0.02 0.17-0.09 0.36-0.19 0.51l-0.07 0.12c-0.27 0.36-0.72 0.55-1.18 0.48-0.43-0.08-0.79-0.41-0.91-0.84z"/>
  <path transform="matrix(1.3333 0 0 -1.3333 0 1120.8)" d="m458.54 735.1-0.38 0.16 0.17-0.09-0.05 0.05-0.17 0.09h-0.05l-0.07 0.05 0.17-0.1-0.05 0.05c-0.07 0.03-0.12 0.05-0.19 0.1l-0.05 0.02-0.07 0.03c-0.1 0.04-0.22 0.07-0.34 0.07l-0.28 0.05c-0.39 0.02-0.75-0.17-0.99-0.48-0.21-0.32-0.24-0.75-0.05-1.08 0.17-0.34 0.51-0.56 0.89-0.58h0.19l6.08-0.12 6.12-0.07h5.66c0.67 0.02 1.25 0.57 1.22 1.27-0.02 0.67-0.57 1.22-1.27 1.22l-0.5-0.02-5.09-0.02h-0.02l-12.2-0.1-0.16-0.02h-0.15c-0.57-0.1-0.96-0.65-0.89-1.23 0.08-0.6 0.63-0.98 1.2-0.91l0.32 0.05c0.09 0.02 0.16 0.02 0.26 0.07l0.07 0.05 0.05 0.02-0.19-0.07h0.07c0.07 0.02 0.12 0.05 0.19 0.07l0.07 0.03 0.05 0.02-0.19-0.05h0.07l0.07 0.03 0.41 0.12c0.29 0.09 0.51 0.33 0.53 0.64 0 0.29-0.17 0.58-0.46 0.68z"/>
  <path transform="matrix(1.3333 0 0 -1.3333 0 1120.8)" d="m457.8 727.51 0.02 0.03-0.31-0.53h0.03l-0.6-0.31c0.24 0.04 0.48 0.14 0.64 0.33l0.03 0.03c0.12 0.12 0.21 0.26 0.26 0.4v0.03l-0.45-0.58 0.28 0.17 0.05 0.05 0.17 0.12-0.17-0.1 0.19 0.1 0.05 0.02 0.19 0.12-0.14-0.07 0.19 0.07 0.22 0.1-0.03-0.03 0.58 0.24-0.12-0.04 1.73 0.48-0.03-0.03 0.6 0.17-0.12-0.02 0.65 0.12 0.63 0.09h-0.1l0.62 0.1 0.65 0.07-0.07-0.02 0.67 0.07 0.65 0.05-0.17-0.03h0.75l0.62 0.03h-0.1l0.65-0.03h-0.05l0.65-0.02h-0.07l1.73-0.19h-0.07l0.6-0.1-0.08 0.02 0.58-0.09h-0.02l0.57-0.15-0.02 0.03 0.55-0.15-0.05 0.03 0.55-0.17h-0.07l0.58-0.19-0.05 0.02 1.2-0.45-0.07 0.04 1.29-0.6-0.31 0.2 0.17-0.15c0.43-0.33 1.01-0.41 1.49-0.21 0.5 0.19 0.86 0.64 0.93 1.17 0.08 0.53-0.14 1.08-0.57 1.39l-0.17 0.15c-0.1 0.07-0.19 0.14-0.31 0.19l-1.32 0.55-0.1 0.05-1.2 0.46-0.05 0.02-0.55 0.17-0.07 0.02-0.55 0.17h-0.07l-0.56 0.14h-0.04l-0.58 0.12-0.05 0.03-0.55 0.09-0.07 0.03-0.63 0.07h-0.07l-1.7 0.17h-0.1l-0.65 0.02h-0.74l-0.62-0.02h0.04l-0.67-0.03h-0.12l-0.65-0.07h0.03l-0.65-0.07h-0.07l-0.63-0.12h-0.02l-0.6-0.07-0.1-0.03-0.62-0.14-0.6-0.12-0.12-0.05-0.58-0.14-0.02-0.03-1.73-0.57-0.07-0.05-0.6-0.24-0.1-0.05-0.19-0.09-0.19-0.1-0.14-0.1-0.17-0.12 0.05 0.05-0.17-0.12-0.15-0.09-0.16-0.15-0.08-0.07-0.24-0.24c-0.31-0.34-0.43-0.84-0.26-1.27l0.02-0.03c0.05-0.14 0.15-0.28 0.27-0.4v-0.03c0.17-0.17 0.41-0.29 0.65-0.31l0.04-0.02h-0.02 0.02l-0.6 0.31c0.24-0.27 0.6-0.36 0.96-0.31l0.03 0.02c0.41 0.07 0.72 0.38 0.79 0.79z"/>
  <path transform="matrix(1.3333 0 0 -1.3333 0 1120.8)" d="m457.37 728.81h-0.03c-0.19 0.02-0.4 0.02-0.57-0.05l-0.15-0.07h-0.04l1.29-0.17c-0.45 0.41-1.15 0.41-1.58-0.05l-0.03-0.02v0.02-0.02c-0.45-0.46-0.48-1.2-0.02-1.66l0.22-0.26 0.12-0.1 0.16-0.14c0.08-0.05 0.15-0.1 0.24-0.15l0.17-0.09-0.14 0.07 0.17-0.12 0.04-0.02 0.17-0.1c0.07-0.05 0.15-0.07 0.22-0.12l0.21-0.07h-0.04l0.57-0.24 0.15-0.05 1.7-0.55 0.05-0.03 0.6-0.16 0.07-0.03 0.6-0.12h0.02l0.63-0.12 0.05-0.02 0.64-0.1 0.65-0.07h0.03l0.64-0.07h0.03l0.62-0.07 0.1-0.03h0.69l0.63-0.02h0.72l0.62 0.02 0.1 0.03 1.7 0.16h0.07l0.63 0.1 0.07 0.02 0.6 0.12 0.58 0.12 0.07 0.03 0.53 0.12 0.12 0.02 0.57 0.22-0.09-0.05 0.57 0.17 0.12 0.02 1.2 0.46 0.15 0.07 1.29 0.6c0.1 0.05 0.19 0.1 0.29 0.17l0.17 0.14c0.43 0.34 0.62 0.84 0.55 1.39-0.07 0.53-0.41 0.99-0.91 1.18-0.51 0.19-1.08 0.12-1.49-0.22l-0.17-0.14 0.27 0.17-1.3-0.63 0.14 0.05-1.22-0.43 0.1 0.02-0.58-0.16-0.07-0.03-0.58-0.21 0.12 0.04-0.53-0.14 0.05 0.02-0.57-0.14-0.58-0.12 0.07 0.02-0.62-0.09h0.07l-1.7-0.19h0.04l-0.62-0.05h0.07-0.65 0.03l-0.63-0.03h0.03-0.67 0.09l-0.65 0.05h0.05l-0.67 0.05h0.02l-0.62 0.05h0.02l-0.62 0.07h0.05l-0.63 0.12 0.03-0.02-0.6 0.12 0.05-0.03-0.6 0.17 0.04-0.02-1.72 0.45 0.16-0.05-0.6 0.24-0.12 0.03-0.19 0.07 0.19-0.07-0.16 0.07 0.04-0.02-0.16 0.09-0.17 0.1-0.17 0.07 0.24-0.14-0.17 0.12-0.05 0.02-0.26 0.19 0.14-0.14v0.02-0.02 0.02l0.05-0.02c-0.09 0.07-0.21 0.17-0.33 0.24h-0.03l-0.14 0.07h-0.03l0.7-0.79v0.02c-0.1 0.41-0.41 0.72-0.79 0.82z"/>
  <path transform="matrix(1.3333 0 0 -1.3333 0 1120.8)" d="m484.85 749.93c-0.07 0.05-0.15 0.07-0.22 0.12h-0.02c-0.6 0.21-1.27-0.07-1.51-0.67s0.02-1.28 0.62-1.54c0.6-0.24 1.3 0.02 1.56 0.6v0.05c0.14 0.31 0.12 0.72-0.02 1.03-0.2 0.34-0.48 0.55-0.84 0.62h-0.05c-0.6 0.1-1.15-0.26-1.35-0.81-0.16-0.58 0.1-1.2 0.65-1.44 0.53-0.27 1.2-0.07 1.51 0.43l0.03 0.05 0.02 0.05 0.03 0.02c0.07 0.17 0.12 0.34 0.12 0.5l0.02 0.03c0.02 0.62-0.41 1.17-1.03 1.27-0.6 0.12-1.2-0.24-1.37-0.84-0.19-0.6 0.1-1.22 0.65-1.46l0.05-0.03c0.55-0.24 1.22-0.05 1.56 0.48l0.07 0.15-0.31-0.34 0.04 0.02c0.15 0.1 0.27 0.24 0.34 0.39l0.07 0.12 0.05 0.07-0.26-0.31 0.09 0.07c0.05 0.07 0.12 0.12 0.17 0.17l0.05 0.07-0.17-0.14 0.1 0.07 0.09 0.07 0.07 0.07-0.21-0.17 0.07 0.05 0.1 0.05 0.12 0.1 0.14 0.09 0.1 0.07-0.24-0.16 0.07 0.04-0.12-0.04 0.09 0.02 0.15 0.07 0.07 0.05-0.12-0.07 0.1 0.05h-0.05l0.29 0.07-0.15-0.03 0.19 0.05 0.05 0.03 0.17 0.02-0.26-0.05 0.21 0.03c0.05 0 0.15 0.02 0.22 0.02l0.17 0.07-0.17-0.05 0.17 0.03 0.19 0.02-0.19-0.02h0.72l-0.46 0.07 0.1-0.02 0.09-0.03 0.1-0.02 0.12-0.05-0.12 0.05 0.09-0.05 0.12-0.02 0.1-0.03-0.46 0.22 0.08-0.07c0.14-0.1 0.31-0.15 0.45-0.2l0.12-0.02-0.45 0.22 0.07-0.08 0.09-0.04 0.08-0.05 0.07-0.07-0.05 0.04 0.1-0.07 0.07-0.05 0.07-0.04-0.41 0.38 0.07-0.07c0.1-0.17 0.24-0.29 0.39-0.41l0.09-0.05-0.28 0.27 0.14-0.2-0.1 0.15 0.05-0.07c0.05-0.1 0.1-0.17 0.19-0.24h0.03l-0.36 0.55 0.02-0.07c0.12-0.36 0.39-0.7 0.75-0.84l0.04-0.05-0.81 1.32v-0.07c0-0.41 0.17-0.77 0.43-1.06l0.05-0.05-0.27 0.39 0.03-0.05 0.02-0.07-0.14 0.67v-0.07c0-0.15 0.02-0.32 0.07-0.46l0.02-0.07c0.03-0.07 0.05-0.12 0.08-0.19l0.04-0.05-0.14 0.41 0.02-0.17-0.02 0.24v-0.12l0.43 1.03-0.02-0.02c-0.27-0.29-0.43-0.65-0.43-1.06v-0.05 0.03-0.05l0.16 0.65-0.04-0.05c-0.1-0.19-0.15-0.43-0.15-0.65v-0.07l0.43 1.03h-0.02c-0.29-0.29-0.43-0.65-0.43-1.03v-0.07l0.14 0.62-0.02-0.05 0.29 0.39-0.05-0.03-0.03-0.02c-0.09-0.12-0.19-0.24-0.26-0.39l-0.02-0.04c-0.12-0.22-0.17-0.44-0.17-0.68v-0.04l1.49 1.46h-0.08c-0.55 0-1.05-0.31-1.32-0.79v-0.07l0.27 0.38-0.07-0.05-0.08-0.09 0.24 0.19-0.09-0.05c-0.43-0.29-0.67-0.79-0.65-1.32s0.34-0.98 0.82-1.22 1.03-0.2 1.46 0.09l0.07 0.05c0.1 0.05 0.17 0.12 0.22 0.19l0.09 0.07 0.05 0.08c0.12 0.09 0.22 0.24 0.29 0.38l0.02 0.05-1.32-0.82h0.08c0.79 0 1.44 0.65 1.44 1.47v0.04l-0.15-0.64 0.03 0.04-0.27-0.38 0.03 0.05 0.02 0.02c0.1 0.1 0.22 0.22 0.26 0.39l0.03 0.02c0.12 0.22 0.17 0.46 0.17 0.7v0.07l-0.44-1.06 0.03 0.03c0.29 0.28 0.43 0.67 0.43 1.03v0.07l-0.14-0.67v0.07c0.12 0.19 0.16 0.43 0.16 0.65v0.05-0.03 0.05l-0.43-1.03 0.03 0.05c0.28 0.26 0.43 0.62 0.43 1.03v0.12c0 0.07 0 0.17-0.03 0.24l-0.02 0.17c-0.02 0.14-0.07 0.26-0.14 0.4l-0.03 0.08 0.1-0.22-0.03 0.1 0.08-0.48v0.07c0 0.21-0.08 0.43-0.17 0.65l-0.03 0.04-0.02 0.08c-0.07 0.12-0.17 0.26-0.29 0.36l-0.05 0.07 0.44-1.03v0.07c0 0.55-0.32 1.05-0.82 1.29l-0.05 0.03 0.75-0.84-0.05 0.07c-0.07 0.22-0.19 0.43-0.36 0.58l-0.03 0.02 0.2-0.22-0.05 0.08-0.12 0.14-0.15 0.19c-0.09 0.1-0.19 0.19-0.31 0.27l-0.07 0.07 0.41-0.41-0.07 0.07c-0.1 0.17-0.24 0.31-0.41 0.41l-0.07 0.05 0.07-0.05-0.12 0.1-0.05 0.04-0.1 0.03-0.07 0.07-0.09 0.05-0.08 0.05c-0.12 0.09-0.28 0.16-0.45 0.19l-0.12 0.05 0.48-0.2-0.1 0.03c-0.14 0.09-0.29 0.17-0.45 0.21l-0.1 0.03 0.1-0.03-0.08 0.03-0.12 0.02-0.09 0.03-0.12 0.02 0.12-0.02-0.07 0.02c-0.17 0.05-0.32 0.07-0.48 0.07h-0.53l-0.19-0.02h-0.22l-0.19-0.03-0.17-0.04-0.19-0.05-0.19-0.07 0.21 0.07-0.21-0.03c-0.1-0.02-0.2-0.04-0.29-0.09l-0.15-0.05 0.08 0.02-0.22-0.07-0.12-0.05-0.26-0.12-0.17-0.07-0.1-0.05c-0.05-0.04-0.09-0.09-0.14-0.12l-0.07-0.07 0.14 0.12-0.12-0.07-0.14-0.1-0.08-0.07c-0.04-0.05-0.12-0.09-0.16-0.19l-0.1-0.07 0.17 0.14-0.12-0.07h0.05l-0.1-0.05c-0.05-0.05-0.12-0.09-0.17-0.17l-0.07-0.09-0.07-0.07-0.07-0.1c-0.05-0.07-0.12-0.14-0.17-0.24l-0.05-0.07 0.17 0.24-0.07-0.1c-0.1-0.09-0.17-0.21-0.22-0.33l-0.1-0.24 0.15 0.26-0.05-0.07c-0.05-0.07-0.1-0.17-0.14-0.27l-0.05-0.16 0.65 0.67h-0.05c-0.46-0.22-0.75-0.67-0.72-1.2v-0.03c0.02-0.16 0.07-0.33 0.17-0.5v-0.02l0.04-0.1c0.27-0.41 0.75-0.62 1.23-0.53h0.05l-1.32 0.7 0.02-0.05c0.24-0.55 0.89-0.84 1.49-0.6h0.02c0.07 0.02 0.15 0.05 0.22 0.1v0.02c0.36 0.22 0.55 0.58 0.55 0.98 0 0.39-0.19 0.77-0.55 0.99z"/>
  <path transform="matrix(1.3333 0 0 -1.3333 0 1120.8)" d="m491.09 746.04 0.07 0.05 0.14 0.05 0.08 0.02 0.14 0.1 0.05 0.07-0.67-0.22h0.07c0.19-0.02 0.41 0.03 0.55 0.12l0.1 0.03-0.17-0.05 0.07 0.02-0.1-0.02h0.08l0.07 0.02 0.09 0.03-0.12-0.03 0.15 0.03h0.19l0.1 0.02 0.36 0.1-0.17-0.03 0.36 0.05 0.33 0.05 0.36 0.05 0.36 0.02h-0.14 0.7l0.36-0.02-0.1 0.02 0.36-0.02h-0.07l0.36-0.05h-0.07l1-0.22 0.46-0.12-0.12 0.05 0.41-0.14-0.07 0.02 0.4-0.17h-0.02l1.2-0.57-0.1 0.07 2.26-1.39-0.05 0.02 0.72-0.5h0.03l0.57-0.39-0.09 0.1 1.32-1.18 0.02-0.02 1.75-1.42 0.03-0.02 0.64-0.48 0.05-0.05 0.29-0.19h0.02l0.77-0.53 0.77-0.5h0.02l0.53-0.29 0.07-0.07 1.64-0.77 0.98-0.48c0.38-0.19 0.82-0.12 1.18 0.12 0.33 0.24 0.52 0.62 0.48 1.03-0.03 0.43-0.32 0.79-0.68 0.96l-0.98 0.46h0.02l-1.6 0.79 0.04-0.05-0.5 0.29h0.02l-0.76 0.48h0.02l-0.74 0.48-0.32 0.17 0.08-0.03-0.68 0.48h0.05l-1.75 1.37 0.02-0.02-1.34 1.17-0.12 0.1-0.6 0.38v-0.02l-0.72 0.5-0.02 0.03-2.28 1.34-0.1 0.07-1.22 0.58-0.03 0.02-0.43 0.15-0.05 0.02-0.45 0.17-0.12 0.02-0.46 0.1-0.98 0.19-0.1 0.05-0.38 0.02h-0.08l-0.36 0.03h-1.1l-0.14-0.03-0.36-0.07-0.34-0.02-0.36-0.05-0.36-0.07-0.12-0.03-0.36-0.12 0.02 0.03-0.12-0.03h0.1l-0.14-0.02-0.2-0.05-0.09-0.02-0.05-0.03-0.1-0.02-0.14-0.1-0.07-0.02-0.05-0.05-0.1-0.05 0.51 0.17h-0.07c-0.24-0.02-0.48-0.14-0.65-0.31l-0.05-0.05 0.14 0.12-0.04-0.05 0.04 0.05-0.04-0.02c-0.44-0.27-0.6-0.82-0.41-1.25 0.21-0.46 0.72-0.67 1.2-0.53z"/>
  <path transform="matrix(1.3333 0 0 -1.3333 0 1120.8)" d="m496.13 744.65-0.07 0.12c-0.24 0.29-0.68 0.43-1.06 0.36-0.36-0.12-0.67-0.46-0.7-0.84l-0.02-0.1v-0.14-0.24-0.1l0.02-0.02 0.03-0.29c0-0.05 0.05-0.12 0.07-0.17v-0.07 0.07-0.07l0.02-0.07 0.03-0.1 0.05-0.07c0.02-0.07 0.07-0.19 0.14-0.26l0.05-0.1-0.17 0.31 0.02-0.07c0.08-0.17 0.2-0.31 0.34-0.43l0.05-0.07-0.31 0.5 0.02-0.05c0.05-0.26 0.24-0.5 0.48-0.62l0.1-0.07-0.48 0.57 0.02-0.09c0.05-0.15 0.14-0.27 0.24-0.39l0.14-0.12 0.15-0.14 0.07-0.07 0.1-0.05-0.17 0.14 0.05-0.07c0.04-0.05 0.12-0.12 0.16-0.14l0.08-0.05 0.04-0.07-0.14 0.14 0.02-0.05c0.12-0.12 0.27-0.24 0.46-0.31l0.1-0.05-0.29 0.17 0.07-0.05 0.1-0.07c0.07-0.07 0.24-0.14 0.36-0.19l0.07-0.05-0.39 0.22 0.1-0.05c0.12-0.1 0.24-0.17 0.38-0.22h0.08l-0.22 0.1 0.1-0.07 0.07-0.05 0.12-0.05c0.12-0.05 0.24-0.07 0.41-0.07h0.04l-0.38 0.07 0.12-0.05 0.17-0.07 0.19-0.02 0.12-0.03 0.74-0.09h0.05l0.72-0.05h0.07l1.61-0.05h-0.05l2-0.07h-0.08l1.3-0.17-0.12 0.05 0.36-0.1 0.38-0.09-0.07 0.02 0.36-0.07h-0.05l0.36-0.12 0.34-0.12-0.1 0.02 0.82-0.36-0.12 0.05 0.43-0.26 0.05-0.03 0.19-0.09c0.55-0.34 1.25-0.12 1.56 0.45 0.29 0.53 0.12 1.25-0.45 1.56l-0.2 0.1 0.08-0.05-0.46 0.29-0.12 0.05-0.82 0.38-0.07 0.05-0.36 0.12h-0.05l-0.36 0.14h-0.02l-0.36 0.1-0.1 0.02-0.36 0.1-0.38 0.07h-0.12l-1.3 0.17h-0.04l-2.02 0.07h-1.61 0.07l-0.74 0.07h0.02l-0.74 0.05h0.12l-0.17 0.05 0.15-0.05-0.12 0.05c-0.12 0.02-0.27 0.05-0.44 0.05h-0.04l0.38-0.05-0.1 0.02 0.1-0.02-0.1 0.02c-0.04 0.03-0.14 0.05-0.24 0.1h-0.04l0.38-0.19-0.05 0.07c-0.12 0.07-0.29 0.14-0.43 0.17l-0.1 0.02 0.44-0.17-0.1 0.05-0.07 0.05c-0.07 0.05-0.17 0.12-0.27 0.14l-0.09 0.03 0.43-0.27-0.07 0.05c-0.05 0.05-0.12 0.1-0.17 0.17l-0.07 0.02h0.05l-0.1 0.05 0.14-0.14-0.02 0.07c-0.07 0.05-0.12 0.07-0.19 0.12l-0.05 0.05 0.05-0.03-0.17 0.12h0.02l-0.14 0.12 0.24-0.33-0.02 0.07c-0.1 0.24-0.29 0.38-0.48 0.5l-0.1 0.03 0.53-0.6-0.03 0.09c-0.04 0.22-0.21 0.36-0.38 0.48l-0.07 0.05 0.33-0.38-0.02 0.07c-0.07 0.12-0.12 0.17-0.19 0.26l-0.05 0.05 0.17-0.24-0.03 0.07 0.03-0.12-0.03 0.1-0.02 0.07-0.02 0.1-0.05 0.07 0.07-0.22-0.07 0.27-0.03 0.12-0.02 0.09 0.05-0.26-0.03 0.12v0.12l-0.04-0.48 0.04 0.14c0.1 0.24 0.08 0.48-0.09 0.7z"/>
  <path transform="matrix(1.3333 0 0 -1.3333 0 1120.8)" d="m495.1 737.21v-1.44l-0.05-0.96 0.05 0.14-0.32-2.59v0.07l-0.5-3.02 0.02 0.12-0.14-0.46c-0.12-0.43 0-0.91 0.34-1.2 0.28-0.33 0.74-0.45 1.2-0.33 0.4 0.12 0.74 0.45 0.86 0.86l0.12 0.48 0.02 0.12 0.53 3v0.07l0.29 2.62v2.52c-0.02 0.65-0.58 1.2-1.22 1.2-0.68 0-1.2-0.55-1.2-1.2z"/>
  <path transform="matrix(1.3333 0 0 -1.3333 0 1120.8)" d="m499.1 737.86 0.2-0.46-0.08 0.24 0.1-0.67-0.02 0.05 0.04-0.63 0.05-0.67v0.07l-0.05-0.67v-0.67 0.12l-0.26-1.99-0.14-1.42v0.07l-0.32-1.82-0.02-0.19v-0.27c0-0.45 0.22-0.84 0.6-1.08 0.36-0.21 0.82-0.21 1.2 0 0.36 0.24 0.6 0.63 0.58 1.08v0.27-0.17l0.26 1.82v0.05l0.12 1.42v-0.03l0.24 1.97v0.17l-0.02 0.67v0.77l-0.08 0.67-0.04 0.65-0.03 0.05-0.09 0.69c-0.03 0.15-0.12 0.34-0.22 0.46l-0.34 0.38c-0.26 0.39-0.79 0.51-1.22 0.27-0.41-0.24-0.6-0.75-0.46-1.2z"/>
  <path transform="matrix(1.3333 0 0 -1.3333 0 1120.8)" d="m488.5 748.75h-0.34c-0.31 0-0.62-0.12-0.84-0.33l-0.07-0.08 1.13 0.32-0.05 0.02c-0.27 0.05-0.51 0.02-0.75-0.07h-0.04c-0.1-0.05-0.17-0.07-0.24-0.15l-0.1-0.04-0.02-0.05h-0.05l0.05 0.02-0.1-0.07c-0.07-0.05-0.14-0.12-0.24-0.19l-0.12-0.15 0.05 0.05-0.05-0.07-0.12-0.12c-0.07-0.07-0.12-0.14-0.19-0.22l-0.05-0.09-0.02-0.07-0.05-0.08 0.05 0.08-0.08-0.1 0.17 0.22-0.07-0.05c-0.12-0.15-0.24-0.31-0.29-0.51l-0.02-0.09 0.12 0.26-0.07-0.09c-0.05-0.1-0.1-0.22-0.15-0.34l-0.07-0.19 0.05 0.12-0.03-0.05c-0.04-0.14-0.09-0.31-0.09-0.46v-0.02l0.31 0.82-0.02-0.05c-0.1-0.12-0.17-0.24-0.22-0.36l-0.02-0.07c-0.08-0.15-0.1-0.29-0.12-0.46v-0.14 0.04-0.21 0.05-0.17 0.05-0.08l-0.03-0.07v-0.07l0.03 0.05-0.03-0.05v-0.12c-0.02-0.29 0.07-0.6 0.24-0.84l0.03-0.02-0.24 0.88v-0.02c0-0.19 0-0.38 0.07-0.58l0.02-0.07c0.05-0.09 0.1-0.21 0.17-0.33l0.02-0.03-0.16 0.34 0.02-0.07-0.07 0.5v-0.07c-0.03-0.31 0.07-0.63 0.26-0.89l0.05-0.07-0.17 0.33 0.03-0.04c0.04-0.15 0.12-0.27 0.19-0.36l0.05-0.05-0.32 0.89v-0.12c0-0.8 0.63-1.44 1.44-1.44h0.03l-1.15 0.55 0.02-0.03 0.05-0.04 0.02-0.03-0.31 0.89v-0.02c0-0.82 0.65-1.47 1.44-1.47h0.02l-1.12 0.58 0.02-0.05c0.26-0.36 0.7-0.55 1.13-0.55h0.05l-1.16 0.55 0.03-0.02 0.05-0.05 0.02-0.05c0.26-0.34 0.67-0.55 1.13-0.55h0.09l-1.15 0.55 0.03-0.02c0.26-0.36 0.69-0.58 1.12-0.58h0.08l-1.16 0.58 0.03-0.03c0.29-0.36 0.69-0.57 1.15-0.57h0.24c0.46 0 0.86 0.19 1.15 0.55l0.03 0.05-1.16-0.58h0.05c0.29 0 0.55 0.1 0.79 0.24l0.08 0.05-0.82-0.24h0.05c0.48 0 0.89 0.19 1.17 0.55l0.08 0.12-0.32-0.31 0.51 0.36 0.07 0.05 0.14 0.09c0.08 0.07 0.17 0.17 0.24 0.27l0.12 0.14-0.36-0.34 0.15 0.1-0.03-0.02 0.27 0.16-0.15-0.07 0.08 0.03c0.74 0.33 1.08 1.17 0.76 1.92-0.33 0.72-1.17 1.05-1.89 0.74l-0.07-0.02-0.2-0.1-0.28-0.19-0.05-0.03-0.17-0.09c-0.14-0.1-0.26-0.19-0.34-0.34l-0.12-0.14 0.24 0.26-0.12-0.09 0.08 0.04-0.53-0.36c-0.12-0.07-0.24-0.19-0.31-0.31l-0.1-0.09 1.13 0.55h-0.05c-0.26 0-0.55-0.07-0.77-0.24l-0.05-0.03 0.77 0.24h-0.05c-0.45-0.02-0.86-0.21-1.12-0.57l-0.05-0.05 1.15 0.58h-0.24l1.13-0.56v0.03c-0.29 0.36-0.72 0.57-1.15 0.57h-0.08l1.16-0.57-0.03 0.05c-0.26 0.36-0.69 0.55-1.13 0.55h-0.09l1.15-0.55-0.07 0.07-0.03 0.05c-0.26 0.33-0.69 0.55-1.12 0.55h-0.05l1.17-0.55-0.04 0.02c-0.29 0.36-0.7 0.55-1.16 0.55h-0.02c-0.79 0-1.44-0.67-1.44-1.46s0.67-1.42 1.46-1.42c0.8 0 1.44 0.65 1.44 1.47v0.02c0 0.31-0.12 0.62-0.31 0.86l-0.02 0.05-0.05 0.05c-0.29 0.36-0.7 0.58-1.15 0.58h-0.03c-0.81 0-1.44-0.65-1.44-1.44 0-0.82 0.65-1.44 1.44-1.44 0.8 0 1.44 0.64 1.44 1.44v0.12c0 0.31-0.09 0.6-0.28 0.86l-0.05 0.02 0.21-0.33-0.02 0.05c-0.07 0.14-0.14 0.26-0.22 0.38l-0.07 0.1 0.31-0.89v0.07c0 0.19-0.04 0.36-0.09 0.53l-0.03 0.07c-0.07 0.12-0.14 0.24-0.24 0.36l-0.04 0.05 0.24-0.39-0.03 0.08 0.1-0.46v0.02c0 0.32-0.12 0.6-0.34 0.84l-0.02 0.03 0.33-0.89v0.17-0.05 0.22-0.05 0.17-0.05 0.19l-0.02 0.02 0.02-0.04-0.02 0.07v0.07l-0.07-0.55 0.02 0.07-0.17-0.31 0.03 0.02c0.17 0.27 0.26 0.58 0.24 0.89v0.02l-0.07-0.55 0.02 0.07 0.05 0.17 0.05 0.22-0.08-0.24 0.03 0.12c0.05 0.07 0.09 0.19 0.09 0.29l0.03 0.12-0.19-0.48 0.04 0.07c0.03 0.05 0.08 0.12 0.1 0.17l0.05 0.12c0.02 0.04 0.05 0.12 0.05 0.19l0.04 0.07-0.09-0.19 0.05 0.09-0.08-0.16 0.03 0.07 0.05 0.07 0.04 0.07-0.02-0.05 0.1 0.15-0.12-0.17 0.07 0.1c0.09 0.12 0.19 0.24 0.24 0.38l0.02 0.05-0.24-0.39 0.07 0.08-0.04-0.05 0.04 0.05-0.57-0.34 0.05 0.02c0.31 0.08 0.6 0.29 0.76 0.58l0.05 0.1-0.53-0.51 0.29 0.15c0.48 0.19 0.75 0.74 0.63 1.24-0.12 0.51-0.56 0.89-1.08 0.89z"/>
  <path transform="matrix(1.3333 0 0 -1.3333 0 1120.8)" d="m484.27 740.64 0.03 0.48v-0.12l0.16 1.18-0.02-0.1 0.36 1.7v-0.04l0.72 2.88v-0.03l0.12 0.41v0.02l0.41 1.71 0.05 0.09v0.12c0.12 0.56-0.1 1.13-0.53 1.49-0.46 0.36-1.03 0.46-1.59 0.27-0.52-0.22-0.91-0.68-1-1.25v-0.1 0.1l-0.36-1.71v0.03l-0.1-0.41-0.02-0.05-0.6-2.9-0.03-0.12-0.21-1.73-0.03-0.12-0.05-1.18v0.1l-0.04-0.46c-0.05-0.5 0.14-0.98 0.55-1.29 0.41-0.29 0.96-0.34 1.39-0.12 0.46 0.21 0.77 0.65 0.79 1.15z"/>
  <path transform="matrix(1.3333 0 0 -1.3333 0 1120.8)" d="m489.05 744.31h0.12l0.09-0.02h0.12l-0.24 0.02 0.15-0.02-0.07 0.02 0.07-0.02 0.09-0.05 0.15-0.02c0.07 0 0.17-0.03 0.24-0.03h0.12l-0.6 0.17 0.12-0.05c0.07-0.07 0.17-0.09 0.24-0.12l0.12-0.02 0.09-0.05-0.26 0.12 0.12-0.05 0.12-0.09 0.14-0.05 0.12-0.05 0.1-0.02-0.62 0.45 0.04-0.09c0.1-0.12 0.24-0.24 0.39-0.34l0.09-0.05 0.1-0.07 0.1-0.05-0.22 0.15 0.05-0.05h0.05l0.07-0.1-0.07 0.12 0.16-0.24-0.02 0.05 0.22-0.24-0.05 0.05 0.17-0.22 0.19-0.26-0.12 0.17 0.17-0.24 0.04-0.12 0.2-0.24-0.17 0.21 0.33-0.69-0.04 0.12 0.14-0.41 0.02-0.1 0.2-0.38 0.02-0.1 0.22-0.43 0.04-0.07 0.24-0.41-0.04 0.12 0.19-0.41c0.05-0.07 0.09-0.14 0.17-0.21l0.67-0.87c0.07-0.09 0.12-0.14 0.21-0.24l0.22-0.14 0.22-0.17 0.24-0.19 0.07-0.07 0.21-0.12h-0.02l0.24-0.15 0.1-0.07 0.26-0.14 0.72-0.36 0.1-0.03 0.26-0.12h0.05l0.31-0.12 0.05-0.02 0.29-0.07 0.02-0.03 0.34-0.07h-0.08l0.29-0.07 0.15-0.05 0.33-0.05 0.29-0.02 0.12-0.05 0.31-0.02 0.29-0.03h0.1l0.69-0.02h0.07l1.08 0.02h0.08l2.52 0.17 0.02 0.05 1.06 0.07h-0.1l1.08 0.05h-0.02l1.1 0.02h-0.1l2.48-0.12 1.32-0.07h-0.03l0.43-0.02c0.53-0.03 1.01 0.21 1.28 0.62 0.26 0.43 0.28 0.96 0.09 1.42-0.24 0.45-0.67 0.74-1.17 0.79h-0.48l-1.32 0.05-2.48 0.09h-0.12l-1.08-0.02h-0.02l-1.1-0.07h-0.08l-1-0.12h0.02l-2.52-0.17h0.07l-1.05-0.05h0.09l-0.72 0.05h0.05l-0.29 0.02-0.31 0.03 0.12-0.03-0.34 0.05-0.28 0.07 0.14-0.02-0.26 0.05-0.03 0.02-0.33 0.07h0.04l-0.26 0.1 0.07-0.05-0.31 0.12 0.02-0.02-0.26 0.12 0.1-0.05-0.6 0.29 0.07-0.05-0.27 0.17 0.08-0.05-0.24 0.17-0.22 0.12 0.1-0.05-0.24 0.17-0.2 0.19-0.21 0.14 0.21-0.21-0.69 0.86 0.17-0.24-0.22 0.41-0.07 0.12-0.24 0.38 0.09-0.12-0.21 0.39 0.05-0.1-0.2 0.43 0.08-0.09-0.17 0.38-0.03 0.12-0.33 0.7c-0.03 0.09-0.07 0.19-0.12 0.24l-0.17 0.24 0.05-0.1-0.12 0.24-0.12 0.17-0.19 0.26-0.2 0.24-0.02 0.03-0.22 0.24-0.04 0.07-0.22 0.19c-0.07 0.07-0.12 0.12-0.19 0.17l-0.07 0.07h-0.05l-0.05 0.07c-0.07 0.03-0.14 0.05-0.22 0.1l-0.09 0.05-0.12 0.07-0.07 0.02 0.38-0.26-0.07 0.05c-0.17 0.21-0.41 0.33-0.67 0.38l-0.12 0.05 0.16-0.07-0.14 0.07 0.12-0.07-0.1 0.07c-0.09 0.02-0.21 0.05-0.28 0.07l-0.1 0.05-0.12 0.02 0.29-0.12-0.12 0.05c-0.17 0.1-0.39 0.12-0.6 0.12h-0.12l0.24-0.02-0.12 0.02h0.07-0.12l-0.07 0.05h-0.12c-0.07 0.02-0.17 0.02-0.27 0.02h-0.21l-0.12-0.02c-0.67 0-1.2-0.58-1.2-1.25s0.53-1.22 1.2-1.25z"/>
  <path transform="matrix(1.3333 0 0 -1.3333 0 1120.8)" d="m489.41 730.03-0.55-0.02c-0.65-0.05-1.18-0.53-1.25-1.18-0.05-0.62 0.36-1.2 1.01-1.34l0.84-0.22c0.12-0.02 0.19-0.02 0.28-0.02l5.04-0.12h-0.04l1.12-0.07h0.08l3.14-0.05h0.02l0.32-0.05c0.6 0 1.17 0.34 1.46 0.84 0.31 0.55 0.31 1.18 0 1.68-0.29 0.55-0.86 0.84-1.46 0.84h-0.34l-3.14-0.05h0.02-1.2l-5.02-0.19h-0.09l-0.89-0.07c-0.5-0.07-0.94-0.43-1.08-0.91-0.14-0.51 0-1.06 0.41-1.37 0.41-0.34 0.96-0.36 1.41-0.12l0.51 0.26c0.45 0.27 0.69 0.82 0.55 1.32-0.14 0.51-0.62 0.84-1.15 0.84z"/>
 </g>
</svg>
