<svg width="38.995" height="75.08" version="1.1" viewBox="0 0 38.995 75.08" xmlns="http://www.w3.org/2000/svg">
 <g transform="translate(-607.06 -193.05)">
  <path transform="matrix(1.3333 0 0 -1.3333 0 1120.8)" d="m470.71 692.5-0.5 0.21c-0.1 0-0.15 0.03-0.22 0.03l-0.09 0.02 0.72-0.53-0.03 0.03c-0.07 0.21-0.24 0.36-0.43 0.45l-0.07 0.05 0.43-0.46-0.02 0.05c-0.1 0.19-0.24 0.36-0.44 0.43l-0.09 0.05c-0.07 0.05-0.15 0.07-0.24 0.1l-0.05 0.02h-0.07l-0.07 0.03h-0.08l0.29-0.1-0.02 0.02c-0.12 0.05-0.24 0.1-0.41 0.1l-0.24 0.02 0.17-0.02-0.36 0.07 0.14-0.05-0.43 0.17c-0.07 0.03-0.14 0.03-0.22 0.05l-0.43 0.07h-0.12l-1.27 0.07-0.62 0.03h-0.03l-1.1 0.02h-0.15l-0.72-0.05h-0.07l-1.17-0.14h-0.03l-0.43-0.05-0.14-0.05-0.27-0.04 0.17 0.02-0.29-0.02c-0.07 0-0.14-0.03-0.19-0.03l-0.62-0.17-0.15-0.04-0.48-0.2-0.74-0.26c-0.1-0.05-0.22-0.1-0.29-0.14l-0.65-0.44c-0.07-0.04-0.14-0.09-0.19-0.16l-0.41-0.36 0.07 0.07-0.45-0.39 0.09 0.08-0.31-0.22 0.91 0.26h-0.02c-0.41 0.03-0.82-0.14-1.1-0.43l-0.05-0.02-0.03-0.03 0.05 0.03-0.05-0.03 1.08 0.39-0.02 0.02c-0.41 0-0.79-0.14-1.08-0.41-0.29-0.26-0.46-0.64-0.48-1.03l-0.02-0.05 0.45 1.01-0.09-0.09c-0.27-0.27-0.44-0.63-0.44-0.99v-0.05l0.15 0.6-0.03-0.04-0.04-0.08c-0.08-0.19-0.15-0.4-0.15-0.62v-0.07l0.46 1.05-0.03-0.04c-0.19-0.17-0.31-0.36-0.38-0.6l-0.02-0.1c-0.05-0.12-0.08-0.26-0.1-0.41v-0.02l0.17 0.62-0.03-0.09c-0.12-0.2-0.16-0.41-0.16-0.63v-0.38-0.27l0.07-0.33c0.05-0.27 0.17-0.55 0.38-0.77l0.03-0.02-0.27 0.38 0.03-0.07-0.15 0.69v-0.04c0-0.41 0.15-0.77 0.43-1.06l0.03-0.02 0.02-0.05-0.26 0.41 0.02-0.08c0.07-0.14 0.15-0.28 0.27-0.4l0.04-0.03c0.29-0.29 0.68-0.48 1.08-0.48h0.03l-1.35 0.87 0.03-0.05c0.14-0.31 0.38-0.55 0.67-0.7l0.05-0.05-0.82 1.37v-0.02c0-0.41 0.15-0.79 0.43-1.08 0.29-0.29 0.7-0.46 1.08-0.48h0.08l-1.11 0.48 0.03-0.03 0.04-0.02 0.03-0.02c0.19-0.22 0.45-0.36 0.72-0.44l0.12-0.04-0.34 0.14 0.12-0.07 0.12-0.05 0.17-0.07c0.07-0.03 0.17-0.07 0.26-0.1l0.17-0.02-0.19 0.05 0.36-0.12c0.1-0.05 0.19-0.08 0.31-0.08l0.72-0.12 0.72-0.09h0.15l0.72-0.05h1.82l5.35 0.22-0.07-0.03 4.99 0.05h-0.02 1.44l2.42 0.02h0.15l2.54 0.24h-0.14 0.02c0.91 0 1.63 0.72 1.63 1.64 0 0.88-0.72 1.6-1.63 1.63h-0.02l-0.17-0.03-2.57-0.26 0.14 0.02-2.42-0.04-1.39-0.03-4.99-0.09h-0.05l-5.35-0.24h0.07-1.68 0.07l-0.72 0.02h0.12l-0.72 0.1-0.74 0.09 0.31-0.09-0.36 0.12c-0.07 0.04-0.15 0.04-0.19 0.07l-0.17 0.02 0.29-0.09-0.15 0.09 0.12-0.07-0.14 0.07c-0.1 0.05-0.19 0.07-0.29 0.12l-0.12 0.03 0.7-0.41-0.03 0.02-0.05 0.03-0.02 0.04c-0.29 0.29-0.7 0.46-1.1 0.46h-0.08l1.56-1.51v0.02c-0.02 0.58-0.33 1.08-0.84 1.35l-0.07 0.04 0.67-0.69-0.02 0.05c-0.24 0.52-0.79 0.88-1.39 0.86h-0.03l1.13-0.46-0.05 0.03 0.29-0.39-0.05 0.05c-0.07 0.15-0.14 0.29-0.26 0.41l-0.05 0.02-0.02 0.05 0.43-1.05v0.04c0 0.2-0.05 0.44-0.14 0.63l-0.03 0.07c-0.07 0.14-0.17 0.26-0.29 0.38l-0.02 0.05 0.38-0.77-0.04 0.32 0.02-0.29v0.38l-0.14-0.65 0.02 0.05c0.12 0.22 0.14 0.46 0.14 0.7v0.02l-0.07-0.5 0.05 0.09-0.34-0.57 0.05 0.05c0.24 0.28 0.36 0.64 0.36 1.03v0.07l-0.12-0.67 0.03 0.07 0.02 0.05c0.1 0.24 0.14 0.45 0.14 0.69l-0.02 0.05-0.36-1.08 0.02 0.03 0.03 0.04 0.02 0.03c0.27 0.29 0.41 0.67 0.39 1.05v0.05l-1.42-1.56h0.02c0.41 0.03 0.82 0.22 1.08 0.53l0.03 0.02-0.03-0.02 0.03 0.02 0.02 0.03-1.03-0.48h0.02c0.32 0.02 0.6 0.12 0.84 0.31l0.29 0.24 0.07 0.05 0.46 0.38 0.46 0.46-0.17-0.15 0.62 0.46-0.29-0.17 0.72 0.31 0.48 0.2-0.16-0.05 0.6 0.14-0.2-0.02 0.29 0.02 0.17 0.03 0.26 0.09-0.12-0.05 0.46 0.08 1.15 0.16h-0.05l0.72 0.08h-0.09l1.1 0.04h0.03l0.62 0.03 1.27 0.05 0.12 0.02 0.43 0.07-0.26-0.02 0.46-0.03h0.74c0.17 0.03 0.29 0.05 0.41 0.12h0.02l-0.29-0.07h0.08l0.07 0.03h0.07l0.05 0.02-0.41-0.02h0.07l-0.26 0.09h0.02c0.1-0.07 0.19-0.09 0.29-0.12h0.1l-0.29 0.07h0.05c0.19-0.12 0.38-0.14 0.6-0.12l0.09 0.03 0.55 0.07c0.36 0.07 0.63 0.34 0.68 0.7 0.02 0.36-0.17 0.69-0.51 0.84z"/>
  <path transform="matrix(1.3333 0 0 -1.3333 0 1120.8)" d="m463.8 692.18 0.02 0.34v-0.07l0.03 0.09c0.02 0.17 0.02 0.36-0.05 0.53l-0.02 0.03-0.05-0.82 0.05 0.1c0.04 0.04 0.04 0.12 0.09 0.19v0.05l0.03 0.07 0.02 0.05-0.22-0.39 0.05 0.05 0.05 0.07c0.1 0.12 0.14 0.24 0.19 0.39l0.03 0.07 0.02 0.05-0.22-0.41 0.05 0.05-0.43-0.32h0.02c0.24 0.12 0.46 0.32 0.58 0.53l0.02 0.1-0.55-0.55 0.05 0.02c0.14 0.07 0.31 0.19 0.43 0.34l0.05 0.04-0.46-0.33 0.05 0.02c0.22 0.1 0.41 0.27 0.53 0.48l0.07 0.12-0.65-0.53 0.1 0.03c0.12 0.05 0.26 0.14 0.36 0.21l0.07 0.08-0.09-0.1 0.02 0.02 0.02 0.03-0.26-0.15 0.07 0.03c0.24 0.09 0.48 0.29 0.65 0.5l0.02 0.07-1.29-0.57 0.07-0.03c0.31-0.04 0.65 0.05 0.91 0.22l0.05 0.02-0.43-0.19 0.09 0.03c0.17 0.04 0.29 0.12 0.44 0.19l0.04 0.02-0.31-0.14 0.07 0.02-0.67-0.07h0.05l0.07-0.02c0.27-0.03 0.53 0 0.77 0.12l0.12 0.04-0.48-0.12 1.03 0.05 0.12 0.03 0.6 0.09-0.19-0.02h0.26l0.12-0.03-0.28 0.05 0.14-0.02-0.07 0.02 0.12-0.05c0.12-0.04 0.24-0.04 0.36-0.04h0.12l-0.39 0.04 0.34-0.09 0.07-0.03 0.6-0.12 1.11-0.24 0.48-0.12h0.14l1.08-0.14 1.03-0.14h-0.05l0.44-0.05 0.12-0.03 0.98-0.04h-0.05l0.41-0.05-0.07 0.02 0.93-0.14h0.05l0.39-0.03h-0.03l0.96-0.12h0.05l1.32-0.07h1.68l0.7 0.07c0.07 0.03 0.16 0.05 0.26 0.08l0.12 0.02-0.38-0.05h0.07-0.05 0.14-0.02 0.05l-1.13 0.43 0.05-0.02c0.29-0.29 0.67-0.46 1.1-0.46h0.05l0.05 0.03c0.81 0.02 1.44 0.72 1.39 1.53-0.02 0.82-0.7 1.44-1.51 1.44-0.82-0.02-1.47-0.69-1.44-1.51v-0.05c0-0.38 0.17-0.76 0.43-1.03 0.29-0.29 0.67-0.43 1.06-0.43h0.04l-1.08 0.46 0.03-0.03-0.43 0.99v-0.03c0.02-0.81 0.69-1.46 1.51-1.44h0.05c0.79 0 1.46 0.67 1.44 1.51 0 0.8-0.68 1.47-1.49 1.44-0.84 0-1.49-0.67-1.49-1.48v-0.12c0.05-0.36 0.19-0.72 0.46-0.99l0.02-0.02-0.43 1.01v-0.1c0-0.17 0.05-0.38 0.12-0.53l0.07-0.24-0.02 0.17 0.12-0.41-0.03 0.05 0.12-0.48 0.03-0.05 0.12-0.41-0.05 0.22 0.12-0.94v-0.09l0.24-1.27 0.05-0.17c0-0.07 0.02-0.15 0.04-0.22l0.15-0.38c0.29-0.77 1.13-1.18 1.87-0.89 0.77 0.26 1.18 1.1 0.91 1.9l-0.14 0.36 0.07-0.22-0.02 0.17-0.27 1.27 0.03-0.1-0.12 0.96c0 0.08-0.03 0.17-0.05 0.24l-0.12 0.41v-0.05l-0.12 0.48v0.05l-0.12 0.41-0.05 0.12-0.1 0.22 0.1-0.58v0.1c0.02 0.38-0.12 0.76-0.38 1.05l-0.03 0.03 0.39-1.08v0.12c0.02 0.81-0.65 1.48-1.44 1.48h-0.05c-0.82 0.03-1.49-0.62-1.51-1.44 0-0.81 0.62-1.51 1.46-1.51 0.82-0.02 1.49 0.63 1.51 1.44v0.03c0.03 0.4-0.12 0.76-0.38 1.05l-0.05 0.03c-0.26 0.31-0.65 0.48-1.06 0.48h-0.04l1.46-1.52v0.05c0.02 0.79-0.6 1.47-1.39 1.51h-0.1l1.06-0.48-0.05 0.03c-0.26 0.29-0.62 0.48-1.03 0.48h-0.05 0.02-0.04l-0.03 0.02h-0.07 0.05-0.07c-0.12 0-0.24-0.02-0.36-0.05l-0.15-0.04 0.22 0.04-0.7-0.04h0.12-1.44 0.07l-1.29 0.04h0.07l-0.94 0.1h-0.02l-0.36 0.02h0.07l-0.96 0.12h-0.07l-0.41 0.05-0.98 0.05 0.12-0.02-0.41 0.07-0.05 0.02-1.03 0.12h-0.02l-1.11 0.12 0.12-0.02-0.48 0.09-1.08 0.2-0.55 0.12 0.07-0.03-0.31 0.1c-0.14 0.05-0.29 0.05-0.43 0.05h-0.12l0.38-0.03-0.14 0.03h-0.05l-0.17 0.04c-0.09 0-0.19 0.03-0.29 0.03l-0.12-0.03h-0.26-0.24l-0.6-0.12h0.05l-1.03-0.12c-0.2-0.02-0.39-0.09-0.56-0.19l-0.09-0.07 0.5 0.19-0.07-0.02h-0.05c-0.19-0.03-0.41-0.12-0.57-0.24l-0.08-0.03c-0.14-0.12-0.26-0.24-0.36-0.4l-0.02-0.03 0.6 0.51-0.1-0.03c-0.24-0.12-0.43-0.31-0.57-0.53l-0.03-0.04 0.94 0.62-0.07-0.02c-0.51-0.08-0.89-0.41-1.06-0.87v-0.09l0.48 0.67-0.07-0.03c-0.12-0.12-0.24-0.24-0.34-0.38l-0.02-0.05-0.02-0.02 0.07 0.09-0.05-0.04 0.26 0.24-0.04-0.03c-0.22-0.17-0.39-0.36-0.46-0.62l-0.05-0.15v0.08-0.03c-0.02-0.09-0.05-0.14-0.07-0.21v-0.08l0.05 0.2-0.03-0.03c-0.02-0.09-0.04-0.17-0.07-0.29v-0.07l0.07 0.27-0.02-0.05c0-0.07-0.05-0.12-0.05-0.19v-0.08c-0.05-0.16-0.05-0.36 0-0.52v-0.05l0.05-0.07-0.02 0.52-0.03-0.07v-0.07c-0.05-0.17-0.05-0.34 0-0.5l0.03-0.05 0.02-0.07v-0.05l-0.02 0.41-0.03-0.1c-0.05-0.46 0.19-0.86 0.6-1.06l0.03-0.02-0.56 0.74v-0.09c0.03-0.1 0.05-0.17 0.1-0.24l0.12-0.31c0.17-0.36 0.55-0.58 0.96-0.51 0.38 0.07 0.7 0.39 0.72 0.79z"/>
  <path transform="matrix(1.3333 0 0 -1.3333 0 1120.8)" d="m458.35 682.9-0.05-0.12c0-0.12-0.02-0.22-0.02-0.32l0.07-1.82v-0.02l0.1-1.76 0.02-0.19 0.05-0.24-0.02 0.34-0.03-0.67v-0.2c0-0.48 0.24-0.93 0.67-1.17 0.41-0.27 0.94-0.27 1.37 0 0.41 0.24 0.67 0.69 0.67 1.17v0.12-0.04 0.67c0.03 0.12 0 0.24-0.02 0.36l-0.05 0.24 0.03-0.17-0.2 1.73v0.07l-0.24 1.78c-0.02 0.19-0.12 0.36-0.21 0.52l-0.07 0.12c-0.27 0.36-0.72 0.56-1.16 0.48-0.45-0.09-0.81-0.43-0.91-0.88z"/>
  <path transform="matrix(1.3333 0 0 -1.3333 0 1120.8)" d="m461.28 683.45-0.43 0.19 0.14-0.07-0.05 0.05c-0.07 0.02-0.12 0.04-0.19 0.07l-0.07 0.05-0.07 0.02 0.19-0.1-0.05 0.03c-0.07 0.05-0.14 0.09-0.21 0.12l-0.08 0.02-0.07 0.03c-0.07 0.04-0.17 0.04-0.26 0.07l-0.34 0.02c-0.36 0.05-0.74-0.12-0.96-0.43-0.24-0.31-0.26-0.72-0.12-1.06 0.17-0.36 0.51-0.6 0.89-0.62l0.14-0.02h0.1l6.7-0.2h0.02l6.7-0.16h0.02l5.64-0.05h0.6c0.67 0 1.25 0.57 1.25 1.25 0 0.67-0.58 1.24-1.25 1.24h-0.6l-5.62 0.03-6.72 0.02-6.72 0.03h-0.12l-0.14-0.03c-0.38-0.02-0.72-0.26-0.89-0.62-0.14-0.34-0.12-0.75 0.12-1.06 0.22-0.31 0.6-0.48 0.96-0.43l0.34 0.02c0.09 0.03 0.19 0.03 0.26 0.08l0.07 0.02 0.08 0.02-0.22-0.04h0.07c0.07 0 0.15 0.04 0.22 0.07l0.07 0.02 0.07 0.03-0.19-0.05h0.14l0.48 0.12c0.29 0.07 0.51 0.33 0.53 0.62 0.03 0.31-0.14 0.6-0.43 0.7z"/>
  <path transform="matrix(1.3333 0 0 -1.3333 0 1120.8)" d="m478.78 682.7-0.05-0.14c-0.03-0.1-0.05-0.22-0.05-0.34l0.1-1.8v-0.02l0.07-1.75 0.05-0.19 0.02-0.24-0.02 0.33-0.03-0.67v-0.19c0-0.48 0.27-0.94 0.67-1.2 0.44-0.24 0.94-0.24 1.37 0 0.41 0.26 0.67 0.72 0.67 1.2v0.12-0.03l0.03 0.68c0 0.12 0 0.24-0.05 0.36l-0.05 0.24 0.03-0.2-0.17 1.76v0.04l-0.27 1.8c-0.02 0.17-0.09 0.36-0.21 0.51l-0.07 0.12c-0.24 0.36-0.7 0.55-1.16 0.45-0.45-0.07-0.79-0.4-0.88-0.84z"/>
  <path transform="matrix(1.3333 0 0 -1.3333 0 1120.8)" d="m461.83 678.29-0.43 0.17 0.17-0.08-0.07 0.03-0.15 0.07-0.07 0.02-0.07 0.03 0.17-0.07-0.32 0.16-0.07 0.03c-0.07 0.02-0.19 0.05-0.29 0.07l-0.33 0.02c-0.39 0.03-0.75-0.16-0.96-0.48-0.22-0.31-0.24-0.72-0.07-1.08 0.16-0.33 0.52-0.55 0.91-0.57h0.19l6.6-0.12 6.65-0.07h6.12c0.69 0.02 1.25 0.57 1.22 1.27 0 0.69-0.57 1.22-1.27 1.22l-0.55-0.02-5.52-0.03-6.65-0.04-6.6-0.05-0.12-0.03h-0.17c-0.6-0.09-1.01-0.62-0.91-1.2 0.07-0.6 0.6-1 1.2-0.93l0.31 0.05c0.07 0 0.17 0.04 0.24 0.07l0.07 0.02 0.08 0.03-0.2-0.05h0.1l0.17 0.07 0.07 0.02 0.07 0.03-0.17-0.05 0.08 0.02h0.07l0.45 0.12c0.29 0.08 0.48 0.36 0.51 0.65 0.02 0.31-0.17 0.58-0.46 0.7z"/>
  <path transform="matrix(1.3333 0 0 -1.3333 0 1120.8)" d="m461.02 670.78 0.02 0.02-0.34-0.62h0.03l-0.6-0.29h0.02c0.24 0.02 0.48 0.17 0.65 0.36h0.02l-0.02-0.05v0.02c0.12 0.12 0.22 0.27 0.26 0.44l-0.5-0.6 0.31 0.19 0.05 0.02 0.19 0.15-0.17-0.1 0.22 0.1 0.05 0.02 0.19 0.1-0.14-0.08 0.21 0.08v0.02l0.24 0.1-0.05-0.03 0.65 0.22-0.12-0.03 1.87 0.48v-0.02l0.63 0.17-0.1-0.03 0.67 0.12 0.7 0.12-0.1-0.02 0.7 0.1 0.67 0.07h-0.05l0.75 0.05 0.67 0.04h-0.12l0.72-0.02h0.05l0.67 0.02h-0.07l0.69-0.02h-0.02l0.67-0.02h-0.07l1.87-0.2-0.07 0.03 0.67-0.1h-0.07l0.62-0.09h-0.02l0.65-0.15-0.05 0.03 0.6-0.15h-0.05l0.6-0.17-0.05 0.03 0.63-0.19-0.05 0.02 1.32-0.46-0.1 0.03 1.42-0.6-0.31 0.19 0.19-0.14c0.43-0.34 1.01-0.39 1.49-0.17 0.5 0.21 0.84 0.67 0.89 1.22 0.04 0.53-0.2 1.06-0.63 1.37l-0.19 0.12c-0.1 0.1-0.19 0.12-0.31 0.17l-1.42 0.6-0.07 0.02-1.32 0.46h-0.05l-0.62 0.19-0.05 0.02-0.6 0.15h-0.07l-0.6 0.14-0.05 0.03-0.62 0.12h-0.03l-0.62 0.12h-0.07l-0.65 0.07h-0.07l-1.85 0.17-0.1 0.02-0.69 0.02h-0.8l-0.67-0.04h0.05-0.72l-0.14-0.03-0.68-0.07h0.03l-0.75-0.07h-0.04l-0.7-0.1-0.67-0.09-0.07-0.03-0.68-0.14-0.67-0.12-0.09-0.03-0.63-0.16h-0.05l-1.84-0.58-0.1-0.02-0.62-0.27-0.1-0.02-0.22-0.12-0.19-0.1-0.17-0.07-0.16-0.12 0.04 0.02-0.19-0.12-0.12-0.09-0.19-0.15-0.07-0.04-0.27-0.24c-0.36-0.34-0.48-0.84-0.31-1.32 0.07-0.17 0.17-0.32 0.29-0.44v-0.02c0.19-0.17 0.43-0.29 0.67-0.31h0.03-0.03 0.03l-0.6 0.29h0.02c0.24-0.24 0.58-0.36 0.91-0.29h0.05c0.43 0.07 0.77 0.43 0.82 0.89z"/>
  <path transform="matrix(1.3333 0 0 -1.3333 0 1120.8)" d="m460.56 671.98h-0.02c-0.2 0.02-0.36 0.02-0.56-0.05l-0.14-0.07h-0.02l1.1-0.03c-0.46 0.27-1.03 0.19-1.42-0.19-0.24-0.24-0.36-0.55-0.36-0.86 0-0.34 0.12-0.65 0.36-0.84l0.24-0.27 0.12-0.09 0.17-0.15c0.07-0.05 0.17-0.09 0.24-0.14l0.19-0.07-0.14 0.07 0.19-0.12 0.05-0.05 0.19-0.12c0.07-0.02 0.12-0.05 0.19-0.07l0.24-0.1-0.04 0.03 0.62-0.27 0.12-0.05 1.85-0.52 0.07-0.03 0.62-0.17h0.08l0.64-0.14h0.05l0.67-0.12 0.05-0.02 0.67-0.1h0.05l0.67-0.07h0.03l0.72-0.07h0.02l0.67-0.08h0.08l0.74-0.02h0.02l0.68-0.02h0.02l0.67 0.02h0.07l0.68 0.02h0.07l1.85 0.17h0.09l0.67 0.1 0.05 0.02 1.3 0.24h0.05l0.57 0.15 0.12 0.02 0.6 0.22-0.07-0.05 0.62 0.17 0.1 0.02 1.34 0.46 0.12 0.04 1.42 0.63c0.1 0.02 0.17 0.07 0.26 0.14l0.2 0.15c0.43 0.31 0.67 0.81 0.62 1.34-0.07 0.55-0.38 1.01-0.89 1.22-0.5 0.22-1.05 0.17-1.49-0.16l-0.19-0.12 0.27 0.14-1.4-0.62 0.12 0.04-1.32-0.45 0.1 0.05-0.62-0.17-0.1-0.05-0.6-0.19 0.12 0.05-0.58-0.15h0.05l-0.62-0.12-0.65-0.14 0.07 0.02-0.67-0.09h0.07l-1.85-0.17h0.03l-0.67-0.05h0.07l-0.7-0.02h0.03-0.68 0.03-0.72 0.07l-0.67 0.02-0.72 0.05h0.02l-0.67 0.07h0.02l-0.69 0.07 0.07-0.02-0.7 0.12h0.05l-0.67 0.12 0.05-0.03-0.65 0.15h0.02l-1.87 0.43 0.17-0.02-0.65 0.24-0.09 0.02-0.24 0.05 0.19-0.05-0.19 0.1 0.04-0.05-0.19 0.12-0.12 0.05-0.21 0.07 0.24-0.12-0.2 0.12-0.02 0.02-0.29 0.19 0.19-0.14h-0.02l0.22-0.31v0.02c-0.1 0.22-0.29 0.39-0.51 0.51l-0.17 0.07 0.7-0.89v0.05c-0.05 0.43-0.38 0.79-0.84 0.89z"/>
  <path transform="matrix(1.3333 0 0 -1.3333 0 1120.8)" d="m458.59 662.45c-0.07 0.05-0.17 0.07-0.24 0.12-0.6 0.24-1.29-0.05-1.53-0.65-0.27-0.6 0.02-1.27 0.62-1.54 0.6-0.26 1.27 0.03 1.56 0.6v0.03c0.14 0.33 0.14 0.72-0.05 1.03-0.17 0.34-0.48 0.58-0.84 0.62v0.03c-0.6 0.09-1.2-0.24-1.37-0.84-0.19-0.55 0.08-1.2 0.65-1.44 0.53-0.24 1.2-0.05 1.51 0.45v0.03l0.05 0.07c0.1 0.17 0.15 0.34 0.17 0.53v0.02c0.02 0.63-0.41 1.15-1.01 1.27-0.6 0.1-1.2-0.24-1.41-0.81-0.17-0.6 0.09-1.25 0.64-1.49l0.03-0.02c0.57-0.27 1.27-0.08 1.61 0.48l0.09 0.14-0.33-0.36 0.04 0.05c0.15 0.12 0.27 0.24 0.36 0.41l0.05 0.09 0.07 0.1-0.26-0.31 0.07 0.07c0.07 0.05 0.12 0.09 0.17 0.17l0.05 0.07-0.15-0.17 0.08 0.07 0.09 0.07 0.07 0.08-0.24-0.17 0.1 0.05 0.07 0.07 0.12 0.07 0.15 0.1 0.07 0.07-0.22-0.17 0.07 0.05-0.14-0.07 0.12 0.04 0.12 0.08 0.1 0.04-0.15-0.07 0.12 0.05-0.07-0.02 0.26 0.09-0.14-0.05 0.19 0.08h0.05l0.14 0.04-0.26-0.04 0.19 0.02c0.07 0 0.17 0 0.24 0.02l0.17 0.05-0.19-0.02h0.19l0.17 0.05-0.22-0.03h0.19l0.51-0.02-0.48 0.09 0.07-0.02 0.12-0.02 0.12-0.05 0.1-0.03-0.12 0.03h0.07l0.12-0.05 0.09-0.02-0.48 0.21 0.1-0.07c0.14-0.07 0.29-0.14 0.48-0.19l0.07-0.05-0.45 0.24 0.09-0.07h-0.02l0.09-0.05 0.08-0.05 0.07-0.07-0.05 0.05 0.07-0.07 0.07-0.05 0.1-0.05-0.41 0.41 0.05-0.07c0.12-0.17 0.24-0.32 0.38-0.41l0.1-0.07-0.29 0.26 0.15-0.19-0.1 0.17 0.05-0.1c0.05-0.07 0.09-0.14 0.17-0.22l0.02-0.02-0.34 0.55 0.05-0.07c0.1-0.36 0.36-0.67 0.7-0.86l0.05-0.03-0.77 1.3v-0.07c-0.03-0.39 0.14-0.75 0.38-1.01l0.05-0.05-0.24 0.36 0.02-0.05 0.03-0.05-0.15 0.63v-0.05c0-0.14 0.03-0.31 0.08-0.43l0.02-0.1c0.02-0.07 0.02-0.12 0.07-0.19l0.03-0.05-0.12 0.41 0.02-0.17-0.02 0.24v-0.14l0.4 1.01-0.02-0.03c-0.26-0.26-0.41-0.62-0.41-1.01v-0.09l0.15 0.65-0.03-0.08c-0.09-0.19-0.14-0.4-0.14-0.62v-0.05l0.41 1.01-0.03-0.02c-0.26-0.29-0.41-0.65-0.41-1.01v-0.07l0.15 0.62-0.03-0.07 0.27 0.41-0.03-0.05-0.02-0.03c-0.12-0.09-0.22-0.24-0.26-0.38l-0.03-0.05c-0.09-0.19-0.17-0.41-0.17-0.62v-0.07c0-0.82 0.68-1.44 1.49-1.47 0.79 0 1.47 0.65 1.47 1.47 0 0.81-0.68 1.46-1.47 1.46h-0.05c-0.57 0-1.08-0.31-1.34-0.84v-0.02l0.24 0.36-0.12-0.12 0.22 0.19-0.08-0.07c-0.43-0.29-0.67-0.82-0.62-1.32 0.05-0.53 0.36-0.99 0.84-1.2 0.48-0.24 1.03-0.17 1.46 0.12l0.1 0.07c0.07 0.05 0.14 0.12 0.19 0.17l0.07 0.09h0.03l0.05 0.05c0.09 0.12 0.19 0.24 0.26 0.38l0.02 0.08-1.32-0.87h0.05c0.79 0.03 1.47 0.65 1.47 1.47v0.07l-0.15-0.65 0.03 0.07-0.27-0.38 0.05 0.02v0.03c0.12 0.12 0.19 0.24 0.26 0.38l0.03 0.05c0.09 0.19 0.14 0.43 0.14 0.65v0.07l-0.41-1.01 0.05 0.02c0.24 0.27 0.39 0.63 0.39 1.01v0.05l-0.15-0.62 0.05 0.04c0.07 0.2 0.12 0.44 0.12 0.63v0.09l-0.41-1 0.05 0.02c0.24 0.26 0.38 0.62 0.38 1.01v0.14c0 0.07 0 0.15-0.02 0.22v0.17c-0.05 0.12-0.1 0.26-0.14 0.38l-0.03 0.07 0.07-0.19-0.02 0.07 0.07-0.43v0.05c0 0.21-0.05 0.43-0.14 0.65l-0.03 0.02-0.02 0.07c-0.07 0.15-0.17 0.27-0.26 0.39l-0.08 0.02 0.41-0.98v0.07c0 0.55-0.29 1.03-0.77 1.29l-0.04 0.03 0.69-0.84v0.07c-0.07 0.22-0.19 0.41-0.36 0.58l-0.02 0.02 0.19-0.24-0.05 0.1-0.12 0.12-0.14 0.19c-0.1 0.12-0.19 0.19-0.29 0.29l-0.1 0.04 0.41-0.4-0.05 0.07c-0.12 0.17-0.24 0.31-0.4 0.41l-0.08 0.07 0.08-0.07-0.1 0.09-0.1 0.05-0.14 0.1-0.07 0.07-0.07 0.05c-0.15 0.09-0.32 0.16-0.46 0.21l-0.12 0.03 0.48-0.22-0.1 0.05c-0.14 0.09-0.28 0.17-0.45 0.21l-0.1 0.03 0.1-0.05-0.07 0.05-0.1 0.02-0.12 0.03-0.1 0.02 0.1-0.02-0.07 0.02c-0.15 0.05-0.31 0.1-0.48 0.1l-0.51-0.03h-0.19c-0.07 0-0.14-0.02-0.21-0.02l-0.2-0.05-0.14-0.02c-0.1 0-0.14-0.03-0.22-0.05l-0.16-0.05 0.21 0.05-0.19-0.05c-0.1 0-0.22-0.02-0.29-0.07l-0.17-0.05h0.08l-0.2-0.05-0.12-0.05-0.26-0.12-0.17-0.09-0.07-0.05c-0.07-0.02-0.12-0.07-0.17-0.12l-0.07-0.07 0.14 0.12-0.07-0.05c-0.07-0.02-0.12-0.07-0.17-0.12l-0.07-0.07c-0.07-0.05-0.12-0.12-0.17-0.17l-0.07-0.1 0.15 0.15-0.1-0.07 0.02 0.02-0.07-0.07c-0.07-0.05-0.12-0.1-0.17-0.17l-0.07-0.07-0.07-0.1-0.07-0.09c-0.07-0.05-0.1-0.12-0.15-0.22l-0.04-0.07 0.14 0.21-0.07-0.09c-0.07-0.1-0.15-0.22-0.19-0.34l-0.05-0.12-0.03-0.09 0.12 0.24-0.04-0.05c-0.05-0.1-0.1-0.19-0.15-0.29l-0.05-0.17 0.63 0.7h-0.03c-0.43-0.22-0.72-0.67-0.69-1.18l0.02-0.02c0-0.19 0.03-0.36 0.12-0.53h0.03l0.02-0.07 0.02-0.03c0.27-0.4 0.75-0.64 1.25-0.55v0.03l-1.29 0.67v-0.03c0.26-0.57 0.93-0.86 1.53-0.62 0.07 0.05 0.17 0.1 0.24 0.12v0.02c0.34 0.22 0.53 0.58 0.53 0.96 0 0.39-0.19 0.75-0.53 0.99z"/>
  <path transform="matrix(1.3333 0 0 -1.3333 0 1120.8)" d="m464.5 658.61h0.04l0.15 0.07 0.07 0.05 0.14 0.09 0.05 0.05-0.67-0.21h0.07c0.19-0.03 0.39 0.02 0.55 0.12l0.08 0.02-0.15-0.07 0.05 0.05-0.1-0.05 0.08 0.02 0.09 0.03h0.07-0.12 0.15l0.07 0.02h0.12l0.07 0.05 0.34 0.07-0.15-0.02 0.34 0.04 0.31 0.05 0.36 0.05 0.31 0.05-0.14-0.03h0.34l0.33-0.02h0.34-0.1l0.34-0.02-0.07 0.02 0.36-0.07-0.1 0.02 0.96-0.21 0.43-0.12-0.12 0.04 0.41-0.14-0.07 0.02 0.36-0.16h-0.03l1.16-0.58-0.12 0.07 2.13-1.39-0.02 0.05 0.67-0.51v-0.02l0.58-0.38-0.1 0.09 1.27-1.17 0.03-0.03 1.65-1.41 0.03-0.03 0.6-0.48 0.07-0.05 0.29-0.19v-0.02l0.72-0.48 0.74-0.51 0.05-0.02 0.48-0.31 0.07-0.05 1.54-0.77 0.02-0.02 0.94-0.46c0.36-0.19 0.81-0.14 1.15 0.1 0.36 0.21 0.55 0.62 0.53 1.03-0.05 0.43-0.29 0.79-0.68 0.96l-0.93 0.48 0.05-0.02-1.56 0.79 0.07-0.05-0.48 0.29 0.05-0.03-0.77 0.51 0.05-0.03-0.72 0.51-0.29 0.19 0.05-0.05-0.6 0.48 0.02-0.02-1.68 1.39h0.02l-1.27 1.13-0.12 0.09-0.55 0.39-0.7 0.48-0.04 0.05-2.16 1.36-0.1 0.08-1.15 0.55-0.05 0.02-0.38 0.17-0.08 0.02-0.43 0.15-0.12 0.05-0.43 0.07-0.94 0.21-0.09 0.03-0.36 0.05h-0.1l-0.31 0.02h-0.74l-0.34-0.02h-0.17l-0.31-0.05-0.34-0.07-0.33-0.05-0.34-0.05-0.14-0.02-0.34-0.12h0.03l-0.1-0.03 0.07 0.03-0.14-0.03-0.17-0.07-0.1-0.02-0.07-0.03-0.07-0.02-0.14-0.07-0.05-0.05-0.07-0.05-0.08-0.05 0.53 0.19h-0.07c-0.26-0.02-0.5-0.14-0.7-0.33l-0.02-0.05 0.14 0.12-0.07-0.02 0.07 0.02-0.04-0.02c-0.44-0.24-0.58-0.8-0.39-1.25 0.24-0.43 0.77-0.67 1.23-0.48z"/>
  <path transform="matrix(1.3333 0 0 -1.3333 0 1120.8)" d="m469.32 657.12-0.07 0.1c-0.22 0.36-0.63 0.52-1.03 0.43-0.41-0.1-0.7-0.41-0.75-0.82l-0.02-0.12v-0.14c-0.03-0.07-0.03-0.15 0-0.22v-0.12l0.05-0.26 0.04-0.19 0.03-0.05-0.03 0.07 0.03-0.1 0.02-0.07v-0.07l0.05-0.07c0.02-0.1 0.07-0.19 0.12-0.29l0.07-0.05-0.14 0.27v-0.05c0.07-0.17 0.17-0.34 0.31-0.46l0.07-0.07-0.33 0.53 0.02-0.07c0.07-0.27 0.24-0.51 0.48-0.65l0.07-0.05-0.45 0.55 0.02-0.05c0.05-0.14 0.14-0.28 0.24-0.38l0.36-0.36 0.07-0.05-0.14 0.17 0.02-0.07c0.05-0.05 0.1-0.12 0.17-0.17l0.07-0.07-0.02 0.02 0.07-0.05-0.17 0.15 0.05-0.05c0.12-0.17 0.29-0.26 0.43-0.34l0.12-0.04-0.29 0.19 0.05-0.05v-0.02l0.1-0.05c0.09-0.1 0.24-0.17 0.36-0.22l0.09-0.02-0.38 0.21 0.07-0.07c0.1-0.09 0.24-0.17 0.39-0.21l0.07-0.03-0.24 0.1 0.07-0.05 0.24-0.1c0.12-0.04 0.24-0.07 0.38-0.09h0.1l-0.41 0.09 0.1-0.04 0.17-0.05 0.19-0.05 0.12-0.02 0.72-0.1h0.02l0.7-0.07h0.07l1.51-0.05h-0.02l1.89-0.07h-0.07l1.23-0.12h-0.15l0.36-0.1 0.36-0.07-0.07 0.02 0.34-0.09h-0.05l0.36-0.12v0.02l0.31-0.14-0.1 0.05 0.77-0.39-0.12 0.1 0.41-0.29 0.05-0.02 0.19-0.1c0.53-0.31 1.25-0.12 1.56 0.41 0.31 0.55 0.12 1.27-0.43 1.58l-0.17 0.1 0.05-0.03-0.41 0.27-0.12 0.07-0.77 0.36-0.09 0.05-0.34 0.12-0.02 0.02-0.36 0.12h-0.05l-0.31 0.12h-0.1l-0.36 0.1-0.36 0.07-0.12 0.02-1.22 0.15h-0.1l-1.87 0.09h-0.05l-1.51 0.03 0.07-0.03-0.67 0.05h0.02l-0.72 0.1 0.12-0.05-0.19 0.05 0.17-0.05-0.12 0.05c-0.12 0.05-0.29 0.07-0.41 0.07h-0.1l0.44-0.07-0.1 0.02 0.1-0.02-0.08 0.02c-0.07 0.05-0.16 0.07-0.24 0.1h-0.07l0.41-0.19-0.07 0.07c-0.12 0.07-0.29 0.14-0.43 0.19h-0.08l0.41-0.19-0.07 0.07-0.07 0.05c-0.07 0.07-0.17 0.12-0.24 0.14l-0.12 0.05 0.43-0.31-0.05 0.07c-0.05 0.05-0.12 0.1-0.17 0.14l-0.07 0.05 0.03-0.02-0.08 0.07 0.15-0.14-0.05 0.07c-0.05 0.02-0.1 0.07-0.17 0.12l-0.07 0.07 0.07-0.05-0.14 0.12-0.12 0.12 0.24-0.31-0.05 0.05c-0.1 0.21-0.29 0.38-0.48 0.5l-0.07 0.03 0.5-0.58-0.02 0.07c-0.05 0.19-0.19 0.36-0.36 0.48l-0.07 0.07 0.31-0.38-0.03 0.05c-0.04 0.09-0.09 0.19-0.16 0.26l-0.05 0.05 0.17-0.24-0.03 0.05 0.05-0.1-0.05 0.1-0.02 0.07-0.05 0.1-0.02 0.07 0.07-0.22-0.05 0.27-0.05 0.12-0.02 0.09 0.05-0.26-0.03 0.14v0.12l-0.02-0.38 0.02 0.12c0.05 0.17 0.03 0.38-0.07 0.55z"/>
  <path transform="matrix(1.3333 0 0 -1.3333 0 1120.8)" d="m468.19 649.73v-2.38 0.12l-0.29-2.59 0.03 0.07-0.51-3.02 0.03 0.12-0.12-0.46c-0.12-0.43 0-0.89 0.31-1.2s0.79-0.43 1.2-0.31c0.43 0.12 0.77 0.46 0.89 0.89l0.12 0.45 0.02 0.12 0.48 3.03v0.05l0.29 2.59v1.08l-0.02 0.89v0.55c0 0.67-0.53 1.2-1.2 1.2-0.68 0-1.23-0.53-1.23-1.2z"/>
  <path transform="matrix(1.3333 0 0 -1.3333 0 1120.8)" d="m472.03 650.42 0.17-0.45-0.05 0.21 0.07-0.69-0.02 0.07 0.05-0.62 0.02-0.68v0.08-0.68l-0.02-0.67v0.1l-0.24-1.97v-0.02l-0.15-1.4v0.05l-0.31-1.82v-0.17l-0.02-0.29c0-0.43 0.24-0.84 0.6-1.05 0.38-0.22 0.84-0.22 1.2 0 0.38 0.21 0.6 0.62 0.6 1.05v0.29-0.17l0.24 1.83v0.07l0.12 1.39v-0.02l0.21 1.99v0.14l-0.02 0.67v0.75l-0.07 0.67v0.02l-0.05 0.63-0.02 0.07-0.1 0.67c-0.05 0.17-0.1 0.34-0.19 0.46l-0.31 0.38c-0.29 0.41-0.82 0.51-1.23 0.29-0.43-0.24-0.62-0.72-0.48-1.18z"/>
  <path transform="matrix(1.3333 0 0 -1.3333 0 1120.8)" d="m462 661.3h-0.34c-0.31 0-0.62-0.15-0.84-0.36l-0.07-0.08 1.15 0.34h-0.04c-0.27 0.07-0.53 0.05-0.77-0.07h-0.05c-0.1-0.05-0.17-0.1-0.24-0.15l-0.1-0.04-0.02-0.05-0.02-0.03 0.02 0.03-0.1-0.05c-0.07-0.07-0.14-0.14-0.21-0.22l-0.1-0.14 0.03 0.05-0.08-0.05-0.04-0.07-0.05-0.07c-0.07-0.05-0.12-0.12-0.17-0.22l-0.05-0.1-0.05-0.04-0.02-0.08 0.02 0.08-0.07-0.12 0.19 0.24-0.07-0.08c-0.12-0.14-0.21-0.28-0.29-0.48l-0.02-0.09 0.12 0.24-0.07-0.07c-0.05-0.12-0.1-0.22-0.15-0.34l-0.04-0.19 0.04 0.12-0.02-0.07c-0.07-0.12-0.1-0.29-0.1-0.41l-0.02-0.05 0.31 0.79-0.02-0.05c-0.1-0.09-0.15-0.21-0.22-0.36l-0.02-0.04c-0.05-0.15-0.1-0.29-0.1-0.44v-0.16 0.07-0.24 0.05-0.1l-0.02-0.05 0.02 0.05-0.02-0.02v-0.22 0.05-0.07l-0.03-0.08c0-0.28 0.1-0.57 0.24-0.81l0.03-0.05-0.22 0.89v-0.05c-0.02-0.19 0-0.36 0.07-0.55v-0.05c0.05-0.12 0.1-0.24 0.17-0.34l0.03-0.04-0.15 0.33v-0.07l-0.07 0.5v-0.07c0-0.31 0.07-0.62 0.26-0.86l0.05-0.07-0.17 0.31 0.03-0.05c0.05-0.14 0.09-0.26 0.19-0.36l0.02-0.05-0.26 0.87v-0.12c0-0.8 0.62-1.44 1.42-1.44h0.02l-1.15 0.6 0.02-0.05 0.05-0.05-0.26 0.84v-0.05c-0.03-0.79 0.62-1.44 1.41-1.44h0.05l-1.18 0.6 0.03-0.02c0.26-0.39 0.69-0.6 1.15-0.6h0.02l-1.15 0.6 0.05-0.05v-0.05l0.02-0.02c0.29-0.36 0.7-0.58 1.18-0.6h0.07l-1.15 0.6 0.02-0.03c0.27-0.38 0.7-0.6 1.16-0.6h0.04l-1.15 0.6 0.03-0.04c0.26-0.39 0.69-0.58 1.15-0.58h0.02l0.05-0.02h0.14c0.48 0 0.92 0.21 1.2 0.6v0.02l-1.15-0.58h0.05c0.29 0 0.58 0.08 0.82 0.24l0.04 0.05-0.84-0.26h0.08c0.45 0 0.88 0.21 1.17 0.6l0.07 0.09-0.31-0.31 0.48 0.34 0.07 0.07 0.12 0.1c0.12 0.07 0.2 0.16 0.27 0.26l0.09 0.14-0.36-0.33 0.17 0.12-0.05-0.05 0.29 0.17-0.17-0.1 0.1 0.05c0.72 0.34 1.03 1.2 0.7 1.92-0.34 0.72-1.18 1.03-1.9 0.72l-0.1-0.02-0.16-0.12-0.29-0.17-0.05-0.03-0.14-0.09c-0.15-0.12-0.27-0.22-0.36-0.36l-0.1-0.12 0.24 0.24-0.12-0.1 0.07 0.05-0.48-0.34c-0.12-0.09-0.24-0.21-0.33-0.33l-0.08-0.1 1.16 0.6h-0.08c-0.26-0.02-0.55-0.09-0.79-0.26l-0.05-0.05 0.82 0.26h-0.05c-0.45 0-0.89-0.21-1.15-0.57l-0.05-0.05 1.15 0.6h-0.21l1.17-0.6-0.02 0.05c-0.29 0.36-0.72 0.57-1.18 0.57h-0.04l1.17-0.57-0.05 0.02c-0.26 0.39-0.69 0.6-1.15 0.58h-0.07l1.15-0.58-0.02 0.05-0.03 0.02-0.02 0.03c-0.26 0.38-0.7 0.6-1.18 0.6h-0.02l1.18-0.6-0.03 0.05c-0.29 0.36-0.72 0.6-1.15 0.6h-0.05c-0.79-0.03-1.44-0.68-1.41-1.47 0-0.79 0.64-1.44 1.44-1.44 0.79 0 1.44 0.65 1.44 1.44v0.05c-0.03 0.31-0.1 0.6-0.29 0.84l-0.03 0.05-0.02 0.05-0.02 0.02c-0.29 0.36-0.72 0.58-1.18 0.58h-0.02c-0.8 0-1.42-0.65-1.42-1.47 0-0.77 0.62-1.41 1.44-1.41 0.79 0 1.44 0.64 1.44 1.44v0.12c0 0.31-0.12 0.6-0.29 0.84l-0.05 0.02 0.22-0.34-0.05 0.08c-0.05 0.14-0.12 0.26-0.19 0.38l-0.05 0.05 0.29-0.82v0.07c0 0.17-0.05 0.34-0.1 0.48l-0.02 0.08c-0.07 0.14-0.14 0.26-0.24 0.38l-0.02 0.02 0.21-0.38-0.02 0.1 0.09-0.46v0.05c-0.02 0.29-0.12 0.57-0.31 0.79l-0.05 0.05 0.34-0.87v0.15-0.05 0.24-0.05 0.12l-0.02 0.03 0.02-0.05-0.02 0.07v0.17-0.07 0.16l-0.08-0.52 0.03 0.07-0.15-0.34v0.05c0.17 0.24 0.24 0.55 0.24 0.84l-0.02 0.05-0.05-0.55 0.03 0.07 0.04 0.17 0.03 0.21-0.05-0.21 0.02 0.09c0.05 0.1 0.08 0.19 0.1 0.29v0.12l-0.17-0.48 0.05 0.07c0.02 0.05 0.07 0.12 0.1 0.17l0.02 0.12c0.02 0.07 0.05 0.12 0.07 0.19v0.07l-0.05-0.19 0.05 0.12-0.07-0.19 0.02 0.1 0.1 0.14-0.05-0.05 0.1 0.15-0.1-0.17 0.05 0.07c0.12 0.12 0.19 0.26 0.24 0.41l0.02 0.05-0.24-0.41 0.08 0.07-0.08-0.05 0.05 0.05-0.57-0.34 0.04 0.03c0.34 0.07 0.63 0.29 0.8 0.6l0.02 0.07-0.53-0.5 0.29 0.12c0.48 0.24 0.72 0.74 0.6 1.27s-0.58 0.89-1.08 0.89z"/>
  <path transform="matrix(1.3333 0 0 -1.3333 0 1120.8)" d="m458.06 653.18v0.46-0.1l0.17 1.16v-0.1l0.34 1.73-0.03-0.05 0.72 2.88v-0.02l0.1 0.4v0.03l0.41 1.68 0.02 0.12v0.12c0.12 0.55-0.12 1.13-0.55 1.49s-1.03 0.43-1.56 0.24c-0.53-0.22-0.91-0.68-1.01-1.25v-0.1 0.1l-0.36-1.71v0.03l-0.09-0.41v-0.05l-0.58-2.9-0.02-0.12-0.2-1.73-0.02-0.12-0.05-1.18 0.03 0.1-0.08-0.46c-0.04-0.5 0.17-0.98 0.58-1.27 0.41-0.31 0.94-0.36 1.39-0.12 0.46 0.22 0.77 0.65 0.79 1.15z"/>
  <path transform="matrix(1.3333 0 0 -1.3333 0 1120.8)" d="m462.5 656.83h0.15-0.03 0.22l-0.24 0.03 0.12-0.03-0.1 0.03 0.1-0.03 0.1-0.02 0.12-0.05c0.09-0.02 0.16-0.05 0.26-0.05h0.12l-0.6 0.22 0.07-0.07c0.1-0.05 0.19-0.1 0.29-0.15l0.07-0.02 0.12-0.03-0.29 0.12 0.1-0.04 0.14-0.08 0.12-0.07 0.15-0.05 0.09-0.02-0.67 0.48 0.07-0.1c0.1-0.14 0.24-0.26 0.39-0.33l0.09-0.07 0.1-0.05 0.1-0.07-0.22 0.16 0.05-0.07h0.02l0.1-0.09-0.12 0.12 0.19-0.22-0.02 0.05 0.19-0.24-0.03 0.02 0.15-0.21-0.03 0.02 0.22-0.26-0.1 0.14 0.12-0.24 0.24-0.36-0.12 0.24 0.29-0.7-0.05 0.1 0.12-0.41 0.05-0.07 0.17-0.41 0.02-0.09 0.22-0.41 0.05-0.1 0.21-0.38-0.04 0.12 0.19-0.41c0.05-0.07 0.09-0.17 0.14-0.24l0.65-0.84c0.07-0.1 0.14-0.17 0.22-0.24l0.21-0.17 0.19-0.14 0.22-0.22 0.1-0.05 0.19-0.14 0.21-0.14 0.08-0.05 0.26-0.17 0.1-0.05 0.57-0.31 0.1-0.02 0.26-0.12 0.05-0.03 0.31-0.09 0.05-0.03 0.26-0.07 0.05-0.02 0.29-0.08-0.05 0.03 0.27-0.1 0.16-0.02 0.29-0.07 0.29-0.05 0.12-0.03 0.29-0.02 0.31-0.02h0.07l0.67-0.03h1.11l0.07 0.03 2.4 0.19h0.05l0.96 0.09h-0.1l1.06 0.05h-0.05 1.06-0.1l2.33-0.12 1.27-0.05-0.02 0.03 0.43-0.05c0.5-0.02 0.98 0.19 1.25 0.62 0.28 0.41 0.31 0.96 0.09 1.4-0.21 0.45-0.67 0.74-1.17 0.79l-0.41 0.02h-0.05l-1.27 0.05h0.02l-2.35 0.1h-0.1l-1.05-0.03h-0.03l-1.03-0.07h-0.07l-0.98-0.12h0.04l-2.4-0.19h0.05l-0.98-0.03h0.07l-0.67 0.03h0.07l-0.29 0.02-0.29 0.03 0.12-0.03-0.31 0.07-0.26 0.05 0.14-0.02-0.26 0.07h-0.05l-0.29 0.1 0.05-0.03-0.26 0.1 0.07-0.03-0.29 0.1 0.05-0.02-0.27 0.12 0.1-0.05-0.6 0.31 0.12-0.07-0.26 0.14 0.07-0.02-0.22 0.14-0.02 0.03-0.19 0.14 0.09-0.07-0.24 0.19-0.19 0.14-0.19 0.17 0.21-0.24-0.64 0.87 0.14-0.22-0.19 0.41-0.05 0.09-0.24 0.39 0.05-0.12-0.19 0.41 0.04-0.1-0.16 0.41 0.02-0.1-0.12 0.41-0.05 0.12-0.29 0.7c-0.02 0.09-0.07 0.16-0.12 0.24l-0.16 0.24 0.04-0.12-0.12 0.26-0.09 0.14-0.19 0.27-0.03 0.02-0.17 0.22-0.02 0.05-0.19 0.24-0.05 0.07-0.22 0.19c-0.04 0.05-0.12 0.12-0.16 0.17l-0.1 0.07h-0.02l-0.08 0.05c-0.07 0.05-0.12 0.09-0.19 0.12l-0.09 0.07-0.1 0.05-0.12 0.05 0.41-0.32-0.05 0.08c-0.19 0.21-0.46 0.36-0.72 0.4l-0.1 0.03 0.17-0.05-0.12 0.05 0.12-0.05-0.09 0.05c-0.1 0.05-0.2 0.07-0.32 0.09l-0.09 0.03-0.1 0.02 0.29-0.09-0.1 0.02c-0.19 0.12-0.38 0.17-0.62 0.14h-0.12l0.26-0.02-0.14 0.02 0.07-0.02-0.09 0.05h-0.08l-0.12 0.02c-0.09 0.03-0.19 0.03-0.26 0.03h-0.12l-0.1-0.03h0.03-0.15c-0.67-0.02-1.2-0.57-1.2-1.27 0-0.67 0.53-1.2 1.2-1.25z"/>
  <path transform="matrix(1.3333 0 0 -1.3333 0 1120.8)" d="m462.86 642.55-0.55-0.02c-0.65-0.03-1.15-0.51-1.22-1.13-0.05-0.65 0.33-1.25 0.98-1.39l0.79-0.22c0.12 0 0.22-0.02 0.34-0.05l4.78-0.09h-0.05l1.08-0.05h0.05l3-0.1h0.31c0.6 0 1.15 0.34 1.46 0.84 0.29 0.53 0.29 1.18 0 1.68-0.31 0.53-0.86 0.84-1.46 0.84h-0.31l-3-0.07h0.02-1.13l-4.77-0.17-0.1-0.02-0.84-0.07c-0.53-0.05-0.96-0.41-1.1-0.94-0.15-0.48 0.02-1.03 0.45-1.37 0.41-0.31 0.96-0.36 1.42-0.07l0.45 0.27c0.46 0.26 0.7 0.81 0.53 1.29-0.14 0.53-0.6 0.87-1.13 0.84z"/>
 </g>
</svg>
