<?xml version="1.0" encoding="UTF-8" standalone="no"?>
<!-- Created with Inkscape (http://www.inkscape.org/) -->

<svg
   version="1.1"
   id="svg1"
   width="31.264616"
   height="108.96"
   viewBox="0 0 31.264616 108.95999"
   sodipodi:docname="lesson1.pdf"
   xmlns:inkscape="http://www.inkscape.org/namespaces/inkscape"
   xmlns:sodipodi="http://sodipodi.sourceforge.net/DTD/sodipodi-0.dtd"
   xmlns="http://www.w3.org/2000/svg"
   xmlns:svg="http://www.w3.org/2000/svg">
  <defs
     id="defs1" />
  <sodipodi:namedview
     id="namedview1"
     pagecolor="#ffffff"
     bordercolor="#000000"
     borderopacity="0.25"
     inkscape:showpageshadow="2"
     inkscape:pageopacity="0.0"
     inkscape:pagecheckerboard="0"
     inkscape:deskcolor="#d1d1d1">
    <inkscape:page
       x="1.6954351e-07"
       y="4.1008548e-06"
       inkscape:label="1"
       id="page1"
       width="31.264616"
       height="108.95999"
       margin="0"
       bleed="0" />
  </sodipodi:namedview>
  <g
     id="g1"
     inkscape:groupmode="layer"
     inkscape:label="1"
     transform="translate(-421.58682,-103.01336)">
    <g
       id="g240">
      <path
         id="path240"
         d="m 322.7,761.16 0.05,0.1 c 0.15,0.33 0.05,0.72 -0.24,0.96 -0.26,0.24 -0.67,0.26 -0.98,0.07 -0.31,-0.22 -0.46,-0.6 -0.34,-0.96 v -0.03 0 -0.02 0.07 -0.05 l 0.03,-0.09 0.02,-0.03 -0.05,0.27 v -0.03 0 -0.07 0.03 -0.05 -0.1 -0.12 0.03 -0.17 0 l 0.17,-3.1 v 0.03 l 0.05,-1.23 v 0 l 0.12,-3.29 v -0.02 l 0.33,-7.06 v -0.02 l 0.22,-3.12 -0.02,0.05 v -0.24 c 0,-0.31 0.19,-0.6 0.45,-0.77 0.29,-0.17 0.65,-0.17 0.91,0 0.29,0.17 0.46,0.46 0.46,0.77 v 0.24 0.07 l -0.22,3.12 v 0 l -0.38,7.06 v -0.03 l -0.12,3.31 v 0 l -0.05,1.2 v 0.03 l -0.21,3.09 v 0 l -0.03,0.2 v 0.02 0.12 -0.07 0.05 -0.03 0.07 0 0.03 c 0,0.12 -0.02,0.21 -0.07,0.29 v 0.04 l 0.05,-0.09 -0.03,0.05 -0.02,0.07 -0.02,0.05 v 0 l -0.03,0.04 c -0.14,0.39 -0.6,0.63 -1.03,0.48 -0.41,-0.14 -0.65,-0.6 -0.53,-1.03 0.12,-0.41 0.55,-0.67 0.99,-0.57 l 0.09,0.02 c 0.19,0.05 0.36,0.17 0.43,0.36 z"
         style="fill:#000000;fill-opacity:1;fill-rule:nonzero;stroke:none"
         transform="matrix(1.3333333,0,0,-1.3333333,0,1120.8)" />
    </g>
    <g
       id="g241">
      <path
         id="path241"
         d="m 316.87,742.18 0.36,-0.1 h 0.07 l 0.39,-0.02 v 0 l 0.36,-0.05 h 0.05 0.38 0.07 l 1.08,0.07 h 0.05 l 1.08,0.1 h -0.12 l 0.74,-0.03 h -0.07 l 0.34,-0.02 c 0.02,0 0.07,0 0.12,0 l 0.81,0.02 h -0.07 0.12 c 0.36,0 0.7,0.17 0.84,0.48 0.19,0.31 0.19,0.67 0,0.99 -0.14,0.31 -0.48,0.48 -0.84,0.48 h -0.12 -0.05 l -0.81,-0.08 0.07,0.03 h -0.31 -0.03 L 320.64,744 h -0.07 l -1.08,-0.12 h 0.02 l -1.08,-0.1 h 0.05 l -0.38,-0.02 h 0.02 -0.36 v 0 h -0.36 0.07 l -0.41,0.05 c -0.43,0.05 -0.81,-0.29 -0.86,-0.72 -0.07,-0.43 0.24,-0.84 0.67,-0.91 z"
         style="fill:#000000;fill-opacity:1;fill-rule:nonzero;stroke:none"
         transform="matrix(1.3333333,0,0,-1.3333333,0,1120.8)" />
    </g>
    <g
       id="g242">
      <path
         id="path242"
         d="m 317.54,742.56 0.36,0.22 -0.38,-0.12 h 0.05 c 0.07,0 0.17,0.02 0.26,0.07 l 0.31,0.12 h -0.02 l 0.31,0.12 -0.02,-0.03 0.31,0.1 h -0.05 l 0.89,0.24 v 0 l 0.38,0.1 v 0 l 0.46,0.14 -0.07,-0.02 0.33,0.04 0.1,0.03 0.31,0.09 0.05,0.03 0.34,0.09 h 0.02 l 0.31,0.12 0.1,0.03 0.72,0.36 h 0.02 l 0.19,0.12 -0.24,-0.1 0.08,0.03 c 0.33,0.07 0.6,0.33 0.69,0.67 0.1,0.33 0,0.69 -0.24,0.96 -0.24,0.24 -0.6,0.36 -0.93,0.26 l -0.05,-0.02 c -0.1,-0.03 -0.17,-0.05 -0.24,-0.07 l -0.19,-0.12 0.02,0.02 -0.67,-0.36 0.07,0.05 -0.31,-0.12 v 0 l -0.34,-0.12 h 0.05 l -0.31,-0.1 0.07,0.03 -0.31,-0.08 -0.1,-0.02 -0.43,-0.14 h -0.02 l -0.39,-0.12 v 0 l -0.86,-0.27 -0.1,-0.02 -0.31,-0.15 -0.02,-0.02 -0.32,-0.12 -0.02,-0.02 -0.34,-0.17 c -0.07,-0.05 -0.16,-0.12 -0.24,-0.19 l -0.02,-0.03 0.24,0.17 -0.38,-0.19 c -0.27,-0.17 -0.44,-0.46 -0.44,-0.77 0,-0.31 0.17,-0.6 0.46,-0.74 0.26,-0.17 0.6,-0.15 0.86,0.02 z"
         style="fill:#000000;fill-opacity:1;fill-rule:nonzero;stroke:none"
         transform="matrix(1.3333333,0,0,-1.3333333,0,1120.8)" />
    </g>
    <g
       id="g243">
      <path
         id="path243"
         d="m 330.84,761.81 v 0.24 -0.03 0.03 l -0.24,-0.55 0.02,0.02 v 0 l 0.03,0.02 c 0.14,0.15 0.24,0.36 0.24,0.56 v 0.04 l -0.27,-0.6 h 0.03 l 0.02,0.03 0.03,0.02 v 0 l 0.02,0.03 v 0 0.02 -0.02 0.02 l -0.62,-0.24 v 0 c 0.26,-0.02 0.5,0.1 0.67,0.26 l 0.02,0.03 v 0 l 0.03,0.02 -0.68,-0.26 h 0.03 c 0.24,-0.03 0.45,0.07 0.65,0.21 0.16,0.17 0.26,0.39 0.26,0.63 v 0.02 l -0.48,-0.74 0.05,0.02 -0.43,-0.09 v 0 h -0.05 0.05 0.04 0.05 -0.02 0.02 c 0.27,-0.03 0.51,0.07 0.7,0.24 v 0.04 l -0.65,-0.28 h 0.05 0.07 l 0.62,0.04 h -0.09 0.05 v 0 h 0.12 v 0 h 0.07 l -0.19,0.03 0.12,-0.03 c 0.04,-0.02 0.12,-0.02 0.19,-0.02 h 0.09 l -0.24,0.02 h 0.1 v 0 l 0.07,-0.04 h 0.05 l 0.1,-0.03 -0.24,0.1 0.09,-0.05 c 0.07,-0.05 0.15,-0.07 0.24,-0.1 l 0.1,-0.02 -0.24,0.1 0.09,-0.05 0.08,-0.03 0.09,-0.04 -0.07,0.02 0.1,-0.05 v 0 l 0.07,-0.05 -0.15,0.1 0.1,-0.07 h -0.02 l 0.19,-0.15 -0.07,0.08 0.07,-0.08 -0.05,0.08 0.07,-0.12 0.07,-0.08 0.1,-0.12 v 0 l 0.1,-0.09 -0.12,0.12 0.09,-0.12 -0.02,0.05 0.05,-0.12 0.07,-0.12 0.07,-0.1 -0.02,0.05 0.07,-0.12 -0.07,0.21 0.02,-0.14 0.02,-0.07 0.15,-0.39 v 0.05 l 0.17,-0.6 v 0.07 l 0.14,-0.57 -0.02,0.02 0.14,-0.6 -0.02,0.07 0.19,-1.39 v 0.05 l 0.17,-1.97 v 0.07 -1.29 0 l 0.02,-2.19 v 0 l 0.07,-5.56 0.03,-0.05 0.07,-1.44 v 0 l 0.09,-2.04 v 0.07 -0.1 c 0,-0.33 0.2,-0.64 0.48,-0.84 0.29,-0.16 0.68,-0.16 0.96,0 0.32,0.2 0.48,0.51 0.46,0.84 v 0.1 0.05 l -0.12,2.04 v 0 l -0.1,1.44 v -0.05 l -0.09,5.57 v 0 l -0.05,2.21 v -0.05 1.29 0.08 l -0.17,1.96 v 0.05 l -0.19,1.39 -0.02,0.08 -0.12,0.6 v 0.04 l -0.17,0.56 v 0.04 l -0.19,0.6 v 0.05 l -0.17,0.39 0.02,-0.05 -0.05,0.14 c -0.02,0.07 -0.04,0.15 -0.09,0.19 l -0.07,0.15 -0.05,0.07 -0.07,0.1 0.04,-0.08 -0.04,0.1 -0.05,0.05 -0.07,0.12 c -0.03,0.05 -0.08,0.09 -0.1,0.14 l -0.1,0.1 v 0 l -0.09,0.12 0.05,-0.07 -0.08,0.12 -0.07,0.07 -0.07,0.09 -0.1,0.08 -0.16,0.16 h -0.03 l -0.09,0.08 c -0.05,0.02 -0.1,0.04 -0.12,0.07 l -0.1,0.05 v 0 l -0.1,0.04 -0.04,0.05 -0.12,0.05 0.07,-0.05 -0.07,0.05 c -0.1,0.05 -0.17,0.07 -0.24,0.1 l -0.12,0.02 0.24,-0.1 -0.1,0.05 c -0.07,0.03 -0.14,0.07 -0.24,0.1 h -0.1 0.05 l -0.09,0.02 v 0 l -0.08,0.03 c -0.07,0.02 -0.16,0.02 -0.24,0.02 h -0.09 l 0.19,-0.02 -0.12,0.04 c -0.05,0 -0.12,0 -0.19,0 h -0.07 v 0 h -0.12 v 0 h -0.05 -0.03 l -0.62,-0.04 h 0.05 -0.05 c -0.26,0 -0.5,-0.12 -0.67,-0.32 v -0.02 l 0.62,0.31 -0.02,-0.02 0.02,0.02 -0.05,-0.02 h -0.04 -0.05 0.05 v 0 c -0.15,0 -0.29,-0.03 -0.41,-0.12 h -0.05 c -0.26,-0.17 -0.46,-0.48 -0.43,-0.82 v -0.02 l 0.84,0.93 h -0.03 c -0.24,-0.02 -0.45,-0.12 -0.62,-0.33 h -0.02 v 0 l -0.03,-0.03 0.63,0.32 v 0 c -0.27,-0.03 -0.51,-0.15 -0.65,-0.36 h -0.05 l 0.05,0.02 -0.05,-0.02 h 0.02 l -0.02,-0.05 v 0 h -0.02 l -0.03,-0.03 -0.02,-0.02 c -0.12,-0.17 -0.19,-0.38 -0.17,-0.58 v -0.04 l 0.22,0.62 -0.05,-0.02 v 0 -0.05 c -0.17,-0.15 -0.24,-0.36 -0.22,-0.6 v -0.03 c 0.03,-0.14 0.05,-0.28 0.15,-0.4 l 0.12,-0.2 c 0.19,-0.28 0.55,-0.43 0.86,-0.33 0.36,0.09 0.58,0.38 0.6,0.72 z"
         style="fill:#000000;fill-opacity:1;fill-rule:nonzero;stroke:none"
         transform="matrix(1.3333333,0,0,-1.3333333,0,1120.8)" />
    </g>
    <g
       id="g244">
      <path
         id="path244"
         d="m 329.14,762.29 -0.08,-0.27 c -0.02,-0.09 -0.04,-0.21 -0.02,-0.31 l 0.34,-2.25 v 0.02 l 0.4,-3.38 -0.02,0.04 0.05,-0.45 v 0 l 0.17,-3.72 v 0.05 -0.84 0 l -0.03,-0.96 0.03,0.14 -0.15,-0.65 0.1,0.24 -0.12,-0.19 0.77,0.53 v 0 c -0.36,-0.05 -0.7,-0.29 -0.84,-0.6 v -0.05 0 0 l 0.31,0.41 v 0 c -0.17,-0.12 -0.27,-0.27 -0.34,-0.43 v 0 0 l -0.02,-0.05 c -0.17,-0.36 -0.07,-0.82 0.19,-1.13 l 0.02,-0.02 c 0.15,-0.17 0.34,-0.27 0.56,-0.34 h 0.02 l -0.55,0.34 0.05,-0.03 -0.24,1.06 v -0.05 c -0.17,-0.5 0.07,-1.03 0.52,-1.27 l 0.03,-0.03 -0.31,0.24 0.02,-0.02 c 0.14,-0.17 0.36,-0.26 0.58,-0.34 h 0.02 l -0.58,0.34 0.03,-0.02 c 0.09,-0.1 0.19,-0.2 0.31,-0.24 l 0.05,-0.03 -0.34,0.27 0.03,-0.05 c 0.12,-0.15 0.31,-0.24 0.48,-0.31 l 0.09,-0.03 0.03,-0.02 0.38,-0.12 -0.02,0.02 1,-0.33 -0.16,0.07 0.86,-0.48 0.1,-0.03 0.21,-0.09 h -0.02 l 0.24,-0.1 c 0.57,-0.24 1.25,0.03 1.51,0.63 0.24,0.55 -0.02,1.24 -0.6,1.51 l -0.22,0.07 v 0 l -0.21,0.1 0.07,-0.03 -0.86,0.46 c -0.05,0.02 -0.12,0.05 -0.17,0.07 l -1.03,0.34 -0.05,0.02 -0.39,0.1 -0.12,0.02 -0.09,0.02 0.33,-0.09 h -0.04 c -0.32,0.17 -0.7,0.17 -1.01,0 h -0.05 1.03 -0.02 c -0.24,0.12 -0.53,0.17 -0.77,0.12 l -0.02,-0.03 0.74,-0.09 -0.02,0.02 c -0.34,0.17 -0.7,0.17 -1.01,0 l -0.03,-0.02 c -0.5,-0.24 -0.74,-0.87 -0.5,-1.39 0.24,-0.53 0.84,-0.8 1.37,-0.58 0.55,0.19 0.84,0.77 0.67,1.32 v 0.05 c -0.1,0.26 -0.29,0.5 -0.55,0.62 l -0.05,0.03 c -0.22,0.12 -0.48,0.14 -0.72,0.07 h -0.02 l 0.72,-0.07 h -0.03 l 0.51,-0.53 -0.03,0.05 v 0 0 c -0.07,0.16 -0.19,0.31 -0.33,0.43 v 0 l 0.31,-0.41 v 0 0 0.05 c -0.17,0.31 -0.48,0.55 -0.84,0.6 v 0 c -0.51,0.05 -0.96,-0.31 -1.03,-0.79 -0.1,-0.48 0.19,-0.96 0.67,-1.11 0.48,-0.14 0.98,0.15 1.15,0.6 l 0.1,0.22 c 0.02,0.05 0.02,0.12 0.02,0.17 l 0.12,0.67 c 0,0.05 0,0.09 0,0.17 v 0.96 0 0.84 l -0.02,0.04 -0.24,3.72 v 0 l -0.05,0.48 v 0.05 l -0.48,3.39 -0.03,0.04 -0.5,2.24 0.02,-0.27 0.03,0.29 c 0.07,0.36 -0.17,0.7 -0.55,0.79 -0.36,0.07 -0.72,-0.14 -0.84,-0.5 z"
         style="fill:#000000;fill-opacity:1;fill-rule:nonzero;stroke:none"
         transform="matrix(1.3333333,0,0,-1.3333333,0,1120.8)" />
    </g>
    <g
       id="g245">
      <path
         id="path245"
         d="m 317.88,733.44 0.26,0.48 h 0.03 l 0.19,0.41 -0.05,-0.05 0.24,0.36 v 0 l 0.6,1.01 c 0.1,0.12 0.12,0.24 0.15,0.41 v 0 l -0.29,-0.6 v 0.02 c 0.19,0.17 0.31,0.38 0.31,0.62 v 0.03 0 0 c 0.05,0.53 -0.31,0.96 -0.84,1.01 -0.48,0.04 -0.94,-0.34 -0.98,-0.84 -0.05,-0.51 0.33,-0.96 0.81,-1.01 h 0.05 c 0.24,0 0.48,0.07 0.67,0.24 l 0.03,0.02 c 0.19,0.15 0.31,0.39 0.31,0.6 v 0.03 l -1.01,-0.84 h 0.05 c 0.24,-0.03 0.48,0.07 0.67,0.24 h 0.05 c 0.17,0.16 0.26,0.38 0.29,0.64 l 0.02,0.03 c 0.02,0.53 -0.36,0.96 -0.89,1.01 -0.5,0.02 -0.96,-0.36 -0.98,-0.87 -0.05,-0.5 0.33,-0.96 0.84,-1.01 h 0.02 l -0.65,0.36 v -0.02 c 0.17,-0.24 0.46,-0.36 0.75,-0.36 0.31,0 0.57,0.14 0.74,0.38 l 0.03,0.03 -0.84,-0.36 h 0.02 c 0.53,-0.05 0.98,0.31 1.03,0.84 v 0.02 c 0.05,0.51 -0.33,0.99 -0.86,1.01 -0.51,0.05 -0.96,-0.31 -1.01,-0.84 -0.05,-0.5 0.31,-0.98 0.84,-1.03 h 0.02 v 0 h 0.03 c 0.26,-0.03 0.5,0.07 0.72,0.24 v 0 l -0.79,-0.22 h 0.02 c 0.29,-0.05 0.58,0.03 0.79,0.22 l 0.03,0.05 -0.65,-0.27 h 0.02 l -0.77,0.46 0.03,-0.03 c 0.17,-0.26 0.48,-0.45 0.79,-0.45 h 0.05 l -0.87,0.57 0.03,-0.02 c 0.07,-0.19 0.21,-0.36 0.41,-0.48 h 0.04 l -0.16,0.1 0.04,-0.03 0.05,-0.05 0.05,-0.02 -0.05,0.05 0.05,-0.05 -0.36,0.82 v 0 c -0.05,-0.34 0.12,-0.68 0.38,-0.87 l 0.03,-0.02 c 0.14,-0.1 0.33,-0.17 0.5,-0.17 l 0.03,-0.02 -0.84,0.64 0.02,-0.04 c 0.02,-0.1 0.05,-0.17 0.12,-0.22 l 0.05,-0.07 h -0.03 l 0.1,-0.12 v 0 l 0.07,-0.12 -0.07,0.14 0.07,-0.17 v -0.04 l 0.22,-0.41 -0.05,0.12 0.02,-0.1 0.03,-0.09 0.05,-0.1 v 0.02 l 0.04,-0.14 c 0.03,-0.05 0.05,-0.1 0.08,-0.14 l 0.07,-0.1 0.02,-0.02 0.05,-0.1 -0.07,0.17 0.02,-0.12 c 0.05,-0.1 0.1,-0.17 0.15,-0.24 l 0.07,-0.1 v 0 l 0.07,-0.09 c 0.02,-0.03 0.05,-0.05 0.07,-0.1 l 0.24,-0.22 -0.31,0.7 v 0 c 0,-0.55 0.46,-1.01 1.01,-1.01 h 0.02 l -0.96,0.7 0.03,-0.05 c 0.14,-0.41 0.5,-0.67 0.93,-0.67 h 0.03 l -0.7,0.29 0.02,-0.03 c 0.17,-0.19 0.44,-0.29 0.7,-0.29 h 0.02 -0.02 0.05 v 0 0 0 h 0.02 v 0 h 0.03 -0.03 0.05 v 0 0 0 h 0.05 l -0.46,0.1 v 0 c 0.15,-0.07 0.29,-0.12 0.46,-0.12 v 0 h 0.02 v 0 c 0.29,0 0.53,0.12 0.72,0.29 l 0.03,0.02 -0.7,-0.29 v 0 c 0.29,0 0.53,0.1 0.72,0.29 0.19,0.19 0.29,0.46 0.29,0.72 v 0.03 c 0,0.55 -0.46,0.98 -0.99,0.98 -0.55,0.02 -1,-0.43 -1,-0.98 0,-0.53 0.43,-0.99 0.98,-1.01 h 0.02 c 0.27,0 0.53,0.12 0.7,0.31 0.19,0.17 0.31,0.43 0.31,0.7 v 0.02 c 0,0.55 -0.43,1.01 -0.98,1.01 -0.58,0 -1.01,-0.46 -1.01,-1.01 0,-0.55 0.43,-1.01 0.98,-1.01 h 0.03 c 0.14,0 0.31,0.05 0.45,0.12 h 0.03 c 0.14,0.07 0.24,0.17 0.33,0.27 l 0.05,0.07 -0.12,-0.12 0.05,0.02 0.07,0.07 0.07,0.05 v 0 l 0.05,0.1 c 0.05,0.02 0.07,0.05 0.1,0.09 l 0.12,0.15 -0.05,-0.07 0.22,0.26 c 0.02,0.02 0.07,0.05 0.07,0.1 l 0.05,0.07 0.04,0.05 0.03,0.07 -0.36,-0.36 0.07,0.02 c 0.17,0.1 0.29,0.24 0.38,0.39 l 0.05,0.09 v 0.05 l 0.05,0.05 -0.02,-0.05 0.04,0.07 h -0.02 l 0.12,0.17 c 0.02,0.05 0.05,0.1 0.05,0.14 l 0.02,0.05 c 0.05,0.12 0.1,0.24 0.1,0.36 v 0.1 l -0.58,-0.91 0.05,0.02 c 0.24,0.12 0.41,0.31 0.5,0.58 l 0.03,0.07 -0.03,-0.07 0.03,0.07 -0.24,-0.36 0.05,0.05 v 0 l 0.04,0.04 c 0.1,0.1 0.17,0.22 0.22,0.34 l 0.02,0.05 -0.48,-0.53 0.05,0.02 c 0.19,0.1 0.34,0.27 0.46,0.46 v 0.05 l -0.17,-0.27 0.05,0.05 v 0 0 l -0.15,-0.12 0.05,0.05 c 0.07,0.05 0.12,0.07 0.17,0.12 l 0.02,0.02 -0.14,-0.12 0.05,0.05 v -0.02 l 0.12,0.07 -0.58,-0.14 h 0.05 -0.02 0.02 l -0.22,0.02 h 0.03 c 0.09,-0.02 0.17,-0.05 0.24,-0.05 h 0.02 l -0.69,0.31 0.02,-0.02 c 0.17,-0.19 0.43,-0.29 0.7,-0.29 v 0 h 0.02 v 0 0 l 0.05,-0.02 -0.84,0.48 0.02,-0.05 c 0.19,-0.29 0.51,-0.43 0.84,-0.46 h 0.05 l -0.72,0.32 v -0.03 c 0.07,-0.07 0.17,-0.14 0.29,-0.19 l 0.02,-0.02 -0.5,0.6 0.02,-0.05 c 0.12,-0.41 0.51,-0.7 0.94,-0.7 h 0.02 l -0.98,1.01 v 0 c 0,-0.26 0.09,-0.53 0.26,-0.72 l 0.05,-0.02 v 0 l 0.05,-0.05 -0.1,0.07 0.1,-0.07 0.02,-0.05 0.05,-0.07 -0.17,0.26 0.05,-0.07 c 0,-0.05 0.05,-0.1 0.07,-0.12 l 0.12,-0.24 -0.05,0.1 0.12,-0.27 0.03,-0.05 0.07,-0.14 -0.05,0.12 0.05,-0.17 c 0.02,-0.02 0.05,-0.09 0.07,-0.14 l 0.05,-0.1 0.05,-0.05 0.21,-0.36 0.03,-0.02 v -0.05 c 0.05,-0.05 0.09,-0.09 0.14,-0.14 v -0.03 l -0.14,0.2 0.02,-0.05 c 0.19,-0.31 0.53,-0.48 0.89,-0.48 v 0 l -0.89,0.55 v -0.05 c 0.07,-0.09 0.12,-0.19 0.22,-0.26 l 0.02,-0.03 v 0 l 0.03,-0.02 c 0.19,-0.19 0.43,-0.29 0.69,-0.29 h 0.05 l -0.55,0.17 0.02,-0.02 -0.02,0.02 0.02,-0.02 c 0.05,-0.05 0.1,-0.08 0.17,-0.1 l 0.05,-0.02 -0.48,0.45 0.02,-0.02 c 0.12,-0.27 0.36,-0.46 0.65,-0.53 h 0.05 c 0.07,-0.05 0.17,-0.05 0.24,-0.05 h 0.02 v 0 h 0.05 l -0.72,0.31 0.05,-0.02 c 0.17,-0.19 0.43,-0.31 0.69,-0.31 h 0.05 v 0 h 0.03 l -0.12,0.02 0.07,-0.02 c 0.12,0 0.24,0 0.36,0.02 l 0.09,0.03 0.05,0.02 h 0.1 c 0.05,0.02 0.12,0.05 0.14,0.07 l 0.1,0.05 -0.17,-0.07 0.07,0.02 c 0.1,0.03 0.17,0.07 0.24,0.12 l 0.1,0.05 -0.05,-0.02 0.07,0.04 -0.02,-0.02 0.07,0.05 c 0.05,0 0.07,0.02 0.12,0.05 l 0.05,0.04 c 0.05,0.03 0.07,0.05 0.12,0.1 l 0.19,0.17 -0.07,-0.07 0.19,0.14 0.05,0.05 0.14,0.12 0.03,0.02 0.16,0.12 c 0.03,0.05 0.05,0.1 0.1,0.12 l 0.12,0.17 h 0.02 l 0.36,0.41 v 0.02 l 0.51,0.58 -0.34,-0.24 0.05,0.02 c 0.34,0.17 0.58,0.53 0.55,0.89 v 0.05 l -0.29,-0.72 0.03,0.02 -0.17,-0.14 0.05,0.02 c 0.17,0.12 0.29,0.29 0.36,0.46 l 0.02,0.07 -0.91,-0.65 h 0.02 c 0.15,0 0.29,0.05 0.44,0.12 h 0.04 c 0.1,0.05 0.17,0.12 0.27,0.22 h 0.02 v 0 l 0.03,0.05 -0.72,-0.32 h 0.02 c 0.29,0 0.53,0.1 0.72,0.32 v 0 l -0.67,-0.29 v 0 0 h 0.05 c 0.26,0 0.5,0.12 0.69,0.29 l 0.03,0.02 -0.7,-0.29 h 0.05 c 0.12,0 0.24,0 0.36,0.07 l 0.05,0.03 -0.39,-0.1 h 0.05 l -0.7,0.29 h 0.03 v 0 l 0.02,-0.02 c 0.19,-0.22 0.46,-0.29 0.7,-0.29 h 0.05 0.02 v 0 l -0.55,0.14 0.02,-0.02 -0.26,0.29 0.02,-0.05 c 0.1,-0.12 0.22,-0.24 0.36,-0.34 h 0.05 l -0.1,0.05 0.03,-0.02 -0.05,0.02 0.05,-0.02 -0.19,0.21 0.02,-0.05 -0.19,0.58 v -0.02 c 0,-0.24 0.09,-0.51 0.29,-0.7 l 0.07,-0.07 v 0 l 0.05,-0.05 -0.22,0.34 0.05,-0.1 0.02,-0.1 0.05,-0.07 c 0.02,-0.02 0.05,-0.07 0.07,-0.12 l 0.05,-0.02 -0.07,0.09 0.02,-0.07 -0.07,0.19 0.05,-0.09 c 0,-0.07 0.02,-0.15 0.07,-0.22 l 0.05,-0.02 -0.12,0.21 0.02,-0.07 v 0 l 0.03,-0.07 v -0.05 l 0.07,-0.17 -0.05,0.29 v -0.07 c 0,-0.07 0,-0.12 0,-0.19 l 0.02,-0.05 c 0.03,-0.07 0.05,-0.14 0.05,-0.19 l 0.05,-0.07 c 0,-0.03 0.02,-0.08 0.05,-0.1 l 0.05,-0.07 -0.15,0.6 v -0.07 c -0.02,-0.24 0.03,-0.48 0.17,-0.68 l 0.05,-0.07 -0.03,0.05 0.03,-0.05 -0.05,0.12 0.05,-0.12 c 0,-0.02 0.02,-0.07 0.05,-0.09 l 0.02,-0.05 -0.02,0.05 0.02,-0.03 c 0.02,-0.05 0.05,-0.09 0.07,-0.12 l 0.05,-0.07 -0.05,0.05 0.05,-0.05 0.05,-0.07 0.12,-0.17 c 0.05,-0.02 0.05,-0.05 0.07,-0.07 l 0.05,-0.03 c 0.17,-0.19 0.41,-0.26 0.67,-0.26 h 0.02 0.03 v 0 0 h 0.05 -0.03 0.05 v 0 h 0.02 l -0.93,0.65 0.02,-0.05 c 0.15,-0.38 0.51,-0.65 0.91,-0.65 h 0.05 v 0 h 0.03 v 0 h 0.02 v 0 h 0.02 c 0.27,0 0.51,0.12 0.68,0.29 l 0.02,0.05 -0.67,-0.31 h 0.02 -0.02 0.05 0.02 v 0 l 0.02,0.02 h 0.03 c 0.12,0 0.26,0.02 0.38,0.07 l 0.05,0.05 -0.41,-0.12 h 0.03 c 0.24,0 0.48,0.12 0.64,0.29 l 0.03,0.02 -0.15,-0.12 0.08,0.05 -0.08,-0.05 0.08,0.05 -0.05,-0.02 0.12,0.04 0.09,0.05 0.1,0.1 0.05,0.02 0.19,0.17 c 0.05,0.05 0.12,0.07 0.17,0.14 l 0.07,0.1 -0.14,-0.12 0.12,0.07 c 0.02,0.05 0.07,0.07 0.09,0.1 l 0.1,0.12 c 0.05,0.05 0.07,0.07 0.12,0.12 l 0.19,0.36 -0.02,-0.05 0.09,0.12 -0.05,-0.05 0.1,0.12 c 0.02,0.03 0.05,0.05 0.1,0.1 l 0.07,0.14 -0.12,-0.17 0.19,0.22 h 0.02 l 0.17,0.19 0.05,0.1 0.05,0.02 -0.07,-0.09 v 0.02 l 0.07,0.07 0.05,0.05 c 0.02,0.05 0.07,0.12 0.09,0.17 l 0.03,0.05 -0.41,-0.44 0.02,0.03 c 0.15,0.07 0.24,0.17 0.31,0.26 l 0.05,0.05 -0.31,-0.26 0.05,0.02 0.09,0.07 0.1,0.05 -0.53,-0.17 h 0.03 v 0 h 0.02 c 0.24,0 0.48,0.12 0.65,0.29 l 0.05,0.02 -0.7,-0.26 h 0.02 v 0 h 0.03 v 0 h 0.02 l -0.67,0.26 v -0.02 c 0.19,-0.17 0.43,-0.29 0.7,-0.29 v 0 l -0.65,0.29 v 0 0 l 0.02,-0.02 c 0.17,-0.17 0.41,-0.29 0.65,-0.29 h 0.05 v 0 0 l -0.65,0.29 v -0.03 l -0.26,0.67 v -0.02 c 0,-0.53 0.43,-0.96 0.96,-0.96 v 0 0 h 0.02 l -0.67,0.29 0.02,-0.03 -0.29,0.68 v -0.03 c 0,-0.53 0.44,-0.96 0.94,-0.96 h 0.02 c 0.39,0 0.75,0.24 0.89,0.6 0.15,0.34 0.05,0.75 -0.21,1.01 -0.27,0.29 -0.68,0.36 -1.04,0.22 -0.33,-0.15 -0.57,-0.48 -0.57,-0.87 v -0.02 0 -0.05 c 0,-0.24 0.09,-0.48 0.29,-0.65 0.16,-0.19 0.4,-0.29 0.67,-0.29 v 0 l -0.84,0.51 0.09,-0.19 c 0.03,-0.03 0.08,-0.08 0.1,-0.1 l 0.07,-0.12 -0.09,0.14 0.07,-0.09 v -0.03 l 0.07,-0.12 -0.02,0.03 0.07,-0.1 v 0 l 0.05,-0.09 v 0 l 0.04,-0.12 -0.07,0.19 0.1,-0.31 v 0 l 0.02,-0.05 0.03,-0.05 v -0.07 l -0.03,0.12 0.03,-0.05 v -0.07 l 0.02,-0.1 c 0,-0.02 0.02,-0.07 0.05,-0.09 l 0.02,-0.08 c 0.05,-0.12 0.12,-0.21 0.19,-0.31 l 0.05,-0.02 -0.26,0.48 0.02,-0.05 c 0.03,-0.12 0.05,-0.19 0.1,-0.29 l 0.05,-0.07 -0.03,0.05 0.03,-0.05 -0.03,0.05 0.03,-0.07 c 0.04,-0.1 0.12,-0.22 0.19,-0.29 l 0.09,-0.1 c 0.2,-0.19 0.44,-0.26 0.68,-0.26 h 0.02 c 0.53,0 0.94,0.41 0.94,0.93 0,0.51 -0.41,0.94 -0.94,0.94 -0.53,0 -0.96,-0.43 -0.96,-0.94 v -0.04 c 0,-0.32 0.17,-0.6 0.43,-0.77 l 0.03,-0.03 -0.12,0.12 v -0.02 c 0.19,-0.19 0.43,-0.29 0.67,-0.29 h 0.02 l -0.79,0.43 0.02,-0.02 c 0.2,-0.29 0.46,-0.43 0.8,-0.43 v 0 0 h 0.04 l -0.93,0.96 v -0.05 c 0,-0.53 0.41,-0.94 0.93,-0.94 h 0.05 l -0.91,0.65 0.02,-0.02 c 0.12,-0.39 0.48,-0.65 0.89,-0.65 h 0.03 v 0 h 0.02 v 0 h 0.05 v 0 0 0 h 0.02 v 0 h 0.05 v 0 0 0 h 0.05 -0.03 0.05 v 0 h 0.03 c 0.24,0 0.48,0.1 0.64,0.29 h 0.03 l -0.67,-0.27 h 0.02 c 0.17,0 0.29,0.03 0.43,0.1 l 0.05,0.02 -0.43,-0.09 h 0.05 c 0.16,0 0.36,0.05 0.5,0.14 l 0.12,0.1 0.1,0.05 0.09,0.09 -0.09,-0.07 0.09,0.05 c 0.05,0.05 0.12,0.09 0.17,0.14 l 0.1,0.1 -0.08,-0.07 0.1,0.09 c 0.05,0.03 0.1,0.1 0.14,0.12 l 0.1,0.12 -0.1,-0.09 0.1,0.09 v 0 l 0.1,0.07 c 0.07,0.08 0.14,0.15 0.19,0.24 l 0.07,0.15 -0.02,-0.05 0.16,0.24 -0.02,-0.02 0.24,0.33 v 0 l 0.17,0.24 -0.05,-0.07 0.05,0.07 c 0.07,0.1 0.14,0.19 0.19,0.31 v 0.08 l -0.1,-0.24 0.08,0.09 -0.12,-0.14 0.02,0.05 0.05,0.04 0.07,0.08 v 0.02 l 0.05,0.05 -0.15,-0.15 0.12,0.1 c 0.03,0.02 0.08,0.05 0.1,0.1 h 0.02 l -0.64,-0.27 v 0 c 0.36,0 0.69,0.19 0.84,0.51 l 0.02,0.02 -0.19,-0.24 0.02,0.02 -0.67,-0.26 h 0.05 c 0.29,0 0.6,0.14 0.77,0.41 l 0.02,0.05 -1.2,-0.34 v 0 c 0.14,-0.07 0.29,-0.12 0.43,-0.12 h 0.03 v 0 h 0.02 v 0 0 0 h 0.02 v 0 h 0.05 v 0 h 0.03 v 0 h 0.02 v 0 0 0 h 0.02 l -0.57,0.19 0.05,-0.02 c 0.16,-0.12 0.36,-0.19 0.57,-0.19 h 0.03 l -0.84,0.5 v 0 c 0.14,-0.31 0.48,-0.53 0.84,-0.53 h 0.02 l -0.67,0.29 0.02,-0.02 -0.12,0.14 0.03,-0.02 c 0.16,-0.29 0.48,-0.44 0.79,-0.44 v 0 l -0.84,0.53 0.02,-0.02 c 0.05,-0.1 0.1,-0.17 0.17,-0.24 l 0.02,-0.03 -0.04,0.08 0.12,-0.2 v 0.03 l 0.14,-0.17 -0.07,0.1 0.12,-0.17 v -0.05 l 0.12,-0.17 -0.03,0.05 0.29,-0.5 -0.05,0.09 0.1,-0.24 0.05,-0.07 0.12,-0.24 0.05,-0.07 0.4,-0.63 c 0.03,-0.02 0.08,-0.07 0.1,-0.09 l 0.17,-0.19 c 0.33,-0.39 0.91,-0.41 1.32,-0.08 0.38,0.34 0.41,0.94 0.07,1.32 l -0.17,0.17 0.1,-0.07 -0.43,0.6 0.04,-0.07 -0.12,0.24 0.03,-0.07 -0.1,0.24 -0.05,0.12 -0.28,0.48 -0.05,0.04 -0.12,0.2 0.02,-0.03 -0.09,0.17 -0.08,0.1 -0.14,0.16 v 0 l -0.14,0.2 -0.05,0.04 -0.05,0.03 0.19,-0.24 -0.02,0.02 c -0.15,0.31 -0.48,0.51 -0.84,0.51 v 0 l 0.77,-0.41 v 0.05 c -0.05,0.02 -0.1,0.07 -0.12,0.12 l -0.05,0.02 c -0.17,0.17 -0.41,0.29 -0.65,0.29 h -0.02 l 0.84,-0.53 v 0.02 c -0.17,0.32 -0.48,0.51 -0.84,0.51 h -0.03 l 0.55,-0.17 -0.04,0.02 c -0.15,0.12 -0.36,0.2 -0.56,0.2 h -0.02 v 0 0 0 h -0.02 v 0 h -0.03 v 0 h -0.05 v 0 h -0.02 v 0 0 0 h -0.02 v 0 h -0.03 l 0.41,-0.1 v 0 c -0.43,0.22 -0.96,0.07 -1.2,-0.31 l -0.02,-0.05 0.79,0.43 h -0.05 c -0.24,0 -0.48,-0.09 -0.65,-0.26 l -0.02,-0.05 c -0.07,-0.07 -0.12,-0.14 -0.17,-0.24 h -0.02 l 0.84,0.5 v 0 c -0.27,0 -0.51,-0.09 -0.7,-0.26 v -0.02 l 0.1,0.07 -0.12,-0.07 c -0.08,-0.05 -0.12,-0.1 -0.17,-0.17 l -0.05,-0.05 v 0 l -0.05,-0.07 0.05,0.05 -0.05,-0.05 c -0.05,-0.05 -0.07,-0.07 -0.12,-0.12 l -0.07,-0.1 c -0.02,-0.07 -0.07,-0.14 -0.1,-0.21 l -0.02,-0.08 0.17,0.32 -0.05,-0.08 -0.07,-0.09 -0.15,-0.22 0.03,0.03 -0.24,-0.34 -0.05,-0.02 -0.14,-0.24 -0.05,-0.08 -0.07,-0.14 0.19,0.24 -0.1,-0.07 v -0.03 l -0.09,-0.09 c -0.05,-0.03 -0.1,-0.05 -0.12,-0.1 l -0.1,-0.12 0.14,0.15 -0.09,-0.1 -0.07,-0.05 -0.1,-0.12 0.17,0.17 -0.1,-0.07 c -0.02,-0.03 -0.07,-0.05 -0.09,-0.07 l -0.12,-0.1 0.07,0.05 -0.12,-0.1 0.53,0.17 h -0.05 c -0.15,0 -0.29,-0.02 -0.43,-0.1 l -0.03,-0.02 0.41,0.12 h -0.02 c -0.24,0 -0.48,-0.12 -0.65,-0.29 l -0.05,-0.02 0.7,0.26 h -0.03 v 0 h -0.05 0.03 -0.05 v 0 0 0 h -0.05 v 0 h -0.02 v 0 0 0 h -0.05 v 0 h -0.02 v 0 h -0.03 l 0.89,-0.62 v 0.02 c -0.12,0.39 -0.48,0.65 -0.89,0.65 h -0.05 c -0.52,0 -0.93,-0.43 -0.93,-0.96 0,-0.5 0.41,-0.94 0.93,-0.94 0.51,0 0.94,0.41 0.94,0.94 v 0.05 c 0,0.24 -0.1,0.48 -0.26,0.65 -0.17,0.19 -0.41,0.28 -0.68,0.28 h -0.04 v 0 0 l 0.79,-0.43 -0.05,0.05 c -0.14,0.24 -0.46,0.41 -0.77,0.41 h -0.02 l 0.67,-0.29 -0.02,0.05 c -0.05,0.02 -0.1,0.07 -0.15,0.12 h -0.02 l 0.41,-0.79 v 0.04 c 0,0.51 -0.41,0.94 -0.94,0.94 h -0.02 l 0.67,-0.29 -0.1,0.1 0.19,-0.29 -0.02,0.07 -0.02,0.05 -0.03,0.05 -0.02,0.05 -0.05,0.07 0.12,-0.29 -0.02,0.05 c -0.03,0.19 -0.12,0.36 -0.24,0.48 l -0.05,0.05 0.19,-0.29 -0.02,0.07 0.02,-0.12 v 0.07 -0.07 0.05 l -0.02,0.12 -0.03,0.07 0.03,-0.05 -0.05,0.07 v 0.03 l -0.07,0.31 c -0.03,0.05 -0.05,0.12 -0.1,0.17 l -0.05,0.12 v 0 l -0.07,0.09 v 0 l -0.02,0.1 h -0.03 l -0.07,0.14 v -0.02 l -0.05,0.1 c -0.02,0.04 -0.05,0.07 -0.07,0.12 l -0.07,0.09 0.07,-0.12 -0.1,0.17 c -0.16,0.29 -0.48,0.48 -0.81,0.48 v 0 l 0.91,-0.96 v 0.05 0 0.02 c 0,0.53 -0.41,0.94 -0.94,0.94 h -0.02 c -0.36,0 -0.72,-0.22 -0.86,-0.58 -0.15,-0.36 -0.05,-0.77 0.21,-1.03 0.27,-0.29 0.67,-0.36 1.01,-0.19 0.36,0.12 0.6,0.48 0.6,0.86 v 0.03 c 0,0.24 -0.12,0.48 -0.26,0.67 h -0.05 c -0.17,0.19 -0.41,0.29 -0.65,0.29 h -0.02 v 0 0 c -0.41,0 -0.75,-0.24 -0.89,-0.58 -0.15,-0.36 -0.07,-0.77 0.19,-1.03 0.29,-0.29 0.7,-0.36 1.06,-0.22 0.33,0.15 0.57,0.51 0.57,0.89 v 0.02 c 0,0.24 -0.09,0.48 -0.29,0.68 l -0.02,0.02 c -0.17,0.17 -0.41,0.26 -0.67,0.26 v 0 0 h -0.05 l 0.7,-0.26 h -0.03 v 0 l -0.02,0.02 c -0.17,0.2 -0.41,0.27 -0.67,0.27 v 0 l 0.67,-0.27 -0.05,0.03 c -0.17,0.17 -0.41,0.29 -0.65,0.29 h -0.02 v 0 h -0.03 v 0 h -0.02 c -0.24,0 -0.48,-0.12 -0.65,-0.29 l -0.02,-0.03 0.67,0.27 h -0.02 v 0 h -0.03 c -0.19,0 -0.38,-0.05 -0.53,-0.15 l -0.09,-0.04 0.12,0.02 H 330 c -0.12,-0.07 -0.24,-0.14 -0.31,-0.26 l -0.05,-0.05 0.31,0.26 -0.05,-0.02 c -0.16,-0.1 -0.33,-0.24 -0.4,-0.43 l -0.03,-0.05 0.1,0.17 -0.05,-0.05 0.1,0.07 h -0.05 c -0.03,-0.02 -0.05,-0.07 -0.07,-0.12 l -0.05,-0.02 0.07,0.07 -0.14,-0.17 v 0 l -0.22,-0.24 c -0.05,-0.02 -0.1,-0.1 -0.12,-0.14 l -0.1,-0.12 0.08,0.09 -0.1,-0.12 -0.02,-0.05 -0.1,-0.09 -0.02,-0.07 -0.22,-0.34 0.1,0.12 -0.1,-0.1 0.1,0.1 -0.1,-0.07 c -0.05,-0.05 -0.12,-0.1 -0.14,-0.15 l -0.1,-0.12 0.14,0.15 -0.19,-0.17 0.05,0.05 -0.07,-0.05 0.09,0.05 -0.09,-0.05 -0.05,-0.02 -0.07,-0.05 -0.07,-0.03 -0.05,-0.04 c -0.05,-0.03 -0.12,-0.08 -0.15,-0.1 l -0.02,-0.05 0.7,0.29 h -0.03 c -0.17,0 -0.31,-0.05 -0.45,-0.1 l -0.05,-0.02 0.48,0.1 h -0.03 -0.02 v 0 h -0.02 -0.05 0.02 -0.02 c -0.27,0 -0.51,-0.1 -0.67,-0.27 l -0.05,-0.02 0.69,0.26 h -0.02 v 0 h -0.02 v 0 h -0.03 v 0 h -0.05 l 0.92,-0.67 -0.03,0.05 c -0.12,0.38 -0.48,0.65 -0.89,0.67 h -0.02 v 0 h -0.05 0.03 -0.05 v 0 0 h -0.03 -0.02 l 0.67,-0.29 h -0.02 l 0.07,-0.07 -0.12,0.14 0.1,-0.09 -0.05,0.02 -0.05,0.1 -0.02,0.07 0.07,-0.17 -0.03,0.05 -0.02,0.07 -0.02,0.07 0.02,-0.09 -0.02,0.07 -0.05,0.12 -0.05,0.05 -0.02,0.02 -0.03,0.07 0.15,-0.67 v 0.07 c 0.02,0.22 0,0.44 -0.1,0.63 l -0.05,0.07 0.05,-0.12 v 0.05 l 0.05,-0.22 -0.03,0.07 0.03,-0.14 v 0.07 c 0,0.12 -0.03,0.22 -0.05,0.34 l -0.07,0.19 0.02,-0.05 -0.02,0.07 v 0 l -0.03,0.08 c -0.02,0.07 -0.04,0.14 -0.09,0.24 l -0.05,0.04 0.1,-0.19 -0.03,0.1 c -0.02,0.05 -0.05,0.12 -0.07,0.17 l -0.05,0.07 -0.07,0.09 -0.02,0.05 0.07,-0.09 -0.05,0.07 0.05,-0.1 -0.03,0.05 c -0.04,0.12 -0.12,0.24 -0.21,0.34 l -0.05,0.02 v 0 l -0.07,0.1 0.29,-0.72 v 0.02 c 0,0.24 -0.05,0.46 -0.2,0.6 l -0.02,0.05 c -0.05,0.07 -0.12,0.14 -0.19,0.19 l -0.05,0.05 -0.02,0.02 -0.05,0.03 c -0.05,0.02 -0.07,0.04 -0.12,0.07 h -0.03 l 0.39,-0.31 -0.03,0.02 c -0.07,0.1 -0.16,0.19 -0.28,0.26 l -0.03,0.03 c -0.14,0.12 -0.36,0.17 -0.55,0.17 v 0 h -0.02 -0.05 l 0.72,-0.29 -0.05,0.02 v 0 0.03 c -0.19,0.19 -0.43,0.28 -0.72,0.31 h -0.05 c -0.12,0 -0.24,-0.05 -0.36,-0.07 l -0.05,-0.03 0.39,0.05 h -0.05 c -0.29,0 -0.53,-0.07 -0.72,-0.26 v -0.03 l 0.7,0.29 h -0.05 v 0 0 c -0.29,0 -0.53,-0.12 -0.72,-0.29 l -0.03,-0.02 0.7,0.29 h -0.02 c -0.27,0 -0.51,-0.1 -0.7,-0.29 l -0.02,-0.03 v 0 l -0.03,-0.02 0.24,0.19 -0.02,-0.02 0.45,0.12 h -0.02 c -0.41,0 -0.79,-0.27 -0.94,-0.65 l -0.02,-0.02 0.38,0.43 h -0.02 c -0.07,-0.05 -0.12,-0.07 -0.17,-0.12 l -0.02,-0.05 c -0.17,-0.17 -0.29,-0.43 -0.29,-0.67 v -0.05 l 0.55,0.89 h -0.02 c -0.15,-0.07 -0.24,-0.17 -0.34,-0.27 l -0.5,-0.57 v 0 l -0.36,-0.43 v 0 l -0.12,-0.15 0.09,0.1 -0.16,-0.12 h 0.02 l -0.17,-0.12 0.05,0.02 -0.19,-0.12 -0.07,-0.07 -0.22,-0.19 0.12,0.09 -0.05,-0.04 0.1,0.07 -0.07,-0.05 -0.05,-0.02 -0.07,-0.05 h -0.05 l -0.07,-0.05 0.26,0.1 -0.07,-0.03 c -0.07,0 -0.12,-0.02 -0.19,-0.07 l -0.08,-0.02 0.17,0.07 -0.07,-0.03 0.07,0.03 -0.12,-0.05 0.36,0.02 -0.07,0.03 c -0.05,0 -0.1,0 -0.14,0 h -0.03 v 0 h -0.05 l 0.72,-0.29 h -0.02 c -0.19,0.19 -0.43,0.31 -0.72,0.31 h -0.05 v 0 h -0.02 l 0.26,-0.02 h -0.05 l 0.65,-0.53 v 0.02 c -0.09,0.2 -0.26,0.34 -0.45,0.46 h -0.05 l 0.14,-0.07 -0.02,0.02 -0.05,0.03 -0.02,0.02 c -0.17,0.12 -0.39,0.17 -0.58,0.17 h -0.05 l 0.72,-0.29 v 0 0 l -0.02,0.05 0.17,-0.27 -0.03,0.05 c -0.17,0.34 -0.5,0.55 -0.91,0.55 v 0 l 0.86,-0.5 -0.02,0.07 c -0.05,0.05 -0.1,0.12 -0.17,0.19 l -0.02,0.03 0.14,-0.17 -0.02,0.05 0.02,-0.05 -0.24,0.36 0.05,-0.05 -0.07,0.12 0.07,-0.14 -0.05,0.14 c -0.02,0.05 -0.02,0.07 -0.07,0.12 l -0.05,0.15 v -0.05 l -0.12,0.29 c -0.02,0.02 -0.02,0.07 -0.05,0.12 l -0.14,0.24 0.05,-0.12 -0.03,0.04 c -0.04,0.1 -0.09,0.2 -0.16,0.27 l -0.05,0.07 0.02,-0.02 -0.07,0.07 c -0.05,0.05 -0.05,0.07 -0.07,0.09 l -0.07,0.08 v 0 h -0.03 l 0.31,-0.7 v 0 c -0.02,0.29 -0.12,0.53 -0.31,0.72 -0.19,0.19 -0.43,0.29 -0.72,0.29 h -0.02 l 0.98,-0.67 -0.02,0.02 c -0.1,0.24 -0.27,0.46 -0.51,0.58 l -0.04,0.02 0.26,-0.19 -0.02,0.05 c -0.2,0.16 -0.46,0.26 -0.7,0.26 h -0.05 l 0.84,-0.43 -0.02,0.02 c -0.17,0.29 -0.48,0.46 -0.84,0.46 h -0.05 v 0 0 h -0.02 v 0 l 0.72,-0.29 h -0.03 c -0.19,0.22 -0.43,0.29 -0.72,0.29 h -0.02 l 0.26,-0.03 -0.05,0.03 c -0.07,0 -0.16,0.02 -0.26,0.02 h -0.02 0.02 -0.05 c -0.19,0 -0.36,-0.07 -0.5,-0.17 l -0.12,-0.07 h -0.03 l -0.07,-0.05 c -0.05,-0.04 -0.12,-0.09 -0.14,-0.14 h -0.03 l 0.15,0.12 -0.05,-0.02 c -0.07,-0.05 -0.12,-0.1 -0.17,-0.15 l -0.02,-0.02 v 0 l -0.05,-0.05 c -0.07,-0.07 -0.12,-0.17 -0.19,-0.26 v -0.05 l 0.43,0.45 -0.05,-0.02 c -0.21,-0.12 -0.38,-0.29 -0.48,-0.53 v -0.05 l 0.22,0.34 -0.05,-0.02 v 0 l -0.05,-0.05 c -0.07,-0.1 -0.14,-0.22 -0.21,-0.36 l -0.03,-0.05 v -0.05 l -0.02,-0.07 0.48,0.6 -0.03,-0.02 c -0.33,-0.17 -0.55,-0.53 -0.55,-0.89 v -0.1 l 0.07,0.39 -0.02,-0.05 0.07,0.14 -0.12,-0.19 v 0 l -0.02,-0.07 -0.05,-0.05 -0.02,-0.07 0.02,0.05 -0.05,-0.1 0.36,0.38 -0.07,-0.04 c -0.14,-0.1 -0.29,-0.22 -0.36,-0.39 l -0.05,-0.07 0.05,0.07 -0.05,-0.07 0.1,0.12 -0.24,-0.26 -0.03,-0.05 -0.09,-0.12 0.07,0.07 -0.07,-0.07 v 0 l -0.07,-0.05 0.07,0.05 -0.05,-0.05 c -0.07,-0.05 -0.1,-0.07 -0.14,-0.12 l -0.05,-0.07 0.31,0.26 -0.05,-0.02 0.46,0.12 h -0.03 c -0.55,0 -0.98,-0.46 -0.98,-1.01 v -0.02 l 0.98,0.98 h -0.02 c -0.55,0 -0.98,-0.43 -0.98,-0.98 v -0.03 l 0.98,0.99 v 0 c -0.29,0 -0.53,-0.1 -0.72,-0.29 l -0.02,-0.03 0.69,0.29 v 0 h -0.02 v 0 l 0.45,-0.09 -0.02,0.02 c -0.14,0.05 -0.29,0.1 -0.43,0.1 h -0.05 v 0 0 0 h -0.05 0.03 -0.03 v 0 h -0.02 v 0 0 0 h -0.05 0.02 -0.02 l 0.7,-0.29 -0.03,0.02 c -0.17,0.17 -0.43,0.29 -0.69,0.29 h -0.03 l 0.96,-0.67 -0.02,0.02 c -0.12,0.41 -0.53,0.67 -0.94,0.67 h -0.02 c -0.41,0 -0.77,-0.24 -0.94,-0.62 -0.14,-0.36 -0.05,-0.79 0.24,-1.08 0.29,-0.29 0.72,-0.36 1.08,-0.22 0.36,0.17 0.6,0.53 0.6,0.94 v 0 c 0,0.29 -0.09,0.53 -0.26,0.72 l -0.24,0.22 0.07,-0.1 -0.07,0.1 v 0 l -0.07,0.09 0.14,-0.24 -0.05,0.12 c -0.02,0.07 -0.07,0.12 -0.09,0.19 l -0.08,0.1 0.03,-0.05 -0.1,0.12 0.1,-0.14 -0.05,0.12 -0.02,0.02 -0.05,0.15 0.02,-0.1 -0.02,0.1 c 0,0.02 -0.03,0.07 -0.05,0.09 l -0.19,0.41 0.02,-0.02 -0.07,0.16 c -0.05,0.05 -0.07,0.1 -0.1,0.15 l -0.09,0.12 v 0.02 l -0.1,0.15 v 0 l -0.07,0.07 0.12,-0.19 -0.02,0.04 c -0.17,0.39 -0.56,0.63 -0.96,0.58 h -0.03 l 0.58,-0.14 -0.03,0.02 0.46,-0.74 v 0 c -0.02,0.31 -0.17,0.55 -0.41,0.72 l -0.05,0.02 -0.04,0.05 -0.03,0.02 0.03,-0.02 -0.05,0.05 c -0.05,0.02 -0.1,0.02 -0.12,0.07 h -0.05 l 0.43,-0.39 -0.02,0.03 c -0.17,0.31 -0.51,0.48 -0.84,0.48 h -0.05 l 0.79,-0.41 -0.02,0.05 c -0.17,0.24 -0.48,0.41 -0.82,0.38 h -0.02 c -0.27,-0.02 -0.53,-0.14 -0.7,-0.33 h -0.02 l 0.55,0.28 h -0.02 c -0.22,-0.04 -0.39,-0.14 -0.53,-0.28 l -0.03,-0.05 0.63,0.31 h -0.03 v 0 h -0.02 c -0.53,-0.02 -0.89,-0.5 -0.84,-1.01 v -0.02 c 0.05,-0.53 0.5,-0.89 1.01,-0.84 0.5,0.02 0.91,0.48 0.86,1.01 -0.05,0.5 -0.5,0.91 -1.03,0.84 h -0.02 c -0.29,0 -0.56,-0.2 -0.72,-0.46 l -0.03,-0.02 c -0.24,-0.44 -0.12,-0.99 0.31,-1.25 0.41,-0.29 0.99,-0.17 1.28,0.24 0.28,0.41 0.19,0.96 -0.2,1.27 h -0.02 c -0.17,0.17 -0.41,0.22 -0.65,0.22 h -0.02 c -0.48,-0.05 -0.89,-0.48 -0.84,-1.01 v -0.03 l 0.24,0.68 -0.03,-0.03 0.63,0.31 h -0.05 c -0.24,-0.02 -0.46,-0.14 -0.62,-0.33 -0.15,-0.19 -0.22,-0.43 -0.22,-0.67 v -0.03 l 0.24,0.7 -0.02,-0.03 0.62,0.32 h -0.05 c -0.48,-0.05 -0.86,-0.48 -0.81,-1.01 v 0 0 -0.03 l 0.21,0.68 v -0.03 c -0.17,-0.19 -0.26,-0.43 -0.24,-0.69 v 0 l 0.12,0.5 -0.55,-1.06 -0.05,-0.09 -0.17,-0.41 -0.02,-0.05 -0.12,-0.43 0.02,0.07 -0.19,-0.48 c -0.17,-0.38 0,-0.81 0.36,-0.98 0.39,-0.17 0.82,-0.05 1.01,0.31 z"
         style="fill:#000000;fill-opacity:1;fill-rule:nonzero;stroke:none"
         transform="matrix(1.3333333,0,0,-1.3333333,0,1120.8)" />
    </g>
    <g
       id="g246">
      <path
         id="path246"
         d="m 321.79,726.55 0.12,0.22 c 0.07,0.07 0.12,0.19 0.12,0.29 v 0.04 l -0.12,-0.31 0.05,0.03 c 0.02,0.07 0.07,0.14 0.07,0.21 v 0.03 l 0.03,0.09 0.02,0.03 -0.31,-0.51 v 0 c 0.07,0.05 0.14,0.12 0.19,0.22 l 0.05,0.02 -0.22,-0.21 0.03,0.02 h -0.03 0.05 c 0.17,0.12 0.29,0.31 0.31,0.53 v 0.05 l -0.12,-0.34 0.03,0.05 -0.75,-0.34 0.05,-0.02 c 0.29,-0.03 0.6,0.12 0.77,0.38 l 0.02,0.07 -0.17,-0.21 0.29,0.26 v 0 l 0.22,0.17 c 0.05,0.05 0.09,0.07 0.14,0.12 l 0.03,0.05 -0.1,-0.1 0.05,0.05 -0.15,-0.12 0.05,0.05 c 0.05,0.02 0.1,0.05 0.15,0.09 l 0.04,0.05 -0.26,-0.14 h 0.05 c 0.05,0.02 0.12,0.05 0.17,0.07 l 0.07,0.07 -0.17,-0.09 0.12,0.04 h 0.02 l 0.05,0.03 0.1,0.05 0.07,0.04 -0.24,-0.09 0.05,0.02 h 0.09 l 0.1,0.05 h 0.05 l 0.07,0.05 -0.31,-0.05 0.07,-0.02 c 0.05,0 0.12,0 0.17,0.02 l 0.19,0.02 -0.05,-0.02 0.17,0.02 h -0.07 0.14 v 0 l 0.17,-0.02 -0.1,0.02 0.17,-0.02 -0.12,0.02 0.17,-0.04 0.07,-0.03 0.46,-0.05 -0.29,0.08 0.14,-0.05 c 0.03,-0.03 0.08,-0.05 0.12,-0.05 l 0.15,-0.07 -0.05,0.02 0.14,-0.05 -0.04,0.03 0.14,-0.07 -0.05,0.02 0.15,-0.07 -0.05,0.02 0.36,-0.24 -0.1,0.1 0.96,-0.79 v 0.02 l 0.19,-0.17 -0.04,0.05 2.78,-2.69 v 0 l 0.31,-0.29 v 0.03 l 1.78,-1.78 0.07,-0.07 0.24,-0.19 v 0.02 l 0.22,-0.21 0.07,-0.03 0.24,-0.19 0.02,-0.02 0.27,-0.17 v 0 l 0.26,-0.17 0.1,-0.05 0.76,-0.38 c 0.05,-0.03 0.1,-0.05 0.15,-0.07 l 0.33,-0.1 c 0.48,-0.14 0.99,0.12 1.11,0.6 0.17,0.48 -0.12,0.98 -0.6,1.13 l -0.31,0.09 0.14,-0.04 -0.79,0.38 0.07,-0.05 -0.26,0.17 h 0.02 l -0.24,0.17 0.02,-0.03 -0.24,0.17 0.05,-0.02 -0.21,0.19 h -0.05 l -0.24,0.19 0.07,-0.05 -1.8,1.78 v 0.02 l -0.31,0.29 v 0 l -2.76,2.64 -0.07,0.05 -0.2,0.17 -0.02,0.02 -0.96,0.77 -0.1,0.07 -0.38,0.22 -0.07,0.02 -0.12,0.1 h -0.05 l -0.14,0.07 -0.05,0.02 -0.12,0.05 h -0.05 l -0.14,0.05 0.12,-0.05 -0.15,0.07 c -0.07,0.05 -0.17,0.08 -0.26,0.1 l -0.46,0.05 h 0.07 l -0.14,0.02 h -0.12 l -0.17,0.03 h -0.07 -0.17 v 0 l -0.14,-0.03 h -0.1 -0.14 l -0.05,-0.02 -0.22,-0.03 0.1,0.03 -0.07,-0.03 c -0.12,0 -0.22,-0.02 -0.34,-0.07 l -0.07,-0.02 h 0.05 l -0.1,-0.03 0.05,0.03 -0.05,-0.05 c -0.07,0 -0.14,-0.05 -0.24,-0.07 l -0.07,-0.07 0.05,0.02 -0.05,-0.02 0.05,0.02 -0.1,-0.05 c -0.07,-0.02 -0.14,-0.07 -0.19,-0.12 l -0.07,-0.05 0.09,0.05 h -0.02 c -0.07,-0.05 -0.12,-0.09 -0.19,-0.14 l -0.05,-0.05 0.12,0.1 -0.05,-0.05 c -0.02,-0.03 -0.07,-0.05 -0.12,-0.1 l -0.02,-0.05 c -0.05,-0.04 -0.1,-0.09 -0.12,-0.14 l -0.03,-0.05 0.12,0.17 -0.19,-0.19 v 0 l -0.26,-0.31 c -0.07,-0.05 -0.12,-0.15 -0.17,-0.22 l -0.02,-0.07 0.62,0.45 h -0.05 c -0.26,-0.04 -0.5,-0.21 -0.62,-0.5 v -0.05 c -0.05,-0.09 -0.05,-0.21 -0.05,-0.33 v -0.05 l 0.12,0.53 v -0.03 0 0 c -0.05,-0.07 -0.07,-0.12 -0.1,-0.17 l -0.02,-0.04 0.1,0.19 -0.03,-0.05 c -0.09,-0.14 -0.14,-0.31 -0.12,-0.5 v -0.03 l 0.03,-0.09 v -0.03 l 0.02,0.46 v -0.05 c -0.05,-0.12 -0.07,-0.24 -0.05,-0.34 v -0.04 c 0,-0.08 0.05,-0.15 0.1,-0.22 l 0.07,-0.22 c 0.12,-0.19 0.29,-0.31 0.5,-0.31 0.22,-0.02 0.41,0.1 0.53,0.24 z"
         style="fill:#000000;fill-opacity:1;fill-rule:nonzero;stroke:none"
         transform="matrix(1.3333333,0,0,-1.3333333,0,1120.8)" />
    </g>
    <g
       id="g247">
      <path
         id="path247"
         d="m 321.1,726.12 0.14,-0.1 0.07,-0.07 h 0.05 v 0 l 0.07,-0.02 -0.26,0.19 0.02,-0.05 c 0.07,-0.07 0.17,-0.14 0.27,-0.19 l 0.04,-0.02 -0.26,0.21 0.05,-0.05 c 0.02,-0.04 0.07,-0.09 0.12,-0.14 h 0.02 -0.02 l 0.05,-0.02 -0.12,0.12 0.02,-0.05 c 0.07,-0.1 0.17,-0.17 0.29,-0.22 l 0.02,-0.02 -0.26,0.24 0.07,-0.12 v 0 l 0.24,-0.29 -0.05,0.05 0.53,-0.82 v 0 l 0.38,-0.62 0.05,-0.05 1.25,-1.68 0.02,-0.05 0.27,-0.33 0.07,-0.05 0.84,-0.82 0.05,-0.02 0.12,-0.12 0.02,-0.03 2.23,-1.77 0.05,-0.03 0.27,-0.19 h 0.02 l 1.03,-0.65 0.05,-0.02 0.29,-0.14 0.05,-0.03 0.28,-0.12 h 0.03 l 0.31,-0.14 0.07,-0.03 0.94,-0.28 h 0.02 l 0.17,-0.05 c 0.05,-0.03 0.1,-0.03 0.12,-0.03 l 0.17,-0.02 h -0.05 l 0.22,-0.02 h 0.04 l 0.2,-0.03 h 0.07 0.17 v 0 h 0.16 0.08 l 0.19,0.03 v 0 l 0.19,0.02 h 0.07 l 0.51,0.1 c 0.07,0.02 0.14,0.02 0.19,0.07 l 0.07,0.02 v 0 l 0.07,0.05 -0.17,-0.07 0.08,0.02 c 0.07,0 0.12,0.03 0.16,0.05 l 0.08,0.02 v 0 l 0.04,0.05 c 0.05,0.03 0.1,0.05 0.12,0.07 l 0.08,0.05 h -0.03 l 0.17,0.1 c 0.05,0.02 0.07,0.07 0.1,0.09 l 0.07,0.08 c 0.31,0.28 0.31,0.79 0,1.1 -0.31,0.31 -0.79,0.31 -1.11,0 l -0.07,-0.07 0.1,0.09 -0.17,-0.12 v -0.02 l -0.07,-0.05 0.12,0.07 -0.07,-0.02 v 0 l -0.05,-0.02 0.14,0.04 H 333 c -0.05,-0.02 -0.1,-0.04 -0.14,-0.07 l -0.08,-0.05 v 0 l -0.04,-0.02 0.19,0.07 -0.53,-0.09 0.1,0.02 -0.2,-0.02 h 0.03 l -0.22,-0.03 h 0.07 -0.16 v 0 h -0.17 0.05 l -0.17,0.03 0.05,-0.03 -0.2,0.05 h -0.04 l -0.17,0.02 0.12,-0.02 -0.17,0.05 v -0.03 l -0.91,0.29 0.07,-0.02 -0.31,0.14 v -0.02 l -0.29,0.14 0.05,-0.02 -0.31,0.14 0.07,-0.02 -1.03,0.62 0.02,-0.02 -0.24,0.19 0.02,-0.05 -2.23,1.78 0.03,-0.05 -0.12,0.12 0.02,-0.02 -0.86,0.81 0.07,-0.05 -0.29,0.34 0.02,-0.05 -1.24,1.68 0.02,-0.05 -0.38,0.63 -0.03,0.02 -0.53,0.79 -0.07,0.1 -0.26,0.26 v 0 l -0.1,0.1 c -0.09,0.12 -0.24,0.19 -0.38,0.22 l -0.05,0.02 0.29,-0.14 -0.03,0.02 c -0.02,0.05 -0.07,0.05 -0.09,0.07 l -0.05,0.03 c -0.05,0.02 -0.1,0.04 -0.14,0.04 l -0.03,0.03 0.22,-0.12 -0.05,0.02 c -0.07,0.07 -0.17,0.12 -0.26,0.12 l -0.05,0.03 0.26,-0.15 -0.02,0.05 c -0.1,0.05 -0.17,0.1 -0.29,0.12 h -0.05 v 0 l -0.05,0.02 0.03,-0.02 -0.17,0.05 c -0.29,0.07 -0.6,-0.07 -0.72,-0.36 -0.12,-0.29 -0.02,-0.6 0.22,-0.77 z"
         style="fill:#000000;fill-opacity:1;fill-rule:nonzero;stroke:none"
         transform="matrix(1.3333333,0,0,-1.3333333,0,1120.8)" />
    </g>
    <g
       id="g248">
      <path
         id="path248"
         d="m 333.19,721.46 -0.02,-0.02 c -0.07,-0.02 -0.12,-0.05 -0.19,-0.1 v -0.02 0 h -0.03 v 0 l -0.02,-0.02 0.19,0.09 h -0.05 c -0.24,-0.09 -0.43,-0.31 -0.45,-0.57 v -0.03 l 0.45,0.58 h -0.02 c -0.07,-0.03 -0.12,-0.07 -0.19,-0.12 v 0 c -0.1,-0.05 -0.17,-0.12 -0.22,-0.22 v -0.02 c -0.05,-0.1 -0.1,-0.17 -0.12,-0.27 v -0.02 l 0.29,0.48 v 0 c -0.07,-0.07 -0.15,-0.14 -0.19,-0.24 l -0.03,-0.02 0.19,0.21 h -0.02 v 0 l -0.02,-0.02 c -0.17,-0.12 -0.27,-0.34 -0.29,-0.55 v -0.05 0.07 0 l 0.09,0.26 -0.02,-0.02 c -0.05,-0.12 -0.1,-0.24 -0.1,-0.36 l -0.02,-0.02 0.34,0.57 -0.03,-0.02 c -0.14,-0.1 -0.24,-0.24 -0.29,-0.41 l -0.02,-0.07 v -0.05 l -0.02,-0.12 -0.03,-0.12 v -0.1 0 l -0.02,-0.09 v -0.05 -0.29 0 -0.05 0 -0.04 0 -0.05 c 0,-0.1 0,-0.19 0.05,-0.27 v -0.07 l 0.02,-0.09 0.02,-0.03 -0.04,0.17 0.02,-0.07 v -0.05 l 0.02,-0.07 0.03,-0.1 0.02,-0.05 0.05,-0.09 0.05,-0.05 -0.1,0.22 0.03,-0.05 0.02,-0.12 0.02,-0.03 c 0.03,-0.09 0.1,-0.16 0.15,-0.24 l 0.07,-0.04 -0.14,0.16 0.07,-0.12 c 0.05,-0.04 0.07,-0.12 0.12,-0.16 l 0.07,-0.08 c 0.22,-0.21 0.53,-0.31 0.84,-0.21 0.29,0.07 0.53,0.31 0.6,0.6 0.1,0.31 0,0.62 -0.22,0.84 l -0.07,0.07 0.15,-0.19 -0.08,0.12 c -0.02,0.07 -0.09,0.12 -0.14,0.19 l -0.05,0.02 0.17,-0.19 -0.02,0.05 0.04,-0.12 -0.02,0.02 c -0.02,0.1 -0.05,0.15 -0.1,0.22 l -0.02,0.05 0.05,-0.1 -0.03,0.05 0.05,-0.12 -0.02,0.05 0.05,-0.07 -0.03,0.07 c -0.02,0.07 -0.05,0.12 -0.07,0.19 l -0.02,0.02 0.04,-0.12 -0.02,0.05 0.05,-0.26 v 0.05 0 0.04 0 0.05 0 0.29 0.05 0.09 0 l -0.03,0.1 v -0.12 l 0.03,0.12 -0.03,-0.1 v 0.05 l -0.14,-0.31 v 0 c 0.14,0.17 0.19,0.36 0.17,0.58 v 0.02 l -0.05,-0.36 v 0.05 c 0.07,0.12 0.1,0.26 0.05,0.43 v 0 l 0.02,-0.07 v 0.05 l -0.17,-0.58 0.03,0.05 v 0 0 c 0.05,0.07 0.07,0.12 0.12,0.19 v 0.05 l -0.12,-0.22 0.02,0.03 c 0.15,0.19 0.19,0.4 0.17,0.62 l -0.02,0.02 -0.05,-0.43 0.02,0.03 -0.09,-0.17 v 0 L 333.72,720 h 0.05 c 0.26,0.17 0.41,0.48 0.36,0.79 v 0.03 l -0.36,-0.8 0.02,0.03 c 0.1,0.05 0.15,0.12 0.22,0.19 v 0 0 l 0.02,0.02 v 0 l 0.03,0.03 -0.22,-0.19 0.02,0.02 c 0.34,0.19 0.46,0.62 0.29,0.98 -0.17,0.34 -0.57,0.51 -0.96,0.36 z"
         style="fill:#000000;fill-opacity:1;fill-rule:nonzero;stroke:none"
         transform="matrix(1.3333333,0,0,-1.3333333,0,1120.8)" />
    </g>
    <g
       id="g249">
      <path
         id="path249"
         d="m 324.48,727.15 c 0,-0.31 -0.26,-0.57 -0.58,-0.57 -0.33,0 -0.57,0.26 -0.57,0.57 0,0.34 0.24,0.58 0.57,0.58 0.32,0 0.58,-0.24 0.58,-0.58 z"
         style="fill:#000000;fill-opacity:1;fill-rule:evenodd;stroke:none"
         transform="matrix(1.3333333,0,0,-1.3333333,0,1120.8)" />
    </g>
    <g
       id="g250">
      <path
         id="path250"
         d="m 325.25,721.61 -0.22,-0.22 -0.07,-0.07 -0.26,-0.29 -0.05,-0.07 -0.22,-0.31 -0.02,-0.05 -0.53,-0.84 v 0.02 l -0.02,-0.02 v 0 l -0.03,-0.07 v 0 l -0.05,-0.05 v 0 l -0.02,-0.05 0.14,0.17 -0.12,-0.1 c -0.02,-0.02 -0.07,-0.07 -0.09,-0.12 l -0.22,-0.24 v 0 l -0.12,-0.14 0.03,0.05 -0.03,-0.03 c -0.31,-0.31 -0.31,-0.84 0,-1.15 0.34,-0.31 0.84,-0.31 1.18,0 l 0.02,0.03 0.03,0.02 0.14,0.14 v 0.05 l 0.22,0.27 -0.1,-0.1 0.12,0.07 c 0.05,0.07 0.1,0.12 0.14,0.19 l 0.03,0.05 v 0 l 0.05,0.05 v 0 l 0.02,0.05 v 0 l 0.05,0.05 v 0.02 l 0.5,0.86 v 0 l 0.22,0.34 -0.05,-0.07 0.24,0.33 v -0.02 l 0.17,0.24 c 0.24,0.31 0.19,0.72 -0.1,0.98 -0.26,0.27 -0.69,0.27 -0.98,0.03 z"
         style="fill:#000000;fill-opacity:1;fill-rule:nonzero;stroke:none"
         transform="matrix(1.3333333,0,0,-1.3333333,0,1120.8)" />
    </g>
    <g
       id="g251">
      <path
         id="path251"
         d="m 326.62,720.31 -0.17,-0.19 -0.07,-0.1 -0.41,-0.69 v -0.03 l -0.12,-0.21 c -0.05,-0.07 -0.07,-0.17 -0.1,-0.27 v -0.02 c -0.02,-0.29 0.12,-0.58 0.36,-0.72 0.24,-0.17 0.58,-0.17 0.82,0 0.24,0.14 0.41,0.43 0.36,0.72 v 0.02 l -0.05,-0.36 0.1,0.22 -0.03,-0.02 0.31,0.72 -0.04,-0.1 0.14,0.19 c 0.19,0.31 0.12,0.72 -0.17,0.94 -0.29,0.21 -0.72,0.17 -0.93,-0.1 z"
         style="fill:#000000;fill-opacity:1;fill-rule:nonzero;stroke:none"
         transform="matrix(1.3333333,0,0,-1.3333333,0,1120.8)" />
    </g>
    <g
       id="g252">
      <path
         id="path252"
         d="m 322.37,717.58 0.24,-0.03 h 0.07 l 0.62,0.05 h -0.07 l 0.91,-0.02 h -0.04 l 0.45,-0.03 h 0.03 l 0.57,-0.05 h -0.02 l 0.26,-0.02 h 0.05 0.29 v 0 l 0.24,-0.02 0.12,0.02 0.65,0.02 0.07,0.03 0.07,0.02 c 0.31,0.05 0.58,0.27 0.67,0.55 0.1,0.29 0.03,0.6 -0.19,0.84 -0.19,0.22 -0.5,0.34 -0.79,0.27 l -0.1,-0.03 h 0.1 l -0.65,-0.04 h 0.05 l -0.24,-0.03 v 0 h -0.29 0.07 -0.26 -0.05 -0.58 v 0 h -0.45 -0.05 l -0.91,-0.05 h -0.03 l -0.62,-0.07 h 0.05 -0.24 c -0.39,-0.05 -0.67,-0.33 -0.67,-0.72 0,-0.36 0.28,-0.67 0.67,-0.69 z"
         style="fill:#000000;fill-opacity:1;fill-rule:nonzero;stroke:none"
         transform="matrix(1.3333333,0,0,-1.3333333,0,1120.8)" />
    </g>
    <g
       id="g253">
      <path
         id="path253"
         d="m 316.82,699.46 0.41,-0.92 v 0.03 l 1.2,-3.03 v 0.05 l 0.41,-1.1 v -0.03 l 0.05,-0.12 -0.05,0.15 0.07,-0.22 c 0.1,-0.38 0.39,-0.69 0.77,-0.77 0.36,-0.07 0.77,0.05 1.01,0.36 0.24,0.32 0.29,0.72 0.12,1.08 l -0.1,0.2 v 0 l -0.05,0.12 0.03,-0.03 -0.46,1.06 v 0.02 l -1.32,2.95 -0.05,0.1 -0.5,0.86 c -0.22,0.41 -0.72,0.56 -1.13,0.34 -0.41,-0.22 -0.57,-0.7 -0.41,-1.1 z"
         style="fill:#000000;fill-opacity:1;fill-rule:nonzero;stroke:none"
         transform="matrix(1.3333333,0,0,-1.3333333,0,1120.8)" />
    </g>
    <g
       id="g254">
      <path
         id="path254"
         d="m 320.23,699.7 -0.07,-0.7 v 0.07 l -0.14,-0.69 v 0 l -0.15,-0.68 0.05,0.12 -0.53,-1.56 0.03,0.05 -0.1,-0.24 v -0.02 l -0.24,-0.7 c -0.02,-0.05 -0.05,-0.12 -0.05,-0.17 l -0.07,-0.45 c -0.05,-0.36 0.07,-0.72 0.36,-0.94 0.29,-0.24 0.67,-0.29 1.03,-0.14 0.34,0.14 0.55,0.45 0.6,0.81 l 0.05,0.46 -0.05,-0.22 0.24,0.7 -0.02,-0.02 0.09,0.24 0.03,0.04 0.48,1.56 c 0,0.05 0.02,0.1 0.02,0.15 l 0.1,0.69 v 0 l 0.09,0.72 0.03,0.08 0.02,0.69 c 0.03,0.51 -0.33,0.94 -0.84,0.96 -0.48,0.05 -0.91,-0.31 -0.96,-0.81 z"
         style="fill:#000000;fill-opacity:1;fill-rule:nonzero;stroke:none"
         transform="matrix(1.3333333,0,0,-1.3333333,0,1120.8)" />
    </g>
    <g
       id="g255">
      <path
         id="path255"
         d="m 318.24,712.68 -0.02,-0.38 v -0.1 l 0.07,-1.7 v -0.03 l 0.07,-1.13 h -0.02 l 0.26,-8.76 v -0.02 l 0.1,-1.7 v -0.03 l 0.07,-0.65 v 0.03 -0.34 c 0.02,-0.33 0.19,-0.6 0.48,-0.74 0.29,-0.15 0.62,-0.12 0.86,0.05 0.29,0.16 0.43,0.48 0.41,0.79 l -0.02,0.33 v 0.05 l -0.05,0.65 v -0.02 l -0.12,1.68 v 0 l -0.36,8.76 v 0.02 l -0.1,1.15 v -0.02 l -0.12,1.7 v 0.03 l -0.02,0.38 c -0.03,0.38 -0.34,0.67 -0.72,0.67 -0.41,0 -0.72,-0.29 -0.77,-0.67 z"
         style="fill:#000000;fill-opacity:1;fill-rule:nonzero;stroke:none"
         transform="matrix(1.3333333,0,0,-1.3333333,0,1120.8)" />
    </g>
    <g
       id="g256">
      <path
         id="path256"
         d="m 325.2,709.56 0.19,0.48 v 0 l 0.17,0.41 -0.02,-0.05 0.16,0.36 v 0.02 l 0.48,1.01 c 0.05,0.07 0.08,0.19 0.08,0.29 l 0.02,0.02 -0.24,-0.5 0.02,0.02 c 0.15,0.15 0.22,0.34 0.22,0.53 v 0.05 -0.05 0.05 c 0.05,0.48 -0.31,0.94 -0.82,0.98 -0.5,0.05 -0.96,-0.31 -1,-0.81 -0.05,-0.51 0.31,-0.96 0.79,-1.01 h 0.02 c 0.31,-0.05 0.6,0.07 0.82,0.31 h 0.02 c 0.12,0.17 0.19,0.34 0.22,0.53 v 0.02 c 0.02,0.51 -0.34,0.96 -0.84,1.01 -0.51,0.05 -0.96,-0.31 -1.01,-0.81 -0.05,-0.51 0.31,-0.96 0.79,-1.04 h 0.03 c 0.31,-0.02 0.62,0.1 0.81,0.34 h 0.03 c 0.14,0.14 0.21,0.36 0.21,0.55 v 0.05 c 0.05,0.48 -0.33,0.94 -0.84,0.96 -0.5,0.05 -0.96,-0.34 -1.01,-0.82 -0.04,-0.5 0.32,-0.96 0.82,-1.03 v 0 l -0.7,0.48 v 0 c 0.17,-0.31 0.48,-0.48 0.82,-0.5 0.36,0 0.67,0.19 0.84,0.48 v 0.02 l -0.91,-0.45 v 0 c 0.26,-0.03 0.5,0.02 0.72,0.19 0.19,0.17 0.31,0.38 0.33,0.65 v 0.02 c 0.05,0.5 -0.33,0.96 -0.84,1.03 -0.5,0.05 -0.98,-0.33 -1.03,-0.84 -0.07,-0.53 0.31,-0.98 0.82,-1.03 h 0.02 v 0 0 c 0.34,-0.05 0.65,0.07 0.84,0.31 v 0 l -0.93,-0.29 h 0.02 c 0.34,-0.09 0.72,0.03 0.96,0.29 v 0.03 l -0.77,-0.34 h 0.05 l -0.84,0.58 0.02,-0.03 c 0.15,-0.33 0.46,-0.55 0.82,-0.57 h 0.05 l -0.89,0.69 v -0.05 c 0.07,-0.19 0.19,-0.36 0.36,-0.48 l 0.05,-0.02 -0.17,0.14 0.02,-0.02 0.05,-0.07 0.03,-0.03 -0.03,0.05 0.03,-0.05 -0.27,0.72 v 0 c 0,-0.28 0.1,-0.57 0.29,-0.76 l 0.05,-0.03 c 0.14,-0.17 0.36,-0.24 0.57,-0.29 h 0.03 l -0.87,0.72 0.03,-0.02 c 0.02,-0.1 0.02,-0.14 0.07,-0.22 l 0.05,-0.07 -0.03,0.03 0.08,-0.15 -0.03,0.03 0.07,-0.15 -0.04,0.15 0.04,-0.17 0.03,-0.05 0.14,-0.41 -0.02,0.12 v -0.09 l 0.02,-0.1 0.05,-0.1 v 0 l 0.02,-0.12 c 0.03,-0.02 0.03,-0.07 0.05,-0.12 l 0.05,-0.12 v 0 l 0.07,-0.12 -0.07,0.17 0.05,-0.12 c 0.02,-0.07 0.05,-0.14 0.07,-0.21 l 0.07,-0.1 h -0.02 l 0.07,-0.1 c 0,-0.02 0.05,-0.07 0.05,-0.09 l 0.17,-0.22 -0.2,0.6 v -0.02 c 0,-0.55 0.44,-1.01 0.99,-1.01 h 0.02 l -0.96,0.77 v -0.03 c 0.12,-0.45 0.51,-0.76 0.96,-0.76 h 0.03 l -0.8,0.4 0.03,-0.02 c 0.17,-0.24 0.48,-0.41 0.79,-0.41 v 0 0 0 h 0.02 0.03 -0.03 v 0 h 0.03 v 0 0 h 0.02 v 0 0 0 h 0.03 l -0.56,0.17 h 0.03 c 0.14,-0.12 0.33,-0.17 0.53,-0.17 v 0 h 0.02 0.02 c 0.32,-0.02 0.63,0.12 0.82,0.39 v 0.02 l -0.79,-0.41 v 0 c 0.26,0 0.53,0.12 0.72,0.29 0.19,0.19 0.29,0.46 0.29,0.72 v 0.02 c 0,0.56 -0.44,1.01 -0.99,1.01 -0.55,0 -1.01,-0.43 -1.01,-1.01 0,-0.55 0.44,-0.98 0.99,-0.98 h 0.02 c 0.27,0 0.53,0.1 0.7,0.26 0.19,0.22 0.31,0.46 0.31,0.72 v 0.03 c 0,0.55 -0.43,0.98 -1.01,1.01 -0.55,0 -0.98,-0.46 -0.98,-0.99 0,-0.55 0.43,-1.01 0.98,-1.03 v 0 c 0.22,0 0.41,0.07 0.58,0.19 h 0.05 c 0.09,0.07 0.19,0.19 0.26,0.31 l 0.05,0.05 -0.1,-0.12 0.05,0.05 0.05,0.07 0.05,0.05 v 0 l 0.04,0.07 c 0.03,0.05 0.05,0.07 0.08,0.12 l 0.07,0.12 -0.03,-0.05 0.17,0.24 0.05,0.12 0.05,0.05 v 0.07 l 0.05,0.08 -0.32,-0.41 0.05,0.02 c 0.15,0.12 0.27,0.27 0.31,0.43 l 0.05,0.1 0.03,0.02 v 0.05 -0.02 l 0.02,0.07 v 0 l 0.07,0.17 0.05,0.09 v 0.05 c 0.05,0.12 0.05,0.19 0.05,0.31 v 0.05 l -0.43,-0.81 0.02,0.02 c 0.22,0.14 0.36,0.36 0.41,0.6 l 0.02,0.05 -0.02,-0.05 0.02,0.05 -0.17,-0.29 0.03,0.02 v 0 l 0.05,0.05 c 0.07,0.07 0.12,0.19 0.14,0.31 l 0.02,0.05 -0.4,-0.55 0.02,0.02 c 0.19,0.12 0.34,0.29 0.41,0.48 v 0.05 l -0.12,-0.24 0.02,0.05 v 0 h 0.03 l -0.15,-0.12 0.05,0.02 c 0.05,0.05 0.1,0.1 0.12,0.15 l 0.02,0.02 -0.14,-0.14 0.05,0.02 v 0 l 0.07,0.07 -0.65,-0.24 h 0.03 v 0 0 l -0.32,0.05 h 0.03 c 0.12,-0.05 0.21,-0.05 0.31,-0.05 h 0.02 l -0.79,0.41 0.03,-0.02 c 0.16,-0.27 0.48,-0.41 0.79,-0.41 v 0 0 h 0.02 v 0 h 0.03 l -0.89,0.55 v -0.02 c 0.19,-0.34 0.53,-0.58 0.91,-0.58 h 0.02 l -0.81,0.43 0.02,-0.02 c 0.05,-0.1 0.15,-0.17 0.27,-0.24 l 0.02,-0.02 -0.43,0.6 0.02,-0.03 c 0.1,-0.45 0.51,-0.77 0.96,-0.79 h 0.03 l -1.01,1.03 v -0.02 c 0,-0.22 0.07,-0.43 0.19,-0.63 h 0.02 v 0 l 0.03,-0.07 -0.05,0.12 0.05,-0.09 0.02,-0.05 0.05,-0.07 -0.12,0.24 0.02,-0.08 c 0.03,-0.02 0.03,-0.07 0.05,-0.12 l 0.1,-0.24 -0.03,0.1 0.1,-0.26 v -0.05 l 0.05,-0.15 -0.03,0.1 0.05,-0.14 c 0.03,-0.05 0.03,-0.08 0.05,-0.12 l 0.05,-0.12 v -0.03 l 0.17,-0.36 0.02,-0.05 v -0.02 c 0.02,-0.05 0.07,-0.1 0.1,-0.14 l 0.02,-0.03 -0.12,0.19 0.02,-0.04 c 0.17,-0.39 0.53,-0.6 0.94,-0.6 v 0 l -0.96,0.64 0.05,-0.02 c 0.02,-0.1 0.07,-0.19 0.12,-0.26 l 0.02,-0.03 v 0 l 0.03,-0.02 c 0.19,-0.27 0.48,-0.41 0.81,-0.41 h 0.03 l -0.7,0.26 0.05,-0.02 -0.05,0.02 0.02,-0.02 c 0.05,-0.05 0.1,-0.1 0.15,-0.12 l 0.05,-0.02 -0.39,0.5 v -0.05 c 0.1,-0.29 0.34,-0.5 0.63,-0.6 h 0.02 c 0.12,-0.05 0.22,-0.07 0.34,-0.05 h 0.02 v 0 h 0.02 l -0.81,0.41 0.02,-0.05 c 0.19,-0.24 0.51,-0.38 0.82,-0.38 h 0.02 v 0 h 0.03 -0.17 0.07 c 0.14,-0.02 0.31,-0.02 0.46,0.02 l 0.07,0.03 0.07,0.02 0.05,0.03 c 0.07,0.02 0.14,0.04 0.19,0.09 l 0.07,0.05 -0.19,-0.1 h 0.05 c 0.09,0.05 0.19,0.12 0.29,0.2 l 0.07,0.04 -0.05,-0.02 0.05,0.02 -0.05,-0.02 0.07,0.02 c 0.03,0.05 0.07,0.08 0.1,0.1 l 0.05,0.05 c 0.02,0.02 0.07,0.07 0.12,0.09 l 0.12,0.2 -0.05,-0.08 0.12,0.12 0.05,0.05 0.12,0.15 0.02,0.02 0.12,0.12 c 0.02,0.05 0.05,0.07 0.07,0.12 l 0.1,0.14 v 0 l 0.29,0.46 v 0 l 0.36,0.6 -0.29,-0.31 0.05,0.02 c 0.26,0.19 0.43,0.51 0.43,0.84 v 0 l -0.19,-0.57 v 0.02 l -0.12,-0.17 v 0.03 c 0.14,0.12 0.24,0.28 0.28,0.45 l 0.03,0.05 -0.94,-0.72 h 0.03 c 0.19,0.02 0.38,0.07 0.52,0.19 h 0.03 c 0.12,0.07 0.19,0.17 0.26,0.24 l 0.03,0.05 v 0 0 l -0.8,-0.41 h 0.03 c 0.31,0 0.6,0.17 0.79,0.41 v 0.02 l -0.79,-0.4 h 0.02 v 0 h 0.03 c 0.31,0 0.62,0.14 0.79,0.4 l 0.02,0.03 -0.79,-0.41 h 0.02 c 0.17,0 0.34,0.02 0.46,0.12 l 0.05,0.02 -0.46,-0.12 h 0.03 l -0.82,0.39 0.02,-0.03 v 0 l 0.03,-0.02 c 0.19,-0.24 0.48,-0.41 0.79,-0.41 h 0.05 v 0 h 0.02 l -0.67,0.27 0.02,-0.03 -0.24,0.29 0.03,-0.02 c 0.07,-0.15 0.19,-0.29 0.33,-0.39 h 0.03 l -0.1,0.07 0.03,-0.02 -0.05,0.02 0.05,-0.02 -0.2,0.24 0.03,-0.05 -0.12,0.48 v -0.05 c 0,-0.19 0.07,-0.4 0.19,-0.57 l 0.05,-0.07 h 0.02 l 0.03,-0.05 -0.15,0.29 0.03,-0.08 0.02,-0.07 0.02,-0.07 0.08,-0.12 v -0.05 l -0.05,0.12 0.05,-0.07 -0.05,0.14 v -0.09 c 0.02,-0.05 0.05,-0.12 0.07,-0.17 l 0.02,-0.05 -0.07,0.19 0.03,-0.07 v 0 l 0.02,-0.07 v -0.02 l 0.05,-0.2 -0.05,0.24 v -0.12 c 0,-0.02 0,-0.07 0.02,-0.12 l 0.03,-0.04 c 0,-0.08 0,-0.1 0.02,-0.17 l 0.03,-0.05 0.02,-0.1 0.05,-0.07 -0.1,0.48 V 711 c -0.02,-0.19 0.03,-0.36 0.1,-0.53 l 0.05,-0.07 -0.03,0.02 0.03,-0.02 -0.05,0.07 0.05,-0.07 0.02,-0.12 0.02,-0.05 -0.02,0.05 0.02,-0.02 0.05,-0.1 0.05,-0.1 -0.02,0.05 0.02,-0.05 0.05,-0.07 0.07,-0.14 0.07,-0.1 h 0.03 c 0.16,-0.26 0.45,-0.41 0.76,-0.41 h 0.03 v 0 l 0.02,0.03 v 0 h 0.03 -0.03 0.03 0.02 v 0 l -0.96,0.69 0.02,-0.02 c 0.1,-0.41 0.51,-0.72 0.94,-0.7 h 0.05 v 0 h 0.02 v 0 h 0.03 -0.03 0.03 c 0.31,0 0.6,0.15 0.74,0.39 l 0.02,0.02 -0.74,-0.41 v 0 0 h 0.05 v 0 0 h 0.05 v 0 c 0.16,0.03 0.36,0.1 0.48,0.17 l 0.02,0.05 -0.5,-0.17 h 0.02 c 0.29,0 0.58,0.15 0.74,0.39 l 0.03,0.02 -0.15,-0.14 0.05,0.02 -0.05,-0.02 0.05,0.02 -0.05,-0.02 0.08,0.04 c 0.02,0.03 0.07,0.05 0.12,0.1 l 0.07,0.05 0.05,0.07 0.14,0.14 c 0.05,0.05 0.07,0.1 0.12,0.17 l 0.05,0.1 -0.1,-0.15 0.07,0.1 c 0.03,0.02 0.08,0.07 0.1,0.1 l 0.07,0.12 c 0.03,0.04 0.05,0.07 0.07,0.12 l 0.15,0.33 v -0.05 l 0.05,0.12 -0.03,-0.02 0.07,0.12 0.05,0.07 0.05,0.15 -0.07,-0.15 0.17,0.22 v 0 l 0.12,0.19 0.04,0.07 0.03,0.05 -0.07,-0.1 h 0.02 l 0.05,0.1 0.05,0.05 c 0.02,0.05 0.02,0.09 0.07,0.14 v 0.05 l -0.36,-0.46 0.05,0.03 c 0.12,0.07 0.19,0.19 0.26,0.31 l 0.05,0.02 -0.29,-0.28 0.02,0.02 c 0.03,0.02 0.08,0.05 0.1,0.07 l 0.07,0.07 -0.62,-0.24 v 0 0 h 0.02 c 0.29,0 0.58,0.12 0.77,0.36 v 0.05 l -0.74,-0.41 v 0 0 h 0.02 v 0 0 l -0.74,0.41 v -0.05 c 0.19,-0.24 0.48,-0.36 0.76,-0.36 h 0.03 l -0.77,0.36 v 0 0 l 0.02,-0.02 c 0.2,-0.24 0.46,-0.36 0.77,-0.36 h 0.03 v 0 0 l -0.77,0.36 h 0.02 l -0.19,0.55 v -0.05 c 0,-0.5 0.43,-0.93 0.96,-0.93 v 0 0 0 l -0.74,0.38 0.02,-0.02 -0.19,0.57 v -0.02 c 0,-0.53 0.41,-0.94 0.93,-0.94 h 0.03 c 0.38,0 0.72,0.22 0.86,0.58 0.15,0.36 0.07,0.74 -0.19,1.03 -0.26,0.27 -0.67,0.36 -1.03,0.19 -0.36,-0.14 -0.6,-0.48 -0.6,-0.86 v -0.02 0 -0.03 c 0,-0.26 0.12,-0.5 0.29,-0.67 0.19,-0.17 0.43,-0.29 0.67,-0.29 v 0 l -0.87,0.6 0.08,-0.17 c 0,-0.04 0.02,-0.07 0.04,-0.12 l 0.05,-0.09 -0.05,0.12 0.03,-0.1 h 0.02 l 0.05,-0.14 v 0.02 l 0.02,-0.09 v 0 l 0.05,-0.1 v 0 l 0.05,-0.1 -0.05,0.15 0.05,-0.31 v 0 l 0.02,-0.08 0.03,-0.02 v -0.07 0.09 -0.04 -0.08 l 0.02,-0.07 0.03,-0.07 0.02,-0.1 c 0.02,-0.09 0.07,-0.19 0.12,-0.26 l 0.05,-0.05 -0.17,0.43 v -0.04 c 0,-0.1 0.05,-0.17 0.07,-0.24 l 0.03,-0.08 v 0.05 -0.05 0.05 -0.07 c 0.02,-0.1 0.09,-0.19 0.14,-0.29 l 0.07,-0.07 c 0.17,-0.24 0.46,-0.41 0.77,-0.41 v 0 c 0.53,0 0.96,0.43 0.96,0.96 0,0.53 -0.43,0.94 -0.96,0.94 -0.5,0 -0.94,-0.41 -0.94,-0.94 v -0.05 c 0,-0.26 0.12,-0.5 0.32,-0.69 l 0.02,-0.03 -0.12,0.15 v -0.03 c 0.19,-0.24 0.48,-0.38 0.77,-0.38 h 0.02 l -0.86,0.55 0.02,-0.05 c 0.17,-0.31 0.51,-0.52 0.87,-0.52 v 0 0 h 0.02 l -0.96,0.93 v 0 c 0,-0.53 0.43,-0.96 0.96,-0.96 h 0.02 l -0.91,0.72 0.03,-0.02 c 0.09,-0.41 0.48,-0.72 0.91,-0.72 v 0 0 h 0.02 v 0 h 0.03 v 0 h 0.02 v 0 0 0 h 0.02 0.03 v 0 0 h 0.02 -0.02 0.05 v 0 0 c 0.31,0 0.6,0.14 0.76,0.38 l 0.03,0.03 -0.77,-0.39 v 0 c 0.22,0 0.38,0.05 0.53,0.17 l 0.05,0.02 -0.53,-0.16 h 0.02 c 0.22,0 0.46,0.09 0.63,0.24 l 0.09,0.09 0.07,0.05 0.08,0.1 -0.1,-0.1 0.07,0.07 c 0.05,0.05 0.12,0.1 0.17,0.17 l 0.07,0.1 -0.07,-0.1 0.1,0.1 c 0.02,0.04 0.07,0.09 0.09,0.14 l 0.07,0.12 -0.07,-0.12 0.07,0.1 h -0.02 l 0.1,0.09 c 0.04,0.05 0.09,0.15 0.14,0.22 l 0.05,0.14 -0.03,-0.05 0.12,0.24 v 0 l 0.17,0.34 h 0.03 l 0.12,0.24 -0.08,-0.1 0.08,0.1 c 0.04,0.07 0.07,0.17 0.09,0.26 l 0.03,0.05 -0.08,-0.17 0.05,0.1 -0.09,-0.17 0.04,0.05 0.03,0.07 0.05,0.07 v 0 l 0.04,0.08 -0.12,-0.2 0.08,0.12 c 0.04,0.03 0.07,0.05 0.09,0.1 l 0.03,0.02 -0.77,-0.38 h 0.02 c 0.39,0 0.75,0.24 0.87,0.6 l 0.02,0.02 -0.12,-0.24 0.02,0.05 -0.76,-0.41 v 0 c 0.36,0 0.69,0.22 0.84,0.53 l 0.02,0.05 c 0.22,0.43 0.05,0.98 -0.38,1.22 -0.46,0.24 -1.01,0.1 -1.25,-0.31 -0.29,-0.43 -0.17,-1.01 0.26,-1.27 l 0.03,-0.02 c 0.14,-0.1 0.33,-0.15 0.5,-0.15 h 0.02 v 0 h 0.03 v 0 0 0 h 0.02 v 0 h 0.03 v 0 h 0.02 v 0 h 0.02 v 0 0 0 0 l -0.64,0.27 0.02,-0.03 c 0.17,-0.19 0.41,-0.29 0.67,-0.29 h 0.03 l -0.89,0.6 v 0 c 0.12,-0.38 0.48,-0.62 0.89,-0.62 v 0 l -0.75,0.38 0.03,-0.02 -0.1,0.14 v -0.02 c 0.17,-0.34 0.48,-0.53 0.86,-0.53 v 0 l -0.88,0.63 0.02,-0.03 c 0.02,-0.07 0.07,-0.17 0.12,-0.24 v -0.02 l -0.02,0.07 0.09,-0.17 v 0 l 0.1,-0.17 -0.05,0.1 0.1,-0.17 v -0.02 l 0.09,-0.19 -0.02,0.04 0.21,-0.5 -0.02,0.1 0.07,-0.24 0.03,-0.08 0.07,-0.24 0.05,-0.07 0.31,-0.6 0.05,-0.12 0.12,-0.19 c 0.28,-0.41 0.88,-0.53 1.32,-0.24 0.43,0.26 0.55,0.84 0.26,1.27 l -0.12,0.19 0.05,-0.09 -0.31,0.62 0.04,-0.07 -0.09,0.24 v -0.05 l -0.07,0.24 -0.03,0.07 -0.21,0.51 -0.03,0.05 -0.09,0.16 h 0.02 l -0.1,0.17 -0.04,0.07 -0.08,0.17 -0.02,0.03 -0.1,0.16 -0.04,0.08 -0.03,0.02 0.15,-0.24 -0.03,0.02 c -0.14,0.36 -0.5,0.6 -0.89,0.6 v 0 l 0.84,-0.5 -0.02,0.02 c -0.02,0.05 -0.05,0.1 -0.1,0.15 v 0.02 c -0.16,0.24 -0.45,0.39 -0.76,0.39 v 0 l 0.88,-0.63 -0.02,0.03 c -0.14,0.38 -0.48,0.62 -0.86,0.62 h -0.03 l 0.67,-0.29 -0.04,0.03 c -0.17,0.16 -0.41,0.28 -0.68,0.28 v 0 0 0 0 h -0.02 v 0 h -0.02 v 0 h -0.03 v 0 h -0.02 v 0 0 0 h -0.03 v 0 h -0.02 l 0.53,-0.16 v 0.02 c -0.24,0.14 -0.51,0.19 -0.77,0.12 -0.26,-0.07 -0.48,-0.24 -0.6,-0.48 l -0.02,-0.05 0.84,0.53 v 0 c -0.32,0 -0.58,-0.14 -0.77,-0.38 v -0.03 c -0.07,-0.07 -0.12,-0.14 -0.15,-0.24 v 0 l 0.89,0.6 h -0.02 c -0.29,0 -0.58,-0.14 -0.77,-0.38 v -0.03 l 0.1,0.12 -0.1,-0.09 c -0.07,-0.05 -0.1,-0.1 -0.14,-0.17 l -0.05,-0.07 0.02,0.02 -0.05,-0.07 0.03,0.05 -0.03,-0.05 c -0.02,-0.05 -0.04,-0.1 -0.09,-0.12 L 336,712.56 c -0.02,-0.05 -0.02,-0.12 -0.05,-0.17 l -0.02,-0.07 0.12,0.26 -0.05,-0.07 -0.02,-0.07 -0.12,-0.22 v 0 l -0.17,-0.31 -0.03,-0.05 -0.12,-0.24 -0.02,-0.04 -0.07,-0.15 0.17,0.24 -0.1,-0.07 v -0.02 l -0.07,-0.1 c -0.03,-0.02 -0.05,-0.07 -0.07,-0.1 l -0.08,-0.12 0.1,0.15 -0.07,-0.07 -0.05,-0.1 -0.07,-0.1 0.17,0.2 -0.1,-0.08 c -0.02,-0.02 -0.07,-0.07 -0.1,-0.09 l -0.09,-0.1 0.07,0.07 -0.07,-0.07 0.62,0.24 h -0.02 c -0.19,0 -0.39,-0.07 -0.53,-0.17 l -0.02,-0.02 0.5,0.14 v 0 c -0.31,0 -0.6,-0.12 -0.74,-0.36 l -0.05,-0.02 0.77,0.38 v 0 0 h -0.05 0.02 -0.02 v 0 0 h -0.03 -0.02 v 0 0 0 h -0.02 v 0 h -0.03 v 0 h -0.02 v 0 0 l 0.91,-0.72 -0.02,0.03 c -0.1,0.43 -0.48,0.72 -0.92,0.72 h -0.02 c -0.53,0 -0.96,-0.41 -0.96,-0.94 0,-0.53 0.43,-0.96 0.96,-0.96 0.53,0 0.94,0.43 0.94,0.96 v 0 c 0,0.27 -0.1,0.51 -0.27,0.67 -0.19,0.2 -0.43,0.29 -0.67,0.29 h -0.02 v 0 0 l 0.84,-0.53 -0.03,0.03 c -0.17,0.33 -0.48,0.53 -0.84,0.53 h -0.02 l 0.77,-0.39 -0.03,0.03 c -0.02,0.04 -0.07,0.09 -0.12,0.14 l -0.02,0.02 0.31,-0.72 v 0.05 c 0,0.53 -0.43,0.94 -0.96,0.94 v 0 l 0.74,-0.39 -0.04,0.1 0.12,-0.26 v 0.04 l -0.03,0.05 -0.02,0.05 v 0.05 l -0.05,0.07 0.07,-0.24 -0.02,0.07 c 0,0.15 -0.07,0.29 -0.17,0.41 l -0.02,0.05 0.14,-0.29 -0.02,0.07 0.02,-0.07 -0.02,0.07 0.02,-0.07 -0.02,0.07 v 0.07 l -0.03,0.08 0.03,-0.03 -0.03,0.05 -0.02,0.02 -0.05,0.32 c -0.02,0.04 -0.02,0.09 -0.05,0.14 l -0.05,0.12 h -0.02 l -0.02,0.1 v 0 l -0.05,0.09 v 0 l -0.05,0.15 v -0.03 l -0.02,0.1 c -0.03,0.02 -0.05,0.07 -0.05,0.09 l -0.07,0.12 0.04,-0.12 -0.04,0.17 c -0.17,0.36 -0.51,0.58 -0.89,0.58 v 0 l 0.93,-0.94 v 0.03 0 0.02 c 0,0.5 -0.4,0.96 -0.93,0.96 h -0.03 c -0.38,0 -0.72,-0.24 -0.86,-0.6 -0.14,-0.36 -0.07,-0.77 0.22,-1.03 0.26,-0.27 0.67,-0.34 1,-0.22 0.36,0.17 0.58,0.51 0.58,0.89 v 0.02 c 0,0.2 -0.05,0.41 -0.17,0.56 l -0.02,0.02 c -0.17,0.24 -0.46,0.38 -0.77,0.38 v 0 0 0 c -0.38,0 -0.74,-0.24 -0.89,-0.6 -0.14,-0.33 -0.07,-0.74 0.22,-1 0.26,-0.27 0.67,-0.36 1.03,-0.22 0.34,0.14 0.58,0.5 0.58,0.86 v 0.05 c 0,0.19 -0.08,0.41 -0.2,0.55 l -0.02,0.03 c -0.17,0.24 -0.43,0.38 -0.74,0.38 v 0 0 h -0.03 l 0.75,-0.38 v 0.02 0 0 c -0.2,0.24 -0.48,0.41 -0.77,0.41 h -0.03 l 0.77,-0.41 -0.02,0.05 c -0.17,0.24 -0.46,0.36 -0.77,0.36 v 0 0 h -0.02 v 0 0 c -0.32,0 -0.58,-0.12 -0.77,-0.36 v -0.05 l 0.74,0.41 h -0.02 v 0 0 c -0.24,0 -0.46,-0.1 -0.65,-0.24 l -0.05,-0.07 0.1,0.07 h -0.05 c -0.1,-0.1 -0.19,-0.19 -0.26,-0.31 l -0.05,-0.05 0.29,0.29 -0.03,-0.03 c -0.17,-0.12 -0.29,-0.26 -0.36,-0.45 l -0.02,-0.03 0.07,0.15 -0.02,-0.05 0.07,0.07 h -0.03 c -0.02,-0.05 -0.04,-0.07 -0.07,-0.12 l -0.02,-0.05 0.05,0.1 -0.12,-0.19 v 0.02 l -0.17,-0.24 c -0.03,-0.05 -0.05,-0.09 -0.07,-0.14 l -0.08,-0.15 0.08,0.1 -0.1,-0.1 v -0.04 l -0.07,-0.12 -0.03,-0.05 -0.16,-0.34 0.07,0.12 -0.07,-0.12 0.09,0.12 -0.07,-0.07 c -0.05,-0.05 -0.1,-0.1 -0.12,-0.17 l -0.07,-0.12 0.12,0.17 -0.15,-0.17 0.08,0.07 -0.1,-0.07 0.12,0.1 -0.07,-0.05 -0.05,-0.05 -0.07,-0.05 -0.05,-0.02 -0.05,-0.05 c -0.05,-0.05 -0.09,-0.07 -0.12,-0.14 l -0.02,-0.03 0.79,0.39 h -0.02 c -0.2,0 -0.39,-0.05 -0.56,-0.15 l -0.02,-0.02 0.58,0.14 v 0 h -0.05 v 0 0 h -0.05 v 0 0 c -0.31,0 -0.6,-0.12 -0.79,-0.36 v -0.02 l 0.77,0.36 h -0.03 0.03 -0.03 v 0 h -0.02 v 0 l -0.05,0.02 0.94,-0.74 v 0.02 c -0.12,0.41 -0.48,0.72 -0.94,0.75 v 0 h -0.02 -0.03 0.03 -0.03 v 0 h -0.02 v 0 h -0.03 l 0.77,-0.41 -0.02,0.02 0.05,-0.07 -0.08,0.15 0.05,-0.12 -0.02,0.04 -0.03,0.08 -0.04,0.07 0.07,-0.15 -0.03,0.05 -0.02,0.07 -0.02,0.05 0.02,-0.07 -0.02,0.1 -0.03,0.07 -0.02,0.07 -0.03,0.02 -0.02,0.08 0.1,-0.56 v 0.1 c 0.02,0.14 0,0.31 -0.05,0.48 l -0.05,0.07 0.05,-0.12 -0.03,0.05 0.03,-0.14 v 0.04 -0.12 0.12 c 0,0.08 0,0.17 -0.03,0.24 l -0.04,0.2 0.02,-0.05 -0.02,0.07 v 0 0.07 c -0.03,0.07 -0.05,0.12 -0.08,0.19 l -0.02,0.05 0.05,-0.14 -0.03,0.09 c -0.02,0.05 -0.02,0.1 -0.04,0.15 l -0.03,0.07 -0.05,0.07 -0.02,0.05 0.05,-0.1 -0.03,0.1 0.03,-0.1 -0.03,0.08 c -0.02,0.09 -0.07,0.19 -0.14,0.28 l -0.02,0.05 v 0 l -0.05,0.07 0.19,-0.6 v 0.05 c 0,0.17 -0.05,0.31 -0.14,0.48 v 0.05 c -0.05,0.07 -0.1,0.14 -0.17,0.19 l -0.03,0.05 -0.04,0.02 -0.03,0.03 c -0.02,0.05 -0.07,0.07 -0.09,0.09 l -0.05,0.03 0.33,-0.39 -0.02,0.03 c -0.05,0.12 -0.12,0.21 -0.22,0.31 h -0.02 c -0.17,0.17 -0.41,0.26 -0.65,0.26 h -0.02 v 0 h -0.05 l 0.82,-0.38 -0.03,0.02 v -0.02 l -0.02,0.02 c -0.17,0.27 -0.48,0.41 -0.79,0.41 h -0.03 c -0.17,0 -0.33,-0.02 -0.48,-0.09 l -0.05,-0.03 0.48,0.12 h -0.02 c -0.31,0 -0.62,-0.17 -0.79,-0.41 l -0.03,-0.02 0.8,0.41 h -0.03 v 0 h -0.02 c -0.31,0 -0.6,-0.15 -0.79,-0.41 h -0.03 l 0.82,0.38 h -0.03 c -0.33,0 -0.62,-0.14 -0.81,-0.38 v -0.02 0 l -0.03,-0.03 0.24,0.22 -0.02,-0.03 0.58,0.17 h -0.03 c -0.45,0.03 -0.84,-0.26 -0.98,-0.69 v -0.05 l 0.29,0.45 -0.03,-0.02 c -0.05,-0.05 -0.09,-0.1 -0.14,-0.14 v -0.03 c -0.15,-0.17 -0.19,-0.36 -0.19,-0.6 h -0.03 l 0.46,0.82 -0.05,-0.03 c -0.12,-0.07 -0.19,-0.19 -0.26,-0.31 l -0.39,-0.57 v 0 l -0.26,-0.44 v 0 l -0.1,-0.14 0.07,0.12 -0.12,-0.12 h 0.03 l -0.12,-0.12 0.05,0.02 -0.15,-0.12 -0.07,-0.09 -0.14,-0.17 0.09,0.12 -0.05,-0.05 0.1,0.07 -0.05,-0.02 -0.05,-0.05 -0.04,-0.05 -0.05,-0.02 -0.05,-0.05 0.29,0.17 h -0.07 c -0.05,-0.05 -0.12,-0.1 -0.2,-0.12 l -0.04,-0.05 0.19,0.12 -0.05,-0.02 0.07,0.02 -0.07,-0.02 0.46,0.02 h -0.08 c -0.04,0.03 -0.09,0.03 -0.16,0.03 h -0.03 v 0 h -0.02 l 0.81,-0.41 -0.02,0.02 c -0.19,0.24 -0.48,0.41 -0.82,0.41 h -0.02 v 0 h -0.02 l 0.31,-0.05 h -0.03 l 0.63,-0.6 v 0.03 c -0.07,0.19 -0.19,0.36 -0.39,0.48 l -0.02,0.02 0.14,-0.12 -0.02,0.02 -0.05,0.05 h -0.02 c -0.19,0.17 -0.43,0.29 -0.67,0.29 h -0.03 l 0.82,-0.43 -0.03,0.02 v 0 l -0.02,0.05 0.12,-0.26 v 0.04 c -0.14,0.39 -0.53,0.65 -0.96,0.65 v 0 l 0.94,-0.6 -0.05,0.05 c -0.03,0.07 -0.05,0.14 -0.1,0.19 l -0.02,0.03 0.09,-0.15 -0.02,0.03 0.02,-0.03 -0.16,0.36 0.02,-0.05 -0.05,0.12 0.05,-0.12 -0.05,0.12 -0.02,0.12 -0.07,0.12 0.02,-0.02 -0.1,0.29 -0.02,0.09 -0.12,0.24 0.05,-0.12 -0.05,0.1 c 0,0.07 -0.05,0.14 -0.1,0.24 l -0.04,0.05 0.02,-0.03 -0.05,0.1 -0.07,0.1 -0.02,0.04 v 0 l -0.03,0.03 0.19,-0.6 v 0.02 c 0,0.27 -0.09,0.53 -0.28,0.72 -0.22,0.17 -0.46,0.29 -0.72,0.29 h -0.03 l 0.99,-0.77 v 0.03 c -0.05,0.24 -0.22,0.45 -0.41,0.6 l -0.05,0.02 0.24,-0.24 v 0.02 c -0.19,0.24 -0.5,0.41 -0.82,0.41 h -0.02 l 0.91,-0.57 -0.02,0.04 c -0.17,0.34 -0.53,0.56 -0.91,0.56 h -0.03 v 0 h -0.02 v 0 0 l 0.81,-0.41 -0.02,0.02 c -0.19,0.24 -0.48,0.41 -0.82,0.41 h -0.02 l 0.34,-0.05 h -0.03 c -0.09,0.05 -0.21,0.05 -0.33,0.05 v 0 0 h -0.03 c -0.24,0 -0.45,-0.1 -0.65,-0.24 l -0.09,-0.1 v 0 l -0.05,-0.04 c -0.07,-0.05 -0.12,-0.1 -0.17,-0.15 v -0.02 l 0.15,0.14 -0.05,-0.05 c -0.05,-0.02 -0.1,-0.07 -0.15,-0.14 l -0.02,-0.02 0.02,0.02 -0.04,-0.07 c -0.05,-0.07 -0.1,-0.15 -0.15,-0.24 v -0.05 l 0.39,0.48 h -0.05 c -0.19,-0.14 -0.34,-0.34 -0.39,-0.58 l -0.02,-0.02 0.17,0.31 -0.05,-0.05 v 0 l -0.02,-0.04 c -0.08,-0.1 -0.12,-0.2 -0.15,-0.32 l -0.02,-0.04 v -0.05 l -0.03,-0.05 0.41,0.58 -0.02,-0.03 c -0.29,-0.19 -0.46,-0.5 -0.46,-0.84 v -0.05 l 0.05,0.27 v -0.05 l 0.05,0.12 -0.1,-0.17 v 0 l -0.02,-0.07 -0.03,-0.05 -0.02,-0.07 v 0.02 l -0.02,-0.07 0.31,0.41 -0.05,-0.05 c -0.14,-0.12 -0.24,-0.24 -0.31,-0.41 l -0.05,-0.07 0.05,0.05 -0.05,-0.05 0.07,0.1 -0.17,-0.27 -0.02,-0.02 -0.07,-0.14 0.05,0.09 -0.05,-0.07 v 0 l -0.05,-0.07 0.05,0.07 -0.05,-0.05 c -0.02,-0.05 -0.07,-0.07 -0.1,-0.14 l -0.02,-0.05 0.29,0.29 -0.05,-0.03 0.55,0.2 v 0 c -0.55,-0.03 -0.98,-0.46 -0.98,-1.01 v -0.03 l 0.98,1.01 h -0.02 c -0.55,0 -0.99,-0.45 -0.99,-1.01 v -0.02 l 0.99,0.98 v 0 c -0.34,0 -0.63,-0.14 -0.82,-0.38 v -0.02 l 0.79,0.4 h -0.02 -0.02 v 0 l 0.6,-0.19 -0.03,0.03 c -0.17,0.12 -0.36,0.16 -0.57,0.16 h -0.03 v 0 0 0 h -0.02 v 0 0 h -0.03 v 0 h 0.03 -0.03 -0.02 v 0 0 0 l 0.79,-0.38 h -0.02 c -0.17,0.26 -0.48,0.41 -0.79,0.41 h -0.03 l 0.99,-0.75 v 0.03 c -0.12,0.43 -0.53,0.74 -0.99,0.74 h -0.02 c -0.55,0 -0.99,-0.45 -0.99,-1.01 0,-0.55 0.46,-0.98 1.01,-0.98 0.55,0 0.99,0.46 0.99,1.01 v 0.02 c 0,0.19 -0.08,0.41 -0.2,0.58 l -0.16,0.21 0.07,-0.07 -0.07,0.07 v 0 l -0.05,0.1 0.09,-0.19 -0.04,0.12 c 0,0.05 -0.03,0.09 -0.05,0.14 l -0.05,0.1 v -0.03 l -0.05,0.12 0.05,-0.12 -0.05,0.12 v 0.03 l -0.05,0.09 0.03,-0.07 -0.03,0.12 -0.02,0.07 -0.17,0.41 0.03,-0.02 -0.05,0.17 c -0.03,0.04 -0.05,0.09 -0.07,0.14 l -0.05,0.12 v 0 l -0.1,0.14 v 0 l -0.02,0.1 0.07,-0.19 -0.02,0.07 c -0.15,0.43 -0.58,0.7 -1.01,0.65 h -0.03 l 0.7,-0.22 -0.02,0.03 0.36,-0.68 v 0 c -0.03,0.24 -0.15,0.48 -0.29,0.65 l -0.05,0.03 -0.05,0.04 -0.02,0.03 0.02,-0.03 -0.02,0.03 c -0.05,0.02 -0.1,0.07 -0.12,0.09 l -0.05,0.03 0.36,-0.43 v 0.02 c -0.17,0.36 -0.53,0.6 -0.91,0.58 h -0.05 l 0.89,-0.51 v 0.03 c -0.19,0.33 -0.53,0.52 -0.89,0.5 h -0.05 c -0.31,-0.02 -0.6,-0.19 -0.74,-0.46 l -0.03,-0.02 0.58,0.43 h -0.02 c -0.22,-0.07 -0.44,-0.21 -0.58,-0.43 v 0 l 0.67,0.43 v 0 0 l -0.02,-0.02 c -0.51,-0.05 -0.87,-0.51 -0.82,-1.01 v -0.02 l 0.82,1 v 0 c -0.34,-0.02 -0.63,-0.24 -0.77,-0.55 v -0.05 c -0.19,-0.43 -0.02,-0.91 0.38,-1.15 0.41,-0.24 0.92,-0.14 1.23,0.22 0.26,0.38 0.24,0.91 -0.1,1.25 v 0 c -0.21,0.21 -0.5,0.31 -0.79,0.26 v 0 c -0.48,-0.05 -0.84,-0.48 -0.82,-0.96 v -0.05 l 0.15,0.55 v -0.02 l 0.65,0.43 h -0.03 c -0.48,-0.07 -0.84,-0.5 -0.79,-1.01 v -0.02 l 0.14,0.6 -0.02,-0.05 0.67,0.43 h -0.02 c -0.48,-0.07 -0.84,-0.5 -0.79,-0.98 v -0.05 0.05 -0.05 l 0.14,0.55 -0.02,-0.02 c -0.1,-0.17 -0.15,-0.36 -0.15,-0.58 v -0.02 l 0.07,0.43 -0.4,-1.05 -0.03,-0.1 -0.12,-0.41 v -0.02 l -0.07,-0.43 v 0.07 l -0.12,-0.51 c -0.12,-0.38 0.07,-0.79 0.48,-0.91 0.36,-0.14 0.79,0.05 0.96,0.41 z"
         style="fill:#000000;fill-opacity:1;fill-rule:nonzero;stroke:none"
         transform="matrix(1.3333333,0,0,-1.3333333,0,1120.8)" />
    </g>
    <g
       id="g257">
      <path
         id="path257"
         d="m 328.06,693.43 0.12,0.03 c 0.02,0.02 0.09,0.04 0.14,0.04 l 0.84,0.46 v 0 l 0.62,0.34 v 0 l 1.11,0.57 v 0 l 0.38,0.19 0.03,0.03 1,0.57 h 0.03 l 1.01,0.6 v 0 l 0.26,0.17 -0.05,-0.05 0.65,0.32 -0.12,-0.05 0.19,0.05 c 0.07,0.02 0.15,0.07 0.22,0.12 l 0.21,0.12 c 0.08,0.04 0.1,0.07 0.17,0.12 l 0.03,0.04 -0.29,-0.19 h 0.05 c 0.02,0.03 0.07,0.05 0.12,0.07 l 0.02,0.03 v 0 l 0.05,0.02 -0.15,-0.07 0.03,0.02 c 0.05,0 0.09,0.03 0.14,0.05 l 0.03,0.03 -0.27,-0.12 0.07,0.02 c 0.1,0.02 0.2,0.07 0.27,0.12 l 0.07,0.05 -0.14,-0.1 0.02,0.03 c 0.53,0.21 0.79,0.76 0.62,1.29 -0.16,0.53 -0.74,0.82 -1.24,0.67 -0.56,-0.14 -0.89,-0.67 -0.77,-1.2 l 0.02,-0.12 v 0.03 l 0.1,-0.43 h -0.03 l 0.22,-1.32 v 0.04 l 0.24,-1.89 v 0.12 -0.1 0 -0.05 c 0,-0.57 0.48,-1.03 1.06,-1.03 0.55,0 1.03,0.46 1.03,1.03 v 0.05 0 0.1 c 0,0.05 0,0.09 0,0.14 l -0.24,1.9 -0.03,0.05 -0.21,1.32 v 0 l -0.1,0.45 v 0.05 l -0.02,0.1 c -0.1,0.36 -0.39,0.67 -0.75,0.76 -0.38,0.12 -0.76,0 -1,-0.28 l -0.05,-0.03 -0.03,-0.02 -0.04,-0.07 0.45,0.28 h -0.09 c -0.1,-0.04 -0.2,-0.09 -0.29,-0.16 l -0.03,-0.03 0.1,0.07 -0.02,-0.02 -0.1,-0.05 -0.02,-0.02 v 0 l -0.05,-0.03 0.07,0.05 v 0 c -0.1,-0.05 -0.17,-0.12 -0.24,-0.19 l -0.02,-0.05 0.14,0.15 -0.19,-0.12 0.24,0.12 -0.19,-0.08 -0.1,-0.04 -0.67,-0.32 -0.07,-0.04 -0.29,-0.17 v -0.03 l -1.01,-0.6 v 0 l -0.98,-0.62 v 0.02 l -0.36,-0.24 v 0 l -1.08,-0.64 h -0.03 l -0.57,-0.36 -0.03,-0.03 -0.79,-0.53 -0.05,-0.02 -0.09,-0.07 c -0.34,-0.22 -0.44,-0.67 -0.27,-1.03 0.19,-0.34 0.6,-0.51 0.99,-0.39 z"
         style="fill:#000000;fill-opacity:1;fill-rule:nonzero;stroke:none"
         transform="matrix(1.3333333,0,0,-1.3333333,0,1120.8)" />
    </g>
    <g
       id="g258">
      <path
         id="path258"
         d="m 327.82,693.02 1.15,-0.12 c 0.05,0 0.09,0 0.14,0 l 1.13,0.05 h 0.1 l 0.38,0.05 h -0.02 l 0.43,0.02 v 0 l 1.53,0.12 h -0.07 0.99 0.04 l 0.36,0.05 h -0.04 0.52 -0.09 l 0.67,-0.05 -0.26,0.05 h 0.02 c 0.58,-0.19 1.18,0.12 1.37,0.67 0.19,0.56 -0.12,1.18 -0.67,1.37 h -0.05 c -0.1,0.03 -0.19,0.05 -0.29,0.05 l -0.67,0.05 h -0.07 l -0.53,-0.03 h -0.05 l -0.36,-0.02 h 0.05 l -0.99,-0.02 -0.04,-0.03 -1.54,-0.12 v 0 l -0.43,-0.05 h -0.05 l -0.41,-0.07 0.05,0.03 -1.13,-0.12 h -0.02 l -1.13,-0.1 c -0.48,-0.05 -0.82,-0.41 -0.82,-0.86 0,-0.48 0.34,-0.84 0.8,-0.92 z"
         style="fill:#000000;fill-opacity:1;fill-rule:nonzero;stroke:none"
         transform="matrix(1.3333333,0,0,-1.3333333,0,1120.8)" />
    </g>
    <g
       id="g259">
      <path
         id="path259"
         d="m 326.76,697.99 v -0.41 -0.12 l 0.05,-0.96 v -0.02 l 0.12,-1.06 v 0 l 0.07,-1.03 v 0.1 -0.34 0 -0.05 c 0,-0.33 0.17,-0.64 0.46,-0.81 0.28,-0.17 0.62,-0.17 0.91,0 0.29,0.17 0.48,0.48 0.48,0.81 v 0.05 0 l -0.03,0.34 v 0.09 l -0.12,1.04 v 0 l -0.14,1.05 v 0 l -0.12,0.99 v -0.03 l -0.02,0.41 c -0.05,0.43 -0.44,0.74 -0.84,0.74 -0.46,-0.02 -0.8,-0.36 -0.82,-0.79 z"
         style="fill:#000000;fill-opacity:1;fill-rule:nonzero;stroke:none"
         transform="matrix(1.3333333,0,0,-1.3333333,0,1120.8)" />
    </g>
    <g
       id="g260">
      <path
         id="path260"
         d="m 327.22,697.3 0.21,-0.12 c 0.07,-0.03 0.17,-0.08 0.27,-0.1 l 0.14,-0.02 -0.31,0.12 0.12,-0.08 c 0.07,-0.04 0.12,-0.07 0.19,-0.09 l 0.14,-0.03 -0.12,0.05 0.1,-0.07 -0.02,0.02 0.31,-0.16 -0.05,0.02 0.12,-0.1 c 0.05,0 0.1,-0.04 0.12,-0.04 l 0.14,-0.08 v 0 l 0.15,-0.07 0.07,-0.02 0.34,-0.12 v -0.03 l 1.22,-0.43 -0.07,0.03 0.79,-0.36 -0.26,0.21 0.07,-0.09 c 0.21,-0.22 0.55,-0.32 0.86,-0.24 0.31,0.09 0.58,0.33 0.65,0.64 0.1,0.32 0,0.65 -0.24,0.89 l -0.07,0.07 c -0.07,0.08 -0.17,0.15 -0.29,0.2 l -0.79,0.33 h -0.07 l -1.23,0.41 h 0.03 l -0.34,0.12 0.05,-0.02 -0.17,0.07 v 0 l -0.14,0.05 0.12,-0.05 -0.15,0.09 -0.07,0.03 -0.31,0.14 -0.07,0.05 -0.12,0.05 c -0.05,0.02 -0.1,0.02 -0.15,0.02 l -0.14,0.03 0.24,-0.08 -0.15,0.08 c -0.09,0.04 -0.19,0.09 -0.28,0.09 h -0.17 0.12 l -0.24,0.03 c -0.36,0.09 -0.75,-0.12 -0.89,-0.48 -0.12,-0.36 0,-0.75 0.34,-0.96 z"
         style="fill:#000000;fill-opacity:1;fill-rule:nonzero;stroke:none"
         transform="matrix(1.3333333,0,0,-1.3333333,0,1120.8)" />
    </g>
    <g
       id="g261">
      <path
         id="path261"
         d="m 329.78,701.11 0.08,-0.17 0.02,-0.07 0.22,-0.41 -0.05,0.05 0.53,-1.2 -0.03,0.05 0.27,-0.7 v 0 l 0.36,-1 v -0.05 l 0.24,-0.58 -0.05,0.17 0.02,-0.05 c 0.1,-0.53 0.58,-0.86 1.08,-0.77 0.51,0.08 0.87,0.56 0.77,1.06 v 0.07 c -0.02,0.07 -0.02,0.15 -0.07,0.24 l -0.24,0.58 0.02,-0.05 -0.36,1.03 v 0 l -0.26,0.72 -0.03,0.05 -0.52,1.18 -0.05,0.09 -0.24,0.39 v 0.02 l -0.1,0.14 c -0.26,0.39 -0.74,0.53 -1.17,0.32 -0.41,-0.2 -0.6,-0.68 -0.44,-1.11 z"
         style="fill:#000000;fill-opacity:1;fill-rule:nonzero;stroke:none"
         transform="matrix(1.3333333,0,0,-1.3333333,0,1120.8)" />
    </g>
    <g
       id="g262">
      <path
         id="path262"
         d="m 333.34,701.74 0.02,-1.4 v -0.07 l 0.05,-0.5 v 0 l 0.09,-0.94 v -0.05 l 0.22,-1.34 v -0.1 l 0.02,-0.04 v 0 l 0.03,-0.05 c 0.12,-0.51 0.65,-0.82 1.17,-0.7 0.53,0.12 0.84,0.65 0.7,1.18 v 0.05 0 l -0.02,0.04 0.02,-0.07 -0.22,1.35 v -0.05 l -0.09,0.91 v 0.02 l -0.07,0.51 v 0.02 l -0.2,1.37 c -0.04,0.46 -0.45,0.79 -0.93,0.74 -0.43,-0.04 -0.79,-0.4 -0.79,-0.88 z"
         style="fill:#000000;fill-opacity:1;fill-rule:nonzero;stroke:none"
         transform="matrix(1.3333333,0,0,-1.3333333,0,1120.8)" />
    </g>
    <g
       id="g263">
      <path
         id="path263"
         d="m 333.6,701.14 0.05,-0.05 c 0.09,-0.07 0.19,-0.15 0.31,-0.17 l 0.72,-0.22 0.1,-0.04 1,-0.2 c 0.08,0 0.12,0 0.2,0 h 0.04 l -0.38,0.08 0.07,-0.03 c 0.05,-0.02 0.12,-0.05 0.17,-0.05 l 0.07,-0.02 0.03,-0.02 h 0.07 l -0.36,0.14 0.07,-0.05 c 0.05,-0.02 0.12,-0.05 0.17,-0.07 l 0.17,-0.07 -0.05,0.02 0.24,-0.12 -0.29,0.19 0.07,-0.04 -0.21,1.27 -0.03,-0.07 0.51,0.45 -0.2,-0.07 0.05,0.02 -0.48,-0.19 -0.07,-0.02 -0.14,-0.07 -0.08,-0.03 -0.14,-0.09 h -0.02 l -0.34,-0.2 h -0.02 l -0.89,-0.5 -0.07,-0.07 -0.08,-0.03 0.17,0.1 -0.07,-0.05 v 0 l -0.22,-0.09 0.15,0.04 h -0.05 c -0.55,-0.19 -0.86,-0.79 -0.67,-1.36 0.19,-0.56 0.79,-0.84 1.34,-0.68 l 0.05,0.03 c 0.05,0.02 0.1,0.02 0.12,0.05 l 0.24,0.12 v 0 l 0.07,0.04 c 0.05,0.03 0.1,0.05 0.17,0.1 l 0.05,0.02 -0.12,-0.04 0.89,0.5 -0.05,-0.02 0.36,0.21 h -0.03 l 0.17,0.07 -0.07,-0.04 0.17,0.09 -0.07,-0.05 0.48,0.2 0.04,0.02 0.2,0.1 c 0.28,0.12 0.5,0.36 0.6,0.69 v 0.05 c 0.12,0.48 -0.12,0.98 -0.58,1.2 l -0.07,0.02 -0.07,0.05 -0.24,0.07 v 0 l -0.17,0.08 0.17,-0.08 -0.08,0.05 c -0.09,0.05 -0.21,0.1 -0.36,0.12 h -0.07 0.03 -0.05 l 0.17,-0.05 -0.05,0.03 c -0.12,0.05 -0.24,0.07 -0.39,0.07 l -0.04,-0.02 h 0.14 l -1.03,0.14 h 0.05 l -0.75,0.1 h 0.05 l -0.07,0.02 c -0.41,0.1 -0.82,-0.1 -1.01,-0.48 -0.19,-0.38 -0.1,-0.84 0.24,-1.1 z"
         style="fill:#000000;fill-opacity:1;fill-rule:nonzero;stroke:none"
         transform="matrix(1.3333333,0,0,-1.3333333,0,1120.8)" />
    </g>
    <g
       id="g264">
      <path
         id="path264"
         d="m 330.29,702.26 h -0.03 c -0.16,-0.07 -0.33,-0.19 -0.4,-0.36 l -0.08,-0.12 0.08,0.12 -0.32,-0.4 -0.04,-0.08 -0.05,-0.07 0.07,0.07 -0.07,-0.07 c -0.05,-0.05 -0.07,-0.09 -0.1,-0.12 l -0.14,-0.24 -0.05,-0.05 -0.12,-0.21 0.05,0.05 -0.19,-0.32 0.02,0.05 -0.14,-0.19 0.45,0.34 -0.19,-0.08 0.48,0.05 h -0.02 l 0.38,-0.12 -0.05,0.03 h -0.02 v 0.02 l 0.17,-0.14 -0.15,0.14 -0.07,0.07 -0.07,0.03 0.17,-0.12 -0.08,0.04 v 0 l -0.04,0.08 v 0 l -0.17,0.16 -0.05,0.05 -0.07,0.07 0.05,-0.04 -0.08,0.09 -0.04,0.05 -0.1,0.1 -0.05,0.04 -0.09,0.08 v 0 l -0.1,0.09 c -0.02,0.03 -0.07,0.07 -0.12,0.1 l -0.26,0.14 v 0 l -0.03,0.03 -0.07,0.04 h -0.02 c -0.36,0.2 -0.82,0.17 -1.13,-0.04 -0.36,-0.22 -0.55,-0.6 -0.53,-1.01 0.05,-0.41 0.29,-0.77 0.65,-0.94 l 0.02,-0.02 0.07,-0.03 0.03,-0.02 -0.15,0.07 0.27,-0.14 -0.05,0.05 0.1,-0.08 v 0 l 0.09,-0.07 -0.07,0.05 0.1,-0.07 -0.05,0.05 0.07,-0.08 0.1,-0.07 0.07,-0.05 -0.12,0.12 0.17,-0.19 0.04,-0.05 0.08,-0.04 v 0 l 0.04,-0.08 c 0.05,-0.04 0.1,-0.07 0.17,-0.12 l 0.07,-0.04 -0.12,0.09 0.17,-0.12 c 0.05,-0.07 0.15,-0.12 0.22,-0.17 h 0.02 0.03 l 0.02,-0.02 c 0.19,-0.07 0.38,-0.1 0.58,-0.07 h 0.02 c 0.41,0.05 0.72,0.31 0.86,0.69 l 0.08,0.17 -0.12,-0.21 0.14,0.21 0.02,0.07 0.2,0.32 0.02,0.07 0.1,0.21 -0.03,-0.07 0.15,0.27 -0.05,-0.05 0.07,0.09 c 0.02,0.05 0.05,0.08 0.07,0.12 l 0.05,0.1 -0.02,-0.05 0.24,0.43 0.02,0.08 0.05,0.09 c 0.12,0.27 0.09,0.55 -0.05,0.79 l -0.02,0.05 c -0.22,0.31 -0.63,0.48 -1.01,0.31 z"
         style="fill:#000000;fill-opacity:1;fill-rule:nonzero;stroke:none"
         transform="matrix(1.3333333,0,0,-1.3333333,0,1120.8)" />
    </g>
    <g
       id="g265">
      <path
         id="path265"
         d="m 330.96,701.02 0.14,0.07 -0.28,-0.05 0.24,-0.02 -0.36,0.09 0.14,-0.05 c 0.29,-0.16 0.67,-0.14 0.96,0.05 0.26,0.22 0.41,0.55 0.34,0.91 -0.05,0.32 -0.32,0.6 -0.65,0.7 v 0 l 0.65,-1.01 0.02,0.12 c 0,0.12 0,0.24 -0.02,0.36 l -0.05,0.19 v 0.1 l -0.05,0.07 v 0.05 l -0.02,0.07 v 0 l -0.03,0.07 c -0.02,0.05 -0.05,0.08 -0.07,0.12 l -0.02,0.08 -0.05,0.04 -0.12,0.17 v 0.03 l -0.1,0.12 c -0.02,0.04 -0.09,0.12 -0.14,0.16 l -0.29,0.24 0.1,-0.07 -0.1,0.07 c -0.02,0.05 -0.05,0.08 -0.1,0.12 l -0.09,0.08 0.12,-0.12 -0.07,0.09 v 0 l -0.2,0.19 0.08,-0.07 -0.12,0.17 -0.08,0.1 -0.04,0.04 c -0.03,0.03 -0.08,0.08 -0.1,0.1 l -0.05,0.02 0.29,-0.38 -0.02,0.05 c -0.03,0.05 -0.05,0.12 -0.1,0.17 l -0.02,0.04 v 0 l -0.05,0.05 0.12,-0.17 -0.05,0.05 v 0 0.05 0 l -0.02,0.07 0.02,-0.09 -0.02,0.14 0.02,-0.14 -0.02,0.12 v 0 l -0.03,0.09 0.03,-0.12 -0.03,0.07 h 0.03 l -0.03,0.1 v -0.14 0.09 0 l 0.03,0.1 v 0 0.09 0 0.1 0 0.1 l -0.05,-0.27 0.02,0.1 v 0 l 0.03,0.09 c 0.02,0.05 0.02,0.1 0.02,0.12 l 0.02,0.1 -0.09,-0.29 0.05,0.07 c 0.02,0.08 0.02,0.12 0.04,0.17 l 0.03,0.1 -0.05,-0.17 0.02,0.1 -0.02,-0.05 0.12,0.24 0.05,0.07 0.02,0.07 -0.07,-0.14 0.05,0.07 -0.05,-0.05 0.07,0.07 v 0 l 0.05,0.08 -0.14,-0.17 0.04,0.05 v 0 l 0.08,0.04 0.04,0.1 0.08,0.07 -0.17,-0.17 0.05,0.05 c 0.04,0.03 0.07,0.05 0.12,0.07 l 0.04,0.08 -0.09,-0.1 0.05,0.05 -0.08,-0.05 0.08,0.05 0.07,0.07 0.07,0.02 -0.19,-0.12 0.07,0.05 v 0 l 0.07,0.03 -0.07,-0.03 0.1,0.05 c 0.02,0 0.07,0.02 0.12,0.05 l 0.07,0.05 -0.29,-0.12 0.1,0.02 h 0.04 l 0.08,0.02 h -0.08 l 0.22,0.05 -0.07,-0.02 0.14,0.02 h -0.09 0.12 -0.12 0.12 v 0 h 0.14 v 0 h 0.12 -0.12 0.14 -0.02 l 0.12,-0.02 -0.07,0.02 0.12,-0.02 h -0.03 l 0.12,-0.03 v 0 l 0.12,-0.02 -0.16,0.05 0.31,-0.1 h -0.05 l 0.12,-0.05 -0.12,0.05 0.12,-0.05 v 0 l 0.1,-0.07 v 0 l 0.12,-0.05 -0.12,0.1 0.07,-0.1 0.07,-0.02 0.1,-0.07 -0.1,0.07 0.22,-0.19 -0.1,0.09 0.12,-0.12 0.1,-0.07 0.12,-0.12 -0.12,0.12 0.12,-0.14 -0.05,0.05 0.12,-0.15 v 0 l 0.12,-0.14 -0.05,0.02 0.12,-0.14 -0.07,0.09 0.09,-0.14 -0.02,0.02 0.19,-0.36 -0.02,0.08 0.05,-0.15 v 0.03 l 0.02,-0.12 v 0 l 0.05,-0.12 -0.03,0.09 0.05,-0.12 v -0.05 l 0.05,-0.12 -0.02,0.12 0.02,-0.16 v 0 l 0.02,-0.12 -0.02,0.16 v -0.14 -0.07 l 0.02,-0.15 v 0.12 l -0.02,-0.36 v -0.07 -0.09 l 0.02,0.21 -0.02,-0.12 v 0 -0.09 h -0.02 l -0.05,-0.24 0.09,0.24 -0.02,-0.05 0.05,0.12 v -0.05 c -0.07,-0.1 -0.12,-0.22 -0.15,-0.34 l -0.02,-0.04 0.14,0.33 -0.02,-0.02 c -0.07,-0.1 -0.12,-0.22 -0.12,-0.34 l -0.02,-0.05 0.26,0.48 -0.02,-0.02 c -0.12,-0.12 -0.22,-0.26 -0.24,-0.41 l -0.03,-0.05 0.15,0.32 -0.03,-0.05 -0.05,-0.07 -0.02,-0.03 0.14,0.17 -0.04,-0.05 0.02,0.03 -0.07,-0.08 0.65,0.32 v 0 c -0.27,-0.03 -0.51,-0.15 -0.68,-0.34 h -0.02 c -0.19,-0.22 -0.29,-0.48 -0.26,-0.77 v 0 c 0,-0.57 0.48,-1.01 1.08,-1.01 0.55,0.05 0.98,0.53 0.98,1.08 -0.02,0.58 -0.5,1.04 -1.08,1.01 v 0 c -0.26,-0.02 -0.53,-0.12 -0.72,-0.33 h -0.02 l 0.72,0.31 v 0 c -0.29,0 -0.56,-0.15 -0.75,-0.34 v 0 l 0.7,0.31 h -0.03 0.03 v 0 0 0 0 h -0.03 -0.04 v 0 h 0.07 -0.05 -0.05 -0.05 c -0.52,-0.04 -0.96,-0.48 -0.96,-1 0,-0.56 0.44,-0.99 0.96,-1.04 h 0.05 0.05 0.05 -0.07 v 0 h 0.04 0.03 v 0 0 0 0 h -0.03 0.03 c 0.26,-0.02 0.55,0.08 0.77,0.24 v 0.03 l -0.72,-0.27 v 0 c 0.26,0 0.55,0.1 0.74,0.29 h 0.02 l -0.74,-0.29 v 0 c 0.58,0 1.06,0.44 1.08,1.01 v 0 l -0.34,-0.69 h 0.03 l -0.79,-0.27 v 0 c 0.31,-0.05 0.6,0.07 0.81,0.27 l 0.07,0.09 h -0.02 l 0.05,0.03 c 0.05,0.04 0.09,0.09 0.12,0.14 l 0.05,0.02 -0.05,-0.02 0.05,0.05 c 0.07,0.07 0.12,0.17 0.14,0.26 l 0.02,0.05 -0.26,-0.38 0.05,0.02 c 0.12,0.14 0.24,0.31 0.29,0.48 v 0.05 l -0.15,-0.34 0.03,0.05 c 0.07,0.1 0.12,0.22 0.14,0.31 V 702 l -0.14,-0.31 0.02,0.02 c 0.02,0.05 0.05,0.07 0.07,0.12 l 0.03,0.05 c 0.04,0.1 0.07,0.19 0.12,0.26 l 0.02,0.24 v -0.02 l 0.02,0.1 0.03,0.04 v 0.1 c 0.02,0.07 0.05,0.14 0.05,0.22 v 0.09 0 0.39 0.09 0.15 -0.1 0.14 c 0,0.05 0,0.12 0,0.17 l -0.03,0.15 v 0 l -0.02,0.14 -0.03,0.1 -0.02,0.14 v -0.02 l -0.02,0.14 -0.05,0.12 -0.05,0.12 v 0 l -0.02,0.14 -0.03,0.05 -0.07,0.15 -0.02,0.07 -0.17,0.36 -0.03,0.02 -0.09,0.17 c 0,0.02 -0.03,0.07 -0.05,0.1 l -0.12,0.14 v 0.05 l -0.12,0.14 v 0 l -0.1,0.15 -0.02,0.02 -0.12,0.14 c -0.02,0.05 -0.07,0.1 -0.12,0.12 l -0.12,0.12 0.1,-0.07 -0.12,0.12 c -0.05,0.05 -0.1,0.07 -0.12,0.12 l -0.24,0.19 -0.1,0.08 -0.1,0.07 0.05,-0.03 -0.09,0.05 c -0.05,0.05 -0.1,0.07 -0.12,0.1 l -0.12,0.07 v 0 l -0.1,0.05 v 0 l -0.12,0.07 c -0.02,0.02 -0.07,0.02 -0.12,0.05 l -0.12,0.07 h -0.02 l -0.32,0.12 c -0.04,0 -0.09,0.02 -0.16,0.02 l -0.12,0.03 v 0 l -0.12,0.02 v 0 l -0.15,0.05 h -0.07 -0.12 l -0.02,0.02 h -0.12 -0.1 -0.12 v 0 h -0.14 v 0 h -0.12 -0.1 -0.12 l -0.1,-0.02 -0.14,-0.02 -0.07,-0.03 -0.24,-0.05 -0.05,-0.02 -0.07,-0.02 0.05,0.02 -0.1,-0.05 c -0.1,-0.02 -0.19,-0.05 -0.26,-0.12 l -0.08,-0.02 0.15,0.07 -0.07,-0.05 -0.08,-0.02 -0.07,-0.03 v 0 L 330,707.4 c -0.07,-0.05 -0.14,-0.1 -0.19,-0.14 l -0.07,-0.05 0.07,0.07 -0.05,-0.07 -0.1,-0.05 -0.04,-0.05 c -0.05,-0.02 -0.08,-0.05 -0.1,-0.07 l -0.07,-0.07 0.12,0.07 -0.07,-0.05 c -0.05,-0.05 -0.12,-0.07 -0.17,-0.14 l -0.05,-0.07 0.05,0.07 -0.05,-0.05 v 0 l -0.05,-0.05 c -0.05,-0.07 -0.09,-0.12 -0.14,-0.19 l -0.05,-0.05 v 0 l -0.02,-0.07 -0.05,-0.05 -0.05,-0.07 c 0,-0.05 -0.02,-0.1 -0.05,-0.12 l -0.02,-0.1 v 0.05 l -0.12,-0.24 -0.03,-0.07 -0.02,-0.07 c -0.02,-0.05 -0.05,-0.12 -0.07,-0.17 v -0.1 l 0.05,0.17 -0.05,-0.09 c -0.03,-0.1 -0.05,-0.2 -0.07,-0.29 v -0.1 l 0.02,0.12 -0.02,-0.07 v 0 l -0.03,-0.12 c -0.02,-0.1 -0.02,-0.17 -0.02,-0.26 v -0.1 0 -0.1 0 -0.09 0 -0.1 0 -0.09 c 0,-0.05 0,-0.1 0.02,-0.15 l 0.03,-0.09 v 0 -0.1 l 0.02,-0.1 0.02,-0.09 v 0 l 0.03,-0.1 0.05,-0.12 0.02,-0.12 c 0.05,-0.05 0.05,-0.09 0.1,-0.14 v -0.05 0 l 0.02,-0.05 v 0 l 0.05,-0.05 c 0.02,-0.04 0.05,-0.09 0.09,-0.14 l 0.05,-0.05 v 0 l 0.03,-0.05 -0.1,0.17 0.02,-0.05 c 0.08,-0.16 0.2,-0.28 0.32,-0.36 l 0.07,-0.04 -0.12,0.09 0.05,-0.05 -0.12,0.12 0.14,-0.16 0.05,-0.08 0.19,-0.16 0.05,-0.05 0.07,-0.07 c 0.05,-0.05 0.1,-0.08 0.12,-0.1 l 0.12,-0.07 -0.12,0.09 0.1,-0.07 0.04,-0.05 0.32,-0.24 -0.1,0.05 0.12,-0.09 -0.07,0.09 0.12,-0.17 0.07,-0.07 0.07,-0.05 -0.09,0.08 0.04,-0.03 v 0 l 0.05,-0.07 -0.07,0.07 0.05,-0.05 -0.12,0.24 0.07,-0.21 -0.02,0.14 0.02,-0.12 c 0.02,-0.26 0.17,-0.48 0.41,-0.62 0.19,-0.15 0.45,-0.19 0.72,-0.12 v 0.02 c 0.38,0.1 0.65,0.43 0.67,0.84 0,0.39 -0.24,0.75 -0.62,0.87 -0.39,0.12 -0.82,-0.03 -1.04,-0.36 l -0.07,-0.12 0.46,0.33 -0.22,-0.05 c -0.07,-0.04 -0.14,-0.07 -0.21,-0.12 l -0.15,-0.07 c -0.31,-0.21 -0.43,-0.6 -0.26,-0.93 0.17,-0.32 0.55,-0.48 0.91,-0.36 z"
         style="fill:#000000;fill-opacity:1;fill-rule:nonzero;stroke:none"
         transform="matrix(1.3333333,0,0,-1.3333333,0,1120.8)" />
    </g>
    <g
       id="g266">
      <path
         id="path266"
         d="m 330.07,704.64 0.15,-0.05 c 0.07,-0.02 0.14,-0.05 0.24,-0.02 h 0.14 l -0.12,0.02 0.05,-0.02 c 0.07,0 0.12,0 0.17,0.02 h 0.04 -0.14 l 0.05,-0.02 v 0 h 0.05 v 0 h 0.02 v 0 l 0.12,-0.03 v 0 l 0.24,-0.02 h 0.05 0.05 v 0 h 0.02 l -0.14,0.02 h 0.02 c 0.07,-0.02 0.12,-0.02 0.19,-0.04 h 0.05 l -0.19,0.02 h 0.05 v 0 l 0.04,-0.02 -0.02,0.02 0.12,-0.05 c 0.02,-0.02 0.07,-0.02 0.12,-0.05 h 0.05 l -0.17,0.05 0.1,-0.05 h 0.02 l 0.05,-0.02 v 0 l 0.07,-0.02 -0.17,0.09 0.05,-0.05 c 0.05,-0.02 0.1,-0.04 0.14,-0.07 l 0.08,-0.05 -0.12,0.1 0.04,-0.05 0.08,-0.07 0.07,-0.02 -0.07,0.04 0.02,-0.04 v 0 l 0.1,-0.05 -0.1,0.05 0.17,-0.15 -0.03,0.03 0.08,-0.1 v 0 l 0.07,-0.1 -0.05,0.1 0.05,-0.1 v 0 l 0.07,-0.09 -0.02,0.02 0.04,-0.09 v 0 l 0.1,-0.2 -0.02,0.08 0.04,-0.12 c 0.03,-0.03 0.03,-0.08 0.08,-0.12 l 0.07,-0.12 v 0 l 0.05,-0.12 h 0.02 l 0.14,-0.27 0.08,-0.09 0.31,-0.36 -0.05,0.04 0.07,-0.07 0.03,-0.05 0.04,-0.04 -0.04,0.07 0.12,-0.19 v 0 l 0.14,-0.24 0.05,-0.08 0.19,-0.24 0.07,-0.04 0.03,-0.03 c 0.28,-0.26 0.74,-0.24 1,0.03 0.29,0.28 0.29,0.72 0.03,1 l -0.03,0.05 0.03,-0.05 -0.19,0.24 0.07,-0.09 -0.15,0.24 v -0.03 l -0.12,0.2 -0.04,0.09 -0.05,0.05 0.02,-0.02 -0.07,0.07 -0.02,0.05 -0.32,0.36 0.08,-0.08 -0.17,0.24 h 0.02 l -0.07,0.12 v 0 l -0.07,0.12 0.05,-0.12 -0.05,0.12 -0.05,0.1 -0.1,0.22 v 0.02 l -0.04,0.1 -0.05,0.02 -0.05,0.1 v 0 l -0.07,0.09 c 0,0.05 -0.05,0.07 -0.05,0.1 l -0.1,0.09 v 0 l -0.04,0.1 h -0.05 l -0.15,0.17 -0.07,0.07 -0.07,0.05 v 0.02 l -0.07,0.05 -0.07,0.05 -0.08,0.02 0.1,-0.05 -0.07,0.05 c -0.05,0.05 -0.07,0.05 -0.12,0.07 l -0.07,0.05 0.12,-0.07 -0.05,0.02 c -0.07,0.05 -0.12,0.1 -0.19,0.12 l -0.08,0.03 h -0.02 l -0.07,0.02 h 0.05 l -0.1,0.05 c -0.07,0 -0.12,0.02 -0.17,0.02 h -0.07 0.1 l -0.1,0.03 -0.1,0.02 h -0.04 v 0 h -0.05 c -0.05,0.03 -0.12,0.03 -0.17,0.03 h -0.05 l 0.17,-0.03 -0.05,0.03 c -0.07,0 -0.12,0.02 -0.19,0 h -0.02 v 0 h -0.05 0.05 -0.24 0.02 -0.12 -0.12 -0.02 v 0 l -0.05,-0.03 v 0.03 l -0.05,-0.03 c -0.07,0 -0.12,0 -0.17,-0.02 l -0.05,-0.03 0.15,0.05 h -0.05 l -0.07,-0.02 -0.17,-0.05 0.07,0.02 -0.14,-0.02 c -0.29,-0.02 -0.51,-0.26 -0.53,-0.58 -0.02,-0.26 0.17,-0.55 0.43,-0.62 z"
         style="fill:#000000;fill-opacity:1;fill-rule:nonzero;stroke:none"
         transform="matrix(1.3333333,0,0,-1.3333333,0,1120.8)" />
    </g>
    <g
       id="g267">
      <path
         id="path267"
         d="m 319.63,685.85 1.3,-0.19 h 0.12 l 2.18,-0.12 h 0.03 0.79 0.02 l 3.39,0.07 h 0.02 l 1.99,0.12 h 0.03 l 1.96,0.12 h -0.07 0.27 l -0.2,0.02 0.15,-0.02 c 0.07,-0.03 0.12,-0.03 0.19,-0.03 h 0.12 v 0 h 0.17 c 0.07,0 0.14,0 0.19,0.03 l 0.14,0.02 -0.02,-0.02 0.14,0.05 -0.09,-0.03 0.31,0.03 h -0.14 l 0.62,-0.03 h 0.02 l 1.3,-0.05 c 0.31,-0.02 0.62,0.1 0.84,0.34 l 0.05,0.02 c 0.33,0.36 0.41,0.92 0.14,1.35 -0.26,0.41 -0.79,0.62 -1.27,0.48 -0.48,-0.12 -0.79,-0.55 -0.79,-1.08 v 0 c 0,-0.63 0.48,-1.11 1.1,-1.11 0.63,0 1.11,0.48 1.11,1.11 v 0 c 0,0.48 -0.27,0.89 -0.7,1.05 -0.41,0.17 -0.89,0.08 -1.2,-0.26 l -0.02,-0.02 0.84,0.33 -1.3,0.05 h -0.02 l -0.63,0.02 c -0.05,0 -0.09,0 -0.14,0 l -0.31,-0.02 -0.1,-0.02 -0.14,-0.03 -0.05,-0.02 h -0.12 0.24 -0.17 v 0 h -0.12 0.17 l -0.15,0.02 c -0.04,0 -0.12,0.03 -0.16,0.03 l -0.27,-0.03 h -0.09 l -1.97,-0.17 v 0 l -1.97,-0.16 h 0.02 l -3.36,-0.12 h 0.03 -0.79 0.02 -2.21 0.05 l -1.3,0.04 c -0.45,0.03 -0.86,-0.33 -0.91,-0.79 -0.05,-0.48 0.27,-0.89 0.72,-0.98 z"
         style="fill:#000000;fill-opacity:1;fill-rule:nonzero;stroke:none"
         transform="matrix(1.3333333,0,0,-1.3333333,0,1120.8)" />
    </g>
    <g
       id="g268">
      <path
         id="path268"
         d="m 318.79,686.14 0.03,-0.08 c 0.02,-0.14 0.09,-0.26 0.19,-0.36 l 0.07,-0.09 -0.17,0.24 0.05,-0.05 c 0,-0.07 0.05,-0.1 0.07,-0.14 l 0.05,-0.15 0.07,-0.07 0.05,-0.07 0.07,-0.07 0.17,-0.2 -0.07,0.1 0.26,-0.34 h -0.02 l 0.19,-0.24 0.02,-0.04 0.17,-0.2 0.05,-0.04 0.22,-0.22 v 0 l 0.19,-0.22 0.05,-0.04 0.21,-0.2 0.05,-0.04 0.24,-0.2 v 0 l 0.24,-0.16 0.05,-0.05 0.24,-0.15 v 0 l 0.24,-0.16 c 0.02,-0.03 0.05,-0.05 0.09,-0.05 l 0.7,-0.34 0.07,-0.05 1.18,-0.45 h 0.07 l 0.31,-0.1 0.1,-0.02 0.31,-0.07 -0.07,0.02 0.29,-0.1 c 0.07,0 0.14,-0.02 0.21,-0.04 l 0.91,-0.05 h 0.05 l 0.58,-0.03 h 0.07 l 0.58,0.03 h 0.12 l 0.55,0.09 v 0 l 0.57,0.08 0.1,0.02 1.18,0.29 v 0 l 0.5,0.14 c 0.05,0.03 0.1,0.03 0.12,0.05 l 0.5,0.22 h 0.05 l 0.48,0.24 0.05,0.04 1.08,0.58 c 0.05,0.02 0.1,0.05 0.12,0.07 l 0.65,0.48 v 0 l 0.17,0.12 v 0 l 0.14,0.12 -0.07,-0.05 0.19,0.12 0.05,0.03 0.31,0.24 -0.17,-0.1 0.12,0.05 0.1,0.05 0.09,0.05 v 0 l 0.1,0.07 v 0 l 0.12,0.05 c 0.05,0.04 0.07,0.07 0.12,0.09 l 0.24,0.19 c 0.05,0.03 0.1,0.08 0.14,0.15 l 0.08,0.05 c 0.36,0.45 0.31,1.12 -0.15,1.51 -0.45,0.38 -1.13,0.33 -1.51,-0.12 l -0.05,-0.07 0.15,0.16 -0.22,-0.21 0.1,0.09 -0.1,-0.07 v 0 l -0.1,-0.05 v 0 l -0.09,-0.07 0.07,0.05 -0.12,-0.07 c -0.05,-0.03 -0.12,-0.05 -0.14,-0.07 l -0.34,-0.24 h 0.02 l -0.16,-0.12 -0.08,-0.05 -0.14,-0.12 v 0 l -0.17,-0.12 h 0.03 l -0.63,-0.48 0.12,0.09 -1.05,-0.6 h 0.02 l -0.48,-0.24 0.05,0.03 -0.48,-0.22 0.12,0.05 -0.53,-0.17 0.05,0.03 -1.15,-0.32 h 0.12 l -0.6,-0.09 v 0 l -0.58,-0.1 0.12,0.03 -0.6,-0.05 h 0.05 l -0.58,-0.03 h 0.07 l -0.91,0.08 0.22,-0.05 -0.34,0.09 -0.07,0.03 -0.34,0.05 0.1,-0.03 -0.31,0.1 0.07,-0.03 -1.2,0.44 0.07,-0.03 -0.67,0.34 0.1,-0.07 -0.22,0.16 v 0 l -0.24,0.15 0.07,-0.05 -0.24,0.17 v 0 l -0.24,0.19 0.07,-0.05 -0.24,0.22 0.05,-0.05 -0.21,0.22 v 0 l -0.2,0.19 0.03,-0.03 -0.17,0.2 0.05,-0.05 -0.19,0.24 -0.03,0.02 -0.24,0.34 -0.07,0.09 -0.19,0.15 0.02,-0.03 -0.05,0.08 0.1,-0.12 -0.07,0.12 0.05,-0.12 -0.03,0.07 c -0.02,0.07 -0.09,0.14 -0.14,0.21 l -0.1,0.08 0.22,-0.32 -0.05,0.08 c -0.14,0.48 -0.62,0.72 -1.08,0.6 -0.48,-0.12 -0.77,-0.6 -0.65,-1.08 z"
         style="fill:#000000;fill-opacity:1;fill-rule:nonzero;stroke:none"
         transform="matrix(1.3333333,0,0,-1.3333333,0,1120.8)" />
    </g>
    <g
       id="g269">
      <path
         id="path269"
         d="m 332.74,686.45 0.02,-0.36 v -0.07 l 0.02,-0.2 v 0 l 0.03,-0.16 v 0 l 0.02,-0.2 0.03,-0.12 0.04,-0.16 0.03,-0.05 0.05,-0.15 -0.03,0.03 0.05,-0.17 0.02,-0.07 0.12,-0.36 c 0.03,-0.05 0.08,-0.12 0.1,-0.19 l 0.12,-0.15 v 0 l 0.1,-0.14 0.04,-0.07 0.1,-0.12 v 0 l 0.31,-0.36 v 0 l 0.31,-0.36 -0.14,0.21 0.02,-0.05 c 0.03,-0.09 0.08,-0.16 0.15,-0.24 l 0.02,-0.02 v 0 l 0.03,-0.02 c 0.14,-0.2 0.4,-0.32 0.67,-0.32 v 0 l -0.65,0.32 0.02,-0.05 c 0.08,-0.07 0.15,-0.12 0.22,-0.19 l 0.05,-0.03 -0.22,0.19 0.03,-0.02 -0.22,0.58 v -0.05 c 0,-0.24 0.1,-0.46 0.26,-0.63 0.17,-0.14 0.39,-0.24 0.63,-0.24 h 0.05 l -0.46,0.12 0.07,-0.04 -0.43,0.76 v -0.02 c 0,-0.24 0.1,-0.46 0.24,-0.62 0.17,-0.17 0.41,-0.27 0.62,-0.27 h 0.05 l -0.43,0.12 0.05,-0.02 v 0 l 0.05,-0.03 c 0.14,-0.09 0.28,-0.12 0.43,-0.12 h 0.07 v 0 h 0.05 v 0 h 0.05 v 0 h 0.02 v 0 h 0.05 v 0 h 0.02 v 0 h 0.03 v 0 h 0.04 v 0 h 0.03 c 0.26,0 0.5,0.12 0.67,0.32 l 0.02,0.02 -0.64,-0.31 h 0.02 c 0.26,0 0.5,0.12 0.7,0.31 v 0.02 0 l 0.02,0.03 -0.67,-0.31 h 0.07 c 0.24,0 0.48,0.12 0.65,0.31 l 0.05,0.05 -0.7,-0.32 h 0.05 c 0.17,0 0.31,0.03 0.43,0.12 l 0.05,0.03 c 0.09,0.05 0.17,0.12 0.24,0.19 l 0.02,0.02 c 0.15,0.15 0.22,0.36 0.22,0.56 v 0.04 l -0.43,-0.76 0.02,0.04 -0.43,-0.12 h 0.02 c 0.27,0 0.51,0.1 0.67,0.29 l 0.03,0.03 c 0.07,0.07 0.12,0.16 0.14,0.24 l 0.03,0.07 -0.15,-0.24 0.03,0.05 -0.68,-0.32 h 0.03 c 0.36,0 0.67,0.2 0.81,0.51 l 0.03,0.07 c 0.05,0.12 0.07,0.22 0.07,0.34 v 0.04 l -0.19,-0.57 v 0.02 0 l 0.05,0.03 c 0.12,0.16 0.19,0.36 0.19,0.57 v 0.07 l -0.19,-0.57 0.02,0.02 v 0 0.03 c 0.14,0.16 0.22,0.36 0.22,0.57 v 0.07 0 0.03 0 0.02 l -0.05,-0.33 v 0.04 c 0.07,0.12 0.07,0.24 0.07,0.36 v 0.12 c 0,0.03 0,0.08 0,0.12 l -0.02,0.15 0.02,-0.15 v 0.12 c 0,0.05 0,0.12 -0.02,0.17 v 0.12 -0.02 l -0.03,0.17 c -0.02,0.04 -0.02,0.07 -0.02,0.12 l -0.05,0.16 0.02,-0.14 -0.02,0.14 c 0,0.08 -0.02,0.15 -0.05,0.2 l -0.05,0.12 0.03,-0.05 -0.05,0.14 -0.02,0.07 -0.05,0.12 v 0 l -0.05,0.12 c -0.02,0.05 -0.02,0.1 -0.07,0.15 l -0.07,0.12 v 0 l -0.05,0.12 h -0.03 l -0.14,0.24 c -0.05,0.07 -0.1,0.12 -0.14,0.19 l -0.17,0.17 0.19,-0.24 -0.05,0.09 c -0.17,0.32 -0.5,0.51 -0.84,0.51 -0.36,0.02 -0.69,-0.17 -0.86,-0.48 -0.19,-0.31 -0.17,-0.7 0.02,-0.99 l 0.05,-0.09 c 0.07,-0.12 0.17,-0.19 0.26,-0.27 l 0.2,-0.14 -0.24,0.26 0.14,-0.24 v -0.02 l 0.1,-0.12 v 0 l 0.07,-0.1 -0.07,0.12 0.07,-0.12 v 0 l 0.05,-0.12 -0.05,0.08 0.07,-0.17 0.02,-0.05 0.08,-0.12 -0.1,0.19 0.05,-0.14 c 0,-0.05 0.02,-0.1 0.05,-0.15 l 0.02,-0.14 -0.02,0.14 0.02,-0.14 0.02,-0.05 0.03,-0.12 -0.03,0.19 v -0.12 c 0,-0.04 0.03,-0.09 0.03,-0.14 l 0.02,-0.14 -0.02,0.16 v -0.12 l 0.07,0.34 -0.02,-0.07 c -0.05,-0.1 -0.08,-0.22 -0.08,-0.34 v -0.02 0 -0.03 0 -0.07 l 0.22,0.58 -0.02,-0.03 v 0 l -0.03,-0.04 c -0.14,-0.15 -0.21,-0.36 -0.21,-0.56 v -0.07 l 0.21,0.58 -0.02,-0.03 v 0 l -0.05,-0.04 c -0.12,-0.17 -0.19,-0.36 -0.19,-0.56 v -0.04 l 0.07,0.36 -0.02,-0.08 0.79,0.56 h -0.03 c -0.26,0 -0.5,-0.12 -0.64,-0.32 l -0.05,-0.04 c -0.05,-0.05 -0.1,-0.12 -0.12,-0.22 l -0.05,-0.07 0.17,0.24 -0.05,-0.03 0.67,0.32 h -0.02 c -0.17,0 -0.31,-0.05 -0.43,-0.12 l -0.05,-0.05 c -0.29,-0.15 -0.43,-0.43 -0.43,-0.75 v -0.04 l 0.19,0.57 -0.03,-0.02 0.22,0.19 -0.02,-0.02 0.43,0.12 h -0.05 c -0.24,0 -0.48,-0.12 -0.65,-0.32 l -0.02,-0.04 0.67,0.31 h -0.07 c -0.24,0 -0.48,-0.12 -0.65,-0.31 l -0.02,-0.03 v 0 l -0.03,-0.02 0.65,0.31 h -0.02 c -0.27,0 -0.53,-0.12 -0.7,-0.31 v -0.03 l 0.65,0.32 h -0.03 v 0 h -0.04 v 0 h -0.03 v 0 h -0.02 v 0 h -0.05 v 0 h -0.02 v 0 h -0.05 v 0 h -0.05 v 0 h -0.07 l 0.45,-0.12 -0.04,0.02 v 0 l -0.05,0.02 c -0.15,0.08 -0.29,0.12 -0.46,0.12 h -0.05 l 0.87,-0.86 v 0.02 c 0,0.32 -0.17,0.6 -0.41,0.75 l -0.07,0.05 c -0.12,0.07 -0.29,0.12 -0.43,0.12 h -0.05 l 0.89,-0.89 v 0.05 c -0.03,0.19 -0.1,0.4 -0.22,0.55 l -0.02,0.02 c -0.08,0.07 -0.15,0.15 -0.24,0.19 l -0.05,0.03 0.21,-0.19 -0.02,0.04 c -0.14,0.2 -0.41,0.32 -0.67,0.29 v 0 l 0.65,-0.29 -0.03,0.03 v 0 l -0.02,0.02 0.14,-0.21 -0.02,0.04 c -0.05,0.1 -0.07,0.17 -0.15,0.24 l -0.28,0.36 v 0 l -0.34,0.36 v 0 l -0.07,0.12 0.05,-0.09 -0.1,0.17 v 0 l -0.12,0.14 0.1,-0.19 -0.12,0.36 0.02,-0.05 -0.07,0.17 v 0.05 l -0.05,0.14 v -0.02 l -0.05,0.16 0.03,-0.12 -0.03,0.2 v 0 l -0.02,0.16 v 0 l -0.03,0.2 v -0.05 l -0.02,0.36 c -0.07,0.45 -0.46,0.79 -0.91,0.77 -0.46,-0.05 -0.79,-0.44 -0.79,-0.89 z"
         style="fill:#000000;fill-opacity:1;fill-rule:nonzero;stroke:none"
         transform="matrix(1.3333333,0,0,-1.3333333,0,1120.8)" />
    </g>
  </g>
</svg>
