<?xml version="1.0" encoding="UTF-8" standalone="no"?>
<!-- Created with Inkscape (http://www.inkscape.org/) -->

<svg
   width="37.423603mm"
   height="37.447659mm"
   viewBox="0 0 37.423603 37.447658"
   version="1.1"
   id="svg1"
   sodipodi:docname="hieroglyphs_logo.svg"
   inkscape:version="1.4.3 (0d15f75, 2025-12-25)"
   xml:space="preserve"
   inkscape:export-filename="hieroglyphs_logo.png"
   inkscape:export-xdpi="891.58972"
   inkscape:export-ydpi="891.58972"
   xmlns:inkscape="http://www.inkscape.org/namespaces/inkscape"
   xmlns:sodipodi="http://sodipodi.sourceforge.net/DTD/sodipodi-0.dtd"
   xmlns="http://www.w3.org/2000/svg"
   xmlns:svg="http://www.w3.org/2000/svg"><sodipodi:namedview
     id="namedview1"
     pagecolor="#ffffff"
     bordercolor="#000000"
     borderopacity="0.25"
     inkscape:showpageshadow="2"
     inkscape:pageopacity="0.0"
     inkscape:pagecheckerboard="0"
     inkscape:deskcolor="#d1d1d1"
     inkscape:document-units="mm"
     inkscape:zoom="2.8284271"
     inkscape:cx="35.885669"
     inkscape:cy="40.481864"
     inkscape:window-width="1920"
     inkscape:window-height="1191"
     inkscape:window-x="-9"
     inkscape:window-y="-9"
     inkscape:window-maximized="1"
     inkscape:current-layer="layer1" /><defs
     id="defs1"><rect
       x="45.817131"
       y="198.94279"
       width="498.21906"
       height="393.37115"
       id="rect13" /><rect
       x="54.859985"
       y="124.18854"
       width="705.9455"
       height="55.462841"
       id="rect12" /><linearGradient
       id="swatch3"
       inkscape:swatch="solid"><stop
         style="stop-color:#ffffff;stop-opacity:1;"
         offset="0"
         id="stop3" /></linearGradient><linearGradient
       id="swatch1"
       inkscape:swatch="solid"><stop
         style="stop-color:#ffffff;stop-opacity:0;"
         offset="0"
         id="stop1" /></linearGradient><rect
       x="185.43365"
       y="121.06473"
       width="99.750519"
       height="105.7185"
       id="rect2" /><rect
       x="113.33711"
       y="59.079983"
       width="113.33711"
       height="88.01712"
       id="rect3" /><rect
       x="295.39993"
       y="86.811401"
       width="55.764267"
       height="76.562836"
       id="rect1" /><rect
       x="45.817131"
       y="198.94279"
       width="650.88171"
       height="243.32961"
       id="rect13-4" /><rect
       x="45.817131"
       y="198.94279"
       width="516.1759"
       height="352.4584"
       id="rect13-1" /><rect
       x="54.859985"
       y="124.18854"
       width="705.9455"
       height="71.137123"
       id="rect12-1" /><rect
       x="255.61136"
       y="109.71997"
       width="270.07993"
       height="314.69135"
       id="rect1-4" /><rect
       x="255.61136"
       y="109.71997"
       width="270.07993"
       height="314.69135"
       id="rect1-3" /></defs><g
     inkscape:label="Layer 1"
     inkscape:groupmode="layer"
     id="layer1"
     transform="translate(-86.231026,-24.33029)"><text
       xml:space="preserve"
       transform="scale(0.26458333)"
       id="text3"
       style="font-style:normal;font-variant:normal;font-weight:normal;font-stretch:normal;font-size:32px;line-height:0.7;font-family:'Bell MT';-inkscape-font-specification:'Bell MT';text-align:start;letter-spacing:2.52px;word-spacing:0px;writing-mode:lr-tb;direction:ltr;white-space:pre;shape-inside:url(#rect3);display:inline;fill:#000000" /><g
       id="g1"
       transform="matrix(1.0607917,0,0,1.0607917,-5.63857,-1.9393172)"><path
         sodipodi:nodetypes="ccccccccccc"
         id="path4075-8"
         d="m 104.74892,43.776475 c 0.23267,0.215778 -1.6969,7.451699 -2.51011,7.457019 -2.894536,0.06138 -4.663497,-0.353804 -5.622887,1.908011 h 13.110427 c -0.62402,-0.696089 -1.24394,-1.153133 -2.0092,-1.445463 0.32743,-3.433404 1.08566,-4.664754 1.72011,-6.51911 l -3.29588,-0.173363 c 1.19674,1.489221 1.89875,5.832873 -0.98272,6.244587 -0.36404,-0.01896 -0.6771,-0.0407 -1.10204,-0.04348 0.6169,-2.354464 1.34754,-3.967046 2.08476,-6.201108 z"
         style="fill:#ffffff;fill-opacity:1;fill-rule:evenodd;stroke:#ffffff;stroke-width:0.462548;stroke-opacity:1" /><path
         sodipodi:nodetypes="ccccccc"
         id="path2841-5"
         d="m 104.00462,42.895135 c 1.58302,2.202979 3.53322,2.773116 8.01631,1.815225 2.21603,-0.574023 1.00956,-1.773827 0.43981,-2.566773 l -7.14685,-8.96909 c -1.95518,-4.184443 -2.62007,-4.608419 -7.320582,-2.422041 1.022777,0.882681 1.946616,0.799561 3.246742,5.480318 0.18067,0.599509 1.56987,4.18449 2.76457,6.662361 z"
         style="fill:none;stroke:#ffffff;stroke-width:1.119;stroke-linejoin:round;stroke-miterlimit:4;stroke-dasharray:none;stroke-opacity:1" /><path
         sodipodi:nodetypes="ccc"
         id="path3617-7"
         d="m 108.23614,37.099775 c -2.31051,-0.117025 -2.29611,0.720928 -2.30531,2.773162 -4.28574,-2.113892 -3.2451,-4.070471 -1.8819,-4.527423"
         style="fill:none;stroke:#ffffff;stroke-width:1.01761;stroke-linecap:round;stroke-linejoin:miter;stroke-miterlimit:4;stroke-dasharray:none;stroke-opacity:1" /><path
         sodipodi:nodetypes="csccsc"
         id="path3704-8"
         d="m 101.40738,30.642554 c -0.22991,0 -0.41224,0.167859 -0.41224,0.397792 0,0.07923 0.0214,0.234234 0.0578,0.300055 0.30054,0.135989 0.63561,0.06476 0.96961,0 0.0716,-0.06624 0.13009,-0.135018 0.13009,-0.216797 0,-0.229932 -0.51536,-0.48105 -0.74528,-0.48105 z"
         style="fill:#ffffff;fill-opacity:1;fill-rule:evenodd;stroke:#ffffff;stroke-width:0.462548;stroke-opacity:1" /></g></g></svg>
