<svg width="31.002" height="8.0196" version="1.1" viewBox="0 0 31.002 8.0196" xmlns="http://www.w3.org/2000/svg">
 <g transform="translate(-642.58 -132.32)">
  <path transform="matrix(1.3333,0,0,-1.3333,0,1120.8)" d="m483.38 737.21 0.08 0.02 0.02 0.05-0.24-0.14h0.02l0.15 0.07 0.07 0.05 0.05 0.02 0.05 0.05-0.08-0.07 0.1 0.07 0.12 0.07 0.05 0.05-0.67-0.19h0.04c0.15-0.03 0.34 0 0.48 0.07l0.15 0.05-0.12-0.03 0.17 0.03 0.12 0.02-0.2-0.02h0.12l0.12 0.02 0.15 0.05h-0.12l0.33 0.02h-0.14l0.29-0.02h0.29l0.28-0.05-0.09 0.05 0.29-0.07-0.08 0.02 0.27-0.05 0.09-0.02 0.32-0.05-0.22 0.05 0.26-0.07 0.03-0.03 0.31-0.07-0.1 0.05 0.72-0.29 0.08-0.02 1.36-0.41 0.27-0.1h0.09l0.24-0.07-0.12 0.05 0.22-0.07c0.1-0.03 0.14-0.05 0.24-0.05l0.24-0.05h0.24l0.24-0.02h0.05l0.53-0.03h0.12l0.36 0.03h0.04l0.36 0.07 0.34 0.02 0.34 0.05c0.04 0 0.12 0.05 0.16 0.05l0.92 0.29-0.08-0.03 0.48 0.12h-0.04l1.1 0.22h-0.07l0.45 0.05 0.82 0.12h-0.1l0.36 0.02h-0.04 0.38-0.14l0.36-0.05 0.38-0.02h0.05l0.38-0.05-0.19 0.05 0.86-0.22-0.07 0.03 1.83-0.63 2.16-0.69 0.14-0.03 0.26-0.07h-0.02l0.24-0.05h0.02l0.29-0.02c0.05-0.05 0.12-0.05 0.17-0.05h0.94c0.62 0 1.1 0.53 1.1 1.13 0 0.62-0.48 1.13-1.1 1.13h-0.94l0.19-0.03-0.29 0.05h0.05l-0.24 0.05h-0.05l-0.26 0.05 0.19-0.05-2.16 0.67-1.85 0.6-0.07 0.05-0.89 0.19c-0.04 0.05-0.12 0.05-0.16 0.05l-0.36 0.02h0.04l-0.36 0.03-0.36 0.07h-0.6l-0.38-0.05h-0.1l-0.76-0.12h-0.05l-0.43-0.05-0.08-0.02-1.1-0.22-0.02-0.02-0.48-0.1-0.08-0.02-0.88-0.29 0.16 0.05-0.33-0.05-0.31-0.05-0.36-0.07 0.07 0.05-0.36-0.05h0.12l-0.51 0.05h0.08-0.24l-0.24 0.02-0.24 0.03 0.24-0.05-0.24 0.07-0.12 0.05-0.24 0.02h0.07l-0.24 0.05-1.35 0.43 0.03-0.02-0.75 0.24-0.12 0.05-0.28 0.07v-0.05l-0.29 0.07c-0.05 0.03-0.12 0.03-0.17 0.03h-0.31 0.09l-0.28 0.02-0.08 0.05h-0.36l-0.28-0.05h-0.58l-0.14-0.02-0.32-0.05c-0.04 0-0.12-0.05-0.16-0.07l-0.17-0.03 0.09 0.03-0.12-0.05-0.14-0.05-0.12-0.05-0.12-0.07-0.02-0.02-0.17-0.05 0.33 0.07h-0.04c-0.24-0.02-0.44-0.14-0.58-0.31l-0.07-0.05 0.17 0.12-0.08-0.02c-0.09-0.05-0.14-0.15-0.21-0.22v-0.02l0.19 0.21-0.07-0.07 0.07 0.05-0.07-0.05c-0.05-0.02-0.12-0.07-0.17-0.17l-0.07-0.02-0.03-0.07c-0.28-0.34-0.28-0.84 0.03-1.18 0.31-0.31 0.81-0.36 1.17-0.07z"/>
  <path transform="matrix(1.3333,0,0,-1.3333,0,1120.8)" d="m482.26 739.85 0.26-0.24 0.05-0.05 0.14-0.1-0.12 0.1 0.1-0.07-0.12 0.14 0.05-0.07c0.02-0.05 0.07-0.12 0.12-0.14l0.07-0.1-0.1 0.12 0.17-0.24 0.1-0.12 0.04-0.07 0.08-0.1c0.04-0.07 0.09-0.09 0.14-0.14l0.24-0.22 0.12-0.09 0.22-0.12 0.07-0.05 0.05-0.03c0.31-0.14 0.67-0.12 0.96 0.08 0.26 0.19 0.43 0.52 0.4 0.86-0.02 0.36-0.24 0.65-0.55 0.79l-0.07 0.03 0.1-0.05-0.2 0.12 0.15-0.1-0.27 0.22 0.15-0.12-0.17 0.17-0.07 0.09 0.02-0.02-0.17 0.24c-0.04 0.05-0.09 0.07-0.14 0.12l-0.07 0.07 0.12-0.12-0.05 0.05c-0.02 0.05-0.07 0.09-0.12 0.12l-0.1 0.09c-0.04 0.05-0.09 0.1-0.14 0.12l-0.14 0.1-0.1 0.02-0.31 0.15c-0.41 0.19-0.87 0.05-1.08-0.31-0.24-0.36-0.17-0.87 0.17-1.13z"/>
  <path transform="matrix(1.3333,0,0,-1.3333,0,1120.8)" d="m485.69 740.93-0.1-0.19 0.05 0.09-0.1-0.14-0.04-0.05-0.1-0.17 0.05 0.05-0.12-0.12h0.02l-0.29-0.34-0.38-0.48-0.02-0.04-0.05-0.08c-0.31-0.43-0.19-1.03 0.24-1.34 0.43-0.29 1.03-0.19 1.32 0.24l0.07 0.1-0.02-0.03 0.36 0.51v-0.03l0.26 0.36 0.02 0.05 0.1 0.14 0.05 0.08 0.07 0.14-0.02-0.05 0.09 0.15c0.05 0.12 0.12 0.24 0.15 0.36l0.02 0.24c0.05 0.38-0.19 0.79-0.6 0.91-0.38 0.17-0.82 0-1.03-0.36z"/>
 </g>
</svg>
