<?xml version="1.0" encoding="UTF-8" standalone="no"?>
<!-- Created with Inkscape (http://www.inkscape.org/) -->

<svg
   version="1.1"
   id="svg1"
   width="300"
   height="300"
   viewBox="0 0 300 299.99999"
   sodipodi:docname="lesson1.pdf"
   inkscape:export-filename="multichoice\multichoice13\multichoice13_option1.svg"
   inkscape:export-xdpi="96"
   inkscape:export-ydpi="96"
   xmlns:inkscape="http://www.inkscape.org/namespaces/inkscape"
   xmlns:sodipodi="http://sodipodi.sourceforge.net/DTD/sodipodi-0.dtd"
   xmlns="http://www.w3.org/2000/svg"
   xmlns:svg="http://www.w3.org/2000/svg">
  <defs
     id="defs1" />
  <sodipodi:namedview
     id="namedview1"
     pagecolor="#ffffff"
     bordercolor="#000000"
     borderopacity="0.25"
     inkscape:showpageshadow="2"
     inkscape:pageopacity="0.0"
     inkscape:pagecheckerboard="0"
     inkscape:deskcolor="#d1d1d1">
    <inkscape:page
       x="0"
       y="0"
       inkscape:label="1"
       id="page1"
       width="300"
       height="300"
       margin="0"
       bleed="0" />
  </sodipodi:namedview>
  <g
     id="g1"
     inkscape:groupmode="layer"
     inkscape:label="1">
    <g
       id="g159"
       transform="matrix(11.039845,0.62503449,-0.72494436,12.80453,-3482.8351,-1984.5791)">
      <path
         id="path159"
         d="m 245.18,725.04 0.03,-0.02 c 0.09,-0.1 0.21,-0.17 0.33,-0.22 l 0.15,-0.05 0.09,-0.02 0.15,-0.03 v 0 l 0.12,-0.02 -0.12,0.02 0.14,-0.04 c 0.05,-0.03 0.1,-0.03 0.15,-0.03 l 0.14,-0.02 h 0.12 l 0.34,-0.03 h 0.02 l 1.1,0.03 h 0.05 l 0.63,0.02 v 0 l 1.7,0.05 h 0.02 l 0.24,0.05 c 0.32,0 0.6,0.19 0.72,0.5 0.17,0.29 0.12,0.63 -0.07,0.89 -0.17,0.26 -0.48,0.41 -0.81,0.36 h -0.22 0.02 l -1.68,-0.1 h -0.02 l -0.65,-0.07 h 0.03 l -1.13,-0.05 h 0.05 -0.34 0.1 l -0.17,0.03 0.12,-0.05 -0.12,0.05 -0.12,0.02 h -0.15 v 0 l -0.12,0.03 0.12,-0.03 -0.14,0.05 0.26,-0.12 h -0.04 c -0.34,0.24 -0.8,0.17 -1.06,-0.12 -0.26,-0.31 -0.26,-0.77 0.02,-1.08 z"
         style="fill:#000000;fill-opacity:1;fill-rule:nonzero;stroke:none"
         transform="matrix(1.3333333,0,0,-1.3333333,0,1120.8)" />
    </g>
    <g
       id="g160"
       transform="matrix(12.213576,0.26667043,-0.2978232,13.640381,-3930.6208,-1986.1986)">
      <path
         id="path160"
         d="m 244.1,731.95 0.05,-0.17 v 0 l 0.1,-0.5 v -0.05 l 0.09,-0.36 v 0.05 l 0.15,-0.96 v 0.07 l 0.07,-1.2 v 0.05 l 0.02,-1.8 v -0.05 l 0.03,-0.93 c 0,-0.03 0.02,-0.08 0.02,-0.12 l 0.03,-0.1 c 0.07,-0.36 0.45,-0.6 0.84,-0.5 0.36,0.07 0.6,0.45 0.5,0.81 l -0.02,0.1 0.02,-0.12 -0.05,0.93 v -0.02 l -0.02,1.8 v 0.05 l -0.07,1.17 v 0.08 l -0.17,0.98 v 0.05 l -0.1,0.36 v 0 l -0.12,0.5 -0.02,0.05 -0.03,0.17 c -0.12,0.36 -0.48,0.55 -0.81,0.45 -0.36,-0.09 -0.55,-0.43 -0.51,-0.79 z"
         style="fill:#000000;fill-opacity:1;fill-rule:nonzero;stroke:none"
         transform="matrix(1.3333333,0,0,-1.3333333,0,1120.8)" />
    </g>
    <g
       id="g161"
       transform="matrix(11.054889,0.24137174,-0.27995429,12.82198,-3556.084,-1860.2968)">
      <path
         id="path161"
         d="m 245.45,732.38 -0.07,0.17 c -0.15,0.29 -0.44,0.43 -0.72,0.36 -0.29,-0.05 -0.53,-0.29 -0.56,-0.6 -0.02,-0.26 0.15,-0.55 0.44,-0.67 l 0.36,-0.12 0.04,-0.02 0.08,-0.03 c 0.07,-0.02 0.12,-0.02 0.19,-0.02 l 0.12,-0.03 -0.07,0.03 0.16,-0.05 -0.02,0.02 0.12,-0.02 0.12,-0.02 h 0.12 v 0 l 0.14,-0.03 0.12,0.03 h 0.12 v 0 l 0.36,0.04 v 0 l 0.44,0.05 h -0.08 l 4.16,0.1 v 0 l 3.98,0.07 h 0.02 l 1.61,0.07 h -0.02 l 2.47,-0.02 v 0 h 0.94 v 0 h 0.24 -0.03 0.31 v 0 l 0.94,-0.07 -0.1,0.02 0.2,-0.05 v 0 h 0.16 l 0.12,-0.02 h 0.2 0.04 l 0.41,0.02 h -0.02 0.45 -0.02 0.02 0.03 0.02 c 0.53,0 0.94,0.41 0.96,0.94 0,0.5 -0.43,0.96 -0.96,0.96 -0.5,0 -0.93,-0.41 -0.93,-0.94 v -0.02 c -0.03,-0.51 0.38,-0.94 0.91,-0.96 h 0.02 0.03 0.02 c 0.5,0 0.94,0.41 0.96,0.93 0,0.51 -0.41,0.94 -0.94,0.96 -0.5,0.03 -0.96,-0.38 -0.96,-0.91 v -0.02 l -0.02,-0.03 v -0.02 c 0,-0.5 0.41,-0.91 0.91,-0.96 h 0.03 l -0.58,0.24 h 0.02 l -0.33,0.72 v -0.05 c 0,-0.05 0.02,-0.12 0.02,-0.17 l 0.05,-0.21 v 0.29 l -0.1,-0.51 0.05,0.15 -0.02,-0.08 c -0.03,-0.07 -0.03,-0.12 -0.03,-0.19 l -0.12,-1.15 v -0.05 l -0.12,-2.85 v -0.1 l 0.05,-0.98 c 0,-0.08 0,-0.15 0.03,-0.2 l 0.09,-0.33 -0.02,0.02 0.05,-0.21 v 0.04 l 0.02,-0.14 c 0.02,-0.24 0.14,-0.43 0.31,-0.6 h 0.03 l -0.34,0.6 0.02,-0.12 c 0.05,-0.53 0.53,-0.91 1.06,-0.86 0.5,0.04 0.91,0.5 0.86,1.03 -0.04,0.5 -0.48,0.91 -1,0.89 l -1.28,-0.08 v 0 l -1.65,-0.12 h -0.03 l -1.1,-0.09 h 0.07 -0.09 v 0 h -0.08 c -0.36,0 -0.69,-0.17 -0.86,-0.48 -0.17,-0.31 -0.17,-0.7 0,-1.01 0.17,-0.29 0.5,-0.48 0.86,-0.48 h 0.08 v 0 h 0.09 0.07 l 1.13,0.12 v 0 l 1.66,0.12 h -0.03 l 1.28,0.1 c 0.26,0.02 0.52,0.16 0.69,0.38 0.17,0.22 0.24,0.5 0.17,0.79 l -0.02,0.12 c -0.05,0.22 -0.17,0.39 -0.32,0.53 h -0.02 l 0.31,-0.58 v 0.15 l -0.02,0.05 -0.05,0.24 v 0.07 l -0.1,0.33 0.03,-0.21 -0.05,1.01 v -0.08 l 0.12,2.86 v -0.07 l 0.12,1.17 -0.05,-0.16 0.03,0.07 c 0.02,0.05 0.02,0.09 0.02,0.14 l 0.07,0.48 c 0,0.12 0,0.22 0,0.34 l -0.05,0.21 v -0.19 0.05 c 0,0.26 -0.12,0.53 -0.33,0.72 h -0.03 c -0.19,0.17 -0.4,0.24 -0.64,0.24 h -0.03 c -0.53,-0.05 -0.91,-0.48 -0.89,-1.01 0,-0.5 0.44,-0.91 0.96,-0.91 0.51,0.02 0.94,0.43 0.94,0.96 v 0.02 0.03 0.02 c -0.05,0.53 -0.46,0.91 -0.96,0.91 h -0.02 -0.03 -0.02 c -0.53,-0.02 -0.94,-0.45 -0.91,-0.98 0.02,-0.5 0.43,-0.91 0.96,-0.91 0.52,0.02 0.93,0.43 0.93,0.96 v 0.02 c -0.02,0.53 -0.43,0.94 -0.96,0.94 h -0.02 -0.03 -0.02 -0.05 l -0.45,-0.05 h 0.02 l -0.41,-0.02 h 0.03 -0.2 0.1 l -0.19,0.02 v 0 h -0.17 -0.05 l -0.93,0.05 h -0.08 l -0.31,-0.03 h 0.03 -0.24 v 0 l -0.94,-0.02 v 0 h -2.47 -0.05 l -1.63,-0.1 h 0.02 l -3.98,-0.14 v 0 l -4.15,-0.17 h -0.08 l -0.45,-0.07 h 0.05 l -0.36,-0.05 h -0.05 l -0.15,-0.02 h 0.12 -0.14 v 0 h -0.12 0.1 -0.12 -0.03 l -0.14,0.02 h -0.12 -0.12 0.12 -0.1 -0.05 l -0.38,0.03 c -0.31,0 -0.6,-0.22 -0.67,-0.51 -0.07,-0.31 0.07,-0.62 0.36,-0.74 0.26,-0.17 0.6,-0.1 0.81,0.17 l 0.12,0.14 c 0.08,0.12 0.1,0.26 0.03,0.38 z"
         style="fill:#000000;fill-opacity:1;fill-rule:nonzero;stroke:none"
         transform="matrix(1.3333333,0,0,-1.3333333,0,1120.8)" />
    </g>
  </g>
</svg>
