<?xml version="1.0" encoding="UTF-8" standalone="no"?>
<!-- Created with Inkscape (http://www.inkscape.org/) -->

<svg
   version="1.1"
   id="svg1"
   width="300"
   height="300"
   viewBox="0 0 300 299.99999"
   sodipodi:docname="lesson1.pdf"
   inkscape:export-filename="multichoice\multichoice13\multichoice13_option3.svg"
   inkscape:export-xdpi="96"
   inkscape:export-ydpi="96"
   xmlns:inkscape="http://www.inkscape.org/namespaces/inkscape"
   xmlns:sodipodi="http://sodipodi.sourceforge.net/DTD/sodipodi-0.dtd"
   xmlns="http://www.w3.org/2000/svg"
   xmlns:svg="http://www.w3.org/2000/svg">
  <defs
     id="defs1" />
  <sodipodi:namedview
     id="namedview1"
     pagecolor="#ffffff"
     bordercolor="#000000"
     borderopacity="0.25"
     inkscape:showpageshadow="2"
     inkscape:pageopacity="0.0"
     inkscape:pagecheckerboard="0"
     inkscape:deskcolor="#d1d1d1">
    <inkscape:page
       x="0"
       y="0"
       inkscape:label="1"
       id="page1"
       width="300"
       height="300"
       margin="0"
       bleed="0" />
  </sodipodi:namedview>
  <g
     id="g1"
     inkscape:groupmode="layer"
     inkscape:label="1">
    <g
       id="g286"
       transform="matrix(10.489585,0,0,10.489585,-6717.2242,-1915.7651)">
      <path
         id="path286"
         d="m 486.24,682.68 1.2,0.02 h -0.02 l 5.28,0.03 h -0.1 l 0.94,-0.05 h 0.04 0.32 -0.08 l 0.34,-0.02 h 0.05 0.31 0.05 0.77 c 0.04,0.02 0.12,0.02 0.16,0.02 l 0.1,0.02 c 0.05,0 0.12,0.03 0.22,0.08 h 0.02 c 0.36,0.14 0.62,0.5 0.7,0.88 0.04,0.39 -0.12,0.8 -0.46,1.04 -0.31,0.26 -0.72,0.28 -1.1,0.14 h -0.05 l 0.21,0.05 -0.09,-0.03 0.19,0.03 -0.74,-0.03 h 0.02 l -0.31,-0.02 h 0.07 l -0.34,0.02 h -0.04 l -0.32,-0.02 h 0.08 l -0.94,0.05 h -0.1 l -5.25,-0.19 -0.12,-0.05 -1.2,-0.17 c -0.48,-0.07 -0.79,-0.5 -0.77,-0.98 0.05,-0.48 0.48,-0.84 0.96,-0.82 z"
         style="fill:#000000;fill-opacity:1;fill-rule:nonzero;stroke:none"
         transform="matrix(1.3333333,0,0,-1.3333333,0,1120.8)" />
    </g>
    <g
       id="g287"
       transform="matrix(10.489585,0,0,10.489585,-6717.2242,-1915.7651)">
      <path
         id="path287"
         d="m 486.65,683.69 0.05,0.05 c 0,0.12 0,0.19 -0.05,0.31 l -0.03,0.12 0.03,-0.03 -0.12,0.75 -0.03,0.09 -0.28,1.16 v 0.02 l -0.24,0.72 v 0.02 l -0.46,1.3 -0.02,0.1 -0.17,0.28 0.07,-0.09 -0.34,0.91 0.03,-0.02 -0.03,0.12 v 0 l -0.02,0.09 0.02,-0.19 -0.02,0.1 v 0.02 0.1 0 l -0.02,0.12 v 0 0.12 -0.22 0.12 0 0.12 -0.22 0.12 l 0.02,0.05 v 0.07 0.05 l 0.02,0.19 -0.02,-0.16 0.02,0.09 -0.02,-0.07 0.02,0.1 0.03,0.04 0.05,0.1 -0.05,-0.05 0.05,0.07 -0.08,-0.16 0.03,0.09 0.07,0.07 0.02,0.1 -0.02,-0.1 0.05,0.1 -0.07,-0.1 0.04,0.08 -0.02,-0.03 0.1,0.07 v 0 l 0.04,0.08 -0.02,-0.03 0.12,0.15 0.1,0.09 0.02,0.05 -0.38,-0.34 0.04,0.05 c 0.08,0.03 0.12,0.05 0.2,0.12 l 0.04,0.03 c 0.08,0.04 0.1,0.09 0.12,0.12 l 0.08,0.04 -0.46,-0.28 0.05,0.02 c 0.12,0.02 0.21,0.1 0.31,0.19 l 0.1,0.03 -0.34,-0.15 h 0.05 c 0.09,0.03 0.21,0.07 0.31,0.17 l 0.05,0.02 -0.39,-0.16 0.08,0.02 c 0.07,0 0.14,0.02 0.24,0.07 l 0.04,0.05 -0.24,-0.1 h 0.08 v 0 l 0.07,0.05 v 0 h 0.07 v 0 l 0.05,0.03 -0.27,-0.03 h 0.08 0.07 0.19 l -0.24,0.03 0.1,-0.03 v 0 h 0.07 l -0.19,0.05 0.04,-0.02 c 0.1,-0.03 0.2,-0.08 0.27,-0.08 l 0.12,-0.02 -0.27,0.07 0.1,-0.05 c 0.1,-0.02 0.14,-0.02 0.24,-0.04 h 0.1 l -0.41,0.12 0.09,-0.03 c 0.08,-0.07 0.12,-0.09 0.22,-0.09 l 0.1,-0.03 -0.22,0.07 0.1,-0.04 v 0 l 0.04,-0.03 v 0 l 0.1,-0.07 -0.02,0.02 0.07,-0.04 0.07,-0.03 0.05,-0.07 -0.19,0.19 0.04,-0.07 v 0 l 0.1,-0.1 -0.07,0.08 0.12,-0.12 0.05,-0.03 0.19,-0.21 -0.05,0.04 0.14,-0.19 -0.04,0.12 0.31,-0.55 0.05,-0.02 0.5,-0.77 c 0.05,-0.05 0.1,-0.12 0.14,-0.15 l 0.12,-0.12 -0.14,0.2 0.05,-0.1 v 0 l 0.07,-0.07 c 0.02,-0.07 0.1,-0.15 0.14,-0.19 l 0.1,-0.08 v 0 l 0.05,-0.04 v 0 l 0.07,-0.08 -0.1,0.1 0.1,-0.1 c 0.05,-0.09 0.17,-0.14 0.26,-0.21 l 0.1,-0.03 -0.22,0.12 0.1,-0.04 0.05,-0.08 0.09,-0.04 0.03,-0.05 0.09,-0.03 c 0.03,-0.02 0.1,-0.04 0.12,-0.09 l 0.12,-0.03 h -0.02 l 0.22,-0.12 -0.1,0.08 0.05,-0.05 c 0.05,-0.03 0.09,-0.05 0.12,-0.05 l 0.05,-0.02 c 0.14,-0.05 0.26,-0.08 0.4,-0.08 h 0.08 l -0.44,0.08 h 0.03 v 0 h 0.05 c 0.14,-0.08 0.26,-0.1 0.4,-0.1 h 0.08 l -0.44,0.1 0.03,-0.05 c 0.12,-0.05 0.29,-0.07 0.43,-0.05 h 0.02 l -0.28,0.02 0.04,-0.02 c 0.1,-0.02 0.22,-0.02 0.34,-0.02 h 0.02 -0.02 0.05 v 0.02 h 0.07 -0.02 0.02 c 0.12,0 0.22,0 0.29,0.05 h 0.07 l -0.26,-0.05 h 0.02 c 0.14,0.02 0.26,0.05 0.38,0.12 l 0.03,0.02 -0.12,-0.04 0.05,0.02 c 0.04,0 0.07,0.02 0.14,0.05 h 0.02 l -0.4,-0.12 h 0.04 c 0.15,0.05 0.32,0.07 0.44,0.17 l 0.07,0.04 -0.05,-0.04 0.02,0.02 c 0.1,0.02 0.15,0.1 0.24,0.17 v 0 l -0.24,-0.17 0.03,0.02 c 0.09,0.03 0.19,0.1 0.24,0.2 l 0.05,0.02 c 0.16,0.17 0.26,0.41 0.26,0.65 v 0 l -0.26,-0.65 0.02,0.02 -0.22,-0.14 h 0.03 c 0.31,0.17 0.48,0.48 0.48,0.84 v 0.02 l -0.27,-0.64 0.03,0.02 h 0.05 v 0.02 c 0.04,0.08 0.12,0.15 0.16,0.24 v 0.03 l -0.14,-0.24 v 0.05 c 0.1,0.07 0.17,0.19 0.22,0.31 l 0.02,0.07 -0.22,-0.36 v 0.02 c 0.1,0.1 0.2,0.22 0.22,0.34 l 0.02,0.05 c 0.03,0.09 0.03,0.21 0.03,0.31 v 0.02 -0.02 0.07 l -0.24,-0.65 v 0 c 0.19,0.2 0.29,0.39 0.29,0.65 v 0.05 l -0.29,-0.62 h 0.05 c 0.14,0.16 0.24,0.4 0.24,0.62 v 0.12 -0.05 l 0.02,0.15 v 0.09 0.17 l -0.02,0.1 -0.05,0.45 v -0.09 0.02 0.1 l -0.07,0.84 v 0.02 l -0.08,0.46 v -0.03 l -0.02,0.43 v -0.02 l -0.02,0.48 v -0.1 l 0.04,1.16 -0.02,-0.12 0.05,0.38 v -0.02 l 0.09,0.38 -0.02,-0.05 0.26,1.03 v -0.02 l 0.08,0.22 c 0.07,0.33 0.02,0.69 -0.22,0.93 -0.24,0.27 -0.6,0.36 -0.94,0.29 -0.33,-0.1 -0.6,-0.34 -0.69,-0.65 l -0.07,-0.21 v -0.08 l -0.24,-1.08 -0.05,-0.07 -0.05,-0.41 v -0.02 l -0.02,-0.38 v -0.08 l -0.05,-1.12 v -0.1 l 0.05,-0.48 0.02,-0.02 0.02,-0.46 0.03,-0.02 0.07,-0.48 v 0.04 l 0.1,-0.84 -0.05,0.1 v -0.02 l 0.05,-0.1 0.02,-0.48 v 0.12 -0.17 0.07 l -0.02,-0.16 v -0.1 -0.12 l 0.26,0.67 v -0.05 c -0.19,-0.14 -0.26,-0.38 -0.26,-0.62 v -0.05 l 0.26,0.65 -0.02,-0.02 c -0.17,-0.2 -0.29,-0.39 -0.29,-0.63 v -0.07 0.02 -0.02 l 0.07,0.26 -0.02,-0.04 0.24,0.36 h -0.05 c -0.07,-0.12 -0.17,-0.24 -0.19,-0.36 l -0.05,-0.08 0.24,0.36 h -0.03 c -0.04,-0.07 -0.12,-0.14 -0.16,-0.24 v -0.02 l 0.16,0.24 -0.02,-0.02 v 0 l -0.02,-0.03 c -0.2,-0.19 -0.29,-0.41 -0.29,-0.65 v -0.02 l 0.53,0.79 h -0.05 c -0.07,-0.07 -0.17,-0.12 -0.24,-0.19 l -0.05,-0.02 c -0.14,-0.15 -0.24,-0.41 -0.26,-0.65 v 0 l 0.26,0.65 -0.02,-0.08 0.24,0.2 h -0.05 c -0.07,-0.08 -0.15,-0.12 -0.24,-0.2 v 0 l 0.24,0.17 -0.03,-0.05 h -0.04 l -0.1,-0.04 0.5,0.12 h -0.04 c -0.17,0 -0.29,-0.03 -0.41,-0.08 l -0.03,-0.02 0.1,0.02 h -0.07 l -0.07,-0.02 -0.05,-0.02 0.43,0.09 h -0.02 c -0.12,0 -0.22,0 -0.34,-0.05 l -0.02,-0.02 0.26,0.02 h -0.02 0.02 -0.07 v 0 h -0.05 0.02 -0.02 l 0.26,-0.04 -0.04,0.02 c -0.1,0.02 -0.2,0.07 -0.32,0.07 h -0.02 l 0.41,-0.12 -0.03,0.03 c -0.12,0.04 -0.26,0.12 -0.4,0.12 h -0.08 l 0.44,-0.12 h -0.05 v 0 l -0.03,0.02 c -0.12,0.07 -0.26,0.12 -0.4,0.12 h -0.08 l 0.46,-0.12 -0.02,0.02 0.04,-0.04 -0.02,0.02 c -0.07,0.02 -0.1,0.07 -0.12,0.07 l -0.24,0.12 h 0.02 l -0.09,0.05 0.17,-0.12 -0.08,0.07 v -0.05 l -0.04,0.1 0.07,-0.1 -0.05,0.08 c -0.07,0.04 -0.12,0.12 -0.19,0.16 l -0.07,0.05 0.24,-0.24 -0.08,0.07 -0.04,0.1 -0.08,0.07 v 0 l -0.04,0.07 v 0 l -0.08,0.08 0.12,-0.22 -0.02,0.1 v 0 l -0.02,0.09 c -0.08,0.07 -0.12,0.15 -0.2,0.19 l -0.12,0.12 0.15,-0.14 -0.48,0.79 v 0 l -0.31,0.51 -0.05,0.09 -0.17,0.19 -0.07,0.08 -0.17,0.24 v 0 l -0.12,0.12 -0.02,0.04 -0.08,0.08 v 0 l -0.04,0.04 c -0.08,0.08 -0.17,0.12 -0.22,0.2 l -0.1,0.04 0.03,-0.02 -0.07,0.07 -0.05,0.03 -0.07,0.04 v 0 l -0.08,0.05 v 0 l -0.09,0.05 c -0.05,0.02 -0.15,0.1 -0.19,0.12 l -0.12,0.02 0.24,-0.12 -0.1,0.08 c -0.12,0.04 -0.24,0.12 -0.38,0.14 l -0.1,0.02 0.24,-0.07 -0.1,0.03 c -0.09,0.04 -0.16,0.09 -0.26,0.09 l -0.12,0.03 0.26,-0.1 -0.04,0.02 c -0.1,0.05 -0.2,0.08 -0.24,0.1 h -0.12 0.02 l -0.12,0.02 c -0.1,0.05 -0.22,0.05 -0.34,0.05 l -0.16,-0.05 h 0.12 -0.08 c -0.09,0 -0.16,0 -0.26,-0.02 h -0.1 v 0 l -0.04,-0.02 v 0 h -0.08 v 0 l -0.04,-0.03 c -0.1,-0.05 -0.17,-0.07 -0.24,-0.09 l -0.08,-0.03 0.24,0.07 -0.04,-0.02 c -0.17,-0.02 -0.32,-0.1 -0.44,-0.17 l -0.04,-0.07 0.31,0.19 -0.05,-0.05 c -0.12,-0.02 -0.24,-0.07 -0.34,-0.14 l -0.04,-0.05 0.31,0.17 -0.05,-0.02 c -0.14,-0.08 -0.34,-0.15 -0.46,-0.27 l -0.02,-0.05 0.12,0.1 -0.07,-0.05 0.17,0.12 -0.08,-0.05 c -0.14,-0.07 -0.28,-0.19 -0.38,-0.31 l -0.07,-0.07 0.07,0.07 -0.14,-0.17 -0.05,-0.04 -0.05,-0.1 v 0 l -0.1,-0.1 v -0.02 l -0.04,-0.05 -0.08,-0.09 -0.04,-0.1 -0.05,-0.05 -0.05,-0.12 0.05,0.07 -0.05,-0.07 c -0.02,-0.07 -0.07,-0.09 -0.1,-0.17 L 483,691.03 v -0.07 l -0.02,-0.1 v 0.08 l -0.05,-0.1 v -0.05 l -0.05,-0.09 c 0,-0.1 -0.02,-0.15 -0.02,-0.22 l -0.05,-0.24 v 0 l -0.03,-0.12 0.03,0.02 -0.03,-0.07 c 0,-0.07 0,-0.12 0,-0.19 v -0.12 0 -0.12 c 0,-0.05 0,-0.12 0,-0.17 l 0.03,-0.09 v 0.02 l 0.05,-0.12 v -0.02 -0.1 0.02 l 0.02,-0.12 c 0,-0.04 0.02,-0.12 0.02,-0.16 l 0.08,-0.12 v 0 l 0.02,-0.1 v 0 l 0.34,-0.94 c 0.02,-0.02 0.04,-0.09 0.07,-0.14 l 0.17,-0.26 -0.08,0.07 0.56,-1.25 v 0 l 0.28,-0.7 v 0 l 0.46,-1.05 -0.02,0.07 0.24,-0.72 v 0.02 l 0.02,-0.14 c 0.05,-0.22 0.22,-0.43 0.41,-0.5 l 0.05,-0.05 c 0.24,-0.12 0.5,-0.12 0.74,0 0.22,0.12 0.38,0.36 0.41,0.6 z"
         style="fill:#000000;fill-opacity:1;fill-rule:nonzero;stroke:none"
         transform="matrix(1.3333333,0,0,-1.3333333,0,1120.8)" />
    </g>
    <g
       id="g288"
       transform="matrix(10.489585,0,0,10.489585,-6717.2242,-1915.7651)">
      <path
         id="path288"
         d="m 490.97,696.91 -0.03,0.03 0.24,-0.12 -0.02,0.02 c -0.12,0.07 -0.26,0.12 -0.38,0.12 h -0.05 l 0.17,-0.02 -0.08,0.02 c -0.04,0.02 -0.12,0.02 -0.16,0.02 h -0.05 l 0.41,-0.12 h -0.05 c -0.05,0.08 -0.12,0.1 -0.19,0.12 h -0.08 c -0.04,0.05 -0.12,0.05 -0.16,0.08 h -0.05 l 0.6,-0.34 -0.03,0.02 c -0.09,0.12 -0.21,0.22 -0.36,0.29 h -0.02 l 0.14,-0.07 -0.02,0.02 c -0.07,0.05 -0.12,0.05 -0.14,0.08 l -0.08,0.02 0.36,-0.26 -0.02,0.02 c -0.07,0.1 -0.12,0.14 -0.22,0.19 l -0.02,0.03 0.12,-0.1 -0.1,0.1 0.03,-0.03 -0.15,0.12 0.1,-0.09 -0.36,0.45 -0.02,0.03 -0.17,0.16 0.12,-0.14 -0.05,0.1 v 0 l -0.07,0.09 v 0 l -0.05,0.12 v 0 l -0.07,0.07 0.07,-0.12 -0.07,0.1 0.05,-0.02 -0.08,0.12 0.08,-0.15 -0.05,0.12 c -0.03,0.05 -0.03,0.12 -0.05,0.17 l -0.07,0.12 0.07,-0.17 -0.02,0.07 0.02,-0.02 -0.07,0.31 -0.03,0.03 -0.02,0.12 0.02,-0.12 v 0.14 0 l -0.02,0.12 v -0.12 0.12 0 l 0.02,0.14 v 0 0.12 l -0.02,-0.12 0.02,0.12 c 0,0.08 0,0.1 0,0.17 v 0.12 l -0.02,-0.24 0.02,0.12 v 0 l 0.03,0.12 c 0.05,0.05 0.05,0.07 0.05,0.15 l 0.02,0.12 -0.07,-0.24 0.05,0.12 v 0 l 0.04,0.12 -0.02,-0.03 0.05,0.12 0.05,0.03 0.04,0.14 v 0 l 0.03,0.12 -0.12,-0.24 0.07,0.1 0.05,0.09 0.09,0.12 -0.12,-0.17 0.1,0.1 c 0.02,0.02 0.05,0.1 0.1,0.12 l 0.07,0.14 -0.07,-0.14 0.04,0.12 -0.04,-0.1 0.24,0.24 v 0 l 0.12,0.12 -0.17,-0.12 0.12,0.1 h 0.05 l 0.12,0.12 -0.05,-0.02 0.12,0.09 v 0 l 0.12,0.05 -0.15,-0.1 0.12,0.1 v 0 l 0.15,0.07 v 0 l 0.12,0.05 -0.15,-0.05 0.15,0.05 v 0 l 0.17,0.02 -0.1,-0.02 0.14,0.02 c 0.03,0.05 0.08,0.05 0.12,0.08 l 0.12,0.02 -0.26,-0.05 0.14,0.03 c 0.03,0 0.1,0 0.12,0 l 0.15,0.02 h -0.12 0.17 v 0 l 0.14,0.02 h -0.12 0.38 -0.09 l 0.17,-0.02 v 0 h 0.14 -0.1 l 0.15,-0.02 v 0 l 0.17,-0.03 v 0 l 0.14,-0.05 -0.12,0.05 0.14,-0.05 0.03,-0.02 0.17,-0.02 -0.08,0.02 0.12,-0.05 -0.04,0.03 0.14,-0.08 -0.1,0.05 0.15,-0.09 -0.05,0.02 0.14,-0.05 0.03,-0.05 0.17,-0.07 -0.05,0.03 0.12,-0.1 -0.05,0.07 0.12,-0.09 0.02,-0.03 0.1,-0.09 -0.12,0.12 0.29,-0.27 -0.07,0.07 0.14,-0.16 v 0 l 0.17,-0.22 -0.03,0.07 0.15,-0.21 -0.05,0.09 0.12,-0.21 v 0 l 0.14,-0.22 -0.04,0.1 0.12,-0.24 -0.05,0.02 0.12,-0.22 V 699 l 0.12,-0.24 -0.05,0.19 0.22,-0.69 -0.05,0.04 0.21,-0.72 -0.02,0.1 0.34,-1.9 v 0.08 l 0.07,-0.72 v -0.03 l 0.12,-0.67 -0.03,0.02 0.1,-0.62 v 0.02 l 0.02,-0.64 v 0.04 -0.67 0.03 -0.68 0.12 l -0.14,-1.46 v 0.02 l -0.22,-1.34 v 0 l -0.26,-1.7 v -0.05 l -0.07,-0.65 v 0.05 L 495,686.66 v 0.03 l -0.14,-0.79 0.02,0.04 -0.12,-0.45 v -0.07 l -0.12,-0.68 v -0.12 -0.4 c -0.02,-0.12 0,-0.24 0.02,-0.36 l 0.03,-0.05 c 0.19,-0.51 0.72,-0.77 1.25,-0.6 0.5,0.17 0.79,0.69 0.62,1.2 v 0.07 l 0.02,-0.34 0.03,0.44 v -0.12 l 0.09,0.64 -0.02,-0.09 0.12,0.45 0.02,0.08 0.15,0.79 v -0.03 l 0.05,0.27 0.02,0.07 0.05,0.65 v -0.05 l 0.31,1.75 v 0 l 0.22,1.32 0.02,0.05 0.14,1.46 v 0.1 l 0.05,0.67 v 0 0.67 0.05 0.67 l -0.05,0.08 -0.04,0.62 v 0.07 l -0.1,0.65 v -0.02 l -0.05,0.72 -0.05,0.04 -0.28,1.9 -0.03,0.1 -0.17,0.72 -0.02,0.04 -0.22,0.7 c -0.02,0.02 -0.02,0.1 -0.04,0.14 l -0.12,0.22 0.02,-0.02 -0.1,0.21 -0.02,0.05 -0.12,0.22 -0.02,0.09 -0.12,0.19 v 0 l -0.17,0.22 -0.05,0.1 -0.12,0.21 -0.07,0.03 -0.15,0.21 v 0 l -0.14,0.17 c -0.02,0.07 -0.07,0.1 -0.12,0.12 l -0.26,0.24 c -0.05,0.07 -0.08,0.1 -0.12,0.12 l -0.1,0.07 v 0 l -0.12,0.07 -0.1,0.08 -0.12,0.09 -0.04,0.03 -0.17,0.04 0.07,-0.02 -0.12,0.1 -0.07,0.02 -0.15,0.1 -0.09,0.02 -0.15,0.07 -0.04,0.03 -0.12,0.04 -0.08,0.05 -0.16,0.03 h 0.02 l -0.14,0.04 -0.1,0.05 -0.14,0.03 h -0.05 l -0.15,0.02 v 0 l -0.16,0.02 -0.1,0.05 h -0.14 v 0 l -0.2,0.03 h -0.12 -0.38 c -0.07,0 -0.1,0 -0.12,0 l -0.14,-0.03 v 0 h -0.17 c -0.05,0 -0.07,-0.05 -0.12,-0.05 l -0.15,-0.02 0.12,0.02 -0.14,-0.02 c -0.1,0 -0.19,-0.02 -0.26,-0.05 l -0.12,-0.07 0.12,0.07 -0.17,-0.05 -0.05,-0.02 -0.14,-0.05 v 0 l -0.17,-0.07 c -0.05,0 -0.07,-0.02 -0.15,-0.05 l -0.12,-0.07 v 0 l -0.14,-0.05 v 0 l -0.12,-0.07 c -0.07,-0.02 -0.12,-0.05 -0.14,-0.1 l -0.12,-0.07 v 0 l -0.12,-0.09 v 0 l -0.17,-0.1 h 0.05 l -0.12,-0.1 c -0.08,-0.02 -0.1,-0.04 -0.12,-0.12 l -0.12,-0.07 v -0.05 l -0.24,-0.19 -0.1,-0.09 -0.07,-0.1 c -0.03,-0.05 -0.05,-0.1 -0.07,-0.12 l -0.1,-0.14 0.1,0.12 -0.08,-0.1 c -0.04,-0.05 -0.09,-0.12 -0.12,-0.14 l -0.04,-0.12 0.04,0.09 -0.09,-0.12 c -0.05,-0.09 -0.07,-0.17 -0.12,-0.24 l -0.05,-0.17 v 0 l -0.02,-0.12 v 0.05 l -0.05,-0.12 -0.03,-0.05 -0.02,-0.12 v 0 l -0.07,-0.14 c -0.03,-0.05 -0.05,-0.14 -0.05,-0.24 v -0.12 0.12 l -0.02,-0.14 v 0 l -0.05,-0.12 c 0,-0.1 -0.03,-0.2 -0.03,-0.27 l 0.03,-0.12 v 0.12 l -0.03,-0.12 c 0,-0.07 0,-0.09 0,-0.17 v -0.12 0 -0.14 0 -0.12 c 0,-0.02 0,-0.1 0.03,-0.12 v -0.14 0.02 l 0.05,-0.14 c 0,-0.08 0,-0.1 0.02,-0.15 l 0.02,-0.12 v 0.03 l 0.08,-0.32 0.02,-0.07 0.02,-0.12 c 0.03,-0.07 0.08,-0.12 0.1,-0.19 l 0.05,-0.1 -0.07,0.2 0.02,-0.12 c 0.02,-0.03 0.02,-0.08 0.05,-0.12 l 0.07,-0.1 0.02,-0.05 0.03,-0.09 c 0.05,-0.08 0.07,-0.1 0.09,-0.12 l 0.08,-0.1 v 0 l 0.04,-0.1 v 0 l 0.1,-0.07 v 0 l 0.05,-0.12 c 0.05,-0.07 0.09,-0.09 0.17,-0.17 l 0.14,-0.14 -0.07,0.07 0.41,-0.43 c 0.04,-0.05 0.12,-0.1 0.19,-0.14 l 0.17,-0.1 -0.1,0.07 0.1,-0.09 c 0.07,-0.08 0.16,-0.1 0.26,-0.15 h 0.02 l -0.28,0.17 0.04,-0.02 c 0.1,-0.12 0.24,-0.2 0.36,-0.22 l 0.08,-0.02 -0.1,0.04 0.02,-0.02 0.1,-0.02 h 0.05 l -0.39,0.16 0.03,-0.02 c 0.21,-0.14 0.45,-0.24 0.72,-0.22 h 0.05 -0.29 0.07 l -0.14,0.05 h 0.02 c 0.14,-0.07 0.26,-0.07 0.41,-0.07 h 0.05 l -0.29,0.02 0.07,-0.02 c 0.1,0 0.22,-0.02 0.29,0 h 0.05 l -0.46,0.07 0.05,-0.05 c 0.19,-0.04 0.41,-0.04 0.57,0 h 0.03 c 0.41,0.12 0.67,0.46 0.67,0.89 0,0.39 -0.26,0.72 -0.67,0.84 z"
         style="fill:#000000;fill-opacity:1;fill-rule:nonzero;stroke:none"
         transform="matrix(1.3333333,0,0,-1.3333333,0,1120.8)" />
    </g>
    <g
       id="g289"
       transform="matrix(10.489585,0,0,10.489585,-6717.2242,-1915.7651)">
      <path
         id="path289"
         d="m 490.3,700.22 0.02,-0.04 -0.02,0.02 0.12,-0.24 c 0.02,-0.05 0.07,-0.12 0.12,-0.17 l 0.02,-0.05 -0.14,0.32 v -0.03 c 0.02,-0.09 0.04,-0.17 0.07,-0.21 l 0.05,-0.03 c 0.02,-0.07 0.04,-0.09 0.07,-0.12 l 0.05,-0.05 -0.17,0.22 0.05,-0.02 0.02,-0.12 0.02,-0.03 -0.02,0.07 v -0.02 c 0.02,-0.1 0.1,-0.17 0.14,-0.24 l 0.12,-0.12 v 0 l 0.03,-0.02 v 0 l 0.05,-0.03 -0.12,0.19 v -0.02 0 l 0.02,-0.02 0.02,-0.1 0.03,-0.05 -0.03,0.07 0.03,-0.12 c 0.07,-0.07 0.12,-0.16 0.21,-0.24 l 0.03,-0.02 c 0.24,-0.22 0.57,-0.24 0.84,-0.12 0.31,0.14 0.48,0.46 0.45,0.74 0,0.34 -0.21,0.6 -0.5,0.72 h -0.02 l 0.5,-0.84 0.02,0.1 -0.28,-0.5 h 0.02 c 0.17,0.14 0.26,0.38 0.29,0.6 v 0.02 l -0.29,-0.6 0.02,0.02 c 0.08,0.08 0.12,0.17 0.2,0.24 v 0.05 l -0.2,-0.24 h 0.03 c 0.17,0.15 0.29,0.36 0.29,0.55 v 0.05 l -0.29,-0.57 v 0 c 0.09,0.09 0.17,0.14 0.21,0.24 v 0.02 l -0.16,-0.22 h 0.02 v 0 0.05 c 0.17,0.12 0.26,0.31 0.29,0.55 v 0 l -0.51,-0.72 0.03,0.05 c 0.09,0.03 0.17,0.07 0.21,0.15 h 0.03 v 0 0.02 0 h 0.05 v 0 l 0.02,0.02 -0.62,-0.24 h 0.02 c 0.24,0 0.46,0.1 0.62,0.24 v 0 0 l 0.03,0.05 -0.19,-0.17 h 0.02 c 0.05,0.08 0.14,0.1 0.22,0.17 l 0.02,0.03 -0.67,-0.24 v 0 h 0.05 0.04 -0.04 0.02 c 0.14,0 0.29,0.02 0.41,0.09 h 0.07 l -0.46,-0.07 v 0 h 0.03 v 0 c 0.17,-0.02 0.31,0 0.45,0.07 l 0.03,0.03 -0.43,-0.1 h 0.02 0.02 0.03 v 0 h 0.05 l -0.29,0.07 0.07,-0.05 c 0.1,-0.02 0.17,-0.04 0.26,-0.04 h 0.1 l -0.19,0.02 0.09,-0.02 c 0.08,0 0.12,0 0.2,0 h 0.07 -0.17 0.1 l -0.17,0.02 0.07,-0.02 c 0.05,-0.03 0.12,-0.03 0.22,-0.08 h 0.07 l -0.17,0.08 0.05,-0.08 -0.05,0.05 0.22,-0.09 0.04,-0.03 0.1,-0.05 v 0 l 0.1,-0.02 -0.17,0.07 0.09,-0.07 v 0 l 0.1,-0.02 -0.1,0.04 0.15,-0.12 -0.07,0.08 0.02,-0.03 v 0 0 0 l 0.02,-0.05 v 0 0 h 0.03 l 0.05,-0.04 -0.29,0.64 v 0 c 0,-0.24 0.09,-0.48 0.24,-0.64 l 0.05,-0.03 -0.2,0.24 0.03,-0.05 c 0.05,-0.07 0.09,-0.14 0.19,-0.24 v 0 l -0.14,0.24 V 699 l -0.1,0.38 v 0 0 -0.02 c 0,-0.12 0.02,-0.26 0.1,-0.38 l 0.02,-0.08 -0.12,0.44 v 0 c 0,-0.15 0.02,-0.32 0.12,-0.44 v -0.02 l -0.1,0.38 v -0.02 c 0,-0.24 0.1,-0.46 0.27,-0.62 v -0.03 l -0.24,0.65 v -0.05 0 -0.07 0.02 -0.02 c -0.03,-0.36 0.21,-0.72 0.55,-0.84 0.36,-0.14 0.74,-0.1 0.98,0.19 0.27,0.27 0.36,0.65 0.22,0.99 -0.12,0.36 -0.46,0.57 -0.84,0.57 v 0 c -0.24,0 -0.48,-0.09 -0.67,-0.24 -0.17,-0.19 -0.27,-0.43 -0.27,-0.67 v -0.02 0 0 l 0.94,0.88 h -0.02 c -0.53,0 -0.92,-0.38 -0.94,-0.88 v -0.03 l 0.29,0.65 -0.03,-0.02 c -0.16,-0.15 -0.26,-0.39 -0.26,-0.63 v -0.05 l 0.26,0.68 -0.02,-0.03 v 0 0 0 l -0.02,-0.05 0.64,0.29 h -0.02 c -0.24,0 -0.46,-0.09 -0.62,-0.29 -0.2,-0.14 -0.29,-0.38 -0.29,-0.62 v -0.02 l 0.91,0.93 v 0 c -0.24,0 -0.48,-0.12 -0.67,-0.29 v -0.02 l 0.65,0.26 v 0 c -0.24,0 -0.48,-0.07 -0.68,-0.26 v 0 l 0.63,0.24 v 0 c -0.24,0 -0.43,-0.05 -0.6,-0.22 l -0.15,-0.12 -0.02,-0.02 -0.02,-0.02 0.67,0.26 v 0 h -0.03 -0.02 c -0.24,0 -0.48,-0.1 -0.67,-0.26 h -0.03 l 0.7,0.24 h -0.02 v 0 0 h -0.05 v 0 0 0 h -0.03 v 0 h 0.08 -0.05 c -0.27,0.02 -0.51,-0.08 -0.72,-0.24 v 0 l 0.65,0.24 v 0 c -0.53,0 -0.94,-0.39 -0.96,-0.92 v 0 l 0.91,0.89 v 0 c -0.51,0.03 -0.89,-0.36 -0.91,-0.84 l -0.05,-0.05 c 0,-0.26 0.09,-0.52 0.31,-0.74 l 0.26,-0.24 -0.14,0.19 0.02,-0.07 -0.02,0.07 0.02,-0.09 -0.02,0.09 0.02,-0.09 c 0.03,-0.03 0.08,-0.1 0.1,-0.12 l 0.02,-0.1 -0.12,0.31 0.03,-0.09 c 0,-0.08 0.05,-0.12 0.07,-0.15 l 0.02,-0.09 v 0 l 0.03,-0.1 -0.07,0.36 0.02,-0.1 c 0,-0.07 0,-0.14 0,-0.19 l 0.02,-0.07 v 0 -0.1 0.05 l 0.03,-0.09 -0.03,0.14 v -0.1 0 -0.07 0.07 -0.16 0 l -0.02,-0.34 v 0.07 l -0.02,-0.33 v 0.04 l -0.17,-0.72 v 0 l -0.05,-0.28 0.02,0.02 -0.04,-0.17 v 0 l -0.08,-0.21 0.03,0.02 -0.05,-0.17 0.02,0.03 -0.04,-0.2 v 0 l -0.08,-0.16 0.03,0.12 -0.24,-0.48 v -0.03 l -0.03,-0.07 v 0 L 492,694.39 v 0 l -0.02,-0.07 -0.05,-0.1 -0.03,-0.04 -0.02,-0.08 -0.07,-0.19 -0.03,-0.12 v -0.07 l 0.03,0.14 -0.03,-0.07 c -0.02,-0.07 -0.02,-0.12 -0.02,-0.19 l -0.02,-0.1 0.07,0.24 -0.07,-0.16 0.14,0.21 -0.02,-0.05 c -0.1,-0.07 -0.2,-0.19 -0.22,-0.31 v -0.07 l 0.02,0.12 v -0.02 l 0.15,0.24 -0.03,-0.08 c -0.16,-0.14 -0.26,-0.36 -0.26,-0.6 V 693 l 0.26,0.6 -0.02,-0.02 c -0.1,-0.1 -0.19,-0.22 -0.22,-0.34 l -0.02,-0.05 v 0 -0.07 l -0.02,-0.05 -0.05,-0.12 c -0.05,-0.31 0.05,-0.6 0.24,-0.81 0.21,-0.22 0.53,-0.32 0.81,-0.24 l 0.12,0.02 v 0 l 1.16,0.31 v 0 l 0.12,0.03 -0.12,-0.03 0.14,0.03 -0.02,-0.03 0.28,0.03 h 0.03 l 0.48,0.02 v 0 h 0.24 v 0 l 0.21,0.02 H 495 l 0.24,-0.02 v 0 h 0.22 0.04 0.24 -0.16 l 0.55,-0.12 h 0.07 0.12 l -0.19,0.02 0.12,-0.02 c 0.45,-0.17 1.01,0.07 1.15,0.5 0.19,0.48 -0.05,1.01 -0.5,1.18 l -0.12,0.02 c -0.1,0.05 -0.17,0.08 -0.22,0.08 l -0.14,0.02 0.07,-0.02 -0.6,0.12 c -0.03,0 -0.07,0.02 -0.15,0.02 h -0.24 0.1 -0.24 v 0 l -0.24,0.02 c -0.02,0 -0.1,0 -0.12,0 l -0.22,-0.02 h 0.03 l -0.24,-0.02 v 0 l -0.48,-0.03 v 0 h -0.29 l -0.07,-0.05 h -0.15 c -0.02,0 -0.09,-0.02 -0.12,-0.02 l -0.12,-0.02 v 0 l -1.12,-0.32 -0.08,-0.02 -0.12,-0.02 c -0.4,-0.15 -0.64,-0.58 -0.57,-0.99 0.09,-0.43 0.48,-0.72 0.91,-0.69 0.46,0.02 0.77,0.36 0.82,0.81 v 0.12 l -0.05,-0.24 v 0.05 0 l 0.05,0.02 -0.22,-0.31 0.02,0.03 c 0.2,0.16 0.27,0.38 0.27,0.62 v 0.02 l -0.27,-0.6 0.03,0.05 c 0.07,0.05 0.12,0.15 0.19,0.24 v 0.03 c 0.02,0.02 0.02,0.04 0.05,0.09 v 0.05 l -0.19,-0.34 0.02,0.05 c 0.1,0.05 0.12,0.12 0.17,0.19 l 0.09,0.22 c 0.03,0.07 0.08,0.14 0.1,0.22 v 0.12 l -0.02,-0.2 0.02,0.08 c 0,0.04 0.02,0.12 0.02,0.14 l 0.03,0.1 -0.03,-0.08 0.08,0.22 v -0.1 l 0.02,0.1 -0.02,-0.05 0.02,0.05 v 0 l 0.02,0.07 v 0 l 0.03,0.05 v 0.02 l 0.29,0.48 0.02,0.08 0.05,0.16 v 0.05 l 0.09,0.19 v 0.05 l 0.08,0.17 v 0.02 l 0.04,0.2 v 0 l 0.03,0.16 0.05,0.05 0.04,0.31 v 0 l 0.15,0.7 0.05,0.07 0.04,0.31 v 0.05 l 0.03,0.31 v 0.05 l 0.05,0.17 v 0.07 0.07 0 0.1 c 0,0.02 0,0.1 -0.05,0.14 v 0.1 0.02 l -0.03,0.1 v 0 0.1 -0.2 0.1 c 0,0.12 0,0.24 -0.04,0.34 l -0.05,0.09 v 0 l -0.03,0.07 0.08,-0.16 -0.05,0.09 c 0,0.07 -0.05,0.19 -0.12,0.29 l -0.03,0.1 0.08,-0.15 -0.05,0.07 -0.03,0.08 -0.02,0.04 -0.02,0.1 -0.08,0.07 c -0.02,0.07 -0.09,0.15 -0.16,0.19 l -0.24,0.29 0.28,-0.65 v 0.05 c -0.04,0.48 -0.48,0.87 -0.98,0.84 -0.5,-0.05 -0.91,-0.45 -0.91,-0.96 0.05,-0.53 0.45,-0.91 0.96,-0.91 v 0 c 0.29,0 0.53,0.12 0.69,0.31 0.15,0.17 0.27,0.41 0.24,0.67 v 0 c -0.02,0.53 -0.45,0.94 -0.96,0.92 -0.5,-0.03 -0.88,-0.46 -0.88,-0.96 0.02,-0.51 0.43,-0.94 0.96,-0.92 v 0 c 0.26,0 0.5,0.12 0.64,0.32 h 0.03 l -0.6,-0.27 h 0.05 l -0.08,-0.05 v 0 l 0.03,0.05 v 0 0 0 h 0.05 v 0 0 h 0.02 c 0.24,0 0.46,0.07 0.62,0.27 v 0.02 l -0.62,-0.29 h 0.02 0.03 v 0 c 0.24,0.03 0.45,0.12 0.6,0.29 h 0.05 l -0.08,-0.02 0.15,0.12 -0.6,-0.24 v 0 c 0.24,0 0.48,0.12 0.67,0.26 v 0.02 l -0.62,-0.26 v 0 c 0.24,0 0.48,0.1 0.64,0.26 v 0 l -0.62,-0.26 v 0 c 0.26,0 0.48,0.12 0.65,0.26 0.19,0.2 0.29,0.44 0.29,0.68 V 699 c 0,0.36 -0.24,0.7 -0.58,0.84 -0.36,0.12 -0.74,0.07 -1.03,-0.22 -0.24,-0.26 -0.31,-0.64 -0.17,-0.98 0.14,-0.36 0.48,-0.58 0.84,-0.58 h 0.02 c 0.24,0 0.48,0.1 0.68,0.29 v 0.03 -0.03 l 0.02,0.03 v 0 0.02 c 0.17,0.14 0.26,0.38 0.26,0.62 v 0.05 l -0.26,-0.67 0.02,0.02 c 0.15,0.2 0.27,0.41 0.27,0.65 v 0.03 c -0.03,0.36 -0.24,0.69 -0.6,0.84 -0.31,0.14 -0.72,0.04 -0.99,-0.22 -0.24,-0.26 -0.33,-0.65 -0.16,-0.98 0.14,-0.36 0.48,-0.58 0.84,-0.58 h 0.02 c 0.24,0 0.48,0.12 0.62,0.26 0.2,0.2 0.27,0.44 0.27,0.68 v 0 0 0.02 l -0.89,-0.94 v 0 c 0.5,0 0.94,0.44 0.94,0.94 v 0.02 -0.02 0.07 0 0.05 c 0,0.24 -0.12,0.48 -0.32,0.62 v 0.05 l 0.27,-0.67 v 0.02 c 0,0.17 -0.03,0.32 -0.07,0.44 l -0.05,0.02 0.09,-0.38 v 0 c 0,0.14 -0.02,0.28 -0.09,0.4 v 0.05 l 0.09,-0.43 v 0.02 0 0 c 0,0.17 -0.02,0.32 -0.09,0.44 l -0.03,0.02 c -0.02,0.1 -0.09,0.19 -0.16,0.24 v 0 l 0.14,-0.24 v 0.07 c -0.07,0.07 -0.12,0.15 -0.19,0.24 v 0 l 0.29,-0.65 v 0 c 0,0.24 -0.12,0.48 -0.29,0.65 l -0.03,0.05 h -0.02 v 0 0 l -0.02,0.02 v 0 0 0 l -0.05,0.05 -0.07,0.07 -0.17,0.12 -0.07,0.08 -0.1,0.02 v 0 l -0.1,0.07 c -0.02,0.03 -0.04,0.03 -0.12,0.05 l -0.09,0.02 v 0 l -0.05,0.05 0.05,-0.05 -0.19,0.1 -0.08,0.02 -0.09,0.08 c -0.05,0 -0.12,0.02 -0.17,0.02 l -0.12,0.02 0.22,-0.04 -0.1,0.02 c -0.07,0.02 -0.12,0.02 -0.14,0.02 l -0.1,0.05 c -0.07,0 -0.12,0 -0.19,0 h -0.07 0.16 -0.09 c -0.05,0.03 -0.12,0.03 -0.17,0.03 h -0.1 l 0.32,-0.08 -0.08,0.05 c -0.09,0.03 -0.21,0.03 -0.28,0.03 h -0.05 v 0 h -0.03 -0.02 -0.02 c -0.12,0 -0.24,-0.08 -0.36,-0.12 h -0.05 l 0.36,0.09 v 0 h -0.03 v 0 c -0.12,0 -0.24,-0.05 -0.36,-0.09 l -0.02,-0.03 0.36,0.12 h -0.02 0.04 -0.04 -0.05 v 0 c -0.24,-0.05 -0.43,-0.17 -0.6,-0.31 v -0.02 l 0.24,0.21 -0.03,-0.05 c -0.09,-0.04 -0.16,-0.12 -0.24,-0.16 l -0.02,-0.03 v 0 0 l 0.6,0.27 h -0.02 c -0.24,0 -0.46,-0.12 -0.6,-0.27 l -0.05,-0.05 v 0 -0.02 0 h -0.03 v 0 -0.02 l 0.22,0.16 h -0.02 c -0.32,-0.16 -0.48,-0.48 -0.46,-0.84 v 0 l 0.24,0.65 h -0.02 v 0 -0.05 c -0.08,-0.04 -0.12,-0.14 -0.17,-0.19 l -0.03,-0.05 0.15,0.22 v -0.02 c -0.17,-0.2 -0.24,-0.39 -0.24,-0.63 v -0.05 l 0.24,0.68 -0.03,-0.03 c -0.04,-0.07 -0.09,-0.12 -0.14,-0.21 v -0.03 l 0.14,0.19 -0.02,-0.02 c -0.14,-0.14 -0.22,-0.36 -0.22,-0.6 v -0.02 l 0.22,0.6 v 0 c -0.31,-0.34 -0.31,-0.8 -0.02,-1.11 l 0.04,-0.09 c 0.22,-0.27 0.6,-0.36 0.92,-0.24 l 0.02,0.02 c 0.34,0.12 0.53,0.46 0.5,0.79 -0.02,0.36 -0.26,0.63 -0.62,0.72 h -0.02 l 0.52,-0.41 -0.04,0.1 -0.05,0.1 -0.05,0.02 0.05,-0.05 -0.03,0.03 v 0 0.02 c -0.02,0.07 -0.09,0.14 -0.14,0.19 l -0.02,0.03 v 0.02 l -0.05,0.02 v 0 l -0.12,0.1 0.12,-0.14 -0.03,0.02 -0.02,0.07 -0.02,0.05 0.02,-0.05 v 0.03 c -0.07,0.04 -0.1,0.12 -0.14,0.16 l -0.05,0.05 0.09,-0.12 -0.02,0.03 0.1,-0.15 -0.05,0.03 c -0.03,0.12 -0.07,0.21 -0.17,0.28 l -0.02,0.05 0.14,-0.19 -0.14,0.24 c -0.08,0.1 -0.17,0.22 -0.29,0.26 l -0.05,0.05 c -0.31,0.15 -0.62,0.07 -0.86,-0.12 -0.24,-0.24 -0.29,-0.6 -0.12,-0.89 z"
         style="fill:#000000;fill-opacity:1;fill-rule:nonzero;stroke:none"
         transform="matrix(1.3333333,0,0,-1.3333333,0,1120.8)" />
    </g>
  </g>
</svg>
