<?xml version="1.0" encoding="UTF-8" standalone="no"?>
<!-- Created with Inkscape (http://www.inkscape.org/) -->

<svg
   version="1.1"
   id="svg1"
   width="300"
   height="300"
   viewBox="0 0 300 299.99999"
   sodipodi:docname="multichoice15_option2.svg"
   inkscape:export-filename="multichoice\multichoice15\multichoice15_option1.svg"
   inkscape:export-xdpi="96"
   inkscape:export-ydpi="96"
   xmlns:inkscape="http://www.inkscape.org/namespaces/inkscape"
   xmlns:sodipodi="http://sodipodi.sourceforge.net/DTD/sodipodi-0.dtd"
   xmlns="http://www.w3.org/2000/svg"
   xmlns:svg="http://www.w3.org/2000/svg">
  <defs
     id="defs1" />
  <sodipodi:namedview
     id="namedview1"
     pagecolor="#ffffff"
     bordercolor="#000000"
     borderopacity="0.25"
     inkscape:showpageshadow="2"
     inkscape:pageopacity="0.0"
     inkscape:pagecheckerboard="0"
     inkscape:deskcolor="#d1d1d1">
    <inkscape:page
       x="0"
       y="0"
       inkscape:label="1"
       id="page1"
       width="300"
       height="300"
       margin="0"
       bleed="0" />
  </sodipodi:namedview>
  <g
     id="g1"
     inkscape:groupmode="layer"
     inkscape:label="1">
    <g
       id="g56"
       transform="matrix(11.580065,0,0,11.580065,-1157.3057,-2384.2939)">
      <path
         id="path56"
         d="m 78.408,684 0.24,-0.07 c 0.048,-0.03 0.12,-0.05 0.192,-0.05 l 0.768,-0.1 0.072,-0.02 h 1.176 0.024 l 0.816,-0.02 v 0 h 1.128 v 0 l 1.68,0.02 H 84.48 87.312 87.24 l 0.408,-0.02 H 87.6 l 0.432,-0.05 h 0.096 0.048 c 0.384,0 0.744,0.19 0.912,0.5 0.216,0.34 0.216,0.75 0,1.08 -0.168,0.34 -0.528,0.53 -0.912,0.53 h -0.048 l 0.096,-0.02 -0.432,0.04 h -0.048 -0.408 -0.072 l -2.808,-0.12 h -0.024 l -1.656,-0.09 v 0 l -1.104,-0.05 h -0.024 l -0.816,-0.05 v 0 l -1.176,-0.05 h 0.12 l -0.768,0.05 0.168,-0.02 -0.24,0.07 c -0.432,0.12 -0.864,-0.1 -1.008,-0.53 -0.144,-0.41 0.072,-0.86 0.48,-1.03 z"
         style="fill:#000000;fill-opacity:1;fill-rule:nonzero;stroke:none"
         transform="matrix(1.3333333,0,0,-1.3333333,0,1120.8)" />
    </g>
    <g
       id="g57"
       transform="matrix(11.580065,0,0,11.580065,-1157.3057,-2384.2939)">
      <path
         id="path57"
         d="m 79.848,684.7 -0.168,-0.22 c -0.024,-0.05 -0.048,-0.1 -0.048,-0.14 l -0.096,-0.15 -0.024,-0.09 -0.048,-0.17 v 0 l -0.048,-0.19 -0.024,-0.05 -0.048,-0.19 0.024,0.07 -0.048,-0.17 c -0.024,-0.05 -0.024,-0.1 -0.024,-0.12 l -0.024,-0.17 v -0.02 l -0.024,-0.19 v 0 l -0.024,-0.17 v 0 L 79.2,682.54 v -0.05 -0.19 -0.05 l 0.024,-0.41 v -0.07 l 0.024,-0.24 v 0 l 0.048,-0.22 v 0 l 0.024,-0.24 c 0,-0.02 0,-0.07 0.024,-0.12 l 0.072,-0.19 -0.024,0.05 0.048,-0.22 0.024,-0.05 0.144,-0.48 v 0 l 0.048,-0.14 0.048,-0.1 0.048,-0.09 v 0 l 0.048,-0.15 0.072,-0.07 0.048,-0.12 -0.024,0.07 0.072,-0.12 v 0 l 0.048,-0.12 c 0.024,-0.04 0.072,-0.09 0.096,-0.12 l 0.072,-0.12 v 0 l 0.096,-0.09 -0.048,0.07 0.048,-0.1 c 0.048,-0.04 0.096,-0.12 0.12,-0.14 l 0.264,-0.24 0.048,-0.05 0.144,-0.12 -0.024,0.03 0.12,-0.12 0.096,-0.08 0.144,-0.09 -0.024,0.02 0.168,-0.14 h 0.024 l 0.144,-0.12 0.096,-0.05 0.168,-0.1 v 0 l 0.168,-0.07 v 0 l 0.168,-0.07 c 0.072,-0.02 0.12,-0.05 0.168,-0.07 l 0.168,-0.05 -0.048,0.02 0.168,-0.07 h 0.072 L 82.8,677.3 h 0.024 l 0.192,-0.04 0.072,-0.03 0.168,-0.02 v 0 l 0.192,-0.03 h 0.096 0.168 v 0 H 83.88 84 l 0.504,0.05 0.12,0.03 0.168,0.02 h -0.024 l 0.168,0.02 c 0.024,0.03 0.072,0.03 0.12,0.05 l 0.144,0.07 h 0.048 l 0.192,0.1 h 0.024 l 0.144,0.07 v 0 l 0.168,0.1 H 85.8 l 0.144,0.09 0.048,0.03 0.144,0.09 0.048,0.03 0.12,0.09 0.072,0.05 0.144,0.12 v 0 l 0.144,0.12 v 0 l 0.12,0.12 0.096,0.07 0.336,0.36 0.048,0.1 0.072,0.1 v 0 l 0.072,0.09 0.024,0.03 0.048,0.07 0.048,0.07 0.048,0.1 0.024,0.04 0.048,0.12 -0.024,-0.04 0.048,0.09 v 0 l 0.072,0.1 0.024,0.07 0.048,0.12 0.024,0.05 0.024,0.09 0.048,0.1 0.024,0.14 -0.024,-0.09 0.048,0.09 c 0,0.08 0.024,0.12 0.024,0.17 l 0.024,0.12 v 0 l 0.024,0.12 -0.024,-0.12 0.024,0.12 c 0.024,0.1 0.048,0.17 0.048,0.27 v 0.12 0 0.12 0 0.28 -0.02 0.14 0 0.12 0 0.15 0 0.14 c 0,0.05 0,0.1 0,0.12 l -0.024,0.12 v 0.1 l -0.048,0.14 0.024,-0.09 -0.024,0.12 c 0,0.04 0,0.07 -0.024,0.12 l -0.024,0.12 v -0.03 l -0.024,0.15 v 0.02 l -0.048,0.12 0.024,-0.02 -0.048,0.14 c -0.024,0.1 -0.072,0.22 -0.12,0.29 l -0.072,0.12 0.072,-0.17 -0.024,0.12 -0.048,0.1 -0.168,0.28 v -0.02 l -0.168,0.36 v 0 l -0.048,0.05 0.048,-0.1 -0.024,0.1 -0.048,0.09 -0.048,0.05 -0.024,0.05 -0.048,0.1 0.024,-0.05 -0.024,0.05 c -0.024,0.07 -0.072,0.12 -0.096,0.16 L 87,684.79 c -0.048,0.05 -0.096,0.1 -0.144,0.15 l -0.048,0.02 0.12,-0.12 -0.096,0.12 c -0.072,0.07 -0.144,0.14 -0.24,0.19 l -0.048,0.03 c -0.288,0.19 -0.648,0.19 -0.96,0.02 -0.288,-0.17 -0.48,-0.5 -0.504,-0.84 0,-0.34 0.192,-0.67 0.504,-0.84 l 0.024,-0.02 -0.24,0.21 0.096,-0.12 c 0.048,-0.05 0.096,-0.09 0.144,-0.14 l 0.048,-0.05 -0.144,0.14 0.048,-0.07 -0.096,0.17 0.048,-0.07 0.024,-0.05 0.048,-0.07 -0.024,0.05 0.024,-0.08 -0.048,0.1 0.024,-0.07 0.072,-0.1 0.024,-0.05 v 0 l 0.192,-0.33 v 0 l 0.144,-0.27 -0.048,0.08 0.072,-0.12 c 0.024,-0.05 0.048,-0.12 0.096,-0.17 l 0.048,-0.1 -0.12,0.31 0.024,-0.14 v -0.02 l 0.048,-0.12 -0.024,0.02 0.048,-0.14 0.024,-0.03 0.024,-0.12 -0.024,0.12 v -0.12 l 0.024,-0.09 0.048,-0.12 -0.024,0.07 0.024,-0.12 -0.024,0.14 v -0.14 0 -0.15 0 l 0.024,-0.12 v 0 -0.14 0.02 -0.28 0 -0.12 0 -0.12 l 0.024,0.24 -0.024,-0.12 c -0.024,-0.03 -0.024,-0.08 -0.024,-0.12 l -0.024,-0.12 v 0 l -0.024,-0.12 0.048,0.16 -0.024,-0.09 -0.024,-0.07 -0.048,-0.15 0.024,0.07 -0.024,-0.09 0.024,0.07 -0.048,-0.12 0.024,0.05 -0.048,-0.1 v 0 l -0.048,-0.09 -0.024,-0.08 -0.048,-0.12 0.024,0.08 -0.048,-0.12 0.024,0.07 -0.048,-0.07 0.024,0.02 -0.072,-0.1 v 0 l -0.048,-0.09 0.072,0.09 -0.336,-0.36 0.072,0.08 -0.144,-0.12 v 0 l -0.12,-0.12 v 0 l -0.144,-0.12 0.072,0.04 -0.144,-0.12 0.048,0.05 -0.144,-0.12 0.024,0.03 -0.144,-0.08 0.048,0.03 -0.144,-0.1 v 0 l -0.168,-0.07 0.048,0.02 -0.168,-0.09 0.048,0.02 -0.168,-0.05 0.12,0.03 -0.168,-0.05 h -0.024 l -0.144,-0.05 0.12,0.03 -0.504,-0.05 h 0.072 -0.168 v 0 l -0.168,-0.03 h 0.096 l -0.192,0.03 v 0 l -0.168,0.02 0.072,-0.02 -0.192,0.05 h 0.024 l -0.168,0.02 h 0.048 l -0.168,0.05 h -0.072 l -0.168,0.05 0.144,-0.05 -0.168,0.07 v 0 l -0.168,0.07 v 0 l -0.168,0.07 0.096,-0.04 -0.144,0.09 0.024,-0.02 -0.192,0.12 -0.024,0.02 -0.144,0.1 0.096,-0.07 -0.144,0.12 -0.048,0.02 -0.144,0.12 0.072,-0.05 -0.264,0.24 0.096,-0.14 -0.048,0.12 -0.072,0.05 -0.072,0.09 v 0 l -0.096,0.1 0.096,-0.12 -0.072,0.12 v 0 l -0.072,0.12 -0.024,0.07 -0.096,0.1 0.072,-0.1 -0.072,0.14 v 0 l -0.072,0.1 0.048,-0.1 -0.048,0.15 0.024,-0.03 -0.168,0.48 v -0.04 l -0.048,0.19 v 0.07 l -0.096,0.19 0.048,-0.14 -0.048,0.24 v 0.02 l -0.024,0.22 v 0 l -0.048,0.21 0.024,-0.09 -0.024,0.43 v -0.02 0.19 -0.1 0.19 0 l 0.024,0.17 v 0.03 0.19 0 l 0.024,0.14 -0.024,-0.12 0.048,0.19 0.024,0.05 0.024,0.19 -0.024,-0.07 0.048,0.19 v 0 l 0.048,0.17 -0.024,-0.07 0.072,0.14 -0.024,-0.02 0.12,0.26 c 0.144,0.32 0.024,0.7 -0.288,0.87 -0.288,0.17 -0.696,0.09 -0.888,-0.19 z"
         style="fill:#000000;fill-opacity:1;fill-rule:nonzero;stroke:none"
         transform="matrix(1.3333333,0,0,-1.3333333,0,1120.8)" />
    </g>
    <g
       id="g58"
       transform="matrix(11.580065,0,0,11.580065,-1157.3057,-2384.2939)">
      <path
         id="path58"
         d="m 77.112,671.54 1.224,-0.21 h 0.12 l 2.088,-0.12 h 0.024 0.768 0.024 l 3.192,0.07 H 84.6 l 1.896,0.12 v 0 l 1.896,0.12 h -0.096 0.24 l -0.192,0.02 0.168,-0.02 c 0.048,0 0.12,-0.02 0.192,-0.02 h 0.12 v 0 h 0.144 c 0.072,0 0.144,0 0.216,0.02 l 0.12,0.02 H 89.28 l 0.144,0.03 -0.096,-0.03 0.288,0.03 h -0.144 l 0.6,-0.03 h 0.024 l 1.224,-0.04 c 0.336,-0.03 0.648,0.09 0.864,0.36 l 0.024,0.02 c 0.336,0.36 0.384,0.89 0.12,1.32 -0.264,0.41 -0.768,0.62 -1.224,0.48 -0.48,-0.14 -0.816,-0.58 -0.816,-1.08 v 0 c 0,-0.62 0.504,-1.1 1.104,-1.1 0.6,0 1.104,0.48 1.104,1.1 v 0 c 0,0.46 -0.264,0.86 -0.696,1.03 -0.432,0.19 -0.912,0.07 -1.2,-0.26 l -0.024,-0.03 0.84,0.36 -1.248,0.03 v 0 l -0.6,0.05 c -0.048,0 -0.096,0 -0.144,-0.03 l -0.288,-0.02 -0.096,-0.03 h -0.144 l -0.048,-0.02 -0.12,-0.02 0.24,0.02 h -0.144 v 0 h -0.12 l 0.192,-0.02 -0.144,0.04 c -0.072,0 -0.144,0 -0.216,0 h -0.24 -0.072 l -1.896,-0.19 h 0.024 l -1.896,-0.14 h 0.024 l -3.192,-0.15 0.048,0.03 -0.768,-0.03 h 0.024 -2.088 0.048 l -1.248,0.08 c -0.456,0.02 -0.864,-0.34 -0.912,-0.8 -0.048,-0.48 0.264,-0.88 0.72,-0.96 z"
         style="fill:#000000;fill-opacity:1;fill-rule:nonzero;stroke:none"
         transform="matrix(1.3333333,0,0,-1.3333333,0,1120.8)" />
    </g>
    <g
       id="g59"
       transform="matrix(11.580065,0,0,11.580065,-1157.3057,-2384.2939)">
      <path
         id="path59"
         d="m 76.272,671.83 0.024,-0.09 c 0.048,-0.12 0.096,-0.24 0.168,-0.34 l 0.072,-0.1 -0.144,0.24 0.024,-0.04 c 0.024,-0.05 0.048,-0.1 0.072,-0.17 l 0.072,-0.12 0.072,-0.07 0.024,-0.08 0.072,-0.07 0.168,-0.19 -0.072,0.1 0.24,-0.34 v 0.02 l 0.168,-0.24 0.024,-0.04 0.168,-0.22 0.048,-0.05 0.192,-0.21 v 0 l 0.192,-0.22 0.048,-0.02 0.216,-0.22 0.048,-0.05 0.216,-0.17 v 0 l 0.216,-0.19 0.072,-0.05 0.216,-0.14 v 0 l 0.216,-0.14 c 0.024,-0.03 0.072,-0.05 0.096,-0.08 l 0.672,-0.33 0.072,-0.03 1.128,-0.45 0.072,-0.03 0.288,-0.09 0.096,-0.03 0.312,-0.04 -0.096,0.02 0.288,-0.1 c 0.072,-0.02 0.144,-0.04 0.216,-0.04 l 0.864,-0.08 h 0.048 0.576 0.048 l 0.552,0.03 h 0.12 l 0.528,0.07 H 84.96 l 0.576,0.1 0.12,0.02 1.08,0.26 0.024,0.03 0.48,0.14 c 0.048,0 0.096,0.03 0.12,0.05 l 0.48,0.19 0.048,0.03 0.456,0.24 0.072,0.02 1.008,0.58 c 0.048,0.02 0.072,0.04 0.12,0.09 l 0.6,0.46 0.024,0.02 0.144,0.1 v 0 l 0.144,0.12 -0.072,-0.05 0.192,0.12 0.024,0.02 0.312,0.24 -0.168,-0.09 0.12,0.05 0.096,0.04 0.096,0.08 v 0 l 0.096,0.04 v 0 l 0.096,0.05 c 0.048,0.05 0.072,0.05 0.12,0.1 l 0.216,0.17 c 0.072,0.04 0.12,0.12 0.168,0.16 l 0.048,0.05 c 0.36,0.46 0.288,1.13 -0.168,1.51 -0.456,0.36 -1.128,0.29 -1.488,-0.16 l -0.048,-0.05 0.144,0.14 -0.216,-0.19 0.096,0.1 -0.096,-0.08 v 0 l -0.096,-0.07 v 0 l -0.096,-0.05 0.096,0.05 -0.12,-0.07 c -0.048,-0.02 -0.12,-0.05 -0.168,-0.1 l -0.312,-0.24 0.024,0.03 -0.168,-0.12 -0.048,-0.05 -0.144,-0.12 v 0 l -0.144,-0.12 h 0.024 l -0.6,-0.48 0.096,0.1 -1.008,-0.6 0.048,0.02 -0.456,-0.26 0.048,0.02 -0.456,-0.22 0.12,0.05 -0.48,-0.14 h 0.024 l -1.08,-0.31 0.096,0.02 -0.552,-0.1 h -0.024 l -0.528,-0.09 h 0.12 l -0.552,-0.03 h 0.048 l -0.576,-0.02 h 0.096 l -0.888,0.07 0.216,-0.05 -0.288,0.1 -0.096,0.02 -0.312,0.05 0.096,-0.02 -0.288,0.09 0.072,-0.02 -1.152,0.43 0.072,-0.02 -0.648,0.31 0.096,-0.05 -0.216,0.15 v 0 l -0.216,0.14 0.072,-0.05 -0.216,0.17 v 0 l -0.216,0.19 0.048,-0.05 -0.216,0.22 0.024,-0.05 -0.192,0.19 v 0 l -0.192,0.22 0.048,-0.05 -0.168,0.22 0.024,-0.05 -0.168,0.24 v 0.02 l -0.264,0.32 -0.072,0.09 -0.168,0.17 0.024,-0.02 -0.048,0.04 0.096,-0.09 -0.072,0.12 0.048,-0.12 -0.024,0.07 c -0.048,0.07 -0.096,0.12 -0.144,0.19 l -0.072,0.1 0.192,-0.31 -0.048,0.07 c -0.144,0.45 -0.624,0.72 -1.08,0.6 -0.456,-0.12 -0.744,-0.6 -0.648,-1.06 z"
         style="fill:#000000;fill-opacity:1;fill-rule:nonzero;stroke:none"
         transform="matrix(1.3333333,0,0,-1.3333333,0,1120.8)" />
    </g>
    <g
       id="g60"
       transform="matrix(11.580065,0,0,11.580065,-1157.3057,-2384.2939)">
      <path
         id="path60"
         d="m 89.544,672.12 0.024,-0.36 v -0.07 l 0.024,-0.17 v 0 l 0.024,-0.19 v 0 l 0.024,-0.17 0.024,-0.12 0.048,-0.17 v -0.05 l 0.048,-0.14 v 0.02 l 0.048,-0.16 v -0.05 l 0.12,-0.36 c 0.024,-0.07 0.072,-0.15 0.096,-0.19 l 0.12,-0.17 v 0 l 0.096,-0.15 0.048,-0.07 0.096,-0.12 v 0 l 0.288,-0.36 v 0 l 0.288,-0.36 -0.12,0.22 0.024,-0.05 c 0.024,-0.07 0.072,-0.14 0.12,-0.22 l 0.024,-0.02 v 0 l 0.024,-0.05 c 0.168,-0.19 0.408,-0.31 0.672,-0.31 h 0.024 l -0.672,0.31 0.024,-0.02 c 0.048,-0.07 0.144,-0.15 0.216,-0.19 l 0.048,-0.03 -0.216,0.19 0.024,-0.02 -0.192,0.53 v -0.03 c 0,-0.21 0.096,-0.45 0.264,-0.62 0.144,-0.14 0.36,-0.24 0.6,-0.24 h 0.048 l -0.456,0.12 0.048,-0.02 -0.408,0.74 v -0.02 c 0,-0.24 0.096,-0.46 0.24,-0.63 0.168,-0.17 0.384,-0.26 0.624,-0.26 h 0.048 l -0.456,0.14 0.048,-0.02 v 0 l 0.048,-0.05 c 0.144,-0.07 0.288,-0.12 0.456,-0.12 h 0.048 v 0 h 0.048 v 0 h 0.048 v 0 h 0.024 v 0 h 0.048 v 0 h 0.024 v 0 h 0.024 v 0 h 0.048 v 0 H 92.4 c 0.264,0 0.528,0.12 0.672,0.31 l 0.024,0.03 -0.672,-0.32 h 0.048 c 0.264,0 0.504,0.12 0.672,0.32 l 0.024,0.02 v 0 l 0.024,0.05 -0.672,-0.31 h 0.048 c 0.264,0 0.504,0.09 0.672,0.31 l 0.048,0.02 -0.696,-0.31 h 0.024 c 0.168,0 0.312,0.05 0.456,0.12 l 0.048,0.02 c 0.096,0.08 0.168,0.12 0.216,0.2 l 0.048,0.02 c 0.12,0.17 0.192,0.36 0.192,0.55 v 0.05 l -0.432,-0.74 0.048,0.02 -0.456,-0.12 h 0.024 c 0.264,0 0.528,0.12 0.672,0.31 l 0.048,0.03 c 0.048,0.07 0.096,0.14 0.12,0.24 l 0.024,0.04 -0.12,-0.21 0.024,0.02 -0.696,-0.31 h 0.024 c 0.36,0 0.672,0.22 0.816,0.53 l 0.024,0.07 c 0.048,0.1 0.072,0.22 0.072,0.31 v 0.05 l -0.192,-0.55 0.024,0.02 v 0 l 0.024,0.03 c 0.12,0.16 0.192,0.36 0.192,0.55 v 0.07 l -0.192,-0.55 0.024,0.02 v 0 l 0.024,0.03 c 0.12,0.16 0.192,0.36 0.192,0.55 v 0.07 0 0.02 0 0.03 l -0.072,-0.34 0.024,0.07 c 0.048,0.1 0.072,0.22 0.072,0.34 v 0.12 0.1 l -0.024,0.14 v -0.14 0.12 c 0.024,0.07 0,0.12 0,0.19 l -0.024,0.12 v -0.05 l -0.024,0.17 c 0,0.05 0,0.07 -0.024,0.12 l -0.024,0.17 v -0.15 0.15 c 0,0.07 -0.024,0.14 -0.048,0.19 l -0.048,0.12 0.024,-0.05 -0.048,0.14 -0.024,0.08 -0.048,0.12 v 0 l -0.048,0.12 c 0,0.02 -0.024,0.09 -0.048,0.12 l -0.072,0.14 v 0 l -0.072,0.12 v 0 l -0.144,0.24 c -0.024,0.07 -0.072,0.12 -0.144,0.17 l -0.144,0.17 0.168,-0.24 -0.048,0.09 c -0.144,0.31 -0.456,0.53 -0.816,0.53 -0.36,0.02 -0.696,-0.14 -0.864,-0.46 -0.192,-0.31 -0.192,-0.69 0,-0.98 l 0.048,-0.1 c 0.072,-0.12 0.144,-0.19 0.264,-0.26 l 0.168,-0.14 -0.24,0.26 0.144,-0.24 0.024,-0.02 0.072,-0.12 v 0 l 0.072,-0.1 -0.072,0.12 0.072,-0.12 v 0 l 0.048,-0.12 -0.024,0.07 0.048,-0.14 0.024,-0.07 0.048,-0.12 -0.072,0.19 0.048,-0.15 c 0,-0.04 0.024,-0.09 0.024,-0.14 l 0.048,-0.12 -0.024,0.12 0.024,-0.14 v -0.05 l 0.048,-0.12 -0.024,0.17 v -0.12 c 0,-0.05 0,-0.1 0.024,-0.12 l 0.024,-0.15 -0.024,0.17 v -0.12 l 0.072,0.31 -0.024,-0.05 c -0.048,-0.12 -0.072,-0.21 -0.072,-0.33 v -0.03 0 -0.02 0 -0.07 l 0.192,0.55 -0.024,-0.02 v 0 l -0.024,-0.05 c -0.12,-0.15 -0.192,-0.34 -0.192,-0.53 v -0.07 l 0.192,0.55 -0.024,-0.02 v 0 l -0.024,-0.05 c -0.12,-0.15 -0.192,-0.34 -0.192,-0.53 v -0.05 l 0.072,0.34 -0.024,-0.05 0.792,0.53 h -0.024 c -0.264,0 -0.504,-0.12 -0.672,-0.31 l -0.024,-0.03 c -0.048,-0.07 -0.096,-0.14 -0.12,-0.24 l -0.024,-0.05 0.12,0.22 -0.024,-0.02 0.672,0.31 h -0.024 c -0.168,0 -0.312,-0.05 -0.456,-0.12 l -0.048,-0.05 c -0.264,-0.14 -0.408,-0.43 -0.408,-0.72 v -0.05 l 0.192,0.55 -0.024,-0.02 0.216,0.19 -0.048,-0.02 0.456,0.12 h -0.024 c -0.264,0 -0.504,-0.12 -0.672,-0.31 l -0.024,-0.03 0.672,0.31 H 92.52 c -0.264,0 -0.504,-0.12 -0.672,-0.31 l -0.024,-0.05 v 0 l -0.024,-0.02 0.672,0.34 h -0.048 c -0.264,0 -0.504,-0.12 -0.672,-0.34 l -0.024,-0.02 0.672,0.31 h -0.024 v 0 h -0.048 v 0 h -0.024 v 0 H 92.28 v 0 h -0.048 v 0 h -0.024 v 0 H 92.16 v 0 h -0.048 v 0 h -0.048 l 0.456,-0.12 -0.048,0.02 v 0 l -0.048,0.05 c -0.144,0.07 -0.288,0.12 -0.456,0.12 H 91.92 l 0.864,-0.86 V 669 c 0,0.29 -0.144,0.58 -0.408,0.72 l -0.048,0.05 c -0.144,0.07 -0.288,0.12 -0.456,0.12 h -0.048 l 0.864,-0.87 v 0.03 c 0,0.21 -0.072,0.41 -0.192,0.55 l -0.024,0.02 c -0.048,0.1 -0.144,0.15 -0.216,0.2 l -0.048,0.02 0.216,-0.17 -0.024,0.03 c -0.168,0.19 -0.408,0.31 -0.672,0.31 h -0.024 l 0.672,-0.31 -0.024,0.02 v 0 l -0.024,0.02 0.12,-0.21 -0.024,0.07 c -0.024,0.07 -0.072,0.14 -0.12,0.22 l -0.288,0.36 v 0 l -0.288,0.36 v 0 l -0.096,0.12 0.048,-0.1 -0.096,0.17 v 0 l -0.096,0.14 0.096,-0.19 -0.12,0.36 v -0.05 l -0.048,0.17 v 0.05 l -0.072,0.14 0.024,-0.05 -0.048,0.2 0.024,-0.12 -0.024,0.19 v 0 l -0.024,0.17 v 0 l -0.024,0.19 v -0.05 l -0.048,0.36 c -0.024,0.46 -0.432,0.79 -0.888,0.77 -0.456,-0.05 -0.792,-0.43 -0.792,-0.89 z"
         style="fill:#000000;fill-opacity:1;fill-rule:nonzero;stroke:none"
         transform="matrix(1.3333333,0,0,-1.3333333,0,1120.8)" />
    </g>
  </g>
</svg>
