<svg width="17.059" height="19.622" version="1.1" viewBox="0 0 17.059 19.622" xmlns="http://www.w3.org/2000/svg">
 <g transform="translate(-249.36 -115.55)">
  <path transform="matrix(1.3333,0,0,-1.3333,0,1120.8)" d="m188.83 749.88 0.15 0.12c0.12 0.07 0.21 0.17 0.28 0.26l0.08 0.12 0.04 0.05 0.05 0.1-0.05-0.05 0.1 0.1-0.1-0.1 0.1 0.1-0.12-0.1 0.1 0.07 0.09 0.1 0.12 0.09 0.07 0.1-0.12-0.12 0.12 0.1-0.07-0.08 0.22 0.2 0.21 0.14-0.14-0.1 0.19 0.12 0.1 0.05 0.21 0.12-0.12-0.05 0.51 0.24c0.05 0.05 0.09 0.08 0.14 0.12l0.1 0.05-0.46-0.19 0.1 0.02c0.12 0 0.21 0.05 0.31 0.1l0.1 0.02-0.32-0.09 0.12 0.02 0.05 0.03 0.1 0.02-0.05-0.02 0.12 0.02 0.05 0.02h0.09l0.1 0.03-0.29-0.03h0.55l-0.28 0.03 0.07-0.03h0.07l0.12-0.02-0.07 0.02 0.09-0.02 0.24-0.07-0.12 0.05 0.1-0.05-0.1 0.02 0.15-0.05 0.09-0.04 0.12-0.05-0.28 0.14 0.09-0.05h-0.02l0.12-0.09 0.12-0.07 0.12-0.08 0.12-0.07-0.15 0.07 0.12-0.07-0.09 0.07 0.09-0.09 0.1-0.07-0.1 0.09 0.1-0.12-0.02 0.03 0.07-0.1-0.03 0.02 0.2-0.28-0.05 0.09 0.21-0.41 0.24-0.4-0.07 0.14 0.17-0.48v0.05l0.36-1.06 0.02-0.05 0.41-1.05v-0.03l0.24-0.55 0.22-0.55 0.02-0.07 0.27-0.53 0.04-0.1 0.29-0.5 0.03-0.02 0.33-0.53 0.05-0.05 0.89-1.22 0.07-0.1 0.12-0.14c0.46-0.53 1.25-0.6 1.75-0.15 0.53 0.46 0.6 1.23 0.15 1.75l-0.15 0.17 0.05-0.07-0.89 1.22 0.05-0.07-0.34 0.51 0.03-0.05-0.29 0.53 0.05-0.1-0.27 0.53 0.03-0.07-0.22 0.55-0.24 0.55-0.41 1.06 0.03-0.05-0.39 1.05-0.02 0.05-0.19 0.46-0.05 0.14-0.24 0.43-0.24 0.41-0.07 0.1-0.19 0.29-0.05 0.04-0.05 0.1-0.02 0.02-0.1 0.12-0.1 0.1-0.09 0.1-0.1 0.09-0.09 0.07-0.12 0.1-0.15 0.1-0.09 0.04-0.12 0.08 0.12-0.08-0.15 0.12-0.09 0.05c-0.08 0.07-0.17 0.12-0.27 0.17l-0.12 0.02 0.1-0.02-0.15 0.05-0.09 0.05-0.12 0.04-0.12 0.05-0.24 0.07h-0.05l-0.1 0.03h-0.04l-0.12 0.02h0.04l-0.07 0.03c-0.09 0-0.19 0.02-0.29 0.02h-0.55c-0.09 0-0.19-0.02-0.29-0.05l-0.09-0.02-0.1-0.03h0.07l-0.12-0.02h-0.07l-0.07-0.02h0.05l-0.12-0.03c-0.1-0.02-0.19-0.05-0.29-0.09l-0.1-0.05 0.29 0.09-0.12-0.02c-0.17-0.02-0.31-0.1-0.45-0.22l-0.1-0.07 0.17 0.12-0.48-0.26-0.12-0.07-0.22-0.15 0.07 0.05-0.19-0.12c-0.05-0.02-0.09-0.07-0.14-0.1l-0.19-0.16-0.03-0.03-0.21-0.17-0.12-0.12-0.1-0.12c-0.02-0.02-0.07-0.07-0.1-0.12l-0.07-0.09 0.1 0.12-0.07-0.1-0.1-0.09-0.1-0.12-0.07-0.1-0.05-0.1-0.04-0.12-0.05-0.09-0.05-0.1 0.05 0.1-0.05-0.12c-0.17-0.27-0.17-0.6-0.05-0.89l0.07-0.19c0.1-0.24 0.32-0.43 0.58-0.53 0.26-0.07 0.55-0.02 0.79 0.12z"/>
  <path transform="matrix(1.3333,0,0,-1.3333,0,1120.8)" d="m188.83 749.57h0.03l-0.39-0.05h0.1l0.12-0.02-0.22 0.04 0.1-0.02c0.07-0.02 0.12-0.05 0.21-0.05h0.08l-0.17 0.03 0.12-0.03 0.12-0.02-0.24 0.07 0.09-0.05c0.08-0.02 0.15-0.07 0.24-0.07l0.12-0.02-0.24 0.07 0.1-0.05c0.05-0.02 0.12-0.05 0.17-0.07l0.09-0.03-0.24 0.1 0.12-0.07 0.17-0.12-0.02 0.02 0.12-0.09 0.14-0.1-0.14 0.12 0.12-0.12 0.07-0.05 0.12-0.12-0.12 0.12 0.12-0.14c0.02-0.05 0.07-0.1 0.12-0.12l0.12-0.1-0.14 0.15 0.26-0.34-0.05 0.05 0.24-0.36-0.05 0.09 0.2-0.4 0.21-0.39v-0.02l0.19-0.39-0.04 0.12 0.4-1.03v0.05l0.27-0.82 0.02-0.12 1.01-2.16 0.05-0.09 0.14-0.22-0.02 0.03 0.14-0.24c0.03-0.1 0.07-0.15 0.12-0.22l0.19-0.19-0.07 0.09 0.17-0.24 0.07-0.09 0.17-0.22 0.48-0.48 0.41-0.36 0.07-0.05 0.26-0.21 0.08-0.05 0.31-0.22h0.02l0.29-0.19 0.05-0.02 0.31-0.19 0.1-0.05 0.96-0.43 0.07-0.03 0.29-0.09c0.36-0.12 0.76-0.05 1.05 0.21 0.31 0.24 0.43 0.65 0.36 1.03-0.07 0.39-0.36 0.7-0.72 0.82l-0.29 0.07 0.1-0.02-0.94 0.41 0.08-0.05-0.32 0.17h0.03l-0.31 0.16h0.02l-0.31 0.2 0.05-0.05-0.29 0.21 0.09-0.07-0.43 0.39-0.19 0.16 0.07-0.07-0.17 0.19-0.19 0.22 0.07-0.1-0.16 0.22-0.08 0.1-0.19 0.21 0.15-0.19-0.15 0.24-0.02 0.05-0.15 0.24 0.05-0.1-1.01 2.16 0.03-0.09-0.27 0.79-0.02 0.05-0.43 1.03-0.05 0.14-0.22 0.36v-0.02l-0.21 0.38-0.22 0.39-0.05 0.09-0.26 0.36-0.05 0.05-0.24 0.34c-0.05 0.04-0.12 0.12-0.19 0.16l-0.12 0.08 0.14-0.12-0.12 0.12c-0.02 0.04-0.07 0.09-0.12 0.12l-0.14 0.12 0.07-0.08-0.12 0.12c-0.05 0.05-0.09 0.1-0.14 0.12l-0.15 0.1-0.14 0.07v0.03l-0.19 0.09-0.03 0.03-0.12 0.04c-0.09 0.05-0.16 0.1-0.26 0.12h-0.1l0.2-0.04-0.1 0.04c-0.07 0.03-0.14 0.05-0.22 0.05l-0.12 0.03 0.22-0.08-0.1 0.05c-0.07 0.03-0.14 0.05-0.21 0.07l-0.12 0.03h-0.12c-0.05 0.02-0.12 0.02-0.19 0.02h-0.08l0.22-0.02-0.1 0.02c-0.07 0-0.14 0.03-0.21 0h-0.22l0.39-0.07-0.03 0.02c-0.38 0.15-0.79 0.03-1.03-0.28-0.26-0.34-0.26-0.77 0-1.08 0.24-0.34 0.65-0.44 1.03-0.29z"/>
  <path transform="matrix(1.3333,0,0,-1.3333,0,1120.8)" d="m196.85 743.18 0.14-0.19 0.1-0.09 0.07-0.1-0.14 0.19 0.04-0.07c0.03-0.07 0.08-0.12 0.12-0.19l0.08-0.07-0.15 0.19 0.05-0.07 0.05-0.08 0.07-0.09-0.12 0.19 0.05-0.1 0.05-0.12 0.04-0.04-0.04 0.09 0.02-0.09 0.07-0.12 0.05-0.08-0.14 0.39 0.02-0.1c0-0.09 0.05-0.17 0.07-0.26l0.05-0.07-0.07 0.24 0.02-0.22-0.02 0.07 0.02-0.14v0.02l0.03-0.14v-0.03l0.02-0.14-0.02 0.19v-0.31 0.02-0.14l0.02 0.19-0.07-0.36c-0.03-0.07-0.03-0.14-0.03-0.21v-0.08l0.36 0.87-0.02-0.03c-0.22-0.24-0.36-0.52-0.36-0.86v-0.1l0.36 0.87-0.02-0.03c-0.22-0.24-0.36-0.52-0.36-0.86v-0.02l0.36 0.86-0.03-0.02 0.89 0.36h-0.02c-0.34 0-0.65-0.12-0.89-0.36s-0.36-0.56-0.36-0.87v-0.05l0.36 0.87-0.03-0.03c-0.21-0.21-0.36-0.52-0.36-0.86v-0.02l1.25 1.22h-0.05c-0.31 0-0.64-0.12-0.88-0.36l-0.03-0.02c-0.21-0.22-0.36-0.53-0.36-0.84v-0.03l0.36 0.84-0.02-0.02h0.02l-0.02-0.03 0.86 0.36h-0.05c-0.31 0-0.62-0.12-0.86-0.33l-0.02-0.03-0.03-0.02-0.02-0.02 0.89 0.36h-0.03c-0.19 0-0.38-0.03-0.55-0.12l-0.05-0.03 0.55 0.12h-0.16c-0.7 0-1.25-0.55-1.25-1.22 0-0.7 0.55-1.25 1.25-1.25h0.16c0.2 0 0.39 0.05 0.56 0.14l0.04 0.03-0.55-0.15h0.03c0.33 0 0.64 0.15 0.86 0.39l0.02 0.02h0.03l0.02 0.03-0.89-0.39h0.05c0.34 0.03 0.65 0.15 0.87 0.39l0.04 0.04c0.24 0.22 0.36 0.56 0.36 0.89v0.03l-0.36-0.89 0.03 0.02-0.87-0.38h0.05c0.34 0 0.65 0.14 0.87 0.38 0.21 0.24 0.33 0.55 0.33 0.87v0.02l-0.33-0.86 0.02 0.02c0.22 0.22 0.34 0.53 0.34 0.86v0.05l-1.2-1.25h0.02c0.31 0 0.62 0.15 0.86 0.39l0.03 0.02c0.21 0.22 0.36 0.55 0.33 0.87v0.02l-0.33-0.86h0.02c0.22 0.24 0.34 0.57 0.34 0.88v0.1l-0.34-0.86c0.24 0.24 0.36 0.55 0.36 0.88v0.08l-0.02-0.24 0.07 0.36c0 0.09 0.02 0.16 0.02 0.26l-0.02 0.14v-0.02 0.31c0 0.07-0.02 0.15-0.02 0.19l-0.03 0.15v-0.03l-0.02 0.15v0.05l-0.03 0.12-0.02 0.07-0.05 0.19c-0.02 0.1-0.07 0.22-0.12 0.31l-0.05 0.07 0.1-0.21-0.02 0.07c-0.05 0.14-0.12 0.26-0.2 0.38l-0.04 0.08 0.09-0.15-0.05 0.1-0.09 0.12-0.05 0.07 0.07-0.12-0.05 0.07c-0.02 0.07-0.07 0.12-0.09 0.17l-0.1 0.1 0.05-0.05-0.05 0.07c-0.05 0.07-0.09 0.12-0.14 0.17l-0.1 0.07 0.15-0.17-0.03 0.07c-0.05 0.05-0.12 0.1-0.17 0.15l-0.07 0.07h0.03l-0.2 0.14c-0.4 0.39-1.03 0.41-1.46 0.03-0.43-0.36-0.5-1.01-0.19-1.47z"/>
  <path transform="matrix(1.3333,0,0,-1.3333,0,1120.8)" d="m191.52 752.09-0.05 0.02c-0.36 0.15-0.77-0.02-0.91-0.36-0.14-0.33-0.02-0.74 0.31-0.91 0.34-0.19 0.75-0.1 0.94 0.24l0.02 0.05c0.12 0.17 0.15 0.36 0.07 0.55-0.04 0.19-0.19 0.36-0.38 0.41z"/>
  <path transform="matrix(1.3333,0,0,-1.3333,0,1120.8)" d="m191.59 745.97-0.24-0.19c-0.07-0.08-0.14-0.15-0.17-0.22l-0.55-0.84v0.02l-1.17-1.72v0.02l-0.2-0.29-0.07-0.09-0.41-0.65-0.02-0.07-0.02-0.05c-0.2-0.36-0.17-0.79 0.04-1.13 0.24-0.34 0.63-0.53 1.04-0.5 0.4 0.02 0.76 0.26 0.93 0.62l0.03 0.05-0.05-0.07 0.38 0.67-0.02-0.05 0.19 0.31 0.02 0.03 1.08 1.82 0.05 0.1 0.41 0.91-0.02-0.07 0.14 0.26c0.24 0.38 0.14 0.89-0.19 1.15-0.36 0.29-0.87 0.29-1.18-0.02z"/>
  <path transform="matrix(1.3333,0,0,-1.3333,0,1120.8)" d="m192.65 743.47-0.15-0.26-0.02-0.05-0.07-0.14 0.02 0.04-0.05-0.14-0.04-0.05-0.08-0.17 0.05 0.08-0.24-0.41 0.03 0.02-0.36-0.62 0.12 0.17-0.05-0.05c-0.05-0.05-0.07-0.1-0.12-0.15l-0.03-0.07c-0.26-0.41-0.16-0.96 0.24-1.22 0.41-0.29 0.99-0.17 1.25 0.24l0.05 0.05-0.12-0.12 0.05 0.04c0.07 0.05 0.12 0.1 0.14 0.17l0.39 0.63 0.02 0.02 0.22 0.43 0.04 0.1 0.08 0.14-0.03-0.05 0.07 0.15 0.03 0.05 0.05 0.16c0.04 0.1 0.07 0.22 0.07 0.32v0.28c0.02 0.39-0.24 0.75-0.63 0.84-0.38 0.1-0.76-0.09-0.93-0.43z"/>
  <path transform="matrix(1.3333,0,0,-1.3333,0,1120.8)" d="m187.87 739.82 0.27-0.04h0.04l1.25-0.17h0.07l2-0.12 0.04-0.03h2.02c0.43 0 0.84 0.24 1.06 0.63 0.21 0.36 0.21 0.84 0 1.2-0.22 0.38-0.63 0.62-1.06 0.62h-0.19l-1.87-0.09h0.04l-1.99-0.05h0.1l-1.27 0.07h-0.32c-0.52 0-0.98-0.38-1.03-0.91-0.05-0.55 0.31-1.03 0.84-1.11z"/>
 </g>
</svg>
