<?xml version="1.0" encoding="UTF-8" standalone="no"?>
<!-- Created with Inkscape (http://www.inkscape.org/) -->

<svg
   version="1.1"
   id="svg1"
   width="53"
   height="66.800003"
   viewBox="0 0 52.999999 66.800006"
   sodipodi:docname="lesson1_sentence1_word1.svg"
   inkscape:version="1.4.3 (0d15f75, 2025-12-25)"
   xmlns:inkscape="http://www.inkscape.org/namespaces/inkscape"
   xmlns:sodipodi="http://sodipodi.sourceforge.net/DTD/sodipodi-0.dtd"
   xmlns="http://www.w3.org/2000/svg"
   xmlns:svg="http://www.w3.org/2000/svg">
  <defs
     id="defs1" />
  <sodipodi:namedview
     id="namedview1"
     pagecolor="#ffffff"
     bordercolor="#000000"
     borderopacity="0.25"
     inkscape:showpageshadow="2"
     inkscape:pageopacity="0.0"
     inkscape:pagecheckerboard="0"
     inkscape:deskcolor="#d1d1d1"
     inkscape:zoom="9.6208694"
     inkscape:cx="17.462039"
     inkscape:cy="37.470626"
     inkscape:window-width="1920"
     inkscape:window-height="1191"
     inkscape:window-x="-9"
     inkscape:window-y="-9"
     inkscape:window-maximized="1"
     inkscape:current-layer="g1">
    <inkscape:page
       x="0"
       y="0"
       inkscape:label="1"
       id="page1"
       width="53"
       height="66.800003"
       margin="0"
       bleed="0" />
  </sodipodi:namedview>
  <g
     id="g1"
     inkscape:groupmode="layer"
     inkscape:label="1"
     transform="translate(-230.74518,-109.18019)">
    <g
       id="g183"
       transform="translate(4.3655098,8.8349604)">
      <path
         id="path183"
         d="m 177.67,756.14 0.51,-0.19 c 0.12,-0.05 0.26,-0.09 0.4,-0.12 l 1.64,-0.19 0.21,-0.02 2.52,-0.03 v 0 l 1.75,-0.02 v 0 l 2.43,-0.03 h 0.05 l 3.57,0.08 h -0.05 6.05 -0.14 l 0.89,-0.08 -0.1,0.03 0.91,-0.12 0.22,-0.03 h 0.07 c 0.82,0 1.58,0.44 1.99,1.13 0.41,0.7 0.41,1.59 0,2.28 -0.41,0.72 -1.17,1.15 -1.99,1.13 h -0.07 0.19 l -0.91,0.05 h -0.1 l -0.91,0.02 h -0.14 c -8.02533,-0.0756 -9.61199,0.17743 -17.99714,-0.22613 C 177.387,759.77447 176.93,759.24 176.62,758.35 c -0.29,-0.91 0.16,-1.87 1.05,-2.21 z"
         style="fill:#000000;fill-opacity:1;fill-rule:nonzero;stroke:none"
         transform="matrix(1.3333333,0,0,-1.3333333,0,1120.8)"
         sodipodi:nodetypes="cccccccccccccccccccscccccccccccc" />
    </g>
    <g
       id="g184"
       transform="translate(4.3655098,8.8349604)">
      <path
         id="path184"
         d="m 180.74,757.61 -0.33,-0.48 c -0.05,-0.1 -0.1,-0.17 -0.15,-0.27 l -0.16,-0.33 -0.05,-0.19 -0.12,-0.39 v 0 l -0.12,-0.38 -0.03,-0.12 -0.09,-0.39 0.05,0.12 -0.12,-0.36 c -0.03,-0.09 -0.05,-0.19 -0.05,-0.26 l -0.05,-0.34 -0.02,-0.04 -0.03,-0.44 v 0.03 l -0.05,-0.39 v 0 L 179.38,753 v -0.14 -0.39 -0.09 l 0.02,-0.89 v -0.17 l 0.07,-0.48 v 0 l 0.07,-0.48 v 0.02 l 0.08,-0.5 c 0,-0.12 0.02,-0.22 0.04,-0.31 l 0.15,-0.41 -0.03,0.12 0.1,-0.43 0.02,-0.12 0.34,-1.01 v -0.05 l 0.12,-0.31 0.07,-0.17 0.1,-0.21 V 747 l 0.14,-0.31 0.12,-0.22 0.12,-0.21 -0.07,0.12 0.14,-0.27 v 0 l 0.15,-0.26 c 0.05,-0.07 0.12,-0.17 0.17,-0.24 l 0.19,-0.22 v 0 l 0.17,-0.21 -0.1,0.14 0.14,-0.24 c 0.08,-0.1 0.15,-0.19 0.24,-0.29 l 0.56,-0.5 0.09,-0.1 0.31,-0.26 -0.07,0.07 0.29,-0.26 0.19,-0.15 0.34,-0.24 -0.05,0.05 0.36,-0.26 0.02,-0.05 0.34,-0.22 0.22,-0.12 0.36,-0.19 v 0 l 0.36,-0.17 v 0 l 0.36,-0.19 c 0.09,-0.05 0.21,-0.1 0.33,-0.12 l 0.36,-0.1 -0.12,0.05 0.39,-0.14 0.14,-0.05 0.36,-0.1 h 0.02 l 0.41,-0.09 0.17,-0.03 0.36,-0.04 h 0.02 l 0.41,-0.08 h 0.19 l 0.39,-0.02 v 0 h 0.36 0.26 l 1.11,0.12 0.21,0.05 0.34,0.07 h -0.05 l 0.38,0.07 c 0.08,0.03 0.17,0.05 0.24,0.07 l 0.34,0.12 0.12,0.05 0.36,0.17 0.07,0.05 0.34,0.17 v 0 l 0.33,0.14 0.08,0.05 0.28,0.17 0.1,0.04 0.31,0.22 0.1,0.05 0.29,0.21 0.14,0.1 0.29,0.26 v 0 l 0.31,0.24 v 0 l 0.29,0.27 0.17,0.17 0.69,0.76 0.17,0.2 0.14,0.21 v 0 l 0.15,0.19 0.02,0.05 0.12,0.17 0.1,0.17 0.12,0.21 0.05,0.12 0.12,0.27 -0.05,-0.15 0.09,0.22 v 0 l 0.12,0.22 0.05,0.14 0.12,0.24 0.05,0.12 0.1,0.24 0.04,0.17 0.08,0.29 -0.05,-0.17 0.07,0.21 c 0.05,0.1 0.07,0.24 0.1,0.36 l 0.02,0.24 v 0 l 0.05,0.27 -0.05,-0.27 0.07,0.27 c 0.05,0.17 0.07,0.36 0.07,0.55 v 0.24 0 l 0.03,0.26 v 0 0.6 0 0.29 0 0.27 0 0.28 0 l 0.02,0.32 c 0,0.09 -0.02,0.19 -0.02,0.28 l -0.05,0.24 -0.02,0.22 -0.08,0.29 0.05,-0.19 -0.05,0.24 c 0,0.09 -0.02,0.19 -0.04,0.28 l -0.08,0.24 0.03,-0.07 -0.07,0.31 -0.03,0.08 -0.07,0.26 0.02,-0.07 -0.07,0.29 c -0.05,0.24 -0.14,0.45 -0.29,0.67 l -0.14,0.21 0.19,-0.36 -0.09,0.27 -0.1,0.19 -0.34,0.62 v -0.02 l -0.38,0.74 h -0.02 l -0.05,0.15 0.09,-0.22 -0.09,0.19 -0.1,0.2 -0.05,0.14 -0.07,0.1 -0.12,0.16 0.07,-0.09 -0.07,0.12 c -0.07,0.12 -0.14,0.21 -0.21,0.33 l -0.12,0.12 c -0.08,0.12 -0.17,0.2 -0.29,0.29 l -0.12,0.07 0.29,-0.26 -0.22,0.26 c -0.14,0.17 -0.31,0.32 -0.5,0.44 l -0.08,0.04 c -0.64,0.39 -1.44,0.39 -2.08,0.03 -0.65,-0.36 -1.06,-1.06 -1.06,-1.8 0,-0.75 0.38,-1.44 1.03,-1.8 l 0.07,-0.05 -0.52,0.46 0.21,-0.27 c 0.1,-0.12 0.22,-0.21 0.34,-0.29 l 0.09,-0.09 -0.31,0.29 0.12,-0.12 -0.24,0.31 0.1,-0.15 0.05,-0.07 0.09,-0.17 -0.05,0.1 0.08,-0.14 -0.1,0.21 0.07,-0.17 0.1,-0.21 0.09,-0.12 -0.02,0.02 0.41,-0.72 v 0 l 0.33,-0.6 -0.09,0.17 0.12,-0.24 c 0.05,-0.12 0.12,-0.24 0.19,-0.36 l 0.14,-0.22 -0.31,0.68 0.1,-0.29 v -0.1 l 0.09,-0.24 -0.02,0.07 0.07,-0.28 0.03,-0.1 0.07,-0.24 -0.05,0.26 0.02,-0.26 0.05,-0.19 0.07,-0.29 -0.02,0.19 0.02,-0.26 -0.02,0.29 v -0.32 0 l 0.02,-0.28 v 0 -0.27 0 -0.29 0 -0.6 0 -0.26 0 -0.24 l 0.08,0.53 -0.08,-0.27 c -0.02,-0.07 -0.02,-0.16 -0.04,-0.26 l -0.03,-0.24 v 0 l -0.05,-0.26 0.1,0.36 -0.07,-0.22 -0.05,-0.17 -0.07,-0.31 0.05,0.17 -0.08,-0.22 0.05,0.15 -0.09,-0.24 0.04,0.12 -0.09,-0.22 v 0 l -0.12,-0.24 -0.05,-0.12 -0.12,-0.24 0.07,0.12 -0.12,-0.22 0.1,0.15 -0.12,-0.17 0.05,0.07 -0.15,-0.21 v 0 l -0.14,-0.22 0.17,0.22 -0.7,-0.8 0.14,0.15 -0.28,-0.27 v 0 l -0.29,-0.26 v 0 l -0.29,-0.24 0.14,0.1 -0.31,-0.22 0.1,0.07 -0.31,-0.21 0.04,0.02 -0.28,-0.17 0.09,0.05 -0.33,-0.17 v 0 l -0.32,-0.19 0.08,0.05 -0.36,-0.17 0.09,0.02 -0.31,-0.12 0.24,0.1 -0.36,-0.1 -0.05,-0.02 -0.33,-0.1 0.28,0.08 -1.1,-0.15 h 0.17 -0.36 v 0 h -0.39 l 0.2,-0.02 -0.41,0.05 h 0.02 l -0.38,0.02 0.19,-0.02 -0.41,0.07 h 0.03 l -0.36,0.07 0.14,-0.02 -0.41,0.12 -0.14,0.02 -0.39,0.07 0.36,-0.09 -0.36,0.14 v 0 l -0.38,0.17 v 0 l -0.36,0.17 0.22,-0.12 -0.34,0.21 0.05,-0.05 -0.36,0.27 -0.05,0.02 -0.34,0.22 0.2,-0.15 -0.32,0.24 -0.07,0.08 -0.31,0.24 0.12,-0.12 -0.55,0.5 0.24,-0.24 -0.17,0.22 -0.1,0.12 -0.19,0.21 v 0 l -0.19,0.22 0.19,-0.27 -0.14,0.27 v 0 l -0.17,0.24 -0.07,0.12 -0.15,0.21 0.12,-0.21 -0.14,0.31 -0.02,0.02 -0.1,0.22 0.07,-0.19 -0.12,0.29 0.05,-0.08 -0.34,1.04 0.03,-0.1 -0.12,0.43 -0.05,0.12 -0.14,0.43 0.07,-0.28 -0.07,0.5 v 0.02 l -0.1,0.48 v 0 l -0.07,0.46 0.02,-0.19 -0.05,0.91 v -0.05 0.39 -0.17 l 0.03,0.38 v 0 l 0.02,0.41 v 0 l 0.03,0.43 v -0.02 l 0.02,0.33 -0.02,-0.26 0.09,0.38 0.03,0.15 0.07,0.38 -0.05,-0.14 0.12,0.38 v 0 l 0.1,0.41 -0.05,-0.19 0.12,0.33 v -0.02 l 0.24,0.53 c 0.29,0.69 0.02,1.49 -0.63,1.85 -0.64,0.38 -1.48,0.19 -1.92,-0.41 z"
         style="fill:#000000;fill-opacity:1;fill-rule:nonzero;stroke:none"
         transform="matrix(1.3333333,0,0,-1.3333333,0,1120.8)" />
    </g>
    <g
       id="g185"
       transform="translate(1.1433478,6.7561462)">
      <path
         id="path185"
         d="m 174.91,729.41 2.62,-0.43 0.24,-0.03 4.46,-0.21 h 0.07 l 1.61,-0.03 h 0.1 l 6.84,0.17 h 0.09 l 4.06,0.24 h 0.02 l 4.06,0.29 h -0.19 l 0.5,-0.03 -0.38,0.05 0.31,-0.07 c 0.12,-0.02 0.26,-0.02 0.41,-0.02 h 0.26 v 0 l 0.31,-0.03 c 0.17,0 0.32,0.03 0.48,0.07 l 0.27,0.05 -0.07,-0.02 0.31,0.05 -0.19,-0.03 0.62,0.07 -0.31,-0.02 1.29,-0.05 v 0 l 2.64,-0.12 c 0.7,-0.05 1.4,0.24 1.88,0.77 l 0.04,0.05 c 0.7,0.77 0.82,1.94 0.27,2.83 -0.55,0.91 -1.66,1.32 -2.67,1.03 -1,-0.29 -1.72,-1.22 -1.72,-2.28 v -0.05 c 0,-1.29 1.08,-2.35 2.37,-2.35 1.3,0 2.35,1.06 2.38,2.35 v 0.05 c 0,0.99 -0.6,1.85 -1.51,2.21 -0.89,0.36 -1.92,0.14 -2.6,-0.58 l -0.04,-0.04 1.82,0.74 -2.66,0.1 v 0 l -1.3,0.04 c -0.1,0 -0.22,0 -0.31,0 l -0.63,-0.07 -0.21,-0.02 -0.31,-0.07 h -0.08 l -0.26,-0.08 0.5,0.08 h -0.31 v 0 l -0.26,-0.03 0.41,-0.02 -0.32,0.05 c -0.14,0.02 -0.28,0.04 -0.43,0.04 h -0.5 l -0.19,-0.02 -4.06,-0.38 h 0.05 l -4.06,-0.32 h 0.07 l -6.84,-0.28 h 0.05 l -1.61,-0.03 h 0.05 -4.49 0.1 l -2.64,0.15 c -1.01,0.04 -1.87,-0.7 -1.97,-1.71 -0.12,-0.98 0.58,-1.89 1.56,-2.06 z"
         style="fill:#000000;fill-opacity:1;fill-rule:nonzero;stroke:none"
         transform="matrix(1.3333333,0,0,-1.3333333,0,1120.8)" />
    </g>
    <g
       id="g186"
       transform="translate(1.1433478,6.7561462)">
      <path
         id="path186"
         d="m 173.11,730.03 0.05,-0.21 c 0.07,-0.27 0.19,-0.51 0.34,-0.72 l 0.16,-0.2 -0.28,0.53 0.04,-0.12 c 0.03,-0.12 0.08,-0.24 0.15,-0.33 l 0.14,-0.27 0.12,-0.19 0.1,-0.12 0.14,-0.17 0.36,-0.38 -0.14,0.17 0.5,-0.7 -0.02,0.02 0.38,-0.52 0.07,-0.1 0.36,-0.43 0.08,-0.12 0.4,-0.46 v 0 l 0.44,-0.43 0.07,-0.1 0.48,-0.45 0.09,-0.1 0.48,-0.38 v 0 l 0.46,-0.39 0.14,-0.09 0.46,-0.34 v 0 l 0.46,-0.31 c 0.09,-0.05 0.16,-0.1 0.24,-0.14 l 1.41,-0.7 0.15,-0.07 2.44,-0.99 0.12,-0.04 0.63,-0.2 0.21,-0.04 0.7,-0.15 -0.24,0.07 0.62,-0.21 c 0.17,-0.05 0.32,-0.07 0.48,-0.1 l 1.88,-0.12 0.09,-0.02 h 1.2 0.12 l 1.18,0.02 0.24,0.03 1.15,0.16 v 0 l 1.18,0.17 0.26,0.05 2.33,0.62 0.05,0.03 1.05,0.29 c 0.1,0.02 0.17,0.07 0.27,0.09 l 0.98,0.43 0.12,0.05 0.98,0.51 0.12,0.07 2.19,1.25 c 0.09,0.04 0.17,0.12 0.26,0.16 l 1.3,1.01 0.02,0.03 0.31,0.26 v 0 l 0.32,0.24 -0.12,-0.1 0.36,0.27 0.07,0.05 0.69,0.5 -0.4,-0.24 0.26,0.12 0.19,0.1 0.22,0.14 v 0 l 0.21,0.12 v 0 l 0.2,0.12 c 0.09,0.05 0.19,0.12 0.28,0.19 l 0.46,0.39 c 0.12,0.09 0.24,0.21 0.34,0.33 l 0.12,0.12 c 0.79,0.99 0.62,2.4 -0.34,3.22 -0.98,0.79 -2.42,0.62 -3.22,-0.34 l -0.09,-0.12 0.31,0.31 -0.48,-0.4 0.24,0.16 -0.22,-0.12 v 0 l -0.19,-0.14 v 0 l -0.21,-0.12 0.19,0.1 -0.24,-0.12 c -0.15,-0.08 -0.24,-0.15 -0.36,-0.22 l -0.67,-0.53 0.04,0.05 -0.36,-0.26 -0.12,-0.1 -0.31,-0.26 v 0 l -0.31,-0.27 0.05,0.03 -1.3,-1.04 0.27,0.2 -2.19,-1.3 0.1,0.05 -0.99,-0.53 0.1,0.05 -0.98,-0.46 0.26,0.1 -1.03,-0.34 0.07,0.03 -2.33,-0.68 0.19,0.05 -1.17,-0.21 h -0.03 l -1.12,-0.22 0.21,0.05 -1.17,-0.1 h 0.09 l -1.2,-0.02 h 0.19 l -1.89,0.12 0.45,-0.07 -0.62,0.19 -0.22,0.05 -0.67,0.12 0.22,-0.05 -0.63,0.17 0.15,-0.05 -2.45,0.96 0.17,-0.1 -1.39,0.7 0.21,-0.12 -0.45,0.31 v 0 l -0.48,0.31 0.14,-0.09 -0.48,0.38 v 0 l -0.46,0.38 0.12,-0.09 -0.48,0.43 0.08,-0.07 -0.41,0.45 v 0 l -0.41,0.44 0.07,-0.1 -0.36,0.46 0.07,-0.12 -0.36,0.52 -0.02,0.03 -0.53,0.69 -0.17,0.2 -0.36,0.38 0.05,-0.07 -0.09,0.12 0.16,-0.24 -0.14,0.26 0.12,-0.24 -0.05,0.12 c -0.09,0.17 -0.19,0.34 -0.29,0.46 l -0.16,0.19 0.38,-0.7 -0.07,0.2 c -0.31,0.98 -1.32,1.56 -2.33,1.29 -0.98,-0.29 -1.61,-1.29 -1.37,-2.28 z"
         style="fill:#000000;fill-opacity:1;fill-rule:nonzero;stroke:none"
         transform="matrix(1.3333333,0,0,-1.3333333,0,1120.8)" />
    </g>
    <g
       id="g187"
       transform="translate(1.1433478,6.7561462)">
      <path
         id="path187"
         d="m 201.58,730.68 0.02,-0.77 v -0.19 l 0.05,-0.38 v 0 l 0.05,-0.39 v 0 l 0.04,-0.38 0.05,-0.22 0.12,-0.38 v -0.1 l 0.12,-0.31 -0.02,0.07 0.09,-0.38 0.05,-0.12 0.24,-0.77 c 0.05,-0.14 0.12,-0.29 0.22,-0.41 l 0.19,-0.33 v 0 l 0.22,-0.32 0.12,-0.16 0.21,-0.24 v 0 l 0.63,-0.77 v 0 l 0.6,-0.77 -0.27,0.48 0.05,-0.14 c 0.07,-0.17 0.17,-0.32 0.26,-0.46 l 0.08,-0.07 v 0 l 0.04,-0.07 c 0.34,-0.44 0.87,-0.68 1.42,-0.68 h 0.07 l -1.44,0.68 0.05,-0.05 c 0.12,-0.17 0.29,-0.31 0.46,-0.43 l 0.12,-0.05 -0.48,0.41 0.04,-0.08 -0.4,1.18 v -0.07 c 0,-0.48 0.19,-0.96 0.55,-1.3 0.33,-0.36 0.81,-0.55 1.29,-0.55 h 0.12 l -0.98,0.26 0.1,-0.04 -0.87,1.58 v -0.07 c 0,-0.48 0.19,-0.96 0.53,-1.32 0.36,-0.34 0.82,-0.55 1.32,-0.55 h 0.1 l -0.96,0.28 0.09,-0.07 v 0 l 0.12,-0.05 c 0.29,-0.19 0.63,-0.28 0.96,-0.28 h 0.1 0.02 0.1 v 0 h 0.09 v 0 h 0.05 v 0 h 0.12 -0.02 0.07 v 0 h 0.05 v 0 h 0.09 v 0 h 0.05 c 0.58,0 1.11,0.24 1.47,0.67 l 0.04,0.07 -1.44,-0.67 h 0.1 c 0.55,0 1.08,0.24 1.44,0.67 l 0.05,0.07 v 0 l 0.07,0.05 -1.46,-0.67 h 0.12 c 0.55,0 1.08,0.24 1.44,0.67 l 0.04,0.07 -1.44,-0.69 h 0.05 c 0.34,0 0.67,0.09 0.99,0.28 l 0.09,0.05 c 0.17,0.12 0.34,0.27 0.48,0.43 l 0.05,0.05 c 0.26,0.34 0.41,0.75 0.41,1.18 v 0.07 l -0.89,-1.58 0.12,0.07 -0.98,-0.29 h 0.04 c 0.56,0 1.08,0.24 1.44,0.7 l 0.08,0.04 c 0.09,0.15 0.19,0.32 0.26,0.48 l 0.07,0.15 -0.29,-0.48 0.05,0.05 -1.46,-0.68 h 0.05 c 0.76,0 1.46,0.46 1.75,1.16 l 0.05,0.12 c 0.09,0.24 0.14,0.45 0.14,0.69 v 0.07 l -0.43,-1.17 0.07,0.07 v 0 l 0.05,0.05 c 0.26,0.33 0.41,0.77 0.41,1.2 v 0.12 l -0.41,-1.18 0.05,0.07 v 0 l 0.04,0.05 c 0.27,0.34 0.44,0.75 0.44,1.18 v 0.12 0 0.07 0 0.07 l -0.15,-0.69 0.05,0.12 c 0.1,0.21 0.14,0.45 0.14,0.69 v 0.27 l -0.02,0.24 -0.05,0.31 0.03,-0.31 0.02,0.26 c 0,0.12 -0.02,0.26 -0.02,0.38 l -0.05,0.27 v -0.07 l -0.05,0.31 c 0,0.12 -0.02,0.19 -0.05,0.29 l -0.09,0.33 0.04,-0.29 -0.02,0.32 c -0.02,0.14 -0.05,0.28 -0.1,0.4 l -0.09,0.27 0.02,-0.12 -0.07,0.33 -0.05,0.12 -0.09,0.24 v 0 l -0.1,0.27 c -0.05,0.09 -0.1,0.21 -0.14,0.29 l -0.15,0.26 v 0 l -0.14,0.26 -0.03,0.05 -0.28,0.51 c -0.1,0.14 -0.17,0.26 -0.29,0.36 l -0.34,0.36 0.36,-0.51 -0.09,0.19 c -0.34,0.68 -1.01,1.13 -1.76,1.16 -0.76,0.02 -1.48,-0.36 -1.87,-1.01 -0.38,-0.65 -0.38,-1.47 0,-2.11 l 0.12,-0.2 c 0.15,-0.24 0.34,-0.43 0.55,-0.6 l 0.39,-0.28 -0.51,0.55 0.32,-0.51 0.02,-0.02 0.17,-0.26 v 0 l 0.17,-0.24 -0.17,0.26 0.12,-0.24 v 0 l 0.12,-0.26 -0.07,0.14 0.12,-0.31 0.07,-0.15 0.09,-0.24 -0.12,0.41 0.05,-0.31 c 0.03,-0.1 0.05,-0.19 0.07,-0.29 l 0.12,-0.31 -0.07,0.29 0.07,-0.34 v -0.07 l 0.08,-0.26 -0.05,0.38 v -0.26 c 0,-0.1 0.02,-0.2 0.05,-0.29 l 0.04,-0.31 -0.02,0.36 v -0.27 l 0.12,0.72 -0.05,-0.14 c -0.09,-0.22 -0.12,-0.46 -0.12,-0.7 v -0.07 0 -0.07 0 -0.12 l 0.41,1.2 -0.05,-0.07 v 0 l -0.05,-0.08 c -0.28,-0.33 -0.43,-0.74 -0.43,-1.17 l 0.03,-0.12 0.4,1.17 -0.04,-0.07 v 0 l -0.08,-0.07 c -0.26,-0.31 -0.4,-0.74 -0.4,-1.18 v -0.07 l 0.14,0.72 -0.05,-0.14 1.71,1.17 h -0.05 c -0.55,0 -1.08,-0.24 -1.44,-0.69 l -0.05,-0.05 c -0.12,-0.14 -0.22,-0.31 -0.29,-0.48 l -0.05,-0.12 0.29,0.46 -0.07,-0.05 1.46,0.69 h -0.04 c -0.36,0 -0.7,-0.09 -0.99,-0.28 l -0.09,-0.08 c -0.56,-0.33 -0.89,-0.93 -0.89,-1.58 v -0.07 l 0.41,1.17 -0.05,-0.04 0.48,0.4 -0.12,-0.07 0.98,0.29 h -0.05 c -0.57,0 -1.1,-0.26 -1.46,-0.7 l -0.05,-0.07 1.47,0.7 h -0.12 c -0.56,0 -1.08,-0.24 -1.44,-0.7 l -0.05,-0.05 v 0 l -0.05,-0.07 1.44,0.7 h -0.1 c -0.57,0 -1.1,-0.27 -1.46,-0.7 l -0.05,-0.07 1.44,0.7 h -0.05 v 0 h -0.09 v 0 h -0.05 v 0 h -0.07 0.02 -0.12 v 0 h -0.05 v 0 h -0.09 v 0 h -0.1 -0.02 -0.1 l 0.99,-0.29 -0.1,0.07 h -0.02 l -0.1,0.07 c -0.29,0.17 -0.62,0.27 -0.98,0.27 h -0.1 l 1.87,-1.85 v 0.07 c 0,0.65 -0.33,1.25 -0.89,1.58 l -0.12,0.05 c -0.28,0.19 -0.62,0.29 -0.96,0.29 h -0.12 l 1.88,-1.87 v 0.07 c 0,0.43 -0.15,0.84 -0.41,1.18 l -0.05,0.07 c -0.14,0.14 -0.31,0.29 -0.48,0.38 l -0.1,0.07 0.46,-0.4 -0.05,0.07 c -0.36,0.43 -0.89,0.67 -1.44,0.67 h -0.07 l 1.46,-0.67 -0.04,0.05 v 0 l -0.08,0.07 0.29,-0.48 -0.05,0.14 c -0.07,0.17 -0.16,0.31 -0.26,0.46 l -0.62,0.77 v 0 l -0.63,0.76 v 0 l -0.21,0.27 0.12,-0.17 -0.22,0.31 v 0 l -0.22,0.34 0.2,-0.41 -0.24,0.77 0.02,-0.1 -0.12,0.36 -0.02,0.1 -0.1,0.33 0.02,-0.09 -0.09,0.38 0.05,-0.24 -0.08,0.39 v 0 l -0.04,0.38 v 0 l -0.05,0.38 v -0.07 l -0.07,0.77 c -0.1,0.96 -0.96,1.68 -1.92,1.61 -0.99,-0.07 -1.73,-0.89 -1.68,-1.85 z"
         style="fill:#000000;fill-opacity:1;fill-rule:nonzero;stroke:none"
         transform="matrix(1.3333333,0,0,-1.3333333,0,1120.8)" />
    </g>
  </g>
</svg>
