<?xml version="1.0" encoding="UTF-8" standalone="no"?>
<!-- Created with Inkscape (http://www.inkscape.org/) -->

<svg
   version="1.1"
   id="svg1"
   width="30.990196"
   height="12"
   viewBox="0 0 30.990196 11.999999"
   sodipodi:docname="lesson1_sentence8_word4.svg"
   inkscape:version="1.4.3 (0d15f75, 2025-12-25)"
   xmlns:inkscape="http://www.inkscape.org/namespaces/inkscape"
   xmlns:sodipodi="http://sodipodi.sourceforge.net/DTD/sodipodi-0.dtd"
   xmlns="http://www.w3.org/2000/svg"
   xmlns:svg="http://www.w3.org/2000/svg">
  <defs
     id="defs1" />
  <sodipodi:namedview
     id="namedview1"
     pagecolor="#ffffff"
     bordercolor="#000000"
     borderopacity="0.25"
     inkscape:showpageshadow="2"
     inkscape:pageopacity="0.0"
     inkscape:pagecheckerboard="0"
     inkscape:deskcolor="#d1d1d1"
     inkscape:zoom="4.4716509"
     inkscape:cx="18.561377"
     inkscape:cy="56.019578"
     inkscape:window-width="1920"
     inkscape:window-height="1191"
     inkscape:window-x="-9"
     inkscape:window-y="-9"
     inkscape:window-maximized="1"
     inkscape:current-layer="g1">
    <inkscape:page
       x="9.9521913e-14"
       y="0"
       inkscape:label="1"
       id="page1"
       width="30.990196"
       height="147.21999"
       margin="0"
       bleed="0" />
  </sodipodi:namedview>
  <g
     id="g1"
     inkscape:groupmode="layer"
     inkscape:label="1"
     transform="translate(-519.17332,-103.65336)">
    <g
       id="g339"
       transform="translate(0.22363105,-104.21207)">
      <path
         id="path340"
         d="m 397.87,682.46 0.46,-0.09 0.09,-0.03 0.53,-0.07 h 0.07 l 3.39,-0.05 h 0.02 1.18 c 0.05,0 0.09,0 0.14,0 l 0.19,0.03 h -0.14 0.07 c 0.51,0 0.89,0.41 0.89,0.89 0,0.5 -0.38,0.91 -0.89,0.91 h -0.07 c -0.05,0 -0.1,0 -0.14,-0.03 l -0.2,-0.02 0.12,0.02 -1.2,-0.04 h 0.03 l -3.39,-0.05 h 0.08 l -0.53,0.02 h -0.07 -0.48 c -0.39,-0.02 -0.72,-0.29 -0.75,-0.67 -0.05,-0.38 0.22,-0.74 0.6,-0.82 z"
         style="fill:#000000;fill-opacity:1;fill-rule:nonzero;stroke:none"
         transform="matrix(1.3333333,0,0,-1.3333333,0,1120.8)" />
    </g>
    <g
       id="g340"
       transform="translate(0.22363105,-104.21207)">
      <path
         id="path341"
         d="m 399.96,682.97 -0.1,0.12 c -0.19,0.21 -0.52,0.29 -0.79,0.17 l -0.09,-0.05 c -0.05,0 -0.1,-0.03 -0.12,-0.05 l -0.1,-0.07 v 0 l -0.1,-0.05 -0.04,-0.07 -0.1,-0.07 0.07,0.07 -0.09,-0.07 v 0 l -0.08,-0.05 c -0.04,-0.03 -0.09,-0.07 -0.12,-0.12 l -0.07,-0.07 -0.05,-0.05 -0.07,-0.1 0.03,0.07 -0.05,-0.09 v 0 l -0.07,-0.07 c -0.03,-0.05 -0.08,-0.08 -0.12,-0.15 l -0.03,-0.09 0.03,0.07 -0.05,-0.07 -0.05,-0.08 -0.05,-0.09 v 0 l -0.05,-0.1 c -0.04,-0.02 -0.04,-0.09 -0.07,-0.14 l -0.05,-0.1 0.05,0.1 -0.05,-0.07 -0.04,-0.12 -0.08,-0.2 c 0,-0.04 -0.02,-0.09 -0.02,-0.14 l -0.02,-0.12 0.04,0.14 -0.04,-0.09 c 0,-0.03 -0.03,-0.07 -0.03,-0.12 l -0.02,-0.12 c 0,-0.03 -0.03,-0.07 -0.03,-0.12 v -0.1 0 -0.09 0 -0.12 0 -0.1 0 -0.12 c 0,-0.05 0,-0.1 0.03,-0.14 l 0.02,-0.1 -0.02,0.05 0.02,-0.12 c 0,-0.05 0,-0.1 0.03,-0.15 l 0.02,-0.09 -0.02,0.26 v -0.09 c 0,-0.12 0.02,-0.27 0.07,-0.39 l 0.05,-0.09 -0.08,0.24 0.03,-0.1 c 0,-0.07 0.02,-0.17 0.05,-0.24 l 0.07,-0.1 -0.05,0.12 0.02,-0.12 c 0.03,-0.04 0.05,-0.09 0.08,-0.14 l 0.14,-0.26 0.07,-0.1 0.07,-0.14 v 0.04 l 0.08,-0.12 0.04,-0.07 0.12,-0.12 v 0 l 0.08,-0.09 0.04,-0.08 0.12,-0.09 v 0 l 0.12,-0.12 0.05,-0.05 0.12,-0.1 -0.05,0.03 0.1,-0.1 c 0.05,-0.05 0.1,-0.09 0.14,-0.12 l 0.39,-0.24 0.05,-0.02 0.09,-0.07 0.1,-0.05 0.12,-0.03 h -0.05 l 0.1,-0.04 0.09,-0.05 0.12,-0.03 v 0 l 0.12,-0.04 0.07,-0.05 0.12,-0.03 -0.12,0.05 0.12,-0.05 c 0.08,-0.04 0.17,-0.04 0.24,-0.07 l 0.12,-0.02 -0.12,0.05 0.12,-0.05 c 0.05,0 0.08,-0.03 0.12,-0.03 h 0.12 l 0.12,-0.02 h 0.12 v 0 h 0.12 v 0 h 0.15 v 0 h 0.12 v 0 h 0.14 l 0.1,0.02 h 0.14 l 0.1,0.03 0.12,0.02 v 0 l 0.26,0.07 v 0 l 0.12,0.03 0.07,0.02 0.15,0.05 0.09,0.02 0.29,0.15 h 0.03 l 0.09,0.05 v 0 l 0.12,0.07 0.05,0.02 0.07,0.05 0.03,0.02 0.12,0.08 v 0 l 0.09,0.04 0.05,0.05 0.1,0.07 0.04,0.08 0.1,0.07 -0.07,-0.07 0.09,0.07 0.05,0.05 0.1,0.09 0.05,0.07 0.19,0.24 h 0.02 l 0.03,0.08 c 0.04,0.07 0.09,0.12 0.12,0.19 l 0.04,0.09 -0.14,-0.21 0.07,0.07 c 0.05,0.05 0.1,0.14 0.12,0.22 l 0.03,0.07 -0.03,-0.05 0.05,0.05 c 0.02,0.05 0.02,0.09 0.05,0.12 l 0.02,0.09 v -0.04 l 0.03,0.07 c 0,0.07 0.02,0.12 0.04,0.17 v 0.07 0 l 0.03,0.09 -0.03,-0.12 0.03,0.12 c 0.02,0.08 0.05,0.17 0.05,0.27 v 0.07 l -0.03,-0.17 0.03,0.1 c 0,0.05 0.02,0.09 0.02,0.17 v 0.19 0 0.14 l -0.02,0.1 v 0.17 0 l -0.03,0.12 v 0.07 l -0.05,0.17 0.03,-0.08 -0.03,0.12 c 0,0.05 0,0.12 -0.02,0.17 l -0.05,0.15 v 0 l -0.05,0.14 v 0.02 l -0.07,0.15 v 0 l -0.05,0.12 -0.02,0.09 -0.05,0.12 v 0 l -0.09,0.15 v 0.05 l -0.08,0.09 -0.02,0.03 -0.07,0.14 c -0.03,0.05 -0.05,0.07 -0.07,0.1 l -0.12,0.12 h 0.02 l -0.26,0.28 v 0 l -0.08,0.12 v 0 l -0.21,0.27 0.05,-0.07 -0.03,0.07 c -0.19,0.24 -0.48,0.41 -0.81,0.38 -0.32,-0.02 -0.6,-0.21 -0.75,-0.5 -0.12,-0.27 -0.09,-0.6 0.07,-0.87 l 0.05,-0.04 0.05,-0.08 0.22,-0.28 h 0.02 l 0.1,-0.12 v 0 l 0.24,-0.29 v 0 l 0.09,-0.12 -0.07,0.09 0.1,-0.12 -0.03,0.03 0.07,-0.12 -0.04,0.05 0.09,-0.12 v 0 l 0.05,-0.12 -0.02,0.07 0.04,-0.15 v 0 l 0.05,-0.12 v 0.03 l 0.03,-0.15 v 0 l 0.04,-0.14 -0.02,0.17 0.02,-0.15 v -0.07 l 0.05,-0.14 -0.02,0.09 0.02,-0.14 v 0.02 -0.16 0.09 -0.14 0 -0.19 l 0.03,0.16 -0.03,-0.09 c 0,-0.05 0,-0.12 0,-0.17 v -0.07 l 0.03,0.26 -0.03,-0.09 -0.02,-0.1 -0.03,-0.1 v 0 -0.07 l 0.05,0.15 -0.05,-0.08 -0.02,-0.04 -0.02,-0.1 0.04,0.1 -0.04,-0.05 -0.03,-0.07 -0.02,-0.08 0.12,0.22 -0.07,-0.1 c -0.03,-0.04 -0.08,-0.12 -0.12,-0.21 l -0.03,-0.07 0.12,0.19 -0.05,-0.07 v 0.02 l -0.19,-0.22 0.07,0.08 -0.07,-0.1 0.07,0.07 -0.07,-0.07 -0.09,-0.07 -0.08,-0.07 0.08,0.07 -0.08,-0.07 0.05,0.04 -0.09,-0.07 v 0 l -0.1,-0.05 h 0.02 l -0.07,-0.04 0.05,0.04 -0.1,-0.04 v 0 l -0.09,-0.08 0.05,0.03 -0.32,-0.12 0.08,0.02 -0.15,-0.05 0.07,0.03 -0.12,-0.03 v 0 l -0.26,-0.09 v 0 l -0.14,-0.03 0.12,0.03 -0.15,-0.03 0.12,0.03 h -0.14 v 0 h -0.12 v 0 h -0.15 v 0 h -0.12 v 0 h -0.12 l 0.12,-0.03 -0.14,0.03 0.14,-0.03 -0.12,0.03 c -0.04,0 -0.09,0.02 -0.14,0.02 l -0.12,0.03 0.22,-0.08 -0.12,0.08 -0.08,0.02 -0.12,0.02 h 0.05 l -0.12,0.03 v 0 l -0.12,0.05 0.07,-0.03 -0.09,0.05 -0.05,0.02 -0.12,0.05 0.1,-0.05 -0.12,0.08 0.04,-0.03 -0.38,0.24 0.14,-0.09 -0.12,0.09 -0.04,0.05 -0.12,0.1 0.04,-0.05 -0.12,0.12 v 0 l -0.09,0.12 0.05,-0.05 -0.12,0.1 v 0 l -0.1,0.12 0.05,-0.05 -0.07,0.09 -0.03,0.03 -0.09,0.12 0.07,-0.07 -0.15,0.24 0.05,-0.12 -0.02,0.09 c -0.03,0.03 -0.03,0.07 -0.05,0.1 l -0.05,0.09 0.07,-0.21 -0.02,0.09 c -0.02,0.08 -0.02,0.15 -0.07,0.24 l -0.05,0.08 0.1,-0.36 v 0.09 c 0,0.1 -0.03,0.19 -0.05,0.27 l -0.05,0.09 0.05,-0.14 -0.03,0.12 v 0.05 l -0.02,0.07 0.02,-0.17 v 0.12 0 0.1 0 0.12 0 0.09 0 0.1 l -0.02,-0.15 0.02,0.12 -0.04,-0.12 0.04,0.08 c 0,0.04 0.03,0.09 0.03,0.16 l 0.02,0.1 -0.02,-0.1 0.05,0.2 v 0 l 0.02,0.07 0.02,0.05 0.03,0.12 -0.05,-0.12 0.05,0.09 v 0 l 0.02,0.1 v -0.05 l 0.03,0.1 0.02,0.04 0.05,0.1 -0.07,-0.14 0.04,0.07 v 0 l 0.08,0.09 0.02,0.05 0.07,0.1 -0.05,-0.03 0.08,0.08 -0.12,-0.12 0.09,0.07 v 0 l 0.07,0.07 0.05,0.05 0.07,0.09 -0.04,-0.07 0.07,0.07 v 0 l 0.07,0.08 -0.12,-0.08 0.1,0.05 -0.03,-0.02 0.15,0.09 c 0.14,0.08 0.26,0.22 0.28,0.39 0.03,0.19 -0.02,0.36 -0.14,0.48 z"
         style="fill:#000000;fill-opacity:1;fill-rule:nonzero;stroke:none"
         transform="matrix(1.3333333,0,0,-1.3333333,0,1120.8)" />
    </g>
  </g>
</svg>
