<svg width="30.851" height="32.506" version="1.1" viewBox="0 0 30.851 32.506" xmlns="http://www.w3.org/2000/svg">
 <g transform="translate(-410.1 -108.73)">
  <path transform="matrix(1.3333,0,0,-1.3333,0,1120.8)" d="m308.28 755.3 0.84-0.26 0.12-0.02 0.26-0.08-0.19 0.08 0.27-0.12h0.02l0.72-0.29-0.12 0.07 0.19-0.1 0.03-0.02 0.16-0.07-0.07 0.02 0.19-0.12-0.02 0.03 0.14-0.1-0.09 0.05 0.14-0.12v0.02l0.17-0.14 0.02-0.03 0.12-0.09-0.07 0.09 0.15-0.16 0.14-0.15-0.07 0.1 0.14-0.15 0.12-0.16-0.07 0.07 0.14-0.15-0.02 0.03 0.07-0.15-0.05 0.12 0.22-0.43-0.02 0.07 0.12-0.28-0.03 0.09 0.07-0.29 0.12-0.26-0.02 0.1 0.05-0.29-0.03 0.09 0.05-0.28 0.07-0.29-0.02 0.05 0.07-0.6v0.16-0.48 0.08l-0.05-0.48v0.07l-0.16-1.39 0.02 0.09-0.22-0.89v-0.02l-0.31-1.58-0.02-0.15-0.07-1.03c-0.03-0.07-0.03-0.14 0-0.24l0.07-0.62-0.03 0.14v-0.12c0-0.14 0.05-0.29 0.1-0.43l0.02-0.15 0.08-0.14-0.08 0.22 0.05-0.15c0-0.09 0.05-0.19 0.07-0.26l0.1-0.24 0.12-0.24-0.05 0.09 0.07-0.09c0-0.07 0.05-0.15 0.1-0.19l0.07-0.12-0.05 0.07 0.08-0.12c0.04-0.07 0.09-0.17 0.14-0.24l0.12-0.12 0.02-0.05 0.22-0.19-0.1 0.09 0.12-0.16c0.1-0.1 0.22-0.2 0.32-0.27l0.16-0.12-0.24 0.22 0.15-0.17c0.07-0.07 0.14-0.12 0.24-0.19l0.19-0.12 0.17-0.12 0.19-0.1 0.07-0.07 0.55-0.29 0.12-0.05 0.44-0.16 0.07-0.05 0.45-0.17h0.05l0.43-0.14 0.05-0.03 0.96-0.26h0.07l1.52-0.31h0.07l1.34-0.22h0.1l3.41-0.29 0.09-0.02 4.85-0.07h0.86c0.7 0 1.3 0.57 1.3 1.27 0 0.72-0.6 1.29-1.3 1.29h-0.84 0.03l-4.85 0.08 0.07-0.03-3.43 0.29h0.07l-1.37 0.19 0.08-0.02-1.49 0.31 0.07-0.02-0.96 0.24h0.05l-0.43 0.12h0.04l-0.48 0.14 0.1-0.02-0.46 0.19 0.1-0.05-0.55 0.29 0.07-0.05-0.17 0.12-0.19 0.12-0.17 0.12 0.24-0.22-0.12 0.15c-0.07 0.07-0.17 0.14-0.24 0.19l-0.19 0.12 0.31-0.26-0.14 0.14-0.07 0.12-0.22 0.19 0.05-0.05-0.1 0.12 0.15-0.21-0.08 0.12-0.04 0.09-0.1 0.12 0.12-0.16-0.05 0.09-0.05 0.1-0.09 0.14 0.07-0.09-0.07 0.12-0.05 0.12 0.1-0.29-0.03 0.14c-0.02 0.05-0.05 0.15-0.07 0.19l-0.05 0.15-0.05 0.12 0.08-0.41v0.24l-0.1 0.65 0.02-0.22 0.05 1.01v-0.14l0.29 1.63v-0.03l0.17 0.89 0.02 0.07 0.17 1.42v0.1l0.02 0.45v0.07l-0.02 0.48v0.15l-0.1 0.6v0.07l-0.04 0.26-0.08 0.29v0.07l-0.09 0.32-0.03 0.09-0.12 0.29-0.09 0.26-0.05 0.08-0.12 0.28-0.05 0.08-0.24 0.4c-0.02 0.05-0.05 0.12-0.07 0.15l-0.12 0.14-0.02 0.03-0.15 0.16-0.05 0.05-0.12 0.15-0.14 0.12-0.07 0.07-0.17 0.12-0.14 0.14-0.1 0.07-0.14 0.1 0.04-0.02-0.19 0.12v0.02l-0.17 0.1-0.09 0.07-0.17 0.09-0.22 0.12-0.09 0.03-0.17 0.07 0.07-0.02-0.19 0.07-0.1 0.05-0.74 0.28h-0.05l-0.24 0.08c-0.07 0.02-0.12 0.04-0.19 0.04l-0.29 0.03 0.17-0.03-0.86 0.24c-0.53 0.15-1.08-0.14-1.23-0.67-0.17-0.53 0.12-1.08 0.65-1.25z"/>
  <path transform="matrix(1.3333,0,0,-1.3333,0,1120.8)" d="m318.17 741.86-0.17-0.04c-0.24-0.1-0.43-0.24-0.55-0.46l-0.77-1.39-0.43-0.77 0.02 0.05-0.36-0.6v0.05l-0.07-0.15-0.1-0.14-0.14-0.24-0.07-0.15-0.03-0.04-0.07-0.17-0.02-0.05-0.12-0.31-0.03-0.12-0.02-0.07c-0.14-0.6 0.19-1.18 0.77-1.32 0.57-0.12 1.15 0.21 1.29 0.79l0.05 0.07-0.05-0.12 0.12 0.31-0.02-0.02 0.07 0.14-0.02-0.05 0.07 0.15 0.07 0.12-0.07-0.12 0.07 0.17 0.1 0.12 0.02 0.02 0.36 0.62 0.05 0.08 0.41 0.79 0.02 0.02 0.65 1.44c0.05 0.07 0.07 0.17 0.07 0.24l0.05 0.17c0.05 0.34-0.07 0.62-0.31 0.82-0.22 0.19-0.55 0.26-0.84 0.16z"/>
  <path transform="matrix(1.3333,0,0,-1.3333,0,1120.8)" d="m321.48 740.76-0.05-0.07 0.24 0.24-0.02-0.03c-0.1-0.04-0.17-0.14-0.24-0.21l-0.05-0.07 0.17 0.16-0.05-0.04c-0.14-0.1-0.24-0.24-0.31-0.41l-0.03-0.05 0.1 0.17-0.07-0.12c-0.12-0.17-0.17-0.31-0.19-0.53l0.16 0.48-0.33-0.55-0.27-0.41-0.28-0.43c-0.03-0.05-0.05-0.1-0.08-0.17l-0.57-1.27-0.05-0.12-0.07-0.17c-0.12-0.41 0-0.86 0.29-1.2 0.31-0.31 0.74-0.43 1.17-0.31 0.41 0.09 0.75 0.43 0.84 0.84l0.05 0.17-0.05-0.15 0.53 1.3-0.05-0.1 0.24 0.46 0.24 0.43v0.02l0.29 0.58c0.1 0.19 0.14 0.38 0.12 0.6l-0.12-0.6 0.05 0.12c0.05 0.1 0.09 0.17 0.12 0.26v0.08l-0.22-0.44 0.05 0.05c0.05 0.05 0.07 0.1 0.12 0.15l0.02 0.07-0.04-0.07 0.02 0.02 0.05 0.1 0.02 0.07c0.29 0.48 0.15 1.08-0.31 1.39-0.48 0.31-1.08 0.22-1.44-0.24z"/>
  <path transform="matrix(1.3333,0,0,-1.3333,0,1120.8)" d="m313.87 734.88 0.79 0.02h0.03l0.98 0.03h-0.09l3.57-0.1h-0.02l2.69-0.14h0.31c0.48 0 0.93 0.26 1.2 0.67 0.24 0.41 0.24 0.94 0 1.37-0.27 0.41-0.72 0.67-1.2 0.67h-0.24 0.02l-2.69 0.05h-0.04l-3.58-0.05h-0.05l-0.96-0.02-0.14-0.03-0.77-0.14c-0.6-0.1-1.03-0.65-0.98-1.25 0.04-0.6 0.57-1.08 1.17-1.08z"/>
  <path transform="matrix(1.3333,0,0,-1.3333,0,1120.8)" d="m315.46 746.02 0.26 0.02h-0.24l0.48-0.02 0.5-0.05-0.12 0.02 1.42-0.26-0.1 0.05 2.38-0.65h-0.05l0.87-0.27h-0.03l0.67-0.21-0.09 0.05 1.8-0.8-0.1 0.03 1.56-0.84-0.12 0.07 0.75-0.5-0.03 0.02 0.77-0.55-0.07 0.07 1.8-1.54-0.07 0.08 0.26-0.24 0.02-0.03 0.27-0.24-0.1 0.1 0.22-0.27c0.31-0.36 0.79-0.5 1.25-0.4 0.43 0.07 0.81 0.38 0.96 0.84 0.14 0.43 0.04 0.91-0.24 1.27l-0.24 0.26-0.1 0.1-0.26 0.24 0.02-0.03-0.26 0.27-0.08 0.05-1.82 1.51-0.07 0.07-0.77 0.53-0.74 0.53-0.15 0.07-1.56 0.81-0.09 0.05-1.83 0.77-0.12 0.05-0.67 0.21v0.03l-0.89 0.24-0.02 0.02-2.4 0.63-0.12 0.02-1.42 0.22h-0.19l-0.5 0.02h-0.48c-0.12 0-0.22-0.02-0.34-0.05l-0.29-0.07c-0.57-0.17-0.96-0.79-0.81-1.39 0.12-0.6 0.69-1.01 1.32-0.91z"/>
  <path transform="matrix(1.3333,0,0,-1.3333,0,1120.8)" d="m309.26 755.54h0.03c0.14 0 0.26 0.03 0.38 0.05l0.05 0.03-0.17-0.05h0.05l0.05 0.02c0.09 0.03 0.19 0.03 0.26 0.07l0.05 0.03-0.1-0.03h0.08-0.08 0.03l0.07 0.03h0.05c0.09 0.05 0.19 0.09 0.26 0.14l0.05 0.03h-0.05 0.03l-0.08-0.05 0.12 0.07 0.1 0.05 0.19 0.14-0.02-0.02 0.19 0.14-0.14-0.07 0.24 0.1 0.09 0.04 0.17 0.12-0.12-0.07 0.24 0.1h0.02l0.22 0.12-0.1-0.05 0.22 0.1-0.07-0.05 0.21 0.07h-0.02l0.24 0.05 0.24 0.07-0.02-0.02 0.21 0.07-0.12-0.03 0.27 0.03h-0.1l0.72 0.05h0.12l-0.24 0.02 0.1-0.02-0.15 0.04 0.07-0.04c0.15-0.05 0.29-0.05 0.41-0.05l0.12 0.02-0.38 0.03 0.29-0.08-0.05 0.03 1.01-0.31-0.24 0.09 0.14-0.07c0.07-0.05 0.14-0.07 0.22-0.1l0.14-0.04-0.36 0.19 0.12-0.1c0.1-0.07 0.22-0.14 0.36-0.17l0.12-0.04-0.36 0.19 0.12-0.12 0.05-0.03 0.14-0.09-0.05 0.05 0.12-0.1-0.07 0.05 0.12-0.1 0.07-0.09-0.02 0.04 0.1-0.09-0.05 0.05 0.09-0.12-0.07 0.12 0.07-0.12 0.1-0.12 0.12-0.12-0.14 0.19 0.07-0.15-0.1 0.2 0.07-0.15c0-0.05 0.05-0.12 0.1-0.17l0.07-0.12-0.07 0.15 0.12-0.34 0.12-0.26-0.07 0.21 0.07-0.28 0.02-0.12 0.1-0.24-0.05 0.16 0.05-0.26v0.02l0.07-0.28-0.02 0.12 0.02-0.27v0.07-0.28 0.04l0.03-0.76v0.16l-0.08-0.6-0.07-0.57v0.05l-0.12-0.63 0.05 0.1-0.38-1.37 0.02 0.05-0.22-0.65-0.02-0.1-0.1-0.33 0.05 0.14-0.12-0.33v0.02l-0.12-0.36 0.03 0.1-0.34-0.75 0.05 0.1-0.1-0.15c-0.19-0.36-0.19-0.81 0-1.2 0.22-0.38 0.63-0.6 1.06-0.6s0.81 0.24 1.03 0.63l0.07 0.12 0.05 0.09 0.36 0.75 0.02 0.07 0.12 0.34v0.02l0.12 0.34 0.05 0.12 0.1 0.33-0.05-0.09 0.22 0.67 0.02 0.05 0.36 1.39 0.05 0.09 0.09 0.63v0.05l0.08 0.57 0.09 0.63v0.16l-0.02 0.75v0.38l-0.05 0.27v0.12l-0.05 0.26-0.02 0.02-0.05 0.24c0 0.05-0.02 0.12-0.05 0.17l-0.09 0.27 0.04-0.12-0.07 0.24c-0.02 0.07-0.02 0.14-0.07 0.19l-0.1 0.24-0.14 0.33c-0.02 0.08-0.05 0.12-0.07 0.17l-0.1 0.12 0.1-0.17-0.05 0.12c-0.05 0.08-0.07 0.12-0.1 0.2l-0.09 0.12c-0.03 0.04-0.07 0.12-0.15 0.16l-0.09 0.12 0.09-0.12-0.07 0.1-0.09 0.14-0.15 0.15-0.12 0.09-0.05 0.05-0.09 0.1-0.1 0.09-0.05 0.03-0.12 0.09-0.07 0.03-0.12 0.09 0.05-0.02-0.12 0.1c-0.12 0.07-0.24 0.12-0.36 0.16l-0.14 0.05 0.33-0.17-0.09 0.08c-0.1 0.07-0.22 0.14-0.34 0.16l-0.17 0.05 0.22-0.09-0.15 0.09c-0.07 0.05-0.16 0.07-0.26 0.1l-1.01 0.29h-0.02l-0.29 0.04c-0.12 0.05-0.29 0.05-0.41 0.03h-0.12l0.41-0.03-0.1 0.03-0.14 0.02h-0.12c-0.1 0-0.17 0-0.24-0.02h-0.12 0.07l-0.72-0.07h-0.14l-0.27-0.08-0.12-0.04-0.21-0.08h-0.03l-0.19-0.09-0.19-0.07h-0.05l-0.19-0.08-0.07-0.04-0.22-0.1-0.09-0.05-0.22-0.14 0.02 0.05-0.19-0.12-0.12-0.08-0.17-0.12 0.12 0.05-0.24-0.12c-0.02-0.02-0.07-0.05-0.12-0.09l-0.19-0.17-0.05-0.03-0.14-0.14 0.12 0.1-0.12-0.08c-0.07-0.04-0.12-0.09-0.19-0.16l-0.03-0.03 0.03 0.03-0.03-0.03 0.22 0.17-0.05-0.02-0.05-0.05h-0.02l0.05 0.05-0.05-0.05-0.1-0.07h-0.04l0.28 0.12h-0.07l-0.05-0.05c-0.04 0-0.12-0.03-0.14-0.05l-0.07-0.02 0.36 0.09h-0.03c-0.48-0.05-0.84-0.43-0.84-0.91s0.36-0.89 0.84-0.94z"/>
  <path transform="matrix(1.3333,0,0,-1.3333,0,1120.8)" d="m315.31 744.77 0.05-0.12 0.1-0.1 0.09-0.12-0.05 0.03 0.1-0.1 0.07-0.12 0.1-0.07-0.07 0.07 0.09-0.12 0.17-0.17 0.1-0.09 0.07-0.08 0.12-0.09 0.09-0.07 0.12-0.08-0.12 0.08 0.12-0.1h0.05l0.07-0.07 0.1-0.07 0.12-0.08 0.14-0.07 0.12-0.05-0.04 0.03 0.28-0.15c0.08-0.02 0.15-0.04 0.22-0.04l0.19-0.08-0.12 0.05 0.17-0.07 0.14-0.02 0.22-0.05 0.19-0.07h0.12l0.22-0.05h0.19l0.12-0.03h0.24l0.6 0.03h0.05l1.03 0.09-0.02-0.02 1.94 0.1h-0.07 0.55-0.07l0.24-0.03-0.1 0.03 0.27-0.05h0.02l0.26-0.05h-0.09l0.55-0.14 0.12-0.03 0.14-0.02-0.31 0.09 0.15-0.07 0.14-0.07 0.12-0.02 0.14-0.05-0.21 0.09 0.12-0.07 0.07-0.05 0.14-0.04 0.15-0.1-0.19 0.12 0.09-0.07 0.03-0.03 0.33-0.26-0.12 0.1 0.17-0.17 0.07-0.05 0.17-0.14c0.29-0.24 0.67-0.32 1.03-0.2 0.36 0.15 0.63 0.44 0.7 0.82 0.07 0.36-0.05 0.77-0.36 1.01l-0.15 0.14 0.05-0.07-0.14 0.17-0.12 0.07-0.31 0.26-0.12 0.1c-0.05 0.05-0.12 0.1-0.17 0.12l-0.15 0.07-0.14 0.05 0.07-0.02-0.12 0.07c-0.07 0.05-0.14 0.07-0.21 0.07l-0.15 0.05-0.12 0.05 0.12-0.05-0.12 0.07c-0.12 0.05-0.19 0.1-0.31 0.1l-0.12 0.02 0.1-0.02-0.58 0.14-0.12 0.05-0.26 0.05h0.02l-0.26 0.02h-0.1l-0.24 0.05h-0.72l-1.92-0.12h-0.05l-1.03-0.1h0.05l-0.6-0.02h0.02-0.19 0.12l-0.22 0.02-0.21 0.03 0.12-0.03-0.22 0.05-0.19 0.05 0.12-0.05-0.17 0.07-0.14 0.05-0.22 0.05 0.22-0.07-0.29 0.12-0.07 0.02-0.12 0.05 0.14-0.07-0.12 0.07 0.1-0.05-0.1 0.05h0.05l-0.12 0.07-0.12 0.1-0.12 0.07 0.12-0.1-0.12 0.1 0.07-0.07-0.07 0.09-0.1 0.1 0.08-0.1-0.1 0.12-0.17 0.17 0.1-0.12-0.07 0.12h-0.03l-0.07 0.12 0.07-0.12-0.07 0.12c-0.29 0.48-0.91 0.65-1.39 0.36-0.46-0.29-0.63-0.91-0.34-1.39z"/>
 </g>
</svg>
