<?xml version="1.0" encoding="UTF-8" standalone="no"?>
<!-- Created with Inkscape (http://www.inkscape.org/) -->

<svg
   version="1.1"
   id="svg1"
   width="115.57782"
   height="84.565277"
   viewBox="0 0 115.57782 84.565273"
   sodipodi:docname="lesson1_sentence5_word4.svg"
   inkscape:version="1.4.3 (0d15f75, 2025-12-25)"
   xmlns:inkscape="http://www.inkscape.org/namespaces/inkscape"
   xmlns:sodipodi="http://sodipodi.sourceforge.net/DTD/sodipodi-0.dtd"
   xmlns="http://www.w3.org/2000/svg"
   xmlns:svg="http://www.w3.org/2000/svg">
  <defs
     id="defs1" />
  <sodipodi:namedview
     id="namedview1"
     pagecolor="#ffffff"
     bordercolor="#000000"
     borderopacity="0.25"
     inkscape:showpageshadow="2"
     inkscape:pageopacity="0.0"
     inkscape:pagecheckerboard="0"
     inkscape:deskcolor="#d1d1d1"
     inkscape:zoom="3.905519"
     inkscape:cx="31.493894"
     inkscape:cy="34.182397"
     inkscape:window-width="1920"
     inkscape:window-height="1191"
     inkscape:window-x="-9"
     inkscape:window-y="-9"
     inkscape:window-maximized="1"
     inkscape:current-layer="g1">
    <inkscape:page
       x="0"
       y="0"
       inkscape:label="1"
       id="page1"
       width="115.57782"
       height="84.565269"
       margin="0"
       bleed="0" />
  </sodipodi:namedview>
  <g
     id="g1"
     inkscape:groupmode="layer"
     inkscape:label="1"
     transform="translate(-644.82666,-859.91208)">
    <g
       id="g162">
      <path
         id="path162"
         d="m 512.42,174.79 0.77,1.39 0.03,0.05 0.6,1.2 -0.1,-0.17 0.67,1.08 v 0 l 1.85,3 c 0.22,0.36 0.36,0.75 0.38,1.18 v 0.05 l -0.88,-1.8 0.04,0.07 c 0.56,0.48 0.89,1.15 0.94,1.87 v 0.1 -0.05 0.05 c 0.12,1.51 -0.98,2.83 -2.5,2.97 -1.48,0.12 -2.83,-0.98 -2.95,-2.49 -0.17,-1.49 0.96,-2.86 2.45,-2.98 l 0.07,-0.02 c 0.77,-0.05 1.49,0.19 2.07,0.69 l 0.04,0.05 c 0.56,0.46 0.89,1.13 0.94,1.85 v 0.05 l -2.98,-2.52 h 0.08 c 0.74,-0.05 1.48,0.19 2.06,0.69 l 0.07,0.05 c 0.53,0.48 0.89,1.18 0.91,1.9 v 0.09 c 0.1,1.54 -1.03,2.86 -2.56,2.93 -1.52,0.12 -2.84,-1.01 -2.96,-2.54 -0.12,-1.49 1.01,-2.86 2.52,-2.98 h 0.08 l -1.95,1.06 v -0.03 c 0.53,-0.69 1.37,-1.08 2.23,-1.08 0.89,0 1.68,0.41 2.24,1.13 l 0.04,0.1 -2.47,-1.13 h 0.05 c 1.54,-0.12 2.88,0.98 3.05,2.54 v 0.05 c 0.14,1.54 -1.01,2.93 -2.55,3.05 -1.56,0.14 -2.9,-1.01 -3.04,-2.52 -0.15,-1.56 0.98,-2.93 2.54,-3.07 h 0.07 v 0 h 0.05 c 0.79,-0.1 1.54,0.19 2.11,0.69 l 0.05,0.05 -2.33,-0.65 0.05,-0.02 c 0.84,-0.17 1.7,0.07 2.38,0.65 l 0.04,0.07 -1.96,-0.7 h 0.14 l -2.3,1.35 0.04,-0.1 c 0.48,-0.84 1.4,-1.34 2.33,-1.37 h 0.12 l -2.52,1.73 0.03,-0.05 c 0.26,-0.6 0.72,-1.08 1.29,-1.41 l 0.12,-0.05 -0.48,0.31 0.12,-0.07 0.15,-0.17 0.09,-0.05 -0.09,0.1 0.12,-0.1 -1.08,2.43 -0.03,-0.05 c -0.07,-1.01 0.39,-1.97 1.2,-2.52 l 0.07,-0.07 c 0.46,-0.34 0.96,-0.51 1.52,-0.53 h 0.04 l -2.52,1.85 0.08,-0.15 c 0.09,-0.21 0.21,-0.45 0.33,-0.62 l 0.15,-0.24 -0.03,0.05 0.27,-0.41 -0.03,0.05 0.24,-0.39 -0.21,0.46 0.21,-0.53 0.05,-0.12 0.58,-1.2 -0.15,0.36 0.07,-0.26 0.12,-0.29 0.17,-0.36 -0.05,0.07 0.17,-0.36 c 0.05,-0.14 0.12,-0.29 0.19,-0.43 l 0.22,-0.36 0.02,-0.05 0.22,-0.29 -0.26,0.51 0.14,-0.36 c 0.1,-0.24 0.22,-0.48 0.38,-0.7 l 0.22,-0.26 v 0 l 0.22,-0.29 c 0.09,-0.1 0.14,-0.19 0.24,-0.29 l 0.67,-0.65 -0.89,2.09 v -0.05 c 0,-1.65 1.32,-2.97 2.98,-2.97 h 0.07 l -2.83,2.04 0.02,-0.1 c 0.38,-1.22 1.54,-2.04 2.83,-2.04 h 0.05 l -2.09,0.89 0.05,-0.07 c 0.58,-0.58 1.32,-0.87 2.11,-0.89 h 0.05 -0.02 0.07 0.02 0.05 -0.02 0.02 0.05 0.05 v 0 h 0.07 v 0 h 0.05 v 0 h 0.07 l -1.32,0.31 0.05,-0.02 c 0.38,-0.22 0.84,-0.29 1.27,-0.34 h 0.02 0.05 0.07 c 0.82,0 1.56,0.31 2.14,0.89 l 0.05,0.05 -2.09,-0.87 h 0.05 c 0.79,0 1.53,0.29 2.11,0.87 0.55,0.55 0.86,1.32 0.86,2.11 v 0.07 c 0.03,1.66 -1.32,2.98 -2.95,3 -1.63,0 -3,-1.32 -3,-2.95 0,-1.66 1.32,-2.98 2.98,-3 h 0.07 c 0.77,0 1.51,0.31 2.09,0.86 0.57,0.53 0.86,1.32 0.86,2.09 v 0.07 c 0.05,1.66 -1.27,2.98 -2.93,3 -1.65,0 -3,-1.32 -3,-2.97 0,-1.66 1.32,-2.98 2.93,-3 h 0.1 c 0.45,0 0.91,0.12 1.32,0.33 l 0.14,0.05 c 0.36,0.19 0.7,0.43 0.94,0.77 l 0.19,0.17 -0.41,-0.39 0.19,0.17 0.22,0.19 0.17,0.17 v 0 l 0.21,0.22 c 0.1,0.09 0.17,0.19 0.27,0.31 l 0.31,0.38 -0.12,-0.14 0.65,0.74 c 0.09,0.1 0.14,0.22 0.24,0.29 l 0.12,0.19 0.09,0.17 0.15,0.22 -1.11,-1.08 0.22,0.12 c 0.48,0.26 0.86,0.67 1.1,1.15 l 0.17,0.26 0.07,0.12 0.1,0.17 -0.1,-0.14 0.12,0.21 v -0.02 l 0.29,0.53 c 0.07,0.12 0.17,0.24 0.19,0.38 l 0.05,0.17 c 0.17,0.36 0.24,0.72 0.24,1.1 v 0.22 l -1.68,-2.69 0.12,0.07 c 0.72,0.36 1.27,0.99 1.54,1.73 l 0.07,0.19 -0.07,-0.19 0.07,0.17 -0.67,-1.01 0.12,0.12 v 0 l 0.12,0.12 c 0.26,0.31 0.5,0.65 0.67,1.03 l 0.05,0.15 -1.44,-1.56 0.12,0.07 c 0.57,0.26 1.05,0.74 1.34,1.32 l 0.07,0.12 -0.57,-0.77 0.14,0.17 v -0.05 l 0.07,0.07 -0.45,-0.33 0.21,0.12 c 0.15,0.09 0.29,0.21 0.41,0.33 l 0.07,0.1 -0.43,-0.36 0.19,0.12 -0.07,-0.05 0.36,0.22 -1.63,-0.48 h 0.05 v 0 h 0.09 l -0.69,0.09 0.12,-0.02 c 0.24,-0.07 0.48,-0.1 0.72,-0.1 h 0.07 l -2.14,0.89 0.05,-0.05 c 0.58,-0.57 1.32,-0.86 2.11,-0.91 h 0.03 0.02 0.07 v 0 h 0.12 l -2.49,1.37 0.07,-0.1 c 0.55,-0.84 1.49,-1.34 2.47,-1.34 h 0.1 l -2.14,0.89 0.07,-0.05 c 0.24,-0.24 0.51,-0.43 0.82,-0.58 l 0.12,-0.07 -1.51,1.75 0.02,-0.09 c 0.41,-1.23 1.54,-2.07 2.83,-2.07 h 0.05 l -2.95,3.03 v -0.05 c 0,-0.82 0.29,-1.61 0.86,-2.16 l 0.05,-0.07 v 0 l 0.17,-0.15 -0.24,0.27 0.19,-0.27 0.1,-0.12 0.19,-0.21 -0.48,0.79 0.07,-0.22 c 0.07,-0.14 0.12,-0.26 0.22,-0.38 l 0.43,-0.72 -0.19,0.36 0.38,-0.84 0.07,-0.12 0.22,-0.46 -0.17,0.34 0.17,-0.43 c 0.05,-0.15 0.12,-0.29 0.19,-0.46 l 0.19,-0.31 0.1,-0.17 0.62,-1.03 0.05,-0.1 0.07,-0.09 c 0.12,-0.15 0.24,-0.34 0.39,-0.46 l 0.07,-0.05 -0.46,0.58 0.1,-0.17 c 0.53,-0.89 1.51,-1.46 2.57,-1.46 h 0.07 l -2.71,1.68 0.07,-0.12 c 0.14,-0.29 0.36,-0.58 0.55,-0.82 l 0.1,-0.07 v 0 l 0.07,-0.07 c 0.55,-0.58 1.34,-0.87 2.16,-0.87 h 0.12 l -1.68,0.51 0.07,-0.05 -0.14,0.07 0.12,-0.07 c 0.14,-0.12 0.31,-0.22 0.48,-0.31 l 0.12,-0.05 -1.35,1.34 0.03,-0.07 c 0.38,-0.77 1.1,-1.34 1.99,-1.56 l 0.12,-0.02 c 0.24,-0.05 0.48,-0.1 0.72,-0.1 h 0.05 v 0 h 0.14 l -2.11,0.89 0.05,-0.07 c 0.57,-0.58 1.34,-0.87 2.16,-0.87 h 0.12 v 0 h 0.09 -0.38 l 0.24,-0.02 c 0.36,-0.05 0.72,-0.05 1.03,0.05 l 0.29,0.07 0.17,0.05 0.21,0.07 c 0.17,0.02 0.36,0.12 0.53,0.17 l 0.24,0.14 -0.5,-0.19 0.21,0.05 c 0.27,0.09 0.51,0.19 0.75,0.33 l 0.26,0.17 -0.12,-0.05 0.24,0.12 -0.14,-0.09 0.24,0.12 c 0.12,0.07 0.21,0.12 0.33,0.21 l 0.17,0.12 c 0.12,0.05 0.22,0.15 0.34,0.24 l 0.57,0.53 -0.21,-0.17 0.55,0.39 0.14,0.12 0.48,0.38 0.05,0.07 0.48,0.41 c 0.1,0.1 0.22,0.19 0.31,0.31 l 0.39,0.46 v 0.02 l 1.08,1.25 0.04,0.05 1.47,1.75 -0.94,-0.74 0.12,0.07 c 1.03,0.5 1.66,1.56 1.63,2.69 v 0.07 l -0.84,-2.14 0.05,0.05 -0.45,-0.38 0.09,0.09 c 0.48,0.34 0.87,0.82 1.08,1.35 l 0.07,0.14 -2.71,-1.85 h 0.07 c 0.44,0 0.89,0.12 1.28,0.29 l 0.12,0.1 c 0.31,0.12 0.57,0.33 0.79,0.57 l 0.05,0.05 v 0 l 0.07,0.07 -2.11,-0.91 h 0.12 c 0.79,0 1.53,0.34 2.08,0.91 l 0.05,0.05 -2.06,-0.89 h 0.05 v 0 h 0.12 c 0.79,0 1.53,0.34 2.11,0.89 l 0.05,0.07 -2.09,-0.91 h 0.12 c 0.36,0 0.74,0.1 1.08,0.24 l 0.14,0.07 -1.08,-0.24 h 0.12 l -2.11,0.87 0.1,-0.1 -0.03,0.05 0.1,-0.1 c 0.57,-0.57 1.32,-0.86 2.09,-0.86 h 0.12 0.04 0.05 l -1.65,0.5 0.09,-0.09 -0.84,0.84 0.07,-0.12 c 0.29,-0.41 0.68,-0.75 1.16,-0.99 l 0.12,-0.07 -0.32,0.19 0.08,-0.07 -0.12,0.1 0.12,-0.1 -0.6,0.6 0.09,-0.12 -0.6,1.75 v -0.09 c 0,-0.75 0.34,-1.49 0.87,-2.04 l 0.21,-0.24 h 0.03 l 0.12,-0.12 -0.63,0.91 0.1,-0.22 0.14,-0.31 0.12,-0.19 c 0.07,-0.12 0.15,-0.22 0.22,-0.31 l 0.12,-0.15 -0.24,0.34 0.14,-0.22 -0.24,0.53 0.1,-0.29 c 0.05,-0.21 0.14,-0.38 0.26,-0.57 l 0.1,-0.17 -0.31,0.72 0.07,-0.22 v 0 l 0.05,-0.21 0.04,-0.12 0.17,-0.53 -0.14,0.86 v -0.26 c 0,-0.19 0.02,-0.34 0.05,-0.53 l 0.04,-0.17 c 0.05,-0.21 0.12,-0.43 0.17,-0.6 l 0.1,-0.14 c 0.02,-0.12 0.09,-0.24 0.14,-0.36 l 0.15,-0.22 -0.39,1.85 -0.02,-0.24 c -0.1,-0.67 0.09,-1.39 0.48,-1.99 l 0.14,-0.19 -0.09,0.12 0.12,-0.15 -0.17,0.34 0.12,-0.29 c 0.05,-0.12 0.12,-0.24 0.17,-0.31 l 0.09,-0.19 -0.09,0.19 0.07,-0.12 c 0.05,-0.12 0.12,-0.24 0.21,-0.34 l 0.15,-0.21 -0.1,0.14 0.1,-0.14 0.17,-0.24 0.33,-0.46 c 0.1,-0.07 0.15,-0.17 0.24,-0.26 l 0.07,-0.05 c 0.56,-0.53 1.28,-0.82 2.04,-0.82 h 0.08 0.04 0.05 v 0 h 0.07 -0.04 0.12 0.04 l 0.05,0.03 -2.76,1.89 0.07,-0.09 c 0.39,-1.13 1.49,-1.92 2.69,-1.92 l 0.15,0.02 h 0.04 0.05 v 0 h 0.07 -0.04 0.09 c 0.75,0 1.47,0.31 2.02,0.84 l 0.05,0.1 -1.97,-0.87 h 0.05 -0.03 0.12 0.03 0.07 0.05 0.04 c 0.41,0.03 0.8,0.12 1.16,0.29 l 0.16,0.07 -1.27,-0.31 h 0.07 c 0.75,0.05 1.47,0.34 1.97,0.89 l 0.07,0.05 -0.45,-0.39 0.21,0.15 -0.16,-0.12 0.21,0.12 -0.14,-0.05 0.29,0.14 0.31,0.17 0.26,0.19 0.19,0.15 0.6,0.45 c 0.15,0.12 0.29,0.27 0.41,0.46 l 0.31,0.31 -0.43,-0.41 0.31,0.24 c 0.12,0.1 0.2,0.22 0.32,0.34 l 0.31,0.31 c 0.12,0.12 0.21,0.24 0.29,0.41 l 0.64,1.01 -0.09,-0.15 0.24,0.34 -0.1,-0.12 0.27,0.36 c 0.09,0.07 0.16,0.17 0.21,0.29 l 0.27,0.38 -0.36,-0.48 0.64,0.7 v 0.02 l 0.51,0.53 0.21,0.24 0.08,0.12 -0.27,-0.31 0.07,0.07 0.2,0.24 0.12,0.14 c 0.12,0.15 0.24,0.34 0.33,0.51 l 0.07,0.12 -1.27,-1.25 0.12,0.05 c 0.36,0.19 0.7,0.45 0.94,0.74 l 0.14,0.17 -0.96,-0.77 0.12,0.07 0.31,0.17 0.29,0.19 -1.56,-0.48 h 0.07 v 0 h 0.05 c 0.75,0 1.44,0.29 1.99,0.84 l 0.05,0.05 -1.97,-0.79 h 0.03 v 0 h 0.05 v 0 h 0.07 l -1.99,0.79 0.07,-0.05 c 0.5,-0.55 1.22,-0.84 1.97,-0.84 h 0.07 l -1.99,0.84 0.04,-0.02 v 0 l 0.05,-0.07 c 0.51,-0.53 1.23,-0.84 1.99,-0.84 h 0.05 v 0 h 0.07 l -1.99,0.84 0.07,-0.05 -0.81,1.97 v -0.1 c 0,-1.56 1.25,-2.81 2.78,-2.81 h 0.03 0.04 0.05 l -2.01,0.84 0.07,-0.07 -0.82,1.99 v -0.07 c 0,-1.56 1.27,-2.81 2.83,-2.81 h 0.05 c 1.15,0 2.16,0.7 2.59,1.73 0.44,1.06 0.2,2.26 -0.6,3.07 -0.81,0.82 -2.01,1.06 -3.07,0.63 -1.05,-0.46 -1.73,-1.47 -1.73,-2.62 v -0.07 0 -0.07 c 0,-0.75 0.29,-1.47 0.8,-2.02 0.55,-0.5 1.27,-0.79 2.01,-0.79 h 0.03 l -2.45,1.44 0.26,-0.53 c 0.07,-0.12 0.15,-0.24 0.24,-0.31 l 0.22,-0.31 -0.24,0.36 0.14,-0.27 0.03,-0.07 0.21,-0.36 -0.02,0.07 0.17,-0.31 v 0 l 0.16,-0.26 -0.04,0.02 0.21,-0.36 -0.24,0.55 0.27,-0.91 v 0.05 l 0.07,-0.24 0.02,-0.1 0.07,-0.21 -0.09,0.36 0.02,-0.17 0.07,-0.22 0.05,-0.21 c 0.03,-0.12 0.1,-0.24 0.12,-0.34 l 0.1,-0.24 c 0.14,-0.31 0.36,-0.62 0.6,-0.86 l 0.12,-0.12 -0.75,1.44 0.03,-0.15 c 0.05,-0.31 0.14,-0.6 0.29,-0.84 l 0.12,-0.24 -0.05,0.15 0.05,-0.12 -0.05,0.14 0.09,-0.19 c 0.15,-0.34 0.32,-0.65 0.6,-0.91 l 0.27,-0.27 c 0.53,-0.55 1.25,-0.84 2.01,-0.81 h 0.05 c 1.54,0 2.79,1.27 2.79,2.78 0,1.56 -1.25,2.83 -2.81,2.83 -1.56,0 -2.79,-1.27 -2.79,-2.83 v -0.07 c 0,-0.94 0.44,-1.8 1.23,-2.35 l 0.09,-0.05 -0.43,0.36 0.07,-0.07 c 0.53,-0.53 1.25,-0.84 2,-0.84 h 0.07 l -2.35,1.27 0.07,-0.1 c 0.5,-0.79 1.37,-1.27 2.33,-1.27 h 0.04 v 0 h 0.12 l -2.83,2.83 v -0.07 c 0,-1.56 1.27,-2.81 2.83,-2.81 h 0.12 l -2.68,1.92 0.04,-0.09 c 0.39,-1.13 1.47,-1.92 2.67,-1.92 h 0.05 v 0 h 0.07 v 0 h 0.12 v 0 h 0.05 0.04 0.03 -0.03 0.12 0.03 0.05 v 0 h 0.07 v 0 h 0.09 v 0 h 0.05 c 0.75,0 1.47,0.31 1.99,0.84 l 0.05,0.07 -1.97,-0.84 h 0.05 c 0.46,0 0.87,0.12 1.27,0.29 l 0.12,0.07 -1.27,-0.31 h 0.1 c 0.57,0 1.1,0.19 1.56,0.48 l 0.38,0.24 0.22,0.19 0.33,0.26 -0.33,-0.24 0.33,0.17 c 0.17,0.12 0.36,0.29 0.53,0.46 l 0.29,0.26 -0.24,-0.19 0.29,0.24 c 0.14,0.12 0.31,0.26 0.43,0.41 l 0.29,0.33 -0.29,-0.31 0.29,0.29 v 0 l 0.26,0.24 c 0.22,0.19 0.43,0.43 0.58,0.72 l 0.24,0.41 -0.1,-0.15 0.48,0.75 -0.05,-0.1 0.72,1.01 0.03,0.05 0.48,0.67 -0.17,-0.24 0.17,0.19 c 0.24,0.31 0.43,0.6 0.5,0.96 l 0.07,0.19 -0.31,-0.67 0.19,0.29 -0.36,-0.43 0.12,0.12 0.15,0.14 0.19,0.22 0.02,0.02 0.15,0.19 -0.46,-0.43 0.36,0.29 c 0.1,0.05 0.22,0.14 0.31,0.24 l 0.05,0.07 -1.97,-0.84 h 0.05 c 1.06,0 2.04,0.6 2.52,1.56 l 0.05,0.07 -0.55,-0.72 0.07,0.05 -1.99,-0.84 h 0.07 c 0.91,0 1.82,0.48 2.33,1.27 l 0.07,0.1 -3.6,-0.96 0.05,-0.05 c 0.38,-0.17 0.84,-0.29 1.27,-0.29 h 0.05 v 0 h 0.07 v 0 h 0.02 v 0 h 0.1 v 0 h 0.12 v 0 h 0.05 v 0 h 0.07 v 0 h 0.02 v 0 h 0.05 l -1.68,0.58 0.12,-0.1 c 0.48,-0.36 1.08,-0.57 1.68,-0.57 h 0.07 l -2.49,1.56 0.02,-0.05 c 0.46,-0.96 1.44,-1.56 2.5,-1.56 h 0.07 l -1.99,0.84 0.07,-0.07 -0.36,0.43 0.07,-0.1 c 0.53,-0.79 1.39,-1.27 2.33,-1.27 h 0.05 l -2.5,1.56 0.05,-0.05 c 0.12,-0.26 0.29,-0.55 0.5,-0.74 l 0.05,-0.07 -0.17,0.21 0.46,-0.55 -0.05,0.05 0.43,-0.53 -0.21,0.31 0.31,-0.5 0.05,-0.07 0.36,-0.58 -0.1,0.17 0.89,-1.49 -0.17,0.29 0.34,-0.7 0.07,-0.19 0.38,-0.72 0.15,-0.26 1.22,-1.83 c 0.1,-0.12 0.17,-0.24 0.24,-0.33 l 0.53,-0.53 c 1.01,-1.18 2.78,-1.27 3.91,-0.24 1.18,1.01 1.27,2.78 0.24,3.96 l -0.48,0.53 0.24,-0.29 -1.25,1.85 0.15,-0.27 -0.36,0.72 0.09,-0.19 -0.31,0.72 -0.14,0.31 -0.87,1.47 -0.09,0.14 -0.39,0.58 0.05,-0.1 -0.29,0.53 -0.21,0.26 -0.41,0.51 v 0 l -0.43,0.55 -0.17,0.17 -0.1,0.07 0.53,-0.72 -0.02,0.05 c -0.48,0.96 -1.44,1.56 -2.52,1.56 h -0.05 l 2.33,-1.25 -0.05,0.07 c -0.1,0.19 -0.22,0.31 -0.36,0.46 l -0.07,0.07 c -0.51,0.5 -1.23,0.79 -1.97,0.79 h -0.07 l 2.52,-1.56 -0.03,0.07 c -0.48,0.96 -1.46,1.56 -2.52,1.56 h -0.07 l 1.68,-0.57 -0.12,0.12 c -0.48,0.36 -1.08,0.55 -1.68,0.55 h -0.05 v 0 h -0.02 v 0 h -0.07 v 0 h -0.05 v 0 h -0.12 v 0 h -0.1 v 0 h -0.02 v 0 h -0.07 v 0 h -0.05 l 1.25,-0.31 -0.05,0.02 c -1.27,0.65 -2.81,0.24 -3.58,-0.91 l -0.09,-0.1 2.35,1.23 h -0.07 c -0.75,0 -1.44,-0.29 -1.97,-0.82 l -0.07,-0.05 c -0.22,-0.21 -0.39,-0.48 -0.53,-0.74 l -0.05,-0.07 2.52,1.56 h -0.05 c -0.74,0 -1.46,-0.29 -1.99,-0.82 l -0.05,-0.05 0.29,0.24 -0.38,-0.26 c -0.15,-0.12 -0.34,-0.29 -0.46,-0.46 l -0.14,-0.19 v 0.05 l -0.17,-0.22 0.14,0.15 -0.12,-0.12 c -0.12,-0.15 -0.24,-0.27 -0.36,-0.41 l -0.19,-0.31 c -0.12,-0.22 -0.24,-0.41 -0.31,-0.65 l -0.07,-0.19 0.55,0.93 -0.19,-0.21 -0.22,-0.24 -0.45,-0.7 0.04,0.07 -0.69,-0.98 -0.07,-0.1 -0.51,-0.74 -0.09,-0.17 -0.24,-0.41 0.57,0.7 -0.29,-0.24 v -0.05 l -0.31,-0.26 c -0.12,-0.1 -0.21,-0.17 -0.29,-0.29 l -0.31,-0.34 0.43,0.39 -0.31,-0.24 -0.24,-0.22 -0.26,-0.26 0.53,0.43 -0.29,-0.19 c -0.12,-0.05 -0.24,-0.15 -0.34,-0.24 l -0.36,-0.27 0.24,0.15 -0.38,-0.24 1.56,0.48 h -0.1 c -0.41,0 -0.86,-0.12 -1.25,-0.29 l -0.12,-0.07 1.25,0.31 h -0.05 c -0.76,0 -1.48,-0.31 -1.99,-0.84 l -0.05,-0.07 1.97,0.84 h -0.05 v 0 h -0.09 v 0 h -0.07 v 0 h -0.05 -0.03 -0.12 0.03 -0.03 -0.04 -0.05 v 0 h -0.12 v 0 h -0.07 v 0 h -0.05 l 2.66,-1.95 -0.02,0.1 c -0.39,1.15 -1.47,1.94 -2.67,1.94 h -0.12 c -1.56,0 -2.83,-1.27 -2.83,-2.83 0,-1.56 1.27,-2.81 2.83,-2.81 1.52,0 2.81,1.25 2.81,2.81 v 0.07 c 0,0.75 -0.29,1.47 -0.84,1.97 -0.5,0.55 -1.22,0.84 -1.97,0.84 h -0.12 v 0 h -0.04 l 2.35,-1.25 -0.07,0.1 c -0.53,0.77 -1.4,1.25 -2.33,1.25 h -0.07 l 1.99,-0.84 -0.07,0.07 c -0.12,0.14 -0.27,0.26 -0.41,0.36 l -0.12,0.05 1.25,-2.33 v 0.07 c 0,1.56 -1.25,2.83 -2.79,2.83 h -0.05 l 1.97,-0.81 -0.29,0.26 0.6,-0.89 -0.09,0.24 -0.07,0.15 -0.05,0.12 -0.1,0.12 -0.12,0.24 0.34,-0.87 -0.03,0.17 c -0.12,0.55 -0.4,1.03 -0.79,1.44 l -0.12,0.12 0.6,-0.89 -0.09,0.24 0.12,-0.36 -0.05,0.24 0.02,-0.24 -0.02,0.15 -0.1,0.36 -0.05,0.19 0.05,-0.12 -0.05,0.19 -0.04,0.05 -0.27,0.91 c -0.05,0.22 -0.12,0.41 -0.24,0.55 l -0.17,0.36 v 0 l -0.16,0.29 v 0 l -0.15,0.29 -0.02,0.05 -0.24,0.36 0.02,-0.05 -0.14,0.29 c -0.07,0.12 -0.15,0.24 -0.24,0.36 l -0.22,0.26 0.24,-0.36 -0.29,0.53 c -0.48,0.86 -1.41,1.39 -2.44,1.44 h -0.03 l 2.79,-2.83 v 0.07 0 0.07 c 0,1.56 -1.25,2.83 -2.79,2.83 h -0.05 c -1.15,0 -2.2,-0.69 -2.61,-1.75 -0.46,-1.03 -0.22,-2.28 0.6,-3.05 0.81,-0.81 2.01,-1.05 3.05,-0.62 1.05,0.43 1.75,1.46 1.75,2.59 v 0.07 c 0,0.75 -0.31,1.47 -0.82,1.97 l -0.05,0.07 c -0.55,0.53 -1.27,0.84 -1.99,0.84 h -0.05 -0.04 -0.03 c -1.13,0 -2.16,-0.69 -2.57,-1.75 -0.45,-1.03 -0.21,-2.23 0.6,-3.05 0.8,-0.81 2,-1.05 3.05,-0.62 1.06,0.43 1.75,1.46 1.75,2.59 v 0.1 c 0,0.74 -0.31,1.46 -0.81,1.99 l -0.07,0.07 c -0.53,0.53 -1.25,0.82 -2,0.82 h -0.07 v 0 h -0.05 l 2,-0.82 -0.08,0.07 0.03,-0.02 -0.03,0.02 c -0.55,0.53 -1.27,0.84 -2.01,0.84 h -0.07 l 1.99,-0.81 -0.07,0.07 c -0.51,0.5 -1.23,0.79 -1.97,0.79 h -0.07 v 0 h -0.05 v 0 h -0.03 c -0.76,0 -1.48,-0.29 -2.01,-0.79 l -0.07,-0.07 2.01,0.81 h -0.05 v 0 h -0.07 c -0.57,0 -1.1,-0.14 -1.56,-0.48 l -0.29,-0.19 0.29,0.19 -0.12,-0.07 c -0.36,-0.17 -0.69,-0.43 -0.93,-0.74 l -0.12,-0.15 0.93,0.75 -0.12,-0.05 c -0.53,-0.29 -0.98,-0.72 -1.25,-1.27 l -0.07,-0.12 0.34,0.48 -0.12,-0.15 0.21,0.24 -0.09,-0.07 c -0.1,-0.07 -0.19,-0.19 -0.24,-0.29 l -0.1,-0.12 0.19,0.24 -0.48,-0.55 v 0.05 l -0.64,-0.7 c -0.15,-0.14 -0.27,-0.31 -0.36,-0.45 l -0.27,-0.41 0.24,0.31 -0.29,-0.36 -0.09,-0.12 -0.24,-0.31 -0.12,-0.17 -0.63,-1.01 0.29,0.39 -0.33,-0.36 0.33,0.33 -0.29,-0.26 c -0.16,-0.12 -0.31,-0.24 -0.43,-0.43 l -0.29,-0.34 0.44,0.43 -0.6,-0.45 0.21,0.14 -0.29,-0.19 0.32,0.17 -0.32,-0.15 -0.12,-0.07 -0.24,-0.12 -0.16,-0.12 -0.2,-0.12 c -0.16,-0.07 -0.28,-0.19 -0.43,-0.31 l -0.05,-0.07 2.04,0.81 h -0.07 c -0.45,0 -0.89,-0.09 -1.29,-0.31 l -0.12,-0.05 1.36,0.29 h -0.04 -0.05 -0.07 -0.03 -0.12 0.03 -0.05 c -0.79,0 -1.51,-0.26 -2.04,-0.79 l -0.07,-0.07 2.01,0.81 h -0.09 0.04 -0.07 v 0 h -0.05 -0.04 -0.15 l 2.71,-1.99 -0.04,0.1 c -0.36,1.17 -1.44,1.94 -2.67,1.99 h -0.05 -0.04 -0.12 0.04 -0.07 v 0 h -0.05 -0.04 -0.08 l 2.04,-0.89 -0.07,0.1 0.22,-0.27 -0.36,0.46 0.24,-0.34 -0.1,0.15 -0.14,0.21 -0.15,0.22 0.27,-0.43 -0.07,0.12 -0.12,0.21 -0.08,0.17 0.15,-0.29 -0.12,0.27 -0.15,0.31 -0.09,0.14 -0.1,0.12 -0.12,0.22 0.43,-2.04 0.05,0.19 c 0.1,0.67 -0.02,1.32 -0.33,1.87 l -0.12,0.24 0.19,-0.38 -0.07,0.14 0.16,-0.6 -0.04,0.17 0.04,-0.43 v 0.26 c 0,0.34 -0.04,0.65 -0.16,0.96 l -0.17,0.58 0.05,-0.17 -0.05,0.22 v 0 l -0.07,0.24 c -0.08,0.24 -0.17,0.48 -0.29,0.69 l -0.1,0.15 0.24,-0.58 -0.09,0.29 c -0.05,0.19 -0.12,0.36 -0.2,0.53 l -0.12,0.21 -0.21,0.29 -0.1,0.12 0.22,-0.29 -0.15,0.24 0.15,-0.31 -0.1,0.22 c -0.12,0.33 -0.33,0.67 -0.6,0.93 l -0.12,0.12 h -0.02 l -0.22,0.24 0.87,-2.13 v 0.09 c 0,0.65 -0.2,1.3 -0.6,1.8 l -0.08,0.12 c -0.16,0.22 -0.33,0.41 -0.57,0.6 l -0.12,0.1 -0.15,0.07 -0.09,0.07 c -0.1,0.05 -0.22,0.15 -0.31,0.17 l -0.12,0.1 1.12,-1.01 -0.07,0.07 c -0.21,0.34 -0.48,0.6 -0.81,0.82 l -0.08,0.07 c -0.48,0.31 -1.03,0.5 -1.63,0.5 h -0.05 l -0.04,0.03 h -0.12 l 2.11,-0.89 -0.1,0.07 v 0 l -0.05,0.07 c -0.55,0.58 -1.32,0.89 -2.11,0.89 h -0.12 c -0.38,0 -0.74,-0.05 -1.1,-0.19 l -0.15,-0.07 1.11,0.21 h -0.12 c -0.79,0 -1.54,-0.31 -2.11,-0.84 l -0.05,-0.07 2.09,0.84 h -0.12 v 0 h -0.05 c -0.79,0 -1.56,-0.29 -2.11,-0.84 l -0.05,-0.05 2.09,0.84 h -0.12 c -0.77,0 -1.54,-0.31 -2.09,-0.84 l -0.07,-0.07 v 0 l -0.05,-0.07 0.77,0.55 -0.12,-0.07 1.36,0.31 h -0.07 c -1.22,0 -2.35,-0.72 -2.78,-1.85 l -0.1,-0.14 1.13,1.34 -0.07,-0.07 c -0.19,-0.07 -0.34,-0.19 -0.46,-0.36 l -0.07,-0.05 c -0.55,-0.55 -0.89,-1.29 -0.89,-2.06 v -0.07 l 1.66,2.61 -0.12,-0.07 c -0.36,-0.17 -0.7,-0.41 -0.94,-0.72 L 534,182.76 v 0 l -1.08,-1.27 v 0.02 l -0.38,-0.43 0.31,0.29 -0.48,-0.41 0.07,0.05 -0.5,-0.39 0.14,0.1 -0.55,-0.41 -0.24,-0.19 -0.6,-0.53 0.36,0.29 -0.22,-0.12 0.34,0.17 -0.24,-0.12 -0.17,-0.1 -0.19,-0.12 -0.12,-0.05 -0.24,-0.14 0.77,0.31 -0.24,-0.05 c -0.17,-0.07 -0.34,-0.12 -0.51,-0.21 l -0.24,-0.12 0.51,0.21 -0.22,-0.07 0.19,0.05 -0.31,-0.07 1.03,0.07 -0.24,0.02 c -0.12,0 -0.24,0.03 -0.36,0.03 h -0.09 v 0 h -0.12 l 2.13,-0.89 -0.09,0.05 c -0.53,0.57 -1.32,0.91 -2.14,0.91 h -0.14 v 0 h -0.05 l 0.74,-0.1 -0.14,0.03 1.97,-1.59 -0.03,0.05 c -0.31,0.6 -0.74,1.06 -1.34,1.37 l -0.12,0.05 0.43,-0.27 -0.12,0.1 -0.12,0.07 -0.07,0.07 c -0.53,0.34 -1.08,0.51 -1.68,0.51 h -0.12 l 2.11,-0.87 -0.05,0.05 v 0 l -0.09,0.1 0.55,-0.77 -0.07,0.12 c -0.51,1.01 -1.56,1.63 -2.69,1.63 h -0.07 l 2.61,-1.44 -0.12,0.17 c -0.12,0.19 -0.26,0.38 -0.45,0.55 l -0.05,0.07 0.38,-0.45 -0.07,0.09 0.07,-0.09 -0.67,1.05 0.1,-0.12 -0.22,0.34 0.22,-0.46 -0.15,0.46 c -0.07,0.12 -0.09,0.19 -0.14,0.31 l -0.22,0.43 0.05,-0.12 -0.38,0.84 c -0.05,0.12 -0.12,0.24 -0.17,0.36 l -0.43,0.7 0.19,-0.36 -0.1,0.19 c -0.12,0.31 -0.31,0.55 -0.48,0.79 l -0.19,0.22 0.1,-0.12 -0.24,0.29 c -0.05,0.09 -0.15,0.19 -0.24,0.26 l -0.15,0.17 v 0 l -0.07,0.05 0.91,-2.09 v 0.05 c -0.02,0.81 -0.36,1.56 -0.93,2.13 -0.53,0.53 -1.32,0.87 -2.14,0.84 h -0.05 l 2.88,-2.04 -0.02,0.1 c -0.24,0.74 -0.82,1.37 -1.51,1.73 l -0.15,0.07 0.77,-0.55 -0.05,0.07 c -0.57,0.53 -1.32,0.86 -2.13,0.84 h -0.1 l 2.52,-1.32 -0.05,0.07 c -0.57,0.84 -1.51,1.37 -2.52,1.37 l -0.12,-0.05 v 0 h -0.07 -0.02 -0.03 l 2.16,-0.84 -0.07,0.07 c -0.55,0.53 -1.34,0.87 -2.11,0.84 h -0.07 l 0.72,-0.07 -0.12,0.05 c -0.24,0.05 -0.48,0.07 -0.75,0.05 h -0.09 v 0 h -0.05 c -0.58,0 -1.13,-0.15 -1.61,-0.46 l -0.31,-0.24 -0.07,-0.02 -0.17,-0.12 c -0.19,-0.12 -0.34,-0.24 -0.48,-0.39 l -0.07,-0.07 0.48,0.41 -0.17,-0.12 c -0.19,-0.12 -0.34,-0.29 -0.48,-0.41 l -0.07,-0.07 v 0.02 l -0.15,-0.14 c -0.21,-0.24 -0.43,-0.53 -0.55,-0.82 l -0.07,-0.12 1.34,1.35 -0.12,-0.05 c -0.67,-0.34 -1.17,-0.89 -1.44,-1.56 l -0.07,-0.17 0.67,1.01 -0.12,-0.12 v 0 l -0.12,-0.12 c -0.31,-0.31 -0.5,-0.65 -0.67,-1.03 l -0.05,-0.15 -0.07,-0.14 -0.05,-0.19 1.47,1.7 -0.12,-0.05 c -0.99,-0.5 -1.61,-1.53 -1.61,-2.66 v -0.22 l 0.19,1.11 -0.05,-0.15 0.22,0.41 -0.34,-0.53 v -0.02 l -0.12,-0.22 -0.09,-0.14 -0.1,-0.19 0.07,0.09 -0.14,-0.26 1.1,1.13 -0.21,-0.12 c -0.46,-0.27 -0.84,-0.65 -1.11,-1.11 l -0.12,-0.21 0.12,0.19 -0.14,-0.22 0.24,0.34 -0.65,-0.77 -0.12,-0.14 -0.31,-0.39 0.26,0.27 -0.21,-0.22 v 0 l -0.22,-0.17 0.22,0.17 -0.17,-0.14 c -0.17,-0.12 -0.29,-0.24 -0.41,-0.39 l -0.14,-0.19 0.96,0.77 -0.12,-0.07 1.32,0.33 h -0.1 c -1.61,-0.02 -2.93,-1.34 -2.93,-3 v -0.07 l 2.98,3 h -0.07 c -1.66,-0.02 -2.98,-1.34 -2.98,-3 v -0.07 l 2.98,2.95 h -0.05 c -0.82,0 -1.56,-0.29 -2.11,-0.86 l -0.05,-0.05 2.06,0.86 h -0.07 -0.05 -0.02 l 1.39,-0.31 -0.05,0.05 c -0.43,0.19 -0.86,0.29 -1.34,0.29 h -0.07 v 0 h -0.05 v 0 h -0.07 v 0 h -0.05 -0.05 -0.02 0.02 -0.05 -0.02 -0.07 0.02 -0.05 l 2.09,-0.84 -0.05,0.07 c -0.57,0.53 -1.32,0.84 -2.11,0.84 h -0.05 l 2.81,-2.02 -0.02,0.1 c -0.41,1.22 -1.56,2.04 -2.81,1.99 h -0.07 c -1.2,0 -2.28,-0.72 -2.74,-1.82 -0.46,-1.11 -0.22,-2.4 0.67,-3.24 0.84,-0.84 2.14,-1.08 3.22,-0.63 1.1,0.48 1.82,1.56 1.82,2.76 v 0.05 c 0,0.79 -0.33,1.54 -0.86,2.11 l -0.67,0.63 0.24,-0.24 -0.24,0.26 h 0.02 l -0.24,0.29 0.43,-0.7 -0.19,0.39 c -0.05,0.19 -0.14,0.33 -0.26,0.5 l -0.17,0.29 0.02,-0.07 -0.21,0.33 0.24,-0.45 -0.17,0.38 -0.05,0.1 -0.14,0.33 0.12,-0.26 -0.12,0.26 c -0.03,0.12 -0.05,0.22 -0.12,0.34 l -0.6,1.2 0.02,-0.1 -0.19,0.51 c -0.1,0.14 -0.19,0.31 -0.29,0.45 l -0.24,0.36 -0.02,0.03 -0.29,0.43 -0.05,0.02 -0.14,0.22 0.33,-0.58 -0.07,0.15 c -0.48,1.1 -1.61,1.82 -2.86,1.75 h -0.04 l 1.7,-0.43 -0.12,0.07 1.39,-2.28 v 0.05 c -0.07,0.86 -0.5,1.68 -1.2,2.16 l -0.12,0.09 -0.19,0.12 -0.1,0.05 0.1,-0.05 -0.12,0.05 c -0.12,0.1 -0.26,0.19 -0.38,0.24 l -0.12,0.07 1.27,-1.17 -0.05,0.07 c -0.5,0.89 -1.49,1.46 -2.57,1.39 h -0.12 l 2.43,-1.15 -0.1,0.07 c -0.53,0.79 -1.44,1.2 -2.4,1.18 h -0.14 c -0.8,-0.03 -1.52,-0.39 -2.04,-0.96 l -0.03,-0.05 1.61,0.89 h -0.05 c -0.65,-0.12 -1.2,-0.46 -1.63,-0.94 l -0.05,-0.05 1.85,0.96 h -0.05 v 0 l -0.07,-0.02 c -1.56,-0.12 -2.69,-1.51 -2.54,-3.05 v -0.05 c 0.14,-1.56 1.48,-2.66 3.04,-2.54 1.54,0.14 2.69,1.49 2.55,3.02 -0.15,1.56 -1.51,2.69 -3.05,2.55 h -0.05 c -0.91,-0.1 -1.73,-0.6 -2.16,-1.35 l -0.07,-0.09 c -0.74,-1.3 -0.38,-2.98 0.86,-3.77 1.28,-0.82 2.96,-0.48 3.82,0.72 0.89,1.22 0.6,2.9 -0.58,3.84 l -0.02,0.02 c -0.58,0.41 -1.25,0.63 -1.94,0.53 h -0.08 c -1.48,-0.12 -2.59,-1.44 -2.52,-2.93 v -0.09 l 0.7,2.01 -0.05,-0.07 1.83,0.94 h -0.08 c -0.74,-0.1 -1.39,-0.41 -1.87,-0.99 -0.45,-0.57 -0.69,-1.29 -0.65,-2.01 v -0.05 l 0.7,2.06 -0.05,-0.09 1.8,0.93 h -0.07 c -1.49,-0.14 -2.62,-1.46 -2.45,-2.97 v -0.05 0.05 -0.1 l 0.65,1.99 -0.05,-0.07 c -0.48,-0.55 -0.72,-1.32 -0.67,-2.06 v -0.05 l 0.34,1.51 -1.68,-3.12 -0.12,-0.29 -0.46,-1.2 -0.05,-0.14 -0.41,-1.27 0.1,0.21 -0.6,-1.46 c -0.46,-1.13 0.02,-2.4 1.1,-2.93 1.13,-0.5 2.4,-0.07 3,0.96 z"
         style="fill:#000000;fill-opacity:1;fill-rule:nonzero;stroke:none"
         transform="matrix(1.3333333,0,0,-1.3333333,0,1120.8)" />
    </g>
    <g
       id="g163">
      <path
         id="path163"
         d="m 511.39,152.5 v -0.27 0 -0.26 0 -0.24 c 0,-0.12 0,-0.27 0.03,-0.39 l 0.09,-0.64 0.03,-0.2 0.21,-0.91 -0.07,0.39 0.12,-1.56 0.02,-0.24 0.48,-2.79 v 0.1 l 0.05,-0.34 c 0.15,-1.05 0.79,-1.92 1.8,-2.3 0.96,-0.39 2.04,-0.24 2.83,0.41 0.87,0.64 1.25,1.68 1.11,2.71 l -0.07,0.33 -0.03,0.17 -0.6,2.79 0.03,-0.15 -0.27,1.56 c -0.05,0.15 -0.07,0.27 -0.09,0.39 l -0.27,0.88 v -0.04 l -0.19,0.64 -0.1,0.24 -0.07,0.2 v 0 l -0.09,0.24 0.02,-0.17 -0.1,0.29 c -0.38,1.17 -1.58,1.87 -2.78,1.68 -1.22,-0.2 -2.14,-1.25 -2.09,-2.52 z"
         style="fill:#000000;fill-opacity:1;fill-rule:nonzero;stroke:none"
         transform="matrix(1.3333333,0,0,-1.3333333,0,1120.8)" />
    </g>
    <g
       id="g164">
      <path
         id="path164"
         d="m 538.34,152.71 0.48,-4.68 0.05,-0.33 0.07,-0.2 -0.07,0.27 0.39,-2.71 -0.03,0.36 v -0.24 c 0,-0.92 0.48,-1.8 1.3,-2.28 0.84,-0.48 1.82,-0.48 2.64,0 0.84,0.48 1.32,1.36 1.32,2.28 v 0.24 c 0,0.16 0,0.28 -0.03,0.4 l -0.4,2.69 -0.05,0.24 -0.07,0.22 0.07,-0.22 -0.82,4.63 c -0.21,1.32 -1.44,2.19 -2.76,2 -1.29,-0.17 -2.21,-1.35 -2.09,-2.67 z"
         style="fill:#000000;fill-opacity:1;fill-rule:nonzero;stroke:none"
         transform="matrix(1.3333333,0,0,-1.3333333,0,1120.8)" />
    </g>
    <g
       id="g165">
      <path
         id="path165"
         d="m 563.18,152.74 0.05,-0.6 -0.02,0.09 0.07,-0.69 v 0 l 0.02,-0.65 0.03,-0.31 0.33,-1.95 v -0.02 l 0.41,-2.4 0.05,-0.07 0.14,-0.72 -0.07,0.48 v -0.2 c 0,-1.36 1.13,-2.47 2.5,-2.47 1.34,0 2.47,1.11 2.49,2.47 v 0.2 c 0,0.19 -0.02,0.33 -0.07,0.48 l -0.14,0.76 v -0.04 l -0.46,2.4 v -0.03 l -0.36,1.99 0.05,-0.24 -0.07,0.68 v 0 l -0.05,0.69 c 0,0.12 -0.05,0.24 -0.05,0.36 l -0.14,0.58 c -0.29,1.22 -1.47,2.01 -2.74,1.8 -1.22,-0.22 -2.09,-1.35 -1.97,-2.59 z"
         style="fill:#000000;fill-opacity:1;fill-rule:nonzero;stroke:none"
         transform="matrix(1.3333333,0,0,-1.3333333,0,1120.8)" />
    </g>
    <g
       id="g188"
       transform="matrix(1.301189,0,0,1.3163965,121.79398,725.63566)">
      <path
         id="path188"
         d="m 308.14,719.57 c 0.063,1.12756 -0.0596,1.47192 -0.018,3.32484 v -0.12 l 0.02,0.62 v 0.1 l 0.018,2.19516 v 0.09 5.98 0.07 l -0.12,2.86 v -0.03 l -0.05,1.83 v -0.03 l -0.24,9.92 v -0.08 1.59 -0.12 l 0.07,1.65 v -0.02 l 0.1,1.63 -0.02,-0.19 0.45,3.41 v -0.07 l 0.07,0.52 -0.04,-0.28 0.38,1.29 -0.05,-0.14 0.17,0.48 -0.05,-0.1 0.19,0.46 0.03,0.05 0.19,0.48 -0.12,-0.27 0.53,0.99 c 0.05,0.09 0.09,0.19 0.12,0.28 l 0.07,0.15 -0.53,-0.82 0.12,0.15 c 0.12,0.12 0.24,0.24 0.31,0.38 l 0.12,0.14 -0.09,-0.09 0.09,0.12 v -0.03 l 0.12,0.15 -0.21,-0.22 0.12,0.12 c 0.09,0.1 0.17,0.19 0.24,0.27 l 0.09,0.14 -0.24,-0.26 0.15,0.12 -0.34,-0.27 0.43,0.31 -0.02,-0.04 0.02,0.04 v 0 l 0.05,0.03 h 0.03 l 0.04,0.05 -0.26,-0.17 0.07,0.05 c 0.24,0.12 0.43,0.26 0.63,0.45 l 0.04,0.05 -1.72,-0.72 h 0.09 l -1.08,0.24 0.03,-0.02 c 0.33,-0.17 0.69,-0.24 1.08,-0.24 h 0.09 c 0.65,0 1.27,0.26 1.73,0.72 l 0.05,0.07 -1.73,-0.75 h 0.1 0.02 0.02 -0.02 0.1 c 0.19,0 0.4,0.03 0.6,0.08 l 0.04,0.02 -0.57,-0.07 h 0.05 l -1.28,0.33 0.1,-0.04 c 0.38,-0.24 0.84,-0.36 1.27,-0.34 h 0.05 c 0.14,0 0.31,0.02 0.46,0.05 h 0.09 l -1.58,0.21 0.07,-0.02 -0.26,0.14 0.04,-0.04 c 0.1,-0.05 0.17,-0.1 0.27,-0.15 l 0.07,-0.02 c 0.19,-0.1 0.38,-0.17 0.62,-0.22 l 0.08,-0.02 c 0.16,-0.03 0.33,-0.03 0.5,-0.03 h 0.02 l -1.36,0.39 0.04,-0.03 -0.55,0.51 0.07,-0.07 c 0.34,-0.44 0.82,-0.72 1.32,-0.84 l 0.08,-0.05 -0.77,0.36 0.14,-0.12 -0.65,0.65 0.12,-0.17 c 0.05,-0.05 0.1,-0.12 0.15,-0.19 l 0.19,-0.22 v 0.02 l 0.14,-0.19 0.17,-0.17 0.17,-0.16 -0.41,0.52 0.15,-0.26 -0.08,0.12 0.12,-0.22 c 0.05,-0.09 0.1,-0.16 0.15,-0.24 l 0.14,-0.21 -0.05,0.07 0.15,-0.22 -0.22,0.44 0.07,-0.24 0.05,-0.08 0.12,-0.26 -0.12,0.34 0.05,-0.22 c 0.02,-0.14 0.07,-0.26 0.14,-0.41 l 0.1,-0.24 -0.12,0.36 0.14,-0.53 -0.02,0.08 0.14,-0.6 -0.04,0.24 0.09,-0.65 v -0.03 l 0.07,-0.6 v 0.2 l 0.08,-1.59 v 0.17 l -0.08,-3.53 v 0.03 l -0.02,-1.9 v -0.02 l 0.0152,-1.27047 0.0196,-0.80226 c 0.009,-1.02422 0.46523,-2.24727 1.64523,-2.46727 1.2,-0.24 2.3,0.55 2.54,1.73 l 0.1,0.5 c 0.02,0.1 0.02,0.19 0.02,0.29 l 0.12,1.85 v 0 l 0.12,1.87 v 0.02 l 0.2,3.53 v 0.22 l -0.08,1.56 v 0.12 l -0.04,0.62 v -0.02 l -0.05,0.67 -0.03,0.22 -0.12,0.6 -0.02,0.16 -0.14,0.53 c -0.03,0.12 -0.08,0.22 -0.1,0.34 l -0.12,0.24 0.14,-0.41 -0.07,0.22 c 0,0.12 -0.05,0.26 -0.09,0.36 l -0.1,0.28 0.02,-0.09 -0.07,0.24 c -0.07,0.17 -0.12,0.31 -0.21,0.45 l -0.15,0.24 -0.05,0.08 -0.14,0.19 0.14,-0.24 -0.07,0.21 -0.07,0.12 -0.14,0.24 c -0.1,0.2 -0.22,0.36 -0.39,0.51 l -0.14,0.17 0.14,-0.17 -0.14,0.19 -0.03,0.02 -0.19,0.24 0.17,-0.24 -0.1,0.15 c -0.19,0.29 -0.43,0.53 -0.72,0.72 l -0.14,0.12 c -0.24,0.14 -0.48,0.26 -0.74,0.33 h -0.08 l 1.3,-0.84 -0.05,0.1 c -0.17,0.19 -0.36,0.36 -0.55,0.5 l -0.05,0.03 c -0.41,0.29 -0.89,0.41 -1.37,0.43 h -0.02 l 0.48,-0.05 -0.1,0.03 0.6,-0.24 -0.07,0.04 0.29,-0.16 -0.07,0.04 c -0.07,0.05 -0.17,0.12 -0.27,0.15 l -0.07,0.05 c -0.48,0.24 -1.03,0.31 -1.56,0.21 l -0.09,-0.02 0.5,0.05 h -0.05 l 1.25,-0.36 -0.1,0.07 c -0.36,0.21 -0.79,0.33 -1.24,0.36 h -0.05 c -0.22,0 -0.41,-0.03 -0.6,-0.07 l -0.07,-0.03 0.6,0.07 h -0.1 0.02 -0.02 -0.02 -0.1 c -0.65,0 -1.27,-0.24 -1.73,-0.72 l -0.07,-0.04 1.75,0.72 h -0.09 l 1.12,-0.29 -0.04,0.02 c -0.34,0.19 -0.72,0.27 -1.11,0.27 h -0.09 c -0.65,0.02 -1.28,-0.24 -1.76,-0.7 l -0.04,-0.05 0.64,0.46 -0.07,-0.03 c -0.07,-0.04 -0.17,-0.12 -0.26,-0.16 l -0.05,-0.05 v 0 l -0.05,-0.03 v 0 l -0.05,-0.02 -0.07,-0.07 -0.43,-0.27 c -0.12,-0.09 -0.22,-0.19 -0.31,-0.28 l -0.15,-0.12 c -0.07,-0.08 -0.14,-0.17 -0.21,-0.27 l -0.1,-0.14 0.22,0.26 -0.12,-0.12 c -0.07,-0.07 -0.15,-0.14 -0.19,-0.21 l -0.12,-0.17 -0.03,-0.03 -0.12,-0.14 -0.07,-0.12 -0.1,-0.14 0.29,0.36 -0.12,-0.15 c -0.24,-0.21 -0.43,-0.5 -0.57,-0.81 l -0.05,-0.17 0.12,0.24 -0.55,-0.99 c -0.05,-0.09 -0.08,-0.19 -0.12,-0.28 l -0.2,-0.48 v 0.02 l -0.19,-0.46 -0.02,-0.12 -0.19,-0.48 -0.03,-0.16 -0.36,-1.28 c -0.05,-0.09 -0.07,-0.19 -0.09,-0.28 l -0.08,-0.56 v -0.04 l -0.45,-3.41 -0.03,-0.19 -0.07,-1.64 v -0.02 l -0.05,-1.66 -0.02,-0.09 0.02,-1.59 v -0.09 l 0.41,-9.89 v -0.02 l 0.07,-1.83 v -0.02 c 0.37498,-4.30434 -0.17363,-7.2239 0.0348,-11.5368 0.0116,-1.20152 0.13855,-2.92085 0.71537,-4.19422 0.61132,-0.96501 1.44614,-1.27166 2.75981,-0.97898 0.81,0.24 1.34,1.01 1.25,1.83 z"
         style="fill:#000000;fill-opacity:1;fill-rule:nonzero;stroke:none"
         transform="matrix(1.3333333,0,0,-1.3333333,0,1120.8)"
         sodipodi:nodetypes="ccccccccccccccccccccccccccccccccccccccccccccccccccccccccccccccccccsscccccccscccccccsccccccccccsccccccccccccccccccccccccccccccccccccccccccccccccccccscccccccccccccccccccccccccccccccccccccccccccccccccccccccccccccccccscccccccsccccccsccccccccccccccccccscccccccccccscccccccccccccccccccccccccccc" />
    </g>
  </g>
</svg>
