<?xml version="1.0" encoding="UTF-8" standalone="no"?>
<!-- Created with Inkscape (http://www.inkscape.org/) -->

<svg
   version="1.1"
   id="svg1"
   width="30.596018"
   height="28"
   viewBox="0 0 30.596018 27.999999"
   sodipodi:docname="lesson1_sentence10_word3.svg"
   inkscape:export-filename="lesson1_sentence10.png"
   inkscape:export-xdpi="709.79663"
   inkscape:export-ydpi="709.79663"
   inkscape:version="1.4.3 (0d15f75, 2025-12-25)"
   xmlns:inkscape="http://www.inkscape.org/namespaces/inkscape"
   xmlns:sodipodi="http://sodipodi.sourceforge.net/DTD/sodipodi-0.dtd"
   xmlns="http://www.w3.org/2000/svg"
   xmlns:svg="http://www.w3.org/2000/svg">
  <defs
     id="defs1" />
  <sodipodi:namedview
     id="namedview1"
     pagecolor="#ffffff"
     bordercolor="#000000"
     borderopacity="0.25"
     inkscape:showpageshadow="2"
     inkscape:pageopacity="0.0"
     inkscape:pagecheckerboard="0"
     inkscape:deskcolor="#d1d1d1"
     inkscape:zoom="4.6282088"
     inkscape:cx="1.0803316"
     inkscape:cy="85.886358"
     inkscape:window-width="1920"
     inkscape:window-height="1191"
     inkscape:window-x="-9"
     inkscape:window-y="-9"
     inkscape:window-maximized="1"
     inkscape:current-layer="g1">
    <inkscape:page
       x="0"
       y="0"
       inkscape:label="1"
       id="page1"
       width="30.596018"
       height="27.999998"
       margin="0"
       bleed="0" />
  </sodipodi:namedview>
  <g
     id="g1"
     inkscape:groupmode="layer"
     inkscape:label="1"
     transform="translate(-746.73849,-102.46669)">
    <g
       id="g317"
       transform="translate(-0.21606631,-61.578899)">
      <path
         id="path317"
         d="m 566.71,715.3 0.17,0.02 h 0.05 l 0.36,0.02 v 0 l 0.36,0.05 h -0.05 0.91 -0.02 l 0.48,-0.05 h 0.02 1.85 0.05 l 0.91,0.08 v 0 l 1.1,0.04 h -0.19 l 0.55,-0.07 -0.67,0.84 -0.02,-0.12 0.02,0.03 -0.05,-0.39 v -0.07 -0.14 0 -0.15 0 -0.12 -0.09 l 0.03,-0.39 v 0.05 -0.02 c 0,-0.03 0,-0.1 0,-0.15 l 0.26,-1.49 v -0.04 l 0.53,-2.19 v 0 l 0.19,-0.81 0.05,-0.08 0.67,-2.28 0.05,-0.04 0.5,-1.18 0.03,-0.1 1.51,-2.9 v 0 l 0.17,-0.36 v 0 l 0.21,-0.36 h -0.02 l 0.19,-0.38 -0.05,0.09 0.15,-0.41 v 0 l 0.14,-0.38 -0.02,0.07 0.12,-0.43 v 0.07 l 0.09,-0.41 v 0.05 l 0.08,-0.43 v 0.07 l 0.14,-1.13 -0.02,0.12 v -0.12 c 0,-0.02 0,-0.07 0.02,-0.12 v -0.07 0.24 -0.09 c -0.02,-0.08 -0.02,-0.1 -0.02,-0.12 v -0.12 l 0.02,0.14 -0.02,-0.1 v 0 l -0.05,-0.28 0.05,0.14 -0.08,-0.22 c -0.14,-0.43 0.1,-0.91 0.56,-1.08 0.43,-0.14 0.91,0.1 1.08,0.56 l 0.04,0.16 c 0.03,0.08 0.03,0.1 0.03,0.17 l 0.07,0.29 v -0.02 0.09 c 0,0.05 0.02,0.12 0.02,0.15 v 0.12 l -0.02,-0.12 0.02,0.09 c 0,0.07 0,0.17 0,0.27 l -0.02,0.09 0.02,-0.17 v 0.12 l -0.02,0.1 -0.12,1.1 v 0.08 l -0.1,0.38 v 0.02 l -0.09,0.44 v 0.02 l -0.12,0.43 -0.03,0.05 -0.12,0.36 v 0 l -0.14,0.38 -0.02,0.1 -0.2,0.38 v 0.05 l -0.16,0.36 v 0 l -0.2,0.36 h -0.02 l -1.51,2.93 0.02,-0.05 -0.5,1.15 0.02,-0.04 -0.72,2.28 0.05,-0.03 -0.22,0.79 v -0.02 l -0.57,2.18 0.02,-0.04 -0.29,1.46 v -0.14 0.02 0.07 l -0.02,0.39 v -0.03 0.12 0 0.15 0 0.14 -0.05 l 0.02,0.39 v 0.09 l -0.02,0.12 c 0,0.41 -0.34,0.75 -0.77,0.77 l -0.53,0.02 h -0.12 l -1.1,-0.07 v 0 l -0.91,-0.07 h 0.07 l -1.85,-0.02 h 0.05 -0.53 v 0 h -0.91 -0.1 l -0.38,-0.08 v 0 l -0.36,-0.04 h -0.05 l -0.14,-0.03 c -0.36,-0.07 -0.6,-0.41 -0.58,-0.77 0.05,-0.38 0.36,-0.64 0.72,-0.64 z"
         style="fill:#000000;fill-opacity:1;fill-rule:nonzero;stroke:none"
         transform="matrix(1.3333333,0,0,-1.3333333,0,1120.8)" />
    </g>
    <g
       id="g318"
       transform="translate(-0.21606631,-61.578899)">
      <path
         id="path318"
         d="m 567.38,716.38 v 0 l 0.15,-0.6 v 0.02 c 0.07,0.12 0.07,0.26 -0.03,0.43 -0.07,0.12 -0.19,0.19 -0.31,0.27 h -0.02 c -0.27,0.09 -0.6,-0.08 -0.7,-0.36 -0.12,-0.27 0.07,-0.6 0.34,-0.7 0.31,-0.12 0.62,0.07 0.72,0.34 v 0.02 c 0.09,0.31 -0.05,0.6 -0.36,0.72 v 0 c -0.22,0.07 -0.46,0 -0.6,-0.17 -0.15,-0.17 -0.22,-0.43 -0.1,-0.6 0.1,-0.21 0.34,-0.33 0.55,-0.33 0.24,0.02 0.41,0.16 0.51,0.38 v 0 c 0.09,0.24 0,0.48 -0.17,0.62 v 0 l 0.05,-0.79 h 0.02 c 0.1,0.12 0.17,0.29 0.12,0.43 0,0.17 -0.07,0.32 -0.19,0.41 v 0 0 l -0.05,0.03 v 0 0 l 0.12,-0.15 v 0.03 c -0.12,0.16 -0.36,0.28 -0.6,0.26 -0.24,-0.02 -0.43,-0.17 -0.5,-0.41 l -0.05,-0.09 c -0.05,-0.15 -0.05,-0.32 0.02,-0.46 l 0.12,-0.36 v -0.02 l 0.03,-0.08 0.02,-0.02 0.55,-1.13 v 0 l 0.48,-1.03 -0.02,0.07 0.67,-1.85 -0.02,0.05 0.19,-0.69 v 0.02 l 0.17,-0.7 -0.03,0.05 0.24,-1.44 v 0.03 l 0.1,-0.82 v 0.07 l 0.02,-0.84 v 0.03 l -0.02,-2.07 V 705 l -0.05,-0.38 v 0.02 l -0.02,-0.26 v 0.02 l -0.05,-0.6 c -0.05,-0.26 0.07,-0.53 0.29,-0.72 0.21,-0.14 0.5,-0.17 0.79,-0.05 0.24,0.07 0.41,0.31 0.43,0.63 l 0.05,0.57 v 0.05 l 0.02,0.26 -0.02,-0.04 0.02,0.38 v 0.02 l 0.03,2.09 v 0.03 l -0.03,0.84 v 0.04 l -0.09,0.84 v 0.05 l -0.24,1.44 -0.03,0.05 -0.14,0.7 -0.05,0.02 -0.19,0.7 v 0.04 l -0.72,1.85 -0.05,0.05 -0.5,1.03 v 0.03 l -0.58,1.1 -0.02,0.02 -0.03,0.08 0.05,-0.1 -0.14,0.36 v -0.02 l -0.03,0.09 c -0.09,0.27 -0.33,0.43 -0.6,0.41 -0.31,0 -0.55,-0.17 -0.6,-0.46 -0.07,-0.26 0.03,-0.52 0.27,-0.67 l 0.02,-0.05 c 0.22,-0.12 0.53,-0.12 0.72,0.08 v 0 0 h 0.05 v 0 0.02 l -0.84,0.07 v 0 c 0.12,-0.12 0.24,-0.19 0.41,-0.21 0.14,0 0.31,0.02 0.43,0.12 v 0.02 c 0.24,0.19 0.26,0.5 0.12,0.74 -0.17,0.24 -0.48,0.34 -0.72,0.22 -0.29,-0.12 -0.41,-0.46 -0.31,-0.72 v 0 c 0.07,-0.14 0.14,-0.26 0.26,-0.34 0.17,-0.04 0.31,-0.07 0.46,-0.02 v 0 c 0.31,0.1 0.45,0.43 0.36,0.72 -0.1,0.31 -0.41,0.46 -0.72,0.36 -0.27,-0.12 -0.46,-0.41 -0.34,-0.72 v -0.02 c 0.1,-0.27 0.43,-0.46 0.7,-0.34 h 0.02 c 0.22,0.07 0.36,0.26 0.36,0.48 0.05,0.24 -0.07,0.46 -0.29,0.55 -0.21,0.07 -0.45,0.05 -0.6,-0.09 -0.19,-0.15 -0.24,-0.36 -0.19,-0.58 l 0.05,-0.02 c 0.02,-0.2 0.17,-0.32 0.36,-0.36 0.17,-0.03 0.36,0 0.5,0.12 v 0 c 0.12,0.12 0.17,0.26 0.17,0.4 0,0.17 -0.05,0.32 -0.17,0.44 z"
         style="fill:#000000;fill-opacity:1;fill-rule:nonzero;stroke:none"
         transform="matrix(1.3333333,0,0,-1.3333333,0,1120.8)" />
      <path
         id="path319"
         d="m 569.71,702.79 0.1,0.03 -0.12,-0.03 h 0.09 c 0.05,0.03 0.12,0.03 0.15,0.05 l 0.09,0.02 -0.19,-0.04 0.1,0.02 -0.17,-0.02 h 0.07 c 0.1,0 0.17,0 0.24,0.02 h 0.07 -0.07 0.1 -0.17 0.12 -0.05 0.1 -0.15 0.1 l 0.07,-0.02 h 0.22 -0.12 l 0.12,-0.03 v 0 l 0.14,-0.05 v 0 l 0.12,-0.02 h -0.02 l 0.12,-0.02 -0.15,0.04 0.15,-0.04 0.02,-0.03 0.12,-0.05 h -0.02 l 0.31,-0.12 -0.19,0.1 0.38,-0.26 v 0 l 0.36,-0.24 -0.07,0.04 0.72,-0.64 h 0.02 l 0.87,-0.75 0.09,-0.07 0.7,-0.48 h 0.02 l 0.7,-0.46 0.05,-0.02 1.65,-0.86 0.03,-0.03 0.69,-0.33 0.08,-0.03 0.19,-0.09 c 0.53,-0.22 1.13,0.04 1.32,0.57 0.21,0.51 -0.05,1.08 -0.55,1.27 l -0.22,0.1 0.05,-0.02 -0.67,0.33 h 0.02 l -1.63,0.87 0.07,-0.08 -0.72,0.46 h 0.02 l -0.69,0.46 0.09,-0.08 -0.86,0.77 v -0.05 l -0.72,0.65 -0.1,0.07 -0.36,0.24 v 0 l -0.36,0.29 c -0.07,0.03 -0.12,0.05 -0.19,0.07 l -0.29,0.12 -0.09,0.05 -0.12,0.05 0.07,-0.02 -0.12,0.04 c -0.07,0.05 -0.12,0.05 -0.19,0.08 l -0.12,0.02 h -0.03 l -0.12,0.02 v 0 l -0.14,0.05 v 0 l -0.12,0.03 c -0.07,0 -0.1,0 -0.17,0 l -0.19,0.02 0.05,-0.02 -0.1,0.02 c -0.02,0 -0.07,0 -0.14,0 h -0.1 0.05 -0.12 c -0.05,0 -0.1,-0.02 -0.17,-0.02 l -0.07,-0.03 h -0.1 l -0.07,-0.05 0.24,0.05 h -0.07 c -0.05,0 -0.1,0 -0.17,0 l -0.07,-0.05 c -0.07,0 -0.12,-0.02 -0.19,-0.04 l -0.1,-0.03 0.17,0.05 -0.07,-0.02 -0.1,-0.03 -0.07,-0.05 c -0.48,-0.16 -0.72,-0.67 -0.58,-1.15 0.15,-0.48 0.65,-0.72 1.13,-0.6 z"
         style="fill:#000000;fill-opacity:1;fill-rule:nonzero;stroke:none"
         transform="matrix(1.3333333,0,0,-1.3333333,0,1120.8)" />
    </g>
    <g
       id="g319"
       transform="translate(-0.21606631,-61.578899)">
      <path
         id="path320"
         d="m 572.69,709.68 0.02,0.12 c 0.12,0.26 0.05,0.62 -0.24,0.82 v 0 c -0.05,0.02 -0.12,0.04 -0.17,0.09 v 0 l -0.09,0.03 h -0.03 0.1 v 0 l 0.26,-0.2 h -0.02 c -0.07,0.1 -0.17,0.17 -0.29,0.2 v 0 l -0.07,0.02 h -0.05 c -0.19,0.07 -0.41,0.02 -0.6,-0.12 -0.17,-0.12 -0.29,-0.34 -0.29,-0.53 l -0.02,-0.05 c -0.05,-0.38 0.26,-0.74 0.67,-0.79 0.43,-0.05 0.79,0.27 0.82,0.67 0.07,0.41 -0.24,0.8 -0.65,0.82 v 0 c -0.22,0.02 -0.43,-0.02 -0.58,-0.14 -0.14,-0.15 -0.26,-0.34 -0.26,-0.56 v 0 l 0.14,0.41 -0.21,-0.31 c -0.05,-0.05 -0.12,-0.14 -0.15,-0.24 v -0.05 l 0.05,0.15 -0.02,-0.1 c -0.03,-0.02 -0.05,-0.1 -0.05,-0.14 l -0.05,-0.08 v 0 -0.04 l -0.02,-0.03 v -0.09 0.02 l -0.03,-0.05 v 0 -0.07 c -0.02,-0.05 -0.02,-0.12 -0.02,-0.17 v -0.07 0 -0.05 0 -0.09 0 -0.08 0 l -0.05,-0.04 v 0 -0.08 -0.02 -0.05 0 -0.07 c 0,-0.05 0,-0.12 0.05,-0.14 v -0.1 -0.02 l 0.02,-0.1 v 0 -0.05 0 -0.07 0 l 0.03,-0.05 v 0 -0.07 l 0.02,-0.1 0.07,-0.14 v 0 l 0.03,-0.12 c 0.02,-0.05 0.02,-0.1 0.07,-0.12 l 0.05,-0.12 -0.03,0.1 0.03,-0.12 v 0 l 0.07,-0.1 0.02,-0.1 0.05,-0.12 v 0 l 0.07,-0.07 0.03,-0.09 0.07,-0.08 v 0 l 0.05,-0.07 v 0 l 0.09,-0.12 0.05,-0.07 0.07,-0.1 0.05,-0.04 0.19,-0.2 v 0 l 0.17,-0.16 c 0.05,-0.03 0.07,-0.03 0.1,-0.08 l 0.24,-0.14 v 0 l 0.21,-0.14 c 0.03,-0.03 0.05,-0.08 0.12,-0.08 l 0.6,-0.28 0.1,-0.08 1.32,-0.43 v 0 l 0.26,-0.09 v 0 l 0.15,-0.03 -0.22,0.07 0.17,-0.07 0.02,-0.05 0.15,-0.04 0.02,-0.03 0.12,-0.07 -0.12,0.1 0.12,-0.1 -0.02,0.02 0.33,-0.26 v 0 l 0.17,-0.12 c 0.24,-0.17 0.58,-0.24 0.84,-0.12 0.31,0.12 0.53,0.38 0.55,0.7 0.03,0.28 -0.09,0.62 -0.33,0.81 l -0.17,0.12 v 0 l -0.34,0.24 -0.02,0.03 -0.12,0.09 c -0.07,0.03 -0.1,0.05 -0.17,0.05 l -0.12,0.1 0.05,-0.03 -0.12,0.05 0.05,-0.02 -0.15,0.09 c -0.07,0.03 -0.12,0.05 -0.19,0.07 l -0.14,0.05 h 0.02 l -0.26,0.07 v 0 l -1.3,0.46 0.1,-0.05 -0.6,0.29 0.09,-0.05 -0.21,0.15 v 0 l -0.22,0.14 0.1,-0.1 -0.17,0.2 v 0 l -0.19,0.14 0.02,-0.02 -0.05,0.04 0.05,-0.04 -0.07,0.12 v 0 l -0.07,0.04 v 0 l -0.05,0.1 0.05,-0.05 -0.05,0.07 v 0 l -0.1,0.12 0.05,-0.07 -0.05,0.07 v 0 l -0.02,0.12 -0.07,0.1 -0.05,0.1 0.05,-0.12 -0.03,0.12 v 0 l -0.07,0.12 0.05,-0.08 -0.05,0.08 v 0 0.04 0 l -0.02,0.08 v 0 0.04 0 l -0.03,0.08 v -0.03 0.05 -0.12 0.07 0 0.05 0.02 0.08 0 0.04 0 0.08 0 0.09 0 0.05 0 0.07 l -0.02,-0.19 0.02,0.07 v 0 0.05 0.02 l 0.03,0.1 v -0.02 0.04 0 l 0.02,0.08 -0.05,-0.15 0.03,0.05 c 0.02,0.07 0.02,0.1 0.02,0.14 l 0.05,0.08 -0.1,-0.22 0.17,0.31 c 0.07,0.12 0.12,0.29 0.1,0.43 v 0 l -0.65,-0.79 v 0 c 0.41,0.05 0.72,0.41 0.67,0.79 l -0.02,0.05 -0.58,-0.79 h 0.05 l 0.07,0.02 v 0 c 0.12,0.05 0.22,0.1 0.29,0.2 h 0.02 l -0.26,-0.2 v 0 l -0.1,-0.02 0.03,0.02 h 0.09 v 0.05 c 0.05,0 0.12,0.03 0.17,0.07 v 0 l -0.91,0.1 0.07,-0.12 c 0.17,-0.14 0.36,-0.22 0.58,-0.14 0.21,0.02 0.38,0.16 0.48,0.38 z"
         style="fill:#000000;fill-opacity:1;fill-rule:nonzero;stroke:none"
         transform="matrix(1.3333333,0,0,-1.3333333,0,1120.8)" />
    </g>
    <g
       id="g320"
       transform="translate(-0.21606631,-61.578899)">
      <path
         id="path321"
         d="m 568.75,703.58 -0.05,-0.02 c -0.09,-0.1 -0.14,-0.22 -0.19,-0.34 l -0.14,-0.64 0.02,0.02 -0.41,-1.37 v 0 l -0.31,-0.96 v -0.05 l -0.38,-1.39 -0.03,-0.12 -0.02,-0.09 c -0.05,-0.32 0.07,-0.58 0.31,-0.75 0.24,-0.19 0.55,-0.21 0.82,-0.12 0.26,0.12 0.45,0.36 0.48,0.65 v 0.12 -0.12 l 0.36,1.44 v -0.02 l 0.26,0.98 v 0 l 0.41,1.39 v 0.07 l 0.12,0.68 c 0.02,0.12 0.02,0.26 -0.05,0.38 v 0.02 c -0.07,0.24 -0.29,0.44 -0.53,0.48 -0.24,0.08 -0.5,-0.02 -0.67,-0.24 z"
         style="fill:#000000;fill-opacity:1;fill-rule:nonzero;stroke:none"
         transform="matrix(1.3333333,0,0,-1.3333333,0,1120.8)" />
    </g>
    <g
       id="g321"
       transform="translate(-0.21606631,-61.578899)">
      <path
         id="path322"
         d="m 563.93,697.75 0.07,-0.07 c 0.14,-0.1 0.29,-0.12 0.43,-0.12 h 1.27 -0.02 l 1.92,-0.1 h -0.12 l 0.31,-0.04 v 0 l 0.31,-0.08 -0.07,0.05 0.77,-0.19 h 0.05 l 0.09,-0.02 c 0.34,-0.08 0.7,0.04 0.89,0.33 0.22,0.27 0.29,0.63 0.17,0.96 -0.12,0.31 -0.41,0.53 -0.77,0.6 l -0.07,0.03 0.05,-0.03 -0.75,0.17 h -0.12 l -0.31,0.02 v 0 l -0.31,0.05 h -0.1 l -1.92,-0.05 -0.12,-0.02 -1.27,-0.17 c -0.17,-0.05 -0.36,-0.12 -0.48,-0.29 l -0.02,-0.04 c -0.12,-0.15 -0.17,-0.34 -0.15,-0.56 0.03,-0.16 0.12,-0.36 0.27,-0.43 z"
         style="fill:#000000;fill-opacity:1;fill-rule:nonzero;stroke:none"
         transform="matrix(1.3333333,0,0,-1.3333333,0,1120.8)" />
    </g>
    <g
       id="g337"
       transform="translate(-0.21606631,-61.578899)">
      <path
         id="path338"
         d="m 568.82,706.75 -0.14,-0.31 0.02,0.02 -1.1,-2.23 -0.05,-0.05 -0.5,-1.24 v 0 l -0.94,-2.28 -0.02,-0.03 -0.41,-1.2 v 0.03 l -0.07,-0.12 c -0.1,-0.24 -0.05,-0.51 0.09,-0.72 0.17,-0.2 0.41,-0.32 0.65,-0.24 0.29,0.02 0.48,0.21 0.58,0.45 l 0.02,0.12 v 0 l 0.46,1.23 -0.03,-0.03 0.89,2.28 v 0 l 0.53,1.25 v -0.02 l 1.08,2.25 v 0.03 l 0.12,0.28 c 0.14,0.34 0,0.72 -0.34,0.84 -0.33,0.17 -0.69,0 -0.84,-0.31 z"
         style="fill:#000000;fill-opacity:1;fill-rule:nonzero;stroke:none"
         transform="matrix(1.3333333,0,0,-1.3333333,0,1120.8)" />
    </g>
    <g
       id="g338"
       transform="translate(-0.21606631,-61.578899)">
      <path
         id="path339"
         d="m 568.92,713.74 0.24,-0.22 c 0.12,-0.1 0.26,-0.14 0.43,-0.14 h 0.05 l -0.53,0.24 0.05,-0.03 -0.12,0.17 0.02,-0.05 c 0.03,-0.12 0.12,-0.21 0.22,-0.31 l 0.05,-0.02 c 0.09,-0.1 0.21,-0.12 0.36,-0.15 v 0 l -0.51,0.31 0.03,-0.04 0.07,-0.1 0.02,-0.02 v 0 l 0.03,-0.03 -0.12,0.17 0.02,-0.05 v 0 l 0.05,-0.09 c 0.02,-0.08 0.07,-0.12 0.12,-0.2 l 0.02,-0.02 -0.12,0.19 0.03,-0.07 v 0.02 l 0.02,-0.02 v -0.05 l 0.07,-0.12 -0.02,0.12 0.05,-0.24 v -0.05 l 0.07,-0.19 v 0.03 l 0.17,-0.68 c 0,-0.04 0.02,-0.07 0.02,-0.12 l 0.05,-0.04 -0.07,0.12 0.07,-0.15 -0.05,0.24 v -0.07 c -0.02,-0.41 0.29,-0.77 0.67,-0.84 0.41,-0.1 0.82,0.14 0.94,0.58 l 0.14,0.52 v -0.02 l 0.05,0.14 v 0.1 l 0.07,0.19 v -0.05 l 0.03,0.2 v -0.08 l 0.07,0.2 -0.05,-0.08 0.07,0.17 0.03,0.03 0.07,0.16 -0.05,-0.04 0.07,0.14 v 0 l 0.17,0.34 -0.14,-0.2 0.33,0.36 c 0.03,0.05 0.05,0.1 0.1,0.12 l 0.05,0.12 c 0.21,0.34 0.09,0.82 -0.24,1.04 -0.36,0.21 -0.82,0.12 -1.06,-0.22 l -0.05,-0.12 0.1,0.12 -0.34,-0.34 c -0.09,-0.04 -0.12,-0.14 -0.19,-0.19 l -0.14,-0.36 v 0 l -0.05,-0.12 -0.05,-0.07 -0.05,-0.17 0.03,0.05 -0.1,-0.14 -0.02,-0.08 -0.05,-0.14 v -0.05 l -0.07,-0.19 -0.03,-0.02 -0.02,-0.22 0.02,0.1 -0.07,-0.15 v 0 l -0.19,-0.57 c -0.12,-0.36 0.02,-0.75 0.31,-0.94 0.34,-0.22 0.72,-0.17 1.01,0.1 0.29,0.24 0.36,0.64 0.14,0.98 l -0.02,0.07 0.07,-0.19 -0.05,0.19 c 0,0.03 -0.02,0.07 -0.07,0.12 v 0.03 l 0.07,-0.15 -0.21,0.65 v 0.07 l -0.05,0.17 v -0.02 l -0.07,0.24 c -0.03,0.04 -0.03,0.09 -0.05,0.14 l -0.07,0.14 -0.03,0.05 v 0.03 -0.03 l -0.02,0.05 c -0.05,0.1 -0.1,0.14 -0.17,0.22 l -0.02,0.02 0.14,-0.22 -0.02,0.1 v 0 l -0.03,0.07 c -0.07,0.05 -0.09,0.15 -0.19,0.19 l -0.02,0.05 v 0 l -0.03,0.03 0.1,-0.1 -0.07,0.07 c -0.15,0.24 -0.46,0.31 -0.72,0.29 v 0 l 0.5,-0.12 -0.05,0.02 0.27,-0.26 -0.03,0.07 c -0.02,0.05 -0.09,0.15 -0.14,0.19 l -0.05,0.05 c -0.14,0.12 -0.36,0.19 -0.55,0.19 l -0.05,-0.02 0.36,-0.05 -0.29,0.15 c -0.33,0.14 -0.72,0.02 -0.91,-0.27 -0.19,-0.31 -0.12,-0.72 0.17,-0.93 z"
         style="fill:#000000;fill-opacity:1;fill-rule:nonzero;stroke:none"
         transform="matrix(1.3333333,0,0,-1.3333333,0,1120.8)" />
    </g>
  </g>
</svg>
