<?xml version="1.0" encoding="UTF-8" standalone="no"?>
<!-- Created with Inkscape (http://www.inkscape.org/) -->

<svg
   version="1.1"
   id="svg1"
   width="30.596018"
   height="8"
   viewBox="0 0 30.596018 7.9999997"
   sodipodi:docname="lesson1_sentence10_word5.svg"
   inkscape:export-filename="lesson1_sentence10.png"
   inkscape:export-xdpi="709.79663"
   inkscape:export-ydpi="709.79663"
   inkscape:version="1.4.3 (0d15f75, 2025-12-25)"
   xmlns:inkscape="http://www.inkscape.org/namespaces/inkscape"
   xmlns:sodipodi="http://sodipodi.sourceforge.net/DTD/sodipodi-0.dtd"
   xmlns="http://www.w3.org/2000/svg"
   xmlns:svg="http://www.w3.org/2000/svg">
  <defs
     id="defs1" />
  <sodipodi:namedview
     id="namedview1"
     pagecolor="#ffffff"
     bordercolor="#000000"
     borderopacity="0.25"
     inkscape:showpageshadow="2"
     inkscape:pageopacity="0.0"
     inkscape:pagecheckerboard="0"
     inkscape:deskcolor="#d1d1d1"
     inkscape:zoom="4.6282088"
     inkscape:cx="1.0803316"
     inkscape:cy="91.288016"
     inkscape:window-width="1920"
     inkscape:window-height="1191"
     inkscape:window-x="-9"
     inkscape:window-y="-9"
     inkscape:window-maximized="1"
     inkscape:current-layer="g1">
    <inkscape:page
       x="0"
       y="0"
       inkscape:label="1"
       id="page1"
       width="30.596018"
       height="7.9999995"
       margin="0"
       bleed="0" />
  </sodipodi:namedview>
  <g
     id="g1"
     inkscape:groupmode="layer"
     inkscape:label="1"
     transform="translate(-746.73849,-102.46669)">
    <g
       id="g334"
       transform="translate(0,-135.47358)">
      <path
         id="path335"
         d="m 563.09,658.61 h -0.03 c -0.26,0.09 -0.6,-0.03 -0.69,-0.31 -0.12,-0.29 0,-0.6 0.26,-0.75 0.29,-0.12 0.6,-0.02 0.77,0.27 v 0.02 c 0.14,0.24 0.07,0.58 -0.12,0.74 h -0.05 l 0.19,-0.69 v 0 c 0.03,0.07 0.05,0.12 0.05,0.19 v 0.02 l -0.05,-0.21 0.05,0.17 -0.02,-0.1 0.21,0.36 v -0.02 l 0.05,0.12 c 0.1,0.12 0.12,0.24 0.12,0.36 v 0.04 l -0.17,-0.45 0.05,0.05 v 0 l 0.05,0.04 v 0 l 0.02,0.03 v 0 l 0.03,0.05 c 0.07,0.04 0.09,0.12 0.12,0.16 l 0.02,0.03 -0.19,-0.24 0.02,0.05 0.05,0.04 0.12,0.1 -0.19,-0.12 h 0.02 c 0.1,0.02 0.15,0.1 0.22,0.12 l 0.05,0.05 -0.17,-0.12 0.05,0.05 0.09,0.02 0.05,0.05 v 0 l 0.1,0.05 -0.34,-0.1 h 0.07 c 0.12,0 0.24,0.02 0.34,0.1 l 0.07,0.04 -0.19,-0.09 0.19,0.05 h -0.05 l 0.22,0.02 v 0 l 0.17,0.02 -0.1,-0.02 h 0.19 l -0.07,0.02 0.19,-0.02 v 0 l 0.51,-0.07 -0.12,0.05 0.12,-0.05 v 0 l 0.14,-0.05 -0.05,0.02 0.15,-0.04 -0.03,0.02 0.12,-0.07 0.03,-0.03 0.14,-0.04 -0.12,0.04 0.12,-0.09 0.07,-0.03 0.12,-0.04 -0.07,0.02 0.34,-0.24 0.02,-0.02 0.17,-0.1 0.05,-0.07 0.14,-0.05 -0.05,0.02 0.15,-0.12 h 0.02 l 0.17,-0.12 c 0.02,-0.02 0.07,-0.02 0.12,-0.04 l 0.17,-0.08 -0.05,0.03 0.38,-0.17 0.05,-0.05 0.19,-0.05 h 0.03 l 0.19,-0.07 v 0 l 0.19,-0.02 c 0.05,-0.03 0.1,-0.03 0.17,-0.03 h 0.14 l -0.14,0.03 0.17,-0.05 c 0.07,0 0.09,0 0.14,0 h 0.19 v 0 h 0.17 v 0 h 0.19 0.1 l 0.36,0.02 0.12,0.03 0.19,0.07 -0.05,-0.05 0.29,0.07 0.07,0.03 0.58,0.14 0.07,0.05 0.79,0.36 v 0 l 0.65,0.29 -0.14,-0.03 h 0.09 0.03 l 0.07,0.03 0.12,0.05 0.07,0.04 -0.31,-0.04 h 0.07 v 0 h 0.1 v 0 l 0.07,-0.05 c 0.05,0 0.12,0.05 0.17,0.05 l 0.09,0.02 h -0.38 l 0.07,-0.02 c 0.07,0 0.12,-0.05 0.22,-0.05 h 0.07 v 0 h 0.07 v 0 h 0.1 l -0.22,0.05 0.19,-0.08 -0.07,0.03 0.29,-0.12 v 0 l 0.74,-0.29 -0.31,0.22 0.05,-0.05 c 0.07,-0.07 0.17,-0.15 0.29,-0.19 l 0.33,-0.12 h -0.02 l 0.31,-0.15 c 0.05,-0.02 0.07,-0.02 0.12,-0.05 l 0.77,-0.19 v 0 l 0.38,-0.12 -0.09,0.05 0.12,-0.05 c 0.09,-0.02 0.19,-0.05 0.31,-0.05 h 0.07 -0.14 0.12 v 0 l 0.12,-0.02 v 0 l 0.14,-0.05 c 0.05,0 0.07,0 0.12,0 h 0.1 v 0 h 0.12 c 0.07,0 0.09,0 0.14,0 l 0.12,0.05 h -0.05 l 0.34,0.02 h 0.05 l 0.93,0.22 -0.09,-0.05 0.24,0.05 v 0 l 0.21,0.02 h -0.04 0.19 v 0 h 0.24 -0.12 l 0.53,-0.07 h 0.07 0.12 -0.12 l 0.17,-0.02 c 0.43,-0.05 0.84,0.26 0.88,0.69 0.08,0.46 -0.24,0.84 -0.64,0.92 l -0.17,0.02 h -0.12 -0.12 0.12 l -0.51,0.05 h -0.09 -0.24 v 0 h -0.19 -0.1 -0.22 v 0 l -0.24,-0.03 h -0.09 l -0.94,-0.16 h 0.07 l -0.33,-0.08 h -0.03 -0.12 0.15 -0.12 v 0 h -0.1 0.12 -0.12 0.05 l -0.12,0.03 v 0 l -0.12,0.05 c -0.05,0 -0.1,0 -0.17,0 h -0.07 l 0.26,-0.08 -0.12,0.08 -0.09,0.02 -0.39,0.1 v 0 l -0.79,0.16 0.1,-0.02 -0.29,0.12 v 0 l -0.34,0.12 0.29,-0.22 v 0 c -0.07,0.1 -0.17,0.2 -0.29,0.22 l -0.74,0.29 -0.05,0.05 -0.26,0.07 h -0.05 l -0.19,0.07 c -0.1,0.02 -0.17,0.02 -0.24,0.02 h -0.1 v 0 h -0.07 v 0 h -0.07 l 0.21,-0.02 -0.09,0.02 c -0.12,0.03 -0.24,0.03 -0.36,0 l -0.1,-0.02 0.17,0.02 h -0.07 v 0 h -0.1 v 0 h -0.07 c -0.1,0 -0.22,-0.02 -0.31,-0.09 l -0.1,-0.03 0.12,0.03 h -0.07 0.05 l -0.1,-0.03 c -0.07,0 -0.12,-0.02 -0.17,-0.04 l -0.67,-0.36 v 0.02 l -0.74,-0.38 0.12,0.02 -0.53,-0.19 0.02,0.05 -0.26,-0.08 -0.07,-0.02 -0.22,-0.07 0.12,0.05 -0.36,-0.08 0.07,0.03 h -0.19 v 0 h -0.17 v 0 h -0.19 l 0.17,-0.03 -0.19,0.03 c -0.05,0.05 -0.1,0.05 -0.15,0.05 h -0.14 l 0.14,-0.05 -0.19,0.07 v 0 l -0.14,0.02 0.02,-0.02 -0.17,0.05 h 0.05 l -0.36,0.17 -0.02,0.02 -0.17,0.05 0.12,-0.05 -0.17,0.1 0.05,-0.05 -0.17,0.12 -0.05,0.05 -0.14,0.07 0.05,-0.03 -0.15,0.1 0.03,-0.02 -0.34,0.26 -0.07,0.05 -0.17,0.09 0.05,-0.02 -0.12,0.1 -0.12,0.04 -0.17,0.08 0.05,-0.05 -0.12,0.07 -0.05,0.02 -0.14,0.08 -0.05,0.02 -0.17,0.02 v 0 l -0.14,0.08 c -0.03,0 -0.1,0 -0.12,0 l -0.51,0.04 h 0.03 -0.17 -0.1 -0.19 -0.05 -0.19 -0.02 l -0.17,-0.02 h -0.05 l -0.24,-0.07 c -0.05,0 -0.12,-0.03 -0.17,-0.05 l -0.09,-0.07 0.33,0.09 h -0.07 c -0.12,0 -0.24,-0.02 -0.31,-0.09 l -0.1,-0.03 v 0 l -0.07,-0.04 0.1,0.04 -0.05,-0.02 c -0.07,-0.02 -0.17,-0.07 -0.19,-0.12 l -0.1,-0.07 0.22,0.12 -0.05,-0.03 c -0.1,-0.02 -0.17,-0.04 -0.24,-0.12 l -0.1,-0.12 0.05,0.08 -0.05,-0.08 c -0.09,-0.04 -0.19,-0.14 -0.21,-0.24 l -0.03,-0.04 0.12,0.16 -0.02,-0.02 v 0 l -0.05,-0.07 v 0 l -0.05,-0.03 v 0 l -0.02,-0.04 c -0.1,-0.12 -0.17,-0.29 -0.17,-0.44 v -0.04 l 0.07,0.31 -0.07,-0.12 0.05,0.05 -0.22,-0.36 c -0.07,-0.1 -0.09,-0.2 -0.12,-0.32 v -0.14 -0.1 -0.02 c 0,-0.07 0.03,-0.12 0.05,-0.19 v 0 c 0.07,-0.17 0.24,-0.34 0.43,-0.39 0.17,-0.02 0.39,0.03 0.53,0.15 h 0.05 l -0.58,-0.12 h 0.03 c 0.12,-0.03 0.24,-0.03 0.33,0 h 0.03 c 0.21,0.09 0.38,0.31 0.38,0.55 0,0.24 -0.17,0.46 -0.38,0.53 z"
         style="fill:#000000;fill-opacity:1;fill-rule:nonzero;stroke:none"
         transform="matrix(1.3333333,0,0,-1.3333333,0,1120.8)" />
    </g>
    <g
       id="g335"
       transform="translate(0,-135.47358)">
      <path
         id="path336"
         d="m 562.15,660.34 0.48,-0.44 h -0.02 l 0.26,-0.26 0.07,-0.07 0.12,-0.05 -0.21,0.24 0.02,-0.1 c 0.17,-0.33 0.55,-0.48 0.89,-0.33 0.31,0.17 0.48,0.55 0.31,0.89 l -0.02,0.07 c -0.05,0.09 -0.12,0.19 -0.22,0.24 l -0.12,0.09 0.07,-0.04 -0.26,0.26 -0.05,0.02 -0.48,0.44 c -0.26,0.19 -0.65,0.16 -0.86,-0.1 -0.24,-0.24 -0.22,-0.62 0.02,-0.86 z"
         style="fill:#000000;fill-opacity:1;fill-rule:nonzero;stroke:none"
         transform="matrix(1.3333333,0,0,-1.3333333,0,1120.8)" />
    </g>
    <g
       id="g336"
       transform="translate(0,-135.47358)">
      <path
         id="path337"
         d="m 565.82,660.94 v 0 c 0.1,0.28 -0.07,0.62 -0.36,0.72 -0.31,0.07 -0.6,-0.08 -0.72,-0.36 l -0.14,-0.41 0.07,0.17 -0.05,-0.1 c -0.07,-0.07 -0.09,-0.12 -0.09,-0.19 l -0.03,-0.07 0.03,0.12 -0.03,-0.1 c -0.02,-0.02 -0.07,-0.1 -0.07,-0.14 l -0.05,-0.29 v 0.07 l -0.07,-0.22 c 0,-0.04 -0.02,-0.09 -0.02,-0.14 v -0.07 c 0,-0.19 0.12,-0.43 0.33,-0.55 0.17,-0.12 0.46,-0.12 0.63,0 0.21,0.12 0.33,0.36 0.31,0.55 v 0.07 -0.19 l 0.02,0.21 0.03,0.03 0.02,0.29 -0.02,-0.1 0.02,0.05 c 0.05,0.07 0.05,0.09 0.05,0.12 l 0.02,0.09 -0.09,-0.21 0.07,0.09 c 0.02,0.03 0.05,0.1 0.05,0.15 l 0.12,0.43 -0.05,-0.1 h 0.02 c 0,0.03 0,0.03 0,0.08 z"
         style="fill:#000000;fill-opacity:1;fill-rule:nonzero;stroke:none"
         transform="matrix(1.3333333,0,0,-1.3333333,0,1120.8)" />
    </g>
  </g>
</svg>
