<?xml version="1.0" encoding="UTF-8" standalone="no"?>
<!-- Created with Inkscape (http://www.inkscape.org/) -->

<svg
   version="1.1"
   id="svg1"
   width="33.769764"
   height="52.923897"
   viewBox="0 0 33.769764 52.923898"
   sodipodi:docname="word2.svg"
   inkscape:version="1.4.3 (0d15f75, 2025-12-25)"
   xmlns:inkscape="http://www.inkscape.org/namespaces/inkscape"
   xmlns:sodipodi="http://sodipodi.sourceforge.net/DTD/sodipodi-0.dtd"
   xmlns="http://www.w3.org/2000/svg"
   xmlns:svg="http://www.w3.org/2000/svg">
  <defs
     id="defs1">
    <clipPath
       clipPathUnits="userSpaceOnUse"
       id="clipPath2">
      <path
         d="M -3.0240001,1.27 H 45.408001 V -4.2020001 H -3.0240001 Z"
         clip-rule="evenodd"
         id="path2" />
    </clipPath>
    <clipPath
       clipPathUnits="userSpaceOnUse"
       id="clipPath4">
      <path
         d="M -3.0240001,1.2799975 H 40.032001 V -4.1920026 H -3.0240001 Z"
         clip-rule="evenodd"
         id="path4" />
    </clipPath>
    <clipPath
       clipPathUnits="userSpaceOnUse"
       id="clipPath6">
      <path
         d="M -3.0240001,1.2700025 H 35.160001 V -4.2019976 H -3.0240001 Z"
         clip-rule="evenodd"
         id="path6" />
    </clipPath>
    <clipPath
       clipPathUnits="userSpaceOnUse"
       id="clipPath8">
      <path
         d="M -3.0240001,1.2700025 H 35.160001 V -4.1779976 H -3.0240001 Z"
         clip-rule="evenodd"
         id="path8" />
    </clipPath>
    <clipPath
       clipPathUnits="userSpaceOnUse"
       id="clipPath10">
      <path
         d="M -3.0240001,1.27 H 102.556 V -4.2020001 H -3.0240001 Z"
         clip-rule="evenodd"
         id="path10" />
    </clipPath>
    <clipPath
       clipPathUnits="userSpaceOnUse"
       id="clipPath12">
      <path
         d="M -3.0240001,1.27 H 38.184001 V -4.2020001 H -3.0240001 Z"
         clip-rule="evenodd"
         id="path12" />
    </clipPath>
    <clipPath
       clipPathUnits="userSpaceOnUse"
       id="clipPath14">
      <path
         d="M -3.0240001,1.2700025 H 36.432001 V -4.2019976 H -3.0240001 Z"
         clip-rule="evenodd"
         id="path14" />
    </clipPath>
    <clipPath
       clipPathUnits="userSpaceOnUse"
       id="clipPath16">
      <path
         d="M -3.0240001,1.2799975 H 101.136 V -4.1920026 H -3.0240001 Z"
         clip-rule="evenodd"
         id="path16" />
    </clipPath>
    <clipPath
       clipPathUnits="userSpaceOnUse"
       id="clipPath18">
      <path
         d="M -3.0240001,1.2799975 H 36.432001 V -4.1920026 H -3.0240001 Z"
         clip-rule="evenodd"
         id="path18" />
    </clipPath>
    <clipPath
       clipPathUnits="userSpaceOnUse"
       id="clipPath20">
      <path
         d="M -3.0199976,1.2700025 H 36.412003 V -4.1779976 H -3.0199976 Z"
         clip-rule="evenodd"
         id="path20" />
    </clipPath>
    <clipPath
       clipPathUnits="userSpaceOnUse"
       id="clipPath312">
      <path
         d="M -3.0240001,2.2300001 H 43.056001 V -7.6820002 H -3.0240001 Z"
         clip-rule="evenodd"
         id="path312" />
    </clipPath>
    <clipPath
       clipPathUnits="userSpaceOnUse"
       id="clipPath314">
      <path
         d="M -3.0240001,1.1099998 H 42.768001 V -3.8580003 H -3.0240001 Z"
         clip-rule="evenodd"
         id="path314" />
    </clipPath>
    <clipPath
       clipPathUnits="userSpaceOnUse"
       id="clipPath316">
      <path
         d="M -3.0240001,1.1099998 H 19.152 V -3.8580003 H -3.0240001 Z"
         clip-rule="evenodd"
         id="path316" />
    </clipPath>
    <clipPath
       clipPathUnits="userSpaceOnUse"
       id="clipPath318">
      <path
         d="M -3.0240001,0.98400002 H 18.744 V -3.5040001 H -3.0240001 Z"
         clip-rule="evenodd"
         id="path318" />
    </clipPath>
    <clipPath
       clipPathUnits="userSpaceOnUse"
       id="clipPath320">
      <path
         d="M -92.016002,0.98400002 H 150.124 V -3.5040001 H -92.016002 Z"
         clip-rule="evenodd"
         id="path320" />
    </clipPath>
    <clipPath
       clipPathUnits="userSpaceOnUse"
       id="clipPath322">
      <path
         d="M -15.670003,0.98400002 H 6.1219977 V -3.5040001 H -15.670003 Z"
         clip-rule="evenodd"
         id="path322" />
    </clipPath>
  </defs>
  <sodipodi:namedview
     id="namedview1"
     pagecolor="#ffffff"
     bordercolor="#000000"
     borderopacity="0.25"
     inkscape:showpageshadow="2"
     inkscape:pageopacity="0.0"
     inkscape:pagecheckerboard="0"
     inkscape:deskcolor="#d1d1d1"
     inkscape:zoom="6.6452528"
     inkscape:cx="20.841946"
     inkscape:cy="11.963427"
     inkscape:window-width="1920"
     inkscape:window-height="1191"
     inkscape:window-x="-9"
     inkscape:window-y="-9"
     inkscape:window-maximized="1"
     inkscape:current-layer="g1">
    <inkscape:page
       x="0"
       y="1.3649876e-07"
       inkscape:label="1"
       id="page1"
       width="33.769764"
       height="52.923897"
       margin="0"
       bleed="0" />
  </sodipodi:namedview>
  <g
     id="g1"
     inkscape:groupmode="layer"
     inkscape:label="1"
     transform="translate(-57.494235,-717.89334)">
    <g
       id="g268">
      <path
         id="path268"
         d="m 45.072,296.93 0.264,0.41 v 0 l 0.24,0.36 -0.048,-0.08 0.24,0.29 v 0.03 l 0.696,0.88 c 0.12,0.17 0.192,0.39 0.24,0.6 v 0.03 l -0.552,-0.91 0.024,0.04 c 0.312,0.2 0.528,0.56 0.552,0.92 v 0.04 -0.07 0.03 l -1.44,-1.11 h 0.024 c 0.312,-0.02 0.624,0.03 0.912,0.22 v 0.02 c 0.288,0.22 0.504,0.51 0.528,0.87 l 0.024,0.04 -1.44,-1.12 v 0 c 0.336,-0.03 0.672,0.04 0.912,0.21 l 0.024,0.03 c 0.312,0.21 0.504,0.57 0.552,0.93 l 0.024,0.03 c 0.048,0.72 -0.48,1.36 -1.176,1.44 -0.72,0.07 -1.368,-0.44 -1.44,-1.16 -0.096,-0.69 0.432,-1.36 1.152,-1.44 h 0.024 l -0.864,0.48 v 0 c 0.24,-0.31 0.6,-0.48 0.984,-0.52 0.384,0 0.744,0.16 0.984,0.45 h 0.024 l -1.104,-0.38 v -0.03 c 0.72,-0.07 1.392,0.41 1.464,1.13 v 0 l -1.464,-1.1 h 0.024 v 0 h 0.048 c 0.312,-0.03 0.648,0.02 0.888,0.21 l 0.024,0.03 -1.08,-0.22 h 0.048 c 0.36,-0.09 0.768,0 1.08,0.22 h 0.024 l -0.84,-0.24 h 0.048 l -1.008,0.57 v -0.04 c 0.24,-0.32 0.624,-0.53 1.056,-0.56 h 0.024 l -1.152,0.77 v -0.02 c 0.168,-0.27 0.36,-0.51 0.648,-0.63 l 0.048,-0.04 -0.24,0.16 0.072,-0.04 0.048,-0.05 0.024,-0.03 -0.024,0.03 0.024,-0.03 -0.552,1.25 v 0 c -0.072,-0.5 0.168,-1.01 0.624,-1.29 l 0.024,-0.03 c 0.192,-0.12 0.384,-0.17 0.6,-0.21 h 0.024 l -1.128,0.81 0.024,-0.02 c 0.072,-0.12 0.12,-0.24 0.192,-0.34 l 0.048,-0.05 v 0 l 0.096,-0.12 -0.024,0.03 0.072,-0.12 -0.12,0.24 0.072,-0.15 0.024,-0.09 0.216,-0.36 -0.096,0.21 0.024,-0.09 c 0.048,-0.07 0.072,-0.12 0.072,-0.15 l 0.048,-0.12 -0.024,0.05 0.072,-0.12 c 0.024,-0.09 0.072,-0.14 0.144,-0.21 l 0.048,-0.12 0.048,-0.03 0.048,-0.05 -0.144,0.24 0.048,-0.12 c 0.072,-0.12 0.12,-0.24 0.216,-0.33 l 0.072,-0.1 v 0 l 0.072,-0.05 c 0.048,-0.07 0.096,-0.09 0.12,-0.16 l 0.24,-0.17 -0.48,1.05 v 0 c 0,-0.36 0.12,-0.72 0.408,-1 0.264,-0.27 0.624,-0.41 0.984,-0.41 h 0.024 l -1.32,0.89 0.024,-0.03 c 0.216,-0.53 0.72,-0.89 1.296,-0.89 h 0.024 l -0.888,0.32 h 0.024 c 0.24,-0.24 0.552,-0.36 0.864,-0.36 h 0.048 v 0 h 0.024 v 0 h 0.024 -0.024 v 0 h 0.024 0.024 -0.024 0.024 v 0 h 0.048 v 0 h 0.024 l -0.552,0.12 h 0.048 c 0.144,-0.08 0.312,-0.12 0.48,-0.12 h 0.024 0.024 0.024 c 0.336,0 0.672,0.12 0.912,0.33 h 0.024 l -0.936,-0.29 h 0.048 c 0.768,-0.04 1.392,0.6 1.392,1.37 v 0.03 l -1.392,-1.4 h 0.024 c 0.768,0 1.416,0.63 1.416,1.4 v 0 c 0,0.79 -0.648,1.41 -1.392,1.41 -0.768,0.03 -1.416,-0.6 -1.416,-1.37 -0.024,-0.79 0.6,-1.41 1.392,-1.41 h 0.024 c 0.192,0 0.36,0.02 0.552,0.12 h 0.024 c 0.168,0.09 0.336,0.17 0.48,0.29 l 0.024,0.07 -0.168,-0.15 0.048,0.03 0.096,0.09 0.096,0.05 v 0 l 0.048,0.07 c 0.072,0.03 0.096,0.08 0.144,0.12 l 0.096,0.12 -0.048,-0.07 0.24,0.22 c 0.024,0.05 0.072,0.09 0.12,0.14 l 0.048,0.07 0.072,0.08 0.024,0.07 -0.552,-0.48 0.072,0.02 c 0.24,0.12 0.408,0.31 0.576,0.51 l 0.048,0.07 0.024,0.05 0.048,0.07 -0.048,-0.07 0.048,0.07 v -0.03 l 0.072,0.17 c 0.072,0.07 0.096,0.12 0.12,0.19 l 0.048,0.03 c 0.072,0.21 0.12,0.41 0.144,0.62 v 0.07 l -0.912,-1.29 h 0.072 c 0.36,0.14 0.624,0.41 0.768,0.77 v 0.07 l -0.024,-0.1 0.024,0.07 -0.36,-0.48 0.048,0.03 v 0 l 0.024,0.02 c 0.168,0.15 0.288,0.31 0.384,0.48 v 0.07 l -0.72,-0.69 h 0.072 c 0.264,0.12 0.504,0.33 0.648,0.57 l 0.024,0.03 -0.288,-0.34 0.024,0.03 v 0 l 0.024,0.04 -0.192,-0.16 0.048,0.04 c 0.072,0.05 0.144,0.08 0.216,0.15 h 0.024 l -0.216,-0.12 0.072,0.02 h -0.024 l 0.12,0.07 -0.672,-0.19 v 0 0 h 0.024 l -0.264,0.03 h 0.024 c 0.12,-0.03 0.216,-0.03 0.312,-0.03 h 0.024 l -0.936,0.34 h 0.048 c 0.24,-0.22 0.552,-0.34 0.888,-0.36 v 0 h 0.024 v 0 0 h 0.072 l -1.104,0.53 h 0.024 c 0.264,-0.36 0.648,-0.56 1.104,-0.56 h 0.024 l -0.912,0.36 0.024,-0.04 c 0.12,-0.08 0.24,-0.17 0.36,-0.24 h 0.048 l -0.768,0.79 0.024,-0.03 c 0.216,-0.55 0.72,-0.91 1.296,-0.91 h 0.024 c 0.792,0 1.416,0.63 1.44,1.42 0,0.77 -0.624,1.41 -1.416,1.44 -0.768,0 -1.392,-0.63 -1.44,-1.42 v -0.02 c 0,-0.43 0.192,-0.82 0.528,-1.08 v -0.03 h 0.024 l 0.024,-0.04 -0.12,0.12 0.096,-0.08 0.024,-0.07 0.072,-0.05 -0.288,0.39 0.072,-0.1 c 0.024,-0.05 0.048,-0.12 0.096,-0.17 l 0.168,-0.21 -0.12,0.14 0.12,-0.24 0.072,-0.05 0.048,-0.12 -0.096,0.15 0.072,-0.12 c 0.024,-0.07 0.048,-0.15 0.12,-0.22 l 0.048,-0.12 0.072,-0.05 0.216,-0.31 0.024,-0.05 0.024,-0.04 c 0.072,-0.05 0.12,-0.15 0.216,-0.2 h 0.024 l -0.264,0.27 0.048,-0.07 c 0.24,-0.36 0.696,-0.6 1.152,-0.6 h 0.024 l -1.224,0.69 0.024,-0.02 c 0.096,-0.12 0.192,-0.27 0.312,-0.36 l 0.024,-0.03 v 0 h 0.024 c 0.24,-0.24 0.576,-0.36 0.912,-0.36 h 0.048 l -0.696,0.17 h 0.048 l -0.072,0.03 0.024,-0.03 c 0.072,-0.02 0.168,-0.05 0.216,-0.09 l 0.024,-0.03 -0.648,0.58 h 0.024 c 0.192,-0.36 0.552,-0.6 0.936,-0.67 l 0.024,-0.03 c 0.096,0 0.216,-0.02 0.312,-0.02 h 0.024 -0.024 0.048 l -0.888,0.36 v -0.03 c 0.264,-0.21 0.6,-0.33 0.912,-0.33 h 0.048 0.024 0.024 -0.144 0.096 c 0.12,-0.03 0.264,-0.03 0.384,0 l 0.12,0.02 h 0.048 l 0.096,0.03 c 0.072,0.04 0.144,0.04 0.216,0.07 l 0.096,0.05 -0.216,-0.08 0.048,0.03 c 0.12,0.02 0.24,0.05 0.336,0.12 l 0.096,0.05 -0.072,-0.03 0.096,0.03 -0.048,-0.03 0.072,0.03 0.168,0.09 0.048,0.03 c 0.072,0.04 0.096,0.07 0.144,0.09 l 0.216,0.19 -0.12,-0.09 0.216,0.12 0.048,0.05 0.192,0.12 0.024,0.04 0.144,0.12 c 0.072,0.03 0.12,0.05 0.168,0.12 l 0.144,0.15 v 0 l 0.384,0.36 v 0.02 l 0.504,0.51 -0.408,-0.29 0.024,0.02 c 0.504,0.22 0.864,0.75 0.84,1.32 v 0 l -0.48,-1.08 0.024,0.03 -0.192,-0.15 h 0.024 c 0.24,0.15 0.456,0.36 0.576,0.63 v 0.07 l -1.248,-0.84 0.048,0.02 c 0.168,0 0.36,0.03 0.504,0.1 l 0.048,0.02 c 0.12,0.07 0.24,0.12 0.36,0.24 h 0.048 v 0 0.03 l -0.912,-0.36 h 0.024 c 0.336,0.04 0.672,0.16 0.912,0.36 h 0.024 l -0.888,-0.32 h 0.024 v 0 h 0.024 c 0.336,0 0.672,0.12 0.912,0.32 l 0.024,0.04 -0.912,-0.33 h 0.048 c 0.144,0 0.288,0.02 0.432,0.05 l 0.072,0.04 -0.456,-0.09 h 0.072 l -0.912,0.33 0.024,-0.04 h -0.024 0.024 c 0.288,-0.2 0.6,-0.32 0.912,-0.32 h 0.048 v 0 h 0.048 l -0.696,0.17 0.024,-0.02 -0.408,0.33 h 0.024 c 0.144,-0.19 0.336,-0.33 0.528,-0.43 l 0.072,-0.02 -0.144,0.05 h 0.024 l -0.072,0.04 0.072,-0.04 -0.312,0.28 0.048,-0.07 -0.36,0.94 v -0.03 c 0,-0.43 0.168,-0.79 0.48,-1.05 l 0.072,-0.07 v -0.03 l 0.072,-0.02 -0.36,0.41 0.024,-0.05 c 0.024,-0.03 0.072,-0.1 0.096,-0.15 l 0.048,-0.07 c 0.048,-0.02 0.072,-0.09 0.12,-0.14 l 0.048,-0.03 -0.12,0.15 0.024,-0.07 -0.12,0.28 0.024,-0.09 c 0.024,-0.1 0.096,-0.22 0.144,-0.31 l 0.048,-0.03 -0.192,0.36 0.024,-0.09 v 0 l 0.048,-0.05 v -0.03 l 0.048,-0.19 -0.096,0.48 v -0.09 c 0,-0.08 0.048,-0.17 0.048,-0.27 l 0.024,-0.05 c 0.024,-0.12 0.048,-0.21 0.12,-0.33 l 0.024,-0.03 c 0.024,-0.07 0.072,-0.12 0.096,-0.19 l 0.048,-0.05 -0.264,0.99 v -0.07 c -0.048,-0.39 0.072,-0.77 0.312,-1.08 l 0.048,-0.03 -0.024,0.03 0.024,-0.03 -0.12,0.15 0.072,-0.05 c 0.024,-0.07 0.048,-0.12 0.072,-0.19 l 0.048,-0.05 -0.048,0.09 v -0.04 c 0.072,-0.05 0.096,-0.12 0.12,-0.15 l 0.072,-0.05 -0.072,0.05 0.048,-0.02 0.072,-0.12 0.12,-0.12 c 0.072,-0.07 0.096,-0.1 0.168,-0.12 v -0.03 c 0.264,-0.19 0.552,-0.31 0.888,-0.31 h 0.024 v 0 h 0.048 v 0 h 0.024 -0.024 0.024 0.024 0.024 l -1.272,0.84 v -0.02 c 0.24,-0.51 0.72,-0.84 1.248,-0.84 h 0.072 v 0 h 0.024 v 0 h 0.024 v 0 h 0.024 c 0.312,0.02 0.648,0.14 0.84,0.36 h 0.048 l -0.84,-0.34 h 0.024 -0.024 0.024 0.024 0.024 0.048 v 0 c 0.168,0 0.312,0.07 0.48,0.12 l 0.024,0.03 -0.48,-0.12 v 0 c 0.336,0 0.624,0.12 0.864,0.33 v 0.03 l -0.216,-0.17 0.072,0.05 -0.072,-0.05 0.072,0.05 -0.072,-0.03 0.12,0.03 0.12,0.09 0.12,0.03 0.072,0.07 0.216,0.14 c 0.096,0.03 0.144,0.12 0.24,0.19 l 0.096,0.08 -0.216,-0.17 0.096,0.09 c 0.048,0.03 0.12,0.08 0.168,0.12 l 0.096,0.08 c 0.048,0.07 0.12,0.12 0.144,0.19 l 0.24,0.29 -0.048,-0.05 0.072,0.12 -0.024,-0.07 0.096,0.09 c 0.024,0.07 0.096,0.1 0.12,0.15 l 0.096,0.12 -0.216,-0.2 0.24,0.17 v 0.03 l 0.168,0.16 0.096,0.08 0.024,0.07 -0.12,-0.15 0.048,0.03 0.072,0.09 0.072,0.05 c 0.048,0.07 0.12,0.15 0.168,0.24 v 0.03 l -0.624,-0.53 h 0.072 c 0.168,0.09 0.312,0.17 0.432,0.33 l 0.048,0.03 -0.456,-0.31 h 0.048 l 0.12,0.09 0.12,0.03 -0.648,-0.15 h 0.024 v 0 0 c 0.336,0 0.624,0.1 0.864,0.31 l 0.048,0.03 -0.888,-0.34 v 0 h 0.048 v 0 0 h 0.024 l -0.864,0.34 0.024,-0.03 c 0.24,-0.21 0.528,-0.31 0.864,-0.31 v 0 l -0.84,0.31 v 0 0 l 0.024,-0.04 c 0.24,-0.17 0.552,-0.29 0.84,-0.29 h 0.048 v 0 h 0.024 l -0.864,0.29 h 0.024 l -0.48,1 v 0 c 0,-0.76 0.6,-1.36 1.344,-1.36 v 0 0 h 0.024 l -0.864,0.33 0.024,-0.02 -0.48,1.01 v -0.03 c 0,-0.72 0.6,-1.32 1.32,-1.32 h 0.048 c 0.528,0 1.008,0.34 1.224,0.82 0.216,0.5 0.096,1.08 -0.312,1.46 -0.36,0.36 -0.912,0.48 -1.44,0.27 -0.48,-0.2 -0.816,-0.68 -0.816,-1.23 v -0.02 0 0 c 0,-0.36 0.168,-0.7 0.408,-0.96 0.24,-0.24 0.6,-0.39 0.936,-0.36 h 0.024 l -1.104,0.57 0.072,-0.16 c 0.048,-0.05 0.096,-0.08 0.12,-0.15 l 0.096,-0.09 -0.144,0.19 0.048,-0.1 0.048,-0.02 0.048,-0.12 v 0.02 l 0.072,-0.05 v 0 l 0.024,-0.09 v 0 l 0.048,-0.1 -0.12,0.27 0.096,-0.27 v 0 l 0.024,-0.05 v -0.07 l 0.048,-0.05 -0.072,0.17 0.024,-0.02 0.048,-0.12 0.024,-0.07 c 0,-0.05 0.024,-0.12 0.048,-0.17 l 0.048,-0.07 c 0.072,-0.17 0.168,-0.29 0.312,-0.41 l 0.048,-0.03 -0.432,0.68 v -0.03 c 0.072,-0.17 0.12,-0.33 0.216,-0.45 l 0.024,-0.05 -0.024,0.05 v -0.03 l -0.024,0.07 0.024,-0.07 c 0.096,-0.14 0.216,-0.29 0.336,-0.41 h 0.024 c 0.528,-0.48 1.368,-0.4 1.848,0.15 0.456,0.57 0.408,1.41 -0.144,1.89 h -0.024 l 0.336,-0.43 -0.048,0.07 -0.024,0.08 -0.024,0.04 -0.072,0.05 -0.024,0.1 0.192,-0.46 v 0.03 c -0.072,0.31 -0.216,0.55 -0.456,0.72 l -0.024,0.04 0.312,-0.43 -0.024,0.1 0.072,-0.19 v 0.07 l 0.024,-0.12 -0.024,0.02 c 0,0.1 -0.048,0.15 -0.072,0.22 v 0.02 -0.05 0.08 h -0.024 l -0.096,0.28 c -0.024,0.12 -0.048,0.2 -0.12,0.29 l -0.096,0.1 v 0 l -0.048,0.09 v 0 l -0.024,0.08 -0.048,0.04 -0.048,0.08 v 0 l -0.072,0.07 c -0.024,0.05 -0.072,0.12 -0.12,0.17 l -0.072,0.09 0.144,-0.17 -0.12,0.15 c -0.24,0.36 -0.672,0.6 -1.08,0.6 H 58.56 l 1.32,-1.32 v 0 0 0.02 c 0,0.75 -0.576,1.32 -1.32,1.32 h -0.048 c -0.504,0 -1.008,-0.29 -1.2,-0.81 -0.216,-0.48 -0.096,-1.04 0.288,-1.44 0.384,-0.39 0.96,-0.48 1.44,-0.29 0.504,0.21 0.84,0.69 0.84,1.22 v 0.03 c 0,0.4 -0.192,0.76 -0.48,1.03 h -0.048 c -0.24,0.21 -0.528,0.33 -0.84,0.33 h -0.024 v 0 0 c -0.528,0 -1.008,-0.33 -1.224,-0.84 -0.216,-0.48 -0.096,-1.05 0.264,-1.44 0.384,-0.36 0.96,-0.48 1.44,-0.28 0.504,0.21 0.84,0.69 0.84,1.24 v 0 c 0,0.39 -0.168,0.77 -0.48,1.01 l -0.024,0.03 c -0.24,0.19 -0.552,0.31 -0.84,0.31 H 58.44 v 0 h -0.048 l 0.888,-0.31 h -0.048 v 0 0.04 c -0.24,0.17 -0.528,0.29 -0.864,0.29 v 0 l 0.84,-0.29 h -0.024 c -0.24,0.2 -0.552,0.32 -0.84,0.32 H 58.32 v 0 0 h -0.048 v 0 c -0.288,0 -0.624,-0.12 -0.84,-0.32 h -0.024 l 0.84,0.29 v 0 0 h -0.024 c -0.24,0 -0.456,-0.05 -0.672,-0.17 l -0.072,-0.04 0.12,0.07 -0.048,-0.03 c -0.168,-0.07 -0.336,-0.19 -0.456,-0.31 l -0.024,-0.05 0.432,0.32 -0.024,-0.03 c -0.288,-0.12 -0.504,-0.29 -0.648,-0.53 l -0.024,-0.04 0.168,0.24 -0.024,-0.05 0.12,0.09 h -0.024 c -0.072,-0.07 -0.096,-0.09 -0.144,-0.16 l -0.048,-0.03 0.12,0.12 -0.168,-0.17 v 0.03 l -0.24,-0.22 c -0.072,-0.05 -0.12,-0.12 -0.192,-0.21 l -0.072,-0.12 0.12,0.16 -0.096,-0.12 -0.072,-0.07 -0.072,-0.09 -0.072,-0.05 -0.216,-0.31 0.168,0.16 -0.12,-0.09 0.168,0.12 -0.12,-0.07 c -0.096,-0.05 -0.144,-0.12 -0.216,-0.17 l -0.072,-0.1 0.192,0.19 -0.192,-0.16 0.072,0.07 -0.072,-0.07 0.12,0.07 -0.096,-0.03 -0.072,-0.04 -0.072,-0.03 -0.096,-0.05 -0.072,-0.04 c -0.048,-0.03 -0.12,-0.08 -0.168,-0.12 l -0.024,-0.03 0.864,0.31 v 0 c -0.216,0 -0.384,-0.04 -0.576,-0.09 l -0.024,-0.03 0.576,0.08 v 0.04 h -0.048 -0.024 -0.024 -0.024 0.024 -0.024 c -0.336,0 -0.648,-0.12 -0.912,-0.31 v -0.02 l 0.864,0.29 h -0.024 v 0 h -0.024 v 0 h -0.024 v 0 h -0.072 l 1.272,-0.87 v 0.03 c -0.216,0.52 -0.696,0.88 -1.248,0.88 h -0.024 -0.024 -0.024 0.024 -0.024 v 0 h -0.048 v 0 h -0.024 l 0.84,-0.33 v 0.02 l 0.096,-0.12 -0.12,0.12 0.144,-0.14 -0.024,0.02 -0.096,0.12 -0.048,0.07 0.144,-0.21 -0.024,0.02 -0.072,0.12 -0.024,0.03 0.096,-0.12 -0.072,0.09 -0.048,0.12 -0.048,0.07 -0.048,0.05 -0.024,0.07 0.24,-1.08 v 0.05 c 0.072,0.34 0,0.7 -0.192,0.99 l -0.024,0.09 0.096,-0.21 v 0.04 l 0.072,-0.31 -0.024,0.07 0.024,-0.28 v 0.09 c 0,0.19 -0.024,0.36 -0.072,0.55 l -0.072,0.15 0.024,-0.07 -0.024,0.07 v 0 l -0.024,0.05 c -0.024,0.12 -0.096,0.24 -0.192,0.36 l -0.024,0.04 0.144,-0.28 -0.024,0.09 c -0.024,0.1 -0.048,0.19 -0.12,0.27 l -0.048,0.07 c -0.048,0.02 -0.072,0.09 -0.096,0.12 l -0.024,0.05 0.072,-0.15 -0.024,0.07 0.096,-0.16 -0.024,0.07 c -0.096,0.17 -0.216,0.33 -0.336,0.45 l -0.072,0.03 v 0 l -0.072,0.09 0.48,-1.08 v 0.03 c 0.024,0.33 -0.096,0.65 -0.336,0.93 l -0.024,0.03 c -0.096,0.09 -0.192,0.17 -0.288,0.24 l -0.048,0.02 -0.072,0.07 h -0.024 l -0.144,0.08 h -0.024 l 0.528,-0.41 -0.024,0.02 c -0.12,0.15 -0.24,0.27 -0.384,0.36 h -0.072 c -0.168,0.12 -0.408,0.19 -0.648,0.22 h -0.048 v 0 h -0.048 l 0.888,-0.36 -0.024,0.02 v 0 0.03 c -0.264,0.21 -0.576,0.33 -0.888,0.33 h -0.072 c -0.144,0 -0.288,0 -0.456,-0.05 l -0.048,-0.04 0.456,0.09 h -0.048 c -0.312,0 -0.648,-0.12 -0.888,-0.33 h -0.024 l 0.888,0.31 h -0.024 v 0 h -0.024 c -0.336,0 -0.648,-0.1 -0.912,-0.31 l -0.024,-0.03 0.888,0.34 h -0.024 c -0.336,0 -0.624,-0.12 -0.888,-0.34 l -0.048,-0.02 v 0 0 l 0.336,0.21 -0.024,-0.04 0.576,0.12 h -0.048 c -0.528,0 -1.032,-0.29 -1.272,-0.8 l -0.048,-0.04 0.6,0.6 h -0.024 c -0.096,-0.05 -0.144,-0.08 -0.216,-0.15 l -0.024,-0.02 c -0.336,-0.24 -0.504,-0.63 -0.504,-1.06 v 0 l 0.864,1.27 -0.048,-0.04 c -0.168,-0.05 -0.312,-0.15 -0.456,-0.29 l -0.504,-0.51 v 0 l -0.408,-0.4 v 0.04 l -0.12,-0.16 0.168,0.16 -0.192,-0.12 h 0.024 l -0.168,-0.12 0.096,0.05 -0.216,-0.12 -0.12,-0.09 -0.216,-0.15 0.144,0.1 -0.048,-0.03 0.144,0.05 -0.096,-0.02 -0.048,-0.03 -0.096,-0.04 -0.024,-0.03 -0.096,-0.02 0.336,0.12 -0.096,-0.03 c -0.048,0 -0.144,-0.04 -0.216,-0.07 l -0.072,-0.02 0.192,0.05 -0.048,-0.03 0.048,0.03 -0.072,-0.03 0.384,0.03 h -0.072 -0.144 -0.024 -0.024 -0.048 l 0.936,-0.32 -0.024,0.03 c -0.264,0.21 -0.6,0.33 -0.936,0.33 h -0.048 0.024 -0.024 l 0.288,-0.04 h -0.048 l 0.912,-0.65 v 0.02 c -0.144,0.24 -0.384,0.46 -0.672,0.58 l -0.048,0.02 0.216,-0.12 -0.048,0.03 -0.072,0.04 -0.024,0.03 c -0.216,0.12 -0.456,0.17 -0.696,0.17 h -0.048 l 0.912,-0.32 -0.024,0.03 v 0 h -0.024 l 0.288,-0.36 v 0.05 c -0.264,0.43 -0.72,0.69 -1.224,0.69 h -0.024 l 1.176,-0.6 -0.048,0.03 c -0.072,0.12 -0.144,0.21 -0.24,0.28 l -0.024,0.03 0.216,-0.22 -0.024,0.03 0.024,-0.03 -0.24,0.31 0.048,-0.07 -0.072,0.1 0.12,-0.22 -0.048,0.12 c -0.024,0.07 -0.048,0.12 -0.072,0.19 l -0.096,0.12 0.024,-0.07 -0.12,0.27 c -0.024,0.07 -0.048,0.09 -0.12,0.16 l -0.144,0.2 0.12,-0.17 -0.024,0.05 c -0.096,0.16 -0.192,0.28 -0.288,0.4 l -0.048,0.05 0.024,-0.05 -0.048,0.08 c -0.072,0.04 -0.096,0.09 -0.168,0.12 l -0.024,0.04 h -0.024 v 0.03 l 0.504,-1.08 v 0.02 c -0.024,0.79 -0.648,1.42 -1.44,1.42 h -0.024 l 1.344,-0.91 -0.024,0.04 c -0.144,0.36 -0.432,0.63 -0.744,0.77 h -0.072 l 0.36,-0.21 -0.024,0.04 c -0.24,0.2 -0.576,0.32 -0.912,0.32 h -0.024 l 1.104,-0.53 -0.024,0.02 c -0.264,0.34 -0.696,0.55 -1.104,0.55 h -0.072 v 0 0 h -0.024 v 0 l 0.936,-0.33 h -0.024 c -0.24,0.21 -0.576,0.33 -0.912,0.33 h -0.024 l 0.288,-0.04 h -0.048 c -0.096,0.04 -0.192,0.07 -0.312,0.04 h -0.024 v 0 0 c -0.24,0 -0.48,-0.07 -0.648,-0.16 l -0.12,-0.05 -0.048,-0.03 -0.048,-0.04 c -0.096,-0.05 -0.192,-0.12 -0.24,-0.17 h -0.024 l 0.24,0.14 -0.072,-0.02 c -0.096,-0.07 -0.168,-0.1 -0.24,-0.19 h -0.024 0.024 l -0.048,-0.03 c -0.12,-0.12 -0.24,-0.24 -0.312,-0.38 l -0.024,-0.03 0.648,0.6 -0.024,-0.04 c -0.336,-0.12 -0.6,-0.39 -0.72,-0.68 l -0.024,-0.07 0.36,0.48 -0.072,-0.02 v 0 l -0.024,-0.03 c -0.144,-0.16 -0.264,-0.31 -0.36,-0.48 l -0.024,-0.07 -0.024,-0.09 -0.048,-0.05 0.768,0.81 -0.048,-0.04 c -0.504,-0.2 -0.84,-0.75 -0.84,-1.28 v -0.07 l 0.12,0.6 -0.024,-0.05 0.144,0.2 -0.12,-0.15 v -0.02 l -0.048,-0.07 -0.024,-0.05 -0.072,-0.07 0.072,0.07 -0.072,-0.1 0.576,0.48 -0.096,-0.02 c -0.216,-0.1 -0.408,-0.27 -0.528,-0.48 l -0.072,-0.07 0.072,0.09 -0.048,-0.05 0.12,0.15 -0.24,-0.24 -0.048,-0.07 -0.096,-0.12 0.12,0.12 -0.096,-0.05 v 0 l -0.048,-0.07 0.096,0.09 -0.072,-0.05 c -0.048,-0.04 -0.12,-0.09 -0.168,-0.16 l -0.072,-0.05 0.456,0.29 h -0.024 l 0.528,0.09 h -0.024 c -0.792,0 -1.416,-0.62 -1.392,-1.41 v 0 c 0,-0.77 0.648,-1.4 1.416,-1.4 0.744,0.03 1.392,0.65 1.392,1.44 0,0.75 -0.648,1.37 -1.416,1.37 h -0.024 c -0.36,0 -0.72,-0.14 -1.008,-0.41 -0.24,-0.28 -0.384,-0.64 -0.384,-1 v -0.03 c 0,-0.77 0.624,-1.41 1.416,-1.37 0.768,0 1.368,0.63 1.368,1.4 0,0.76 -0.624,1.39 -1.392,1.39 h -0.048 c -0.312,0 -0.624,-0.12 -0.864,-0.34 l -0.024,-0.02 0.888,0.33 h -0.024 -0.024 -0.024 l 0.6,-0.09 h -0.048 c -0.168,0.05 -0.36,0.12 -0.528,0.12 h -0.024 v 0 h -0.048 v 0 h -0.024 0.024 -0.024 -0.024 v -0.03 l 0.024,0.03 h -0.024 v -0.03 h -0.024 v 0 h -0.048 l 0.936,-0.31 h -0.024 c -0.264,0.22 -0.576,0.34 -0.912,0.34 h -0.024 l 1.296,-0.87 v 0.03 c -0.216,0.53 -0.72,0.86 -1.296,0.86 h -0.024 l 1.416,-1.37 v 0 c 0,0.41 -0.192,0.8 -0.528,1.08 l -0.24,0.17 0.12,-0.09 -0.048,0.07 v 0 l -0.096,0.09 0.24,-0.33 -0.048,0.12 c -0.072,0.09 -0.096,0.14 -0.168,0.24 l -0.072,0.09 0.024,-0.04 -0.096,0.09 0.144,-0.21 -0.048,0.12 -0.024,0.04 -0.048,0.08 0.072,-0.12 -0.024,0.07 c -0.048,0.05 -0.072,0.12 -0.096,0.17 l -0.216,0.36 0.024,-0.03 -0.072,0.15 c -0.072,0.07 -0.096,0.16 -0.168,0.21 l -0.072,0.12 h -0.048 l -0.072,0.12 v 0.03 l -0.072,0.07 0.192,-0.27 -0.048,0.03 c -0.24,0.48 -0.768,0.77 -1.32,0.72 h -0.024 l 0.72,-0.12 h -0.024 l 0.744,-1.06 v 0 c -0.024,0.46 -0.288,0.82 -0.648,1.03 l -0.072,0.03 -0.048,0.05 h -0.048 0.048 l -0.072,0.04 c -0.048,0 -0.096,0.03 -0.144,0.05 h -0.072 l 0.648,-0.45 v 0 c -0.288,0.4 -0.72,0.57 -1.176,0.57 h -0.024 l 1.032,-0.45 v 0.04 c -0.264,0.29 -0.648,0.44 -1.08,0.44 l -0.048,-0.03 c -0.336,0 -0.672,-0.14 -0.864,-0.38 h -0.048 l 0.648,0.36 -0.048,-0.03 c -0.24,-0.07 -0.432,-0.19 -0.624,-0.36 v 0 l 0.792,0.39 h -0.048 v 0 l -0.024,-0.03 c -0.336,-0.04 -0.648,-0.21 -0.864,-0.52 -0.24,-0.27 -0.336,-0.63 -0.264,-0.99 v 0 c 0.12,-0.72 0.768,-1.22 1.488,-1.1 0.72,0.09 1.2,0.74 1.104,1.46 -0.072,0.72 -0.744,1.23 -1.464,1.15 v 0 c -0.384,-0.07 -0.72,-0.28 -0.936,-0.57 l -0.024,-0.03 1.752,0.39 -0.048,0.02 c -0.24,0.12 -0.504,0.19 -0.768,0.15 h -0.024 c -0.72,-0.08 -1.248,-0.72 -1.152,-1.44 v -0.03 l 0.36,1.06 -0.024,-0.03 0.768,0.39 v 0 c -0.36,-0.03 -0.672,-0.22 -0.888,-0.51 -0.216,-0.28 -0.312,-0.64 -0.24,-0.96 v -0.04 l 0.36,1.12 -0.024,-0.04 0.768,0.4 -0.024,-0.04 c -0.336,-0.03 -0.672,-0.2 -0.864,-0.48 -0.216,-0.27 -0.312,-0.63 -0.24,-0.96 v -0.03 l -0.048,0.07 v -0.04 l 0.408,1.03 h -0.048 c -0.264,-0.31 -0.408,-0.7 -0.36,-1.08 v -0.03 l 0.192,0.84 -0.576,-0.93 c -0.024,-0.07 -0.048,-0.12 -0.096,-0.19 l -0.144,-0.36 -0.024,-0.08 -0.12,-0.4 0.024,0.12 -0.168,-0.44 c -0.24,-0.48 -0.048,-1.08 0.432,-1.39 0.48,-0.26 1.08,-0.12 1.416,0.34 z"
         style="fill:#000000;fill-opacity:1;fill-rule:nonzero;stroke:none"
         transform="matrix(1.3333333,0,0,-1.3333333,0,1120.8)" />
    </g>
    <g
       id="g269">
      <path
         id="path269"
         d="m 45.216,292.25 v 0.02 c 0.096,0.07 0.12,0.12 0.192,0.22 l 0.024,0.02 -0.528,-0.45 0.024,0.04 c 0.144,0.05 0.264,0.12 0.384,0.24 v 0 0 l 0.096,0.08 v 0 l 0.048,0.07 -0.072,-0.1 0.072,0.1 -0.072,-0.1 0.048,0.07 c 0.096,0.03 0.144,0.08 0.192,0.12 l 0.072,0.05 -0.24,-0.14 0.096,0.02 -0.048,-0.02 0.072,0.05 0.12,0.07 0.072,0.05 -0.192,-0.08 0.12,0.03 h -0.024 l 0.12,0.02 -0.096,-0.02 0.072,0.02 h 0.048 l 0.12,0.03 h -0.072 l 0.168,0.04 -0.288,-0.04 h 0.048 c 0.072,0 0.144,0 0.216,0.04 h 0.048 l -0.192,-0.04 h 0.072 v 0 h 0.072 v 0 h 0.048 v 0 h 0.096 l -0.168,0.04 0.072,-0.04 c 0.072,0 0.12,0 0.168,0 h 0.048 -0.168 0.072 -0.024 0.072 l -0.216,0.07 0.096,-0.03 c 0.048,-0.04 0.12,-0.07 0.168,-0.07 l 0.096,-0.02 -0.36,0.14 0.048,-0.02 c 0.12,-0.1 0.24,-0.15 0.408,-0.15 l 0.072,-0.04 -0.504,0.21 0.072,-0.02 0.12,-0.1 0.144,-0.09 v 0.04 l 0.096,-0.09 -0.072,0.05 0.096,-0.05 -0.072,0.02 0.096,-0.05 -0.048,0.05 0.072,-0.09 v 0 l 0.096,-0.08 v 0 l 0.096,-0.09 -0.192,0.21 0.096,-0.09 c 0.024,-0.07 0.072,-0.12 0.096,-0.15 l 0.096,-0.09 -0.072,0.05 0.096,-0.08 -0.12,0.17 0.048,-0.12 0.072,-0.09 0.048,-0.12 -0.048,0.12 0.048,-0.12 -0.024,0.07 0.072,-0.12 -0.048,0.09 0.12,-0.33 -0.024,0.09 0.096,-0.28 v 0.04 l 0.048,-0.31 -0.024,0.1 0.072,-0.27 v 0.08 l 0.024,-0.29 v 0.05 l 0.048,-0.68 v 0.03 l 0.048,-0.36 v -0.07 l 0.048,-0.32 v -0.09 l 0.144,-0.82 0.048,-0.09 0.048,-0.15 v -0.02 l 0.024,-0.12 0.048,-0.12 0.048,-0.12 0.072,-0.1 0.048,-0.12 v 0 l 0.144,-0.29 c 0.096,-0.19 0.24,-0.33 0.432,-0.45 h 0.024 l -0.168,0.12 0.024,-0.03 -0.12,0.12 0.024,-0.04 c 0.072,-0.05 0.096,-0.08 0.12,-0.12 l 0.024,-0.03 v 0 l 0.048,-0.02 v 0 l 0.024,-0.03 c 0.144,-0.12 0.288,-0.24 0.48,-0.28 l 0.024,-0.03 -0.6,0.46 0.024,-0.03 c 0.168,-0.24 0.408,-0.43 0.696,-0.48 h 0.024 l -0.36,0.15 0.072,-0.03 v 0 l 0.024,-0.04 c 0.096,-0.05 0.192,-0.08 0.264,-0.12 l 0.072,-0.03 -0.072,0.03 0.12,-0.03 h -0.048 l 0.12,-0.02 c 0.048,-0.03 0.12,-0.07 0.216,-0.07 l 0.048,-0.03 -0.096,0.03 0.096,-0.03 -0.024,0.03 0.096,-0.03 c 0.072,-0.05 0.192,-0.05 0.36,-0.05 h 0.048 -0.12 l 0.264,-0.04 c 0.072,0 0.168,0 0.216,0 l 0.312,0.04 h 0.024 l 0.264,0.03 h 0.096 l 0.336,0.05 h 0.024 l 0.288,0.07 0.096,0.02 0.672,0.19 -0.048,-0.04 1.056,0.24 h -0.12 l 0.192,0.04 h 0.072 l 0.192,0.03 h -0.144 0.192 -0.072 0.48 -0.12 l 0.24,-0.03 -0.048,0.03 0.24,-0.07 -0.072,0.04 0.24,-0.07 h -0.048 l 0.288,-0.05 -0.12,0.03 0.672,-0.24 -0.048,0.02 0.168,-0.09 -0.024,0.04 0.192,-0.09 -0.12,0.05 0.168,-0.08 v 0 l 0.192,-0.12 -0.096,0.05 0.144,-0.12 -0.024,0.07 0.408,-0.36 -0.048,0.05 0.12,-0.12 0.024,-0.02 0.12,-0.12 -0.024,0.05 0.12,-0.12 -0.072,0.07 0.12,-0.12 -0.048,0.05 0.096,-0.12 v 0 l 0.072,-0.12 -0.048,0.09 0.216,-0.29 -0.048,0.05 0.12,-0.24 v 0.03 l 0.12,-0.24 -0.024,0.09 0.24,-0.5 -0.048,0.14 0.096,-0.26 v -0.03 l 0.048,-0.24 -0.024,0.12 0.048,-0.24 v 0 l 0.072,-0.26 v 0 l 0.048,-0.24 -0.024,0.12 0.072,-0.62 v 0.12 l -0.096,-1.95 v 0.03 l -0.024,-0.94 -0.048,-0.05 -0.024,-0.93 c 0,-0.46 0.216,-0.84 0.576,-1.06 0.36,-0.24 0.816,-0.24 1.2,-0.02 0.36,0.19 0.6,0.57 0.6,0.98 l 0.024,0.96 v -0.02 l 0.072,0.96 v 0.02 l 0.048,1.92 v 0.17 l -0.048,0.65 -0.048,0.16 -0.024,0.24 -0.024,0.03 -0.024,0.24 v 0 l -0.072,0.24 -0.024,0.12 -0.096,0.24 v 0 l -0.096,0.24 -0.024,0.14 -0.24,0.48 -0.024,0.1 -0.144,0.24 v 0.02 l -0.168,0.24 -0.024,0.07 -0.216,0.29 -0.048,0.1 -0.096,0.09 v 0 l -0.096,0.12 -0.048,0.05 -0.12,0.12 -0.024,0.07 -0.12,0.12 -0.072,0.03 -0.12,0.12 0.072,-0.07 -0.12,0.09 -0.072,0.1 -0.456,0.36 -0.048,0.02 -0.192,0.12 -0.096,0.07 -0.144,0.08 v 0 l -0.168,0.12 -0.12,0.07 -0.192,0.05 -0.024,0.04 -0.192,0.05 -0.048,0.03 -0.672,0.24 -0.12,0.04 -0.264,0.05 h -0.024 l -0.216,0.07 -0.096,0.03 -0.264,0.02 h -0.024 l -0.264,0.03 h -0.12 -0.48 -0.072 -0.216 l -0.144,-0.03 -0.216,-0.02 h 0.096 l -0.216,-0.03 h -0.072 l -1.056,-0.24 -0.024,-0.04 -0.672,-0.17 0.096,0.02 -0.312,-0.05 h 0.048 l -0.336,-0.04 h 0.096 l -0.312,-0.03 v 0 l -0.288,-0.02 h 0.192 l -0.264,0.02 h -0.12 -0.048 l 0.312,-0.05 -0.048,0.03 -0.072,0.02 -0.072,0.03 h -0.096 l -0.072,0.04 0.216,-0.07 -0.096,0.03 -0.048,0.04 -0.096,0.03 h -0.048 l -0.048,0.02 0.288,-0.14 -0.048,0.02 v 0 l -0.048,0.03 c -0.096,0.07 -0.216,0.12 -0.336,0.16 l -0.048,0.03 0.672,-0.48 -0.024,0.02 c -0.144,0.22 -0.36,0.36 -0.6,0.46 l -0.048,0.02 0.432,-0.26 -0.024,0.02 v 0 l -0.024,0.03 v 0 l -0.024,0.04 0.12,-0.16 -0.048,0.07 -0.12,0.12 -0.024,0.02 c -0.048,0.07 -0.12,0.1 -0.168,0.15 l -0.048,0.04 0.408,-0.45 -0.168,0.26 v 0 l -0.048,0.15 0.048,-0.08 -0.048,0.12 0.024,-0.12 -0.024,0.15 v -0.03 l -0.024,0.12 0.024,-0.09 -0.144,0.81 v -0.09 l -0.048,0.36 v -0.07 l -0.024,0.36 v 0.04 l -0.048,0.65 v 0.07 l -0.072,0.29 v 0.07 l -0.048,0.27 -0.048,0.09 -0.048,0.29 v 0 l -0.096,0.27 -0.024,0.09 -0.12,0.34 -0.024,0.05 -0.072,0.12 -0.024,0.04 -0.072,0.12 -0.024,0.08 -0.096,0.12 0.072,-0.12 -0.072,0.12 c -0.024,0.07 -0.048,0.12 -0.12,0.19 l -0.048,0.09 -0.072,0.05 -0.072,0.1 0.12,-0.15 -0.072,0.12 c -0.048,0.05 -0.12,0.15 -0.168,0.2 l -0.096,0.09 v 0 l -0.096,0.1 v 0 l -0.096,0.09 -0.048,0.05 -0.096,0.07 -0.048,0.05 -0.12,0.07 -0.096,0.05 -0.096,0.07 -0.048,0.03 -0.168,0.09 0.096,-0.07 -0.048,0.03 c -0.168,0.12 -0.336,0.19 -0.528,0.21 h -0.048 l 0.384,-0.12 -0.048,0.03 c -0.12,0.07 -0.24,0.12 -0.408,0.12 l -0.048,0.04 0.216,-0.07 -0.072,0.03 c -0.096,0 -0.144,0.04 -0.216,0.04 l -0.048,0.03 h -0.024 -0.096 c -0.072,0.02 -0.144,0.02 -0.216,0.02 h -0.048 l 0.192,-0.02 -0.072,0.02 c -0.072,0 -0.12,0 -0.192,0 h -0.096 v 0 h -0.048 v 0 h -0.072 v 0 h -0.072 c -0.072,0 -0.168,0 -0.216,-0.02 h -0.072 0.216 -0.048 c -0.12,0 -0.216,0 -0.312,-0.03 l -0.216,-0.07 -0.072,-0.02 -0.096,-0.03 h 0.024 l -0.096,-0.04 -0.072,-0.03 -0.096,-0.02 v 0 l -0.096,-0.07 c -0.048,-0.03 -0.12,-0.05 -0.168,-0.08 l -0.096,-0.07 0.12,0.1 -0.072,-0.07 -0.048,-0.03 -0.096,-0.02 c -0.096,-0.07 -0.168,-0.12 -0.24,-0.22 l -0.096,-0.05 0.192,0.15 -0.072,-0.07 -0.12,-0.05 -0.048,-0.07 -0.096,-0.08 -0.048,-0.07 -0.096,-0.12 -0.096,-0.09 c -0.12,-0.15 -0.168,-0.32 -0.216,-0.51 v -0.02 l 0.336,0.62 -0.024,-0.02 c -0.216,-0.19 -0.336,-0.43 -0.36,-0.7 v -0.02 0.02 0 c -0.072,-0.48 0.168,-0.93 0.576,-1.13 0.408,-0.24 0.912,-0.16 1.272,0.15 z"
         style="fill:#000000;fill-opacity:1;fill-rule:nonzero;stroke:none"
         transform="matrix(1.3333333,0,0,-1.3333333,0,1120.8)" />
    </g>
    <g
       id="g270">
      <path
         id="path270"
         d="m 64.392,278.57 v 0.65 0.02 l -0.048,4.56 v -0.05 l 0.024,2.14 v 0 0.93 0 l -0.048,6.96 v -0.09 l 0.12,2.49 v -0.09 l 0.024,0.57 v -0.07 l 0.096,0.58 -0.048,-0.15 0.336,1.32 -0.024,-0.09 0.048,0.17 v 0.04 l 0.072,0.2 -0.12,-0.32 0.096,0.17 -0.048,-0.05 0.12,0.17 v 0.03 l 0.24,0.36 c 0.048,0.07 0.072,0.16 0.096,0.21 l 0.024,0.07 -0.48,-0.6 0.072,0.03 c 0.216,0.14 0.36,0.36 0.456,0.6 l 0.024,0.09 -0.456,-0.64 0.072,0.07 c 0.072,0.05 0.144,0.12 0.192,0.21 l 0.072,0.05 v 0 l 0.048,0.07 -0.192,-0.21 0.024,0.05 -0.24,-0.17 0.096,0.05 c 0.24,0.12 0.432,0.31 0.552,0.55 l 0.048,0.02 -0.576,-0.53 0.096,0.05 c 0.072,0.03 0.144,0.1 0.24,0.15 l 0.024,0.04 -0.216,-0.16 0.072,0.04 -0.336,-0.12 0.096,0.03 c 0.192,0.05 0.384,0.14 0.552,0.26 l 0.072,0.07 -0.24,-0.16 0.048,0.04 -0.264,-0.12 0.216,0.05 0.12,0.07 0.048,0.03 -0.552,-0.12 h 0.048 v 0 h 0.024 v 0 h 0.072 v 0 h 0.024 v 0 h 0.072 v 0 h 0.024 v 0 h 0.048 v 0 H 65.4 v 0 h 0.024 v 0 h 0.048 v 0 h 0.048 l -0.576,0.12 0.024,-0.03 v 0 l 0.072,-0.04 c 0.168,-0.05 0.384,-0.12 0.6,-0.12 v 0 l -0.576,0.12 0.048,-0.03 -0.384,0.24 0.024,-0.02 c 0.192,-0.15 0.432,-0.24 0.672,-0.31 l 0.096,-0.03 -1.008,0.72 0.048,-0.05 c 0.192,-0.33 0.528,-0.57 0.888,-0.67 l 0.096,-0.02 -0.792,0.5 0.048,-0.05 c 0.168,-0.21 0.384,-0.36 0.624,-0.45 l 0.048,-0.03 -0.624,0.44 0.072,-0.05 c 0.144,-0.22 0.36,-0.36 0.6,-0.46 l 0.048,-0.02 -0.84,0.84 0.024,-0.07 c 0.096,-0.24 0.24,-0.44 0.456,-0.6 l 0.072,-0.05 -0.456,0.6 v -0.07 c 0.048,-0.08 0.12,-0.2 0.168,-0.29 l 0.12,-0.15 -0.048,0.08 0.096,-0.17 0.048,-0.1 0.12,-0.14 -0.24,0.48 0.072,-0.19 v -0.05 l 0.048,-0.19 c 0.024,-0.05 0.072,-0.12 0.096,-0.17 l 0.048,-0.19 -0.12,0.45 0.048,-0.21 0.024,-0.15 0.096,-0.33 -0.072,0.28 0.024,-0.84 v 0.05 l 0.048,-0.84 v 0.19 l -0.216,-2.25 v 0.02 l -0.096,-0.93 v 0 l -0.096,-0.87 c 0,-0.05 0,-0.12 0,-0.21 v -0.24 c 0,-0.77 0.672,-1.44 1.488,-1.44 0.792,0 1.464,0.67 1.488,1.44 v 0.24 l -0.024,-0.15 0.12,0.87 h 0.024 l 0.12,0.93 v 0.03 l 0.216,2.25 v 0.12 l 0.024,0.84 v 0.07 l -0.024,0.8 c 0,0.12 0,0.21 -0.024,0.33 l -0.096,0.34 0.024,-0.12 -0.024,0.17 c -0.024,0.16 -0.072,0.31 -0.12,0.45 l -0.096,0.19 0.096,-0.21 -0.072,0.17 v -0.03 l -0.048,0.19 c -0.024,0.17 -0.12,0.32 -0.216,0.48 l -0.12,0.15 0.072,-0.07 -0.12,0.19 -0.048,0.05 -0.12,0.16 0.192,-0.31 -0.024,0.07 c -0.12,0.24 -0.288,0.44 -0.456,0.63 l -0.072,0.02 0.456,-0.6 -0.024,0.07 c -0.144,0.39 -0.456,0.68 -0.84,0.84 l -0.072,0.03 0.6,-0.46 -0.024,0.07 c -0.168,0.2 -0.384,0.36 -0.624,0.44 l -0.072,0.04 0.648,-0.45 -0.072,0.05 c -0.216,0.24 -0.48,0.43 -0.768,0.52 l -0.096,0.03 0.888,-0.7 v 0.03 c -0.24,0.4 -0.6,0.64 -1.008,0.72 l -0.12,0.04 0.696,-0.33 -0.048,0.02 c -0.12,0.1 -0.264,0.19 -0.384,0.24 H 66.24 c -0.192,0.1 -0.408,0.12 -0.6,0.12 v 0 l 0.552,-0.12 -0.048,0.03 v 0 l -0.072,0.04 c -0.168,0.05 -0.36,0.12 -0.552,0.12 h -0.048 v 0 h -0.048 v 0 H 65.4 v 0 h -0.048 v 0 h -0.048 v 0 H 65.28 v 0 h -0.072 v 0 h -0.024 v 0 h -0.072 v 0 h -0.024 v 0 H 65.04 c -0.216,0 -0.408,-0.07 -0.6,-0.12 l -0.048,-0.04 0.12,0.07 -0.192,-0.1 c -0.096,-0.02 -0.216,-0.05 -0.312,-0.12 l -0.048,-0.02 c -0.096,-0.07 -0.192,-0.1 -0.24,-0.15 l -0.072,-0.07 0.576,0.31 -0.096,-0.04 c -0.12,-0.03 -0.216,-0.05 -0.336,-0.12 l -0.072,-0.05 c -0.072,-0.03 -0.168,-0.1 -0.216,-0.15 l -0.072,-0.07 0.24,0.19 -0.072,-0.07 c -0.24,-0.12 -0.456,-0.29 -0.576,-0.53 L 63,301.06 l 0.552,0.55 -0.072,-0.07 c -0.072,-0.03 -0.168,-0.08 -0.216,-0.15 l -0.072,-0.02 c -0.072,-0.1 -0.144,-0.15 -0.24,-0.24 l -0.024,-0.07 v 0 l -0.048,-0.05 0.192,0.21 -0.048,-0.04 c -0.192,-0.17 -0.336,-0.39 -0.456,-0.63 l -0.024,-0.05 0.456,0.63 -0.048,-0.07 c -0.192,-0.15 -0.36,-0.36 -0.432,-0.6 l -0.048,-0.05 0.096,0.17 -0.216,-0.39 v 0.03 l -0.072,-0.15 -0.072,-0.09 -0.096,-0.17 c -0.048,-0.12 -0.072,-0.22 -0.12,-0.34 l -0.048,-0.21 v 0.07 l -0.072,-0.19 v -0.08 l -0.312,-1.32 -0.048,-0.16 -0.048,-0.56 -0.024,-0.07 -0.048,-0.57 v -0.08 l -0.048,-2.49 v -0.1 l 0.144,-6.93 v 0.04 l 0.024,-0.93 v 0 l 0.048,-2.14 v -0.07 l 0.24,-4.51 v -0.05 l 0.048,-0.67 c 0.024,-0.7 0.624,-1.2 1.32,-1.18 0.696,0.03 1.224,0.6 1.224,1.3 z"
         style="fill:#000000;fill-opacity:1;fill-rule:nonzero;stroke:none"
         transform="matrix(1.3333333,0,0,-1.3333333,0,1120.8)" />
    </g>
    <g
       id="g271">
      <path
         id="path271"
         d="m 51.792,273.17 0.144,0.07 c 0.12,0.1 0.216,0.19 0.312,0.29 l 0.048,0.12 0.048,0.05 0.048,0.09 -0.024,-0.07 0.048,0.12 -0.048,-0.12 0.048,0.1 -0.072,-0.1 0.072,0.1 v 0 l 0.096,0.09 0.12,0.1 0.072,0.07 -0.096,-0.07 0.096,0.05 -0.072,-0.03 0.24,0.15 h -0.024 l 0.216,0.14 -0.168,-0.07 0.216,0.12 0.096,0.02 0.216,0.15 -0.096,-0.05 0.48,0.24 c 0.048,0.02 0.12,0.05 0.168,0.12 l 0.096,0.05 -0.48,-0.22 0.12,0.05 c 0.096,0 0.192,0.05 0.312,0.07 l 0.072,0.07 -0.288,-0.12 0.12,0.03 h 0.024 l 0.096,0.02 h -0.024 0.12 l 0.024,0.05 0.096,0.02 v 0 h 0.072 l -0.264,-0.02 h 0.12 v 0 h 0.12 v 0 h 0.12 -0.024 0.096 0.024 0.096 l -0.288,0.02 h 0.096 l 0.072,-0.02 0.12,-0.05 -0.072,0.05 0.096,-0.05 h -0.024 l 0.264,-0.05 -0.144,0.03 0.12,-0.03 -0.096,0.03 0.144,-0.05 0.096,-0.07 0.096,-0.03 -0.288,0.15 0.096,-0.05 h -0.024 l 0.12,-0.1 0.144,-0.09 0.096,-0.05 v 0 l 0.12,-0.1 -0.12,0.12 0.12,-0.12 -0.12,0.1 0.096,-0.1 v 0 l 0.072,-0.09 -0.072,0.12 0.072,-0.12 v 0.02 l 0.072,-0.07 -0.024,0.02 0.192,-0.31 -0.048,0.1 0.24,-0.41 v 0 l 0.216,-0.43 -0.072,0.14 0.192,-0.43 -0.048,0.02 0.408,-1.05 v -0.05 l 0.408,-1.06 v -0.02 l 0.24,-0.55 v 0 l 0.24,-0.58 v -0.05 l 0.288,-0.55 0.048,-0.07 0.264,-0.53 0.048,-0.02 0.312,-0.51 0.072,-0.07 0.864,-1.22 0.072,-0.05 0.144,-0.19 c 0.456,-0.51 1.224,-0.58 1.728,-0.12 0.552,0.45 0.6,1.22 0.168,1.75 l -0.168,0.14 0.072,-0.07 -0.912,1.25 0.072,-0.07 -0.336,0.5 0.024,-0.05 -0.288,0.51 0.024,-0.1 -0.24,0.55 0.024,-0.07 -0.24,0.55 v 0 l -0.24,0.58 0.048,-0.05 -0.432,1.06 v -0.03 l -0.36,1.06 -0.024,0.05 -0.192,0.45 -0.072,0.15 -0.216,0.43 v 0 l -0.24,0.38 -0.072,0.12 -0.192,0.29 -0.048,0.05 -0.096,0.07 v 0.05 l -0.072,0.12 -0.12,0.07 -0.096,0.1 v 0 l -0.096,0.09 -0.096,0.1 -0.12,0.07 -0.12,0.1 -0.12,0.09 v 0 l -0.12,0.05 0.12,-0.07 -0.12,0.07 -0.024,0.05 -0.096,0.05 c -0.072,0.07 -0.168,0.12 -0.264,0.14 l -0.12,0.05 0.096,-0.05 -0.12,0.07 -0.096,0.05 -0.12,0.05 -0.12,0.02 -0.264,0.1 h -0.024 l -0.096,0.02 h -0.072 l -0.12,0.03 0.072,-0.03 -0.096,0.03 c -0.096,0.02 -0.168,0.02 -0.288,0.02 h -0.096 -0.024 -0.096 0.024 -0.12 v 0 h -0.12 v 0 h -0.12 c -0.096,0 -0.168,-0.02 -0.288,-0.02 l -0.096,-0.03 v 0 l -0.096,-0.02 h 0.072 -0.12 l -0.072,-0.05 -0.096,-0.02 0.072,0.02 -0.12,-0.02 c -0.096,-0.03 -0.192,-0.05 -0.264,-0.12 l -0.096,-0.03 0.264,0.1 h -0.096 c -0.168,-0.07 -0.312,-0.12 -0.48,-0.24 l -0.072,-0.07 0.144,0.09 -0.48,-0.24 -0.12,-0.09 -0.216,-0.12 0.096,0.02 -0.216,-0.12 c -0.024,-0.02 -0.096,-0.05 -0.144,-0.07 l -0.192,-0.19 h -0.024 l -0.216,-0.17 -0.12,-0.12 -0.072,-0.1 c -0.048,-0.07 -0.096,-0.09 -0.12,-0.14 l -0.072,-0.1 0.12,0.12 -0.096,-0.09 v 0 l -0.072,-0.1 -0.096,-0.14 -0.072,-0.1 -0.048,-0.07 -0.072,-0.12 -0.048,-0.1 -0.024,-0.09 0.024,0.09 -0.072,-0.12 c -0.144,-0.26 -0.144,-0.6 -0.024,-0.91 l 0.072,-0.17 c 0.12,-0.24 0.312,-0.45 0.6,-0.55 0.264,-0.05 0.528,-0.02 0.768,0.17 z"
         style="fill:#000000;fill-opacity:1;fill-rule:nonzero;stroke:none"
         transform="matrix(1.3333333,0,0,-1.3333333,0,1120.8)" />
    </g>
    <g
       id="g272">
      <path
         id="path272"
         d="m 51.792,272.83 h 0.024 l -0.384,-0.07 h 0.096 0.024 0.096 l -0.216,0.05 0.096,-0.05 c 0.048,-0.02 0.144,-0.02 0.216,-0.02 h 0.072 l -0.144,0.02 0.12,-0.02 v 0 l 0.096,-0.03 -0.216,0.1 0.096,-0.07 c 0.048,-0.03 0.144,-0.05 0.216,-0.1 l 0.12,-0.02 -0.216,0.09 0.096,-0.07 c 0.024,-0.02 0.072,-0.02 0.168,-0.05 l 0.096,-0.02 -0.24,0.12 0.12,-0.1 h -0.024 l 0.168,-0.12 -0.024,0.03 0.144,-0.1 v 0 l 0.12,-0.07 -0.12,0.12 0.096,-0.12 0.048,-0.07 0.168,-0.12 -0.12,0.12 0.12,-0.15 c 0.024,-0.02 0.048,-0.09 0.12,-0.12 l 0.12,-0.12 -0.168,0.15 0.24,-0.34 -0.024,0.07 0.24,-0.36 -0.024,0.1 0.168,-0.41 v 0 l 0.216,-0.38 v -0.03 l 0.216,-0.38 -0.072,0.12 0.432,-1.06 -0.024,0.05 0.264,-0.79 0.048,-0.1 1.008,-2.18 0.048,-0.1 0.12,-0.24 v 0.05 l 0.12,-0.26 c 0.024,-0.05 0.096,-0.12 0.144,-0.17 l 0.192,-0.22 -0.096,0.1 0.192,-0.24 0.048,-0.1 0.192,-0.21 v 0 l 0.168,-0.22 0.096,-0.07 0.216,-0.19 v 0 l 0.408,-0.36 0.072,-0.05 0.264,-0.22 0.072,-0.07 0.288,-0.19 h 0.024 l 0.312,-0.19 0.024,-0.03 0.336,-0.19 0.096,-0.05 0.96,-0.43 0.072,-0.02 0.288,-0.12 c 0.36,-0.12 0.768,-0.03 1.08,0.21 0.264,0.27 0.408,0.65 0.312,1.06 -0.072,0.38 -0.36,0.67 -0.72,0.79 l -0.288,0.1 0.12,-0.03 -0.96,0.39 0.096,-0.03 -0.336,0.17 0.024,-0.02 -0.288,0.19 h 0.024 l -0.336,0.19 0.072,-0.05 -0.288,0.22 0.072,-0.07 -0.432,0.36 v 0 l -0.192,0.19 0.072,-0.1 -0.168,0.22 v 0 l -0.192,0.19 0.072,-0.07 -0.144,0.24 -0.072,0.07 -0.216,0.22 0.168,-0.22 -0.168,0.29 -0.024,0.02 -0.12,0.24 0.048,-0.12 -1.032,2.19 0.048,-0.12 -0.288,0.81 v 0.05 l -0.432,1.03 -0.096,0.12 -0.192,0.39 0.024,-0.03 -0.216,0.39 v 0 l -0.24,0.38 -0.048,0.1 -0.24,0.36 -0.048,0.07 -0.264,0.29 c -0.048,0.07 -0.12,0.12 -0.168,0.19 l -0.12,0.07 0.144,-0.14 -0.12,0.14 c -0.024,0.05 -0.096,0.1 -0.12,0.12 l -0.144,0.1 0.048,-0.03 -0.12,0.1 c -0.024,0.05 -0.096,0.07 -0.144,0.12 l -0.12,0.07 v 0 l -0.144,0.1 h -0.048 l -0.168,0.12 h -0.024 l -0.12,0.07 c -0.072,0.05 -0.168,0.07 -0.24,0.12 h -0.12 l 0.192,-0.07 -0.072,0.07 c -0.096,0.02 -0.168,0.05 -0.24,0.05 l -0.12,0.02 0.24,-0.07 -0.096,0.05 c -0.096,0.02 -0.144,0.07 -0.24,0.07 l -0.12,0.02 v 0 h -0.12 c -0.072,0.03 -0.12,0.03 -0.192,0.03 l -0.072,-0.03 h 0.24 l -0.12,0.03 c -0.072,0 -0.12,0 -0.216,0 h -0.096 -0.024 -0.096 l 0.384,-0.05 h -0.024 c -0.36,0.14 -0.768,0.02 -1.056,-0.31 -0.24,-0.29 -0.24,-0.75 0,-1.08 0.288,-0.29 0.696,-0.41 1.056,-0.27 z"
         style="fill:#000000;fill-opacity:1;fill-rule:nonzero;stroke:none"
         transform="matrix(1.3333333,0,0,-1.3333333,0,1120.8)" />
    </g>
    <g
       id="g273">
      <path
         id="path273"
         d="m 59.832,266.45 0.12,-0.19 0.096,-0.12 0.072,-0.05 -0.12,0.17 0.024,-0.05 c 0.048,-0.1 0.096,-0.17 0.144,-0.22 l 0.072,-0.07 -0.168,0.19 0.072,-0.07 0.024,-0.07 0.072,-0.1 -0.096,0.22 0.024,-0.12 0.072,-0.1 0.048,-0.09 -0.048,0.12 0.024,-0.1 0.048,-0.12 0.048,-0.05 -0.12,0.36 v -0.09 c 0.024,-0.1 0.048,-0.17 0.072,-0.27 l 0.048,-0.09 -0.072,0.24 0.024,-0.17 v 0.05 -0.15 0.03 l 0.048,-0.15 v -0.02 l 0.024,-0.17 -0.024,0.22 v -0.15 0 -0.14 0 -0.17 l 0.024,0.22 -0.096,-0.36 c 0,-0.1 -0.024,-0.15 -0.024,-0.22 v -0.02 0 -0.05 l 0.384,0.86 -0.024,-0.02 c -0.24,-0.24 -0.36,-0.55 -0.36,-0.89 v 0 0 -0.05 0 l -0.024,-0.02 0.384,0.86 -0.024,-0.02 c -0.24,-0.22 -0.36,-0.55 -0.36,-0.84 v -0.05 l 0.36,0.84 h -0.048 l 0.912,0.34 H 61.44 c -0.336,0 -0.672,-0.12 -0.888,-0.34 -0.24,-0.24 -0.384,-0.53 -0.384,-0.86 v -0.05 l 0.384,0.86 -0.024,-0.02 c -0.24,-0.22 -0.36,-0.53 -0.384,-0.84 v -0.05 c 0,-0.5 0.288,-0.96 0.744,-1.13 0.456,-0.21 0.984,-0.12 1.344,0.24 0.36,0.34 0.48,0.87 0.312,1.32 -0.216,0.48 -0.624,0.77 -1.152,0.77 h -0.024 v 0 0 c -0.336,0 -0.648,-0.12 -0.888,-0.31 l -0.048,-0.05 c -0.192,-0.24 -0.36,-0.53 -0.36,-0.86 v -0.03 l 0.36,0.87 v -0.03 0 h -0.024 l 0.864,0.34 h -0.024 0.024 -0.024 c -0.336,0 -0.624,-0.12 -0.864,-0.34 l -0.024,-0.02 h -0.048 v -0.05 l 0.888,0.36 v 0 c -0.216,0 -0.432,-0.05 -0.576,-0.12 l -0.072,-0.02 0.576,0.12 H 61.08 v 0 h -0.12 c -0.696,0 -1.248,-0.53 -1.248,-1.23 0,-0.69 0.552,-1.22 1.248,-1.22 h 0.12 v 0 h 0.048 c 0.192,0 0.36,0.02 0.552,0.12 l 0.024,0.02 -0.504,-0.14 v 0 c 0.312,0.02 0.624,0.14 0.864,0.38 l 0.024,0.03 v 0 l 0.024,0.02 -0.864,-0.38 h 0.024 -0.024 0.024 c 0.336,0 0.648,0.14 0.888,0.36 l 0.024,0.02 v 0 0.05 c 0.24,0.24 0.36,0.53 0.36,0.86 v 0.03 l -0.36,-0.87 h 0.024 l -0.84,-0.36 v 0 0 h 0.024 c 0.696,0.03 1.248,0.58 1.2,1.25 v 0.05 l -0.312,-0.91 0.024,0.02 c 0.216,0.24 0.336,0.55 0.336,0.89 v 0.05 l -1.2,-1.25 h 0.024 c 0.288,0 0.624,0.14 0.84,0.38 h 0.024 c 0.24,0.24 0.36,0.58 0.36,0.89 v 0.05 l -0.36,-0.91 0.024,0.02 c 0.216,0.24 0.36,0.55 0.336,0.89 v 0.02 0 0.05 0 0 l -0.336,-0.86 0.048,0.02 c 0.192,0.24 0.312,0.55 0.312,0.89 v 0.05 0 0.02 l -0.024,-0.24 0.096,0.36 c 0,0.1 0,0.19 0,0.24 v 0.17 0 0.14 0 0.15 c 0,0.07 -0.024,0.12 -0.024,0.21 l -0.048,0.12 v -0.02 l -0.024,0.14 v 0.03 l -0.024,0.14 v 0.07 l -0.072,0.22 c -0.024,0.07 -0.048,0.17 -0.12,0.29 l -0.048,0.09 0.12,-0.24 -0.024,0.1 c -0.072,0.12 -0.12,0.24 -0.192,0.36 l -0.048,0.05 0.072,-0.12 -0.048,0.09 -0.096,0.12 -0.024,0.05 0.048,-0.12 -0.024,0.1 c -0.024,0.07 -0.096,0.12 -0.12,0.14 l -0.096,0.1 0.048,-0.03 -0.048,0.05 c -0.048,0.07 -0.072,0.12 -0.144,0.19 l -0.096,0.05 0.168,-0.14 -0.048,0.07 c -0.048,0.05 -0.072,0.12 -0.144,0.14 l -0.096,0.05 h 0.048 l -0.192,0.17 c -0.408,0.38 -1.056,0.41 -1.464,0.02 -0.456,-0.36 -0.504,-0.98 -0.192,-1.46 z"
         style="fill:#000000;fill-opacity:1;fill-rule:nonzero;stroke:none"
         transform="matrix(1.3333333,0,0,-1.3333333,0,1120.8)" />
    </g>
    <g
       id="g274">
      <path
         id="path274"
         d="m 54.504,275.35 -0.072,0.03 c -0.36,0.12 -0.744,-0.03 -0.888,-0.36 -0.168,-0.36 -0.048,-0.75 0.288,-0.94 0.336,-0.17 0.744,-0.05 0.96,0.24 l 0.024,0.07 c 0.096,0.15 0.12,0.36 0.072,0.58 -0.072,0.17 -0.216,0.31 -0.384,0.38 z"
         style="fill:#000000;fill-opacity:1;fill-rule:nonzero;stroke:none"
         transform="matrix(1.3333333,0,0,-1.3333333,0,1120.8)" />
    </g>
    <g
       id="g275">
      <path
         id="path275"
         d="m 54.552,269.23 -0.24,-0.21 c -0.048,-0.05 -0.12,-0.12 -0.168,-0.17 l -0.552,-0.84 v 0 l -1.176,-1.73 v 0 l -0.192,-0.26 -0.072,-0.1 -0.384,-0.65 -0.024,-0.07 -0.048,-0.05 c -0.168,-0.36 -0.144,-0.79 0.072,-1.1 0.216,-0.36 0.6,-0.55 1.008,-0.53 0.408,0 0.768,0.29 0.936,0.65 l 0.024,0.02 -0.024,-0.07 0.384,0.67 -0.048,-0.07 0.216,0.31 0.024,0.05 1.056,1.85 0.048,0.07 0.432,0.91 -0.048,-0.09 0.168,0.31 c 0.192,0.36 0.12,0.86 -0.216,1.13 -0.336,0.26 -0.84,0.26 -1.176,-0.03 z"
         style="fill:#000000;fill-opacity:1;fill-rule:nonzero;stroke:none"
         transform="matrix(1.3333333,0,0,-1.3333333,0,1120.8)" />
    </g>
    <g
       id="g276">
      <path
         id="path276"
         d="m 55.608,266.74 -0.12,-0.27 -0.024,-0.02 -0.072,-0.19 v 0.07 l -0.048,-0.12 -0.048,-0.07 -0.048,-0.15 0.024,0.05 -0.24,-0.41 0.024,0.03 -0.36,-0.63 0.12,0.17 -0.048,-0.05 c -0.024,-0.02 -0.072,-0.09 -0.096,-0.14 l -0.048,-0.07 c -0.288,-0.41 -0.168,-0.96 0.264,-1.23 0.408,-0.26 0.96,-0.19 1.224,0.24 l 0.072,0.05 -0.12,-0.14 0.024,0.07 c 0.048,0.05 0.12,0.12 0.144,0.17 l 0.384,0.62 0.048,0.05 0.192,0.41 0.072,0.09 0.048,0.15 -0.024,-0.03 0.072,0.12 0.024,0.05 0.048,0.17 c 0.072,0.12 0.072,0.19 0.096,0.31 v 0.29 c 0,0.38 -0.264,0.74 -0.624,0.84 -0.384,0.07 -0.792,-0.1 -0.96,-0.43 z"
         style="fill:#000000;fill-opacity:1;fill-rule:nonzero;stroke:none"
         transform="matrix(1.3333333,0,0,-1.3333333,0,1120.8)" />
    </g>
    <g
       id="g277">
      <path
         id="path277"
         d="m 50.832,263.09 0.264,-0.07 h 0.048 l 1.272,-0.15 h 0.072 l 1.968,-0.12 h 0.072 l 1.848,-0.02 v 0 h 0.168 c 0.408,0 0.84,0.24 1.056,0.62 0.192,0.36 0.192,0.84 0,1.2 -0.216,0.39 -0.648,0.63 -1.056,0.6 h -0.168 -0.048 l -1.872,-0.09 h 0.048 l -1.992,-0.03 h 0.096 l -1.272,0.1 h -0.048 -0.24 c -0.552,0 -0.984,-0.43 -1.056,-0.94 -0.024,-0.55 0.336,-1.03 0.84,-1.1 z"
         style="fill:#000000;fill-opacity:1;fill-rule:nonzero;stroke:none"
         transform="matrix(1.3333333,0,0,-1.3333333,0,1120.8)" />
    </g>
  </g>
</svg>
