<?xml version="1.0" encoding="UTF-8" standalone="no"?>
<!-- Created with Inkscape (http://www.inkscape.org/) -->

<svg
   version="1.1"
   id="svg1"
   width="33.114471"
   height="69.176056"
   viewBox="0 0 33.114471 69.176058"
   sodipodi:docname="word1.svg"
   inkscape:version="1.4.3 (0d15f75, 2025-12-25)"
   xmlns:inkscape="http://www.inkscape.org/namespaces/inkscape"
   xmlns:sodipodi="http://sodipodi.sourceforge.net/DTD/sodipodi-0.dtd"
   xmlns="http://www.w3.org/2000/svg"
   xmlns:svg="http://www.w3.org/2000/svg">
  <defs
     id="defs1">
    <clipPath
       clipPathUnits="userSpaceOnUse"
       id="clipPath2">
      <path
         d="M -3.0240001,1.27 H 45.408001 V -4.2020001 H -3.0240001 Z"
         clip-rule="evenodd"
         id="path2" />
    </clipPath>
    <clipPath
       clipPathUnits="userSpaceOnUse"
       id="clipPath4">
      <path
         d="M -3.0240001,1.2799975 H 40.032001 V -4.1920026 H -3.0240001 Z"
         clip-rule="evenodd"
         id="path4" />
    </clipPath>
    <clipPath
       clipPathUnits="userSpaceOnUse"
       id="clipPath6">
      <path
         d="M -3.0240001,1.2700025 H 35.160001 V -4.2019976 H -3.0240001 Z"
         clip-rule="evenodd"
         id="path6" />
    </clipPath>
    <clipPath
       clipPathUnits="userSpaceOnUse"
       id="clipPath8">
      <path
         d="M -3.0240001,1.2700025 H 35.160001 V -4.1779976 H -3.0240001 Z"
         clip-rule="evenodd"
         id="path8" />
    </clipPath>
    <clipPath
       clipPathUnits="userSpaceOnUse"
       id="clipPath10">
      <path
         d="M -3.0240001,1.27 H 102.556 V -4.2020001 H -3.0240001 Z"
         clip-rule="evenodd"
         id="path10" />
    </clipPath>
    <clipPath
       clipPathUnits="userSpaceOnUse"
       id="clipPath12">
      <path
         d="M -3.0240001,1.27 H 38.184001 V -4.2020001 H -3.0240001 Z"
         clip-rule="evenodd"
         id="path12" />
    </clipPath>
    <clipPath
       clipPathUnits="userSpaceOnUse"
       id="clipPath14">
      <path
         d="M -3.0240001,1.2700025 H 36.432001 V -4.2019976 H -3.0240001 Z"
         clip-rule="evenodd"
         id="path14" />
    </clipPath>
    <clipPath
       clipPathUnits="userSpaceOnUse"
       id="clipPath16">
      <path
         d="M -3.0240001,1.2799975 H 101.136 V -4.1920026 H -3.0240001 Z"
         clip-rule="evenodd"
         id="path16" />
    </clipPath>
    <clipPath
       clipPathUnits="userSpaceOnUse"
       id="clipPath18">
      <path
         d="M -3.0240001,1.2799975 H 36.432001 V -4.1920026 H -3.0240001 Z"
         clip-rule="evenodd"
         id="path18" />
    </clipPath>
    <clipPath
       clipPathUnits="userSpaceOnUse"
       id="clipPath20">
      <path
         d="M -3.0199976,1.2700025 H 36.412003 V -4.1779976 H -3.0199976 Z"
         clip-rule="evenodd"
         id="path20" />
    </clipPath>
    <clipPath
       clipPathUnits="userSpaceOnUse"
       id="clipPath312">
      <path
         d="M -3.0240001,2.2300001 H 43.056001 V -7.6820002 H -3.0240001 Z"
         clip-rule="evenodd"
         id="path312" />
    </clipPath>
    <clipPath
       clipPathUnits="userSpaceOnUse"
       id="clipPath314">
      <path
         d="M -3.0240001,1.1099998 H 42.768001 V -3.8580003 H -3.0240001 Z"
         clip-rule="evenodd"
         id="path314" />
    </clipPath>
    <clipPath
       clipPathUnits="userSpaceOnUse"
       id="clipPath316">
      <path
         d="M -3.0240001,1.1099998 H 19.152 V -3.8580003 H -3.0240001 Z"
         clip-rule="evenodd"
         id="path316" />
    </clipPath>
    <clipPath
       clipPathUnits="userSpaceOnUse"
       id="clipPath318">
      <path
         d="M -3.0240001,0.98400002 H 18.744 V -3.5040001 H -3.0240001 Z"
         clip-rule="evenodd"
         id="path318" />
    </clipPath>
    <clipPath
       clipPathUnits="userSpaceOnUse"
       id="clipPath320">
      <path
         d="M -92.016002,0.98400002 H 150.124 V -3.5040001 H -92.016002 Z"
         clip-rule="evenodd"
         id="path320" />
    </clipPath>
    <clipPath
       clipPathUnits="userSpaceOnUse"
       id="clipPath322">
      <path
         d="M -15.670003,0.98400002 H 6.1219977 V -3.5040001 H -15.670003 Z"
         clip-rule="evenodd"
         id="path322" />
    </clipPath>
  </defs>
  <sodipodi:namedview
     id="namedview1"
     pagecolor="#ffffff"
     bordercolor="#000000"
     borderopacity="0.25"
     inkscape:showpageshadow="2"
     inkscape:pageopacity="0.0"
     inkscape:pagecheckerboard="0"
     inkscape:deskcolor="#d1d1d1"
     inkscape:zoom="6.6452528"
     inkscape:cx="2.0315254"
     inkscape:cy="25.50693"
     inkscape:window-width="1920"
     inkscape:window-height="1191"
     inkscape:window-x="-9"
     inkscape:window-y="-9"
     inkscape:window-maximized="1"
     inkscape:current-layer="g1">
    <inkscape:page
       x="2.162591e-09"
       y="2.6241164e-14"
       inkscape:label="1"
       id="page1"
       width="33.114471"
       height="69.176056"
       margin="0"
       bleed="0" />
  </sodipodi:namedview>
  <g
     id="g1"
     inkscape:groupmode="layer"
     inkscape:label="1"
     transform="translate(-57.640989,-648.09335)">
    <g
       id="g247">
      <path
         id="path247"
         d="m 57.624,335.06 -0.408,0.17 c -0.048,0.05 -0.12,0.05 -0.168,0.07 h -0.072 l 0.624,-0.45 -0.048,0.02 c -0.048,0.17 -0.216,0.31 -0.36,0.36 l -0.048,0.07 0.36,-0.38 v 0.02 c -0.096,0.15 -0.216,0.29 -0.408,0.39 l -0.048,0.02 c -0.072,0.05 -0.12,0.07 -0.192,0.07 h -0.048 v 0 l -0.024,0.03 h -0.096 l -0.072,0.02 0.288,-0.12 v 0.05 c -0.12,0.05 -0.24,0.07 -0.408,0.07 l -0.168,0.05 0.12,-0.05 -0.264,0.07 0.12,-0.02 -0.36,0.12 c -0.048,0.02 -0.096,0.02 -0.168,0.05 l -0.312,0.02 -0.12,0.05 -1.032,0.02 h 0.024 l -0.504,0.03 h -0.024 l -0.864,0.02 h -0.096 l -0.6,-0.02 h -0.072 l -0.912,-0.12 v 0 l -0.36,-0.03 -0.096,-0.02 -0.24,-0.05 0.144,0.05 -0.24,-0.05 c -0.024,0 -0.096,-0.02 -0.144,-0.02 l -0.48,-0.12 -0.12,-0.03 -0.384,-0.12 v 0 l -0.576,-0.21 c -0.096,-0.03 -0.192,-0.05 -0.264,-0.12 l -0.528,-0.34 c -0.048,-0.02 -0.072,-0.05 -0.144,-0.12 l -0.336,-0.26 0.096,0.07 -0.36,-0.29 0.072,0.05 -0.24,-0.17 0.744,0.22 h -0.024 c -0.336,0.02 -0.672,-0.1 -0.912,-0.34 l -0.024,-0.02 v 0 l -0.024,-0.03 0.024,0.03 h -0.024 l 0.888,0.31 h -0.024 c -0.696,0.02 -1.296,-0.53 -1.344,-1.25 v 0 l 0.408,0.89 -0.024,-0.05 v 0 -0.02 0 h -0.024 c -0.288,-0.24 -0.432,-0.58 -0.432,-0.89 v -0.05 l 0.144,0.58 -0.024,-0.05 v 0 l -0.024,-0.05 c -0.096,-0.17 -0.144,-0.38 -0.144,-0.6 v -0.02 l 0.408,0.91 h -0.024 c -0.144,-0.17 -0.264,-0.34 -0.336,-0.55 l -0.024,-0.05 c -0.072,-0.12 -0.072,-0.24 -0.096,-0.36 v -0.05 l 0.192,0.55 -0.048,-0.02 c -0.12,-0.19 -0.144,-0.41 -0.168,-0.6 v -0.05 0 -0.05 0 -0.02 -0.05 -0.12 c 0,-0.07 0.024,-0.17 0.024,-0.24 l 0.024,-0.24 c 0.072,-0.26 0.192,-0.5 0.36,-0.67 l 0.048,-0.05 -0.24,0.34 0.024,-0.03 -0.144,0.6 v -0.02 c 0,-0.36 0.144,-0.7 0.384,-0.94 l 0.024,-0.02 v 0 l 0.024,-0.05 -0.264,0.34 0.024,-0.03 c 0.072,-0.12 0.168,-0.24 0.24,-0.33 l 0.048,-0.03 c 0.24,-0.24 0.552,-0.38 0.888,-0.38 h 0.024 l -1.128,0.72 0.024,-0.05 c 0.12,-0.26 0.336,-0.48 0.576,-0.6 l 0.048,-0.02 -0.72,1.2 v -0.03 c -0.024,-0.36 0.12,-0.69 0.36,-0.93 0.24,-0.24 0.576,-0.39 0.936,-0.39 h 0.024 l -0.888,0.39 0.024,-0.03 v 0 -0.02 0 l 0.024,-0.05 c 0.192,-0.14 0.408,-0.26 0.648,-0.31 l 0.072,-0.05 -0.264,0.1 0.096,-0.03 0.096,-0.07 0.12,-0.02 c 0.072,-0.03 0.144,-0.05 0.24,-0.1 h 0.12 l -0.168,0.05 0.288,-0.1 c 0.072,-0.02 0.168,-0.07 0.24,-0.07 l 0.6,-0.07 v 0 l 0.552,-0.07 0.096,-0.03 h 0.6 l 0.072,-0.02 h 1.32 0.024 l 4.224,0.14 h -0.024 l 3.936,0.03 h -0.024 1.104 0.024 1.92 0.12 l 2.016,0.19 h -0.12 0.024 c 0.792,0 1.392,0.62 1.392,1.39 0,0.77 -0.6,1.39 -1.392,1.42 h -0.024 l -0.144,-0.03 -2.016,-0.19 h 0.12 l -1.92,-0.02 v 0 l -1.104,-0.03 v 0 l -3.936,-0.07 h -0.048 l -4.224,-0.17 h 0.072 -1.32 0.024 l -0.576,0.03 0.12,-0.03 -0.6,0.05 v 0 l -0.576,0.1 0.288,-0.05 -0.312,0.07 c -0.048,0.05 -0.12,0.05 -0.144,0.05 l -0.12,0.02 0.216,-0.07 -0.12,0.05 0.072,-0.05 -0.072,0.07 c -0.096,0.03 -0.168,0.05 -0.24,0.1 h -0.12 l 0.6,-0.34 v 0.03 0 l -0.048,0.02 v 0 l -0.024,0.05 c -0.24,0.24 -0.576,0.36 -0.936,0.36 h -0.024 l 1.32,-1.3 v 0.03 c -0.024,0.48 -0.288,0.93 -0.744,1.15 l -0.024,0.02 0.552,-0.57 -0.024,0.07 c -0.216,0.41 -0.648,0.67 -1.176,0.67 h -0.024 l 0.936,-0.36 -0.024,0.05 0.264,-0.36 -0.024,0.05 c -0.072,0.12 -0.168,0.24 -0.24,0.33 l -0.048,0.03 v 0 l -0.024,0.02 0.384,-0.91 v 0.02 c 0,0.22 -0.048,0.39 -0.144,0.58 v 0.05 c -0.096,0.12 -0.168,0.24 -0.264,0.33 l -0.024,0.03 0.384,-0.65 -0.072,0.24 0.048,-0.29 v 0.12 0.05 0.02 0 0.05 0 0.05 l -0.168,-0.58 0.048,0.03 c 0.072,0.21 0.144,0.43 0.12,0.62 v 0.05 l -0.072,-0.48 0.024,0.07 -0.288,-0.5 0.024,0.02 c 0.24,0.24 0.36,0.6 0.36,0.94 v 0.02 l -0.12,-0.55 v 0.02 0 l 0.024,0.05 c 0.096,0.19 0.168,0.41 0.12,0.6 v 0.05 l -0.312,-0.94 v 0.03 0 h 0.024 v 0 l 0.024,0.02 c 0.24,0.29 0.36,0.6 0.36,0.96 v 0 c -0.048,0.72 -0.648,1.27 -1.344,1.25 -0.72,-0.05 -1.272,-0.65 -1.224,-1.37 0.048,-0.67 0.648,-1.22 1.344,-1.2 h 0.024 c 0.336,0 0.672,0.17 0.912,0.43 v 0.03 l -0.048,-0.03 0.048,0.03 v 0 h 0.024 l -0.864,-0.39 h 0.024 c 0.24,0.03 0.48,0.12 0.696,0.24 l 0.24,0.17 0.048,0.07 0.336,0.27 0.096,0.07 0.288,0.29 -0.144,-0.12 0.48,0.33 -0.24,-0.12 0.576,0.22 v 0 l 0.384,0.14 -0.144,-0.02 0.48,0.12 -0.168,-0.05 0.216,0.05 h 0.144 l 0.216,0.05 -0.12,-0.03 0.36,0.05 v 0 l 0.936,0.17 -0.024,-0.05 0.552,0.07 h -0.072 l 0.864,0.03 h 0.024 l 0.504,0.02 h -0.024 l 1.032,0.07 h 0.12 l 0.312,0.05 -0.192,-0.02 h 0.36 0.072 0.312 v 0 l 0.168,0.02 c 0.168,0 0.288,0.05 0.408,0.1 v 0.02 l -0.288,-0.12 0.072,0.05 h 0.096 l 0.024,0.02 v 0 h 0.048 -0.36 l 0.072,-0.02 -0.216,0.05 h 0.024 c 0.096,-0.03 0.168,-0.05 0.216,-0.05 l 0.096,-0.05 -0.216,0.07 h 0.024 c 0.168,-0.07 0.312,-0.09 0.48,-0.07 h 0.072 v 0 l 0.456,0.1 c 0.288,0.07 0.504,0.31 0.528,0.6 0.048,0.31 -0.12,0.6 -0.408,0.69 z"
         style="fill:#000000;fill-opacity:1;fill-rule:nonzero;stroke:none"
         transform="matrix(1.3333333,0,0,-1.3333333,0,1120.8)" />
    </g>
    <g
       id="g248">
      <path
         id="path248"
         d="m 52.224,334.73 0.024,0.24 -0.024,-0.05 0.024,0.05 c 0.024,0.19 0,0.33 -0.024,0.48 l -0.048,0.02 -0.048,-0.74 0.048,0.09 c 0.048,0.03 0.048,0.1 0.072,0.15 v 0.07 0 l 0.024,0.02 v 0 0.05 l -0.168,-0.36 0.024,0.05 v 0 l 0.024,0.05 c 0.096,0.09 0.144,0.21 0.216,0.36 v 0.02 0 l 0.024,0.05 -0.216,-0.36 0.048,0.02 -0.408,-0.24 h 0.048 c 0.192,0.1 0.384,0.24 0.504,0.46 l 0.048,0.05 -0.528,-0.46 h 0.024 c 0.144,0.07 0.312,0.17 0.384,0.29 l 0.048,0.05 -0.408,-0.29 v 0.02 c 0.216,0.05 0.408,0.22 0.552,0.39 l 0.048,0.09 -0.552,-0.43 h 0.048 c 0.12,0.07 0.216,0.12 0.336,0.19 l 0.024,0.05 -0.096,-0.07 0.048,0.02 v 0 h 0.024 l -0.24,-0.09 h 0.048 c 0.216,0.09 0.432,0.24 0.576,0.43 l 0.024,0.05 -1.104,-0.48 h 0.072 c 0.24,-0.03 0.504,0 0.744,0.14 l 0.024,0.05 -0.336,-0.17 0.072,0.05 c 0.12,0 0.24,0.05 0.36,0.12 l 0.024,0.02 -0.24,-0.12 0.024,0.03 -0.528,-0.05 h 0.048 v 0 h 0.048 c 0.192,-0.05 0.432,-0.05 0.624,0.05 l 0.12,0.02 -0.384,-0.05 0.792,0.03 h 0.096 l 0.48,0.07 h -0.144 0.12 -0.024 0.12 v 0 h 0.072 -0.24 0.12 -0.048 l 0.096,-0.05 c 0.072,-0.02 0.192,-0.02 0.288,-0.02 h 0.096 l -0.312,0.02 0.288,-0.05 0.048,-0.02 0.456,-0.1 h 0.024 l 0.84,-0.19 v 0 l 0.384,-0.05 0.12,-0.02 0.84,-0.1 v 0 l 0.816,-0.12 -0.024,0.03 0.336,-0.05 h 0.12 l 0.768,-0.07 h -0.024 l 0.312,-0.03 h -0.072 l 0.744,-0.09 h 0.072 l 0.264,-0.03 v 0 l 0.744,-0.07 0.072,-0.02 1.008,-0.03 h 0.072 1.128 0.12 l 0.576,0.05 c 0.072,0 0.12,0 0.216,0.05 l 0.096,0.02 -0.312,-0.07 h 0.024 -0.024 0.024 v 0 h 0.048 v 0 h 0.024 0.024 v 0 0 0 l -0.888,0.36 0.024,-0.02 c 0.24,-0.22 0.576,-0.36 0.888,-0.34 h 0.048 0.024 0.024 c 0.696,0.05 1.224,0.65 1.2,1.32 -0.024,0.7 -0.6,1.27 -1.32,1.25 -0.696,-0.05 -1.224,-0.6 -1.224,-1.3 v -0.02 c 0,-0.72 0.6,-1.27 1.296,-1.27 h 0.024 l -0.912,0.36 0.048,-0.03 -0.408,0.89 v -0.02 c 0,-0.7 0.6,-1.25 1.296,-1.25 l 0.024,0.02 c 0.696,0 1.272,0.58 1.272,1.3 -0.024,0.67 -0.6,1.25 -1.32,1.22 -0.696,0 -1.272,-0.57 -1.224,-1.29 v 0 -0.05 -0.05 c 0,-0.31 0.144,-0.62 0.384,-0.84 l 0.024,-0.02 -0.408,0.86 h 0.024 v 0 -0.02 0 -0.03 c 0,-0.19 0.024,-0.33 0.096,-0.48 l 0.072,-0.19 -0.048,0.17 0.096,-0.31 v 0.02 l 0.072,-0.31 v -0.07 l 0.12,-0.29 -0.048,0.19 0.096,-0.72 0.024,-0.05 0.168,-0.96 v 0 l 0.048,-0.12 c 0,-0.07 0.024,-0.12 0.048,-0.19 l 0.096,-0.29 c 0.264,-0.67 0.984,-0.98 1.656,-0.72 0.648,0.24 0.984,0.96 0.72,1.61 l -0.096,0.31 0.048,-0.21 -0.024,0.12 v 0 l -0.216,0.93 0.048,-0.07 -0.096,0.7 c -0.024,0.09 -0.024,0.14 -0.072,0.21 l -0.072,0.29 v -0.02 l -0.096,0.36 v 0.02 l -0.096,0.31 -0.048,0.12 -0.072,0.17 0.096,-0.53 v 0.03 0 0.02 0 0 c 0.024,0.36 -0.12,0.7 -0.36,0.94 l -0.024,0.02 0.36,-0.96 v 0.05 l 0.024,0.05 v 0 c 0,0.72 -0.576,1.29 -1.272,1.29 h -0.024 c -0.696,0.03 -1.296,-0.55 -1.296,-1.22 -0.024,-0.72 0.552,-1.3 1.248,-1.3 0.72,-0.02 1.272,0.51 1.32,1.23 v 0.02 c 0,0.34 -0.12,0.67 -0.36,0.91 l -0.048,0.03 c -0.24,0.24 -0.552,0.38 -0.888,0.38 H 64.08 c -0.696,0 -1.296,-0.53 -1.296,-1.25 0,-0.69 0.576,-1.29 1.248,-1.29 0.696,0 1.296,0.55 1.296,1.27 v 0.02 c 0.024,0.65 -0.504,1.25 -1.2,1.3 H 64.104 64.08 64.032 l 0.912,-0.41 -0.024,0.05 c -0.24,0.24 -0.552,0.36 -0.912,0.38 v 0 0 0 H 63.984 63.96 v 0 h -0.048 v 0 h -0.024 0.024 -0.024 c -0.12,0 -0.216,0 -0.288,-0.02 l -0.12,-0.05 0.168,0.05 -0.528,-0.05 h 0.072 -1.128 0.048 l -1.008,0.05 h 0.048 l -0.744,0.05 h -0.024 l -0.264,0.02 h 0.048 l -0.744,0.1 h -0.072 l -0.312,0.02 v 0 l -0.792,0.05 h 0.096 l -0.336,0.05 h -0.024 l -0.816,0.09 v 0 l -0.864,0.1 0.048,-0.05 -0.36,0.07 v 0 l -0.864,0.17 0.024,-0.02 -0.456,0.09 h 0.072 l -0.264,0.05 c -0.096,0.05 -0.216,0.07 -0.336,0.05 h -0.096 l 0.312,-0.05 -0.096,0.05 h -0.072 l -0.12,0.02 c -0.072,0.03 -0.144,0.03 -0.24,0.03 h -0.072 v 0 h -0.12 0.024 -0.12 c -0.072,0 -0.144,0 -0.216,-0.03 l -0.48,-0.07 h 0.072 l -0.816,-0.12 c -0.192,0 -0.336,-0.05 -0.456,-0.14 l -0.096,-0.05 0.408,0.14 h -0.048 v 0 h -0.048 c -0.192,-0.02 -0.336,-0.09 -0.48,-0.21 l -0.024,-0.03 c -0.12,-0.09 -0.24,-0.21 -0.336,-0.33 v -0.03 l 0.48,0.46 -0.072,-0.05 c -0.192,-0.07 -0.384,-0.24 -0.504,-0.43 v -0.05 l 0.792,0.53 h -0.072 c -0.408,-0.07 -0.744,-0.36 -0.864,-0.77 l -0.024,-0.05 0.408,0.58 -0.024,-0.05 c -0.12,-0.07 -0.24,-0.17 -0.312,-0.31 l -0.024,-0.05 v 0 h -0.024 l 0.096,0.1 -0.048,-0.05 0.216,0.19 -0.024,-0.02 c -0.216,-0.12 -0.336,-0.29 -0.432,-0.51 l -0.024,-0.09 v 0 0 c -0.024,-0.05 -0.024,-0.12 -0.024,-0.17 l -0.024,-0.07 0.048,0.19 -0.024,-0.05 c -0.024,-0.07 -0.024,-0.14 -0.072,-0.24 v -0.05 l 0.072,0.22 v -0.05 l -0.072,-0.14 v -0.03 c -0.024,-0.19 -0.024,-0.33 0.048,-0.5 v -0.05 0 l 0.024,-0.02 -0.024,0.45 -0.048,-0.02 v 0 -0.07 c -0.024,-0.15 -0.024,-0.29 0.048,-0.46 v -0.05 0 l 0.024,-0.02 v 0 -0.07 l -0.024,0.38 v -0.05 c -0.072,-0.43 0.168,-0.81 0.552,-0.93 v -0.03 l -0.528,0.63 0.024,-0.05 c 0,-0.1 0.024,-0.17 0.072,-0.22 l 0.12,-0.24 c 0.144,-0.31 0.48,-0.45 0.792,-0.38 0.336,0.05 0.576,0.31 0.648,0.65 z"
         style="fill:#000000;fill-opacity:1;fill-rule:nonzero;stroke:none"
         transform="matrix(1.3333333,0,0,-1.3333333,0,1120.8)" />
    </g>
    <g
       id="g249">
      <path
         id="path249"
         d="m 50.016,352.3 -0.24,0.28 c -0.072,0.12 -0.192,0.2 -0.312,0.24 l -0.096,0.03 v 0 l -0.072,0.05 0.168,-0.1 -0.048,0.02 c -0.072,0.08 -0.144,0.1 -0.24,0.12 l -0.072,0.03 c -0.096,0.05 -0.168,0.05 -0.216,0.07 h -0.096 0.072 -0.072 0.024 l -0.192,0.02 h 0.024 l -0.384,0.08 h 0.048 l -0.144,0.02 -0.12,0.02 h -0.12 -0.072 l -0.144,0.03 h 0.024 -0.12 -0.024 l -0.12,0.05 v -0.05 l -0.12,0.05 c -0.048,0 -0.12,0 -0.168,0 h -0.168 v 0 l -0.144,-0.05 c -0.096,0 -0.144,0 -0.216,-0.03 l -0.144,-0.02 0.216,0.02 h -0.12 l -0.144,-0.02 -0.168,-0.02 0.192,0.02 -0.12,-0.02 c -0.144,0 -0.264,-0.05 -0.384,-0.1 l -0.36,-0.14 -0.096,-0.08 -0.072,-0.02 c -0.072,-0.02 -0.144,-0.1 -0.192,-0.14 l -0.096,-0.08 v 0 l -0.072,-0.04 0.12,0.07 -0.072,-0.05 0.048,0.02 -0.048,-0.02 c -0.192,-0.12 -0.36,-0.26 -0.456,-0.46 l -0.072,-0.09 0.12,0.19 -0.072,-0.1 -0.048,-0.04 -0.12,-0.17 0.072,0.09 -0.216,-0.24 0.072,0.08 -0.048,-0.05 c -0.264,-0.24 -0.408,-0.55 -0.408,-0.89 v -0.07 l 0.408,0.91 -0.024,-0.02 v 0 h -0.024 v 0 l -0.024,-0.05 c -0.24,-0.24 -0.408,-0.55 -0.432,-0.89 v -0.07 l 0.432,0.91 h -0.048 c -0.24,-0.24 -0.384,-0.55 -0.408,-0.86 v -0.05 -0.03 -0.04 0.02 0 0 -0.02 l 0.144,0.5 -0.024,-0.02 c -0.072,-0.2 -0.12,-0.36 -0.144,-0.56 v -0.02 0 0 -0.07 -0.03 0.03 -0.03 c 0,-0.21 0.024,-0.4 0.12,-0.62 l 0.024,-0.02 -0.12,0.62 v -0.02 0 -0.05 -0.03 -0.04 0.04 -0.02 c -0.024,-0.36 0.096,-0.72 0.336,-0.96 l 0.024,-0.02 -0.36,0.91 v -0.05 c 0,-0.34 0.12,-0.67 0.36,-0.94 l 0.024,-0.02 -0.144,0.17 0.048,-0.05 -0.192,0.74 v -0.04 c -0.048,-0.36 0.12,-0.7 0.36,-0.96 l 0.048,-0.05 -0.24,0.33 v -0.02 c 0.072,-0.12 0.144,-0.24 0.24,-0.34 l 0.024,-0.02 -0.24,0.34 0.048,-0.08 c 0.12,-0.24 0.312,-0.45 0.552,-0.57 l 0.072,-0.03 -0.6,0.6 0.024,-0.04 v 0 l 0.024,-0.08 c 0.12,-0.24 0.336,-0.45 0.576,-0.57 l 0.072,-0.03 -0.36,0.24 h 0.024 l 0.024,-0.02 0.024,-0.02 c 0.24,-0.29 0.576,-0.41 0.912,-0.41 h 0.048 l -1.152,0.72 0.024,-0.03 c 0.12,-0.26 0.336,-0.48 0.6,-0.6 l 0.024,-0.02 v 0 l 0.072,-0.02 c 0.168,-0.1 0.36,-0.17 0.552,-0.17 h 0.072 l -0.792,0.29 0.096,-0.08 c 0.144,-0.12 0.36,-0.21 0.552,-0.24 l 0.12,-0.02 v 0 l 0.12,-0.02 v 0 l 0.12,-0.05 h 0.024 l 0.144,-0.03 -0.096,0.03 0.096,-0.03 C 46.248,348 46.368,348 46.464,348 h 0.144 v 0 h 0.12 v 0 h 0.12 v 0 h 0.12 v 0 h 0.12 c 0.096,0 0.144,0 0.216,0 l 0.144,0.02 0.168,0.03 0.24,0.09 -0.12,-0.02 0.336,0.05 h 0.072 l 0.072,0.05 -0.312,-0.05 h 0.12 c 0.12,0 0.264,0.05 0.384,0.07 l 0.096,0.02 -0.096,-0.02 0.096,0.02 c 0.048,0 0.144,0.03 0.192,0.08 l 0.216,0.07 0.072,0.05 0.168,0.07 0.096,0.05 0.144,0.07 0.12,0.09 0.192,0.1 0.048,0.05 0.144,0.12 -0.264,-0.15 0.216,0.1 c 0.12,0.05 0.216,0.12 0.288,0.22 l 0.336,0.26 v 0.02 l 0.024,0.03 c 0.288,0.24 0.432,0.57 0.456,0.93 v 0 l -0.456,-0.93 0.048,0.05 -0.048,-0.05 0.048,0.05 c 0.264,0.24 0.432,0.6 0.432,0.98 v 0.02 l -0.408,-0.96 0.024,0.03 c 0.24,0.24 0.432,0.57 0.432,0.93 v 0.03 l -1.416,-1.27 h 0.024 c 0.744,-0.05 1.392,0.52 1.416,1.27 v 0.05 l -0.432,-0.94 v 0 c 0.288,0.26 0.432,0.6 0.456,0.96 v 0 0.02 0 l -0.096,-0.38 0.048,0.05 c 0.192,0.57 0,1.25 -0.528,1.61 l -0.192,0.14 0.168,-0.19 -0.048,0.09 c -0.36,0.34 -0.84,0.48 -1.32,0.34 -0.48,-0.12 -0.84,-0.48 -0.96,-0.96 -0.12,-0.48 0,-0.98 0.36,-1.32 l 0.072,-0.07 c 0.072,-0.07 0.12,-0.15 0.216,-0.17 l 0.216,-0.14 -0.576,1.56 v -0.08 c -0.048,-0.14 -0.096,-0.33 -0.096,-0.48 h 0.048 v -0.02 0 l 0.36,0.98 -0.048,-0.02 c -0.24,-0.26 -0.384,-0.62 -0.36,-0.98 v -0.05 c 0.048,-0.75 0.672,-1.32 1.416,-1.27 0.744,0.02 1.32,0.64 1.296,1.39 -0.024,0.77 -0.672,1.32 -1.416,1.29 h -0.024 c -0.36,0 -0.696,-0.16 -0.936,-0.4 -0.24,-0.29 -0.36,-0.65 -0.36,-1.01 v -0.03 l 0.384,0.99 h -0.024 c -0.24,-0.27 -0.384,-0.63 -0.384,-0.99 v -0.02 l 0.36,0.94 -0.024,-0.05 0.024,0.05 -0.024,-0.05 c -0.24,-0.24 -0.408,-0.6 -0.36,-0.99 v 0 l 0.36,0.99 v -0.03 l 0.048,0.08 -0.336,-0.32 0.312,0.22 -0.192,-0.1 c -0.072,-0.02 -0.168,-0.09 -0.264,-0.16 l -0.12,-0.12 0.072,0.04 -0.168,-0.09 0.096,0.07 -0.144,-0.1 0.048,0.03 -0.168,-0.07 0.048,0.02 -0.192,-0.1 0.192,0.08 -0.12,-0.05 -0.072,-0.03 -0.072,-0.02 0.432,0.1 h -0.12 c -0.096,0 -0.216,-0.05 -0.312,-0.08 h -0.096 0.048 l -0.336,-0.09 h -0.096 l -0.24,-0.07 0.144,0.02 h -0.144 0.216 -0.12 v 0 h -0.12 v 0 h -0.12 v 0 h -0.12 v 0 h -0.144 l 0.312,-0.02 -0.072,0.02 h -0.12 l -0.12,0.02 h 0.024 l -0.12,0.03 v 0 h -0.12 v 0 l -0.12,0.05 0.528,-0.22 -0.12,0.05 c -0.192,0.19 -0.504,0.24 -0.768,0.24 h -0.072 l 0.6,-0.12 -0.048,0.05 v 0 l -0.072,0.02 0.6,-0.58 v 0.03 c -0.24,0.45 -0.72,0.72 -1.2,0.69 h -0.048 l 0.96,-0.36 -0.072,0.08 h -0.024 v 0.02 c -0.12,0.1 -0.216,0.17 -0.36,0.22 l -0.024,0.02 0.6,-0.58 -0.024,0.08 v 0 l -0.048,0.02 c -0.12,0.26 -0.312,0.46 -0.6,0.58 l -0.024,0.02 0.6,-0.58 -0.024,0.08 c -0.096,0.12 -0.192,0.24 -0.264,0.31 l -0.048,0.05 0.288,-0.36 -0.048,0.04 c -0.048,0.12 -0.144,0.24 -0.24,0.34 l -0.048,0.02 0.408,-0.88 v 0.04 c -0.024,0.24 -0.072,0.51 -0.24,0.72 l -0.048,0.08 c -0.072,0.07 -0.12,0.14 -0.216,0.19 v 0.05 l 0.432,-0.94 v 0.05 c 0,0.33 -0.192,0.69 -0.432,0.91 l -0.024,0.02 0.408,-0.86 v 0.02 -0.04 0.04 0.03 0.05 0 0.02 c -0.024,0.17 -0.048,0.36 -0.144,0.53 l -0.024,0.05 0.144,-0.56 v 0.03 -0.03 0.03 0.07 0 0 0.02 l -0.12,-0.62 0.024,0.05 c 0.096,0.19 0.12,0.41 0.12,0.65 v 0.02 0 h -0.024 l 0.024,-0.02 -0.024,0.04 v 0.03 0.05 l -0.336,-0.96 0.048,0.02 c 0.192,0.24 0.36,0.58 0.312,0.89 v 0.07 l -0.312,-0.94 0.024,0.03 v 0 0.05 0 l 0.024,0.02 c 0.24,0.24 0.36,0.58 0.336,0.89 v 0.07 l -0.336,-0.94 0.072,0.08 0.072,0.12 0.192,0.26 0.024,0.02 0.12,0.2 v 0 l 0.072,0.07 c 0.048,0.07 0.072,0.12 0.12,0.21 l 0.024,0.1 -0.36,-0.48 0.048,0.02 0.048,0.03 0.072,0.09 c 0.072,0.03 0.096,0.1 0.168,0.12 l 0.048,0.1 v 0 l 0.072,0.05 -0.168,-0.15 0.072,0.08 -0.144,-0.12 0.312,0.16 -0.192,-0.09 0.12,0.05 0.072,0.04 0.168,0.08 -0.12,-0.08 0.12,0.08 c 0.048,0 0.12,0.02 0.168,0.04 l 0.12,0.08 -0.24,-0.1 0.144,0.02 v 0 l 0.168,0.08 -0.192,-0.05 h 0.12 v 0 h 0.12 l 0.024,0.05 h 0.12 -0.024 0.144 0.072 l 0.12,0.02 h -0.216 l 0.144,-0.02 h 0.048 0.384 -0.024 l 0.192,-0.05 c 0.072,0 0.168,0 0.216,0 l 0.072,0.05 -0.072,-0.05 0.096,0.05 h -0.264 l 0.072,-0.05 -0.144,0.07 0.072,-0.02 0.072,-0.05 h 0.096 v 0 l 0.072,-0.03 c 0.144,-0.02 0.264,-0.02 0.384,0 l 0.384,0.1 c 0.264,0.02 0.48,0.24 0.552,0.48 0.072,0.24 0.024,0.5 -0.168,0.7 z"
         style="fill:#000000;fill-opacity:1;fill-rule:nonzero;stroke:none"
         transform="matrix(1.3333333,0,0,-1.3333333,0,1120.8)" />
    </g>
    <g
       id="g250">
      <path
         id="path250"
         d="m 50.064,350.04 0.264,0.14 c 0.048,0.08 0.144,0.12 0.216,0.2 l 0.072,0.12 v 0 l 0.12,0.12 -0.072,-0.1 0.072,0.1 -0.048,-0.08 0.12,0.1 0.048,0.05 0.12,0.09 -0.192,-0.14 0.12,0.05 0.12,0.09 0.12,0.08 -0.12,-0.08 0.12,0.08 -0.168,-0.08 0.12,0.03 0.12,0.07 0.312,0.12 h -0.024 l 0.48,0.17 -0.096,-0.03 1.08,0.36 -0.072,-0.02 0.48,0.14 h -0.024 l 0.624,0.15 -0.048,-0.03 0.6,0.12 v 0 l 0.648,0.1 h -0.072 l 0.624,0.05 h -0.072 l 1.392,0.07 v 0 l 1.32,0.05 v 0 l 0.864,0.07 h -0.048 l 1.92,-0.07 -0.096,0.05 1.824,-0.22 h -0.048 l 0.336,-0.02 -0.12,0.02 0.288,-0.1 -0.096,0.03 0.288,-0.07 v 0 l 0.288,-0.1 -0.096,0.02 0.312,-0.12 H 63.96 l 0.552,-0.24 h -0.024 l 0.6,-0.28 -0.024,0.02 0.096,-0.07 v 0 l 0.12,-0.05 -0.192,0.12 0.096,-0.07 c 0.048,-0.05 0.12,-0.07 0.168,-0.12 l 0.096,-0.03 -0.168,0.1 0.072,-0.07 -0.12,0.12 0.072,-0.07 0.048,-0.05 0.216,-0.19 -0.048,0.04 0.048,-0.04 -0.24,0.31 0.024,-0.03 c 0.12,-0.24 0.312,-0.45 0.552,-0.57 h 0.048 l -0.312,0.21 0.048,-0.04 -0.24,0.31 0.024,-0.03 v 0 l 0.048,-0.04 c 0.048,-0.12 0.12,-0.24 0.192,-0.34 l 0.072,-0.02 -0.36,0.86 v -0.07 c 0,-0.31 0.12,-0.63 0.36,-0.87 l 0.048,-0.02 -0.288,0.48 v -0.1 c 0.024,-0.04 0.048,-0.09 0.096,-0.14 v -0.07 l -0.12,0.57 v -0.04 c 0,-0.2 0.048,-0.36 0.12,-0.56 l 0.024,-0.04 -0.12,0.55 V 351 c 0,-0.07 0,-0.12 0,-0.19 l 0.024,-0.17 v 0 l 0.024,-0.12 c 0.048,-0.26 0.168,-0.5 0.336,-0.7 l 0.024,-0.02 -0.36,0.89 v -0.03 0.03 -0.03 -0.02 -0.02 0 0 0 -0.05 0.05 -0.05 -0.03 -0.02 0 -0.02 0 0 0 -0.05 l 0.408,0.89 -0.048,-0.05 c -0.144,-0.15 -0.24,-0.29 -0.312,-0.48 v -0.07 l 0.048,0.16 -0.024,-0.04 v 0 l -0.024,-0.05 v 0 -0.05 l 0.24,0.34 -0.072,-0.08 c -0.144,-0.12 -0.24,-0.28 -0.336,-0.48 v -0.04 l 0.336,0.48 h -0.024 c -0.072,-0.08 -0.12,-0.17 -0.192,-0.22 l -0.048,-0.07 0.168,0.19 h -0.024 v -0.02 l -0.048,-0.05 v 0 l -0.048,-0.05 0.336,0.24 -0.048,-0.02 c -0.12,-0.08 -0.24,-0.17 -0.336,-0.24 l -0.072,-0.05 0.336,0.21 h -0.024 c -0.12,-0.04 -0.24,-0.14 -0.336,-0.24 L 65.4,350.62 v 0 l -0.072,-0.05 0.912,0.33 h -0.048 c -0.312,0.03 -0.648,-0.09 -0.888,-0.33 l -0.072,-0.05 0.48,0.29 -0.12,-0.05 h -0.024 l -0.144,-0.02 v 0 l -0.12,-0.08 0.024,0.03 -0.144,-0.05 0.144,0.02 -0.336,-0.02 -0.072,-0.02 -0.48,-0.12 v 0 l -0.432,-0.1 h 0.12 l -1.08,-0.14 h 0.216 -0.096 -0.096 l -1.032,-0.1 h 0.072 l -2.472,-0.07 0.12,-0.03 -4.728,0.39 h -0.12 -0.024 0.216 L 52.008,351 h 0.024 l -0.24,0.02 h 0.072 l -1.416,0.36 h -0.072 l -0.792,0.2 0.624,-0.36 -0.072,0.04 c -0.288,0.34 -0.768,0.46 -1.224,0.34 -0.408,-0.12 -0.744,-0.48 -0.864,-0.91 -0.12,-0.43 0,-0.91 0.336,-1.23 l 0.048,-0.04 c 0.192,-0.17 0.384,-0.29 0.624,-0.34 l 0.816,-0.14 h -0.048 l 1.44,-0.34 0.048,-0.02 0.24,-0.05 v 0 l 3.12,-0.53 c 0.072,-0.02 0.12,-0.02 0.216,-0.02 h 0.024 -0.096 l 4.752,-0.36 h 0.12 l 2.496,0.04 h 0.096 l 1.008,0.1 h -0.12 0.096 c 0.048,0 0.12,0 0.168,0 l 1.056,0.17 h 0.096 l 0.408,0.09 0.048,0.03 0.48,0.09 H 65.4 l 0.288,0.03 0.144,0.05 0.192,0.04 h 0.048 l 0.12,0.08 v 0 l 0.168,0.04 h 0.024 l 0.12,0.03 c 0.216,0.07 0.36,0.19 0.504,0.33 l 0.024,0.03 -0.84,-0.36 h 0.048 c 0.312,0 0.624,0.17 0.864,0.36 l 0.048,0.07 v 0 l 0.048,0.02 -0.312,-0.21 h 0.024 c 0.12,0.07 0.24,0.17 0.336,0.24 l 0.024,0.07 -0.288,-0.24 0.024,0.02 c 0.12,0.08 0.24,0.15 0.336,0.24 l 0.048,0.03 v 0 l 0.048,0.07 h 0.024 v 0.02 c 0.048,0.08 0.12,0.12 0.144,0.2 l 0.024,0.04 -0.12,-0.14 h 0.048 c 0.12,0.14 0.192,0.29 0.264,0.48 l 0.024,0.1 -0.288,-0.53 0.048,0.07 c 0.096,0.1 0.144,0.22 0.216,0.34 l 0.024,0.04 v -0.02 l 0.024,0.05 v 0 l 0.048,0.07 c 0,0.02 0.024,0.1 0.048,0.14 v 0.08 l -0.264,-0.48 v 0.02 c 0.24,0.24 0.384,0.58 0.36,0.89 v 0.05 0 0 0 0.02 0 0.02 0.03 0.05 -0.05 0.05 0 0 0 0.02 0.02 0.03 -0.03 0.03 c 0,0.33 -0.144,0.65 -0.384,0.84 l -0.048,0.05 0.36,-0.68 -0.024,0.15 0.024,-0.05 -0.024,0.17 v -0.17 0.05 c 0,0.19 -0.024,0.36 -0.12,0.55 l -0.024,0.05 0.144,-0.55 v 0.04 c -0.024,0.2 -0.048,0.39 -0.144,0.56 l -0.024,0.04 0.048,-0.16 v 0.07 c -0.048,0.19 -0.168,0.33 -0.336,0.45 l -0.024,0.08 0.36,-0.89 v 0.07 c 0,0.34 -0.12,0.62 -0.36,0.86 l -0.048,0.03 0.24,-0.29 -0.048,0.02 v 0 l -0.024,0.08 c -0.048,0.12 -0.12,0.19 -0.216,0.28 l -0.048,0.08 c -0.096,0.07 -0.216,0.14 -0.336,0.19 l -0.024,0.05 0.528,-0.56 -0.024,0.08 c -0.048,0.12 -0.12,0.19 -0.216,0.28 l -0.048,0.08 -0.072,0.02 -0.192,0.17 0.048,-0.03 -0.096,0.08 c -0.024,0.04 -0.048,0.07 -0.12,0.12 l -0.072,0.04 c -0.072,0.08 -0.12,0.1 -0.192,0.12 l -0.12,0.08 0.216,-0.12 -0.12,0.04 c -0.072,0.08 -0.12,0.1 -0.192,0.12 l -0.072,0.03 v 0 l -0.096,0.07 H 66.12 l -0.6,0.29 v 0 l -0.576,0.24 -0.072,0.05 -0.264,0.12 -0.096,0.02 -0.288,0.1 v 0 l -0.264,0.07 -0.096,0.05 -0.312,0.04 -0.072,0.03 -0.336,0.05 -0.072,0.02 -1.824,0.17 h -0.12 -1.92 -0.096 l -0.864,-0.05 h -0.024 l -1.32,-0.1 h 0.024 l -1.392,-0.09 h -0.048 l -0.624,-0.07 h -0.096 l -0.624,-0.17 v 0 l -0.648,-0.12 -0.072,-0.03 -0.6,-0.16 h -0.048 l -0.48,-0.17 h -0.024 l -1.056,-0.36 -0.12,-0.05 -0.48,-0.22 -0.024,-0.02 -0.288,-0.14 0.024,0.02 -0.096,-0.07 -0.144,-0.07 -0.12,-0.08 -0.096,-0.09 -0.12,-0.12 0.096,0.09 -0.096,-0.04 c -0.096,-0.08 -0.144,-0.12 -0.216,-0.2 l -0.072,-0.09 0.072,0.09 -0.12,-0.12 -0.048,-0.09 -0.096,-0.07 -0.096,-0.1 -0.072,-0.12 v 0 l -0.072,-0.12 -0.096,-0.14 -0.144,-0.29 c -0.168,-0.31 -0.096,-0.77 0.216,-1.01 0.264,-0.26 0.72,-0.34 1.056,-0.12 z"
         style="fill:#000000;fill-opacity:1;fill-rule:nonzero;stroke:none"
         transform="matrix(1.3333333,0,0,-1.3333333,0,1120.8)" />
    </g>
    <g
       id="g251">
      <path
         id="path251"
         d="m 44.184,349.01 -0.312,-0.29 c -0.096,-0.07 -0.144,-0.14 -0.168,-0.24 l -0.072,-0.12 0.024,0.05 -0.024,-0.03 c -0.144,-0.26 -0.144,-0.6 0.024,-0.86 0.168,-0.26 0.456,-0.38 0.768,-0.38 0.288,0.02 0.552,0.19 0.672,0.5 l 0.048,0.02 0.024,0.08 0.024,0.12 -0.12,-0.24 0.24,0.31 c 0.264,0.33 0.24,0.79 -0.048,1.05 -0.312,0.32 -0.792,0.32 -1.08,0.03 z"
         style="fill:#000000;fill-opacity:1;fill-rule:nonzero;stroke:none"
         transform="matrix(1.3333333,0,0,-1.3333333,0,1120.8)" />
    </g>
    <g
       id="g252">
      <path
         id="path252"
         d="m 46.512,348.77 -0.096,-0.31 -0.024,-0.1 -0.024,-0.31 -0.024,-0.07 v -0.08 c 0,-0.33 0.144,-0.64 0.432,-0.84 0.312,-0.16 0.696,-0.16 1.008,0 0.288,0.2 0.432,0.51 0.432,0.84 v 0.08 l -0.024,0.07 -0.024,0.31 v -0.14 0.31 c 0.024,0.43 -0.312,0.79 -0.72,0.84 -0.432,0.07 -0.816,-0.17 -0.936,-0.6 z"
         style="fill:#000000;fill-opacity:1;fill-rule:nonzero;stroke:none"
         transform="matrix(1.3333333,0,0,-1.3333333,0,1120.8)" />
    </g>
    <g
       id="g253">
      <path
         id="path253"
         d="m 47.784,348.53 0.168,-0.24 c 0.072,-0.05 0.096,-0.12 0.12,-0.15 l 0.6,-0.5 0.072,-0.07 0.072,-0.05 c 0.24,-0.22 0.6,-0.24 0.912,-0.12 0.288,0.14 0.504,0.41 0.528,0.74 0.048,0.34 -0.072,0.63 -0.36,0.84 l -0.12,0.08 0.048,-0.05 -0.6,0.48 -0.12,0.09 -0.288,0.15 c -0.312,0.19 -0.744,0.12 -0.984,-0.17 -0.264,-0.31 -0.288,-0.72 -0.048,-1.03 z"
         style="fill:#000000;fill-opacity:1;fill-rule:nonzero;stroke:none"
         transform="matrix(1.3333333,0,0,-1.3333333,0,1120.8)" />
    </g>
    <g
       id="g254">
      <path
         id="path254"
         d="m 48.936,311.42 -0.12,-0.19 c -0.024,-0.12 -0.072,-0.24 -0.072,-0.36 l -0.072,-0.33 v 0.04 l -0.024,-0.16 0.048,0.21 -0.048,-0.14 -0.024,-0.1 -0.096,-0.36 v 0.03 l -0.096,-0.27 -0.024,-0.05 -0.144,-0.64 v 0 l -0.168,-0.56 0.048,0.08 -0.792,-2.28 0.024,0.07 -0.264,-0.63 v -0.07 l -0.12,-0.26 -0.024,-0.15 -0.072,-0.21 0.072,0.21 -0.096,-0.28 v 0.07 l -0.096,-0.24 0.048,0.05 -0.096,-0.17 c -0.216,-0.43 -0.192,-0.91 0.096,-1.3 0.24,-0.38 0.672,-0.62 1.152,-0.6 0.456,0.03 0.888,0.34 1.08,0.75 l 0.096,0.16 v 0.08 l 0.12,0.21 v 0.03 l 0.096,0.24 c 0.024,0.09 0.048,0.16 0.048,0.21 l 0.072,0.24 -0.024,-0.14 0.072,0.29 -0.024,-0.05 0.24,0.6 0.024,0.09 0.768,2.28 v 0.08 l 0.144,0.6 v 0.04 l 0.144,0.63 v -0.03 l 0.072,0.27 -0.048,-0.03 0.12,0.36 -0.024,-0.07 0.072,0.15 c 0,0.07 0.024,0.16 0.024,0.21 l 0.024,0.12 v 0.03 l 0.024,0.36 -0.024,-0.12 0.072,0.21 c 0.12,0.58 -0.192,1.15 -0.768,1.35 -0.552,0.21 -1.152,-0.03 -1.44,-0.56 z"
         style="fill:#000000;fill-opacity:1;fill-rule:nonzero;stroke:none"
         transform="matrix(1.3333333,0,0,-1.3333333,0,1120.8)" />
    </g>
    <g
       id="g255">
      <path
         id="path255"
         d="m 51.384,309.98 v 0.29 c 0.048,0.51 -0.216,0.96 -0.648,1.23 -0.408,0.24 -0.96,0.24 -1.368,-0.03 -0.384,-0.26 -0.624,-0.74 -0.576,-1.22 v -0.07 c 0,-0.15 0.024,-0.27 0.096,-0.41 l 0.048,-0.07 -0.048,0.09 0.144,-0.41 v 0 l 0.192,-0.52 -0.048,0.09 0.408,-1.44 -0.048,0.1 0.12,-0.6 0.048,-0.12 0.168,-0.6 v -0.03 l 0.192,-0.64 0.048,-0.12 0.576,-1.37 0.024,-0.1 0.12,-0.17 -0.096,0.15 0.096,-0.22 -0.024,0.03 0.048,-0.15 c 0.168,-0.5 0.552,-0.86 1.056,-0.98 0.504,-0.12 1.032,0.02 1.392,0.38 0.36,0.39 0.48,0.94 0.312,1.42 l -0.048,0.17 v 0.04 l -0.096,0.2 c 0,0.07 -0.024,0.12 -0.048,0.19 l -0.096,0.21 0.024,-0.07 -0.6,1.39 0.024,-0.12 -0.192,0.63 0.024,-0.07 -0.192,0.6 0.048,-0.12 -0.12,0.64 -0.072,0.12 -0.408,1.4 -0.072,0.16 -0.216,0.51 h -0.024 l -0.168,0.41 0.12,-0.32 -0.048,0.08 c -0.12,0.69 -0.744,1.2 -1.44,1.15 h -0.048 c -0.456,-0.07 -0.864,-0.34 -1.08,-0.79 -0.192,-0.41 -0.144,-0.92 0.144,-1.32 0.264,-0.36 0.744,-0.56 1.2,-0.51 l 0.336,0.03 c 0.456,0.07 0.768,0.43 0.816,0.88 z"
         style="fill:#000000;fill-opacity:1;fill-rule:nonzero;stroke:none"
         transform="matrix(1.3333333,0,0,-1.3333333,0,1120.8)" />
    </g>
    <g
       id="g256">
      <path
         id="path256"
         d="m 52.848,320.16 0.024,-0.34 v 0 l 0.072,-0.33 v 0 l 0.024,-0.29 0.024,-0.12 0.072,-0.34 0.024,-0.12 0.264,-0.84 0.024,-0.07 0.192,-0.53 v 0.05 l 0.168,-0.62 v 0 l 0.312,-0.87 v 0.05 l 0.144,-0.6 v 0.1 l 0.312,-1.42 c 0.024,-0.05 0.024,-0.12 0.048,-0.17 l 0.312,-0.79 -0.072,0.24 0.096,-0.57 -0.024,0.16 v -0.04 c 0.024,-0.72 0.648,-1.28 1.368,-1.28 0.72,0 1.368,0.56 1.392,1.28 v 0.04 c 0,0.08 0,0.2 -0.024,0.29 l -0.096,0.58 c -0.024,0.09 -0.024,0.17 -0.072,0.26 l -0.288,0.79 0.048,-0.19 -0.336,1.42 -0.024,0.09 -0.144,0.6 -0.024,0.05 -0.312,0.84 v -0.02 l -0.168,0.62 -0.048,0.07 -0.168,0.53 v -0.05 l -0.264,0.84 0.024,-0.12 -0.096,0.34 0.024,-0.1 -0.048,0.34 v 0 l -0.072,0.31 v 0 l -0.048,0.34 c -0.12,0.72 -0.792,1.2 -1.512,1.08 -0.72,-0.1 -1.224,-0.77 -1.128,-1.49 z"
         style="fill:#000000;fill-opacity:1;fill-rule:nonzero;stroke:none"
         transform="matrix(1.3333333,0,0,-1.3333333,0,1120.8)" />
    </g>
    <g
       id="g257">
      <path
         id="path257"
         d="m 59.4,321.07 -0.216,-0.53 c 0,-0.07 -0.024,-0.12 -0.024,-0.19 l -0.216,-0.91 v 0.02 l -0.24,-1.05 v 0.07 l -0.216,-0.7 v 0 l -0.216,-0.72 v -0.09 l -0.168,-0.72 v 0.02 l -0.072,-0.36 v 0.07 l -0.168,-0.72 v 0.1 l -0.72,-2.14 0.168,0.36 -0.36,-0.48 c -0.144,-0.19 -0.24,-0.43 -0.264,-0.64 v -0.03 l 0.912,1.11 -0.072,-0.03 v 0 l -0.024,-0.02 c -0.552,-0.19 -0.912,-0.63 -0.936,-1.2 v 0 c -0.024,-0.51 0.24,-0.99 0.648,-1.27 0.456,-0.27 1.008,-0.27 1.416,0 0.456,0.28 0.696,0.76 0.672,1.27 v 0 l -0.192,-0.75 0.048,0.03 v 0 l 0.024,0.05 c 0.12,0.24 0.168,0.52 0.144,0.81 v 0.03 l -0.12,-0.77 0.264,0.53 c 0.048,0.09 0.072,0.16 0.072,0.21 l 0.648,2.16 v 0.03 l 0.192,0.74 0.024,0.05 0.072,0.36 v 0 l 0.144,0.74 -0.024,-0.07 0.168,0.67 v 0 l 0.216,0.7 v 0.07 l 0.24,1.08 v 0 l 0.168,0.96 0.048,0.14 0.024,0.58 c 0.024,0.53 -0.336,0.98 -0.84,1.1 -0.504,0.12 -1.032,-0.19 -1.224,-0.67 z"
         style="fill:#000000;fill-opacity:1;fill-rule:nonzero;stroke:none"
         transform="matrix(1.3333333,0,0,-1.3333333,0,1120.8)" />
    </g>
    <g
       id="g258">
      <path
         id="path258"
         d="m 43.32,352.18 0.144,-0.22 0.072,-0.12 0.336,-0.36 h 0.024 l 0.24,-0.24 v 0 l 0.096,-0.07 0.072,-0.05 0.048,-0.05 c 0.216,-0.14 0.48,-0.17 0.696,-0.05 0.216,0.1 0.36,0.34 0.384,0.58 0.024,0.24 -0.096,0.48 -0.312,0.62 l -0.048,0.03 0.024,-0.03 L 45,352.3 h 0.024 l -0.264,0.19 0.024,-0.03 -0.336,0.32 0.096,-0.1 -0.168,0.22 c -0.192,0.26 -0.576,0.31 -0.864,0.14 -0.288,-0.19 -0.36,-0.55 -0.192,-0.86 z"
         style="fill:#000000;fill-opacity:1;fill-rule:nonzero;stroke:none"
         transform="matrix(1.3333333,0,0,-1.3333333,0,1120.8)" />
    </g>
    <g
       id="g259">
      <path
         id="path259"
         d="m 45.936,353.33 0.072,-0.34 0.024,-0.09 0.144,-0.36 c 0.12,-0.32 0.408,-0.51 0.72,-0.51 h 0.024 c 0.288,-0.02 0.528,0.15 0.696,0.39 0.12,0.24 0.12,0.55 0,0.79 -0.168,0.24 -0.408,0.38 -0.696,0.38 h -0.024 l 0.72,-0.48 -0.144,0.39 0.024,-0.1 -0.096,0.34 c -0.12,0.38 -0.552,0.62 -0.936,0.5 -0.408,-0.1 -0.648,-0.5 -0.528,-0.91 z"
         style="fill:#000000;fill-opacity:1;fill-rule:nonzero;stroke:none"
         transform="matrix(1.3333333,0,0,-1.3333333,0,1120.8)" />
    </g>
    <g
       id="g260">
      <path
         id="path260"
         d="m 48.792,353.69 -0.168,-0.22 -0.072,-0.09 -0.168,-0.32 0.12,0.2 -0.024,-0.05 c -0.072,-0.07 -0.12,-0.12 -0.168,-0.19 l -0.024,-0.1 0.048,0.1 -0.048,-0.05 c -0.024,-0.07 -0.072,-0.12 -0.096,-0.17 v -0.07 l 0.072,0.17 -0.048,-0.05 c -0.024,-0.05 -0.072,-0.12 -0.072,-0.19 l -0.072,-0.17 v -0.07 l -0.048,-0.1 0.12,0.24 -0.048,-0.02 c -0.144,-0.24 -0.144,-0.58 0,-0.82 0.144,-0.26 0.432,-0.38 0.72,-0.36 0.288,0.02 0.552,0.22 0.648,0.48 l 0.024,0.05 0.024,0.14 0.024,0.1 -0.024,-0.12 0.048,0.17 -0.072,-0.17 0.024,0.07 c 0.048,0.05 0.072,0.12 0.096,0.17 l 0.024,0.07 -0.096,-0.19 0.048,0.07 0.024,0.07 0.048,0.07 -0.12,-0.19 0.024,0.05 c 0.048,0.05 0.096,0.1 0.12,0.17 l 0.144,0.31 -0.024,-0.02 0.144,0.24 c 0.192,0.31 0.12,0.72 -0.192,0.93 -0.312,0.22 -0.72,0.15 -0.96,-0.14 z"
         style="fill:#000000;fill-opacity:1;fill-rule:nonzero;stroke:none"
         transform="matrix(1.3333333,0,0,-1.3333333,0,1120.8)" />
    </g>
    <g
       id="g261">
      <path
         id="path261"
         d="m 48.696,342.24 v 0.02 l -0.24,-0.48 0.048,0.03 -0.552,-0.27 h 0.024 c 0.216,0.03 0.408,0.15 0.552,0.27 v 0.02 0 h 0.024 c 0.096,0.12 0.192,0.24 0.216,0.36 v 0.05 l -0.384,-0.53 0.24,0.17 0.048,0.02 0.144,0.12 -0.144,-0.09 0.144,0.09 0.072,0.03 0.144,0.09 -0.12,-0.07 0.144,0.07 v 0 l 0.216,0.05 h -0.024 l 0.48,0.22 -0.096,-0.05 1.464,0.41 v 0 l 0.528,0.12 h -0.096 l 0.528,0.09 v 0 l 0.528,0.1 h -0.072 l 0.552,0.05 v 0 l 0.528,0.07 h -0.048 l 0.552,0.05 h 0.048 l 0.504,0.02 h -0.12 0.6 0.024 0.552 -0.072 l 0.552,-0.02 -0.048,0.02 0.552,-0.02 h -0.072 l 1.488,-0.17 -0.072,0.02 0.552,-0.09 h -0.096 l 0.504,-0.1 h -0.024 l 0.504,-0.07 h -0.024 l 0.48,-0.12 H 59.88 l 0.48,-0.12 h -0.072 l 0.48,-0.17 h -0.024 l 1.056,-0.38 -0.096,0.02 1.104,-0.5 -0.264,0.19 0.144,-0.12 c 0.36,-0.31 0.84,-0.36 1.296,-0.19 0.408,0.14 0.72,0.55 0.768,0.98 0.072,0.48 -0.12,0.94 -0.48,1.2 l -0.144,0.12 c -0.096,0.07 -0.168,0.12 -0.264,0.17 l -1.104,0.5 -0.096,0.03 -1.032,0.38 h -0.048 l -0.48,0.17 -0.072,0.02 -0.48,0.12 -0.024,0.03 -0.48,0.12 H 60 l -0.48,0.09 h -0.048 l -0.48,0.12 H 58.92 l -0.528,0.05 -0.048,0.05 -1.488,0.12 h -0.072 l -0.552,0.02 h -0.024 -0.552 -0.048 l -0.552,-0.02 h 0.072 -0.6 l -0.12,-0.05 -0.504,-0.05 v 0 l -0.576,-0.07 h -0.072 l -0.528,-0.07 v 0 l -0.552,-0.1 h -0.048 l -0.552,-0.12 v 0 l -0.504,-0.12 h -0.096 l -0.504,-0.14 -0.024,-0.05 -1.464,-0.48 -0.072,-0.02 -0.504,-0.22 -0.096,-0.02 -0.168,-0.1 v 0 l -0.168,-0.07 -0.12,-0.1 -0.144,-0.09 0.072,0.02 -0.168,-0.07 -0.12,-0.1 -0.144,-0.12 -0.048,-0.07 -0.216,-0.19 c -0.264,-0.31 -0.36,-0.72 -0.24,-1.08 l 0.024,-0.05 c 0.024,-0.12 0.12,-0.24 0.216,-0.36 h 0.024 c 0.144,-0.14 0.336,-0.26 0.576,-0.29 v 0 0 0 l -0.504,0.27 0.024,-0.03 c 0.216,-0.21 0.504,-0.31 0.816,-0.24 h 0.024 c 0.336,0.1 0.6,0.36 0.648,0.7 z"
         style="fill:#000000;fill-opacity:1;fill-rule:nonzero;stroke:none"
         transform="matrix(1.3333333,0,0,-1.3333333,0,1120.8)" />
    </g>
    <g
       id="g262">
      <path
         id="path262"
         d="m 48.336,343.34 h -0.024 c -0.168,0.03 -0.336,0.03 -0.48,-0.02 h -0.024 l -0.12,-0.07 v 0 l 1.08,-0.15 v 0 c -0.384,0.36 -0.984,0.34 -1.344,-0.02 v 0 0 l -0.048,-0.05 h 0.048 -0.048 c -0.384,-0.38 -0.384,-1.01 0,-1.39 l 0.192,-0.24 0.096,-0.07 0.144,-0.12 c 0.048,-0.05 0.12,-0.12 0.168,-0.15 l 0.192,-0.09 -0.12,0.09 0.12,-0.12 0.048,-0.02 0.168,-0.1 c 0.048,-0.02 0.12,-0.07 0.168,-0.09 l 0.192,-0.05 h -0.072 l 0.504,-0.22 0.12,-0.02 1.44,-0.48 h 0.072 l 0.504,-0.17 h 0.072 l 0.504,-0.12 h 0.024 l 0.552,-0.12 h 0.024 l 0.528,-0.07 h 0.048 l 0.528,-0.1 h 0.024 l 0.576,-0.07 v 0 l 0.552,-0.02 0.072,-0.03 h 0.576 0.024 l 0.528,-0.02 h 0.024 0.528 l 0.072,0.02 h 0.528 0.072 l 1.464,0.15 h 0.072 l 0.528,0.09 0.072,0.03 0.504,0.09 v 0 l 0.504,0.12 h 0.048 l 0.48,0.12 0.072,0.03 0.48,0.14 h -0.048 l 0.48,0.12 0.096,0.05 1.032,0.38 0.12,0.03 1.128,0.55 c 0.072,0.02 0.168,0.07 0.24,0.14 l 0.144,0.12 c 0.36,0.27 0.528,0.72 0.48,1.18 -0.072,0.48 -0.36,0.86 -0.792,1.01 C 63.84,343.8 63.36,343.7 63,343.44 l -0.168,-0.12 0.24,0.14 -1.104,-0.55 0.12,0.07 -1.056,-0.38 0.096,0.02 -0.48,-0.14 -0.096,-0.05 -0.48,-0.17 0.12,0.03 -0.432,-0.12 0.024,0.02 -0.504,-0.12 v 0 l -0.48,-0.12 0.048,0.05 -0.528,-0.1 h 0.048 l -1.44,-0.14 h 0.024 l -0.528,-0.05 h 0.048 l -0.528,-0.02 v 0 h -0.528 v 0 h -0.552 0.072 l -0.528,0.02 v 0 l -0.576,0.05 h 0.024 l -0.504,0.05 v 0 l -0.528,0.07 h 0.048 l -0.528,0.07 h 0.024 l -0.552,0.1 h 0.072 l -0.504,0.12 h 0.024 l -1.512,0.38 0.168,-0.05 -0.528,0.22 -0.072,0.02 -0.192,0.05 0.192,-0.07 -0.168,0.07 0.048,-0.02 -0.168,0.09 -0.12,0.05 -0.168,0.07 0.24,-0.12 -0.144,0.12 -0.048,0.03 -0.24,0.14 0.168,-0.12 h -0.048 0.048 l -0.048,0.05 v 0 0 l 0.048,-0.05 v 0 c -0.072,0.07 -0.192,0.17 -0.288,0.22 h -0.024 l -0.12,0.07 v 0 l 0.576,-0.7 v 0.03 c -0.072,0.36 -0.336,0.62 -0.672,0.69 z"
         style="fill:#000000;fill-opacity:1;fill-rule:nonzero;stroke:none"
         transform="matrix(1.3333333,0,0,-1.3333333,0,1120.8)" />
    </g>
    <g
       id="g263">
      <path
         id="path263"
         d="m 50.352,309.74 4.392,0.48 h 0.024 l 0.768,0.08 h -0.048 l 1.656,0.16 h -0.216 l 0.216,-0.04 c 0.48,-0.03 0.96,0.21 1.248,0.64 0.288,0.41 0.312,0.96 0.072,1.4 -0.24,0.45 -0.696,0.76 -1.176,0.79 h -0.216 c -0.048,0 -0.144,0 -0.216,0 l -1.632,-0.19 -0.072,-0.03 -0.768,-0.12 h -0.048 l -4.344,-0.84 c -0.6,-0.12 -1.008,-0.69 -0.936,-1.32 0.096,-0.62 0.672,-1.08 1.296,-1.01 z"
         style="fill:#000000;fill-opacity:1;fill-rule:nonzero;stroke:none"
         transform="matrix(1.3333333,0,0,-1.3333333,0,1120.8)" />
    </g>
    <g
       id="g264">
      <path
         id="path264"
         d="m 54.696,319.44 0.312,0.07 c 0.12,0 0.24,0.07 0.336,0.12 l 0.072,0.05 -0.144,-0.07 0.12,0.07 -0.24,-0.1 0.096,0.03 c 0.096,0 0.144,0.02 0.24,0.07 l 0.096,0.05 -0.216,-0.1 0.096,0.05 -0.168,-0.05 0.216,0.05 h 0.12 l 0.072,0.02 v 0 h 0.12 -0.36 0.072 c 0.672,-0.09 1.32,0.36 1.488,1.01 0.144,0.7 -0.288,1.37 -0.936,1.56 l -0.072,0.05 0.528,-0.31 v 0 c -0.12,0.12 -0.24,0.19 -0.36,0.24 l -0.072,0.02 c -0.144,0.1 -0.336,0.12 -0.504,0.12 h -0.072 l 0.888,-0.36 v 0.05 l -0.048,0.02 -0.048,0.03 0.024,-0.03 -0.024,0.03 c -0.072,0.07 -0.12,0.12 -0.192,0.14 l -0.072,0.07 -0.072,0.03 -0.048,0.07 0.384,-0.36 -0.072,0.05 -0.048,0.07 -0.072,0.07 c -0.048,0.07 -0.072,0.1 -0.12,0.12 l -0.048,0.07 0.168,-0.21 -0.048,0.09 v 0 l -0.024,0.05 0.072,-0.14 -0.072,0.19 v -0.05 l -0.096,0.17 v 0 l -0.072,0.12 0.096,-0.22 -0.144,0.39 0.048,-0.17 -0.072,0.41 0.024,-0.15 -0.024,0.22 v 0 l -0.048,0.17 0.048,-0.17 v 0.19 0 0.19 0 0.22 l -0.048,-0.17 0.048,0.22 -0.048,-0.22 0.072,0.19 c 0,0.05 0.024,0.12 0.024,0.17 l 0.024,0.19 -0.048,-0.26 0.048,0.19 0.048,0.1 0.12,0.38 -0.168,-0.29 0.072,0.05 v 0 l 0.048,0.1 v 0 l 0.048,0.09 v 0 l 0.048,0.1 0.072,0.07 0.048,0.12 -0.048,-0.12 0.024,0.1 -0.312,-0.36 0.12,0.09 c 0.072,0.05 0.12,0.12 0.192,0.17 l 0.048,0.07 -0.048,-0.07 0.096,0.1 v 0 l 0.048,0.09 -0.144,-0.14 0.12,0.07 h -0.024 l 0.072,0.07 -0.144,-0.12 0.096,0.05 -0.072,-0.02 0.072,0.02 c 0.096,0.07 0.144,0.1 0.24,0.17 l 0.096,0.07 -0.36,-0.19 0.072,0.02 v 0 l 0.096,0.03 c 0.096,0.02 0.144,0.09 0.216,0.12 l 0.12,0.07 -0.552,-0.19 h 0.12 c 0.192,0.02 0.36,0.09 0.552,0.21 l 0.096,0.05 -0.432,-0.17 0.264,0.05 c 0.072,0 0.168,0.05 0.216,0.07 l 0.12,0.05 -0.576,-0.12 h 0.096 c 0.12,0 0.216,0 0.312,0.05 l 0.072,0.02 -0.264,-0.02 h 0.12 c 0.096,0 0.192,0 0.264,0.02 h 0.12 l -0.288,-0.02 h 0.096 v 0 h 0.12 l -0.312,0.02 h 0.12 c 0.096,-0.02 0.192,-0.02 0.264,-0.02 h 0.144 l -0.312,0.02 0.096,-0.02 c 0.072,-0.05 0.216,-0.05 0.288,-0.05 h 0.096 l -0.312,0.05 0.144,-0.05 -0.288,0.1 0.096,-0.03 c 0.048,-0.02 0.12,-0.07 0.192,-0.07 l 0.288,-0.07 h -0.096 l 0.168,-0.05 -0.12,0.05 0.144,-0.07 -0.24,0.14 0.12,-0.07 c 0.048,-0.05 0.096,-0.07 0.144,-0.1 l 0.12,-0.07 -0.144,0.1 0.12,-0.1 v 0 l 0.12,-0.07 v 0 l 0.12,-0.07 -0.24,0.19 0.12,-0.1 0.12,-0.12 0.264,-0.24 -0.168,0.22 0.144,-0.19 -0.072,0.02 0.168,-0.17 c 0.024,-0.07 0.072,-0.12 0.12,-0.14 l 0.168,-0.19 -0.168,0.24 0.12,-0.22 v 0 l 0.12,-0.19 v 0 l 0.12,-0.22 -0.072,0.12 0.096,-0.21 -0.024,0.02 0.12,-0.19 -0.048,0.07 0.072,-0.19 v 0.02 l 0.048,-0.21 -0.024,0.14 0.096,-0.5 -0.024,0.09 0.048,-0.36 v 0 l 0.072,-0.36 -0.048,0.22 0.048,-0.34 v 0.1 l -0.072,-0.79 v 0 l -0.024,-0.65 v -0.12 -0.1 c 0,-0.79 0.624,-1.39 1.416,-1.39 0.744,0 1.368,0.6 1.392,1.39 v 0.1 l -0.024,-0.1 0.072,0.65 0.024,0.05 0.024,0.77 v 0.09 0.34 c 0,0.05 0,0.12 0,0.17 l -0.048,0.36 v 0 l -0.048,0.36 -0.024,0.09 -0.096,0.48 -0.024,0.17 -0.096,0.22 v 0.07 l -0.048,0.19 -0.072,0.07 -0.072,0.24 -0.048,0.05 -0.072,0.22 -0.072,0.09 -0.12,0.22 v 0 l -0.12,0.19 v 0 l -0.12,0.22 c -0.048,0.09 -0.12,0.19 -0.168,0.24 l -0.192,0.19 0.12,-0.12 -0.144,0.19 -0.024,0.07 -0.168,0.17 c -0.048,0.07 -0.12,0.17 -0.192,0.22 l -0.312,0.24 0.12,-0.12 -0.096,0.12 c -0.048,0.07 -0.144,0.14 -0.24,0.21 l -0.12,0.05 v 0 l -0.12,0.1 v 0 l -0.12,0.09 c -0.048,0.03 -0.12,0.05 -0.144,0.1 l -0.12,0.05 0.144,-0.1 -0.12,0.1 c -0.072,0.02 -0.168,0.09 -0.264,0.12 l -0.12,0.07 -0.12,0.02 -0.12,0.05 -0.048,0.05 -0.312,0.05 0.144,-0.05 -0.072,0.05 c -0.096,0.02 -0.192,0.07 -0.288,0.07 l -0.072,0.02 c -0.096,0.03 -0.192,0.03 -0.312,0.03 h -0.096 l 0.312,-0.03 -0.096,0.03 c -0.12,0 -0.216,0.02 -0.288,0.02 h -0.144 l 0.312,-0.02 h -0.096 c -0.072,0.02 -0.168,0.02 -0.288,0.02 h -0.12 v 0 h -0.096 c -0.096,0 -0.216,0 -0.312,-0.02 h -0.072 l 0.288,0.02 h -0.12 c -0.12,0 -0.216,-0.02 -0.288,-0.02 l -0.12,-0.03 0.288,0.03 h -0.096 c -0.168,0 -0.384,-0.03 -0.528,-0.12 l -0.12,-0.03 0.24,0.05 -0.264,-0.05 c -0.168,-0.02 -0.312,-0.09 -0.456,-0.19 l -0.096,-0.05 0.504,0.17 h -0.12 c -0.168,-0.02 -0.36,-0.12 -0.504,-0.19 l -0.096,-0.07 0.216,0.09 -0.12,-0.02 v 0 l -0.096,-0.07 c -0.12,-0.03 -0.24,-0.12 -0.36,-0.22 l -0.072,-0.07 0.192,0.14 -0.072,-0.02 -0.048,-0.05 -0.12,-0.07 c -0.024,-0.05 -0.072,-0.07 -0.144,-0.1 l -0.048,-0.09 v 0.02 l -0.096,-0.07 c -0.072,-0.07 -0.12,-0.1 -0.144,-0.17 l -0.096,-0.07 v 0 l -0.072,-0.1 -0.048,-0.07 -0.024,-0.05 0.168,0.22 -0.096,-0.1 c -0.12,-0.09 -0.192,-0.21 -0.288,-0.36 l -0.072,-0.09 -0.024,-0.1 -0.048,-0.12 0.048,0.12 -0.048,-0.07 v 0 l -0.048,-0.1 v 0 l -0.048,-0.09 v 0 l -0.024,-0.05 c -0.072,-0.12 -0.12,-0.22 -0.168,-0.31 l -0.12,-0.41 0.048,0.05 -0.072,-0.22 c -0.024,-0.07 -0.048,-0.17 -0.096,-0.29 v -0.19 l 0.048,0.19 -0.072,-0.19 c 0,-0.07 -0.024,-0.14 -0.024,-0.19 l -0.024,-0.22 v -0.14 -0.22 0 -0.19 0 l 0.024,-0.19 c 0,-0.07 0,-0.12 0,-0.19 l 0.024,-0.17 v 0 l 0.024,-0.19 0.048,-0.15 0.072,-0.43 0.072,-0.14 0.144,-0.39 c 0.024,-0.07 0.072,-0.14 0.096,-0.21 l 0.096,-0.12 v 0 l 0.048,-0.12 v 0 l 0.096,-0.17 c 0.024,-0.07 0.096,-0.1 0.12,-0.17 l 0.048,-0.05 v 0 l 0.048,-0.07 c 0.048,-0.05 0.12,-0.14 0.192,-0.19 l 0.072,-0.05 -0.144,0.17 0.048,-0.1 -0.024,0.05 0.024,-0.05 c 0.12,-0.14 0.24,-0.26 0.432,-0.33 l 0.048,-0.05 -0.048,0.05 0.072,-0.05 -0.072,0.05 v -0.03 0.03 l 0.024,-0.03 0.024,-0.02 0.024,-0.05 c 0.24,-0.17 0.552,-0.26 0.84,-0.26 h 0.072 l -0.552,0.09 h 0.072 l -0.336,0.17 0.024,-0.02 c 0.168,-0.1 0.312,-0.17 0.48,-0.24 h 0.072 c 0.648,-0.17 1.32,0.19 1.584,0.79 0.24,0.62 -0.024,1.34 -0.6,1.63 -0.576,0.34 -1.32,0.19 -1.704,-0.36 l -0.072,-0.05 0.816,0.48 h -0.12 c -0.096,-0.02 -0.168,-0.07 -0.264,-0.09 l -0.072,-0.03 0.36,0.1 -0.24,-0.05 -0.144,-0.02 h -0.096 c -0.072,-0.03 -0.144,-0.05 -0.24,-0.1 l -0.072,-0.02 0.24,0.07 h -0.096 c -0.096,-0.05 -0.192,-0.07 -0.24,-0.1 l -0.096,-0.02 -0.144,-0.07 -0.072,-0.05 -0.072,-0.05 -0.24,-0.17 c -0.48,-0.33 -0.672,-0.93 -0.456,-1.46 0.24,-0.55 0.816,-0.84 1.368,-0.72 z"
         style="fill:#000000;fill-opacity:1;fill-rule:nonzero;stroke:none"
         transform="matrix(1.3333333,0,0,-1.3333333,0,1120.8)" />
    </g>
    <g
       id="g265">
      <path
         id="path265"
         d="m 61.68,320.23 c 0,-0.36 -0.312,-0.67 -0.696,-0.67 -0.36,0 -0.672,0.31 -0.672,0.67 0,0.41 0.312,0.7 0.672,0.7 0.384,0 0.696,-0.29 0.696,-0.7 z"
         style="fill:#000000;fill-opacity:1;fill-rule:evenodd;stroke:none"
         transform="matrix(1.3333333,0,0,-1.3333333,0,1120.8)" />
    </g>
    <g
       id="g266">
      <path
         id="path266"
         d="m 60.384,318.89 0.36,-0.15 -0.264,0.15 0.144,-0.1 v 0 l 0.144,-0.14 0.12,-0.1 0.384,-0.24 -0.024,0.05 0.192,-0.12 v 0 l 0.48,-0.31 v -0.03 l 1.032,-0.62 0.048,-0.05 0.288,-0.17 -0.48,1.68 v -0.02 c -0.216,-0.36 -0.216,-0.82 0,-1.18 0.192,-0.36 0.552,-0.6 0.96,-0.67 v 0 c 0.72,-0.07 1.344,0.41 1.44,1.08 0.096,0.7 -0.384,1.32 -1.08,1.44 -0.696,0.1 -1.32,-0.38 -1.44,-1.08 v 0 c -0.12,-0.67 0.336,-1.32 1.032,-1.46 v 0 l -1.008,1.46 v -0.02 c -0.072,-0.53 0.192,-1.08 0.672,-1.35 h 0.024 l -0.384,0.29 0.024,-0.02 -0.264,1.27 v -0.05 l -0.024,-0.07 v -0.05 l 0.12,0.31 h -0.048 l 0.408,0.41 h -0.048 l 0.312,0.19 -0.096,-0.07 v 0 l -0.096,-0.02 v 0 l -0.12,-0.03 0.312,0.05 h -0.12 -0.024 l -0.12,-0.02 -0.168,-0.03 -0.12,-0.07 0.312,0.07 h -0.24 l -0.12,-0.02 -0.456,-0.07 -0.096,-0.03 -1.752,-0.38 h 0.024 l -1.176,-0.24 -0.096,-0.05 -0.144,-0.02 -0.144,-0.05 h -0.072 v 0 l -0.048,-0.05 0.576,0.1 h -0.072 v 0 H 59.4 v 0 h -0.048 v 0 h -0.024 v 0 h -0.024 v 0 h -0.072 0.048 -0.048 v 0 h -0.024 v 0 l -0.048,0.02 0.024,-0.02 -0.024,0.02 h -0.048 -0.024 l 0.864,-0.36 -0.048,0.07 c -0.096,0.1 -0.216,0.15 -0.36,0.22 l -0.024,0.02 c -0.72,0.29 -1.536,-0.02 -1.848,-0.72 -0.264,-0.72 0.048,-1.53 0.768,-1.82 h 0.024 l -0.336,0.19 0.072,-0.05 c 0.24,-0.21 0.552,-0.31 0.888,-0.31 h 0.024 0.048 0.024 -0.024 0.048 v 0 h 0.024 v 0 h 0.048 -0.048 0.072 v 0 h 0.024 v 0 h 0.024 v 0 H 59.4 v 0 h 0.048 v 0 h 0.072 c 0.168,0 0.36,0.05 0.504,0.12 h 0.048 v 0.05 h 0.072 l -0.192,-0.07 0.168,0.07 -0.096,-0.05 1.176,0.24 0.024,0.05 1.776,0.41 -0.096,-0.03 0.48,0.1 h -0.12 l 0.24,0.02 c 0.096,0 0.216,0.03 0.336,0.05 l 0.12,0.05 -0.168,-0.05 0.096,0.05 -0.048,-0.05 0.12,0.05 c 0.12,0.02 0.192,0.05 0.288,0.07 l 0.096,0.07 v 0 l 0.12,0.03 H 64.44 l 0.12,0.07 c 0.12,0.05 0.24,0.12 0.36,0.24 h 0.024 c 0.408,0.41 0.528,1.03 0.264,1.58 h -0.024 l 0.12,-0.31 v 0.05 l -0.024,0.07 v 0.05 c -0.096,0.29 -0.312,0.53 -0.576,0.67 l -0.024,0.05 c -0.408,0.24 -0.888,0.26 -1.272,0.05 l -0.024,-0.03 c -0.576,-0.31 -0.84,-0.98 -0.6,-1.58 0.24,-0.65 0.888,-0.96 1.536,-0.79 0.624,0.19 1.032,0.79 0.912,1.44 v 0.02 c -0.048,0.34 -0.24,0.65 -0.528,0.84 -0.264,0.22 -0.624,0.29 -0.984,0.22 v 0 c -0.696,-0.15 -1.152,-0.82 -1.032,-1.49 0.12,-0.7 0.792,-1.15 1.464,-1.03 0.696,0.12 1.176,0.79 1.056,1.46 v 0 c -0.12,0.7 -0.744,1.18 -1.44,1.08 v 0 l 1.296,-0.67 -0.024,0.02 c -0.12,0.24 -0.336,0.41 -0.576,0.53 l -0.336,0.17 H 64.2 l -1.08,0.53 h 0.024 l -0.504,0.26 v 0 l -0.192,0.1 v 0 l -0.384,0.21 0.048,-0.02 -0.168,0.12 H 61.92 l -0.168,0.07 c -0.048,0.07 -0.12,0.1 -0.192,0.12 l -0.36,0.12 c -0.576,0.19 -1.176,-0.07 -1.416,-0.62 -0.216,-0.58 0.048,-1.2 0.6,-1.44 z"
         style="fill:#000000;fill-opacity:1;fill-rule:nonzero;stroke:none"
         transform="matrix(1.3333333,0,0,-1.3333333,0,1120.8)" />
    </g>
    <g
       id="g267">
      <path
         id="path267"
         d="m 54.408,320.88 -0.072,0.07 c -0.24,0.34 -0.672,0.46 -1.032,0.31 l -0.288,-0.12 h -0.024 l -0.216,-0.12 h -0.048 l -0.192,-0.12 -0.072,-0.02 -0.216,-0.19 -0.072,-0.03 -0.6,-0.45 v 0 l -0.624,-0.48 0.024,0.02 -1.464,-1.01 -0.096,-0.07 -0.672,-0.6 0.792,0.29 h -0.024 c -0.528,0.05 -1.056,-0.34 -1.176,-0.89 v -0.02 l 0.528,0.72 h -0.048 l 0.648,0.14 h -0.048 c -0.552,0.05 -1.032,-0.38 -1.128,-0.91 v -0.05 c -0.096,-0.55 0.288,-1.13 0.864,-1.25 0.576,-0.12 1.152,0.24 1.296,0.84 0.144,0.58 -0.192,1.13 -0.744,1.32 h -0.048 l -0.12,0.03 h -0.024 v 0 l -0.024,0.02 h -0.024 -0.048 v 0 h -0.024 l 0.984,-1.22 v 0.02 0.12 0.19 l -0.048,-0.38 0.144,0.48 -0.168,-0.34 0.168,0.24 h 0.024 l 0.12,0.17 0.048,0.07 0.12,0.17 0.048,0.1 0.24,0.45 v -0.02 l 0.312,0.55 -0.12,-0.17 0.048,0.05 c 0.072,0.07 0.096,0.12 0.12,0.19 l 0.096,0.15 v 0 l 0.048,0.12 0.072,0.09 0.144,0.29 0.024,0.1 0.408,1.05 -0.12,-0.24 0.072,0.15 c 0.048,0.07 0.072,0.12 0.096,0.19 l 0.072,0.17 -0.096,-0.17 0.216,0.31 -0.048,-0.07 0.192,0.26 0.048,0.05 0.096,0.17 c 0.336,0.5 0.216,1.22 -0.336,1.56 -0.504,0.36 -1.2,0.24 -1.56,-0.29 l -0.12,-0.14 0.072,0.07 -0.216,-0.24 -0.048,-0.1 -0.216,-0.33 c -0.024,-0.05 -0.072,-0.1 -0.096,-0.15 l -0.096,-0.19 0.12,0.19 -0.072,-0.14 c -0.072,-0.07 -0.12,-0.17 -0.168,-0.24 l -0.384,-1.03 0.024,0.07 -0.144,-0.31 0.072,0.09 -0.096,-0.12 v 0 l -0.072,-0.12 0.12,0.17 -0.048,-0.07 c -0.072,-0.07 -0.12,-0.12 -0.144,-0.19 l -0.336,-0.58 v -0.02 l -0.24,-0.46 0.024,0.1 -0.12,-0.17 0.072,0.02 -0.168,-0.14 v 0 l -0.144,-0.24 c -0.096,-0.12 -0.144,-0.24 -0.168,-0.41 l -0.168,-0.48 c -0.024,-0.17 -0.024,-0.36 0,-0.53 l 0.072,-0.21 -0.024,0.14 v -0.02 c 0.024,-0.29 0.168,-0.58 0.408,-0.77 0.24,-0.19 0.552,-0.29 0.84,-0.24 h 0.024 v 0 h 0.048 l 0.024,0.02 h 0.024 v 0 h 0.024 l 0.12,0.03 h 0.048 c 0.528,0.19 0.864,0.69 0.768,1.22 v 0.05 c -0.096,0.55 -0.624,0.98 -1.224,0.91 -0.576,-0.05 -1.032,-0.6 -0.96,-1.2 0.024,-0.55 0.528,-1.01 1.128,-1.01 h 0.048 c 0.288,0.03 0.552,0.17 0.768,0.39 l 0.024,0.02 c 0.216,0.29 0.312,0.6 0.24,0.94 v 0.02 c -0.12,0.58 -0.648,0.96 -1.248,0.89 -0.576,-0.1 -0.984,-0.65 -0.912,-1.25 0.072,-0.55 0.576,-0.98 1.176,-0.96 h 0.024 c 0.24,0.05 0.48,0.17 0.672,0.31 l 0.648,0.63 -0.072,-0.05 1.392,1.13 0.048,0.02 0.6,0.53 h -0.048 l 0.576,0.48 v 0 l 0.216,0.17 -0.024,-0.03 0.168,0.15 -0.048,-0.05 0.192,0.14 -0.024,-0.02 0.24,0.14 -0.216,-0.09 0.12,0.02 c 0.24,0.1 0.456,0.29 0.528,0.53 0.072,0.24 0.048,0.5 -0.096,0.72 z"
         style="fill:#000000;fill-opacity:1;fill-rule:nonzero;stroke:none"
         transform="matrix(1.3333333,0,0,-1.3333333,0,1120.8)" />
    </g>
  </g>
</svg>
