<svg width="7.7765" height="33.294" version="1.1" viewBox="0 0 7.7765 33.294" xmlns="http://www.w3.org/2000/svg">
 <g transform="translate(-524.37 -107.53)">
  <path transform="matrix(1.3333,0,0,-1.3333,0,1120.8)" d="m394.15 735.05 0.24-0.03c0.12-0.02 0.24 0 0.36 0.05l0.17 0.05h-0.05l0.19 0.05 0.2 0.05 0.12 0.04 0.16 0.08-0.04-0.03 0.19 0.07 0.07 0.03 0.17 0.09 0.09 0.05 0.34 0.19 0.12 0.1 0.1 0.1 0.07 0.04v-0.02l0.09 0.1c0.05 0.02 0.1 0.07 0.15 0.12l0.07 0.09v0.03l0.07 0.07 0.1 0.12 0.05 0.09-0.12-0.16 0.09 0.09c0.07 0.05 0.12 0.15 0.17 0.22l0.07 0.12-0.12-0.17 0.05 0.07c0.1 0.1 0.14 0.22 0.19 0.31l0.05 0.15-0.14-0.27 0.09 0.1c0.05 0.1 0.07 0.17 0.12 0.24l0.1 0.26 0.02 0.03 0.07 0.29 0.05 0.07 0.07 0.29 0.05 0.26 0.03 0.1 0.04 0.31v0.02l0.05 0.29 0.03 0.29 0.02 0.09v0.32l0.02 0.02v0.29l-0.02 0.12-0.07 0.77v0.07l-0.1 0.6-0.12 0.57-0.02 0.1-0.15 0.55-0.04 0.07-0.44 1.28v0.02l-0.96 2.42-0.09 0.24v-0.02l-0.1 0.29 0.03-0.05-0.1 0.26 0.05-0.16-0.07 0.26-0.05 0.26v-0.02l-0.07 0.29 0.04-0.12-0.04 0.29v-0.05l-0.03 0.26 0.03-0.07-0.03 0.26v0.03l-0.02 0.29v-0.12l0.02 0.26-0.02-0.07 0.05 0.26v-0.07l0.04 0.24 0.1 0.7-0.05-0.22 0.12 0.36v-0.02l0.12 0.36v-0.03l0.12 0.34-0.05-0.12 0.39 0.77-0.03-0.08 0.68 1.13 0.45 0.77v-0.02l0.1 0.16 0.02 0.03 0.12 0.19-0.05-0.02 0.12 0.16 0.05 0.08 0.12 0.19 0.05 0.14 0.1 0.19v0.03l0.09 0.21 0.07 0.24v0.03l0.17 0.48c0.03 0.12 0.05 0.21 0.05 0.31l0.02 0.12-0.04-0.26 0.02 0.12c0.02 0.07 0.05 0.16 0.05 0.26l0.02 0.12v0.12-0.07 0.12c0.03 0.09 0.03 0.17 0 0.26v0.12-0.09 0.43l-0.05 0.12v0.05l-0.02 0.12v0.04l-0.02 0.12-0.03 0.08-0.05 0.12-0.02 0.12-0.05 0.12 0.03-0.12-0.03 0.12-0.02 0.12-0.1 0.24c-0.05 0.12-0.12 0.26-0.24 0.36l-0.05 0.07 0.15-0.19-0.03 0.04c-0.07 0.1-0.14 0.2-0.21 0.27l-0.05 0.05 0.07-0.05-0.07 0.05 0.07-0.08-0.07 0.08c-0.05 0.07-0.12 0.16-0.19 0.21l-0.07 0.05 0.16-0.14-0.07 0.07c-0.05 0.07-0.12 0.12-0.19 0.17l-0.07 0.07 0.14-0.12-0.05 0.05c-0.14 0.12-0.28 0.21-0.45 0.28l-0.07 0.03 0.4-0.24-0.09 0.07c-0.07 0.07-0.17 0.14-0.27 0.17l-0.07 0.05 0.1-0.05-0.15 0.09c-0.09 0.03-0.14 0.08-0.21 0.1l-0.17 0.05c-0.65 0.24-1.37-0.07-1.61-0.72-0.26-0.63 0.07-1.35 0.7-1.61l0.17-0.07-0.2 0.09 0.15-0.09 0.09-0.03 0.08-0.04-0.29 0.19 0.09-0.07c0.12-0.12 0.24-0.2 0.39-0.24l0.07-0.05-0.46 0.31 0.08-0.07c0.02-0.03 0.07-0.07 0.12-0.12l0.07-0.03-0.19 0.17 0.04-0.07c0.05-0.05 0.1-0.1 0.15-0.14l0.05-0.05-0.2 0.21 0.05-0.04 0.07-0.08 0.05-0.09 0.07-0.05 0.05-0.05-0.21 0.27 0.04-0.05c0.03-0.07 0.08-0.15 0.15-0.22l0.05-0.07-0.22 0.38 0.1-0.24-0.05 0.1 0.05-0.12 0.02-0.1 0.05-0.12-0.03 0.12 0.03-0.12-0.03 0.08 0.03-0.12v0.04l0.02-0.16-0.02 0.07 0.02-0.12v0.09-0.12 0.08-0.2l0.03-0.12v0.24l-0.03-0.14v-0.07l-0.02-0.12v-0.12l0.05 0.26-0.05-0.12c0-0.09-0.03-0.17-0.03-0.26v-0.12l0.05 0.29-0.17-0.48 0.03 0.04-0.07-0.21-0.08-0.19v0.04l-0.07-0.21 0.07 0.17-0.12-0.22 0.05 0.07-0.09-0.17-0.05-0.04-0.12-0.2 0.02 0.03-0.12-0.19-0.02-0.03-0.43-0.74-0.68-1.13-0.04-0.07-0.39-0.79-0.05-0.12-0.14-0.36v-0.03l-0.12-0.33-0.12-0.36c-0.02-0.08-0.05-0.12-0.05-0.22l-0.12-0.65v-0.02l-0.02-0.27-0.03-0.09-0.02-0.27v-0.45l0.02-0.27v0.03-0.31l0.03-0.29v-0.05l0.05-0.26 0.02-0.12 0.05-0.27h0.02l0.07-0.26 0.05-0.24 0.05-0.17 0.1-0.24v-0.02l0.12-0.27 0.09-0.24v0.03l0.99-2.4v0.02l0.43-1.22v0.02l0.17-0.55-0.03 0.09 0.15-0.57v0.05l0.12-0.58-0.03 0.1 0.1-0.77v0.05-0.29 0.05l0.02-0.32v0.1l-0.02-0.29v-0.29 0.03l-0.03-0.29v0.1l-0.04-0.29-0.05-0.27 0.02 0.08-0.07-0.29 0.02 0.07-0.09-0.24 0.09 0.19-0.04-0.09c-0.08-0.1-0.1-0.17-0.12-0.24l-0.05-0.15 0.17 0.31-0.08-0.09c-0.04-0.05-0.07-0.1-0.09-0.17l-0.07-0.12 0.16 0.24-0.09-0.12c-0.05-0.02-0.07-0.1-0.12-0.14l-0.05-0.12 0.07 0.12-0.07-0.1 0.02 0.02-0.09-0.09 0.14 0.12-0.09-0.07-0.05-0.03-0.07-0.09-0.1-0.1 0.17 0.14-0.34-0.21 0.07 0.05-0.16-0.1 0.04 0.02-0.16-0.07-0.08-0.02-0.14-0.07 0.12 0.02-0.19-0.05-0.19-0.07-0.05-0.02-0.15-0.05 0.24 0.05-0.24-0.03c-0.48-0.07-0.84-0.48-0.81-0.93 0.02-0.51 0.38-0.87 0.86-0.89z"/>
  <path transform="matrix(1.3333,0,0,-1.3333,0,1120.8)" d="m398.3 736.85-0.21 0.05 0.21-0.08-0.16 0.08h-0.03l-0.38 0.14 0.12-0.05-0.15 0.07-0.07 0.03-0.17 0.07 0.05-0.02-0.17 0.09 0.08-0.05-0.34 0.22 0.17-0.12-0.1 0.1-0.09 0.07-0.03 0.02-0.09 0.1 0.12-0.15-0.08 0.1h0.03l-0.07 0.07 0.07-0.12-0.05 0.1c-0.02 0.07-0.07 0.14-0.12 0.19l-0.1 0.1 0.15-0.24-0.05 0.12c-0.02 0.07-0.07 0.12-0.1 0.19l-0.07 0.07 0.15-0.31-0.03 0.14c-0.02 0.1-0.05 0.17-0.09 0.24l-0.08 0.1 0.1-0.19-0.1 0.26 0.03-0.07-0.07 0.29v-0.1l-0.05 0.29-0.03 0.26v-0.09l-0.02 0.28v-0.02l-0.02 0.29v0.29-0.1 0.29-0.03l0.02 0.32v-0.1l0.1 0.79-0.03-0.09 0.15 0.57-0.03-0.02 0.15 0.55-0.05-0.07 0.19 0.55-0.02-0.05 0.45 1.25v-0.05l0.99 2.38 0.09 0.24 0.12 0.26v0.03l0.1 0.24 0.05 0.14 0.04 0.29 0.08 0.24 0.07 0.29 0.02 0.12 0.03 0.26v0.05l0.04 0.26v0.34-0.05l0.03 0.29v0.43l-0.03 0.29v0.07l-0.04 0.26v0.03l-0.12 0.67c0 0.05-0.03 0.12-0.05 0.19l-0.12 0.34v0.02l-0.12 0.34v0.02l-0.12 0.36-0.07 0.15-0.39 0.76-0.05 0.08-0.67 1.12-0.45 0.75v0.05l-0.12 0.16-0.12 0.2v0.02l-0.12 0.17 0.04-0.07-0.12 0.19 0.08-0.12-0.08 0.19v-0.05l-0.07 0.22v-0.03l-0.07 0.22 0.02-0.05-0.16 0.51 0.04-0.32v0.12c0 0.1-0.02 0.2-0.04 0.27l-0.05 0.12 0.05-0.27v0.32l-0.03 0.14v-0.24l0.03 0.12v0.22-0.1 0.12-0.1 0.12-0.04l0.02 0.12v-0.03l0.02 0.12-0.02-0.07 0.02 0.12-0.02-0.1 0.05 0.1 0.02 0.1 0.03 0.12-0.03-0.1 0.1 0.24-0.24-0.38 0.07 0.07c0.05 0.07 0.1 0.14 0.14 0.21l0.03 0.05-0.19-0.26 0.04 0.05 0.08 0.07 0.04 0.07 0.08 0.07 0.04 0.07-0.21-0.21 0.05 0.05c0.07 0.04 0.12 0.07 0.16 0.12l0.05 0.07-0.19-0.17 0.07 0.05c0.05 0.05 0.1 0.07 0.12 0.12l0.07 0.05-0.45-0.29 0.07 0.02c0.14 0.07 0.26 0.15 0.38 0.24l0.08 0.07-0.27-0.19 0.07 0.03 0.1 0.07 0.14 0.09-0.19-0.09 0.15 0.05c0.64 0.26 0.96 0.98 0.72 1.63s-0.96 0.96-1.61 0.72l-0.17-0.07c-0.07-0.03-0.14-0.05-0.22-0.1l-0.14-0.1 0.1 0.05-0.08-0.02c-0.09-0.05-0.19-0.12-0.26-0.19l-0.1-0.08 0.41 0.24-0.07-0.02c-0.17-0.07-0.31-0.14-0.46-0.29l-0.04-0.05 0.14 0.12-0.07-0.04c-0.07-0.05-0.15-0.12-0.19-0.2l-0.08-0.04 0.15 0.12-0.03-0.05c-0.09-0.05-0.16-0.12-0.21-0.19l-0.05-0.08 0.05 0.08-0.05-0.08 0.05 0.08-0.05-0.08c-0.07-0.07-0.14-0.16-0.22-0.24l-0.02-0.07 0.14 0.19-0.04-0.04c-0.12-0.12-0.2-0.24-0.24-0.39l-0.12-0.36-0.05-0.12 0.05 0.1-0.05-0.1-0.07-0.21-0.03-0.1-0.02-0.12v-0.02l-0.03-0.15v-0.05l-0.02-0.12-0.02-0.09v-0.31 0.07-0.12c-0.03-0.07 0-0.15 0-0.24v-0.15 0.08-0.12l0.02-0.12c0-0.08 0.02-0.17 0.05-0.27l0.02-0.12-0.05 0.27 0.03-0.12c0-0.1 0.02-0.2 0.05-0.29l0.16-0.48v-0.07l0.08-0.2v-0.02l0.09-0.22 0.03-0.02 0.07-0.19 0.05-0.15 0.12-0.19 0.04-0.07 0.12-0.17-0.02 0.03 0.12-0.2 0.1-0.19v0.03l0.43-0.77h0.02l0.67-1.11-0.04 0.08 0.4-0.8-0.04 0.15 0.12-0.36v0.02l0.12-0.33 0.12-0.36-0.05 0.21 0.09-0.67 0.05-0.26v0.07l0.03-0.27v0.08-0.27 0.12-0.57 0.07l-0.05-0.27 0.02 0.03-0.05-0.27 0.03 0.12-0.05-0.26-0.07-0.24-0.05-0.26 0.05 0.14-0.1-0.24h0.03l-0.12-0.24-0.08-0.24-0.96-2.4v-0.05l-0.45-1.27-0.03-0.07-0.14-0.55-0.02-0.1-0.12-0.55v-0.03l-0.08-0.57-0.02-0.07-0.07-0.8-0.03-0.12 0.03-0.28v-0.41l0.05-0.31 0.04-0.29v-0.03l0.03-0.28 0.05-0.12 0.04-0.27 0.08-0.26 0.04-0.1 0.08-0.26 0.02-0.05 0.1-0.26c0.04-0.08 0.07-0.15 0.12-0.22l0.07-0.12-0.12 0.26 0.05-0.14c0.04-0.12 0.09-0.22 0.19-0.31l0.07-0.07-0.14 0.19 0.07-0.12c0.05-0.1 0.09-0.17 0.17-0.24l0.07-0.07-0.12 0.14 0.07-0.1 0.1-0.12 0.07-0.09 0.07-0.07c0.05-0.05 0.1-0.1 0.14-0.15l0.12-0.07h-0.04l0.09-0.07-0.02 0.02 0.12-0.09 0.12-0.1 0.33-0.19 0.1-0.05 0.17-0.07 0.07-0.05 0.19-0.07-0.05 0.02 0.17-0.07 0.12-0.05 0.19-0.05 0.2-0.04h-0.05l0.17-0.05c0.12-0.05 0.24-0.05 0.36-0.05l0.24 0.02c0.48 0.03 0.84 0.41 0.86 0.89 0.02 0.46-0.34 0.89-0.82 0.94z"/>
 </g>
</svg>
