<svg width="61.54" height="37.213" version="1.1" viewBox="0 0 61.54 37.213" xmlns="http://www.w3.org/2000/svg">
 <g transform="translate(-180.45 -116.55)">
  <path transform="matrix(1.3333 0 0 -1.3333 0 1120.8)" d="m135.53 727.9-0.03-0.03v-0.02l-0.02-0.03 0.02 0.03-0.02-0.03 1.18 0.44-0.03 0.02c-0.36 0.12-0.77 0.05-1.03-0.24s-0.34-0.67-0.19-1.03l0.07-0.19c0.07-0.12 0.14-0.24 0.26-0.34l0.41-0.41c0.15-0.14 0.29-0.24 0.48-0.29l0.65-0.21 0.17-0.05 0.96-0.19h0.05l0.21-0.05h1.01l0.14 0.02 0.68 0.1h-0.05l0.21 0.02c0.15 0 0.32 0.05 0.44 0.12l0.16 0.08-0.38-0.12 0.14 0.02c0.12 0.02 0.24 0.05 0.34 0.1l0.19 0.07 0.07 0.02 0.15 0.1-0.05-0.05 0.17 0.07 0.09 0.05 0.15 0.07 0.17 0.1 0.14 0.09 0.1 0.05 0.14 0.12 0.38 0.29 0.12 0.1 0.05 0.04-0.21-0.16 0.07 0.07c0.17 0.09 0.29 0.21 0.41 0.36l0.04 0.09-0.19-0.21 0.07 0.05c0.08 0.07 0.12 0.14 0.17 0.21l0.07 0.07-0.19-0.21 0.05 0.05c0.07 0.07 0.14 0.14 0.19 0.21l0.05 0.1 0.07 0.07c0.07 0.1 0.12 0.22 0.17 0.34l0.02 0.07-0.36-0.55 0.05 0.07c0.17 0.14 0.29 0.33 0.36 0.53l0.03 0.09 0.04 0.1 0.03 0.12-0.03-0.12 0.03 0.07-0.17-0.31 0.05 0.07c0.14 0.22 0.24 0.48 0.24 0.74l0.02 0.05v0.15l-0.09-0.46 0.04 0.1 0.03 0.09 0.02 0.12c0.03 0.1 0.05 0.22 0.05 0.34v0.24l0.02 0.12c0 0.12-0.02 0.24-0.04 0.36l-0.05 0.21-0.03 0.08-0.07 0.16c-0.14 0.51-0.55 0.87-1.05 0.99-0.51 0.09-1.04-0.07-1.4-0.46-0.33-0.38-0.43-0.93-0.26-1.44l0.05-0.14-0.03 0.12 0.05-0.22-0.05 0.34v-0.22l0.03-0.07v-0.07l0.02 0.36-0.02-0.12 0.02 0.09-0.02-0.07c-0.03-0.14-0.05-0.31-0.05-0.45v-0.2l0.22 0.82-0.05-0.07c-0.07-0.12-0.12-0.22-0.17-0.34l-0.02-0.09-0.03-0.1-0.02-0.1 0.02 0.1-0.02-0.1 0.33 0.56-0.07-0.05c-0.14-0.17-0.24-0.34-0.31-0.55l-0.02-0.08 0.16 0.34-0.07-0.1-0.05-0.07 0.17 0.22-0.05-0.07c-0.07-0.05-0.12-0.12-0.16-0.2l-0.05-0.09 0.17 0.21-0.08-0.04c-0.04-0.08-0.09-0.15-0.14-0.22l-0.07-0.07 0.38 0.38-0.07-0.05c-0.07-0.07-0.14-0.12-0.22-0.19l-0.04-0.05 0.14 0.12-0.38-0.31h-0.03l-0.12-0.12 0.1 0.07-0.17-0.09 0.14 0.07-0.16-0.07 0.07 0.02-0.17-0.07-0.24-0.12 0.07 0.02-0.19-0.07 0.31 0.1-0.17-0.03c-0.12-0.04-0.24-0.07-0.36-0.14l-0.16-0.07 0.43 0.14-0.22-0.05h-0.05l-0.67-0.12 0.17 0.03-0.55-0.05h0.05-0.22 0.17l-0.22 0.02h0.05l-0.96 0.12 0.12-0.02-0.7 0.17h-0.07l-0.57 0.09-0.1 0.03h-0.19c-0.41 0.02-0.77-0.19-0.94-0.53-0.17-0.36-0.09-0.77 0.17-1.06 0.24-0.28 0.67-0.38 1.03-0.26l0.03 0.02c0.26 0.1 0.45 0.29 0.55 0.56 0.09 0.24 0.07 0.52-0.05 0.76l-0.02 0.03 0.02-0.03v0.03l-0.05 0.05c-0.14 0.28-0.45 0.48-0.79 0.48s-0.62-0.2-0.79-0.48z"/>
  <path transform="matrix(1.3333 0 0 -1.3333 0 1120.8)" d="m143.04 726.77 0.26-0.07c0.17-0.05 0.34-0.05 0.51-0.05l1.01 0.12h-0.05l2.54 0.21h-0.09l3.81 0.03h-0.07l6.46-0.24h-0.05l0.91-0.07h0.05l3.77-0.15h0.28c0.58 0 1.11 0.29 1.4 0.79 0.28 0.48 0.28 1.11 0 1.59-0.29 0.48-0.82 0.79-1.4 0.79h-0.24 0.08l-3.77 0.1h0.02l-0.91 0.07h-0.05l-6.48 0.12h-0.09l-3.82-0.19h-0.1l-2.52-0.34h0.03l-1.01-0.07c-0.31-0.05-0.62-0.19-0.84-0.41l-0.19-0.19c-0.31-0.31-0.43-0.77-0.31-1.2 0.09-0.41 0.43-0.75 0.86-0.84z"/>
  <path transform="matrix(1.3333 0 0 -1.3333 0 1120.8)" d="m156.79 738.84-0.02-1.37v-0.12l0.02-0.5v0.12l-0.02-1.54-0.03-1.97v0.1l-0.02-0.41v-0.17l0.05-1.03v0.1l-0.03-0.84v-0.07l0.05-1.11v0.07-0.14c0-0.53 0.27-1.01 0.72-1.27 0.43-0.27 1.01-0.27 1.44 0 0.46 0.26 0.72 0.74 0.72 1.27v0.19l-0.07 1.13v-0.07 0.84l-0.02 0.07-0.05 1.01v-0.17l0.02 0.41v0.09l-0.02 1.97-0.03 1.54-0.02 0.17-0.07 0.5 0.02-0.12-0.07 1.37c-0.05 0.69-0.62 1.22-1.32 1.22-0.7-0.02-1.25-0.57-1.25-1.27z"/>
  <path transform="matrix(1.3333 0 0 -1.3333 0 1120.8)" d="m158.02 738.1 0.26-0.12c0.1-0.03 0.19-0.05 0.29-0.05l0.77-0.1-0.22 0.03 0.6-0.15c0.1-0.02 0.19-0.05 0.29-0.05l1.56-0.04h-0.07l0.79-0.08-1.35 1.49-0.04-4.08v-0.02l-0.05-4.18-0.05-2.28v-0.21c0-0.56 0.29-1.06 0.77-1.35 0.48-0.26 1.08-0.26 1.56 0 0.48 0.29 0.77 0.79 0.77 1.35v0.19-0.03l0.04 2.26v4.27l-0.04 4.08c0 0.41-0.2 0.79-0.48 1.08-0.32 0.27-0.72 0.39-1.13 0.36l-0.79-0.09 0.07 0.02-1.56-0.05h0.19l-0.6 0.05h-0.91l0.24-0.02-0.29 0.04c-0.6 0.1-1.2-0.28-1.37-0.88s0.17-1.23 0.75-1.44z"/>
  <path transform="matrix(1.3333 0 0 -1.3333 0 1120.8)" d="m139.25 748.9v0.04l-0.22-0.62v0.02l-0.21-0.21h0.02l-0.22-0.12v0.02c0.22 0.07 0.41 0.24 0.53 0.43l0.03 0.03-0.08-0.1v0.03c0.1 0.09 0.17 0.24 0.22 0.36v0.02l-0.48-0.62 0.31 0.21 0.05 0.03 0.22 0.14-0.17-0.1 0.21 0.1 0.05 0.05 0.22 0.12-0.15-0.07 0.22 0.09 0.24 0.1-0.02-0.03 0.67 0.29-0.12-0.05 1.99 0.56h-0.02l0.67 0.16-0.12-0.02 0.72 0.14 0.72 0.12h-0.07l0.72 0.1 0.72 0.07h-0.05l0.77 0.07 0.72 0.05h-0.15 1.56-0.09l0.72-0.02h-0.03l0.75-0.03h-0.1l1.97-0.21-0.05 0.02 0.7-0.12-0.08 0.03 0.68-0.15-0.05 0.03 0.67-0.17-0.02 0.02 0.62-0.17-0.05 0.03 0.65-0.19-0.05 0.02 0.63-0.24-0.03 0.02 1.37-0.5-0.07 0.02 1.49-0.67-0.32 0.19 0.2-0.16c0.43-0.34 0.98-0.41 1.48-0.22 0.51 0.19 0.87 0.65 0.94 1.18 0.07 0.52-0.14 1.08-0.58 1.39l-0.19 0.17c-0.09 0.07-0.19 0.14-0.31 0.16l-1.51 0.68-0.07 0.04-1.42 0.51-0.02 0.02-0.68 0.22h-0.04l-0.65 0.19-0.05 0.02-0.65 0.15h-0.05l-0.67 0.14h-0.02l-0.67 0.15h-0.08l-0.69 0.09-0.07 0.03-1.95 0.16-0.12 0.03h-0.74l-0.75 0.02h-0.07l-0.72-0.05h0.05-0.77l-0.14-0.02-0.72-0.07h0.02l-0.77-0.07-0.04-0.03-0.75-0.09-0.72-0.12-0.07-0.03-0.72-0.14-0.72-0.15-0.1-0.02-0.64-0.22h-0.05l-1.95-0.64-0.12-0.05-0.64-0.27-0.1-0.04-0.24-0.12-0.22-0.12-0.14-0.1-0.19-0.12 0.05 0.02-0.2-0.12-0.14-0.09-0.19-0.17-0.07-0.07-0.29-0.27c-0.31-0.31-0.43-0.79-0.29-1.22v-0.02c0.05-0.12 0.12-0.27 0.19-0.36l0.03-0.03c0.14-0.17 0.31-0.31 0.5-0.38h0.02l-0.02 0.02v-0.02l-0.22 0.12h0.03l-0.22 0.21v-0.02c0.22-0.26 0.53-0.41 0.87-0.41h0.04c0.53 0.03 0.96 0.46 0.99 0.99z"/>
  <path transform="matrix(1.3333 0 0 -1.3333 0 1120.8)" d="m138.67 750.05h-0.05c-0.24 0.02-0.45-0.05-0.62-0.17l-0.02-0.02c-0.1-0.08-0.17-0.15-0.24-0.22l-0.03-0.02 0.46 0.33 0.72 0.05c-0.46 0.12-0.94-0.02-1.23-0.41v-0.02h-0.02v-0.03c-0.36-0.45-0.34-1.12 0.07-1.56l0.29-0.28 0.07-0.1 0.19-0.14c0.1-0.08 0.17-0.12 0.24-0.17l0.22-0.1-0.14 0.07 0.19-0.14 0.05-0.02 0.21-0.12c0.05-0.05 0.12-0.08 0.19-0.1l0.24-0.1h-0.04l0.67-0.28 0.14-0.05 1.95-0.63 0.04-0.02 0.7-0.17 0.05-0.02 0.72-0.15h0.02l0.72-0.14h0.05l0.74-0.12h0.03l0.69-0.1 0.05-0.02 0.75-0.07h0.02l0.72-0.07h0.1l0.76-0.03h1.56l0.72 0.03 0.08 0.02 1.96 0.17 0.08 0.02 0.72 0.1 0.07 0.02 0.67 0.15 0.67 0.14h0.07l0.6 0.17 0.15 0.02 0.65 0.24-0.1-0.05 0.65 0.2 0.12 0.02 1.41 0.53 0.12 0.05 1.49 0.72c0.1 0.04 0.19 0.09 0.29 0.16l0.19 0.15c0.43 0.33 0.65 0.86 0.58 1.39s-0.43 0.98-0.94 1.2c-0.5 0.19-1.05 0.1-1.49-0.24l-0.19-0.14 0.27 0.16-1.49-0.72 0.14 0.05-1.41-0.5 0.12 0.02-0.68-0.19-0.07-0.02-0.65-0.24 0.12 0.04-0.62-0.16 0.07 0.02-0.67-0.14-0.67-0.17 0.07 0.02-0.72-0.12 0.07 0.03-1.94-0.22h0.02l-0.69-0.05h0.04l-0.72-0.02h0.03l-0.72-0.03h0.02l-0.77 0.03h0.08l-0.72 0.05h0.02l-0.74 0.04h0.02l-0.72 0.08h0.02l-0.72 0.09 0.05-0.02-0.72 0.12h0.03l-0.7 0.14 0.05-0.02-0.67 0.17h0.02l-1.97 0.5 0.17-0.05-0.7 0.29-0.09 0.02-0.27 0.1 0.22-0.1-0.19 0.1 0.05-0.02-0.2 0.12-0.16 0.07-0.22 0.09 0.26-0.14-0.21 0.14-0.03 0.03-0.31 0.21 0.24-0.24v0.03l-0.02 0.02 0.21-0.41v0.03c-0.12 0.33-0.36 0.6-0.67 0.74h-0.02l0.45-0.33v0.02c-0.07 0.07-0.14 0.14-0.24 0.22l-0.02 0.02 0.46-0.84v0.02c-0.03 0.56-0.46 0.99-0.99 0.99z"/>
  <path transform="matrix(1.3333 0 0 -1.3333 0 1120.8)" d="m177.05 739.8c0-0.98-0.79-1.8-1.78-1.8-0.98 0-1.8 0.82-1.8 1.8s0.82 1.78 1.8 1.78c0.99 0 1.78-0.8 1.78-1.78z" fill-rule="evenodd"/>
  <path transform="matrix(1.3333 0 0 -1.3333 0 1120.8)" d="m175.58 744.96-0.14 0.02-0.05 0.03h-0.17l-0.04 0.02h-0.6l-0.15-0.02h-0.05l-0.16-0.03c-0.08 0-0.15 0-0.24-0.02l-0.34-0.12c-0.07 0-0.14-0.05-0.19-0.07l-0.19-0.1-0.03-0.02-0.17-0.1-0.07-0.05-0.48-0.31-0.07-0.07h-0.02l-0.17-0.12-0.05-0.05-0.14-0.12-0.05-0.05-0.12-0.14-0.15-0.12-0.07-0.1-0.14-0.14v-0.02l-0.15-0.15-0.12-0.17-0.07-0.09-0.09-0.17-0.03-0.02-0.09-0.17-0.12-0.19-0.03-0.05-0.09-0.19-0.03-0.05-0.07-0.19-0.07-0.2-0.05-0.09-0.07-0.19-0.05-0.2-0.02-0.09-0.1-0.48-0.02-0.03-0.03-0.21-0.02-0.07-0.03-0.24v-0.03l-0.02-0.21v-0.6l0.05-0.44-0.03 0.05 0.03-0.14v-0.19l0.05-0.12v-0.03l0.02-0.14 0.05-0.12v-0.05l0.02-0.14 0.1-0.24v0.02l0.02-0.12 0.03-0.05 0.07-0.14 0.05-0.12 0.21-0.36 0.03-0.05 0.07-0.12 0.07-0.07 0.1-0.12 0.02-0.05 0.1-0.12-0.05 0.05 0.09-0.12c0.05-0.07 0.1-0.12 0.15-0.17l0.12-0.1-0.07 0.05 0.12-0.09 0.09-0.1 0.1-0.1 0.05-0.02 0.12-0.1 0.04-0.04 0.15-0.1 0.12-0.1 0.21-0.12 0.03-0.02 0.24-0.14 0.36-0.15 0.12-0.02 0.77-0.27 0.04-0.02 0.12-0.02 0.15-0.03 0.12-0.02 0.12-0.03 0.07-0.02h0.24l0.31-0.02 0.07 0.02h0.36l0.29 0.05 0.27 0.02 0.16 0.05 0.75 0.19 0.07 0.03 0.24 0.07 0.07 0.02 0.22 0.12 0.12 0.05 0.62 0.31 0.05 0.03 0.22 0.12 0.09 0.07 0.19 0.14 0.2 0.15 0.09 0.07 0.17 0.14 0.19 0.17 0.05 0.02 0.17 0.17 0.09 0.12 0.46 0.53 0.07 0.1 0.12 0.14 0.03 0.07 0.12 0.15v0.02l0.09 0.14 0.03 0.08 0.09 0.16v0.03l0.1 0.17 0.02 0.07 0.07 0.17 0.03 0.02 0.05 0.19 0.04 0.1 0.12 0.43 0.03 0.1 0.02 0.12 0.03 0.12 0.02 0.16 0.02 0.15-0.02-0.1 0.02 0.12 0.03 0.17v0.48l-0.03 0.12v0.17l-0.02 0.12v-0.07 0.12l-0.02 0.14-0.05 0.14-0.03 0.1-0.09 0.34-0.03 0.07-0.04 0.14-0.08 0.15-0.07 0.14 0.03-0.02-0.1 0.14v0.02l-0.07 0.15-0.07 0.14-0.1 0.15-0.1 0.12-0.28 0.38-0.05 0.02-0.12 0.17-0.07 0.07-0.15 0.17-0.02 0.03-0.17 0.14-0.14 0.14-0.51 0.39-0.12 0.07-0.17 0.12-0.04 0.02-0.15 0.1-0.07 0.02-0.14 0.1-0.1 0.05-0.34 0.14-0.52 0.17h0.02l-0.24 0.07-0.12 0.05-0.26 0.07-0.27 0.07c-0.05 0.03-0.12 0.03-0.19 0.05l-0.58 0.07h-0.14l-0.22 0.03h-0.38l-0.5-0.03-0.2-0.02-0.12-0.02-0.12-0.03-0.12-0.02-0.09-0.03-0.15-0.02-0.12-0.05-0.09-0.02-0.12-0.05-0.1-0.05-0.12-0.05-0.12-0.04-0.31-0.17-0.12-0.07-0.14-0.1c-0.53-0.31-0.82-0.89-0.8-1.51 0.03-0.6 0.36-1.15 0.89-1.44 0.55-0.27 1.2-0.24 1.71 0.07l0.16 0.1-0.12-0.08 0.32 0.2-0.1-0.08 0.12 0.08-0.07-0.05 0.12 0.05-0.1-0.03 0.12 0.05 0.15 0.02-0.1-0.02 0.12 0.05-0.12-0.05 0.14 0.05-0.14-0.03 0.5 0.05h-0.07 0.41l-0.22 0.03 0.58-0.05h-0.1l0.27-0.05 0.26-0.02-0.09 0.02 0.26-0.07-0.1 0.05 0.51-0.17-0.05 0.02 0.19-0.07-0.07 0.05 0.17-0.07-0.05 0.02 0.17-0.07-0.05 0.02 0.19-0.09-0.26 0.14 0.53-0.36-0.08 0.05 0.17-0.15-0.02 0.03 0.17-0.15-0.05 0.05 0.17-0.14-0.12 0.12 0.31-0.39-0.05 0.05 0.1-0.12-0.08 0.12 0.08-0.12v0.03l0.07-0.15 0.02-0.05 0.07-0.12-0.07 0.12 0.07-0.14-0.04 0.17 0.09-0.31-0.02 0.07 0.02-0.12-0.02 0.14 0.02-0.12v-0.07l0.03-0.12-0.03 0.17 0.03-0.12v-0.12 0.09-0.26 0.19-0.33 0.16-0.12h-0.03v-0.14l0.03 0.14-0.12-0.4 0.02 0.07-0.05-0.17v0.05l-0.05-0.17 0.03 0.1-0.07-0.17v0.02l-0.08-0.17 0.05 0.08-0.09-0.15 0.02 0.03-0.1-0.17 0.05 0.07-0.09-0.14 0.07 0.12-0.43-0.56 0.04 0.08-0.16-0.17 0.04 0.05-0.16-0.17-0.17-0.17 0.09 0.1-0.19-0.15-0.17-0.17 0.1 0.08-0.19-0.12 0.05 0.04-0.6-0.36 0.04 0.03-0.21-0.1 0.07 0.03-0.22-0.1 0.15 0.05-0.75-0.22 0.1 0.03-0.26-0.08-0.27-0.04 0.12 0.02-0.26-0.05 0.14 0.03h-0.31 0.05-0.12 0.07-0.26 0.16l-0.14 0.02 0.07-0.02-0.79 0.21 0.14-0.05-0.38 0.15 0.1-0.05-0.15 0.07h0.03l-0.15 0.07 0.07-0.04-0.14 0.09 0.02-0.02-0.12 0.07 0.05-0.02-0.12 0.09v-0.02l-0.12 0.09 0.12-0.09-0.12 0.12-0.07 0.05-0.12 0.09 0.17-0.14-0.1 0.12-0.05 0.02-0.09 0.12 0.02-0.02-0.12 0.12 0.07-0.07-0.09 0.12 0.05-0.1-0.2 0.36 0.05-0.12-0.05 0.12 0.03-0.05-0.05 0.12-0.02 0.03-0.05 0.14 0.02-0.12-0.02 0.14v-0.04l-0.03 0.12-0.02 0.12-0.05 0.14 0.05-0.19-0.02 0.14-0.03 0.43v-0.07 0.22-0.05 0.22-0.05l0.03 0.21v-0.04l0.02 0.21-0.02-0.07 0.04 0.22-0.02-0.08 0.12 0.48-0.02-0.09 0.07 0.17 0.05 0.19-0.03-0.07 0.07 0.16v-0.02l0.08 0.17-0.03-0.05 0.1 0.19-0.05-0.09 0.12 0.16 0.1 0.17-0.03-0.02 0.12 0.17-0.07-0.12 0.12 0.14 0.14 0.17-0.04-0.03 0.14 0.15-0.07-0.07 0.14 0.12 0.15 0.14-0.05-0.05 0.14 0.12-0.05-0.05 0.17 0.12 0.05 0.05-0.05-0.05 0.48 0.32-0.09-0.03 0.16 0.1-0.02-0.03 0.17 0.08 0.31 0.16 0.02 0.03 0.15 0.07-0.05-0.02 0.14 0.07-0.02-0.03 0.17 0.08h-0.05l0.17 0.04-0.07-0.02 0.14 0.07-0.02-0.02 0.14 0.05h-0.02l0.14 0.02c0.43 0.12 0.72 0.5 0.7 0.94-0.03 0.45-0.36 0.81-0.8 0.86z"/>
 </g>
</svg>
