<svg width="38.184" height="50.787" version="1.1" viewBox="0 0 38.184 50.787" xmlns="http://www.w3.org/2000/svg">
 <g transform="translate(-182.01 -192.39)">
  <path transform="matrix(1.3333 0 0 -1.3333 0 1120.8)" d="m136.7 675.38-0.02-0.02v-0.05h-0.02l0.02 0.03-0.02-0.03 1.17 0.43h-0.02c-0.36 0.15-0.77 0.05-1.03-0.24-0.27-0.26-0.34-0.67-0.2-1l0.1-0.2c0.05-0.12 0.12-0.24 0.24-0.36l0.41-0.38c0.12-0.14 0.29-0.24 0.48-0.29l0.65-0.24 0.16-0.02 0.96-0.19 0.05-0.03 0.22-0.02 0.17-0.03h0.28l0.56 0.03 0.14 0.02 0.67 0.07h-0.05l0.22 0.03c0.14 0.02 0.29 0.07 0.43 0.12l0.17 0.07-0.38-0.1 0.16 0.03c0.1 0 0.22 0.05 0.32 0.07l0.19 0.1 0.07 0.02 0.17 0.07-0.1-0.02 0.22 0.07 0.05 0.02 0.16 0.1 0.15 0.07 0.17 0.1 0.09 0.07 0.15 0.12 0.38 0.29 0.1 0.09 0.07 0.05-0.22-0.17 0.07 0.05c0.17 0.1 0.29 0.24 0.41 0.39l0.05 0.07-0.19-0.22 0.07 0.07c0.05 0.05 0.12 0.12 0.17 0.22l0.07 0.07-0.19-0.21 0.05 0.04c0.07 0.08 0.14 0.15 0.19 0.22l0.05 0.07 0.07 0.1c0.05 0.09 0.12 0.21 0.14 0.31l0.05 0.1-0.36-0.56 0.05 0.05c0.17 0.17 0.29 0.34 0.36 0.55l0.02 0.08 0.05 0.12 0.02 0.09-0.04-0.09 0.04 0.07-0.16-0.34 0.04 0.07c0.15 0.24 0.24 0.51 0.27 0.77v0.19l-0.1-0.45 0.03 0.07 0.04 0.12 0.03 0.1c0.02 0.12 0.05 0.24 0.05 0.33v0.36c0 0.12 0 0.24-0.03 0.36l-0.05 0.22-0.04 0.09-0.05 0.17c-0.15 0.48-0.55 0.87-1.06 0.96-0.5 0.12-1.03-0.05-1.39-0.45-0.34-0.39-0.43-0.92-0.26-1.42l0.07-0.17-0.05 0.12 0.05-0.21-0.05 0.33v-0.12l0.02-0.07v-0.17l0.03 0.36-0.03-0.09 0.03 0.09-0.03-0.09c-0.04-0.15-0.07-0.29-0.04-0.44v-0.19l0.21 0.82-0.05-0.1c-0.07-0.09-0.12-0.21-0.16-0.33l-0.03-0.08-0.02-0.09-0.03-0.12 0.03 0.09-0.03-0.07 0.34 0.55-0.07-0.04c-0.15-0.17-0.24-0.36-0.31-0.56l-0.03-0.09 0.15 0.33-0.1-0.14 0.17 0.19-0.05-0.05c-0.07-0.07-0.12-0.12-0.17-0.21l-0.05-0.07 0.15 0.21-0.05-0.07c-0.05-0.05-0.1-0.12-0.17-0.22l-0.05-0.07 0.39 0.41-0.07-0.07c-0.08-0.05-0.17-0.12-0.22-0.17l-0.05-0.07 0.15 0.14-0.39-0.31-0.02-0.02-0.15-0.1 0.12 0.07-0.16-0.12 0.14 0.1-0.17-0.1 0.07 0.05-0.16-0.1-0.08-0.02-0.16-0.1 0.07 0.05-0.19-0.07 0.31 0.07-0.17-0.02c-0.12-0.03-0.26-0.07-0.38-0.12l-0.15-0.1 0.43 0.15-0.21-0.03-0.05-0.02-0.67-0.12 0.14 0.02-0.53-0.02h0.05-0.21l0.16-0.03-0.21 0.03h0.05l-0.99 0.14 0.12-0.02-0.67 0.14-0.1 0.03-0.55 0.09h-0.09l-0.2 0.03c-0.38 0.02-0.76-0.2-0.93-0.56-0.17-0.33-0.1-0.76 0.17-1.05 0.26-0.29 0.64-0.39 1.03-0.24h0.02c0.24 0.09 0.46 0.31 0.55 0.55 0.1 0.26 0.08 0.55-0.04 0.79l-0.03 0.03 0.03-0.03h-0.03v0.05l-0.02 0.02c-0.15 0.29-0.46 0.46-0.79 0.46-0.34 0-0.65-0.17-0.8-0.46z"/>
  <path transform="matrix(1.3333 0 0 -1.3333 0 1120.8)" d="m144.22 674.23 0.26-0.05c0.17-0.04 0.34-0.07 0.5-0.04l1.01 0.12h-0.05l2.55 0.21h-0.1l3.82 0.03h-0.07l6.45-0.24h-0.05l0.92-0.08h0.04l3.77-0.14h0.29c0.58 0 1.1 0.29 1.37 0.77 0.29 0.5 0.29 1.1 0 1.58-0.27 0.51-0.79 0.79-1.37 0.79h-0.24 0.05l-3.77 0.12h0.05l-0.91 0.05h-0.08l-6.45 0.12h-0.1l-3.81-0.17-0.12-0.02-2.52-0.31h0.04l-1-0.1c-0.34-0.02-0.63-0.17-0.87-0.41l-0.17-0.16c-0.31-0.32-0.43-0.77-0.33-1.2 0.12-0.44 0.45-0.75 0.89-0.87z"/>
  <path transform="matrix(1.3333 0 0 -1.3333 0 1120.8)" d="m157.94 683.59-0.02-1.01 0.02-0.14 0.03-0.38v0.14l-0.03-1.13-0.02-1.49v0.15l-0.02-0.29v-0.26l0.04-0.75-0.02 0.1v-0.7l0.05-0.84v0.1-0.1c-0.03-0.53 0.26-1.01 0.69-1.27 0.46-0.26 1.01-0.26 1.47 0 0.45 0.26 0.72 0.74 0.72 1.27v0.1l-0.03 0.09-0.04 0.84v-0.09l-0.03 0.6v0.09l-0.07 0.77v-0.21l0.02 0.28v0.12l-0.02 1.49v1.13c0 0.07-0.02 0.17-0.02 0.24l-0.1 0.36 0.02-0.14-0.07 1c-0.05 0.7-0.62 1.23-1.29 1.2-0.7-0.02-1.25-0.57-1.28-1.27z"/>
  <path transform="matrix(1.3333 0 0 -1.3333 0 1120.8)" d="m159.26 682.7 0.27-0.07c0.07-0.02 0.14-0.05 0.24-0.05l0.74-0.07-0.17 0.03 0.6-0.15c0.08 0 0.17-0.02 0.24-0.02l1.56-0.05h-0.09l0.81-0.07-1.34 1.49-0.05-3.05-0.05-3.12v0.05l-0.04-1.71v-0.19c-0.03-0.55 0.28-1.06 0.76-1.34 0.48-0.29 1.08-0.29 1.56 0 0.48 0.28 0.77 0.79 0.77 1.34v0.14-0.04l0.05 1.7v3.17l-0.05 3.05c-0.02 0.4-0.19 0.79-0.5 1.08-0.29 0.26-0.7 0.4-1.11 0.36l-0.81-0.08h0.09l-1.56-0.04h0.12l-0.6 0.02h-0.09l-0.77-0.02h0.17l-0.27 0.02c-0.62 0.07-1.2-0.36-1.32-0.96-0.12-0.62 0.24-1.22 0.84-1.42z"/>
  <path transform="matrix(1.3333 0 0 -1.3333 0 1120.8)" d="m141.46 692.02v0.04l-0.24-0.62 0.02 0.02-0.22-0.21-0.21-0.1h0.02c0.22 0.07 0.39 0.24 0.53 0.43v0.03l-0.05-0.1v0.03c0.1 0.09 0.17 0.21 0.19 0.36v0.02l-0.45-0.62 0.31 0.21 0.05 0.03 0.21 0.14-0.16-0.1 0.19 0.12 0.07 0.03 0.19 0.12-0.14-0.07 0.21 0.09 0.27 0.1h-0.05l0.67 0.26-0.12-0.05 2.02 0.56h-0.03l0.65 0.16-0.09-0.02 0.72 0.14 0.72 0.12h-0.08l0.72 0.08 0.72 0.09h-0.04l0.74 0.07h0.02l0.72 0.05h-0.14 1.54-0.08l0.72-0.02-0.02 0.02 0.72-0.05h-0.07l1.97-0.21-0.08 0.02 0.72-0.12-0.07 0.03 0.65-0.15h-0.02l0.67-0.12h-0.05l0.65-0.17-0.05 0.03 0.62-0.19-0.04 0.02 0.64-0.22h-0.04l1.39-0.52-0.1 0.04 1.51-0.67-0.31 0.19 0.19-0.16c0.44-0.34 0.99-0.41 1.49-0.22 0.51 0.19 0.84 0.65 0.91 1.18 0.1 0.52-0.12 1.05-0.55 1.39l-0.19 0.17c-0.12 0.07-0.22 0.12-0.31 0.16l-1.51 0.68-0.1 0.04-1.39 0.51-0.05 0.02-0.65 0.22h-0.05l-0.64 0.19-0.08 0.02-0.64 0.15-0.03 0.02-0.69 0.12-0.68 0.15h-0.07l-0.69 0.09h-0.08l-1.96 0.19-0.1 0.03-0.74 0.02h-0.84l-0.72-0.05h0.07-0.77l-0.14-0.02-0.72-0.07-0.75-0.1h-0.07l-0.72-0.12-0.72-0.09-0.07-0.03-0.72-0.14-0.72-0.15-0.1-0.04-0.67-0.2h-0.02l-1.97-0.64-0.1-0.05-0.67-0.27-0.1-0.04-0.24-0.12-0.21-0.12-0.15-0.08-0.19-0.14 0.07 0.02-0.21-0.12-0.15-0.09-0.19-0.17-0.05-0.05-0.28-0.29c-0.32-0.31-0.44-0.79-0.29-1.22v-0.02c0.05-0.15 0.09-0.27 0.19-0.36l0.02-0.03c0.12-0.17 0.32-0.29 0.51-0.36l0.02-0.02-0.05 0.02h0.03l-0.22 0.1h0.03l-0.22 0.21v-0.02c0.22-0.26 0.53-0.41 0.86-0.41h0.03c0.55 0.03 0.98 0.46 1.01 0.99z"/>
  <path transform="matrix(1.3333 0 0 -1.3333 0 1120.8)" d="m140.86 693.17-0.05 0.02c-0.22 0-0.43-0.07-0.63-0.21-0.09-0.08-0.19-0.15-0.24-0.24h-0.02l0.46 0.33h-0.03l0.75 0.05c-0.46 0.12-0.94-0.05-1.23-0.41l-0.02-0.02h-0.03c-0.36-0.48-0.31-1.15 0.1-1.59l0.26-0.28 0.1-0.08 0.19-0.16c0.07-0.08 0.15-0.12 0.24-0.17l0.22-0.1-0.15 0.07 0.2-0.12 0.04-0.04 0.2-0.12c0.07-0.05 0.14-0.08 0.21-0.1l0.24-0.1h-0.05l0.68-0.28 0.12-0.05 1.96-0.63 0.05-0.02 0.7-0.17 0.05-0.02 0.69-0.15h0.05l0.7-0.14 0.07-0.02 0.72-0.1h0.02l0.72-0.1h0.03l0.76-0.09h0.03l0.72-0.07h0.07l0.79-0.03 0.72-0.02h0.05l0.72 0.02h0.07l0.72 0.03h0.05l1.97 0.19 0.09 0.02 0.72 0.1 0.08 0.02 0.67 0.15 0.67 0.14h0.05l0.62 0.17 0.15 0.02 0.62 0.24-0.1-0.02 0.68 0.17 0.12 0.04 1.39 0.51 0.14 0.05 1.49 0.72c0.1 0.04 0.19 0.09 0.26 0.16l0.22 0.15c0.41 0.33 0.62 0.86 0.55 1.39-0.07 0.55-0.41 0.98-0.91 1.18-0.5 0.21-1.08 0.12-1.49-0.22l-0.19-0.14 0.26 0.16-1.48-0.72 0.14 0.05-1.42-0.5 0.1 0.02-0.65-0.19-0.09-0.02-0.65-0.24 0.14 0.04-0.62-0.16 0.05 0.02-0.68-0.17-0.67-0.12h0.07l-0.69-0.12h0.07l-1.97-0.19h0.05l-0.72-0.05h0.07l-0.74-0.02h0.02-0.72 0.05-0.77 0.07l-0.72 0.02h0.03l-0.77 0.07h0.05l-0.72 0.08h0.02l-0.74 0.09h0.07l-0.72 0.1h0.02l-0.69 0.14 0.05-0.02-0.7 0.17 0.05-0.03-1.97 0.53 0.14-0.05-0.67 0.29-0.12 0.02-0.24 0.1 0.22-0.1-0.22 0.1 0.07-0.02-0.21 0.12-0.15 0.07-0.21 0.09 0.24-0.14-0.19 0.17h-0.03l-0.31 0.21 0.24-0.21h-0.02v0.02l0.19-0.41v0.03c-0.1 0.33-0.34 0.6-0.65 0.74h-0.02l0.45-0.33h-0.02c-0.05 0.09-0.15 0.16-0.24 0.24h-0.03l0.48-0.84v0.04c-0.02 0.56-0.45 0.99-1 0.99z"/>
  <path transform="matrix(1.3333 0 0 -1.3333 0 1120.8)" d="m153.22 663.5c0-0.98-0.8-1.77-1.78-1.77s-1.78 0.79-1.78 1.77c0 0.99 0.8 1.8 1.78 1.8s1.78-0.81 1.78-1.8z" fill-rule="evenodd"/>
  <path transform="matrix(1.3333 0 0 -1.3333 0 1120.8)" d="m151.75 668.69-0.14 0.02h-0.05l-0.17 0.03h-0.05l-0.16 0.02h-0.24l-0.17-0.02h-0.22l-0.17-0.03c-0.07 0-0.14-0.02-0.21-0.05l-0.34-0.09c-0.07-0.03-0.14-0.05-0.21-0.07l-0.2-0.1-0.02-0.02-0.17-0.1-0.07-0.05-0.48-0.31-0.07-0.07h-0.03l-0.14-0.15-0.05-0.02-0.14-0.14-0.07-0.05-0.34-0.34-0.12-0.14-0.02-0.05-0.12-0.14-0.15-0.15-0.07-0.09-0.1-0.17-0.02-0.05-0.1-0.17-0.09-0.17-0.05-0.07-0.1-0.19-0.02-0.05-0.07-0.17v-0.02l-0.07-0.17-0.05-0.09-0.05-0.2-0.07-0.19-0.03-0.09-0.09-0.48v-0.05l-0.05-0.22-0.02-0.07-0.03-0.22v-0.26l-0.02-0.02v-0.56l0.05-0.43v0.03-0.12l0.02-0.2 0.02-0.14v-0.02l0.03-0.12 0.05-0.15v-0.05l0.04-0.12 0.03-0.12 0.05-0.14v0.05l0.04-0.15 0.03-0.04 0.05-0.12 0.07-0.15 0.19-0.33 0.02-0.05 0.1-0.12 0.05-0.07 0.09-0.15 0.03-0.02 0.09-0.12-0.02 0.05 0.07-0.12c0.05-0.08 0.1-0.12 0.15-0.17l0.12-0.12-0.05 0.07 0.09-0.12 0.1-0.1 0.12-0.09 0.02-0.03 0.12-0.09 0.05-0.03 0.12-0.09 0.03-0.03 0.14-0.07 0.07-0.05 0.12-0.09h0.03l0.12-0.07 0.14-0.08 0.36-0.14 0.1-0.05 0.76-0.24 0.05-0.02 0.12-0.05 0.15-0.02 0.12-0.03h0.12l0.09-0.02h0.12l0.1-0.03h0.38l0.27 0.03h0.12l0.26 0.05 0.26 0.02 0.17 0.02 0.75 0.22 0.09 0.02 0.22 0.08 0.07 0.02 0.24 0.1 0.1 0.04 0.62 0.34 0.05 0.02 0.21 0.12 0.1 0.08 0.19 0.12 0.19 0.14 0.1 0.1 0.19 0.14 0.17 0.14 0.22 0.22 0.09 0.1 0.46 0.52 0.07 0.1 0.12 0.17 0.05 0.05 0.09 0.16v0.03l0.15 0.21 0.07 0.17 0.02 0.03 0.08 0.14 0.02 0.1 0.07 0.14 0.03 0.05 0.07 0.17 0.02 0.12 0.12 0.43 0.03 0.09 0.02 0.12v-0.02l0.02 0.12 0.05 0.19v0.12-0.09 0.14l0.03 0.17v0.57l-0.03 0.17-0.02 0.15 0.02-0.1-0.02 0.12-0.03 0.17-0.02 0.12-0.05 0.12-0.09 0.31-0.03 0.07-0.05 0.17-0.07 0.12-0.07 0.14 0.02-0.02-0.07 0.17-0.02 0.02-0.07 0.15-0.08 0.14-0.09 0.12-0.07 0.12-0.32 0.38-0.04 0.05-0.12 0.17-0.24 0.24-0.15 0.17c-0.07 0.05-0.12 0.09-0.17 0.14l-0.5 0.39-0.12 0.07-0.14 0.09-0.05 0.05-0.17 0.1-0.05 0.02-0.17 0.1-0.07 0.02-0.19 0.1-0.17 0.07-0.5 0.17 0.02-0.03-0.24 0.1-0.12 0.02-0.26 0.1-0.27 0.05c-0.07 0.02-0.14 0.05-0.21 0.05l-0.58 0.07-0.14 0.02-0.22 0.03h-0.36l-0.53-0.03-0.19-0.02-0.12-0.03-0.24-0.04-0.09-0.03-0.12-0.05-0.15-0.02-0.07-0.05-0.14-0.05-0.08-0.02-0.12-0.05-0.12-0.07-0.31-0.14-0.14-0.1-0.15-0.07c-0.5-0.34-0.81-0.91-0.79-1.51 0.03-0.6 0.36-1.16 0.91-1.44 0.53-0.29 1.18-0.27 1.71 0.07l0.14 0.09-0.12-0.07 0.31 0.17-0.09-0.05 0.14 0.05-0.09-0.02 0.12 0.04-0.08-0.02 0.12 0.02 0.12 0.05-0.09-0.02 0.12 0.02-0.1-0.02 0.12 0.02-0.14-0.02 0.5 0.07-0.07-0.02 0.19 0.02h0.22-0.22l0.6-0.05-0.12 0.03 0.27-0.05 0.28-0.05-0.12 0.02 0.27-0.04-0.1 0.02 0.51-0.14-0.03 0.02 0.17-0.07-0.07 0.02 0.17-0.07-0.05 0.02 0.17-0.07-0.05 0.03 0.19-0.08-0.24 0.15 0.5-0.39-0.07 0.08 0.17-0.15-0.02 0.03 0.16-0.15-0.04 0.05 0.16-0.14-0.12 0.12 0.32-0.39-0.03 0.05 0.1-0.14-0.1 0.14 0.1-0.14-0.03 0.02 0.08-0.14 0.02-0.03 0.1-0.14-0.1 0.14 0.07-0.14-0.05 0.14 0.1-0.31-0.02 0.1 0.04-0.15-0.04 0.17 0.02-0.12v-0.07l0.05-0.15-0.03 0.17v-0.21 0.07-0.24l0.03 0.17-0.03-0.12v-0.22l0.03 0.19-0.03-0.12v-0.02l-0.02-0.12 0.02 0.14-0.12-0.43 0.03 0.1-0.05-0.17v0.02l-0.05-0.14 0.03 0.07-0.08-0.17 0.03 0.03-0.07-0.15 0.02 0.07-0.07-0.16v0.02l-0.1-0.14 0.05 0.04-0.1-0.14 0.08 0.12-0.44-0.55 0.08 0.07-0.17-0.17 0.05 0.05-0.17-0.14-0.19-0.17 0.12 0.07-0.2-0.14-0.19-0.15 0.1 0.07-0.19-0.14 0.07 0.05-0.63-0.34 0.05 0.03-0.21-0.12 0.07 0.02-0.22-0.07 0.15 0.05-0.75-0.24 0.1 0.02-0.27-0.05h0.03l-0.29-0.07 0.12 0.02-0.26-0.02h0.14-0.31 0.05-0.12 0.07-0.12l-0.12 0.02 0.14-0.02-0.12 0.02h0.05l-0.79 0.2 0.14-0.05-0.36 0.14 0.07-0.02-0.14 0.05h0.02l-0.14 0.07 0.07-0.03-0.12 0.08 0.03-0.03-0.15 0.1 0.05-0.03-0.12 0.08h0.02l-0.12 0.07 0.1-0.07-0.12 0.09-0.05 0.05-0.12 0.1 0.15-0.12-0.1 0.09-0.05 0.05-0.09 0.1 0.02-0.03-0.1 0.15 0.05-0.1-0.09 0.14 0.07-0.09-0.22 0.33 0.07-0.09-0.07 0.12 0.03-0.07-0.05 0.14v0.02l-0.07 0.15 0.04-0.12-0.04 0.14 0.02-0.05-0.05 0.12v-0.02l-0.02 0.14v-0.02l-0.03 0.14 0.03-0.16-0.03 0.12-0.02 0.45v-0.09 0.24-0.05l0.02 0.19-0.02-0.02 0.02 0.21v-0.05l0.03 0.22v-0.1l0.02 0.22v-0.05l0.12 0.48-0.05-0.12 0.08 0.19 0.07 0.2-0.05-0.1 0.07 0.19v-0.02l0.1 0.17-0.05-0.05 0.1 0.17-0.03-0.08 0.1 0.17 0.12 0.17-0.03-0.02 0.1 0.14-0.07-0.1 0.14 0.15 0.12 0.14-0.02-0.02 0.14 0.14-0.07-0.07 0.14 0.14 0.15 0.12-0.07-0.02 0.16 0.12-0.04-0.05 0.14 0.12h0.02l0.03 0.03-0.03-0.03 0.46 0.31-0.07-0.04 0.17 0.09-0.05-0.02 0.17 0.09 0.33 0.17 0.15 0.07-0.05-0.02 0.14 0.07h-0.02l0.17 0.07-0.03-0.02 0.15 0.07-0.08-0.02 0.17 0.05h-0.05l0.17 0.02h-0.05l0.15 0.05c0.43 0.09 0.72 0.5 0.69 0.93-0.02 0.44-0.33 0.8-0.79 0.87z"/>
 </g>
</svg>
