<svg width="23.592" height="33.197" version="1.1" viewBox="0 0 23.592 33.197" xmlns="http://www.w3.org/2000/svg">
 <g transform="translate(-353.84 -108.11)">
  <path transform="matrix(1.3333,0,0,-1.3333,0,1120.8)" d="m268.15 757.46 0.46-0.04h0.14l0.72 0.04h-0.05 1.23-0.03l1.9-0.12 1.87-0.12h0.07l1.42-0.02h-0.02 0.14c0.43-0.02 0.82 0.19 1.03 0.55 0.22 0.36 0.22 0.82 0 1.18-0.21 0.36-0.6 0.57-1.03 0.55h-0.17l-1.41-0.07h0.04l-1.89-0.03h-3.15l-0.07-0.02-0.36-0.02-0.38-0.05h0.12l-0.46 0.02c-0.5 0.03-0.91-0.38-0.96-0.86-0.02-0.51 0.36-0.91 0.84-0.99z"/>
  <path transform="matrix(1.3333,0,0,-1.3333,0,1120.8)" d="m275.42 758.57 0.03-0.31v0.04l-0.03-0.62v-0.02l0.03-1.56v-0.08l0.07-1.05 0.02-0.12 0.39-1.75 0.02-0.08 0.7-2.56 0.41-1.42 0.02-0.02 0.22-0.72 1.15-3.75 0.02-0.02 0.87-2.47 0.02-0.08 0.22-0.5-0.03 0.05 1.01-2.76-0.02 0.05 0.12-0.34-0.05 0.1 0.09-0.36v-0.03l0.08-0.33v0.12l0.02-0.36 0.07-0.36-0.02 0.07 0.05-0.36v0.05l0.02-0.77v0.14l-0.02-0.24c-0.08-0.57 0.36-1.13 0.96-1.2s1.12 0.36 1.2 0.99l0.02 0.21v0.17l-0.02 0.77v0.05l-0.03 0.36-0.02 0.07-0.1 0.72-0.02 0.07-0.07 0.34v-0.03l-0.08 0.36-0.02 0.1-0.12 0.33v0.05l-1.01 2.76-0.02 0.05-0.19 0.48v-0.02l-0.84 2.44v-0.02l-1.18 3.74v0.03l-0.24 0.72v-0.05l-0.41 1.42-0.79 2.54v-0.05l-0.43 1.75v-0.14l-0.1 1.06v-0.1l-0.05 1.58v-0.02 0.62l-0.02 0.12-0.05 0.29c-0.05 0.51-0.5 0.87-0.98 0.82-0.51-0.05-0.89-0.48-0.87-0.96z"/>
  <path transform="matrix(1.3333,0,0,-1.3333,0,1120.8)" d="m267.67 757.3 0.48-0.17 0.07-0.03 0.77-0.24 0.6-0.12 0.12-0.02 0.1-0.02-0.27 0.07 0.1-0.03c0.1-0.04 0.19-0.07 0.29-0.07l0.12-0.02-0.51 0.17 0.1-0.05c0.07-0.05 0.19-0.1 0.29-0.12l0.29-0.1-0.34 0.17 0.05-0.02c0.07-0.08 0.19-0.12 0.26-0.17l0.12-0.03c0.07-0.02 0.17-0.04 0.24-0.04l0.07-0.03-0.55 0.22 0.05-0.03c0.17-0.12 0.36-0.21 0.55-0.21l0.07-0.03-0.07 0.03 0.22-0.03c0.14-0.04 0.33-0.02 0.5 0.03l0.1 0.02c0.38 0.12 0.69 0.46 0.77 0.87 0.09 0.4-0.08 0.84-0.39 1.1-0.33 0.26-0.77 0.34-1.15 0.17l-0.07-0.03 0.53 0.08-0.22 0.02c-0.07 0.02-0.14 0.02-0.22 0h-0.07l0.51-0.07-0.05 0.02c-0.17 0.07-0.34 0.07-0.51 0.07l-0.07-0.02 0.34-0.02-0.12 0.04 0.19-0.07-0.07 0.03-0.12 0.04-0.29 0.08 0.17-0.08-0.1 0.05c-0.14 0.07-0.33 0.1-0.5 0.1l-0.12-0.03h0.26-0.12c-0.07 0.03-0.17 0.03-0.26 0.03l-0.1-0.03h0.19l-0.52 0.08h0.02l-0.82 0.07h-0.04l-0.53 0.02c-0.41 0.03-0.77-0.26-0.87-0.69-0.07-0.41 0.15-0.8 0.53-0.96z"/>
  <path transform="matrix(1.3333,0,0,-1.3333,0,1120.8)" d="m271.22 757.63-0.14-0.36-0.02-0.14-0.15-0.67v-0.12l-0.12-1.78v-1.97l0.29-1.94 0.19-1.32 0.43-2.52v-0.05l0.12-0.55 0.03-0.05 0.14-0.5 0.03-0.1 0.55-1.42v-0.02l0.14-0.38 0.07-0.12 0.1-0.17 0.1-0.19c0.04-0.05 0.07-0.12 0.12-0.17l0.12-0.17 0.31-0.38h0.02l0.12-0.17c0.27-0.31 0.7-0.48 1.08-0.41 0.41 0.07 0.77 0.36 0.89 0.74 0.17 0.39 0.07 0.82-0.19 1.13l-0.12 0.17v-0.02l-0.31 0.38-0.03 0.05-0.14 0.14 0.12-0.17-0.1 0.2-0.12 0.19 0.07-0.12-0.09 0.17-0.07 0.19 0.02-0.05-0.58 1.42 0.03-0.05-0.17 0.48v-0.05l-0.14 0.53 0.02-0.1-0.48 2.5-0.22 1.27-0.31 1.94v-0.12l-0.05 0.92-0.04 0.86v-0.1l0.04 1.8v-0.09l0.08 0.69-0.03-0.09 0.1 0.38c0.09 0.46-0.17 0.91-0.63 1.03-0.45 0.12-0.91-0.12-1.08-0.55z"/>
  <path transform="matrix(1.3333,0,0,-1.3333,0,1120.8)" d="m274.49 744.86 0.02-0.07-0.12 0.67-0.07-0.36v-0.04l-0.12-0.87 0.05 0.17-0.12-0.36c-0.03-0.05-0.05-0.12-0.05-0.19l-0.12-0.89c-0.05-0.38 0.14-0.79 0.48-1.03s0.79-0.27 1.15-0.07c0.36 0.19 0.58 0.57 0.58 0.98l0.02 0.86v-0.09l0.03 0.38v0.05l0.04 0.89v0.07l-0.02 0.36-0.14-0.53 0.04 0.07c0.27 0.41 0.2 0.96-0.19 1.28-0.36 0.33-0.91 0.33-1.29 0-0.39-0.32-0.46-0.87-0.17-1.28z"/>
  <path transform="matrix(1.3333,0,0,-1.3333,0,1120.8)" d="m272.52 745.73-0.29-0.24c-0.07-0.05-0.14-0.12-0.21-0.19l-0.77-1.11-0.05-0.07-1.44-2.4v-0.02l-0.67-1.18-0.03-0.05-0.02-0.07-1.27-2.45 0.05 0.05-0.32-0.5-0.02-0.05-0.07-0.12c-0.22-0.39-0.17-0.84 0.05-1.2 0.21-0.36 0.64-0.55 1.05-0.53 0.43 0.05 0.82 0.29 0.99 0.7l0.07 0.12-0.05-0.05 0.29 0.53 0.02 0.02 1.2 2.5 0.05 0.04-0.05-0.02 0.65 1.18 1.37 2.44-0.05-0.04 0.72 1.15 0.05 0.09 0.14 0.34c0.19 0.38 0.07 0.84-0.26 1.1-0.34 0.27-0.79 0.27-1.13 0.03z"/>
  <path transform="matrix(1.3333,0,0,-1.3333,0,1120.8)" d="m274.25 742.87-0.12-0.29v0.03l-0.65-1.37 0.05 0.05-1.8-3.36 0.05 0.07-0.24-0.38-0.03-0.05-0.09-0.17c-0.22-0.36-0.22-0.84-0.03-1.2 0.22-0.36 0.63-0.6 1.06-0.6 0.41 0.02 0.79 0.24 1.01 0.62l0.09 0.2v-0.03l0.24 0.41 0.03 0.07 1.65 3.41 0.05 0.1 0.53 1.44 0.02 0.07 0.1 0.29c0.14 0.5-0.15 1.05-0.65 1.22-0.5 0.19-1.06-0.05-1.27-0.53z"/>
  <path transform="matrix(1.3333,0,0,-1.3333,0,1120.8)" d="m266.93 737.45-0.48-0.05c-0.53 0-0.99-0.43-1.06-0.98-0.05-0.53 0.31-1.04 0.84-1.18l0.75-0.17c0.09-0.02 0.16-0.02 0.26-0.02l4.32-0.1h-0.07l0.98-0.07h0.05l2.71-0.05h0.29c0.5 0 0.98 0.27 1.25 0.72 0.26 0.43 0.26 0.99 0 1.44-0.27 0.43-0.75 0.72-1.25 0.7h-0.29l-2.71-0.05h0.05-1.03l-4.32-0.14h-0.08l-0.74-0.1c-0.46-0.02-0.82-0.34-0.96-0.77-0.12-0.43 0.02-0.89 0.36-1.17 0.36-0.27 0.84-0.32 1.22-0.1l0.44 0.24c0.38 0.22 0.57 0.67 0.45 1.13-0.12 0.43-0.5 0.72-0.98 0.72z"/>
  <path transform="matrix(1.3333,0,0,-1.3333,0,1120.8)" d="m274.32 745.13v-0.58l0.02-0.17c0-0.09 0.03-0.19 0.05-0.28l0.07-0.15-0.07 0.29v-0.14c0.03-0.1 0.05-0.22 0.1-0.32l0.12-0.31-0.03 0.05 0.08-0.24 0.07-0.14 0.12-0.27 0.07-0.09 0.43-0.7 0.12-0.17 0.12-0.19c0.05-0.07 0.1-0.12 0.15-0.19l0.16-0.17h0.03l0.38-0.41 0.07-0.05 1.47-1.32v0.03l1.27-1.18-0.07 0.1 0.17-0.19 0.04-0.05 0.2-0.22-0.05 0.05 0.17-0.19-0.1 0.17 0.14-0.24-0.02 0.02 0.12-0.24 0.05-0.07 0.17-0.22-0.08 0.12 0.12-0.24 0.15-0.24-0.07 0.15 0.28-0.72-0.04 0.19 0.14-0.72-0.02 0.14 0.02-0.24c0.05-0.45 0.31-0.84 0.72-1.03s0.89-0.17 1.27 0.12c0.39 0.24 0.58 0.7 0.53 1.15l-0.02 0.24-0.03 0.15-0.14 0.72c-0.03 0.07-0.05 0.14-0.07 0.19l-0.29 0.72-0.07 0.17-0.12 0.24-0.15 0.24-0.07 0.12-0.14 0.19 0.02-0.05-0.12 0.22-0.02 0.02-0.17 0.24c-0.03 0.05-0.07 0.1-0.1 0.14l-0.19 0.2-0.05 0.07-0.19 0.19 0.05-0.05-0.29 0.29-1.32 1.18-0.02 0.02-1.54 1.25 0.05-0.05-0.41 0.41-0.05 0.02-0.19 0.15 0.17-0.15-0.15 0.17-0.14 0.17 0.02-0.05-0.48 0.65-0.02 0.02-0.17 0.22 0.07-0.12-0.14 0.24 0.05-0.07-0.15 0.28 0.08-0.19-0.03 0.15c-0.02 0.07-0.07 0.16-0.12 0.24l-0.07 0.14 0.12-0.29-0.05 0.15 0.03-0.08-0.1 0.56c-0.07 0.5-0.53 0.86-1.03 0.81-0.51-0.05-0.89-0.45-0.89-0.98z"/>
  <path transform="matrix(1.3333,0,0,-1.3333,0,1120.8)" d="m273.29 752.06-0.12-0.24c-0.1-0.14-0.12-0.28-0.12-0.45v-0.15 0.15l-0.03-0.15-0.02-0.16v-0.29l0.02-0.17-0.02 0.19v-0.45l0.02-0.17c0-0.07 0.03-0.12 0.03-0.19l0.05-0.12-0.05 0.14 0.02-0.12 0.03-0.14 0.04-0.17c0.03-0.05 0.03-0.12 0.05-0.17l0.15-0.31 0.02-0.05 0.07-0.17 0.1-0.19 0.05-0.1 0.09-0.16 0.12-0.22c0.05-0.02 0.07-0.07 0.1-0.12l0.14-0.17-0.07 0.1 0.12-0.17c0.05-0.07 0.07-0.12 0.12-0.17l0.43-0.41 0.05-0.04 0.46-0.41 0.04-0.05 0.99-0.79-0.03 0.05 0.96-0.84-0.07 0.07 0.58-0.55 0.17-0.22-0.05 0.07 0.17-0.19 0.19-0.22-0.12 0.15 0.43-0.65-0.07 0.14 0.05-0.09c0.19-0.39 0.55-0.65 0.98-0.67 0.43 0 0.84 0.19 1.06 0.55 0.24 0.36 0.26 0.79 0.07 1.17l-0.05 0.1-0.07 0.12-0.41 0.62c-0.02 0.08-0.07 0.1-0.12 0.15l-0.19 0.19h0.02l-0.17 0.19-0.04 0.05-0.2 0.19v-0.02l-0.57 0.6-0.07 0.05-0.99 0.81-0.02 0.03-1.01 0.76 0.05-0.02-0.48 0.38 0.07-0.07-0.41 0.41 0.12-0.12-0.12 0.17-0.07 0.07-0.14 0.17 0.09-0.17-0.12 0.22-0.12 0.16 0.07-0.09-0.09 0.19-0.1 0.17v-0.03l-0.14 0.32 0.07-0.15-0.05 0.15 0.03-0.1-0.03 0.12c-0.02 0.07-0.02 0.12-0.07 0.17l-0.05 0.14 0.07-0.19-0.02 0.17v-0.17 0.31c0 0.05-0.02 0.12-0.05 0.17l-0.02 0.14 0.02-0.16v0.12-0.15 0.46-0.27l0.05 0.27c0.1 0.48-0.17 0.96-0.65 1.15-0.48 0.17-0.98-0.02-1.22-0.46z"/>
 </g>
</svg>
