<?xml version="1.0" encoding="UTF-8" standalone="no"?>
<!-- Created with Inkscape (http://www.inkscape.org/) -->

<svg
   version="1.1"
   id="svg1"
   width="29.797585"
   height="139.06667"
   viewBox="0 0 29.797585 139.06666"
   sodipodi:docname="lesson1.pdf"
   xmlns:inkscape="http://www.inkscape.org/namespaces/inkscape"
   xmlns:sodipodi="http://sodipodi.sourceforge.net/DTD/sodipodi-0.dtd"
   xmlns="http://www.w3.org/2000/svg"
   xmlns:svg="http://www.w3.org/2000/svg">
  <defs
     id="defs1" />
  <sodipodi:namedview
     id="namedview1"
     pagecolor="#ffffff"
     bordercolor="#000000"
     borderopacity="0.25"
     inkscape:showpageshadow="2"
     inkscape:pageopacity="0.0"
     inkscape:pagecheckerboard="0"
     inkscape:deskcolor="#d1d1d1">
    <inkscape:page
       x="0"
       y="3.8191076e-13"
       inkscape:label="1"
       id="page1"
       width="29.797585"
       height="139.06665"
       margin="0"
       bleed="0" />
  </sodipodi:namedview>
  <g
     id="g1"
     inkscape:groupmode="layer"
     inkscape:label="1"
     transform="translate(-327.38454,-102.21336)">
    <g
       id="g152">
      <path
         id="path152"
         d="m 248.28,762.41 0.02,0.21 v 0 0.03 l -0.24,-0.58 v 0.03 0 l 0.03,0.02 c 0.14,0.14 0.24,0.36 0.26,0.58 v 0 l -0.29,-0.58 0.03,0.02 0.02,0.03 h 0.03 v 0 l 0.02,0.05 v 0 h 0.02 -0.02 0.02 l -0.64,-0.24 v 0 c 0.26,0 0.5,0.09 0.69,0.28 h 0.03 v 0 0.03 l -0.68,-0.27 h 0.05 c 0.22,0 0.46,0.08 0.63,0.24 0.16,0.15 0.28,0.36 0.28,0.6 v 0.03 l -0.48,-0.75 0.05,0.03 -0.45,-0.1 h 0.02 -0.05 0.03 0.07 0.02 v 0 0 c 0.27,-0.02 0.51,0.07 0.7,0.27 l 0.02,0.02 -0.67,-0.26 h 0.05 0.07 l 0.65,0.04 h -0.1 0.03 0.02 0.1 v 0 l 0.09,-0.02 -0.21,0.02 0.12,-0.02 c 0.07,-0.02 0.12,-0.02 0.19,-0.02 h 0.09 l -0.24,0.04 0.1,-0.02 v 0 l 0.1,-0.02 0.04,-0.03 0.1,-0.02 -0.24,0.09 0.07,-0.04 c 0.07,-0.05 0.17,-0.08 0.24,-0.08 l 0.12,-0.04 -0.24,0.09 0.07,-0.05 0.08,-0.02 0.12,-0.07 -0.08,0.05 0.08,-0.05 v 0 l 0.09,-0.03 -0.14,0.08 0.07,-0.08 v 0.03 l 0.19,-0.17 -0.09,0.1 0.09,-0.12 -0.07,0.09 0.1,-0.12 0.04,-0.07 0.12,-0.12 v 0 l 0.08,-0.1 -0.12,0.15 0.09,-0.15 v 0.05 l 0.05,-0.12 0.07,-0.09 0.07,-0.12 -0.04,0.07 0.09,-0.15 -0.09,0.22 0.04,-0.14 v -0.05 l 0.17,-0.39 -0.02,0.03 0.17,-0.6 v 0.07 l 0.14,-0.58 v 0.03 l 0.12,-0.6 -0.02,0.09 0.21,-1.41 -0.02,0.05 0.17,-1.97 v 0.09 -1.29 -0.03 l 0.04,-2.18 v 0 l 0.08,-5.57 v -0.05 l 0.09,-1.44 v 0.03 l 0.07,-2.04 v 0.05 -0.1 c 0,-0.34 0.2,-0.67 0.48,-0.84 0.32,-0.17 0.68,-0.17 0.96,0 0.32,0.17 0.48,0.5 0.48,0.84 v 0.1 0.04 l -0.12,2.04 v 0.03 l -0.12,1.44 v -0.07 l -0.07,5.56 v 0 l -0.05,2.19 v 0 1.29 0.08 l -0.19,1.96 v 0.03 l -0.19,1.41 v 0.08 l -0.14,0.57 v 0.05 l -0.15,0.58 v 0.04 l -0.21,0.6 v 0.03 l -0.15,0.41 v -0.08 l -0.02,0.15 c -0.03,0.07 -0.07,0.14 -0.1,0.21 l -0.09,0.15 -0.03,0.05 -0.09,0.12 0.04,-0.1 -0.04,0.1 -0.03,0.04 -0.09,0.15 c -0.03,0.05 -0.05,0.09 -0.1,0.12 l -0.1,0.09 v 0 l -0.09,0.12 0.07,-0.07 -0.1,0.1 -0.04,0.09 -0.1,0.1 -0.07,0.07 -0.19,0.17 h -0.03 l -0.09,0.07 c -0.03,0.03 -0.08,0.07 -0.12,0.1 l -0.1,0.05 v 0 l -0.07,0.04 -0.07,0.03 -0.12,0.05 0.09,-0.05 -0.09,0.05 c -0.08,0.04 -0.15,0.07 -0.24,0.09 l -0.12,0.03 0.24,-0.08 -0.08,0.03 c -0.07,0.05 -0.16,0.07 -0.24,0.09 l -0.12,0.03 0.05,-0.03 -0.07,0.03 v 0 l -0.1,0.02 c -0.07,0.03 -0.14,0.03 -0.24,0.03 h -0.09 0.19 -0.1 c -0.07,0.02 -0.12,0.04 -0.19,0.04 h -0.09 v 0 h -0.1 -0.02 -0.03 l -0.05,-0.02 -0.62,-0.05 h 0.05 -0.05 c -0.26,0 -0.5,-0.12 -0.67,-0.31 v -0.02 l 0.62,0.31 v 0 0 h -0.02 -0.07 -0.03 0.05 -0.02 c -0.15,0 -0.27,-0.05 -0.41,-0.12 l -0.03,-0.03 c -0.28,-0.16 -0.45,-0.48 -0.45,-0.81 v -0.03 l 0.86,0.94 h -0.05 c -0.24,-0.02 -0.45,-0.12 -0.62,-0.31 l -0.02,-0.03 v 0 -0.02 l 0.6,0.31 v 0 c -0.27,-0.02 -0.51,-0.14 -0.65,-0.33 l -0.03,-0.03 0.03,0.03 -0.03,-0.03 v 0 l -0.02,-0.02 v 0 l -0.02,-0.03 v -0.02 l -0.05,-0.02 c -0.12,-0.17 -0.19,-0.36 -0.17,-0.6 v 0 l 0.22,0.6 -0.05,-0.03 h 0.02 l -0.02,-0.02 c -0.15,-0.17 -0.22,-0.39 -0.22,-0.6 v -0.03 c 0.03,-0.16 0.07,-0.31 0.15,-0.43 l 0.12,-0.19 c 0.19,-0.29 0.55,-0.43 0.88,-0.34 0.34,0.1 0.58,0.39 0.58,0.75 z"
         style="fill:#000000;fill-opacity:1;fill-rule:nonzero;stroke:none"
         transform="matrix(1.3333333,0,0,-1.3333333,0,1120.8)" />
    </g>
    <g
       id="g153">
      <path
         id="path153"
         d="m 246.6,762.89 -0.1,-0.27 c -0.02,-0.12 -0.02,-0.21 0,-0.33 l 0.34,-2.26 -0.02,0.03 0.4,-3.39 v 0.05 l 0.03,-0.46 v 0 l 0.17,-3.72 v 0.05 -0.81 0 l -0.03,-0.99 0.03,0.17 -0.12,-0.67 0.07,0.24 -0.12,-0.19 0.77,0.52 v 0 c -0.36,-0.04 -0.68,-0.26 -0.82,-0.6 l -0.02,-0.02 v 0 -0.02 l 0.33,0.4 h -0.02 c -0.15,-0.12 -0.27,-0.26 -0.31,-0.4 l -0.03,-0.03 v 0 -0.02 c -0.17,-0.39 -0.09,-0.84 0.19,-1.13 l 0.03,-0.02 c 0.14,-0.17 0.33,-0.29 0.53,-0.34 h 0.04 l -0.55,0.34 0.03,-0.05 -0.24,1.03 v 0 c -0.17,-0.5 0.07,-1.06 0.55,-1.3 l 0.02,-0.02 -0.33,0.24 0.04,-0.02 c 0.15,-0.17 0.34,-0.27 0.56,-0.34 h 0.04 l -0.6,0.34 0.05,-0.03 c 0.07,-0.09 0.19,-0.19 0.31,-0.24 l 0.03,-0.02 -0.34,0.26 0.03,-0.02 c 0.14,-0.17 0.31,-0.27 0.48,-0.31 l 0.09,-0.05 h 0.03 l 0.4,-0.12 h -0.04 l 1,-0.34 -0.16,0.07 0.88,-0.45 0.08,-0.05 0.21,-0.1 v 0 l 0.22,-0.09 c 0.57,-0.24 1.25,0.05 1.51,0.6 0.26,0.6 -0.02,1.27 -0.58,1.53 l -0.21,0.1 v 0 l -0.22,0.1 0.07,-0.05 -0.88,0.45 c -0.03,0.03 -0.1,0.08 -0.15,0.08 l -1.03,0.36 h -0.05 l -0.41,0.12 -0.09,0.02 h -0.1 l 0.31,-0.1 -0.02,0.03 c -0.34,0.17 -0.7,0.17 -1.03,0 l -0.03,-0.03 h 1.01 l -0.02,0.03 c -0.22,0.12 -0.51,0.14 -0.75,0.07 h -0.04 l 0.76,-0.07 h -0.04 c -0.32,0.17 -0.68,0.17 -0.99,0 h -0.02 c -0.53,-0.27 -0.75,-0.89 -0.51,-1.39 0.22,-0.56 0.84,-0.82 1.37,-0.6 0.55,0.19 0.84,0.79 0.67,1.34 h -0.02 c -0.1,0.29 -0.29,0.53 -0.53,0.65 l -0.05,0.05 c -0.21,0.09 -0.48,0.12 -0.72,0.07 h -0.04 l 0.74,-0.1 -0.05,0.03 0.51,-0.53 v 0.02 0 l -0.03,0.03 c -0.07,0.14 -0.17,0.28 -0.33,0.4 v 0 l 0.33,-0.4 -0.02,0.02 v 0 0.02 c -0.15,0.34 -0.46,0.56 -0.82,0.6 v 0 c -0.5,0.05 -0.98,-0.28 -1.05,-0.76 -0.1,-0.51 0.21,-0.99 0.69,-1.13 0.48,-0.12 0.99,0.12 1.15,0.6 l 0.08,0.21 c 0.02,0.08 0.04,0.12 0.04,0.2 l 0.12,0.64 c 0,0.08 0,0.1 0,0.17 v 0.99 0 l -0.02,0.81 v 0.05 l -0.26,3.74 v 0 l -0.03,0.46 v 0.05 l -0.5,3.38 -0.03,0.07 -0.48,2.24 v -0.29 l 0.05,0.29 c 0.05,0.36 -0.19,0.72 -0.55,0.79 -0.38,0.09 -0.74,-0.12 -0.84,-0.48 z"
         style="fill:#000000;fill-opacity:1;fill-rule:nonzero;stroke:none"
         transform="matrix(1.3333333,0,0,-1.3333333,0,1120.8)" />
    </g>
    <g
       id="g154">
      <path
         id="path154"
         d="m 261.84,762.86 v 0.03 c -0.02,0.36 -0.31,0.69 -0.7,0.72 -0.36,0.05 -0.72,-0.19 -0.79,-0.55 l -0.05,-0.17 -0.02,-0.1 -0.05,-0.17 h 0.03 l -0.03,-0.16 c -0.02,-0.05 -0.02,-0.1 -0.02,-0.17 v -0.48 0.02 -0.29 -0.04 l 0.09,-4.18 v 0 l 0.12,-3.7 v 0 l 0.05,-1.82 v -0.02 l 0.12,-6.05 v -0.05 l 0.15,-2.11 v 0 l 0.02,-0.31 c 0,-0.32 0.19,-0.6 0.48,-0.75 0.29,-0.14 0.62,-0.12 0.91,0.05 0.27,0.17 0.41,0.48 0.41,0.82 l -0.02,0.31 v 0 l -0.15,2.11 v -0.02 l -0.19,6.04 v 0 l -0.05,1.83 v 0.05 l -0.14,3.67 v 0 l -0.17,4.17 v 0 0.29 0.03 l -0.05,0.5 v -0.07 0.17 0 0.19 -0.07 l 0.05,0.19 -0.1,-0.24 0.03,0.02 c 0.05,0.1 0.07,0.22 0.07,0.31 z"
         style="fill:#000000;fill-opacity:1;fill-rule:nonzero;stroke:none"
         transform="matrix(1.3333333,0,0,-1.3333333,0,1120.8)" />
    </g>
    <g
       id="g155">
      <path
         id="path155"
         d="m 261,755.38 -0.22,0.16 c -0.09,0.1 -0.24,0.15 -0.38,0.17 v 0 c -0.31,0.03 -0.6,-0.12 -0.74,-0.38 -0.15,-0.27 -0.12,-0.6 0.04,-0.82 0.22,-0.24 0.53,-0.33 0.82,-0.26 0.26,0.09 0.48,0.33 0.53,0.65 v 0 c 0.02,0.36 -0.17,0.67 -0.51,0.79 v 0 l -0.07,0.02 -0.02,0.03 0.17,-0.08 h -0.03 c -0.05,0.03 -0.09,0.05 -0.17,0.08 v 0 0 h -0.02 c -0.22,0.04 -0.46,0 -0.62,-0.12 -0.2,-0.12 -0.32,-0.32 -0.32,-0.56 v 0 c -0.07,-0.4 0.24,-0.79 0.65,-0.84 0.41,-0.09 0.79,0.2 0.87,0.6 0.09,0.41 -0.17,0.8 -0.58,0.92 v 0 0 h -0.02 c -0.39,0.07 -0.8,-0.12 -0.92,-0.51 l -0.02,-0.02 0.84,0.53 v 0 c -0.41,0.04 -0.77,-0.22 -0.89,-0.6 v -0.03 l 0.89,0.63 h -0.02 c -0.39,0.04 -0.72,-0.2 -0.84,-0.53 l -0.03,-0.03 c -0.09,-0.28 0,-0.62 0.22,-0.84 0.24,-0.24 0.57,-0.28 0.89,-0.14 0.28,0.14 0.48,0.43 0.45,0.74 0,0.34 -0.21,0.63 -0.53,0.72 v 0.03 c -0.24,0.07 -0.5,0.05 -0.72,-0.07 -0.19,-0.15 -0.33,-0.36 -0.36,-0.6 v -0.03 c -0.04,-0.31 0.12,-0.62 0.41,-0.79 0.29,-0.14 0.65,-0.14 0.89,0.07 0.26,0.19 0.36,0.55 0.26,0.87 -0.07,0.31 -0.36,0.52 -0.67,0.57 h -0.02 c -0.41,0.05 -0.77,-0.21 -0.87,-0.62 v -0.03 0.1 -0.02 l -0.02,-0.08 v -0.02 -0.1 -0.02 l 0.12,0.34 -0.05,-0.03 c -0.05,-0.09 -0.09,-0.21 -0.12,-0.36 v -0.02 l 0.12,0.36 v -0.03 c -0.07,-0.12 -0.12,-0.24 -0.12,-0.36 l -0.02,-0.04 v 0 -0.03 -0.05 -0.09 -0.03 -0.02 c -0.03,-0.22 0.07,-0.43 0.21,-0.6 l 0.03,-0.02 -0.22,0.62 v -0.02 c -0.02,-0.22 0.05,-0.44 0.22,-0.6 l 0.02,-0.03 -0.24,0.63 v -0.05 c 0,-0.12 0.03,-0.27 0.07,-0.39 l 0.03,-0.04 c 0.05,-0.08 0.09,-0.15 0.14,-0.22 l 0.03,-0.02 v 0 h 0.02 c 0.14,-0.17 0.36,-0.27 0.58,-0.29 h 0.02 l -0.82,0.89 v -0.05 c -0.02,-0.22 0.08,-0.43 0.22,-0.6 h 0.02 v 0 -0.03 c 0.17,-0.16 0.36,-0.26 0.6,-0.26 v 0 l -0.57,0.26 0.02,-0.02 v 0 -0.02 0 h 0.05 v 0 -0.03 c 0.14,-0.17 0.36,-0.26 0.6,-0.26 v 0 0 h 0.02 l -0.6,0.26 0.03,-0.02 c 0.07,-0.07 0.14,-0.12 0.21,-0.17 l 0.05,-0.02 c 0.05,0 0.07,-0.03 0.12,-0.05 h 0.05 -0.02 l 0.04,-0.03 0.08,-0.02 0.04,-0.02 v 0 h 0.08 v 0 l 0.07,-0.03 v 0 l 0.07,-0.02 c 0.07,-0.03 0.12,-0.03 0.19,-0.03 h 0.07 v 0 h 0.17 v 0 H 261 c 0.5,0 0.89,0.39 0.89,0.87 0,0.48 -0.39,0.89 -0.89,0.89 h -0.05 v 0 h -0.17 v 0 h -0.07 l 0.22,-0.03 h -0.05 v 0 l -0.1,0.03 v 0 h -0.04 v 0 l -0.08,0.02 0.05,-0.02 -0.05,0.02 h 0.05 l -0.07,0.02 0.12,-0.04 h -0.05 l 0.24,-0.15 -0.02,0.03 c -0.17,0.16 -0.41,0.24 -0.63,0.24 h -0.02 v 0 0 l 0.62,-0.24 h -0.02 v 0 l -0.02,0.02 v 0 l -0.03,0.02 v 0 0 c -0.17,0.17 -0.41,0.24 -0.65,0.24 v 0 l 0.63,-0.24 -0.03,0.03 v 0 0 l 0.27,-0.6 v 0.05 c -0.03,0.24 -0.1,0.43 -0.27,0.6 -0.19,0.16 -0.4,0.24 -0.62,0.24 h -0.02 l 0.62,-0.24 -0.02,0.02 v 0 l -0.03,0.02 0.19,-0.24 -0.02,0.03 0.1,-0.36 v 0.05 c -0.03,0.21 -0.1,0.43 -0.27,0.57 l -0.02,0.03 0.26,-0.6 v 0.02 c 0,0.22 -0.09,0.43 -0.26,0.58 l -0.03,0.02 0.29,-0.6 -0.02,0.02 v 0.03 0.09 0.05 0.03 0 l -0.03,0.04 -0.02,-0.4 v 0.04 c 0.05,0.12 0.07,0.27 0.05,0.39 v 0.02 l -0.05,-0.38 0.02,0.05 c 0.05,0.12 0.05,0.24 0.05,0.38 v 0.02 l -0.02,0.1 -0.03,0.02 v 0.08 l -0.02,0.02 0.02,-0.1 v 0.03 c -0.09,0.43 -0.5,0.69 -0.93,0.6 -0.41,-0.07 -0.7,-0.48 -0.65,-0.91 0.07,-0.44 0.48,-0.72 0.89,-0.68 h 0.02 c 0.22,0.03 0.41,0.12 0.53,0.32 0.14,0.16 0.19,0.36 0.19,0.57 v 0.03 l -0.53,-0.84 v 0 c 0.41,0.14 0.65,0.6 0.48,1 v 0.03 c -0.14,0.38 -0.55,0.6 -0.96,0.48 -0.38,-0.1 -0.64,-0.51 -0.55,-0.91 0.07,-0.41 0.43,-0.68 0.87,-0.63 h 0.02 c 0.22,0.03 0.41,0.15 0.55,0.34 0.12,0.17 0.17,0.41 0.12,0.62 v 0.03 c -0.12,0.4 -0.53,0.67 -0.91,0.6 -0.43,-0.08 -0.72,-0.48 -0.65,-0.92 0.07,-0.4 0.46,-0.69 0.89,-0.64 v 0 c 0.24,0.02 0.46,0.16 0.58,0.36 0.14,0.19 0.14,0.45 0.07,0.67 v 0.02 c -0.15,0.39 -0.58,0.63 -0.99,0.48 -0.38,-0.12 -0.62,-0.53 -0.5,-0.93 0.12,-0.41 0.5,-0.68 0.94,-0.56 h 0.02 v 0 0 c 0.38,0.08 0.62,0.44 0.6,0.84 v 0 l -0.6,-0.81 h 0.02 v 0 0 c 0.08,0 0.12,0.02 0.17,0.05 l 0.03,0.02 -0.17,-0.07 h 0.02 l 0.07,0.02 v 0.03 c 0.39,0.12 0.58,0.52 0.48,0.88 -0.12,0.39 -0.48,0.6 -0.86,0.53 -0.38,-0.07 -0.65,-0.41 -0.6,-0.81 v 0 c 0.02,-0.2 0.12,-0.39 0.26,-0.51 0.17,-0.14 0.36,-0.17 0.58,-0.17 v 0 h -0.07 0.29 c 0.26,0 0.5,0.2 0.57,0.44 0.1,0.26 0.03,0.52 -0.19,0.72 z"
         style="fill:#000000;fill-opacity:1;fill-rule:nonzero;stroke:none"
         transform="matrix(1.3333333,0,0,-1.3333333,0,1120.8)" />
    </g>
    <g
       id="g156">
      <path
         id="path156"
         d="m 259.75,753.38 v -0.04 l 0.05,0.16 v -0.04 c -0.05,-0.05 -0.07,-0.12 -0.07,-0.2 l -0.03,-0.04 0.08,0.19 -0.03,-0.03 v 0 l -0.02,-0.04 v 0 l -0.03,-0.05 0.08,0.12 -0.03,-0.03 c -0.02,-0.04 -0.05,-0.09 -0.07,-0.12 l -0.07,-0.14 0.09,0.14 -0.02,-0.04 -0.07,-0.1 -0.05,-0.07 v 0 L 259.54,753 c -0.05,-0.07 -0.08,-0.12 -0.1,-0.19 l -0.05,-0.19 0.05,0.14 -0.12,-0.26 0.05,0.09 -0.03,-0.05 -0.02,-0.04 -0.05,-0.05 v 0 -0.03 c -0.05,-0.02 -0.05,-0.07 -0.07,-0.09 v -0.07 l 0.19,0.31 -0.05,-0.03 c -0.12,-0.12 -0.21,-0.28 -0.24,-0.45 l -0.02,-0.12 0.05,0.14 -0.03,-0.05 -0.02,-0.04 v -0.08 0.08 -0.05 c -0.05,-0.07 -0.05,-0.17 -0.07,-0.24 v -0.07 l 0.02,0.19 v -0.07 l 0.07,0.16 -0.09,-0.14 c -0.15,-0.22 -0.15,-0.5 -0.03,-0.74 l 0.03,-0.05 c 0.14,-0.31 0.45,-0.51 0.79,-0.48 h 0.46 0.02 l 0.12,0.02 v 0 h 0.14 -0.07 0.39 -0.08 l 0.22,-0.02 h 0.07 0.05 c 0.34,0 0.62,0.17 0.79,0.43 0.15,0.26 0.15,0.62 0,0.89 -0.17,0.26 -0.45,0.45 -0.79,0.43 h -0.05 0.07 l -0.24,0.02 h -0.04 l -0.39,-0.02 c -0.05,0 -0.12,0 -0.17,-0.02 h -0.12 v 0 l -0.12,-0.05 0.08,0.02 -0.46,-0.05 h 0.22 -0.08 c -0.38,0.08 -0.79,-0.16 -0.88,-0.57 -0.1,-0.39 0.09,-0.79 0.45,-0.94 0.39,-0.14 0.82,0 1.01,0.36 l 0.07,0.15 c 0.05,0.07 0.07,0.14 0.07,0.21 l 0.03,0.07 c 0,0.08 0.02,0.15 0,0.2 v 0.07 l -0.03,-0.27 0.03,0.05 v 0.05 l 0.02,0.07 -0.02,-0.05 0.02,0.05 0.03,0.1 0.02,0.12 -0.22,-0.41 0.05,0.05 c 0.07,0.09 0.12,0.19 0.17,0.29 v 0.07 l -0.02,-0.1 0.02,0.03 v 0 0.04 l -0.05,-0.12 0.05,0.08 c 0,0.04 0.02,0.07 0.05,0.14 l 0.09,0.29 v 0.07 l 0.05,0.19 -0.02,-0.09 0.02,0.04 v 0 l 0.03,0.08 -0.03,-0.08 0.03,0.08 0.02,0.04 0.07,0.15 0.03,0.07 v 0.05 l 0.02,0.05 v 0.04 0 0.05 0 l 0.02,0.07 c 0,0.05 0,0.12 0,0.2 v 0.04 -0.21 0.05 c 0,0.07 0,0.16 0,0.24 v 0.04 c -0.04,0.32 -0.31,0.53 -0.62,0.53 -0.34,0 -0.6,-0.21 -0.65,-0.53 z"
         style="fill:#000000;fill-opacity:1;fill-rule:nonzero;stroke:none"
         transform="matrix(1.3333333,0,0,-1.3333333,0,1120.8)" />
    </g>
    <g
       id="g157">
      <path
         id="path157"
         d="m 245.98,736.61 0.21,-0.05 c 0.07,-0.02 0.12,-0.02 0.19,-0.02 l 1.85,0.02 v 0 l 2.28,0.1 h -0.05 l 4.52,-0.17 v 0 l 1.96,-0.03 v 0 l 0.75,-0.02 h -0.03 l 2.69,-0.02 v 0 h 3.79 l -0.31,0.04 0.1,-0.02 c 0.09,-0.05 0.19,-0.07 0.31,-0.07 h 0.05 c 0.31,0 0.57,0.17 0.72,0.41 0.14,0.26 0.14,0.6 0,0.84 -0.15,0.26 -0.41,0.43 -0.72,0.4 h -0.05 l 0.31,-0.04 -0.09,0.02 c -0.1,0.05 -0.22,0.07 -0.34,0.07 l -3.79,-0.14 h 0.05 l -2.69,0.02 v 0 h -0.75 0.03 l -1.95,0.03 v 0 l -4.51,0.04 h -0.05 l -2.28,-0.12 v 0 l -1.84,-0.07 h -0.05 l -0.24,-0.02 c -0.27,-0.05 -0.48,-0.29 -0.51,-0.55 -0.02,-0.29 0.15,-0.56 0.44,-0.65 z"
         style="fill:#000000;fill-opacity:1;fill-rule:nonzero;stroke:none"
         transform="matrix(1.3333333,0,0,-1.3333333,0,1120.8)" />
    </g>
    <g
       id="g158">
      <path
         id="path158"
         d="m 256.25,738.53 -0.1,0.05 v 0 l -0.09,0.07 -0.08,0.05 -0.09,0.02 v 0 l -0.1,0.05 v 0 l -0.09,0.05 c -0.03,0 -0.08,0.02 -0.12,0.02 l -0.12,0.02 0.07,-0.02 -0.1,0.05 h -0.05 l -0.12,0.05 0.05,-0.03 -0.12,0.03 v 0.02 h -0.12 l -0.12,0.02 -0.09,0.03 v 0 h -0.1 -0.12 -0.12 v 0 h -0.1 v 0 l -0.09,-0.03 v 0 h -0.12 c -0.03,-0.02 -0.07,-0.02 -0.12,-0.02 l -0.1,-0.02 0.12,0.02 h -0.09 c -0.08,-0.02 -0.15,-0.02 -0.24,-0.07 l -0.27,-0.1 -0.07,-0.02 h -0.02 v 0 l -0.03,-0.03 c -0.29,-0.14 -0.45,-0.38 -0.48,-0.67 v -0.02 l 0.27,0.55 -0.03,-0.02 0.22,0.14 -0.03,-0.02 0.39,0.07 h -0.03 c -0.21,0 -0.43,-0.05 -0.6,-0.19 -0.16,-0.17 -0.24,-0.36 -0.26,-0.6 v -0.03 l 0.46,0.7 h -0.03 c -0.07,-0.05 -0.12,-0.07 -0.19,-0.15 l -0.02,-0.02 v 0 h -0.03 c -0.17,-0.14 -0.24,-0.36 -0.26,-0.58 v -0.02 l 0.26,0.58 v -0.03 0 l -0.02,-0.02 c -0.17,-0.15 -0.27,-0.36 -0.27,-0.55 v -0.05 l 0.27,0.57 -0.03,-0.02 v 0 0 c -0.16,-0.14 -0.28,-0.36 -0.28,-0.6 v -0.02 0.02 0 -0.02 -0.05 l 0.09,0.36 v -0.03 c -0.07,-0.09 -0.09,-0.21 -0.12,-0.33 v -0.03 0 -0.02 -0.02 -0.03 0.03 0 -0.05 -0.03 0.03 0 -0.05 -0.02 c 0,-0.12 0.03,-0.24 0.07,-0.36 v -0.03 l -0.04,0.34 -0.03,-0.03 v 0 -0.02 c 0,-0.24 0.07,-0.43 0.24,-0.6 v -0.02 l -0.12,0.21 v -0.02 l -0.07,0.41 h -0.02 c 0,-0.24 0.09,-0.48 0.24,-0.65 v 0 l -0.12,0.19 v -0.02 l -0.08,0.4 v -0.02 c -0.02,-0.22 0.08,-0.43 0.22,-0.62 h 0.02 c 0.05,-0.1 0.12,-0.15 0.22,-0.2 l 0.02,-0.02 -0.36,0.41 0.03,-0.05 c 0.05,-0.12 0.14,-0.24 0.29,-0.34 l 0.04,-0.02 -0.12,0.1 0.08,-0.1 c 0.04,-0.02 0.09,-0.07 0.12,-0.1 l 0.09,-0.04 v 0 l 0.12,-0.1 c 0.03,-0.02 0.07,-0.02 0.12,-0.07 l 0.12,-0.05 -0.14,0.1 0.09,-0.1 c 0.08,-0.02 0.17,-0.07 0.24,-0.1 l 0.12,-0.02 -0.24,0.1 0.1,-0.05 c 0.07,-0.07 0.14,-0.1 0.24,-0.12 l 0.12,-0.05 v 0 l 0.1,-0.02 v 0 l 0.12,-0.05 v 0 l 0.12,-0.03 c 0.04,-0.02 0.09,-0.02 0.14,-0.02 l 0.29,-0.02 h -0.03 l 0.2,-0.05 h 0.09 l 0.65,-0.05 h 0.07 0.07 c 0.08,0 0.12,0 0.17,0 h 0.1 -0.15 0.08 c 0.04,0 0.09,0 0.14,0 l 0.1,0.05 h 0.02 0.1 -0.03 l 0.1,0.02 c 0.05,0 0.09,0.03 0.14,0.03 l 0.07,0.02 0.05,0.02 0.22,0.08 -0.31,-0.05 v 0 0 h 0.02 c 0.24,0 0.46,0.09 0.62,0.26 v 0.03 l -0.6,-0.27 v 0 c 0.24,0 0.48,0.1 0.65,0.27 v 0 0 l 0.03,0.02 v 0 h 0.02 l -0.62,-0.24 v 0 c 0.24,0 0.45,0.1 0.62,0.24 l 0.02,0.02 v 0 0.03 0 h 0.03 c 0.17,0.17 0.26,0.41 0.26,0.62 v 0.03 l -0.26,-0.63 0.02,0.03 v 0 0.02 c 0.17,0.14 0.29,0.36 0.29,0.6 v 0.02 l -0.29,-0.62 0.05,0.02 c 0.14,0.17 0.24,0.39 0.24,0.63 v 0 l -0.24,-0.6 v 0 c 0.17,0.17 0.26,0.41 0.26,0.62 v 0.03 0 0 0 0.02 0 0.02 l -0.26,-0.62 h 0.02 c 0.17,0.17 0.24,0.41 0.24,0.65 v 0 0 0.02 0 0.03 0 0.02 c 0,0.14 -0.02,0.29 -0.07,0.41 l -0.02,0.02 0.09,-0.38 v 0 0 0.02 0 0.05 c 0,0.22 -0.09,0.46 -0.26,0.6 v 0.02 0 l -0.02,0.03 0.26,-0.65 v 0.05 c 0,0.12 -0.05,0.26 -0.1,0.38 l -0.02,0.03 c -0.14,0.31 -0.46,0.48 -0.77,0.5 h -0.02 l 0.86,-0.89 v 0.03 c 0,0.24 -0.09,0.45 -0.24,0.62 l -0.02,0.02 v -0.02 l -0.03,0.05 v 0 h -0.02 v 0 0.02 0 l -0.02,0.03 v 0 h -0.03 c -0.17,0.16 -0.36,0.26 -0.6,0.26 h -0.02 l 0.62,-0.26 -0.02,0.02 v 0 h -0.03 c -0.07,0.1 -0.14,0.14 -0.21,0.17 l -0.05,0.05 0.24,-0.2 v 0.03 c -0.12,0.09 -0.24,0.17 -0.36,0.21 l -0.05,0.03 0.17,-0.1 -0.07,0.05 c -0.07,0.05 -0.12,0.07 -0.19,0.1 l -0.1,0.02 v 0 l -0.1,0.05 0.05,-0.05 -0.07,0.05 -0.05,0.02 -0.09,0.03 -0.12,0.02 -0.08,0.02 -0.02,0.03 h -0.1 v 0 l -0.12,0.02 h -0.07 l -0.19,0.03 h -0.07 -0.1 c -0.31,0 -0.6,-0.17 -0.77,-0.46 -0.16,-0.26 -0.16,-0.6 0,-0.86 0.17,-0.29 0.46,-0.46 0.77,-0.46 h 0.1 -0.07 0.21 -0.09 0.12 v 0 l 0.09,-0.02 h -0.05 0.1 l -0.1,0.02 0.08,-0.02 h -0.03 l 0.07,-0.03 0.05,-0.02 0.1,-0.05 v 0 l 0.09,-0.02 -0.16,0.07 0.09,-0.05 c 0.03,-0.02 0.1,-0.05 0.15,-0.07 h 0.07 l -0.34,0.19 v 0 c 0.07,-0.07 0.15,-0.12 0.24,-0.17 l 0.03,-0.02 -0.24,0.17 0.02,-0.03 v 0.03 l 0.02,-0.05 c 0.17,-0.17 0.39,-0.24 0.63,-0.24 h 0.02 l -0.65,0.24 h 0.05 v 0 -0.03 0 l 0.03,-0.02 v 0 0 0 l 0.02,-0.02 v 0 h 0.02 l -0.26,0.6 v -0.03 c 0,-0.24 0.1,-0.45 0.26,-0.62 0.17,-0.17 0.39,-0.24 0.63,-0.24 h 0.02 l -0.81,0.48 0.02,-0.05 -0.1,0.41 v -0.05 c 0,-0.22 0.1,-0.43 0.27,-0.6 l 0.02,-0.02 v 0 h 0.03 l -0.27,0.62 v -0.05 0 -0.02 0 0 c 0,-0.15 0.03,-0.29 0.07,-0.41 l 0.05,-0.02 -0.12,0.38 v -0.02 0 -0.03 0 -0.02 0 0 l 0.27,0.6 h -0.03 c -0.17,-0.17 -0.24,-0.41 -0.24,-0.63 v -0.02 0 -0.02 0 0 0 -0.03 l 0.24,0.63 v -0.03 c -0.17,-0.17 -0.26,-0.38 -0.26,-0.62 v 0 l 0.26,0.6 h -0.02 c -0.17,-0.17 -0.27,-0.41 -0.27,-0.63 v -0.02 l 0.27,0.62 -0.03,-0.02 v 0 0 c -0.16,-0.17 -0.26,-0.38 -0.26,-0.62 v -0.03 l 0.26,0.63 h -0.02 v 0 l -0.02,-0.05 v 0 0 l 0.6,0.24 v 0 c -0.24,0 -0.48,-0.07 -0.63,-0.24 l -0.02,-0.03 v 0 l -0.03,-0.02 v 0 0 l 0.6,0.24 v 0 c -0.24,0 -0.45,-0.07 -0.62,-0.24 l -0.02,-0.02 0.62,0.26 h -0.02 v 0 0 c -0.12,0 -0.22,-0.02 -0.32,-0.07 l -0.21,-0.07 0.02,0.02 -0.09,-0.05 0.14,0.05 -0.1,-0.02 h -0.04 l -0.08,-0.03 h 0.03 l -0.1,-0.02 0.15,0.02 h -0.08 c -0.04,0 -0.09,0 -0.16,-0.02 h -0.08 0.12 -0.07 0.05 l -0.65,0.05 h 0.07 l -0.24,0.02 h -0.02 l -0.26,0.05 0.12,-0.05 -0.12,0.05 v 0 l -0.12,0.05 v 0 l -0.12,0.02 v 0 l -0.1,0.02 0.24,-0.12 -0.1,0.08 c -0.07,0.04 -0.16,0.07 -0.24,0.12 l -0.12,0.02 0.24,-0.12 -0.09,0.07 c -0.05,0.03 -0.1,0.05 -0.15,0.07 l -0.12,0.05 0.15,-0.07 -0.1,0.07 v 0 l -0.09,0.05 0.12,-0.1 -0.08,0.08 c -0.04,0.04 -0.09,0.07 -0.14,0.12 l -0.05,0.02 0.29,-0.31 -0.02,0.05 c -0.08,0.14 -0.22,0.26 -0.39,0.36 l -0.02,0.02 0.21,-0.14 h -0.02 l 0.26,-0.58 v 0.02 c 0,0.12 -0.04,0.24 -0.09,0.34 l -0.03,0.05 c -0.04,0.07 -0.09,0.17 -0.16,0.21 l -0.03,0.03 0.29,-0.55 v 0 c -0.02,0.12 -0.05,0.24 -0.1,0.33 l -0.02,0.05 c -0.05,0.07 -0.1,0.14 -0.17,0.22 l -0.02,0.02 0.26,-0.6 v 0.02 0 0.03 c 0,0.17 -0.05,0.29 -0.09,0.41 l -0.03,0.02 0.12,-0.38 v 0.02 0.05 0 -0.03 0.03 0.05 0 -0.03 0.03 0.02 l -0.02,0.02 v 0 0.03 l -0.07,-0.41 v 0.05 c 0.07,0.12 0.09,0.24 0.09,0.36 v 0.05 0.02 0 -0.02 0.02 l -0.21,-0.58 v 0.03 0 l 0.02,0.02 c 0.14,0.15 0.22,0.36 0.22,0.58 v 0.05 l -0.22,-0.6 0.02,0.02 v 0 0 c 0.17,0.17 0.24,0.38 0.22,0.6 v 0.02 l -0.22,-0.57 0.03,0.02 v 0 l 0.02,0.03 -0.21,-0.2 0.02,0.03 c 0.26,0.14 0.43,0.43 0.43,0.74 v 0.03 l -0.77,-0.82 h 0.03 c 0.12,0 0.21,0.02 0.33,0.1 h 0.03 c 0.09,0.04 0.14,0.12 0.21,0.16 l 0.03,0.03 c 0.14,0.17 0.21,0.38 0.19,0.6 v 0.02 l -0.41,-0.79 0.03,0.05 v 0 h 0.02 l -0.05,-0.03 0.27,0.12 -0.12,-0.04 0.12,0.02 c 0.02,0.02 0.07,0.05 0.09,0.05 l 0.1,0.05 -0.15,-0.05 0.12,0.02 0.03,0.03 h 0.09 v 0 l 0.1,0.02 h -0.02 l 0.12,0.02 -0.1,-0.02 0.1,0.02 v 0 h 0.09 -0.09 0.12 v 0 l 0.09,-0.02 v 0 h 0.12 -0.02 0.09 v 0 h 0.12 -0.12 l 0.12,-0.02 v 0 h 0.1 v 0 l 0.1,-0.05 -0.1,0.05 0.1,-0.05 v 0 l 0.12,-0.05 c 0.28,-0.12 0.64,0 0.79,0.31 0.14,0.29 0.05,0.65 -0.24,0.82 z"
         style="fill:#000000;fill-opacity:1;fill-rule:nonzero;stroke:none"
         transform="matrix(1.3333333,0,0,-1.3333333,0,1120.8)" />
    </g>
    <g
       id="g159">
      <path
         id="path159"
         d="m 247.22,724.61 0.03,-0.03 c 0.09,-0.12 0.21,-0.21 0.38,-0.26 l 0.1,-0.05 c 0.05,-0.02 0.09,-0.02 0.12,-0.02 l 0.12,-0.05 v 0 l 0.12,-0.02 -0.15,0.04 0.12,-0.04 c 0.05,-0.03 0.1,-0.03 0.17,-0.05 h 0.12 c 0.05,-0.03 0.1,-0.03 0.15,-0.03 l 0.28,-0.02 h 0.03 l 0.96,0.02 h 0.02 l 0.58,0.03 h -0.03 l 1.49,0.07 h 0.03 l 0.19,0.02 c 0.33,0.03 0.6,0.22 0.74,0.53 0.12,0.29 0.1,0.63 -0.09,0.89 -0.2,0.26 -0.51,0.41 -0.84,0.36 l -0.17,-0.02 0.02,0.02 -1.44,-0.12 h -0.05 l -0.55,-0.05 h 0.03 l -0.96,-0.05 h 0.04 -0.28 l 0.09,-0.02 -0.12,0.02 0.12,-0.02 -0.12,0.05 c -0.02,0 -0.07,0 -0.12,0 l -0.12,0.02 v 0 h -0.12 0.15 l -0.12,0.03 0.26,-0.15 -0.02,0.03 c -0.32,0.24 -0.8,0.21 -1.08,-0.08 -0.29,-0.28 -0.32,-0.74 -0.08,-1.05 z"
         style="fill:#000000;fill-opacity:1;fill-rule:nonzero;stroke:none"
         transform="matrix(1.3333333,0,0,-1.3333333,0,1120.8)" />
    </g>
    <g
       id="g160">
      <path
         id="path160"
         d="m 246.34,731.54 0.04,-0.19 v 0 l 0.08,-0.5 0.02,-0.05 0.07,-0.36 -0.02,0.05 0.14,-0.99 v 0.05 l 0.07,-1.17 v 0.02 -1.8 -0.05 l 0.03,-0.93 0.02,-0.1 0.03,-0.1 c 0.07,-0.38 0.43,-0.62 0.81,-0.55 0.39,0.1 0.63,0.46 0.55,0.82 l -0.02,0.09 0.02,-0.09 -0.04,0.93 v -0.02 l -0.03,1.82 v 0.03 l -0.05,1.2 -0.02,0.05 -0.14,0.98 v 0.05 l -0.08,0.36 v 0 l -0.09,0.5 -0.03,0.07 -0.04,0.17 c -0.08,0.34 -0.44,0.55 -0.8,0.48 -0.33,-0.07 -0.57,-0.43 -0.52,-0.77 z"
         style="fill:#000000;fill-opacity:1;fill-rule:nonzero;stroke:none"
         transform="matrix(1.3333333,0,0,-1.3333333,0,1120.8)" />
    </g>
    <g
       id="g161">
      <path
         id="path161"
         d="m 247.68,731.81 v 0.05 c -0.02,0.33 -0.26,0.6 -0.6,0.62 -0.34,0.05 -0.62,-0.17 -0.7,-0.48 -0.09,-0.31 0.05,-0.65 0.36,-0.79 l 0.29,-0.12 0.07,-0.05 h 0.08 c 0.04,-0.05 0.12,-0.05 0.21,-0.05 l 0.12,-0.02 -0.12,0.02 0.15,-0.02 h -0.03 l 0.12,-0.03 c 0.03,-0.02 0.07,-0.02 0.12,-0.02 h 0.12 v 0 h 0.12 c 0.03,0 0.07,0 0.12,0 h 0.12 v 0 l 0.29,0.05 h 0.02 l 0.36,0.05 h -0.07 l 3.6,0.09 v 0 l 3.43,0.1 v 0 l 1.42,0.05 h -0.05 l 2.14,-0.03 v 0 h 0.81 v 0 h 0.22 -0.05 0.29 -0.02 l 0.81,-0.07 -0.09,0.02 0.16,-0.02 v 0 l 0.15,-0.02 0.12,-0.03 h 0.17 0.04 l 0.36,0.03 h -0.02 0.41 -0.05 0.02 v 0 h 0.05 c 0.53,0 0.94,0.43 0.96,0.93 0,0.53 -0.43,0.96 -0.96,0.96 -0.53,0 -0.93,-0.41 -0.96,-0.93 v -0.03 c 0,-0.5 0.41,-0.93 0.91,-0.96 h 0.03 0.02 0.03 c 0.52,0 0.96,0.41 0.96,0.94 0.02,0.53 -0.39,0.96 -0.92,0.98 -0.52,0 -0.96,-0.38 -0.98,-0.91 v -0.02 -0.05 0 c 0,-0.53 0.38,-0.94 0.91,-0.96 v 0 l -0.65,0.26 h 0.05 l -0.29,0.67 V 732 c 0,-0.05 0,-0.1 0.03,-0.17 l 0.02,-0.21 v 0.26 l -0.05,-0.5 0.03,0.12 -0.03,-0.08 c -0.02,-0.07 -0.02,-0.09 -0.02,-0.16 l -0.1,-1.18 v -0.05 l -0.12,-2.88 v -0.05 l 0.05,-1 c 0,-0.05 0,-0.12 0.03,-0.17 l 0.07,-0.36 v 0.07 l 0.02,-0.24 v 0.05 l 0.03,-0.17 c 0.02,-0.19 0.12,-0.41 0.26,-0.55 l 0.02,-0.03 -0.26,0.58 v -0.12 c 0.05,-0.53 0.5,-0.91 1.03,-0.89 0.55,0.05 0.94,0.53 0.91,1.06 -0.04,0.5 -0.5,0.91 -1.03,0.89 l -1.08,-0.08 h -0.02 l -1.44,-0.12 v 0 l -0.99,-0.09 h 0.1 -0.07 v 0 h -0.07 c -0.36,0 -0.68,-0.19 -0.87,-0.48 -0.17,-0.34 -0.17,-0.7 0,-1.01 0.19,-0.31 0.51,-0.5 0.87,-0.5 h 0.07 v 0 h 0.07 l 0.1,0.02 0.98,0.1 v 0 l 1.44,0.14 h -0.02 l 1.05,0.07 c 0.29,0.03 0.55,0.17 0.72,0.39 0.17,0.21 0.22,0.5 0.17,0.79 l -0.02,0.12 c -0.05,0.19 -0.15,0.36 -0.27,0.5 h -0.02 l 0.26,-0.55 v 0.17 0.02 l -0.05,0.24 -0.02,0.05 -0.07,0.34 0.02,-0.17 -0.05,1.01 v -0.08 l 0.1,2.88 v -0.04 l 0.1,1.17 -0.03,-0.14 0.03,0.07 0.02,0.12 0.05,0.48 c 0.02,0.1 0.02,0.19 0,0.29 l -0.05,0.24 0.02,-0.17 v 0.02 c 0,0.27 -0.12,0.51 -0.28,0.68 l -0.03,0.02 c -0.19,0.19 -0.43,0.29 -0.72,0.26 v 0 c -0.53,-0.02 -0.93,-0.45 -0.91,-0.98 0.02,-0.53 0.46,-0.94 0.96,-0.91 0.53,0 0.96,0.43 0.94,0.96 v 0 0.05 0.02 c -0.03,0.5 -0.44,0.91 -0.96,0.91 h -0.03 -0.02 -0.03 c -0.5,-0.02 -0.91,-0.48 -0.91,-0.98 0.03,-0.53 0.46,-0.94 0.99,-0.94 0.52,0.03 0.93,0.46 0.93,0.96 v 0.03 c -0.02,0.52 -0.43,0.93 -0.96,0.93 h -0.05 v 0 h -0.02 -0.05 l -0.41,-0.02 h 0.03 l -0.36,-0.03 h 0.05 -0.17 0.09 l -0.14,0.03 v 0 h -0.14 -0.08 l -0.79,0.02 h -0.07 -0.29 0.05 -0.22 v 0 l -0.81,-0.02 v 0 h -2.14 -0.05 l -1.39,-0.1 v 0 l -3.43,-0.14 h -0.02 l -3.56,-0.17 -0.12,-0.02 -0.36,-0.05 h 0.03 l -0.31,-0.05 -0.05,-0.02 -0.1,-0.03 0.12,0.03 -0.12,-0.03 v 0 h -0.12 0.12 l -0.12,0.03 v 0 l -0.14,0.02 h -0.1 -0.12 l 0.15,-0.02 -0.1,0.02 h -0.07 -0.34 c -0.33,0.02 -0.65,-0.24 -0.69,-0.58 -0.05,-0.33 0.19,-0.67 0.52,-0.74 0.34,-0.07 0.68,0.12 0.8,0.46 v 0.04 c 0.02,0.05 0.04,0.1 0.02,0.15 z"
         style="fill:#000000;fill-opacity:1;fill-rule:nonzero;stroke:none"
         transform="matrix(1.3333333,0,0,-1.3333333,0,1120.8)" />
    </g>
    <g
       id="g162">
      <path
         id="path162"
         d="m 250.32,702.02 0.19,0.08 0.1,0.04 1.25,0.65 v 0 l 0.88,0.48 v 0 l 1.61,0.84 v 0 l 0.58,0.31 h 0.02 l 1.47,0.84 v 0 l 1.51,0.89 -0.03,-0.02 0.44,0.24 -0.08,-0.05 0.96,0.46 -0.09,-0.05 0.26,0.07 c 0.07,0.02 0.15,0.07 0.22,0.12 l 0.31,0.19 c 0.05,0.03 0.12,0.07 0.14,0.12 l 0.08,0.05 -0.29,-0.19 0.02,0.02 c 0.05,0 0.1,0.05 0.12,0.05 l 0.07,0.05 v 0 l 0.05,0.02 -0.12,-0.05 h 0.05 c 0.02,0.03 0.07,0.05 0.12,0.08 l 0.02,0.02 -0.26,-0.12 0.12,0.02 c 0.12,0.05 0.22,0.1 0.31,0.15 l 0.1,0.07 -0.15,-0.07 0.08,0.02 c 0.5,0.24 0.74,0.79 0.52,1.32 -0.19,0.51 -0.74,0.79 -1.27,0.63 -0.5,-0.15 -0.81,-0.7 -0.72,-1.23 l 0.05,-0.14 v 0.02 l 0.12,-0.65 v 0.03 l 0.31,-1.9 v 0.05 l 0.36,-2.74 v 0.12 -0.16 0 -0.05 c 0,-0.58 0.46,-1.03 1.03,-1.03 0.58,0 1.04,0.45 1.04,1.03 v 0.05 0 0.16 c 0,0.05 0,0.1 0,0.15 l -0.34,2.73 -0.02,0.05 -0.34,1.9 v 0.02 l -0.12,0.65 v 0.02 l -0.05,0.17 c -0.07,0.34 -0.36,0.63 -0.69,0.75 -0.34,0.09 -0.75,0.02 -1.01,-0.22 l -0.05,-0.05 -0.05,-0.05 -0.07,-0.07 0.43,0.24 -0.12,-0.05 c -0.12,-0.02 -0.21,-0.07 -0.31,-0.12 l -0.05,-0.02 0.1,0.05 -0.03,-0.03 -0.09,-0.04 -0.05,-0.05 v 0 l -0.05,-0.03 0.07,0.05 h -0.02 c -0.1,-0.05 -0.17,-0.12 -0.24,-0.19 l -0.05,-0.05 0.17,0.12 -0.31,-0.19 0.21,0.12 -0.24,-0.1 -0.12,-0.02 -0.96,-0.46 -0.07,-0.04 -0.41,-0.27 h -0.02 l -1.46,-0.89 v 0 l -1.47,-0.86 h 0.03 l -0.56,-0.31 h -0.02 l -1.58,-0.91 v 0 l -0.87,-0.53 v 0 l -1.2,-0.75 v -0.02 l -0.17,-0.1 c -0.36,-0.21 -0.48,-0.67 -0.31,-1.03 0.19,-0.36 0.63,-0.55 1.01,-0.41 z"
         style="fill:#000000;fill-opacity:1;fill-rule:nonzero;stroke:none"
         transform="matrix(1.3333333,0,0,-1.3333333,0,1120.8)" />
    </g>
    <g
       id="g163">
      <path
         id="path163"
         d="m 250.15,701.5 1.68,-0.15 c 0.03,0 0.07,0 0.12,0 l 1.68,0.1 h 0.05 l 0.6,0.05 h -0.05 l 0.65,0.04 h 0.02 l 2.24,0.2 h -0.08 1.44 l 0.05,0.02 0.53,0.02 h -0.05 l 0.77,0.03 h -0.07 l 0.98,-0.07 -0.29,0.04 h 0.05 c 0.58,-0.19 1.18,0.12 1.37,0.68 0.19,0.57 -0.12,1.17 -0.7,1.36 h -0.04 c -0.1,0.05 -0.2,0.05 -0.29,0.08 l -0.99,0.04 h -0.07 l -0.77,-0.02 -0.04,-0.02 -0.53,-0.03 h 0.05 l -1.44,-0.05 h -0.08 l -2.23,-0.19 v 0 l -0.65,-0.05 -0.02,-0.02 -0.6,-0.05 h 0.05 l -1.66,-0.12 v 0 l -1.68,-0.12 c -0.45,-0.02 -0.84,-0.41 -0.84,-0.89 0,-0.45 0.36,-0.84 0.84,-0.88 z"
         style="fill:#000000;fill-opacity:1;fill-rule:nonzero;stroke:none"
         transform="matrix(1.3333333,0,0,-1.3333333,0,1120.8)" />
    </g>
    <g
       id="g164">
      <path
         id="path164"
         d="m 248.9,708.22 v -0.6 -0.1 l 0.1,-1.39 v -0.03 l 0.17,-1.51 v 0 l 0.14,-1.49 v 0.1 -0.5 0 -0.08 c 0,-0.31 0.15,-0.64 0.43,-0.79 0.29,-0.17 0.65,-0.17 0.94,0 0.29,0.15 0.46,0.48 0.46,0.79 v 0.08 0 0.5 l -0.03,0.1 -0.17,1.48 v 0 l -0.19,1.54 v 0 l -0.17,1.37 v -0.03 l -0.04,0.6 c -0.03,0.44 -0.39,0.77 -0.84,0.75 -0.44,-0.03 -0.8,-0.36 -0.8,-0.79 z"
         style="fill:#000000;fill-opacity:1;fill-rule:nonzero;stroke:none"
         transform="matrix(1.3333333,0,0,-1.3333333,0,1120.8)" />
    </g>
    <g
       id="g165">
      <path
         id="path165"
         d="m 249.43,707.54 0.29,-0.16 c 0.07,-0.03 0.17,-0.08 0.26,-0.08 l 0.2,-0.02 -0.32,0.1 0.17,-0.1 c 0.07,-0.05 0.15,-0.07 0.22,-0.1 l 0.19,-0.04 -0.12,0.04 0.17,-0.07 h -0.05 l 0.48,-0.24 -0.05,0.05 0.19,-0.14 c 0.03,-0.03 0.05,-0.05 0.1,-0.08 l 0.22,-0.07 v 0 l 0.21,-0.12 0.07,-0.02 0.48,-0.17 v 0 l 1.8,-0.65 -0.07,0.03 1.18,-0.51 -0.29,0.19 0.1,-0.09 c 0.24,-0.22 0.57,-0.31 0.88,-0.22 0.32,0.07 0.56,0.31 0.65,0.65 0.07,0.31 -0.02,0.62 -0.26,0.86 l -0.1,0.1 c -0.09,0.07 -0.17,0.14 -0.29,0.19 l -1.17,0.48 -0.07,0.03 -1.78,0.57 h 0.02 l -0.48,0.17 h 0.05 l -0.24,0.07 v 0 l -0.21,0.1 0.09,-0.05 -0.21,0.12 -0.03,0.02 -0.48,0.24 -0.09,0.05 -0.17,0.05 c -0.03,0.02 -0.07,0.02 -0.12,0.05 l -0.19,0.05 0.21,-0.1 -0.19,0.12 c -0.1,0.02 -0.19,0.07 -0.31,0.07 l -0.19,0.03 0.12,-0.03 -0.32,0.07 c -0.4,0.12 -0.79,-0.09 -0.93,-0.48 -0.15,-0.36 0.02,-0.79 0.38,-0.96 z"
         style="fill:#000000;fill-opacity:1;fill-rule:nonzero;stroke:none"
         transform="matrix(1.3333333,0,0,-1.3333333,0,1120.8)" />
    </g>
    <g
       id="g166">
      <path
         id="path166"
         d="m 253.34,712.82 0.1,-0.19 0.05,-0.07 0.29,-0.6 -0.03,0.07 0.75,-1.73 v 0.05 l 0.38,-1.01 h -0.02 l 0.52,-1.44 0.03,-0.04 0.36,-0.87 -0.07,0.19 0.02,-0.07 c 0.1,-0.53 0.58,-0.86 1.1,-0.77 0.51,0.1 0.84,0.58 0.77,1.08 v 0.1 c -0.02,0.07 -0.05,0.14 -0.07,0.22 l -0.36,0.84 0.02,-0.05 -0.52,1.46 v 0.03 l -0.39,1 -0.02,0.05 -0.79,1.73 -0.03,0.07 -0.33,0.55 -0.03,0.03 -0.12,0.19 c -0.24,0.41 -0.74,0.55 -1.17,0.36 -0.44,-0.24 -0.6,-0.72 -0.44,-1.18 z"
         style="fill:#000000;fill-opacity:1;fill-rule:nonzero;stroke:none"
         transform="matrix(1.3333333,0,0,-1.3333333,0,1120.8)" />
    </g>
    <g
       id="g167">
      <path
         id="path167"
         d="m 258.55,713.64 0.07,-2.02 0.03,-0.04 0.07,-0.75 v 0 l 0.14,-1.32 v -0.05 l 0.32,-1.94 0.02,-0.1 v -0.07 0 l 0.02,-0.07 c 0.1,-0.34 0.34,-0.6 0.7,-0.7 0.31,-0.09 0.67,0 0.94,0.24 0.24,0.24 0.33,0.6 0.26,0.94 l -0.02,0.07 v 0 l -0.03,0.07 0.03,-0.07 -0.32,1.92 v -0.05 l -0.14,1.32 v 0.03 l -0.1,0.74 v 0 l -0.24,1.99 c -0.07,0.46 -0.48,0.8 -0.93,0.77 -0.46,-0.05 -0.82,-0.43 -0.82,-0.91 z"
         style="fill:#000000;fill-opacity:1;fill-rule:nonzero;stroke:none"
         transform="matrix(1.3333333,0,0,-1.3333333,0,1120.8)" />
    </g>
    <g
       id="g168">
      <path
         id="path168"
         d="m 258.86,713.04 0.1,-0.07 c 0.07,-0.05 0.19,-0.1 0.26,-0.15 l 1.08,-0.26 0.08,-0.02 1.48,-0.27 c 0.05,-0.02 0.1,-0.02 0.17,-0.05 h 0.1 l -0.39,0.1 0.1,-0.05 c 0.07,0 0.12,-0.05 0.19,-0.05 l 0.07,-0.02 h 0.05 l 0.1,-0.02 -0.36,0.14 0.09,-0.05 c 0.05,-0.05 0.1,-0.07 0.17,-0.09 l 0.22,-0.08 h -0.03 l 0.36,-0.14 -0.26,0.14 0.1,-0.07 -0.27,1.27 -0.05,-0.07 0.53,0.48 -0.29,-0.12 0.05,0.03 -0.69,-0.27 -0.08,-0.02 -0.21,-0.1 -0.05,-0.02 -0.24,-0.12 v -0.03 l -0.53,-0.26 h -0.02 l -1.27,-0.74 -0.1,-0.08 -0.07,-0.02 0.14,0.07 -0.09,-0.05 v 0 l -0.32,-0.14 0.12,0.05 -0.02,-0.03 c -0.58,-0.16 -0.89,-0.76 -0.7,-1.34 0.2,-0.55 0.8,-0.84 1.35,-0.67 l 0.07,0.02 c 0.02,0 0.07,0.03 0.12,0.05 l 0.31,0.14 v 0 l 0.12,0.08 c 0.05,0.02 0.1,0.04 0.17,0.09 l 0.05,0.05 -0.1,-0.05 1.27,0.72 h -0.02 l 0.5,0.29 v -0.02 l 0.22,0.14 -0.05,-0.05 0.24,0.12 -0.07,-0.05 0.67,0.27 0.07,0.02 0.29,0.12 c 0.27,0.12 0.48,0.36 0.55,0.65 l 0.05,0.1 c 0.15,0.48 -0.07,1 -0.53,1.22 l -0.12,0.07 -0.09,0.05 -0.34,0.12 h -0.02 l -0.22,0.07 0.15,-0.05 -0.1,0.05 c -0.1,0.05 -0.22,0.1 -0.34,0.12 h -0.12 0.05 l -0.09,0.03 0.16,-0.05 -0.07,0.02 c -0.12,0.05 -0.26,0.07 -0.38,0.07 h -0.1 l 0.15,-0.02 -1.49,0.22 h 0.02 l -1.08,0.19 0.12,-0.03 -0.09,0.03 c -0.44,0.14 -0.89,-0.05 -1.08,-0.46 -0.22,-0.41 -0.08,-0.89 0.28,-1.15 z"
         style="fill:#000000;fill-opacity:1;fill-rule:nonzero;stroke:none"
         transform="matrix(1.3333333,0,0,-1.3333333,0,1120.8)" />
    </g>
    <g
       id="g169">
      <path
         id="path169"
         d="m 253.63,713.95 -0.05,-0.05 c -0.07,-0.04 -0.16,-0.14 -0.19,-0.24 l -0.09,-0.12 0.07,0.1 -0.43,-0.6 -0.05,-0.05 -0.1,-0.17 0.07,0.12 -0.09,-0.14 c -0.03,-0.02 -0.07,-0.05 -0.07,-0.1 l -0.24,-0.38 -0.03,-0.05 -0.17,-0.29 0.03,0.05 -0.29,-0.45 0.05,0.04 -0.22,-0.26 0.31,0.26 -0.24,-0.12 0.56,0.1 -0.03,0.02 0.39,-0.12 -0.08,0.03 v 0 l -0.04,0.02 0.21,-0.12 -0.24,0.17 -0.07,0.07 -0.1,0.07 0.17,-0.12 -0.09,0.08 v 0 l -0.1,0.09 h 0.02 l -0.24,0.24 -0.07,0.07 -0.12,0.1 0.07,-0.05 -0.12,0.12 -0.04,0.05 -0.15,0.14 -0.05,0.05 -0.14,0.1 v 0 l -0.14,0.12 c -0.03,0.02 -0.08,0.07 -0.12,0.07 l -0.39,0.24 v 0.02 h -0.05 l -0.04,0.05 h -0.05 c -0.36,0.19 -0.79,0.17 -1.13,-0.07 -0.34,-0.22 -0.53,-0.6 -0.5,-1.01 0.04,-0.41 0.28,-0.77 0.64,-0.93 l 0.05,-0.03 h 0.05 l 0.02,-0.02 -0.12,0.05 0.41,-0.22 -0.09,0.05 0.14,-0.1 v 0 l 0.14,-0.09 -0.07,0.04 0.15,-0.12 -0.03,0.05 0.12,-0.12 0.07,-0.05 0.12,-0.09 -0.12,0.09 0.24,-0.24 0.05,-0.02 0.07,-0.1 v 0 l 0.1,-0.07 c 0.07,-0.07 0.1,-0.09 0.17,-0.14 l 0.12,-0.05 -0.12,0.07 0.24,-0.19 c 0.05,-0.05 0.14,-0.1 0.21,-0.12 l 0.05,-0.05 v 0 l 0.07,-0.02 c 0.17,-0.07 0.34,-0.1 0.53,-0.1 l 0.03,0.03 c 0.36,0.02 0.69,0.24 0.84,0.52 l 0.12,0.27 -0.03,-0.1 0.19,0.31 0.05,0.05 0.27,0.48 0.02,0.05 0.14,0.31 -0.02,-0.05 0.22,0.36 -0.03,-0.04 0.07,0.14 c 0.05,0.02 0.05,0.07 0.08,0.12 l 0.09,0.14 -0.05,-0.07 0.39,0.65 0.02,0.07 0.07,0.15 c 0.08,0.16 0.12,0.36 0.08,0.55 l -0.03,0.05 c -0.07,0.26 -0.26,0.5 -0.53,0.6 -0.28,0.09 -0.57,0.02 -0.79,-0.15 z"
         style="fill:#000000;fill-opacity:1;fill-rule:nonzero;stroke:none"
         transform="matrix(1.3333333,0,0,-1.3333333,0,1120.8)" />
    </g>
    <g
       id="g170">
      <path
         id="path170"
         d="m 254.57,712.92 0.21,0.1 -0.26,-0.08 0.31,0.03 -0.17,0.02 0.24,-0.07 c 0.32,-0.07 0.65,0.02 0.87,0.26 0.21,0.24 0.29,0.6 0.19,0.92 -0.1,0.28 -0.38,0.52 -0.7,0.57 v 0.03 l 0.72,-0.99 0.03,0.17 c 0.02,0.12 0,0.24 -0.03,0.34 l -0.07,0.31 -0.05,0.09 -0.02,0.12 -0.02,0.05 -0.05,0.1 v 0 l -0.05,0.09 c -0.02,0.05 -0.02,0.1 -0.05,0.12 l -0.07,0.1 -0.02,0.02 -0.17,0.24 -0.03,0.03 -0.12,0.17 c -0.04,0.04 -0.09,0.09 -0.14,0.14 l -0.41,0.36 0.07,-0.07 -0.12,0.12 c -0.02,0.02 -0.07,0.07 -0.09,0.09 l -0.15,0.12 0.12,-0.12 -0.12,0.15 v -0.03 l -0.26,0.29 0.07,-0.07 -0.19,0.24 -0.07,0.1 -0.05,0.04 c -0.05,0.05 -0.07,0.08 -0.12,0.1 l -0.07,0.07 0.31,-0.41 -0.02,0.1 c -0.03,0.05 -0.08,0.12 -0.12,0.14 l -0.03,0.1 v 0 l -0.07,0.05 0.1,-0.17 -0.03,0.07 v 0 l -0.02,0.07 v 0 l -0.03,0.08 0.03,-0.1 -0.07,0.19 0.04,-0.12 -0.04,0.15 v 0 l -0.03,0.14 0.03,-0.12 -0.03,0.12 v 0 0.12 -0.12 0.12 0 0.14 0 0.12 0 0.15 0 0.14 l -0.02,-0.29 0.02,0.15 v 0 l 0.03,0.14 c 0.02,0.05 0.04,0.07 0.04,0.12 l 0.03,0.17 -0.1,-0.34 0.05,0.12 c 0.02,0.08 0.05,0.12 0.07,0.2 l 0.03,0.14 -0.05,-0.19 0.05,0.12 -0.03,-0.05 0.19,0.36 0.03,0.05 0.05,0.12 -0.08,-0.15 0.05,0.1 -0.02,-0.05 0.07,0.12 v 0 l 0.07,0.1 -0.14,-0.17 0.07,0.07 v 0 l 0.07,0.07 0.07,0.1 0.1,0.07 -0.17,-0.14 0.1,0.07 c 0.02,0.02 0.05,0.05 0.09,0.07 l 0.08,0.1 -0.08,-0.1 0.08,0.07 -0.08,-0.04 0.1,0.07 0.1,0.05 0.07,0.07 -0.19,-0.12 0.09,0.05 v 0 l 0.12,0.04 -0.07,-0.02 0.14,0.05 c 0.05,0.02 0.08,0.05 0.12,0.07 l 0.08,0.05 -0.24,-0.1 0.12,0.03 0.04,0.02 0.1,0.02 -0.07,-0.02 0.33,0.1 -0.07,-0.03 0.19,0.05 -0.09,-0.02 0.17,0.02 h -0.12 0.19 v 0 h 0.19 v 0 h 0.19 -0.12 l 0.19,-0.02 h -0.02 l 0.17,-0.03 -0.07,0.03 0.19,-0.05 -0.03,0.02 0.17,-0.05 v 0 l 0.19,-0.02 -0.16,0.02 0.43,-0.14 h -0.03 l 0.17,-0.05 -0.12,0.05 0.15,-0.1 v 0 l 0.16,-0.07 v 0 l 0.17,-0.07 -0.12,0.07 0.12,-0.12 0.07,-0.02 0.15,-0.1 -0.1,0.07 0.31,-0.26 -0.07,0.07 0.17,-0.17 0.07,-0.07 0.19,-0.19 -0.12,0.12 0.17,-0.17 -0.02,0.03 0.14,-0.22 v 0 l 0.17,-0.19 -0.02,0.02 0.16,-0.21 -0.07,0.09 0.12,-0.21 -0.02,0.04 0.26,-0.52 -0.02,0.04 0.09,-0.19 -0.02,0.05 0.07,-0.19 v 0 l 0.07,-0.17 -0.02,0.1 0.05,-0.22 v 0 l 0.07,-0.22 -0.05,0.12 0.05,-0.19 v 0 l 0.02,-0.21 v 0.16 -0.19 -0.07 l 0.03,-0.22 v 0.12 l -0.03,-0.52 v -0.05 -0.17 l 0.03,0.24 -0.03,-0.19 v 0.02 l -0.02,-0.17 v 0 l -0.1,-0.36 0.1,0.29 -0.02,-0.07 0.04,0.1 -0.02,-0.05 c -0.07,-0.1 -0.12,-0.22 -0.14,-0.34 l -0.03,-0.07 0.17,0.34 -0.05,-0.05 c -0.07,-0.1 -0.12,-0.22 -0.14,-0.34 l -0.03,-0.07 0.29,0.5 -0.05,-0.04 c -0.12,-0.12 -0.21,-0.27 -0.26,-0.44 v -0.04 l 0.14,0.31 -0.04,-0.07 -0.05,-0.05 -0.03,-0.05 0.12,0.14 -0.04,-0.04 0.02,0.02 -0.12,-0.12 0.67,0.31 v 0 c -0.26,-0.02 -0.53,-0.12 -0.69,-0.31 l -0.03,-0.02 c -0.19,-0.2 -0.29,-0.46 -0.29,-0.75 v -0.02 c 0,-0.58 0.48,-1.01 1.06,-1.01 0.58,0.02 1.03,0.48 1.01,1.06 -0.03,0.57 -0.48,1.03 -1.06,1 h -0.02 c -0.27,0 -0.51,-0.12 -0.7,-0.31 h -0.02 l 0.69,0.29 v 0 c -0.26,0 -0.55,-0.12 -0.72,-0.31 l -0.02,-0.03 0.7,0.34 h -0.03 0.05 -0.02 v 0 h -0.03 v 0 h -0.02 -0.03 -0.02 0.05 -0.05 -0.05 -0.05 c -0.55,-0.05 -0.98,-0.48 -0.98,-1.06 0,-0.52 0.43,-0.98 0.98,-1 h 0.05 0.05 0.05 -0.05 0.02 0.03 0.02 v 0 h 0.03 v 0 h 0.02 -0.05 0.03 c 0.28,-0.03 0.55,0.07 0.74,0.26 l 0.02,0.02 -0.72,-0.26 v 0 c 0.29,-0.02 0.56,0.07 0.75,0.26 l 0.02,0.03 -0.74,-0.29 h 0.02 c 0.58,0 1.03,0.43 1.06,1.01 v 0.02 l -0.31,-0.72 h 0.02 l -0.77,-0.29 v 0 c 0.29,0 0.58,0.1 0.79,0.29 l 0.1,0.12 v 0 l 0.05,0.05 c 0.05,0.02 0.09,0.1 0.14,0.14 l 0.03,0.05 -0.03,-0.05 0.05,0.08 c 0.07,0.09 0.12,0.19 0.14,0.28 l 0.05,0.05 -0.29,-0.41 0.08,0.08 c 0.14,0.12 0.24,0.28 0.28,0.48 v 0.04 l -0.14,-0.31 0.02,0.05 c 0.1,0.12 0.12,0.22 0.17,0.34 l 0.03,0.04 -0.17,-0.31 0.05,0.05 c 0.02,0.02 0.04,0.07 0.07,0.12 l 0.02,0.07 c 0.05,0.07 0.07,0.17 0.12,0.27 l 0.05,0.33 v -0.02 l 0.02,0.14 0.03,0.05 0.02,0.14 c 0.03,0.1 0.05,0.17 0.05,0.22 v 0.17 -0.03 0.56 0.09 0.22 -0.1 0.19 c 0,0.08 0,0.12 0,0.2 l -0.05,0.21 v 0 l -0.02,0.19 -0.03,0.1 -0.04,0.19 v 0 l -0.05,0.19 -0.03,0.12 -0.07,0.17 v 0 l -0.07,0.19 -0.02,0.05 -0.08,0.22 -0.04,0.07 -0.27,0.53 v 0.02 l -0.12,0.22 c -0.02,0.05 -0.05,0.07 -0.07,0.09 l -0.14,0.24 -0.03,0.03 -0.17,0.21 v 0 l -0.14,0.22 -0.05,0.02 -0.14,0.2 c -0.03,0.04 -0.07,0.09 -0.1,0.12 l -0.19,0.19 0.07,-0.1 -0.19,0.22 c -0.02,0.02 -0.07,0.07 -0.1,0.09 l -0.33,0.27 c -0.03,0.02 -0.07,0.05 -0.1,0.07 l -0.17,0.12 0.05,-0.05 -0.12,0.1 c -0.05,0.02 -0.09,0.07 -0.14,0.09 l -0.15,0.1 v 0 l -0.16,0.07 v 0 l -0.15,0.1 c -0.05,0.02 -0.09,0.02 -0.12,0.05 l -0.19,0.07 -0.05,0.02 -0.43,0.15 c -0.05,0.02 -0.1,0.02 -0.17,0.04 l -0.17,0.03 v 0 l -0.16,0.05 h -0.03 l -0.19,0.02 -0.07,0.02 -0.15,0.03 h -0.04 -0.2 l -0.07,0.02 h -0.19 v 0 h -0.19 v 0 h -0.19 l -0.1,-0.02 h -0.17 -0.09 l -0.2,-0.05 -0.07,-0.02 -0.33,-0.1 h -0.08 l -0.12,-0.05 0.05,0.03 -0.12,-0.05 c -0.09,-0.03 -0.17,-0.05 -0.24,-0.1 l -0.09,-0.07 0.12,0.07 -0.12,-0.05 -0.05,-0.02 -0.1,-0.05 v 0 l -0.12,-0.07 c -0.07,-0.02 -0.12,-0.07 -0.21,-0.12 l -0.08,-0.05 0.08,0.05 -0.1,-0.07 -0.07,-0.05 -0.1,-0.07 c -0.02,-0.03 -0.05,-0.05 -0.09,-0.1 l -0.08,-0.07 0.08,0.07 -0.08,-0.07 c -0.07,-0.05 -0.12,-0.1 -0.16,-0.14 l -0.08,-0.1 0.05,0.07 -0.09,-0.09 v 0 l -0.05,-0.08 c -0.07,-0.04 -0.1,-0.09 -0.15,-0.16 l -0.07,-0.1 v 0 l -0.07,-0.12 -0.02,-0.05 -0.05,-0.07 c -0.03,-0.05 -0.07,-0.1 -0.07,-0.12 l -0.08,-0.12 0.05,0.02 -0.17,-0.33 -0.04,-0.05 -0.05,-0.12 c -0.03,-0.07 -0.05,-0.12 -0.07,-0.19 l -0.03,-0.15 0.07,0.17 -0.04,-0.12 c -0.05,-0.07 -0.08,-0.19 -0.1,-0.29 l -0.02,-0.14 0.04,0.14 -0.04,-0.14 v 0 l -0.03,-0.14 c -0.02,-0.08 -0.05,-0.2 -0.05,-0.27 l 0.03,-0.14 v 0 -0.15 0 -0.12 0 -0.14 0 -0.12 c 0,-0.07 0,-0.12 0.02,-0.17 v -0.12 -0.02 l 0.03,-0.12 0.02,-0.1 0.05,-0.17 v 0 l 0.02,-0.12 0.03,-0.12 0.09,-0.16 c 0,-0.05 0.03,-0.1 0.05,-0.15 l 0.05,-0.07 v 0 l 0.02,-0.05 v 0 l 0.05,-0.07 c 0.02,-0.07 0.07,-0.12 0.1,-0.17 l 0.04,-0.07 v 0 l 0.08,-0.05 -0.12,0.15 0.04,-0.08 c 0.08,-0.14 0.2,-0.26 0.32,-0.36 l 0.09,-0.04 -0.12,0.09 0.05,-0.05 -0.1,0.1 0.2,-0.24 0.07,-0.05 0.26,-0.29 0.03,-0.02 0.14,-0.12 c 0.02,-0.05 0.07,-0.07 0.1,-0.1 l 0.16,-0.09 -0.12,0.09 0.12,-0.12 0.08,-0.04 0.43,-0.34 -0.1,0.07 0.15,-0.14 -0.05,0.07 0.17,-0.22 0.07,-0.07 0.07,-0.07 -0.07,0.1 0.05,-0.08 v 0 l 0.07,-0.09 -0.05,0.07 0.07,-0.1 -0.12,0.24 0.1,-0.31 -0.03,0.17 v -0.17 c 0.05,-0.26 0.17,-0.48 0.36,-0.65 0.2,-0.14 0.46,-0.19 0.72,-0.14 v 0 c 0.39,0.07 0.68,0.36 0.72,0.72 0.08,0.38 -0.09,0.74 -0.43,0.96 -0.33,0.17 -0.74,0.12 -1.03,-0.12 l -0.19,-0.17 0.33,0.17 -0.31,-0.05 c -0.07,-0.02 -0.14,-0.05 -0.21,-0.09 l -0.2,-0.12 c -0.33,-0.2 -0.45,-0.6 -0.28,-0.94 0.16,-0.34 0.57,-0.48 0.91,-0.36 z"
         style="fill:#000000;fill-opacity:1;fill-rule:nonzero;stroke:none"
         transform="matrix(1.3333333,0,0,-1.3333333,0,1120.8)" />
    </g>
    <g
       id="g171">
      <path
         id="path171"
         d="m 253.51,718.06 0.19,-0.05 c 0.08,-0.03 0.12,-0.03 0.2,-0.03 l 0.24,0.05 h -0.12 l 0.09,-0.02 c 0.05,0 0.1,0 0.15,0.02 h 0.09 -0.17 0.08 v 0 l 0.07,-0.02 v 0 h 0.07 -0.02 l 0.16,-0.03 h 0.03 l 0.33,-0.02 h 0.05 0.07 v 0 h 0.08 l -0.17,0.02 0.05,-0.02 c 0.07,-0.02 0.12,-0.02 0.19,-0.02 l 0.05,-0.03 -0.15,0.05 0.05,-0.02 v 0 l 0.07,-0.03 h -0.02 l 0.14,-0.05 0.12,-0.02 0.12,-0.02 -0.17,0.04 0.12,-0.04 v 0 l 0.1,-0.05 -0.02,0.02 0.12,-0.07 -0.15,0.12 0.07,-0.1 c 0.05,-0.02 0.08,-0.04 0.12,-0.07 l 0.12,-0.05 -0.14,0.1 0.1,-0.1 0.07,-0.02 0.09,-0.07 -0.07,0.07 0.07,-0.1 v 0.03 l 0.1,-0.1 -0.07,0.07 0.21,-0.24 -0.02,0.03 0.1,-0.12 h 0.02 l 0.12,-0.15 -0.07,0.1 0.09,-0.12 v 0 l 0.08,-0.14 -0.03,0.02 0.1,-0.14 v 0.02 l 0.14,-0.31 -0.05,0.09 0.08,-0.19 c 0.02,-0.05 0.04,-0.07 0.07,-0.12 l 0.09,-0.17 v 0 l 0.12,-0.19 v 0 l 0.24,-0.36 0.05,-0.07 0.48,-0.53 -0.05,0.05 0.1,-0.12 0.02,-0.05 0.08,-0.07 -0.08,0.07 0.2,-0.29 v 0 l 0.21,-0.33 0.05,-0.07 0.29,-0.34 0.07,-0.05 0.02,-0.05 c 0.29,-0.26 0.75,-0.24 1.01,0.05 0.29,0.29 0.29,0.72 0,1.01 l -0.02,0.02 0.02,-0.02 -0.26,0.34 0.07,-0.1 -0.22,0.34 v 0 l -0.19,0.26 -0.05,0.07 -0.07,0.1 0.05,-0.03 -0.1,0.12 -0.02,0.05 -0.46,0.53 0.05,-0.1 -0.21,0.36 v 0 l -0.1,0.17 v 0 l -0.12,0.17 0.07,-0.12 -0.07,0.19 -0.05,0.1 -0.14,0.29 -0.03,0.02 -0.07,0.14 -0.02,0.03 -0.1,0.14 v 0 l -0.07,0.15 c -0.02,0.02 -0.05,0.04 -0.1,0.09 l -0.12,0.12 h 0.03 l -0.1,0.12 -0.05,0.05 -0.19,0.19 -0.09,0.07 -0.1,0.1 h -0.02 l -0.08,0.07 -0.07,0.07 -0.09,0.05 0.07,-0.07 -0.1,0.07 c -0.02,0.05 -0.07,0.07 -0.12,0.07 l -0.09,0.05 0.12,-0.07 -0.1,0.07 c -0.05,0.05 -0.1,0.07 -0.17,0.1 l -0.12,0.05 v 0.02 l -0.09,0.02 v 0 l -0.12,0.05 c -0.05,0 -0.12,0.03 -0.15,0.05 h -0.12 l 0.12,-0.02 -0.17,0.04 -0.07,0.03 -0.09,0.02 h 0.02 -0.07 c -0.07,0 -0.12,0.03 -0.19,0.03 l -0.05,-0.03 h 0.17 -0.08 c -0.04,0.03 -0.12,0.03 -0.16,0.03 h -0.08 v 0 h -0.07 0.03 -0.34 0.05 l -0.19,0.02 h -0.1 l -0.07,-0.02 v 0 h -0.07 v 0 h -0.08 c -0.07,0 -0.12,-0.03 -0.16,-0.03 l -0.08,-0.05 0.17,0.05 h -0.09 l -0.08,-0.02 -0.24,-0.05 0.12,0.02 -0.21,-0.02 c -0.31,0 -0.58,-0.24 -0.58,-0.58 -0.05,-0.31 0.17,-0.57 0.48,-0.64 z"
         style="fill:#000000;fill-opacity:1;fill-rule:nonzero;stroke:none"
         transform="matrix(1.3333333,0,0,-1.3333333,0,1120.8)" />
    </g>
    <g
       id="g172">
      <path
         id="path172"
         d="m 248.54,669.82 -0.02,-0.24 c 0,-0.08 0.02,-0.15 0.02,-0.22 l 0.2,-0.72 -0.03,0.07 0.12,-0.74 v 0.05 l 0.12,-0.75 -0.02,0.07 0.12,-1.87 v -0.02 l 0.02,-0.19 v 0.07 -0.07 0 -0.08 0 -0.04 0 -0.1 0 -0.07 0 -0.05 l 0.03,0.22 -0.03,-0.08 v -0.04 l -0.02,-0.1 v 0.05 l -0.03,-0.12 0.89,0.67 v 0 c -0.33,0 -0.65,-0.14 -0.81,-0.43 -0.17,-0.29 -0.17,-0.65 0,-0.91 0.16,-0.29 0.48,-0.46 0.81,-0.46 v 0 c 0.41,0.02 0.75,0.29 0.84,0.7 l 0.03,0.12 0.02,0.04 0.02,0.08 -0.02,-0.03 0.02,0.05 c 0,0.1 0.03,0.17 0.03,0.24 v 0.05 0 0.07 0 0.1 0 0.04 0 0.08 0 l -0.03,0.07 v 0.05 0.21 0 l -0.16,1.87 v 0.1 l -0.12,0.72 v 0 l -0.15,0.72 -0.02,0.1 -0.22,0.72 v -0.03 l -0.05,0.24 c -0.12,0.39 -0.48,0.63 -0.88,0.58 -0.39,-0.05 -0.68,-0.41 -0.68,-0.79 z"
         style="fill:#000000;fill-opacity:1;fill-rule:nonzero;stroke:none"
         transform="matrix(1.3333333,0,0,-1.3333333,0,1120.8)" />
    </g>
    <g
       id="g173">
      <path
         id="path173"
         d="m 250.15,670.03 -0.02,0.15 c -0.05,0.26 -0.24,0.48 -0.51,0.52 -0.24,0.05 -0.52,-0.04 -0.67,-0.26 -0.12,-0.24 -0.14,-0.5 0,-0.72 l 0.03,-0.02 -0.08,0.12 0.03,-0.05 -0.05,0.33 v -0.02 c -0.02,-0.31 0.14,-0.6 0.43,-0.72 l 0.05,-0.02 -0.46,0.74 v 0 c 0,-0.12 0,-0.24 0.05,-0.36 l 0.03,-0.05 -0.05,0.39 v -0.03 c -0.03,-0.29 0.09,-0.57 0.33,-0.74 h 0.03 v 0 l 0.02,-0.03 -0.21,0.22 v -0.02 0 h 0.02 c 0.1,-0.17 0.26,-0.29 0.46,-0.36 h 0.07 c 0.05,-0.03 0.09,-0.05 0.14,-0.05 L 250.3,669 h -0.08 l 0.29,-0.02 0.05,-0.03 0.26,-0.02 0.08,-0.03 0.79,-0.02 v 0 l 0.38,-0.02 c 0.05,0 0.1,0 0.15,0 l 0.31,0.02 h 0.02 l 0.19,0.02 h -0.04 0.12 l 0.04,0.03 h 0.17 -0.17 0.15 c 0.14,0 0.26,0 0.38,0.05 l 0.03,0.02 -0.75,0.02 v 0 l -0.53,0.56 0.05,-0.08 -0.07,0.2 0.26,-1.52 v 0.03 l 0.15,-0.91 -0.03,0.02 0.17,-1.39 h 0.03 l 0.04,-0.36 v 0.05 l 0.05,-0.6 v 0.14 l -0.02,-0.36 1.03,0.98 h -0.02 c -0.56,0 -1.04,-0.48 -1.04,-1.05 v 0 -0.03 -0.02 0.02 -0.02 0 0 l 1.04,1.06 v 0 c -0.29,0 -0.56,-0.12 -0.75,-0.34 -0.19,-0.19 -0.29,-0.48 -0.29,-0.74 v 0 0 0 c 0,-0.29 0.12,-0.58 0.32,-0.77 h 0.02 l -0.34,0.72 v 0 l 0.03,-0.03 v -0.02 c 0,-0.14 0.02,-0.29 0.09,-0.43 l 0.03,-0.03 c 0.26,-0.5 0.84,-0.69 1.34,-0.5 l 0.03,0.02 c 0.36,0.17 0.6,0.56 0.6,0.94 0,0.41 -0.24,0.79 -0.6,0.96 h -0.03 l 0.51,-0.48 v 0.02 l 0.09,-0.5 v 0.02 0.03 0 c 0,0.29 -0.09,0.55 -0.29,0.74 v 0.03 l 0.29,-0.72 v 0 0 0 l -1.05,-1.01 v 0 c 0.57,0 1.05,0.43 1.05,1.03 v 0 0 0.02 -0.02 0.02 0.03 0 c 0.03,0.57 -0.45,1.05 -1.01,1.05 -0.6,0.03 -1.05,-0.45 -1.08,-1 0,-0.6 0.48,-1.06 1.04,-1.08 h 0.02 c 0.58,0 1.03,0.43 1.06,1 v 0.39 c 0.02,0.05 0.02,0.09 0,0.17 l -0.05,0.57 -0.03,0.03 -0.04,0.36 v -0.03 l -0.15,1.37 v 0.05 l -0.14,0.91 v 0.05 l -0.29,1.51 c -0.02,0.05 -0.05,0.12 -0.05,0.19 l -0.05,0.1 c -0.12,0.24 -0.31,0.43 -0.57,0.55 -0.27,0.1 -0.55,0.1 -0.82,-0.02 v 0 c -0.05,-0.03 -0.09,-0.05 -0.14,-0.1 h -0.03 l 0.29,0.12 -0.14,-0.02 h -0.03 l -0.16,-0.05 h 0.07 l -0.1,-0.03 v 0 l -0.21,-0.04 v 0 l -0.32,-0.05 h 0.17 -0.38 0.05 -0.8 -0.02 -0.26 0.04 -0.31 0.07 l -0.48,0.05 c -0.12,0 -0.24,0 -0.33,-0.05 h -0.07 l 0.21,0.02 h -0.05 v 0 h -0.04 c -0.12,-0.02 -0.27,-0.07 -0.39,-0.14 h -0.02 v 0 l -0.03,-0.03 0.34,0.12 h -0.02 l 0.38,-0.04 -0.05,0.02 c -0.12,0.05 -0.24,0.05 -0.36,0.05 v 0 c -0.07,-0.03 -0.12,-0.05 -0.19,-0.05 l -0.05,-0.02 0.19,0.04 h -0.02 l 0.34,-0.04 -0.05,0.02 c -0.07,0.02 -0.19,0.05 -0.27,0.05 h -0.04 c -0.36,-0.05 -0.63,-0.34 -0.6,-0.67 0,-0.36 0.31,-0.65 0.67,-0.63 l 0.14,0.03 c 0.15,0 0.29,0.07 0.39,0.16 0.09,0.12 0.12,0.27 0.09,0.41 z"
         style="fill:#000000;fill-opacity:1;fill-rule:nonzero;stroke:none"
         transform="matrix(1.3333333,0,0,-1.3333333,0,1120.8)" />
    </g>
    <g
       id="g174">
      <path
         id="path174"
         d="m 249.86,663.46 0.24,-0.05 h 0.05 l 0.84,-0.05 v 0 l 0.67,-0.02 h 0.05 0.43 c 0.05,0 0.1,0 0.15,0 l 0.38,0.07 h 0.03 l 0.14,0.02 v 0 l 0.14,0.03 h -0.12 0.15 -0.07 0.4 l -0.24,0.02 h 0.08 c 0.48,-0.14 0.98,0.17 1.12,0.67 0.12,0.51 -0.19,0.99 -0.67,1.13 h -0.09 c -0.08,0.02 -0.17,0.05 -0.27,0.05 l -0.41,-0.05 h -0.09 l -0.12,-0.02 -0.1,-0.03 -0.14,-0.02 v 0 l -0.15,-0.05 h 0.1 l -0.38,-0.07 0.12,0.02 -0.46,-0.02 h 0.02 l -0.67,-0.05 h -0.02 l -0.84,-0.07 h -0.03 l -0.24,-0.05 c -0.38,-0.02 -0.64,-0.36 -0.64,-0.72 0,-0.38 0.26,-0.7 0.64,-0.74 z"
         style="fill:#000000;fill-opacity:1;fill-rule:nonzero;stroke:none"
         transform="matrix(1.3333333,0,0,-1.3333333,0,1120.8)" />
    </g>
    <g
       id="g175">
      <path
         id="path175"
         d="m 258.26,671.74 v 0.09 l -0.04,-0.19 0.02,0.05 -0.1,-0.17 v 0 c 0.08,0.1 0.12,0.19 0.12,0.29 v 0 0 0.02 0 l 0.03,0.03 -0.05,-0.15 v 0.03 0 0 c 0.02,0.04 0.05,0.09 0.05,0.14 h 0.02 v 0 0.02 l -0.36,-0.48 v 0.03 0 h 0.03 l 0.09,0.05 v 0.02 c 0.17,0.1 0.27,0.26 0.29,0.43 l 0.02,0.03 -0.86,-0.58 h 0.02 c 0.39,-0.07 0.77,0.17 0.84,0.58 V 672 l -0.26,-0.46 v 0.03 c 0.02,0 0.07,0.05 0.1,0.07 l 0.21,0.22 0.03,0.02 0.04,0.05 v 0 l 0.05,0.07 -0.07,-0.07 0.07,0.05 0.07,0.07 0.08,0.07 -0.08,-0.07 0.05,0.05 -0.07,-0.05 0.07,0.05 0.07,0.07 0.1,0.05 -0.17,-0.1 0.07,0.05 0.1,0.02 0.05,0.05 -0.05,-0.02 0.19,0.09 -0.12,-0.05 0.12,0.05 0.05,0.03 0.12,0.02 -0.12,-0.02 0.12,0.02 0.1,0.05 0.09,0.05 -0.24,-0.1 0.12,0.02 0.12,0.03 0.12,0.02 -0.09,-0.02 0.09,0.02 h -0.12 l 0.12,-0.02 0.12,0.02 0.12,0.03 v 0 h 0.12 -0.17 l 0.29,-0.03 h 0.05 0.07 l -0.17,0.03 0.1,-0.03 c 0.05,-0.02 0.1,-0.02 0.14,-0.02 h 0.08 l -0.36,0.07 0.04,-0.02 c 0.08,-0.03 0.12,-0.05 0.2,-0.05 l 0.04,-0.03 v 0 l 0.1,-0.02 -0.12,0.05 0.07,-0.05 -0.14,0.1 0.05,-0.05 0.09,-0.05 0.07,-0.02 v 0 l 0.08,-0.05 v 0 l 0.04,-0.05 -0.07,0.07 0.05,-0.02 -0.12,0.09 0.02,-0.04 c 0.05,-0.05 0.08,-0.05 0.1,-0.1 l 0.07,-0.02 0.05,-0.05 0.05,-0.03 -0.15,0.1 0.1,-0.07 -0.12,0.14 0.02,-0.05 0.05,-0.04 0.1,-0.12 v -0.03 l 0.19,-0.24 -0.05,0.1 0.15,-0.24 h -0.03 l 0.17,-0.24 v 0 l 0.14,-0.29 -0.02,0.1 0.29,-0.7 -0.03,0.12 0.6,-1.9 v 0 l 0.7,-2.06 0.02,-0.12 0.1,-0.17 -0.02,0.05 0.33,-0.79 0.05,-0.07 1.08,-2.07 0.02,-0.07 0.34,-0.48 v 0 l 0.34,-0.48 0.02,-0.05 0.36,-0.43 0.02,-0.05 0.8,-0.89 0.02,-0.02 0.22,-0.24 c 0.33,-0.36 0.88,-0.36 1.24,-0.02 0.34,0.36 0.36,0.91 0.03,1.24 l -0.22,0.22 v 0 l -0.77,0.89 0.05,-0.05 -0.36,0.43 0.05,-0.05 -0.34,0.48 v -0.02 l -0.31,0.48 0.05,-0.05 -1.08,2.07 0.02,-0.1 -0.33,0.79 -0.03,0.05 -0.07,0.17 0.05,-0.1 -0.7,2.07 v 0 l -0.62,1.87 -0.05,0.09 -0.31,0.68 -0.02,0.07 -0.17,0.26 v 0 l -0.15,0.27 -0.02,0.02 -0.14,0.24 -0.08,0.1 -0.19,0.24 0.03,-0.03 -0.1,0.15 v -0.05 l -0.02,0.05 c -0.03,0.04 -0.08,0.09 -0.12,0.12 l -0.08,0.07 c -0.02,0.05 -0.07,0.09 -0.12,0.12 l -0.07,0.02 0.05,-0.02 -0.07,0.05 0.09,-0.08 -0.04,0.05 c -0.05,0.03 -0.1,0.07 -0.15,0.1 l -0.05,0.02 -0.07,0.07 -0.07,0.03 v 0 l -0.1,0.02 v 0 l -0.04,0.03 0.09,-0.05 -0.07,0.05 c -0.05,0.02 -0.1,0.04 -0.14,0.07 l -0.1,0.02 -0.1,0.03 -0.07,0.02 v 0 l -0.07,0.02 0.17,-0.07 -0.05,0.03 c -0.12,0.07 -0.24,0.09 -0.38,0.09 l -0.08,-0.02 h 0.17 l -0.07,0.02 c -0.07,0 -0.12,0.03 -0.17,0 h -0.07 0.05 l -0.29,0.03 c -0.07,0 -0.14,0 -0.22,-0.03 l -0.09,-0.02 h 0.02 -0.12 0.12 -0.12 c -0.05,0 -0.09,0 -0.14,-0.03 h -0.1 l -0.07,-0.04 -0.12,-0.03 0.1,0.03 -0.12,-0.03 c -0.1,-0.02 -0.17,-0.02 -0.24,-0.07 l -0.1,-0.07 0.1,0.05 -0.1,-0.03 -0.12,-0.05 -0.1,-0.04 0.05,0.02 -0.12,-0.07 -0.07,-0.03 -0.19,-0.12 -0.07,-0.04 -0.08,-0.05 0.08,0.05 -0.1,-0.08 c -0.05,-0.02 -0.1,-0.07 -0.12,-0.12 l -0.1,-0.04 0.1,0.04 -0.07,-0.04 -0.07,-0.08 -0.08,-0.07 -0.07,-0.07 -0.05,-0.07 0.08,0.07 -0.08,-0.07 -0.07,-0.07 -0.05,-0.08 v 0 l -0.04,-0.07 0.04,0.05 -0.19,-0.24 v 0 0 c -0.14,-0.19 -0.19,-0.38 -0.14,-0.6 v -0.02 c 0.07,-0.41 0.45,-0.65 0.86,-0.58 0.39,0.1 0.65,0.48 0.55,0.86 -0.07,0.39 -0.45,0.65 -0.84,0.58 h -0.02 c -0.19,-0.05 -0.36,-0.14 -0.46,-0.31 -0.12,-0.17 -0.16,-0.36 -0.12,-0.55 v -0.03 l 0.17,0.6 -0.02,-0.02 -0.07,-0.07 v -0.03 0 l -0.03,-0.02 c -0.09,-0.17 -0.09,-0.31 -0.07,-0.51 v -0.02 0 0 c 0.02,-0.05 0.02,-0.1 0.05,-0.14 h 0.02 v 0 -0.03 l -0.05,0.15 v -0.03 0 -0.02 0 0 c 0.03,-0.1 0.08,-0.19 0.12,-0.29 h 0.03 l -0.1,0.17 v -0.05 c 0.07,-0.19 0.24,-0.31 0.43,-0.38 0.22,-0.05 0.41,0 0.58,0.12 l 0.07,0.04 c 0.12,0.08 0.17,0.2 0.19,0.32 z"
         style="fill:#000000;fill-opacity:1;fill-rule:nonzero;stroke:none"
         transform="matrix(1.3333333,0,0,-1.3333333,0,1120.8)" />
    </g>
    <g
       id="g176">
      <path
         id="path176"
         d="m 257.16,671.38 0.24,-0.24 v 0 l 0.19,-0.24 -0.02,0.04 0.19,-0.24 -0.07,0.08 0.17,-0.24 -0.03,0.02 0.41,-0.65 -0.07,0.15 0.26,-0.63 -0.02,0.05 0.21,-0.65 -0.02,0.1 0.43,-1.73 v 0.05 l 0.17,-0.79 0.02,-0.1 0.53,-1.68 c 0,-0.07 0.05,-0.12 0.07,-0.19 l 0.12,-0.24 -0.02,0.05 0.12,-0.24 c 0,-0.05 0.02,-0.1 0.05,-0.12 l 0.14,-0.24 c 0.05,-0.05 0.07,-0.1 0.1,-0.12 l 0.19,-0.22 -0.05,0.02 0.19,-0.24 v -0.02 l 0.2,-0.24 0.02,-0.02 0.17,-0.22 c 0.02,-0.02 0.07,-0.05 0.09,-0.07 l 0.22,-0.19 v 0 l 0.22,-0.22 0.07,-0.07 0.57,-0.46 c 0.05,-0.02 0.1,-0.07 0.12,-0.07 l 0.22,-0.14 v 0 l 0.24,-0.15 c 0.05,-0.02 0.1,-0.07 0.14,-0.07 l 0.27,-0.12 -0.1,0.05 0.24,-0.15 0.1,-0.04 0.26,-0.12 c 0.05,0 0.07,-0.03 0.12,-0.05 l 0.27,-0.07 h -0.03 l 0.29,-0.1 h -0.05 l 0.29,-0.1 c 0.02,-0.02 0.07,-0.02 0.12,-0.04 l 0.29,-0.05 v 0 l 0.29,-0.07 0.07,-0.03 0.81,-0.14 h 0.08 l 0.28,-0.05 c 0.65,-0.05 1.18,0.41 1.25,1.01 0.07,0.62 -0.36,1.17 -0.98,1.25 l -0.31,0.02 h 0.04 l -0.79,0.12 h 0.07 l -0.28,0.05 v 0 l -0.32,0.07 0.17,-0.02 -0.29,0.09 v 0 l -0.31,0.1 -0.02,0.02 -0.27,0.07 0.12,-0.04 -0.26,0.12 0.1,-0.05 -0.27,0.14 -0.07,0.05 -0.26,0.12 0.14,-0.07 -0.24,0.14 -0.02,0.03 -0.22,0.12 0.12,-0.1 -0.6,0.48 0.05,-0.02 -0.22,0.19 v 0 l -0.21,0.19 0.07,-0.07 -0.17,0.19 0.02,-0.02 -0.16,0.19 0.02,-0.03 -0.19,0.24 -0.03,0.03 -0.16,0.24 0.07,-0.12 -0.15,0.24 0.05,-0.1 -0.12,0.22 v 0.05 l -0.14,0.26 0.07,-0.19 -0.53,1.68 0.03,-0.07 -0.2,0.79 v 0.05 l -0.45,1.68 c -0.03,0.04 -0.03,0.09 -0.05,0.12 l -0.24,0.64 -0.02,0.03 -0.27,0.65 c -0.02,0.02 -0.05,0.09 -0.09,0.14 l -0.44,0.65 -0.07,0.09 -0.19,0.22 -0.05,0.07 -0.21,0.22 -0.03,0.05 -0.24,0.19 c -0.07,0.05 -0.14,0.12 -0.24,0.14 l -0.29,0.15 c -0.38,0.19 -0.86,0.09 -1.12,-0.27 -0.27,-0.33 -0.27,-0.84 0.02,-1.17 z"
         style="fill:#000000;fill-opacity:1;fill-rule:nonzero;stroke:none"
         transform="matrix(1.3333333,0,0,-1.3333333,0,1120.8)" />
    </g>
    <g
       id="g177">
      <path
         id="path177"
         d="m 260.9,671.83 c 0,-0.31 -0.26,-0.57 -0.6,-0.57 -0.31,0 -0.55,0.26 -0.55,0.57 0,0.31 0.24,0.58 0.55,0.58 0.34,0 0.6,-0.27 0.6,-0.58 z"
         style="fill:#000000;fill-opacity:1;fill-rule:evenodd;stroke:none"
         transform="matrix(1.3333333,0,0,-1.3333333,0,1120.8)" />
    </g>
    <g
       id="g178">
      <path
         id="path178"
         d="m 260.28,664.03 v -0.02 0 0 -0.05 -0.02 l 0.24,0.48 -0.02,-0.03 c -0.12,-0.09 -0.22,-0.26 -0.24,-0.45 v 0 l 0.24,0.43 h -0.03 c -0.05,-0.05 -0.12,-0.12 -0.14,-0.19 l -0.03,-0.05 0.7,0.36 v 0 c -0.29,0.05 -0.58,-0.1 -0.72,-0.36 l -0.05,-0.07 0.07,0.09 -0.07,-0.09 -0.05,-0.08 -0.64,-1.15 -0.03,-0.02 -0.24,-0.43 v 0 l -0.31,-0.63 c -0.05,-0.07 -0.07,-0.14 -0.1,-0.21 v -0.08 c -0.07,-0.28 0.03,-0.57 0.24,-0.76 0.22,-0.17 0.53,-0.24 0.8,-0.15 0.26,0.1 0.45,0.31 0.5,0.6 l 0.02,0.1 -0.07,-0.19 0.31,0.62 v 0 l 0.22,0.46 v 0 l 0.55,1.2 -0.02,-0.08 0.07,0.1 0.02,0.07 0.05,0.05 -0.55,-0.38 v 0 c 0.24,0.02 0.48,0.19 0.55,0.43 l 0.03,0.02 -0.1,-0.19 v 0.05 c 0.12,0.14 0.19,0.33 0.14,0.53 v 0 l -0.14,-0.53 0.02,0.02 c 0.1,0.15 0.17,0.31 0.17,0.51 l -0.02,0.02 v 0.05 0 0 0.02 c -0.05,0.34 -0.34,0.6 -0.7,0.6 -0.33,0 -0.62,-0.26 -0.67,-0.6 z"
         style="fill:#000000;fill-opacity:1;fill-rule:nonzero;stroke:none"
         transform="matrix(1.3333333,0,0,-1.3333333,0,1120.8)" />
    </g>
    <g
       id="g179">
      <path
         id="path179"
         d="m 261.96,662.81 -0.14,-0.19 h -0.03 l -0.05,-0.1 c -0.02,-0.02 -0.04,-0.07 -0.07,-0.12 l -0.05,-0.12 -0.02,-0.02 -0.14,-0.36 -0.03,-0.05 -0.02,-0.12 0.02,0.09 -0.05,-0.12 0.03,0.03 -0.15,-0.29 0.05,0.12 -0.05,-0.07 c -0.24,-0.34 -0.16,-0.82 0.17,-1.08 0.34,-0.24 0.82,-0.17 1.08,0.17 l 0.05,0.07 c 0.02,0.02 0.02,0.07 0.07,0.12 l 0.15,0.29 0.02,0.04 0.02,0.12 0.05,0.1 0.03,0.12 -0.03,-0.07 0.12,0.33 v -0.02 l 0.05,0.12 -0.05,-0.12 0.05,0.12 0.05,0.07 0.09,0.22 c 0.15,0.33 0.03,0.72 -0.28,0.91 -0.34,0.19 -0.75,0.1 -0.94,-0.19 z"
         style="fill:#000000;fill-opacity:1;fill-rule:nonzero;stroke:none"
         transform="matrix(1.3333333,0,0,-1.3333333,0,1120.8)" />
    </g>
    <g
       id="g180">
      <path
         id="path180"
         d="m 258.55,659.76 0.19,-0.02 -0.02,0.02 0.22,-0.02 h 0.04 1.04 -0.08 l 0.7,-0.05 h 0.02 l 1.9,-0.05 v 0 h 0.12 c 0.34,0 0.62,0.17 0.79,0.46 0.17,0.28 0.17,0.62 0,0.91 -0.17,0.29 -0.45,0.45 -0.79,0.45 h -0.12 v 0 l -1.9,-0.04 h 0.03 -0.7 l -0.07,-0.03 -1.03,-0.12 h 0.05 l -0.22,-0.02 h -0.1 l -0.19,-0.03 c -0.36,-0.07 -0.65,-0.4 -0.6,-0.79 0.03,-0.38 0.36,-0.67 0.72,-0.67 z"
         style="fill:#000000;fill-opacity:1;fill-rule:nonzero;stroke:none"
         transform="matrix(1.3333333,0,0,-1.3333333,0,1120.8)" />
    </g>
    <g
       id="g187">
      <path
         id="path187"
         d="m 247.25,695.26 v 0 l -0.05,0.09 -0.02,0.03 c -0.08,0.09 -0.15,0.14 -0.24,0.19 v 0 l 0.28,-0.27 -0.02,0.03 0.05,-0.12 -0.03,0.02 c 0,0.05 0,0.1 -0.04,0.12 v 0.03 0 0.02 -0.53 0 c 0.07,0.15 0.07,0.29 0.04,0.43 v 0.03 c -0.02,0.05 -0.04,0.09 -0.04,0.14 h -0.03 l 0.05,-0.12 v 0.03 c -0.02,0.04 -0.02,0.09 -0.07,0.12 v 0.04 l 0.02,-0.57 v 0 c 0.03,0.05 0.03,0.09 0.05,0.14 v 0.03 l -0.02,-0.15 v 0.03 c 0.04,0.14 0.07,0.31 0.02,0.45 l -0.02,0.03 0.02,-0.32 0.02,0.05 c 0.03,0.15 0,0.31 -0.09,0.46 v 0.02 l 0.02,-0.62 v 0.02 c 0.03,0.03 0.05,0.07 0.07,0.15 v 0.02 l -0.04,-0.14 v 0 c 0.02,0.04 0.04,0.09 0.04,0.16 v 0.03 l -0.04,-0.15 v 0 l -0.08,-0.12 0.03,0.03 c 0.05,0.05 0.07,0.12 0.09,0.19 l 0.03,0.07 c 0.02,0.03 0.02,0.07 0.05,0.15 v 0.04 0 0.05 l -0.17,-0.38 0.05,0.05 c 0.04,0.04 0.07,0.09 0.09,0.14 l 0.03,0.05 v 0 l 0.02,0.05 v 0 l 0.02,0.04 -0.12,-0.16 0.05,0.04 0.03,0.05 0.02,0.03 c 0.02,0.02 0.07,0.07 0.07,0.12 l 0.03,0.04 -0.36,-0.36 0.07,0.03 c 0.09,0.05 0.19,0.14 0.26,0.24 l 0.03,0.02 -0.05,-0.07 0.09,0.12 -0.02,-0.02 0.1,0.07 -0.08,-0.05 0.12,0.07 -0.07,-0.05 0.1,0.08 c 0.05,0.02 0.07,0.04 0.12,0.09 l 0.07,0.07 -0.17,-0.12 0.12,0.08 -0.05,-0.03 0.1,0.05 0.1,0.05 0.09,0.05 -0.12,-0.05 0.12,0.05 v 0 l 0.12,0.04 -0.09,-0.04 0.12,0.04 h 0.02 l 0.14,0.05 h -0.07 l 0.24,0.05 -0.24,-0.02 h 0.07 c 0.05,0 0.12,0 0.17,0 l 0.07,0.02 -0.16,-0.02 h 0.12 v 0 h 0.07 v 0 h 0.09 v 0 h 0.08 l -0.12,0.02 0.09,-0.02 c 0.05,0 0.1,0 0.15,0 h 0.04 -0.12 0.1 -0.02 l 0.07,-0.03 -0.15,0.05 0.08,-0.02 c 0.04,-0.03 0.09,-0.05 0.16,-0.05 l 0.08,-0.03 -0.27,0.1 0.07,-0.05 c 0.1,-0.05 0.2,-0.09 0.32,-0.09 l 0.09,-0.03 -0.38,0.15 0.07,-0.03 0.1,-0.07 0.19,-0.12 -0.03,0.02 0.12,-0.07 -0.04,0.03 0.12,-0.1 -0.03,0.02 0.12,-0.07 -0.05,0.03 0.1,-0.12 v 0 l 0.1,-0.1 v 0 l 0.12,-0.1 -0.12,0.15 0.09,-0.15 c 0.03,-0.02 0.03,-0.07 0.07,-0.09 l 0.1,-0.12 -0.05,0.05 0.12,-0.12 -0.09,0.12 0.07,-0.15 0.05,-0.05 0.07,-0.14 -0.03,0.07 0.05,-0.12 v 0.03 l 0.05,-0.15 -0.02,0.05 0.16,-0.41 -0.04,0.07 0.12,-0.33 v 0 l 0.09,-0.36 v 0.05 l 0.05,-0.34 -0.02,0.07 0.07,-0.41 v 0.05 l 0.07,-0.86 v 0.02 l 0.02,-0.45 0.03,-0.03 0.05,-0.45 v -0.05 l 0.16,-1.03 0.05,-0.08 0.03,-0.19 v 0 l 0.07,-0.17 0.02,-0.07 0.07,-0.17 0.03,-0.07 0.07,-0.17 v 0 l 0.19,-0.36 c 0.05,-0.12 0.15,-0.24 0.27,-0.33 l 0.04,-0.03 -0.12,0.12 0.05,-0.04 -0.09,0.09 0.04,-0.07 0.08,-0.1 0.04,-0.02 v 0 l 0.05,-0.02 v 0 l 0.03,-0.05 c 0.09,-0.12 0.21,-0.17 0.33,-0.22 l 0.05,-0.02 -0.43,0.33 0.02,-0.04 c 0.12,-0.17 0.31,-0.29 0.51,-0.34 l 0.07,-0.02 -0.27,0.12 0.05,-0.05 v 0 l 0.05,-0.03 c 0.07,-0.04 0.14,-0.07 0.19,-0.09 l 0.07,-0.03 -0.04,0.03 0.12,-0.05 -0.03,0.02 0.12,-0.07 c 0.05,-0.02 0.12,-0.02 0.17,-0.05 h 0.07 -0.05 l 0.12,-0.02 h -0.04 l 0.09,-0.02 c 0.1,-0.05 0.17,-0.05 0.27,-0.05 h 0.09 -0.09 l 0.33,-0.03 c 0.05,0 0.1,0 0.15,0 l 0.38,0.03 v 0 l 0.36,0.05 h 0.07 l 0.39,0.07 v 0 l 0.38,0.05 0.07,0.02 0.82,0.24 -0.03,-0.02 1.25,0.31 h -0.07 l 0.24,0.02 0.05,0.03 0.21,0.04 -0.12,-0.02 0.24,0.02 h -0.02 0.58 -0.1 l 0.31,-0.04 -0.05,0.02 0.32,-0.07 -0.08,0.02 0.29,-0.05 h -0.02 l 0.31,-0.09 -0.1,0.02 0.84,-0.29 h -0.02 l 0.22,-0.09 h -0.03 l 0.22,-0.1 -0.1,0.05 0.24,-0.14 v 0 l 0.19,-0.12 -0.04,0.04 0.19,-0.14 -0.05,0.02 0.55,-0.45 -0.05,0.05 0.12,-0.15 0.05,-0.02 0.15,-0.15 -0.05,0.05 0.14,-0.14 -0.02,0.02 0.14,-0.14 -0.05,0.05 0.12,-0.17 v 0 l 0.12,-0.15 -0.04,0.08 0.26,-0.39 -0.05,0.05 0.17,-0.29 v 0.03 l 0.14,-0.32 -0.02,0.05 0.29,-0.65 -0.05,0.1 0.12,-0.34 v 0 l 0.1,-0.31 -0.03,0.07 0.07,-0.31 v 0 l 0.05,-0.31 v 0.02 l 0.07,-0.33 -0.02,0.09 0.07,-0.84 v 0.1 l -0.07,-2.5 v 0.03 l -0.07,-1.23 v 0 l -0.07,-2.25 v -0.03 -0.28 c 0,-0.32 0.16,-0.6 0.4,-0.75 0.29,-0.14 0.6,-0.14 0.87,0 0.26,0.15 0.43,0.43 0.43,0.75 v 0.28 -0.02 l 0.05,2.26 v -0.05 l 0.07,1.22 v 0.03 l 0.07,2.47 v 0.09 l -0.07,0.84 v 0.12 l -0.07,0.32 h -0.03 l -0.04,0.31 v 0 l -0.08,0.33 -0.02,0.08 -0.1,0.31 v -0.03 l -0.09,0.34 -0.03,0.1 -0.28,0.64 -0.03,0.05 -0.17,0.31 v 0.03 l -0.16,0.29 -0.03,0.04 -0.24,0.39 -0.05,0.05 -0.12,0.16 v 0 l -0.12,0.15 -0.02,0.02 -0.14,0.15 -0.03,0.04 -0.17,0.15 -0.02,0.05 -0.14,0.12 0.04,-0.05 -0.14,0.14 -0.05,0.05 -0.55,0.46 -0.02,0.04 -0.22,0.15 -0.05,0.05 -0.21,0.12 v 0 l -0.22,0.12 -0.1,0.04 -0.19,0.12 h -0.05 l -0.21,0.1 -0.03,0.02 -0.84,0.32 h -0.07 l -0.31,0.09 h -0.02 l -0.29,0.07 -0.05,0.03 -0.31,0.05 h -0.05 l -0.29,0.02 -0.09,0.02 H 258 257.93 l -0.24,-0.04 c -0.05,0 -0.1,0 -0.12,0 l -0.24,-0.05 0.07,0.02 -0.24,-0.05 -0.1,-0.02 -1.24,-0.29 -0.03,-0.02 -0.81,-0.22 h 0.09 l -0.38,-0.05 h 0.02 l -0.41,-0.07 h 0.08 l -0.36,-0.02 v 0 l -0.39,-0.03 h 0.17 l -0.31,0.03 h -0.1 -0.09 l 0.26,-0.05 -0.1,0.02 -0.04,0.03 -0.1,0.02 -0.07,0.03 -0.07,0.02 0.16,-0.05 -0.12,0.03 -0.04,0.02 -0.12,0.07 h -0.03 -0.05 l 0.2,-0.09 -0.05,0.04 v 0 l -0.07,0.03 c -0.08,0.05 -0.15,0.09 -0.24,0.12 l -0.08,0.02 0.51,-0.36 -0.05,0.05 c -0.1,0.17 -0.26,0.26 -0.41,0.34 h -0.07 l 0.34,-0.2 -0.05,0.05 v 0 l -0.03,0.03 v 0 l -0.04,0.04 0.09,-0.09 -0.07,0.07 -0.07,0.1 -0.03,0.02 c -0.04,0.05 -0.07,0.07 -0.14,0.1 l -0.05,0.04 0.29,-0.31 -0.17,0.36 v 0 l -0.09,0.15 0.04,-0.05 -0.07,0.14 0.03,-0.05 -0.05,0.17 v -0.05 l -0.05,0.2 0.02,-0.08 -0.19,1.04 v -0.05 l -0.05,0.43 v -0.02 l -0.02,0.45 v 0 l -0.07,0.87 v 0.04 l -0.07,0.36 v 0.08 l -0.08,0.33 v 0.07 l -0.09,0.36 v 0 l -0.1,0.36 -0.02,0.05 -0.15,0.39 -0.02,0.04 -0.07,0.17 -0.03,0.03 -0.04,0.12 -0.05,0.09 -0.07,0.12 0.04,-0.07 -0.07,0.14 c -0.02,0.05 -0.05,0.08 -0.09,0.12 l -0.1,0.12 -0.02,0.05 -0.12,0.12 0.09,-0.09 -0.09,0.12 c -0.03,0.07 -0.08,0.12 -0.12,0.16 l -0.12,0.12 v 0 l -0.08,0.08 v 0 l -0.12,0.12 -0.04,0.04 -0.12,0.12 -0.05,0.03 -0.12,0.09 -0.07,0.05 -0.12,0.07 -0.03,0.03 -0.21,0.09 0.09,-0.04 -0.07,0.04 c -0.12,0.1 -0.24,0.15 -0.38,0.17 l -0.1,0.03 0.31,-0.12 -0.09,0.04 c -0.08,0.05 -0.17,0.08 -0.27,0.12 h -0.09 l 0.16,-0.04 -0.09,0.04 c -0.05,0 -0.1,0.03 -0.15,0.05 h -0.07 -0.05 l -0.07,0.03 c -0.05,0 -0.12,0 -0.17,0 h -0.04 0.12 -0.08 c -0.04,0 -0.09,0.02 -0.16,0.02 h -0.08 v 0 l -0.09,-0.02 v 0 h -0.07 v 0 h -0.12 c -0.03,0 -0.1,0 -0.15,0 l -0.09,-0.03 0.16,0.03 h -0.07 c -0.09,0 -0.17,-0.03 -0.24,-0.03 l -0.21,-0.09 h -0.08 l -0.12,-0.08 v 0.03 l -0.07,-0.03 -0.07,-0.04 -0.12,-0.03 v 0 l -0.1,-0.07 c -0.07,-0.02 -0.12,-0.05 -0.14,-0.07 l -0.1,-0.07 0.08,0.04 -0.1,-0.04 h -0.02 l -0.12,-0.08 c -0.08,-0.04 -0.12,-0.07 -0.17,-0.14 l -0.1,-0.07 0.15,0.09 -0.12,-0.07 -0.05,-0.05 -0.12,-0.07 -0.05,-0.05 -0.07,-0.09 -0.07,-0.07 -0.08,-0.12 c -0.07,-0.08 -0.12,-0.17 -0.16,-0.27 v -0.05 l 0.26,0.41 -0.05,-0.05 c -0.14,-0.12 -0.24,-0.28 -0.26,-0.45 l -0.03,-0.05 0.03,0.07 v -0.05 l 0.05,0.15 -0.03,-0.05 c -0.05,-0.07 -0.05,-0.14 -0.07,-0.22 l -0.02,-0.04 v 0 -0.05 0 -0.05 l 0.04,0.19 v -0.05 c -0.09,-0.12 -0.12,-0.28 -0.09,-0.43 v -0.05 0 l 0.02,-0.04 v 0.21 l -0.02,-0.09 0.02,0.09 v -0.02 c -0.05,-0.17 -0.05,-0.34 0.03,-0.51 v 0 l -0.05,0.15 0.02,-0.03 c 0,-0.07 0.03,-0.12 0.05,-0.16 v 0 l -0.05,0.14 0.03,-0.02 c 0,-0.08 0,-0.12 0.04,-0.15 v -0.02 c 0.05,-0.15 0.15,-0.27 0.29,-0.31 l 0.03,-0.03 -0.34,0.48 v -0.05 c 0.02,-0.09 0.05,-0.19 0.12,-0.26 l 0.02,-0.02 -0.07,0.12 v -0.03 l -0.05,0.15 v -0.03 c 0.03,-0.05 0.03,-0.09 0.05,-0.14 h 0.03 c 0.04,-0.15 0.14,-0.24 0.28,-0.31 v -0.03 l -0.21,0.19 0.05,-0.04 c 0.04,-0.05 0.12,-0.12 0.19,-0.15 l 0.02,-0.02 -0.21,0.17 0.04,-0.03 -0.09,0.12 v 0 c 0.07,-0.12 0.17,-0.24 0.29,-0.31 h 0.02 v 0 l 0.02,-0.02 -0.21,0.16 0.02,-0.02 c 0.07,-0.05 0.12,-0.12 0.19,-0.17 h 0.03 c 0.17,-0.09 0.36,-0.09 0.53,-0.02 v 0.02 l -0.58,0.05 0.02,-0.02 0.08,-0.05 0.04,-0.03 c 0.2,-0.09 0.48,-0.07 0.65,0.12 0.19,0.17 0.24,0.44 0.1,0.68 z"
         style="fill:#00a0d7;fill-opacity:1;fill-rule:nonzero;stroke:none"
         transform="matrix(1.3333333,0,0,-1.3333333,0,1120.8)" />
    </g>
    <g
       id="g188">
      <path
         id="path188"
         d="m 250.73,680.21 -0.53,0.14 0.22,-0.09 -0.1,0.07 c -0.22,0.17 -0.55,0.21 -0.82,0.05 -0.24,-0.15 -0.38,-0.44 -0.33,-0.75 0.05,-0.29 0.26,-0.53 0.57,-0.57 l 0.24,-0.05 c 0.05,-0.03 0.1,-0.03 0.15,-0.03 l 2.21,-0.07 h 0.02 l 0.48,-0.02 h -0.02 l 1.29,-0.07 h 0.07 0.12 c 0.32,0 0.63,0.16 0.8,0.43 0.16,0.29 0.16,0.65 0,0.91 -0.17,0.29 -0.48,0.46 -0.8,0.46 h -0.12 0.03 l -1.3,0.02 h -0.07 -0.48 -0.02 l -2.24,-0.1 c -0.04,0 -0.07,-0.02 -0.12,-0.02 l -0.24,-0.07 c -0.31,-0.05 -0.55,-0.31 -0.57,-0.63 -0.03,-0.31 0.14,-0.6 0.43,-0.72 0.29,-0.12 0.62,-0.04 0.82,0.2 l 0.09,0.07 -0.26,-0.17 0.5,0.17 c 0.19,0.07 0.31,0.24 0.29,0.43 0,0.19 -0.14,0.38 -0.31,0.41 z"
         style="fill:#00a0d7;fill-opacity:1;fill-rule:nonzero;stroke:none"
         transform="matrix(1.3333333,0,0,-1.3333333,0,1120.8)" />
    </g>
    <g
       id="g189">
      <path
         id="path189"
         d="m 250.63,680.54 -0.09,0.22 v -0.05 l -0.03,0.07 v 0 l -0.02,0.08 0.02,-0.05 -0.02,0.07 v 0 l -0.03,0.1 0.03,-0.17 -0.03,0.09 v 0 0.08 0.04 0.05 -0.02 l -0.04,0.21 0.02,-0.16 0.02,0.19 v 0 0.17 0.04 l 0.03,0.44 -0.03,-0.17 0.03,0.09 -0.03,-0.04 0.05,0.09 -0.05,-0.09 0.05,0.09 0.03,0.1 v 0.09 l -0.03,-0.16 0.03,0.07 c 0.02,0.07 0.04,0.12 0.07,0.21 l 0.02,0.08 -0.14,-0.32 0.05,0.08 c 0.02,0.04 0.04,0.09 0.07,0.12 l 0.05,0.09 -0.08,-0.14 0.05,0.09 c 0.03,0.03 0.05,0.08 0.07,0.12 l 0.05,0.08 -0.09,-0.12 0.07,0.07 v 0 l 0.05,0.09 -0.1,-0.12 0.14,0.15 -0.04,-0.03 0.04,0.03 v 0 l 0.05,0.05 c 0.05,0.04 0.07,0.07 0.12,0.12 l 0.03,0.07 -0.24,-0.24 0.04,0.05 -0.09,-0.08 0.05,0.03 c 0.12,0.05 0.21,0.12 0.28,0.19 l 0.05,0.05 -0.26,-0.19 0.05,0.04 c 0.07,0.03 0.12,0.05 0.16,0.08 l 0.08,0.07 -0.36,-0.17 0.04,0.02 c 0.08,0 0.17,0.03 0.22,0.05 l 0.07,0.05 -0.21,-0.07 h 0.07 c 0.07,0.02 0.14,0.05 0.21,0.07 l 0.08,0.02 v 0 l 0.04,0.05 -0.43,-0.09 h 0.05 c 0.1,0 0.17,0 0.24,0.02 l 0.07,0.02 v 0 h 0.07 l -0.12,-0.02 0.17,0.02 h 0.07 l 0.1,0.03 -0.17,-0.03 h 0.12 l -0.14,0.03 0.12,-0.03 h -0.03 0.1 l 0.02,-0.02 0.12,-0.02 v 0 h 0.12 -0.04 l 0.12,-0.03 -0.24,0.07 0.12,-0.04 c 0.07,-0.05 0.14,-0.05 0.21,-0.08 l 0.12,-0.02 -0.29,0.1 0.08,-0.05 v 0 l 0.12,-0.05 c 0.04,-0.02 0.09,-0.05 0.12,-0.07 l 0.09,-0.03 -0.12,0.08 0.1,-0.05 -0.1,0.05 0.07,-0.08 v 0 l 0.12,-0.04 -0.07,0.04 0.07,-0.07 v 0 l 0.08,-0.05 v 0 l 0.09,-0.09 v 0 l 0.07,-0.05 -0.07,0.07 0.07,-0.09 -0.07,0.07 0.1,-0.1 -0.03,0.03 0.08,-0.08 v 0 l 0.04,-0.09 -0.04,0.07 0.14,-0.19 -0.05,0.09 0.07,-0.16 c 0.03,-0.05 0.05,-0.08 0.08,-0.12 l 0.09,-0.12 -0.05,0.04 0.08,-0.14 -0.05,0.12 0.05,-0.17 0.02,-0.02 0.07,-0.15 -0.05,0.12 0.15,-0.48 v 0.03 l 0.02,-0.07 -0.02,0.04 0.02,-0.07 v -0.05 l 0.03,-0.07 -0.03,0.27 v -0.08 0 -0.09 0 -0.05 0 -0.07 0 -0.07 0 -0.08 0 -0.09 l 0.03,0.26 -0.03,-0.05 0.07,0.2 -0.02,-0.05 c -0.05,-0.1 -0.07,-0.19 -0.1,-0.27 v -0.09 l 0.03,0.12 -0.05,-0.15 0.02,0.08 -0.04,-0.12 c -0.22,-0.53 0.02,-1.13 0.55,-1.35 0.53,-0.21 1.13,0.03 1.37,0.55 l 0.04,0.1 0.05,0.1 0.03,0.14 c 0.02,0.05 0.04,0.1 0.04,0.12 v 0.1 l -0.07,-0.29 0.03,0.09 c 0.04,0.05 0.07,0.12 0.09,0.2 v 0.07 c 0.03,0.09 0.03,0.17 0.03,0.24 v 0.09 0 0.08 0 0.07 0 0.07 0 0.05 0 0.09 0 0.08 c 0,0.07 0,0.16 -0.03,0.24 v 0.07 -0.05 0.1 l -0.02,0.04 -0.03,0.05 v 0.07 l -0.16,0.48 c 0,0.03 -0.03,0.08 -0.03,0.12 l -0.07,0.15 0.02,-0.03 -0.07,0.15 c -0.02,0.05 -0.05,0.09 -0.05,0.12 l -0.09,0.17 -0.05,0.07 -0.1,0.14 0.08,-0.12 -0.08,0.17 c -0.04,0.05 -0.04,0.1 -0.07,0.12 l -0.14,0.19 -0.07,0.07 -0.05,0.1 v 0 l -0.07,0.07 -0.03,0.03 -0.07,0.09 -0.07,0.07 -0.07,0.08 -0.1,0.07 -0.07,0.07 v 0 l -0.1,0.05 v 0 l -0.09,0.09 v 0 l -0.08,0.05 -0.07,0.05 -0.09,0.07 v 0 l -0.1,0.07 c -0.05,0.03 -0.07,0.03 -0.12,0.05 l -0.1,0.05 c -0.04,0.02 -0.07,0.05 -0.12,0.05 l -0.12,0.05 0.15,-0.08 -0.1,0.08 v 0 l -0.09,0.04 c -0.1,0.03 -0.2,0.08 -0.32,0.08 l -0.07,0.02 0.24,-0.07 -0.12,0.05 c -0.09,0.04 -0.17,0.04 -0.24,0.07 h -0.09 -0.03 l -0.12,0.02 v 0 l -0.12,0.03 h 0.03 -0.1 -0.02 l -0.12,0.02 c -0.05,0.02 -0.1,0.02 -0.15,0.02 h -0.12 c -0.05,0 -0.09,-0.02 -0.17,-0.02 l -0.07,-0.02 h 0.07 -0.19 c -0.05,-0.03 -0.12,-0.03 -0.17,-0.05 l -0.07,-0.03 v 0 h -0.07 l 0.24,0.03 h -0.05 c -0.17,0 -0.31,-0.05 -0.45,-0.12 l -0.08,-0.03 v 0 l -0.04,-0.04 0.19,0.07 h -0.07 c -0.08,-0.03 -0.12,-0.05 -0.2,-0.1 l -0.07,-0.02 0.22,0.07 -0.07,-0.02 c -0.12,-0.03 -0.24,-0.08 -0.34,-0.17 l -0.07,-0.05 0.14,0.1 -0.05,-0.05 c -0.12,-0.03 -0.19,-0.12 -0.26,-0.19 l -0.05,-0.05 0.24,0.21 -0.05,-0.04 c -0.04,-0.03 -0.07,-0.05 -0.12,-0.08 l -0.04,-0.04 c -0.08,-0.05 -0.15,-0.12 -0.22,-0.22 l -0.05,-0.07 0.07,0.12 -0.04,-0.07 v 0 l -0.03,-0.05 -0.05,-0.03 -0.12,-0.16 c -0.04,-0.05 -0.09,-0.12 -0.12,-0.17 l -0.04,-0.1 v 0 l -0.05,-0.07 c -0.03,-0.05 -0.05,-0.1 -0.07,-0.14 l -0.03,-0.08 0.07,0.12 -0.04,-0.07 c -0.03,-0.05 -0.05,-0.09 -0.08,-0.14 l -0.02,-0.07 0.07,0.12 -0.05,-0.08 c -0.07,-0.09 -0.09,-0.21 -0.12,-0.33 v -0.1 l 0.05,0.19 -0.05,-0.09 c 0,-0.05 -0.02,-0.12 -0.02,-0.15 l -0.02,-0.09 0.04,0.12 -0.04,-0.1 c 0,-0.05 -0.03,-0.09 -0.03,-0.12 v -0.09 0 l -0.02,-0.12 c 0,-0.05 0,-0.08 0,-0.12 l 0.02,-0.44 v -0.04 -0.17 0 l 0.03,-0.19 v -0.08 l 0.04,-0.21 c 0,-0.05 0.03,-0.1 0.05,-0.15 l 0.03,-0.04 -0.03,0.04 0.03,-0.09 v 0 -0.07 c 0.02,-0.05 0.04,-0.1 0.07,-0.15 l 0.05,-0.07 v 0 l 0.02,-0.07 0.05,-0.07 0.05,-0.08 v 0 l 0.02,-0.04 0.02,-0.05 0.15,-0.19 c 0.24,-0.32 0.67,-0.41 1.01,-0.2 0.33,0.2 0.48,0.6 0.33,0.96 z"
         style="fill:#00a0d7;fill-opacity:1;fill-rule:nonzero;stroke:none"
         transform="matrix(1.3333333,0,0,-1.3333333,0,1120.8)" />
    </g>
  </g>
</svg>
