<?xml version="1.0" encoding="UTF-8" standalone="no"?>
<!-- Created with Inkscape (http://www.inkscape.org/) -->

<svg
   version="1.1"
   id="svg1"
   width="29.903971"
   height="55"
   viewBox="0 0 29.903971 54.999998"
   sodipodi:docname="lesson1_sentence6_word1.svg"
   inkscape:version="1.4.3 (0d15f75, 2025-12-25)"
   xmlns:inkscape="http://www.inkscape.org/namespaces/inkscape"
   xmlns:sodipodi="http://sodipodi.sourceforge.net/DTD/sodipodi-0.dtd"
   xmlns="http://www.w3.org/2000/svg"
   xmlns:svg="http://www.w3.org/2000/svg">
  <defs
     id="defs1" />
  <sodipodi:namedview
     id="namedview1"
     pagecolor="#ffffff"
     bordercolor="#000000"
     borderopacity="0.25"
     inkscape:showpageshadow="2"
     inkscape:pageopacity="0.0"
     inkscape:pagecheckerboard="0"
     inkscape:deskcolor="#d1d1d1"
     inkscape:zoom="6.8847372"
     inkscape:cx="-18.156103"
     inkscape:cy="33.479855"
     inkscape:window-width="1920"
     inkscape:window-height="1191"
     inkscape:window-x="-9"
     inkscape:window-y="-9"
     inkscape:window-maximized="1"
     inkscape:current-layer="g1">
    <inkscape:page
       x="0"
       y="0"
       inkscape:label="1"
       id="page1"
       width="29.903971"
       height="54.999996"
       margin="0"
       bleed="0" />
  </sodipodi:namedview>
  <g
     id="g1"
     inkscape:groupmode="layer"
     inkscape:label="1"
     transform="translate(-324.22269,-101.89336)">
    <g
       id="g152"
       transform="translate(0,1)">
      <path
         id="path152"
         d="m 247.78,762.65 0.02,0.24 v 0 0 l -0.26,-0.55 0.04,0.02 h -0.02 l 0.02,0.02 c 0.17,0.15 0.24,0.36 0.27,0.56 v 0.04 l -0.27,-0.6 v 0.03 h 0.03 l 0.02,0.05 v 0 h 0.03 v 0 l 0.02,0.04 -0.02,-0.04 0.02,0.04 -0.65,-0.24 h 0.03 c 0.24,-0.02 0.48,0.08 0.67,0.24 l 0.02,0.03 v 0 l 0.03,0.02 -0.68,-0.26 v 0 c 0.24,0 0.48,0.07 0.65,0.24 0.17,0.14 0.27,0.36 0.29,0.6 v 0.02 l -0.48,-0.74 0.05,0.02 -0.46,-0.09 h 0.03 -0.05 0.02 0.07 0.03 v 0 0 c 0.26,-0.03 0.5,0.07 0.69,0.26 l 0.03,0.02 -0.67,-0.28 h 0.04 0.08 l 0.64,0.04 h -0.09 0.02 0.03 0.09 v 0 h 0.1 l -0.19,0.03 0.09,-0.03 c 0.07,0 0.12,-0.02 0.19,-0.02 h 0.12 l -0.24,0.05 0.08,-0.03 v 0 l 0.09,-0.04 h 0.03 l 0.12,-0.03 -0.24,0.1 0.09,-0.05 c 0.05,-0.05 0.15,-0.07 0.22,-0.1 l 0.09,-0.02 -0.24,0.1 0.1,-0.05 0.07,-0.03 0.12,-0.04 -0.09,0.02 0.09,-0.05 v 0 l 0.07,-0.05 -0.12,0.12 0.08,-0.09 v 0.02 l 0.16,-0.17 -0.07,0.08 0.07,-0.08 -0.04,0.08 0.09,-0.12 0.05,-0.08 0.1,-0.12 v 0 l 0.09,-0.09 -0.12,0.14 0.1,-0.14 -0.03,0.05 0.08,-0.12 0.04,-0.1 0.08,-0.1 -0.03,0.05 0.07,-0.14 -0.07,0.21 0.03,-0.14 0.02,-0.05 0.14,-0.38 v 0.05 l 0.17,-0.6 v 0.04 l 0.15,-0.57 -0.03,0.05 0.12,-0.6 v 0.07 l 0.19,-1.39 v 0.04 l 0.17,-1.96 v 0.09 -1.27 -0.02 l 0.03,-2.19 v 0 l 0.07,-5.52 v -0.07 l 0.09,-1.42 v 0.03 l 0.1,-2.04 v 0.07 -0.1 c -0.02,-0.33 0.17,-0.64 0.46,-0.84 0.31,-0.16 0.67,-0.16 0.96,0 0.28,0.2 0.48,0.51 0.48,0.84 v 0.1 0.05 l -0.12,2.01 v 0.03 l -0.12,1.41 v -0.04 l -0.08,5.52 v 0 l -0.04,2.2 v -0.02 1.27 l -0.03,0.07 -0.17,1.95 v 0.05 l -0.19,1.39 v 0.07 l -0.12,0.6 -0.02,0.02 -0.15,0.58 v 0.05 l -0.19,0.6 -0.02,0.05 -0.15,0.38 v -0.07 l -0.02,0.14 c -0.02,0.07 -0.05,0.15 -0.1,0.22 l -0.07,0.12 -0.05,0.07 -0.09,0.12 0.07,-0.1 -0.07,0.12 -0.03,0.03 -0.07,0.12 c -0.05,0.07 -0.07,0.12 -0.12,0.14 l -0.07,0.1 v 0 l -0.1,0.12 0.05,-0.07 -0.09,0.12 -0.05,0.07 -0.07,0.09 -0.1,0.08 -0.17,0.14 -0.02,0.02 -0.1,0.08 c -0.05,0.02 -0.09,0.04 -0.12,0.07 l -0.09,0.05 v 0 l -0.1,0.04 -0.05,0.03 -0.12,0.05 0.07,-0.03 -0.07,0.05 c -0.09,0.05 -0.17,0.07 -0.24,0.1 h -0.12 l 0.24,-0.08 -0.09,0.03 c -0.08,0.05 -0.15,0.09 -0.24,0.09 l -0.1,0.03 h 0.05 l -0.07,0.02 v 0 l -0.1,0.03 c -0.07,0 -0.14,0.02 -0.22,0.02 h -0.12 l 0.2,-0.02 -0.12,0.02 c -0.05,0.02 -0.12,0.02 -0.17,0.02 h -0.1 v 0 h -0.09 -0.03 -0.02 -0.05 l -0.62,-0.04 h 0.04 -0.04 c -0.24,-0.03 -0.48,-0.12 -0.65,-0.32 l -0.03,-0.02 0.63,0.29 v 0 0 h -0.03 -0.07 -0.02 0.05 -0.03 c -0.14,0 -0.26,-0.03 -0.38,-0.12 h -0.05 c -0.29,-0.17 -0.46,-0.48 -0.43,-0.82 v -0.02 l 0.81,0.93 v 0 c -0.24,-0.02 -0.48,-0.14 -0.64,-0.33 v 0 0 l -0.03,-0.03 0.63,0.29 h -0.03 c -0.26,-0.02 -0.5,-0.14 -0.65,-0.33 v 0 0 0 0 l -0.04,-0.05 v 0 0 l -0.03,-0.03 -0.02,-0.04 c -0.12,-0.17 -0.19,-0.36 -0.19,-0.56 v -0.04 l 0.21,0.6 h -0.02 v 0 l -0.03,-0.05 c -0.12,-0.15 -0.21,-0.36 -0.19,-0.6 v 0 c 0,-0.17 0.05,-0.31 0.15,-0.43 l 0.12,-0.2 c 0.19,-0.28 0.52,-0.43 0.86,-0.33 0.34,0.09 0.58,0.38 0.58,0.72 z"
         style="fill:#000000;fill-opacity:1;fill-rule:nonzero;stroke:none"
         transform="matrix(1.3333333,0,0,-1.3333333,0,1120.8)" />
    </g>
    <g
       id="g153"
       transform="translate(0,1)">
      <path
         id="path153"
         d="m 246.1,763.13 -0.08,-0.27 c -0.02,-0.09 -0.04,-0.21 -0.02,-0.31 l 0.34,-2.23 v 0.02 l 0.4,-3.38 v 0.05 l 0.03,-0.43 h -0.03 l 0.2,-3.72 v 0.04 l -0.03,-0.81 v 0 l -0.02,-0.96 0.02,0.17 -0.14,-0.65 0.09,0.21 -0.09,-0.19 0.77,0.53 h -0.03 c -0.36,-0.05 -0.67,-0.26 -0.81,-0.6 v -0.02 0 -0.03 l 0.31,0.41 h -0.03 c -0.12,-0.12 -0.24,-0.26 -0.31,-0.43 h -0.02 v 0 -0.03 c -0.17,-0.38 -0.1,-0.81 0.19,-1.12 l 0.02,-0.03 c 0.15,-0.17 0.34,-0.26 0.56,-0.33 h 0.02 l -0.55,0.31 h 0.02 l -0.21,1.03 -0.03,-0.02 c -0.14,-0.51 0.07,-1.06 0.55,-1.3 h 0.03 l -0.31,0.24 0.02,-0.02 c 0.14,-0.17 0.34,-0.29 0.55,-0.34 h 0.03 l -0.56,0.34 0.03,-0.05 c 0.09,-0.1 0.19,-0.17 0.31,-0.24 h 0.02 l -0.33,0.24 0.05,-0.03 c 0.12,-0.14 0.28,-0.26 0.48,-0.31 l 0.09,-0.02 v -0.03 l 0.39,-0.12 -0.03,0.03 1.01,-0.36 -0.17,0.07 0.87,-0.46 0.09,-0.02 0.19,-0.1 v 0 l 0.22,-0.09 c 0.58,-0.24 1.27,0.02 1.51,0.6 0.27,0.57 0,1.25 -0.57,1.51 l -0.22,0.1 v 0 l -0.22,0.09 0.08,-0.05 -0.87,0.46 c -0.05,0.05 -0.12,0.05 -0.17,0.1 l -1,0.31 -0.08,0.02 -0.38,0.1 -0.1,0.05 h -0.09 l 0.31,-0.1 h -0.02 c -0.32,0.17 -0.72,0.17 -1.04,0 h -0.02 1.03 -0.05 c -0.24,0.14 -0.5,0.17 -0.76,0.12 l -0.03,-0.02 0.75,-0.1 -0.03,0.02 c -0.31,0.17 -0.67,0.17 -0.98,0 l -0.03,-0.02 c -0.52,-0.24 -0.72,-0.86 -0.5,-1.39 0.22,-0.53 0.82,-0.77 1.37,-0.55 0.53,0.19 0.81,0.76 0.65,1.32 v 0.02 c -0.08,0.26 -0.27,0.5 -0.56,0.65 h -0.02 c -0.22,0.12 -0.48,0.14 -0.72,0.09 h -0.02 l 0.72,-0.09 h -0.03 l 0.48,-0.51 v 0.03 0 h -0.02 c -0.07,0.17 -0.19,0.31 -0.31,0.43 h -0.03 l 0.31,-0.41 v 0.03 0 0.02 c -0.16,0.34 -0.48,0.55 -0.84,0.6 v 0 c -0.48,0.05 -0.93,-0.31 -1.03,-0.79 -0.09,-0.48 0.22,-0.96 0.7,-1.08 0.48,-0.15 0.98,0.12 1.15,0.57 l 0.07,0.22 c 0.03,0.05 0.03,0.12 0.05,0.17 l 0.1,0.67 c 0,0.05 0.02,0.1 0.02,0.17 l -0.02,0.96 v 0 0.81 0.08 l -0.27,3.69 v 0 l -0.02,0.46 v 0.07 l -0.51,3.34 v 0.07 l -0.5,2.21 0.02,-0.27 0.03,0.29 c 0.05,0.36 -0.19,0.7 -0.55,0.79 -0.36,0.07 -0.72,-0.14 -0.84,-0.5 z"
         style="fill:#000000;fill-opacity:1;fill-rule:nonzero;stroke:none"
         transform="matrix(1.3333333,0,0,-1.3333333,0,1120.8)" />
    </g>
    <g
       id="g154"
       transform="translate(0,1)">
      <path
         id="path154"
         d="m 259.37,763.13 v 0 c -0.03,0.38 -0.29,0.69 -0.67,0.72 -0.39,0.05 -0.72,-0.19 -0.82,-0.55 l -0.05,-0.17 v -0.07 l -0.05,-0.2 v 0.03 l -0.02,-0.19 c 0,-0.05 0,-0.08 0,-0.12 v -0.53 0.05 -0.32 -0.02 l 0.1,-4.15 v 0 l 0.12,-3.67 v 0 l 0.02,-1.83 v 0 l 0.14,-6.02 v -0.05 l 0.12,-2.09 v 0.03 l 0.03,-0.34 c 0.02,-0.31 0.21,-0.6 0.5,-0.74 0.29,-0.15 0.63,-0.12 0.89,0.04 0.26,0.2 0.41,0.48 0.38,0.8 v 0.31 0.02 l -0.14,2.09 v -0.02 l -0.19,6.02 v 0 l -0.03,1.82 h -0.02 l -0.14,3.68 v 0 l -0.17,4.15 v -0.03 l -0.03,0.32 v 0.02 l -0.02,0.5 v -0.07 l 0.02,0.17 v 0 0.19 -0.07 0.17 l -0.04,-0.22 v 0.03 c 0.04,0.09 0.07,0.19 0.07,0.31 z"
         style="fill:#000000;fill-opacity:1;fill-rule:nonzero;stroke:none"
         transform="matrix(1.3333333,0,0,-1.3333333,0,1120.8)" />
    </g>
    <g
       id="g155"
       transform="translate(0,1)">
      <path
         id="path155"
         d="m 258.55,755.66 -0.21,0.2 c -0.1,0.07 -0.24,0.14 -0.39,0.16 h -0.02 c -0.29,0.03 -0.58,-0.12 -0.75,-0.38 -0.12,-0.26 -0.09,-0.58 0.08,-0.82 0.19,-0.24 0.5,-0.33 0.79,-0.26 0.29,0.1 0.5,0.34 0.55,0.62 v 0.03 c 0.02,0.33 -0.17,0.67 -0.48,0.77 l -0.02,0.02 -0.1,0.02 v 0 l 0.14,-0.07 v 0.03 c -0.04,0.02 -0.12,0.04 -0.16,0.04 h -0.03 v 0 0.03 c -0.21,0.05 -0.43,0 -0.62,-0.12 -0.19,-0.15 -0.31,-0.34 -0.34,-0.55 v 0 c -0.05,-0.44 0.24,-0.8 0.65,-0.87 0.41,-0.05 0.79,0.22 0.86,0.63 0.1,0.4 -0.14,0.79 -0.55,0.88 h -0.02 v 0 h -0.03 c -0.38,0.1 -0.76,-0.12 -0.91,-0.48 v 0 l 0.84,0.48 -0.02,0.03 c -0.39,0.05 -0.77,-0.24 -0.87,-0.6 v -0.03 l 0.87,0.6 h -0.03 c -0.36,0.05 -0.69,-0.16 -0.84,-0.5 v -0.02 c -0.09,-0.29 -0.02,-0.65 0.22,-0.84 0.24,-0.24 0.6,-0.29 0.86,-0.15 0.29,0.15 0.48,0.43 0.48,0.75 -0.02,0.31 -0.24,0.6 -0.52,0.72 h -0.03 c -0.21,0.07 -0.48,0.07 -0.69,-0.08 -0.2,-0.12 -0.34,-0.33 -0.36,-0.57 v -0.03 c -0.05,-0.33 0.12,-0.64 0.4,-0.79 0.29,-0.17 0.63,-0.14 0.89,0.07 0.24,0.2 0.36,0.53 0.27,0.84 -0.1,0.32 -0.36,0.56 -0.68,0.6 h -0.02 c -0.41,0.03 -0.77,-0.24 -0.89,-0.62 v -0.02 l 0.03,0.09 v -0.02 l -0.03,-0.07 v -0.03 l -0.02,-0.09 v -0.05 l 0.12,0.36 -0.03,-0.03 c -0.04,-0.12 -0.09,-0.24 -0.12,-0.36 v -0.02 l 0.12,0.34 v -0.03 c -0.07,-0.09 -0.12,-0.21 -0.14,-0.33 v -0.05 0 -0.03 -0.04 l -0.02,-0.1 v -0.02 -0.03 c 0,-0.21 0.09,-0.43 0.24,-0.6 l 0.02,-0.02 -0.24,0.62 v -0.02 c 0,-0.22 0.07,-0.43 0.24,-0.6 l 0.02,-0.03 -0.24,0.63 v -0.03 c 0,-0.16 0.03,-0.28 0.08,-0.4 l 0.02,-0.05 c 0.02,-0.07 0.1,-0.15 0.14,-0.22 l 0.03,-0.02 v 0 h 0.02 c 0.15,-0.17 0.36,-0.27 0.55,-0.27 h 0.03 l -0.82,0.87 v -0.03 c 0,-0.24 0.1,-0.45 0.24,-0.6 l 0.03,-0.02 v 0 -0.02 c 0.16,-0.17 0.38,-0.27 0.6,-0.27 h 0.02 l -0.6,0.27 0.02,-0.03 v 0 -0.02 0 h 0.03 v 0 l 0.02,-0.03 c 0.15,-0.16 0.36,-0.24 0.58,-0.26 h 0.02 v 0 0 l -0.57,0.26 v 0 c 0.09,-0.09 0.16,-0.14 0.24,-0.19 l 0.02,-0.02 c 0.05,0 0.1,-0.03 0.12,-0.03 l 0.05,-0.02 h -0.03 l 0.05,-0.02 h 0.07 l 0.08,-0.05 v 0 h 0.07 v 0 l 0.07,-0.03 v 0 h 0.05 c 0.07,-0.04 0.14,-0.04 0.21,-0.04 h 0.05 0.05 0.12 0.02 0.05 c 0.48,0 0.89,0.38 0.89,0.86 0,0.48 -0.41,0.86 -0.89,0.86 h -0.05 -0.02 -0.12 -0.05 -0.05 0.22 -0.07 v 0 l -0.05,0.03 h -0.02 -0.08 v 0 l -0.04,0.02 0.04,-0.02 -0.04,0.02 0.02,-0.02 -0.05,0.02 0.12,-0.05 -0.05,0.03 0.22,-0.15 v 0.03 c -0.17,0.14 -0.41,0.24 -0.65,0.21 v 0 0 h -0.02 l 0.62,-0.21 h -0.02 v 0 l -0.03,0.02 v 0 0.03 0 h -0.02 c -0.17,0.16 -0.38,0.24 -0.6,0.24 h -0.02 l 0.62,-0.24 -0.02,0.02 v 0 l -0.03,0.02 0.29,-0.6 v 0.03 c -0.02,0.21 -0.12,0.45 -0.29,0.6 -0.17,0.14 -0.38,0.24 -0.62,0.21 h -0.03 l 0.65,-0.21 h -0.05 v 0 0.02 l 0.17,-0.21 v 0.02 l 0.07,-0.34 v 0.03 c 0,0.21 -0.09,0.41 -0.26,0.57 v 0 l 0.26,-0.57 v 0.02 c -0.02,0.22 -0.12,0.43 -0.26,0.58 h -0.02 l 0.26,-0.58 v 0.03 0.02 0.1 0.04 0.03 0 l -0.02,0.05 -0.05,-0.41 0.02,0.05 c 0.05,0.12 0.05,0.24 0.05,0.38 v 0.02 l -0.05,-0.38 v 0.02 c 0.05,0.15 0.07,0.27 0.05,0.39 v 0.05 0.09 l -0.02,0.03 -0.03,0.07 v 0.02 l 0.03,-0.09 v 0.02 c -0.1,0.41 -0.51,0.7 -0.94,0.6 -0.43,-0.07 -0.72,-0.48 -0.65,-0.91 0.07,-0.43 0.46,-0.72 0.89,-0.67 h 0.02 c 0.22,0.02 0.41,0.12 0.53,0.28 0.12,0.17 0.19,0.39 0.17,0.6 v 0.03 l -0.53,-0.84 h 0.03 c 0.4,0.14 0.62,0.6 0.45,1.01 v 0.02 c -0.12,0.38 -0.55,0.6 -0.93,0.48 -0.41,-0.1 -0.65,-0.5 -0.58,-0.91 0.07,-0.39 0.48,-0.67 0.86,-0.63 h 0.03 c 0.21,0.03 0.43,0.15 0.55,0.34 0.12,0.17 0.17,0.41 0.12,0.62 v 0.03 c -0.1,0.41 -0.5,0.65 -0.91,0.57 -0.43,-0.07 -0.7,-0.48 -0.63,-0.88 0.08,-0.41 0.46,-0.7 0.87,-0.65 h 0.02 c 0.24,0.02 0.43,0.17 0.55,0.36 0.15,0.21 0.17,0.45 0.1,0.69 v 0 c -0.17,0.39 -0.58,0.6 -0.98,0.48 -0.39,-0.12 -0.63,-0.55 -0.51,-0.96 0.12,-0.4 0.53,-0.64 0.91,-0.52 h 0.03 v 0 h 0.02 c 0.36,0.07 0.63,0.43 0.58,0.84 v 0 l -0.58,-0.84 v 0 0 l 0.03,0.02 c 0.04,0.02 0.12,0.02 0.16,0.05 v 0 L 258,754.56 v 0 l 0.1,0.02 h 0.02 c 0.36,0.15 0.55,0.53 0.43,0.92 -0.09,0.36 -0.48,0.6 -0.84,0.52 -0.38,-0.07 -0.65,-0.43 -0.6,-0.81 v -0.03 c 0.03,-0.19 0.12,-0.36 0.29,-0.48 0.14,-0.12 0.34,-0.19 0.53,-0.16 h 0.02 -0.07 0.26 c 0.29,0 0.51,0.16 0.6,0.43 0.1,0.24 0,0.53 -0.19,0.69 z"
         style="fill:#000000;fill-opacity:1;fill-rule:nonzero;stroke:none"
         transform="matrix(1.3333333,0,0,-1.3333333,0,1120.8)" />
    </g>
    <g
       id="g156"
       transform="translate(0,1)">
      <path
         id="path156"
         d="m 257.3,753.7 v -0.05 l 0.05,0.17 -0.02,-0.05 c -0.03,-0.05 -0.05,-0.12 -0.07,-0.19 v -0.05 l 0.07,0.21 -0.03,-0.04 v 0 l -0.02,-0.05 v 0 l -0.02,-0.05 0.07,0.12 -0.03,-0.02 c -0.02,-0.05 -0.04,-0.08 -0.07,-0.12 l -0.07,-0.15 0.1,0.15 -0.03,-0.05 -0.07,-0.07 -0.05,-0.08 v 0 l -0.05,-0.07 c -0.02,-0.05 -0.04,-0.12 -0.07,-0.17 l -0.05,-0.21 0.05,0.14 -0.12,-0.26 0.05,0.09 -0.02,-0.04 -0.05,-0.05 -0.03,-0.03 v 0 -0.02 c -0.04,-0.05 -0.04,-0.07 -0.07,-0.12 v -0.05 l 0.19,0.29 -0.04,-0.02 c -0.12,-0.12 -0.22,-0.29 -0.24,-0.46 l -0.03,-0.1 0.05,0.15 -0.02,-0.05 -0.03,-0.07 v -0.07 0.07 -0.05 c -0.05,-0.07 -0.05,-0.14 -0.07,-0.24 v -0.05 l 0.02,0.19 v -0.09 l 0.08,0.19 -0.1,-0.14 c -0.14,-0.24 -0.14,-0.51 -0.02,-0.75 l 0.02,-0.05 c 0.14,-0.31 0.46,-0.5 0.79,-0.5 l 0.43,0.05 h 0.03 0.14 v 0 h 0.12 -0.07 0.38 -0.07 l 0.24,-0.03 0.07,-0.02 h 0.05 c 0.31,0 0.6,0.17 0.77,0.46 0.14,0.26 0.14,0.6 0,0.88 -0.17,0.27 -0.46,0.44 -0.77,0.44 h -0.05 0.05 -0.21 -0.08 -0.38 c -0.05,0 -0.1,-0.03 -0.12,-0.03 l -0.14,-0.02 v 0 l -0.15,-0.03 h 0.07 l -0.43,-0.04 h 0.19 -0.04 c -0.41,0.07 -0.8,-0.17 -0.89,-0.56 -0.1,-0.38 0.09,-0.79 0.45,-0.93 0.39,-0.17 0.82,0 1.01,0.36 l 0.07,0.14 c 0.03,0.07 0.05,0.15 0.08,0.22 l 0.02,0.07 c 0,0.05 0,0.14 0,0.19 v 0.05 l -0.02,-0.24 0.02,0.05 v 0.05 0.07 -0.07 0.07 l 0.02,0.09 0.03,0.12 -0.17,-0.4 0.02,0.04 c 0.08,0.08 0.12,0.17 0.15,0.29 l 0.02,0.05 -0.05,-0.07 0.03,0.02 v 0 l 0.02,0.03 -0.05,-0.1 0.03,0.05 c 0.02,0.05 0.05,0.09 0.07,0.17 l 0.07,0.28 0.03,0.05 0.04,0.19 -0.02,-0.09 0.02,0.07 v 0 0.05 -0.05 0.05 l 0.05,0.05 0.05,0.16 0.02,0.08 v 0.02 l 0.03,0.05 0.02,0.05 v 0 0.04 0 0.08 c 0.03,0.07 0.03,0.12 0,0.19 v 0.05 -0.2 0.05 c 0.03,0.07 0.03,0.15 0,0.22 v 0.05 c -0.05,0.31 -0.31,0.52 -0.62,0.52 -0.31,0 -0.58,-0.21 -0.63,-0.52 z"
         style="fill:#000000;fill-opacity:1;fill-rule:nonzero;stroke:none"
         transform="matrix(1.3333333,0,0,-1.3333333,0,1120.8)" />
    </g>
    <g
       id="g157"
       transform="translate(0,1)">
      <path
         id="path157"
         d="m 243.62,737.04 0.24,-0.07 c 0.08,0 0.12,0 0.17,0 l 2.14,0.02 v 0 l 2.66,0.07 h -0.05 l 5.21,-0.14 h 0.03 l 2.25,-0.02 h 0.03 l 0.81,-0.03 v 0 l 3.12,-0.05 v 0 h 4.39 l -0.26,0.05 0.1,-0.02 c 0.07,-0.05 0.16,-0.05 0.26,-0.05 h 0.05 c 0.31,0 0.57,0.14 0.72,0.41 0.14,0.24 0.14,0.55 0,0.81 -0.15,0.27 -0.41,0.44 -0.72,0.44 h -0.05 l 0.26,-0.05 -0.09,0.02 c -0.1,0.03 -0.19,0.05 -0.29,0.05 l -4.39,-0.14 h 0.02 l -3.09,0.02 h -0.03 -0.81 v 0 l -2.28,0.02 v 0 l -5.21,0.05 h -0.03 l -2.64,-0.12 v 0 l -2.13,-0.07 h -0.05 l -0.26,-0.02 c -0.29,-0.05 -0.53,-0.29 -0.53,-0.58 -0.03,-0.26 0.17,-0.55 0.45,-0.6 z"
         style="fill:#000000;fill-opacity:1;fill-rule:nonzero;stroke:none"
         transform="matrix(1.3333333,0,0,-1.3333333,0,1120.8)" />
    </g>
    <g
       id="g158"
       transform="translate(0,1)">
      <path
         id="path158"
         d="m 255.38,738.96 -0.12,0.05 v 0 l -0.12,0.07 -0.07,0.02 -0.09,0.03 v 0 l -0.12,0.05 v 0 l -0.12,0.04 -0.1,0.03 -0.14,0.05 0.07,-0.03 -0.1,0.03 h -0.05 l -0.14,0.02 h 0.02 l -0.12,0.02 v 0.03 h -0.14 l -0.1,0.02 -0.12,0.03 v 0 h -0.12 -0.07 -0.14 v 0 l -0.12,-0.03 v 0 h -0.12 0.02 -0.14 l -0.12,-0.02 -0.1,-0.03 0.1,0.03 -0.12,-0.03 c -0.07,0 -0.15,-0.02 -0.19,-0.02 l -0.34,-0.12 h -0.05 l -0.02,-0.02 h -0.03 -0.02 c -0.29,-0.12 -0.48,-0.41 -0.5,-0.7 v -0.02 l 0.31,0.57 -0.03,-0.02 0.2,0.12 h -0.03 l 0.34,0.05 h -0.03 c -0.21,0 -0.43,-0.08 -0.6,-0.22 -0.14,-0.14 -0.24,-0.36 -0.24,-0.55 v -0.05 l 0.51,0.72 h -0.05 c -0.07,-0.02 -0.14,-0.07 -0.19,-0.12 l -0.03,-0.02 v 0 h -0.02 c -0.17,-0.17 -0.29,-0.39 -0.31,-0.63 v -0.02 l 0.31,0.6 h -0.02 v 0 -0.03 c -0.2,-0.14 -0.32,-0.38 -0.32,-0.62 v -0.02 l 0.29,0.62 v -0.02 0 h -0.02 c -0.19,-0.17 -0.31,-0.39 -0.31,-0.63 v -0.05 0.03 0 -0.05 -0.02 l 0.12,0.4 -0.03,-0.02 c -0.07,-0.12 -0.12,-0.24 -0.12,-0.38 v 0 0 -0.03 -0.02 -0.05 0.05 -0.03 -0.02 -0.05 0.03 0 -0.05 -0.03 c -0.02,-0.14 0.03,-0.26 0.07,-0.4 l 0.03,-0.03 -0.1,0.41 v -0.02 0 -0.05 c 0,-0.24 0.1,-0.48 0.27,-0.65 v 0 l -0.15,0.22 0.03,-0.05 -0.12,0.45 v -0.02 c 0,-0.24 0.09,-0.48 0.28,-0.65 v -0.02 l -0.16,0.21 0.02,-0.04 -0.1,0.48 v -0.03 c -0.02,-0.26 0.08,-0.5 0.27,-0.67 l 0.02,-0.02 c 0.07,-0.05 0.15,-0.12 0.22,-0.15 l 0.05,-0.02 -0.39,0.36 v -0.03 c 0.07,-0.14 0.19,-0.26 0.31,-0.33 l 0.08,-0.03 -0.15,0.1 0.1,-0.1 c 0.05,-0.02 0.09,-0.04 0.14,-0.09 l 0.12,-0.05 v 0 l 0.1,-0.07 c 0.05,-0.03 0.09,-0.05 0.14,-0.07 l 0.12,-0.05 -0.12,0.07 0.12,-0.07 c 0.05,-0.05 0.12,-0.07 0.19,-0.1 l 0.15,-0.02 -0.22,0.07 0.12,-0.05 c 0.07,-0.05 0.15,-0.07 0.22,-0.09 l 0.14,-0.05 v 0 l 0.12,-0.03 v 0 l 0.12,-0.02 v 0 l 0.15,-0.02 c 0.04,-0.03 0.09,-0.05 0.12,-0.05 l 0.33,-0.03 h -0.05 l 0.27,-0.02 0.05,-0.02 0.76,-0.05 h 0.05 0.12 c 0.05,0 0.07,0 0.12,0.02 l 0.12,0.03 -0.12,-0.03 h 0.1 c 0.05,0 0.07,0 0.12,0.03 h 0.12 0.02 l 0.1,0.02 h -0.03 0.12 l 0.1,0.02 0.12,0.05 h 0.02 l 0.27,0.1 -0.27,-0.05 v 0 0 h 0.03 c 0.21,0 0.41,0.07 0.57,0.22 v 0 l -0.55,-0.22 h 0.03 c 0.19,0 0.4,0.1 0.55,0.22 l 0.02,0.02 v 0 h 0.03 v 0 0.02 l -0.56,-0.21 h 0.03 c 0.21,0 0.41,0.07 0.55,0.21 l 0.02,0.03 v 0 h 0.03 v 0 l 0.02,0.02 c 0.19,0.17 0.29,0.41 0.29,0.65 v 0.02 l -0.29,-0.64 0.03,0.02 h -0.03 0.03 c 0.21,0.17 0.31,0.41 0.31,0.67 v 0.03 l -0.31,-0.68 0.02,0.03 c 0.19,0.17 0.31,0.41 0.31,0.65 v 0.02 l -0.31,-0.67 0.02,0.02 c 0.2,0.17 0.29,0.41 0.29,0.65 v 0.02 0 0.03 0 0 0 0.02 l -0.29,-0.67 0.03,0.02 c 0.17,0.17 0.31,0.41 0.31,0.68 v 0 0 0.02 0 0.02 0 0.05 c 0,0.15 -0.05,0.29 -0.14,0.43 v 0.03 l 0.12,-0.43 v 0.02 0 0 0 0.05 c 0,0.24 -0.12,0.48 -0.32,0.65 l -0.02,0.02 v 0 h -0.02 l 0.31,-0.65 v 0.03 c 0,0.14 -0.05,0.31 -0.12,0.43 l -0.03,0.05 c -0.14,0.26 -0.43,0.43 -0.74,0.43 h -0.02 l 0.88,-0.89 v 0.05 c 0,0.24 -0.12,0.48 -0.31,0.65 l -0.02,0.02 v 0 h -0.03 v 0 0.02 0 l -0.02,0.03 v 0 h -0.02 v 0 l -0.03,0.02 c -0.14,0.15 -0.36,0.22 -0.57,0.22 v 0 l 0.57,-0.22 -0.05,0.03 h 0.03 l -0.03,0.02 c -0.07,0.05 -0.14,0.1 -0.24,0.12 l -0.02,0.02 0.22,-0.14 -0.03,0.02 c -0.09,0.08 -0.19,0.15 -0.33,0.2 h -0.03 l 0.15,-0.05 -0.1,0.05 c -0.05,0.02 -0.1,0.02 -0.17,0.04 l -0.09,0.03 v 0 l -0.12,0.05 h 0.04 l -0.09,0.02 h -0.05 l -0.12,0.05 h -0.1 l -0.07,0.05 h -0.05 -0.09 v 0 l -0.12,0.02 h -0.07 l -0.22,0.02 h -0.07 -0.1 c -0.33,0 -0.62,-0.16 -0.77,-0.43 -0.16,-0.26 -0.16,-0.62 0,-0.89 0.15,-0.26 0.44,-0.43 0.77,-0.43 h 0.1 -0.07 l 0.24,-0.02 h -0.08 0.12 v 0 l 0.12,-0.03 -0.02,0.03 0.1,-0.05 -0.1,0.05 0.12,-0.05 -0.05,0.02 0.1,-0.04 h 0.05 l 0.12,-0.05 v 0 l 0.09,-0.03 -0.14,0.08 0.09,-0.05 c 0.05,-0.03 0.1,-0.05 0.17,-0.07 h 0.03 l -0.32,0.16 0.03,-0.02 c 0.07,-0.05 0.14,-0.1 0.21,-0.14 h 0.05 l -0.21,0.12 v 0 0 l 0.02,-0.03 c 0.17,-0.14 0.36,-0.21 0.58,-0.19 v 0 l -0.56,0.19 0.03,-0.02 v 0 h 0.02 v 0 -0.03 0 l 0.03,-0.02 v 0 h 0.02 v 0 l 0.02,-0.02 -0.31,0.67 v -0.05 c 0,-0.24 0.1,-0.46 0.27,-0.6 0.16,-0.17 0.38,-0.26 0.6,-0.26 h 0.02 l -0.74,0.43 v -0.05 l -0.12,0.46 v -0.03 c 0,-0.26 0.12,-0.5 0.33,-0.67 v 0 0 l 0.03,-0.02 -0.32,0.67 v -0.05 0 0 0 -0.02 c 0,-0.17 0.05,-0.32 0.12,-0.44 l 0.03,-0.02 -0.12,0.43 v -0.05 0 -0.02 0 -0.02 0 0 l 0.29,0.64 V 738 c -0.2,-0.14 -0.32,-0.38 -0.32,-0.65 v -0.02 0 0 0 -0.03 0 -0.02 l 0.32,0.67 -0.03,-0.02 c -0.19,-0.17 -0.31,-0.41 -0.31,-0.65 v -0.02 l 0.31,0.67 -0.02,-0.03 c -0.19,-0.16 -0.31,-0.4 -0.31,-0.64 v -0.03 l 0.31,0.65 -0.03,-0.02 v 0 0 c -0.19,-0.17 -0.31,-0.41 -0.31,-0.68 v -0.02 l 0.31,0.67 -0.02,-0.02 v 0 h -0.02 v 0 l -0.03,-0.03 0.58,0.22 h -0.03 c -0.19,0 -0.4,-0.07 -0.55,-0.22 l -0.05,-0.02 h 0.03 -0.03 v 0 l -0.02,-0.02 0.58,0.21 h -0.03 c -0.21,0 -0.41,-0.07 -0.57,-0.21 h -0.03 l 0.58,0.19 h -0.03 v 0 0 c -0.12,0 -0.19,0 -0.28,-0.05 l -0.24,-0.07 h 0.02 l -0.12,-0.03 0.12,0.03 -0.1,-0.03 h -0.04 l -0.08,-0.02 v 0 h -0.09 0.12 -0.1 c -0.05,0 -0.09,0 -0.12,0 l -0.12,-0.02 0.12,0.02 h -0.12 l 0.07,-0.02 -0.76,0.07 0.04,-0.03 -0.24,0.03 -0.02,0.02 -0.34,0.03 0.12,-0.03 -0.12,0.05 v 0 l -0.14,0.02 v 0 l -0.14,0.03 v 0 l -0.12,0.05 0.21,-0.1 -0.12,0.05 c -0.07,0.05 -0.12,0.07 -0.21,0.09 l -0.15,0.03 0.24,-0.07 -0.12,0.07 c -0.05,0 -0.09,0.02 -0.12,0.05 l -0.14,0.04 0.14,-0.04 -0.12,0.04 v 0 l -0.12,0.08 0.12,-0.1 -0.09,0.1 c -0.03,0.02 -0.08,0.04 -0.12,0.07 l -0.08,0.05 0.32,-0.32 -0.03,0.05 c -0.09,0.15 -0.24,0.27 -0.41,0.34 h -0.02 l 0.19,-0.12 v 0.02 l 0.31,-0.6 v 0.03 c 0,0.12 -0.04,0.26 -0.12,0.38 l -0.02,0.02 c -0.05,0.08 -0.12,0.15 -0.19,0.22 h -0.03 l 0.32,-0.6 v 0.02 c 0,0.15 -0.05,0.27 -0.12,0.39 l -0.03,0.05 c -0.05,0.07 -0.12,0.14 -0.19,0.21 l -0.02,0.03 0.33,-0.65 v 0.05 0 0.02 c 0,0.14 -0.07,0.29 -0.14,0.43 l -0.03,0.03 0.15,-0.44 -0.03,0.03 v 0.05 0 -0.03 0.05 0.02 0.03 -0.05 0.05 0.02 0.03 0 0 l -0.09,-0.46 0.02,0.05 c 0.07,0.12 0.12,0.26 0.1,0.41 v 0.02 0.05 0 -0.03 0.05 l -0.27,-0.62 h 0.03 v 0 l 0.02,0.02 c 0.17,0.17 0.27,0.39 0.24,0.63 v 0.02 l -0.24,-0.62 v 0.02 0 l 0.03,0.02 c 0.16,0.15 0.26,0.39 0.26,0.63 v 0.02 l -0.26,-0.62 0.02,0.02 v 0 l 0.02,0.03 -0.21,-0.15 0.02,0.03 c 0.31,0.12 0.48,0.43 0.48,0.74 v 0.05 l -0.77,-0.84 h 0.03 c 0.09,0 0.19,0.02 0.29,0.07 h 0.04 c 0.08,0.05 0.15,0.1 0.2,0.17 h 0.02 c 0.19,0.17 0.26,0.41 0.26,0.65 v 0.02 l -0.48,-0.79 0.05,0.02 v 0 l 0.03,0.03 -0.03,-0.03 0.31,0.12 -0.12,-0.05 0.12,0.03 0.1,0.05 0.1,0.02 -0.12,-0.02 0.14,0.02 h 0.02 l 0.12,0.02 v 0 l 0.12,0.03 h -0.04 l 0.14,0.02 h -0.1 0.12 v 0 l 0.12,0.03 h -0.07 l 0.12,-0.03 v 0 h 0.12 v 0 l 0.15,-0.02 h -0.03 0.1 0.02 0.12 -0.09 0.12 v 0 l 0.12,-0.05 v 0 h 0.12 -0.08 l 0.1,-0.02 v 0 l 0.12,-0.05 c 0.31,-0.1 0.65,0.05 0.79,0.36 0.12,0.29 0,0.65 -0.29,0.79 z"
         style="fill:#000000;fill-opacity:1;fill-rule:nonzero;stroke:none"
         transform="matrix(1.3333333,0,0,-1.3333333,0,1120.8)" />
    </g>
    <g
       id="g159"
       transform="translate(0,1)">
      <path
         id="path159"
         d="m 245.18,725.04 0.03,-0.02 c 0.09,-0.1 0.21,-0.17 0.33,-0.22 l 0.15,-0.05 0.09,-0.02 0.15,-0.03 v 0 l 0.12,-0.02 -0.12,0.02 0.14,-0.04 c 0.05,-0.03 0.1,-0.03 0.15,-0.03 l 0.14,-0.02 h 0.12 l 0.34,-0.03 h 0.02 l 1.1,0.03 h 0.05 l 0.63,0.02 v 0 l 1.7,0.05 h 0.02 l 0.24,0.05 c 0.32,0 0.6,0.19 0.72,0.5 0.17,0.29 0.12,0.63 -0.07,0.89 -0.17,0.26 -0.48,0.41 -0.81,0.36 h -0.22 0.02 l -1.68,-0.1 h -0.02 l -0.65,-0.07 h 0.03 l -1.13,-0.05 h 0.05 -0.34 0.1 l -0.17,0.03 0.12,-0.05 -0.12,0.05 -0.12,0.02 h -0.15 v 0 l -0.12,0.03 0.12,-0.03 -0.14,0.05 0.26,-0.12 h -0.04 c -0.34,0.24 -0.8,0.17 -1.06,-0.12 -0.26,-0.31 -0.26,-0.77 0.02,-1.08 z"
         style="fill:#000000;fill-opacity:1;fill-rule:nonzero;stroke:none"
         transform="matrix(1.3333333,0,0,-1.3333333,0,1120.8)" />
    </g>
    <g
       id="g160"
       transform="translate(0,1)">
      <path
         id="path160"
         d="m 244.1,731.95 0.05,-0.17 v 0 l 0.1,-0.5 v -0.05 l 0.09,-0.36 v 0.05 l 0.15,-0.96 v 0.07 l 0.07,-1.2 v 0.05 l 0.02,-1.8 v -0.05 l 0.03,-0.93 c 0,-0.03 0.02,-0.08 0.02,-0.12 l 0.03,-0.1 c 0.07,-0.36 0.45,-0.6 0.84,-0.5 0.36,0.07 0.6,0.45 0.5,0.81 l -0.02,0.1 0.02,-0.12 -0.05,0.93 v -0.02 l -0.02,1.8 v 0.05 l -0.07,1.17 v 0.08 l -0.17,0.98 v 0.05 l -0.1,0.36 v 0 l -0.12,0.5 -0.02,0.05 -0.03,0.17 c -0.12,0.36 -0.48,0.55 -0.81,0.45 -0.36,-0.09 -0.55,-0.43 -0.51,-0.79 z"
         style="fill:#000000;fill-opacity:1;fill-rule:nonzero;stroke:none"
         transform="matrix(1.3333333,0,0,-1.3333333,0,1120.8)" />
    </g>
    <g
       id="g161"
       transform="translate(0,1)">
      <path
         id="path161"
         d="m 245.45,732.38 -0.07,0.17 c -0.15,0.29 -0.44,0.43 -0.72,0.36 -0.29,-0.05 -0.53,-0.29 -0.56,-0.6 -0.02,-0.26 0.15,-0.55 0.44,-0.67 l 0.36,-0.12 0.04,-0.02 0.08,-0.03 c 0.07,-0.02 0.12,-0.02 0.19,-0.02 l 0.12,-0.03 -0.07,0.03 0.16,-0.05 -0.02,0.02 0.12,-0.02 0.12,-0.02 h 0.12 v 0 l 0.14,-0.03 0.12,0.03 h 0.12 v 0 l 0.36,0.04 v 0 l 0.44,0.05 h -0.08 l 4.16,0.1 v 0 l 3.98,0.07 h 0.02 l 1.61,0.07 h -0.02 l 2.47,-0.02 v 0 h 0.94 v 0 h 0.24 -0.03 0.31 v 0 l 0.94,-0.07 -0.1,0.02 0.2,-0.05 v 0 h 0.16 l 0.12,-0.02 h 0.2 0.04 l 0.41,0.02 h -0.02 0.45 -0.02 0.02 0.03 0.02 c 0.53,0 0.94,0.41 0.96,0.94 0,0.5 -0.43,0.96 -0.96,0.96 -0.5,0 -0.93,-0.41 -0.93,-0.94 v -0.02 c -0.03,-0.51 0.38,-0.94 0.91,-0.96 h 0.02 0.03 0.02 c 0.5,0 0.94,0.41 0.96,0.93 0,0.51 -0.41,0.94 -0.94,0.96 -0.5,0.03 -0.96,-0.38 -0.96,-0.91 v -0.02 l -0.02,-0.03 v -0.02 c 0,-0.5 0.41,-0.91 0.91,-0.96 h 0.03 l -0.58,0.24 h 0.02 l -0.33,0.72 v -0.05 c 0,-0.05 0.02,-0.12 0.02,-0.17 l 0.05,-0.21 v 0.29 l -0.1,-0.51 0.05,0.15 -0.02,-0.08 c -0.03,-0.07 -0.03,-0.12 -0.03,-0.19 l -0.12,-1.15 v -0.05 l -0.12,-2.85 v -0.1 l 0.05,-0.98 c 0,-0.08 0,-0.15 0.03,-0.2 l 0.09,-0.33 -0.02,0.02 0.05,-0.21 v 0.04 l 0.02,-0.14 c 0.02,-0.24 0.14,-0.43 0.31,-0.6 h 0.03 l -0.34,0.6 0.02,-0.12 c 0.05,-0.53 0.53,-0.91 1.06,-0.86 0.5,0.04 0.91,0.5 0.86,1.03 -0.04,0.5 -0.48,0.91 -1,0.89 l -1.28,-0.08 v 0 l -1.65,-0.12 h -0.03 l -1.1,-0.09 h 0.07 -0.09 v 0 h -0.08 c -0.36,0 -0.69,-0.17 -0.86,-0.48 -0.17,-0.31 -0.17,-0.7 0,-1.01 0.17,-0.29 0.5,-0.48 0.86,-0.48 h 0.08 v 0 h 0.09 0.07 l 1.13,0.12 v 0 l 1.66,0.12 h -0.03 l 1.28,0.1 c 0.26,0.02 0.52,0.16 0.69,0.38 0.17,0.22 0.24,0.5 0.17,0.79 l -0.02,0.12 c -0.05,0.22 -0.17,0.39 -0.32,0.53 h -0.02 l 0.31,-0.58 v 0.15 l -0.02,0.05 -0.05,0.24 v 0.07 l -0.1,0.33 0.03,-0.21 -0.05,1.01 v -0.08 l 0.12,2.86 v -0.07 l 0.12,1.17 -0.05,-0.16 0.03,0.07 c 0.02,0.05 0.02,0.09 0.02,0.14 l 0.07,0.48 c 0,0.12 0,0.22 0,0.34 l -0.05,0.21 v -0.19 0.05 c 0,0.26 -0.12,0.53 -0.33,0.72 h -0.03 c -0.19,0.17 -0.4,0.24 -0.64,0.24 h -0.03 c -0.53,-0.05 -0.91,-0.48 -0.89,-1.01 0,-0.5 0.44,-0.91 0.96,-0.91 0.51,0.02 0.94,0.43 0.94,0.96 v 0.02 0.03 0.02 c -0.05,0.53 -0.46,0.91 -0.96,0.91 h -0.02 -0.03 -0.02 c -0.53,-0.02 -0.94,-0.45 -0.91,-0.98 0.02,-0.5 0.43,-0.91 0.96,-0.91 0.52,0.02 0.93,0.43 0.93,0.96 v 0.02 c -0.02,0.53 -0.43,0.94 -0.96,0.94 h -0.02 -0.03 -0.02 -0.05 l -0.45,-0.05 h 0.02 l -0.41,-0.02 h 0.03 -0.2 0.1 l -0.19,0.02 v 0 h -0.17 -0.05 l -0.93,0.05 h -0.08 l -0.31,-0.03 h 0.03 -0.24 v 0 l -0.94,-0.02 v 0 h -2.47 -0.05 l -1.63,-0.1 h 0.02 l -3.98,-0.14 v 0 l -4.15,-0.17 h -0.08 l -0.45,-0.07 h 0.05 l -0.36,-0.05 h -0.05 l -0.15,-0.02 h 0.12 -0.14 v 0 h -0.12 0.1 -0.12 -0.03 l -0.14,0.02 h -0.12 -0.12 0.12 -0.1 -0.05 l -0.38,0.03 c -0.31,0 -0.6,-0.22 -0.67,-0.51 -0.07,-0.31 0.07,-0.62 0.36,-0.74 0.26,-0.17 0.6,-0.1 0.81,0.17 l 0.12,0.14 c 0.08,0.12 0.1,0.26 0.03,0.38 z"
         style="fill:#000000;fill-opacity:1;fill-rule:nonzero;stroke:none"
         transform="matrix(1.3333333,0,0,-1.3333333,0,1120.8)" />
    </g>
  </g>
</svg>
