<?xml version="1.0" encoding="UTF-8" standalone="no"?>
<svg
   width="9.8531"
   height="10.892"
   version="1.1"
   viewBox="0 0 9.8531 10.892"
   id="svg4"
   sodipodi:docname="symbol.svg"
   inkscape:version="1.4.3 (0d15f75, 2025-12-25)"
   xmlns:inkscape="http://www.inkscape.org/namespaces/inkscape"
   xmlns:sodipodi="http://sodipodi.sourceforge.net/DTD/sodipodi-0.dtd"
   xmlns="http://www.w3.org/2000/svg"
   xmlns:svg="http://www.w3.org/2000/svg">
  <defs
     id="defs4" />
  <sodipodi:namedview
     id="namedview4"
     pagecolor="#ffffff"
     bordercolor="#000000"
     borderopacity="0.25"
     inkscape:showpageshadow="2"
     inkscape:pageopacity="0.0"
     inkscape:pagecheckerboard="0"
     inkscape:deskcolor="#d1d1d1"
     inkscape:zoom="42.737788"
     inkscape:cx="6.4462858"
     inkscape:cy="9.8156693"
     inkscape:window-width="1920"
     inkscape:window-height="1191"
     inkscape:window-x="-9"
     inkscape:window-y="-9"
     inkscape:window-maximized="1"
     inkscape:current-layer="svg4" />
  <g
     transform="matrix(0.45005681,0,0,0.45005681,-172.10876,-46.583471)"
     id="g4">
    <path
       transform="matrix(1.3333,0,0,-1.3333,0,1120.8)"
       d="m 291.38,757.13 -0.04,-0.15 v -0.21 l 0.02,-2.21 v -0.02 l 0.05,-2.12 0.02,-0.12 0.03,-0.28 v 0.16 l -0.03,-0.81 v -0.19 c 0,-0.44 0.22,-0.82 0.58,-1.01 0.36,-0.22 0.81,-0.22 1.17,0 0.36,0.19 0.58,0.57 0.58,1.01 v 0.14 -0.02 l 0.02,0.84 c 0,0.04 0,0.12 -0.02,0.19 l -0.05,0.29 0.03,-0.1 -0.15,2.14 v 0.02 l -0.19,2.18 c -0.02,0.12 -0.05,0.24 -0.1,0.32 l -0.04,0.16 c -0.17,0.39 -0.6,0.63 -1.04,0.6 -0.4,-0.04 -0.76,-0.38 -0.84,-0.81 z"
       id="path1" />
    <path
       transform="matrix(1.3333,0,0,-1.3333,0,1120.8)"
       d="m 292.87,757.9 -0.05,0.04 c -0.33,0.12 -0.67,0.05 -0.93,-0.16 -0.24,-0.2 -0.36,-0.53 -0.31,-0.87 0.07,-0.33 0.28,-0.6 0.6,-0.69 l 0.04,-0.03 c 0.08,-0.02 0.12,-0.02 0.2,-0.05 l 1.6,-0.16 1.59,-0.15 0.07,-0.02 1.34,-0.03 h 0.17 c 0.6,0 1.08,0.48 1.08,1.06 0,0.58 -0.48,1.06 -1.08,1.06 h -0.14 0.02 l -1.34,0.04 -1.59,0.03 -1.6,0.02 c -0.12,0.03 -0.22,-0.02 -0.32,-0.05 h -0.04 c -0.32,-0.12 -0.53,-0.38 -0.6,-0.69 -0.05,-0.34 0.07,-0.67 0.31,-0.87 0.26,-0.21 0.6,-0.28 0.93,-0.16 l 0.05,0.04 c 0.34,0.12 0.58,0.44 0.58,0.82 0,0.36 -0.24,0.7 -0.58,0.82 z"
       id="path2" />
    <path
       transform="matrix(1.3333,0,0,-1.3333,0,1120.8)"
       d="m 296.33,757.01 -0.03,-0.17 c -0.02,-0.07 -0.02,-0.14 -0.02,-0.22 l 0.02,-2.2 0.08,-2.14 v -0.1 l 0.04,-0.31 v 0.19 l -0.04,-0.84 v -0.19 c 0,-0.43 0.24,-0.81 0.6,-1.03 0.36,-0.19 0.81,-0.19 1.17,0 0.36,0.22 0.55,0.6 0.55,1.03 v 0.15 l 0.03,0.81 v 0.19 l -0.05,0.29 v -0.09 l -0.12,2.11 -0.02,0.05 -0.2,2.2 c 0,0.1 -0.04,0.22 -0.07,0.32 l -0.07,0.16 c -0.17,0.39 -0.58,0.63 -1.03,0.58 -0.41,-0.05 -0.77,-0.38 -0.84,-0.79 z"
       id="path3" />
    <path
       transform="matrix(1.3333,0,0,-1.3333,0,1120.8)"
       d="m 293.21,751.8 -0.07,0.02 c -0.34,0.08 -0.68,-0.04 -0.92,-0.31 -0.21,-0.26 -0.28,-0.62 -0.14,-0.93 0.12,-0.34 0.41,-0.53 0.77,-0.58 h 0.05 l 1.6,-0.1 1.61,-0.07 h 1.39 l 0.08,0.03 h 0.12 c 0.6,0.02 1.05,0.55 1,1.12 -0.04,0.6 -0.55,1.04 -1.15,0.99 h -0.12 0.05 l -1.34,-0.03 -1.61,-0.04 -1.59,-0.05 c -0.16,0 -0.33,-0.05 -0.48,-0.12 l -0.04,-0.03 c -0.41,-0.26 -0.53,-0.81 -0.29,-1.24 0.24,-0.41 0.79,-0.58 1.22,-0.34 l 0.07,0.02 c 0.32,0.2 0.51,0.53 0.46,0.92 -0.05,0.36 -0.31,0.64 -0.67,0.74 z"
       id="path4" />
  </g>
</svg>
