<svg width="45.758" height="33.495" version="1.1" viewBox="0 0 45.758 33.495" xmlns="http://www.w3.org/2000/svg">
 <g transform="translate(-732.71 -107.81)">
  <path transform="matrix(1.3333 0 0 -1.3333 0 1120.8)" d="m551.47 753.94 0.31 0.45 0.03 0.03 0.24 0.36-0.07-0.05 0.28 0.33 0.72 0.96c0.15 0.17 0.2 0.39 0.24 0.63l-0.52-0.87h0.04c0.29 0.24 0.48 0.56 0.51 0.96l0.02 0.03-0.02-0.07v0.04l-1.42-1.15h0.03c0.31-0.02 0.64 0.07 0.88 0.24h0.03c0.29 0.22 0.5 0.55 0.53 0.91v0.03l-1.4-1.15c0.32-0.03 0.65 0.07 0.89 0.24l0.03 0.04c0.31 0.2 0.52 0.56 0.55 0.92v0.04c0.05 0.72-0.46 1.35-1.18 1.44-0.72 0.05-1.34-0.48-1.41-1.17-0.08-0.72 0.43-1.39 1.15-1.44h0.02l-0.86 0.45h0.02c0.24-0.31 0.6-0.48 0.96-0.48 0.39 0 0.75 0.15 1.03 0.41v0.03l-1.12-0.41h0.04c0.72-0.07 1.35 0.41 1.44 1.13v0.04l-1.44-1.15h0.05c0.31-0.05 0.63 0.03 0.91 0.22l0.03 0.02-1.08-0.21h0.02c0.36-0.08 0.75 0 1.08 0.21l-0.81-0.24h0.07l-1.06 0.58 0.03-0.03c0.24-0.33 0.64-0.55 1.05-0.57h0.03l-1.13 0.74c0.14-0.29 0.36-0.5 0.62-0.62l0.07-0.03-0.24 0.12 0.05-0.04 0.1-0.05h0.02l-0.05 0.02 0.05-0.05-0.6 1.25c-0.02-0.53 0.22-1.01 0.63-1.29l0.04-0.03c0.2-0.12 0.41-0.17 0.63-0.21h0.02l-1.13 0.81v-0.02c0.05-0.12 0.12-0.24 0.2-0.34l0.07-0.05h-0.03l0.12-0.12-0.04 0.03 0.09-0.15-0.12 0.24 0.1-0.19 0.02-0.05 0.22-0.4-0.1 0.19 0.03-0.1c0.04-0.05 0.07-0.09 0.09-0.14l0.07-0.12-0.04 0.05 0.07-0.12c0.02-0.08 0.09-0.15 0.12-0.24l0.09-0.12h0.03l0.05-0.08-0.15 0.24 0.07-0.12c0.05-0.12 0.12-0.24 0.2-0.33l0.09-0.1 0.1-0.09c0.02-0.05 0.09-0.08 0.12-0.15l0.26-0.21-0.5 1.08v-0.03c0-0.36 0.14-0.72 0.41-0.98 0.24-0.27 0.6-0.43 0.96-0.43h0.04l-1.29 0.91v-0.03c0.21-0.55 0.72-0.88 1.32-0.91l-0.87 0.36v-0.02c0.27-0.22 0.56-0.34 0.89-0.34h0.1-0.03 0.12l-0.55 0.1h0.03c0.16-0.07 0.33-0.12 0.52-0.12h0.05c0.34 0 0.67 0.12 0.91 0.33l0.03 0.03-0.91-0.34h0.04c0.77 0 1.4 0.63 1.4 1.39v0.03l-1.4-1.39h0.03c0.74 0 1.37 0.6 1.41 1.39v0.02c0 0.79-0.64 1.42-1.41 1.42-0.75 0-1.42-0.63-1.42-1.39 0-0.77 0.63-1.4 1.42-1.4 0.21 0 0.38 0.03 0.57 0.08l0.03 0.04c0.17 0.05 0.33 0.17 0.45 0.29l0.05 0.07-0.17-0.16 0.08 0.04 0.09 0.08 0.07 0.07 0.08 0.05c0.07 0.07 0.09 0.09 0.12 0.16l0.12 0.12-0.05-0.07 0.26 0.24 0.12 0.12 0.07 0.1 0.05 0.05 0.03 0.09-0.53-0.48 0.09 0.03c0.2 0.12 0.41 0.28 0.53 0.52l0.07 0.08 0.03 0.04 0.05 0.05-0.05-0.05 0.05 0.05h-0.03l0.12 0.19c0.07 0.05 0.1 0.12 0.12 0.17l0.03 0.07c0.09 0.17 0.16 0.39 0.16 0.6v0.05l-0.88-1.29 0.04 0.04c0.36 0.15 0.63 0.41 0.77 0.77l0.03 0.07-0.05-0.09 0.02 0.02-0.36-0.45 0.07 0.04 0.03 0.03c0.14 0.14 0.29 0.29 0.36 0.48l0.02 0.05-0.72-0.68h0.03c0.31 0.12 0.55 0.32 0.69 0.6l0.03 0.03-0.29-0.36 0.05 0.05h-0.03 0.03l-0.2-0.12 0.05 0.04c0.1 0.03 0.15 0.08 0.22 0.15h0.02l-0.21-0.15 0.09 0.05-0.02-0.02 0.12 0.09-0.67-0.19h0.04-0.04 0.07l-0.31 0.03h0.07c0.09-0.03 0.17-0.03 0.26-0.03h0.03l-0.89 0.34h0.02c0.24-0.24 0.55-0.36 0.87-0.36h0.12l-1.11 0.53 0.03-0.03c0.28-0.33 0.67-0.53 1.12-0.53h0.03l-0.94 0.36 0.03-0.04c0.12-0.08 0.24-0.17 0.36-0.24h0.07l-0.75 0.79v-0.03c0.2-0.55 0.72-0.91 1.28-0.91h0.04c0.77-0.02 1.44 0.6 1.44 1.39 0 0.77-0.62 1.44-1.41 1.44-0.79 0.03-1.42-0.6-1.42-1.39v-0.02c-0.02-0.43 0.15-0.82 0.48-1.11h0.03l0.07-0.07-0.12 0.12 0.05-0.09 0.07-0.05 0.05-0.07-0.27 0.36 0.07-0.05c0.03-0.07 0.05-0.12 0.12-0.19l0.15-0.24-0.1 0.16 0.12-0.28 0.07-0.05 0.05-0.12-0.05 0.14 0.03-0.14c0.05-0.07 0.09-0.12 0.12-0.22l0.09-0.09 0.03-0.08 0.26-0.33 0.03-0.07 0.04-0.03c0.05-0.05 0.12-0.14 0.17-0.21h0.03l-0.24 0.28 0.04-0.07c0.27-0.38 0.7-0.6 1.18-0.6h0.02l-1.24 0.7 0.04-0.03c0.05-0.16 0.17-0.28 0.29-0.36l0.03-0.04 0.04-0.03c0.24-0.21 0.58-0.33 0.89-0.33h0.07l-0.69 0.19 0.02-0.03-0.05 0.05 0.03-0.02c0.09-0.07 0.14-0.1 0.21-0.12l0.05-0.03-0.65 0.6v-0.04c0.2-0.32 0.53-0.56 0.94-0.65h0.05c0.09-0.03 0.19-0.03 0.26-0.03h0.1l-0.89 0.32v-0.03c0.26-0.21 0.6-0.33 0.91-0.33h0.1-0.15 0.1c0.14-0.03 0.26-0.03 0.41 0l0.09 0.04 0.1 0.03h0.07c0.07 0.02 0.17 0.05 0.22 0.09l0.09 0.03-0.21-0.07h0.09c0.1 0.04 0.22 0.09 0.34 0.16l0.07 0.03-0.05-0.03 0.1 0.05-0.07-0.02 0.09 0.02 0.15 0.1 0.07 0.02c0.05 0.03 0.12 0.07 0.14 0.1l0.24 0.17-0.12-0.05 0.22 0.12 0.07 0.02 0.19 0.15 0.03 0.04 0.19 0.12c0.05 0.05 0.12 0.08 0.14 0.15l0.15 0.14 0.43 0.43h0.02l0.58 0.56-0.46-0.29 0.03 0.02c0.55 0.22 0.86 0.75 0.86 1.32l-0.48-1.08v0.03l-0.19-0.15h0.02c0.27 0.15 0.46 0.36 0.58 0.63l0.02 0.07-1.22-0.82c0.17 0 0.36 0.03 0.53 0.12h0.07c0.12 0.07 0.24 0.15 0.36 0.24v0.03h0.02l-0.91-0.32h0.05c0.31 0 0.65 0.12 0.89 0.32l0.02 0.04-0.89-0.33h0.1c0.31 0 0.62 0.12 0.89 0.33v0.03l-0.89-0.36h0.05c0.14 0 0.31 0.02 0.45 0.09l0.05 0.03-0.43-0.1h0.05l-0.89 0.34v-0.03l0.02-0.04c0.27-0.2 0.6-0.32 0.94-0.32h0.05l-0.7 0.17 0.05-0.02-0.41 0.36v-0.03c0.17-0.19 0.36-0.33 0.58-0.43h0.02l-0.12 0.07 0.05-0.04-0.07 0.04 0.07-0.04-0.34 0.28 0.05-0.07-0.36 0.94v-0.03c0-0.43 0.19-0.79 0.48-1.05l0.1-0.07 0.02-0.03 0.05-0.02-0.34 0.41 0.03-0.05c0.02-0.07 0.07-0.12 0.09-0.15l0.03-0.07c0.07-0.05 0.09-0.12 0.12-0.14l0.07-0.07-0.12 0.16 0.02-0.07-0.14 0.27 0.05-0.08c0.02-0.12 0.09-0.21 0.14-0.31l0.05-0.05-0.19 0.36 0.02-0.07 0.05-0.09v-0.03l0.07-0.17-0.07 0.48v-0.09c0-0.12 0-0.22 0.02-0.31v-0.05c0.03-0.1 0.05-0.22 0.12-0.31l0.03-0.05c0.02-0.07 0.07-0.12 0.09-0.19l0.05-0.05-0.24 0.98v-0.05c-0.05-0.4 0.07-0.79 0.31-1.08l0.03-0.07-0.03 0.07 0.05-0.07-0.12 0.19 0.07-0.09c0.03-0.07 0.05-0.12 0.1-0.19l0.02-0.05-0.02 0.09v-0.04c0.05-0.05 0.07-0.12 0.12-0.17l0.05-0.07-0.05 0.09 0.05-0.05 0.09-0.12 0.12-0.12c0.05-0.07 0.1-0.09 0.12-0.12l0.03-0.04c0.24-0.2 0.57-0.29 0.86-0.29h0.12-0.02 0.09l-1.29 0.84 0.02-0.03c0.22-0.52 0.7-0.84 1.27-0.84h0.12c0.34 0 0.63 0.12 0.87 0.32l0.02 0.04-0.86-0.33h0.14c0.19 0 0.34 0.05 0.48 0.12h0.05l-0.48-0.1h0.02c0.29 0 0.6 0.12 0.84 0.34h0.03l-0.24-0.15 0.09 0.05-0.07-0.05 0.07 0.05-0.07-0.02 0.12 0.05 0.17 0.07 0.07 0.05 0.1 0.04 0.21 0.17c0.1 0.03 0.15 0.1 0.24 0.19l0.1 0.08-0.22-0.15 0.12 0.07c0.05 0.05 0.12 0.08 0.17 0.15l0.12 0.09c0.05 0.05 0.1 0.12 0.17 0.17l0.24 0.34-0.07-0.07 0.09 0.12-0.02-0.05 0.07 0.12c0.07 0.02 0.1 0.09 0.12 0.12l0.1 0.14-0.17-0.24 0.43 0.43 0.1 0.08 0.07 0.07-0.17-0.15 0.05 0.03 0.07 0.09 0.07 0.05c0.05 0.07 0.12 0.15 0.17 0.24l0.05 0.03-0.65-0.53 0.07 0.02c0.15 0.07 0.29 0.19 0.41 0.31l0.07 0.05-0.45-0.33 0.07 0.04 0.12 0.05 0.12 0.07-0.67-0.16h0.07c0.29 0 0.6 0.09 0.84 0.31l0.02 0.02-0.86-0.33h0.05l-0.84 0.33 0.02-0.02c0.24-0.22 0.55-0.31 0.84-0.31h0.05l-0.84 0.31 0.02-0.03c0.24-0.21 0.53-0.31 0.84-0.31h0.05l-0.86 0.31 0.02-0.04-0.48 1.03v-0.03c0-0.72 0.6-1.32 1.37-1.32h0.02l-0.86 0.29h0.02l-0.48 0.99c0-0.75 0.6-1.32 1.35-1.32 0.55 0 1.03 0.31 1.22 0.81 0.22 0.48 0.1 1.06-0.26 1.44-0.39 0.39-0.96 0.48-1.44 0.31-0.51-0.21-0.84-0.69-0.84-1.24v-0.05c0-0.36 0.14-0.7 0.38-0.94 0.29-0.26 0.6-0.38 0.96-0.38l-1.1 0.6 0.12-0.19c0.02-0.05 0.07-0.12 0.12-0.15l0.09-0.09-0.14 0.16 0.05-0.09h0.02l0.1-0.15-0.03 0.03 0.05-0.1 0.07-0.09v0.04l0.05-0.12-0.12 0.27 0.1-0.31 0.02-0.05 0.05-0.07 0.02-0.05-0.07 0.17v-0.05l0.05-0.12 0.02-0.07c0.03-0.05 0.03-0.12 0.05-0.17l0.07-0.07c0.05-0.15 0.17-0.29 0.34-0.41l0.02-0.03-0.43 0.68v-0.03c0.05-0.17 0.1-0.33 0.19-0.45l0.05-0.05-0.02 0.05v-0.03l-0.03 0.07 0.03-0.07c0.09-0.17 0.21-0.29 0.33-0.41l0.12-0.09c0.24-0.22 0.53-0.31 0.84-0.31h0.03c0.72 0 1.32 0.57 1.32 1.32 0 0.72-0.6 1.32-1.32 1.32s-1.32-0.6-1.32-1.32v-0.03c0-0.48 0.24-0.93 0.67-1.17h0.02l-0.19 0.12h0.05c0.24-0.2 0.53-0.32 0.84-0.32h0.02l-1.05 0.51 0.02-0.03c0.24-0.33 0.65-0.52 1.06-0.52h0.07l-1.37 1.32c0-0.75 0.6-1.32 1.37-1.32h0.02l-1.22 0.81 0.02-0.02c0.17-0.48 0.7-0.84 1.23-0.82h0.26c0.34 0 0.65 0.1 0.89 0.31v0.03l-0.84-0.34h0.02c0.17 0 0.36 0.03 0.51 0.12h0.07l-0.55-0.09h0.07c0.19 0 0.43 0.07 0.62 0.19l0.15 0.05 0.09 0.07 0.15 0.12-0.15-0.12 0.12 0.05c0.1 0.07 0.17 0.12 0.24 0.19l0.12 0.09-0.12-0.09 0.12 0.09c0.1 0.05 0.15 0.12 0.22 0.17l0.12 0.12-0.17-0.14 0.12 0.09h-0.02l0.12 0.08c0.12 0.09 0.21 0.19 0.31 0.31l0.07 0.14-0.05-0.09 0.22 0.28-0.05-0.07 0.29 0.34v0.02l0.17 0.22-0.1-0.1 0.1 0.07c0.12 0.12 0.21 0.27 0.31 0.44v0.07l-0.19-0.34 0.07 0.1-0.19-0.19 0.07 0.04 0.05 0.05 0.09 0.1 0.05 0.05-0.24-0.17 0.17 0.09c0.05 0.03 0.07 0.05 0.14 0.12h0.03l-0.87-0.31h0.03c0.48 0 0.91 0.24 1.15 0.63v0.04l-0.29-0.33 0.05 0.02-0.89-0.33h0.05c0.41 0 0.77 0.19 1.03 0.52l0.05 0.03-1.56-0.39 0.02-0.04c0.15-0.05 0.34-0.08 0.51-0.08h0.21l-0.72 0.2 0.05-0.03c0.22-0.14 0.46-0.21 0.72-0.21l-1.1 0.64c0.24-0.43 0.67-0.67 1.15-0.67h0.02l-0.86 0.34 0.02-0.03-0.19 0.17 0.05-0.02c0.24-0.31 0.62-0.48 1.01-0.48h0.02l-1.13 0.62 0.03-0.02c0.07-0.12 0.14-0.24 0.26-0.34h0.05l-0.1 0.07 0.15-0.16 0.14-0.15-0.07 0.12 0.12-0.17v-0.04l0.14-0.17-0.02 0.09 0.31-0.52-0.07 0.16 0.12-0.24 0.02-0.09 0.15-0.22 0.09-0.12 0.48-0.62 0.12-0.12 0.22-0.19c0.5-0.51 1.34-0.48 1.85 0.04 0.5 0.53 0.48 1.37-0.05 1.85l-0.19 0.19 0.12-0.12-0.48 0.6 0.09-0.12-0.14 0.24 0.05-0.09-0.12 0.21c-0.03 0.05-0.05 0.12-0.1 0.15l-0.31 0.5-0.07 0.07-0.15 0.17 0.03-0.02-0.12 0.14c-0.03 0.07-0.05 0.1-0.1 0.15l-0.17 0.16-0.14 0.17-0.1 0.1h-0.02l0.26-0.34v0.03c-0.24 0.4-0.67 0.64-1.15 0.64h-0.02l1.05-0.48-0.02 0.03c-0.07 0.05-0.12 0.12-0.19 0.17l-0.03 0.04c-0.24 0.2-0.55 0.29-0.84 0.29h-0.02l1.13-0.62h-0.03c-0.24 0.41-0.67 0.65-1.15 0.65l0.7-0.2-0.03 0.03c-0.24 0.12-0.48 0.21-0.72 0.21h-0.21l0.5-0.12-0.02 0.03c-0.53 0.21-1.18 0.05-1.56-0.43v-0.03l1.03 0.51h-0.05c-0.29 0-0.6-0.08-0.84-0.29l-0.02-0.03c-0.12-0.09-0.22-0.21-0.27-0.33l-0.02-0.03 1.13 0.65h-0.03c-0.31 0-0.6-0.12-0.84-0.33h-0.02l0.14 0.09-0.14-0.09c-0.1-0.03-0.17-0.12-0.24-0.17l-0.07-0.07h0.02l-0.05-0.05 0.05 0.05-0.05-0.03c-0.07-0.05-0.12-0.12-0.19-0.17l-0.05-0.09c-0.09-0.12-0.14-0.22-0.19-0.34l-0.02-0.09 0.31 0.48-0.1-0.08-0.09-0.09-0.17-0.24 0.02 0.02-0.26-0.33-0.05-0.03-0.19-0.24-0.07-0.09-0.1-0.12 0.31 0.31-0.09-0.07-0.03-0.03-0.12-0.09c-0.02-0.03-0.09-0.05-0.14-0.12l-0.1-0.12 0.22 0.19-0.12-0.1-0.12-0.05-0.12-0.09 0.26 0.14-0.12-0.05c-0.07-0.04-0.12-0.07-0.14-0.09l-0.17-0.1 0.12 0.07-0.14-0.09 0.67 0.17h-0.07c-0.17 0-0.34-0.03-0.51-0.08l-0.02-0.04 0.5 0.09h-0.02c-0.31 0-0.65-0.09-0.84-0.29l-0.05-0.04 0.84 0.33h-0.26l1.22-0.84-0.02 0.03c-0.17 0.52-0.7 0.84-1.23 0.84h-0.02c-0.77 0-1.37-0.6-1.37-1.32 0-0.75 0.6-1.32 1.32-1.32 0.77-0.03 1.37 0.57 1.37 1.32 0 0.36-0.17 0.69-0.41 0.93-0.24 0.27-0.6 0.39-0.91 0.39h-0.07l1.03-0.48-0.05 0.04c-0.24 0.29-0.62 0.48-1.01 0.51h-0.02l0.86-0.34-0.02 0.03c-0.07 0.07-0.17 0.09-0.22 0.12l-0.02 0.04 0.65-1.15v0.03c0 0.72-0.6 1.32-1.32 1.32h-0.03l0.87-0.32-0.12 0.08 0.33-0.39-0.02 0.07-0.07 0.08v0.04l-0.05 0.05-0.05 0.1 0.19-0.46v0.07c-0.09 0.27-0.24 0.51-0.45 0.68l-0.03 0.07 0.29-0.43-0.02 0.07 0.09-0.19-0.02 0.09 0.02-0.12v0.03c-0.02 0.07-0.07 0.12-0.07 0.19l-0.02 0.05 0.02-0.05-0.02 0.09-0.12 0.32c-0.03 0.09-0.1 0.19-0.12 0.28l-0.1 0.08v0.04l-0.05 0.08-0.07 0.09-0.02 0.03-0.05 0.12v-0.03l-0.07 0.1c-0.03 0.05-0.1 0.12-0.12 0.17l-0.1 0.09 0.12-0.17-0.07 0.17c-0.29 0.36-0.67 0.58-1.13 0.58l1.32-1.32v0.05c0 0.72-0.6 1.32-1.34 1.32-0.53 0-1.01-0.32-1.23-0.8-0.21-0.52-0.09-1.08 0.27-1.44 0.38-0.4 0.96-0.52 1.46-0.31 0.48 0.22 0.82 0.7 0.82 1.23 0 0.4-0.17 0.79-0.48 1.03l-0.03 0.02c-0.24 0.22-0.55 0.31-0.84 0.31h-0.02c-0.55 0-1.03-0.31-1.25-0.81-0.19-0.48-0.07-1.06 0.29-1.44 0.38-0.39 0.96-0.51 1.46-0.31 0.48 0.21 0.82 0.69 0.82 1.24v0.03c0 0.38-0.19 0.74-0.48 1.01l-0.05 0.04c-0.24 0.17-0.53 0.29-0.84 0.29h-0.05l0.87-0.29h-0.03c-0.24 0.2-0.55 0.32-0.86 0.32h-0.05l0.89-0.29h-0.05c-0.24 0.21-0.53 0.33-0.86 0.33h-0.05c-0.31 0-0.6-0.12-0.84-0.33h-0.05l0.89 0.29h-0.07c-0.22 0-0.46-0.05-0.65-0.17l-0.1-0.07 0.12 0.09-0.02-0.02c-0.19-0.1-0.34-0.19-0.46-0.31l-0.07-0.05 0.46 0.29-0.03-0.03c-0.26-0.09-0.5-0.29-0.62-0.53l-0.05-0.04 0.19 0.24-0.07-0.05 0.12 0.12-0.02-0.03c-0.05-0.04-0.1-0.09-0.15-0.16l-0.02-0.03 0.12 0.12-0.22-0.17h0.03l-0.27-0.21c-0.07-0.07-0.12-0.15-0.19-0.22l-0.07-0.14 0.12 0.14-0.12-0.12-0.07-0.02-0.1-0.12-0.05-0.1-0.24-0.33 0.15 0.19-0.12-0.1 0.19 0.12-0.12-0.09c-0.1-0.05-0.17-0.12-0.24-0.17l-0.1-0.1 0.22 0.19-0.24-0.16 0.12 0.04-0.12-0.07 0.12 0.1-0.12-0.07-0.05-0.03-0.07-0.02-0.1-0.07-0.07-0.03c-0.07-0.02-0.14-0.09-0.19-0.12l-0.05-0.02 0.91 0.29h-0.02c-0.19 0-0.41-0.03-0.55-0.08l-0.05-0.04 0.55 0.09h-0.14c-0.29 0.03-0.63-0.09-0.87-0.29h-0.02l0.86 0.29h-0.12l1.23-0.86v0.02c-0.22 0.51-0.7 0.84-1.23 0.87h-0.09 0.02-0.12l0.89-0.32v0.03l0.07-0.12-0.12 0.14 0.12-0.17-0.02 0.05-0.1 0.1-0.05 0.09 0.15-0.21-0.03 0.02-0.07 0.12-0.02 0.07 0.09-0.16-0.07 0.09-0.05 0.15-0.07 0.04-0.02 0.05-0.05 0.07 0.26-1.08v0.08c0.05 0.33 0 0.69-0.19 1l-0.05 0.08 0.12-0.2-0.02 0.05 0.07-0.33v0.07-0.24 0.09c0 0.17-0.02 0.36-0.07 0.51l-0.07 0.17 0.02-0.05-0.02 0.05-0.03 0.09c-0.02 0.12-0.09 0.24-0.19 0.34l-0.02 0.05 0.14-0.27-0.02 0.1c-0.03 0.09-0.1 0.17-0.12 0.26l-0.05 0.07c-0.05 0.05-0.07 0.08-0.1 0.12l-0.07 0.05 0.12-0.14-0.05 0.09 0.1-0.16-0.05 0.07c-0.07 0.14-0.17 0.29-0.31 0.41l-0.07 0.07-0.1 0.09 0.48-1.08v0.03c0.05 0.33-0.12 0.65-0.31 0.93l-0.05 0.03c-0.07 0.09-0.17 0.17-0.29 0.24l-0.02 0.02-0.1 0.07-0.02 0.03-0.12 0.05-0.07 0.04 0.55-0.45-0.05 0.02c-0.07 0.15-0.24 0.27-0.38 0.36l-0.03 0.03c-0.21 0.12-0.45 0.19-0.69 0.19h-0.05l0.86-0.34-0.02 0.03c-0.29 0.24-0.58 0.36-0.91 0.36h-0.05c-0.17 0-0.31-0.03-0.46-0.05l-0.07-0.03 0.46 0.05h-0.05c-0.34 0-0.65-0.09-0.91-0.29v-0.04l0.91 0.33h-0.1c-0.33 0-0.62-0.12-0.91-0.33l-0.02-0.03 0.91 0.34h-0.05c-0.31 0-0.62-0.12-0.89-0.34h-0.02v-0.02l0.31 0.21-0.02-0.04 0.55 0.12c-0.58 0-1.06-0.29-1.3-0.77l-0.02-0.07 0.55 0.64-0.02-0.04c-0.05-0.03-0.15-0.08-0.22-0.15l-0.02-0.02c-0.29-0.24-0.48-0.63-0.51-1.06l0.87 1.27-0.03-0.04c-0.19-0.05-0.33-0.17-0.45-0.29l-0.6-0.58-0.41-0.41 0.02 0.03-0.19-0.15 0.19 0.12-0.19-0.12 0.05 0.03-0.22-0.15 0.05 0.05-0.19-0.14-0.12-0.1-0.24-0.14 0.17 0.09-0.05-0.04 0.12 0.07-0.1-0.03-0.07-0.04-0.07-0.03-0.05-0.02-0.12-0.07 0.34 0.12h-0.05c-0.1-0.03-0.17-0.05-0.24-0.08l-0.1-0.04 0.22 0.07h-0.07 0.07l-0.12-0.03 0.41 0.03h-0.1l-0.14 0.02h-0.1l0.91-0.36v0.03c-0.26 0.21-0.6 0.33-0.93 0.33h-0.1l0.31-0.02-0.02 0.02 0.91-0.69-0.02 0.04c-0.15 0.27-0.39 0.48-0.65 0.6h-0.07l0.21-0.09-0.07 0.02-0.05 0.03-0.02 0.04c-0.22 0.12-0.46 0.17-0.7 0.17h-0.07l0.94-0.36-0.03 0.03-0.02 0.04 0.29-0.36-0.03 0.03c-0.24 0.45-0.72 0.72-1.2 0.72h-0.02l1.13-0.6-0.03 0.02c-0.07 0.12-0.14 0.22-0.24 0.27l-0.02 0.04 0.19-0.21-0.02 0.02 0.02-0.02-0.24 0.33 0.05-0.07-0.07 0.12 0.12-0.24-0.05 0.15c-0.05 0.07-0.07 0.12-0.1 0.19l-0.09 0.12 0.02-0.07-0.14 0.31c-0.03 0.05-0.05 0.09-0.1 0.14l-0.17 0.24 0.12-0.17-0.02 0.05c-0.1 0.15-0.19 0.27-0.29 0.36l-0.07 0.1 0.05-0.07-0.1 0.09c-0.02 0.07-0.07 0.1-0.12 0.12l-0.05 0.07-0.02 0.03 0.5-1.08v0.02c0 0.79-0.67 1.39-1.44 1.39h-0.04l1.36-0.88-0.02 0.04c-0.12 0.32-0.43 0.63-0.77 0.77h-0.05l0.36-0.21-0.02 0.04c-0.24 0.2-0.58 0.32-0.91 0.32h-0.03l1.11-0.53-0.03 0.02c-0.26 0.34-0.69 0.55-1.12 0.55h-0.05l-0.03-0.04h-0.04l0.98-0.29h-0.05c-0.26 0.21-0.6 0.33-0.93 0.33h-0.03l0.31-0.04h-0.04c-0.12 0.04-0.2 0.07-0.29 0.04h-0.07 0.04-0.04c-0.24 0-0.44-0.07-0.65-0.16l-0.15-0.08h-0.04l-0.05-0.07c-0.1-0.02-0.15-0.09-0.24-0.14v-0.03l0.21 0.17-0.07-0.05c-0.09-0.04-0.14-0.09-0.24-0.16v-0.03 0.03l-0.05-0.05c-0.12-0.12-0.24-0.24-0.31-0.36l-0.02-0.07 0.65 0.6-0.05-0.03c-0.31-0.12-0.58-0.38-0.72-0.69v-0.05l0.36 0.48-0.07-0.03-0.03-0.07c-0.17-0.12-0.29-0.26-0.36-0.45l-0.02-0.05-0.03-0.1-0.04-0.05 0.76 0.77-0.07-0.02c-0.5-0.22-0.84-0.72-0.84-1.3v-0.05l0.12 0.6v-0.07l0.12 0.22-0.12-0.19h-0.02l-0.03-0.08-0.07-0.07-0.02-0.05 0.02 0.05-0.05-0.09 0.56 0.48-0.08-0.03c-0.21-0.12-0.43-0.26-0.55-0.48l-0.05-0.05 0.05 0.05-0.02-0.05 0.12 0.15-0.27-0.24-0.07-0.07-0.12-0.15 0.15 0.15-0.08-0.08-0.09-0.07 0.12 0.1-0.1-0.07c-0.05-0.05-0.12-0.08-0.17-0.15l-0.07-0.05 0.46 0.29-0.07-0.02 0.55 0.12c-0.79 0-1.42-0.63-1.42-1.42v-0.02c0-0.79 0.67-1.39 1.42-1.39 0.77 0 1.41 0.64 1.41 1.41-0.04 0.79-0.67 1.39-1.41 1.39h-0.03c-0.4 0-0.72-0.16-1-0.43-0.27-0.24-0.41-0.6-0.41-0.98v-0.03c0.02-0.76 0.65-1.39 1.41-1.39 0.77 0 1.4 0.63 1.4 1.42 0 0.77-0.63 1.37-1.4 1.37h-0.04c-0.32 0-0.65-0.12-0.89-0.32l-0.03-0.04 0.89 0.36h-0.05l0.56-0.12h-0.03c-0.14 0.09-0.36 0.12-0.53 0.12h-0.12 0.03-0.1l0.91-0.32v0.03c-0.28 0.21-0.6 0.33-0.93 0.29l1.29-0.87v0.07c-0.24 0.51-0.76 0.87-1.32 0.84h-0.04l1.41-1.39v0.03c0 0.43-0.17 0.81-0.48 1.05l-0.26 0.22 0.12-0.1-0.1 0.1-0.05 0.09 0.2-0.33-0.05 0.12c-0.03 0.09-0.1 0.14-0.15 0.24l-0.09 0.09 0.02-0.04-0.09 0.12 0.16-0.2-0.07 0.12-0.02 0.03-0.07 0.12 0.07-0.15-0.03 0.08c-0.04 0.07-0.07 0.12-0.09 0.19l-0.24 0.38 0.02-0.05-0.09 0.17c-0.03 0.07-0.08 0.15-0.15 0.22l-0.09 0.12-0.03 0.02-0.09 0.12h-0.03l-0.05 0.1 0.2-0.27-0.03 0.03c-0.26 0.5-0.77 0.77-1.32 0.74h-0.02l0.72-0.14-0.03 0.02 0.72-1.08c-0.04 0.46-0.28 0.82-0.67 1.06l-0.02 0.02-0.1 0.03-0.02 0.04 0.02-0.04-0.05 0.04c-0.04 0.03-0.09 0.05-0.16 0.05l-0.05 0.03 0.62-0.48v0.04c-0.26 0.36-0.72 0.56-1.17 0.56l-0.03-0.03 1.06-0.45-0.03 0.04c-0.28 0.29-0.67 0.48-1.05 0.44h-0.07c-0.32 0-0.65-0.15-0.89-0.39h-0.03l0.65 0.36-0.02-0.02c-0.24-0.03-0.46-0.19-0.63-0.36h-0.04l0.81 0.36h-0.05c-0.36-0.03-0.69-0.22-0.91-0.48-0.21-0.31-0.33-0.67-0.26-0.99v-0.04c0.09-0.72 0.74-1.23 1.46-1.13 0.72 0.09 1.23 0.74 1.15 1.46-0.07 0.72-0.72 1.23-1.44 1.15h-0.04c-0.39-0.04-0.72-0.24-0.92-0.55l-0.04-0.05 1.75 0.39v0.02c-0.24 0.15-0.55 0.22-0.82 0.19l-0.02-0.04c-0.7-0.05-1.23-0.68-1.18-1.4l0.03-0.04 0.36 1.05-0.03-0.02 0.79 0.38c-0.36-0.05-0.69-0.24-0.91-0.5-0.21-0.27-0.29-0.63-0.26-0.96v-0.03l0.38 1.08h-0.02l0.77 0.36h-0.03c-0.36-0.04-0.65-0.21-0.86-0.48-0.22-0.28-0.34-0.64-0.27-0.96v-0.04 0.07-0.03l0.36 1.01v-0.02c-0.31-0.27-0.43-0.7-0.4-1.08h0.04l0.17 0.81-0.65-1.03c-0.04-0.05-0.07-0.12-0.09-0.17l-0.15-0.4-0.04-0.08-0.15-0.43 0.07 0.12-0.24-0.48c-0.21-0.5-0.04-1.1 0.44-1.37 0.48-0.28 1.12-0.12 1.41 0.32z"/>
  <path transform="matrix(1.3333 0 0 -1.3333 0 1120.8)" d="m558.29 736.8 0.36-0.05h0.02l0.34-0.02h0.19l0.89 0.05h0.02l0.46 0.02h-0.12l2.59-0.02h0.96l0.84 0.02h-0.07 0.07c0.5 0 0.98 0.24 1.25 0.7 0.24 0.45 0.24 0.98 0 1.41-0.27 0.46-0.75 0.72-1.25 0.72h-0.17l-0.86-0.09h0.02l-0.86-0.03h-0.03l-2.59-0.24h-0.12l-0.43-0.09h0.05l-0.89-0.12h0.05l-0.34-0.03 0.05 0.03-0.36-0.03c-0.58-0.02-1.03-0.5-1.06-1.08-0.02-0.57 0.41-1.08 0.99-1.15z"/>
  <path transform="matrix(1.3333 0 0 -1.3333 0 1120.8)" d="m559.2 737.76 0.05 0.19 0.02 0.12 0.07 0.24v-0.09l0.1 0.26 0.05 0.24-0.05-0.12 0.12 0.24 0.07 0.22-0.02-0.05 0.12 0.19 0.12 0.24-0.05-0.12 0.12 0.22h0.02l0.34 0.5-0.1-0.12 0.1 0.12 0.02 0.05 0.1 0.14-0.1-0.12 0.15 0.15 0.09 0.12-0.14-0.15 0.12 0.1 0.14 0.14-0.12-0.09 0.15 0.09 0.12 0.1-0.1-0.05 0.17 0.07-0.1-0.02 0.12 0.05 0.1 0.07 0.12 0.07-0.22-0.12 0.12 0.05 0.39 0.17-0.03-0.03 0.15 0.05-0.12-0.02 0.12 0.02 0.07 0.05 0.14 0.02-0.33-0.07h0.12l0.12 0.05h0.12l0.14 0.02h-0.12 0.24l-0.24 0.03 0.17-0.03h0.24-0.12 0.14-0.02l0.12-0.02-0.1 0.02 0.12-0.02h-0.02l0.14-0.05-0.12 0.05 0.34-0.1-0.1 0.03 0.1-0.05-0.12 0.05 0.05-0.03-0.05 0.03 0.07-0.03-0.12 0.05 0.1-0.05 0.02-0.02 0.1-0.05 0.07-0.05 0.07-0.07-0.29 0.24 0.1-0.07 0.07-0.07 0.07-0.1-0.09 0.1 0.07-0.05 0.07-0.07-0.14 0.14 0.19-0.19 0.02-0.07 0.12-0.15-0.14 0.24 0.07-0.14 0.07-0.12 0.1-0.17-0.1 0.19 0.05-0.14 0.22-0.46-0.05 0.15 0.07-0.24-0.02 0.07 0.07-0.24v0.07l0.02-0.19 0.03-0.1 0.07-0.21-0.07 0.24 0.09-0.63v0.15-0.12l0.03 0.36v-0.03c-0.03-0.12-0.05-0.24-0.05-0.38l0.05 0.36-0.03-0.07c-0.02-0.12-0.02-0.24-0.02-0.36v-0.05l0.12 0.65v-0.03c-0.05-0.07-0.07-0.12-0.07-0.19l-0.03-0.02 0.1 0.19-0.05-0.05-0.02-0.05-0.03-0.09 1.2 0.86c-0.74-0.05-1.32-0.67-1.32-1.39 0-0.77 0.58-1.39 1.32-1.44 0.63-0.05 1.18 0.29 1.42 0.86l0.05 0.1-0.05-0.12 0.02 0.02c0.03 0.05 0.05 0.12 0.05 0.22l0.05 0.02-0.1-0.21v0.02c0.12 0.22 0.17 0.43 0.17 0.65v0.05l-0.05-0.34 0.03 0.07c0.02 0.1 0.02 0.22 0.02 0.34l-0.02-0.31v0.02c0.02 0.12 0.07 0.22 0.07 0.34v0.12 0.19l-0.1 0.62c0 0.1-0.02 0.17-0.02 0.24l-0.1 0.22 0.03-0.07-0.05 0.21v0.05l-0.07 0.22-0.03 0.07-0.07 0.24-0.05 0.12-0.21 0.43v0.05l-0.1 0.14c-0.02 0.05-0.05 0.15-0.07 0.22l-0.12 0.14 0.07-0.12-0.07 0.15c-0.07 0.09-0.1 0.19-0.17 0.24l-0.14 0.14 0.07-0.05-0.17 0.22c-0.05 0.05-0.07 0.12-0.14 0.14l-0.05 0.1-0.07 0.05-0.12 0.09-0.05 0.05 0.07-0.07-0.05 0.05c-0.09 0.09-0.21 0.19-0.31 0.24l-0.07 0.07 0.05-0.07-0.05 0.07 0.02-0.05-0.09 0.07-0.12 0.05-0.1 0.07-0.05 0.03-0.09 0.07-0.12 0.05-0.12 0.02-0.1 0.05-0.31 0.07-0.17 0.05-0.12 0.02h-0.02l-0.12 0.03-0.12 0.02h-0.53 0.12l-0.17 0.05h-0.26l-0.12-0.05h-0.12l-0.12-0.02-0.15-0.03-0.12-0.02 0.1 0.02-0.12-0.02c-0.12 0-0.22-0.05-0.34-0.07l-0.14-0.05 0.07 0.02-0.12-0.07-0.12-0.02-0.12-0.05h-0.02l-0.39-0.19-0.07-0.03-0.14-0.07c-0.05-0.02-0.15-0.07-0.22-0.12l-0.12-0.07 0.1 0.02-0.15-0.07-0.07-0.05-0.12-0.09-0.07-0.05-0.12-0.1-0.12-0.12-0.12-0.09-0.1-0.12 0.05 0.07-0.07-0.1-0.19-0.19-0.1-0.12 0.05 0.05-0.1-0.1-0.07-0.09-0.07-0.15 0.02 0.03-0.09-0.12c-0.03-0.05-0.05-0.1-0.1-0.15l-0.29-0.55-0.07-0.12-0.07-0.19-0.05-0.12-0.07-0.24-0.1-0.24v-0.12l-0.07-0.22v0.03l-0.05-0.27-0.04-0.14-0.03-0.24v0.02l-0.02-0.26-0.03-0.1v-0.45c-0.04-0.58 0.34-1.06 0.87-1.13 0.55-0.12 1.08 0.17 1.27 0.67z"/>
  <path transform="matrix(1.3333 0 0 -1.3333 0 1120.8)" d="m579.77 735.91v0.7l-0.05 4.58v-0.02l0.02 2.16v0.91l-0.02 7.03v-0.05l0.1 2.48v-0.08l0.04 0.56-0.02-0.05 0.1 0.57-0.05-0.16 0.33 1.36v-0.09l0.03 0.17 0.05 0.04 0.04 0.2-0.14-0.32 0.12 0.17-0.02-0.05 0.07 0.17 0.05 0.03 0.19 0.4c0.05 0.05 0.07 0.12 0.09 0.17l0.03 0.07-0.43-0.6 0.04 0.03c0.22 0.17 0.36 0.38 0.46 0.62l0.02 0.07-0.45-0.6 0.07 0.03c0.05 0.05 0.14 0.14 0.22 0.21l0.12 0.15-0.24-0.24 0.04 0.05-0.24-0.15 0.1 0.03c0.24 0.12 0.41 0.33 0.58 0.55l0.02 0.05-0.58-0.53 0.08 0.02c0.07 0.03 0.16 0.1 0.24 0.15l0.04 0.07-0.24-0.19 0.1 0.07-0.34-0.15 0.1 0.03c0.22 0.05 0.38 0.14 0.58 0.29l0.02 0.04-0.24-0.16 0.1 0.07-0.29-0.12 0.21 0.05 0.12 0.04 0.08 0.03-0.58-0.12h0.48l-0.58 0.12 0.08-0.03h0.02c0.17-0.09 0.38-0.12 0.6-0.12h0.02l-0.6 0.12 0.08-0.04-0.41 0.24 0.05-0.03c0.16-0.14 0.4-0.26 0.64-0.33h0.12l-1 0.69 0.02-0.02c0.22-0.34 0.53-0.6 0.89-0.7l0.09-0.02-0.76 0.5 0.04-0.05c0.15-0.21 0.36-0.36 0.6-0.45l0.08-0.03-0.65 0.44 0.07-0.05c0.17-0.22 0.38-0.36 0.62-0.46l0.03-0.02-0.84 0.84 0.05-0.07c0.07-0.24 0.26-0.44 0.43-0.6l0.07-0.05-0.46 0.62 0.03-0.05c0.05-0.12 0.09-0.21 0.17-0.31l0.12-0.17-0.08 0.08 0.12-0.17 0.08-0.1 0.07-0.14-0.19 0.48 0.02-0.19 0.02-0.05 0.08-0.19c0-0.05 0.02-0.12 0.04-0.17l0.1-0.19-0.12 0.45 0.02-0.21v-0.15l0.1-0.33-0.02 0.28 0.02-0.84v0.05-0.84 0.15l-0.19-2.24-0.12-0.93-0.07-0.89v-0.19-0.24c0.02-0.82 0.67-1.44 1.48-1.44 0.8 0 1.44 0.62 1.47 1.44v0.24-0.17l0.12 0.89v0.02l0.12 0.91v0.05l0.24 2.26v1.85c-0.03 0.12-0.03 0.21-0.05 0.33l-0.07 0.34v-0.12l-0.03 0.17c0 0.16-0.04 0.31-0.12 0.45l-0.04 0.19 0.04-0.21-0.04 0.17 0.02-0.03-0.07 0.19c-0.05 0.17-0.12 0.36-0.24 0.48l-0.07 0.17 0.02-0.09-0.1 0.19-0.04 0.05-0.12 0.19 0.16-0.31-0.02 0.07c-0.1 0.24-0.24 0.45-0.46 0.6l-0.04 0.05 0.43-0.63-0.03 0.07c-0.14 0.39-0.45 0.68-0.84 0.87h-0.04l0.62-0.46-0.07 0.07c-0.15 0.2-0.39 0.36-0.6 0.44l-0.05 0.04 0.6-0.45-0.07 0.05c-0.17 0.28-0.48 0.45-0.77 0.52l-0.1 0.03 0.94-0.7-0.02 0.07c-0.24 0.36-0.6 0.63-1.04 0.68l-0.09 0.04 0.67-0.31h-0.02c-0.12 0.12-0.24 0.19-0.41 0.24l-0.05 0.03c-0.19 0.07-0.38 0.12-0.58 0.12h-0.02l0.58-0.12-0.08 0.04h-0.04c-0.2 0.08-0.36 0.12-0.58 0.12h-0.48c-0.22 0-0.38-0.04-0.6-0.12h-0.02l0.12 0.03-0.22-0.07c-0.12-0.03-0.22-0.05-0.31-0.12l-0.07-0.05c-0.08-0.03-0.17-0.1-0.22-0.15l-0.07-0.04 0.57 0.28h-0.09c-0.12-0.04-0.24-0.09-0.31-0.16l-0.1-0.03c-0.1-0.05-0.14-0.12-0.24-0.17l-0.07-0.04 0.24 0.16-0.05-0.04c-0.24-0.15-0.46-0.32-0.6-0.56v-0.04l0.58 0.55-0.1-0.03c-0.1-0.07-0.14-0.12-0.24-0.19l-0.07-0.02c-0.05-0.07-0.15-0.15-0.19-0.22l-0.08-0.09-0.04-0.05 0.24 0.24-0.08-0.07c-0.21-0.15-0.36-0.36-0.45-0.6l-0.03-0.08 0.46 0.63-0.07-0.07c-0.17-0.15-0.36-0.36-0.43-0.6l-0.05-0.05 0.09 0.17-0.21-0.36 0.05 0.04-0.12-0.19-0.05-0.09-0.12-0.17c-0.05-0.12-0.07-0.22-0.12-0.34l-0.05-0.21 0.02 0.07-0.04-0.19-0.05-0.08-0.34-1.32-0.02-0.19-0.05-0.57v-0.05l-0.07-0.58v-0.09l-0.05-2.52v-0.08l0.14-7v0.02l0.03-0.91 0.02-2.16v-0.07l0.24-4.59v-0.02l0.07-0.67c0.08-0.7 0.63-1.23 1.32-1.2 0.7 0.02 1.23 0.6 1.23 1.29z"/>
 </g>
</svg>
