<svg width="33.37" height="33.299" version="1.1" viewBox="0 0 33.37 33.299" xmlns="http://www.w3.org/2000/svg">
 <g transform="translate(-631.44 -194.44)">
  <g transform="translate(-113.16 86.678)">
   <path transform="matrix(1.3333 0 0 -1.3333 0 1120.8)" d="m560.47 755.09 0.31 0.45v0.03l0.27 0.38-0.05-0.09 0.26 0.36 0.72 1c0.15 0.17 0.24 0.39 0.27 0.63l-0.53-0.91 0.02 0.04c0.29 0.2 0.51 0.56 0.53 0.96v0.03-0.07 0.04l-1.44-1.17c0.34-0.03 0.67 0.05 0.94 0.24l0.02 0.02c0.31 0.22 0.48 0.55 0.55 0.91v0.03l-1.46-1.15 0.02-0.03c0.34-0.02 0.65 0.07 0.89 0.24l0.05 0.03c0.31 0.24 0.53 0.57 0.55 0.96v0.04c0.07 0.75-0.48 1.37-1.2 1.47-0.74 0.05-1.37-0.48-1.46-1.2-0.05-0.75 0.45-1.39 1.2-1.47h0.02l-0.89 0.48 0.03-0.04c0.24-0.29 0.6-0.48 0.98-0.48 0.41 0 0.77 0.16 1.03 0.45l0.03 0.03-1.13-0.44h0.02c0.72-0.07 1.37 0.44 1.47 1.16v0.04l-1.47-1.17h0.03c0.33-0.03 0.67 0.02 0.93 0.24h0.03l-1.08-0.22h0.02c0.36-0.09 0.79 0 1.08 0.22l0.05 0.02-0.84-0.24 0.05-0.02-1.08 0.6 0.02-0.03c0.24-0.36 0.65-0.57 1.06-0.6h0.07l-1.18 0.77v-0.02c0.15-0.27 0.36-0.51 0.65-0.63l0.07-0.04-0.24 0.16 0.03-0.04 0.09-0.05 0.03-0.03-0.03 0.03 0.03-0.03-0.58 1.25c-0.05-0.53 0.19-1.05 0.65-1.32l0.02-0.02c0.17-0.12 0.41-0.19 0.63-0.22h0.02l-1.15 0.84 0.02-0.05c0.03-0.09 0.12-0.21 0.17-0.31l0.07-0.09v0.04l0.1-0.16v0.04l0.07-0.12-0.14 0.2 0.09-0.15 0.03-0.09 0.24-0.39-0.1 0.19 0.05-0.09c0.02-0.07 0.05-0.1 0.05-0.15l0.07-0.12v0.05l0.05-0.14c0.02-0.07 0.09-0.15 0.12-0.22l0.09-0.12 0.03-0.02 0.07-0.1-0.17 0.24 0.07-0.12c0.05-0.12 0.12-0.24 0.22-0.33l0.07-0.08 0.1-0.09c0.02-0.07 0.09-0.1 0.14-0.15l0.24-0.21-0.5 1.1v-0.02c0-0.39 0.14-0.75 0.43-1.03 0.26-0.27 0.62-0.41 1.01-0.41l-1.32 0.93 0.02-0.04c0.22-0.56 0.72-0.92 1.32-0.92h0.05l-0.94 0.32h0.03c0.24-0.24 0.57-0.36 0.91-0.36h0.07-0.02 0.14l-0.55 0.12h0.02c0.15-0.08 0.34-0.12 0.51-0.12h0.09c0.34 0 0.65 0.12 0.94 0.33v0.03l-0.94-0.32h0.03c0.81-0.04 1.44 0.63 1.44 1.4v0.04l-1.44-1.41h0.02c0.79-0.03 1.44 0.62 1.44 1.41v0.03c0 0.77-0.62 1.41-1.39 1.44-0.82 0-1.44-0.63-1.44-1.44-0.05-0.79 0.62-1.42 1.39-1.44h0.05c0.17 0 0.38 0.02 0.55 0.12l0.05 0.02c0.17 0.07 0.31 0.19 0.48 0.31l0.05 0.05-0.22-0.14 0.1 0.02 0.09 0.1 0.05 0.05 0.1 0.07c0.07 0.05 0.09 0.09 0.14 0.14l0.12 0.12-0.05-0.05 0.24 0.24c0.05 0.05 0.1 0.08 0.15 0.15l0.02 0.05 0.07 0.09 0.05 0.07-0.55-0.48 0.07 0.03c0.24 0.12 0.46 0.29 0.58 0.5l0.07 0.1 0.05 0.05 0.02 0.07-0.05-0.07 0.05 0.07 0.12 0.17c0.05 0.07 0.07 0.12 0.1 0.19l0.02 0.05c0.1 0.19 0.17 0.4 0.17 0.6v0.09l-0.91-1.32 0.07 0.03c0.36 0.12 0.62 0.43 0.77 0.79l0.02 0.05-0.02-0.08 0.02 0.05-0.38-0.48 0.07 0.03 0.02 0.04c0.17 0.15 0.29 0.29 0.39 0.48l0.02 0.05-0.74-0.69h0.02c0.31 0.12 0.55 0.33 0.7 0.6l0.02 0.04-0.29-0.36 0.05 0.05h-0.02 0.02l-0.19-0.12 0.07 0.03c0.07 0.04 0.12 0.09 0.22 0.16h0.02l-0.24-0.12 0.1 0.03h-0.03l0.15 0.05-0.7-0.17h0.05l-0.29 0.02h0.07c0.1-0.02 0.17-0.02 0.27-0.02h0.02l-0.91 0.36 0.02-0.03c0.24-0.21 0.58-0.36 0.89-0.36h0.12l-1.13 0.56 0.03-0.03c0.26-0.36 0.69-0.57 1.15-0.57h0.02l-0.93 0.36v-0.03c0.12-0.09 0.24-0.17 0.38-0.24h0.07l-0.79 0.82v-0.03c0.22-0.57 0.77-0.93 1.37-0.93 0.79-0.03 1.46 0.62 1.46 1.41 0 0.8-0.62 1.47-1.41 1.47-0.82 0.02-1.47-0.63-1.47-1.42v-0.02c-0.02-0.43 0.17-0.84 0.48-1.11l0.03-0.04 0.07-0.05-0.12 0.12 0.07-0.1 0.07-0.02 0.05-0.1-0.26 0.39 0.02-0.08c0.05-0.07 0.1-0.12 0.12-0.19l0.19-0.24-0.12 0.19 0.15-0.31 0.02-0.05 0.1-0.16-0.1 0.19 0.07-0.15c0.03-0.07 0.1-0.16 0.12-0.21l0.1-0.12 0.02-0.07 0.27-0.36 0.02-0.05 0.05-0.03c0.05-0.07 0.12-0.12 0.17-0.21h0.02l-0.24 0.26 0.05-0.05c0.26-0.4 0.72-0.6 1.2-0.6l-1.25 0.68 0.05-0.03c0.05-0.14 0.17-0.26 0.29-0.36l0.02-0.02 0.05-0.03c0.26-0.21 0.6-0.33 0.91-0.33h0.07l-0.72 0.17 0.05-0.03-0.07 0.03 0.05-0.03c0.07-0.02 0.14-0.05 0.21-0.09l0.05-0.03-0.67 0.6v-0.02c0.19-0.36 0.55-0.6 0.96-0.7h0.05c0.09-0.02 0.19-0.02 0.31-0.02h0.05l-0.94 0.36 0.05-0.03c0.26-0.24 0.6-0.36 0.91-0.36h0.1l-0.15 0.03 0.1-0.03c0.14 0 0.29 0 0.41 0.03l0.12 0.02h0.09l0.05 0.03c0.1 0.04 0.17 0.04 0.24 0.07l0.1 0.05-0.22-0.08 0.1 0.03c0.09 0.02 0.21 0.05 0.33 0.12l0.1 0.05-0.07-0.03 0.09 0.07-0.07-0.04 0.1 0.04 0.14 0.05 0.1 0.07c0.07 0.03 0.09 0.05 0.14 0.08l0.24 0.19-0.12-0.07 0.22 0.12 0.09 0.07 0.17 0.12 0.05 0.02 0.17 0.15c0.07 0.04 0.12 0.07 0.14 0.12l0.19 0.16 0.41 0.41v0.03l0.6 0.6-0.43-0.32 0.02 0.03c0.53 0.24 0.87 0.74 0.87 1.34l-0.48-1.1v0.02l-0.22-0.14h0.05c0.26 0.14 0.43 0.38 0.6 0.65v0.04l-1.27-0.81h0.02c0.19 0 0.36 0.02 0.55 0.12h0.03c0.14 0.05 0.26 0.14 0.38 0.24l0.05 0.02v0.03l-0.91-0.36h0.02c0.34 0 0.67 0.12 0.94 0.36l-0.89-0.32h0.05c0.33 0 0.67 0.12 0.93 0.32l0.03 0.04-0.94-0.36h0.07c0.15 0.03 0.29 0.03 0.46 0.08l0.05 0.04-0.46-0.09h0.05l-0.91 0.33 0.02-0.04h-0.02l0.07-0.03c0.24-0.21 0.55-0.33 0.89-0.33l0.07 0.04h0.02l-0.69 0.15h0.02l-0.41 0.33 0.03-0.04c0.14-0.17 0.33-0.32 0.55-0.41h0.05l-0.15 0.05 0.03-0.03-0.03 0.03 0.03-0.03-0.29 0.27 0.02-0.03-0.36 0.94v-0.03c0-0.43 0.17-0.81 0.51-1.08l0.09-0.07v-0.02l0.05-0.03-0.36 0.44 0.05-0.08c0.02-0.04 0.05-0.09 0.07-0.16l0.07-0.05c0.03-0.07 0.05-0.12 0.12-0.15l0.03-0.07-0.12 0.15 0.07-0.05-0.17 0.26 0.05-0.09c0.02-0.08 0.07-0.2 0.17-0.29l0.02-0.07-0.19 0.36 0.02-0.05 0.03-0.07 0.02-0.05 0.07-0.19-0.09 0.48v-0.08c0-0.09 0-0.19 0.02-0.31l0.05-0.05c0.02-0.09 0.05-0.21 0.12-0.33l0.02-0.03c0.03-0.07 0.05-0.12 0.1-0.19l0.05-0.05-0.24 0.99-0.03-0.07c-0.07-0.39 0.05-0.77 0.34-1.08l0.02-0.05-0.02 0.02 0.02-0.05-0.09 0.17 0.02-0.09c0.05-0.05 0.1-0.12 0.12-0.17l0.05-0.03-0.07 0.05 0.02-0.02c0.05-0.07 0.1-0.12 0.12-0.15l0.07-0.09-0.07 0.09 0.05-0.07 0.12-0.09 0.12-0.15c0.05-0.05 0.07-0.09 0.14-0.12v-0.02c0.27-0.22 0.58-0.31 0.89-0.31h0.19l-1.32 0.84 0.03-0.03c0.21-0.5 0.72-0.84 1.29-0.84h0.12c0.34 0 0.65 0.12 0.89 0.34l0.05 0.02-0.89-0.33h0.12c0.19 0 0.34 0.04 0.48 0.12h0.07l-0.5-0.12h0.02c0.29 0.04 0.63 0.16 0.87 0.36l-0.22-0.15 0.07 0.07-0.07-0.07 0.1 0.07-0.05-0.04 0.12 0.07 0.12 0.05 0.12 0.07 0.07 0.05 0.24 0.16c0.07 0.05 0.17 0.12 0.22 0.17l0.12 0.12-0.24-0.17 0.14 0.08c0.05 0.04 0.1 0.07 0.17 0.12l0.12 0.12c0.05 0.07 0.12 0.12 0.14 0.19l0.27 0.33-0.05-0.07 0.07 0.12-0.02-0.05 0.09 0.12c0.05 0.03 0.1 0.08 0.12 0.12l0.1 0.15-0.19-0.22 0.24 0.22h0.02l0.19 0.17 0.12 0.12 0.03 0.04-0.15-0.12h0.03l0.12 0.12 0.02 0.05c0.1 0.07 0.17 0.15 0.19 0.24l0.03 0.03-0.63-0.56 0.05 0.03c0.17 0.05 0.31 0.17 0.46 0.33l0.02 0.03-0.43-0.31h0.05l0.12 0.09 0.12 0.07-0.65-0.19h0.05c0.31 0 0.62 0.12 0.86 0.34l-0.86-0.31h0.07l-0.89 0.31h0.05c0.24-0.22 0.55-0.34 0.86-0.34h0.03l-0.87 0.31h0.03c0.24-0.21 0.57-0.33 0.86-0.33h0.07l-0.86 0.33 0.02-0.04-0.48 1.03v-0.03c0-0.76 0.6-1.36 1.35-1.36h0.02l-0.86 0.33 0.02-0.02-0.48 1.05v-0.04c0-0.75 0.6-1.35 1.37-1.35h0.02c0.53 0 1.01 0.34 1.23 0.84 0.21 0.51 0.09 1.08-0.29 1.47-0.36 0.4-0.96 0.52-1.49 0.31-0.5-0.22-0.84-0.72-0.84-1.27v-0.05c0-0.36 0.17-0.7 0.43-0.96 0.24-0.24 0.6-0.39 0.96-0.39l-1.15 0.6 0.12-0.16c0.05-0.05 0.1-0.12 0.12-0.17l0.1-0.1-0.12 0.19 0.07-0.09v-0.03l0.07-0.12v0.03l0.07-0.12 0.05-0.1v0.03l0.07-0.12-0.14 0.28 0.12-0.31v0.03l0.02-0.08v-0.07l0.03-0.05-0.05 0.17 0.02-0.05 0.03-0.12 0.02-0.07c0-0.05 0.05-0.12 0.07-0.17l0.03-0.07c0.09-0.17 0.21-0.33 0.36-0.45l0.02-0.03-0.43 0.72 0.02-0.05c0.03-0.16 0.1-0.31 0.17-0.43l0.07-0.09-0.02 0.07v-0.03l-0.05 0.08 0.05-0.08c0.07-0.16 0.19-0.31 0.31-0.43l0.12-0.09c0.24-0.2 0.55-0.32 0.89-0.32h0.02c0.75 0.03 1.35 0.63 1.35 1.37 0 0.75-0.6 1.35-1.35 1.35-0.74 0-1.34-0.63-1.34-1.35v-0.05c0-0.48 0.26-0.93 0.67-1.17h0.05l-0.22 0.12h0.03c0.24-0.22 0.55-0.34 0.86-0.34h0.05l-1.08 0.51 0.02-0.03c0.27-0.33 0.65-0.5 1.08-0.5h0.05l-1.37 1.34v-0.02c0.03-0.75 0.63-1.35 1.37-1.35h0.05l-1.27 0.87 0.02-0.03c0.22-0.52 0.7-0.88 1.27-0.88h0.03-0.03 0.32c0.28 0 0.6 0.12 0.86 0.33v0.03l-0.86-0.32h0.02c0.17 0 0.36 0.03 0.53 0.12h0.05l-0.53-0.09h0.05c0.24 0 0.43 0.05 0.64 0.17l0.15 0.07 0.12 0.09 0.12 0.08-0.15-0.08 0.12 0.05c0.1 0.03 0.2 0.1 0.27 0.15l0.09 0.09-0.12-0.05 0.12 0.05c0.1 0.07 0.15 0.12 0.24 0.19l0.1 0.12-0.14-0.12 0.12 0.08 0.12 0.07c0.12 0.09 0.19 0.21 0.28 0.33l0.1 0.15-0.07-0.1 0.21 0.27-0.02-0.05 0.26 0.33 0.03 0.03 0.19 0.24-0.12-0.12 0.1 0.05c0.12 0.16 0.24 0.31 0.28 0.48l0.03 0.07-0.19-0.34 0.07 0.1-0.17-0.22 0.02 0.07 0.1 0.05 0.05 0.07 0.05 0.03 0.04 0.05-0.24-0.2 0.15 0.12c0.05 0.03 0.09 0.05 0.17 0.08v0.04l-0.89-0.33h0.05c0.48 0 0.91 0.26 1.15 0.65v0.04l-0.27-0.33-0.86-0.31h0.02c0.44 0 0.82 0.19 1.08 0.52v0.03l-1.58-0.43h0.02c0.2-0.05 0.36-0.12 0.56-0.12h0.19l-0.72 0.21 0.07-0.02c0.22-0.12 0.46-0.22 0.72-0.22h0.02l-1.17 0.67c0.24-0.43 0.69-0.67 1.17-0.67h0.03l-0.87 0.31h0.03l-0.19 0.17 0.02-0.02c0.26-0.34 0.65-0.51 1.08-0.51l-1.15 0.65v-0.02c0.09-0.12 0.19-0.24 0.31-0.34l0.02-0.02-0.12 0.09 0.2-0.19 0.14-0.14-0.12 0.12 0.12-0.15 0.02-0.04 0.15-0.2-0.03 0.08 0.34-0.51-0.1 0.15 0.12-0.24 0.08-0.08 0.14-0.24 0.1-0.12 0.48-0.64c0.02-0.03 0.07-0.08 0.12-0.12l0.19-0.2c0.55-0.52 1.39-0.48 1.89 0.05 0.51 0.55 0.51 1.39-0.02 1.9l-0.22 0.21 0.15-0.16-0.51 0.64 0.1-0.16-0.14 0.24 0.04-0.08-0.12 0.24c-0.02 0.05-0.04 0.12-0.09 0.15l-0.31 0.5-0.08 0.07-0.14 0.17 0.02-0.02-0.12 0.17c-0.02 0.04-0.09 0.09-0.12 0.12l-0.14 0.19h-0.02l-0.17 0.17-0.07 0.09h-0.05l0.29-0.33v0.04c-0.24 0.39-0.7 0.65-1.18 0.65l1.06-0.5-0.05 0.02c-0.05 0.07-0.12 0.12-0.17 0.19l-0.02 0.03c-0.24 0.21-0.58 0.29-0.89 0.29h-0.03l1.18-0.65-0.02 0.02c-0.24 0.43-0.68 0.67-1.16 0.67h-0.02l0.72-0.21-0.07 0.02c-0.19 0.15-0.43 0.22-0.72 0.22h-0.19l0.5-0.1h-0.02c-0.56 0.24-1.2 0.07-1.56-0.41l-0.05-0.04 1.05 0.55h-0.02c-0.31 0-0.6-0.12-0.86-0.34v-0.02c-0.12-0.1-0.24-0.22-0.32-0.34v-0.02l1.16 0.65h-0.05c-0.29 0-0.63-0.12-0.87-0.29v-0.03l0.12 0.08-0.12-0.08c-0.09-0.04-0.16-0.12-0.24-0.19l-0.04-0.05-0.08-0.07 0.08 0.07-0.05-0.04c-0.07-0.05-0.15-0.12-0.19-0.2l-0.08-0.09c-0.09-0.1-0.14-0.22-0.21-0.34l-0.03-0.05 0.34 0.44-0.1-0.05-0.09-0.12-0.17-0.22 0.02 0.03-0.28-0.32-0.05-0.07-0.17-0.24-0.07-0.09-0.12-0.12 0.33 0.31-0.12-0.07v-0.03l-0.12-0.09c-0.04-0.03-0.12-0.08-0.14-0.12l-0.12-0.12 0.22 0.19-0.15-0.1-0.12-0.09-0.12-0.08 0.29 0.17-0.12-0.05c-0.07-0.04-0.12-0.07-0.17-0.09l-0.14-0.1 0.12 0.07-0.15-0.09 0.68 0.17h-0.05c-0.17 0-0.36-0.03-0.53-0.12h-0.07l0.55 0.09h-0.02c-0.32 0-0.65-0.12-0.89-0.29l-0.03-0.04 0.92 0.33h-0.32 0.03-0.03l1.28-0.86-0.05 0.02c-0.19 0.51-0.67 0.87-1.25 0.87h-0.05c-0.74 0-1.37-0.63-1.37-1.37 0-0.72 0.63-1.35 1.35-1.35 0.77 0 1.39 0.6 1.39 1.35v0.02c0 0.36-0.14 0.7-0.38 0.96-0.29 0.24-0.6 0.39-0.99 0.39h-0.05l1.06-0.51-0.02 0.03c-0.24 0.33-0.65 0.52-1.06 0.52h-0.05l0.89-0.31h-0.02c-0.08 0.07-0.12 0.12-0.22 0.15l-0.02 0.04 0.67-1.2v0.05c0 0.72-0.6 1.35-1.35 1.35h-0.02l0.86-0.32-0.09 0.08 0.33-0.41-0.04 0.05-0.05 0.09-0.03 0.03-0.02 0.09-0.07 0.07 0.21-0.45-0.02 0.05c-0.07 0.28-0.22 0.55-0.46 0.72l-0.02 0.04 0.34-0.43-0.05 0.1 0.07-0.19-0.02 0.07 0.04-0.12-0.02 0.05c0 0.07-0.02 0.12-0.07 0.19l-0.03 0.05 0.03-0.05-0.03 0.05v0.04l-0.12 0.29c-0.02 0.12-0.04 0.22-0.12 0.31l-0.09 0.12-0.05 0.08-0.07 0.09v0.03l-0.1 0.12v-0.03l-0.05 0.1c-0.02 0.05-0.09 0.12-0.12 0.17l-0.09 0.09 0.12-0.14-0.1 0.14c-0.26 0.39-0.67 0.6-1.13 0.6l1.35-1.34v0.05c0 0.76-0.63 1.36-1.35 1.36h-0.02c-0.58 0-1.06-0.33-1.27-0.84-0.22-0.52-0.1-1.08 0.31-1.48 0.38-0.39 0.96-0.51 1.46-0.29 0.51 0.21 0.84 0.72 0.84 1.25v0.04c0 0.39-0.19 0.77-0.48 1.01l-0.02 0.03c-0.24 0.21-0.55 0.31-0.89 0.31h-0.02c-0.58 0-1.06-0.34-1.25-0.82-0.22-0.5-0.1-1.1 0.29-1.49 0.38-0.4 0.96-0.48 1.46-0.28 0.53 0.21 0.84 0.69 0.84 1.24v0.03c0 0.41-0.17 0.77-0.48 1.05l-0.02 0.03c-0.24 0.17-0.53 0.29-0.87 0.29h-0.07l0.89-0.29h-0.05c-0.24 0.21-0.53 0.33-0.86 0.33h-0.03l0.87-0.31c-0.27 0.22-0.58 0.34-0.89 0.34h-0.07c-0.29 0-0.63-0.12-0.87-0.34h-0.02l0.89 0.31h-0.05c-0.24 0-0.46-0.07-0.67-0.19l-0.12-0.05 0.14 0.08-0.05-0.03c-0.19-0.05-0.33-0.17-0.45-0.33l-0.05-0.03 0.43 0.31h-0.02c-0.27-0.12-0.51-0.33-0.65-0.57v-0.03l0.17 0.24-0.05-0.07 0.12 0.1h-0.05c-0.05-0.07-0.07-0.1-0.14-0.15l-0.03-0.04 0.12 0.09-0.21-0.14-0.24-0.24c-0.1-0.07-0.15-0.12-0.22-0.22l-0.07-0.12 0.12 0.12-0.12-0.09-0.17-0.17-0.05-0.07-0.24-0.36 0.15 0.19-0.12-0.12 0.19 0.14-0.12-0.09c-0.1-0.05-0.17-0.12-0.24-0.17l-0.1-0.12 0.22 0.17-0.24-0.15 0.07 0.07-0.07-0.07 0.12 0.07-0.12-0.04-0.07-0.03-0.1-0.05-0.05-0.04-0.09-0.03c-0.05-0.05-0.12-0.09-0.17-0.14l-0.05-0.03 0.91 0.32h-0.02c-0.19 0-0.41-0.03-0.58-0.12h-0.02l0.55 0.09h-0.12c-0.31 0-0.65-0.09-0.89-0.29l-0.02-0.04 0.86 0.31-0.02 0.02h-0.1l1.25-0.89v0.03c-0.19 0.5-0.67 0.86-1.25 0.89h-0.19l0.91-0.36-0.02 0.04 0.12-0.12-0.17 0.15 0.17-0.15-0.07 0.03-0.05 0.12-0.07 0.05 0.14-0.2-0.02 0.05-0.05 0.1-0.07 0.05 0.09-0.15-0.02 0.1-0.1 0.14-0.02 0.07-0.07 0.05-0.03 0.07 0.24-1.12v0.09c0.1 0.36 0 0.72-0.19 1.03l-0.05 0.05 0.12-0.17-0.02 0.03 0.07-0.34v0.1l0.05-0.27v0.08c0 0.19-0.05 0.36-0.1 0.55l-0.09 0.17 0.02-0.05-0.02 0.05v0.09c-0.05 0.12-0.12 0.24-0.17 0.36l-0.07 0.03 0.14-0.27-0.02 0.1c-0.03 0.09-0.05 0.17-0.12 0.26l-0.05 0.07c-0.05 0.05-0.07 0.08-0.1 0.15l-0.07 0.02 0.12-0.12-0.05 0.07 0.1-0.16-0.05 0.07c-0.07 0.17-0.19 0.33-0.31 0.45l-0.07 0.05-0.1 0.07 0.48-1.08v0.03c0.05 0.33-0.12 0.69-0.31 0.96l-0.05 0.02c-0.07 0.1-0.19 0.19-0.29 0.24l-0.07 0.03-0.05 0.07-0.02 0.02-0.17 0.07-0.05 0.03 0.58-0.46-0.05 0.03c-0.12 0.16-0.24 0.28-0.41 0.36l-0.02 0.04c-0.22 0.12-0.46 0.17-0.7 0.17h-0.09l0.93-0.33-0.02 0.04h-0.05c-0.24 0.24-0.55 0.36-0.91 0.36h-0.05c-0.17 0-0.31-0.04-0.48-0.07l-0.05-0.02 0.48 0.05h-0.07c-0.31 0.04-0.65-0.08-0.91-0.29v-0.03l0.89 0.32h-0.05c-0.34 0-0.67-0.12-0.94-0.32l-0.02-0.04 0.91 0.33h-0.02c-0.34 0-0.65-0.12-0.94-0.33h-0.02l-0.03-0.03 0.36 0.22h-0.02l0.55 0.09h-0.02c-0.58 0-1.08-0.31-1.32-0.81l-0.03-0.03 0.6 0.63-0.02-0.03c-0.07-0.07-0.17-0.09-0.22-0.16l-0.02-0.03c-0.34-0.26-0.53-0.65-0.53-1.08l0.89 1.3-0.07-0.03c-0.15-0.07-0.29-0.19-0.46-0.31l-0.6-0.6 0.05 0.03-0.46-0.44 0.03 0.03-0.17-0.15 0.14 0.12-0.19-0.12 0.07 0.03-0.21-0.15 0.07 0.03-0.22-0.12-0.12-0.1-0.24-0.17 0.15 0.12-0.05-0.04 0.14 0.07-0.12-0.03-0.07-0.04-0.07-0.05-0.05-0.03-0.07-0.04 0.31 0.12-0.07-0.03c-0.1 0-0.17-0.02-0.24-0.05l-0.1-0.04 0.24 0.07-0.09-0.03 0.07 0.03-0.1-0.03 0.39 0.03h-0.34l0.94-0.34c-0.27 0.24-0.6 0.36-0.96 0.36h-0.05l0.29-0.02h-0.05l0.96-0.7-0.05 0.03c-0.14 0.28-0.38 0.48-0.67 0.6l-0.05 0.04 0.22-0.12-0.05 0.03-0.07 0.02-0.03 0.03c-0.21 0.12-0.48 0.19-0.72 0.19h-0.07l0.96-0.34-0.02 0.03-0.03 0.04 0.29-0.4-0.02 0.07c-0.27 0.41-0.72 0.69-1.25 0.69l1.15-0.6-0.02 0.05c-0.05 0.1-0.15 0.19-0.24 0.27h-0.03l0.22-0.2-0.05 0.03 0.05-0.03-0.29 0.36 0.07-0.07-0.09 0.1 0.12-0.22-0.05 0.15c-0.05 0.07-0.05 0.12-0.1 0.19l-0.07 0.12 0.05-0.07-0.17 0.31c-0.02 0.05-0.05 0.12-0.12 0.14l-0.17 0.24 0.12-0.17-0.02 0.08c-0.07 0.12-0.17 0.24-0.29 0.36l-0.07 0.07 0.05-0.03-0.1 0.08c-0.02 0.04-0.07 0.09-0.12 0.12l-0.05 0.07h-0.02l0.5-1.08v0.02c0 0.79-0.67 1.42-1.46 1.42l1.34-0.91-0.02 0.04c-0.12 0.36-0.43 0.65-0.79 0.8h-0.03l0.36-0.2-0.02 0.03c-0.29 0.21-0.6 0.33-0.94 0.33h-0.02l1.13-0.57-0.03 0.05c-0.26 0.33-0.69 0.55-1.15 0.55h-0.12l0.96-0.36-0.02 0.02c-0.24 0.22-0.6 0.34-0.94 0.34h-0.02l0.31-0.03-0.05 0.03c-0.12 0-0.19 0.02-0.31 0.02h-0.05c-0.24-0.02-0.48-0.09-0.67-0.17l-0.12-0.09h-0.05l-0.07-0.07c-0.1-0.03-0.17-0.08-0.24-0.15v-0.02l0.19 0.17-0.05-0.05c-0.09-0.03-0.14-0.1-0.24-0.15l-0.02-0.04h0.02l-0.07-0.03c-0.12-0.12-0.24-0.24-0.31-0.38v-0.03l0.65 0.6-0.05-0.04c-0.31-0.15-0.58-0.39-0.72-0.72l-0.05-0.05 0.36 0.5-0.02-0.05-0.05-0.04c-0.17-0.15-0.29-0.29-0.36-0.48l-0.05-0.05-0.02-0.1-0.03-0.05 0.77 0.8-0.05-0.03c-0.5-0.24-0.86-0.74-0.86-1.32v-0.09l0.14 0.64-0.02-0.07 0.12 0.22-0.12-0.19-0.07-0.08-0.05-0.07-0.05-0.05 0.05 0.05-0.07-0.09 0.6 0.52-0.1-0.07c-0.24-0.12-0.41-0.26-0.55-0.48l-0.07-0.09 0.07 0.09-0.05-0.05 0.12 0.15-0.26-0.24-0.05-0.1-0.12-0.12 0.14 0.12-0.09-0.05-0.1-0.07 0.12 0.07-0.07-0.04c-0.07-0.05-0.12-0.12-0.19-0.17l-0.05-0.07 0.43 0.33-0.02-0.02 0.55 0.12h-0.05c-0.77-0.03-1.39-0.67-1.39-1.44v-0.03c0-0.79 0.62-1.44 1.44-1.41 0.77 0 1.39 0.62 1.39 1.44 0 0.77-0.65 1.41-1.44 1.41h-0.02c-0.36 0-0.72-0.16-0.99-0.43-0.26-0.26-0.43-0.62-0.43-1.01v-0.04c0-0.77 0.67-1.44 1.44-1.4 0.79 0 1.42 0.63 1.42 1.44 0 0.77-0.63 1.4-1.44 1.4h-0.03c-0.33 0-0.67-0.12-0.91-0.36h-0.02l0.93 0.33h-0.09l0.6-0.09h-0.03c-0.19 0.07-0.36 0.12-0.55 0.12h-0.12v-0.03h-0.02 0.02-0.07l0.91-0.33-0.02 0.04c-0.24 0.2-0.58 0.32-0.89 0.32h-0.05l1.32-0.87v0.03c-0.24 0.55-0.74 0.88-1.34 0.88l1.41-1.41v0.02c0 0.43-0.19 0.82-0.5 1.08l-0.24 0.22 0.12-0.12-0.1 0.09-0.09 0.08 0.24-0.32-0.05 0.12c-0.07 0.08-0.12 0.17-0.19 0.27l-0.05 0.09 0.02-0.04-0.09 0.12 0.12-0.24-0.05 0.12v0.07l-0.1 0.12 0.1-0.15-0.07 0.08c0 0.07-0.03 0.12-0.05 0.19l-0.24 0.38v-0.02l-0.1 0.14c-0.02 0.1-0.09 0.15-0.14 0.24l-0.1 0.12-0.12 0.15h-0.02l-0.07 0.09 0.21-0.29-0.02 0.05c-0.29 0.51-0.82 0.79-1.37 0.75h-0.02l0.72-0.15-0.03 0.03 0.77-1.11c-0.05 0.46-0.29 0.84-0.67 1.08l-0.07 0.03-0.05 0.04-0.07 0.03 0.07-0.03-0.07 0.03c-0.05 0.02-0.12 0.05-0.17 0.09h-0.05l0.65-0.48-0.05 0.03c-0.26 0.36-0.67 0.57-1.15 0.57h-0.07l1.1-0.48-0.02 0.03c-0.27 0.33-0.7 0.48-1.08 0.48h-0.05c-0.36-0.03-0.7-0.19-0.94-0.43l0.65 0.36h-0.02c-0.24-0.05-0.48-0.2-0.65-0.39h-0.05l0.82 0.39h-0.03v-0.03c-0.38-0.02-0.69-0.21-0.93-0.5-0.22-0.27-0.34-0.63-0.27-0.99v-0.04c0.1-0.72 0.77-1.25 1.49-1.16 0.72 0.08 1.27 0.77 1.18 1.49-0.1 0.75-0.75 1.27-1.47 1.2h-0.02c-0.41-0.05-0.77-0.26-0.96-0.6l-0.05-0.02 1.8 0.41h-0.02c-0.24 0.16-0.53 0.21-0.82 0.19h-0.02c-0.72-0.1-1.25-0.72-1.2-1.47v-0.04l0.38 1.08-0.02-0.03 0.81 0.39h-0.02c-0.36-0.05-0.67-0.24-0.91-0.51-0.22-0.26-0.29-0.62-0.27-0.98v-0.03l0.39 1.11-0.03-0.03 0.77 0.39c-0.36-0.03-0.67-0.22-0.89-0.51-0.24-0.28-0.33-0.64-0.26-0.96v-0.04 0.07-0.03l0.36 1.01c-0.31-0.29-0.46-0.69-0.41-1.1l0.19 0.84-0.62-1.06c-0.05-0.05-0.07-0.12-0.1-0.17l-0.19-0.4-0.02-0.08-0.15-0.45 0.05 0.12-0.24-0.48c-0.24-0.51-0.02-1.15 0.46-1.42 0.5-0.29 1.15-0.14 1.46 0.34z"/>
   <path transform="matrix(1.3333 0 0 -1.3333 0 1120.8)" d="m561.65 741.53 0.38-0.05 0.05-0.02 0.31-0.03h0.19l0.94 0.05h0.02l0.46 0.05h-0.12l2.64-0.05h0.96l0.89 0.05h-0.1 0.1c0.5 0 0.98 0.26 1.27 0.72 0.26 0.43 0.26 0.98 0 1.44-0.29 0.43-0.77 0.72-1.27 0.72h-0.17l-0.89-0.07h0.05l-0.91-0.05h-0.03l-2.64-0.22-0.12-0.02-0.48-0.1h0.1l-0.91-0.12h0.02l-0.31-0.02h0.02-0.36c-0.6-0.05-1.05-0.53-1.08-1.13-0.02-0.6 0.41-1.1 0.99-1.15z"/>
   <path transform="matrix(1.3333 0 0 -1.3333 0 1120.8)" d="m562.58 742.51 0.1 0.17 0.02 0.12 0.05 0.24-0.02-0.05 0.09 0.24v0.03l0.1 0.24-0.07-0.15 0.12 0.27 0.09 0.21-0.02-0.09 0.24 0.48-0.07-0.12 0.12 0.21v0.03l0.36 0.5-0.12-0.12 0.12 0.1 0.02 0.07 0.1 0.12-0.1-0.1 0.1 0.1 0.07 0.05 0.12 0.12-0.19-0.15 0.12 0.1 0.07 0.05 0.07 0.09-0.07-0.09 0.12 0.09 0.12 0.1-0.07-0.05 0.12 0.07-0.1-0.02 0.17 0.05 0.07 0.07 0.12 0.07-0.24-0.12 0.17 0.07v-0.02l0.38 0.17h-0.02l0.12 0.02-0.12-0.02 0.14 0.02 0.05 0.05 0.17 0.05-0.36-0.1h0.14l0.12 0.05 0.12 0.02 0.15 0.03-0.12-0.03h0.12l0.14 0.03h-0.26l0.14-0.03h0.24-0.12 0.17l0.12-0.02-0.12 0.02 0.14-0.02h-0.02l0.12-0.05-0.12 0.05 0.36-0.1-0.1 0.03 0.1-0.03-0.17 0.05 0.1-0.05-0.05 0.05 0.07-0.05-0.14 0.1 0.09-0.07 0.05-0.03 0.07-0.07 0.1-0.05 0.07-0.07-0.29 0.24 0.1-0.05 0.07-0.09 0.07-0.05-0.09 0.07 0.14-0.14-0.14 0.14 0.14-0.19 0.07-0.07 0.12-0.15-0.14 0.24 0.07-0.14 0.07-0.12 0.12-0.19-0.12 0.21 0.05-0.14 0.22-0.46-0.05 0.12 0.07-0.24-0.02 0.05 0.09-0.19-0.02 0.05 0.05-0.22v-0.07l0.07-0.22-0.05 0.24 0.07-0.67v0.17-0.1l0.03 0.36v-0.02c-0.03-0.12-0.03-0.29-0.03-0.41v-0.02l0.03 0.38v-0.05c-0.03-0.12-0.05-0.24-0.05-0.36v-0.07l0.14 0.67v-0.02c-0.02-0.07-0.07-0.12-0.09-0.19v-0.03l0.07 0.17v-0.02l-0.05-0.05-0.02-0.1 1.22 0.87h-0.02c-0.75-0.05-1.35-0.7-1.35-1.44 0-0.75 0.6-1.37 1.35-1.44h0.02c0.6-0.05 1.18 0.31 1.44 0.86l0.05 0.1-0.07-0.12 0.02 0.02c0.05 0.07 0.07 0.17 0.1 0.22v0.02l-0.1-0.17h0.05c0.07 0.22 0.14 0.41 0.14 0.65v0.07l-0.02-0.36v0.05c0.02 0.12 0.05 0.22 0.05 0.34v0.02l-0.05-0.31 0.02 0.05c0.03 0.09 0.03 0.21 0.03 0.33v0.1 0.19l-0.05 0.67c-0.05 0.05-0.05 0.15-0.07 0.24l-0.05 0.22v-0.1l-0.05 0.24-0.02 0.05-0.05 0.24-0.05 0.05-0.05 0.24-0.07 0.12-0.19 0.48-0.1 0.17c-0.02 0.07-0.07 0.12-0.09 0.21l-0.12 0.15 0.09-0.12-0.09 0.14c-0.05 0.1-0.12 0.19-0.17 0.24l-0.12 0.19 0.02-0.07-0.14 0.22c-0.05 0.02-0.1 0.09-0.12 0.14l-0.1 0.07-0.07 0.05-0.07 0.1-0.1 0.09 0.1-0.09-0.07 0.07c-0.1 0.07-0.22 0.17-0.29 0.24l-0.1 0.05 0.05-0.05-0.05 0.05 0.03-0.03-0.1 0.05-0.12 0.1-0.07 0.02-0.07 0.07-0.1 0.03-0.14 0.07-0.1 0.02-0.12 0.03-0.31 0.12-0.17 0.02-0.12 0.05h-0.17l-0.09 0.02h-0.15l-0.19 0.03h-0.24 0.12-0.14-0.27l-0.12-0.03h-0.14l-0.1-0.02-0.14-0.05h-0.17 0.12-0.12c-0.12-0.02-0.24-0.05-0.36-0.07l-0.12-0.07 0.07 0.02-0.12-0.02-0.12-0.05-0.12-0.07h-0.02l-0.41-0.17-0.05-0.05-0.14-0.05c-0.1-0.02-0.17-0.09-0.24-0.12l-0.12-0.12 0.07 0.05-0.12-0.05-0.07-0.07-0.12-0.07-0.07-0.07-0.15-0.12-0.12-0.1-0.12-0.12-0.09-0.12 0.07 0.07-0.12-0.09c-0.07-0.05-0.1-0.12-0.17-0.17l-0.07-0.12 0.02 0.02-0.09-0.09-0.05-0.1-0.12-0.14 0.02 0.02-0.09-0.12c-0.03-0.05-0.05-0.07-0.1-0.14l-0.29-0.58-0.07-0.12-0.07-0.19-0.05-0.12-0.07-0.24-0.1-0.29-0.02-0.07-0.05-0.24v0.02l-0.05-0.26-0.02-0.17-0.05-0.24v0.05l-0.05-0.29v-0.36l-0.02-0.02v-0.17c-0.05-0.58 0.36-1.06 0.91-1.18 0.55-0.09 1.08 0.22 1.27 0.72z"/>
   <path transform="matrix(1.3333 0 0 -1.3333 0 1120.8)" d="m577.44 736.08v0.55l-0.1 3.39v-0.05l0.03 1.58 0.05 0.7v0.02l-0.08 5.19v-0.1l0.1 1.87v-0.12l0.05 0.41-0.03-0.12 0.1 0.46-0.02-0.22 0.31 1.01-0.05-0.12 0.05 0.14 0.05 0.05 0.04 0.12-0.21-0.36 0.09 0.12-0.02-0.05 0.1 0.12 0.02 0.05 0.24 0.29c0.02 0.05 0.1 0.12 0.12 0.21l0.02 0.03-0.57-0.58 0.07 0.03c0.24 0.14 0.46 0.36 0.58 0.6l0.02 0.04-0.58-0.57 0.08 0.02c0.07 0.05 0.14 0.12 0.24 0.17l0.04 0.05 0.08 0.05-0.29-0.17 0.07 0.02-0.22-0.09 0.1 0.02c0.24 0.1 0.46 0.26 0.6 0.46l0.02 0.04-0.62-0.45 0.1 0.02c0.07 0.03 0.14 0.05 0.24 0.12l0.04 0.03-0.24-0.12 0.1 0.02-0.26-0.07 0.04 0.02c0.2 0.03 0.36 0.1 0.51 0.19l0.07 0.03-0.24-0.1 0.1 0.03-0.24-0.1 0.24 0.07 0.07 0.03h0.07l-0.46-0.05h0.48l-0.45 0.05h0.07l0.05-0.03c0.17-0.02 0.31-0.07 0.45-0.07h0.03l-0.43 0.07h0.04l-0.36 0.15 0.03-0.03c0.19-0.09 0.36-0.14 0.57-0.19l0.12-0.02-0.98 0.55 0.02-0.03c0.24-0.28 0.56-0.45 0.92-0.55h0.07l-0.75 0.36 0.08-0.02c0.16-0.19 0.38-0.29 0.6-0.36h0.04l-0.6 0.33 0.08-0.07c0.14-0.14 0.36-0.26 0.6-0.33h0.02l-0.91 0.72 0.05-0.03c0.12-0.24 0.31-0.45 0.52-0.6l0.08-0.02-0.58 0.6 0.02-0.07c0.08-0.12 0.15-0.2 0.24-0.32l0.12-0.14-0.04 0.1 0.07-0.12 0.07-0.1 0.12-0.12-0.34 0.55 0.08-0.14v-0.07l0.04-0.12c0.03-0.1 0.1-0.15 0.12-0.24l0.1-0.12-0.22 0.55 0.03-0.12c0-0.1 0.05-0.17 0.05-0.22l0.07-0.24-0.05 0.36 0.02-0.6v0.05-0.62 0.24l-0.21-1.68 0.05 0.02-0.12-0.67-0.1-0.67v-0.27-0.19c0.02-0.79 0.7-1.46 1.49-1.46 0.84 0 1.51 0.67 1.53 1.46v0.19l-0.02-0.24 0.12 0.65v0.05l0.14 0.65v0.07l0.22 1.68c0.02 0.05 0.02 0.12 0.02 0.17v1.32c-0.02 0.16-0.02 0.31-0.09 0.43l-0.07 0.26 0.04-0.17-0.02 0.15c-0.02 0.17-0.12 0.36-0.22 0.53l-0.09 0.12 0.12-0.2-0.05 0.12 0.02-0.07-0.04 0.15c-0.08 0.21-0.2 0.4-0.34 0.55l-0.12 0.12 0.1-0.1-0.12 0.15-0.08 0.07-0.12 0.12 0.24-0.34-0.02 0.07c-0.14 0.24-0.34 0.44-0.58 0.56l-0.04 0.07 0.55-0.6-0.03 0.05c-0.16 0.36-0.5 0.6-0.93 0.72l-0.03 0.04 0.6-0.33-0.04 0.02c-0.2 0.19-0.41 0.27-0.6 0.36h-0.08l0.6-0.33-0.04 0.07c-0.22 0.17-0.46 0.29-0.77 0.36h-0.05l0.89-0.51-0.03 0.03c-0.26 0.29-0.6 0.48-0.98 0.53l-0.1 0.04 0.58-0.21h-0.02c-0.12 0.05-0.24 0.12-0.36 0.14l-0.08 0.03c-0.14 0.04-0.28 0.07-0.45 0.07h-0.03l0.46-0.07-0.07 0.04h-0.05c-0.12 0.05-0.26 0.05-0.46 0.05h-0.48c-0.14 0-0.28 0-0.45-0.05h-0.05 0.12l-0.24-0.04c-0.07-0.03-0.14-0.05-0.24-0.08l-0.07-0.04c-0.1-0.03-0.15-0.05-0.24-0.08l-0.05-0.07 0.5 0.22-0.09-0.03c-0.1 0-0.17-0.04-0.27-0.07l-0.09-0.05c-0.05-0.04-0.15-0.07-0.22-0.09l-0.05-0.03 0.24 0.08-0.09-0.03c-0.24-0.09-0.46-0.24-0.63-0.45l-0.02-0.03 0.62 0.46-0.09-0.03c-0.05-0.04-0.15-0.07-0.22-0.12l-0.05-0.04c-0.09-0.03-0.19-0.08-0.24-0.17l-0.07-0.03-0.05-0.07 0.24 0.19-0.07-0.04c-0.24-0.15-0.41-0.36-0.55-0.6v-0.03l0.53 0.58-0.03-0.03c-0.24-0.16-0.45-0.33-0.57-0.57l-0.03-0.07 0.12 0.21-0.21-0.26 0.02 0.02-0.12-0.14-0.02-0.07-0.12-0.15c-0.1-0.12-0.15-0.24-0.22-0.38l-0.05-0.15 0.03 0.05-0.1-0.24-0.31-0.98c-0.05-0.07-0.05-0.12-0.07-0.22l-0.05-0.43-0.05-0.07-0.05-0.43v-0.12l-0.07-1.9v-0.07l0.19-5.21v0.05-0.7l0.03-1.58v-0.07l0.26-3.39v-0.02l0.07-0.53c0.05-0.67 0.65-1.22 1.35-1.15 0.72 0.02 1.27 0.6 1.27 1.27z"/>
  </g>
 </g>
</svg>
