<?xml version="1.0" encoding="UTF-8" standalone="no"?>
<!-- Created with Inkscape (http://www.inkscape.org/) -->

<svg
   version="1.1"
   id="svg1"
   width="157.57681"
   height="90.661774"
   viewBox="0 0 157.57681 90.66177"
   sodipodi:docname="lesson1.pdf"
   xmlns:inkscape="http://www.inkscape.org/namespaces/inkscape"
   xmlns:sodipodi="http://sodipodi.sourceforge.net/DTD/sodipodi-0.dtd"
   xmlns="http://www.w3.org/2000/svg"
   xmlns:svg="http://www.w3.org/2000/svg">
  <defs
     id="defs1" />
  <sodipodi:namedview
     id="namedview1"
     pagecolor="#ffffff"
     bordercolor="#000000"
     borderopacity="0.25"
     inkscape:showpageshadow="2"
     inkscape:pageopacity="0.0"
     inkscape:pagecheckerboard="0"
     inkscape:deskcolor="#d1d1d1">
    <inkscape:page
       x="0"
       y="0"
       inkscape:label="1"
       id="page1"
       width="157.57681"
       height="90.661774"
       margin="0"
       bleed="0" />
  </sodipodi:namedview>
  <g
     id="g1"
     inkscape:groupmode="layer"
     inkscape:label="1"
     transform="translate(-304.92828,-515.07668)">
    <g
       id="g74">
      <path
         id="path74"
         d="m 235.13,443.06 0.67,-0.28 c 0.22,-0.08 0.41,-0.12 0.6,-0.15 l 2.3,-0.29 h 0.27 l 3.53,-0.04 h 0.02 l 2.45,-0.03 v 0 l 3.38,-0.02 h 0.03 l 5.01,0.07 h -0.05 8.45 -0.21 l 1.27,-0.07 h -0.15 l 1.25,-0.15 0.31,-0.02 h 0.12 c 1.13,-0.02 2.21,0.58 2.79,1.56 0.57,0.98 0.57,2.21 0,3.19 -0.58,0.99 -1.66,1.59 -2.79,1.56 h -0.12 0.29 l -1.27,0.1 h -0.14 l -1.28,0.02 h -0.21 l -8.43,-0.36 h -0.04 l -5,-0.29 h 0.05 l -3.38,-0.12 -0.03,-0.02 -2.44,-0.14 h 0.02 l -3.5,-0.17 h 0.31 l -2.31,0.19 0.51,-0.1 -0.72,0.22 c -1.27,0.38 -2.62,-0.34 -3.05,-1.58 -0.41,-1.25 0.24,-2.62 1.49,-3.08 z"
         style="fill:#000000;fill-opacity:1;fill-rule:nonzero;stroke:none"
         transform="matrix(1.3333333,0,0,-1.3333333,0,1120.8)" />
    </g>
    <g
       id="g75">
      <path
         id="path75"
         d="m 239.45,445.1 -0.48,-0.67 c -0.1,-0.09 -0.15,-0.21 -0.22,-0.36 l -0.21,-0.48 -0.1,-0.26 -0.17,-0.51 v 0 l -0.14,-0.55 -0.07,-0.17 -0.1,-0.55 0.05,0.19 -0.17,-0.52 c -0.02,-0.12 -0.07,-0.24 -0.07,-0.36 l -0.07,-0.48 v -0.08 l -0.05,-0.57 v 0 l -0.07,-0.53 v 0 l -0.05,-0.53 -0.03,-0.21 v -0.53 -0.12 l 0.03,-1.25 0.02,-0.24 0.1,-0.67 v 0 l 0.09,-0.65 v 0 l 0.1,-0.72 c 0.02,-0.12 0.05,-0.26 0.1,-0.38 l 0.19,-0.6 -0.05,0.16 0.14,-0.6 0.03,-0.14 0.48,-1.44 v -0.07 l 0.17,-0.41 0.09,-0.26 0.15,-0.29 -0.03,0.02 0.22,-0.43 0.14,-0.26 0.19,-0.34 -0.09,0.17 0.21,-0.36 v 0 l 0.2,-0.36 c 0.07,-0.12 0.14,-0.24 0.24,-0.36 l 0.24,-0.31 v 0 l 0.26,-0.29 -0.14,0.19 0.19,-0.31 c 0.09,-0.15 0.21,-0.29 0.33,-0.41 l 0.77,-0.72 0.15,-0.12 0.43,-0.36 -0.1,0.1 0.39,-0.36 0.28,-0.24 0.44,-0.29 -0.05,0.05 0.5,-0.39 0.07,-0.05 0.44,-0.31 0.28,-0.17 0.51,-0.26 v 0 l 0.53,-0.24 v 0 l 0.48,-0.24 c 0.16,-0.07 0.31,-0.14 0.48,-0.19 l 0.52,-0.12 -0.19,0.05 0.55,-0.2 0.2,-0.07 0.5,-0.12 0.05,-0.02 0.57,-0.12 0.22,-0.05 0.5,-0.07 h 0.05 l 0.55,-0.07 0.27,-0.03 0.55,-0.02 v 0 h 0.5 0.36 l 1.52,0.17 0.33,0.07 0.48,0.12 -0.07,-0.03 0.5,0.1 c 0.12,0.05 0.24,0.07 0.36,0.12 l 0.48,0.17 0.17,0.07 0.51,0.22 0.09,0.04 0.46,0.24 v 0 l 0.45,0.22 0.12,0.07 0.41,0.24 0.12,0.05 0.46,0.31 0.12,0.07 0.43,0.29 0.19,0.15 0.41,0.36 v 0 l 0.41,0.36 v 0 l 0.41,0.36 0.26,0.21 0.96,1.08 0.22,0.27 0.21,0.28 v 0 l 0.19,0.32 0.05,0.04 0.17,0.24 0.12,0.22 0.17,0.31 0.07,0.17 0.17,0.36 -0.1,-0.17 0.17,0.29 v 0 l 0.14,0.29 0.1,0.19 0.14,0.36 0.1,0.17 0.1,0.31 0.07,0.24 0.09,0.41 -0.07,-0.24 0.12,0.29 c 0.05,0.16 0.1,0.36 0.12,0.5 l 0.07,0.36 v 0 l 0.05,0.36 -0.07,-0.36 0.1,0.36 c 0.07,0.24 0.09,0.5 0.12,0.77 v 0.36 0 0.33 0.03 l 0.02,0.84 v -0.03 0.44 0 0.36 0 0.4 0 0.44 c 0,0.12 0,0.24 0,0.38 l -0.05,0.36 -0.07,0.26 -0.1,0.44 0.05,-0.29 -0.05,0.36 c 0,0.12 -0.02,0.26 -0.07,0.38 l -0.07,0.36 v -0.09 l -0.1,0.4 -0.02,0.12 -0.1,0.36 0.05,-0.12 -0.12,0.44 c -0.07,0.31 -0.19,0.64 -0.38,0.91 l -0.22,0.31 0.29,-0.48 -0.17,0.36 -0.12,0.26 -0.45,0.84 v 0 l -0.56,1.04 -0.02,0.02 -0.1,0.17 0.15,-0.27 -0.1,0.24 -0.14,0.27 -0.1,0.19 -0.07,0.14 -0.17,0.24 0.07,-0.14 -0.07,0.17 c -0.09,0.17 -0.19,0.33 -0.31,0.45 l -0.17,0.2 c -0.12,0.14 -0.26,0.28 -0.41,0.4 l -0.14,0.12 0.38,-0.4 -0.28,0.36 c -0.22,0.26 -0.46,0.48 -0.75,0.64 l -0.09,0.05 c -0.89,0.53 -2,0.55 -2.91,0.03 -0.91,-0.51 -1.46,-1.47 -1.49,-2.5 0,-1.06 0.56,-2.02 1.47,-2.52 l 0.09,-0.07 -0.74,0.62 0.31,-0.36 c 0.12,-0.14 0.27,-0.29 0.43,-0.41 l 0.17,-0.12 -0.43,0.39 0.14,-0.17 -0.31,0.46 0.12,-0.2 0.07,-0.12 0.15,-0.24 -0.07,0.12 0.09,-0.16 -0.14,0.28 0.09,-0.24 0.17,-0.28 0.1,-0.2 -0.03,0.03 0.58,-0.99 v 0.03 l 0.46,-0.84 -0.1,0.21 0.14,-0.33 c 0.08,-0.19 0.17,-0.36 0.29,-0.51 l 0.19,-0.28 -0.43,0.91 0.12,-0.41 0.03,-0.12 0.09,-0.36 -0.02,0.12 0.09,-0.41 0.05,-0.09 0.12,-0.36 -0.09,0.36 0.04,-0.36 0.05,-0.27 0.12,-0.43 -0.05,0.29 0.05,-0.36 -0.05,0.41 0.03,-0.44 v 0 -0.4 0 l 0.02,-0.36 v 0 -0.44 0.03 -0.84 -0.03 -0.33 0 -0.36 l 0.1,0.74 -0.1,-0.36 c -0.02,-0.12 -0.05,-0.24 -0.07,-0.36 l -0.05,-0.36 v 0 l -0.05,-0.36 0.12,0.51 -0.09,-0.32 -0.07,-0.21 -0.1,-0.43 0.07,0.24 -0.09,-0.32 0.07,0.2 -0.15,-0.36 0.08,0.16 -0.15,-0.28 v 0 l -0.17,-0.32 -0.07,-0.16 -0.14,-0.36 0.07,0.16 -0.14,-0.28 0.12,0.21 -0.15,-0.24 0.05,0.07 -0.22,-0.28 v 0 l -0.19,-0.32 0.24,0.32 -0.96,-1.08 0.19,0.19 -0.4,-0.36 v 0 l -0.39,-0.36 v -0.03 l -0.41,-0.36 0.17,0.15 -0.41,-0.29 0.12,0.07 -0.43,-0.31 0.1,0.07 -0.41,-0.24 0.1,0.05 -0.44,-0.24 v 0 l -0.45,-0.24 0.09,0.05 -0.5,-0.24 0.14,0.07 -0.45,-0.19 0.36,0.12 -0.51,-0.12 -0.07,-0.03 -0.45,-0.14 0.36,0.1 -1.52,-0.22 0.24,0.05 -0.5,-0.03 v 0 l -0.55,-0.02 h 0.26 l -0.55,0.05 h 0.02 l -0.52,0.05 0.24,-0.05 -0.56,0.12 h 0.05 l -0.53,0.09 0.2,-0.04 -0.56,0.14 -0.19,0.07 -0.53,0.1 0.51,-0.17 -0.53,0.24 v 0 l -0.5,0.24 v 0 l -0.53,0.22 0.29,-0.17 -0.46,0.31 0.1,-0.07 -0.53,0.36 -0.07,0.05 -0.48,0.28 0.28,-0.19 -0.43,0.34 -0.09,0.07 -0.48,0.36 0.19,-0.14 -0.75,0.69 0.32,-0.36 -0.22,0.29 -0.14,0.22 -0.29,0.26 v 0 l -0.24,0.31 0.24,-0.36 -0.19,0.36 v 0 l -0.22,0.36 -0.1,0.15 -0.21,0.31 0.17,-0.31 -0.2,0.43 -0.04,0.05 -0.17,0.28 0.12,-0.26 -0.15,0.41 0.03,-0.1 -0.46,1.42 0.05,-0.1 -0.17,0.6 -0.05,0.17 -0.21,0.58 0.09,-0.41 -0.09,0.72 -0.03,0.05 -0.09,0.62 v 0 l -0.12,0.67 0.05,-0.26 -0.08,1.25 v -0.05 0.53 -0.22 l 0.03,0.55 v 0 l 0.05,0.53 v 0.02 l 0.04,0.6 v -0.04 l 0.03,0.48 -0.07,-0.36 0.16,0.52 0.03,0.2 0.09,0.55 -0.04,-0.19 0.16,0.55 v 0 l 0.12,0.53 -0.09,-0.24 0.21,0.48 -0.02,-0.08 0.34,0.75 c 0.4,0.96 0.04,2.09 -0.87,2.61 -0.91,0.51 -2.06,0.27 -2.66,-0.6 z"
         style="fill:#000000;fill-opacity:1;fill-rule:nonzero;stroke:none"
         transform="matrix(1.3333333,0,0,-1.3333333,0,1120.8)" />
    </g>
    <g
       id="g76">
      <path
         id="path76"
         d="m 231.26,405.67 3.68,-0.6 0.33,-0.05 6.22,-0.28 0.12,-0.03 h 2.25 0.12 l 9.58,0.22 h 0.12 l 5.66,0.33 h 0.03 l 5.66,0.41 h -0.26 l 0.74,-0.02 -0.57,0.07 0.43,-0.1 c 0.19,-0.02 0.38,-0.04 0.57,-0.04 l 0.36,-0.03 v 0 h 0.46 c 0.22,0 0.46,0.03 0.67,0.07 l 0.36,0.08 -0.09,-0.03 0.43,0.07 -0.27,-0.02 0.87,0.07 h -0.43 l 1.82,-0.09 v 0 l 3.7,-0.17 c 0.98,-0.05 1.94,0.33 2.59,1.05 l 0.07,0.1 c 1.01,1.08 1.15,2.71 0.38,3.98 -0.79,1.25 -2.3,1.85 -3.74,1.44 -1.39,-0.43 -2.4,-1.7 -2.4,-3.19 l 0.02,-0.07 c 0,-1.85 1.47,-3.31 3.29,-3.31 1.85,0 3.31,1.46 3.31,3.31 l 0.03,0.07 c 0,1.35 -0.84,2.57 -2.09,3.07 -1.27,0.51 -2.71,0.2 -3.65,-0.79 l -0.07,-0.09 2.54,1.05 -3.69,0.12 v 0 l -1.83,0.1 c -0.14,0 -0.31,0 -0.43,-0.03 l -0.89,-0.07 -0.28,-0.05 -0.44,-0.09 h -0.12 l -0.36,-0.1 0.7,0.1 -0.46,-0.03 v 0 h -0.36 l 0.58,-0.04 -0.43,0.07 c -0.19,0.02 -0.39,0.05 -0.58,0.05 l -0.74,-0.03 h -0.27 l -5.66,-0.55 h 0.07 l -5.66,-0.43 h 0.12 l -9.6,-0.39 h 0.09 l -2.25,-0.02 h 0.05 -6.24 0.12 l -3.72,0.17 c -1.4,0.07 -2.6,-0.96 -2.74,-2.38 -0.14,-1.39 0.82,-2.64 2.18,-2.88 z"
         style="fill:#000000;fill-opacity:1;fill-rule:nonzero;stroke:none"
         transform="matrix(1.3333333,0,0,-1.3333333,0,1120.8)" />
    </g>
    <g
       id="g77">
      <path
         id="path77"
         d="m 228.77,406.56 0.05,-0.29 c 0.09,-0.36 0.26,-0.72 0.48,-1.01 l 0.21,-0.28 -0.41,0.76 0.08,-0.19 c 0.04,-0.17 0.12,-0.31 0.21,-0.48 l 0.22,-0.36 0.17,-0.24 0.12,-0.19 0.19,-0.22 0.5,-0.55 -0.21,0.24 0.72,-0.98 v 0.02 l 0.48,-0.72 0.12,-0.12 0.5,-0.65 0.12,-0.12 0.58,-0.62 v 0 l 0.57,-0.65 0.12,-0.12 0.65,-0.62 0.17,-0.15 0.65,-0.52 v 0 l 0.62,-0.56 0.22,-0.14 0.64,-0.46 v 0 l 0.65,-0.43 c 0.1,-0.07 0.22,-0.14 0.34,-0.19 l 1.97,-1.01 0.21,-0.07 3.41,-1.37 0.17,-0.07 0.89,-0.29 0.28,-0.07 0.96,-0.19 -0.33,0.09 0.89,-0.28 c 0.19,-0.08 0.43,-0.1 0.64,-0.12 l 2.62,-0.2 h 0.14 l 1.68,-0.04 0.17,0.02 1.66,0.02 0.33,0.05 1.61,0.24 h -0.02 l 1.65,0.24 0.36,0.05 3.27,0.86 0.07,0.03 1.46,0.43 c 0.12,0.02 0.24,0.07 0.36,0.12 l 1.4,0.6 0.14,0.07 1.39,0.7 0.17,0.09 3.07,1.78 c 0.12,0.07 0.24,0.14 0.34,0.24 l 1.82,1.39 0.05,0.05 0.43,0.34 v 0 l 0.46,0.33 -0.22,-0.12 0.53,0.36 0.12,0.07 0.94,0.7 -0.53,-0.31 0.36,0.17 0.26,0.14 0.29,0.17 v 0 l 0.29,0.17 v 0 l 0.29,0.16 c 0.14,0.1 0.26,0.17 0.38,0.27 l 0.67,0.55 c 0.17,0.12 0.34,0.29 0.46,0.46 l 0.14,0.16 c 1.13,1.37 0.91,3.39 -0.45,4.49 -1.37,1.13 -3.39,0.91 -4.49,-0.45 l -0.15,-0.2 0.44,0.46 -0.65,-0.55 0.31,0.24 -0.29,-0.19 v 0 l -0.26,-0.2 v 0 l -0.29,-0.16 0.26,0.14 -0.36,-0.17 c -0.19,-0.09 -0.33,-0.19 -0.5,-0.31 l -0.91,-0.72 0.05,0.05 -0.51,-0.39 -0.19,-0.12 -0.41,-0.38 v 0 l -0.43,-0.36 0.05,0.07 -1.8,-1.46 0.36,0.26 -3.05,-1.82 0.12,0.07 -1.37,-0.74 0.15,0.07 -1.37,-0.65 0.36,0.14 -1.44,-0.48 0.09,0.05 -3.26,-0.91 0.29,0.05 -1.66,-0.29 h -0.02 l -1.59,-0.31 0.32,0.05 -1.66,-0.12 h 0.14 l -1.68,-0.03 h 0.24 l -2.61,0.17 0.62,-0.12 -0.86,0.26 -0.31,0.05 -0.94,0.19 0.29,-0.07 -0.87,0.24 0.22,-0.07 -3.41,1.34 0.22,-0.12 -1.95,0.99 0.32,-0.17 -0.65,0.43 v 0 l -0.67,0.43 0.19,-0.14 -0.63,0.55 v 0 l -0.67,0.53 0.15,-0.14 -0.65,0.62 0.12,-0.12 -0.6,0.62 v 0 l -0.55,0.63 0.12,-0.15 -0.53,0.63 0.12,-0.15 -0.53,0.72 -0.02,0.05 -0.75,0.99 -0.21,0.26 -0.53,0.53 0.07,-0.1 -0.14,0.17 0.26,-0.34 -0.24,0.36 0.19,-0.31 -0.09,0.17 c -0.1,0.24 -0.24,0.43 -0.41,0.62 l -0.22,0.27 0.53,-0.99 -0.07,0.29 c -0.43,1.37 -1.87,2.16 -3.27,1.8 -1.36,-0.38 -2.23,-1.8 -1.89,-3.19 z"
         style="fill:#000000;fill-opacity:1;fill-rule:nonzero;stroke:none"
         transform="matrix(1.3333333,0,0,-1.3333333,0,1120.8)" />
    </g>
    <g
       id="g78">
      <path
         id="path78"
         d="m 268.51,407.47 0.05,-1.08 0.02,-0.24 0.05,-0.55 v 0 l 0.1,-0.53 v 0 l 0.05,-0.55 0.07,-0.31 0.14,-0.53 0.03,-0.12 0.14,-0.46 -0.02,0.12 0.14,-0.55 0.05,-0.17 0.36,-1.05 c 0.07,-0.22 0.14,-0.41 0.26,-0.6 l 0.31,-0.46 v 0 l 0.29,-0.43 0.17,-0.22 0.29,-0.36 v 0 l 0.86,-1.08 v 0 l 0.87,-1.08 -0.39,0.68 0.07,-0.2 c 0.1,-0.21 0.22,-0.43 0.39,-0.64 l 0.07,-0.08 v 0 l 0.07,-0.09 c 0.48,-0.63 1.23,-0.99 2.02,-0.99 h 0.07 l -2.02,0.99 0.08,-0.1 c 0.19,-0.24 0.4,-0.43 0.64,-0.57 l 0.15,-0.1 -0.65,0.6 0.07,-0.1 -0.57,1.64 v -0.1 c 0,-0.7 0.26,-1.34 0.74,-1.85 0.5,-0.48 1.15,-0.77 1.85,-0.77 h 0.14 l -1.34,0.41 0.12,-0.09 -1.23,2.2 v -0.07 c 0,-0.69 0.27,-1.37 0.75,-1.85 0.5,-0.48 1.15,-0.76 1.85,-0.76 h 0.14 l -1.37,0.38 0.15,-0.1 h 0.02 l 0.12,-0.07 c 0.41,-0.26 0.89,-0.41 1.37,-0.41 h 0.14 v 0 h 0.15 v 0 h 0.14 v 0 h 0.07 v 0 h 0.17 -0.02 0.07 v 0 h 0.07 v 0 h 0.17 -0.03 0.08 c 0.79,0 1.53,0.36 2.04,0.96 l 0.07,0.1 -2.02,-0.96 h 0.12 c 0.79,0 1.54,0.36 2.04,0.96 l 0.07,0.07 v 0 l 0.08,0.1 -2.02,-0.94 h 0.14 c 0.8,-0.02 1.52,0.34 2.02,0.94 l 0.07,0.09 -2.01,-0.96 h 0.07 c 0.48,0 0.96,0.12 1.37,0.39 l 0.14,0.09 c 0.24,0.15 0.48,0.34 0.65,0.58 l 0.07,0.07 c 0.38,0.48 0.6,1.03 0.6,1.63 v 0.1 l -1.25,-2.21 0.15,0.1 -1.37,-0.39 h 0.07 c 0.77,0 1.54,0.34 2.02,0.96 l 0.07,0.1 c 0.17,0.19 0.31,0.41 0.41,0.65 l 0.07,0.19 -0.41,-0.67 0.1,0.09 -2.04,-0.96 h 0.07 c 1.05,-0.02 2.01,0.63 2.42,1.61 l 0.07,0.19 c 0.15,0.32 0.2,0.65 0.2,0.96 v 0.1 l -0.58,-1.66 0.07,0.1 v 0 l 0.07,0.1 c 0.39,0.45 0.58,1.05 0.58,1.65 v 0.17 l -0.58,-1.66 0.08,0.1 v 0 l 0.07,0.1 c 0.38,0.45 0.6,1.05 0.6,1.65 v 0.17 0 0.1 0 0.07 l -0.19,-0.99 0.07,0.2 c 0.12,0.31 0.19,0.64 0.19,0.98 v 0.36 l -0.02,0.34 -0.08,0.45 0.03,-0.43 0.02,0.36 c 0,0.14 -0.02,0.34 -0.02,0.5 l -0.07,0.36 v -0.07 l -0.05,0.43 c -0.03,0.15 -0.05,0.29 -0.07,0.41 l -0.15,0.46 0.1,-0.41 -0.07,0.46 c -0.03,0.19 -0.08,0.38 -0.12,0.57 l -0.15,0.36 0.05,-0.17 -0.12,0.46 -0.07,0.17 -0.12,0.36 v 0 l -0.12,0.36 c -0.07,0.14 -0.12,0.29 -0.19,0.43 l -0.22,0.36 v 0 l -0.19,0.36 -0.05,0.02 -0.41,0.72 c -0.09,0.22 -0.24,0.36 -0.38,0.53 l -0.48,0.48 0.53,-0.72 -0.15,0.29 c -0.45,0.96 -1.41,1.56 -2.47,1.61 -1.08,0.05 -2.06,-0.48 -2.59,-1.39 -0.55,-0.92 -0.55,-2.07 0,-2.98 l 0.14,-0.24 c 0.22,-0.34 0.46,-0.62 0.77,-0.84 l 0.55,-0.41 -0.72,0.77 0.46,-0.72 0.02,-0.02 0.22,-0.36 v 0 l 0.24,-0.34 -0.22,0.38 0.17,-0.36 v 0 l 0.17,-0.36 -0.1,0.22 0.17,-0.46 0.07,-0.19 0.17,-0.36 -0.19,0.6 0.07,-0.43 c 0.05,-0.14 0.07,-0.29 0.12,-0.41 l 0.17,-0.43 -0.12,0.38 0.09,-0.43 0.03,-0.14 0.07,-0.34 -0.07,0.53 0.02,-0.36 c 0,-0.14 0.03,-0.29 0.05,-0.41 l 0.07,-0.43 -0.02,0.48 v -0.36 l 0.19,0.98 -0.07,-0.16 c -0.15,-0.32 -0.22,-0.68 -0.22,-1.01 v -0.07 0 -0.1 0 -0.17 l 0.6,1.63 -0.07,-0.07 v 0 l -0.07,-0.09 c -0.39,-0.46 -0.6,-1.06 -0.58,-1.66 v -0.17 l 0.58,1.63 -0.1,-0.07 v 0 l -0.07,-0.09 c -0.36,-0.46 -0.55,-1.06 -0.55,-1.66 v -0.1 l 0.19,1.01 -0.07,-0.19 2.4,1.63 h -0.07 c -0.8,0 -1.54,-0.36 -2.02,-0.96 l -0.07,-0.09 c -0.17,-0.2 -0.29,-0.44 -0.41,-0.68 l -0.07,-0.16 0.38,0.64 -0.07,-0.07 2.04,0.96 h -0.07 c -0.48,0 -0.96,-0.12 -1.37,-0.38 l -0.14,-0.1 c -0.77,-0.48 -1.25,-1.32 -1.25,-2.23 v -0.1 l 0.6,1.66 -0.1,-0.1 0.67,0.6 -0.14,-0.09 1.37,0.38 h -0.07 c -0.8,0 -1.54,-0.36 -2.02,-0.96 l -0.07,-0.09 2.01,0.98 h -0.14 c -0.79,0 -1.54,-0.36 -2.04,-0.98 l -0.07,-0.1 v 0 l -0.05,-0.1 1.99,0.99 h -0.12 c -0.79,0 -1.53,-0.36 -2.04,-0.99 l -0.07,-0.07 2.02,0.96 h -0.08 0.03 -0.17 v 0 h -0.07 v 0 h -0.07 0.02 -0.17 v 0 h -0.07 v 0 h -0.14 v 0 h -0.15 v 0 h -0.14 l 1.37,-0.38 -0.15,0.09 v 0 l -0.14,0.1 c -0.41,0.24 -0.89,0.38 -1.37,0.36 h -0.14 l 2.61,-2.57 v 0.07 c -0.02,0.92 -0.48,1.76 -1.25,2.21 l -0.14,0.1 c -0.41,0.26 -0.89,0.38 -1.37,0.38 h -0.14 l 2.59,-2.59 v 0.1 c 0,0.6 -0.19,1.17 -0.58,1.63 l -0.07,0.09 c -0.19,0.22 -0.41,0.41 -0.65,0.58 l -0.14,0.07 0.65,-0.55 -0.07,0.07 c -0.51,0.6 -1.25,0.96 -2.02,0.96 h -0.07 l 2.01,-0.96 -0.07,0.1 v 0 l -0.07,0.07 0.38,-0.65 -0.07,0.17 c -0.09,0.24 -0.24,0.48 -0.38,0.67 l -0.89,1.06 v 0 l -0.86,1.08 v 0 l -0.29,0.36 0.17,-0.22 -0.29,0.43 v 0 l -0.29,0.46 0.29,-0.58 -0.39,1.08 0.05,-0.14 -0.14,0.53 -0.05,0.12 -0.14,0.45 0.02,-0.12 -0.14,0.53 0.07,-0.31 -0.07,0.5 v 0 l -0.08,0.56 v 0 l -0.07,0.52 v -0.09 l -0.12,1.05 c -0.12,1.37 -1.32,2.38 -2.66,2.28 -1.37,-0.09 -2.4,-1.24 -2.38,-2.59 z"
         style="fill:#000000;fill-opacity:1;fill-rule:nonzero;stroke:none"
         transform="matrix(1.3333333,0,0,-1.3333333,0,1120.8)" />
    </g>
    <g
       id="g162">
      <path
         id="path162"
         d="m 290.57,440.42 0.05,0.03 -0.22,-0.19 0.02,0.02 0.24,0.22 0.03,0.02 c 0.33,0.34 0.55,0.74 0.67,1.22 l 0.05,0.15 -0.29,-0.67 0.1,0.12 c 0.07,0.14 0.12,0.28 0.16,0.4 l 0.22,0.53 0.1,0.31 0.04,0.24 -0.24,-0.69 0.03,0.09 c 0.09,0.2 0.19,0.39 0.24,0.6 l 0.09,0.27 -0.02,-0.03 0.1,0.32 0.02,0.04 0.14,0.46 -0.02,-0.07 0.14,0.45 v 0.03 l 0.08,0.19 v 0.02 l 0.24,0.8 -0.12,-0.32 0.12,0.27 0.04,0.12 0.08,0.14 v 0.03 l 0.04,0.16 -0.04,-0.16 0.19,0.43 h -0.03 l 0.1,0.19 0.1,0.29 0.02,0.05 -0.24,-0.58 0.02,0.05 c 0.08,0.12 0.12,0.21 0.15,0.33 l 0.05,0.05 v 0 0.07 l -0.29,-0.55 0.07,0.1 -0.19,-0.27 0.17,0.22 -0.17,-0.19 0.07,0.07 c 0.1,0.1 0.17,0.17 0.24,0.26 l 0.05,0.1 0.12,0.14 0.12,0.2 c 0.09,0.14 0.19,0.28 0.24,0.43 l 0.05,0.07 -0.44,-0.67 0.05,0.05 v 0 l 0.05,0.04 0.14,0.2 0.03,0.04 -0.29,-0.36 0.14,0.15 -0.31,-0.27 0.39,0.29 0.02,0.03 0.34,0.28 v 0 l 0.02,0.03 -0.58,-0.39 h 0.03 c 0.21,0.12 0.41,0.27 0.6,0.41 l 0.05,0.03 v 0 l 0.02,0.04 -0.82,-0.52 0.12,0.07 c 0.15,0.05 0.27,0.12 0.39,0.19 l 0.05,0.02 -0.48,-0.24 0.04,0.03 c 0.22,0.09 0.44,0.19 0.63,0.33 l 0.12,0.08 -0.1,-0.08 0.1,0.08 -0.1,-0.08 0.07,0.08 v 0 l 0.1,0.04 -0.38,-0.19 0.19,0.07 h 0.02 l 0.19,0.1 0.29,0.14 0.22,0.12 -0.1,-0.04 0.15,0.04 -0.15,-0.04 0.34,0.14 -0.43,-0.17 1.08,0.31 -0.32,-0.07 0.48,0.1 -0.09,-0.03 0.38,0.05 0.07,0.03 0.29,0.04 -0.17,-0.04 0.63,0.07 v 0 l 0.36,0.05 h 0.05 l 0.36,0.04 -0.39,-0.02 h 0.24 0.03 0.07 0.12 l 0.24,0.02 h 0.19 l 0.26,0.03 -0.28,-0.03 h 0.28 0.03 0.26 l 0.34,0.03 h 0.09 -0.55 l 0.24,-0.03 -0.12,0.03 0.31,-0.03 h -0.07 l 0.39,-0.04 -0.36,0.07 0.57,-0.15 h 0.03 l 0.09,-0.02 -0.24,0.05 0.12,-0.03 -0.07,0.03 0.1,-0.03 -0.24,0.08 0.21,-0.08 0.07,-0.04 0.29,-0.1 -0.36,0.17 0.41,-0.22 -0.38,0.24 0.86,-0.62 -0.1,0.07 0.22,-0.17 -0.14,0.1 0.48,-0.36 v -0.03 l 0.33,-0.28 -0.14,0.14 0.19,-0.19 v 0 l 0.19,-0.17 -0.19,0.17 0.41,-0.43 -0.07,0.07 0.24,-0.27 -0.12,0.15 0.07,-0.1 -0.12,0.19 0.17,-0.28 v 0.02 l 0.16,-0.26 0.03,-0.03 0.33,-0.5 -0.09,0.14 0.21,-0.36 -0.04,0.07 0.38,-0.64 -0.07,0.12 0.14,-0.32 v 0.05 l 0.12,-0.24 -0.09,0.19 0.21,-0.55 v 0.05 l 0.12,-0.34 0.03,-0.09 0.33,-0.75 -0.09,0.27 0.09,-0.31 -0.09,0.28 0.02,-0.09 c 0.02,-0.12 0.07,-0.24 0.1,-0.36 l 0.09,-0.22 0.1,-0.24 0.05,-0.09 -0.17,0.45 0.02,-0.09 -0.02,0.12 0.05,-0.27 0.04,-0.12 0.08,-0.38 0.04,-0.07 0.03,-0.12 -0.07,0.26 0.07,-0.34 0.02,-0.07 0.05,-0.26 -0.02,0.05 0.09,-0.41 0.03,-0.05 0.14,-0.62 0.1,-0.34 0.04,-0.14 -0.07,0.24 0.05,-0.17 0.05,-0.19 0.05,-0.15 0.09,-0.26 0.19,-0.46 0.12,-0.21 0.24,-0.51 0.05,-0.07 0.03,-0.05 0.09,-0.19 0.03,-0.05 -0.32,0.65 0.03,-0.05 0.05,-0.12 0.04,-0.14 -0.16,0.65 v -0.08 c 0.33,-1.82 2.06,-3.04 3.88,-2.73 1.85,0.31 3.08,2.04 2.76,3.89 l -0.02,0.07 c -0.05,0.24 -0.1,0.45 -0.19,0.69 l -0.05,0.15 0.02,-0.12 v 0.05 c -0.09,0.24 -0.19,0.48 -0.33,0.67 l -0.03,0.05 0.1,-0.2 -0.02,0.08 0.02,-0.08 -0.24,0.51 0.1,-0.24 -0.2,0.45 0.1,-0.24 -0.05,0.15 0.05,-0.17 -0.05,0.17 -0.07,0.21 -0.05,0.15 0.12,-0.36 -0.17,0.65 v -0.05 l -0.07,0.41 v 0.02 l -0.07,0.26 0.02,-0.07 -0.07,0.31 -0.07,0.29 -0.05,0.12 0.05,-0.07 -0.12,0.38 0.02,-0.14 -0.04,0.26 -0.03,0.15 -0.05,0.09 c -0.02,0.15 -0.09,0.32 -0.14,0.48 l -0.05,0.08 0.07,-0.24 -0.07,0.24 0.1,-0.32 -0.03,0.1 -0.07,0.26 -0.12,0.32 -0.09,0.28 -0.34,0.75 0.05,-0.07 -0.15,0.31 -0.02,0.09 -0.24,0.53 -0.1,0.22 -0.12,0.26 -0.02,0.05 -0.17,0.29 -0.07,0.12 -0.38,0.67 -0.08,0.07 -0.21,0.36 -0.07,0.1 -0.34,0.5 0.02,-0.02 -0.19,0.26 0.03,-0.02 -0.2,0.29 -0.14,0.19 -0.05,0.09 -0.12,0.12 -0.24,0.27 -0.05,0.07 -0.4,0.43 -0.2,0.19 -0.19,0.2 v 0 l -0.19,0.16 -0.14,0.12 -0.34,0.29 v -0.02 l -0.46,0.41 -0.12,0.09 -0.21,0.15 -0.07,0.07 -0.87,0.6 c -0.12,0.09 -0.24,0.17 -0.38,0.24 l -0.41,0.21 c -0.1,0.08 -0.22,0.12 -0.34,0.15 l -0.28,0.12 0.09,-0.03 -0.24,0.08 -0.21,0.07 -0.08,0.05 -0.07,0.02 -0.12,0.02 -0.21,0.08 -0.12,0.02 0.04,-0.02 -0.55,0.16 c -0.12,0.03 -0.26,0.03 -0.38,0.05 l -0.39,0.05 -0.04,0.02 -0.32,0.03 h -0.14 l -0.24,0.02 c -0.14,0.03 -0.29,0.03 -0.46,0 h -0.07 0.24 -0.26 -0.03 -0.28 -0.32 l -0.24,-0.02 h 0.17 -0.26 0.12 -0.07 -0.03 -0.24 c -0.12,0 -0.24,0 -0.36,-0.03 l -0.36,-0.04 0.03,0.02 -0.36,-0.05 h -0.05 l -0.63,-0.07 -0.16,-0.02 -0.29,-0.05 h 0.07 l -0.38,-0.03 -0.12,-0.02 -0.51,-0.1 -0.31,-0.07 -1.1,-0.29 c -0.15,-0.04 -0.29,-0.12 -0.44,-0.16 l -0.36,-0.17 -0.14,-0.07 -0.14,-0.08 -0.1,-0.04 -0.24,-0.12 0.29,0.12 -0.19,-0.08 v 0 l -0.17,-0.07 c -0.15,-0.05 -0.27,-0.12 -0.39,-0.17 l -0.07,-0.04 v 0 l -0.09,-0.05 -0.08,-0.07 -0.09,-0.05 -0.07,-0.05 -0.12,-0.07 0.6,0.31 -0.05,-0.02 c -0.19,-0.08 -0.36,-0.17 -0.51,-0.24 l -0.04,-0.05 0.4,0.21 -0.14,-0.04 c -0.31,-0.15 -0.58,-0.32 -0.82,-0.53 l -0.04,-0.03 v 0 l -0.03,-0.02 0.58,0.38 h -0.03 c -0.21,-0.12 -0.4,-0.26 -0.6,-0.4 l -0.04,-0.05 v 0 l -0.32,-0.27 0.03,0.03 -0.36,-0.31 c -0.12,-0.08 -0.22,-0.17 -0.31,-0.29 l -0.12,-0.15 c -0.12,-0.09 -0.22,-0.21 -0.32,-0.36 l -0.04,-0.04 0.12,0.16 -0.05,-0.04 h 0.02 l -0.05,-0.08 c -0.16,-0.21 -0.31,-0.43 -0.4,-0.67 l -0.05,-0.05 0.24,0.44 -0.12,-0.2 0.09,0.15 -0.04,-0.07 0.24,0.26 -0.08,-0.07 -0.16,-0.19 -0.17,-0.22 -0.19,-0.26 -0.08,-0.12 c -0.14,-0.17 -0.21,-0.39 -0.31,-0.6 l -0.02,-0.05 v 0 l -0.03,-0.05 0.15,0.34 v -0.05 c -0.12,-0.19 -0.19,-0.39 -0.24,-0.6 l -0.03,-0.05 0.1,0.29 -0.07,-0.19 v -0.03 l -0.19,-0.43 -0.1,-0.31 -0.07,-0.19 0.05,0.12 -0.05,-0.17 0.02,0.09 -0.09,-0.26 c -0.05,-0.12 -0.1,-0.26 -0.12,-0.38 l -0.17,-0.8 -0.03,-0.16 -0.04,-0.2 v -0.09 l -0.08,-0.48 -0.02,-0.27 -0.02,-0.48 v -0.09 l -0.03,-0.36 V 444 443.69 c 0,-0.36 0.05,-0.72 0.19,-1.06 l 0.03,-0.09 -0.17,0.64 0.05,-0.24 c 0.02,-0.14 0.05,-0.26 0.07,-0.38 l 0.14,-0.55 0.1,-0.24 0.05,-0.17 -0.15,0.53 0.03,-0.17 c 0.05,-0.31 0.17,-0.6 0.31,-0.86 l 0.02,-0.05 -0.16,0.36 0.02,-0.05 c 0.05,-0.12 0.1,-0.24 0.17,-0.36 v -0.02 c 0.41,-0.72 1.1,-1.2 1.92,-1.3 0.79,-0.12 1.61,0.17 2.16,0.74 z"
         style="fill:#000000;fill-opacity:1;fill-rule:nonzero;stroke:none"
         transform="matrix(1.3333333,0,0,-1.3333333,0,1120.8)" />
    </g>
    <g
       id="g163">
      <path
         id="path163"
         d="m 288.1,441.1 v -0.03 c 0.57,-0.31 1.27,-0.33 1.87,-0.09 h 0.02 -0.02 v 0 c 0.41,0.16 0.77,0.45 1.01,0.81 v 0 l -2.21,-0.93 v 0 c 0.41,-0.08 0.84,-0.03 1.25,0.14 v 0 l -2.21,0.29 v 0 c 0.5,-0.39 1.13,-0.53 1.73,-0.43 0.6,0.09 1.15,0.43 1.48,0.96 v 0 l -1,-0.84 v 0 l -1.18,-0.12 v 0 c 0.22,-0.05 0.46,-0.05 0.7,0 v 0 h -0.1 0.22 l 0.07,0.02 h 0.05 v 0 h 0.02 l -0.5,-0.02 h 0.04 0.03 0.05 -0.05 0.05 c 0.24,0 0.5,0 0.74,0.04 l 0.1,0.03 -0.72,-0.05 0.19,-0.02 c 0.19,0 0.41,0 0.6,0.04 l 0.24,0.03 c 0.21,0.05 0.41,0.12 0.6,0.19 v 0 l -0.31,-0.1 h 0.02 l -0.96,-0.09 h 0.02 v 0 0 h 0.08 0.02 -0.07 0.02 0.07 l 0.03,-0.03 v 0.03 -0.03 l -0.05,0.03 h 0.02 l 0.08,-0.03 h 0.02 l -0.1,0.03 v 0 l -0.69,0.17 0.05,-0.05 -0.05,0.05 0.21,-0.1 -0.28,0.14 0.28,-0.16 -0.21,0.14 0.09,-0.07 0.24,-0.15 0.12,-0.07 -0.36,0.24 0.08,-0.07 -0.08,0.07 0.27,-0.24 -0.65,0.87 0.02,-0.03 c 0.15,-0.36 0.41,-0.67 0.72,-0.93 l 0.08,-0.08 -0.27,0.27 0.07,-0.07 v 0 l 0.08,-0.08 -0.08,0.08 0.08,-0.08 -0.1,0.12 0.07,-0.09 -0.12,0.14 0.15,-0.21 -0.12,0.19 0.12,-0.22 v 0.03 l 0.02,-0.08 0.07,-0.12 0.03,-0.04 -0.1,0.19 0.1,-0.17 -0.17,0.41 0.21,-0.72 -0.04,0.17 0.04,-0.17 -0.04,0.21 0.02,-0.16 0.02,-0.12 0.03,-0.17 -0.03,0.17 0.05,-0.48 -0.02,0.31 v -1.03 -0.08 -1.17 -0.17 l 0.05,-0.79 v 0.19 -0.1 -0.21 l 0.07,-0.77 v -0.12 l 0.02,-0.22 0.03,-0.12 0.02,-0.12 -0.02,0.08 v 0 l 0.04,0.96 v 0 c -0.07,-0.34 -0.09,-0.68 -0.04,-1.01 v 0 0 -0.05 l 0.02,-0.07 v -0.07 l 0.17,1.58 v 0 c -0.07,-0.19 -0.12,-0.38 -0.15,-0.6 v 0 c -0.21,-1.25 0.32,-2.52 1.37,-3.19 1.06,-0.7 2.43,-0.7 3.46,0 1.08,0.67 1.61,1.94 1.39,3.19 v 0 c -0.02,0.22 -0.1,0.41 -0.17,0.6 v 0 l 0.1,-0.29 -0.03,0.07 c -0.04,0.22 -0.14,0.44 -0.24,0.65 l -0.02,0.03 v 0 l -0.02,0.02 0.31,-0.86 v 0 c -0.05,0.31 -0.15,0.6 -0.31,0.86 v 0.05 l 0.21,-0.53 -0.05,0.12 0.03,-0.02 -0.07,0.19 0.07,-0.22 -0.19,0.77 0.04,-0.17 -0.02,0.1 -0.02,0.07 -0.17,0.77 0.05,-0.17 -0.17,1.18 v -0.05 l -0.12,1.05 -0.03,0.2 -0.09,0.48 c -0.03,0.19 -0.1,0.36 -0.17,0.52 l -0.07,0.17 0.05,-0.09 -0.08,0.16 -0.09,0.24 -0.07,0.17 v -0.02 l -0.29,0.65 -0.12,0.19 -0.07,0.17 c -0.1,0.16 -0.2,0.31 -0.32,0.43 l -0.04,0.07 0.09,-0.14 -0.05,0.07 0.1,-0.12 -0.14,0.21 0.02,-0.02 -0.14,0.22 -0.15,0.19 -0.07,0.09 -0.1,0.1 -0.07,0.1 -0.07,0.07 -0.07,0.09 v 0 l -0.07,0.08 c -0.1,0.07 -0.2,0.16 -0.29,0.24 l -0.1,0.07 0.77,-0.96 -0.02,0.02 c -0.15,0.31 -0.36,0.6 -0.6,0.84 l -0.29,0.24 -0.07,0.07 -0.12,0.08 c -0.1,0.12 -0.24,0.19 -0.36,0.26 l -0.12,0.05 0.24,-0.12 -0.12,0.07 -0.22,0.14 -0.31,0.17 c -0.12,0.07 -0.27,0.15 -0.43,0.19 l -0.24,0.08 -0.05,0.02 -0.03,0.02 c -0.36,0.12 -0.72,0.15 -1.08,0.12 v 0 h 0.1 -0.02 -0.08 -0.02 0.05 v 0 0 h -0.03 l -0.07,-0.02 h -0.02 l 0.07,0.02 h -0.02 l -0.08,-0.02 v 0 0 h -0.02 c -0.26,-0.02 -0.53,-0.1 -0.79,-0.19 v -0.03 c -0.15,-0.04 -0.27,-0.12 -0.39,-0.19 l -0.02,-0.02 0.26,0.17 -0.21,-0.12 -0.22,-0.12 -0.17,-0.08 c -0.14,-0.09 -0.28,-0.21 -0.4,-0.33 l -0.08,-0.07 c -0.28,-0.24 -0.5,-0.58 -0.64,-0.92 v -0.04 l 0.19,0.38 -0.03,-0.05 c -0.09,-0.12 -0.14,-0.24 -0.19,-0.38 l -0.02,-0.03 -0.05,-0.14 v -0.05 0 l -0.02,-0.02 0.12,0.31 -0.1,-0.19 0.91,0.98 -0.02,-0.02 c -0.84,-0.48 -1.27,-1.47 -1.06,-2.4 v 0 l 0.07,1.17 h -0.02 c -0.19,-0.67 -0.12,-1.39 0.29,-1.96 v 0 l 0.48,3 v 0 c -0.34,-0.27 -0.6,-0.63 -0.75,-1.04 v 0 c -0.14,-0.4 -0.16,-0.84 -0.04,-1.24 v 0 c 0.04,-0.29 0.14,-0.53 0.31,-0.75 v 0 l -0.27,1.95 h -0.02 l 0.02,0.02 v -0.02 c -0.26,-0.77 -0.09,-1.64 0.48,-2.21 v -0.03 c 0.15,-0.16 0.34,-0.31 0.56,-0.4 z"
         style="fill:#000000;fill-opacity:1;fill-rule:nonzero;stroke:none"
         transform="matrix(1.3333333,0,0,-1.3333333,0,1120.8)" />
    </g>
    <g
       id="g164">
      <path
         id="path164"
         d="m 308.69,431.76 v 0.02 l -0.19,-0.38 h 0.02 c 0.26,0.46 0.38,0.98 0.34,1.51 v 0.03 l -0.15,-1.11 0.05,0.19 c 0.12,0.27 0.17,0.53 0.19,0.82 v 0.05 0 0.07 c 0.05,0.6 -0.12,1.2 -0.43,1.73 l -0.12,0.19 0.31,-0.67 v 0.05 l -0.09,0.24 -0.03,0.02 v 0 0.05 l 0.17,-0.6 v 0.02 c -0.07,0.34 -0.17,0.65 -0.34,0.94 h -0.02 l 0.17,-0.31 h -0.03 c -0.12,0.31 -0.26,0.6 -0.48,0.84 l -0.02,0.02 0.5,-0.84 v 0.02 c -0.14,0.32 -0.31,0.6 -0.52,0.87 h -0.03 c -0.12,0.17 -0.26,0.29 -0.43,0.43 l -0.05,0.02 0.63,-0.64 -0.03,0.02 v 0 0 l 0.58,-1.85 v 0 c 0.02,0.67 -0.19,1.32 -0.58,1.85 v 0.02 l 0.58,-1.84 v 0 c 0,0.67 -0.19,1.34 -0.6,1.87 v 0.02 l 0.57,-1.89 v 0.02 c 0.03,0.62 -0.14,1.25 -0.5,1.78 l -0.02,0.02 0.04,-0.05 -0.07,0.1 c -0.12,0.17 -0.24,0.36 -0.41,0.53 l -0.26,0.28 c -0.22,0.2 -0.43,0.39 -0.67,0.53 l -0.19,0.12 0.43,-0.31 -0.53,0.46 -0.05,0.02 -0.12,0.1 -0.21,0.16 -0.12,0.08 c -0.12,0.07 -0.22,0.14 -0.34,0.21 l -0.38,0.19 0.52,-0.33 -0.04,0.05 c -0.24,0.19 -0.51,0.33 -0.8,0.45 l -0.04,0.03 0.69,-0.39 -0.05,0.03 v 0 l -0.07,0.07 0.1,-0.1 -0.07,0.07 -0.17,0.12 -0.1,0.08 -0.09,0.04 -0.12,0.08 c -0.15,0.09 -0.29,0.19 -0.46,0.24 l -0.22,0.12 0.29,-0.15 -0.12,0.05 -0.29,0.14 -0.04,0.03 v 0 l -0.08,0.05 c -0.12,0.04 -0.24,0.09 -0.38,0.14 h -0.05 l 0.39,-0.14 -0.08,0.02 c -0.16,0.1 -0.36,0.14 -0.55,0.22 l -0.12,0.02 0.15,-0.05 -0.03,0.03 c -0.29,0.07 -0.55,0.12 -0.84,0.12 v 0 l 0.82,-0.12 h -0.03 l 1.08,-0.58 v 0.02 c -0.24,0.2 -0.5,0.34 -0.79,0.46 h -0.05 l 0.75,-0.41 -0.03,0.03 c -0.55,0.43 -1.24,0.67 -1.96,0.67 h -0.03 l 2.47,-1.15 v 0 c -0.36,0.43 -0.81,0.74 -1.34,0.96 h -0.02 v 0 h -0.03 c -0.36,0.14 -0.77,0.24 -1.15,0.24 h -0.02 l 0.4,-0.05 -0.07,0.02 0.43,-0.09 H 303 c -0.29,0.07 -0.58,0.12 -0.86,0.14 h -0.03 l 1.13,-0.24 -0.02,0.02 h 0.02 -0.02 c -0.39,0.15 -0.77,0.22 -1.16,0.22 h -0.04 l 0.88,-0.12 h -0.02 l 0.53,-0.19 -0.07,0.05 0.21,-0.12 -0.05,0.02 c -0.12,0.07 -0.28,0.14 -0.43,0.22 h -0.02 l -0.29,0.07 -0.02,0.02 0.28,-0.09 h -0.04 l -0.22,0.07 -0.07,0.05 c -0.31,0.07 -0.63,0.12 -0.94,0.12 h -0.02 -0.03 v 0 l 1.16,-0.22 h -0.03 v 0.02 h -0.02 0.02 l -0.05,0.03 0.44,-0.19 -0.05,0.02 c -0.22,0.12 -0.46,0.22 -0.72,0.29 h -0.03 l 0.75,-0.31 -0.03,0.02 c -0.14,0.07 -0.31,0.14 -0.48,0.22 v 0 l 0.82,-0.46 -0.02,0.02 c -0.58,0.44 -1.28,0.65 -1.97,0.68 h -0.03 v 0 h -0.02 l 1.15,-0.22 h -0.02 c -0.22,0.07 -0.43,0.12 -0.67,0.17 h -0.03 c -0.17,0.05 -0.33,0.05 -0.48,0.05 v 0 l 1.56,-0.41 v 0 c -0.5,0.26 -1.05,0.41 -1.61,0.41 h -0.02 l 1.61,-0.41 h -0.03 c -0.48,0.29 -1,0.41 -1.56,0.43 h -0.02 -0.02 -0.03 l 1.63,-0.43 -0.02,0.02 h -0.02 l -0.03,0.03 c -0.17,0.09 -0.38,0.19 -0.6,0.24 l -0.09,0.02 c -0.29,0.1 -0.6,0.17 -0.92,0.17 h -0.21 0.21 l -0.31,0.02 0.46,-0.07 -0.24,0.05 0.38,-0.12 -0.07,0.05 -0.26,0.07 h -0.05 l -0.1,0.05 h -0.07 c -0.14,0.02 -0.26,0.07 -0.41,0.07 l -0.14,0.02 0.33,-0.07 -0.28,0.07 -0.32,0.05 -0.31,0.05 h -0.02 -0.07 0.04 l -0.04,0.02 0.28,-0.07 -0.16,0.05 -0.12,0.02 -0.2,0.03 v 0 l -0.31,0.07 v 0 l -0.21,0.05 -0.12,0.02 -0.24,0.02 -0.2,0.03 -0.43,0.05 h -0.21 -0.36 -0.12 -0.68 c -0.16,0 -0.31,0 -0.45,-0.05 l -0.72,-0.07 h 0.05 l -0.41,-0.08 h -0.03 l -0.26,-0.04 0.14,0.02 h -0.07 l -0.09,-0.02 -0.24,-0.03 0.4,0.03 h -0.04 c -0.15,0 -0.32,0 -0.46,-0.03 h -0.05 v 0 l -0.05,-0.02 c -0.14,0 -0.28,-0.05 -0.4,-0.07 l -0.12,-0.03 0.19,0.05 -0.24,-0.05 0.09,0.03 -0.04,-0.03 h -0.03 -0.05 c -0.16,-0.02 -0.36,-0.07 -0.52,-0.14 h -0.05 l 0.6,0.14 -0.03,-0.02 c -0.36,-0.05 -0.69,-0.15 -1.03,-0.31 l -0.09,-0.05 0.67,0.24 h -0.07 c -0.12,-0.05 -0.24,-0.07 -0.39,-0.12 l -0.05,-0.03 0.36,0.1 -0.14,-0.02 0.22,0.04 -0.1,-0.02 c -0.14,-0.02 -0.26,-0.05 -0.38,-0.1 l -0.08,-0.02 -0.12,-0.02 -0.19,-0.08 0.03,0.03 -0.2,-0.07 h 0.03 l -0.1,-0.05 c -0.12,-0.03 -0.24,-0.07 -0.36,-0.12 l -0.38,-0.17 -0.19,-0.1 -0.08,-0.04 -0.28,-0.17 -0.12,-0.07 0.19,0.12 -0.12,-0.08 c -0.15,-0.09 -0.31,-0.19 -0.46,-0.31 l -0.24,-0.19 0.1,0.1 -0.27,-0.22 -0.12,-0.1 -0.45,-0.38 v 0.02 l -0.39,-0.33 h -0.04 l -0.05,-0.07 -0.19,-0.15 -0.05,-0.07 -0.15,-0.14 -0.07,-0.05 v 0 l -0.05,-0.07 -0.21,-0.24 -0.15,-0.17 -0.16,-0.27 -0.41,-0.62 -0.1,-0.14 -0.26,-0.44 -0.07,-0.14 -0.1,-0.19 -0.12,-0.24 -0.19,-0.51 -0.12,-0.31 -0.12,-0.38 -0.05,-0.19 -0.12,-0.36 v 0 l -0.02,-0.22 -0.1,-0.34 -0.02,-0.21 v -0.03 l -0.05,-0.21 c 0,-0.12 -0.03,-0.24 -0.03,-0.36 l -0.02,-0.6 v -0.07 -0.05 -0.1 -0.38 -0.19 l 0.05,-0.56 c 0,-0.12 0,-0.24 0.05,-0.36 l 0.14,-0.86 c 0.05,-0.31 0.14,-0.6 0.29,-0.91 v 0 l -0.29,0.91 0.17,-1.08 0.05,-0.22 0.26,-1.12 0.05,-0.17 0.07,-0.17 -0.02,0.02 0.04,-0.16 0.1,-0.34 0.22,-0.5 0.07,-0.15 0.09,-0.26 0.15,-0.27 0.29,-0.55 -0.05,0.12 0.14,-0.31 -0.21,0.55 0.02,-0.09 c 0.07,-0.22 0.17,-0.44 0.26,-0.63 l 0.08,-0.09 0.07,-0.17 0.17,-0.24 0.04,-0.07 0.34,-0.53 -0.02,0.05 0.16,-0.27 -0.19,0.34 0.05,-0.1 0.14,-0.26 0.03,-0.07 0.09,-0.15 0.12,-0.14 0.03,-0.07 0.24,-0.34 -0.17,0.29 0.05,-0.12 c 0.07,-0.1 0.12,-0.22 0.21,-0.31 l 0.2,-0.29 0.07,-0.12 0.57,-0.7 h -0.02 l 0.38,-0.5 -0.02,0.05 0.26,-0.36 0.2,-0.24 0.19,-0.22 0.05,-0.05 0.19,-0.21 -0.12,0.12 0.12,-0.15 c 0.09,-0.09 0.17,-0.19 0.26,-0.26 l 0.34,-0.34 0.12,-0.09 0.05,-0.05 0.02,-0.03 0.07,-0.07 -0.43,0.46 0.05,-0.07 -0.1,0.14 0.07,-0.07 0.03,-0.05 0.17,-0.22 -0.05,0.03 0.26,-0.36 c 0.1,-0.12 0.19,-0.24 0.31,-0.34 l 0.6,-0.67 0.2,-0.19 0.45,-0.43 -0.14,0.14 0.45,-0.46 -0.16,0.17 0.16,-0.14 c 0.08,-0.12 0.17,-0.22 0.27,-0.29 l 0.36,-0.36 c 0.17,-0.17 0.33,-0.29 0.53,-0.41 l 0.31,-0.19 -0.15,0.07 0.15,-0.07 0.02,-0.05 0.15,-0.07 0.19,-0.14 0.33,-0.17 h -0.02 l 0.14,-0.1 -0.16,0.12 0.4,-0.26 -0.04,0.02 0.84,-0.62 0.12,-0.05 0.45,-0.31 0.1,-0.05 0.24,-0.17 0.21,-0.12 0.53,-0.26 0.07,-0.05 0.17,-0.07 0.07,-0.05 0.24,-0.1 0.08,-0.04 0.16,-0.05 -0.28,0.12 0.31,-0.17 -0.17,0.1 0.14,-0.1 0.29,-0.14 0.48,-0.22 0.24,-0.12 0.31,-0.12 -0.31,0.14 0.79,-0.4 -0.16,0.09 0.12,-0.07 0.26,-0.14 0.12,-0.05 0.22,-0.1 0.24,-0.09 -0.05,0.02 0.38,-0.17 -0.29,0.15 1.83,-0.96 -0.19,0.09 0.43,-0.24 -0.12,0.05 0.17,-0.1 0.07,-0.04 0.17,-0.1 c 0.12,-0.1 0.24,-0.17 0.38,-0.22 l 0.46,-0.21 -0.08,0.02 0.1,-0.05 h 0.02 l 0.22,-0.12 -0.07,0.05 0.21,-0.09 -0.04,0.02 0.45,-0.24 0.03,-0.02 0.64,-0.34 0.12,-0.07 0.84,-0.39 -0.07,0.03 0.29,-0.15 0.05,-0.02 0.26,-0.12 0.29,-0.12 0.58,-0.24 0.12,-0.05 0.21,-0.07 -0.29,0.12 0.48,-0.22 v 0 l 0.41,-0.19 h 0.03 l 0.91,-0.41 -0.22,0.1 0.43,-0.22 0.05,-0.02 0.48,-0.24 0.19,-0.1 2.19,-0.96 -0.34,0.2 0.63,-0.36 -0.05,0.02 0.5,-0.29 0.12,-0.07 1.51,-0.82 -0.02,0.03 1.03,-0.58 v 0 l 1.32,-0.74 0.12,-0.05 1.25,-0.65 -0.12,0.07 0.77,-0.43 -0.05,0.05 0.46,-0.29 0.04,-0.02 0.65,-0.36 0.05,-0.03 1.2,-0.64 -0.05,0.02 1.78,-1.01 -0.05,0.03 1.39,-0.82 -0.02,0.02 1.25,-0.74 -0.05,0.05 1.01,-0.65 0.07,-0.05 1.37,-0.79 v 0 l 1.44,-0.84 0.19,-0.12 1.01,-0.53 -0.08,0.05 1.4,-0.77 -0.1,0.05 0.5,-0.29 -0.14,0.07 1.8,-1.15 -0.17,0.12 1.44,-1.05 -0.09,0.09 0.72,-0.6 -0.24,0.22 0.72,-0.67 -0.08,0.04 1.83,-1.8 c 1.49,-1.46 3.84,-1.44 5.3,0.03 1.47,1.46 1.44,3.84 -0.02,5.3 l -1.83,1.8 -0.07,0.07 -0.69,0.65 -0.24,0.22 -0.75,0.6 -0.12,0.09 -1.44,1.06 -0.19,0.12 -1.78,1.15 -0.14,0.1 -0.53,0.31 -0.09,0.05 -1.42,0.77 -0.05,0.02 -1.01,0.53 0.2,-0.1 -1.44,0.87 -0.05,0.02 -1.35,0.79 0.08,-0.05 -1.01,0.63 -0.07,0.02 -1.25,0.77 -0.05,0.02 -1.39,0.82 h -0.05 l -1.78,1.01 -0.02,0.02 -1.22,0.65 h 0.04 l -0.67,0.36 0.05,-0.05 -0.46,0.29 -0.07,0.02 -0.74,0.44 -0.12,0.04 -1.25,0.65 0.12,-0.07 -1.32,0.74 v -0.02 l -1.03,0.6 -0.05,0.02 -1.56,0.82 0.12,-0.05 -0.48,0.29 -0.05,0.02 -0.62,0.36 c -0.12,0.05 -0.24,0.12 -0.36,0.17 l -2.21,0.96 0.19,-0.07 -0.5,0.24 0.07,-0.05 -0.41,0.22 -0.21,0.12 -0.92,0.38 v 0 l -0.38,0.17 -0.02,0.02 -0.48,0.22 -0.32,0.12 -0.19,0.07 0.1,-0.05 -0.58,0.22 0.29,-0.12 -0.29,0.14 0.05,-0.02 -0.29,0.14 -0.07,0.05 -0.84,0.39 0.12,-0.05 -0.65,0.31 h 0.03 l -0.46,0.24 -0.05,0.02 -0.24,0.12 -0.07,0.05 -0.24,0.1 v 0 l -0.1,0.05 v 0 l -0.45,0.21 0.38,-0.19 -0.19,0.1 0.07,-0.03 -0.17,0.1 -0.12,0.07 -0.43,0.24 -0.17,0.1 -1.82,0.96 -0.34,0.14 -0.38,0.17 -0.05,0.02 -0.26,0.1 0.19,-0.1 -0.12,0.05 0.26,-0.12 -0.09,0.07 -0.15,0.07 -0.79,0.39 -0.33,0.14 -0.32,0.12 0.24,-0.09 -0.45,0.21 0.24,-0.12 -0.15,0.1 -0.12,0.05 -0.28,0.16 -0.32,0.15 -0.14,0.05 0.1,-0.05 -0.22,0.12 0.07,-0.05 -0.17,0.07 0.08,-0.02 -0.53,0.26 0.17,-0.09 -0.24,0.14 0.12,-0.07 -0.48,0.29 0.09,-0.05 -0.89,0.57 h 0.03 l -0.41,0.27 -0.24,0.14 -0.14,0.1 0.04,-0.05 -0.31,0.19 0.19,-0.12 -0.12,0.07 0.05,-0.02 -0.12,0.1 -0.14,0.09 -0.34,0.19 0.51,-0.38 -0.39,0.36 0.24,-0.24 -0.14,0.17 -0.15,0.14 -0.48,0.46 -0.14,0.12 -0.46,0.38 0.2,-0.17 -0.63,0.65 0.27,-0.33 -0.27,0.33 0.03,-0.02 -0.15,0.21 -0.07,0.05 -0.05,0.1 -0.12,0.14 -0.07,0.05 c -0.14,0.17 -0.29,0.31 -0.43,0.43 l -0.07,0.05 v 0 l -0.08,0.07 0.2,-0.17 -0.36,0.34 0.16,-0.19 -0.12,0.14 -0.04,0.05 -0.2,0.19 0.03,-0.02 -0.19,0.19 0.21,-0.24 -0.26,0.36 -0.07,0.07 -0.41,0.48 -0.07,0.1 -0.6,0.67 0.19,-0.22 -0.22,0.27 0.12,-0.17 -0.05,0.1 -0.09,0.14 -0.27,0.34 0.08,-0.08 -0.12,0.17 0.04,-0.07 -0.04,0.07 0.14,-0.26 -0.05,0.07 -0.14,0.26 -0.17,0.27 -0.02,0.05 -0.36,0.5 0.07,-0.1 -0.15,0.24 0.08,-0.14 -0.05,0.1 0.29,-0.65 -0.05,0.09 c -0.05,0.2 -0.12,0.36 -0.22,0.56 l -0.14,0.26 -0.05,0.1 -0.31,0.55 0.14,-0.29 -0.09,0.26 0.04,-0.16 -0.16,0.5 0.09,-0.34 -0.05,0.2 v 0.02 l -0.07,0.19 0.05,-0.14 -0.26,1.13 0.04,-0.24 -0.16,1.05 c -0.08,0.31 -0.17,0.63 -0.32,0.94 v 0 l 0.29,-0.89 -0.14,0.84 0.05,-0.34 -0.05,0.56 v -0.15 0.39 -0.05 0.05 -0.2 0.6 -0.28 0.24 -0.03 l 0.05,0.22 -0.08,-0.34 0.05,0.22 -0.02,-0.1 0.09,0.39 -0.04,-0.2 0.12,0.39 -0.12,-0.31 0.21,0.48 -0.09,-0.22 0.07,0.19 -0.07,-0.17 0.24,0.44 -0.1,-0.17 0.41,0.62 -0.19,-0.26 0.14,0.19 -0.22,-0.24 0.08,0.05 v 0 l 0.04,0.07 -0.14,-0.14 0.07,0.07 -0.17,-0.17 0.08,0.05 h -0.03 l 0.41,0.31 v 0.02 l 0.46,0.36 -0.15,-0.09 0.27,0.19 0.12,0.07 0.21,0.19 -0.45,-0.31 0.12,0.07 0.16,0.1 0.15,0.1 -0.27,-0.15 0.1,0.05 -0.17,-0.1 0.39,0.17 -0.36,-0.14 0.12,0.05 v 0 l 0.21,0.07 0.03,0.02 0.19,0.05 -0.1,-0.02 0.07,0.02 -0.38,-0.1 0.07,0.03 0.27,0.05 0.14,0.02 c 0.14,0.05 0.29,0.1 0.41,0.17 l 0.07,0.02 -0.38,-0.14 0.04,0.02 c 0.22,0.05 0.41,0.15 0.6,0.22 l 0.1,0.05 -0.98,-0.32 0.04,0.03 c 0.22,0.02 0.44,0.07 0.65,0.17 h 0.05 l -0.58,-0.15 h 0.05 0.03 l 0.04,0.03 h -0.02 l 0.26,0.02 0.2,0.05 0.12,0.05 -0.39,-0.1 0.07,0.02 v 0 h 0.05 l -0.45,-0.02 h 0.04 c 0.15,0 0.29,0 0.44,0.02 l 0.24,0.03 h -0.08 0.08 l 0.16,0.02 0.27,0.05 h -0.03 l 0.39,0.05 h 0.05 l 0.69,0.09 -0.45,-0.02 h 0.69 -0.12 0.34 -0.22 l 0.43,-0.02 -0.19,0.02 0.22,-0.02 h -0.15 l 0.2,-0.03 0.02,-0.02 0.34,-0.05 v 0 l 0.16,-0.02 -0.12,0.02 0.2,-0.05 0.28,-0.05 0.05,-0.02 h 0.05 0.07 v 0 l 0.31,-0.02 -0.31,0.02 0.29,-0.05 0.36,-0.07 h 0.14 l -0.4,0.07 0.07,-0.02 -0.1,0.02 0.07,-0.02 -0.28,0.09 0.07,-0.02 c 0.12,-0.05 0.24,-0.07 0.36,-0.12 l 0.24,-0.02 c 0.14,-0.05 0.29,-0.08 0.41,-0.1 l 0.33,-0.02 h 0.22 l 0.21,-0.03 -0.84,0.15 0.1,-0.03 -0.65,0.27 0.03,-0.03 0.02,-0.02 h 0.02 c 0.51,-0.27 1.06,-0.41 1.61,-0.39 h 0.03 0.02 0.02 l -1.65,0.39 h 0.02 c 0.48,-0.27 1.03,-0.41 1.61,-0.41 h 0.02 l -1.63,0.41 v 0 c 0.51,-0.29 1.08,-0.41 1.68,-0.41 v 0 l -0.57,0.05 h 0.04 l -0.6,0.14 0.03,-0.02 c 0.38,-0.12 0.77,-0.19 1.15,-0.17 h 0.02 v 0 h 0.03 l -2.02,0.6 h 0.03 c 0.26,-0.19 0.55,-0.34 0.84,-0.43 h 0.04 l -0.48,0.19 0.03,-0.02 c 0.21,-0.12 0.45,-0.22 0.72,-0.27 l 0.02,-0.02 -0.74,0.31 0.05,-0.02 c 0.16,-0.1 0.33,-0.17 0.52,-0.24 v 0 0 h 0.03 0.02 v 0 c 0.39,-0.12 0.75,-0.22 1.15,-0.2 v 0 h 0.03 0.02 l -0.98,0.15 0.07,-0.05 -0.14,0.05 v 0 l 0.26,-0.07 h 0.02 l -0.24,0.07 h 0.03 l -0.48,0.19 0.02,-0.02 0.19,-0.08 0.05,-0.02 c 0.19,-0.07 0.36,-0.14 0.55,-0.19 l 0.05,-0.03 c 0.29,-0.04 0.58,-0.09 0.87,-0.09 h 0.04 l -1.15,0.17 h 0.03 -0.03 0.03 c 0.38,-0.12 0.76,-0.2 1.17,-0.17 h 0.03 l -0.92,0.09 0.05,-0.02 c 0.12,-0.02 0.27,-0.05 0.41,-0.07 h 0.07 c 0.15,-0.03 0.34,-0.03 0.51,-0.03 h 0.02 l -1.13,0.15 h 0.03 v 0 0 l -1.37,0.84 0.02,-0.03 c 0.67,-0.64 1.59,-1 2.52,-0.98 h 0.03 l -2.02,0.58 0.02,-0.03 c 0.22,-0.14 0.44,-0.26 0.7,-0.33 l 0.05,-0.05 -0.65,0.33 0.02,-0.02 c 0.34,-0.19 0.72,-0.36 1.13,-0.46 h 0.03 c 0.28,-0.07 0.6,-0.09 0.93,-0.09 v 0 l -0.93,0.09 h 0.02 l 0.07,-0.02 0.12,-0.02 -0.41,0.12 0.05,-0.03 c 0.15,-0.05 0.27,-0.07 0.39,-0.09 l 0.07,-0.03 -0.39,0.1 h 0.05 v 0 l 0.07,-0.03 -0.26,0.1 0.14,-0.07 0.17,-0.05 0.24,-0.1 -0.31,0.15 0.1,-0.07 -0.08,0.04 0.12,-0.04 -0.24,0.12 0.08,-0.05 v 0 l 0.09,-0.05 0.17,-0.12 0.05,-0.02 c 0.21,-0.12 0.45,-0.22 0.69,-0.29 h 0.05 l -0.89,0.41 0.05,-0.05 c 0.15,-0.07 0.27,-0.17 0.43,-0.22 l 0.39,-0.19 h 0.02 l 0.12,-0.05 -0.29,0.15 0.12,-0.1 -0.02,0.02 0.58,-0.33 c 0.24,-0.15 0.52,-0.24 0.79,-0.31 l 0.21,-0.08 -0.74,0.32 0.36,-0.22 h -0.02 l 0.12,-0.02 -0.34,0.19 0.02,-0.03 c 0.53,-0.38 1.13,-0.57 1.78,-0.62 h 0.02 0.03 0.02 -0.05 v 0 h 0.08 v 0 h -0.05 0.02 0.03 0.02 0.02 v 0 l -0.88,0.17 0.04,-0.05 c 0.51,-0.14 1.01,-0.17 1.52,-0.07 h 0.02 l -1.87,0.24 h 0.02 c 0.6,-0.29 1.25,-0.39 1.87,-0.27 l 0.05,0.03 -1.89,0.24 0.02,-0.03 c 0.26,-0.12 0.53,-0.21 0.79,-0.26 h 0.03 l -0.2,0.05 v 0 l -0.57,0.19 h 0.02 0.03 l 0.02,-0.02 0.24,-0.1 0.05,-0.02 -0.58,0.28 0.19,-0.14 c 0.29,-0.14 0.58,-0.26 0.89,-0.36 l 0.07,-0.02 v 0 h 0.08 0.04 l 0.2,-0.05 -1.23,0.65 0.03,-0.03 c 0.52,-0.53 1.27,-0.79 2.01,-0.69 v 0 l -1.03,0.12 h 0.02 c 1.28,-0.46 2.67,0.21 3.15,1.46 z"
         style="fill:#000000;fill-opacity:1;fill-rule:nonzero;stroke:none"
         transform="matrix(1.3333333,0,0,-1.3333333,0,1120.8)" />
    </g>
    <g
       id="g165"
       transform="matrix(0.93381526,0,0,0.95106723,26.938463,26.072952)">
      <path
         id="path165"
         d="m 305.4,438.98 -0.05,-0.14 c -0.17,-0.7 -0.09,-1.44 0.27,-2.06 v 0 l -0.24,0.55 v -0.03 c 0.07,-0.19 0.16,-0.38 0.24,-0.57 h 0.02 l -0.31,0.81 0.02,-0.02 0.1,1.46 v -0.02 c -0.19,-0.55 -0.22,-1.15 -0.05,-1.7 v 0 c 0.19,-0.58 0.53,-1.08 1.01,-1.44 h 0.02 l -0.79,0.86 h 0.02 l 0.05,-0.12 0.03,-0.02 -0.12,0.21 v 0 l -0.2,0.53 v 0 c 0.05,-0.19 0.12,-0.36 0.2,-0.5 v -0.03 c 0.04,-0.14 0.14,-0.26 0.21,-0.38 l 0.03,-0.03 -0.44,2.19 h -0.02 c -0.22,-1.03 0.17,-2.11 0.98,-2.79 h 0.03 l -0.94,1.4 v -0.05 l -0.07,1.2 v 0 c -0.22,-1.37 0.62,-2.69 1.92,-3.1 v 0 l -1.82,1.83 v -0.03 c 0.09,-0.19 0.16,-0.38 0.28,-0.57 v 0 l -0.28,2.23 v 0 c -0.24,-0.77 -0.12,-1.61 0.28,-2.28 v 0 l -0.28,2.28 v 0 c -0.15,-0.55 -0.15,-1.13 0,-1.68 h 0.02 c 0.31,-1.03 1.2,-1.8 2.28,-1.95 V 435 l -1.99,1.34 0.02,-0.02 -0.29,0.6 v 0 c 0.05,-0.14 0.12,-0.31 0.2,-0.46 l 0.04,-0.12 -0.21,2.07 v 0 c -0.22,-0.77 -0.1,-1.61 0.33,-2.28 l 0.03,-0.03 -0.31,0.63 0.02,-0.03 -0.1,0.34 v -0.02 c 0.08,-0.34 0.22,-0.68 0.41,-0.96 v -0.03 l -0.43,1.15 0.02,-0.02 c 0.08,-0.62 0.39,-1.22 0.84,-1.68 l 0.05,-0.02 -0.45,0.55 v -0.03 c 0.12,-0.16 0.24,-0.33 0.38,-0.48 l 0.05,-0.04 -0.7,1.17 v -0.02 0 0 c 0.19,-0.6 0.58,-1.13 1.08,-1.49 v -0.02 l -1.05,1.48 v -0.02 1.75 0 c -0.29,-0.91 -0.12,-1.89 0.45,-2.64 l 0.03,-0.02 -0.48,0.91 v -0.02 0 -0.03 l -0.1,1.3 v -0.03 l 0.1,0.46 v 0 c -0.17,-0.58 -0.17,-1.18 0,-1.75 l 0.02,-0.05 -0.1,0.43 v -0.07 c 0.05,-0.17 0.08,-0.36 0.15,-0.53 l 0.02,-0.07 -0.05,0.12 0.05,-0.07 0.07,-0.24 0.03,-0.05 v 0 l 0.02,-0.05 0.07,-0.14 0.03,-0.07 c 0.05,-0.12 0.12,-0.24 0.19,-0.34 l 0.02,-0.05 0.2,-0.21 0.07,-0.12 -0.27,0.38 0.15,-0.24 -0.12,0.22 0.05,-0.1 0.07,-0.12 0.24,-0.43 v -0.03 l 0.24,-0.43 0.09,-0.19 0.12,-0.17 -0.07,0.15 0.05,-0.12 0.12,-0.17 0.02,-0.05 -0.07,0.12 0.03,-0.02 c 0.07,-0.15 0.16,-0.27 0.26,-0.39 l 0.02,-0.02 v 0 l 0.03,-0.05 c 0.09,-0.12 0.21,-0.24 0.33,-0.34 l 0.08,-0.04 -0.34,0.31 h 0.02 c 0.12,-0.17 0.24,-0.29 0.41,-0.41 v -0.02 l -0.62,0.74 0.02,-0.02 c 0.24,-0.44 0.6,-0.77 1.01,-1.04 l 0.02,-0.02 -0.79,0.7 0.05,-0.03 -0.5,0.84 v -0.02 c 0.12,-0.31 0.28,-0.6 0.5,-0.84 l 0.02,-0.05 -0.36,0.53 0.05,-0.07 0.05,-0.08 0.02,-0.07 -0.12,0.22 0.05,-0.07 c 0.1,-0.2 0.19,-0.39 0.34,-0.58 l 0.05,-0.05 -0.15,0.22 0.05,-0.07 0.19,-0.27 0.1,-0.14 0.02,-0.05 0.07,-0.07 -0.14,0.19 0.14,-0.19 -0.12,0.19 0.53,-0.91 v 0.05 -0.08 l -0.07,0.15 0.24,-0.43 -0.05,0.07 0.05,-0.07 0.12,-0.22 0.02,-0.07 0.15,-0.22 0.09,-0.19 -0.12,0.24 0.05,-0.12 c 0.07,-0.12 0.15,-0.22 0.22,-0.31 l 0.55,-0.75 0.12,-0.16 0.1,-0.12 0.02,-0.05 0.07,-0.05 -0.17,0.22 0.12,-0.22 -0.12,0.19 0.72,-1.13 0.1,-0.16 0.1,-0.12 -0.08,0.12 0.08,-0.12 c 0.09,-0.12 0.19,-0.27 0.28,-0.41 l 0.22,-0.19 -0.05,0.02 0.17,-0.17 0.07,-0.09 0.41,-0.46 -0.02,0.05 0.07,-0.1 -0.1,0.12 0.19,-0.26 -0.04,0.07 0.09,-0.14 v 0.02 l 0.07,-0.12 -0.14,0.24 0.14,-0.22 -0.02,0.03 0.05,-0.07 0.09,-0.17 0.2,-0.24 0.16,-0.24 0.32,-0.39 -0.08,0.08 0.24,-0.29 0.2,-0.24 0.55,-0.6 v 0 l 0.69,-0.75 -0.02,0.03 0.58,-0.65 v 0 l 0.09,-0.12 0.19,-0.17 0.32,-0.31 v 0 l 0.28,-0.29 -0.24,0.27 0.6,-0.7 -0.12,0.17 0.17,-0.22 0.19,-0.26 0.41,-0.43 0.07,-0.08 0.34,-0.33 v 0 l 0.6,-0.6 -0.02,0.02 0.86,-0.89 -0.14,0.15 0.19,-0.22 v 0 l 0.26,-0.31 -0.07,0.1 0.1,-0.15 0.21,-0.24 0.24,-0.26 v 0 l 0.24,-0.24 -0.02,0.05 0.14,-0.2 -0.09,0.12 0.31,-0.36 0.07,-0.09 0.24,-0.24 0.12,-0.15 0.07,-0.07 -0.26,0.29 0.19,-0.24 -0.17,0.22 0.12,-0.15 c 0.07,-0.14 0.17,-0.26 0.27,-0.36 l 0.31,-0.36 0.05,-0.07 0.02,-0.05 -0.14,0.19 0.26,-0.31 h -0.02 l 0.26,-0.31 0.19,-0.22 0.6,-0.67 -0.24,0.29 0.39,-0.53 0.07,-0.05 0.36,-0.45 0.07,-0.1 0.26,-0.33 0.1,-0.1 0.53,-0.6 v 0 l 0.41,-0.43 -0.05,0.07 0.29,-0.36 0.07,-0.07 0.21,-0.27 v 0.03 l 0.34,-0.39 0.19,-0.19 0.12,-0.14 -0.21,0.24 0.33,-0.41 -0.02,0.05 0.26,-0.29 0.12,-0.14 0.43,-0.46 0.05,-0.07 0.27,-0.27 -0.17,0.17 0.48,-0.55 0.02,-0.05 0.12,-0.12 v 0 l 0.1,-0.09 0.17,-0.2 0.24,-0.21 0.02,-0.03 0.24,-0.24 -0.14,0.15 0.64,-0.72 -0.02,0.05 0.34,-0.36 -0.05,0.04 0.6,-0.69 -0.12,0.14 0.02,-0.05 c 0.15,-0.14 0.29,-0.31 0.43,-0.45 l 0.05,-0.05 -0.12,0.12 0.12,-0.12 -0.02,0.02 0.17,-0.19 -0.12,0.17 0.57,-0.67 0.05,-0.05 1.03,-1.13 0.03,-0.02 0.91,-0.99 0.05,-0.02 0.36,-0.38 0.09,-0.1 0.17,-0.17 -0.19,0.22 0.43,-0.51 -0.1,0.12 0.68,-0.84 0.02,-0.04 0.22,-0.22 -0.05,0.02 1.2,-1.53 0.02,-0.03 0.46,-0.55 0.02,-0.05 0.17,-0.21 v 0.02 l 0.29,-0.36 -0.19,0.27 0.67,-1.01 0.02,-0.05 0.43,-0.65 0.12,-0.14 0.17,-0.22 -0.19,0.29 0.36,-0.6 -0.02,0.02 0.26,-0.4 v 0 l 0.26,-0.41 -0.04,0.07 0.28,-0.5 0.05,-0.1 0.27,-0.41 -0.05,0.07 0.55,-0.96 -0.05,0.1 0.55,-1.01 v 0 l 0.34,-0.65 -0.12,0.24 0.65,-1.44 -0.12,0.29 0.05,-0.12 0.12,-0.29 0.36,-0.84 -0.03,0.1 0.31,-0.7 v 0 l 0.1,-0.24 -0.1,0.24 0.29,-0.84 v 0 l 0.29,-0.79 -0.02,0.07 0.19,-0.67 0.05,-0.12 0.07,-0.21 -0.07,0.28 0.12,-0.48 -0.05,0.12 0.05,-0.19 -0.05,0.31 0.05,-0.26 0.04,-0.24 v -0.1 c 0.44,-2.06 2.43,-3.38 4.47,-2.97 2.06,0.41 3.38,2.42 2.97,4.46 l -0.02,0.12 0.02,-0.21 -0.02,0.26 c -0.02,0.14 -0.05,0.29 -0.1,0.43 l -0.04,0.19 v 0.05 l -0.15,0.48 -0.09,0.34 -0.08,0.21 0.05,-0.19 -0.21,0.7 -0.03,0.09 -0.29,0.8 v 0.02 l -0.28,0.84 -0.12,0.24 -0.08,0.24 v 0 l -0.31,0.67 -0.02,0.1 -0.39,0.81 0.12,-0.31 -0.04,0.15 -0.12,0.28 -0.65,1.44 -0.12,0.24 -0.34,0.65 -0.02,0.03 -0.53,0.98 -0.07,0.12 -0.55,0.96 -0.08,0.12 -0.26,0.38 0.05,-0.07 -0.31,0.53 -0.05,0.07 -0.24,0.39 v 0 l -0.27,0.43 v 0.02 l -0.38,0.58 c -0.07,0.09 -0.14,0.21 -0.22,0.31 l -0.16,0.19 0.16,-0.19 -0.45,0.65 0.02,-0.03 -0.67,1.01 -0.19,0.27 -0.31,0.38 v 0 l -0.17,0.22 0.02,-0.03 -0.45,0.55 v 0 l -1.23,1.56 -0.05,0.05 -0.19,0.24 0.03,-0.05 -0.68,0.84 -0.09,0.15 -0.48,0.53 -0.19,0.21 -0.2,0.17 0.1,-0.07 -0.38,0.38 0.04,-0.02 -0.91,0.96 0.03,-0.05 -1.01,1.13 0.05,-0.05 -0.6,0.67 -0.15,0.15 -0.19,0.19 v 0.02 l -0.14,0.12 -0.12,0.12 -0.05,0.05 0.43,-0.46 -0.02,0.05 -0.12,0.12 -0.63,0.72 -0.05,0.05 -0.31,0.34 -0.02,0.04 -0.67,0.7 -0.15,0.17 -0.26,0.24 0.05,-0.03 -0.22,0.22 0.19,-0.19 -0.09,0.09 v 0 l -0.1,0.1 0.02,-0.02 -0.48,0.57 -0.16,0.17 -0.24,0.26 0.04,-0.07 -0.43,0.48 0.1,-0.14 -0.24,0.31 -0.05,0.05 -0.36,0.38 c -0.07,0.12 -0.17,0.22 -0.26,0.29 l -0.12,0.12 0.19,-0.19 -0.34,0.36 -0.02,0.02 -0.22,0.24 0.07,-0.09 -0.28,0.36 -0.1,0.07 -0.38,0.43 v 0 l -0.58,0.62 0.1,-0.09 -0.29,0.31 0.07,-0.07 -0.36,0.45 0.05,-0.07 -0.41,0.51 c -0.07,0.09 -0.14,0.21 -0.24,0.31 l -0.65,0.65 0.19,-0.22 -0.26,0.31 -0.05,0.05 -0.26,0.31 -0.17,0.19 -0.02,0.03 0.09,-0.12 -0.31,0.36 0.22,-0.27 -0.12,0.15 -0.1,0.12 -0.19,0.26 c -0.12,0.15 -0.24,0.29 -0.39,0.41 l -0.07,0.07 0.19,-0.21 -0.24,0.26 0.08,-0.07 -0.32,0.36 -0.12,0.12 -0.19,0.17 v 0.02 l -0.26,0.26 v 0 l -0.24,0.24 0.17,-0.19 -0.1,0.12 -0.05,0.07 -0.31,0.32 h 0.02 l -0.21,0.24 -0.15,0.14 -0.86,0.84 -0.07,0.1 -0.65,0.6 h -0.02 l -0.34,0.31 0.12,-0.12 -0.43,0.43 0.12,-0.12 -0.19,0.22 -0.1,0.07 -0.65,0.65 c -0.07,0.09 -0.14,0.16 -0.24,0.26 l -0.33,0.24 0.07,-0.05 -0.31,0.29 0.02,-0.02 -0.12,0.09 0.12,-0.12 -0.6,0.6 0.02,-0.02 -0.72,0.72 0.03,-0.03 -0.58,0.58 0.15,-0.12 -0.27,0.29 v 0 l -0.31,0.36 0.19,-0.24 -0.19,0.26 0.05,-0.07 -0.07,0.1 0.02,-0.05 -0.12,0.24 c -0.07,0.09 -0.17,0.19 -0.24,0.29 l -0.07,0.09 0.02,-0.05 -0.12,0.15 -0.05,0.07 -0.19,0.24 -0.21,0.22 -0.08,0.07 v 0 l -0.45,0.45 0.07,-0.07 -0.17,0.17 0.03,-0.02 -0.2,0.21 0.24,-0.31 -0.07,0.12 -0.09,0.12 -0.1,0.1 0.14,-0.17 -0.76,1.08 -0.1,0.14 -0.14,0.17 c -0.1,0.14 -0.22,0.26 -0.34,0.38 l -0.05,0.08 0.1,-0.12 -0.12,0.12 0.12,-0.12 -0.6,0.67 0.21,-0.24 -0.09,0.09 -0.07,0.12 -0.12,0.15 v 0 l -0.08,0.07 0.15,-0.17 -0.05,0.07 0.02,-0.04 -0.24,0.4 -0.07,0.1 -0.05,0.05 -0.02,0.05 -0.6,0.86 -0.1,0.12 -0.14,0.22 c -0.12,0.12 -0.24,0.26 -0.38,0.38 l -0.08,0.05 0.24,-0.24 -0.09,0.12 0.09,-0.12 -0.04,0.07 -0.15,0.17 -0.05,0.05 0.39,-0.53 -0.05,0.07 -0.12,0.22 -0.05,0.04 0.12,-0.16 -0.05,0.07 c -0.14,0.26 -0.36,0.5 -0.57,0.72 h -0.03 l 0.63,-0.79 -0.03,0.02 c -0.14,0.31 -0.36,0.58 -0.62,0.82 h -0.02 c -0.24,0.24 -0.53,0.43 -0.84,0.55 l -0.03,0.02 1.18,-0.91 -0.03,0.05 c -0.24,0.29 -0.55,0.55 -0.86,0.74 l -0.05,0.03 0.55,-0.41 h -0.02 l -0.17,0.17 -0.07,0.04 0.17,-0.14 -0.03,0.02 v 0 l -0.02,0.03 0.26,-0.29 v 0.02 l -0.02,0.03 -0.05,0.05 0.07,-0.1 -0.07,0.1 -0.12,0.14 -0.12,0.14 0.12,-0.16 -0.29,0.4 V 438 l -0.31,0.41 -0.05,0.07 -0.04,0.05 c -0.08,0.12 -0.17,0.19 -0.27,0.29 l -0.19,0.19 -0.07,0.07 -0.1,0.07 -0.21,0.19 -0.05,0.03 0.43,-0.39 -0.05,0.05 v 0 l -0.02,0.03 v 0 l -0.03,0.04 0.27,-0.36 -0.05,0.08 -0.1,0.14 -0.04,0.05 0.38,-0.67 -0.02,0.04 -0.05,0.12 -0.03,0.05 0.12,-0.31 v 0 l 0.1,-0.46 v 0.03 c -0.05,0.41 -0.22,0.81 -0.43,1.15 l -0.03,0.02 v 0 0.03 c -0.14,0.24 -0.33,0.43 -0.55,0.6 v 0.02 l 0.89,-1.32 v 0 c -0.1,0.27 -0.22,0.51 -0.36,0.72 v 0.03 c -0.34,0.5 -0.84,0.91 -1.44,1.12 v 0 l 1.42,-1.12 v 0 0 l -0.03,0.02 c -0.17,0.26 -0.41,0.5 -0.65,0.7 l -0.04,0.04 -0.08,0.05 -0.02,0.03 c -0.12,0.07 -0.24,0.16 -0.36,0.24 h -0.05 l 1.27,-1.28 v 0.03 c -0.21,0.41 -0.5,0.77 -0.86,1.03 l -0.02,0.02 0.52,-0.52 v 0 l 0.22,-0.29 -0.02,0.05 c -0.22,0.31 -0.46,0.57 -0.77,0.79 l -0.03,0.02 1.11,-1.58 h -0.03 c -0.14,0.55 -0.45,1.08 -0.88,1.44 l -0.1,0.09 0.55,-0.62 h -0.02 c -0.19,0.34 -0.46,0.6 -0.77,0.82 v 0 c -0.6,0.4 -1.32,0.57 -2.04,0.48 v -0.03 l 2.78,-1.25 -0.02,0.03 0.36,-0.72 v 0 c -0.22,0.6 -0.6,1.15 -1.13,1.51 v 0 l 1.11,-1.51 v 0 c -0.2,0.65 -0.58,1.17 -1.13,1.53 h -0.03 l 0.82,-0.81 v 0.02 c -0.7,1.06 -2.02,1.54 -3.24,1.15 v 0 c -1.42,-0.45 -2.23,-1.94 -1.85,-3.38 0.36,-1.44 1.8,-2.33 3.27,-2.04 1.46,0.29 2.42,1.68 2.2,3.17 v 0 c -0.02,0.29 -0.12,0.55 -0.24,0.79 v 0.05 c -0.36,0.69 -0.96,1.25 -1.72,1.49 h -0.03 l 1.92,-2.09 v 0 c -0.12,0.65 -0.48,1.2 -1.01,1.61 v 0.02 c -0.12,0.1 -0.24,0.17 -0.38,0.26 v 0 l 0.89,-0.81 v 0.02 c -0.24,0.31 -0.53,0.58 -0.89,0.79 v 0 l 0.79,-0.67 -0.05,0.03 c -0.16,0.24 -0.4,0.43 -0.67,0.6 v 0 c -0.17,0.12 -0.36,0.21 -0.55,0.28 h -0.05 l 1.42,-1.08 -0.03,0.03 0.34,-0.65 v 0.02 l -0.1,0.2 v 0.02 c -0.24,0.5 -0.6,0.94 -1.03,1.22 h -0.02 l 0.81,-0.79 -0.02,0.03 c -0.22,0.31 -0.48,0.6 -0.82,0.79 h -0.02 l 0.91,-0.94 -0.07,0.15 c -0.53,0.93 -1.61,1.44 -2.69,1.29 -1.05,-0.14 -1.94,-0.91 -2.23,-1.97 z"
         style="fill:#000000;fill-opacity:1;fill-rule:nonzero;stroke:none"
         transform="matrix(1.3333333,0,0,-1.3333333,0,1120.8)" />
    </g>
    <g
       id="g166">
      <path
         id="path166"
         d="m 305.59,410.21 -0.14,-0.29 v 0 l -0.15,-0.29 0.08,0.12 -0.41,-0.79 -0.05,-0.05 -0.48,-0.98 h 0.02 l -1.39,-2.79 -0.05,-0.09 -0.57,-1.25 0.07,0.12 -2.78,-5.35 -0.03,-0.05 -0.21,-0.38 -0.05,-0.1 -1.18,-2.66 -0.05,-0.05 -0.19,-0.51 -0.07,-0.16 -0.67,-1.88 -0.1,-0.28 -0.02,-0.15 c -0.27,-1.05 0.07,-2.18 0.86,-2.93 0.79,-0.76 1.95,-1.03 3,-0.72 1.03,0.32 1.83,1.18 2.07,2.24 l 0.04,0.14 -0.04,-0.14 0.55,1.89 -0.05,-0.12 0.19,0.53 -0.05,-0.12 1.01,2.71 -0.05,-0.17 0.17,0.41 v -0.02 l 2.55,5.47 0.04,0.14 0.53,1.3 v 0 l 1.13,2.9 0.05,0.12 0.33,1.04 -0.04,-0.17 0.33,0.81 c 0.07,0.17 0.12,0.34 0.17,0.51 l 0.05,0.31 v 0 l 0.07,0.31 c 0.19,1.18 -0.48,2.33 -1.63,2.69 -1.15,0.36 -2.38,-0.19 -2.86,-1.27 z"
         style="fill:#000000;fill-opacity:1;fill-rule:nonzero;stroke:none"
         transform="matrix(1.3333333,0,0,-1.3333333,0,1120.8)" />
    </g>
    <g
       id="g167">
      <path
         id="path167"
         d="m 316.15,406.75 -0.21,-0.21 c -0.15,-0.2 -0.27,-0.36 -0.36,-0.56 l -1.13,-2.25 -0.03,-0.05 -1.7,-3.58 v -0.07 l -1.7,-3.74 -0.05,-0.1 -0.29,-0.77 0.02,0.1 -0.4,-0.94 -0.12,-0.28 -0.7,-2.19 -0.07,-0.29 -0.17,-0.74 0.34,0.89 -0.03,-0.07 c -0.6,-1.04 -0.55,-2.31 0.12,-3.29 0.65,-0.99 1.8,-1.54 2.98,-1.42 1.17,0.12 2.18,0.91 2.61,1.99 l 0.05,0.08 c 0.07,0.24 0.15,0.5 0.17,0.76 l 0.12,0.72 -0.1,-0.38 0.58,2.21 -0.02,-0.1 0.28,0.96 -0.02,-0.12 0.26,0.79 -0.04,-0.12 1.48,3.84 -0.02,-0.02 1.49,3.67 0.05,0.1 0.84,2.37 -0.03,-0.02 0.12,0.29 c 0.41,1.15 -0.02,2.45 -1.1,3.07 -1.06,0.62 -2.43,0.41 -3.22,-0.53 z"
         style="fill:#000000;fill-opacity:1;fill-rule:nonzero;stroke:none"
         transform="matrix(1.3333333,0,0,-1.3333333,0,1120.8)" />
    </g>
    <g
       id="g168">
      <path
         id="path168"
         d="m 296.52,387.38 0.46,-0.09 c 0.16,-0.03 0.33,-0.05 0.5,-0.07 l 2.95,-0.08 h 0.15 l 2.97,0.08 h -0.17 l 1.8,-0.08 h -0.07 l 5.98,-0.28 h -0.12 l 3.55,-0.29 0.14,-0.03 h 0.32 l -1.66,0.48 0.07,-0.02 c 0.51,-0.29 1.06,-0.46 1.63,-0.5 h 0.08 v 0 h 0.04 v 0 h 0.08 0.04 0.1 -0.24 0.02 c 0.29,-0.03 0.58,-0.03 0.87,0.02 l 0.21,0.02 -0.38,-0.02 h 0.02 c 1.97,0.05 3.53,1.66 3.53,3.6 0,1.94 -1.56,3.55 -3.53,3.6 h -0.02 c -0.22,0 -0.46,0 -0.7,-0.05 l -0.21,-0.05 0.21,0.05 h -0.02 0.24 -0.1 -0.04 -0.08 v 0 h -0.04 v 0 h -0.08 l 1.73,-0.36 -0.07,0.05 c -0.53,0.24 -1.13,0.36 -1.7,0.34 l -0.32,-0.03 h 0.2 l -3.56,0.05 h -0.09 l -5.98,-0.1 h -0.05 l -1.8,-0.07 h -0.28 l -2.93,-0.36 h -0.07 l -2.93,-0.41 h 0.21 l -0.48,-0.02 c -1.36,-0.1 -2.44,-1.18 -2.54,-2.52 -0.1,-1.37 0.82,-2.57 2.16,-2.86 z"
         style="fill:#000000;fill-opacity:1;fill-rule:nonzero;stroke:none"
         transform="matrix(1.3333333,0,0,-1.3333333,0,1120.8)" />
    </g>
    <g
       id="g169">
      <path
         id="path169"
         d="m 295.68,444.72 0.26,-0.1 c 0.2,-0.09 0.44,-0.14 0.65,-0.16 h 0.05 c 0.74,-0.05 1.46,0.33 1.85,0.96 0.38,0.64 0.38,1.46 0,2.11 -0.39,0.62 -1.11,1.01 -1.85,0.96 h -0.05 c -0.98,-0.07 -1.8,-0.84 -1.89,-1.83 v -0.28 c -0.08,-0.72 0.31,-1.4 0.98,-1.66 z"
         style="fill:#000000;fill-opacity:1;fill-rule:nonzero;stroke:none"
         transform="matrix(1.3333333,0,0,-1.3333333,0,1120.8)" />
    </g>
  </g>
</svg>
