<?xml version="1.0" encoding="UTF-8" standalone="no"?>
<!-- Created with Inkscape (http://www.inkscape.org/) -->

<svg
   version="1.1"
   id="svg1"
   width="67.386292"
   height="33.506664"
   viewBox="0 0 67.386292 33.506663"
   sodipodi:docname="word2.svg"
   inkscape:version="1.4.3 (0d15f75, 2025-12-25)"
   xmlns:inkscape="http://www.inkscape.org/namespaces/inkscape"
   xmlns:sodipodi="http://sodipodi.sourceforge.net/DTD/sodipodi-0.dtd"
   xmlns="http://www.w3.org/2000/svg"
   xmlns:svg="http://www.w3.org/2000/svg">
  <defs
     id="defs1">
    <clipPath
       clipPathUnits="userSpaceOnUse"
       id="clipPath2">
      <path
         d="M -3.0240001,1.27 H 45.408001 V -4.2020001 H -3.0240001 Z"
         clip-rule="evenodd"
         id="path2" />
    </clipPath>
    <clipPath
       clipPathUnits="userSpaceOnUse"
       id="clipPath4">
      <path
         d="M -3.0240001,1.2799975 H 40.032001 V -4.1920026 H -3.0240001 Z"
         clip-rule="evenodd"
         id="path4" />
    </clipPath>
    <clipPath
       clipPathUnits="userSpaceOnUse"
       id="clipPath6">
      <path
         d="M -3.0240001,1.2700025 H 35.160001 V -4.2019976 H -3.0240001 Z"
         clip-rule="evenodd"
         id="path6" />
    </clipPath>
    <clipPath
       clipPathUnits="userSpaceOnUse"
       id="clipPath8">
      <path
         d="M -3.0240001,1.2700025 H 35.160001 V -4.1779976 H -3.0240001 Z"
         clip-rule="evenodd"
         id="path8" />
    </clipPath>
    <clipPath
       clipPathUnits="userSpaceOnUse"
       id="clipPath10">
      <path
         d="M -3.0240001,1.27 H 102.556 V -4.2020001 H -3.0240001 Z"
         clip-rule="evenodd"
         id="path10" />
    </clipPath>
    <clipPath
       clipPathUnits="userSpaceOnUse"
       id="clipPath12">
      <path
         d="M -3.0240001,1.27 H 38.184001 V -4.2020001 H -3.0240001 Z"
         clip-rule="evenodd"
         id="path12" />
    </clipPath>
    <clipPath
       clipPathUnits="userSpaceOnUse"
       id="clipPath14">
      <path
         d="M -3.0240001,1.2700025 H 36.432001 V -4.2019976 H -3.0240001 Z"
         clip-rule="evenodd"
         id="path14" />
    </clipPath>
    <clipPath
       clipPathUnits="userSpaceOnUse"
       id="clipPath16">
      <path
         d="M -3.0240001,1.2799975 H 101.136 V -4.1920026 H -3.0240001 Z"
         clip-rule="evenodd"
         id="path16" />
    </clipPath>
    <clipPath
       clipPathUnits="userSpaceOnUse"
       id="clipPath18">
      <path
         d="M -3.0240001,1.2799975 H 36.432001 V -4.1920026 H -3.0240001 Z"
         clip-rule="evenodd"
         id="path18" />
    </clipPath>
    <clipPath
       clipPathUnits="userSpaceOnUse"
       id="clipPath20">
      <path
         d="M -3.0240001,1.2700025 H 36.432001 V -4.2019976 H -3.0240001 Z"
         clip-rule="evenodd"
         id="path20" />
    </clipPath>
    <clipPath
       clipPathUnits="userSpaceOnUse"
       id="clipPath330">
      <path
         d="M -3.0240001,2.2300001 H 43.056001 V -7.6820002 H -3.0240001 Z"
         clip-rule="evenodd"
         id="path330" />
    </clipPath>
    <clipPath
       clipPathUnits="userSpaceOnUse"
       id="clipPath332">
      <path
         d="M -3.0240001,1.1099998 H 42.768001 V -3.8580003 H -3.0240001 Z"
         clip-rule="evenodd"
         id="path332" />
    </clipPath>
    <clipPath
       clipPathUnits="userSpaceOnUse"
       id="clipPath334">
      <path
         d="M -3.0240001,1.1099998 H 19.152 V -3.8580003 H -3.0240001 Z"
         clip-rule="evenodd"
         id="path334" />
    </clipPath>
    <clipPath
       clipPathUnits="userSpaceOnUse"
       id="clipPath336">
      <path
         d="M -3.0240001,0.98400002 H 18.744 V -3.5040001 H -3.0240001 Z"
         clip-rule="evenodd"
         id="path336" />
    </clipPath>
    <clipPath
       clipPathUnits="userSpaceOnUse"
       id="clipPath338">
      <path
         d="M -92.016002,0.98400002 H 150.124 V -3.5040001 H -92.016002 Z"
         clip-rule="evenodd"
         id="path338" />
    </clipPath>
    <clipPath
       clipPathUnits="userSpaceOnUse"
       id="clipPath340">
      <path
         d="M -15.670003,0.98400002 H 6.1219977 V -3.5040001 H -15.670003 Z"
         clip-rule="evenodd"
         id="path340" />
    </clipPath>
  </defs>
  <sodipodi:namedview
     id="namedview1"
     pagecolor="#ffffff"
     bordercolor="#000000"
     borderopacity="0.25"
     inkscape:showpageshadow="2"
     inkscape:pageopacity="0.0"
     inkscape:pagecheckerboard="0"
     inkscape:deskcolor="#d1d1d1"
     inkscape:zoom="1.6785563"
     inkscape:cx="-7.1490008"
     inkscape:cy="82.511384"
     inkscape:window-width="1920"
     inkscape:window-height="1191"
     inkscape:window-x="-9"
     inkscape:window-y="-9"
     inkscape:window-maximized="1"
     inkscape:current-layer="g1">
    <inkscape:page
       x="0"
       y="0"
       inkscape:label="1"
       id="page1"
       width="67.386292"
       height="33.506664"
       margin="0"
       bleed="0" />
  </sodipodi:namedview>
  <g
     id="g1"
     inkscape:groupmode="layer"
     inkscape:label="1"
     transform="translate(-199.04037,-107.84003)">
    <g
       id="g61">
      <path
         id="path61"
         d="m 151.25,754.58 0.29,0.44 0.02,0.04 0.24,0.36 -0.05,-0.07 0.24,0.34 v 0 l 0.75,0.98 c 0.12,0.17 0.21,0.39 0.24,0.6 v 0.03 l -0.53,-0.89 0.02,0.02 c 0.31,0.22 0.51,0.55 0.55,0.94 v 0.02 L 153,757.34 v 0 l -1.42,-1.1 h 0.03 c 0.31,-0.05 0.62,0.05 0.89,0.24 h 0.02 c 0.31,0.22 0.5,0.53 0.55,0.89 v 0.02 l -1.44,-1.13 h 0.03 c 0.33,-0.02 0.64,0.05 0.91,0.24 l 0.02,0.03 c 0.31,0.21 0.51,0.55 0.53,0.93 v 0.03 c 0.07,0.72 -0.46,1.37 -1.18,1.44 -0.72,0.05 -1.34,-0.46 -1.41,-1.18 -0.07,-0.72 0.43,-1.37 1.15,-1.44 h 0.02 l -0.86,0.46 0.02,-0.03 c 0.24,-0.26 0.6,-0.45 0.99,-0.45 0.38,0 0.74,0.14 0.98,0.43 l 0.03,0.02 -1.11,-0.4 0.03,-0.03 c 0.72,-0.07 1.34,0.43 1.44,1.15 v 0.03 l -1.47,-1.15 h 0.03 0.02 0.02 c 0.32,-0.05 0.65,0.04 0.92,0.24 l 0.02,0.02 -1.08,-0.22 h 0.05 c 0.36,-0.09 0.74,-0.02 1.05,0.22 h 0.03 l -0.84,-0.24 h 0.07 l -1.03,0.55 0.02,-0.02 c 0.24,-0.34 0.6,-0.55 1.03,-0.55 l 0.05,-0.03 -1.15,0.77 v -0.02 c 0.14,-0.27 0.36,-0.51 0.65,-0.63 l 0.05,-0.02 -0.24,0.12 0.04,-0.03 0.08,-0.04 0.04,-0.03 -0.04,0.03 0.04,-0.03 -0.57,1.25 v -0.02 c -0.05,-0.51 0.19,-1.01 0.62,-1.28 l 0.03,-0.02 c 0.19,-0.12 0.4,-0.19 0.62,-0.22 h 0.02 l -1.15,0.82 0.03,-0.05 c 0.04,-0.12 0.12,-0.21 0.19,-0.31 l 0.07,-0.07 h -0.02 l 0.09,-0.12 v 0.02 l 0.1,-0.12 -0.15,0.22 0.08,-0.17 0.04,-0.07 0.22,-0.39 -0.07,0.2 0.02,-0.1 c 0.03,-0.05 0.05,-0.1 0.07,-0.17 l 0.05,-0.09 v 0.04 l 0.05,-0.12 c 0.02,-0.09 0.07,-0.16 0.12,-0.24 l 0.1,-0.12 h 0.02 l 0.07,-0.09 -0.17,0.24 0.08,-0.12 c 0.04,-0.12 0.12,-0.24 0.21,-0.34 l 0.07,-0.09 v 0 l 0.1,-0.08 c 0.02,-0.04 0.07,-0.09 0.12,-0.14 l 0.26,-0.22 -0.5,1.08 v -0.02 c 0,-0.36 0.14,-0.72 0.41,-0.98 0.26,-0.27 0.62,-0.44 0.98,-0.44 h 0.03 l -1.3,0.92 0.02,-0.05 c 0.2,-0.53 0.72,-0.89 1.28,-0.89 h 0.04 l -0.91,0.34 0.03,-0.03 c 0.24,-0.21 0.57,-0.33 0.88,-0.33 h 0.05 -0.02 0.02 0.03 v 0 0 0 h 0.02 0.02 v 0 h 0.03 v 0 h 0.02 v 0 h 0.03 l -0.56,0.12 0.05,-0.03 c 0.15,-0.05 0.31,-0.09 0.51,-0.09 v 0 h 0.04 0.03 c 0.31,0 0.65,0.09 0.89,0.31 l 0.02,0.02 -0.89,-0.31 h 0.03 c 0.76,-0.02 1.39,0.6 1.39,1.37 v 0.05 l -1.39,-1.4 v 0 c 0.79,0 1.41,0.6 1.41,1.4 v 0.02 c 0.03,0.77 -0.6,1.39 -1.39,1.39 -0.77,0.03 -1.39,-0.6 -1.39,-1.37 -0.03,-0.79 0.6,-1.41 1.37,-1.41 h 0.02 c 0.19,-0.03 0.38,0.02 0.58,0.09 l 0.02,0.03 c 0.19,0.07 0.34,0.17 0.46,0.31 l 0.07,0.05 -0.19,-0.15 0.07,0.05 0.09,0.07 0.08,0.05 v 0 l 0.09,0.07 c 0.03,0.05 0.07,0.1 0.12,0.12 l 0.12,0.15 -0.07,-0.07 0.26,0.24 c 0.05,0.04 0.08,0.09 0.12,0.14 l 0.05,0.07 0.07,0.07 0.05,0.08 -0.55,-0.48 0.07,0.04 c 0.24,0.12 0.43,0.29 0.58,0.48 l 0.05,0.1 0.04,0.07 0.03,0.05 -0.05,-0.07 0.05,0.07 v 0 l 0.12,0.17 c 0.05,0.05 0.07,0.12 0.12,0.19 l 0.02,0.05 c 0.07,0.19 0.12,0.38 0.15,0.6 v 0.07 l -0.89,-1.3 0.05,0.03 c 0.36,0.14 0.62,0.43 0.76,0.77 l 0.03,0.04 -0.03,-0.07 0.03,0.05 -0.39,-0.46 0.05,0.03 v 0 l 0.05,0.05 c 0.17,0.12 0.29,0.28 0.38,0.45 l 0.03,0.07 -0.75,-0.69 0.05,0.02 c 0.29,0.1 0.51,0.31 0.67,0.55 l 0.03,0.05 -0.31,-0.33 0.07,0.04 -0.03,-0.02 0.05,0.02 -0.21,-0.14 0.07,0.05 c 0.07,0.05 0.14,0.09 0.19,0.14 l 0.05,0.03 -0.22,-0.15 0.07,0.03 h -0.02 l 0.12,0.07 -0.67,-0.17 h 0.02 v 0 h 0.03 l -0.27,0.02 h 0.05 c 0.1,-0.02 0.19,-0.02 0.29,-0.02 h 0.02 l -0.91,0.34 0.02,-0.03 c 0.24,-0.21 0.56,-0.33 0.89,-0.33 h 0.03 v 0 h 0.02 v 0 h 0.05 l -1.11,0.52 0.03,-0.02 c 0.26,-0.34 0.67,-0.55 1.1,-0.55 h 0.05 l -0.94,0.36 0.05,-0.03 c 0.1,-0.09 0.22,-0.16 0.36,-0.24 l 0.05,-0.02 -0.77,0.79 0.03,-0.02 c 0.19,-0.53 0.72,-0.89 1.29,-0.91 h 0.03 c 0.79,0 1.44,0.62 1.44,1.41 0,0.77 -0.63,1.42 -1.42,1.42 -0.77,0.02 -1.42,-0.6 -1.42,-1.39 v -0.03 c -0.02,-0.41 0.17,-0.81 0.48,-1.08 l 0.03,-0.02 h 0.02 l 0.05,-0.05 -0.12,0.12 0.07,-0.1 0.05,-0.04 0.07,-0.08 -0.26,0.36 0.02,-0.07 c 0.05,-0.05 0.07,-0.12 0.12,-0.17 l 0.17,-0.24 -0.1,0.17 0.15,-0.29 0.02,-0.04 0.1,-0.15 -0.1,0.17 0.07,-0.14 c 0.03,-0.08 0.08,-0.15 0.1,-0.22 l 0.1,-0.12 0.02,-0.07 0.26,-0.34 0.03,-0.05 0.02,-0.02 c 0.07,-0.07 0.15,-0.14 0.22,-0.22 h 0.02 l -0.24,0.24 0.03,-0.04 c 0.26,-0.36 0.69,-0.58 1.15,-0.58 h 0.02 l -1.22,0.7 0.02,-0.05 c 0.1,-0.15 0.19,-0.27 0.31,-0.36 l 0.05,-0.03 v 0 l 0.03,-0.02 c 0.24,-0.22 0.57,-0.34 0.91,-0.34 h 0.05 l -0.7,0.17 0.02,-0.02 -0.04,0.05 0.02,-0.03 c 0.07,-0.05 0.14,-0.07 0.22,-0.12 l 0.04,-0.02 -0.67,0.6 0.03,-0.03 c 0.19,-0.33 0.52,-0.57 0.93,-0.67 h 0.05 c 0.1,-0.02 0.19,-0.05 0.29,-0.05 h 0.02 v 0 h 0.05 l -0.91,0.36 0.02,-0.02 c 0.27,-0.22 0.58,-0.34 0.91,-0.34 h 0.05 v 0 h 0.05 -0.14 0.09 c 0.12,-0.02 0.27,-0.02 0.41,0 l 0.12,0.03 0.05,0.02 0.09,0.03 c 0.08,0.02 0.15,0.04 0.22,0.07 l 0.1,0.02 -0.22,-0.05 h 0.07 c 0.12,0.03 0.24,0.08 0.34,0.12 l 0.09,0.08 -0.04,-0.03 0.09,0.03 -0.07,-0.03 0.1,0.05 0.14,0.07 0.07,0.05 c 0.05,0.02 0.1,0.05 0.15,0.1 l 0.24,0.16 -0.12,-0.07 0.21,0.12 0.07,0.05 0.2,0.14 0.02,0.03 0.19,0.12 c 0.05,0.05 0.1,0.09 0.15,0.14 l 0.14,0.15 v 0 l 0.43,0.4 v 0.03 l 0.58,0.57 -0.43,-0.28 h 0.04 c 0.51,0.24 0.84,0.76 0.84,1.32 v 0.02 l -0.48,-1.08 0.03,0.02 -0.22,-0.16 0.03,0.02 c 0.26,0.14 0.45,0.36 0.57,0.62 l 0.03,0.05 -1.25,-0.81 h 0.02 c 0.17,0.02 0.36,0.04 0.53,0.12 l 0.05,0.02 c 0.14,0.05 0.26,0.14 0.36,0.24 h 0.02 v 0 l 0.03,0.02 -0.89,-0.33 h 0.02 c 0.34,0 0.65,0.12 0.91,0.33 l 0.03,0.03 -0.89,-0.34 v 0 0 h 0.05 c 0.33,0 0.65,0.12 0.91,0.34 v 0.02 l -0.89,-0.33 h 0.05 c 0.14,0 0.31,0.02 0.46,0.07 l 0.04,0.02 -0.45,-0.07 h 0.07 l -0.91,0.31 0.02,-0.02 v 0 l 0.05,-0.03 c 0.24,-0.21 0.55,-0.33 0.89,-0.33 h 0.05 l 0.02,0.02 v 0 l -0.7,0.17 0.05,-0.02 -0.41,0.33 0.03,-0.02 c 0.14,-0.17 0.33,-0.31 0.55,-0.41 l 0.05,-0.02 -0.15,0.07 0.05,-0.03 -0.07,0.03 0.05,-0.03 -0.29,0.27 0.02,-0.05 -0.36,0.91 v -0.02 c 0,-0.41 0.2,-0.79 0.51,-1.06 l 0.07,-0.07 h 0.02 l 0.05,-0.05 -0.36,0.43 0.05,-0.07 c 0.02,-0.05 0.05,-0.09 0.1,-0.14 l 0.02,-0.07 c 0.05,-0.05 0.1,-0.1 0.12,-0.15 l 0.05,-0.05 -0.12,0.15 0.05,-0.05 -0.15,0.26 0.05,-0.09 c 0.02,-0.12 0.1,-0.22 0.17,-0.31 l 0.02,-0.05 -0.19,0.36 0.02,-0.07 v 0 l 0.03,-0.08 0.02,-0.04 0.07,-0.17 -0.09,0.48 v -0.1 c 0,-0.09 0.02,-0.19 0.05,-0.29 v -0.04 c 0.02,-0.12 0.07,-0.22 0.12,-0.34 l 0.02,-0.05 c 0.02,-0.05 0.07,-0.09 0.12,-0.17 l 0.02,-0.04 -0.24,0.98 v -0.1 c -0.04,-0.36 0.05,-0.74 0.32,-1.05 l 0.04,-0.05 -0.04,0.05 0.04,-0.05 -0.12,0.14 0.05,-0.07 c 0.05,-0.05 0.07,-0.12 0.12,-0.17 l 0.03,-0.04 -0.05,0.07 0.02,-0.03 c 0.05,-0.07 0.07,-0.12 0.12,-0.16 l 0.05,-0.08 -0.05,0.08 0.05,-0.05 0.1,-0.12 0.12,-0.12 c 0.04,-0.05 0.07,-0.1 0.12,-0.12 l 0.02,-0.03 c 0.26,-0.19 0.58,-0.31 0.89,-0.31 h 0.02 0.03 0.02 v 0 h 0.02 -0.02 0.05 0.02 l 0.03,0.03 -1.3,0.81 0.02,-0.02 c 0.22,-0.51 0.72,-0.84 1.28,-0.84 h 0.04 v 0 h 0.03 v 0 h 0.02 v 0 h 0.03 c 0.33,0.02 0.64,0.12 0.86,0.33 l 0.02,0.03 -0.84,-0.34 h 0.03 -0.03 0.05 0.03 0.02 0.02 v 0 c 0.17,0.03 0.34,0.05 0.48,0.12 l 0.05,0.03 -0.5,-0.12 h 0.02 c 0.31,0.02 0.63,0.14 0.87,0.33 l 0.02,0.03 -0.22,-0.17 0.08,0.05 -0.08,-0.03 0.08,0.03 -0.08,-0.03 0.12,0.05 0.15,0.07 0.12,0.07 0.07,0.05 0.22,0.15 c 0.09,0.04 0.16,0.12 0.24,0.19 l 0.09,0.09 -0.21,-0.16 0.12,0.07 c 0.04,0.05 0.12,0.09 0.16,0.14 l 0.12,0.1 c 0.05,0.07 0.1,0.12 0.15,0.19 l 0.26,0.34 -0.05,-0.08 0.1,0.12 -0.07,-0.07 0.12,0.12 c 0.05,0.05 0.07,0.1 0.12,0.15 l 0.09,0.12 -0.21,-0.22 0.26,0.24 v 0 l 0.19,0.17 0.12,0.09 0.03,0.05 -0.15,-0.12 h 0.03 l 0.12,0.12 0.05,0.05 c 0.07,0.07 0.12,0.14 0.16,0.24 l 0.03,0.02 -0.63,-0.55 0.05,0.03 c 0.17,0.07 0.34,0.19 0.46,0.31 l 0.05,0.05 -0.46,-0.32 0.05,0.03 0.14,0.07 0.1,0.05 -0.65,-0.15 h 0.02 v 0 h 0.03 c 0.31,0 0.62,0.1 0.86,0.29 l 0.03,0.03 -0.87,-0.32 h 0.03 v 0 h 0.02 v 0 h 0.02 l -0.86,0.32 0.02,-0.03 c 0.24,-0.19 0.56,-0.29 0.87,-0.29 h 0.02 l -0.86,0.29 h 0.02 v 0 l 0.03,-0.02 c 0.24,-0.19 0.52,-0.31 0.84,-0.31 h 0.02 v 0 h 0.02 l -0.84,0.31 v -0.03 l -0.45,1.04 v -0.05 c 0,-0.72 0.6,-1.32 1.32,-1.32 h 0.02 v 0 h 0.03 l -0.87,0.31 0.03,-0.02 -0.46,1 v 0 c 0,-0.74 0.58,-1.34 1.32,-1.34 h 0.02 c 0.53,0 1.01,0.34 1.23,0.84 0.19,0.48 0.09,1.06 -0.29,1.44 -0.38,0.38 -0.96,0.48 -1.44,0.26 -0.5,-0.19 -0.82,-0.67 -0.82,-1.2 v -0.04 0 -0.03 c 0,-0.33 0.12,-0.67 0.39,-0.93 0.24,-0.24 0.57,-0.39 0.93,-0.39 v 0 l -1.1,0.6 0.12,-0.17 c 0.02,-0.04 0.07,-0.12 0.12,-0.16 l 0.1,-0.08 -0.15,0.17 0.07,-0.09 v -0.03 l 0.1,-0.12 -0.02,0.03 0.04,-0.1 v 0 l 0.08,-0.1 v 0 l 0.07,-0.09 -0.15,0.26 0.12,-0.29 h -0.02 l 0.02,-0.04 0.03,-0.08 0.02,-0.07 -0.05,0.19 v -0.04 l 0.05,-0.12 0.03,-0.08 c 0.02,-0.07 0.04,-0.12 0.07,-0.16 l 0.02,-0.08 c 0.1,-0.16 0.19,-0.31 0.34,-0.43 l 0.05,-0.02 -0.44,0.69 v -0.04 c 0.05,-0.15 0.12,-0.32 0.2,-0.44 l 0.04,-0.07 -0.02,0.07 0.02,-0.04 -0.04,0.07 0.04,-0.07 c 0.08,-0.15 0.17,-0.29 0.32,-0.41 l 0.12,-0.1 c 0.24,-0.19 0.52,-0.31 0.84,-0.31 h 0.02 c 0.74,0.02 1.34,0.6 1.32,1.34 0,0.72 -0.58,1.32 -1.32,1.32 -0.72,0 -1.32,-0.6 -1.32,-1.32 v -0.04 c 0,-0.48 0.26,-0.92 0.67,-1.16 l 0.05,-0.02 -0.22,0.14 0.03,-0.02 c 0.24,-0.19 0.55,-0.31 0.86,-0.31 h 0.03 l -1.06,0.5 0.02,-0.02 c 0.27,-0.31 0.65,-0.51 1.06,-0.51 v 0 0 h 0.05 l -1.32,1.32 v -0.02 c 0,-0.72 0.6,-1.32 1.32,-1.32 h 0.05 l -1.23,0.84 v -0.02 c 0.22,-0.51 0.7,-0.84 1.25,-0.84 h 0.02 v 0 h 0.03 v 0 h 0.05 v 0 h 0.02 v 0 0 0 h 0.05 v 0 h 0.02 v 0 h 0.03 v 0 h 0.04 v 0 h 0.03 c 0.31,0 0.6,0.12 0.84,0.31 l 0.02,0.02 -0.84,-0.31 h 0.03 c 0.16,0 0.33,0.02 0.5,0.1 l 0.05,0.02 -0.51,-0.1 h 0.03 c 0.24,0 0.45,0.05 0.65,0.17 l 0.14,0.07 0.12,0.08 0.12,0.09 -0.14,-0.09 0.12,0.04 c 0.07,0.05 0.16,0.12 0.24,0.2 l 0.12,0.07 -0.12,-0.07 0.12,0.07 c 0.07,0.05 0.14,0.12 0.21,0.19 l 0.1,0.1 -0.15,-0.12 0.12,0.07 v 0 l 0.1,0.09 c 0.12,0.08 0.22,0.2 0.31,0.32 l 0.1,0.14 -0.07,-0.1 0.19,0.24 -0.03,-0.02 0.27,0.31 0.02,0.05 0.19,0.22 -0.09,-0.12 0.07,0.07 c 0.12,0.12 0.22,0.29 0.29,0.45 l 0.02,0.08 -0.19,-0.34 0.07,0.1 -0.17,-0.2 0.03,0.03 0.09,0.07 0.08,0.07 v 0.03 l 0.07,0.04 -0.24,-0.19 0.14,0.1 c 0.05,0.02 0.1,0.07 0.15,0.09 l 0.02,0.03 -0.86,-0.29 h 0.04 c 0.46,0 0.89,0.24 1.13,0.62 v 0.03 l -0.26,-0.34 v 0.03 l -0.84,-0.32 h 0.02 c 0.41,0 0.79,0.2 1.03,0.51 l 0.03,0.02 -1.56,-0.38 0.02,-0.03 c 0.17,-0.07 0.34,-0.09 0.53,-0.09 h 0.02 v 0 h 0.03 v 0 0 0 h 0.02 v 0 h 0.07 v 0 h 0.03 v 0 0 0 h 0.02 v 0 h 0.03 l -0.7,0.21 0.05,-0.04 c 0.19,-0.12 0.45,-0.2 0.69,-0.2 h 0.03 l -1.13,0.65 v -0.02 c 0.24,-0.41 0.67,-0.65 1.13,-0.65 h 0.02 l -0.84,0.31 0.03,-0.02 -0.2,0.19 0.03,-0.02 c 0.26,-0.32 0.65,-0.51 1.03,-0.51 h 0.05 l -1.15,0.65 0.02,-0.02 c 0.07,-0.12 0.17,-0.24 0.29,-0.34 v -0.02 l -0.1,0.09 0.19,-0.17 h -0.02 l 0.17,-0.16 -0.12,0.14 0.12,-0.17 0.02,-0.05 0.15,-0.16 -0.05,0.04 0.33,-0.48 -0.09,0.15 0.12,-0.22 0.07,-0.09 0.14,-0.24 0.08,-0.12 0.48,-0.6 c 0.04,-0.05 0.07,-0.1 0.14,-0.15 l 0.17,-0.19 c 0.55,-0.48 1.37,-0.46 1.87,0.05 0.5,0.53 0.48,1.37 -0.05,1.87 l -0.19,0.19 0.14,-0.14 -0.48,0.6 0.08,-0.12 -0.15,0.24 0.05,-0.1 -0.12,0.24 c -0.02,0.05 -0.05,0.1 -0.07,0.15 l -0.34,0.48 -0.05,0.07 -0.14,0.19 0.02,-0.05 -0.12,0.17 c -0.04,0.05 -0.07,0.1 -0.12,0.12 l -0.14,0.17 h -0.02 l -0.17,0.19 -0.1,0.07 -0.02,0.03 0.29,-0.34 v 0.02 c -0.24,0.39 -0.68,0.65 -1.13,0.65 h -0.05 l 1.06,-0.5 -0.05,0.02 c -0.05,0.07 -0.1,0.15 -0.17,0.19 l -0.02,0.03 c -0.24,0.19 -0.53,0.31 -0.87,0.31 h -0.02 l 1.15,-0.65 -0.02,0.03 c -0.24,0.4 -0.65,0.64 -1.13,0.64 h -0.03 l 0.7,-0.21 -0.05,0.02 c -0.19,0.15 -0.45,0.22 -0.69,0.22 h -0.03 v 0 h -0.02 v 0 0 0 h -0.03 v 0 h -0.07 v 0 h -0.02 v 0 0 0 h -0.03 v 0 h -0.02 l 0.5,-0.1 h -0.02 c -0.55,0.24 -1.18,0.07 -1.54,-0.41 l -0.02,-0.02 1.03,0.5 h -0.02 c -0.31,0 -0.6,-0.09 -0.84,-0.31 l -0.03,-0.02 c -0.12,-0.1 -0.21,-0.19 -0.28,-0.34 l -0.03,-0.02 1.15,0.65 h -0.04 c -0.29,0 -0.6,-0.1 -0.84,-0.32 h -0.03 l 0.15,0.1 -0.15,-0.1 c -0.07,-0.04 -0.17,-0.12 -0.24,-0.19 l -0.05,-0.05 h 0.03 l -0.1,-0.07 0.1,0.07 -0.05,-0.02 c -0.07,-0.07 -0.14,-0.12 -0.19,-0.19 l -0.07,-0.1 c -0.08,-0.09 -0.15,-0.21 -0.2,-0.33 l -0.02,-0.08 0.29,0.48 -0.07,-0.09 -0.1,-0.1 -0.17,-0.21 0.03,0.02 -0.29,-0.34 -0.03,-0.02 -0.19,-0.24 -0.05,-0.1 -0.09,-0.12 0.29,0.32 -0.1,-0.1 h -0.02 l -0.12,-0.1 c -0.05,-0.02 -0.1,-0.07 -0.15,-0.12 l -0.09,-0.12 0.19,0.17 -0.12,-0.07 -0.1,-0.1 -0.12,-0.07 0.27,0.17 -0.12,-0.07 c -0.05,-0.03 -0.12,-0.05 -0.17,-0.1 l -0.12,-0.07 0.09,0.05 -0.14,-0.07 0.65,0.16 h -0.03 c -0.19,0 -0.36,-0.02 -0.52,-0.09 l -0.05,-0.03 0.53,0.1 h -0.03 c -0.31,0 -0.62,-0.1 -0.86,-0.31 l -0.03,-0.03 0.87,0.32 h -0.03 v 0 h -0.04 v 0 h -0.03 v 0 h -0.02 v 0 h -0.05 v 0 0 0 h -0.02 v 0 h -0.05 v 0 h -0.03 v 0 h -0.02 l 1.22,-0.84 v 0.04 c -0.21,0.51 -0.69,0.84 -1.24,0.84 h -0.05 c -0.72,0 -1.32,-0.6 -1.32,-1.32 0,-0.74 0.57,-1.34 1.32,-1.34 0.72,0 1.32,0.6 1.32,1.32 v 0.02 c 0,0.36 -0.12,0.7 -0.39,0.94 -0.24,0.26 -0.57,0.38 -0.93,0.38 h -0.05 v 0 0 l 1.03,-0.48 -0.02,0.03 c -0.24,0.31 -0.63,0.5 -1.03,0.5 h -0.03 l 0.84,-0.31 -0.02,0.02 c -0.05,0.05 -0.12,0.1 -0.19,0.12 l -0.05,0.03 0.67,-1.15 v 0.04 c 0.02,0.72 -0.58,1.32 -1.32,1.32 h -0.02 l 0.86,-0.31 -0.12,0.07 0.34,-0.4 -0.05,0.07 -0.03,0.07 -0.02,0.05 -0.05,0.07 -0.05,0.07 0.2,-0.43 -0.03,0.02 c -0.05,0.29 -0.21,0.56 -0.43,0.72 l -0.05,0.05 0.34,-0.41 -0.03,0.08 0.05,-0.2 -0.02,0.08 0.05,-0.12 -0.03,0.04 c 0,0.08 -0.02,0.12 -0.05,0.2 l -0.02,0.04 0.02,-0.04 -0.02,0.07 v 0.02 l -0.12,0.29 c -0.02,0.1 -0.07,0.19 -0.12,0.29 l -0.07,0.09 -0.03,0.03 -0.04,0.09 v 0 l -0.08,0.08 v 0.04 l -0.09,0.12 0.02,-0.02 -0.07,0.07 c -0.02,0.07 -0.07,0.12 -0.12,0.17 l -0.1,0.1 0.15,-0.17 -0.12,0.17 c -0.24,0.36 -0.65,0.6 -1.11,0.6 v 0 l 1.32,-1.35 v 0.03 0 0.04 c 0,0.72 -0.6,1.32 -1.32,1.32 h -0.02 c -0.55,0 -1.03,-0.33 -1.22,-0.81 -0.22,-0.51 -0.1,-1.08 0.28,-1.47 0.36,-0.36 0.94,-0.48 1.44,-0.26 0.48,0.19 0.82,0.67 0.82,1.22 v 0 c 0,0.41 -0.17,0.77 -0.48,1.04 l -0.02,0.02 c -0.24,0.19 -0.53,0.29 -0.84,0.29 h -0.03 v 0 h -0.02 c -0.53,0 -1.01,-0.31 -1.23,-0.82 -0.19,-0.48 -0.09,-1.05 0.29,-1.44 0.39,-0.38 0.96,-0.48 1.44,-0.29 0.51,0.22 0.82,0.7 0.82,1.23 v 0.05 c 0,0.38 -0.17,0.74 -0.46,1 h -0.02 c -0.24,0.22 -0.55,0.34 -0.87,0.34 h -0.02 v 0 h -0.02 l 0.86,-0.34 -0.02,0.03 v 0 0.02 c -0.24,0.19 -0.56,0.31 -0.87,0.31 h -0.02 l 0.84,-0.31 -0.03,0.03 c -0.24,0.19 -0.52,0.31 -0.84,0.31 h -0.02 v 0 h -0.02 v 0 h -0.03 c -0.31,0 -0.62,-0.12 -0.84,-0.31 l -0.05,-0.03 0.87,0.31 h -0.03 v 0 h -0.02 c -0.22,0 -0.46,-0.07 -0.65,-0.16 l -0.09,-0.08 0.12,0.08 -0.05,-0.03 c -0.17,-0.07 -0.31,-0.17 -0.43,-0.31 l -0.05,-0.05 0.43,0.31 -0.05,-0.02 c -0.26,-0.1 -0.48,-0.29 -0.62,-0.55 l -0.03,-0.03 0.2,0.24 -0.05,-0.04 0.09,0.09 -0.02,-0.02 c -0.05,-0.05 -0.1,-0.1 -0.12,-0.15 l -0.05,-0.02 0.1,0.1 -0.19,-0.17 h 0.02 l -0.26,-0.22 c -0.08,-0.05 -0.12,-0.14 -0.2,-0.21 l -0.09,-0.12 0.12,0.14 -0.1,-0.12 -0.05,-0.05 -0.12,-0.12 -0.04,-0.07 -0.24,-0.34 0.14,0.2 -0.12,-0.12 0.17,0.12 -0.12,-0.08 c -0.07,-0.04 -0.15,-0.12 -0.22,-0.16 l -0.09,-0.12 0.21,0.16 -0.24,-0.14 0.1,0.07 -0.12,-0.07 0.14,0.07 -0.12,-0.05 -0.05,-0.02 -0.09,-0.05 -0.07,-0.05 -0.08,-0.02 c -0.07,-0.05 -0.14,-0.1 -0.19,-0.14 l -0.02,-0.03 0.86,0.31 h -0.02 c -0.17,0 -0.36,-0.02 -0.53,-0.09 l -0.05,-0.03 0.55,0.1 v 0 h -0.02 -0.02 -0.03 -0.05 0.03 -0.03 c -0.33,0.02 -0.64,-0.1 -0.88,-0.29 l -0.03,-0.02 0.87,0.29 h -0.03 v 0 h -0.02 v 0 h -0.03 v 0 l -0.04,0.02 1.24,-0.89 -0.02,0.03 c -0.19,0.52 -0.67,0.86 -1.22,0.88 h -0.03 -0.02 -0.05 0.02 -0.02 v 0 h -0.02 -0.03 -0.02 l 0.86,-0.33 -0.02,0.02 0.09,-0.12 -0.12,0.15 0.12,-0.17 -0.02,0.07 -0.07,0.1 -0.07,0.07 0.14,-0.22 -0.02,0.05 -0.05,0.1 -0.05,0.04 0.1,-0.12 -0.05,0.08 -0.1,0.14 -0.02,0.05 -0.05,0.07 -0.05,0.07 0.24,-1.08 0.03,0.07 c 0.07,0.34 0,0.7 -0.2,0.99 l -0.04,0.09 0.09,-0.21 -0.02,0.05 0.09,-0.32 v 0.05 l 0.03,-0.24 v 0.1 c 0,0.17 -0.03,0.36 -0.1,0.53 l -0.07,0.16 0.02,-0.07 -0.02,0.07 v 0 l -0.02,0.08 c -0.05,0.12 -0.1,0.24 -0.17,0.36 l -0.03,0.04 0.15,-0.28 -0.05,0.09 c -0.02,0.1 -0.07,0.19 -0.12,0.27 l -0.05,0.07 c -0.05,0.05 -0.07,0.09 -0.12,0.14 l -0.02,0.05 0.09,-0.14 -0.04,0.07 0.09,-0.15 -0.05,0.05 c -0.07,0.17 -0.19,0.31 -0.33,0.43 l -0.03,0.05 -0.02,0.03 -0.1,0.04 0.51,-1.05 v 0.02 c 0,0.34 -0.12,0.67 -0.34,0.94 l -0.05,0.05 c -0.07,0.09 -0.16,0.16 -0.28,0.24 l -0.05,0.02 -0.05,0.05 -0.05,0.02 -0.14,0.07 -0.05,0.03 0.55,-0.43 -0.02,0.02 c -0.12,0.14 -0.27,0.26 -0.41,0.36 l -0.02,0.02 c -0.22,0.12 -0.46,0.17 -0.7,0.2 v 0 h -0.02 -0.05 l 0.89,-0.34 -0.03,0.02 v 0 h -0.02 c -0.24,0.24 -0.58,0.36 -0.89,0.36 h -0.07 c -0.15,0 -0.29,-0.02 -0.43,-0.07 l -0.08,-0.02 0.46,0.07 h -0.05 c -0.33,0 -0.65,-0.1 -0.91,-0.31 v -0.03 l 0.89,0.32 h -0.05 v 0 0 c -0.36,0 -0.67,-0.1 -0.94,-0.32 l -0.02,-0.02 0.91,0.31 h -0.02 c -0.34,0.03 -0.65,-0.09 -0.91,-0.31 l -0.03,-0.02 v 0 l -0.02,-0.03 0.36,0.22 -0.05,-0.03 0.55,0.12 h -0.02 c -0.55,0 -1.06,-0.31 -1.27,-0.79 l -0.03,-0.05 0.58,0.6 h -0.05 c -0.07,-0.04 -0.14,-0.09 -0.22,-0.14 l -0.02,-0.02 c -0.31,-0.27 -0.48,-0.65 -0.5,-1.06 v -0.02 l 0.86,1.27 -0.05,-0.03 c -0.17,-0.07 -0.31,-0.16 -0.43,-0.28 l -0.6,-0.58 v 0 l -0.41,-0.41 h 0.03 l -0.17,-0.14 0.14,0.12 -0.17,-0.12 0.03,0.02 -0.19,-0.14 0.07,0.05 -0.22,-0.12 -0.12,-0.1 -0.24,-0.17 0.17,0.1 -0.07,-0.03 0.14,0.08 -0.09,-0.05 -0.08,-0.03 -0.07,-0.04 -0.05,-0.03 -0.09,-0.05 0.31,0.12 h -0.07 c -0.07,-0.02 -0.15,-0.04 -0.22,-0.09 l -0.09,-0.03 0.21,0.08 -0.07,-0.03 0.07,0.03 -0.12,-0.03 h 0.41 l -0.1,0.03 h -0.14 -0.05 v 0 h -0.05 l 0.94,-0.34 -0.02,0.02 c -0.27,0.22 -0.6,0.34 -0.94,0.34 h -0.05 v 0 h -0.02 l 0.29,-0.02 h -0.05 l 0.93,-0.68 -0.02,0.03 c -0.14,0.26 -0.38,0.45 -0.67,0.57 l -0.05,0.03 0.22,-0.1 -0.05,0.03 -0.05,0.04 h -0.05 c -0.21,0.12 -0.45,0.2 -0.69,0.2 h -0.05 l 0.91,-0.34 -0.02,0.02 v 0 l -0.03,0.03 0.29,-0.36 -0.02,0.05 c -0.24,0.43 -0.72,0.69 -1.23,0.69 h -0.02 l 1.15,-0.6 -0.02,0.05 c -0.08,0.1 -0.15,0.19 -0.24,0.26 l -0.03,0.03 0.19,-0.22 -0.02,0.05 0.05,-0.05 -0.27,0.34 0.05,-0.05 -0.07,0.1 0.12,-0.22 -0.07,0.14 c -0.03,0.05 -0.05,0.12 -0.07,0.17 l -0.1,0.15 0.05,-0.08 -0.17,0.29 c -0.02,0.05 -0.05,0.12 -0.1,0.17 l -0.16,0.24 0.12,-0.19 -0.05,0.07 c -0.05,0.14 -0.15,0.26 -0.27,0.36 l -0.07,0.07 0.05,-0.05 -0.07,0.1 c -0.05,0.02 -0.1,0.07 -0.15,0.12 l -0.04,0.05 v 0 l -0.03,0.02 0.51,-1.08 v 0.03 c 0,0.79 -0.65,1.41 -1.44,1.39 h -0.03 l 1.35,-0.87 -0.03,0.03 c -0.14,0.33 -0.41,0.62 -0.77,0.77 l -0.04,0.02 0.36,-0.22 -0.03,0.03 c -0.26,0.21 -0.57,0.33 -0.91,0.31 h -0.05 l 1.13,-0.53 -0.02,0.03 c -0.27,0.36 -0.7,0.55 -1.13,0.52 h -0.05 v 0 h -0.02 v 0 h -0.03 l 0.94,-0.31 -0.03,0.03 c -0.26,0.21 -0.57,0.31 -0.91,0.31 h -0.02 l 0.29,-0.03 h -0.05 c -0.1,0.03 -0.19,0.05 -0.31,0.05 h -0.03 v 0 h -0.02 c -0.22,0 -0.46,-0.07 -0.65,-0.17 l -0.14,-0.07 -0.03,-0.02 -0.07,-0.05 c -0.07,-0.05 -0.14,-0.1 -0.22,-0.17 h -0.02 l 0.22,0.15 -0.08,-0.03 c -0.07,-0.05 -0.16,-0.12 -0.21,-0.17 l -0.03,-0.02 v 0.02 l -0.04,-0.07 c -0.12,-0.09 -0.24,-0.21 -0.32,-0.36 l -0.02,-0.05 0.67,0.6 -0.07,-0.02 c -0.31,-0.14 -0.55,-0.38 -0.7,-0.7 l -0.04,-0.04 0.38,0.48 -0.05,-0.05 v 0 l -0.05,-0.05 c -0.16,-0.12 -0.28,-0.29 -0.36,-0.48 l -0.02,-0.05 -0.05,-0.07 -0.02,-0.07 0.77,0.79 -0.05,-0.02 c -0.53,-0.22 -0.87,-0.75 -0.87,-1.3 v -0.07 l 0.15,0.6 -0.03,-0.05 0.12,0.22 -0.12,-0.2 h -0.02 l -0.02,-0.07 -0.08,-0.07 -0.02,-0.07 0.02,0.07 -0.04,-0.1 0.55,0.48 -0.07,-0.02 c -0.24,-0.12 -0.41,-0.29 -0.56,-0.48 l -0.04,-0.07 0.04,0.07 -0.04,-0.05 0.14,0.15 -0.26,-0.27 -0.05,-0.05 -0.12,-0.14 0.12,0.14 -0.07,-0.09 v 0 l -0.08,-0.05 0.1,0.07 -0.07,-0.05 c -0.07,-0.04 -0.15,-0.09 -0.19,-0.16 l -0.08,-0.05 0.46,0.31 -0.05,-0.02 0.53,0.09 h -0.02 c -0.77,0 -1.4,-0.62 -1.37,-1.39 v -0.02 c 0,-0.8 0.62,-1.4 1.39,-1.4 0.79,0 1.42,0.63 1.39,1.42 0,0.77 -0.62,1.39 -1.41,1.37 v 0 c -0.39,0 -0.75,-0.15 -0.99,-0.41 -0.26,-0.26 -0.43,-0.62 -0.41,-0.98 v -0.05 c 0,-0.77 0.63,-1.39 1.4,-1.37 0.79,0 1.41,0.62 1.39,1.39 0,0.79 -0.63,1.39 -1.39,1.39 h -0.03 c -0.33,0 -0.65,-0.12 -0.91,-0.33 l -0.02,-0.03 0.91,0.34 h -0.03 -0.04 v 0 l 0.57,-0.1 h -0.02 c -0.19,0.08 -0.36,0.12 -0.55,0.12 h -0.03 v 0 h -0.02 v 0 h -0.03 v 0 h -0.02 -0.02 v 0 0 0 h -0.03 -0.02 0.02 -0.05 l 0.92,-0.33 -0.03,0.02 c -0.24,0.22 -0.57,0.31 -0.89,0.31 h -0.04 l 1.32,-0.86 -0.03,0.02 c -0.21,0.56 -0.72,0.89 -1.29,0.89 h -0.03 l 1.42,-1.39 v 0.02 c 0,0.41 -0.19,0.8 -0.51,1.06 l -0.26,0.22 0.12,-0.12 -0.07,0.09 v 0 l -0.1,0.1 0.24,-0.34 -0.07,0.12 c -0.05,0.1 -0.1,0.17 -0.14,0.24 l -0.1,0.1 0.02,-0.03 -0.07,0.12 0.15,-0.24 -0.08,0.12 -0.02,0.05 -0.05,0.12 0.05,-0.14 -0.02,0.09 c -0.03,0.05 -0.05,0.12 -0.1,0.17 l -0.24,0.39 0.02,-0.03 -0.07,0.15 c -0.05,0.09 -0.09,0.16 -0.14,0.24 l -0.1,0.12 h -0.02 l -0.12,0.14 v 0 l -0.07,0.07 0.19,-0.26 -0.03,0.05 c -0.26,0.48 -0.76,0.76 -1.32,0.72 h -0.02 l 0.72,-0.15 -0.05,0.03 0.75,-1.08 v 0.02 c -0.03,0.43 -0.29,0.82 -0.65,1.03 l -0.07,0.03 -0.08,0.04 -0.02,0.03 0.02,-0.03 -0.04,0.03 c -0.05,0.02 -0.1,0.05 -0.17,0.07 l -0.05,0.02 0.62,-0.48 v 0.03 c -0.26,0.36 -0.69,0.57 -1.15,0.55 h -0.05 l 1.06,-0.46 -0.02,0.03 c -0.27,0.31 -0.65,0.48 -1.06,0.48 l -0.07,-0.03 c -0.34,0 -0.65,-0.14 -0.89,-0.38 l -0.02,-0.02 0.67,0.36 h -0.05 c -0.24,-0.05 -0.46,-0.2 -0.65,-0.36 v -0.03 l 0.79,0.39 h -0.02 -0.02 -0.03 c -0.33,-0.05 -0.67,-0.22 -0.89,-0.51 -0.21,-0.29 -0.31,-0.65 -0.26,-0.98 v -0.03 c 0.1,-0.72 0.74,-1.22 1.46,-1.12 0.72,0.07 1.25,0.74 1.16,1.46 -0.08,0.7 -0.72,1.22 -1.44,1.15 h -0.03 c -0.38,-0.05 -0.74,-0.26 -0.96,-0.57 v -0.03 l 1.73,0.39 v 0 c -0.24,0.14 -0.53,0.21 -0.82,0.19 h -0.02 c -0.7,-0.1 -1.22,-0.72 -1.15,-1.44 v -0.03 l 0.38,1.06 -0.02,-0.02 0.77,0.36 h -0.03 c -0.33,-0.05 -0.67,-0.22 -0.86,-0.48 -0.22,-0.29 -0.34,-0.65 -0.29,-0.99 v -0.02 l 0.38,1.08 -0.02,-0.03 0.77,0.39 h -0.03 c -0.33,-0.03 -0.64,-0.22 -0.86,-0.48 -0.22,-0.27 -0.31,-0.63 -0.26,-0.99 v 0 l -0.03,0.05 0.03,-0.02 0.36,1.01 -0.03,-0.03 c -0.26,-0.29 -0.41,-0.67 -0.36,-1.05 v -0.03 l 0.19,0.84 -0.64,-1.03 c -0.03,-0.07 -0.05,-0.12 -0.1,-0.19 l -0.17,-0.39 -0.02,-0.07 -0.12,-0.43 0.02,0.12 -0.21,-0.48 c -0.24,-0.5 -0.03,-1.1 0.45,-1.39 0.48,-0.27 1.08,-0.12 1.42,0.33 z"
         style="fill:#000000;fill-opacity:1;fill-rule:nonzero;stroke:none"
         transform="matrix(1.3333333,0,0,-1.3333333,0,1120.8)" />
    </g>
    <g
       id="g62">
      <path
         id="path62"
         d="m 152.64,750.24 0.02,0.02 c 0.08,0.05 0.12,0.12 0.2,0.2 v 0.04 l -0.56,-0.43 0.05,0.03 c 0.15,0.04 0.29,0.12 0.39,0.21 l 0.02,0.03 -0.02,-0.03 0.12,0.1 -0.03,-0.03 0.07,0.08 -0.07,-0.08 0.1,0.08 -0.1,-0.05 0.1,0.05 c 0.07,0.02 0.14,0.07 0.19,0.12 l 0.1,0.07 -0.24,-0.15 0.12,0.05 -0.08,-0.02 0.1,0.05 0.12,0.04 0.1,0.05 -0.17,-0.07 0.12,0.05 v 0 l 0.12,0.02 -0.07,-0.02 0.09,0.05 h 0.05 l 0.14,0.02 h -0.07 l 0.24,0.05 -0.29,-0.03 h 0.08 c 0.07,0 0.14,0 0.21,0 l 0.07,0.03 -0.19,-0.03 h 0.12 -0.02 0.09 v 0 h 0.08 v 0 h 0.12 l -0.17,0.03 0.09,-0.03 0.17,-0.02 h 0.05 l -0.14,0.02 0.12,-0.02 h -0.05 0.07 l -0.17,0.05 0.1,-0.03 c 0.05,-0.02 0.12,-0.04 0.17,-0.04 l 0.09,-0.03 -0.33,0.12 0.07,-0.05 c 0.12,-0.04 0.24,-0.09 0.38,-0.12 l 0.1,-0.02 -0.48,0.19 0.07,-0.05 0.12,-0.07 0.22,-0.09 h -0.03 l 0.15,-0.08 -0.1,0.05 0.14,-0.07 -0.07,0.02 0.12,-0.07 -0.07,0.05 0.12,-0.1 v 0 l 0.12,-0.07 h -0.02 l 0.12,-0.09 -0.17,0.19 0.07,-0.12 c 0.05,-0.05 0.1,-0.1 0.12,-0.15 l 0.1,-0.09 -0.05,0.07 0.12,-0.12 -0.15,0.19 0.08,-0.12 0.07,-0.09 0.07,-0.12 -0.07,0.09 0.07,-0.09 -0.02,0.04 0.07,-0.14 -0.05,0.1 0.17,-0.34 -0.05,0.1 0.1,-0.32 v 0.03 l 0.09,-0.31 -0.02,0.09 0.07,-0.29 -0.02,0.1 0.04,-0.34 v 0.05 l 0.1,-0.74 v 0.02 l 0.02,-0.38 v -0.05 l 0.08,-0.38 v -0.08 l 0.19,-0.88 0.05,-0.12 0.04,-0.17 v -0.03 l 0.05,-0.14 0.05,-0.12 0.07,-0.14 0.05,-0.1 0.1,-0.12 v 0 l 0.19,-0.34 c 0.09,-0.16 0.24,-0.31 0.43,-0.4 l 0.05,-0.03 -0.19,0.12 0.04,-0.02 -0.12,0.12 0.05,-0.07 c 0.03,-0.05 0.07,-0.08 0.12,-0.12 l 0.03,-0.03 v 0 l 0.04,-0.02 v 0 l 0.05,-0.05 c 0.12,-0.1 0.29,-0.17 0.43,-0.22 l 0.05,-0.02 -0.6,0.41 0.03,-0.05 c 0.19,-0.22 0.43,-0.36 0.69,-0.41 l 0.07,-0.02 -0.33,0.12 0.05,-0.03 v 0 l 0.04,-0.02 c 0.1,-0.05 0.17,-0.1 0.27,-0.12 h 0.05 -0.03 l 0.12,-0.02 h -0.05 l 0.12,-0.05 c 0.08,-0.03 0.15,-0.03 0.22,-0.05 h 0.07 -0.07 l 0.12,-0.02 -0.05,0.02 0.1,-0.02 c 0.12,-0.05 0.21,-0.05 0.31,-0.05 h 0.12 -0.12 l 0.34,-0.03 c 0.07,-0.02 0.12,-0.02 0.19,0 l 0.38,0.03 v 0 l 0.39,0.02 h 0.07 l 0.41,0.07 h 0.02 l 0.36,0.05 0.1,0.03 0.86,0.19 h -0.05 l 1.3,0.26 -0.1,-0.02 0.24,0.05 h 0.07 l 0.24,0.04 -0.14,-0.02 0.26,0.02 -0.07,-0.02 h 0.6 l -0.09,0.02 0.31,-0.02 h -0.05 l 0.31,-0.05 -0.07,0.03 0.29,-0.08 h -0.03 l 0.34,-0.04 -0.1,0.02 0.84,-0.26 h -0.04 l 0.24,-0.1 -0.03,0.02 0.22,-0.09 -0.1,0.07 0.22,-0.12 v 0 l 0.21,-0.12 -0.09,0.05 0.21,-0.12 -0.04,0.02 0.55,-0.38 -0.07,0.05 0.14,-0.1 0.05,-0.05 0.14,-0.12 -0.05,0.05 0.15,-0.14 -0.05,0.04 0.14,-0.12 -0.04,0.08 0.12,-0.15 v 0 l 0.12,-0.12 -0.08,0.07 0.27,-0.31 -0.07,0.07 0.19,-0.26 -0.03,0.02 0.17,-0.26 -0.05,0.07 0.29,-0.55 -0.07,0.17 0.12,-0.29 v -0.02 l 0.1,-0.27 -0.05,0.12 0.07,-0.26 v 0 l 0.07,-0.27 v 0 l 0.07,-0.26 -0.02,0.17 0.05,-0.72 v 0.14 l -0.1,-2.13 0.03,0.04 -0.08,-1.05 v -0.03 l -0.04,-1.05 c -0.03,-0.43 0.19,-0.82 0.55,-1.06 0.36,-0.21 0.81,-0.24 1.2,-0.02 0.36,0.19 0.6,0.57 0.6,1.01 l 0.05,1.05 v -0.05 l 0.07,1.04 v 0.02 l 0.07,2.14 v 0.16 l -0.07,0.72 c 0,0.05 0,0.1 -0.03,0.17 l -0.07,0.27 v 0.02 l -0.07,0.26 v 0 l -0.07,0.27 -0.03,0.14 -0.12,0.27 0.03,-0.03 -0.12,0.29 -0.05,0.14 -0.31,0.56 -0.03,0.07 -0.19,0.29 v 0.02 l -0.17,0.24 -0.07,0.07 -0.24,0.34 -0.07,0.07 -0.12,0.12 v 0 l -0.12,0.12 -0.05,0.07 -0.14,0.12 -0.05,0.05 -0.17,0.12 -0.05,0.05 -0.14,0.12 0.05,-0.05 -0.12,0.12 -0.1,0.05 -0.55,0.38 -0.05,0.05 -0.21,0.12 -0.08,0.05 -0.24,0.12 v 0 l -0.21,0.12 -0.12,0.05 -0.22,0.07 -0.02,0.02 -0.24,0.07 -0.05,0.03 -0.84,0.26 -0.1,0.03 -0.33,0.07 h -0.03 l -0.28,0.07 h -0.08 l -0.33,0.05 h -0.03 l -0.31,0.02 -0.12,0.03 h -0.6 l -0.07,-0.03 h -0.24 l -0.14,-0.02 -0.24,-0.05 0.04,0.02 -0.24,-0.02 -0.09,-0.02 -1.3,-0.27 h -0.02 l -0.84,-0.21 0.07,0.02 -0.36,-0.05 v 0 l -0.38,-0.07 0.04,0.02 -0.36,-0.02 v 0 l -0.38,-0.02 0.19,-0.03 -0.33,0.05 h -0.1 -0.12 l 0.34,-0.05 -0.12,0.03 -0.03,0.02 -0.12,0.02 h -0.09 l -0.08,0.03 0.2,-0.05 -0.12,0.05 h -0.05 l -0.12,0.05 -0.05,0.02 h -0.05 l 0.27,-0.1 -0.05,0.03 h -0.03 l -0.02,0.02 c -0.12,0.05 -0.24,0.1 -0.34,0.12 l -0.07,0.03 0.67,-0.44 -0.02,0.05 c -0.17,0.19 -0.36,0.34 -0.6,0.41 h -0.07 l 0.43,-0.22 -0.02,0.05 v 0 l -0.05,0.03 v 0 l -0.03,0.02 0.12,-0.12 -0.04,0.05 c -0.05,0.05 -0.1,0.09 -0.12,0.12 l -0.05,0.05 c -0.05,0.02 -0.12,0.07 -0.17,0.12 l -0.07,0.02 0.45,-0.43 -0.19,0.31 v 0 l -0.09,0.14 0.04,-0.09 -0.04,0.14 0.02,-0.12 -0.02,0.15 v -0.03 l -0.05,0.15 0.02,-0.12 -0.19,0.88 0.02,-0.09 -0.04,0.38 v -0.05 l -0.03,0.39 v 0.02 l -0.09,0.75 v 0.04 l -0.05,0.34 -0.03,0.07 -0.04,0.29 -0.05,0.12 -0.1,0.31 v 0.03 l -0.09,0.28 -0.05,0.1 -0.15,0.36 -0.04,0.05 -0.08,0.14 -0.02,0.05 -0.07,0.12 -0.07,0.1 -0.08,0.12 0.08,-0.12 -0.08,0.12 c -0.04,0.07 -0.09,0.12 -0.14,0.19 l -0.1,0.09 -0.04,0.08 -0.12,0.09 0.12,-0.14 -0.08,0.12 c -0.04,0.07 -0.12,0.14 -0.19,0.19 l -0.12,0.1 v 0 l -0.09,0.09 v 0 l -0.12,0.1 -0.08,0.05 -0.12,0.09 -0.04,0.05 -0.15,0.07 -0.09,0.05 -0.12,0.07 -0.05,0.03 -0.19,0.09 0.09,-0.05 -0.07,0.03 c -0.14,0.09 -0.31,0.14 -0.48,0.17 l -0.1,0.02 0.39,-0.12 -0.1,0.05 c -0.09,0.05 -0.21,0.09 -0.33,0.09 l -0.1,0.03 0.19,-0.05 -0.09,0.02 c -0.05,0.03 -0.12,0.03 -0.17,0.05 h -0.1 -0.02 l -0.1,0.03 c -0.07,0 -0.12,0 -0.19,0 h -0.05 0.17 l -0.1,0.02 h -0.16 -0.12 v 0 h -0.08 v 0 h -0.09 0.02 -0.12 c -0.07,0 -0.12,-0.02 -0.19,-0.02 l -0.07,-0.03 0.17,0.03 h -0.08 c -0.09,0 -0.16,-0.03 -0.26,-0.05 L 153,753 l -0.07,-0.02 -0.15,-0.05 h 0.03 l -0.1,-0.03 -0.07,-0.02 -0.12,-0.05 v 0 l -0.12,-0.05 c -0.05,0 -0.12,-0.04 -0.17,-0.07 l -0.12,-0.05 0.12,0.05 -0.09,-0.05 -0.05,-0.02 -0.12,-0.05 c -0.1,-0.05 -0.17,-0.09 -0.24,-0.17 l -0.1,-0.07 0.19,0.12 -0.09,-0.05 -0.1,-0.07 -0.12,-0.05 -0.07,-0.07 -0.07,-0.07 -0.1,-0.1 -0.12,-0.12 c -0.12,-0.12 -0.21,-0.28 -0.24,-0.48 l -0.02,-0.02 0.41,0.6 -0.05,-0.02 c -0.22,-0.2 -0.36,-0.44 -0.41,-0.7 l -0.02,-0.05 0.02,0.1 v -0.03 c -0.12,-0.48 0.07,-0.98 0.5,-1.22 0.41,-0.26 0.94,-0.22 1.3,0.12 z"
         style="fill:#000000;fill-opacity:1;fill-rule:nonzero;stroke:none"
         transform="matrix(1.3333333,0,0,-1.3333333,0,1120.8)" />
    </g>
    <g
       id="g63">
      <path
         id="path63"
         d="m 179.4,735.89 v 0.69 0 l -0.07,4.61 v -0.05 l 0.02,2.14 v 0.02 l 0.03,0.92 v 0.02 l -0.05,7.01 v -0.07 l 0.09,2.52 v -0.1 l 0.05,0.58 v -0.08 l 0.07,0.58 -0.02,-0.14 0.34,1.32 -0.03,-0.08 0.05,0.17 0.02,0.05 0.05,0.19 -0.14,-0.31 0.12,0.19 -0.05,-0.07 0.12,0.17 0.02,0.05 0.22,0.38 c 0.02,0.05 0.07,0.12 0.1,0.17 l 0.02,0.07 -0.46,-0.6 0.05,0.02 c 0.22,0.17 0.36,0.39 0.46,0.63 l 0.02,0.07 -0.45,-0.62 0.07,0.04 c 0.07,0.08 0.14,0.15 0.21,0.22 l 0.05,0.07 v 0 l 0.05,0.07 -0.22,-0.21 0.08,0.05 -0.24,-0.17 0.07,0.05 c 0.24,0.12 0.43,0.31 0.57,0.52 l 0.03,0.05 -0.58,-0.53 0.07,0.03 c 0.1,0.05 0.17,0.09 0.24,0.17 l 0.08,0.04 -0.24,-0.16 0.07,0.04 -0.34,-0.12 h 0.1 c 0.19,0.08 0.41,0.17 0.55,0.32 l 0.07,0.04 -0.24,-0.16 0.07,0.04 -0.28,-0.12 0.24,0.05 0.12,0.07 h 0.04 l -0.57,-0.12 h 0.05 v 0 h 0.04 v 0 h 0.08 v 0 h 0.02 v 0 h 0.05 v 0 h 0.02 v 0 h 0.05 v 0 h 0.07 v 0 h 0.03 v 0 h 0.04 v 0 h 0.03 l -0.58,0.12 H 180 v 0 l 0.07,-0.02 c 0.17,-0.1 0.39,-0.12 0.58,-0.12 h 0.02 l -0.57,0.12 0.04,-0.02 -0.4,0.21 0.04,-0.02 c 0.2,-0.15 0.41,-0.27 0.68,-0.31 l 0.09,-0.03 -1.01,0.72 0.03,-0.05 c 0.21,-0.33 0.53,-0.57 0.91,-0.69 l 0.1,-0.03 -0.8,0.53 0.05,-0.07 c 0.17,-0.19 0.39,-0.36 0.6,-0.46 l 0.07,-0.02 -0.62,0.46 0.05,-0.08 c 0.17,-0.19 0.38,-0.36 0.62,-0.45 h 0.05 l -0.84,0.84 0.02,-0.07 c 0.1,-0.24 0.27,-0.46 0.46,-0.6 l 0.05,-0.05 -0.46,0.6 0.03,-0.05 c 0.04,-0.12 0.12,-0.22 0.16,-0.31 l 0.12,-0.15 -0.04,0.08 0.09,-0.2 0.05,-0.07 0.12,-0.17 -0.24,0.48 0.07,-0.19 v -0.05 l 0.07,-0.16 c 0,-0.08 0.05,-0.12 0.08,-0.2 l 0.07,-0.16 -0.12,0.43 0.02,-0.19 0.03,-0.15 0.07,-0.36 -0.03,0.29 0.03,-0.84 v 0.05 l 0.02,-0.84 v 0.14 l -0.21,-2.23 v 0 l -0.1,-0.94 v 0 l -0.1,-0.86 c 0,-0.07 0,-0.14 0,-0.19 v -0.27 c 0.03,-0.79 0.68,-1.44 1.49,-1.44 0.79,0 1.47,0.65 1.49,1.44 v 0.27 -0.17 l 0.12,0.86 v 0.03 l 0.12,0.93 v 0.03 l 0.22,2.25 0.02,0.15 v 0.84 0.05 l -0.02,0.84 c 0,0.09 0,0.21 -0.03,0.31 l -0.09,0.36 0.02,-0.15 -0.02,0.2 c -0.03,0.16 -0.08,0.28 -0.12,0.43 l -0.1,0.19 0.1,-0.19 -0.08,0.17 0.03,-0.05 -0.05,0.21 c -0.05,0.17 -0.12,0.32 -0.24,0.48 l -0.12,0.15 0.07,-0.07 -0.12,0.16 -0.05,0.08 -0.12,0.16 0.17,-0.31 -0.02,0.07 c -0.1,0.24 -0.24,0.46 -0.46,0.63 l -0.05,0.02 0.46,-0.6 -0.02,0.07 c -0.17,0.36 -0.48,0.68 -0.84,0.84 l -0.08,0.03 0.63,-0.46 -0.07,0.07 c -0.15,0.2 -0.36,0.34 -0.6,0.44 l -0.05,0.02 0.6,-0.43 -0.05,0.05 c -0.19,0.26 -0.48,0.43 -0.79,0.52 l -0.07,0.03 0.91,-0.7 -0.03,0.05 c -0.24,0.36 -0.6,0.62 -1,0.7 l -0.12,0.02 0.67,-0.31 -0.03,0.02 c -0.12,0.1 -0.26,0.17 -0.4,0.24 l -0.05,0.03 c -0.19,0.07 -0.39,0.09 -0.58,0.09 h -0.02 l 0.57,-0.09 h -0.04 v 0 l -0.08,0.02 c -0.16,0.07 -0.36,0.12 -0.57,0.12 h -0.03 v 0 h -0.04 v 0 h -0.03 v 0 h -0.07 v 0 h -0.05 v 0 h -0.02 v 0 h -0.05 v 0 h -0.02 v 0 h -0.08 v 0 h -0.04 v 0 h -0.05 c -0.19,0 -0.41,-0.05 -0.58,-0.12 l -0.07,-0.02 0.14,0.07 -0.21,-0.07 c -0.1,-0.05 -0.19,-0.08 -0.29,-0.12 l -0.1,-0.05 c -0.07,-0.05 -0.14,-0.12 -0.21,-0.17 l -0.07,-0.05 0.57,0.31 -0.09,-0.02 c -0.1,-0.05 -0.22,-0.07 -0.32,-0.14 l -0.07,-0.05 c -0.09,-0.05 -0.17,-0.1 -0.24,-0.15 l -0.07,-0.04 0.24,0.14 -0.07,-0.05 c -0.24,-0.12 -0.43,-0.31 -0.58,-0.53 l -0.02,-0.04 0.57,0.55 -0.09,-0.05 c -0.07,-0.05 -0.17,-0.1 -0.24,-0.17 l -0.05,-0.05 c -0.07,-0.07 -0.14,-0.12 -0.22,-0.21 l -0.04,-0.07 v 0 l -0.05,-0.08 0.21,0.24 -0.07,-0.04 c -0.19,-0.17 -0.33,-0.39 -0.45,-0.63 v -0.05 l 0.43,0.6 -0.05,-0.04 c -0.19,-0.17 -0.36,-0.36 -0.46,-0.6 l -0.02,-0.08 0.1,0.2 -0.22,-0.39 0.02,0.03 -0.12,-0.17 -0.04,-0.07 -0.1,-0.2 c -0.05,-0.12 -0.1,-0.21 -0.14,-0.33 l -0.05,-0.19 0.02,0.04 -0.05,-0.19 -0.02,-0.07 -0.34,-1.32 -0.02,-0.17 -0.07,-0.57 v -0.08 l -0.07,-0.57 v -0.1 l -0.05,-2.52 v -0.07 l 0.17,-6.98 v 0 -0.92 -0.02 l 0.04,-2.14 v -0.04 l 0.24,-4.59 v -0.02 l 0.05,-0.7 c 0.05,-0.69 0.65,-1.2 1.35,-1.2 0.69,0.05 1.22,0.6 1.22,1.3 z"
         style="fill:#000000;fill-opacity:1;fill-rule:nonzero;stroke:none"
         transform="matrix(1.3333333,0,0,-1.3333333,0,1120.8)" />
    </g>
    <g
       id="g64">
      <path
         id="path64"
         d="m 188.83,749.88 0.15,0.12 c 0.12,0.07 0.21,0.17 0.28,0.26 l 0.08,0.12 0.04,0.05 0.05,0.1 -0.05,-0.05 0.1,0.1 -0.1,-0.1 0.1,0.1 -0.12,-0.1 0.1,0.07 v 0 l 0.09,0.1 0.12,0.09 0.07,0.1 -0.12,-0.12 0.12,0.1 -0.07,-0.08 0.22,0.2 v 0 l 0.21,0.14 -0.14,-0.1 0.19,0.12 0.1,0.05 0.21,0.12 -0.12,-0.05 0.51,0.24 c 0.05,0.05 0.09,0.08 0.14,0.12 l 0.1,0.05 -0.46,-0.19 0.1,0.02 c 0.12,0 0.21,0.05 0.31,0.1 l 0.1,0.02 -0.32,-0.09 0.12,0.02 0.05,0.03 0.1,0.02 -0.05,-0.02 0.12,0.02 0.05,0.02 h 0.09 v 0 l 0.1,0.03 -0.29,-0.03 h 0.12 v 0 h 0.1 v 0 h 0.12 v 0 h 0.09 v 0 h 0.12 l -0.28,0.03 0.07,-0.03 h 0.07 l 0.12,-0.02 -0.07,0.02 0.09,-0.02 v 0 l 0.24,-0.07 -0.12,0.05 0.1,-0.05 -0.1,0.02 0.15,-0.05 0.09,-0.04 0.12,-0.05 -0.28,0.14 0.09,-0.05 h -0.02 l 0.12,-0.09 0.12,-0.07 0.12,-0.08 v 0 l 0.12,-0.07 -0.15,0.07 0.12,-0.07 -0.09,0.07 0.09,-0.09 v 0 l 0.1,-0.07 -0.1,0.09 0.1,-0.12 -0.02,0.03 0.07,-0.1 -0.03,0.02 0.2,-0.28 -0.05,0.09 0.21,-0.41 v 0 l 0.24,-0.4 -0.07,0.14 0.17,-0.48 v 0.05 l 0.36,-1.06 0.02,-0.05 0.41,-1.05 v -0.03 l 0.24,-0.55 v 0 l 0.22,-0.55 0.02,-0.07 0.27,-0.53 0.04,-0.1 0.29,-0.5 0.03,-0.02 0.33,-0.53 0.05,-0.05 0.89,-1.22 0.07,-0.1 0.12,-0.14 c 0.46,-0.53 1.25,-0.6 1.75,-0.15 0.53,0.46 0.6,1.23 0.15,1.75 l -0.15,0.17 0.05,-0.07 -0.89,1.22 0.05,-0.07 -0.34,0.51 0.03,-0.05 -0.29,0.53 0.05,-0.1 -0.27,0.53 0.03,-0.07 -0.22,0.55 v 0 l -0.24,0.55 v 0 l -0.41,1.06 0.03,-0.05 -0.39,1.05 -0.02,0.05 -0.19,0.46 -0.05,0.14 -0.24,0.43 v 0 l -0.24,0.41 -0.07,0.1 -0.19,0.29 -0.05,0.04 -0.05,0.1 -0.02,0.02 -0.1,0.12 -0.1,0.1 -0.09,0.1 v 0 l -0.1,0.09 -0.09,0.07 -0.12,0.1 -0.15,0.1 -0.09,0.04 v 0 l -0.12,0.08 0.12,-0.08 -0.1,0.08 -0.05,0.04 -0.09,0.05 c -0.08,0.07 -0.17,0.12 -0.27,0.17 l -0.12,0.02 0.1,-0.02 -0.15,0.05 -0.09,0.05 -0.12,0.04 -0.12,0.05 -0.24,0.07 h -0.05 l -0.1,0.03 h -0.04 l -0.12,0.02 h 0.04 l -0.07,0.03 c -0.09,0 -0.19,0.02 -0.29,0.02 h -0.12 v 0 h -0.09 v 0 h -0.12 v 0 h -0.1 v 0 h -0.12 c -0.09,0 -0.19,-0.02 -0.29,-0.05 l -0.09,-0.02 v 0 l -0.1,-0.03 h 0.07 l -0.12,-0.02 h -0.07 l -0.07,-0.02 h 0.05 l -0.12,-0.03 c -0.1,-0.02 -0.19,-0.05 -0.29,-0.09 l -0.1,-0.05 0.29,0.09 -0.12,-0.02 c -0.17,-0.02 -0.31,-0.1 -0.45,-0.22 l -0.1,-0.07 0.17,0.12 -0.48,-0.26 -0.12,-0.07 -0.22,-0.15 0.07,0.05 -0.19,-0.12 c -0.05,-0.02 -0.09,-0.07 -0.14,-0.1 l -0.19,-0.16 -0.03,-0.03 -0.21,-0.17 -0.12,-0.12 -0.1,-0.12 c -0.02,-0.02 -0.07,-0.07 -0.1,-0.12 l -0.07,-0.09 0.1,0.12 -0.07,-0.1 v 0 l -0.1,-0.09 -0.1,-0.12 -0.07,-0.1 -0.05,-0.1 -0.04,-0.12 -0.05,-0.09 -0.05,-0.1 0.05,0.1 -0.05,-0.12 c -0.17,-0.27 -0.17,-0.6 -0.05,-0.89 l 0.07,-0.19 c 0.1,-0.24 0.32,-0.43 0.58,-0.53 0.26,-0.07 0.55,-0.02 0.79,0.12 z"
         style="fill:#000000;fill-opacity:1;fill-rule:nonzero;stroke:none"
         transform="matrix(1.3333333,0,0,-1.3333333,0,1120.8)" />
    </g>
    <g
       id="g65">
      <path
         id="path65"
         d="m 188.83,749.57 h 0.03 l -0.39,-0.05 h 0.1 v 0 l 0.12,-0.02 -0.22,0.04 0.1,-0.02 c 0.07,-0.02 0.12,-0.05 0.21,-0.05 h 0.08 l -0.17,0.03 0.12,-0.03 v 0 l 0.12,-0.02 -0.24,0.07 0.09,-0.05 c 0.08,-0.02 0.15,-0.07 0.24,-0.07 l 0.12,-0.02 -0.24,0.07 0.1,-0.05 c 0.05,-0.02 0.12,-0.05 0.17,-0.07 l 0.09,-0.03 -0.24,0.1 0.12,-0.07 v 0 l 0.17,-0.12 -0.02,0.02 0.12,-0.09 v 0 l 0.14,-0.1 -0.14,0.12 0.12,-0.12 0.07,-0.05 0.12,-0.12 -0.12,0.12 0.12,-0.14 c 0.02,-0.05 0.07,-0.1 0.12,-0.12 l 0.12,-0.1 -0.14,0.15 0.26,-0.34 -0.05,0.05 0.24,-0.36 -0.05,0.09 0.2,-0.4 v 0 l 0.21,-0.39 v -0.02 l 0.19,-0.39 -0.04,0.12 0.4,-1.03 v 0.05 l 0.27,-0.82 0.02,-0.12 1.01,-2.16 0.05,-0.09 0.14,-0.22 -0.02,0.03 0.14,-0.24 c 0.03,-0.1 0.07,-0.15 0.12,-0.22 l 0.19,-0.19 -0.07,0.09 0.17,-0.24 0.07,-0.09 0.17,-0.22 v 0 l 0.19,-0.19 0.1,-0.1 0.19,-0.19 v 0 l 0.41,-0.36 0.07,-0.05 0.26,-0.21 0.08,-0.05 0.31,-0.22 h 0.02 l 0.29,-0.19 0.05,-0.02 0.31,-0.19 0.1,-0.05 0.96,-0.43 0.07,-0.03 0.29,-0.09 c 0.36,-0.12 0.76,-0.05 1.05,0.21 0.31,0.24 0.43,0.65 0.36,1.03 -0.07,0.39 -0.36,0.7 -0.72,0.82 l -0.29,0.07 0.1,-0.02 -0.94,0.41 0.08,-0.05 -0.32,0.17 h 0.03 l -0.31,0.16 h 0.02 l -0.31,0.2 0.05,-0.05 -0.29,0.21 0.09,-0.07 -0.43,0.39 v 0 l -0.19,0.16 0.07,-0.07 -0.17,0.19 v 0 l -0.19,0.22 0.07,-0.1 -0.16,0.22 -0.08,0.1 -0.19,0.21 0.15,-0.19 -0.15,0.24 -0.02,0.05 -0.15,0.24 0.05,-0.1 -1.01,2.16 0.03,-0.09 -0.27,0.79 -0.02,0.05 -0.43,1.03 -0.05,0.14 -0.22,0.36 v -0.02 l -0.21,0.38 v 0 l -0.22,0.39 -0.05,0.09 -0.26,0.36 -0.05,0.05 -0.24,0.34 c -0.05,0.04 -0.12,0.12 -0.19,0.16 l -0.12,0.08 0.14,-0.12 -0.12,0.12 c -0.02,0.04 -0.07,0.09 -0.12,0.12 l -0.14,0.12 0.07,-0.08 -0.12,0.12 c -0.05,0.05 -0.09,0.1 -0.14,0.12 l -0.15,0.1 v 0 l -0.14,0.07 v 0.03 l -0.19,0.09 -0.03,0.03 -0.12,0.04 c -0.09,0.05 -0.16,0.1 -0.26,0.12 h -0.1 l 0.2,-0.04 -0.1,0.04 c -0.07,0.03 -0.14,0.05 -0.22,0.05 l -0.12,0.03 0.22,-0.08 -0.1,0.05 c -0.07,0.03 -0.14,0.05 -0.21,0.07 l -0.12,0.03 v 0 h -0.12 c -0.05,0.02 -0.12,0.02 -0.19,0.02 h -0.08 l 0.22,-0.02 -0.1,0.02 c -0.07,0 -0.14,0.03 -0.21,0 h -0.12 v 0 h -0.1 l 0.39,-0.07 -0.03,0.02 c -0.38,0.15 -0.79,0.03 -1.03,-0.28 -0.26,-0.34 -0.26,-0.77 0,-1.08 0.24,-0.34 0.65,-0.44 1.03,-0.29 z"
         style="fill:#000000;fill-opacity:1;fill-rule:nonzero;stroke:none"
         transform="matrix(1.3333333,0,0,-1.3333333,0,1120.8)" />
    </g>
    <g
       id="g66">
      <path
         id="path66"
         d="m 196.85,743.18 0.14,-0.19 0.1,-0.09 0.07,-0.1 -0.14,0.19 0.04,-0.07 c 0.03,-0.07 0.08,-0.12 0.12,-0.19 l 0.08,-0.07 -0.15,0.19 0.05,-0.07 0.05,-0.08 0.07,-0.09 -0.12,0.19 0.05,-0.1 0.05,-0.12 0.04,-0.04 -0.04,0.09 0.02,-0.09 0.07,-0.12 0.05,-0.08 -0.14,0.39 0.02,-0.1 c 0,-0.09 0.05,-0.17 0.07,-0.26 l 0.05,-0.07 -0.07,0.24 0.02,-0.22 -0.02,0.07 0.02,-0.14 v 0.02 l 0.03,-0.14 v -0.03 l 0.02,-0.14 -0.02,0.19 v -0.14 0 -0.17 0.02 -0.14 l 0.02,0.19 -0.07,-0.36 c -0.03,-0.07 -0.03,-0.14 -0.03,-0.21 v -0.03 0 -0.05 l 0.36,0.87 -0.02,-0.03 c -0.22,-0.24 -0.36,-0.52 -0.36,-0.86 v -0.02 0 -0.05 0 -0.03 l 0.36,0.87 -0.02,-0.03 c -0.22,-0.24 -0.36,-0.52 -0.36,-0.86 v -0.02 l 0.36,0.86 -0.03,-0.02 0.89,0.36 h -0.02 c -0.34,0 -0.65,-0.12 -0.89,-0.36 -0.24,-0.24 -0.36,-0.56 -0.36,-0.87 v -0.05 l 0.36,0.87 -0.03,-0.03 c -0.21,-0.21 -0.36,-0.52 -0.36,-0.86 v -0.02 l 1.25,1.22 h -0.02 v 0 h -0.03 c -0.31,0 -0.64,-0.12 -0.88,-0.36 l -0.03,-0.02 c -0.21,-0.22 -0.36,-0.53 -0.36,-0.84 v -0.03 l 0.36,0.84 -0.02,-0.02 h 0.02 l -0.02,-0.03 0.86,0.36 h -0.02 v 0 h -0.03 c -0.31,0 -0.62,-0.12 -0.86,-0.33 l -0.02,-0.03 -0.03,-0.02 -0.02,-0.02 0.89,0.36 h -0.03 c -0.19,0 -0.38,-0.03 -0.55,-0.12 l -0.05,-0.03 0.55,0.12 h -0.04 v 0 h -0.12 c -0.7,0 -1.25,-0.55 -1.25,-1.22 0,-0.7 0.55,-1.25 1.25,-1.25 h 0.12 v 0 h 0.04 c 0.2,0 0.39,0.05 0.56,0.14 l 0.04,0.03 -0.55,-0.15 h 0.03 c 0.33,0 0.64,0.15 0.86,0.39 l 0.02,0.02 h 0.03 l 0.02,0.03 -0.89,-0.39 h 0.03 v 0 h 0.02 c 0.34,0.03 0.65,0.15 0.87,0.39 l 0.02,0.02 v 0 l 0.02,0.02 c 0.24,0.22 0.36,0.56 0.36,0.89 v 0.03 l -0.36,-0.89 0.03,0.02 -0.87,-0.38 h 0.03 v 0 h 0.02 c 0.34,0 0.65,0.14 0.87,0.38 0.21,0.24 0.33,0.55 0.33,0.87 V 741 l -0.33,-0.86 0.02,0.02 c 0.22,0.22 0.34,0.53 0.34,0.86 v 0.05 l -1.2,-1.25 h 0.02 c 0.31,0 0.62,0.15 0.86,0.39 l 0.03,0.02 c 0.21,0.22 0.36,0.55 0.33,0.87 v 0.02 l -0.33,-0.86 h 0.02 c 0.22,0.24 0.34,0.57 0.34,0.88 v 0.03 0 0.05 0 0.02 l -0.34,-0.86 v 0 c 0.24,0.24 0.36,0.55 0.36,0.88 v 0.05 0 0.03 l -0.02,-0.24 0.07,0.36 c 0,0.09 0.02,0.16 0.02,0.26 l -0.02,0.14 v -0.02 0.17 0 0.14 c 0,0.07 -0.02,0.15 -0.02,0.19 l -0.03,0.15 v -0.03 l -0.02,0.15 v 0.05 l -0.03,0.12 -0.02,0.07 -0.05,0.19 c -0.02,0.1 -0.07,0.22 -0.12,0.31 l -0.05,0.07 0.1,-0.21 -0.02,0.07 c -0.05,0.14 -0.12,0.26 -0.2,0.38 l -0.04,0.08 0.09,-0.15 -0.05,0.1 -0.09,0.12 -0.05,0.07 0.07,-0.12 -0.05,0.07 c -0.02,0.07 -0.07,0.12 -0.09,0.17 l -0.1,0.1 0.05,-0.05 -0.05,0.07 c -0.05,0.07 -0.09,0.12 -0.14,0.17 l -0.1,0.07 0.15,-0.17 -0.03,0.07 c -0.05,0.05 -0.12,0.1 -0.17,0.15 l -0.07,0.07 h 0.03 l -0.2,0.14 c -0.4,0.39 -1.03,0.41 -1.46,0.03 -0.43,-0.36 -0.5,-1.01 -0.19,-1.47 z"
         style="fill:#000000;fill-opacity:1;fill-rule:nonzero;stroke:none"
         transform="matrix(1.3333333,0,0,-1.3333333,0,1120.8)" />
    </g>
    <g
       id="g67">
      <path
         id="path67"
         d="m 191.52,752.09 -0.05,0.02 c -0.36,0.15 -0.77,-0.02 -0.91,-0.36 -0.14,-0.33 -0.02,-0.74 0.31,-0.91 0.34,-0.19 0.75,-0.1 0.94,0.24 l 0.02,0.05 c 0.12,0.17 0.15,0.36 0.07,0.55 -0.04,0.19 -0.19,0.36 -0.38,0.41 z"
         style="fill:#000000;fill-opacity:1;fill-rule:nonzero;stroke:none"
         transform="matrix(1.3333333,0,0,-1.3333333,0,1120.8)" />
    </g>
    <g
       id="g68">
      <path
         id="path68"
         d="m 191.59,745.97 -0.24,-0.19 c -0.07,-0.08 -0.14,-0.15 -0.17,-0.22 l -0.55,-0.84 v 0.02 l -1.17,-1.72 v 0.02 l -0.2,-0.29 -0.07,-0.09 -0.41,-0.65 -0.02,-0.07 -0.02,-0.05 c -0.2,-0.36 -0.17,-0.79 0.04,-1.13 0.24,-0.34 0.63,-0.53 1.04,-0.5 0.4,0.02 0.76,0.26 0.93,0.62 l 0.03,0.05 -0.05,-0.07 0.38,0.67 -0.02,-0.05 0.19,0.31 0.02,0.03 1.08,1.82 0.05,0.1 0.41,0.91 -0.02,-0.07 0.14,0.26 c 0.24,0.38 0.14,0.89 -0.19,1.15 -0.36,0.29 -0.87,0.29 -1.18,-0.02 z"
         style="fill:#000000;fill-opacity:1;fill-rule:nonzero;stroke:none"
         transform="matrix(1.3333333,0,0,-1.3333333,0,1120.8)" />
    </g>
    <g
       id="g69">
      <path
         id="path69"
         d="m 192.65,743.47 -0.15,-0.26 -0.02,-0.05 -0.07,-0.14 0.02,0.04 -0.05,-0.14 -0.04,-0.05 -0.08,-0.17 0.05,0.08 -0.24,-0.41 0.03,0.02 -0.36,-0.62 0.12,0.17 -0.05,-0.05 c -0.05,-0.05 -0.07,-0.1 -0.12,-0.15 l -0.03,-0.07 c -0.26,-0.41 -0.16,-0.96 0.24,-1.22 0.41,-0.29 0.99,-0.17 1.25,0.24 l 0.05,0.05 -0.12,-0.12 0.05,0.04 c 0.07,0.05 0.12,0.1 0.14,0.17 l 0.39,0.63 0.02,0.02 0.22,0.43 0.04,0.1 0.08,0.14 -0.03,-0.05 0.07,0.15 0.03,0.05 0.05,0.16 c 0.04,0.1 0.07,0.22 0.07,0.32 v 0.28 c 0.02,0.39 -0.24,0.75 -0.63,0.84 -0.38,0.1 -0.76,-0.09 -0.93,-0.43 z"
         style="fill:#000000;fill-opacity:1;fill-rule:nonzero;stroke:none"
         transform="matrix(1.3333333,0,0,-1.3333333,0,1120.8)" />
    </g>
    <g
       id="g70">
      <path
         id="path70"
         d="m 187.87,739.82 0.27,-0.04 h 0.04 l 1.25,-0.17 h 0.07 l 2,-0.12 0.04,-0.03 h 1.88 v 0 h 0.14 c 0.43,0 0.84,0.24 1.06,0.63 0.21,0.36 0.21,0.84 0,1.2 -0.22,0.38 -0.63,0.62 -1.06,0.62 h -0.14 -0.05 l -1.87,-0.09 h 0.04 l -1.99,-0.05 h 0.1 l -1.27,0.07 h -0.08 -0.24 c -0.52,0 -0.98,-0.38 -1.03,-0.91 -0.05,-0.55 0.31,-1.03 0.84,-1.11 z"
         style="fill:#000000;fill-opacity:1;fill-rule:nonzero;stroke:none"
         transform="matrix(1.3333333,0,0,-1.3333333,0,1120.8)" />
    </g>
  </g>
</svg>
