<?xml version="1.0" encoding="UTF-8" standalone="no"?>
<!-- Created with Inkscape (http://www.inkscape.org/) -->

<svg
   version="1.1"
   id="svg1"
   width="32.90374"
   height="32.386665"
   viewBox="0 0 32.90374 32.386664"
   sodipodi:docname="word2.svg"
   xmlns:inkscape="http://www.inkscape.org/namespaces/inkscape"
   xmlns:sodipodi="http://sodipodi.sourceforge.net/DTD/sodipodi-0.dtd"
   xmlns="http://www.w3.org/2000/svg"
   xmlns:svg="http://www.w3.org/2000/svg">
  <defs
     id="defs1" />
  <sodipodi:namedview
     id="namedview1"
     pagecolor="#ffffff"
     bordercolor="#000000"
     borderopacity="0.25"
     inkscape:showpageshadow="2"
     inkscape:pageopacity="0.0"
     inkscape:pagecheckerboard="0"
     inkscape:deskcolor="#d1d1d1"
     inkscape:zoom="1.6785563"
     inkscape:cx="-7.1490008"
     inkscape:cy="82.511384"
     inkscape:window-width="1920"
     inkscape:window-height="1191"
     inkscape:window-x="-9"
     inkscape:window-y="-9"
     inkscape:window-maximized="1"
     inkscape:current-layer="g1">
    <inkscape:page
       x="0"
       y="0"
       inkscape:label="1"
       id="page1"
       width="32.90374"
       height="32.386665"
       margin="0"
       bleed="0" />
  </sodipodi:namedview>
  <g
     id="g1"
     inkscape:groupmode="layer"
     inkscape:label="1"
     transform="translate(-640.69622,-107.93336)">
    <g
       id="g121">
      <path
         id="path121"
         d="m 482.5,755.06 0.28,0.44 0.03,0.04 0.24,0.36 -0.05,-0.09 0.26,0.36 v 0 l 0.72,0.96 c 0.12,0.17 0.22,0.38 0.24,0.6 v 0.02 l -0.5,-0.86 v 0 c 0.34,0.24 0.5,0.57 0.53,0.93 v 0.05 -0.05 0 l -1.39,-1.12 h 0.02 c 0.29,-0.03 0.62,0.07 0.86,0.24 h 0.03 c 0.31,0.21 0.53,0.55 0.55,0.91 v 0.02 l -1.42,-1.13 v 0 c 0.34,-0.04 0.63,0.05 0.92,0.24 h 0.02 c 0.29,0.24 0.5,0.56 0.53,0.96 v 0.03 c 0.07,0.72 -0.43,1.34 -1.15,1.41 -0.72,0.08 -1.37,-0.45 -1.44,-1.17 -0.08,-0.7 0.43,-1.35 1.15,-1.42 h 0.05 l -0.89,0.46 0.05,-0.03 c 0.24,-0.28 0.6,-0.45 0.96,-0.45 0.38,0 0.74,0.14 0.98,0.41 l 0.02,0.04 -1.1,-0.43 h 0.02 c 0.72,-0.09 1.35,0.43 1.44,1.15 v 0.03 l -1.44,-1.15 0.03,-0.03 v 0 0 c 0.33,-0.02 0.67,0.07 0.93,0.24 l 0.03,0.03 -1.08,-0.2 h 0.05 c 0.36,-0.09 0.74,-0.04 1.08,0.2 v 0 l -0.82,-0.24 h 0.05 l -1.03,0.57 0.02,-0.02 c 0.24,-0.34 0.62,-0.55 1.01,-0.58 h 0.07 l -1.15,0.75 v -0.03 c 0.12,-0.26 0.36,-0.48 0.65,-0.62 h 0.04 l -0.24,0.12 0.08,-0.03 0.07,-0.07 0.05,-0.02 -0.08,0.02 0.08,-0.02 -0.6,1.25 v -0.03 c -0.05,-0.5 0.19,-0.98 0.62,-1.25 l 0.02,-0.04 c 0.22,-0.12 0.44,-0.17 0.63,-0.2 h 0.05 l -1.16,0.8 v -0.03 c 0.08,-0.12 0.12,-0.24 0.22,-0.33 l 0.05,-0.05 h -0.03 l 0.12,-0.12 h -0.02 l 0.1,-0.12 -0.12,0.24 0.07,-0.19 0.05,-0.05 0.19,-0.39 -0.07,0.17 0.02,-0.09 c 0.02,-0.05 0.05,-0.12 0.1,-0.15 l 0.04,-0.12 -0.02,0.07 0.05,-0.16 c 0.05,-0.05 0.09,-0.15 0.12,-0.2 l 0.09,-0.12 h 0.03 l 0.07,-0.12 -0.14,0.27 0.04,-0.12 c 0.08,-0.12 0.12,-0.24 0.22,-0.34 l 0.1,-0.09 v 0 l 0.07,-0.08 c 0.05,-0.07 0.09,-0.09 0.12,-0.16 l 0.24,-0.2 -0.48,1.08 v -0.04 c 0,-0.36 0.17,-0.72 0.43,-0.99 0.24,-0.26 0.6,-0.41 0.96,-0.41 h 0.02 l -1.29,0.89 v -0.02 c 0.21,-0.55 0.72,-0.91 1.32,-0.91 v 0 l -0.89,0.33 h 0.02 c 0.27,-0.21 0.58,-0.33 0.92,-0.33 h 0.02 v 0 0 h 0.02 0.03 -0.03 v 0 h 0.03 l 0.05,-0.03 h -0.05 0.05 v 0 h 0.02 v 0 h 0.02 l -0.52,0.12 h 0.02 c 0.14,-0.05 0.34,-0.12 0.5,-0.12 v 0 h 0.03 0.05 c 0.31,0 0.64,0.12 0.88,0.34 l 0.03,0.02 -0.89,-0.33 h 0.02 c 0.75,0 1.42,0.6 1.42,1.39 v 0.02 l -1.42,-1.37 h 0.03 c 0.77,0 1.39,0.6 1.41,1.37 v 0.03 c 0,0.79 -0.62,1.41 -1.41,1.41 -0.77,0 -1.39,-0.62 -1.39,-1.37 0,-0.79 0.62,-1.41 1.36,-1.44 h 0.03 c 0.21,0 0.41,0.05 0.57,0.12 l 0.03,0.03 c 0.19,0.05 0.33,0.17 0.45,0.29 l 0.08,0.07 -0.2,-0.15 0.08,0.03 0.12,0.09 0.04,0.05 v 0 l 0.1,0.07 c 0.02,0.03 0.1,0.08 0.12,0.12 l 0.12,0.15 -0.07,-0.07 0.29,0.24 c 0.02,0.04 0.07,0.09 0.12,0.12 l 0.02,0.07 0.05,0.09 0.07,0.05 -0.55,-0.45 0.07,0.04 c 0.24,0.12 0.46,0.27 0.58,0.48 l 0.04,0.08 0.03,0.07 0.07,0.05 -0.07,-0.05 0.07,0.05 h -0.02 l 0.12,0.16 c 0.04,0.08 0.07,0.15 0.12,0.2 l 0.02,0.07 c 0.1,0.17 0.14,0.38 0.14,0.6 v 0.05 l -0.86,-1.28 0.02,0.03 c 0.36,0.12 0.63,0.41 0.8,0.74 l 0.02,0.07 -0.07,-0.07 0.05,0.03 -0.36,-0.44 0.04,0.03 v 0 l 0.03,0.02 c 0.17,0.15 0.29,0.31 0.36,0.48 l 0.05,0.07 -0.72,-0.69 h 0.02 c 0.29,0.12 0.5,0.33 0.7,0.57 v 0.05 l -0.32,-0.36 0.08,0.07 v -0.04 l 0.02,0.04 -0.22,-0.16 0.08,0.07 c 0.07,0.02 0.14,0.09 0.19,0.12 l 0.05,0.02 -0.22,-0.14 0.1,0.05 -0.05,-0.03 0.12,0.1 -0.65,-0.19 v 0 0 h 0.02 l -0.26,0.04 h 0.05 c 0.09,-0.04 0.19,-0.04 0.29,-0.04 h 0.02 l -0.91,0.33 0.05,-0.02 c 0.24,-0.22 0.52,-0.34 0.86,-0.34 h 0.02 v 0 h 0.03 v 0 h 0.07 l -1.1,0.55 0.02,-0.04 c 0.26,-0.32 0.65,-0.53 1.1,-0.53 h 0.03 l -0.91,0.36 0.02,-0.03 c 0.12,-0.09 0.24,-0.19 0.36,-0.24 l 0.05,-0.04 -0.77,0.81 0.02,-0.02 c 0.22,-0.55 0.72,-0.91 1.3,-0.91 h 0.02 c 0.8,-0.03 1.44,0.6 1.44,1.39 0,0.77 -0.62,1.44 -1.41,1.44 -0.77,0 -1.39,-0.6 -1.44,-1.42 v 0 c 0,-0.41 0.19,-0.84 0.53,-1.1 h 0.02 v -0.03 l 0.05,-0.04 -0.12,0.12 0.07,-0.08 0.05,-0.07 0.07,-0.05 -0.26,0.36 0.04,-0.07 c 0.03,-0.05 0.08,-0.12 0.1,-0.21 l 0.17,-0.2 -0.07,0.15 0.12,-0.27 0.02,-0.07 0.1,-0.14 -0.1,0.17 0.05,-0.15 c 0.05,-0.05 0.09,-0.14 0.12,-0.21 l 0.09,-0.12 0.03,-0.05 0.29,-0.34 0.02,-0.05 v -0.04 c 0.05,-0.05 0.14,-0.15 0.22,-0.2 h 0.02 l -0.24,0.24 0.02,-0.04 c 0.27,-0.39 0.7,-0.6 1.18,-0.6 v 0 l -1.2,0.69 v -0.02 c 0.1,-0.15 0.22,-0.27 0.34,-0.36 l 0.02,-0.03 v 0 l 0.02,-0.04 c 0.24,-0.2 0.58,-0.32 0.92,-0.32 h 0.04 l -0.69,0.17 0.05,-0.02 -0.08,0.02 0.03,-0.02 c 0.07,-0.03 0.17,-0.07 0.21,-0.1 l 0.08,-0.02 -0.68,0.6 v -0.03 c 0.22,-0.36 0.56,-0.6 0.94,-0.67 l 0.02,-0.02 c 0.12,0 0.22,-0.03 0.32,-0.03 h 0.02 v 0 h 0.05 l -0.91,0.36 0.02,-0.04 c 0.26,-0.2 0.6,-0.32 0.94,-0.32 h 0.02 v 0 h 0.05 -0.15 0.1 c 0.12,-0.04 0.26,-0.04 0.41,0 l 0.09,0.03 h 0.1 l 0.1,0.02 c 0.04,0.03 0.12,0.07 0.19,0.1 l 0.09,0.02 -0.21,-0.09 0.09,0.04 c 0.1,0.03 0.22,0.08 0.32,0.12 l 0.12,0.05 -0.08,-0.02 0.1,0.05 -0.07,-0.03 0.09,0.03 0.15,0.07 0.07,0.05 c 0.05,0.04 0.12,0.07 0.14,0.09 l 0.24,0.19 -0.12,-0.09 0.22,0.14 0.1,0.03 0.16,0.16 0.03,0.03 0.19,0.12 c 0.05,0.02 0.1,0.09 0.14,0.12 l 0.15,0.14 v 0.03 l 0.43,0.4 0.02,0.03 0.58,0.57 -0.46,-0.31 0.03,0.03 c 0.55,0.21 0.89,0.72 0.89,1.29 l -0.05,0.03 -0.48,-1.08 0.05,0.04 -0.22,-0.19 0.02,0.03 c 0.24,0.16 0.46,0.36 0.58,0.64 l 0.02,0.05 -1.24,-0.81 h 0.02 c 0.17,0 0.36,0.04 0.53,0.09 l 0.05,0.03 c 0.14,0.07 0.26,0.16 0.38,0.24 v 0 0 l 0.02,0.04 -0.88,-0.33 h 0.02 c 0.34,0 0.65,0.12 0.89,0.33 l 0.05,0.03 -0.92,-0.36 h 0.03 v 0 h 0.05 c 0.31,0.02 0.64,0.14 0.91,0.36 v 0 l -0.89,-0.34 h 0.05 c 0.17,0 0.31,0.03 0.45,0.1 h 0.08 l -0.46,-0.07 h 0.02 l -0.86,0.31 v 0 0 l 0.02,-0.03 c 0.27,-0.21 0.58,-0.33 0.92,-0.33 h 0.04 0.03 v 0 l -0.67,0.17 0.02,-0.03 -0.43,0.36 0.05,-0.02 c 0.14,-0.19 0.36,-0.34 0.55,-0.43 l 0.05,-0.03 -0.12,0.1 0.02,-0.03 -0.07,0.03 0.07,-0.03 -0.34,0.27 0.08,-0.07 -0.36,0.93 v -0.02 c 0,-0.43 0.16,-0.82 0.48,-1.06 l 0.07,-0.09 h 0.05 l 0.02,-0.03 -0.36,0.43 0.05,-0.07 c 0.05,-0.05 0.07,-0.12 0.09,-0.14 l 0.03,-0.1 c 0.05,-0.02 0.09,-0.09 0.12,-0.14 l 0.07,-0.03 -0.12,0.15 0.02,-0.07 -0.14,0.28 0.05,-0.09 c 0.05,-0.12 0.09,-0.22 0.17,-0.31 l 0.02,-0.05 -0.19,0.36 0.05,-0.07 v 0 l 0.02,-0.08 v -0.04 l 0.1,-0.2 -0.12,0.48 0.02,-0.09 c 0,-0.1 0,-0.19 0.02,-0.27 v -0.07 c 0.03,-0.12 0.08,-0.21 0.12,-0.33 l 0.03,-0.03 c 0.05,-0.05 0.07,-0.12 0.09,-0.17 l 0.08,-0.07 -0.24,0.99 v -0.08 c -0.08,-0.36 0.04,-0.76 0.28,-1.05 l 0.03,-0.07 -0.03,0.04 0.03,-0.04 -0.07,0.16 0.02,-0.09 c 0.02,-0.07 0.1,-0.1 0.12,-0.15 l 0.02,-0.07 -0.04,0.1 0.02,-0.03 c 0.02,-0.07 0.1,-0.12 0.12,-0.19 l 0.05,-0.05 -0.05,0.08 0.02,-0.05 0.12,-0.12 0.12,-0.15 c 0.03,-0.04 0.1,-0.07 0.12,-0.09 l 0.03,-0.03 c 0.24,-0.21 0.57,-0.31 0.89,-0.31 h 0.02 0.02 0.03 v 0 h 0.05 -0.05 0.05 0.02 0.02 l -1.29,0.84 0.05,-0.02 c 0.19,-0.51 0.67,-0.84 1.24,-0.84 h 0.03 0.05 0.02 v 0 0 0 h 0.02 c 0.34,0 0.63,0.12 0.87,0.33 l 0.05,0.03 -0.89,-0.34 h 0.05 v 0 h 0.02 0.02 0.03 0.05 v 0 c 0.14,0 0.31,0.03 0.48,0.12 h 0.02 l -0.48,-0.12 v 0.03 c 0.34,0 0.62,0.12 0.86,0.33 h 0.03 l -0.24,-0.14 0.09,0.02 -0.09,-0.02 0.09,0.05 -0.04,-0.03 0.12,0.03 0.14,0.09 0.1,0.07 0.07,0.03 0.21,0.14 c 0.1,0.07 0.15,0.12 0.24,0.22 l 0.1,0.09 -0.22,-0.19 0.12,0.1 c 0.08,0.02 0.12,0.09 0.15,0.12 l 0.12,0.12 c 0.07,0.05 0.12,0.12 0.19,0.17 l 0.24,0.33 -0.07,-0.05 0.09,0.12 -0.02,-0.07 0.1,0.1 c 0.04,0.05 0.07,0.09 0.12,0.14 l 0.09,0.15 -0.19,-0.24 0.24,0.24 v 0 l 0.22,0.19 0.09,0.09 0.03,0.05 -0.12,-0.14 0.02,0.02 0.1,0.1 0.04,0.05 c 0.08,0.07 0.12,0.16 0.2,0.24 l 0.02,0.04 -0.62,-0.55 0.02,0.03 c 0.19,0.07 0.34,0.16 0.46,0.31 l 0.04,0.05 -0.43,-0.32 0.05,0.03 0.12,0.05 0.12,0.07 -0.67,-0.19 h 0.05 v 0 h 0.02 c 0.31,0 0.6,0.12 0.84,0.33 l 0.02,0.03 -0.86,-0.32 h 0.02 v 0 h 0.03 v 0 0 l -0.84,0.32 0.05,-0.03 c 0.24,-0.21 0.52,-0.33 0.84,-0.33 h 0.02 l -0.84,0.33 v -0.02 0.02 l 0.02,-0.02 c 0.24,-0.22 0.56,-0.34 0.84,-0.34 h 0.05 v 0 h 0.03 l -0.89,0.34 0.05,-0.03 -0.48,1.01 v -0.02 c 0,-0.72 0.6,-1.32 1.34,-1.32 v 0 0 h 0.02 l -0.86,0.29 h 0.02 l -0.48,1 v 0 c 0,-0.76 0.6,-1.36 1.37,-1.36 v 0 c 0.53,0 1.01,0.33 1.23,0.84 0.21,0.48 0.09,1.05 -0.27,1.44 -0.41,0.36 -0.96,0.48 -1.49,0.28 -0.48,-0.19 -0.81,-0.69 -0.81,-1.2 v -0.04 0 -0.03 c 0,-0.36 0.17,-0.69 0.41,-0.93 0.24,-0.27 0.6,-0.39 0.96,-0.39 v 0 l -1.13,0.58 0.12,-0.15 c 0.05,-0.07 0.07,-0.12 0.12,-0.16 l 0.09,-0.08 -0.14,0.15 0.05,-0.1 0.05,-0.02 0.07,-0.12 -0.03,0.02 0.08,-0.09 v 0 l 0.04,-0.08 v 0 l 0.08,-0.09 -0.12,0.26 0.07,-0.29 v 0 l 0.05,-0.07 0.02,-0.05 v -0.07 l -0.02,0.19 v -0.07 l 0.02,-0.12 0.02,-0.05 c 0.03,-0.07 0.03,-0.12 0.08,-0.19 l 0.04,-0.05 c 0.08,-0.19 0.2,-0.31 0.32,-0.43 l 0.04,-0.02 -0.4,0.69 v -0.07 c 0.02,-0.14 0.07,-0.29 0.16,-0.41 l 0.08,-0.07 -0.08,0.07 0.03,-0.07 -0.03,0.1 0.03,-0.07 c 0.09,-0.17 0.19,-0.29 0.33,-0.41 l 0.12,-0.1 c 0.24,-0.21 0.56,-0.33 0.84,-0.33 h 0.05 c 0.72,0 1.32,0.6 1.32,1.36 0,0.72 -0.6,1.32 -1.32,1.32 -0.77,0 -1.34,-0.6 -1.34,-1.36 v -0.03 c 0,-0.45 0.26,-0.89 0.67,-1.13 l 0.02,-0.04 -0.16,0.16 v -0.04 c 0.24,-0.17 0.57,-0.29 0.86,-0.29 h 0.02 l -1.03,0.5 0.03,-0.02 c 0.24,-0.34 0.62,-0.51 1,-0.51 h 0.05 v 0 h 0.05 l -1.34,1.32 v -0.04 c 0,-0.72 0.6,-1.32 1.32,-1.32 h 0.04 l -1.22,0.84 v -0.03 c 0.22,-0.5 0.7,-0.84 1.27,-0.84 v 0 0 h 0.03 v 0 h 0.04 v 0 h 0.05 v 0 0 0 h 0.03 0.02 v 0 0 h 0.02 v 0 h 0.05 v 0 h 0.03 c 0.33,0 0.62,0.12 0.86,0.34 v 0.02 l -0.84,-0.33 h 0.02 c 0.2,0 0.34,0.04 0.53,0.12 h 0.03 l -0.51,-0.08 h 0.03 c 0.24,0 0.48,0.05 0.64,0.15 l 0.17,0.09 0.07,0.05 0.17,0.1 -0.17,-0.1 0.12,0.07 c 0.1,0.05 0.2,0.12 0.24,0.17 l 0.12,0.1 -0.12,-0.1 0.12,0.1 c 0.08,0.05 0.17,0.12 0.22,0.17 l 0.12,0.09 -0.14,-0.12 0.12,0.1 h -0.03 l 0.12,0.09 c 0.12,0.08 0.19,0.17 0.29,0.29 l 0.1,0.15 -0.08,-0.08 0.22,0.24 -0.02,-0.04 0.26,0.33 v 0.03 l 0.19,0.21 -0.09,-0.12 0.04,0.1 c 0.17,0.12 0.24,0.26 0.32,0.45 l 0.02,0.05 -0.17,-0.33 0.05,0.09 -0.17,-0.17 0.05,0.03 0.07,0.05 0.07,0.09 v 0 l 0.08,0.07 -0.24,-0.19 0.14,0.1 c 0.07,0.02 0.1,0.05 0.14,0.09 l 0.05,0.03 -0.89,-0.31 h 0.05 c 0.48,0 0.89,0.24 1.13,0.64 v 0.03 l -0.26,-0.34 h 0.02 l -0.86,-0.29 h 0.02 c 0.43,0 0.79,0.17 1.06,0.51 v 0.02 l -1.54,-0.38 v -0.03 c 0.19,-0.07 0.36,-0.09 0.55,-0.09 v 0 0 h 0.03 v 0 h 0.02 v 0 0 0 h 0.07 v 0 h 0.03 v 0 h 0.02 v 0 0 0 h 0.02 l -0.72,0.21 0.08,-0.04 c 0.21,-0.15 0.45,-0.2 0.69,-0.2 h 0.03 l -1.16,0.63 h 0.05 c 0.24,-0.43 0.65,-0.67 1.13,-0.67 v 0 l -0.84,0.31 h 0.02 l -0.16,0.17 0.02,-0.03 c 0.24,-0.29 0.62,-0.5 1.03,-0.5 h 0.03 l -1.16,0.65 v -0.03 c 0.1,-0.12 0.2,-0.24 0.32,-0.33 l 0.02,-0.03 -0.1,0.1 0.17,-0.15 v 0 l 0.15,-0.19 -0.12,0.15 0.12,-0.17 0.02,-0.03 0.14,-0.19 -0.04,0.07 0.36,-0.48 -0.1,0.15 0.12,-0.24 0.02,-0.1 0.17,-0.21 0.07,-0.15 0.48,-0.6 c 0.05,-0.05 0.1,-0.09 0.12,-0.14 l 0.22,-0.19 c 0.5,-0.48 1.34,-0.44 1.87,0.07 0.48,0.53 0.48,1.34 -0.07,1.85 l -0.17,0.19 0.12,-0.12 -0.48,0.6 0.07,-0.12 -0.14,0.21 0.07,-0.07 -0.12,0.22 c -0.05,0.05 -0.07,0.12 -0.09,0.14 l -0.34,0.48 -0.05,0.1 -0.17,0.17 0.05,-0.03 -0.12,0.15 c -0.05,0.07 -0.07,0.09 -0.09,0.12 l -0.2,0.19 v 0 l -0.14,0.17 -0.12,0.09 v 0 l 0.26,-0.33 v 0.04 c -0.24,0.39 -0.67,0.63 -1.12,0.63 h -0.03 l 1.03,-0.48 -0.02,0.02 c -0.05,0.07 -0.12,0.12 -0.17,0.19 l -0.05,0.03 c -0.24,0.17 -0.52,0.29 -0.86,0.29 v 0 l 1.15,-0.65 -0.05,0.02 c -0.24,0.39 -0.64,0.67 -1.12,0.67 h -0.03 l 0.72,-0.21 -0.07,0.02 c -0.22,0.12 -0.46,0.22 -0.7,0.22 h -0.02 v 0 0 0 h -0.02 v 0 h -0.03 v 0 h -0.07 v 0 0 0 h -0.02 v 0 h -0.03 v 0 0 l 0.51,-0.12 -0.03,0.02 c -0.55,0.22 -1.17,0.07 -1.56,-0.41 v -0.04 l 1.01,0.52 h -0.02 c -0.32,0 -0.6,-0.12 -0.84,-0.31 l -0.03,-0.02 c -0.12,-0.1 -0.21,-0.22 -0.29,-0.34 l -0.02,-0.02 1.15,0.65 h -0.05 c -0.28,0 -0.6,-0.12 -0.84,-0.32 h -0.02 l 0.14,0.08 -0.14,-0.08 c -0.1,-0.07 -0.14,-0.12 -0.24,-0.19 l -0.05,-0.05 h 0.03 l -0.1,-0.07 0.1,0.07 -0.08,-0.04 c -0.04,-0.05 -0.12,-0.12 -0.16,-0.2 l -0.08,-0.09 c -0.07,-0.1 -0.14,-0.22 -0.19,-0.34 v -0.05 l 0.29,0.48 -0.1,-0.09 -0.07,-0.12 -0.19,-0.22 0.02,0.03 -0.28,-0.32 -0.03,-0.04 -0.19,-0.24 -0.05,-0.08 -0.09,-0.12 0.28,0.29 -0.12,-0.09 v 0 l -0.12,-0.08 c -0.04,-0.04 -0.07,-0.09 -0.14,-0.12 l -0.1,-0.12 0.22,0.17 -0.12,-0.09 -0.12,-0.08 -0.12,-0.09 0.26,0.17 -0.12,-0.05 c -0.04,-0.03 -0.12,-0.07 -0.14,-0.1 l -0.14,-0.09 0.12,0.07 -0.15,-0.1 0.63,0.19 h -0.03 c -0.19,0 -0.33,-0.04 -0.53,-0.12 h -0.04 l 0.52,0.08 h -0.02 c -0.29,0 -0.62,-0.08 -0.86,-0.29 v -0.03 l 0.84,0.32 h -0.03 v 0 h -0.05 v 0 h -0.02 v 0 0 h -0.02 -0.03 v 0 0 0 h -0.05 v 0 h -0.04 v 0 h -0.03 v 0 0 l 1.23,-0.84 -0.03,0.04 c -0.19,0.51 -0.69,0.84 -1.25,0.84 h -0.04 c -0.72,0 -1.32,-0.6 -1.32,-1.32 0,-0.76 0.6,-1.36 1.32,-1.36 0.74,0 1.34,0.6 1.34,1.32 v 0.04 c 0,0.36 -0.14,0.68 -0.38,0.92 -0.27,0.28 -0.6,0.4 -0.94,0.4 h -0.05 v 0 h -0.05 l 1.06,-0.52 -0.02,0.04 c -0.24,0.32 -0.63,0.51 -1.04,0.51 h -0.02 l 0.84,-0.31 v 0.04 c -0.1,0.03 -0.14,0.08 -0.22,0.12 l -0.02,0.03 0.67,-1.18 v 0.03 c 0,0.76 -0.6,1.36 -1.32,1.36 h -0.05 l 0.89,-0.33 -0.12,0.09 0.31,-0.4 -0.02,0.07 -0.05,0.05 v 0.07 l -0.07,0.05 -0.05,0.07 0.19,-0.43 -0.02,0.04 c -0.05,0.29 -0.22,0.53 -0.41,0.72 l -0.07,0.03 0.34,-0.39 -0.03,0.05 0.07,-0.17 -0.02,0.08 0.02,-0.12 v 0.04 c -0.02,0.05 -0.04,0.12 -0.04,0.17 l -0.03,0.07 0.03,-0.07 -0.03,0.1 v 0 l -0.12,0.29 c -0.05,0.12 -0.09,0.21 -0.17,0.31 l -0.04,0.09 v 0.03 l -0.08,0.09 v 0 l -0.04,0.08 -0.03,0.04 -0.09,0.12 0.02,-0.04 -0.05,0.09 c -0.05,0.07 -0.09,0.12 -0.12,0.15 l -0.09,0.09 0.12,-0.14 -0.12,0.14 c -0.24,0.39 -0.63,0.6 -1.08,0.6 v 0 l 1.32,-1.32 v 0.03 0 0.04 c 0,0.72 -0.6,1.32 -1.35,1.32 v 0 c -0.55,0 -1.03,-0.33 -1.25,-0.81 -0.21,-0.51 -0.09,-1.08 0.27,-1.47 0.41,-0.36 0.98,-0.48 1.46,-0.28 0.51,0.21 0.84,0.69 0.84,1.24 v 0 c 0,0.39 -0.19,0.77 -0.48,1.01 l -0.05,0.03 c -0.24,0.19 -0.52,0.31 -0.84,0.31 h -0.02 v 0 0 c -0.55,0 -1.03,-0.34 -1.22,-0.82 -0.22,-0.5 -0.1,-1.08 0.26,-1.44 0.38,-0.38 0.96,-0.5 1.44,-0.29 0.5,0.2 0.84,0.68 0.84,1.23 v 0.02 c 0,0.39 -0.17,0.75 -0.48,1.03 h -0.02 c -0.24,0.2 -0.56,0.32 -0.84,0.32 h -0.03 v 0 h -0.05 l 0.89,-0.32 -0.05,0.03 v 0 0 c -0.24,0.21 -0.55,0.33 -0.86,0.33 h -0.02 l 0.86,-0.33 -0.02,0.02 c -0.24,0.22 -0.56,0.34 -0.89,0.34 v 0 0 h -0.03 v 0 h -0.02 c -0.31,0 -0.6,-0.12 -0.84,-0.34 l -0.02,-0.02 0.86,0.33 h -0.02 v 0 h -0.05 c -0.24,0 -0.43,-0.07 -0.65,-0.19 l -0.1,-0.05 0.12,0.05 h -0.02 c -0.19,-0.09 -0.34,-0.17 -0.46,-0.33 l -0.04,-0.03 0.43,0.31 -0.05,-0.04 c -0.24,-0.08 -0.48,-0.29 -0.6,-0.53 l -0.02,-0.03 0.16,0.24 -0.04,-0.07 0.12,0.1 h -0.05 c -0.05,-0.07 -0.07,-0.1 -0.15,-0.15 l -0.02,-0.04 0.12,0.09 -0.22,-0.14 h 0.03 l -0.27,-0.22 c -0.04,-0.09 -0.12,-0.14 -0.16,-0.21 l -0.1,-0.15 0.12,0.15 -0.12,-0.12 -0.07,-0.05 -0.07,-0.1 -0.08,-0.09 -0.24,-0.32 0.15,0.17 -0.12,-0.12 0.17,0.15 -0.12,-0.08 c -0.08,-0.07 -0.17,-0.12 -0.22,-0.19 l -0.1,-0.12 0.22,0.19 -0.24,-0.16 0.1,0.07 -0.1,-0.07 0.12,0.07 -0.12,-0.03 -0.07,-0.04 -0.05,-0.03 -0.1,-0.05 -0.09,-0.04 c -0.05,-0.03 -0.12,-0.08 -0.17,-0.15 h -0.02 l 0.86,0.31 v 0 c -0.22,0 -0.38,-0.04 -0.55,-0.09 l -0.05,-0.03 0.58,0.08 v 0 h -0.05 -0.03 -0.02 -0.02 v 0 h -0.05 c -0.29,0.04 -0.63,-0.08 -0.87,-0.29 h -0.02 l 0.86,0.29 h -0.02 v 0 0 0 h -0.02 -0.05 -0.03 l 1.23,-0.89 v 0.02 c -0.19,0.55 -0.67,0.87 -1.23,0.91 h -0.02 -0.02 -0.05 0.05 -0.05 v 0 h -0.03 -0.02 -0.02 l 0.86,-0.33 h -0.02 l 0.12,-0.1 -0.12,0.15 0.12,-0.17 -0.05,0.05 -0.07,0.09 -0.08,0.1 0.15,-0.22 -0.03,0.03 -0.04,0.12 -0.05,0.04 0.09,-0.12 -0.04,0.08 -0.1,0.12 -0.02,0.07 -0.05,0.05 -0.05,0.07 0.24,-1.08 0.02,0.09 c 0.08,0.32 0,0.68 -0.16,0.99 l -0.08,0.05 0.12,-0.17 -0.02,0.05 0.1,-0.32 v 0.05 -0.26 0.09 c 0,0.2 -0.05,0.39 -0.1,0.53 l -0.07,0.19 0.05,-0.07 -0.05,0.07 v 0 l -0.03,0.05 c -0.02,0.15 -0.09,0.27 -0.16,0.36 l -0.05,0.07 0.17,-0.31 -0.05,0.1 c -0.03,0.12 -0.07,0.21 -0.15,0.26 l -0.02,0.1 c -0.02,0.02 -0.07,0.09 -0.12,0.12 l -0.02,0.05 0.12,-0.15 -0.08,0.1 0.1,-0.19 -0.02,0.09 c -0.1,0.15 -0.22,0.31 -0.34,0.43 l -0.07,0.05 v 0 l -0.07,0.07 0.48,-1.05 v 0.02 c 0,0.34 -0.12,0.67 -0.34,0.94 l -0.02,0.02 c -0.1,0.1 -0.2,0.19 -0.32,0.24 l -0.02,0.03 -0.1,0.07 h -0.02 l -0.14,0.09 h -0.05 l 0.55,-0.43 -0.02,0.03 c -0.1,0.16 -0.24,0.28 -0.41,0.36 l -0.03,0.04 c -0.21,0.12 -0.45,0.17 -0.69,0.17 v 0 h -0.03 -0.04 l 0.88,-0.33 -0.02,0.04 v 0 0 c -0.26,0.24 -0.6,0.36 -0.94,0.36 h -0.02 c -0.14,0 -0.31,-0.04 -0.46,-0.09 h -0.04 l 0.43,0.05 h -0.05 c -0.34,0 -0.62,-0.12 -0.91,-0.29 l -0.03,-0.03 0.92,0.29 h -0.05 v 0 h -0.03 c -0.33,0.03 -0.62,-0.09 -0.88,-0.29 l -0.05,-0.04 0.91,0.33 h -0.02 c -0.34,0 -0.65,-0.12 -0.92,-0.33 h -0.02 v 0 l -0.02,-0.03 0.36,0.22 -0.05,-0.03 0.55,0.12 h -0.02 c -0.56,0 -1.04,-0.31 -1.28,-0.79 l -0.02,-0.05 0.58,0.6 h -0.05 c -0.05,-0.07 -0.15,-0.09 -0.19,-0.16 l -0.05,-0.03 c -0.29,-0.24 -0.51,-0.62 -0.51,-1.05 v -0.03 l 0.87,1.3 -0.05,-0.03 c -0.14,-0.07 -0.31,-0.19 -0.46,-0.31 l -0.57,-0.57 v 0 l -0.41,-0.41 0.02,0.02 -0.16,-0.14 0.14,0.12 -0.19,-0.12 h 0.07 l -0.22,-0.12 0.08,0.02 -0.22,-0.12 -0.12,-0.09 -0.24,-0.15 0.17,0.1 -0.07,-0.03 0.14,0.05 -0.1,-0.02 -0.04,-0.03 -0.1,-0.07 h -0.07 l -0.07,-0.05 0.31,0.12 -0.05,-0.04 c -0.1,0 -0.14,-0.03 -0.24,-0.05 l -0.1,-0.03 0.22,0.05 -0.07,-0.02 0.07,0.02 -0.12,-0.02 0.41,0.02 h -0.07 -0.17 -0.05 v 0 h -0.02 l 0.88,-0.33 v 0.04 c -0.26,0.2 -0.6,0.32 -0.93,0.32 h -0.05 v 0 h -0.02 l 0.28,-0.03 h -0.04 l 0.91,-0.65 v 0.03 c -0.15,0.26 -0.39,0.45 -0.65,0.57 l -0.07,0.03 0.21,-0.12 -0.04,0.02 -0.08,0.07 h -0.02 c -0.22,0.12 -0.46,0.17 -0.7,0.17 l -0.04,0.03 0.91,-0.36 -0.03,0.04 v 0 l -0.02,0.03 0.29,-0.36 -0.03,0.02 c -0.24,0.46 -0.72,0.72 -1.22,0.72 v 0 l 1.13,-0.6 -0.03,0.03 c -0.04,0.09 -0.14,0.19 -0.24,0.28 l -0.02,0.03 0.22,-0.22 -0.05,0.03 0.05,-0.03 -0.24,0.34 0.02,-0.07 -0.07,0.09 0.12,-0.21 -0.05,0.16 c -0.02,0.05 -0.07,0.12 -0.1,0.17 l -0.09,0.12 0.05,-0.05 -0.17,0.27 c -0.03,0.05 -0.05,0.12 -0.07,0.17 l -0.2,0.24 0.12,-0.17 -0.02,0.05 c -0.1,0.16 -0.19,0.28 -0.26,0.36 l -0.1,0.09 0.05,-0.05 -0.07,0.08 c -0.05,0.04 -0.1,0.09 -0.12,0.12 l -0.08,0.07 v 0 h -0.02 l 0.5,-1.06 v 0 c 0,0.79 -0.64,1.42 -1.44,1.42 h -0.02 l 1.34,-0.87 -0.02,0.03 c -0.12,0.33 -0.43,0.62 -0.74,0.74 l -0.08,0.03 0.36,-0.2 -0.02,0.03 c -0.26,0.21 -0.58,0.29 -0.91,0.29 h -0.03 l 1.11,-0.51 -0.03,0.03 c -0.26,0.33 -0.69,0.55 -1.1,0.52 h -0.07 v 0 h -0.03 v 0 h -0.02 l 0.94,-0.33 v 0.02 c -0.29,0.22 -0.6,0.34 -0.94,0.34 h -0.02 l 0.28,-0.03 h -0.02 c -0.12,0.03 -0.22,0.03 -0.34,0.03 h -0.02 v 0 0 c -0.24,0 -0.48,-0.07 -0.67,-0.15 l -0.15,-0.09 h -0.02 l -0.07,-0.07 c -0.07,-0.03 -0.15,-0.08 -0.24,-0.15 v -0.02 l 0.21,0.17 -0.04,-0.05 c -0.1,-0.03 -0.17,-0.1 -0.24,-0.15 l -0.05,-0.04 h 0.05 l -0.08,-0.03 c -0.12,-0.12 -0.24,-0.24 -0.28,-0.36 l -0.05,-0.05 0.67,0.6 -0.07,-0.04 c -0.29,-0.12 -0.55,-0.39 -0.72,-0.68 v -0.07 l 0.36,0.48 -0.05,-0.02 v 0 l -0.07,-0.07 c -0.15,-0.12 -0.27,-0.29 -0.36,-0.48 v -0.03 l -0.05,-0.09 v -0.05 l 0.74,0.77 -0.04,-0.03 c -0.53,-0.21 -0.84,-0.72 -0.84,-1.29 v -0.05 l 0.12,0.6 -0.05,-0.07 0.17,0.21 -0.12,-0.17 h -0.05 l -0.03,-0.09 -0.04,-0.07 -0.05,-0.05 0.05,0.05 -0.08,-0.08 0.58,0.48 -0.1,-0.04 c -0.21,-0.12 -0.4,-0.27 -0.52,-0.48 l -0.08,-0.08 0.08,0.08 -0.08,-0.05 0.15,0.14 -0.27,-0.24 -0.04,-0.05 -0.12,-0.16 0.14,0.12 -0.1,-0.05 v 0 l -0.09,-0.07 0.12,0.09 -0.07,-0.05 c -0.08,-0.07 -0.12,-0.12 -0.2,-0.19 l -0.04,-0.05 0.43,0.32 -0.05,-0.03 0.53,0.12 h -0.03 c -0.74,0 -1.36,-0.62 -1.36,-1.41 v -0.03 c 0,-0.77 0.62,-1.37 1.39,-1.37 0.79,0 1.41,0.63 1.41,1.4 -0.02,0.79 -0.64,1.39 -1.41,1.39 h -0.03 c -0.38,0 -0.72,-0.15 -0.98,-0.43 -0.26,-0.27 -0.43,-0.63 -0.43,-0.99 v -0.02 c 0.05,-0.79 0.67,-1.39 1.41,-1.39 0.8,0 1.42,0.64 1.42,1.41 0,0.79 -0.62,1.39 -1.42,1.39 h -0.02 c -0.34,0 -0.67,-0.12 -0.91,-0.33 l -0.03,-0.03 0.92,0.32 h -0.05 -0.03 v 0 l 0.58,-0.08 h -0.02 c -0.17,0.08 -0.36,0.12 -0.56,0.12 h -0.02 v 0 h -0.02 v 0 h -0.05 0.05 -0.05 -0.03 v 0 h 0.03 -0.03 -0.02 v 0 0 h -0.02 l 0.88,-0.33 v 0 c -0.26,0.24 -0.6,0.33 -0.93,0.33 v 0 l 1.29,-0.88 v 0.04 c -0.24,0.53 -0.74,0.87 -1.32,0.87 h -0.02 l 1.42,-1.39 v 0.04 c 0,0.39 -0.2,0.77 -0.48,1.04 l -0.29,0.21 0.12,-0.12 -0.07,0.1 v 0 l -0.1,0.09 0.24,-0.31 -0.07,0.12 c -0.03,0.1 -0.07,0.15 -0.15,0.24 l -0.09,0.1 0.05,-0.03 -0.1,0.12 0.14,-0.24 -0.04,0.12 -0.05,0.05 -0.05,0.12 0.05,-0.14 -0.03,0.09 c -0.02,0.05 -0.04,0.12 -0.09,0.17 l -0.24,0.39 0.05,-0.05 -0.1,0.17 c -0.02,0.07 -0.1,0.16 -0.14,0.21 l -0.1,0.12 -0.02,0.03 -0.1,0.12 h -0.02 l -0.08,0.09 0.2,-0.26 v 0.02 c -0.29,0.48 -0.8,0.79 -1.32,0.72 h -0.05 l 0.72,-0.12 h -0.03 l 0.72,-1.08 v 0.03 c -0.02,0.43 -0.26,0.81 -0.64,1.05 l -0.05,0.03 -0.07,0.04 -0.05,0.03 0.05,-0.03 -0.08,0.03 c -0.04,0.02 -0.09,0.05 -0.14,0.05 l -0.07,0.04 0.65,-0.48 -0.05,0.03 c -0.24,0.36 -0.67,0.57 -1.13,0.53 h -0.07 l 1.08,-0.44 -0.03,0.03 c -0.26,0.29 -0.64,0.48 -1.05,0.45 h -0.05 c -0.36,0 -0.67,-0.16 -0.91,-0.4 l -0.03,-0.03 0.68,0.36 h -0.05 c -0.24,-0.05 -0.43,-0.17 -0.63,-0.36 h -0.02 l 0.77,0.36 v 0 0 h -0.03 c -0.36,-0.02 -0.69,-0.21 -0.88,-0.5 -0.22,-0.27 -0.34,-0.63 -0.29,-0.96 v -0.03 c 0.09,-0.72 0.77,-1.24 1.49,-1.15 0.72,0.1 1.22,0.75 1.12,1.47 -0.09,0.72 -0.72,1.24 -1.44,1.15 H 483 c -0.38,-0.03 -0.72,-0.24 -0.94,-0.58 l -0.02,-0.02 1.73,0.38 v 0.03 c -0.24,0.12 -0.53,0.19 -0.79,0.16 h -0.05 c -0.72,-0.07 -1.23,-0.69 -1.15,-1.41 v -0.03 l 0.38,1.04 -0.02,-0.03 0.76,0.36 v 0 c -0.36,-0.02 -0.69,-0.21 -0.88,-0.48 -0.22,-0.26 -0.32,-0.62 -0.29,-0.96 v -0.02 l 0.41,1.08 -0.05,-0.03 0.79,0.39 h -0.02 c -0.36,-0.07 -0.68,-0.22 -0.89,-0.48 -0.19,-0.31 -0.31,-0.63 -0.27,-0.99 v 0 0.05 -0.05 l 0.36,1.04 v -0.03 c -0.28,-0.29 -0.4,-0.69 -0.38,-1.08 v -0.02 l 0.17,0.84 -0.63,-1.03 c -0.02,-0.05 -0.04,-0.12 -0.09,-0.17 l -0.15,-0.39 -0.02,-0.09 -0.14,-0.43 0.04,0.12 -0.24,-0.48 c -0.24,-0.51 -0.02,-1.11 0.46,-1.37 0.48,-0.27 1.1,-0.15 1.42,0.33 z"
         style="fill:#000000;fill-opacity:1;fill-rule:nonzero;stroke:none"
         transform="matrix(1.3333333,0,0,-1.3333333,0,1120.8)" />
    </g>
    <g
       id="g122">
      <path
         id="path122"
         d="m 489.6,744.36 0.36,-0.05 h 0.02 l 0.34,-0.02 c 0.05,0 0.12,0 0.17,0 l 0.91,0.05 h 0.02 l 0.46,0.02 h -0.12 l 2.57,-0.02 v 0 l 0.91,-0.03 0.02,0.03 0.87,0.02 h -0.05 0.05 c 0.53,-0.02 1.01,0.24 1.25,0.7 0.26,0.45 0.26,0.98 0,1.41 -0.24,0.46 -0.72,0.72 -1.25,0.72 h -0.05 l -0.12,-0.02 -0.84,-0.07 h 0.02 l -0.86,-0.05 h -0.02 l -2.6,-0.22 h -0.14 l -0.43,-0.09 h 0.07 l -0.91,-0.12 h 0.07 l -0.34,-0.03 h 0.03 -0.36 c -0.55,-0.02 -1.01,-0.5 -1.03,-1.08 -0.05,-0.57 0.38,-1.08 0.98,-1.15 z"
         style="fill:#000000;fill-opacity:1;fill-rule:nonzero;stroke:none"
         transform="matrix(1.3333333,0,0,-1.3333333,0,1120.8)" />
    </g>
    <g
       id="g123">
      <path
         id="path123"
         d="m 490.49,745.32 0.07,0.19 0.02,0.12 0.08,0.24 v -0.09 l 0.04,0.26 h 0.03 l 0.07,0.24 -0.07,-0.14 0.12,0.26 v 0 l 0.09,0.22 -0.02,-0.1 0.12,0.24 v 0 l 0.12,0.24 -0.07,-0.12 0.12,0.22 v 0 l 0.36,0.5 -0.12,-0.12 0.09,0.12 0.03,0.05 0.12,0.12 -0.07,-0.1 0.07,0.1 0.07,0.05 0.1,0.12 -0.17,-0.15 0.09,0.1 0.08,0.05 0.12,0.09 -0.12,-0.09 0.12,0.09 v 0 l 0.14,0.1 -0.1,-0.07 0.15,0.09 -0.07,-0.07 0.12,0.1 0.07,0.07 0.12,0.05 -0.19,-0.12 0.12,0.07 v 0 l 0.38,0.14 h -0.02 l 0.12,0.05 -0.12,-0.05 0.14,0.05 h 0.05 l 0.17,0.07 -0.36,-0.07 h 0.14 0.1 l 0.14,0.05 v 0 l 0.14,0.02 h -0.12 0.12 v 0 h 0.12 -0.24 0.15 0.12 0.12 -0.12 l 0.17,-0.02 h -0.05 0.12 l -0.12,0.02 0.17,-0.02 h -0.05 l 0.12,-0.05 -0.07,0.05 0.31,-0.12 -0.07,0.05 0.07,-0.05 -0.12,0.05 0.07,-0.03 -0.07,0.03 0.09,-0.03 -0.12,0.05 0.1,-0.05 0.02,-0.02 0.08,-0.05 0.07,-0.05 0.09,-0.07 -0.28,0.24 0.07,-0.07 0.09,-0.1 0.08,-0.07 -0.1,0.1 0.05,-0.05 v 0 l 0.09,-0.07 -0.14,0.14 0.14,-0.19 0.08,-0.07 0.12,-0.15 -0.17,0.24 0.09,-0.19 0.08,-0.07 0.07,-0.17 -0.07,0.19 0.04,-0.14 v 0 l 0.22,-0.46 -0.07,0.12 0.07,-0.21 v 0.02 l 0.05,-0.19 -0.03,0.07 0.08,-0.19 0.02,-0.1 0.05,-0.21 -0.05,0.24 0.1,-0.63 -0.05,0.12 v -0.02 0 l 0.05,-0.05 v 0 -0.02 l 0.02,0.36 -0.02,-0.05 c -0.05,-0.12 -0.05,-0.24 -0.05,-0.36 v -0.05 l 0.05,0.41 v -0.07 c -0.05,-0.12 -0.05,-0.24 -0.05,-0.36 v -0.03 0 -0.02 l 0.12,0.65 v -0.03 c -0.03,-0.07 -0.05,-0.12 -0.05,-0.19 l -0.02,-0.02 0.07,0.14 h -0.03 l -0.02,-0.05 -0.02,-0.09 1.2,0.86 h -0.05 c -0.72,-0.05 -1.27,-0.67 -1.27,-1.44 0,-0.72 0.55,-1.34 1.27,-1.39 h 0.05 c 0.6,-0.05 1.17,0.29 1.41,0.84 l 0.03,0.07 -0.03,-0.07 v 0.02 c 0.03,0.05 0.05,0.12 0.07,0.17 l 0.05,0.07 -0.09,-0.21 v 0.02 c 0.12,0.22 0.16,0.43 0.16,0.65 v 0.02 0 0.03 l -0.04,-0.34 0.02,0.07 c 0.02,0.1 0.02,0.22 0.02,0.29 v 0.05 l -0.02,-0.34 v 0.05 c 0.02,0.12 0.07,0.22 0.07,0.34 v 0.02 0 0.05 0 0.02 c 0,0.05 0,0.15 -0.05,0.22 l -0.04,0.62 c 0,0.1 -0.03,0.15 -0.08,0.24 l -0.04,0.22 0.02,-0.1 -0.05,0.24 v 0.05 l -0.07,0.22 -0.02,0.07 -0.1,0.19 -0.02,0.17 -0.22,0.43 v 0.05 l -0.1,0.14 c -0.02,0.05 -0.04,0.12 -0.09,0.17 l -0.12,0.17 0.09,-0.1 -0.09,0.15 c -0.05,0.09 -0.12,0.19 -0.17,0.24 l -0.12,0.14 0.05,-0.05 -0.15,0.22 c -0.04,0.05 -0.09,0.07 -0.14,0.14 l -0.07,0.1 v 0 l -0.07,0.05 -0.1,0.09 -0.07,0.05 0.09,-0.07 -0.09,0.05 c -0.07,0.09 -0.17,0.19 -0.29,0.24 l -0.1,0.07 0.1,-0.07 -0.07,0.02 h 0.05 l -0.1,0.07 -0.12,0.05 -0.1,0.07 -0.04,0.03 -0.1,0.02 -0.12,0.07 -0.12,0.07 -0.1,0.03 -0.33,0.09 -0.15,0.03 -0.12,0.02 h -0.02 l -0.14,0.03 h -0.1 l -0.14,0.04 v 0 h -0.17 -0.12 -0.12 0.12 -0.17 c -0.07,0.03 -0.14,0.03 -0.24,0 h -0.12 v 0 l -0.14,-0.04 h -0.1 l -0.14,-0.03 v 0 l -0.12,-0.02 0.07,0.02 -0.12,-0.02 c -0.12,0 -0.24,-0.03 -0.31,-0.1 l -0.17,-0.02 0.09,0.02 -0.14,-0.05 -0.1,-0.04 -0.14,-0.05 v 0 l -0.38,-0.19 -0.08,-0.03 -0.14,-0.07 c -0.07,-0.02 -0.14,-0.07 -0.22,-0.12 l -0.12,-0.12 0.08,0.07 -0.12,-0.07 -0.08,-0.05 -0.12,-0.09 -0.09,-0.05 -0.12,-0.12 v 0 l -0.12,-0.1 -0.12,-0.12 -0.07,-0.09 0.04,0.07 -0.12,-0.12 c -0.02,-0.05 -0.09,-0.1 -0.14,-0.17 l -0.1,-0.14 0.03,0.07 -0.07,-0.12 -0.08,-0.1 -0.09,-0.12 0.05,0.03 -0.1,-0.12 c -0.02,-0.05 -0.07,-0.1 -0.1,-0.15 l -0.28,-0.55 -0.08,-0.12 -0.09,-0.24 -0.03,-0.07 -0.09,-0.24 v 0 l -0.07,-0.24 -0.05,-0.12 -0.03,-0.22 v 0.03 l -0.04,-0.27 -0.05,-0.14 -0.03,-0.29 v 0.07 l -0.02,-0.26 -0.02,-0.1 v -0.24 -0.02 l -0.05,-0.22 c 0,-0.55 0.36,-1.03 0.91,-1.1 0.53,-0.12 1.08,0.17 1.25,0.67 z"
         style="fill:#000000;fill-opacity:1;fill-rule:nonzero;stroke:none"
         transform="matrix(1.3333333,0,0,-1.3333333,0,1120.8)" />
    </g>
    <g
       id="g124">
      <path
         id="path124"
         d="m 483.38,737.21 0.08,0.02 v 0 l 0.02,0.05 -0.24,-0.14 h 0.02 l 0.15,0.07 0.07,0.05 0.05,0.02 0.05,0.05 -0.08,-0.07 0.1,0.07 0.12,0.07 0.05,0.05 -0.67,-0.19 h 0.04 c 0.15,-0.03 0.34,0 0.48,0.07 l 0.15,0.05 -0.12,-0.03 0.17,0.03 v 0 l 0.12,0.02 -0.2,-0.02 h 0.12 l 0.12,0.02 0.15,0.05 h -0.12 l 0.33,0.02 h -0.14 l 0.29,-0.02 v 0 h 0.29 v 0 l 0.28,-0.05 -0.09,0.05 0.29,-0.07 -0.08,0.02 0.27,-0.05 0.09,-0.02 0.32,-0.05 -0.22,0.05 0.26,-0.07 0.03,-0.03 0.31,-0.07 -0.1,0.05 0.72,-0.29 0.08,-0.02 1.36,-0.41 v 0 l 0.27,-0.1 h 0.09 l 0.24,-0.07 -0.12,0.05 0.22,-0.07 c 0.1,-0.03 0.14,-0.05 0.24,-0.05 l 0.24,-0.05 v 0 h 0.24 v 0 l 0.24,-0.02 h 0.05 l 0.53,-0.03 h 0.12 l 0.36,0.03 h 0.04 l 0.36,0.07 v 0 l 0.34,0.02 v 0 l 0.34,0.05 c 0.04,0 0.12,0.05 0.16,0.05 l 0.92,0.29 -0.08,-0.03 0.48,0.12 h -0.04 l 1.1,0.22 h -0.07 l 0.45,0.05 v 0 l 0.82,0.12 h -0.1 l 0.36,0.02 h -0.04 0.38 -0.14 l 0.36,-0.05 v 0 l 0.38,-0.02 h 0.05 l 0.38,-0.05 -0.19,0.05 0.86,-0.22 -0.07,0.03 1.83,-0.63 v 0 l 2.16,-0.69 0.14,-0.03 0.26,-0.07 h -0.02 l 0.24,-0.05 h 0.02 l 0.29,-0.02 c 0.05,-0.05 0.12,-0.05 0.17,-0.05 h 0.7 v 0 h 0.24 c 0.62,0 1.1,0.53 1.1,1.13 0,0.62 -0.48,1.13 -1.1,1.13 h -0.24 v 0 h -0.7 l 0.19,-0.03 -0.29,0.05 h 0.05 l -0.24,0.05 h -0.05 l -0.26,0.05 0.19,-0.05 -2.16,0.67 v 0 l -1.85,0.6 -0.07,0.05 -0.89,0.19 c -0.04,0.05 -0.12,0.05 -0.16,0.05 l -0.36,0.02 h 0.04 l -0.36,0.03 v 0 l -0.36,0.07 h -0.14 -0.38 -0.08 l -0.38,-0.05 h -0.1 l -0.76,-0.12 h -0.05 l -0.43,-0.05 -0.08,-0.02 -1.1,-0.22 -0.02,-0.02 -0.48,-0.1 -0.08,-0.02 -0.88,-0.29 0.16,0.05 -0.33,-0.05 v 0 l -0.31,-0.05 v 0 l -0.36,-0.07 0.07,0.05 -0.36,-0.05 h 0.12 l -0.51,0.05 h 0.08 -0.24 v 0 l -0.24,0.02 v 0 l -0.24,0.03 0.24,-0.05 -0.24,0.07 -0.12,0.05 -0.24,0.02 h 0.07 l -0.24,0.05 v 0 l -1.35,0.43 0.03,-0.02 -0.75,0.24 -0.12,0.05 -0.28,0.07 v -0.05 l -0.29,0.07 c -0.05,0.03 -0.12,0.03 -0.17,0.03 h -0.31 0.09 l -0.28,0.02 -0.08,0.05 h -0.26 -0.1 l -0.28,-0.05 v 0 h -0.29 v 0 h -0.29 l -0.14,-0.02 -0.32,-0.05 c -0.04,0 -0.12,-0.05 -0.16,-0.07 l -0.17,-0.03 0.09,0.03 -0.12,-0.05 -0.14,-0.05 -0.12,-0.05 v 0 l -0.12,-0.07 -0.02,-0.02 -0.17,-0.05 0.33,0.07 h -0.04 c -0.24,-0.02 -0.44,-0.14 -0.58,-0.31 l -0.07,-0.05 0.17,0.12 -0.08,-0.02 c -0.09,-0.05 -0.14,-0.15 -0.21,-0.22 v -0.02 l 0.19,0.21 -0.07,-0.07 0.07,0.05 -0.07,-0.05 c -0.05,-0.02 -0.12,-0.07 -0.17,-0.17 l -0.07,-0.02 v 0 l -0.03,-0.07 c -0.28,-0.34 -0.28,-0.84 0.03,-1.18 0.31,-0.31 0.81,-0.36 1.17,-0.07 z"
         style="fill:#000000;fill-opacity:1;fill-rule:nonzero;stroke:none"
         transform="matrix(1.3333333,0,0,-1.3333333,0,1120.8)" />
    </g>
    <g
       id="g125">
      <path
         id="path125"
         d="m 482.26,739.85 0.26,-0.24 0.05,-0.05 0.07,-0.05 v 0 l 0.07,-0.05 -0.12,0.1 0.1,-0.07 -0.12,0.14 0.05,-0.07 c 0.02,-0.05 0.07,-0.12 0.12,-0.14 l 0.07,-0.1 -0.1,0.12 0.17,-0.24 v 0 l 0.1,-0.12 v 0 l 0.04,-0.07 v 0 l 0.08,-0.1 c 0.04,-0.07 0.09,-0.09 0.14,-0.14 l 0.24,-0.22 0.12,-0.09 0.22,-0.12 0.07,-0.05 0.05,-0.03 c 0.31,-0.14 0.67,-0.12 0.96,0.08 0.26,0.19 0.43,0.52 0.4,0.86 -0.02,0.36 -0.24,0.65 -0.55,0.79 l -0.07,0.03 0.1,-0.05 -0.2,0.12 0.15,-0.1 -0.27,0.22 0.15,-0.12 -0.07,0.07 v 0 l -0.1,0.1 v 0 l -0.07,0.09 0.02,-0.02 -0.17,0.24 c -0.04,0.05 -0.09,0.07 -0.14,0.12 l -0.07,0.07 0.12,-0.12 -0.05,0.05 c -0.02,0.05 -0.07,0.09 -0.12,0.12 l -0.1,0.09 c -0.04,0.05 -0.09,0.1 -0.14,0.12 l -0.07,0.05 v 0 l -0.07,0.05 -0.1,0.02 -0.31,0.15 c -0.41,0.19 -0.87,0.05 -1.08,-0.31 -0.24,-0.36 -0.17,-0.87 0.17,-1.13 z"
         style="fill:#000000;fill-opacity:1;fill-rule:nonzero;stroke:none"
         transform="matrix(1.3333333,0,0,-1.3333333,0,1120.8)" />
    </g>
    <g
       id="g126">
      <path
         id="path126"
         d="m 485.69,740.93 -0.1,-0.19 0.05,0.09 -0.1,-0.14 -0.04,-0.05 -0.1,-0.17 0.05,0.05 -0.12,-0.12 h 0.02 l -0.29,-0.34 v 0 l -0.38,-0.48 -0.02,-0.04 -0.05,-0.08 c -0.31,-0.43 -0.19,-1.03 0.24,-1.34 0.43,-0.29 1.03,-0.19 1.32,0.24 l 0.07,0.1 -0.02,-0.03 0.36,0.51 v -0.03 l 0.26,0.36 0.02,0.05 0.1,0.14 0.05,0.08 0.07,0.14 -0.02,-0.05 0.09,0.15 c 0.05,0.12 0.12,0.24 0.15,0.36 l 0.02,0.24 c 0.05,0.38 -0.19,0.79 -0.6,0.91 -0.38,0.17 -0.82,0 -1.03,-0.36 z"
         style="fill:#000000;fill-opacity:1;fill-rule:nonzero;stroke:none"
         transform="matrix(1.3333333,0,0,-1.3333333,0,1120.8)" />
    </g>
  </g>
</svg>
