<?xml version="1.0" encoding="UTF-8" standalone="no"?>
<!-- Created with Inkscape (http://www.inkscape.org/) -->

<svg
   version="1.1"
   id="svg1"
   width="45.758099"
   height="33.494949"
   viewBox="0 0 45.758099 33.494948"
   sodipodi:docname="word2.svg"
   xmlns:inkscape="http://www.inkscape.org/namespaces/inkscape"
   xmlns:sodipodi="http://sodipodi.sourceforge.net/DTD/sodipodi-0.dtd"
   xmlns="http://www.w3.org/2000/svg"
   xmlns:svg="http://www.w3.org/2000/svg">
  <defs
     id="defs1" />
  <sodipodi:namedview
     id="namedview1"
     pagecolor="#ffffff"
     bordercolor="#000000"
     borderopacity="0.25"
     inkscape:showpageshadow="2"
     inkscape:pageopacity="0.0"
     inkscape:pagecheckerboard="0"
     inkscape:deskcolor="#d1d1d1"
     inkscape:zoom="1.6785563"
     inkscape:cx="-7.1490008"
     inkscape:cy="82.511384"
     inkscape:window-width="1920"
     inkscape:window-height="1191"
     inkscape:window-x="-9"
     inkscape:window-y="-9"
     inkscape:window-maximized="1"
     inkscape:current-layer="g1">
    <inkscape:page
       x="0"
       y="0"
       inkscape:label="1"
       id="page1"
       width="45.758099"
       height="33.494949"
       margin="0"
       bleed="0" />
  </sodipodi:namedview>
  <g
     id="g1"
     inkscape:groupmode="layer"
     inkscape:label="1"
     transform="translate(-732.70855,-107.81336)">
    <g
       id="g127">
      <path
         id="path127"
         d="m 551.47,753.94 0.31,0.45 0.03,0.03 0.24,0.36 -0.07,-0.05 0.28,0.33 v 0 l 0.72,0.96 c 0.15,0.17 0.2,0.39 0.24,0.63 v 0 l -0.52,-0.87 h 0.04 c 0.29,0.24 0.48,0.56 0.51,0.96 l 0.02,0.03 -0.02,-0.07 v 0.04 l -1.42,-1.15 h 0.03 c 0.31,-0.02 0.64,0.07 0.88,0.24 h 0.03 c 0.29,0.22 0.5,0.55 0.53,0.91 v 0.03 l -1.4,-1.15 v 0 c 0.32,-0.03 0.65,0.07 0.89,0.24 l 0.03,0.04 c 0.31,0.2 0.52,0.56 0.55,0.92 v 0.04 c 0.05,0.72 -0.46,1.35 -1.18,1.44 -0.72,0.05 -1.34,-0.48 -1.41,-1.17 -0.08,-0.72 0.43,-1.39 1.15,-1.44 h 0.02 l -0.86,0.45 h 0.02 c 0.24,-0.31 0.6,-0.48 0.96,-0.48 0.39,0 0.75,0.15 1.03,0.41 v 0.03 l -1.12,-0.41 h 0.04 c 0.72,-0.07 1.35,0.41 1.44,1.13 v 0.04 l -1.44,-1.15 h 0.03 v 0 h 0.02 c 0.31,-0.05 0.63,0.03 0.91,0.22 l 0.03,0.02 -1.08,-0.21 h 0.02 c 0.36,-0.08 0.75,0 1.08,0.21 v 0 l -0.81,-0.24 h 0.07 l -1.06,0.58 0.03,-0.03 c 0.24,-0.33 0.64,-0.55 1.05,-0.57 h 0.03 l -1.13,0.74 v 0 c 0.14,-0.29 0.36,-0.5 0.62,-0.62 l 0.07,-0.03 -0.24,0.12 0.05,-0.04 0.1,-0.05 h 0.02 l -0.05,0.02 0.05,-0.05 -0.6,1.25 v 0 c -0.02,-0.53 0.22,-1.01 0.63,-1.29 l 0.04,-0.03 c 0.2,-0.12 0.41,-0.17 0.63,-0.21 h 0.02 l -1.13,0.81 v -0.02 c 0.05,-0.12 0.12,-0.24 0.2,-0.34 l 0.07,-0.05 h -0.03 l 0.12,-0.12 -0.04,0.03 0.09,-0.15 -0.12,0.24 0.1,-0.19 0.02,-0.05 0.22,-0.4 -0.1,0.19 0.03,-0.1 c 0.04,-0.05 0.07,-0.09 0.09,-0.14 l 0.07,-0.12 -0.04,0.05 0.07,-0.12 c 0.02,-0.08 0.09,-0.15 0.12,-0.24 l 0.09,-0.12 h 0.03 l 0.05,-0.08 -0.15,0.24 0.07,-0.12 c 0.05,-0.12 0.12,-0.24 0.2,-0.33 l 0.09,-0.1 v 0 l 0.1,-0.09 c 0.02,-0.05 0.09,-0.08 0.12,-0.15 l 0.26,-0.21 -0.5,1.08 v -0.03 c 0,-0.36 0.14,-0.72 0.41,-0.98 0.24,-0.27 0.6,-0.43 0.96,-0.43 h 0.04 l -1.29,0.91 v -0.03 c 0.21,-0.55 0.72,-0.88 1.32,-0.91 v 0 l -0.87,0.36 v -0.02 c 0.27,-0.22 0.56,-0.34 0.89,-0.34 h 0.03 v 0 h 0.04 v 0 h 0.03 -0.03 0.03 v 0 h 0.02 v 0 0 h 0.03 v 0 0 h 0.04 l -0.55,0.1 h 0.03 c 0.16,-0.07 0.33,-0.12 0.52,-0.12 v 0 h 0.03 0.02 c 0.34,0 0.67,0.12 0.91,0.33 l 0.03,0.03 -0.91,-0.34 h 0.04 c 0.77,0 1.4,0.63 1.4,1.39 v 0.03 l -1.4,-1.39 h 0.03 c 0.74,0 1.37,0.6 1.41,1.39 v 0.02 c 0,0.79 -0.64,1.42 -1.41,1.42 -0.75,0 -1.42,-0.63 -1.42,-1.39 0,-0.77 0.63,-1.4 1.42,-1.4 v 0 c 0.21,0 0.38,0.03 0.57,0.08 l 0.03,0.04 c 0.17,0.05 0.33,0.17 0.45,0.29 l 0.05,0.07 -0.17,-0.16 0.08,0.04 0.09,0.08 0.07,0.07 v 0 l 0.08,0.05 c 0.07,0.07 0.09,0.09 0.12,0.16 l 0.12,0.12 -0.05,-0.07 0.26,0.24 c 0.03,0.03 0.1,0.1 0.12,0.12 l 0.07,0.1 0.05,0.05 0.03,0.09 -0.53,-0.48 0.09,0.03 c 0.2,0.12 0.41,0.28 0.53,0.52 l 0.07,0.08 0.03,0.04 0.05,0.05 -0.05,-0.05 0.05,0.05 h -0.03 l 0.12,0.19 c 0.07,0.05 0.1,0.12 0.12,0.17 l 0.03,0.07 c 0.09,0.17 0.16,0.39 0.16,0.6 v 0.05 l -0.88,-1.29 0.04,0.04 c 0.36,0.15 0.63,0.41 0.77,0.77 l 0.03,0.07 -0.05,-0.09 0.02,0.02 -0.36,-0.45 0.07,0.04 v 0 l 0.03,0.03 c 0.14,0.14 0.29,0.29 0.36,0.48 l 0.02,0.05 -0.72,-0.68 h 0.03 c 0.31,0.12 0.55,0.32 0.69,0.6 l 0.03,0.03 -0.29,-0.36 0.05,0.05 h -0.03 0.03 l -0.2,-0.12 0.05,0.04 c 0.1,0.03 0.15,0.08 0.22,0.15 h 0.02 l -0.21,-0.15 0.09,0.05 -0.02,-0.02 0.12,0.09 -0.67,-0.19 h 0.04 -0.04 0.07 l -0.31,0.03 h 0.07 c 0.09,-0.03 0.17,-0.03 0.26,-0.03 h 0.03 l -0.89,0.34 h 0.02 c 0.24,-0.24 0.55,-0.36 0.87,-0.36 h 0.04 v 0 h 0.03 v 0 h 0.05 l -1.11,0.53 0.03,-0.03 c 0.28,-0.33 0.67,-0.53 1.12,-0.53 h 0.03 l -0.94,0.36 0.03,-0.04 c 0.12,-0.08 0.24,-0.17 0.36,-0.24 h 0.07 l -0.75,0.79 v -0.03 c 0.2,-0.55 0.72,-0.91 1.28,-0.91 h 0.04 c 0.77,-0.02 1.44,0.6 1.44,1.39 0,0.77 -0.62,1.44 -1.41,1.44 -0.79,0.03 -1.42,-0.6 -1.42,-1.39 v -0.02 c -0.02,-0.43 0.15,-0.82 0.48,-1.11 h 0.03 v 0 l 0.07,-0.07 -0.12,0.12 0.05,-0.09 0.07,-0.05 0.05,-0.07 -0.27,0.36 0.07,-0.05 c 0.03,-0.07 0.05,-0.12 0.12,-0.19 l 0.15,-0.24 -0.1,0.16 0.12,-0.28 0.07,-0.05 0.05,-0.12 -0.05,0.14 0.03,-0.14 c 0.05,-0.07 0.09,-0.12 0.12,-0.22 l 0.09,-0.09 0.03,-0.08 0.26,-0.33 0.03,-0.07 0.04,-0.03 c 0.05,-0.05 0.12,-0.14 0.17,-0.21 h 0.03 l -0.24,0.28 0.04,-0.07 c 0.27,-0.38 0.7,-0.6 1.18,-0.6 h 0.02 l -1.24,0.7 0.04,-0.03 c 0.05,-0.16 0.17,-0.28 0.29,-0.36 l 0.03,-0.04 v 0 l 0.04,-0.03 c 0.24,-0.21 0.58,-0.33 0.89,-0.33 h 0.07 l -0.69,0.19 0.02,-0.03 -0.05,0.05 0.03,-0.02 c 0.09,-0.07 0.14,-0.1 0.21,-0.12 l 0.05,-0.03 -0.65,0.6 v -0.04 c 0.2,-0.32 0.53,-0.56 0.94,-0.65 h 0.05 c 0.09,-0.03 0.19,-0.03 0.26,-0.03 h 0.05 v 0 h 0.05 l -0.89,0.32 v -0.03 c 0.26,-0.21 0.6,-0.33 0.91,-0.33 h 0.07 v 0 h 0.03 -0.15 0.1 c 0.14,-0.03 0.26,-0.03 0.41,0 l 0.09,0.04 0.1,0.03 h 0.07 c 0.07,0.02 0.17,0.05 0.22,0.09 l 0.09,0.03 -0.21,-0.07 h 0.09 c 0.1,0.04 0.22,0.09 0.34,0.16 l 0.07,0.03 -0.05,-0.03 0.1,0.05 -0.07,-0.02 0.09,0.02 0.15,0.1 0.07,0.02 c 0.05,0.03 0.12,0.07 0.14,0.1 l 0.24,0.17 -0.12,-0.05 0.22,0.12 0.07,0.02 0.19,0.15 0.03,0.04 0.19,0.12 c 0.05,0.05 0.12,0.08 0.14,0.15 l 0.15,0.14 v 0 l 0.43,0.43 h 0.02 l 0.58,0.56 -0.46,-0.29 0.03,0.02 c 0.55,0.22 0.86,0.75 0.86,1.32 v 0 l -0.48,-1.08 v 0.03 l -0.19,-0.15 h 0.02 c 0.27,0.15 0.46,0.36 0.58,0.63 l 0.02,0.07 -1.22,-0.82 v 0 c 0.17,0 0.36,0.03 0.53,0.12 h 0.07 c 0.12,0.07 0.24,0.15 0.36,0.24 v 0.03 0 h 0.02 l -0.91,-0.32 h 0.05 c 0.31,0 0.65,0.12 0.89,0.32 l 0.02,0.04 -0.89,-0.33 h 0.03 v 0 h 0.07 c 0.31,0 0.62,0.12 0.89,0.33 v 0.03 l -0.89,-0.36 h 0.05 c 0.14,0 0.31,0.02 0.45,0.09 l 0.05,0.03 -0.43,-0.1 h 0.05 l -0.89,0.34 v -0.03 0 l 0.02,-0.04 c 0.27,-0.2 0.6,-0.32 0.94,-0.32 h 0.02 0.03 v 0 l -0.7,0.17 0.05,-0.02 -0.41,0.36 v -0.03 c 0.17,-0.19 0.36,-0.33 0.58,-0.43 h 0.02 l -0.12,0.07 0.05,-0.04 -0.07,0.04 0.07,-0.04 -0.34,0.28 0.05,-0.07 -0.36,0.94 v -0.03 c 0,-0.43 0.19,-0.79 0.48,-1.05 l 0.1,-0.07 0.02,-0.03 0.05,-0.02 -0.34,0.41 0.03,-0.05 c 0.02,-0.07 0.07,-0.12 0.09,-0.15 l 0.03,-0.07 c 0.07,-0.05 0.09,-0.12 0.12,-0.14 l 0.07,-0.07 -0.12,0.16 0.02,-0.07 -0.14,0.27 0.05,-0.08 c 0.02,-0.12 0.09,-0.21 0.14,-0.31 l 0.05,-0.05 -0.19,0.36 0.02,-0.07 v 0 l 0.05,-0.09 v -0.03 l 0.07,-0.17 -0.07,0.48 v -0.09 c 0,-0.12 0,-0.22 0.02,-0.31 v -0.05 c 0.03,-0.1 0.05,-0.22 0.12,-0.31 l 0.03,-0.05 c 0.02,-0.07 0.07,-0.12 0.09,-0.19 l 0.05,-0.05 -0.24,0.98 v -0.05 c -0.05,-0.4 0.07,-0.79 0.31,-1.08 l 0.03,-0.07 -0.03,0.07 0.05,-0.07 -0.12,0.19 0.07,-0.09 c 0.03,-0.07 0.05,-0.12 0.1,-0.19 l 0.02,-0.05 -0.02,0.09 v -0.04 c 0.05,-0.05 0.07,-0.12 0.12,-0.17 l 0.05,-0.07 -0.05,0.09 0.05,-0.05 0.09,-0.12 0.12,-0.12 c 0.05,-0.07 0.1,-0.09 0.12,-0.12 l 0.03,-0.04 c 0.24,-0.2 0.57,-0.29 0.86,-0.29 h 0.07 v 0 h 0.03 v 0 h 0.02 -0.02 0.07 v 0 h 0.02 l -1.29,0.84 0.02,-0.03 c 0.22,-0.52 0.7,-0.84 1.27,-0.84 h 0.03 0.02 0.05 v 0 0 0 h 0.02 c 0.34,0 0.63,0.12 0.87,0.32 l 0.02,0.04 -0.86,-0.33 h 0.02 v 0 h 0.05 0.02 0.03 0.02 v 0 c 0.19,0 0.34,0.05 0.48,0.12 h 0.05 l -0.48,-0.1 h 0.02 c 0.29,0 0.6,0.12 0.84,0.34 h 0.03 l -0.24,-0.15 0.09,0.05 -0.07,-0.05 0.07,0.05 -0.07,-0.02 0.12,0.05 0.17,0.07 0.07,0.05 0.1,0.04 0.21,0.17 c 0.1,0.03 0.15,0.1 0.24,0.19 l 0.1,0.08 -0.22,-0.15 0.12,0.07 c 0.05,0.05 0.12,0.08 0.17,0.15 l 0.12,0.09 c 0.05,0.05 0.1,0.12 0.17,0.17 l 0.24,0.34 -0.07,-0.07 0.09,0.12 -0.02,-0.05 0.07,0.12 c 0.07,0.02 0.1,0.09 0.12,0.12 l 0.1,0.14 -0.17,-0.24 0.24,0.24 v 0 l 0.19,0.19 0.1,0.08 0.07,0.07 -0.17,-0.15 0.05,0.03 0.07,0.09 0.07,0.05 c 0.05,0.07 0.12,0.15 0.17,0.24 l 0.05,0.03 -0.65,-0.53 0.07,0.02 c 0.15,0.07 0.29,0.19 0.41,0.31 l 0.07,0.05 -0.45,-0.33 0.07,0.04 0.12,0.05 0.12,0.07 -0.67,-0.16 h 0.02 v 0 h 0.05 c 0.29,0 0.6,0.09 0.84,0.31 l 0.02,0.02 -0.86,-0.33 h 0.02 v 0 h 0.03 v 0 0 l -0.84,0.33 0.02,-0.02 c 0.24,-0.22 0.55,-0.31 0.84,-0.31 h 0.05 l -0.84,0.31 v 0 0 l 0.02,-0.03 c 0.24,-0.21 0.53,-0.31 0.84,-0.31 h 0.03 v 0 h 0.02 l -0.86,0.31 0.02,-0.04 -0.48,1.03 v -0.03 c 0,-0.72 0.6,-1.32 1.37,-1.32 v 0 0 h 0.02 l -0.86,0.29 h 0.02 l -0.48,0.99 v 0 c 0,-0.75 0.6,-1.32 1.35,-1.32 v 0 c 0.55,0 1.03,0.31 1.22,0.81 0.22,0.48 0.1,1.06 -0.26,1.44 -0.39,0.39 -0.96,0.48 -1.44,0.31 -0.51,-0.21 -0.84,-0.69 -0.84,-1.24 v -0.03 0 -0.02 c 0,-0.36 0.14,-0.7 0.38,-0.94 0.29,-0.26 0.6,-0.38 0.96,-0.38 v 0 l -1.1,0.6 0.12,-0.19 c 0.02,-0.05 0.07,-0.12 0.12,-0.15 l 0.09,-0.09 -0.14,0.16 0.05,-0.09 h 0.02 l 0.1,-0.15 -0.03,0.03 0.05,-0.1 v 0 l 0.07,-0.09 v 0.04 l 0.05,-0.12 -0.12,0.27 0.1,-0.31 v 0 l 0.02,-0.05 0.05,-0.07 0.02,-0.05 -0.07,0.17 v -0.05 l 0.05,-0.12 0.02,-0.07 c 0.03,-0.05 0.03,-0.12 0.05,-0.17 l 0.07,-0.07 c 0.05,-0.15 0.17,-0.29 0.34,-0.41 l 0.02,-0.03 -0.43,0.68 v -0.03 c 0.05,-0.17 0.1,-0.33 0.19,-0.45 l 0.05,-0.05 -0.02,0.05 v -0.03 l -0.03,0.07 0.03,-0.07 c 0.09,-0.17 0.21,-0.29 0.33,-0.41 l 0.12,-0.09 c 0.24,-0.22 0.53,-0.31 0.84,-0.31 h 0.03 c 0.72,0 1.32,0.57 1.32,1.32 0,0.72 -0.6,1.32 -1.32,1.32 -0.72,0 -1.32,-0.6 -1.32,-1.32 v -0.03 c 0,-0.48 0.24,-0.93 0.67,-1.17 h 0.02 l -0.19,0.12 h 0.05 c 0.24,-0.2 0.53,-0.32 0.84,-0.32 h 0.02 l -1.05,0.51 0.02,-0.03 c 0.24,-0.33 0.65,-0.52 1.06,-0.52 v 0 0 h 0.07 l -1.37,1.32 v 0 c 0,-0.75 0.6,-1.32 1.37,-1.32 h 0.02 l -1.22,0.81 0.02,-0.02 c 0.17,-0.48 0.7,-0.84 1.23,-0.82 v 0 0 h 0.02 v 0 h 0.07 v 0 h 0.03 v 0 0 0 h 0.07 v 0 0 0 h 0.02 v 0 h 0.03 v 0 h 0.02 c 0.34,0 0.65,0.1 0.89,0.31 v 0.03 l -0.84,-0.34 h 0.02 c 0.17,0 0.36,0.03 0.51,0.12 h 0.07 l -0.55,-0.09 h 0.07 c 0.19,0 0.43,0.07 0.62,0.19 l 0.15,0.05 0.09,0.07 0.15,0.12 -0.15,-0.12 0.12,0.05 c 0.1,0.07 0.17,0.12 0.24,0.19 l 0.12,0.09 -0.12,-0.09 0.12,0.09 c 0.1,0.05 0.15,0.12 0.22,0.17 l 0.12,0.12 -0.17,-0.14 0.12,0.09 h -0.02 l 0.12,0.08 c 0.12,0.09 0.21,0.19 0.31,0.31 l 0.07,0.14 -0.05,-0.09 0.22,0.28 -0.05,-0.07 0.29,0.34 v 0.02 l 0.17,0.22 -0.1,-0.1 0.1,0.07 c 0.12,0.12 0.21,0.27 0.31,0.44 v 0.07 l -0.19,-0.34 0.07,0.1 -0.19,-0.19 0.07,0.04 0.05,0.05 0.09,0.1 v 0 l 0.05,0.05 -0.24,-0.17 0.17,0.09 c 0.05,0.03 0.07,0.05 0.14,0.12 h 0.03 l -0.87,-0.31 h 0.03 c 0.48,0 0.91,0.24 1.15,0.63 v 0.04 l -0.29,-0.33 0.05,0.02 -0.89,-0.33 h 0.05 c 0.41,0 0.77,0.19 1.03,0.52 l 0.05,0.03 -1.56,-0.39 0.02,-0.04 c 0.15,-0.05 0.34,-0.08 0.51,-0.08 h 0.02 v 0 0 0 h 0.05 v 0 h 0.02 v 0 h 0.03 v 0 h 0.02 v 0 h 0.05 v 0 0 0 h 0.02 l -0.72,0.2 0.05,-0.03 c 0.22,-0.14 0.46,-0.21 0.72,-0.21 v 0 l -1.1,0.64 v 0 c 0.24,-0.43 0.67,-0.67 1.15,-0.67 h 0.02 l -0.86,0.34 0.02,-0.03 -0.19,0.17 0.05,-0.02 c 0.24,-0.31 0.62,-0.48 1.01,-0.48 h 0.02 l -1.13,0.62 0.03,-0.02 c 0.07,-0.12 0.14,-0.24 0.26,-0.34 H 570 l -0.1,0.07 0.15,-0.16 v 0 l 0.14,-0.15 -0.07,0.12 0.12,-0.17 v -0.04 l 0.14,-0.17 -0.02,0.09 0.31,-0.52 -0.07,0.16 0.12,-0.24 0.02,-0.09 0.15,-0.22 0.09,-0.12 0.48,-0.62 c 0.03,-0.03 0.1,-0.1 0.12,-0.12 l 0.22,-0.19 c 0.5,-0.51 1.34,-0.48 1.85,0.04 0.5,0.53 0.48,1.37 -0.05,1.85 l -0.19,0.19 0.12,-0.12 -0.48,0.6 0.09,-0.12 -0.14,0.24 0.05,-0.09 -0.12,0.21 c -0.03,0.05 -0.05,0.12 -0.1,0.15 l -0.31,0.5 -0.07,0.07 -0.15,0.17 0.03,-0.02 -0.12,0.14 c -0.03,0.07 -0.05,0.1 -0.1,0.15 l -0.17,0.16 v 0 l -0.14,0.17 -0.1,0.1 h -0.02 l 0.26,-0.34 v 0.03 c -0.24,0.4 -0.67,0.64 -1.15,0.64 h -0.02 l 1.05,-0.48 -0.02,0.03 c -0.07,0.05 -0.12,0.12 -0.19,0.17 l -0.03,0.04 c -0.24,0.2 -0.55,0.29 -0.84,0.29 h -0.02 l 1.13,-0.62 h -0.03 c -0.24,0.41 -0.67,0.65 -1.15,0.65 v 0 l 0.7,-0.2 -0.03,0.03 c -0.24,0.12 -0.48,0.21 -0.72,0.21 h -0.02 v 0 0 0 h -0.05 v 0 h -0.02 v 0 h -0.03 v 0 h -0.02 v 0 h -0.05 v 0 0 0 h -0.02 l 0.5,-0.12 -0.02,0.03 c -0.53,0.21 -1.18,0.05 -1.56,-0.43 v -0.03 l 1.03,0.51 h -0.05 c -0.29,0 -0.6,-0.08 -0.84,-0.29 l -0.02,-0.03 c -0.12,-0.09 -0.22,-0.21 -0.27,-0.33 l -0.02,-0.03 1.13,0.65 h -0.03 c -0.31,0 -0.6,-0.12 -0.84,-0.33 h -0.02 l 0.14,0.09 -0.14,-0.09 c -0.1,-0.03 -0.17,-0.12 -0.24,-0.17 l -0.07,-0.07 h 0.02 l -0.05,-0.05 0.05,0.05 -0.05,-0.03 c -0.07,-0.05 -0.12,-0.12 -0.19,-0.17 l -0.05,-0.09 c -0.09,-0.12 -0.14,-0.22 -0.19,-0.34 l -0.02,-0.09 0.31,0.48 -0.1,-0.08 -0.09,-0.09 -0.17,-0.24 0.02,0.02 -0.26,-0.33 -0.05,-0.03 -0.19,-0.24 -0.07,-0.09 -0.1,-0.12 0.31,0.31 -0.09,-0.07 -0.03,-0.03 -0.12,-0.09 c -0.02,-0.03 -0.09,-0.05 -0.14,-0.12 l -0.1,-0.12 0.22,0.19 -0.12,-0.1 -0.12,-0.05 -0.12,-0.09 0.26,0.14 -0.12,-0.05 c -0.07,-0.04 -0.12,-0.07 -0.14,-0.09 l -0.17,-0.1 0.12,0.07 -0.14,-0.09 0.67,0.17 h -0.07 c -0.17,0 -0.34,-0.03 -0.51,-0.08 l -0.02,-0.04 0.5,0.09 h -0.02 c -0.31,0 -0.65,-0.09 -0.84,-0.29 l -0.05,-0.04 0.84,0.33 h -0.02 v 0 h -0.03 v 0 h -0.02 v 0 0 0 h -0.07 v 0 0 0 h -0.03 v 0 h -0.07 v 0 h -0.02 v 0 0 l 1.22,-0.84 -0.02,0.03 c -0.17,0.52 -0.7,0.84 -1.23,0.84 h -0.02 c -0.77,0 -1.37,-0.6 -1.37,-1.32 0,-0.75 0.6,-1.32 1.32,-1.32 0.77,-0.03 1.37,0.57 1.37,1.32 v 0 c 0,0.36 -0.17,0.69 -0.41,0.93 -0.24,0.27 -0.6,0.39 -0.91,0.39 h -0.07 v 0 0 l 1.03,-0.48 -0.05,0.04 c -0.24,0.29 -0.62,0.48 -1.01,0.51 h -0.02 l 0.86,-0.34 -0.02,0.03 c -0.07,0.07 -0.17,0.09 -0.22,0.12 l -0.02,0.04 0.65,-1.15 v 0.03 c 0,0.72 -0.6,1.32 -1.32,1.32 h -0.03 l 0.87,-0.32 -0.12,0.08 0.33,-0.39 -0.02,0.07 -0.07,0.08 v 0.04 l -0.05,0.05 -0.05,0.1 0.19,-0.46 v 0.07 c -0.09,0.27 -0.24,0.51 -0.45,0.68 l -0.03,0.07 0.29,-0.43 -0.02,0.07 0.09,-0.19 -0.02,0.09 0.02,-0.12 v 0.03 c -0.02,0.07 -0.07,0.12 -0.07,0.19 l -0.02,0.05 0.02,-0.05 -0.02,0.09 v 0 l -0.12,0.32 c -0.03,0.09 -0.1,0.19 -0.12,0.28 l -0.1,0.08 v 0.04 l -0.05,0.08 v 0 l -0.07,0.09 -0.02,0.03 -0.05,0.12 v -0.03 l -0.07,0.1 c -0.03,0.05 -0.1,0.12 -0.12,0.17 l -0.1,0.09 0.12,-0.17 -0.07,0.17 c -0.29,0.36 -0.67,0.58 -1.13,0.58 v 0 l 1.32,-1.32 v 0.02 0 0.03 c 0,0.72 -0.6,1.32 -1.34,1.32 v 0 c -0.53,0 -1.01,-0.32 -1.23,-0.8 -0.21,-0.52 -0.09,-1.08 0.27,-1.44 0.38,-0.4 0.96,-0.52 1.46,-0.31 0.48,0.22 0.82,0.7 0.82,1.23 v 0 c 0,0.4 -0.17,0.79 -0.48,1.03 l -0.03,0.02 c -0.24,0.22 -0.55,0.31 -0.84,0.31 h -0.02 v 0 0 c -0.55,0 -1.03,-0.31 -1.25,-0.81 -0.19,-0.48 -0.07,-1.06 0.29,-1.44 0.38,-0.39 0.96,-0.51 1.46,-0.31 0.48,0.21 0.82,0.69 0.82,1.24 v 0.03 c 0,0.38 -0.19,0.74 -0.48,1.01 l -0.05,0.04 c -0.24,0.17 -0.53,0.29 -0.84,0.29 h -0.02 v 0 h -0.03 l 0.87,-0.29 h -0.03 v 0 0 c -0.24,0.2 -0.55,0.32 -0.86,0.32 h -0.05 l 0.89,-0.29 h -0.05 c -0.24,0.21 -0.53,0.33 -0.86,0.33 v 0 0 h -0.03 v 0 h -0.02 c -0.31,0 -0.6,-0.12 -0.84,-0.33 h -0.05 l 0.89,0.29 h -0.05 v 0 h -0.02 c -0.22,0 -0.46,-0.05 -0.65,-0.17 l -0.1,-0.07 0.12,0.09 -0.02,-0.02 c -0.19,-0.1 -0.34,-0.19 -0.46,-0.31 l -0.07,-0.05 0.46,0.29 -0.03,-0.03 c -0.26,-0.09 -0.5,-0.29 -0.62,-0.53 l -0.05,-0.04 0.19,0.24 -0.07,-0.05 0.12,0.12 -0.02,-0.03 c -0.05,-0.04 -0.1,-0.09 -0.15,-0.16 l -0.02,-0.03 0.12,0.12 -0.22,-0.17 h 0.03 l -0.27,-0.21 c -0.07,-0.07 -0.12,-0.15 -0.19,-0.22 l -0.07,-0.14 0.12,0.14 -0.12,-0.12 -0.07,-0.02 -0.1,-0.12 -0.05,-0.1 -0.24,-0.33 0.15,0.19 -0.12,-0.1 0.19,0.12 -0.12,-0.09 c -0.1,-0.05 -0.17,-0.12 -0.24,-0.17 l -0.1,-0.1 0.22,0.19 -0.24,-0.16 0.12,0.04 -0.12,-0.07 0.12,0.1 -0.12,-0.07 -0.05,-0.03 -0.07,-0.02 -0.1,-0.07 -0.07,-0.03 c -0.07,-0.02 -0.14,-0.09 -0.19,-0.12 l -0.05,-0.02 0.91,0.29 h -0.02 c -0.19,0 -0.41,-0.03 -0.55,-0.08 l -0.05,-0.04 0.55,0.09 v 0 h -0.02 -0.03 -0.02 -0.05 v 0 h -0.02 c -0.29,0.03 -0.63,-0.09 -0.87,-0.29 h -0.02 l 0.86,0.29 h -0.02 v 0 0 0 h -0.05 -0.02 -0.03 l 1.23,-0.86 v 0.02 c -0.22,0.51 -0.7,0.84 -1.23,0.87 h -0.02 v 0 h -0.07 0.02 -0.02 v 0 h -0.03 v 0 h -0.07 l 0.89,-0.32 v 0.03 l 0.07,-0.12 -0.12,0.14 0.12,-0.17 -0.02,0.05 -0.1,0.1 -0.05,0.09 0.15,-0.21 -0.03,0.02 -0.07,0.12 -0.02,0.07 0.09,-0.16 -0.07,0.09 -0.05,0.15 -0.07,0.04 -0.02,0.05 -0.05,0.07 0.26,-1.08 v 0.08 c 0.05,0.33 0,0.69 -0.19,1 l -0.05,0.08 0.12,-0.2 -0.02,0.05 0.07,-0.33 v 0.07 -0.24 0.09 c 0,0.17 -0.02,0.36 -0.07,0.51 l -0.07,0.17 0.02,-0.05 -0.02,0.05 v 0 l -0.03,0.09 c -0.02,0.12 -0.09,0.24 -0.19,0.34 l -0.02,0.05 0.14,-0.27 -0.02,0.1 c -0.03,0.09 -0.1,0.17 -0.12,0.26 l -0.05,0.07 c -0.05,0.05 -0.07,0.08 -0.1,0.12 l -0.07,0.05 0.12,-0.14 -0.05,0.09 0.1,-0.16 -0.05,0.07 c -0.07,0.14 -0.17,0.29 -0.31,0.41 l -0.07,0.07 v 0 l -0.1,0.09 0.48,-1.08 v 0.03 c 0.05,0.33 -0.12,0.65 -0.31,0.93 l -0.05,0.03 c -0.07,0.09 -0.17,0.17 -0.29,0.24 l -0.02,0.02 -0.1,0.07 -0.02,0.03 -0.12,0.05 -0.07,0.04 0.55,-0.45 -0.05,0.02 c -0.07,0.15 -0.24,0.27 -0.38,0.36 l -0.03,0.03 c -0.21,0.12 -0.45,0.19 -0.69,0.19 v 0 h -0.03 -0.02 l 0.86,-0.34 -0.02,0.03 v 0 0 c -0.29,0.24 -0.58,0.36 -0.91,0.36 h -0.05 c -0.17,0 -0.31,-0.03 -0.46,-0.05 l -0.07,-0.03 0.46,0.05 h -0.05 c -0.34,0 -0.65,-0.09 -0.91,-0.29 v -0.04 l 0.91,0.33 h -0.07 v 0 h -0.03 c -0.33,0 -0.62,-0.12 -0.91,-0.33 l -0.02,-0.03 0.91,0.34 h -0.05 c -0.31,0 -0.62,-0.12 -0.89,-0.34 h -0.02 v 0 -0.02 l 0.31,0.21 -0.02,-0.04 0.55,0.12 v 0 c -0.58,0 -1.06,-0.29 -1.3,-0.77 l -0.02,-0.07 0.55,0.64 -0.02,-0.04 c -0.05,-0.03 -0.15,-0.08 -0.22,-0.15 l -0.02,-0.02 c -0.29,-0.24 -0.48,-0.63 -0.51,-1.06 v 0 l 0.87,1.27 -0.03,-0.04 c -0.19,-0.05 -0.33,-0.17 -0.45,-0.29 l -0.6,-0.58 v 0 l -0.41,-0.41 0.02,0.03 -0.19,-0.15 0.19,0.12 -0.19,-0.12 0.05,0.03 -0.22,-0.15 0.05,0.05 -0.19,-0.14 -0.12,-0.1 -0.24,-0.14 0.17,0.09 -0.05,-0.04 0.12,0.07 -0.1,-0.03 -0.07,-0.04 -0.07,-0.03 -0.05,-0.02 -0.12,-0.07 0.34,0.12 h -0.05 c -0.1,-0.03 -0.17,-0.05 -0.24,-0.08 l -0.1,-0.04 0.22,0.07 h -0.07 0.07 l -0.12,-0.03 0.41,0.03 h -0.1 l -0.14,0.02 h -0.03 v 0 h -0.07 l 0.91,-0.36 v 0.03 c -0.26,0.21 -0.6,0.33 -0.93,0.33 h -0.05 v 0 h -0.05 l 0.31,-0.02 -0.02,0.02 0.91,-0.69 -0.02,0.04 c -0.15,0.27 -0.39,0.48 -0.65,0.6 h -0.07 l 0.21,-0.09 -0.07,0.02 -0.05,0.03 -0.02,0.04 c -0.22,0.12 -0.46,0.17 -0.7,0.17 h -0.07 l 0.94,-0.36 -0.03,0.03 v 0 l -0.02,0.04 0.29,-0.36 -0.03,0.03 c -0.24,0.45 -0.72,0.72 -1.2,0.72 h -0.02 l 1.13,-0.6 -0.03,0.02 c -0.07,0.12 -0.14,0.22 -0.24,0.27 l -0.02,0.04 0.19,-0.21 -0.02,0.02 0.02,-0.02 -0.24,0.33 0.05,-0.07 -0.07,0.12 0.12,-0.24 -0.05,0.15 c -0.05,0.07 -0.07,0.12 -0.1,0.19 l -0.09,0.12 0.02,-0.07 -0.14,0.31 c -0.03,0.05 -0.05,0.09 -0.1,0.14 l -0.17,0.24 0.12,-0.17 -0.02,0.05 c -0.1,0.15 -0.19,0.27 -0.29,0.36 l -0.07,0.1 0.05,-0.07 -0.1,0.09 c -0.02,0.07 -0.07,0.1 -0.12,0.12 l -0.05,0.07 v 0 l -0.02,0.03 0.5,-1.08 v 0.02 c 0,0.79 -0.67,1.39 -1.44,1.39 h -0.04 l 1.36,-0.88 -0.02,0.04 c -0.12,0.32 -0.43,0.63 -0.77,0.77 h -0.05 l 0.36,-0.21 -0.02,0.04 c -0.24,0.2 -0.58,0.32 -0.91,0.32 h -0.03 l 1.11,-0.53 -0.03,0.02 c -0.26,0.34 -0.69,0.55 -1.12,0.55 h -0.05 v 0 l -0.03,-0.04 v 0 h -0.04 l 0.98,-0.29 h -0.05 c -0.26,0.21 -0.6,0.33 -0.93,0.33 h -0.03 l 0.31,-0.04 h -0.04 c -0.12,0.04 -0.2,0.07 -0.29,0.04 h -0.07 0.04 -0.04 c -0.24,0 -0.44,-0.07 -0.65,-0.16 l -0.15,-0.08 h -0.04 l -0.05,-0.07 c -0.1,-0.02 -0.15,-0.09 -0.24,-0.14 v -0.03 l 0.21,0.17 -0.07,-0.05 c -0.09,-0.04 -0.14,-0.09 -0.24,-0.16 v -0.03 0.03 l -0.05,-0.05 c -0.12,-0.12 -0.24,-0.24 -0.31,-0.36 l -0.02,-0.07 0.65,0.6 -0.05,-0.03 c -0.31,-0.12 -0.58,-0.38 -0.72,-0.69 v -0.05 l 0.36,0.48 -0.07,-0.03 v 0 l -0.03,-0.07 c -0.17,-0.12 -0.29,-0.26 -0.36,-0.45 l -0.02,-0.05 -0.03,-0.1 -0.04,-0.05 0.76,0.77 -0.07,-0.02 c -0.5,-0.22 -0.84,-0.72 -0.84,-1.3 v -0.05 l 0.12,0.6 v -0.07 l 0.12,0.22 -0.12,-0.19 h -0.02 l -0.03,-0.08 -0.07,-0.07 -0.02,-0.05 0.02,0.05 -0.05,-0.09 0.56,0.48 -0.08,-0.03 c -0.21,-0.12 -0.43,-0.26 -0.55,-0.48 l -0.05,-0.05 0.05,0.05 -0.02,-0.05 0.12,0.15 -0.27,-0.24 -0.07,-0.07 -0.12,-0.15 0.15,0.15 -0.08,-0.08 v 0 l -0.09,-0.07 0.12,0.1 -0.1,-0.07 c -0.05,-0.05 -0.12,-0.08 -0.17,-0.15 l -0.07,-0.05 0.46,0.29 -0.07,-0.02 0.55,0.12 v 0 c -0.79,0 -1.42,-0.63 -1.42,-1.42 v -0.02 c 0,-0.79 0.67,-1.39 1.42,-1.39 0.77,0 1.41,0.64 1.41,1.41 -0.04,0.79 -0.67,1.39 -1.41,1.39 h -0.03 c -0.4,0 -0.72,-0.16 -1,-0.43 -0.27,-0.24 -0.41,-0.6 -0.41,-0.98 v -0.03 c 0.02,-0.76 0.65,-1.39 1.41,-1.39 0.77,0 1.4,0.63 1.4,1.42 0,0.77 -0.63,1.37 -1.4,1.37 h -0.04 c -0.32,0 -0.65,-0.12 -0.89,-0.32 l -0.03,-0.04 0.89,0.36 h -0.02 -0.03 v 0 l 0.56,-0.12 h -0.03 c -0.14,0.09 -0.36,0.12 -0.53,0.12 h -0.04 v 0 0 h -0.03 v 0 0 h -0.02 v 0 h -0.03 0.03 -0.03 v 0 h -0.04 v 0 h -0.03 l 0.91,-0.32 v 0.03 c -0.28,0.21 -0.6,0.33 -0.93,0.29 v 0 l 1.29,-0.87 v 0.07 c -0.24,0.51 -0.76,0.87 -1.32,0.84 h -0.04 l 1.41,-1.39 v 0.03 c 0,0.43 -0.17,0.81 -0.48,1.05 l -0.26,0.22 0.12,-0.1 -0.1,0.1 v 0 l -0.05,0.09 0.2,-0.33 -0.05,0.12 c -0.03,0.09 -0.1,0.14 -0.15,0.24 l -0.09,0.09 0.02,-0.04 -0.09,0.12 0.16,-0.2 -0.07,0.12 -0.02,0.03 -0.07,0.12 0.07,-0.15 -0.03,0.08 c -0.04,0.07 -0.07,0.12 -0.09,0.19 l -0.24,0.38 0.02,-0.05 -0.09,0.17 c -0.03,0.07 -0.08,0.15 -0.15,0.22 l -0.09,0.12 -0.03,0.02 -0.09,0.12 h -0.03 l -0.05,0.1 0.2,-0.27 -0.03,0.03 c -0.26,0.5 -0.77,0.77 -1.32,0.74 h -0.02 l 0.72,-0.14 -0.03,0.02 0.72,-1.08 v 0 c -0.04,0.46 -0.28,0.82 -0.67,1.06 l -0.02,0.02 -0.1,0.03 -0.02,0.04 0.02,-0.04 -0.05,0.04 c -0.04,0.03 -0.09,0.05 -0.16,0.05 l -0.05,0.03 0.62,-0.48 v 0.04 c -0.26,0.36 -0.72,0.56 -1.17,0.56 l -0.03,-0.03 1.06,-0.45 -0.03,0.04 c -0.28,0.29 -0.67,0.48 -1.05,0.44 h -0.07 c -0.32,0 -0.65,-0.15 -0.89,-0.39 h -0.03 l 0.65,0.36 -0.02,-0.02 c -0.24,-0.03 -0.46,-0.19 -0.63,-0.36 h -0.04 l 0.81,0.36 h -0.02 v 0 h -0.03 c -0.36,-0.03 -0.69,-0.22 -0.91,-0.48 -0.21,-0.31 -0.33,-0.67 -0.26,-0.99 v -0.04 c 0.09,-0.72 0.74,-1.23 1.46,-1.13 0.72,0.09 1.23,0.74 1.15,1.46 -0.07,0.72 -0.72,1.23 -1.44,1.15 h -0.04 c -0.39,-0.04 -0.72,-0.24 -0.92,-0.55 l -0.04,-0.05 1.75,0.39 v 0.02 c -0.24,0.15 -0.55,0.22 -0.82,0.19 l -0.02,-0.04 c -0.7,-0.05 -1.23,-0.68 -1.18,-1.4 l 0.03,-0.04 0.36,1.05 -0.03,-0.02 0.79,0.38 v 0 c -0.36,-0.05 -0.69,-0.24 -0.91,-0.5 -0.21,-0.27 -0.29,-0.63 -0.26,-0.96 v -0.03 l 0.38,1.08 h -0.02 l 0.77,0.36 h -0.03 c -0.36,-0.04 -0.65,-0.21 -0.86,-0.48 -0.22,-0.28 -0.34,-0.64 -0.27,-0.96 v -0.04 0.07 -0.03 l 0.36,1.01 v -0.02 c -0.31,-0.27 -0.43,-0.7 -0.4,-1.08 h 0.04 l 0.17,0.81 -0.65,-1.03 c -0.04,-0.05 -0.07,-0.12 -0.09,-0.17 l -0.15,-0.4 -0.04,-0.08 -0.15,-0.43 0.07,0.12 -0.24,-0.48 c -0.21,-0.5 -0.04,-1.1 0.44,-1.37 0.48,-0.28 1.12,-0.12 1.41,0.32 z"
         style="fill:#000000;fill-opacity:1;fill-rule:nonzero;stroke:none"
         transform="matrix(1.3333333,0,0,-1.3333333,0,1120.8)" />
    </g>
    <g
       id="g128">
      <path
         id="path128"
         d="m 558.29,736.8 0.36,-0.05 h 0.02 l 0.34,-0.02 c 0.07,0 0.12,0 0.19,0 l 0.89,0.05 h 0.02 l 0.46,0.02 h -0.12 l 2.59,-0.02 v 0 h 0.89 0.07 l 0.84,0.02 h -0.07 0.07 c 0.5,0 0.98,0.24 1.25,0.7 0.24,0.45 0.24,0.98 0,1.41 -0.27,0.46 -0.75,0.72 -1.25,0.72 h -0.07 -0.1 l -0.86,-0.09 h 0.02 l -0.86,-0.03 h -0.03 l -2.59,-0.24 h -0.12 l -0.43,-0.09 h 0.05 l -0.89,-0.12 h 0.05 l -0.34,-0.03 0.05,0.03 -0.36,-0.03 c -0.58,-0.02 -1.03,-0.5 -1.06,-1.08 -0.02,-0.57 0.41,-1.08 0.99,-1.15 z"
         style="fill:#000000;fill-opacity:1;fill-rule:nonzero;stroke:none"
         transform="matrix(1.3333333,0,0,-1.3333333,0,1120.8)" />
    </g>
    <g
       id="g129">
      <path
         id="path129"
         d="m 559.2,737.76 0.05,0.19 0.02,0.12 0.07,0.24 v -0.09 l 0.1,0.26 v 0 l 0.05,0.24 -0.05,-0.12 0.12,0.24 v 0 l 0.07,0.22 -0.02,-0.05 0.12,0.19 v 0 l 0.12,0.24 -0.05,-0.12 0.12,0.22 h 0.02 l 0.34,0.5 -0.1,-0.12 0.1,0.12 0.02,0.05 0.1,0.14 -0.1,-0.12 0.1,0.1 0.05,0.05 0.09,0.12 -0.14,-0.15 0.12,0.1 0.05,0.05 0.09,0.09 -0.12,-0.09 0.15,0.09 v 0 l 0.12,0.1 -0.1,-0.05 0.17,0.07 -0.1,-0.02 0.12,0.05 0.1,0.07 0.12,0.07 -0.22,-0.12 0.12,0.05 v 0 l 0.39,0.17 -0.03,-0.03 0.15,0.05 -0.12,-0.02 0.12,0.02 0.07,0.05 0.14,0.02 -0.33,-0.07 h 0.12 l 0.12,0.05 h 0.12 v 0 l 0.14,0.02 h -0.12 0.12 v 0 h 0.12 l -0.24,0.03 0.17,-0.03 h 0.12 0.12 -0.12 0.14 -0.02 l 0.12,-0.02 -0.1,0.02 0.12,-0.02 h -0.02 l 0.14,-0.05 -0.12,0.05 0.34,-0.1 -0.1,0.03 0.1,-0.05 -0.12,0.05 0.05,-0.03 -0.05,0.03 0.07,-0.03 -0.12,0.05 0.1,-0.05 0.02,-0.02 0.1,-0.05 0.07,-0.05 0.07,-0.07 -0.29,0.24 0.1,-0.07 0.07,-0.07 0.07,-0.1 -0.09,0.1 0.07,-0.05 v 0 l 0.07,-0.07 -0.14,0.14 0.19,-0.19 0.02,-0.07 0.12,-0.15 -0.14,0.24 0.07,-0.14 0.07,-0.12 0.1,-0.17 -0.1,0.19 0.05,-0.14 v 0 l 0.22,-0.46 -0.05,0.15 0.07,-0.24 -0.02,0.07 0.07,-0.24 v 0.07 l 0.02,-0.19 0.03,-0.1 0.07,-0.21 -0.07,0.24 0.09,-0.63 v 0.15 -0.05 0 -0.05 0 -0.02 l 0.03,0.36 v -0.03 c -0.03,-0.12 -0.05,-0.24 -0.05,-0.38 v 0 l 0.05,0.36 -0.03,-0.07 c -0.02,-0.12 -0.02,-0.24 -0.02,-0.36 v -0.03 0 -0.02 l 0.12,0.65 v -0.03 c -0.05,-0.07 -0.07,-0.12 -0.07,-0.19 l -0.03,-0.02 0.1,0.19 -0.05,-0.05 -0.02,-0.05 -0.03,-0.09 1.2,0.86 v 0 c -0.74,-0.05 -1.32,-0.67 -1.32,-1.39 0,-0.77 0.58,-1.39 1.32,-1.44 v 0 c 0.63,-0.05 1.18,0.29 1.42,0.86 l 0.05,0.1 -0.05,-0.12 0.02,0.02 c 0.03,0.05 0.05,0.12 0.05,0.22 l 0.05,0.02 -0.1,-0.21 v 0.02 c 0.12,0.22 0.17,0.43 0.17,0.65 v 0.02 0 0.03 l -0.05,-0.34 0.03,0.07 c 0.02,0.1 0.02,0.22 0.02,0.34 v 0 l -0.02,-0.31 v 0.02 c 0.02,0.12 0.07,0.22 0.07,0.34 v 0.02 0 0.05 0 0.05 c 0,0.07 0,0.12 0,0.19 l -0.1,0.62 c 0,0.1 -0.02,0.17 -0.02,0.24 l -0.1,0.22 0.03,-0.07 -0.05,0.21 v 0.05 l -0.07,0.22 -0.03,0.07 -0.07,0.24 -0.05,0.12 -0.21,0.43 v 0.05 l -0.1,0.14 c -0.02,0.05 -0.05,0.15 -0.07,0.22 l -0.12,0.14 0.07,-0.12 -0.07,0.15 c -0.07,0.09 -0.1,0.19 -0.17,0.24 l -0.14,0.14 0.07,-0.05 -0.17,0.22 c -0.05,0.05 -0.07,0.12 -0.14,0.14 l -0.05,0.1 v 0 l -0.07,0.05 -0.12,0.09 -0.05,0.05 0.07,-0.07 -0.05,0.05 c -0.09,0.09 -0.21,0.19 -0.31,0.24 l -0.07,0.07 0.05,-0.07 -0.05,0.07 0.02,-0.05 -0.09,0.07 -0.12,0.05 -0.1,0.07 -0.05,0.03 -0.09,0.07 -0.12,0.05 -0.12,0.02 -0.1,0.05 -0.31,0.07 -0.17,0.05 -0.12,0.02 h -0.02 l -0.12,0.03 -0.12,0.02 h -0.12 -0.03 -0.14 -0.12 -0.12 0.12 l -0.17,0.05 c -0.07,0 -0.17,0 -0.26,0 l -0.12,-0.05 v 0 h -0.12 l -0.12,-0.02 -0.15,-0.03 v 0 l -0.12,-0.02 0.1,0.02 -0.12,-0.02 c -0.12,0 -0.22,-0.05 -0.34,-0.07 l -0.14,-0.05 0.07,0.02 -0.12,-0.07 -0.12,-0.02 -0.12,-0.05 h -0.02 l -0.39,-0.19 -0.07,-0.03 -0.14,-0.07 c -0.05,-0.02 -0.15,-0.07 -0.22,-0.12 l -0.12,-0.07 0.1,0.02 -0.15,-0.07 -0.07,-0.05 -0.12,-0.09 -0.07,-0.05 -0.12,-0.1 v 0 l -0.12,-0.12 -0.12,-0.09 -0.1,-0.12 0.05,0.07 -0.07,-0.1 c -0.07,-0.07 -0.12,-0.12 -0.19,-0.19 l -0.1,-0.12 0.05,0.05 -0.1,-0.1 -0.07,-0.09 -0.07,-0.15 0.02,0.03 -0.09,-0.12 c -0.03,-0.05 -0.05,-0.1 -0.1,-0.15 l -0.29,-0.55 -0.07,-0.12 -0.07,-0.19 -0.05,-0.12 -0.07,-0.24 v 0 l -0.1,-0.24 v -0.12 l -0.07,-0.22 v 0.03 l -0.05,-0.27 -0.04,-0.14 -0.03,-0.24 v 0.02 l -0.02,-0.26 -0.03,-0.1 v -0.24 -0.02 -0.19 c -0.04,-0.58 0.34,-1.06 0.87,-1.13 0.55,-0.12 1.08,0.17 1.27,0.67 z"
         style="fill:#000000;fill-opacity:1;fill-rule:nonzero;stroke:none"
         transform="matrix(1.3333333,0,0,-1.3333333,0,1120.8)" />
    </g>
    <g
       id="g130">
      <path
         id="path130"
         d="m 579.77,735.91 v 0.7 0 l -0.05,4.58 v -0.02 l 0.02,2.16 v 0 0.91 0 l -0.02,7.03 v -0.05 l 0.1,2.48 v -0.08 l 0.04,0.56 -0.02,-0.05 0.1,0.57 -0.05,-0.16 0.33,1.36 v -0.09 l 0.03,0.17 0.05,0.04 0.04,0.2 -0.14,-0.32 0.12,0.17 -0.02,-0.05 0.07,0.17 0.05,0.03 0.19,0.4 c 0.05,0.05 0.07,0.12 0.09,0.17 l 0.03,0.07 -0.43,-0.6 0.04,0.03 c 0.22,0.17 0.36,0.38 0.46,0.62 l 0.02,0.07 -0.45,-0.6 0.07,0.03 c 0.05,0.05 0.14,0.14 0.22,0.21 l 0.04,0.05 v 0 l 0.08,0.1 -0.24,-0.24 0.04,0.05 -0.24,-0.15 0.1,0.03 c 0.24,0.12 0.41,0.33 0.58,0.55 l 0.02,0.05 -0.58,-0.53 0.08,0.02 c 0.07,0.03 0.16,0.1 0.24,0.15 l 0.04,0.07 -0.24,-0.19 0.1,0.07 -0.34,-0.15 0.1,0.03 c 0.22,0.05 0.38,0.14 0.58,0.29 l 0.02,0.04 -0.24,-0.16 0.1,0.07 -0.29,-0.12 0.21,0.05 0.12,0.04 0.08,0.03 -0.58,-0.12 h 0.05 v 0 h 0.05 v 0 h 0.04 v 0 h 0.03 v 0 h 0.07 v 0 h 0.02 v 0 h 0.08 v 0 h 0.02 v 0 h 0.02 v 0 h 0.08 v 0 h 0.02 l -0.58,0.12 0.08,-0.03 v 0 h 0.02 c 0.17,-0.09 0.38,-0.12 0.6,-0.12 h 0.02 l -0.6,0.12 0.08,-0.04 -0.41,0.24 0.05,-0.03 c 0.16,-0.14 0.4,-0.26 0.64,-0.33 h 0.12 l -1,0.69 0.02,-0.02 c 0.22,-0.34 0.53,-0.6 0.89,-0.7 l 0.09,-0.02 -0.76,0.5 0.04,-0.05 c 0.15,-0.21 0.36,-0.36 0.6,-0.45 l 0.08,-0.03 -0.65,0.44 0.07,-0.05 c 0.17,-0.22 0.38,-0.36 0.62,-0.46 l 0.03,-0.02 -0.84,0.84 0.05,-0.07 c 0.07,-0.24 0.26,-0.44 0.43,-0.6 l 0.07,-0.05 -0.46,0.62 0.03,-0.05 c 0.05,-0.12 0.09,-0.21 0.17,-0.31 l 0.12,-0.17 -0.08,0.08 0.12,-0.17 0.08,-0.1 0.07,-0.14 -0.19,0.48 0.02,-0.19 0.02,-0.05 0.08,-0.19 c 0,-0.05 0.02,-0.12 0.04,-0.17 l 0.1,-0.19 -0.12,0.45 0.02,-0.21 v -0.15 l 0.1,-0.33 -0.02,0.28 0.02,-0.84 v 0.05 -0.84 0.15 l -0.19,-2.24 v 0 l -0.12,-0.93 v 0 l -0.07,-0.89 c 0,-0.05 0,-0.14 0,-0.19 v -0.24 c 0.02,-0.82 0.67,-1.44 1.48,-1.44 0.8,0 1.44,0.62 1.47,1.44 v 0.24 -0.17 l 0.12,0.89 v 0.02 l 0.12,0.91 v 0.05 l 0.24,2.26 v 0.14 0.84 0.03 0.84 c -0.03,0.12 -0.03,0.21 -0.05,0.33 l -0.07,0.34 v -0.12 l -0.03,0.17 c 0,0.16 -0.04,0.31 -0.12,0.45 l -0.04,0.19 0.04,-0.21 -0.04,0.17 0.02,-0.03 -0.07,0.19 c -0.05,0.17 -0.12,0.36 -0.24,0.48 l -0.07,0.17 0.02,-0.09 -0.1,0.19 -0.04,0.05 -0.12,0.19 0.16,-0.31 -0.02,0.07 c -0.1,0.24 -0.24,0.45 -0.46,0.6 l -0.04,0.05 0.43,-0.63 -0.03,0.07 c -0.14,0.39 -0.45,0.68 -0.84,0.87 h -0.04 l 0.62,-0.46 -0.07,0.07 c -0.15,0.2 -0.39,0.36 -0.6,0.44 l -0.05,0.04 0.6,-0.45 -0.07,0.05 c -0.17,0.28 -0.48,0.45 -0.77,0.52 l -0.1,0.03 0.94,-0.7 -0.02,0.07 c -0.24,0.36 -0.6,0.63 -1.04,0.68 l -0.09,0.04 0.67,-0.31 h -0.02 c -0.12,0.12 -0.24,0.19 -0.41,0.24 l -0.05,0.03 c -0.19,0.07 -0.38,0.12 -0.58,0.12 h -0.02 l 0.58,-0.12 -0.08,0.04 v 0 h -0.04 c -0.2,0.08 -0.36,0.12 -0.58,0.12 h -0.02 v 0 h -0.08 v 0 h -0.02 v 0 h -0.02 v 0 h -0.08 v 0 h -0.02 v 0 h -0.07 v 0 h -0.03 v 0 h -0.04 v 0 h -0.05 v 0 h -0.05 c -0.22,0 -0.38,-0.04 -0.6,-0.12 h -0.02 l 0.12,0.03 -0.22,-0.07 c -0.12,-0.03 -0.22,-0.05 -0.31,-0.12 l -0.07,-0.05 c -0.08,-0.03 -0.17,-0.1 -0.22,-0.15 l -0.07,-0.04 0.57,0.28 h -0.09 c -0.12,-0.04 -0.24,-0.09 -0.31,-0.16 l -0.1,-0.03 c -0.1,-0.05 -0.14,-0.12 -0.24,-0.17 l -0.07,-0.04 0.24,0.16 -0.05,-0.04 c -0.24,-0.15 -0.46,-0.32 -0.6,-0.56 v -0.04 l 0.58,0.55 -0.1,-0.03 c -0.1,-0.07 -0.14,-0.12 -0.24,-0.19 l -0.07,-0.02 c -0.05,-0.07 -0.15,-0.15 -0.19,-0.22 l -0.08,-0.09 v 0 l -0.04,-0.05 0.24,0.24 -0.08,-0.07 c -0.21,-0.15 -0.36,-0.36 -0.45,-0.6 l -0.03,-0.08 0.46,0.63 -0.07,-0.07 c -0.17,-0.15 -0.36,-0.36 -0.43,-0.6 l -0.05,-0.05 0.09,0.17 -0.21,-0.36 0.05,0.04 -0.12,-0.19 -0.05,-0.09 -0.12,-0.17 c -0.05,-0.12 -0.07,-0.22 -0.12,-0.34 l -0.05,-0.21 0.02,0.07 -0.04,-0.19 -0.05,-0.08 -0.34,-1.32 -0.02,-0.19 -0.05,-0.57 v -0.05 l -0.07,-0.58 v -0.09 l -0.05,-2.52 v -0.08 l 0.14,-7 v 0.02 l 0.03,-0.91 v 0 l 0.02,-2.16 v -0.07 l 0.24,-4.59 v -0.02 l 0.07,-0.67 c 0.08,-0.7 0.63,-1.23 1.32,-1.2 0.7,0.02 1.23,0.6 1.23,1.29 z"
         style="fill:#000000;fill-opacity:1;fill-rule:nonzero;stroke:none"
         transform="matrix(1.3333333,0,0,-1.3333333,0,1120.8)" />
    </g>
  </g>
</svg>
