<?xml version="1.0" encoding="UTF-8" standalone="no"?>
<!-- Created with Inkscape (http://www.inkscape.org/) -->

<svg
   version="1.1"
   id="svg1"
   width="56.17049"
   height="33.73032"
   viewBox="0 0 56.170491 33.730318"
   sodipodi:docname="lesson.pdf"
   xmlns:inkscape="http://www.inkscape.org/namespaces/inkscape"
   xmlns:sodipodi="http://sodipodi.sourceforge.net/DTD/sodipodi-0.dtd"
   xmlns="http://www.w3.org/2000/svg"
   xmlns:svg="http://www.w3.org/2000/svg">
  <defs
     id="defs1" />
  <sodipodi:namedview
     id="namedview1"
     pagecolor="#ffffff"
     bordercolor="#000000"
     borderopacity="0.25"
     inkscape:showpageshadow="2"
     inkscape:pageopacity="0.0"
     inkscape:pagecheckerboard="0"
     inkscape:deskcolor="#d1d1d1">
    <inkscape:page
       x="1.9272554e-14"
       y="1.1890188e-13"
       inkscape:label="1"
       id="page1"
       width="56.17049"
       height="33.73032"
       margin="0"
       bleed="0" />
  </sodipodi:namedview>
  <g
     id="g1"
     inkscape:groupmode="layer"
     inkscape:label="1"
     transform="translate(-65.736989,-107.49336)">
    <g
       id="g26">
      <path
         id="path26"
         d="m 63.672,740.14 -0.408,0.16 c -0.048,0.03 -0.12,0.03 -0.168,0.05 h -0.072 l 0.6,-0.45 v 0.02 c -0.096,0.17 -0.216,0.31 -0.384,0.38 l -0.072,0.05 0.384,-0.38 v 0.02 c -0.096,0.17 -0.216,0.29 -0.384,0.39 l -0.072,0.02 c -0.072,0.05 -0.12,0.07 -0.192,0.07 l -0.048,0.03 v 0 h -0.048 l -0.048,0.02 h -0.096 l 0.312,-0.1 -0.024,0.03 c -0.12,0.05 -0.264,0.09 -0.384,0.09 l -0.192,0.03 0.144,-0.03 -0.288,0.08 0.12,-0.05 -0.336,0.12 c -0.072,0.02 -0.12,0.05 -0.192,0.05 l -0.336,0.04 -0.096,0.03 -1.008,0.05 v 0 l -0.504,0.02 h -0.024 l -0.864,0.02 h -0.096 l -0.576,-0.04 h -0.072 l -0.936,-0.1 v 0 l -0.36,-0.05 h -0.096 l -0.24,-0.05 0.144,0.03 -0.216,-0.03 c -0.048,-0.02 -0.12,-0.02 -0.168,-0.04 l -0.48,-0.1 -0.12,-0.05 -0.384,-0.12 v 0 l -0.576,-0.21 c -0.096,-0.03 -0.168,-0.08 -0.264,-0.12 l -0.504,-0.32 c -0.072,-0.02 -0.12,-0.07 -0.168,-0.12 l -0.312,-0.28 0.072,0.07 -0.36,-0.29 0.072,0.07 -0.24,-0.17 0.744,0.2 h -0.024 c -0.336,0.02 -0.672,-0.1 -0.912,-0.32 l -0.024,-0.02 v -0.02 h -0.024 l 0.024,0.02 -0.024,-0.02 0.888,0.31 h -0.024 c -0.696,0.02 -1.296,-0.51 -1.344,-1.23 v -0.02 l 0.408,0.89 -0.024,-0.03 v 0 -0.02 0 l -0.048,-0.02 c -0.24,-0.24 -0.384,-0.56 -0.408,-0.89 v -0.03 l 0.144,0.56 -0.024,-0.05 v 0 l -0.024,-0.05 c -0.096,-0.17 -0.144,-0.36 -0.144,-0.58 v -0.04 l 0.408,0.93 -0.024,-0.02 C 52.512,738.38 52.392,738.19 52.32,738 l -0.024,-0.07 c -0.048,-0.12 -0.072,-0.24 -0.072,-0.36 v -0.03 l 0.144,0.56 -0.024,-0.05 c -0.096,-0.19 -0.144,-0.39 -0.144,-0.6 l -0.024,-0.05 v 0 -0.02 0 -0.05 -0.03 -0.12 c 0,-0.09 0.024,-0.16 0.024,-0.26 l 0.048,-0.24 c 0.048,-0.24 0.168,-0.48 0.36,-0.67 l 0.024,-0.03 -0.24,0.34 0.024,-0.05 -0.144,0.6 v -0.02 c 0,-0.34 0.12,-0.67 0.384,-0.94 l 0.024,-0.02 v 0 l 0.024,-0.03 -0.24,0.34 0.024,-0.05 c 0.048,-0.12 0.144,-0.24 0.24,-0.33 l 0.024,-0.03 c 0.24,-0.24 0.576,-0.38 0.912,-0.38 h 0.024 l -1.152,0.72 0.024,-0.05 c 0.12,-0.26 0.336,-0.46 0.576,-0.58 l 0.048,-0.02 -0.72,1.18 v -0.03 c 0,-0.33 0.12,-0.67 0.384,-0.93 0.24,-0.24 0.576,-0.39 0.912,-0.39 h 0.048 l -0.912,0.39 0.024,-0.03 v 0 l 0.024,-0.02 v 0 l 0.024,-0.03 c 0.168,-0.16 0.384,-0.28 0.6,-0.33 l 0.096,-0.03 -0.264,0.1 0.096,-0.05 0.096,-0.05 0.12,-0.04 c 0.072,-0.03 0.144,-0.05 0.24,-0.08 l 0.12,-0.02 -0.168,0.05 0.288,-0.1 c 0.096,-0.02 0.168,-0.05 0.264,-0.07 l 0.552,-0.07 v 0 l 0.576,-0.07 h 0.12 l 0.576,-0.03 h 0.048 l 1.32,-0.02 h 0.072 l 4.2,0.14 h -0.024 l 3.936,0.05 h -0.024 l 1.104,-0.02 h 0.024 l 1.92,0.02 h 0.12 l 2.016,0.17 h -0.12 0.024 c 0.792,0.02 1.392,0.65 1.392,1.39 0,0.79 -0.6,1.42 -1.392,1.42 h -0.024 -0.144 l -2.016,-0.22 0.096,0.02 -1.92,-0.04 h 0.024 -1.104 -0.024 l -3.912,-0.08 H 61.824 L 57.6,737.47 h 0.048 -1.32 0.048 L 55.8,737.5 h 0.12 l -0.576,0.04 v 0 l -0.576,0.08 0.24,-0.05 -0.288,0.09 c -0.048,0 -0.096,0.03 -0.144,0.03 l -0.12,0.02 0.216,-0.05 -0.12,0.05 0.096,-0.05 -0.096,0.05 c -0.096,0.03 -0.168,0.07 -0.264,0.1 l -0.096,0.02 0.6,-0.33 -0.024,0.02 v 0 l -0.024,0.02 v 0 l -0.024,0.03 c -0.24,0.24 -0.576,0.36 -0.912,0.36 H 53.76 l 1.32,-1.3 v 0.03 c -0.024,0.5 -0.288,0.96 -0.744,1.17 l -0.048,0.03 0.6,-0.6 -0.024,0.04 c -0.24,0.46 -0.696,0.72 -1.176,0.72 h -0.024 l 0.912,-0.36 -0.024,0.03 0.264,-0.36 -0.024,0.05 c -0.072,0.14 -0.168,0.24 -0.264,0.36 h -0.024 v 0 l -0.024,0.02 0.408,-0.91 v 0.02 c 0,0.22 -0.072,0.41 -0.144,0.58 l -0.024,0.05 c -0.072,0.12 -0.144,0.24 -0.264,0.36 h -0.024 l 0.384,-0.65 -0.072,0.24 0.048,-0.27 v 0.12 0.03 0.05 0 l -0.024,0.02 v 0 0.05 l -0.12,-0.58 0.024,0.05 c 0.096,0.19 0.144,0.41 0.12,0.62 v 0.03 l -0.048,-0.46 0.024,0.05 -0.288,-0.48 0.024,0.02 c 0.216,0.24 0.336,0.58 0.336,0.92 v 0.04 l -0.12,-0.57 0.024,0.05 v 0 l 0.024,0.02 c 0.096,0.22 0.12,0.41 0.12,0.62 v 0.03 l -0.36,-0.94 0.024,0.03 v 0 l 0.024,0.02 v 0 l 0.024,0.02 c 0.24,0.24 0.36,0.6 0.36,0.94 v 0.02 c -0.048,0.72 -0.648,1.25 -1.344,1.23 -0.72,-0.05 -1.248,-0.65 -1.224,-1.35 0.048,-0.69 0.648,-1.24 1.344,-1.22 h 0.024 c 0.336,0.02 0.672,0.19 0.888,0.43 l 0.024,0.03 -0.024,-0.03 0.024,0.03 v 0 l 0.024,0.02 -0.864,-0.38 h 0.024 c 0.24,0 0.48,0.09 0.696,0.24 l 0.24,0.16 0.048,0.05 0.36,0.29 0.048,0.05 0.312,0.29 -0.144,-0.12 0.504,0.33 -0.264,-0.12 0.576,0.22 v 0 l 0.384,0.14 -0.144,-0.05 0.48,0.12 -0.144,-0.02 0.216,0.02 0.12,0.03 0.216,0.05 h -0.096 l 0.36,0.04 H 57.6 l 0.96,0.12 h -0.048 l 0.552,0.08 h -0.072 0.864 0.024 l 0.504,0.04 v 0 l 1.008,0.05 h 0.096 l 0.336,0.05 h -0.216 l 0.36,-0.02 h 0.12 l 0.288,0.02 v 0 h 0.192 c 0.12,0.02 0.264,0.05 0.384,0.12 h 0.024 l -0.312,-0.1 0.096,0.03 h 0.048 l 0.048,0.02 v 0 h 0.048 -0.336 l 0.072,-0.02 -0.216,0.07 0.024,-0.02 c 0.072,-0.03 0.144,-0.05 0.216,-0.05 l 0.072,-0.03 -0.216,0.08 0.024,-0.03 c 0.144,-0.07 0.312,-0.09 0.48,-0.05 h 0.072 0.024 l 0.432,0.08 c 0.288,0.07 0.528,0.31 0.552,0.6 0.024,0.31 -0.144,0.6 -0.432,0.72 z"
         style="fill:#000000;fill-opacity:1;fill-rule:nonzero;stroke:none"
         transform="matrix(1.3333333,0,0,-1.3333333,0,1120.8)" />
    </g>
    <g
       id="g27">
      <path
         id="path27"
         d="m 58.272,739.78 0.024,0.26 -0.024,-0.07 0.024,0.07 c 0.024,0.14 0.024,0.31 -0.048,0.46 v 0.04 l -0.048,-0.74 0.024,0.07 c 0.024,0.05 0.048,0.1 0.072,0.17 l 0.024,0.05 v 0 0.05 0 l 0.024,0.02 -0.192,-0.34 0.024,0.05 v -0.02 l 0.024,0.05 c 0.12,0.09 0.168,0.21 0.216,0.36 l 0.024,0.04 v 0 0.03 l -0.216,-0.36 0.048,0.05 -0.408,-0.27 h 0.048 c 0.216,0.1 0.408,0.24 0.528,0.46 l 0.024,0.05 -0.528,-0.46 0.024,0.02 c 0.144,0.05 0.288,0.15 0.408,0.27 l 0.048,0.05 -0.432,-0.29 0.024,0.02 c 0.216,0.07 0.408,0.22 0.528,0.39 l 0.048,0.09 -0.552,-0.41 h 0.048 c 0.12,0.05 0.24,0.1 0.336,0.2 l 0.048,0.02 -0.096,-0.07 0.024,0.02 v 0 l 0.024,0.03 -0.24,-0.12 0.048,0.02 c 0.24,0.07 0.432,0.22 0.576,0.41 l 0.024,0.05 -1.104,-0.46 h 0.072 c 0.264,-0.05 0.528,0 0.744,0.14 h 0.024 l -0.336,-0.12 h 0.072 c 0.144,0.05 0.24,0.08 0.36,0.15 l 0.024,0.02 -0.24,-0.12 0.048,0.03 -0.552,-0.05 h 0.048 v 0 h 0.048 c 0.216,-0.05 0.432,-0.03 0.648,0.05 l 0.096,0.04 -0.408,-0.07 0.816,0.03 h 0.12 l 0.48,0.07 h -0.168 0.12 v 0 h 0.096 v 0 h 0.096 l -0.24,0.02 0.12,-0.02 h -0.072 l 0.096,-0.03 c 0.096,-0.02 0.192,-0.04 0.288,-0.04 h 0.12 l -0.312,0.04 0.264,-0.07 h 0.048 l 0.456,-0.09 0.024,-0.03 0.864,-0.17 v 0 l 0.384,-0.07 0.096,-0.02 0.864,-0.1 v 0 l 0.816,-0.09 H 63.72 l 0.336,-0.05 0.096,-0.03 0.768,-0.04 h -0.024 l 0.312,-0.03 -0.048,0.03 0.744,-0.12 h 0.048 l 0.288,-0.03 h -0.024 l 0.744,-0.07 h 0.072 l 1.032,-0.05 h 0.048 1.128 0.144 l 0.552,0.05 c 0.072,0.02 0.144,0.02 0.216,0.05 l 0.096,0.02 -0.312,-0.05 h 0.024 v 0 h 0.024 -0.024 0.024 0.024 0.024 0.024 0.024 -0.024 0.024 l -0.912,0.36 0.024,-0.02 c 0.24,-0.24 0.576,-0.36 0.912,-0.36 h 0.024 0.024 0.024 c 0.696,0.05 1.248,0.65 1.224,1.34 -0.048,0.7 -0.624,1.25 -1.32,1.23 -0.696,-0.03 -1.248,-0.6 -1.248,-1.3 v -0.02 c 0.024,-0.7 0.6,-1.27 1.296,-1.27 h 0.024 l -0.888,0.36 0.024,-0.03 -0.408,0.89 v -0.02 c 0.024,-0.7 0.6,-1.25 1.296,-1.23 H 70.2 c 0.72,0 1.272,0.58 1.248,1.27 0,0.72 -0.576,1.28 -1.272,1.28 -0.72,-0.03 -1.272,-0.6 -1.272,-1.3 v -0.02 l 0.024,-0.05 v -0.05 c 0,-0.31 0.144,-0.62 0.384,-0.84 l 0.024,-0.02 -0.408,0.88 v -0.02 0 -0.02 0 -0.03 c 0.024,-0.17 0.048,-0.33 0.12,-0.48 l 0.072,-0.17 -0.048,0.15 0.096,-0.31 v 0.04 l 0.096,-0.33 v -0.05 l 0.096,-0.31 -0.048,0.19 0.096,-0.7 0.024,-0.07 0.192,-0.96 v 0 l 0.024,-0.09 c 0,-0.08 0.024,-0.15 0.048,-0.22 l 0.12,-0.29 c 0.24,-0.65 0.984,-0.96 1.632,-0.72 0.648,0.24 0.984,0.99 0.72,1.63 l -0.096,0.29 0.048,-0.21 -0.024,0.12 v 0 l -0.192,0.96 0.024,-0.1 -0.096,0.72 c -0.024,0.07 -0.024,0.14 -0.048,0.22 l -0.096,0.28 v -0.04 l -0.096,0.36 v 0.04 l -0.096,0.32 -0.048,0.12 -0.072,0.14 0.096,-0.53 v 0.03 0 0.02 0 0.02 c 0.024,0.36 -0.12,0.68 -0.36,0.94 l -0.024,0.02 0.36,-0.98 v 0.05 0.05 0.02 c 0.024,0.7 -0.528,1.27 -1.248,1.3 h -0.024 c -0.696,0 -1.272,-0.56 -1.296,-1.25 0,-0.7 0.552,-1.3 1.248,-1.3 0.696,-0.02 1.296,0.53 1.32,1.23 v 0.02 c 0,0.34 -0.12,0.7 -0.36,0.94 l -0.024,0.02 c -0.24,0.24 -0.576,0.38 -0.912,0.38 h -0.024 c -0.696,0 -1.272,-0.55 -1.296,-1.24 0,-0.72 0.552,-1.3 1.272,-1.32 0.696,0 1.272,0.57 1.296,1.27 v 0.02 c 0,0.67 -0.528,1.25 -1.224,1.3 h -0.024 -0.024 -0.024 l 0.864,-0.39 v 0.03 c -0.24,0.24 -0.552,0.38 -0.888,0.38 H 70.056 70.08 70.056 70.032 70.008 69.984 69.96 69.984 69.96 v 0 h -0.024 c -0.096,0 -0.192,0 -0.288,-0.02 l -0.12,-0.03 0.192,0.03 -0.552,-0.05 0.072,0.02 h -1.128 l 0.072,-0.02 -1.056,0.05 H 67.2 l -0.744,0.07 h -0.024 l -0.288,0.02 h 0.072 l -0.744,0.08 -0.072,0.02 -0.312,0.02 h -0.024 l -0.744,0.05 0.072,-0.02 -0.336,0.05 h -0.024 l -0.816,0.09 v 0 l -0.864,0.1 0.072,-0.03 -0.384,0.08 v 0 l -0.84,0.14 v 0 l -0.456,0.1 0.096,-0.03 -0.288,0.07 c -0.096,0.03 -0.216,0.05 -0.312,0.05 h -0.12 l 0.312,-0.05 -0.096,0.03 -0.048,0.02 -0.12,0.03 c -0.096,0 -0.168,0 -0.24,0 h -0.096 v 0 h -0.096 v 0 h -0.12 c -0.072,0 -0.12,0 -0.192,0 l -0.48,-0.1 h 0.048 l -0.816,-0.1 c -0.168,-0.02 -0.312,-0.07 -0.456,-0.14 l -0.096,-0.07 0.408,0.17 -0.048,-0.03 v 0 H 57.936 C 57.768,742.37 57.6,742.3 57.48,742.2 l -0.048,-0.02 c -0.12,-0.1 -0.24,-0.22 -0.336,-0.36 v -0.03 l 0.504,0.46 -0.072,-0.05 c -0.216,-0.07 -0.384,-0.24 -0.504,-0.43 L 57,741.74 l 0.792,0.53 -0.072,-0.02 c -0.384,-0.07 -0.744,-0.36 -0.864,-0.75 l -0.024,-0.04 0.432,0.55 -0.048,-0.03 c -0.12,-0.07 -0.24,-0.19 -0.312,-0.33 l -0.024,-0.03 v 0 -0.02 l 0.072,0.1 -0.048,-0.05 0.24,0.21 -0.048,-0.02 c -0.192,-0.12 -0.336,-0.31 -0.408,-0.53 l -0.024,-0.09 v 0.02 l -0.024,-0.02 c 0,-0.05 -0.024,-0.12 -0.024,-0.17 l -0.024,-0.05 0.048,0.17 v -0.05 c -0.024,-0.05 -0.048,-0.14 -0.072,-0.22 v -0.07 l 0.048,0.22 v -0.03 l -0.048,-0.14 -0.024,-0.05 c -0.024,-0.17 -0.024,-0.33 0.048,-0.5 v -0.03 0 l 0.024,-0.04 -0.024,0.48 -0.024,-0.08 v 0 -0.04 c -0.048,-0.15 -0.024,-0.32 0.024,-0.46 v -0.02 0 l 0.024,-0.05 v 0 -0.05 l -0.024,0.38 v -0.07 c -0.072,-0.41 0.168,-0.79 0.552,-0.93 h 0.024 l -0.552,0.62 0.024,-0.07 c 0.024,-0.07 0.048,-0.15 0.096,-0.22 l 0.096,-0.21 c 0.168,-0.32 0.504,-0.48 0.816,-0.41 0.336,0.05 0.576,0.33 0.624,0.65 z"
         style="fill:#000000;fill-opacity:1;fill-rule:nonzero;stroke:none"
         transform="matrix(1.3333333,0,0,-1.3333333,0,1120.8)" />
    </g>
    <g
       id="g28">
      <path
         id="path28"
         d="m 56.088,757.34 -0.264,0.29 c -0.096,0.12 -0.192,0.19 -0.336,0.24 l -0.072,0.03 v 0 l -0.048,0.04 0.144,-0.09 -0.048,0.02 c -0.072,0.07 -0.144,0.1 -0.24,0.12 l -0.096,0.05 c -0.072,0.02 -0.12,0.02 -0.192,0.02 l -0.072,0.03 0.048,-0.03 -0.048,0.03 v 0 l -0.192,0.02 h 0.024 l -0.408,0.07 0.072,-0.02 -0.144,0.05 -0.12,0.02 h -0.12 -0.048 l -0.168,0.03 h 0.048 l -0.12,0.02 h -0.024 -0.144 0.024 l -0.12,0.02 c -0.072,0 -0.144,0 -0.216,0 l -0.144,-0.02 v 0 H 52.92 c -0.072,0 -0.144,-0.02 -0.216,-0.05 l -0.12,-0.02 0.192,0.02 h -0.12 l -0.144,-0.02 -0.144,-0.03 h 0.168 -0.144 c -0.12,0 -0.24,-0.04 -0.384,-0.09 l -0.336,-0.15 -0.096,-0.04 -0.072,-0.05 c -0.072,-0.05 -0.144,-0.1 -0.192,-0.15 l -0.096,-0.07 v 0 l -0.072,-0.05 0.144,0.1 -0.096,-0.07 0.072,0.05 -0.072,-0.05 c -0.192,-0.12 -0.36,-0.27 -0.48,-0.46 l -0.048,-0.09 0.12,0.16 -0.072,-0.07 -0.024,-0.05 -0.12,-0.16 0.048,0.09 -0.216,-0.24 0.072,0.07 -0.048,-0.04 c -0.24,-0.24 -0.408,-0.56 -0.408,-0.92 v -0.02 l 0.408,0.89 -0.024,-0.03 v 0 l -0.024,-0.02 v 0 l -0.024,-0.02 c -0.264,-0.22 -0.408,-0.56 -0.432,-0.92 v -0.02 l 0.432,0.89 -0.024,-0.03 c -0.24,-0.21 -0.408,-0.52 -0.432,-0.86 v -0.02 -0.03 -0.05 0.03 -0.03 0 -0.02 l 0.168,0.53 -0.048,-0.03 c -0.072,-0.16 -0.12,-0.36 -0.144,-0.55 v -0.02 0 -0.03 -0.02 -0.05 0.05 -0.05 c -0.024,-0.21 0.024,-0.43 0.12,-0.62 l 0.024,-0.05 -0.12,0.62 v 0 0 -0.02 -0.05 l -0.024,-0.05 0.024,0.05 -0.024,-0.05 c 0,-0.33 0.12,-0.69 0.36,-0.96 l 0.024,-0.02 -0.36,0.94 v -0.05 c 0,-0.34 0.12,-0.67 0.36,-0.94 l 0.024,-0.02 -0.144,0.19 0.048,-0.07 -0.216,0.74 v -0.05 c 0,-0.36 0.144,-0.69 0.384,-0.96 l 0.048,-0.04 -0.24,0.36 0.024,-0.05 c 0.048,-0.15 0.12,-0.24 0.216,-0.34 l 0.024,-0.02 -0.216,0.33 0.024,-0.04 c 0.12,-0.27 0.312,-0.46 0.576,-0.6 l 0.024,-0.03 -0.576,0.6 0.024,-0.05 v 0 l 0.024,-0.04 c 0.144,-0.27 0.336,-0.48 0.576,-0.6 l 0.072,-0.03 -0.36,0.27 0.024,-0.03 v -0.02 l 0.072,-0.05 c 0.24,-0.24 0.552,-0.38 0.888,-0.38 h 0.048 l -1.152,0.74 0.024,-0.05 c 0.12,-0.26 0.336,-0.48 0.576,-0.6 l 0.048,-0.02 v 0 l 0.048,-0.03 c 0.192,-0.09 0.384,-0.14 0.576,-0.14 h 0.048 l -0.744,0.26 0.072,-0.07 c 0.168,-0.12 0.36,-0.21 0.552,-0.24 l 0.12,-0.02 v 0 l 0.12,-0.03 v 0 l 0.12,-0.02 h 0.024 l 0.144,-0.05 -0.096,0.03 0.096,-0.03 c 0.096,-0.02 0.216,-0.02 0.312,-0.02 h 0.144 v 0 l 0.12,-0.03 v 0 h 0.12 v 0 h 0.12 v 0 h 0.12 c 0.072,0 0.144,0.03 0.216,0.03 l 0.144,0.02 0.168,0.05 0.24,0.07 -0.096,-0.05 0.336,0.08 0.048,0.02 0.096,0.02 -0.336,-0.04 h 0.096 c 0.144,0 0.288,0.02 0.408,0.07 l 0.096,0.02 -0.096,-0.02 0.096,0.02 c 0.072,0 0.144,0.05 0.216,0.07 l 0.216,0.1 0.048,0.02 0.192,0.08 0.072,0.04 0.144,0.1 0.12,0.07 0.168,0.1 0.072,0.07 0.168,0.12 -0.264,-0.17 0.192,0.1 c 0.12,0.05 0.216,0.12 0.312,0.21 l 0.312,0.27 0.024,0.02 0.024,0.03 c 0.264,0.24 0.408,0.57 0.432,0.93 v 0.03 l -0.432,-0.94 0.024,0.02 -0.024,-0.02 0.024,0.02 c 0.264,0.24 0.432,0.6 0.456,0.99 v 0.05 l -0.432,-0.96 0.024,0.02 c 0.264,0.24 0.408,0.58 0.432,0.94 v 0.02 l -1.416,-1.3 h 0.024 c 0.744,-0.04 1.392,0.56 1.416,1.3 v 0.02 l -0.432,-0.96 0.024,0.03 c 0.264,0.26 0.408,0.57 0.432,0.93 v 0.03 0.02 0.03 l -0.072,-0.44 0.024,0.08 c 0.216,0.6 0,1.24 -0.504,1.6 l -0.216,0.12 0.192,-0.14 -0.072,0.07 c -0.36,0.34 -0.864,0.48 -1.32,0.34 -0.48,-0.12 -0.84,-0.51 -0.96,-0.96 -0.12,-0.48 0,-0.99 0.36,-1.32 l 0.072,-0.07 c 0.072,-0.08 0.144,-0.12 0.216,-0.2 l 0.216,-0.12 -0.576,1.56 -0.024,-0.07 c -0.024,-0.17 -0.048,-0.31 -0.048,-0.45 v -0.03 -0.02 -0.03 l 0.384,1.01 -0.024,-0.02 c -0.264,-0.27 -0.384,-0.63 -0.384,-0.99 v -0.02 c 0.048,-0.74 0.672,-1.34 1.416,-1.3 0.744,0.03 1.32,0.65 1.296,1.4 -0.024,0.74 -0.672,1.34 -1.416,1.29 h -0.024 c -0.36,0 -0.696,-0.17 -0.936,-0.43 -0.24,-0.26 -0.36,-0.6 -0.36,-0.96 v -0.02 l 0.384,0.98 -0.024,-0.02 c -0.24,-0.27 -0.384,-0.6 -0.384,-0.96 v -0.05 l 0.36,0.93 -0.024,-0.02 0.024,0.02 -0.024,-0.02 c -0.24,-0.26 -0.384,-0.62 -0.36,-0.98 v -0.03 l 0.36,0.99 -0.024,-0.03 0.072,0.07 -0.312,-0.28 0.288,0.19 -0.168,-0.1 c -0.096,-0.05 -0.192,-0.09 -0.264,-0.17 l -0.144,-0.12 0.072,0.08 -0.168,-0.12 0.12,0.07 -0.168,-0.1 0.072,0.03 -0.192,-0.1 0.048,0.02 -0.216,-0.07 0.216,0.07 -0.096,-0.02 -0.096,-0.05 -0.072,-0.02 0.408,0.07 h -0.096 c -0.096,0 -0.216,0 -0.312,-0.02 l -0.096,-0.03 h 0.048 l -0.336,-0.07 -0.096,-0.02 -0.24,-0.08 0.144,0.03 -0.144,-0.03 0.216,0.03 h -0.12 v 0 h -0.12 v 0 h -0.12 v 0 h -0.12 v 0 h -0.144 l 0.312,-0.03 h -0.096 l -0.096,0.03 -0.144,0.02 h 0.048 l -0.12,0.03 v 0 l -0.12,0.02 v 0 l -0.12,0.02 0.528,-0.24 -0.096,0.08 c -0.24,0.16 -0.528,0.26 -0.816,0.26 h -0.048 l 0.6,-0.12 -0.048,0.02 v 0 h -0.048 l 0.6,-0.55 -0.024,0.05 c -0.24,0.43 -0.696,0.7 -1.2,0.7 l -0.048,-0.03 0.96,-0.36 -0.072,0.05 v 0.02 l -0.024,0.03 c -0.096,0.09 -0.216,0.17 -0.336,0.21 l -0.048,0.03 0.6,-0.58 -0.024,0.05 v 0 l -0.024,0.05 c -0.144,0.26 -0.36,0.45 -0.6,0.57 l -0.048,0.03 0.6,-0.58 -0.024,0.05 c -0.072,0.14 -0.168,0.26 -0.264,0.36 l -0.024,0.02 0.264,-0.36 -0.024,0.05 c -0.072,0.12 -0.168,0.24 -0.264,0.34 l -0.048,0.05 0.408,-0.92 v 0.05 c 0,0.24 -0.096,0.51 -0.24,0.72 l -0.048,0.07 c -0.048,0.08 -0.12,0.15 -0.192,0.22 l -0.024,0.02 0.432,-0.93 v 0.05 c -0.024,0.36 -0.168,0.69 -0.432,0.91 l -0.024,0.02 0.432,-0.89 v 0.05 -0.05 0.05 l -0.024,0.05 v 0.02 0 0 c 0,0.2 -0.072,0.39 -0.144,0.56 l -0.024,0.04 0.144,-0.55 v 0.05 -0.05 0.05 0.02 0.03 0 0.02 l -0.12,-0.62 0.024,0.05 c 0.096,0.19 0.144,0.4 0.12,0.62 v 0.02 0 0.03 -0.03 0.05 0.03 0.02 l -0.336,-0.94 0.024,0.03 c 0.216,0.24 0.336,0.57 0.336,0.91 v 0.02 l -0.336,-0.88 v 0.02 0 l 0.024,0.02 v 0 l 0.024,0.03 c 0.24,0.24 0.36,0.57 0.336,0.91 v 0.02 l -0.336,-0.88 0.048,0.04 0.096,0.1 0.192,0.26 0.024,0.05 0.12,0.17 v 0 l 0.072,0.1 c 0.048,0.07 0.072,0.14 0.12,0.21 l 0.024,0.1 -0.36,-0.51 0.048,0.08 0.048,0.02 0.096,0.07 c 0.048,0.05 0.072,0.07 0.12,0.12 l 0.072,0.07 v 0 l 0.072,0.1 -0.168,-0.17 0.072,0.05 -0.168,-0.1 0.336,0.17 -0.216,-0.07 0.12,0.02 0.12,0.05 0.144,0.07 -0.12,-0.04 0.12,0.02 c 0.048,0.02 0.12,0.05 0.168,0.07 l 0.12,0.07 -0.24,-0.09 0.144,0.05 v 0 l 0.144,0.02 -0.144,-0.02 0.12,0.02 h -0.024 0.144 0.024 l 0.12,0.02 h -0.048 0.168 0.048 l 0.12,0.03 -0.216,-0.03 h 0.168 0.024 l 0.384,-0.02 h -0.024 0.192 c 0.072,-0.02 0.168,0 0.24,0 h 0.048 -0.048 0.072 l -0.264,0.02 0.096,-0.02 -0.144,0.02 h 0.048 l 0.096,-0.02 0.072,-0.02 v 0 l 0.072,-0.03 c 0.144,-0.02 0.264,-0.02 0.384,0 l 0.408,0.07 c 0.24,0.08 0.456,0.24 0.528,0.51 0.096,0.24 0.024,0.5 -0.144,0.69 z"
         style="fill:#000000;fill-opacity:1;fill-rule:nonzero;stroke:none"
         transform="matrix(1.3333333,0,0,-1.3333333,0,1120.8)" />
    </g>
    <g
       id="g29">
      <path
         id="path29"
         d="m 56.112,755.09 0.264,0.17 c 0.072,0.04 0.144,0.09 0.216,0.16 l 0.096,0.12 v 0 l 0.096,0.12 -0.072,-0.09 0.096,0.09 -0.072,-0.07 0.12,0.1 0.072,0.05 0.096,0.09 -0.192,-0.14 0.12,0.07 0.12,0.07 0.12,0.1 -0.12,-0.07 0.12,0.04 -0.144,-0.07 0.12,0.05 0.12,0.05 0.288,0.14 -0.024,-0.02 0.48,0.21 -0.072,-0.04 1.056,0.33 h -0.048 l 0.48,0.15 -0.048,-0.03 0.648,0.17 -0.072,-0.02 0.624,0.09 h -0.024 l 0.648,0.12 -0.072,-0.02 0.624,0.07 h -0.048 l 1.368,0.05 h 0.024 l 1.32,0.09 -0.024,-0.02 0.888,0.05 h -0.072 l 1.92,-0.03 h -0.096 l 1.848,-0.21 -0.072,0.02 0.312,-0.05 -0.096,0.03 0.288,-0.07 -0.096,0.02 0.288,-0.1 v 0 l 0.288,-0.09 -0.072,0.02 0.264,-0.12 -0.024,0.03 0.576,-0.27 h -0.024 l 0.6,-0.29 -0.024,0.03 0.096,-0.05 v 0 l 0.096,-0.05 -0.168,0.12 0.072,-0.07 c 0.072,-0.05 0.12,-0.1 0.192,-0.12 l 0.096,-0.05 -0.168,0.12 0.096,-0.07 -0.144,0.1 0.072,-0.08 0.072,-0.04 0.192,-0.2 -0.048,0.08 0.048,-0.05 -0.24,0.31 0.024,-0.05 c 0.12,-0.24 0.312,-0.43 0.552,-0.55 L 72,755.5 l -0.312,0.24 0.048,-0.05 -0.24,0.31 0.024,-0.05 v 0 l 0.024,-0.05 c 0.072,-0.12 0.144,-0.24 0.24,-0.31 l 0.048,-0.05 -0.36,0.87 v -0.05 c 0,-0.34 0.12,-0.65 0.36,-0.86 l 0.048,-0.05 -0.312,0.48 0.024,-0.07 c 0.024,-0.08 0.048,-0.12 0.072,-0.17 l 0.024,-0.05 -0.12,0.55 v -0.05 c 0,-0.19 0.048,-0.36 0.12,-0.55 l 0.024,-0.05 -0.12,0.58 v -0.07 c 0,-0.05 0,-0.12 0,-0.17 l 0.024,-0.17 v 0 l 0.024,-0.14 c 0.048,-0.27 0.168,-0.51 0.336,-0.7 l 0.024,-0.02 -0.336,0.89 v -0.03 0.05 -0.02 -0.05 -0.03 0 0 0 -0.02 0.02 -0.02 l -0.024,-0.02 v -0.03 0 -0.02 -0.03 0 0 -0.02 l 0.408,0.86 L 72,756.36 c -0.144,-0.14 -0.24,-0.31 -0.312,-0.48 l -0.024,-0.1 0.072,0.2 -0.024,-0.05 v 0 l -0.024,-0.05 v 0 l -0.024,-0.05 0.24,0.31 -0.048,-0.04 c -0.144,-0.15 -0.24,-0.32 -0.312,-0.48 l -0.024,-0.08 0.336,0.48 h -0.024 c -0.072,-0.07 -0.144,-0.14 -0.192,-0.21 l -0.048,-0.07 0.192,0.21 -0.024,-0.02 -0.024,-0.03 -0.048,-0.04 v 0 l -0.048,-0.05 0.336,0.24 -0.048,-0.03 c -0.12,-0.04 -0.24,-0.14 -0.336,-0.24 l -0.048,-0.02 0.336,0.22 -0.048,-0.03 c -0.12,-0.05 -0.24,-0.14 -0.336,-0.21 l -0.048,-0.08 v 0 l -0.048,-0.02 0.888,0.34 H 72.24 c -0.336,0 -0.648,-0.12 -0.888,-0.34 l -0.048,-0.05 0.48,0.29 -0.144,-0.05 h -0.024 l -0.144,-0.05 v 0 l -0.144,-0.04 H 71.4 l -0.192,-0.05 0.168,0.05 -0.312,-0.05 -0.12,-0.03 -0.48,-0.12 h 0.024 l -0.408,-0.09 0.096,0.02 -1.056,-0.17 h 0.192 -0.072 -0.12 l -1.032,-0.09 h 0.072 l -2.496,-0.07 h 0.144 l -4.728,0.38 h -0.096 -0.048 l 0.216,-0.02 -3.096,0.55 h 0.024 l -0.24,0.05 0.072,-0.03 -1.416,0.36 -0.072,0.03 -0.792,0.16 0.624,-0.36 -0.048,0.08 c -0.336,0.31 -0.792,0.43 -1.224,0.31 -0.432,-0.12 -0.792,-0.46 -0.888,-0.91 -0.12,-0.44 0,-0.89 0.336,-1.2 l 0.048,-0.08 c 0.168,-0.16 0.408,-0.26 0.648,-0.31 l 0.816,-0.17 h -0.072 l 1.416,-0.33 h 0.048 L 57.6,753.6 h 0.024 l 3.096,-0.55 c 0.072,-0.03 0.144,-0.03 0.216,-0.03 h 0.048 -0.12 l 4.752,-0.36 h 0.12 l 2.496,0.05 0.096,0.03 1.008,0.07 h -0.096 0.072 c 0.048,0 0.12,0 0.192,0.02 L 70.56,753 h 0.072 l 0.408,0.1 h 0.024 l 0.48,0.12 -0.096,-0.03 0.312,0.05 0.144,0.02 0.168,0.05 0.048,0.03 0.144,0.04 v 0 l 0.144,0.05 v 0 l 0.144,0.05 c 0.192,0.07 0.36,0.17 0.504,0.31 l 0.048,0.05 -0.864,-0.36 h 0.048 c 0.336,0 0.624,0.14 0.864,0.36 l 0.048,0.05 v 0 l 0.048,0.05 -0.312,-0.24 0.048,0.04 c 0.12,0.05 0.216,0.12 0.312,0.22 l 0.048,0.05 -0.312,-0.24 0.048,0.02 c 0.12,0.07 0.216,0.15 0.312,0.24 l 0.048,0.05 v 0 l 0.048,0.05 0.024,0.02 v 0.03 c 0.072,0.04 0.12,0.09 0.144,0.16 l 0.048,0.08 -0.144,-0.17 0.024,0.02 c 0.144,0.12 0.24,0.29 0.288,0.48 l 0.024,0.07 -0.288,-0.5 0.048,0.05 c 0.096,0.09 0.168,0.21 0.216,0.33 l 0.024,0.05 v 0 l 0.024,0.05 v 0 l 0.024,0.05 c 0.024,0.05 0.048,0.09 0.072,0.14 l 0.024,0.07 -0.288,-0.48 v 0.03 c 0.24,0.24 0.384,0.57 0.36,0.91 v 0.02 0 0 0.03 0.02 0 0.03 0.02 0.02 -0.02 0.02 0 0 0 0.03 0.05 0.02 -0.05 0.03 c 0,0.33 -0.144,0.64 -0.384,0.86 l -0.024,0.02 0.36,-0.64 -0.024,0.14 v -0.07 l -0.024,0.17 0.024,-0.17 v 0.07 c 0,0.17 -0.048,0.36 -0.144,0.53 l -0.024,0.05 0.144,-0.56 v 0.05 c -0.024,0.19 -0.048,0.39 -0.144,0.55 l -0.024,0.05 0.072,-0.17 -0.024,0.08 c -0.072,0.19 -0.168,0.36 -0.312,0.48 l -0.048,0.04 0.384,-0.86 v 0.05 c -0.024,0.33 -0.144,0.65 -0.384,0.86 l -0.048,0.05 0.24,-0.31 -0.024,0.05 v 0 l -0.024,0.04 c -0.072,0.12 -0.144,0.22 -0.24,0.32 l -0.048,0.04 c -0.096,0.1 -0.216,0.17 -0.312,0.22 l -0.048,0.02 0.552,-0.52 -0.024,0.04 c -0.072,0.12 -0.144,0.22 -0.24,0.32 l -0.048,0.04 -0.048,0.03 -0.216,0.19 0.048,-0.02 -0.072,0.04 c -0.048,0.05 -0.072,0.1 -0.12,0.12 l -0.096,0.08 c -0.072,0.04 -0.12,0.07 -0.192,0.12 l -0.096,0.04 0.192,-0.12 -0.12,0.08 c -0.048,0.04 -0.12,0.07 -0.168,0.09 l -0.096,0.05 v 0 l -0.096,0.05 h -0.024 l -0.6,0.29 -0.024,0.02 -0.576,0.24 -0.024,0.02 -0.288,0.12 -0.096,0.03 -0.288,0.09 v 0 l -0.288,0.1 -0.096,0.02 -0.264,0.08 -0.12,0.02 -0.312,0.05 h -0.048 l -1.848,0.19 h -0.12 -1.92 -0.072 l -0.888,-0.05 h -0.024 l -1.32,-0.12 h 0.024 l -1.368,-0.07 -0.072,-0.02 -0.624,-0.08 H 60.84 l -0.648,-0.14 h -0.024 l -0.624,-0.12 -0.072,-0.02 -0.624,-0.2 h -0.024 l -0.48,-0.14 H 58.32 l -1.056,-0.38 -0.096,-0.03 -0.48,-0.24 -0.048,-0.02 -0.288,-0.15 0.024,0.03 -0.096,-0.05 -0.144,-0.1 -0.12,-0.07 -0.096,-0.07 -0.12,-0.1 0.096,0.08 -0.12,-0.08 c -0.048,-0.04 -0.12,-0.12 -0.168,-0.16 l -0.096,-0.1 0.096,0.07 -0.12,-0.09 -0.096,-0.1 -0.072,-0.1 -0.072,-0.07 -0.096,-0.12 v 0 l -0.072,-0.14 -0.096,-0.12 -0.144,-0.29 c -0.168,-0.34 -0.072,-0.77 0.216,-1.03 0.288,-0.27 0.72,-0.31 1.056,-0.12 z"
         style="fill:#000000;fill-opacity:1;fill-rule:nonzero;stroke:none"
         transform="matrix(1.3333333,0,0,-1.3333333,0,1120.8)" />
    </g>
    <g
       id="g30">
      <path
         id="path30"
         d="m 50.232,754.06 -0.312,-0.27 c -0.072,-0.07 -0.144,-0.17 -0.168,-0.26 l -0.072,-0.12 0.048,0.07 -0.048,-0.05 c -0.144,-0.26 -0.144,-0.6 0.024,-0.86 0.168,-0.27 0.456,-0.41 0.768,-0.39 0.288,0.03 0.576,0.22 0.696,0.51 l 0.024,0.05 0.024,0.04 0.024,0.12 -0.12,-0.24 0.264,0.34 c 0.24,0.31 0.216,0.77 -0.072,1.06 -0.312,0.28 -0.768,0.28 -1.08,0 z"
         style="fill:#000000;fill-opacity:1;fill-rule:nonzero;stroke:none"
         transform="matrix(1.3333333,0,0,-1.3333333,0,1120.8)" />
    </g>
    <g
       id="g31">
      <path
         id="path31"
         d="m 52.56,753.84 -0.072,-0.34 -0.024,-0.09 -0.048,-0.29 -0.024,-0.1 v -0.04 c -0.024,-0.34 0.168,-0.68 0.456,-0.87 0.288,-0.17 0.672,-0.17 0.984,0 0.288,0.19 0.456,0.53 0.432,0.87 v 0.04 0.1 l -0.048,0.29 v -0.15 0.32 c 0.024,0.43 -0.288,0.79 -0.72,0.86 -0.408,0.05 -0.816,-0.22 -0.936,-0.6 z"
         style="fill:#000000;fill-opacity:1;fill-rule:nonzero;stroke:none"
         transform="matrix(1.3333333,0,0,-1.3333333,0,1120.8)" />
    </g>
    <g
       id="g32">
      <path
         id="path32"
         d="m 53.832,753.6 0.192,-0.26 c 0.024,-0.05 0.072,-0.1 0.12,-0.15 l 0.576,-0.5 0.048,-0.05 0.096,-0.07 c 0.264,-0.19 0.624,-0.24 0.912,-0.12 0.312,0.14 0.504,0.43 0.552,0.74 0.024,0.34 -0.12,0.65 -0.384,0.84 l -0.096,0.07 0.024,-0.02 -0.6,0.48 -0.12,0.07 -0.264,0.15 c -0.336,0.19 -0.768,0.12 -1.008,-0.17 -0.264,-0.29 -0.264,-0.72 -0.048,-1.01 z"
         style="fill:#000000;fill-opacity:1;fill-rule:nonzero;stroke:none"
         transform="matrix(1.3333333,0,0,-1.3333333,0,1120.8)" />
    </g>
    <g
       id="g33">
      <path
         id="path33"
         d="m 77.136,743.42 -0.096,-0.19 c -0.048,-0.09 -0.072,-0.21 -0.096,-0.33 l -0.048,-0.34 v 0.05 l -0.024,-0.15 0.048,0.17 -0.048,-0.14 -0.024,-0.1 -0.096,-0.33 v 0 l -0.048,-0.24 -0.024,-0.08 -0.144,-0.64 v 0.02 l -0.12,-0.6 0.024,0.1 -0.672,-2.28 0.024,0.04 -0.216,-0.6 -0.024,-0.04 -0.096,-0.29 -0.024,-0.15 -0.048,-0.21 0.048,0.17 -0.072,-0.24 v 0.04 l -0.072,-0.24 0.024,0.05 -0.096,-0.17 c -0.168,-0.43 -0.12,-0.91 0.168,-1.29 0.288,-0.36 0.744,-0.58 1.2,-0.51 0.48,0.05 0.864,0.36 1.032,0.8 l 0.096,0.16 0.024,0.08 0.072,0.21 v 0.03 l 0.096,0.26 c 0,0.05 0.024,0.12 0.048,0.17 l 0.024,0.24 -0.024,-0.15 0.072,0.32 v -0.08 l 0.192,0.63 0.024,0.05 0.624,2.3 0.024,0.1 0.096,0.6 v 0 l 0.12,0.64 v -0.02 l 0.072,0.26 -0.024,-0.02 0.072,0.34 v -0.03 l 0.048,0.15 c 0,0.04 0.024,0.12 0.024,0.16 v 0.15 0.02 l 0.048,0.36 -0.024,-0.09 0.048,0.19 c 0.096,0.6 -0.264,1.15 -0.816,1.32 -0.576,0.19 -1.176,-0.1 -1.416,-0.63 z"
         style="fill:#000000;fill-opacity:1;fill-rule:nonzero;stroke:none"
         transform="matrix(1.3333333,0,0,-1.3333333,0,1120.8)" />
    </g>
    <g
       id="g34">
      <path
         id="path34"
         d="m 79.488,741.84 0.072,0.24 c 0.12,0.48 -0.024,1.01 -0.408,1.32 -0.36,0.34 -0.888,0.43 -1.344,0.24 -0.456,-0.19 -0.792,-0.62 -0.816,-1.1 v -0.05 c -0.024,-0.22 0,-0.43 0.072,-0.63 l 0.048,-0.07 -0.048,0.15 0.12,-0.46 v 0.02 l 0.144,-0.52 -0.024,0.07 0.336,-1.44 -0.024,0.09 0.12,-0.62 v -0.1 l 0.144,-0.6 v -0.02 l 0.168,-0.62 0.048,-0.12 0.48,-1.37 0.024,-0.07 0.096,-0.2 -0.072,0.15 0.072,-0.22 v 0.03 l 0.024,-0.17 c 0.12,-0.51 0.504,-0.89 1.008,-1.03 0.504,-0.15 1.032,0 1.392,0.36 0.36,0.36 0.528,0.88 0.384,1.39 l -0.048,0.17 v 0.02 l -0.048,0.22 -0.072,0.16 -0.072,0.2 0.024,-0.05 -0.504,1.39 0.024,-0.1 -0.168,0.6 v -0.02 l -0.144,0.58 0.024,-0.1 -0.12,0.62 -0.024,0.1 -0.36,1.44 -0.048,0.12 -0.192,0.5 v 0.03 l -0.168,0.41 0.072,-0.34 v 0.1 c -0.096,0.74 -0.744,1.27 -1.488,1.2 h -0.024 c -0.48,-0.05 -0.888,-0.36 -1.08,-0.8 -0.192,-0.43 -0.12,-0.93 0.168,-1.32 0.288,-0.38 0.744,-0.57 1.224,-0.5 l 0.264,0.05 c 0.36,0.05 0.648,0.31 0.744,0.67 z"
         style="fill:#000000;fill-opacity:1;fill-rule:nonzero;stroke:none"
         transform="matrix(1.3333333,0,0,-1.3333333,0,1120.8)" />
    </g>
    <g
       id="g35">
      <path
         id="path35"
         d="m 80.424,752.23 0.048,-0.31 v 0 l 0.024,-0.34 v 0 l 0.024,-0.33 0.024,-0.07 0.048,-0.34 0.024,-0.12 0.24,-0.84 v -0.05 l 0.168,-0.53 v 0.05 l 0.168,-0.62 v -0.03 l 0.24,-0.86 v 0.07 l 0.144,-0.6 -0.024,0.07 0.264,-1.41 0.048,-0.17 0.24,-0.77 -0.048,0.22 0.096,-0.58 -0.024,0.12 v -0.02 c 0.048,-0.72 0.648,-1.3 1.392,-1.3 0.72,0 1.32,0.58 1.368,1.3 v 0.02 c 0,0.07 0,0.17 -0.024,0.27 l -0.072,0.57 c -0.024,0.07 -0.024,0.17 -0.072,0.24 l -0.24,0.77 0.048,-0.14 -0.288,1.39 v 0.07 l -0.144,0.6 -0.024,0.05 -0.24,0.86 v -0.02 l -0.168,0.62 -0.024,0.05 -0.144,0.53 v -0.05 l -0.24,0.84 0.024,-0.1 -0.072,0.34 0.024,-0.1 -0.048,0.34 v 0 l -0.048,0.34 v 0 l -0.048,0.31 c -0.096,0.72 -0.768,1.25 -1.512,1.15 -0.72,-0.1 -1.224,-0.74 -1.152,-1.49 z"
         style="fill:#000000;fill-opacity:1;fill-rule:nonzero;stroke:none"
         transform="matrix(1.3333333,0,0,-1.3333333,0,1120.8)" />
    </g>
    <g
       id="g36">
      <path
         id="path36"
         d="m 86.016,753.1 -0.192,-0.56 C 85.8,752.5 85.8,752.45 85.8,752.38 l -0.192,-0.94 0.024,0.05 -0.24,-1.08 0.024,0.05 -0.192,-0.7 v 0 l -0.168,-0.7 -0.024,-0.07 -0.12,-0.72 v 0.03 l -0.072,-0.36 v 0.04 l -0.168,-0.72 0.024,0.08 -0.624,-2.12 0.144,0.34 -0.312,-0.48 c -0.12,-0.17 -0.192,-0.36 -0.216,-0.58 v -0.02 l 0.816,1.08 -0.024,-0.02 h -0.024 -0.024 c -0.48,-0.22 -0.816,-0.68 -0.84,-1.18 v -0.02 c -0.048,-0.51 0.216,-1.01 0.648,-1.28 0.432,-0.26 0.984,-0.26 1.416,0 0.432,0.27 0.696,0.77 0.648,1.28 v 0.02 l -0.096,-0.62 v 0.02 0 l 0.024,0.05 c 0.096,0.21 0.12,0.43 0.096,0.67 v 0.02 l -0.072,-0.64 0.192,0.52 c 0.024,0.05 0.048,0.1 0.072,0.17 l 0.528,2.14 v 0.02 l 0.168,0.72 0.024,0.07 0.048,0.36 v 0 l 0.12,0.72 -0.024,-0.07 0.168,0.7 v 0 l 0.144,0.69 0.024,0.08 0.192,1.05 v 0 l 0.144,0.96 c 0.024,0.05 0.024,0.1 0.024,0.17 l 0.024,0.58 c 0,0.52 -0.36,0.96 -0.888,1.05 -0.504,0.1 -1.032,-0.19 -1.2,-0.69 z"
         style="fill:#000000;fill-opacity:1;fill-rule:nonzero;stroke:none"
         transform="matrix(1.3333333,0,0,-1.3333333,0,1120.8)" />
    </g>
    <g
       id="g37">
      <path
         id="path37"
         d="m 49.392,757.22 0.12,-0.21 0.096,-0.15 0.336,-0.31 0.024,-0.05 0.24,-0.21 v 0 l 0.096,-0.07 0.048,-0.08 0.072,-0.02 c 0.192,-0.14 0.456,-0.17 0.696,-0.05 0.216,0.1 0.36,0.34 0.384,0.58 0,0.24 -0.12,0.48 -0.312,0.62 l -0.072,0.03 0.048,-0.03 -0.096,0.07 v 0 l -0.24,0.2 0.024,-0.03 -0.36,0.31 0.096,-0.12 -0.168,0.24 c -0.192,0.27 -0.576,0.32 -0.84,0.15 -0.288,-0.19 -0.36,-0.58 -0.192,-0.87 z"
         style="fill:#000000;fill-opacity:1;fill-rule:nonzero;stroke:none"
         transform="matrix(1.3333333,0,0,-1.3333333,0,1120.8)" />
    </g>
    <g
       id="g38">
      <path
         id="path38"
         d="m 51.984,758.38 0.072,-0.34 0.048,-0.1 0.144,-0.36 c 0.096,-0.31 0.408,-0.5 0.72,-0.5 h 0.024 c 0.264,0 0.528,0.14 0.672,0.38 0.144,0.24 0.144,0.53 0,0.8 -0.144,0.24 -0.408,0.38 -0.672,0.38 h -0.024 l 0.72,-0.48 -0.168,0.38 0.048,-0.09 -0.12,0.33 c -0.12,0.41 -0.528,0.63 -0.912,0.53 -0.408,-0.12 -0.648,-0.53 -0.552,-0.93 z"
         style="fill:#000000;fill-opacity:1;fill-rule:nonzero;stroke:none"
         transform="matrix(1.3333333,0,0,-1.3333333,0,1120.8)" />
    </g>
    <g
       id="g39">
      <path
         id="path39"
         d="m 54.864,758.76 -0.192,-0.24 -0.072,-0.1 -0.168,-0.31 0.144,0.17 -0.048,-0.02 c -0.048,-0.08 -0.096,-0.12 -0.144,-0.2 l -0.048,-0.09 0.048,0.09 -0.024,-0.04 c -0.048,-0.08 -0.072,-0.12 -0.096,-0.2 l -0.024,-0.04 0.096,0.16 -0.048,-0.04 c -0.048,-0.05 -0.072,-0.12 -0.096,-0.2 l -0.048,-0.16 -0.024,-0.08 -0.024,-0.09 0.096,0.24 -0.024,-0.03 c -0.168,-0.24 -0.168,-0.57 0,-0.81 0.144,-0.27 0.432,-0.41 0.72,-0.39 0.288,0.05 0.528,0.24 0.648,0.51 v 0.05 l 0.048,0.14 v 0.1 l -0.024,-0.12 0.072,0.16 -0.096,-0.16 0.048,0.07 c 0.024,0.05 0.072,0.12 0.072,0.19 l 0.024,0.05 -0.072,-0.19 0.024,0.04 0.048,0.1 0.024,0.07 -0.12,-0.19 0.048,0.05 c 0.024,0.05 0.072,0.09 0.12,0.17 l 0.144,0.33 -0.024,-0.05 0.144,0.24 c 0.192,0.32 0.096,0.72 -0.216,0.94 -0.288,0.22 -0.696,0.17 -0.936,-0.12 z"
         style="fill:#000000;fill-opacity:1;fill-rule:nonzero;stroke:none"
         transform="matrix(1.3333333,0,0,-1.3333333,0,1120.8)" />
    </g>
    <g
       id="g40">
      <path
         id="path40"
         d="m 54.768,747.29 v 0.02 l -0.24,-0.45 v 0 l -0.504,-0.24 v 0 c 0.216,0.02 0.408,0.12 0.552,0.26 v 0 0 l 0.024,0.02 c 0.096,0.1 0.168,0.22 0.216,0.36 l 0.024,0.03 -0.408,-0.51 0.24,0.15 0.048,0.05 0.144,0.09 -0.144,-0.07 0.168,0.07 0.048,0.03 0.144,0.09 -0.12,-0.07 0.168,0.07 v 0 l 0.192,0.07 h -0.024 l 0.504,0.2 -0.12,-0.03 1.488,0.41 v 0 l 0.48,0.12 -0.072,-0.02 0.528,0.09 v 0 l 0.552,0.1 h -0.072 l 0.528,0.07 v 0 l 0.528,0.05 h -0.024 l 0.552,0.05 v 0 l 0.552,0.04 H 60.6 l 0.576,-0.02 h 0.048 l 0.528,0.02 H 61.68 l 0.552,-0.02 h -0.024 l 0.552,-0.02 h -0.072 l 1.464,-0.15 h -0.048 l 0.504,-0.07 H 64.56 l 0.48,-0.1 v 0 l 0.504,-0.12 -0.048,0.03 0.48,-0.12 h -0.048 l 0.48,-0.15 -0.048,0.03 0.48,-0.17 -0.048,0.02 1.056,-0.38 -0.096,0.02 1.128,-0.5 -0.288,0.17 0.168,-0.12 c 0.36,-0.29 0.84,-0.36 1.272,-0.19 0.432,0.16 0.72,0.55 0.792,1 0.072,0.46 -0.12,0.92 -0.48,1.2 l -0.168,0.12 c -0.072,0.05 -0.168,0.1 -0.264,0.15 l -1.104,0.5 -0.096,0.03 -1.032,0.38 -0.048,0.02 -0.48,0.15 -0.048,0.02 -0.48,0.15 h -0.048 l -0.48,0.12 h -0.048 l -0.504,0.12 v 0 l -0.504,0.09 h -0.072 l -0.504,0.07 h -0.072 l -1.464,0.15 -0.072,0.02 H 62.304 62.28 61.728 61.656 l -0.528,-0.02 H 61.176 60.6 l -0.12,-0.03 -0.552,-0.04 h 0.024 l -0.576,-0.08 H 59.328 L 58.8,750.53 h -0.024 l -0.528,-0.07 -0.072,-0.03 -0.528,-0.09 v 0 l -0.528,-0.12 -0.096,-0.03 -0.48,-0.14 -0.048,-0.03 -1.44,-0.48 -0.096,-0.02 -0.504,-0.22 -0.072,-0.04 -0.168,-0.1 v 0 l -0.168,-0.07 -0.12,-0.07 -0.144,-0.1 0.048,0.02 -0.168,-0.09 -0.12,-0.1 -0.144,-0.12 -0.048,-0.07 -0.216,-0.19 c -0.264,-0.29 -0.36,-0.72 -0.216,-1.08 v -0.03 c 0.048,-0.14 0.12,-0.26 0.24,-0.36 v -0.02 c 0.144,-0.14 0.36,-0.24 0.576,-0.26 v 0 0 0 l -0.504,0.24 h 0.024 c 0.216,-0.22 0.504,-0.32 0.816,-0.24 h 0.024 c 0.336,0.07 0.6,0.33 0.672,0.67 z"
         style="fill:#000000;fill-opacity:1;fill-rule:nonzero;stroke:none"
         transform="matrix(1.3333333,0,0,-1.3333333,0,1120.8)" />
    </g>
    <g
       id="g41">
      <path
         id="path41"
         d="m 54.384,748.39 -0.024,0.03 c -0.144,0.02 -0.336,0 -0.48,-0.05 v 0 l -0.144,-0.05 v -0.02 l 1.08,-0.12 v 0 c -0.384,0.33 -0.96,0.31 -1.344,-0.05 v 0 0 l -0.024,-0.03 v 0 0 c -0.384,-0.38 -0.408,-1.03 -0.024,-1.44 l 0.192,-0.19 0.096,-0.09 0.144,-0.12 c 0.048,-0.05 0.12,-0.1 0.192,-0.12 l 0.168,-0.1 -0.12,0.07 0.12,-0.09 0.072,-0.03 0.144,-0.09 c 0.048,-0.05 0.12,-0.08 0.168,-0.1 l 0.192,-0.07 -0.048,0.02 0.504,-0.24 0.096,-0.02 1.464,-0.48 0.048,-0.03 0.504,-0.12 0.072,-0.02 0.504,-0.12 h 0.024 l 0.552,-0.1 0.048,-0.02 0.528,-0.07 h 0.024 l 0.528,-0.07 h 0.048 l 0.552,-0.08 h 0.024 l 0.528,-0.04 h 0.072 l 0.576,-0.03 h 0.024 0.552 0.024 0.528 0.048 l 0.552,0.03 h 0.048 l 1.488,0.14 h 0.048 l 0.552,0.1 h 0.048 l 0.504,0.09 v 0 l 0.504,0.12 h 0.048 l 0.456,0.12 0.12,0.03 0.48,0.16 -0.072,-0.02 0.48,0.14 0.096,0.03 1.056,0.38 0.12,0.05 1.104,0.53 c 0.096,0.05 0.168,0.09 0.24,0.14 l 0.144,0.12 c 0.36,0.29 0.552,0.75 0.48,1.2 -0.048,0.46 -0.36,0.84 -0.792,1.01 -0.432,0.17 -0.912,0.1 -1.272,-0.19 l -0.144,-0.12 0.24,0.14 -1.104,-0.53 0.12,0.05 -1.056,-0.38 0.096,0.02 -0.504,-0.14 -0.072,-0.03 -0.48,-0.16 0.096,0.02 -0.456,-0.12 h 0.048 l -0.504,-0.1 v 0 l -0.504,-0.12 0.072,0.03 -0.528,-0.1 0.072,0.03 -1.464,-0.17 h 0.048 l -0.552,-0.05 h 0.048 -0.552 0.048 -0.552 0.024 -0.576 0.072 l -0.528,0.02 h 0.024 l -0.576,0.05 h 0.024 l -0.528,0.05 h 0.024 l -0.552,0.07 0.048,-0.02 -0.528,0.09 h 0.024 l -0.528,0.1 0.048,-0.02 -0.528,0.12 h 0.048 l -1.488,0.38 0.144,-0.05 -0.504,0.22 -0.096,0.02 -0.192,0.05 0.192,-0.05 -0.168,0.07 0.072,-0.02 -0.168,0.1 -0.12,0.04 -0.168,0.08 0.216,-0.12 -0.168,0.12 v 0 l -0.264,0.16 0.144,-0.12 v 0 0 0.03 0 h -0.024 l 0.048,-0.05 v 0 c -0.072,0.1 -0.168,0.17 -0.264,0.22 l -0.024,0.02 -0.12,0.05 H 54.48 l 0.6,-0.67 -0.024,0.02 c -0.048,0.34 -0.336,0.6 -0.672,0.67 z"
         style="fill:#000000;fill-opacity:1;fill-rule:nonzero;stroke:none"
         transform="matrix(1.3333333,0,0,-1.3333333,0,1120.8)" />
    </g>
    <g
       id="g42">
      <path
         id="path42"
         d="m 78.552,741.79 3.744,0.46 0.024,0.02 0.672,0.1 -0.072,-0.03 1.392,0.15 h -0.24 0.168 c 0.504,-0.05 0.984,0.19 1.248,0.62 0.288,0.41 0.312,0.96 0.096,1.39 -0.216,0.46 -0.672,0.75 -1.176,0.8 H 84.24 c -0.096,0 -0.168,0 -0.264,0 l -1.392,-0.2 -0.072,-0.02 -0.648,-0.12 h -0.048 l -3.672,-0.84 c -0.6,-0.12 -1.008,-0.72 -0.912,-1.34 0.12,-0.63 0.696,-1.06 1.32,-0.99 z"
         style="fill:#000000;fill-opacity:1;fill-rule:nonzero;stroke:none"
         transform="matrix(1.3333333,0,0,-1.3333333,0,1120.8)" />
    </g>
    <g
       id="g43">
      <path
         id="path43"
         d="m 82.272,751.49 0.264,0.07 c 0.144,0.05 0.264,0.1 0.384,0.17 l 0.072,0.05 -0.144,-0.08 0.072,0.03 -0.24,-0.07 h 0.072 c 0.096,0.02 0.168,0.07 0.264,0.09 l 0.072,0.05 -0.24,-0.1 0.072,0.03 -0.168,-0.03 0.192,0.03 h 0.096 l 0.072,0.02 h 0.024 l 0.096,0.03 -0.456,-0.03 h 0.072 c 0.672,-0.12 1.32,0.31 1.512,0.99 0.144,0.64 -0.216,1.34 -0.84,1.58 l -0.072,0.02 0.552,-0.38 -0.024,0.02 c -0.096,0.12 -0.216,0.22 -0.36,0.29 l -0.048,0.03 c -0.168,0.09 -0.384,0.14 -0.576,0.16 h -0.048 l 0.936,-0.45 v 0.02 l -0.024,0.03 -0.048,0.04 0.024,-0.02 -0.024,0.02 c -0.048,0.05 -0.12,0.12 -0.168,0.17 l -0.096,0.07 -0.048,0.03 -0.072,0.05 0.36,-0.39 -0.024,0.07 -0.048,0.08 -0.072,0.07 c -0.024,0.05 -0.072,0.09 -0.12,0.14 l -0.024,0.05 0.144,-0.22 -0.024,0.08 v 0 l -0.048,0.04 0.072,-0.12 -0.072,0.17 v -0.02 l -0.048,0.14 v 0 l -0.072,0.12 0.072,-0.19 -0.12,0.38 0.024,-0.14 -0.072,0.41 0.024,-0.12 -0.024,0.19 v 0 0.19 -0.17 0.22 0 0.19 0 0.22 -0.15 l 0.024,0.22 -0.024,-0.17 0.048,0.19 v 0.12 l 0.024,0.2 -0.048,-0.24 0.072,0.21 0.024,0.07 0.096,0.41 -0.096,-0.29 0.024,0.08 v 0 l 0.048,0.09 v 0 l 0.048,0.07 v 0 l 0.048,0.1 0.048,0.1 0.048,0.09 -0.072,-0.09 0.048,0.07 -0.264,-0.36 0.096,0.09 c 0.048,0.05 0.12,0.12 0.168,0.2 l 0.048,0.07 -0.048,-0.05 0.072,0.07 v 0 l 0.048,0.07 -0.12,-0.14 0.072,0.1 v -0.03 l 0.072,0.07 -0.144,-0.12 0.072,0.05 -0.072,-0.05 0.072,0.05 c 0.072,0.05 0.144,0.12 0.216,0.17 l 0.096,0.1 -0.384,-0.27 0.072,0.05 v 0 l 0.096,0.02 c 0.072,0.05 0.144,0.1 0.216,0.15 l 0.096,0.05 -0.576,-0.24 0.096,0.02 c 0.216,0.02 0.408,0.12 0.576,0.24 l 0.072,0.07 -0.456,-0.24 0.216,0.07 c 0.096,0.03 0.192,0.05 0.264,0.1 l 0.096,0.02 -0.648,-0.12 h 0.072 c 0.12,0 0.24,0 0.36,0.03 L 84.36,757.15 84,757.1 h 0.12 c 0.096,0 0.216,0.03 0.336,0.05 l 0.072,0.03 -0.336,-0.05 h 0.072 v 0 h 0.12 l -0.36,0.05 0.096,-0.03 c 0.096,-0.02 0.216,-0.05 0.336,-0.05 h 0.072 l -0.336,0.05 0.072,-0.02 c 0.12,-0.03 0.24,-0.05 0.36,-0.05 h 0.096 l -0.36,0.05 0.072,-0.03 -0.288,0.12 0.096,-0.04 c 0.048,-0.03 0.12,-0.08 0.192,-0.08 l 0.24,-0.09 -0.072,0.02 0.096,-0.02 -0.096,0.05 0.12,-0.08 -0.264,0.17 0.12,-0.09 c 0.048,-0.03 0.096,-0.08 0.144,-0.1 l 0.12,-0.07 -0.168,0.12 0.096,-0.1 v 0 l 0.12,-0.07 v 0 l 0.096,-0.1 -0.216,0.24 0.072,-0.12 0.12,-0.12 0.24,-0.24 -0.192,0.22 0.144,-0.19 -0.048,0.07 0.12,-0.22 c 0.048,-0.04 0.072,-0.09 0.096,-0.14 l 0.144,-0.19 -0.144,0.24 0.12,-0.19 v 0 l 0.096,-0.22 v 0 l 0.096,-0.22 -0.048,0.12 0.096,-0.21 -0.024,0.05 0.072,-0.22 -0.024,0.07 0.072,-0.21 v 0.04 l 0.048,-0.24 -0.024,0.15 0.072,-0.51 v 0.08 l 0.048,-0.36 v 0 l 0.048,-0.36 -0.024,0.16 v -0.33 0.09 l -0.024,-0.79 v 0 l -0.048,-0.65 v -0.09 -0.12 c 0.024,-0.75 0.648,-1.37 1.416,-1.37 0.768,0 1.392,0.62 1.416,1.37 v 0.12 -0.07 l 0.048,0.64 v 0.03 l 0.048,0.79 v 0.05 0.33 0.17 l -0.048,0.36 v 0 l -0.048,0.36 v 0.07 l -0.096,0.51 -0.024,0.12 -0.048,0.24 -0.024,0.02 -0.048,0.22 -0.024,0.07 -0.096,0.24 v 0.05 l -0.096,0.19 -0.048,0.12 -0.096,0.19 v 0 l -0.12,0.22 v 0 l -0.096,0.21 c -0.048,0.08 -0.096,0.17 -0.144,0.24 l -0.144,0.17 0.096,-0.14 -0.12,0.21 -0.048,0.08 -0.12,0.16 c -0.048,0.1 -0.12,0.17 -0.192,0.24 l -0.24,0.24 0.096,-0.12 -0.072,0.1 c -0.072,0.1 -0.144,0.17 -0.24,0.24 l -0.096,0.07 v 0 l -0.096,0.1 v 0 l -0.096,0.07 c -0.072,0.05 -0.12,0.07 -0.168,0.12 l -0.096,0.05 0.144,-0.1 -0.096,0.07 c -0.096,0.08 -0.168,0.12 -0.264,0.17 l -0.12,0.05 -0.096,0.05 -0.12,0.05 -0.072,0.02 -0.264,0.1 0.192,-0.08 -0.072,0.03 c -0.096,0.05 -0.192,0.09 -0.312,0.12 l -0.072,0.02 c -0.12,0.03 -0.24,0.03 -0.336,0.03 h -0.096 l 0.336,-0.03 h -0.072 c -0.12,0.05 -0.24,0.05 -0.36,0.05 h -0.072 l 0.36,-0.05 -0.096,0.03 c -0.12,0.04 -0.24,0.04 -0.336,0.04 h -0.12 v 0 h -0.072 c -0.12,0 -0.24,-0.02 -0.36,-0.04 l -0.072,-0.03 0.36,0.05 H 84 c -0.12,0 -0.24,-0.02 -0.336,-0.05 l -0.096,-0.02 0.336,0.05 h -0.072 c -0.216,0 -0.432,-0.05 -0.624,-0.17 l -0.096,-0.03 0.264,0.1 -0.216,-0.07 c -0.192,-0.05 -0.36,-0.12 -0.48,-0.24 l -0.096,-0.05 0.576,0.26 -0.12,-0.02 c -0.192,-0.05 -0.384,-0.14 -0.552,-0.26 l -0.096,-0.08 0.216,0.15 -0.072,-0.05 v 0 l -0.096,-0.05 c -0.12,-0.07 -0.24,-0.14 -0.36,-0.26 l -0.072,-0.1 0.192,0.19 -0.048,-0.04 -0.072,-0.05 -0.072,-0.05 c -0.048,-0.05 -0.096,-0.1 -0.144,-0.14 l -0.072,-0.08 0.024,0.03 -0.096,-0.1 c -0.048,-0.05 -0.096,-0.09 -0.144,-0.17 l -0.048,-0.07 v 0 l -0.072,-0.07 -0.024,-0.1 -0.048,-0.04 0.168,0.21 -0.072,-0.07 c -0.12,-0.12 -0.192,-0.24 -0.264,-0.38 l -0.048,-0.08 -0.048,-0.12 -0.024,-0.09 0.048,0.09 -0.048,-0.07 v 0 l -0.048,-0.07 v 0 l -0.024,-0.1 v 0 l -0.048,-0.07 c -0.048,-0.09 -0.072,-0.19 -0.096,-0.29 l -0.096,-0.4 v 0.04 l -0.048,-0.21 c -0.024,-0.07 -0.048,-0.15 -0.048,-0.24 l -0.024,-0.19 0.024,0.16 -0.048,-0.19 -0.024,-0.17 v -0.21 -0.12 -0.22 0 -0.19 0 -0.22 -0.14 l 0.024,-0.19 v 0 l 0.024,-0.17 0.024,-0.12 0.096,-0.41 0.024,-0.14 0.144,-0.39 c 0.024,-0.07 0.024,-0.14 0.072,-0.21 l 0.072,-0.12 v 0 l 0.048,-0.12 v 0 l 0.096,-0.15 c 0.024,-0.07 0.048,-0.12 0.096,-0.16 l 0.024,-0.08 v 0 l 0.048,-0.04 c 0.048,-0.08 0.12,-0.15 0.168,-0.22 l 0.048,-0.05 -0.144,0.17 0.072,-0.1 -0.024,0.08 0.024,-0.08 c 0.12,-0.14 0.24,-0.26 0.384,-0.36 l 0.072,-0.04 -0.072,0.04 0.096,-0.07 -0.12,0.1 0.024,-0.03 -0.024,0.03 0.048,-0.03 0.024,-0.02 0.024,-0.02 c 0.264,-0.24 0.6,-0.36 0.936,-0.34 h 0.048 l -0.6,0.12 0.024,-0.02 -0.336,0.21 0.024,-0.02 c 0.144,-0.12 0.312,-0.22 0.504,-0.27 l 0.072,-0.02 c 0.672,-0.22 1.368,0.14 1.632,0.79 0.24,0.67 -0.072,1.39 -0.696,1.68 -0.648,0.29 -1.416,0.03 -1.728,-0.6 l -0.048,-0.05 0.888,0.65 -0.096,-0.02 c -0.12,-0.03 -0.216,-0.05 -0.312,-0.1 l -0.048,-0.02 0.408,0.09 h -0.192 c -0.072,-0.02 -0.12,-0.02 -0.192,-0.04 l -0.072,-0.03 c -0.096,-0.02 -0.168,-0.05 -0.264,-0.09 l -0.072,-0.03 0.264,0.1 -0.096,-0.03 c -0.096,-0.02 -0.168,-0.07 -0.264,-0.09 l -0.072,-0.05 -0.144,-0.1 -0.048,-0.02 -0.096,-0.07 -0.216,-0.17 c -0.432,-0.36 -0.576,-0.96 -0.312,-1.46 0.264,-0.51 0.816,-0.77 1.368,-0.65 z"
         style="fill:#000000;fill-opacity:1;fill-rule:nonzero;stroke:none"
         transform="matrix(1.3333333,0,0,-1.3333333,0,1120.8)" />
    </g>
    <g
       id="g44">
      <path
         id="path44"
         d="m 88.224,752.3 c 0,-0.38 -0.312,-0.69 -0.696,-0.69 -0.36,0 -0.672,0.31 -0.672,0.69 0,0.36 0.312,0.68 0.672,0.68 0.384,0 0.696,-0.32 0.696,-0.68 z"
         style="fill:#000000;fill-opacity:1;fill-rule:evenodd;stroke:none"
         transform="matrix(1.3333333,0,0,-1.3333333,0,1120.8)" />
    </g>
    <g
       id="g45">
      <path
         id="path45"
         d="m 86.88,750.98 0.288,-0.16 -0.264,0.19 0.12,-0.1 v 0 l 0.144,-0.14 0.12,-0.1 0.336,-0.24 -0.048,0.03 0.144,-0.12 h 0.024 l 0.384,-0.32 0.024,-0.02 0.864,-0.62 0.048,-0.05 0.24,-0.17 -0.384,1.63 -0.024,-0.02 c -0.192,-0.36 -0.192,-0.79 0,-1.15 0.168,-0.39 0.528,-0.63 0.936,-0.7 h 0.024 c 0.504,-0.07 1.008,0.14 1.272,0.6 0.264,0.43 0.24,0.98 -0.048,1.42 -0.312,0.4 -0.816,0.6 -1.32,0.48 -0.504,-0.12 -0.888,-0.53 -0.96,-1.04 v -0.02 c -0.12,-0.67 0.312,-1.3 0.96,-1.44 h 0.024 l -0.984,1.44 v -0.02 c -0.072,-0.51 0.144,-1.01 0.576,-1.28 l 0.024,-0.02 -0.36,0.34 0.024,-0.03 -0.192,1.15 v 0 l -0.024,-0.09 -0.024,-0.03 0.12,0.29 v 0 l 0.288,0.36 -0.024,-0.02 0.312,0.21 -0.072,-0.02 v 0 l -0.096,-0.05 v 0 l -0.072,-0.05 0.336,0.12 -0.12,-0.02 h -0.048 l -0.096,-0.02 c -0.048,-0.03 -0.12,-0.05 -0.168,-0.08 l -0.12,-0.02 0.36,0.07 -0.192,-0.02 h -0.144 l -0.384,-0.1 h -0.096 l -1.512,-0.41 h 0.048 l -1.008,-0.24 -0.096,-0.02 -0.12,-0.05 c -0.072,0 -0.12,-0.02 -0.168,-0.05 l -0.048,-0.02 H 85.68 l -0.024,-0.02 0.624,0.14 h -0.024 -0.024 -0.048 v 0 H 86.16 v 0 h -0.024 v 0 h -0.024 v 0 h -0.048 v 0 0 0 H 86.04 86.016 85.968 85.992 85.968 85.944 85.92 l 0.96,-0.41 -0.048,0.03 c -0.096,0.12 -0.216,0.21 -0.36,0.26 l -0.048,0.02 c -0.672,0.34 -1.488,0.08 -1.824,-0.62 -0.36,-0.67 -0.072,-1.49 0.6,-1.82 l 0.048,-0.03 -0.36,0.24 0.048,-0.05 c 0.264,-0.24 0.624,-0.38 0.984,-0.38 h 0.024 0.024 0.024 -0.024 0.048 0.024 0.024 v 0 0 0 h 0.048 v 0 h 0.024 v 0 h 0.024 v 0 h 0.024 v 0 h 0.048 0.024 0.024 c 0.216,0 0.408,0.07 0.6,0.14 l 0.048,0.03 v 0.02 l 0.048,0.03 -0.192,-0.1 0.12,0.05 -0.096,-0.05 0.984,0.26 0.048,0.03 1.488,0.43 -0.072,-0.02 0.384,0.09 -0.144,-0.05 0.192,0.03 c 0.144,0.02 0.264,0.07 0.384,0.09 l 0.096,0.05 -0.144,-0.05 0.072,0.03 -0.072,-0.03 0.096,0.03 c 0.12,0.02 0.24,0.07 0.336,0.12 l 0.096,0.05 v 0 l 0.072,0.04 v 0 l 0.096,0.05 c 0.12,0.07 0.264,0.17 0.36,0.29 h 0.024 c 0.36,0.43 0.432,1.01 0.168,1.51 v 0 l 0.12,-0.29 -0.024,0.03 -0.024,0.09 v 0 c -0.096,0.29 -0.24,0.51 -0.48,0.68 l -0.024,0.02 c -0.432,0.29 -1.008,0.31 -1.44,0.02 h -0.024 c -0.552,-0.36 -0.744,-1.05 -0.48,-1.63 0.288,-0.57 0.936,-0.86 1.536,-0.67 0.624,0.17 1.008,0.79 0.912,1.42 v 0.02 c -0.072,0.36 -0.264,0.67 -0.552,0.86 -0.312,0.2 -0.672,0.27 -1.008,0.2 l -0.024,-0.03 c -0.696,-0.14 -1.104,-0.81 -0.96,-1.51 0.144,-0.67 0.792,-1.1 1.464,-0.98 0.696,0.14 1.152,0.76 1.056,1.46 l -0.024,0.02 c -0.048,0.34 -0.216,0.63 -0.504,0.82 -0.264,0.22 -0.6,0.29 -0.936,0.24 h -0.024 l 1.32,-0.67 v 0.02 c -0.12,0.22 -0.288,0.39 -0.528,0.51 l -0.264,0.16 0.048,-0.02 -0.912,0.55 v -0.02 l -0.432,0.29 0.024,-0.03 -0.144,0.1 v 0.02 l -0.36,0.19 0.072,-0.02 -0.144,0.12 h -0.024 l -0.144,0.1 c -0.072,0.04 -0.144,0.09 -0.216,0.12 L 87.816,753 c -0.552,0.22 -1.176,-0.02 -1.416,-0.58 -0.264,-0.52 -0.048,-1.17 0.48,-1.44 z"
         style="fill:#000000;fill-opacity:1;fill-rule:nonzero;stroke:none"
         transform="matrix(1.3333333,0,0,-1.3333333,0,1120.8)" />
    </g>
    <g
       id="g46">
      <path
         id="path46"
         d="m 82.104,752.81 -0.024,0.09 c -0.096,0.2 -0.288,0.36 -0.504,0.44 -0.216,0.07 -0.48,0.04 -0.672,-0.05 l -0.216,-0.12 -0.024,-0.03 -0.192,-0.09 -0.048,-0.03 -0.168,-0.12 -0.096,-0.04 -0.192,-0.15 -0.048,-0.05 -0.504,-0.45 v 0 l -0.528,-0.46 h 0.024 l -1.272,-1.01 -0.096,-0.07 -0.576,-0.6 0.888,0.31 h -0.024 c -0.552,0.08 -1.08,-0.31 -1.176,-0.86 v -0.02 l 0.456,0.69 -0.024,-0.02 0.672,0.19 h -0.024 c -0.552,0.02 -1.056,-0.36 -1.152,-0.94 v -0.02 c -0.072,-0.58 0.288,-1.1 0.864,-1.22 0.576,-0.15 1.128,0.19 1.296,0.76 0.168,0.56 -0.12,1.16 -0.672,1.35 h -0.024 c -0.048,0.02 -0.096,0.05 -0.168,0.05 h -0.024 v 0 0.02 H 77.784 77.76 v 0 0 l 0.936,-1.22 v 0.02 l 0.024,0.1 v 0.21 l -0.048,-0.33 0.144,0.48 -0.144,-0.32 0.144,0.22 0.024,0.02 0.096,0.17 0.024,0.05 0.096,0.19 0.048,0.1 0.216,0.45 -0.024,-0.02 0.288,0.55 -0.12,-0.19 0.072,0.1 c 0.024,0.04 0.072,0.12 0.096,0.16 l 0.072,0.12 v 0 l 0.048,0.15 0.048,0.07 0.12,0.31 0.024,0.1 0.312,1.03 -0.072,-0.22 0.072,0.15 c 0.024,0.07 0.048,0.12 0.072,0.17 l 0.072,0.16 -0.096,-0.16 0.192,0.33 -0.048,-0.07 0.168,0.26 0.048,0.05 0.072,0.17 c 0.312,0.53 0.12,1.22 -0.432,1.54 -0.528,0.31 -1.224,0.12 -1.56,-0.41 l -0.072,-0.15 0.048,0.08 -0.168,-0.27 -0.048,-0.07 -0.192,-0.34 -0.072,-0.14 -0.072,-0.17 0.072,0.17 -0.072,-0.14 c -0.048,-0.08 -0.072,-0.15 -0.096,-0.22 l -0.36,-1.03 0.024,0.07 -0.12,-0.34 0.048,0.12 -0.072,-0.14 v 0 l -0.072,-0.12 0.12,0.19 -0.048,-0.09 c -0.048,-0.08 -0.096,-0.12 -0.12,-0.2 l -0.288,-0.55 v -0.05 l -0.216,-0.45 0.048,0.09 -0.12,-0.19 0.048,0.05 -0.12,-0.17 v 0 l -0.144,-0.21 c -0.048,-0.12 -0.12,-0.24 -0.144,-0.39 l -0.096,-0.48 c -0.048,-0.14 -0.048,-0.31 0,-0.48 l 0.048,-0.19 -0.024,0.12 v -0.02 c 0.024,-0.32 0.168,-0.58 0.432,-0.8 0.24,-0.16 0.552,-0.26 0.864,-0.21 v 0 0 h 0.024 l 0.072,0.02 v 0 0 h 0.024 c 0.072,0.03 0.12,0.03 0.168,0.05 h 0.024 c 0.504,0.19 0.792,0.7 0.72,1.2 v 0.02 c -0.096,0.6 -0.648,1.01 -1.224,0.94 -0.6,-0.07 -1.032,-0.6 -0.984,-1.18 0.048,-0.6 0.552,-1.05 1.152,-1.03 l 0.024,0.03 c 0.336,0 0.648,0.16 0.864,0.45 v 0.03 c 0.192,0.24 0.24,0.55 0.192,0.84 v 0.02 c -0.12,0.58 -0.696,0.96 -1.272,0.86 -0.576,-0.09 -0.984,-0.62 -0.912,-1.22 0.096,-0.58 0.6,-1.01 1.2,-0.94 h 0.024 c 0.288,0.03 0.528,0.15 0.72,0.36 l 0.528,0.63 -0.048,-0.07 1.176,1.12 0.024,0.05 0.504,0.51 h -0.024 l 0.48,0.48 v 0 l 0.192,0.19 -0.048,-0.05 0.144,0.14 -0.048,-0.04 0.192,0.14 -0.048,-0.02 0.192,0.14 -0.192,-0.12 0.072,0.02 c 0.216,0.08 0.384,0.24 0.48,0.46 0.072,0.22 0.072,0.46 -0.048,0.65 z"
         style="fill:#000000;fill-opacity:1;fill-rule:nonzero;stroke:none"
         transform="matrix(1.3333333,0,0,-1.3333333,0,1120.8)" />
    </g>
  </g>
</svg>
