<svg width="77.745" height="38.43" version="1.1" viewBox="0 0 77.745 38.43" xmlns="http://www.w3.org/2000/svg">
 <g transform="translate(-464.36 -116.29)">
  <path transform="matrix(1.3333 0 0 -1.3333 0 1120.8)" d="m365.95 750.96 0.48-0.05h0.17l0.41 0.03 0.38 0.02h-0.07 0.82-0.03l0.51-0.02h-0.05l2.01-0.12 2.02-0.15h0.05l1.51-0.02h-0.02 0.14c0.5-0.03 0.96 0.24 1.2 0.65 0.24 0.43 0.24 0.93 0 1.36-0.24 0.41-0.7 0.68-1.2 0.65h-0.19l-1.49-0.09h0.07-2.01l-2.02-0.03h-0.53 0.03l-0.82-0.02h-0.1l-0.38-0.03-0.41-0.04h0.15l-0.48 0.02c-0.58 0.02-1.06-0.43-1.11-1.01-0.02-0.57 0.41-1.08 0.96-1.15z"/>
  <path transform="matrix(1.3333 0 0 -1.3333 0 1120.8)" d="m373.58 752.26 0.03-0.36v0.04l-0.03-0.72v-0.02l0.03-1.85v-0.07l0.07-1.22 0.02-0.12 0.41-2.07v-0.07l0.77-3 0.41-1.63 0.02-0.05 0.24-0.84v0.02l1.23-4.36 0.02-0.05 0.89-2.88 0.05-0.07 0.21-0.58-0.02 0.05 1.08-3.24-0.03 0.05 0.1-0.39v0.1l0.07-0.41 0.03-0.02 0.07-0.39-0.03 0.1 0.08-0.41 0.02-0.41v0.07l0.05-0.43-0.03 0.05 0.03-0.89 0.02 0.17-0.02-0.29c-0.07-0.69 0.43-1.32 1.13-1.39 0.69-0.05 1.32 0.46 1.39 1.15l0.02 0.29v0.14l-0.02 0.92v0.04l-0.05 0.41v0.1l-0.05 0.41-0.07 0.4v0.1l-0.07 0.41v-0.05l-0.07 0.43-0.05 0.1-0.1 0.38-0.02 0.05-1.08 3.24v0.05l-0.24 0.57 0.05-0.07-0.94 2.91 0.02-0.05-1.24 4.39-0.24 0.84v-0.02l-0.46 1.63-0.84 2.97v-0.04l-0.48 2.04 0.02-0.17-0.12 1.22v-0.09l-0.04 1.84v0.72l-0.03 0.12-0.02 0.36c-0.1 0.58-0.6 0.99-1.18 0.96-0.6-0.07-1.03-0.57-1.01-1.12z"/>
  <path transform="matrix(1.3333 0 0 -1.3333 0 1120.8)" d="m368.3 732.67-0.16-0.09c-0.2-0.1-0.36-0.22-0.48-0.39l-0.46-0.65-0.05-0.09-0.79-1.44-0.05-0.03-0.36-0.69-0.02-0.07-0.03-0.03h0.03l-0.7-1.46 0.05 0.12-0.17-0.34-0.05-0.05-0.02-0.07c-0.24-0.43-0.22-0.98 0.07-1.39s0.79-0.65 1.27-0.58c0.51 0.05 0.94 0.39 1.13 0.87l0.03 0.07-0.03-0.05 0.15 0.34v-0.03l0.64 1.49 0.03 0.05-0.03-0.05 0.34 0.72 0.72 1.47-0.02-0.03 0.33 0.7c0.1 0.12 0.12 0.26 0.12 0.38l0.05 0.22c0.05 0.38-0.12 0.74-0.43 0.98-0.34 0.24-0.75 0.27-1.11 0.12z"/>
  <path transform="matrix(1.3333 0 0 -1.3333 0 1120.8)" d="m372.36 733.99-0.12-0.31-0.7-1.63 0.03 0.07-1.92-4.01 0.02 0.1-0.24-0.48-0.02-0.03-0.12-0.21c-0.22-0.43-0.22-0.96 0.05-1.39 0.26-0.41 0.74-0.65 1.22-0.63 0.5 0.03 0.96 0.31 1.18 0.75l0.09 0.21v-0.02l0.24 0.48 0.05 0.09 1.8 4.06 0.05 0.12 0.55 1.68v0.07l0.1 0.36c0.16 0.6-0.17 1.2-0.77 1.42-0.6 0.19-1.25-0.1-1.49-0.7z"/>
  <path transform="matrix(1.3333 0 0 -1.3333 0 1120.8)" d="m362.5 727.58-0.51-0.02c-0.65-0.02-1.15-0.5-1.25-1.13-0.04-0.62 0.36-1.22 0.96-1.39l0.77-0.19c0.12-0.05 0.24-0.05 0.34-0.05l4.58-0.12h-0.07l1.03-0.07h0.07l2.86-0.05h0.31c0.6-0.02 1.15 0.31 1.44 0.82 0.31 0.52 0.31 1.17 0 1.68-0.29 0.52-0.84 0.84-1.44 0.84h-0.31l-2.86-0.08h0.03-1.08l-4.59-0.19h-0.09l-0.79-0.07c-0.53-0.05-0.96-0.43-1.11-0.94-0.12-0.5 0.05-1.05 0.48-1.36 0.41-0.32 0.99-0.34 1.44-0.05l0.43 0.26c0.46 0.27 0.65 0.82 0.48 1.3-0.14 0.5-0.62 0.84-1.12 0.81z"/>
  <path transform="matrix(1.3333 0 0 -1.3333 0 1120.8)" d="m372.53 734.09 0.02-0.46v-0.19c0-0.17 0.05-0.29 0.1-0.43l0.07-0.12-0.12 0.41v-0.12c0.02-0.15 0.07-0.29 0.12-0.46l0.14-0.24-0.04 0.07 0.09-0.24c0.03-0.05 0.05-0.12 0.1-0.17l0.12-0.21 0.12-0.15 0.43-0.6v0.03l0.14-0.17 0.15-0.17c0.02-0.07 0.12-0.14 0.19-0.21l0.17-0.15v-0.02l0.43-0.34 0.07-0.07 1.56-1.13 1.37-0.98-0.12 0.09 0.17-0.16 0.07-0.05 0.22-0.19-0.08 0.07 0.2-0.17-0.17 0.17 0.17-0.22-0.03 0.05 0.15-0.19 0.07-0.1 0.17-0.19-0.12 0.12 0.14-0.19 0.12-0.22-0.07 0.17 0.29-0.6-0.1 0.26 0.17-0.62-0.05 0.22 0.02-0.22c0.08-0.53 0.39-0.96 0.89-1.18 0.48-0.21 1.03-0.14 1.47 0.17 0.43 0.31 0.64 0.82 0.6 1.35l-0.03 0.21c-0.02 0.07-0.02 0.15-0.05 0.22l-0.16 0.62c-0.03 0.1-0.05 0.17-0.1 0.27l-0.31 0.62c-0.05 0.05-0.07 0.12-0.12 0.17l-0.12 0.21-0.17 0.22-0.1 0.12-0.16 0.19 0.07-0.07-0.15 0.17-0.02 0.05-0.17 0.19c-0.05 0.07-0.09 0.12-0.14 0.17l-0.19 0.19-0.08 0.02-0.21 0.19 0.07-0.07-0.19 0.17-0.12 0.12-1.39 0.98-0.05 0.03-1.61 1.08 0.05-0.05-0.46 0.31-0.07 0.07-0.19 0.12 0.19-0.16-0.14 0.14-0.15 0.14 0.05-0.04-0.53 0.55-0.21 0.21 0.12-0.14-0.15 0.19 0.07-0.12-0.14 0.27 0.12-0.27-0.05 0.12c-0.02 0.12-0.09 0.24-0.17 0.34l-0.09 0.12 0.19-0.39-0.05 0.15 0.05-0.12-0.1 0.48c-0.12 0.55-0.64 0.96-1.22 0.89-0.6-0.05-1.03-0.53-1.03-1.13z"/>
  <path transform="matrix(1.3333 0 0 -1.3333 0 1120.8)" d="m370.85 743.5-0.17-0.27c-0.07-0.17-0.12-0.36-0.14-0.55l-0.03-0.14 0.05 0.16-0.05-0.19-0.02-0.19v-0.14-0.22l0.02-0.17v0.22l-0.02-0.19v-0.15-0.21l0.02-0.2c0-0.07 0.03-0.14 0.05-0.21l0.05-0.17-0.05 0.22 0.02-0.17 0.05-0.17 0.05-0.19c0-0.07 0.05-0.15 0.07-0.22l0.17-0.36 0.02-0.05 0.1-0.21 0.12-0.22 0.07-0.09 0.15-0.24 0.14-0.22c0.05-0.05 0.07-0.1 0.12-0.14l0.17-0.22-0.07 0.12 0.14-0.19c0.05-0.07 0.1-0.12 0.17-0.19l0.5-0.48 0.07-0.08 0.58-0.45 0.05-0.05 1.25-0.91-0.03 0.02 1.2-0.96-0.07 0.1 0.72-0.7 0.22-0.19-0.05 0.05 0.19-0.22 0.24-0.26-0.12 0.14 0.53-0.72-0.1 0.17 0.05-0.12c0.24-0.43 0.7-0.72 1.18-0.72 0.5-0.02 0.98 0.24 1.22 0.65 0.26 0.43 0.29 0.96 0.05 1.39l-0.07 0.12-0.1 0.14-0.5 0.72c-0.05 0.08-0.1 0.1-0.15 0.15l-0.24 0.24h0.03l-0.22 0.21-0.07 0.08-0.24 0.21v-0.02l-0.72 0.67-0.1 0.1-1.22 0.91-0.05 0.02-1.25 0.91 0.05-0.02-0.6 0.46 0.07-0.1-0.5 0.5 0.14-0.16-0.14 0.19-0.1 0.09-0.17 0.2 0.12-0.17-0.14 0.21-0.17 0.22 0.1-0.12-0.12 0.22-0.12 0.21v-0.02l-0.17 0.33 0.07-0.16-0.07 0.19 0.05-0.15-0.05 0.15c0 0.07-0.05 0.14-0.05 0.21l-0.07 0.15 0.07-0.24-0.02 0.19v-0.17 0.34c0 0.07-0.03 0.17-0.05 0.24l-0.02 0.14 0.02-0.21v0.14-0.19 0.19c0 0.07 0.02 0.12 0 0.22v0.14l-0.02-0.34 0.07 0.32c0.12 0.55-0.17 1.15-0.72 1.34-0.53 0.22-1.15 0-1.44-0.5z"/>
  <path transform="matrix(1.3333 0 0 -1.3333 0 1120.8)" d="m369.43 748.68 0.1-0.02h0.12l-0.46 0.14 0.1-0.05 0.12-0.07 0.07-0.07c0.12-0.07 0.29-0.12 0.43-0.15l0.1-0.02-0.43 0.17 0.09-0.05-0.14 0.1 0.29-0.29-0.05 0.07 0.02-0.05 0.07-0.07c0.17-0.19 0.41-0.31 0.68-0.34h0.02l-0.67 0.34 0.02-0.02-0.14 0.24 0.02-0.05 0.05-0.12c0.17-0.36 0.48-0.6 0.89-0.6h0.02l-0.93 0.79 0.02-0.12c0.02-0.05 0.05-0.12 0.07-0.19l0.05-0.1v0.03-0.08l0.05-0.04v-0.03l0.02-0.09 0.05-0.05-0.07 0.19 0.02-0.12 0.05-0.19 0.05-0.05-0.1 0.24 0.05-0.14c0-0.1 0.02-0.17 0.05-0.24l0.02-0.08-0.07 0.41v-0.09c0-0.1 0-0.17 0.02-0.24l0.03-0.1v-0.02l0.05-0.22-0.03 0.12 0.07-0.84v0.07-0.21c0-0.58 0.46-1.01 1.01-1.01 0.58 0 1.03 0.43 1.03 1.01v0.31l-0.07 0.86-0.02 0.15-0.05 0.21v0.03l-0.05 0.09 0.05-0.21v0.09c0 0.15-0.05 0.29-0.12 0.43l-0.02 0.05 0.09-0.29-0.02 0.17c0 0.1-0.05 0.19-0.1 0.29l-0.02 0.05 0.07-0.19-0.02 0.09c-0.03 0.07-0.05 0.15-0.08 0.22l-0.02 0.05v-0.03l-0.05 0.12-0.02 0.05-0.03 0.07v-0.02l-0.04 0.12 0.07-0.19-0.05 0.09c-0.1 0.46-0.53 0.77-1.01 0.77h-0.02l0.93-0.58-0.07 0.1v0.02l-0.02 0.08c-0.05 0.07-0.1 0.14-0.17 0.24l-0.05 0.04c-0.19 0.22-0.5 0.34-0.79 0.32h-0.02l0.79-0.32-0.17 0.17-0.31 0.27c-0.07 0.07-0.15 0.12-0.24 0.14l-0.1 0.05c-0.14 0.07-0.31 0.09-0.5 0.07h-0.1l0.48-0.07-0.09 0.05-0.1 0.02-0.1 0.05c-0.14 0.07-0.31 0.09-0.45 0.07h-0.22c-0.45-0.05-0.79-0.43-0.79-0.91 0-0.46 0.34-0.84 0.79-0.89z"/>
  <path transform="matrix(1.3333 0 0 -1.3333 0 1120.8)" d="m372.26 745.78 0.15 0.86v0.02l0.17 1.16-0.03-0.12 0.03 0.09 0.02 0.12 0.02 0.05-0.02-0.12 0.02 0.12c0.03 0.05 0.03 0.12 0.03 0.19v0.05l0.02 0.05c0.03 0.6-0.38 1.1-0.98 1.15-0.58 0.05-1.08-0.36-1.18-0.94-0.07-0.57 0.34-1.1 0.89-1.2h0.05c0.29-0.04 0.6 0.03 0.84 0.22s0.38 0.46 0.38 0.77l0.03 0.05-0.15-0.44 0.05 0.08c0.05 0.07 0.07 0.14 0.07 0.24l0.05 0.09-1.25-0.81h0.05c0.29-0.05 0.6 0.02 0.84 0.24 0.24 0.19 0.41 0.48 0.41 0.76l0.02 0.08v0.02l-0.14-0.43 0.02 0.05-1.15-0.58h0.05c0.45-0.07 0.91 0.17 1.15 0.58l0.02 0.07-1.17-0.6h0.02c0.34-0.05 0.65 0.05 0.89 0.24s0.41 0.48 0.41 0.79l0.02 0.05-0.31-0.67 0.1 0.09-0.75-0.33h0.31-0.14 0.12-0.05 0.03c0.45-0.05 0.86 0.16 1.1 0.55 0.22 0.36 0.22 0.84 0 1.22-0.24 0.39-0.65 0.58-1.1 0.55h-0.03 0.05-0.12c-0.1-0.02-0.19-0.02-0.29-0.04l-0.26-0.1c-0.22-0.05-0.41-0.17-0.55-0.34l-0.1-0.12c-0.19-0.21-0.29-0.5-0.26-0.81v-0.05l0.93 1.2-0.02-0.02c-0.39-0.05-0.72-0.34-0.87-0.7l-0.02-0.07 0.89 0.72h-0.05c-0.38-0.07-0.72-0.34-0.84-0.72l-0.05-0.05c-0.02-0.14-0.07-0.31-0.05-0.48v-0.1l0.94 1.18-0.05-0.02c-0.43-0.08-0.79-0.41-0.89-0.87l-0.02-0.09 0.05 0.16v-0.04c-0.07-0.17-0.1-0.32-0.1-0.48v-0.05l0.94 1.15h-0.05c-0.53-0.1-0.94-0.6-0.89-1.15v-0.1l0.03 0.27-0.03-0.1c-0.02-0.12-0.02-0.24 0-0.36v-0.05 0.34l-0.02-0.1v-0.17l-0.05-1.12-0.05-0.87c0-0.5 0.36-0.91 0.84-0.98 0.48-0.05 0.94 0.29 1.03 0.77z"/>
  <path transform="matrix(1.3333 0 0 -1.3333 0 1120.8)" d="m367.97 731.02-0.65 0.45v-0.02c0.1-0.12 0.19-0.22 0.31-0.29l0.05-0.05-0.31 0.31 0.02-0.02c0.17-0.24 0.41-0.41 0.67-0.48h0.03l-0.39 0.17 0.05-0.03c0.12-0.09 0.24-0.14 0.36-0.19h0.05l-0.36 0.17 0.05-0.02c0.12-0.08 0.24-0.15 0.36-0.17h0.02l-0.38 0.17 0.05-0.03c0.14-0.12 0.33-0.19 0.5-0.19l0.05-0.02-0.12 0.02h0.02l0.17-0.02 0.05-0.03-0.17 0.05h0.05l0.12-0.05h0.05c0.14 0 0.26 0 0.38 0.03l0.1 0.02h-0.05 0.12-0.24 0.09c0.1-0.02 0.17 0 0.27 0l0.12 0.02c0.07 0.03 0.14 0.03 0.24 0.05l0.09 0.07-0.04-0.02 0.21 0.07 0.1 0.05 0.79 0.36 0.12 0.05 1.75 1.03 0.1 0.05 0.38 0.24-0.14-0.1 0.26 0.15c0.07 0.04 0.12 0.07 0.19 0.12l0.1 0.07-0.53-0.24 0.1 0.02c0.19 0.05 0.36 0.12 0.53 0.22l0.09 0.07-0.48-0.19h0.1c0.21 0.07 0.43 0.17 0.6 0.31l0.19 0.19-0.17-0.12 0.07 0.05c0.41 0.26 0.65 0.77 0.63 1.27-0.05 0.51-0.36 0.94-0.84 1.13-0.48 0.22-1.01 0.12-1.42-0.19l-0.36-0.36 0.36 0.26-0.07-0.05c-0.12-0.07-0.22-0.14-0.31-0.21l-0.1-0.1 0.46 0.29-0.1-0.02c-0.14-0.08-0.31-0.17-0.43-0.29l-0.1-0.1 0.22 0.19-0.26-0.16-0.1-0.08-0.38-0.28 0.09 0.07-1.73-1.11 0.03 0.03-0.75-0.43 0.17 0.07-0.19-0.07-0.1-0.05-0.12-0.05 0.22 0.07-0.12-0.02 0.26 0.05-0.09-0.03c-0.1 0-0.19 0-0.27-0.02l-0.12-0.03-0.07-0.02-0.09-0.05 0.24 0.07-0.05-0.02h-0.12l-0.05-0.02 0.17 0.02h-0.05l-0.17-0.02-0.02-0.03 0.12 0.05h-0.05l0.6-0.1-0.05 0.03c-0.24 0.09-0.48 0.12-0.72 0.05h-0.02l0.72-0.05-0.05 0.02c-0.24 0.1-0.48 0.1-0.72 0.05h-0.05l0.72-0.07-0.05 0.02c-0.21 0.1-0.45 0.12-0.69 0.05h-0.03l0.96-0.19h-0.02c-0.07 0.07-0.17 0.12-0.26 0.14l-0.05 0.05 0.26-0.17-0.02 0.03c-0.29 0.21-0.63 0.28-0.96 0.21v-0.02c-0.51-0.12-0.87-0.55-0.87-1.06 0-0.5 0.36-0.93 0.87-1.05z"/>
  <path transform="matrix(1.3333 0 0 -1.3333 0 1120.8)" d="m364.92 751.63 0.12-0.14-0.22 0.53v-0.12l0.12 0.45-0.02-0.05-0.02-0.04c-0.1-0.15-0.12-0.32-0.1-0.48v-0.05l0.02 0.36v-0.07l0.53 0.57c-0.43-0.17-0.69-0.67-0.57-1.13l0.02-0.14 0.05-0.14 0.36-0.87 0.02-0.05 0.27-0.52-0.05 0.12 0.31-0.84v0.02l0.74-2.3-0.02 0.16 0.84-4.1v0.12l0.29-2.76v0.1l0.02-1.2v0.09l-0.02-1.17v0.02l-0.1-1.2 0.03 0.12-0.39-2.5v-0.02l-0.29-2.09v-0.21l-0.02-0.17c0-0.58 0.31-1.08 0.79-1.37 0.46-0.26 1.06-0.26 1.54 0 0.48 0.29 0.77 0.79 0.77 1.37v0.17l-0.03-0.17 0.24 2.09v-0.03l0.34 2.5 0.02 0.17 0.03 1.2v0.02l0.02 1.2v0.1l-0.07 1.22-0.03 0.12-0.4 2.76-0.03 0.12-1.03 4.08-0.07 0.17-0.91 2.23-0.08 0.17-0.45 0.77-0.05 0.04-0.34 0.48v0.03l-0.5 0.74v-0.02l-0.07 0.12c-0.12 0.17-0.27 0.31-0.46 0.38l0.55-0.57-0.02 0.07c-0.07 0.17-0.17 0.33-0.34 0.45l-0.02 0.03 0.24-0.31-0.02 0.04-0.03 0.05c-0.05 0.1-0.14 0.19-0.24 0.27l-0.05 0.04 0.34-0.69v0.05-0.08 0.2c0.05 0.4-0.19 0.79-0.58 0.93-0.38 0.15-0.81 0-1.05-0.33-0.22-0.34-0.22-0.8 0.07-1.11z"/>
  <path transform="matrix(1.3333 0 0 -1.3333 0 1120.8)" d="m357.29 744.24-0.03-0.02-0.04-0.17-0.03-0.24-0.02-0.1-0.03-0.21-0.02-0.15v-0.65l0.07-0.48-0.02 0.1 0.02-0.67 0.07-1.42v-0.05l0.15-2.18-0.03 0.05 0.1-1.39v0.04-1.39 0.12l-0.05-0.6c-0.05-0.5 0.22-1.01 0.65-1.29 0.46-0.29 1.01-0.29 1.46-0.05 0.48 0.24 0.77 0.74 0.75 1.27v0.6l-0.03 1.39v0.05l-0.12 1.39v0.03l-0.16 2.16v-0.03l-0.08 1.42v0.05l-0.04 0.67-0.03 0.07-0.05 0.48v-0.14 0.45l-0.02-0.09 0.02 0.21v-0.12l0.03 0.22c0.02 0.21 0.02 0.43-0.05 0.65v0.02c-0.22 0.5-0.7 0.86-1.25 0.86s-1.03-0.36-1.22-0.86z"/>
  <path transform="matrix(1.3333 0 0 -1.3333 0 1120.8)" d="m348.48 733.68h0.02c0.32-0.48 0.87-0.7 1.4-0.6l0.48 0.1-0.08-0.03 1.2 0.17-0.16-0.02 1.84 0.02h-0.12l3.1-0.22h-0.05l0.43-0.04h0.05l1.83-0.12h0.21c0.55-0.03 1.08 0.31 1.37 0.79s0.29 1.08 0 1.58c-0.29 0.51-0.82 0.79-1.37 0.77h-0.12 0.07l-1.8 0.1h0.05l-0.45 0.02h-0.08l-3.09 0.1h-0.17l-1.82-0.17-0.17-0.03-1.2-0.26 0.09 0.02-0.48-0.07c-0.4-0.05-0.74-0.26-0.96-0.57-0.21-0.34-0.28-0.72-0.19-1.11v-0.02c0.03-0.12 0.1-0.29 0.17-0.41z"/>
  <path transform="matrix(1.3333 0 0 -1.3333 0 1120.8)" d="m349.2 735.34 0.02-0.1v0.02-0.02l0.24 0.43-0.04-0.02c-0.17-0.07-0.27-0.27-0.27-0.46 0.03-0.19 0.12-0.36 0.31-0.43l0.05-0.05-0.29 0.46v-0.05l0.12 0.34-0.04-0.05c-0.1-0.1-0.15-0.24-0.12-0.39v-0.07 0.03-0.05c0.02-0.24 0.24-0.46 0.48-0.46s0.45 0.22 0.48 0.46v0.05-0.03 0.07l-0.15-0.31 0.07 0.05c0.08 0.1 0.15 0.22 0.15 0.36v0.05c0.02 0.19-0.1 0.36-0.27 0.45l-0.04 0.03c-0.2 0.12-0.46 0.07-0.63-0.12-0.14-0.17-0.17-0.43 0-0.63 0.12-0.19 0.39-0.24 0.6-0.14l0.05 0.02c0.19 0.08 0.29 0.27 0.29 0.46v0.02-0.02l0.02 0.1c0 0.19-0.12 0.36-0.26 0.43-0.17 0.09-0.34 0.09-0.51 0-0.16-0.07-0.26-0.24-0.26-0.43z"/>
  <path transform="matrix(1.3333 0 0 -1.3333 0 1120.8)" d="m350.3 734.59-0.04 0.1 0.04-0.12v0.05l-0.07-0.84 0.03 0.02-0.2-0.24v0.02c0.08 0.05 0.17 0.15 0.2 0.24l0.02 0.03h0.02v0.02l-0.19-0.24c0.07 0.1 0.15 0.17 0.22 0.27l0.02 0.02c0.05 0.12 0.1 0.24 0.12 0.38v0.05l-0.12-0.36 0.31 0.55-0.09-0.14 0.21 0.29 0.08 0.07 0.14 0.26-0.1-0.14 0.56 0.62-0.05-0.04 1.63 1.6-0.02-0.02 1.2 1.1h0.02l2.95 2.76-0.02-0.02 1.58 1.44h0.03l0.28 0.26-0.12-0.09 0.29 0.21c0.41 0.29 0.6 0.75 0.55 1.23-0.04 0.45-0.36 0.86-0.79 1.05-0.43 0.2-0.93 0.12-1.32-0.16l-0.29-0.22-0.09-0.1-0.29-0.26h-0.02l-1.54-1.46-0.02-0.05-2.86-2.83-1.18-1.13-0.04-0.05-1.56-1.68-0.03-0.05-0.55-0.67c-0.05-0.07-0.12-0.14-0.14-0.24l-0.15-0.26 0.07 0.12-0.19-0.32c-0.05-0.04-0.05-0.12-0.09-0.19l-0.22-0.57c-0.05-0.15-0.07-0.34-0.05-0.51v-0.05c0.03-0.14 0.07-0.26 0.12-0.38l0.03-0.02c0.04-0.1 0.12-0.17 0.21-0.27l-0.21 0.24 0.02-0.02h0.02v-0.03c0.05-0.09 0.12-0.19 0.2-0.24l0.02-0.02-0.19 0.24 0.02-0.02c0.1-0.17 0.27-0.34 0.48-0.41h0.03c0.26-0.1 0.55-0.05 0.76 0.07 0.24 0.17 0.41 0.41 0.44 0.67v0.1c0.02 0.12 0 0.26-0.08 0.38z"/>
  <path transform="matrix(1.3333 0 0 -1.3333 0 1120.8)" d="m395.5 739.06 0.02-0.03h0.02l-0.4 0.27v-0.03c0.12-0.12 0.26-0.21 0.43-0.26l-0.12 0.05 0.17-0.08v-0.02l-0.41 0.29v-0.03l-0.39 1.06c-0.04-0.46 0.12-0.86 0.48-1.15l0.03-0.03-0.48 1.16v-0.03c-0.07-0.48 0.17-0.96 0.57-1.22l0.27-0.17-0.29 0.24 0.14-0.14v-0.03l0.2-0.21-0.08 0.07 0.17-0.19-0.02 0.02 0.31-0.46 0.07-0.09 0.12-0.12-0.14 0.19 0.12-0.19-0.12 0.19 0.07-0.14c0.05-0.1 0.07-0.17 0.14-0.24l0.08-0.17 0.12-0.17-0.2 0.5 0.03-0.21c0.02-0.07 0.05-0.17 0.09-0.24l0.05-0.17-0.05 0.14 0.05-0.16 0.12-0.46-0.02 0.12 0.09-0.67 0.03-0.17 0.05-0.24-0.03 0.17 0.05-0.24 0.02-0.27v0.08l0.03-0.27v0.05-0.24 0.17l-0.03-0.29v0.02-0.24 0.08l-0.09-0.65 0.07 0.29-0.05-0.17 0.17 0.33-0.07-0.07c-0.43-0.67-0.24-1.56 0.41-2.01 0.67-0.44 1.56-0.27 2.01 0.4l0.05 0.08c0.07 0.12 0.14 0.24 0.19 0.36l0.03 0.16c0.04 0.1 0.07 0.17 0.07 0.27l0.07 0.65 0.02 0.12v0.91l-0.02 0.07-0.02 0.26v0.08l-0.05 0.26-0.03 0.02-0.04 0.24-0.03 0.15-0.07 0.24 0.05-0.17-0.12 0.7-0.15 0.6-0.02 0.02-0.05 0.19-0.07 0.17-0.07 0.14 0.09-0.26-0.04 0.22c-0.05 0.16-0.12 0.33-0.24 0.48l-0.1 0.14-0.1 0.17 0.12-0.22-0.07 0.15c-0.02 0.07-0.07 0.14-0.09 0.19l-0.12 0.17c-0.05 0.07-0.1 0.14-0.15 0.19l-0.12 0.14 0.07-0.07-0.36 0.41-0.09 0.12-0.19 0.19-0.08 0.05-0.19 0.19-0.17 0.14-0.21 0.15-0.27 0.17 0.65-0.99v0.03c-0.07 0.5-0.45 0.96-0.96 1.08l-0.02 0.02 0.93-1.08c-0.04 0.48-0.36 0.89-0.81 1.06-0.48 0.16-0.96 0.07-1.32-0.27v-0.02l0.41 0.29v-0.03l-0.17-0.07 0.12 0.05c-0.17-0.05-0.31-0.15-0.43-0.27v-0.02l0.4 0.26h-0.02l-0.02-0.02c-0.48-0.14-0.77-0.6-0.77-1.1 0-0.48 0.29-0.94 0.77-1.08z"/>
  <path transform="matrix(1.3333 0 0 -1.3333 0 1120.8)" d="m398.88 738.77h0.05l-0.41 0.24h0.02c0.12-0.12 0.24-0.22 0.41-0.29h0.03l-0.15 0.07 0.03-0.02 0.14-0.05h0.02l-0.43 0.24h0.03l-0.39 1.06c-0.07-0.46 0.12-0.89 0.46-1.18h0.02l-0.48 1.15v-0.02c-0.05-0.48 0.15-0.94 0.55-1.2l0.24-0.19-0.19 0.19 0.15-0.17-0.08 0.07 0.17-0.19 0.19-0.22-0.07 0.1 0.29-0.46c0.05-0.04 0.1-0.12 0.14-0.16l0.12-0.15-0.21 0.34 0.09-0.19-0.02 0.04 0.07-0.16 0.05-0.1 0.1-0.14 0.12-0.24-0.17 0.5 0.02-0.22c0.03-0.12 0.07-0.21 0.12-0.33l0.07-0.17-0.12 0.34 0.05-0.2 0.03-0.09 0.12-0.43-0.03 0.14 0.07-0.7 0.05-0.16 0.05-0.24-0.02 0.07 0.07-0.24-0.03 0.09 0.05-0.26-0.02 0.14 0.02-0.26v-0.26 0.14l-0.02-0.26v-0.32l0.02 0.17-0.09-0.65 0.09 0.39-0.07-0.17 0.14 0.24-0.07-0.07c-0.43-0.67-0.24-1.56 0.41-2.02 0.67-0.43 1.56-0.26 2.02 0.41l0.04 0.07c0.05 0.1 0.1 0.17 0.12 0.24l0.08 0.17c0.04 0.12 0.09 0.26 0.09 0.38l0.07 0.65 0.03 0.19v0.24-0.07 0.43l-0.03 0.24v-0.02 0.29l-0.02 0.12-0.05 0.29-0.02 0.09-0.07 0.24v0.07l-0.08 0.24 0.05-0.16-0.12 0.67-0.05 0.14-0.12 0.46v-0.05l-0.04 0.19c0 0.12-0.05 0.22-0.12 0.34l-0.08 0.17 0.12-0.36-0.04 0.19c-0.03 0.19-0.12 0.36-0.2 0.5l-0.12 0.15 0.05-0.05-0.09 0.17 0.02-0.1-0.07 0.17-0.03 0.02-0.09 0.17c-0.07 0.12-0.15 0.24-0.24 0.34l-0.15 0.12 0.15-0.17-0.34 0.43c-0.05 0.07-0.09 0.12-0.14 0.17l-0.19 0.19-0.2 0.17-0.09 0.07-0.17 0.14-0.14 0.1-0.27 0.17 0.63-0.96v0.02c-0.08 0.51-0.44 0.94-0.96 1.08l-0.03 0.03 0.96-1.08c-0.07 0.48-0.38 0.88-0.84 1.05-0.45 0.17-0.96 0.05-1.29-0.26l-0.03-0.03 0.43 0.27h-0.02l-0.14-0.07h-0.03l0.15 0.04h-0.03c-0.17-0.04-0.29-0.14-0.41-0.26l-0.02-0.02 0.41 0.26h-0.03l-0.02-0.02c-0.46-0.17-0.77-0.6-0.77-1.08 0-0.51 0.31-0.96 0.77-1.13z"/>
  <path transform="matrix(1.3333 0 0 -1.3333 0 1120.8)" d="m384.77 739.85 0.38 0.05-0.09-0.03 0.96 0.03 0.84 0.02h-0.05 2.49-0.02l3.43-0.07h-0.05l1.2-0.07-0.09 0.02 3.38-0.41-0.09 0.03 0.76-0.17-0.12 0.05 0.72-0.22 0.75-0.24-0.1 0.05 2.11-0.82-0.24 0.12 0.34-0.21 0.34-0.2-0.05 0.03 0.33-0.24-0.09 0.07 0.86-0.67-0.31 0.31 0.1-0.14c0.04-0.05 0.12-0.12 0.16-0.2l0.12-0.09-0.04 0.05 0.12-0.17-0.12 0.17 0.09-0.15 0.07-0.07 0.1-0.14 0.05-0.05 0.09-0.12-0.24 0.41 0.05-0.15c0.07-0.14 0.15-0.26 0.22-0.38l0.12-0.12-0.19 0.26 0.09-0.14-0.09 0.19 0.16-0.5 0.1-0.27-0.05 0.19 0.07-0.33v-0.05l0.08-0.26v0.02l0.07-0.31-0.03 0.19 0.08-0.84-0.03 0.17v-0.91 0.02-0.41c-0.05-0.84 0.63-1.53 1.47-1.56 0.84-0.02 1.53 0.63 1.56 1.47l0.02 0.4v0.03l0.02 0.91-0.02 0.17-0.07 0.84c-0.03 0.07-0.03 0.14-0.03 0.19l-0.07 0.31v0.03l-0.09 0.26 0.02-0.02-0.07 0.31c-0.03 0.05-0.03 0.12-0.05 0.19l-0.1 0.26-0.16 0.51c-0.03 0.05-0.05 0.12-0.08 0.17l-0.07 0.14c-0.05 0.1-0.12 0.17-0.17 0.26l-0.12 0.15 0.22-0.39-0.07 0.17c-0.07 0.15-0.15 0.29-0.27 0.41l-0.12 0.12 0.08-0.05-0.12 0.15 0.04-0.1-0.07 0.14-0.12 0.15-0.14 0.17-0.05 0.02-0.12 0.12 0.19-0.19-0.12 0.12c-0.07 0.12-0.17 0.24-0.29 0.31l-0.86 0.7-0.12 0.07-0.36 0.24-0.05 0.02-0.33 0.22-0.34 0.19c-0.07 0.05-0.14 0.07-0.24 0.1l-2.14 0.79-0.12 0.05-0.76 0.21-0.75 0.19-0.14 0.03-0.79 0.12h-0.08l-3.36 0.36h-1.41l-3.43-0.07-2.5-0.1-0.84-0.02h0.05-1.08l-0.39-0.05c-0.69-0.1-1.17-0.72-1.1-1.39 0.07-0.7 0.67-1.2 1.37-1.13z"/>
 </g>
</svg>
