<svg width="38.022" height="58.243" version="1.1" viewBox="0 0 38.022 58.243" xmlns="http://www.w3.org/2000/svg">
 <g transform="translate(-463.43 -193.34)">
  <path transform="matrix(1.3333 0 0 -1.3333 0 1120.8)" d="m356.59 686.38v-0.03l-0.05-0.17-0.04-0.21-0.03-0.12-0.02-0.24v-0.12l-0.03-0.24v-0.41l0.08-0.46v0.08l0.02-0.68v0.03l0.05-1.44v-0.05l0.14-2.18v0.04l0.07-1.41v0.07-1.37 0.1l-0.04-0.58c-0.03-0.53 0.21-1.03 0.67-1.32 0.43-0.26 0.98-0.29 1.46-0.05 0.46 0.27 0.75 0.75 0.75 1.28l-0.03 0.6v0.02l-0.02 1.37v0.05l-0.1 1.39v0.02l-0.19 2.19 0.02-0.05-0.07 1.44-0.02 0.02-0.05 0.67v0.1l-0.07 0.46 0.02-0.15-0.02 0.22v0.24-0.12l0.02 0.24-0.02-0.12 0.02 0.21c0.05 0.24 0.03 0.44-0.05 0.65v0.03c-0.19 0.52-0.67 0.86-1.22 0.86-0.58 0-1.06-0.34-1.25-0.86z"/>
  <path transform="matrix(1.3333 0 0 -1.3333 0 1120.8)" d="m347.78 675.84 0.03-0.02c0.31-0.48 0.86-0.7 1.41-0.6l0.48 0.09-0.09-0.02 1.22 0.17h-0.17 1.85-0.12l3.07-0.2h-0.04l0.45-0.04 0.05-0.03 1.8-0.12h0.22c0.57 0 1.1 0.31 1.36 0.79 0.29 0.48 0.29 1.11 0 1.59-0.26 0.48-0.79 0.79-1.36 0.79h-0.1 0.07l-1.8 0.07h0.03l-0.44 0.05h-0.07l-3.09 0.07h-0.17l-1.83-0.14-0.19-0.03-1.2-0.28 0.12 0.02-0.5-0.07c-0.39-0.05-0.72-0.27-0.94-0.58-0.24-0.31-0.31-0.69-0.21-1.08v-0.02c0.04-0.15 0.09-0.29 0.16-0.41z"/>
  <path transform="matrix(1.3333 0 0 -1.3333 0 1120.8)" d="m360.55 693.19 0.43-0.05 0.22-0.02 0.36 0.02 0.38 0.03h-0.07 0.79-0.02l0.48-0.03h-0.05l1.97-0.12h-0.02l1.96-0.14h0.05l1.47-0.02h-0.03 0.17c0.48-0.03 0.94 0.24 1.18 0.64 0.26 0.44 0.26 0.96 0 1.37-0.24 0.43-0.7 0.67-1.18 0.65h-0.19l-1.47-0.1h0.08-1.97 0.02-1.99l-0.48-0.02h0.02-0.79l-0.09-0.02-0.39-0.03-0.38-0.05h0.14l-0.48 0.03c-0.55 0.02-1.03-0.43-1.08-1.01s0.36-1.08 0.96-1.13z"/>
  <path transform="matrix(1.3333 0 0 -1.3333 0 1120.8)" d="m367.92 694.46v-0.36 0.05-2.66l0.1-1.23 0.02-0.12 0.36-2.04 0.02-0.09 0.75-3 0.41-1.63v-0.05l0.24-0.82v0.03l1.17-4.4 0.03-0.04 0.88-2.88 0.03-0.05 0.19-0.6v0.05l1.03-3.24v0.07l0.1-0.41v0.12l0.07-0.43 0.07-0.41-0.02 0.12 0.07-0.43 0.05-0.41v0.1l0.02-0.44v0.05-0.91l0.03 0.17-0.03-0.29c-0.07-0.7 0.46-1.32 1.13-1.37 0.7-0.07 1.32 0.43 1.39 1.13l0.03 0.29v0.17l-0.03 0.88v0.05l-0.02 0.41v0.1l-0.05 0.4-0.07 0.41v0.1l-0.1 0.38v-0.02l-0.07 0.43-0.02 0.1-0.1 0.38-0.02 0.05-1.04 3.24-0.02 0.02-0.22 0.6 0.03-0.05-0.89 2.88 0.02-0.04-1.22 4.36v0.03l-0.24 0.84v-0.03l-0.43 1.64-0.82 2.95v-0.03l-0.48 2.04 0.05-0.14-0.12 1.2v-0.07l-0.05 1.82v0.72l-0.02 0.12-0.05 0.36c-0.07 0.58-0.58 0.99-1.15 0.96-0.6-0.05-1.03-0.55-1.01-1.13z"/>
  <path transform="matrix(1.3333 0 0 -1.3333 0 1120.8)" d="m362.81 674.88-0.17-0.1c-0.22-0.09-0.36-0.21-0.48-0.4l-0.43-0.65-0.07-0.07-0.8-1.44v-0.05l-0.36-0.7-0.02-0.05v-0.04 0.02l-0.7-1.46 0.05 0.09-0.17-0.31-0.02-0.05-0.05-0.07c-0.21-0.46-0.17-0.98 0.12-1.39 0.29-0.43 0.77-0.65 1.27-0.58 0.51 0.05 0.94 0.41 1.11 0.87l0.02 0.07v-0.05l0.12 0.34 0.65 1.48-0.02-0.02 0.02 0.05-0.02-0.05 0.33 0.72 0.67 1.49v-0.03l0.34 0.7c0.07 0.12 0.12 0.26 0.12 0.41l0.02 0.19c0.03 0.38-0.14 0.74-0.45 0.98-0.31 0.22-0.75 0.27-1.08 0.1z"/>
  <path transform="matrix(1.3333 0 0 -1.3333 0 1120.8)" d="m366.74 676.22-0.14-0.36v0.03l-0.67-1.63 0.02 0.04-1.87-3.98 0.02 0.07-0.24-0.45-0.02-0.03-0.1-0.21c-0.24-0.46-0.21-0.99 0.05-1.4 0.29-0.4 0.77-0.64 1.25-0.62 0.5 0.02 0.94 0.34 1.15 0.77l0.12 0.21-0.02-0.02 0.29 0.58 1.72 4.03 0.05 0.12 0.53 1.68 0.02 0.09 0.1 0.36c0.14 0.6-0.19 1.2-0.79 1.4-0.6 0.19-1.25-0.12-1.47-0.68z"/>
  <path transform="matrix(1.3333 0 0 -1.3333 0 1120.8)" d="m357.19 669.79-0.5-0.02c-0.65-0.03-1.15-0.51-1.23-1.13-0.07-0.62 0.32-1.22 0.94-1.39l0.74-0.19c0.12-0.03 0.24-0.05 0.34-0.05l4.44-0.12h-0.07l1.01-0.05 0.07-0.02 2.78-0.05h0.29c0.6 0 1.15 0.31 1.46 0.81 0.29 0.53 0.29 1.18 0 1.68-0.31 0.53-0.86 0.84-1.46 0.84h-0.29l-2.78-0.07h0.02-1.05l-4.42-0.17-0.12-0.02-0.77-0.07c-0.53-0.05-0.96-0.43-1.08-0.94-0.14-0.5 0.03-1.05 0.48-1.37 0.41-0.31 0.99-0.33 1.44-0.04l0.41 0.26c0.43 0.29 0.62 0.82 0.48 1.32-0.17 0.48-0.62 0.82-1.13 0.79z"/>
  <path transform="matrix(1.3333 0 0 -1.3333 0 1120.8)" d="m366.89 676.3 0.02-0.46v-0.19c0-0.15 0.05-0.27 0.07-0.39l0.08-0.14-0.1 0.41v-0.12c0.02-0.15 0.05-0.31 0.12-0.46l0.12-0.26-0.05 0.09 0.1-0.21c0.02-0.07 0.05-0.15 0.09-0.19l0.12-0.24 0.1-0.12 0.46-0.6h-0.03l0.15-0.17 0.12-0.17c0.07-0.07 0.12-0.14 0.19-0.19l0.17-0.17h0.02l0.41-0.36 0.07-0.02 1.51-1.16 1.32-1-0.12 0.12 0.24-0.24 0.22-0.17-0.07 0.05 0.19-0.17-0.17 0.17 0.17-0.22-0.05 0.05 0.14-0.19 0.08-0.1 0.14-0.17-0.1 0.15 0.15-0.22 0.12-0.22-0.1 0.2 0.29-0.65-0.07 0.29 0.14-0.63-0.02 0.19 0.02-0.19c0.05-0.53 0.39-0.98 0.87-1.2 0.48-0.21 1.05-0.14 1.46 0.17 0.43 0.31 0.67 0.82 0.6 1.34l-0.02 0.22c0 0.07-0.03 0.12-0.03 0.22l-0.17 0.6c-0.02 0.09-0.07 0.19-0.09 0.26l-0.29 0.62c-0.05 0.08-0.07 0.15-0.12 0.2l-0.14 0.19-0.15 0.21-0.09 0.15-0.15 0.17 0.05-0.08-0.12 0.2-0.05 0.02-0.14 0.22c-0.05 0.04-0.1 0.12-0.17 0.16l-0.17 0.17-0.07 0.05-0.19 0.17 0.05-0.05-0.17 0.17-0.15 0.12-1.34 0.98-0.05 0.03-1.56 1.05 0.05-0.02-0.43 0.33-0.1 0.03-0.17 0.12 0.22-0.15-0.17 0.15-0.14 0.14 0.05-0.05-0.51 0.56-0.21 0.21 0.12-0.14-0.15 0.19 0.07-0.1-0.14 0.24 0.12-0.24-0.05 0.1c-0.02 0.12-0.09 0.24-0.17 0.34l-0.09 0.12 0.19-0.39-0.05 0.15 0.05-0.12-0.1 0.48c-0.09 0.55-0.64 0.96-1.22 0.91-0.58-0.07-1.03-0.55-1.03-1.15z"/>
  <path transform="matrix(1.3333 0 0 -1.3333 0 1120.8)" d="m365.26 685.7-0.15-0.28c-0.09-0.17-0.17-0.34-0.17-0.53v-0.15 0.17l-0.02-0.19v-0.17l-0.02-0.17c0-0.07 0-0.14 0.02-0.21v-0.15 0.2-0.2 0.03l-0.02-0.17c0-0.07 0-0.14 0.02-0.19v-0.19c0.02-0.08 0.02-0.17 0.05-0.24l0.05-0.17-0.05 0.21 0.02-0.16 0.05-0.17 0.02-0.17c0.03-0.07 0.05-0.14 0.1-0.22l0.14-0.36 0.03-0.04 0.12-0.22 0.09-0.22 0.22-0.33 0.12-0.22c0.05-0.05 0.1-0.09 0.12-0.17l0.19-0.16-0.07 0.07 0.12-0.19c0.05-0.05 0.1-0.12 0.14-0.17l0.53-0.48 0.07-0.07 0.56-0.48 0.04-0.03 1.2-0.91-0.02 0.02 1.18-0.96-0.1 0.08 0.72-0.68h-0.02l0.21-0.21-0.05 0.07 0.2-0.22h0.02l0.22-0.24-0.12 0.12 0.5-0.72-0.1 0.15 0.05-0.1c0.24-0.45 0.7-0.74 1.18-0.74 0.5-0.03 0.98 0.21 1.25 0.65 0.26 0.4 0.28 0.93 0.04 1.39l-0.07 0.09-0.07 0.15-0.53 0.72c-0.02 0.07-0.07 0.12-0.12 0.17l-0.24 0.24h0.03l-0.22 0.19-0.05 0.09-0.24 0.2-0.69 0.67-0.1 0.07-1.2 0.94-0.02 0.02-1.23 0.89h0.05l-0.58 0.45 0.1-0.09-0.53 0.48 0.15-0.15-0.15 0.2-0.07 0.07-0.17 0.19 0.12-0.14-0.14 0.19-0.15 0.21 0.05-0.09-0.12 0.21-0.12 0.2 0.05-0.03-0.19 0.34 0.07-0.15-0.07 0.2 0.05-0.15-0.05 0.15c0 0.07-0.03 0.14-0.05 0.19l-0.07 0.17 0.07-0.24-0.05 0.19 0.05-0.17-0.02 0.17v-0.03 0.2c-0.03 0.07-0.03 0.14-0.03 0.21l-0.05 0.17 0.03-0.22v0.17-0.19l0.02 0.17v0.36l-0.02-0.31 0.05 0.31c0.14 0.55-0.2 1.13-0.72 1.32-0.56 0.21-1.16 0-1.44-0.51z"/>
  <path transform="matrix(1.3333 0 0 -1.3333 0 1120.8)" d="m363.91 690.89h0.1l0.09-0.03-0.43 0.17 0.07-0.05 0.2-0.14c0.14-0.1 0.28-0.14 0.45-0.17h0.07l-0.43 0.17 0.07-0.05-0.12 0.1 0.29-0.29-0.07 0.07 0.05-0.05 0.05-0.07c0.16-0.19 0.4-0.33 0.69-0.33l-0.67 0.33 0.05-0.05-0.17 0.27 0.02-0.05v-0.02l0.05-0.12c0.17-0.36 0.51-0.58 0.89-0.6h0.05l-0.94 0.81 0.03-0.12c0-0.07 0.02-0.12 0.04-0.19l0.05-0.1 0.03-0.04 0.02-0.08 0.02-0.12v0.03l0.05-0.07-0.07 0.19 0.02-0.1 0.05-0.19 0.03-0.05-0.08 0.24 0.05-0.17c0-0.07 0.03-0.16 0.05-0.24l0.02-0.04-0.07 0.38v-0.1c0-0.07 0-0.16 0.03-0.21l0.02-0.12 0.02-0.22v0.12l0.08-0.86v0.07-0.22c0-0.57 0.45-1 1-1 0.58 0 1.04 0.43 1.04 1v0.32l-0.08 0.86-0.02 0.14-0.05 0.22-0.05 0.12 0.05-0.22v0.1c0 0.14-0.05 0.29-0.12 0.43v0.05l0.07-0.29-0.02 0.17c0 0.1-0.05 0.19-0.1 0.29l-0.02 0.05 0.07-0.2-0.02 0.1c-0.03 0.07-0.03 0.14-0.05 0.19l-0.05 0.07v-0.02l-0.05 0.1v0.02l-0.02 0.07-0.02 0.03h0.02l-0.05 0.09 0.05-0.17-0.02 0.1c-0.1 0.46-0.53 0.79-1.01 0.79l-0.05-0.02 0.96-0.58-0.07 0.12-0.03 0.05c-0.04 0.1-0.09 0.19-0.16 0.26l-0.05 0.05c-0.22 0.22-0.51 0.34-0.82 0.31l0.79-0.31-0.04 0.05-0.05 0.05-0.07 0.05-0.29 0.28c-0.07 0.08-0.17 0.12-0.27 0.17l-0.07 0.03c-0.17 0.09-0.33 0.12-0.53 0.09h-0.07l0.48-0.09-0.09 0.04-0.1 0.05-0.1 0.03c-0.14 0.09-0.31 0.12-0.48 0.09h-0.09l-0.1-0.02c-0.45-0.05-0.79-0.43-0.79-0.91 0-0.46 0.34-0.84 0.79-0.89z"/>
  <path transform="matrix(1.3333 0 0 -1.3333 0 1120.8)" d="m366.67 687.98 0.17 0.89v0.03l0.14 1.12v-0.12l0.03 0.12 0.02 0.1v0.05l-0.02-0.1 0.02 0.1 0.05 0.19v0.1c0.02 0.6-0.38 1.1-0.96 1.17-0.58 0.05-1.1-0.36-1.18-0.93-0.09-0.6 0.32-1.11 0.89-1.23h0.03c0.28-0.05 0.6 0.03 0.84 0.22s0.38 0.48 0.4 0.77v0.04l-0.12-0.4 0.05 0.04c0.03 0.08 0.05 0.17 0.07 0.24l0.03 0.1-1.23-0.79v-0.03c0.34-0.04 0.63 0.05 0.89 0.24 0.24 0.2 0.39 0.48 0.41 0.77v0.12l-0.12-0.43 0.02 0.05-1.15-0.58c0.48-0.09 0.96 0.15 1.18 0.58l0.02 0.05-1.15-0.6c0.31-0.03 0.62 0.04 0.89 0.24 0.24 0.19 0.41 0.48 0.43 0.81v0.03l-0.29-0.68 0.07 0.12-0.72-0.36h0.29-0.17 0.12-0.02 0.02c0.44-0.04 0.87 0.2 1.11 0.56 0.21 0.38 0.21 0.84 0 1.22-0.24 0.38-0.67 0.6-1.11 0.55h-0.02 0.02-0.12c-0.07 0-0.19-0.02-0.26-0.05l-0.29-0.07c-0.19-0.09-0.41-0.21-0.53-0.36l-0.09-0.12c-0.19-0.21-0.29-0.5-0.27-0.81v-0.03l0.94 1.18c-0.41-0.07-0.74-0.34-0.89-0.75v-0.04l0.84 0.72c-0.41-0.08-0.74-0.34-0.89-0.72v-0.05c-0.07-0.15-0.07-0.31-0.07-0.46v-0.12l0.91 1.18c-0.48-0.07-0.84-0.43-0.91-0.89v-0.12l0.05 0.19-0.05-0.07c-0.05-0.14-0.07-0.29-0.05-0.46v-0.04l0.92 1.15h-0.03c-0.55-0.1-0.96-0.58-0.91-1.15v-0.05l0.02-0.05v0.26l-0.02-0.12v-0.33-0.05l0.02 0.34-0.02-0.12-0.02-0.15-0.03-1.13-0.05-0.86c-0.02-0.5 0.36-0.91 0.84-0.98 0.48-0.05 0.94 0.28 1.01 0.76z"/>
  <path transform="matrix(1.3333 0 0 -1.3333 0 1120.8)" d="m362.47 673.25h0.03l-0.68 0.45h0.03c0.07-0.12 0.17-0.24 0.29-0.33l0.04-0.03-0.31 0.32 0.05-0.03c0.14-0.24 0.38-0.41 0.65-0.5h0.02l-0.38 0.19 0.05-0.02c0.12-0.1 0.24-0.17 0.38-0.2h0.02v-0.02l-0.36 0.19 0.03-0.02c0.12-0.07 0.26-0.15 0.38-0.19h0.05l-0.41 0.19 0.05-0.03c0.14-0.12 0.34-0.19 0.53-0.21h0.05l-0.15 0.02 0.03-0.02h0.02l0.12-0.03h0.05l-0.15 0.03h0.03l0.14-0.03 0.05-0.02c0.14 0 0.26 0 0.38 0.02l0.1 0.03h-0.05l0.12 0.02-0.26-0.02h0.12 0.26l0.12 0.05c0.07 0 0.15 0.02 0.22 0.04l0.12 0.05-0.05-0.02 0.19 0.09 0.12 0.03 0.77 0.36 0.1 0.07 1.72 1.01 0.08 0.05 0.38 0.26-0.14-0.1 0.26 0.15c0.07 0.05 0.12 0.07 0.19 0.12l0.1 0.05-0.55-0.22 0.09 0.02c0.19 0.03 0.39 0.12 0.55 0.24l0.1 0.05-0.48-0.21 0.07 0.02c0.22 0.05 0.43 0.17 0.6 0.34l0.22 0.19-0.19-0.15 0.07 0.03c0.43 0.29 0.67 0.79 0.6 1.29-0.05 0.51-0.36 0.96-0.84 1.13-0.48 0.19-1.03 0.1-1.42-0.24l-0.07-0.05-0.1-0.09-0.19-0.22 0.36 0.29-0.07-0.05c-0.12-0.05-0.22-0.14-0.31-0.21l-0.1-0.1 0.48 0.29-0.09-0.03c-0.17-0.07-0.34-0.16-0.46-0.28l-0.1-0.08 0.24 0.15-0.26-0.15-0.1-0.09-0.38-0.27 0.12 0.08-1.68-1.11 0.02 0.03-0.72-0.44 0.17 0.08-0.19-0.08-0.1-0.04-0.12-0.05 0.22 0.09-0.1-0.04 0.27 0.04h-0.12c-0.1 0-0.17 0-0.27-0.04l-0.09-0.03-0.1-0.02-0.07-0.03 0.24 0.05h-0.05l-0.14-0.02h-0.03l0.15 0.02-0.05-0.02-0.12-0.03h-0.05l0.15 0.03h-0.05l0.6-0.1-0.05 0.03c-0.24 0.09-0.48 0.12-0.72 0.07l-0.05-0.03 0.75-0.04-0.05 0.02c-0.24 0.1-0.51 0.12-0.75 0.05h-0.02l0.72-0.07-0.05 0.02c-0.24 0.1-0.48 0.12-0.72 0.05h-0.02l0.98-0.22-0.05 0.03c-0.07 0.07-0.14 0.12-0.24 0.16l-0.04 0.03 0.26-0.17-0.02 0.02c-0.27 0.22-0.63 0.32-0.96 0.22h-0.03c-0.48-0.12-0.84-0.55-0.84-1.06 0-0.5 0.36-0.93 0.84-1.05z"/>
  <path transform="matrix(1.3333 0 0 -1.3333 0 1120.8)" d="m359.52 693.86 0.1-0.14-0.2 0.5v-0.12l0.1 0.46v-0.05l-0.05-0.05c-0.07-0.12-0.09-0.28-0.09-0.45l0.02-0.07 0.02 0.36-0.02-0.08 0.55 0.58c-0.45-0.17-0.69-0.65-0.6-1.13l0.05-0.12 0.02-0.17 0.36-0.84 0.03-0.04 0.24-0.53-0.05 0.09 0.31-0.84-0.02 0.05 0.74-2.28-0.02 0.15 0.81-4.13-0.02 0.12 0.31-2.76-0.02 0.09 0.05-1.2v0.12l-0.05-1.2v0.03l-0.07-1.2v0.12l-0.36-2.5v-0.02l-0.27-2.09-0.02-0.19v-0.19c-0.03-0.56 0.29-1.08 0.77-1.35 0.48-0.26 1.05-0.26 1.53 0 0.48 0.27 0.77 0.79 0.77 1.35v0.19-0.19l0.24 2.11-0.02-0.03 0.33 2.5v0.14l0.05 1.23v1.32l-0.1 1.2v0.12l-0.38 2.76-0.02 0.12-1.01 4.08-0.05 0.17-0.91 2.25-0.07 0.12-0.44 0.79-0.04 0.05-0.32 0.48-0.5 0.77v-0.02l-0.1 0.12c-0.09 0.16-0.26 0.31-0.43 0.38h-0.02l0.55-0.58-0.02 0.08c-0.05 0.16-0.17 0.33-0.32 0.45l-0.02 0.03 0.24-0.32-0.02 0.05-0.03 0.05c-0.07 0.1-0.14 0.19-0.24 0.26l-0.05 0.05 0.34-0.67v0.02-0.07 0.19c0.05 0.41-0.19 0.8-0.58 0.94-0.38 0.14-0.81 0.02-1.05-0.31-0.24-0.34-0.22-0.79 0.07-1.11z"/>
  <path transform="matrix(1.3333 0 0 -1.3333 0 1120.8)" d="m348.53 677.47v-0.09l0.26 0.43-0.05-0.03c-0.16-0.09-0.28-0.26-0.28-0.45 0.02-0.19 0.14-0.36 0.31-0.43l0.05-0.03-0.29 0.43v-0.04l0.14 0.36-0.05-0.08c-0.12-0.09-0.16-0.24-0.14-0.36v-0.07l0.02-0.05c0-0.24 0.22-0.43 0.48-0.43 0.24 0 0.44 0.19 0.48 0.43v0.12l-0.16-0.33 0.07 0.05c0.09 0.09 0.14 0.24 0.14 0.36v0.04c0.03 0.2-0.09 0.36-0.24 0.46l-0.05 0.02c-0.21 0.12-0.48 0.08-0.62-0.09-0.17-0.19-0.17-0.46-0.02-0.63 0.12-0.21 0.38-0.26 0.6-0.16l0.04 0.02c0.2 0.1 0.32 0.26 0.32 0.46v0.09c0 0.19-0.1 0.36-0.27 0.46-0.14 0.09-0.33 0.09-0.5 0-0.15-0.1-0.24-0.27-0.24-0.46z"/>
  <path transform="matrix(1.3333 0 0 -1.3333 0 1120.8)" d="m349.63 676.75-0.05 0.07 0.05-0.09-0.02 0.02-0.05-0.81h0.02l-0.21-0.24 0.02 0.02c0.07 0.07 0.15 0.14 0.19 0.24l0.03 0.02v0.03h0.02l-0.21-0.24c0.09 0.09 0.16 0.17 0.21 0.26l0.03 0.03c0.07 0.12 0.12 0.26 0.12 0.4v0.03l-0.12-0.36 0.31 0.55-0.1-0.14 0.24 0.28 0.05 0.1 0.17 0.26-0.12-0.16 0.57 0.64-0.07-0.07 1.63 1.63-0.02-0.04 1.22 1.1v0.02l2.96 2.74v-0.02l1.58 1.44 0.29 0.28-0.1-0.09 0.29 0.21c0.38 0.27 0.6 0.72 0.53 1.2-0.05 0.48-0.34 0.87-0.77 1.06-0.46 0.19-0.94 0.12-1.32-0.17l-0.29-0.21-0.12-0.08-0.29-0.28-1.56-1.49-2.88-2.86v0.03l-1.15-1.16-0.05-0.04-1.56-1.68-0.04-0.05-0.56-0.67c-0.04-0.05-0.09-0.15-0.14-0.22l-0.12-0.29 0.07 0.12-0.21-0.31c-0.03-0.07-0.05-0.1-0.08-0.19l-0.24-0.55c-0.04-0.17-0.07-0.34-0.04-0.53v-0.03c0.02-0.14 0.07-0.28 0.14-0.4v-0.03c0.07-0.09 0.14-0.17 0.22-0.26h0.02l-0.22 0.24 0.05-0.05c0.03-0.1 0.12-0.17 0.19-0.24v-0.02l-0.19 0.24h0.03c0.09-0.2 0.28-0.36 0.48-0.41l0.04-0.03c0.27-0.09 0.53-0.04 0.77 0.1s0.39 0.38 0.43 0.65v0.09c0.03 0.15 0 0.27-0.07 0.41z"/>
  <path transform="matrix(1.3333 0 0 -1.3333 0 1120.8)" d="m362.45 659.35 0.02-0.02h0.03l-0.44 0.26 0.03-0.02c0.12-0.12 0.26-0.19 0.43-0.27h0.02l-0.14 0.08 0.02-0.03 0.12-0.07h0.05l-0.43 0.26v-0.02l-0.36 1.08-0.02-0.02c-0.08-0.65 0.33-1.25 0.98-1.4h0.02l-0.98 1.4v-0.03c-0.05-0.45 0.14-0.91 0.5-1.17l0.24-0.2-0.16 0.15 0.14-0.15-0.05 0.08 0.34-0.44-0.05 0.1 0.31-0.48 0.07-0.07 0.12-0.15-0.12 0.15 0.12-0.17-0.12 0.24 0.05-0.14c0.05-0.08 0.07-0.15 0.1-0.22l0.09-0.17v0.03l0.1-0.15-0.12 0.31 0.02-0.19 0.05-0.14 0.07-0.17-0.04 0.17 0.04-0.22 0.12-0.45-0.02 0.14 0.1-0.67 0.02-0.17 0.07-0.24-0.05 0.17 0.05-0.27v-0.04l0.05-0.27v0.19-0.5 0.14-0.33l-0.02-0.24 0.02 0.14-0.1-0.62 0.1 0.36-0.05-0.15 0.19 0.34-0.04-0.07c-0.51-0.63-0.41-1.54 0.21-2.04 0.63-0.48 1.54-0.39 2.04 0.24l0.05 0.05c0.1 0.12 0.14 0.24 0.22 0.36l0.04 0.16c0.08 0.12 0.1 0.27 0.12 0.39l0.08 0.62v0.46-0.1l0.02 0.29-0.02 0.17-0.03 0.24v-0.03 0.27c0 0.07-0.02 0.14-0.05 0.21l-0.04 0.27 0.02-0.05-0.05 0.24-0.05 0.17-0.07 0.24 0.05-0.17-0.12 0.7-0.02 0.12-0.15 0.45v0.03l-0.05 0.19-0.07 0.17-0.07 0.16 0.07-0.14-0.07 0.17c-0.05 0.12-0.1 0.24-0.14 0.31l-0.1 0.17v0.02l-0.12 0.17 0.1-0.17-0.08 0.15c-0.02 0.09-0.07 0.16-0.14 0.24l-0.1 0.14c-0.04 0.07-0.07 0.12-0.12 0.17l-0.14 0.12 0.07-0.07-0.33 0.43-0.12 0.12-0.22 0.19-0.17 0.19-0.09 0.07-0.2 0.15-0.09 0.07-0.27 0.17 0.6-0.94v0.03c-0.04 0.36-0.24 0.67-0.55 0.88-0.29 0.22-0.67 0.29-1.01 0.2h-0.02c-0.67-0.15-1.08-0.82-0.96-1.49 0.12-0.65 0.77-1.11 1.44-1.01 0.67 0.12 1.15 0.72 1.06 1.42v0.02c-0.05 0.48-0.39 0.89-0.82 1.06-0.46 0.14-0.96 0.04-1.32-0.29l0.43 0.24h-0.05l-0.12-0.05-0.02-0.02 0.14 0.07h-0.02c-0.17-0.07-0.31-0.17-0.43-0.29h-0.03l0.44 0.24h-0.05c-0.46-0.17-0.77-0.62-0.77-1.1 0-0.51 0.31-0.94 0.77-1.11z"/>
  <path transform="matrix(1.3333 0 0 -1.3333 0 1120.8)" d="m365.81 659.09h0.02l0.03-0.03-0.68 0.63v-0.03c0.15-0.28 0.39-0.5 0.7-0.62h0.02l-0.14 0.05h0.02l0.12-0.07h0.05l-0.43 0.26v-0.02l-0.36 1.08v-0.03c-0.1-0.65 0.31-1.25 0.96-1.39h0.02l-0.98 1.37c-0.05-0.48 0.14-0.94 0.53-1.2l0.26-0.19-0.19 0.19 0.12-0.17-0.05 0.07 0.19-0.21h-0.02l0.17-0.2-0.05 0.08 0.31-0.46 0.12-0.14 0.15-0.15-0.22 0.34 0.07-0.19v0.04l0.07-0.16 0.03-0.1 0.09-0.14 0.03-0.05 0.09-0.17-0.16 0.46 0.04-0.22c0-0.1 0.05-0.22 0.1-0.31l0.07-0.17-0.09 0.31 0.02-0.17 0.02-0.09 0.12-0.46-0.02 0.15 0.1-0.68 0.02-0.16 0.07-0.24-0.02 0.07 0.05-0.24-0.03 0.09 0.05-0.26v0.12-0.34l0.02-0.24v0.22l-0.02-0.26v0.02-0.24 0.07l-0.1-0.65 0.08 0.29-0.08-0.17 0.17 0.34-0.05-0.07c-0.43-0.7-0.26-1.56 0.41-2.02 0.67-0.43 1.56-0.26 2.02 0.41l0.05 0.07c0.07 0.12 0.14 0.24 0.16 0.36l0.05 0.17c0.05 0.07 0.05 0.17 0.07 0.26l0.08 0.65 0.02 0.12v0.51 0.24l-0.05 0.24 0.03-0.1-0.03 0.29-0.02 0.12-0.05 0.26v0.12l-0.07 0.24v0.07l-0.1 0.24 0.05-0.16-0.12 0.67-0.02 0.14-0.15 0.46 0.03-0.05-0.05 0.19c-0.03 0.12-0.07 0.22-0.12 0.34l-0.1 0.17 0.12-0.34-0.02 0.17c-0.05 0.17-0.1 0.31-0.19 0.43l-0.1 0.17-0.1 0.14 0.05-0.07-0.09 0.17-0.03 0.02-0.07 0.17c-0.07 0.12-0.17 0.22-0.26 0.34l-0.15 0.12 0.12-0.15-0.33 0.43-0.12 0.15-0.2 0.17-0.19 0.19-0.12 0.07-0.14 0.14-0.12 0.08-0.29 0.16 0.62-0.93c-0.04 0.38-0.24 0.69-0.55 0.91-0.29 0.22-0.65 0.29-1.01 0.19h-0.02c-0.67-0.14-1.08-0.81-0.96-1.46 0.12-0.67 0.77-1.13 1.44-1.03 0.67 0.12 1.15 0.72 1.08 1.41l-0.02 0.03c-0.05 0.48-0.39 0.86-0.82 1.03-0.46 0.17-0.96 0.07-1.32-0.27v-0.02l0.43 0.29-0.05-0.03-0.12-0.04-0.02-0.03 0.14 0.05h-0.02l0.17 0.05h-0.03l-0.16-0.05h-0.03l-0.02-0.02c-0.46-0.17-0.77-0.6-0.77-1.11 0-0.5 0.31-0.93 0.77-1.1z"/>
  <path transform="matrix(1.3333 0 0 -1.3333 0 1120.8)" d="m351.7 660.14 0.38 0.03h-0.1 0.96l0.84 0.05h-0.04 2.49l3.43-0.05h-0.07l1.2-0.07h-0.07l3.36-0.41h-0.1l0.8-0.12h-0.1l0.72-0.19-0.05 0.02 0.77-0.24-0.12 0.05 2.11-0.82-0.21 0.1 0.33-0.19h-0.02l0.33-0.22-0.04 0.05 0.33-0.24-0.09 0.07 0.86-0.67-0.29 0.31 0.1-0.14c0.05-0.08 0.09-0.15 0.14-0.2l0.12-0.09v-0.03l0.15-0.14-0.22 0.29 0.1-0.17 0.09-0.12 0.1-0.14 0.24-0.24-0.36 0.55 0.07-0.19c0.05-0.15 0.14-0.29 0.24-0.41l0.1-0.12-0.17 0.26 0.07-0.14-0.07 0.19 0.17-0.53v0.03l0.09-0.27-0.05 0.19 0.05-0.33 0.05-0.12 0.07-0.27-0.02 0.1 0.07-0.29-0.05 0.19 0.07-0.84v0.12-0.91 0.05l-0.02-0.41c0-0.84 0.65-1.53 1.49-1.56 0.84-0.02 1.53 0.63 1.56 1.47l0.02 0.4v1.11l-0.07 0.81c0 0.08-0.02 0.15-0.05 0.22l-0.05 0.29-0.02 0.12-0.1 0.26 0.05-0.12-0.07 0.34c-0.02 0.05-0.05 0.12-0.07 0.19l-0.1 0.26-0.17 0.51c-0.02 0.05-0.04 0.12-0.07 0.17l-0.07 0.14c-0.05 0.1-0.1 0.17-0.17 0.26l-0.12 0.12 0.24-0.38-0.07 0.17c-0.07 0.19-0.19 0.36-0.34 0.53l-0.09 0.12 0.09-0.15-0.09 0.15 0.07-0.15-0.07 0.15c-0.07 0.09-0.12 0.19-0.22 0.26l-0.14 0.12-0.1 0.12 0.17-0.19-0.1 0.12c-0.07 0.12-0.19 0.24-0.31 0.31l-0.84 0.7-0.14 0.07-0.34 0.24-0.05 0.02-0.33 0.19-0.03 0.03-0.36 0.19c-0.07 0.05-0.14 0.07-0.21 0.1l-2.11 0.79-0.15 0.05-0.74 0.19-0.05 0.02-0.72 0.17-0.12 0.02-0.79 0.15h-0.07l-3.39 0.33-0.14 0.03h-1.25l-3.46-0.1-2.47-0.09-0.84-0.03h0.03l-0.96-0.02h-0.12l-0.39-0.05c-0.67-0.07-1.17-0.7-1.08-1.39 0.07-0.67 0.67-1.18 1.35-1.11z"/>
 </g>
</svg>
