<?xml version="1.0" encoding="UTF-8" standalone="no"?>
<!-- Created with Inkscape (http://www.inkscape.org/) -->

<svg
   version="1.1"
   id="svg1"
   width="300"
   height="300"
   viewBox="0 0 300 299.99999"
   sodipodi:docname="lesson1.pdf"
   inkscape:export-filename="multichoice\multichoice14\multichoice14_option3.svg"
   inkscape:export-xdpi="96"
   inkscape:export-ydpi="96"
   xmlns:inkscape="http://www.inkscape.org/namespaces/inkscape"
   xmlns:sodipodi="http://sodipodi.sourceforge.net/DTD/sodipodi-0.dtd"
   xmlns="http://www.w3.org/2000/svg"
   xmlns:svg="http://www.w3.org/2000/svg">
  <defs
     id="defs1" />
  <sodipodi:namedview
     id="namedview1"
     pagecolor="#ffffff"
     bordercolor="#000000"
     borderopacity="0.25"
     inkscape:showpageshadow="2"
     inkscape:pageopacity="0.0"
     inkscape:pagecheckerboard="0"
     inkscape:deskcolor="#d1d1d1">
    <inkscape:page
       x="0"
       y="0"
       inkscape:label="1"
       id="page1"
       width="300"
       height="300"
       margin="0"
       bleed="0" />
  </sodipodi:namedview>
  <g
     id="g1"
     inkscape:groupmode="layer"
     inkscape:label="1">
    <g
       id="g216"
       transform="matrix(-0.45800909,-11.421038,11.421038,-0.45800909,-1800.6318,6355.5246)">
      <path
         id="path216"
         d="m 392.38,695.11 0.12,-0.09 c 0.26,-0.2 0.6,-0.27 0.91,-0.17 l 0.12,0.02 -0.36,-0.02 1.2,-0.12 h 0.05 l 0.84,-0.05 h 0.04 l 0.32,-0.02 v 0 h 0.5 v 0 h 0.5 -0.02 0.74 0.03 l 1.25,-0.03 h 0.02 0.82 -0.03 l 2.76,-0.09 v 0 l 2.79,-0.08 v 0 l 2.37,-0.02 h 0.03 l 0.6,-0.02 H 408 l 1.7,0.04 c 0.05,0 0.1,0 0.12,0 l 0.12,0.03 c 0.65,0.09 1.08,0.67 0.99,1.29 -0.1,0.65 -0.65,1.08 -1.3,0.99 l -0.12,-0.03 0.15,0.03 -1.71,-0.03 h 0.03 -0.6 0.02 l -2.4,0.03 h 0.02 l -2.76,0.05 v 0 l -2.76,0.09 h -0.04 -0.82 v 0 h -1.25 v 0 h -0.74 -0.03 -0.5 v 0 h -0.5 v 0 h -0.32 0.03 l -0.84,0.03 h 0.02 l -1.2,0.04 0.22,-0.04 -0.12,0.04 c -0.24,0.05 -0.51,0.03 -0.75,-0.09 l -0.14,-0.07 c -0.31,-0.15 -0.53,-0.46 -0.55,-0.8 -0.03,-0.36 0.12,-0.69 0.41,-0.91 z"
         style="fill:#000000;fill-opacity:1;fill-rule:nonzero;stroke:none"
         transform="matrix(1.3333333,0,0,-1.3333333,0,1120.8)" />
    </g>
    <g
       id="g217"
       transform="matrix(-0.45800909,-11.421038,11.421038,-0.45800909,-1806.5906,6347.8632)">
      <path
         id="path217"
         d="m 400.66,696.31 -0.03,0.15 0.03,-0.2 v 0.1 -0.02 0.09 l -0.03,-0.17 v 0 0 0.03 0 0.02 c 0.07,0.24 0.05,0.51 -0.09,0.75 -0.15,0.24 -0.36,0.38 -0.63,0.45 h -0.02 c -0.51,0.1 -1.01,-0.24 -1.13,-0.72 -0.12,-0.53 0.19,-1.03 0.7,-1.17 0.5,-0.12 1,0.16 1.17,0.67 v 0.02 0 0.03 -0.03 0.03 l -0.12,-0.27 v 0 l -0.38,-0.33 h 0.02 c 0.27,0.12 0.43,0.36 0.53,0.64 v 0 0 0 0.03 0.02 l -1.15,-0.72 h 0.02 c 0.51,-0.09 1.01,0.19 1.15,0.7 v 0.02 h 0.03 v 0 l -0.22,-0.38 0.03,0.02 -0.27,-0.21 0.03,0.02 c 0.12,0.07 0.21,0.14 0.28,0.24 l 0.03,0.02 -0.29,-0.24 0.02,0.03 v 0 l 0.05,0.02 v 0 0 l -0.21,-0.09 0.04,0.02 c 0.08,0.02 0.17,0.05 0.24,0.1 v 0 0 l 0.05,0.02 -0.24,-0.1 0.05,0.03 c 0.07,0.02 0.14,0.05 0.22,0.09 h 0.04 l -0.24,-0.07 h 0.05 l -0.41,-0.05 h 0.05 c 0.19,-0.02 0.43,0.05 0.63,0.15 v 0.02 l -0.22,-0.12 0.05,0.03 -0.34,-0.05 h 0.03 c 0.21,0 0.4,0.05 0.6,0.14 h 0.02 l -0.58,-0.12 h 0.05 c 0.19,-0.02 0.39,0.03 0.58,0.12 l 0.02,0.03 -0.57,-0.15 h 0.04 v 0 h 0.05 v 0 h 0.03 v 0 h 0.04 0.05 0.07 0.03 0.05 v 0 h 0.04 -0.16 0.09 l -0.19,0.03 h 0.07 v 0 l 0.03,-0.03 c 0.12,-0.05 0.24,-0.05 0.36,-0.05 h 0.07 l -0.36,0.05 h 0.05 l 0.12,-0.05 0.07,-0.02 -0.12,0.05 0.05,-0.03 -0.27,0.12 0.05,-0.02 c 0.19,-0.12 0.41,-0.19 0.62,-0.19 h 0.08 l -0.87,0.45 v -0.04 c 0.12,-0.15 0.27,-0.27 0.43,-0.34 l 0.08,-0.05 0.09,-0.02 0.05,-0.03 -0.14,0.08 0.09,-0.08 -0.21,0.17 0.04,-0.05 -0.04,0.05 0.04,-0.07 h 0.03 l 0.05,-0.05 v 0 l 0.04,-0.05 v -0.02 l 0.12,-0.1 v 0 l 0.22,-0.21 c 0.1,-0.1 0.22,-0.19 0.36,-0.24 l 0.02,-0.03 c 0.46,-0.16 0.99,-0.02 1.28,0.39 0.28,0.41 0.24,0.96 -0.1,1.32 l -0.02,0.02 0.07,-0.09 -0.19,0.26 c -0.03,0.05 -0.08,0.1 -0.12,0.12 l -0.12,0.12 0.04,-0.02 -0.04,0.04 v 0 l -0.08,0.05 v 0 l -0.04,0.05 -0.03,0.05 -0.07,0.05 c -0.07,0.09 -0.17,0.14 -0.26,0.19 l -0.08,0.05 c -0.04,0.02 -0.12,0.04 -0.16,0.04 l -0.03,0.03 0.1,-0.03 -0.07,0.03 0.4,-0.34 -0.02,0.03 c -0.19,0.28 -0.53,0.43 -0.86,0.43 h -0.08 l 0.6,-0.19 -0.04,0.04 c -0.08,0.05 -0.15,0.1 -0.24,0.12 l -0.08,0.03 -0.09,0.02 -0.07,0.03 0.12,-0.03 h -0.08 c -0.09,0.03 -0.21,0.07 -0.33,0.07 l -0.07,-0.02 0.36,-0.05 -0.05,0.03 v 0 h -0.07 c -0.03,0.02 -0.1,0.04 -0.15,0.04 l -0.09,0.03 c -0.08,0 -0.12,0.02 -0.2,0.02 h -0.04 v 0 h -0.05 -0.03 l -0.07,-0.02 h -0.05 -0.04 v 0 h -0.03 v 0 h -0.05 v 0 h -0.04 c -0.24,-0.03 -0.46,-0.1 -0.63,-0.24 l -0.02,-0.03 0.62,0.24 h -0.05 c -0.24,-0.02 -0.45,-0.09 -0.62,-0.24 l -0.02,-0.02 0.6,0.24 h -0.03 c -0.12,-0.02 -0.24,-0.02 -0.33,-0.07 l -0.08,-0.03 c -0.07,-0.04 -0.16,-0.09 -0.26,-0.16 l -0.02,-0.03 0.57,0.24 h -0.05 c -0.07,0 -0.19,-0.02 -0.28,-0.07 l -0.03,-0.02 c -0.09,-0.03 -0.19,-0.08 -0.29,-0.15 l -0.02,-0.02 0.29,0.17 -0.05,-0.03 c -0.1,-0.05 -0.19,-0.09 -0.29,-0.17 v -0.02 0 l -0.05,-0.02 0.29,0.16 h -0.05 c -0.09,-0.04 -0.19,-0.09 -0.28,-0.16 v -0.03 0 h -0.03 v 0 l -0.02,-0.05 c -0.1,-0.04 -0.15,-0.14 -0.22,-0.24 l -0.02,-0.02 0.21,0.24 -0.02,-0.02 c -0.1,-0.08 -0.17,-0.17 -0.24,-0.27 l -0.02,-0.05 c -0.12,-0.24 -0.15,-0.52 -0.08,-0.79 v 0 0 -0.02 c 0.15,-0.53 0.68,-0.82 1.23,-0.7 0.53,0.15 0.84,0.67 0.72,1.2 -0.12,0.53 -0.65,0.87 -1.18,0.77 h -0.02 c -0.27,-0.05 -0.51,-0.22 -0.67,-0.46 -0.15,-0.24 -0.17,-0.52 -0.1,-0.79 v -0.02 -0.03 h 0.02 v 0 0 l 0.27,0.96 h -0.03 c -0.36,-0.33 -0.4,-0.86 -0.14,-1.27 h 0.02 l -0.14,0.27 0.02,-0.03 -0.02,0.03 0.02,-0.03 v 0 -0.02 c 0.12,-0.46 0.6,-0.77 1.11,-0.67 h 0.02 l -1.1,0.69 v -0.02 0 l 0.02,-0.03 v 0 0 c 0,-0.07 0.03,-0.14 0.07,-0.19 l 0.05,-0.09 v -0.03 l 0.05,-0.09 c 0.05,-0.08 0.1,-0.15 0.17,-0.2 l 0.09,-0.12 c 0.29,-0.24 0.68,-0.28 0.99,-0.12 0.31,0.2 0.48,0.53 0.41,0.89 z"
         style="fill:#000000;fill-opacity:1;fill-rule:nonzero;stroke:none"
         transform="matrix(1.3333333,0,0,-1.3333333,0,1120.8)" />
    </g>
    <g
       id="g218"
       transform="matrix(-0.45800909,-11.421038,11.421038,-0.45800909,-1806.5906,6347.8632)">
      <path
         id="path218"
         d="m 404.21,698.35 -0.24,-0.12 c -0.07,-0.05 -0.1,-0.07 -0.17,-0.12 l -0.26,-0.24 v 0 l -0.46,-0.41 c -0.02,-0.02 -0.05,-0.04 -0.1,-0.07 l -0.48,-0.65 0.08,0.1 -0.05,-0.05 c -0.22,-0.19 -0.29,-0.45 -0.24,-0.72 0.05,-0.24 0.26,-0.45 0.5,-0.53 0.27,-0.07 0.53,-0.02 0.72,0.17 l 0.07,0.07 c 0.05,0.03 0.08,0.05 0.1,0.1 l 0.46,0.65 -0.08,-0.1 0.44,0.43 v 0 l 0.24,0.27 -0.12,-0.1 0.24,0.15 c 0.28,0.19 0.4,0.57 0.21,0.88 -0.17,0.32 -0.53,0.44 -0.86,0.29 z"
         style="fill:#000000;fill-opacity:1;fill-rule:nonzero;stroke:none"
         transform="matrix(1.3333333,0,0,-1.3333333,0,1120.8)" />
    </g>
    <g
       id="g219"
       transform="matrix(-0.45800909,-11.421038,11.421038,-0.45800909,-1806.5906,6347.8632)">
      <path
         id="path219"
         d="m 397.22,698.11 -0.07,-0.09 c -0.09,-0.22 -0.07,-0.46 0.07,-0.63 l 0.8,-0.96 c 0.02,-0.05 0.04,-0.07 0.09,-0.09 l 0.07,-0.08 c 0.29,-0.19 0.65,-0.12 0.87,0.15 0.19,0.26 0.14,0.65 -0.12,0.86 l -0.07,0.03 0.09,-0.08 -0.84,0.92 c -0.07,0.09 -0.17,0.14 -0.29,0.16 l -0.09,0.05 c -0.22,0.05 -0.43,-0.05 -0.51,-0.24 z"
         style="fill:#000000;fill-opacity:1;fill-rule:nonzero;stroke:none"
         transform="matrix(1.3333333,0,0,-1.3333333,0,1120.8)" />
    </g>
  </g>
</svg>
