<?xml version="1.0" encoding="UTF-8" standalone="no"?>
<!-- Created with Inkscape (http://www.inkscape.org/) -->

<svg
   version="1.1"
   id="svg1"
   width="30.99"
   height="22"
   viewBox="0 0 30.99 21.999999"
   sodipodi:docname="lesson1_sentence8_word2.svg"
   inkscape:version="1.4.3 (0d15f75, 2025-12-25)"
   xmlns:inkscape="http://www.inkscape.org/namespaces/inkscape"
   xmlns:sodipodi="http://sodipodi.sourceforge.net/DTD/sodipodi-0.dtd"
   xmlns="http://www.w3.org/2000/svg"
   xmlns:svg="http://www.w3.org/2000/svg">
  <defs
     id="defs1" />
  <sodipodi:namedview
     id="namedview1"
     pagecolor="#ffffff"
     bordercolor="#000000"
     borderopacity="0.25"
     inkscape:showpageshadow="2"
     inkscape:pageopacity="0.0"
     inkscape:pagecheckerboard="0"
     inkscape:deskcolor="#d1d1d1"
     inkscape:zoom="4.4716509"
     inkscape:cx="-1.7890484"
     inkscape:cy="63.846665"
     inkscape:window-width="1920"
     inkscape:window-height="1191"
     inkscape:window-x="-9"
     inkscape:window-y="-9"
     inkscape:window-maximized="1"
     inkscape:current-layer="g1">
    <inkscape:page
       x="9.9521913e-14"
       y="0"
       inkscape:label="1"
       id="page1"
       width="30.990196"
       height="147.21999"
       margin="0"
       bleed="0" />
  </sodipodi:namedview>
  <g
     id="g1"
     inkscape:groupmode="layer"
     inkscape:label="1"
     transform="translate(-519.17332,-103.65336)">
    <g
       id="g201"
       transform="translate(0.67089316,-31.97924)">
      <path
         id="path201"
         d="m 396.07,735.67 v 0.1 l -0.05,-0.17 0.03,0.02 -0.1,-0.16 0.03,0.02 c 0.04,0.07 0.09,0.17 0.12,0.26 v 0.03 0 0 0 0.02 l -0.05,-0.14 v 0.02 0 0.03 c 0.05,0.02 0.05,0.07 0.05,0.12 l 0.02,0.02 v 0 0 l -0.36,-0.48 0.02,0.02 v 0 0 l 0.1,0.05 0.02,0.03 c 0.15,0.12 0.24,0.26 0.27,0.43 l 0.02,0.02 -0.86,-0.55 h 0.02 c 0.39,-0.1 0.79,0.17 0.87,0.55 v 0.03 l -0.29,-0.46 v 0.02 c 0.05,0.03 0.07,0.05 0.09,0.08 l 0.22,0.19 0.02,0.05 0.05,0.04 v 0 l 0.07,0.08 -0.09,-0.08 0.09,0.08 0.08,0.07 0.04,0.05 -0.09,-0.08 0.09,0.08 -0.09,-0.1 0.07,0.05 0.1,0.07 0.07,0.07 -0.17,-0.09 0.1,0.02 0.04,0.05 0.08,0.05 -0.05,-0.03 0.19,0.1 -0.1,-0.05 0.12,0.05 h 0.03 l 0.12,0.05 -0.12,-0.03 0.09,0.03 0.12,0.02 0.1,0.05 -0.24,-0.05 h 0.12 l 0.1,0.02 0.12,0.03 h -0.08 0.1 -0.12 0.12 0.1 0.12 0.02 l 0.1,0.02 h -0.15 l 0.29,-0.02 h 0.02 0.08 -0.15 0.07 c 0.08,-0.03 0.12,-0.03 0.17,-0.03 h 0.07 l -0.36,0.1 0.08,-0.05 c 0.04,-0.02 0.09,-0.05 0.16,-0.07 h 0.05 v 0 l 0.07,-0.02 -0.09,0.02 0.09,-0.02 -0.16,0.07 0.04,-0.03 0.1,-0.04 0.07,-0.05 v 0 l 0.07,-0.03 v 0 l 0.05,-0.02 -0.09,0.05 0.04,-0.05 -0.12,0.12 0.05,-0.05 c 0.03,-0.02 0.07,-0.07 0.1,-0.09 l 0.07,-0.05 h 0.02 l 0.08,-0.05 -0.15,0.1 0.07,-0.05 -0.12,0.12 0.05,-0.05 0.03,-0.05 0.12,-0.14 v 0 l 0.19,-0.24 -0.07,0.09 0.16,-0.24 -0.02,0.03 0.14,-0.27 v 0 l 0.17,-0.26 -0.05,0.07 0.32,-0.67 -0.03,0.1 0.6,-1.88 v 0 l 0.67,-2.06 0.05,-0.1 0.07,-0.19 v 0.05 l 0.32,-0.79 0.04,-0.07 1.08,-2.04 0.05,-0.05 0.29,-0.48 0.02,-0.03 0.32,-0.45 0.04,-0.05 0.34,-0.46 0.02,-0.04 0.8,-0.87 0.02,-0.02 0.22,-0.24 c 0.36,-0.34 0.88,-0.36 1.24,-0.03 0.34,0.34 0.36,0.89 0.03,1.25 l -0.22,0.22 0.03,-0.03 -0.8,0.89 0.05,-0.05 -0.36,0.44 0.03,-0.03 -0.32,0.46 h 0.03 l -0.31,0.48 0.04,-0.1 -1.1,2.04 0.02,-0.07 -0.31,0.79 v 0.05 l -0.09,0.17 0.04,-0.1 -0.69,2.07 v 0 l -0.63,1.87 -0.04,0.07 -0.29,0.67 -0.05,0.07 -0.14,0.27 v 0 l -0.17,0.26 -0.03,0.03 -0.14,0.24 -0.05,0.09 -0.21,0.22 h 0.02 l -0.1,0.12 0.03,-0.03 -0.05,0.05 c -0.02,0.05 -0.05,0.1 -0.1,0.12 l -0.07,0.07 c -0.05,0.03 -0.09,0.08 -0.14,0.1 l -0.05,0.05 0.05,-0.05 -0.07,0.05 0.09,-0.07 -0.05,0.04 c -0.04,0.05 -0.09,0.08 -0.14,0.1 l -0.05,0.05 -0.09,0.05 -0.08,0.02 v 0 l -0.07,0.05 v 0 l -0.05,0.02 0.08,-0.05 -0.05,0.03 c -0.05,0.05 -0.1,0.05 -0.15,0.07 l -0.09,0.05 -0.1,0.02 -0.07,0.03 v 0 h -0.07 l 0.17,-0.05 -0.08,0.02 c -0.12,0.05 -0.24,0.07 -0.36,0.07 h -0.07 l 0.15,-0.02 -0.08,0.02 c -0.04,0.03 -0.09,0.03 -0.16,0.03 h -0.08 0.08 -0.29 c -0.07,0 -0.15,0 -0.22,0 l -0.09,-0.05 0.02,0.02 -0.12,-0.02 h 0.12 -0.12 c -0.05,0 -0.1,0 -0.14,0 l -0.1,-0.02 -0.07,-0.03 -0.12,-0.02 h 0.09 -0.12 c -0.09,-0.03 -0.16,-0.05 -0.24,-0.07 l -0.09,-0.08 0.09,0.05 -0.09,-0.02 -0.12,-0.05 -0.07,-0.07 0.04,0.05 -0.12,-0.08 -0.09,-0.04 -0.19,-0.1 -0.08,-0.07 -0.07,-0.05 0.07,0.05 -0.09,-0.05 c -0.03,-0.02 -0.07,-0.07 -0.12,-0.12 l -0.07,-0.07 0.07,0.07 -0.07,-0.05 -0.08,-0.07 -0.04,-0.07 -0.08,-0.07 -0.04,-0.1 0.07,0.1 -0.07,-0.08 -0.08,-0.09 -0.04,-0.05 v 0 l -0.05,-0.07 0.02,0.05 -0.17,-0.24 v 0 0 c -0.14,-0.17 -0.21,-0.41 -0.16,-0.6 v -0.03 c 0.09,-0.38 0.48,-0.65 0.86,-0.55 0.38,0.07 0.65,0.46 0.58,0.84 -0.08,0.38 -0.48,0.65 -0.87,0.58 h -0.02 c -0.17,-0.05 -0.34,-0.17 -0.43,-0.34 -0.12,-0.14 -0.17,-0.34 -0.12,-0.53 v -0.02 l 0.14,0.6 -0.02,-0.03 -0.05,-0.09 h -0.03 v 0 -0.03 c -0.09,-0.14 -0.12,-0.33 -0.09,-0.5 h 0.02 v 0 -0.02 c 0.03,-0.05 0.03,-0.1 0.05,-0.12 v -0.03 0 l 0.02,-0.02 -0.04,0.14 v -0.02 0 0 0 -0.03 c 0.02,-0.09 0.07,-0.19 0.12,-0.26 v -0.02 l -0.08,0.16 v -0.02 c 0.08,-0.19 0.24,-0.34 0.44,-0.41 0.19,-0.05 0.4,0 0.55,0.12 l 0.09,0.05 c 0.1,0.07 0.15,0.19 0.17,0.31 z"
         style="fill:#000000;fill-opacity:1;fill-rule:nonzero;stroke:none"
         transform="matrix(1.3333333,0,0,-1.3333333,0,1120.8)" />
    </g>
    <g
       id="g202"
       transform="translate(0.67089316,-31.97924)">
      <path
         id="path202"
         d="m 394.99,735.34 0.22,-0.27 v 0 l 0.21,-0.24 -0.04,0.05 0.19,-0.22 -0.05,0.08 0.17,-0.24 -0.03,0.02 0.39,-0.65 -0.07,0.15 0.26,-0.63 -0.02,0.05 0.24,-0.65 -0.05,0.1 0.45,-1.71 -0.02,0.05 0.17,-0.79 0.02,-0.1 0.51,-1.68 c 0.04,-0.07 0.04,-0.12 0.09,-0.19 l 0.12,-0.24 v 0.05 l 0.1,-0.24 c 0.02,-0.05 0.02,-0.07 0.05,-0.12 l 0.16,-0.24 c 0,-0.05 0.05,-0.07 0.08,-0.12 l 0.16,-0.22 -0.02,0.03 0.19,-0.24 v -0.03 l 0.19,-0.21 0.03,-0.03 0.17,-0.21 c 0.02,-0.03 0.04,-0.05 0.09,-0.1 l 0.22,-0.19 v 0 l 0.21,-0.19 0.05,-0.05 0.6,-0.48 c 0.03,-0.05 0.07,-0.07 0.12,-0.07 l 0.22,-0.15 h -0.03 l 0.24,-0.14 c 0.05,-0.05 0.1,-0.05 0.15,-0.07 l 0.26,-0.12 -0.09,0.02 0.24,-0.12 0.09,-0.02 0.27,-0.12 c 0.04,-0.03 0.07,-0.05 0.12,-0.05 l 0.26,-0.1 -0.05,0.03 0.29,-0.12 -0.02,0.02 0.26,-0.12 c 0.05,0 0.1,-0.02 0.14,-0.02 l 0.29,-0.07 v 0 l 0.29,-0.08 0.07,-0.02 0.82,-0.12 0.05,-0.02 0.31,-0.03 c 0.62,-0.07 1.17,0.36 1.22,0.99 0.07,0.62 -0.36,1.17 -0.98,1.22 l -0.31,0.05 h 0.07 l -0.82,0.12 h 0.07 l -0.28,0.05 v 0 l -0.27,0.07 0.12,-0.05 -0.24,0.1 -0.05,0.02 -0.28,0.1 h -0.03 l -0.26,0.09 0.12,-0.05 -0.27,0.12 0.08,-0.04 -0.24,0.14 -0.08,0.05 -0.26,0.12 0.14,-0.1 -0.24,0.17 h -0.02 l -0.22,0.12 0.12,-0.07 -0.6,0.48 0.05,-0.05 -0.21,0.19 v 0 l -0.22,0.22 0.1,-0.1 -0.2,0.19 0.05,-0.02 -0.19,0.19 0.02,-0.02 -0.16,0.24 -0.03,0.02 -0.19,0.24 0.1,-0.12 -0.15,0.24 0.03,-0.12 -0.1,0.24 -0.02,0.05 -0.12,0.26 0.07,-0.19 -0.55,1.68 0.04,-0.07 -0.19,0.77 v 0.02 l -0.45,1.71 c -0.03,0.04 -0.03,0.09 -0.05,0.12 l -0.24,0.62 -0.03,0.05 -0.26,0.62 c -0.02,0.05 -0.05,0.1 -0.1,0.17 l -0.43,0.65 -0.05,0.07 -0.21,0.24 -0.05,0.05 -0.22,0.21 -0.04,0.05 -0.22,0.19 c -0.07,0.08 -0.14,0.12 -0.22,0.15 l -0.28,0.17 c -0.41,0.19 -0.89,0.07 -1.16,-0.29 -0.24,-0.34 -0.24,-0.84 0.05,-1.15 z"
         style="fill:#000000;fill-opacity:1;fill-rule:nonzero;stroke:none"
         transform="matrix(1.3333333,0,0,-1.3333333,0,1120.8)" />
    </g>
    <g
       id="g203"
       transform="translate(0.67089316,-31.97924)">
      <path
         id="path203"
         d="m 398.71,735.77 c 0,-0.31 -0.26,-0.58 -0.6,-0.58 -0.31,0 -0.57,0.27 -0.57,0.58 0,0.31 0.26,0.6 0.57,0.6 0.34,0 0.6,-0.29 0.6,-0.6 z"
         style="fill:#000000;fill-opacity:1;fill-rule:evenodd;stroke:none"
         transform="matrix(1.3333333,0,0,-1.3333333,0,1120.8)" />
    </g>
    <g
       id="g204"
       transform="translate(0.67089316,-31.97924)">
      <path
         id="path204"
         d="m 398.09,728.02 v -0.03 0 0 l -0.03,-0.05 v -0.02 l 0.27,0.48 -0.03,-0.02 c -0.12,-0.1 -0.21,-0.27 -0.24,-0.44 v -0.02 l 0.24,0.43 h -0.02 c -0.05,-0.05 -0.1,-0.12 -0.14,-0.19 l -0.03,-0.05 0.7,0.36 h -0.03 c -0.28,0.05 -0.55,-0.12 -0.69,-0.36 l -0.05,-0.07 0.07,0.1 -0.09,-0.1 -0.03,-0.07 -0.65,-1.13 v -0.02 l -0.24,-0.46 h -0.02 l -0.31,-0.6 c -0.03,-0.07 -0.07,-0.14 -0.07,-0.22 l -0.03,-0.07 c -0.05,-0.29 0.03,-0.57 0.24,-0.74 0.22,-0.22 0.51,-0.27 0.79,-0.17 0.27,0.07 0.46,0.31 0.53,0.6 v 0.07 l -0.07,-0.19 0.31,0.65 v 0 l 0.22,0.45 -0.03,-0.02 0.58,1.2 -0.02,-0.07 0.04,0.12 0.05,0.05 0.03,0.07 -0.56,-0.41 h 0.03 c 0.24,0.05 0.45,0.19 0.55,0.43 l 0.02,0.03 -0.12,-0.17 0.03,0.02 c 0.12,0.15 0.17,0.34 0.14,0.53 v 0.02 l -0.14,-0.55 v 0.03 c 0.12,0.14 0.17,0.31 0.17,0.5 v 0.02 0.05 0 0 l -0.03,0.03 c -0.05,0.33 -0.33,0.6 -0.67,0.6 -0.34,0 -0.62,-0.27 -0.67,-0.6 z"
         style="fill:#000000;fill-opacity:1;fill-rule:nonzero;stroke:none"
         transform="matrix(1.3333333,0,0,-1.3333333,0,1120.8)" />
    </g>
    <g
       id="g205"
       transform="translate(0.67089316,-31.97924)">
      <path
         id="path205"
         d="m 399.74,726.79 -0.14,-0.17 v -0.02 l -0.07,-0.07 c -0.03,-0.05 -0.05,-0.1 -0.07,-0.12 l -0.05,-0.12 -0.03,-0.05 -0.12,-0.34 -0.02,-0.04 -0.02,-0.12 0.02,0.09 -0.05,-0.12 v 0.03 l -0.14,-0.29 0.07,0.12 -0.05,-0.07 c -0.24,-0.34 -0.19,-0.82 0.15,-1.06 0.33,-0.26 0.81,-0.19 1.08,0.14 l 0.04,0.05 c 0.03,0.05 0.05,0.1 0.08,0.12 l 0.14,0.31 0.02,0.05 0.05,0.12 0.03,0.1 0.02,0.12 -0.02,-0.1 0.12,0.36 v -0.02 l 0.04,0.12 -0.04,-0.12 0.04,0.12 0.05,0.07 0.1,0.19 c 0.14,0.34 0.02,0.75 -0.29,0.94 -0.31,0.17 -0.74,0.09 -0.94,-0.22 z"
         style="fill:#000000;fill-opacity:1;fill-rule:nonzero;stroke:none"
         transform="matrix(1.3333333,0,0,-1.3333333,0,1120.8)" />
    </g>
    <g
       id="g206"
       transform="translate(0.67089316,-31.97924)">
      <path
         id="path206"
         d="m 396.38,723.77 h 0.2 -0.05 0.21 l 0.05,-0.03 1.03,0.03 h -0.07 l 0.7,-0.05 h 0.02 l 1.87,-0.05 v 0 h 0.12 c 0.34,-0.02 0.65,0.17 0.8,0.46 0.16,0.26 0.16,0.6 0,0.89 -0.15,0.28 -0.46,0.45 -0.8,0.45 h -0.12 v 0 l -1.87,-0.05 h 0.03 l -0.7,-0.02 h -0.1 l -1,-0.12 h 0.04 -0.21 l -0.07,-0.02 -0.2,-0.03 c -0.38,-0.07 -0.64,-0.41 -0.62,-0.79 0.02,-0.38 0.36,-0.67 0.74,-0.67 z"
         style="fill:#000000;fill-opacity:1;fill-rule:nonzero;stroke:none"
         transform="matrix(1.3333333,0,0,-1.3333333,0,1120.8)" />
    </g>
    <g
       id="g207"
       transform="translate(0.67089316,-31.97924)">
      <path
         id="path207"
         d="m 402.58,736.3 -0.03,-0.17 c -0.05,-0.22 0,-0.48 0.15,-0.67 l 0.19,-0.27 0.05,-0.07 0.12,-0.12 -0.05,0.07 0.33,-0.45 0.08,-0.1 0.12,-0.12 -0.08,0.07 0.08,-0.09 0.02,-0.03 0.1,-0.12 -0.08,0.1 0.22,-0.34 h 0.02 l 0.44,-0.65 -0.08,0.15 0.05,-0.15 c 0.15,-0.28 0.41,-0.5 0.75,-0.52 0.31,-0.03 0.62,0.09 0.81,0.36 0.19,0.26 0.22,0.6 0.1,0.91 l -0.07,0.14 c -0.03,0.05 -0.05,0.1 -0.08,0.15 l -0.45,0.62 h 0.02 l -0.21,0.31 c -0.03,0.05 -0.08,0.07 -0.08,0.1 l -0.12,0.12 v 0 l -0.07,0.07 -0.05,0.07 -0.12,0.12 0.08,-0.09 -0.36,0.43 c -0.03,0.05 -0.05,0.07 -0.08,0.12 l -0.12,0.09 0.08,-0.09 -0.2,0.24 -0.07,0.07 -0.09,0.12 c -0.2,0.22 -0.51,0.29 -0.77,0.19 -0.29,-0.07 -0.48,-0.31 -0.55,-0.57 z"
         style="fill:#000000;fill-opacity:1;fill-rule:nonzero;stroke:none"
         transform="matrix(1.3333333,0,0,-1.3333333,0,1120.8)" />
    </g>
    <g
       id="g208"
       transform="translate(0.67089316,-31.97924)">
      <path
         id="path208"
         d="m 405.79,736.63 v -0.17 c 0,-0.12 0.03,-0.24 0.1,-0.33 l 0.41,-0.65 v -0.05 l 0.14,-0.19 -0.02,0.05 0.33,-0.55 v 0 l 0.6,-0.99 v -0.02 l 0.07,-0.1 c 0.17,-0.24 0.44,-0.38 0.72,-0.36 0.27,0 0.53,0.19 0.65,0.43 0.12,0.27 0.1,0.56 -0.07,0.8 l -0.05,0.09 v -0.02 l -0.6,0.98 h -0.02 l -0.34,0.53 -0.05,0.07 -0.16,0.19 0.02,-0.02 -0.5,0.6 0.12,-0.17 -0.08,0.15 c -0.12,0.31 -0.43,0.48 -0.74,0.4 -0.34,-0.04 -0.55,-0.33 -0.53,-0.67 z"
         style="fill:#000000;fill-opacity:1;fill-rule:nonzero;stroke:none"
         transform="matrix(1.3333333,0,0,-1.3333333,0,1120.8)" />
    </g>
  </g>
</svg>
