<?xml version="1.0" encoding="UTF-8" standalone="no"?>
<!-- Created with Inkscape (http://www.inkscape.org/) -->

<svg
   version="1.1"
   id="svg1"
   width="31.264999"
   height="10"
   viewBox="0 0 31.264999 9.9999992"
   sodipodi:docname="lesson1_sentence7_word3.svg"
   inkscape:version="1.4.3 (0d15f75, 2025-12-25)"
   xmlns:inkscape="http://www.inkscape.org/namespaces/inkscape"
   xmlns:sodipodi="http://sodipodi.sourceforge.net/DTD/sodipodi-0.dtd"
   xmlns="http://www.w3.org/2000/svg"
   xmlns:svg="http://www.w3.org/2000/svg">
  <defs
     id="defs1" />
  <sodipodi:namedview
     id="namedview1"
     pagecolor="#ffffff"
     bordercolor="#000000"
     borderopacity="0.25"
     inkscape:showpageshadow="2"
     inkscape:pageopacity="0.0"
     inkscape:pagecheckerboard="0"
     inkscape:deskcolor="#d1d1d1"
     inkscape:zoom="6.0418173"
     inkscape:cx="-21.351192"
     inkscape:cy="67.281081"
     inkscape:window-width="1920"
     inkscape:window-height="1191"
     inkscape:window-x="-9"
     inkscape:window-y="-9"
     inkscape:window-maximized="1"
     inkscape:current-layer="g1">
    <inkscape:page
       x="1.6954351e-07"
       y="4.1008548e-06"
       inkscape:label="1"
       id="page1"
       width="31.264616"
       height="108.95999"
       margin="0"
       bleed="0" />
  </sodipodi:namedview>
  <g
     id="g1"
     inkscape:groupmode="layer"
     inkscape:label="1"
     transform="translate(-421.58682,-103.01336)">
    <g
       id="g267"
       transform="translate(0.33102623,-99.473382)">
      <path
         id="path267"
         d="m 319.63,685.85 1.3,-0.19 h 0.12 l 2.18,-0.12 h 0.03 0.79 0.02 l 3.39,0.07 h 0.02 l 1.99,0.12 h 0.03 l 1.96,0.12 h -0.07 0.27 l -0.2,0.02 0.15,-0.02 c 0.07,-0.03 0.12,-0.03 0.19,-0.03 h 0.12 v 0 h 0.17 c 0.07,0 0.14,0 0.19,0.03 l 0.14,0.02 -0.02,-0.02 0.14,0.05 -0.09,-0.03 0.31,0.03 h -0.14 l 0.62,-0.03 h 0.02 l 1.3,-0.05 c 0.31,-0.02 0.62,0.1 0.84,0.34 l 0.05,0.02 c 0.33,0.36 0.41,0.92 0.14,1.35 -0.26,0.41 -0.79,0.62 -1.27,0.48 -0.48,-0.12 -0.79,-0.55 -0.79,-1.08 v 0 c 0,-0.63 0.48,-1.11 1.1,-1.11 0.63,0 1.11,0.48 1.11,1.11 v 0 c 0,0.48 -0.27,0.89 -0.7,1.05 -0.41,0.17 -0.89,0.08 -1.2,-0.26 l -0.02,-0.02 0.84,0.33 -1.3,0.05 h -0.02 l -0.63,0.02 c -0.05,0 -0.09,0 -0.14,0 l -0.31,-0.02 -0.1,-0.02 -0.14,-0.03 -0.05,-0.02 h -0.12 0.24 -0.17 v 0 h -0.12 0.17 l -0.15,0.02 c -0.04,0 -0.12,0.03 -0.16,0.03 l -0.27,-0.03 h -0.09 l -1.97,-0.17 v 0 l -1.97,-0.16 h 0.02 l -3.36,-0.12 h 0.03 -0.79 0.02 -2.21 0.05 l -1.3,0.04 c -0.45,0.03 -0.86,-0.33 -0.91,-0.79 -0.05,-0.48 0.27,-0.89 0.72,-0.98 z"
         style="fill:#000000;fill-opacity:1;fill-rule:nonzero;stroke:none"
         transform="matrix(1.3333333,0,0,-1.3333333,0,1120.8)" />
    </g>
    <g
       id="g268"
       transform="translate(0.33102623,-99.473382)">
      <path
         id="path268"
         d="m 318.79,686.14 0.03,-0.08 c 0.02,-0.14 0.09,-0.26 0.19,-0.36 l 0.07,-0.09 -0.17,0.24 0.05,-0.05 c 0,-0.07 0.05,-0.1 0.07,-0.14 l 0.05,-0.15 0.07,-0.07 0.05,-0.07 0.07,-0.07 0.17,-0.2 -0.07,0.1 0.26,-0.34 h -0.02 l 0.19,-0.24 0.02,-0.04 0.17,-0.2 0.05,-0.04 0.22,-0.22 v 0 l 0.19,-0.22 0.05,-0.04 0.21,-0.2 0.05,-0.04 0.24,-0.2 v 0 l 0.24,-0.16 0.05,-0.05 0.24,-0.15 v 0 l 0.24,-0.16 c 0.02,-0.03 0.05,-0.05 0.09,-0.05 l 0.7,-0.34 0.07,-0.05 1.18,-0.45 h 0.07 l 0.31,-0.1 0.1,-0.02 0.31,-0.07 -0.07,0.02 0.29,-0.1 c 0.07,0 0.14,-0.02 0.21,-0.04 l 0.91,-0.05 h 0.05 l 0.58,-0.03 h 0.07 l 0.58,0.03 h 0.12 l 0.55,0.09 v 0 l 0.57,0.08 0.1,0.02 1.18,0.29 v 0 l 0.5,0.14 c 0.05,0.03 0.1,0.03 0.12,0.05 l 0.5,0.22 h 0.05 l 0.48,0.24 0.05,0.04 1.08,0.58 c 0.05,0.02 0.1,0.05 0.12,0.07 l 0.65,0.48 v 0 l 0.17,0.12 v 0 l 0.14,0.12 -0.07,-0.05 0.19,0.12 0.05,0.03 0.31,0.24 -0.17,-0.1 0.12,0.05 0.1,0.05 0.09,0.05 v 0 l 0.1,0.07 v 0 l 0.12,0.05 c 0.05,0.04 0.07,0.07 0.12,0.09 l 0.24,0.19 c 0.05,0.03 0.1,0.08 0.14,0.15 l 0.08,0.05 c 0.36,0.45 0.31,1.12 -0.15,1.51 -0.45,0.38 -1.13,0.33 -1.51,-0.12 l -0.05,-0.07 0.15,0.16 -0.22,-0.21 0.1,0.09 -0.1,-0.07 v 0 l -0.1,-0.05 v 0 l -0.09,-0.07 0.07,0.05 -0.12,-0.07 c -0.05,-0.03 -0.12,-0.05 -0.14,-0.07 l -0.34,-0.24 h 0.02 l -0.16,-0.12 -0.08,-0.05 -0.14,-0.12 v 0 l -0.17,-0.12 h 0.03 l -0.63,-0.48 0.12,0.09 -1.05,-0.6 h 0.02 l -0.48,-0.24 0.05,0.03 -0.48,-0.22 0.12,0.05 -0.53,-0.17 0.05,0.03 -1.15,-0.32 h 0.12 l -0.6,-0.09 v 0 l -0.58,-0.1 0.12,0.03 -0.6,-0.05 h 0.05 l -0.58,-0.03 h 0.07 l -0.91,0.08 0.22,-0.05 -0.34,0.09 -0.07,0.03 -0.34,0.05 0.1,-0.03 -0.31,0.1 0.07,-0.03 -1.2,0.44 0.07,-0.03 -0.67,0.34 0.1,-0.07 -0.22,0.16 v 0 l -0.24,0.15 0.07,-0.05 -0.24,0.17 v 0 l -0.24,0.19 0.07,-0.05 -0.24,0.22 0.05,-0.05 -0.21,0.22 v 0 l -0.2,0.19 0.03,-0.03 -0.17,0.2 0.05,-0.05 -0.19,0.24 -0.03,0.02 -0.24,0.34 -0.07,0.09 -0.19,0.15 0.02,-0.03 -0.05,0.08 0.1,-0.12 -0.07,0.12 0.05,-0.12 -0.03,0.07 c -0.02,0.07 -0.09,0.14 -0.14,0.21 l -0.1,0.08 0.22,-0.32 -0.05,0.08 c -0.14,0.48 -0.62,0.72 -1.08,0.6 -0.48,-0.12 -0.77,-0.6 -0.65,-1.08 z"
         style="fill:#000000;fill-opacity:1;fill-rule:nonzero;stroke:none"
         transform="matrix(1.3333333,0,0,-1.3333333,0,1120.8)" />
    </g>
    <g
       id="g269"
       transform="translate(0.33102623,-99.473382)">
      <path
         id="path269"
         d="m 332.74,686.45 0.02,-0.36 v -0.07 l 0.02,-0.2 v 0 l 0.03,-0.16 v 0 l 0.02,-0.2 0.03,-0.12 0.04,-0.16 0.03,-0.05 0.05,-0.15 -0.03,0.03 0.05,-0.17 0.02,-0.07 0.12,-0.36 c 0.03,-0.05 0.08,-0.12 0.1,-0.19 l 0.12,-0.15 v 0 l 0.1,-0.14 0.04,-0.07 0.1,-0.12 v 0 l 0.31,-0.36 v 0 l 0.31,-0.36 -0.14,0.21 0.02,-0.05 c 0.03,-0.09 0.08,-0.16 0.15,-0.24 l 0.02,-0.02 v 0 l 0.03,-0.02 c 0.14,-0.2 0.4,-0.32 0.67,-0.32 v 0 l -0.65,0.32 0.02,-0.05 c 0.08,-0.07 0.15,-0.12 0.22,-0.19 l 0.05,-0.03 -0.22,0.19 0.03,-0.02 -0.22,0.58 v -0.05 c 0,-0.24 0.1,-0.46 0.26,-0.63 0.17,-0.14 0.39,-0.24 0.63,-0.24 h 0.05 l -0.46,0.12 0.07,-0.04 -0.43,0.76 v -0.02 c 0,-0.24 0.1,-0.46 0.24,-0.62 0.17,-0.17 0.41,-0.27 0.62,-0.27 h 0.05 l -0.43,0.12 0.05,-0.02 v 0 l 0.05,-0.03 c 0.14,-0.09 0.28,-0.12 0.43,-0.12 h 0.07 v 0 h 0.05 v 0 h 0.05 v 0 h 0.02 v 0 h 0.05 v 0 h 0.02 v 0 h 0.03 v 0 h 0.04 v 0 h 0.03 c 0.26,0 0.5,0.12 0.67,0.32 l 0.02,0.02 -0.64,-0.31 h 0.02 c 0.26,0 0.5,0.12 0.7,0.31 v 0.02 0 l 0.02,0.03 -0.67,-0.31 h 0.07 c 0.24,0 0.48,0.12 0.65,0.31 l 0.05,0.05 -0.7,-0.32 h 0.05 c 0.17,0 0.31,0.03 0.43,0.12 l 0.05,0.03 c 0.09,0.05 0.17,0.12 0.24,0.19 l 0.02,0.02 c 0.15,0.15 0.22,0.36 0.22,0.56 v 0.04 l -0.43,-0.76 0.02,0.04 -0.43,-0.12 h 0.02 c 0.27,0 0.51,0.1 0.67,0.29 l 0.03,0.03 c 0.07,0.07 0.12,0.16 0.14,0.24 l 0.03,0.07 -0.15,-0.24 0.03,0.05 -0.68,-0.32 h 0.03 c 0.36,0 0.67,0.2 0.81,0.51 l 0.03,0.07 c 0.05,0.12 0.07,0.22 0.07,0.34 v 0.04 l -0.19,-0.57 v 0.02 0 l 0.05,0.03 c 0.12,0.16 0.19,0.36 0.19,0.57 v 0.07 l -0.19,-0.57 0.02,0.02 v 0 0.03 c 0.14,0.16 0.22,0.36 0.22,0.57 v 0.07 0 0.03 0 0.02 l -0.05,-0.33 v 0.04 c 0.07,0.12 0.07,0.24 0.07,0.36 v 0.12 c 0,0.03 0,0.08 0,0.12 l -0.02,0.15 0.02,-0.15 v 0.12 c 0,0.05 0,0.12 -0.02,0.17 v 0.12 -0.02 l -0.03,0.17 c -0.02,0.04 -0.02,0.07 -0.02,0.12 l -0.05,0.16 0.02,-0.14 -0.02,0.14 c 0,0.08 -0.02,0.15 -0.05,0.2 l -0.05,0.12 0.03,-0.05 -0.05,0.14 -0.02,0.07 -0.05,0.12 v 0 l -0.05,0.12 c -0.02,0.05 -0.02,0.1 -0.07,0.15 l -0.07,0.12 v 0 l -0.05,0.12 h -0.03 l -0.14,0.24 c -0.05,0.07 -0.1,0.12 -0.14,0.19 l -0.17,0.17 0.19,-0.24 -0.05,0.09 c -0.17,0.32 -0.5,0.51 -0.84,0.51 -0.36,0.02 -0.69,-0.17 -0.86,-0.48 -0.19,-0.31 -0.17,-0.7 0.02,-0.99 l 0.05,-0.09 c 0.07,-0.12 0.17,-0.19 0.26,-0.27 l 0.2,-0.14 -0.24,0.26 0.14,-0.24 v -0.02 l 0.1,-0.12 v 0 l 0.07,-0.1 -0.07,0.12 0.07,-0.12 v 0 l 0.05,-0.12 -0.05,0.08 0.07,-0.17 0.02,-0.05 0.08,-0.12 -0.1,0.19 0.05,-0.14 c 0,-0.05 0.02,-0.1 0.05,-0.15 l 0.02,-0.14 -0.02,0.14 0.02,-0.14 0.02,-0.05 0.03,-0.12 -0.03,0.19 v -0.12 c 0,-0.04 0.03,-0.09 0.03,-0.14 l 0.02,-0.14 -0.02,0.16 v -0.12 l 0.07,0.34 -0.02,-0.07 c -0.05,-0.1 -0.08,-0.22 -0.08,-0.34 v -0.02 0 -0.03 0 -0.07 l 0.22,0.58 -0.02,-0.03 v 0 l -0.03,-0.04 c -0.14,-0.15 -0.21,-0.36 -0.21,-0.56 v -0.07 l 0.21,0.58 -0.02,-0.03 v 0 l -0.05,-0.04 c -0.12,-0.17 -0.19,-0.36 -0.19,-0.56 v -0.04 l 0.07,0.36 -0.02,-0.08 0.79,0.56 h -0.03 c -0.26,0 -0.5,-0.12 -0.64,-0.32 l -0.05,-0.04 c -0.05,-0.05 -0.1,-0.12 -0.12,-0.22 l -0.05,-0.07 0.17,0.24 -0.05,-0.03 0.67,0.32 h -0.02 c -0.17,0 -0.31,-0.05 -0.43,-0.12 l -0.05,-0.05 c -0.29,-0.15 -0.43,-0.43 -0.43,-0.75 v -0.04 l 0.19,0.57 -0.03,-0.02 0.22,0.19 -0.02,-0.02 0.43,0.12 h -0.05 c -0.24,0 -0.48,-0.12 -0.65,-0.32 l -0.02,-0.04 0.67,0.31 h -0.07 c -0.24,0 -0.48,-0.12 -0.65,-0.31 l -0.02,-0.03 v 0 l -0.03,-0.02 0.65,0.31 h -0.02 c -0.27,0 -0.53,-0.12 -0.7,-0.31 v -0.03 l 0.65,0.32 h -0.03 v 0 h -0.04 v 0 h -0.03 v 0 h -0.02 v 0 h -0.05 v 0 h -0.02 v 0 h -0.05 v 0 h -0.05 v 0 h -0.07 l 0.45,-0.12 -0.04,0.02 v 0 l -0.05,0.02 c -0.15,0.08 -0.29,0.12 -0.46,0.12 h -0.05 l 0.87,-0.86 v 0.02 c 0,0.32 -0.17,0.6 -0.41,0.75 l -0.07,0.05 c -0.12,0.07 -0.29,0.12 -0.43,0.12 h -0.05 l 0.89,-0.89 v 0.05 c -0.03,0.19 -0.1,0.4 -0.22,0.55 l -0.02,0.02 c -0.08,0.07 -0.15,0.15 -0.24,0.19 l -0.05,0.03 0.21,-0.19 -0.02,0.04 c -0.14,0.2 -0.41,0.32 -0.67,0.29 v 0 l 0.65,-0.29 -0.03,0.03 v 0 l -0.02,0.02 0.14,-0.21 -0.02,0.04 c -0.05,0.1 -0.07,0.17 -0.15,0.24 l -0.28,0.36 v 0 l -0.34,0.36 v 0 l -0.07,0.12 0.05,-0.09 -0.1,0.17 v 0 l -0.12,0.14 0.1,-0.19 -0.12,0.36 0.02,-0.05 -0.07,0.17 v 0.05 l -0.05,0.14 v -0.02 l -0.05,0.16 0.03,-0.12 -0.03,0.2 v 0 l -0.02,0.16 v 0 l -0.03,0.2 v -0.05 l -0.02,0.36 c -0.07,0.45 -0.46,0.79 -0.91,0.77 -0.46,-0.05 -0.79,-0.44 -0.79,-0.89 z"
         style="fill:#000000;fill-opacity:1;fill-rule:nonzero;stroke:none"
         transform="matrix(1.3333333,0,0,-1.3333333,0,1120.8)" />
    </g>
  </g>
</svg>
