<?xml version="1.0" encoding="UTF-8" standalone="no"?>
<!-- Created with Inkscape (http://www.inkscape.org/) -->

<svg
   version="1.1"
   id="svg1"
   width="31.200001"
   height="65"
   viewBox="0 0 31.200001 64.999995"
   sodipodi:docname="lesson1_sentence7_word1.svg"
   inkscape:version="1.4.3 (0d15f75, 2025-12-25)"
   xmlns:inkscape="http://www.inkscape.org/namespaces/inkscape"
   xmlns:sodipodi="http://sodipodi.sourceforge.net/DTD/sodipodi-0.dtd"
   xmlns="http://www.w3.org/2000/svg"
   xmlns:svg="http://www.w3.org/2000/svg">
  <defs
     id="defs1" />
  <sodipodi:namedview
     id="namedview1"
     pagecolor="#ffffff"
     bordercolor="#000000"
     borderopacity="0.25"
     inkscape:showpageshadow="2"
     inkscape:pageopacity="0.0"
     inkscape:pagecheckerboard="0"
     inkscape:deskcolor="#d1d1d1"
     inkscape:zoom="8.5444199"
     inkscape:cx="-9.9480129"
     inkscape:cy="48.394157"
     inkscape:window-width="1920"
     inkscape:window-height="1191"
     inkscape:window-x="-9"
     inkscape:window-y="-9"
     inkscape:window-maximized="1"
     inkscape:current-layer="g1">
    <inkscape:page
       x="8.7021368e-09"
       y="3.9005019e-10"
       inkscape:label="1"
       id="page1"
       width="28.168247"
       height="60.882301"
       margin="0"
       bleed="0" />
  </sodipodi:namedview>
  <g
     id="g1"
     inkscape:groupmode="layer"
     inkscape:label="1"
     transform="translate(-422.7454,-103.34439)">
    <g
       id="g240"
       transform="translate(2.9141235,2.0865579)">
      <path
         id="path240"
         d="m 322.7,761.16 0.05,0.1 c 0.15,0.33 0.05,0.72 -0.24,0.96 -0.26,0.24 -0.67,0.26 -0.98,0.07 -0.31,-0.22 -0.46,-0.6 -0.34,-0.96 v -0.03 0 -0.02 0.07 -0.05 l 0.03,-0.09 0.02,-0.03 -0.05,0.27 v -0.03 0 -0.07 0.03 -0.05 -0.1 -0.12 0.03 -0.17 0 l 0.17,-3.1 v 0.03 l 0.05,-1.23 v 0 l 0.12,-3.29 v -0.02 l 0.33,-7.06 v -0.02 l 0.22,-3.12 -0.02,0.05 v -0.24 c 0,-0.31 0.19,-0.6 0.45,-0.77 0.29,-0.17 0.65,-0.17 0.91,0 0.29,0.17 0.46,0.46 0.46,0.77 v 0.24 0.07 l -0.22,3.12 v 0 l -0.38,7.06 v -0.03 l -0.12,3.31 v 0 l -0.05,1.2 v 0.03 l -0.21,3.09 v 0 l -0.03,0.2 v 0.02 0.12 -0.07 0.05 -0.03 0.07 0 0.03 c 0,0.12 -0.02,0.21 -0.07,0.29 v 0.04 l 0.05,-0.09 -0.03,0.05 -0.02,0.07 -0.02,0.05 v 0 l -0.03,0.04 c -0.14,0.39 -0.6,0.63 -1.03,0.48 -0.41,-0.14 -0.65,-0.6 -0.53,-1.03 0.12,-0.41 0.55,-0.67 0.99,-0.57 l 0.09,0.02 c 0.19,0.05 0.36,0.17 0.43,0.36 z"
         style="fill:#000000;fill-opacity:1;fill-rule:nonzero;stroke:none"
         transform="matrix(1.3333333,0,0,-1.3333333,0,1120.8)" />
    </g>
    <g
       id="g241"
       transform="translate(2.9141235,2.0865579)">
      <path
         id="path241"
         d="m 316.87,742.18 0.36,-0.1 h 0.07 l 0.39,-0.02 v 0 l 0.36,-0.05 h 0.05 0.38 0.07 l 1.08,0.07 h 0.05 l 1.08,0.1 h -0.12 l 0.74,-0.03 h -0.07 l 0.34,-0.02 c 0.02,0 0.07,0 0.12,0 l 0.81,0.02 h -0.07 0.12 c 0.36,0 0.7,0.17 0.84,0.48 0.19,0.31 0.19,0.67 0,0.99 -0.14,0.31 -0.48,0.48 -0.84,0.48 h -0.12 -0.05 l -0.81,-0.08 0.07,0.03 h -0.31 -0.03 L 320.64,744 h -0.07 l -1.08,-0.12 h 0.02 l -1.08,-0.1 h 0.05 l -0.38,-0.02 h 0.02 -0.36 v 0 h -0.36 0.07 l -0.41,0.05 c -0.43,0.05 -0.81,-0.29 -0.86,-0.72 -0.07,-0.43 0.24,-0.84 0.67,-0.91 z"
         style="fill:#000000;fill-opacity:1;fill-rule:nonzero;stroke:none"
         transform="matrix(1.3333333,0,0,-1.3333333,0,1120.8)" />
    </g>
    <g
       id="g242"
       transform="translate(2.9141235,2.0865579)">
      <path
         id="path242"
         d="m 317.54,742.56 0.36,0.22 -0.38,-0.12 h 0.05 c 0.07,0 0.17,0.02 0.26,0.07 l 0.31,0.12 h -0.02 l 0.31,0.12 -0.02,-0.03 0.31,0.1 h -0.05 l 0.89,0.24 v 0 l 0.38,0.1 v 0 l 0.46,0.14 -0.07,-0.02 0.33,0.04 0.1,0.03 0.31,0.09 0.05,0.03 0.34,0.09 h 0.02 l 0.31,0.12 0.1,0.03 0.72,0.36 h 0.02 l 0.19,0.12 -0.24,-0.1 0.08,0.03 c 0.33,0.07 0.6,0.33 0.69,0.67 0.1,0.33 0,0.69 -0.24,0.96 -0.24,0.24 -0.6,0.36 -0.93,0.26 l -0.05,-0.02 c -0.1,-0.03 -0.17,-0.05 -0.24,-0.07 l -0.19,-0.12 0.02,0.02 -0.67,-0.36 0.07,0.05 -0.31,-0.12 v 0 l -0.34,-0.12 h 0.05 l -0.31,-0.1 0.07,0.03 -0.31,-0.08 -0.1,-0.02 -0.43,-0.14 h -0.02 l -0.39,-0.12 v 0 l -0.86,-0.27 -0.1,-0.02 -0.31,-0.15 -0.02,-0.02 -0.32,-0.12 -0.02,-0.02 -0.34,-0.17 c -0.07,-0.05 -0.16,-0.12 -0.24,-0.19 l -0.02,-0.03 0.24,0.17 -0.38,-0.19 c -0.27,-0.17 -0.44,-0.46 -0.44,-0.77 0,-0.31 0.17,-0.6 0.46,-0.74 0.26,-0.17 0.6,-0.15 0.86,0.02 z"
         style="fill:#000000;fill-opacity:1;fill-rule:nonzero;stroke:none"
         transform="matrix(1.3333333,0,0,-1.3333333,0,1120.8)" />
    </g>
    <g
       id="g243"
       transform="translate(2.9141235,2.0865579)">
      <path
         id="path243"
         d="m 330.84,761.81 v 0.24 -0.03 0.03 l -0.24,-0.55 0.02,0.02 v 0 l 0.03,0.02 c 0.14,0.15 0.24,0.36 0.24,0.56 v 0.04 l -0.27,-0.6 h 0.03 l 0.02,0.03 0.03,0.02 v 0 l 0.02,0.03 v 0 0.02 -0.02 0.02 l -0.62,-0.24 v 0 c 0.26,-0.02 0.5,0.1 0.67,0.26 l 0.02,0.03 v 0 l 0.03,0.02 -0.68,-0.26 h 0.03 c 0.24,-0.03 0.45,0.07 0.65,0.21 0.16,0.17 0.26,0.39 0.26,0.63 v 0.02 l -0.48,-0.74 0.05,0.02 -0.43,-0.09 v 0 h -0.05 0.05 0.04 0.05 -0.02 0.02 c 0.27,-0.03 0.51,0.07 0.7,0.24 v 0.04 l -0.65,-0.28 h 0.05 0.07 l 0.62,0.04 h -0.09 0.05 v 0 h 0.12 v 0 h 0.07 l -0.19,0.03 0.12,-0.03 c 0.04,-0.02 0.12,-0.02 0.19,-0.02 h 0.09 l -0.24,0.02 h 0.1 v 0 l 0.07,-0.04 h 0.05 l 0.1,-0.03 -0.24,0.1 0.09,-0.05 c 0.07,-0.05 0.15,-0.07 0.24,-0.1 l 0.1,-0.02 -0.24,0.1 0.09,-0.05 0.08,-0.03 0.09,-0.04 -0.07,0.02 0.1,-0.05 v 0 l 0.07,-0.05 -0.15,0.1 0.1,-0.07 h -0.02 l 0.19,-0.15 -0.07,0.08 0.07,-0.08 -0.05,0.08 0.07,-0.12 0.07,-0.08 0.1,-0.12 v 0 l 0.1,-0.09 -0.12,0.12 0.09,-0.12 -0.02,0.05 0.05,-0.12 0.07,-0.12 0.07,-0.1 -0.02,0.05 0.07,-0.12 -0.07,0.21 0.02,-0.14 0.02,-0.07 0.15,-0.39 v 0.05 l 0.17,-0.6 v 0.07 l 0.14,-0.57 -0.02,0.02 0.14,-0.6 -0.02,0.07 0.19,-1.39 v 0.05 l 0.17,-1.97 v 0.07 -1.29 0 l 0.02,-2.19 v 0 l 0.07,-5.56 0.03,-0.05 0.07,-1.44 v 0 l 0.09,-2.04 v 0.07 -0.1 c 0,-0.33 0.2,-0.64 0.48,-0.84 0.29,-0.16 0.68,-0.16 0.96,0 0.32,0.2 0.48,0.51 0.46,0.84 v 0.1 0.05 l -0.12,2.04 v 0 l -0.1,1.44 v -0.05 l -0.09,5.57 v 0 l -0.05,2.21 v -0.05 1.29 0.08 l -0.17,1.96 v 0.05 l -0.19,1.39 -0.02,0.08 -0.12,0.6 v 0.04 l -0.17,0.56 v 0.04 l -0.19,0.6 v 0.05 l -0.17,0.39 0.02,-0.05 -0.05,0.14 c -0.02,0.07 -0.04,0.15 -0.09,0.19 l -0.07,0.15 -0.05,0.07 -0.07,0.1 0.04,-0.08 -0.04,0.1 -0.05,0.05 -0.07,0.12 c -0.03,0.05 -0.08,0.09 -0.1,0.14 l -0.1,0.1 v 0 l -0.09,0.12 0.05,-0.07 -0.08,0.12 -0.07,0.07 -0.07,0.09 -0.1,0.08 -0.16,0.16 h -0.03 l -0.09,0.08 c -0.05,0.02 -0.1,0.04 -0.12,0.07 l -0.1,0.05 v 0 l -0.1,0.04 -0.04,0.05 -0.12,0.05 0.07,-0.05 -0.07,0.05 c -0.1,0.05 -0.17,0.07 -0.24,0.1 l -0.12,0.02 0.24,-0.1 -0.1,0.05 c -0.07,0.03 -0.14,0.07 -0.24,0.1 h -0.1 0.05 l -0.09,0.02 v 0 l -0.08,0.03 c -0.07,0.02 -0.16,0.02 -0.24,0.02 h -0.09 l 0.19,-0.02 -0.12,0.04 c -0.05,0 -0.12,0 -0.19,0 h -0.07 v 0 h -0.12 v 0 h -0.05 -0.03 l -0.62,-0.04 h 0.05 -0.05 c -0.26,0 -0.5,-0.12 -0.67,-0.32 v -0.02 l 0.62,0.31 -0.02,-0.02 0.02,0.02 -0.05,-0.02 h -0.04 -0.05 0.05 v 0 c -0.15,0 -0.29,-0.03 -0.41,-0.12 h -0.05 c -0.26,-0.17 -0.46,-0.48 -0.43,-0.82 v -0.02 l 0.84,0.93 h -0.03 c -0.24,-0.02 -0.45,-0.12 -0.62,-0.33 h -0.02 v 0 l -0.03,-0.03 0.63,0.32 v 0 c -0.27,-0.03 -0.51,-0.15 -0.65,-0.36 h -0.05 l 0.05,0.02 -0.05,-0.02 h 0.02 l -0.02,-0.05 v 0 h -0.02 l -0.03,-0.03 -0.02,-0.02 c -0.12,-0.17 -0.19,-0.38 -0.17,-0.58 v -0.04 l 0.22,0.62 -0.05,-0.02 v 0 -0.05 c -0.17,-0.15 -0.24,-0.36 -0.22,-0.6 v -0.03 c 0.03,-0.14 0.05,-0.28 0.15,-0.4 l 0.12,-0.2 c 0.19,-0.28 0.55,-0.43 0.86,-0.33 0.36,0.09 0.58,0.38 0.6,0.72 z"
         style="fill:#000000;fill-opacity:1;fill-rule:nonzero;stroke:none"
         transform="matrix(1.3333333,0,0,-1.3333333,0,1120.8)" />
    </g>
    <g
       id="g244"
       transform="translate(2.9141235,2.0865579)">
      <path
         id="path244"
         d="m 329.14,762.29 -0.08,-0.27 c -0.02,-0.09 -0.04,-0.21 -0.02,-0.31 l 0.34,-2.25 v 0.02 l 0.4,-3.38 -0.02,0.04 0.05,-0.45 v 0 l 0.17,-3.72 v 0.05 -0.84 0 l -0.03,-0.96 0.03,0.14 -0.15,-0.65 0.1,0.24 -0.12,-0.19 0.77,0.53 v 0 c -0.36,-0.05 -0.7,-0.29 -0.84,-0.6 v -0.05 0 0 l 0.31,0.41 v 0 c -0.17,-0.12 -0.27,-0.27 -0.34,-0.43 v 0 0 l -0.02,-0.05 c -0.17,-0.36 -0.07,-0.82 0.19,-1.13 l 0.02,-0.02 c 0.15,-0.17 0.34,-0.27 0.56,-0.34 h 0.02 l -0.55,0.34 0.05,-0.03 -0.24,1.06 v -0.05 c -0.17,-0.5 0.07,-1.03 0.52,-1.27 l 0.03,-0.03 -0.31,0.24 0.02,-0.02 c 0.14,-0.17 0.36,-0.26 0.58,-0.34 h 0.02 l -0.58,0.34 0.03,-0.02 c 0.09,-0.1 0.19,-0.2 0.31,-0.24 l 0.05,-0.03 -0.34,0.27 0.03,-0.05 c 0.12,-0.15 0.31,-0.24 0.48,-0.31 l 0.09,-0.03 0.03,-0.02 0.38,-0.12 -0.02,0.02 1,-0.33 -0.16,0.07 0.86,-0.48 0.1,-0.03 0.21,-0.09 h -0.02 l 0.24,-0.1 c 0.57,-0.24 1.25,0.03 1.51,0.63 0.24,0.55 -0.02,1.24 -0.6,1.51 l -0.22,0.07 v 0 l -0.21,0.1 0.07,-0.03 -0.86,0.46 c -0.05,0.02 -0.12,0.05 -0.17,0.07 l -1.03,0.34 -0.05,0.02 -0.39,0.1 -0.12,0.02 -0.09,0.02 0.33,-0.09 h -0.04 c -0.32,0.17 -0.7,0.17 -1.01,0 h -0.05 1.03 -0.02 c -0.24,0.12 -0.53,0.17 -0.77,0.12 l -0.02,-0.03 0.74,-0.09 -0.02,0.02 c -0.34,0.17 -0.7,0.17 -1.01,0 l -0.03,-0.02 c -0.5,-0.24 -0.74,-0.87 -0.5,-1.39 0.24,-0.53 0.84,-0.8 1.37,-0.58 0.55,0.19 0.84,0.77 0.67,1.32 v 0.05 c -0.1,0.26 -0.29,0.5 -0.55,0.62 l -0.05,0.03 c -0.22,0.12 -0.48,0.14 -0.72,0.07 h -0.02 l 0.72,-0.07 h -0.03 l 0.51,-0.53 -0.03,0.05 v 0 0 c -0.07,0.16 -0.19,0.31 -0.33,0.43 v 0 l 0.31,-0.41 v 0 0 0.05 c -0.17,0.31 -0.48,0.55 -0.84,0.6 v 0 c -0.51,0.05 -0.96,-0.31 -1.03,-0.79 -0.1,-0.48 0.19,-0.96 0.67,-1.11 0.48,-0.14 0.98,0.15 1.15,0.6 l 0.1,0.22 c 0.02,0.05 0.02,0.12 0.02,0.17 l 0.12,0.67 c 0,0.05 0,0.09 0,0.17 v 0.96 0 0.84 l -0.02,0.04 -0.24,3.72 v 0 l -0.05,0.48 v 0.05 l -0.48,3.39 -0.03,0.04 -0.5,2.24 0.02,-0.27 0.03,0.29 c 0.07,0.36 -0.17,0.7 -0.55,0.79 -0.36,0.07 -0.72,-0.14 -0.84,-0.5 z"
         style="fill:#000000;fill-opacity:1;fill-rule:nonzero;stroke:none"
         transform="matrix(1.3333333,0,0,-1.3333333,0,1120.8)" />
    </g>
    <g
       id="g245"
       transform="translate(2.9141235,2.0865579)">
      <path
         id="path245"
         d="m 317.88,733.44 0.26,0.48 h 0.03 l 0.19,0.41 -0.05,-0.05 0.24,0.36 v 0 l 0.6,1.01 c 0.1,0.12 0.12,0.24 0.15,0.41 v 0 l -0.29,-0.6 v 0.02 c 0.19,0.17 0.31,0.38 0.31,0.62 v 0.03 0 0 c 0.05,0.53 -0.31,0.96 -0.84,1.01 -0.48,0.04 -0.94,-0.34 -0.98,-0.84 -0.05,-0.51 0.33,-0.96 0.81,-1.01 h 0.05 c 0.24,0 0.48,0.07 0.67,0.24 l 0.03,0.02 c 0.19,0.15 0.31,0.39 0.31,0.6 v 0.03 l -1.01,-0.84 h 0.05 c 0.24,-0.03 0.48,0.07 0.67,0.24 h 0.05 c 0.17,0.16 0.26,0.38 0.29,0.64 l 0.02,0.03 c 0.02,0.53 -0.36,0.96 -0.89,1.01 -0.5,0.02 -0.96,-0.36 -0.98,-0.87 -0.05,-0.5 0.33,-0.96 0.84,-1.01 h 0.02 l -0.65,0.36 v -0.02 c 0.17,-0.24 0.46,-0.36 0.75,-0.36 0.31,0 0.57,0.14 0.74,0.38 l 0.03,0.03 -0.84,-0.36 h 0.02 c 0.53,-0.05 0.98,0.31 1.03,0.84 v 0.02 c 0.05,0.51 -0.33,0.99 -0.86,1.01 -0.51,0.05 -0.96,-0.31 -1.01,-0.84 -0.05,-0.5 0.31,-0.98 0.84,-1.03 h 0.02 v 0 h 0.03 c 0.26,-0.03 0.5,0.07 0.72,0.24 v 0 l -0.79,-0.22 h 0.02 c 0.29,-0.05 0.58,0.03 0.79,0.22 l 0.03,0.05 -0.65,-0.27 h 0.02 l -0.77,0.46 0.03,-0.03 c 0.17,-0.26 0.48,-0.45 0.79,-0.45 h 0.05 l -0.87,0.57 0.03,-0.02 c 0.07,-0.19 0.21,-0.36 0.41,-0.48 h 0.04 l -0.16,0.1 0.04,-0.03 0.05,-0.05 0.05,-0.02 -0.05,0.05 0.05,-0.05 -0.36,0.82 v 0 c -0.05,-0.34 0.12,-0.68 0.38,-0.87 l 0.03,-0.02 c 0.14,-0.1 0.33,-0.17 0.5,-0.17 l 0.03,-0.02 -0.84,0.64 0.02,-0.04 c 0.02,-0.1 0.05,-0.17 0.12,-0.22 l 0.05,-0.07 h -0.03 l 0.1,-0.12 v 0 l 0.07,-0.12 -0.07,0.14 0.07,-0.17 v -0.04 l 0.22,-0.41 -0.05,0.12 0.02,-0.1 0.03,-0.09 0.05,-0.1 v 0.02 l 0.04,-0.14 c 0.03,-0.05 0.05,-0.1 0.08,-0.14 l 0.07,-0.1 0.02,-0.02 0.05,-0.1 -0.07,0.17 0.02,-0.12 c 0.05,-0.1 0.1,-0.17 0.15,-0.24 l 0.07,-0.1 v 0 l 0.07,-0.09 c 0.02,-0.03 0.05,-0.05 0.07,-0.1 l 0.24,-0.22 -0.31,0.7 v 0 c 0,-0.55 0.46,-1.01 1.01,-1.01 h 0.02 l -0.96,0.7 0.03,-0.05 c 0.14,-0.41 0.5,-0.67 0.93,-0.67 h 0.03 l -0.7,0.29 0.02,-0.03 c 0.17,-0.19 0.44,-0.29 0.7,-0.29 h 0.02 -0.02 0.05 v 0 0 0 h 0.02 v 0 h 0.03 -0.03 0.05 v 0 0 0 h 0.05 l -0.46,0.1 v 0 c 0.15,-0.07 0.29,-0.12 0.46,-0.12 v 0 h 0.02 v 0 c 0.29,0 0.53,0.12 0.72,0.29 l 0.03,0.02 -0.7,-0.29 v 0 c 0.29,0 0.53,0.1 0.72,0.29 0.19,0.19 0.29,0.46 0.29,0.72 v 0.03 c 0,0.55 -0.46,0.98 -0.99,0.98 -0.55,0.02 -1,-0.43 -1,-0.98 0,-0.53 0.43,-0.99 0.98,-1.01 h 0.02 c 0.27,0 0.53,0.12 0.7,0.31 0.19,0.17 0.31,0.43 0.31,0.7 v 0.02 c 0,0.55 -0.43,1.01 -0.98,1.01 -0.58,0 -1.01,-0.46 -1.01,-1.01 0,-0.55 0.43,-1.01 0.98,-1.01 h 0.03 c 0.14,0 0.31,0.05 0.45,0.12 h 0.03 c 0.14,0.07 0.24,0.17 0.33,0.27 l 0.05,0.07 -0.12,-0.12 0.05,0.02 0.07,0.07 0.07,0.05 v 0 l 0.05,0.1 c 0.05,0.02 0.07,0.05 0.1,0.09 l 0.12,0.15 -0.05,-0.07 0.22,0.26 c 0.02,0.02 0.07,0.05 0.07,0.1 l 0.05,0.07 0.04,0.05 0.03,0.07 -0.36,-0.36 0.07,0.02 c 0.17,0.1 0.29,0.24 0.38,0.39 l 0.05,0.09 v 0.05 l 0.05,0.05 -0.02,-0.05 0.04,0.07 h -0.02 l 0.12,0.17 c 0.02,0.05 0.05,0.1 0.05,0.14 l 0.02,0.05 c 0.05,0.12 0.1,0.24 0.1,0.36 v 0.1 l -0.58,-0.91 0.05,0.02 c 0.24,0.12 0.41,0.31 0.5,0.58 l 0.03,0.07 -0.03,-0.07 0.03,0.07 -0.24,-0.36 0.05,0.05 v 0 l 0.04,0.04 c 0.1,0.1 0.17,0.22 0.22,0.34 l 0.02,0.05 -0.48,-0.53 0.05,0.02 c 0.19,0.1 0.34,0.27 0.46,0.46 v 0.05 l -0.17,-0.27 0.05,0.05 v 0 0 l -0.15,-0.12 0.05,0.05 c 0.07,0.05 0.12,0.07 0.17,0.12 l 0.02,0.02 -0.14,-0.12 0.05,0.05 v -0.02 l 0.12,0.07 -0.58,-0.14 h 0.05 -0.02 0.02 l -0.22,0.02 h 0.03 c 0.09,-0.02 0.17,-0.05 0.24,-0.05 h 0.02 l -0.69,0.31 0.02,-0.02 c 0.17,-0.19 0.43,-0.29 0.7,-0.29 v 0 h 0.02 v 0 0 l 0.05,-0.02 -0.84,0.48 0.02,-0.05 c 0.19,-0.29 0.51,-0.43 0.84,-0.46 h 0.05 l -0.72,0.32 v -0.03 c 0.07,-0.07 0.17,-0.14 0.29,-0.19 l 0.02,-0.02 -0.5,0.6 0.02,-0.05 c 0.12,-0.41 0.51,-0.7 0.94,-0.7 h 0.02 l -0.98,1.01 v 0 c 0,-0.26 0.09,-0.53 0.26,-0.72 l 0.05,-0.02 v 0 l 0.05,-0.05 -0.1,0.07 0.1,-0.07 0.02,-0.05 0.05,-0.07 -0.17,0.26 0.05,-0.07 c 0,-0.05 0.05,-0.1 0.07,-0.12 l 0.12,-0.24 -0.05,0.1 0.12,-0.27 0.03,-0.05 0.07,-0.14 -0.05,0.12 0.05,-0.17 c 0.02,-0.02 0.05,-0.09 0.07,-0.14 l 0.05,-0.1 0.05,-0.05 0.21,-0.36 0.03,-0.02 v -0.05 c 0.05,-0.05 0.09,-0.09 0.14,-0.14 v -0.03 l -0.14,0.2 0.02,-0.05 c 0.19,-0.31 0.53,-0.48 0.89,-0.48 v 0 l -0.89,0.55 v -0.05 c 0.07,-0.09 0.12,-0.19 0.22,-0.26 l 0.02,-0.03 v 0 l 0.03,-0.02 c 0.19,-0.19 0.43,-0.29 0.69,-0.29 h 0.05 l -0.55,0.17 0.02,-0.02 -0.02,0.02 0.02,-0.02 c 0.05,-0.05 0.1,-0.08 0.17,-0.1 l 0.05,-0.02 -0.48,0.45 0.02,-0.02 c 0.12,-0.27 0.36,-0.46 0.65,-0.53 h 0.05 c 0.07,-0.05 0.17,-0.05 0.24,-0.05 h 0.02 v 0 h 0.05 l -0.72,0.31 0.05,-0.02 c 0.17,-0.19 0.43,-0.31 0.69,-0.31 h 0.05 v 0 h 0.03 l -0.12,0.02 0.07,-0.02 c 0.12,0 0.24,0 0.36,0.02 l 0.09,0.03 0.05,0.02 h 0.1 c 0.05,0.02 0.12,0.05 0.14,0.07 l 0.1,0.05 -0.17,-0.07 0.07,0.02 c 0.1,0.03 0.17,0.07 0.24,0.12 l 0.1,0.05 -0.05,-0.02 0.07,0.04 -0.02,-0.02 0.07,0.05 c 0.05,0 0.07,0.02 0.12,0.05 l 0.05,0.04 c 0.05,0.03 0.07,0.05 0.12,0.1 l 0.19,0.17 -0.07,-0.07 0.19,0.14 0.05,0.05 0.14,0.12 0.03,0.02 0.16,0.12 c 0.03,0.05 0.05,0.1 0.1,0.12 l 0.12,0.17 h 0.02 l 0.36,0.41 v 0.02 l 0.51,0.58 -0.34,-0.24 0.05,0.02 c 0.34,0.17 0.58,0.53 0.55,0.89 v 0.05 l -0.29,-0.72 0.03,0.02 -0.17,-0.14 0.05,0.02 c 0.17,0.12 0.29,0.29 0.36,0.46 l 0.02,0.07 -0.91,-0.65 h 0.02 c 0.15,0 0.29,0.05 0.44,0.12 h 0.04 c 0.1,0.05 0.17,0.12 0.27,0.22 h 0.02 v 0 l 0.03,0.05 -0.72,-0.32 h 0.02 c 0.29,0 0.53,0.1 0.72,0.32 v 0 l -0.67,-0.29 v 0 0 h 0.05 c 0.26,0 0.5,0.12 0.69,0.29 l 0.03,0.02 -0.7,-0.29 h 0.05 c 0.12,0 0.24,0 0.36,0.07 l 0.05,0.03 -0.39,-0.1 h 0.05 l -0.7,0.29 h 0.03 v 0 l 0.02,-0.02 c 0.19,-0.22 0.46,-0.29 0.7,-0.29 h 0.05 0.02 v 0 l -0.55,0.14 0.02,-0.02 -0.26,0.29 0.02,-0.05 c 0.1,-0.12 0.22,-0.24 0.36,-0.34 h 0.05 l -0.1,0.05 0.03,-0.02 -0.05,0.02 0.05,-0.02 -0.19,0.21 0.02,-0.05 -0.19,0.58 v -0.02 c 0,-0.24 0.09,-0.51 0.29,-0.7 l 0.07,-0.07 v 0 l 0.05,-0.05 -0.22,0.34 0.05,-0.1 0.02,-0.1 0.05,-0.07 c 0.02,-0.02 0.05,-0.07 0.07,-0.12 l 0.05,-0.02 -0.07,0.09 0.02,-0.07 -0.07,0.19 0.05,-0.09 c 0,-0.07 0.02,-0.15 0.07,-0.22 l 0.05,-0.02 -0.12,0.21 0.02,-0.07 v 0 l 0.03,-0.07 v -0.05 l 0.07,-0.17 -0.05,0.29 v -0.07 c 0,-0.07 0,-0.12 0,-0.19 l 0.02,-0.05 c 0.03,-0.07 0.05,-0.14 0.05,-0.19 l 0.05,-0.07 c 0,-0.03 0.02,-0.08 0.05,-0.1 l 0.05,-0.07 -0.15,0.6 v -0.07 c -0.02,-0.24 0.03,-0.48 0.17,-0.68 l 0.05,-0.07 -0.03,0.05 0.03,-0.05 -0.05,0.12 0.05,-0.12 c 0,-0.02 0.02,-0.07 0.05,-0.09 l 0.02,-0.05 -0.02,0.05 0.02,-0.03 c 0.02,-0.05 0.05,-0.09 0.07,-0.12 l 0.05,-0.07 -0.05,0.05 0.05,-0.05 0.05,-0.07 0.12,-0.17 c 0.05,-0.02 0.05,-0.05 0.07,-0.07 l 0.05,-0.03 c 0.17,-0.19 0.41,-0.26 0.67,-0.26 h 0.02 0.03 v 0 0 h 0.05 -0.03 0.05 v 0 h 0.02 l -0.93,0.65 0.02,-0.05 c 0.15,-0.38 0.51,-0.65 0.91,-0.65 h 0.05 v 0 h 0.03 v 0 h 0.02 v 0 h 0.02 c 0.27,0 0.51,0.12 0.68,0.29 l 0.02,0.05 -0.67,-0.31 h 0.02 -0.02 0.05 0.02 v 0 l 0.02,0.02 h 0.03 c 0.12,0 0.26,0.02 0.38,0.07 l 0.05,0.05 -0.41,-0.12 h 0.03 c 0.24,0 0.48,0.12 0.64,0.29 l 0.03,0.02 -0.15,-0.12 0.08,0.05 -0.08,-0.05 0.08,0.05 -0.05,-0.02 0.12,0.04 0.09,0.05 0.1,0.1 0.05,0.02 0.19,0.17 c 0.05,0.05 0.12,0.07 0.17,0.14 l 0.07,0.1 -0.14,-0.12 0.12,0.07 c 0.02,0.05 0.07,0.07 0.09,0.1 l 0.1,0.12 c 0.05,0.05 0.07,0.07 0.12,0.12 l 0.19,0.36 -0.02,-0.05 0.09,0.12 -0.05,-0.05 0.1,0.12 c 0.02,0.03 0.05,0.05 0.1,0.1 l 0.07,0.14 -0.12,-0.17 0.19,0.22 h 0.02 l 0.17,0.19 0.05,0.1 0.05,0.02 -0.07,-0.09 v 0.02 l 0.07,0.07 0.05,0.05 c 0.02,0.05 0.07,0.12 0.09,0.17 l 0.03,0.05 -0.41,-0.44 0.02,0.03 c 0.15,0.07 0.24,0.17 0.31,0.26 l 0.05,0.05 -0.31,-0.26 0.05,0.02 0.09,0.07 0.1,0.05 -0.53,-0.17 h 0.03 v 0 h 0.02 c 0.24,0 0.48,0.12 0.65,0.29 l 0.05,0.02 -0.7,-0.26 h 0.02 v 0 h 0.03 v 0 h 0.02 l -0.67,0.26 v -0.02 c 0.19,-0.17 0.43,-0.29 0.7,-0.29 v 0 l -0.65,0.29 v 0 0 l 0.02,-0.02 c 0.17,-0.17 0.41,-0.29 0.65,-0.29 h 0.05 v 0 0 l -0.65,0.29 v -0.03 l -0.26,0.67 v -0.02 c 0,-0.53 0.43,-0.96 0.96,-0.96 v 0 0 h 0.02 l -0.67,0.29 0.02,-0.03 -0.29,0.68 v -0.03 c 0,-0.53 0.44,-0.96 0.94,-0.96 h 0.02 c 0.39,0 0.75,0.24 0.89,0.6 0.15,0.34 0.05,0.75 -0.21,1.01 -0.27,0.29 -0.68,0.36 -1.04,0.22 -0.33,-0.15 -0.57,-0.48 -0.57,-0.87 v -0.02 0 -0.05 c 0,-0.24 0.09,-0.48 0.29,-0.65 0.16,-0.19 0.4,-0.29 0.67,-0.29 v 0 l -0.84,0.51 0.09,-0.19 c 0.03,-0.03 0.08,-0.08 0.1,-0.1 l 0.07,-0.12 -0.09,0.14 0.07,-0.09 v -0.03 l 0.07,-0.12 -0.02,0.03 0.07,-0.1 v 0 l 0.05,-0.09 v 0 l 0.04,-0.12 -0.07,0.19 0.1,-0.31 v 0 l 0.02,-0.05 0.03,-0.05 v -0.07 l -0.03,0.12 0.03,-0.05 v -0.07 l 0.02,-0.1 c 0,-0.02 0.02,-0.07 0.05,-0.09 l 0.02,-0.08 c 0.05,-0.12 0.12,-0.21 0.19,-0.31 l 0.05,-0.02 -0.26,0.48 0.02,-0.05 c 0.03,-0.12 0.05,-0.19 0.1,-0.29 l 0.05,-0.07 -0.03,0.05 0.03,-0.05 -0.03,0.05 0.03,-0.07 c 0.04,-0.1 0.12,-0.22 0.19,-0.29 l 0.09,-0.1 c 0.2,-0.19 0.44,-0.26 0.68,-0.26 h 0.02 c 0.53,0 0.94,0.41 0.94,0.93 0,0.51 -0.41,0.94 -0.94,0.94 -0.53,0 -0.96,-0.43 -0.96,-0.94 v -0.04 c 0,-0.32 0.17,-0.6 0.43,-0.77 l 0.03,-0.03 -0.12,0.12 v -0.02 c 0.19,-0.19 0.43,-0.29 0.67,-0.29 h 0.02 l -0.79,0.43 0.02,-0.02 c 0.2,-0.29 0.46,-0.43 0.8,-0.43 v 0 0 h 0.04 l -0.93,0.96 v -0.05 c 0,-0.53 0.41,-0.94 0.93,-0.94 h 0.05 l -0.91,0.65 0.02,-0.02 c 0.12,-0.39 0.48,-0.65 0.89,-0.65 h 0.03 v 0 h 0.02 v 0 h 0.05 v 0 0 0 h 0.02 v 0 h 0.05 v 0 0 0 h 0.05 -0.03 0.05 v 0 h 0.03 c 0.24,0 0.48,0.1 0.64,0.29 h 0.03 l -0.67,-0.27 h 0.02 c 0.17,0 0.29,0.03 0.43,0.1 l 0.05,0.02 -0.43,-0.09 h 0.05 c 0.16,0 0.36,0.05 0.5,0.14 l 0.12,0.1 0.1,0.05 0.09,0.09 -0.09,-0.07 0.09,0.05 c 0.05,0.05 0.12,0.09 0.17,0.14 l 0.1,0.1 -0.08,-0.07 0.1,0.09 c 0.05,0.03 0.1,0.1 0.14,0.12 l 0.1,0.12 -0.1,-0.09 0.1,0.09 v 0 l 0.1,0.07 c 0.07,0.08 0.14,0.15 0.19,0.24 l 0.07,0.15 -0.02,-0.05 0.16,0.24 -0.02,-0.02 0.24,0.33 v 0 l 0.17,0.24 -0.05,-0.07 0.05,0.07 c 0.07,0.1 0.14,0.19 0.19,0.31 v 0.08 l -0.1,-0.24 0.08,0.09 -0.12,-0.14 0.02,0.05 0.05,0.04 0.07,0.08 v 0.02 l 0.05,0.05 -0.15,-0.15 0.12,0.1 c 0.03,0.02 0.08,0.05 0.1,0.1 h 0.02 l -0.64,-0.27 v 0 c 0.36,0 0.69,0.19 0.84,0.51 l 0.02,0.02 -0.19,-0.24 0.02,0.02 -0.67,-0.26 h 0.05 c 0.29,0 0.6,0.14 0.77,0.41 l 0.02,0.05 -1.2,-0.34 v 0 c 0.14,-0.07 0.29,-0.12 0.43,-0.12 h 0.03 v 0 h 0.02 v 0 0 0 h 0.02 v 0 h 0.05 v 0 h 0.03 v 0 h 0.02 v 0 0 0 h 0.02 l -0.57,0.19 0.05,-0.02 c 0.16,-0.12 0.36,-0.19 0.57,-0.19 h 0.03 l -0.84,0.5 v 0 c 0.14,-0.31 0.48,-0.53 0.84,-0.53 h 0.02 l -0.67,0.29 0.02,-0.02 -0.12,0.14 0.03,-0.02 c 0.16,-0.29 0.48,-0.44 0.79,-0.44 v 0 l -0.84,0.53 0.02,-0.02 c 0.05,-0.1 0.1,-0.17 0.17,-0.24 l 0.02,-0.03 -0.04,0.08 0.12,-0.2 v 0.03 l 0.14,-0.17 -0.07,0.1 0.12,-0.17 v -0.05 l 0.12,-0.17 -0.03,0.05 0.29,-0.5 -0.05,0.09 0.1,-0.24 0.05,-0.07 0.12,-0.24 0.05,-0.07 0.4,-0.63 c 0.03,-0.02 0.08,-0.07 0.1,-0.09 l 0.17,-0.19 c 0.33,-0.39 0.91,-0.41 1.32,-0.08 0.38,0.34 0.41,0.94 0.07,1.32 l -0.17,0.17 0.1,-0.07 -0.43,0.6 0.04,-0.07 -0.12,0.24 0.03,-0.07 -0.1,0.24 -0.05,0.12 -0.28,0.48 -0.05,0.04 -0.12,0.2 0.02,-0.03 -0.09,0.17 -0.08,0.1 -0.14,0.16 v 0 l -0.14,0.2 -0.05,0.04 -0.05,0.03 0.19,-0.24 -0.02,0.02 c -0.15,0.31 -0.48,0.51 -0.84,0.51 v 0 l 0.77,-0.41 v 0.05 c -0.05,0.02 -0.1,0.07 -0.12,0.12 l -0.05,0.02 c -0.17,0.17 -0.41,0.29 -0.65,0.29 h -0.02 l 0.84,-0.53 v 0.02 c -0.17,0.32 -0.48,0.51 -0.84,0.51 h -0.03 l 0.55,-0.17 -0.04,0.02 c -0.15,0.12 -0.36,0.2 -0.56,0.2 h -0.02 v 0 0 0 h -0.02 v 0 h -0.03 v 0 h -0.05 v 0 h -0.02 v 0 0 0 h -0.02 v 0 h -0.03 l 0.41,-0.1 v 0 c -0.43,0.22 -0.96,0.07 -1.2,-0.31 l -0.02,-0.05 0.79,0.43 h -0.05 c -0.24,0 -0.48,-0.09 -0.65,-0.26 l -0.02,-0.05 c -0.07,-0.07 -0.12,-0.14 -0.17,-0.24 h -0.02 l 0.84,0.5 v 0 c -0.27,0 -0.51,-0.09 -0.7,-0.26 v -0.02 l 0.1,0.07 -0.12,-0.07 c -0.08,-0.05 -0.12,-0.1 -0.17,-0.17 l -0.05,-0.05 v 0 l -0.05,-0.07 0.05,0.05 -0.05,-0.05 c -0.05,-0.05 -0.07,-0.07 -0.12,-0.12 l -0.07,-0.1 c -0.02,-0.07 -0.07,-0.14 -0.1,-0.21 l -0.02,-0.08 0.17,0.32 -0.05,-0.08 -0.07,-0.09 -0.15,-0.22 0.03,0.03 -0.24,-0.34 -0.05,-0.02 -0.14,-0.24 -0.05,-0.08 -0.07,-0.14 0.19,0.24 -0.1,-0.07 v -0.03 l -0.09,-0.09 c -0.05,-0.03 -0.1,-0.05 -0.12,-0.1 l -0.1,-0.12 0.14,0.15 -0.09,-0.1 -0.07,-0.05 -0.1,-0.12 0.17,0.17 -0.1,-0.07 c -0.02,-0.03 -0.07,-0.05 -0.09,-0.07 l -0.12,-0.1 0.07,0.05 -0.12,-0.1 0.53,0.17 h -0.05 c -0.15,0 -0.29,-0.02 -0.43,-0.1 l -0.03,-0.02 0.41,0.12 h -0.02 c -0.24,0 -0.48,-0.12 -0.65,-0.29 l -0.05,-0.02 0.7,0.26 h -0.03 v 0 h -0.05 0.03 -0.05 v 0 0 0 h -0.05 v 0 h -0.02 v 0 0 0 h -0.05 v 0 h -0.02 v 0 h -0.03 l 0.89,-0.62 v 0.02 c -0.12,0.39 -0.48,0.65 -0.89,0.65 h -0.05 c -0.52,0 -0.93,-0.43 -0.93,-0.96 0,-0.5 0.41,-0.94 0.93,-0.94 0.51,0 0.94,0.41 0.94,0.94 v 0.05 c 0,0.24 -0.1,0.48 -0.26,0.65 -0.17,0.19 -0.41,0.28 -0.68,0.28 h -0.04 v 0 0 l 0.79,-0.43 -0.05,0.05 c -0.14,0.24 -0.46,0.41 -0.77,0.41 h -0.02 l 0.67,-0.29 -0.02,0.05 c -0.05,0.02 -0.1,0.07 -0.15,0.12 h -0.02 l 0.41,-0.79 v 0.04 c 0,0.51 -0.41,0.94 -0.94,0.94 h -0.02 l 0.67,-0.29 -0.1,0.1 0.19,-0.29 -0.02,0.07 -0.02,0.05 -0.03,0.05 -0.02,0.05 -0.05,0.07 0.12,-0.29 -0.02,0.05 c -0.03,0.19 -0.12,0.36 -0.24,0.48 l -0.05,0.05 0.19,-0.29 -0.02,0.07 0.02,-0.12 v 0.07 -0.07 0.05 l -0.02,0.12 -0.03,0.07 0.03,-0.05 -0.05,0.07 v 0.03 l -0.07,0.31 c -0.03,0.05 -0.05,0.12 -0.1,0.17 l -0.05,0.12 v 0 l -0.07,0.09 v 0 l -0.02,0.1 h -0.03 l -0.07,0.14 v -0.02 l -0.05,0.1 c -0.02,0.04 -0.05,0.07 -0.07,0.12 l -0.07,0.09 0.07,-0.12 -0.1,0.17 c -0.16,0.29 -0.48,0.48 -0.81,0.48 v 0 l 0.91,-0.96 v 0.05 0 0.02 c 0,0.53 -0.41,0.94 -0.94,0.94 h -0.02 c -0.36,0 -0.72,-0.22 -0.86,-0.58 -0.15,-0.36 -0.05,-0.77 0.21,-1.03 0.27,-0.29 0.67,-0.36 1.01,-0.19 0.36,0.12 0.6,0.48 0.6,0.86 v 0.03 c 0,0.24 -0.12,0.48 -0.26,0.67 h -0.05 c -0.17,0.19 -0.41,0.29 -0.65,0.29 h -0.02 v 0 0 c -0.41,0 -0.75,-0.24 -0.89,-0.58 -0.15,-0.36 -0.07,-0.77 0.19,-1.03 0.29,-0.29 0.7,-0.36 1.06,-0.22 0.33,0.15 0.57,0.51 0.57,0.89 v 0.02 c 0,0.24 -0.09,0.48 -0.29,0.68 l -0.02,0.02 c -0.17,0.17 -0.41,0.26 -0.67,0.26 v 0 0 h -0.05 l 0.7,-0.26 h -0.03 v 0 l -0.02,0.02 c -0.17,0.2 -0.41,0.27 -0.67,0.27 v 0 l 0.67,-0.27 -0.05,0.03 c -0.17,0.17 -0.41,0.29 -0.65,0.29 h -0.02 v 0 h -0.03 v 0 h -0.02 c -0.24,0 -0.48,-0.12 -0.65,-0.29 l -0.02,-0.03 0.67,0.27 h -0.02 v 0 h -0.03 c -0.19,0 -0.38,-0.05 -0.53,-0.15 l -0.09,-0.04 0.12,0.02 H 330 c -0.12,-0.07 -0.24,-0.14 -0.31,-0.26 l -0.05,-0.05 0.31,0.26 -0.05,-0.02 c -0.16,-0.1 -0.33,-0.24 -0.4,-0.43 l -0.03,-0.05 0.1,0.17 -0.05,-0.05 0.1,0.07 h -0.05 c -0.03,-0.02 -0.05,-0.07 -0.07,-0.12 l -0.05,-0.02 0.07,0.07 -0.14,-0.17 v 0 l -0.22,-0.24 c -0.05,-0.02 -0.1,-0.1 -0.12,-0.14 l -0.1,-0.12 0.08,0.09 -0.1,-0.12 -0.02,-0.05 -0.1,-0.09 -0.02,-0.07 -0.22,-0.34 0.1,0.12 -0.1,-0.1 0.1,0.1 -0.1,-0.07 c -0.05,-0.05 -0.12,-0.1 -0.14,-0.15 l -0.1,-0.12 0.14,0.15 -0.19,-0.17 0.05,0.05 -0.07,-0.05 0.09,0.05 -0.09,-0.05 -0.05,-0.02 -0.07,-0.05 -0.07,-0.03 -0.05,-0.04 c -0.05,-0.03 -0.12,-0.08 -0.15,-0.1 l -0.02,-0.05 0.7,0.29 h -0.03 c -0.17,0 -0.31,-0.05 -0.45,-0.1 l -0.05,-0.02 0.48,0.1 h -0.03 -0.02 v 0 h -0.02 -0.05 0.02 -0.02 c -0.27,0 -0.51,-0.1 -0.67,-0.27 l -0.05,-0.02 0.69,0.26 h -0.02 v 0 h -0.02 v 0 h -0.03 v 0 h -0.05 l 0.92,-0.67 -0.03,0.05 c -0.12,0.38 -0.48,0.65 -0.89,0.67 h -0.02 v 0 h -0.05 0.03 -0.05 v 0 0 h -0.03 -0.02 l 0.67,-0.29 h -0.02 l 0.07,-0.07 -0.12,0.14 0.1,-0.09 -0.05,0.02 -0.05,0.1 -0.02,0.07 0.07,-0.17 -0.03,0.05 -0.02,0.07 -0.02,0.07 0.02,-0.09 -0.02,0.07 -0.05,0.12 -0.05,0.05 -0.02,0.02 -0.03,0.07 0.15,-0.67 v 0.07 c 0.02,0.22 0,0.44 -0.1,0.63 l -0.05,0.07 0.05,-0.12 v 0.05 l 0.05,-0.22 -0.03,0.07 0.03,-0.14 v 0.07 c 0,0.12 -0.03,0.22 -0.05,0.34 l -0.07,0.19 0.02,-0.05 -0.02,0.07 v 0 l -0.03,0.08 c -0.02,0.07 -0.04,0.14 -0.09,0.24 l -0.05,0.04 0.1,-0.19 -0.03,0.1 c -0.02,0.05 -0.05,0.12 -0.07,0.17 l -0.05,0.07 -0.07,0.09 -0.02,0.05 0.07,-0.09 -0.05,0.07 0.05,-0.1 -0.03,0.05 c -0.04,0.12 -0.12,0.24 -0.21,0.34 l -0.05,0.02 v 0 l -0.07,0.1 0.29,-0.72 v 0.02 c 0,0.24 -0.05,0.46 -0.2,0.6 l -0.02,0.05 c -0.05,0.07 -0.12,0.14 -0.19,0.19 l -0.05,0.05 -0.02,0.02 -0.05,0.03 c -0.05,0.02 -0.07,0.04 -0.12,0.07 h -0.03 l 0.39,-0.31 -0.03,0.02 c -0.07,0.1 -0.16,0.19 -0.28,0.26 l -0.03,0.03 c -0.14,0.12 -0.36,0.17 -0.55,0.17 v 0 h -0.02 -0.05 l 0.72,-0.29 -0.05,0.02 v 0 0.03 c -0.19,0.19 -0.43,0.28 -0.72,0.31 h -0.05 c -0.12,0 -0.24,-0.05 -0.36,-0.07 l -0.05,-0.03 0.39,0.05 h -0.05 c -0.29,0 -0.53,-0.07 -0.72,-0.26 v -0.03 l 0.7,0.29 h -0.05 v 0 0 c -0.29,0 -0.53,-0.12 -0.72,-0.29 l -0.03,-0.02 0.7,0.29 h -0.02 c -0.27,0 -0.51,-0.1 -0.7,-0.29 l -0.02,-0.03 v 0 l -0.03,-0.02 0.24,0.19 -0.02,-0.02 0.45,0.12 h -0.02 c -0.41,0 -0.79,-0.27 -0.94,-0.65 l -0.02,-0.02 0.38,0.43 h -0.02 c -0.07,-0.05 -0.12,-0.07 -0.17,-0.12 l -0.02,-0.05 c -0.17,-0.17 -0.29,-0.43 -0.29,-0.67 v -0.05 l 0.55,0.89 h -0.02 c -0.15,-0.07 -0.24,-0.17 -0.34,-0.27 l -0.5,-0.57 v 0 l -0.36,-0.43 v 0 l -0.12,-0.15 0.09,0.1 -0.16,-0.12 h 0.02 l -0.17,-0.12 0.05,0.02 -0.19,-0.12 -0.07,-0.07 -0.22,-0.19 0.12,0.09 -0.05,-0.04 0.1,0.07 -0.07,-0.05 -0.05,-0.02 -0.07,-0.05 h -0.05 l -0.07,-0.05 0.26,0.1 -0.07,-0.03 c -0.07,0 -0.12,-0.02 -0.19,-0.07 l -0.08,-0.02 0.17,0.07 -0.07,-0.03 0.07,0.03 -0.12,-0.05 0.36,0.02 -0.07,0.03 c -0.05,0 -0.1,0 -0.14,0 h -0.03 v 0 h -0.05 l 0.72,-0.29 h -0.02 c -0.19,0.19 -0.43,0.31 -0.72,0.31 h -0.05 v 0 h -0.02 l 0.26,-0.02 h -0.05 l 0.65,-0.53 v 0.02 c -0.09,0.2 -0.26,0.34 -0.45,0.46 h -0.05 l 0.14,-0.07 -0.02,0.02 -0.05,0.03 -0.02,0.02 c -0.17,0.12 -0.39,0.17 -0.58,0.17 h -0.05 l 0.72,-0.29 v 0 0 l -0.02,0.05 0.17,-0.27 -0.03,0.05 c -0.17,0.34 -0.5,0.55 -0.91,0.55 v 0 l 0.86,-0.5 -0.02,0.07 c -0.05,0.05 -0.1,0.12 -0.17,0.19 l -0.02,0.03 0.14,-0.17 -0.02,0.05 0.02,-0.05 -0.24,0.36 0.05,-0.05 -0.07,0.12 0.07,-0.14 -0.05,0.14 c -0.02,0.05 -0.02,0.07 -0.07,0.12 l -0.05,0.15 v -0.05 l -0.12,0.29 c -0.02,0.02 -0.02,0.07 -0.05,0.12 l -0.14,0.24 0.05,-0.12 -0.03,0.04 c -0.04,0.1 -0.09,0.2 -0.16,0.27 l -0.05,0.07 0.02,-0.02 -0.07,0.07 c -0.05,0.05 -0.05,0.07 -0.07,0.09 l -0.07,0.08 v 0 h -0.03 l 0.31,-0.7 v 0 c -0.02,0.29 -0.12,0.53 -0.31,0.72 -0.19,0.19 -0.43,0.29 -0.72,0.29 h -0.02 l 0.98,-0.67 -0.02,0.02 c -0.1,0.24 -0.27,0.46 -0.51,0.58 l -0.04,0.02 0.26,-0.19 -0.02,0.05 c -0.2,0.16 -0.46,0.26 -0.7,0.26 h -0.05 l 0.84,-0.43 -0.02,0.02 c -0.17,0.29 -0.48,0.46 -0.84,0.46 h -0.05 v 0 0 h -0.02 v 0 l 0.72,-0.29 h -0.03 c -0.19,0.22 -0.43,0.29 -0.72,0.29 h -0.02 l 0.26,-0.03 -0.05,0.03 c -0.07,0 -0.16,0.02 -0.26,0.02 h -0.02 0.02 -0.05 c -0.19,0 -0.36,-0.07 -0.5,-0.17 l -0.12,-0.07 h -0.03 l -0.07,-0.05 c -0.05,-0.04 -0.12,-0.09 -0.14,-0.14 h -0.03 l 0.15,0.12 -0.05,-0.02 c -0.07,-0.05 -0.12,-0.1 -0.17,-0.15 l -0.02,-0.02 v 0 l -0.05,-0.05 c -0.07,-0.07 -0.12,-0.17 -0.19,-0.26 v -0.05 l 0.43,0.45 -0.05,-0.02 c -0.21,-0.12 -0.38,-0.29 -0.48,-0.53 v -0.05 l 0.22,0.34 -0.05,-0.02 v 0 l -0.05,-0.05 c -0.07,-0.1 -0.14,-0.22 -0.21,-0.36 l -0.03,-0.05 v -0.05 l -0.02,-0.07 0.48,0.6 -0.03,-0.02 c -0.33,-0.17 -0.55,-0.53 -0.55,-0.89 v -0.1 l 0.07,0.39 -0.02,-0.05 0.07,0.14 -0.12,-0.19 v 0 l -0.02,-0.07 -0.05,-0.05 -0.02,-0.07 0.02,0.05 -0.05,-0.1 0.36,0.38 -0.07,-0.04 c -0.14,-0.1 -0.29,-0.22 -0.36,-0.39 l -0.05,-0.07 0.05,0.07 -0.05,-0.07 0.1,0.12 -0.24,-0.26 -0.03,-0.05 -0.09,-0.12 0.07,0.07 -0.07,-0.07 v 0 l -0.07,-0.05 0.07,0.05 -0.05,-0.05 c -0.07,-0.05 -0.1,-0.07 -0.14,-0.12 l -0.05,-0.07 0.31,0.26 -0.05,-0.02 0.46,0.12 h -0.03 c -0.55,0 -0.98,-0.46 -0.98,-1.01 v -0.02 l 0.98,0.98 h -0.02 c -0.55,0 -0.98,-0.43 -0.98,-0.98 v -0.03 l 0.98,0.99 v 0 c -0.29,0 -0.53,-0.1 -0.72,-0.29 l -0.02,-0.03 0.69,0.29 v 0 h -0.02 v 0 l 0.45,-0.09 -0.02,0.02 c -0.14,0.05 -0.29,0.1 -0.43,0.1 h -0.05 v 0 0 0 h -0.05 0.03 -0.03 v 0 h -0.02 v 0 0 0 h -0.05 0.02 -0.02 l 0.7,-0.29 -0.03,0.02 c -0.17,0.17 -0.43,0.29 -0.69,0.29 h -0.03 l 0.96,-0.67 -0.02,0.02 c -0.12,0.41 -0.53,0.67 -0.94,0.67 h -0.02 c -0.41,0 -0.77,-0.24 -0.94,-0.62 -0.14,-0.36 -0.05,-0.79 0.24,-1.08 0.29,-0.29 0.72,-0.36 1.08,-0.22 0.36,0.17 0.6,0.53 0.6,0.94 v 0 c 0,0.29 -0.09,0.53 -0.26,0.72 l -0.24,0.22 0.07,-0.1 -0.07,0.1 v 0 l -0.07,0.09 0.14,-0.24 -0.05,0.12 c -0.02,0.07 -0.07,0.12 -0.09,0.19 l -0.08,0.1 0.03,-0.05 -0.1,0.12 0.1,-0.14 -0.05,0.12 -0.02,0.02 -0.05,0.15 0.02,-0.1 -0.02,0.1 c 0,0.02 -0.03,0.07 -0.05,0.09 l -0.19,0.41 0.02,-0.02 -0.07,0.16 c -0.05,0.05 -0.07,0.1 -0.1,0.15 l -0.09,0.12 v 0.02 l -0.1,0.15 v 0 l -0.07,0.07 0.12,-0.19 -0.02,0.04 c -0.17,0.39 -0.56,0.63 -0.96,0.58 h -0.03 l 0.58,-0.14 -0.03,0.02 0.46,-0.74 v 0 c -0.02,0.31 -0.17,0.55 -0.41,0.72 l -0.05,0.02 -0.04,0.05 -0.03,0.02 0.03,-0.02 -0.05,0.05 c -0.05,0.02 -0.1,0.02 -0.12,0.07 h -0.05 l 0.43,-0.39 -0.02,0.03 c -0.17,0.31 -0.51,0.48 -0.84,0.48 h -0.05 l 0.79,-0.41 -0.02,0.05 c -0.17,0.24 -0.48,0.41 -0.82,0.38 h -0.02 c -0.27,-0.02 -0.53,-0.14 -0.7,-0.33 h -0.02 l 0.55,0.28 h -0.02 c -0.22,-0.04 -0.39,-0.14 -0.53,-0.28 l -0.03,-0.05 0.63,0.31 h -0.03 v 0 h -0.02 c -0.53,-0.02 -0.89,-0.5 -0.84,-1.01 v -0.02 c 0.05,-0.53 0.5,-0.89 1.01,-0.84 0.5,0.02 0.91,0.48 0.86,1.01 -0.05,0.5 -0.5,0.91 -1.03,0.84 h -0.02 c -0.29,0 -0.56,-0.2 -0.72,-0.46 l -0.03,-0.02 c -0.24,-0.44 -0.12,-0.99 0.31,-1.25 0.41,-0.29 0.99,-0.17 1.28,0.24 0.28,0.41 0.19,0.96 -0.2,1.27 h -0.02 c -0.17,0.17 -0.41,0.22 -0.65,0.22 h -0.02 c -0.48,-0.05 -0.89,-0.48 -0.84,-1.01 v -0.03 l 0.24,0.68 -0.03,-0.03 0.63,0.31 h -0.05 c -0.24,-0.02 -0.46,-0.14 -0.62,-0.33 -0.15,-0.19 -0.22,-0.43 -0.22,-0.67 v -0.03 l 0.24,0.7 -0.02,-0.03 0.62,0.32 h -0.05 c -0.48,-0.05 -0.86,-0.48 -0.81,-1.01 v 0 0 -0.03 l 0.21,0.68 v -0.03 c -0.17,-0.19 -0.26,-0.43 -0.24,-0.69 v 0 l 0.12,0.5 -0.55,-1.06 -0.05,-0.09 -0.17,-0.41 -0.02,-0.05 -0.12,-0.43 0.02,0.07 -0.19,-0.48 c -0.17,-0.38 0,-0.81 0.36,-0.98 0.39,-0.17 0.82,-0.05 1.01,0.31 z"
         style="fill:#000000;fill-opacity:1;fill-rule:nonzero;stroke:none"
         transform="matrix(1.3333333,0,0,-1.3333333,0,1120.8)" />
    </g>
    <g
       id="g246"
       transform="translate(1.7555317,1.7555317)">
      <path
         id="path246"
         d="m 321.79,726.55 0.12,0.22 c 0.07,0.07 0.12,0.19 0.12,0.29 v 0.04 l -0.12,-0.31 0.05,0.03 c 0.02,0.07 0.07,0.14 0.07,0.21 v 0.03 l 0.03,0.09 0.02,0.03 -0.31,-0.51 v 0 c 0.07,0.05 0.14,0.12 0.19,0.22 l 0.05,0.02 -0.22,-0.21 0.03,0.02 h -0.03 0.05 c 0.17,0.12 0.29,0.31 0.31,0.53 v 0.05 l -0.12,-0.34 0.03,0.05 -0.75,-0.34 0.05,-0.02 c 0.29,-0.03 0.6,0.12 0.77,0.38 l 0.02,0.07 -0.17,-0.21 0.29,0.26 v 0 l 0.22,0.17 c 0.05,0.05 0.09,0.07 0.14,0.12 l 0.03,0.05 -0.1,-0.1 0.05,0.05 -0.15,-0.12 0.05,0.05 c 0.05,0.02 0.1,0.05 0.15,0.09 l 0.04,0.05 -0.26,-0.14 h 0.05 c 0.05,0.02 0.12,0.05 0.17,0.07 l 0.07,0.07 -0.17,-0.09 0.12,0.04 h 0.02 l 0.05,0.03 0.1,0.05 0.07,0.04 -0.24,-0.09 0.05,0.02 h 0.09 l 0.1,0.05 h 0.05 l 0.07,0.05 -0.31,-0.05 0.07,-0.02 c 0.05,0 0.12,0 0.17,0.02 l 0.19,0.02 -0.05,-0.02 0.17,0.02 h -0.07 0.14 v 0 l 0.17,-0.02 -0.1,0.02 0.17,-0.02 -0.12,0.02 0.17,-0.04 0.07,-0.03 0.46,-0.05 -0.29,0.08 0.14,-0.05 c 0.03,-0.03 0.08,-0.05 0.12,-0.05 l 0.15,-0.07 -0.05,0.02 0.14,-0.05 -0.04,0.03 0.14,-0.07 -0.05,0.02 0.15,-0.07 -0.05,0.02 0.36,-0.24 -0.1,0.1 0.96,-0.79 v 0.02 l 0.19,-0.17 -0.04,0.05 2.78,-2.69 v 0 l 0.31,-0.29 v 0.03 l 1.78,-1.78 0.07,-0.07 0.24,-0.19 v 0.02 l 0.22,-0.21 0.07,-0.03 0.24,-0.19 0.02,-0.02 0.27,-0.17 v 0 l 0.26,-0.17 0.1,-0.05 0.76,-0.38 c 0.05,-0.03 0.1,-0.05 0.15,-0.07 l 0.33,-0.1 c 0.48,-0.14 0.99,0.12 1.11,0.6 0.17,0.48 -0.12,0.98 -0.6,1.13 l -0.31,0.09 0.14,-0.04 -0.79,0.38 0.07,-0.05 -0.26,0.17 h 0.02 l -0.24,0.17 0.02,-0.03 -0.24,0.17 0.05,-0.02 -0.21,0.19 h -0.05 l -0.24,0.19 0.07,-0.05 -1.8,1.78 v 0.02 l -0.31,0.29 v 0 l -2.76,2.64 -0.07,0.05 -0.2,0.17 -0.02,0.02 -0.96,0.77 -0.1,0.07 -0.38,0.22 -0.07,0.02 -0.12,0.1 h -0.05 l -0.14,0.07 -0.05,0.02 -0.12,0.05 h -0.05 l -0.14,0.05 0.12,-0.05 -0.15,0.07 c -0.07,0.05 -0.17,0.08 -0.26,0.1 l -0.46,0.05 h 0.07 l -0.14,0.02 h -0.12 l -0.17,0.03 h -0.07 -0.17 v 0 l -0.14,-0.03 h -0.1 -0.14 l -0.05,-0.02 -0.22,-0.03 0.1,0.03 -0.07,-0.03 c -0.12,0 -0.22,-0.02 -0.34,-0.07 l -0.07,-0.02 h 0.05 l -0.1,-0.03 0.05,0.03 -0.05,-0.05 c -0.07,0 -0.14,-0.05 -0.24,-0.07 l -0.07,-0.07 0.05,0.02 -0.05,-0.02 0.05,0.02 -0.1,-0.05 c -0.07,-0.02 -0.14,-0.07 -0.19,-0.12 l -0.07,-0.05 0.09,0.05 h -0.02 c -0.07,-0.05 -0.12,-0.09 -0.19,-0.14 l -0.05,-0.05 0.12,0.1 -0.05,-0.05 c -0.02,-0.03 -0.07,-0.05 -0.12,-0.1 l -0.02,-0.05 c -0.05,-0.04 -0.1,-0.09 -0.12,-0.14 l -0.03,-0.05 0.12,0.17 -0.19,-0.19 v 0 l -0.26,-0.31 c -0.07,-0.05 -0.12,-0.15 -0.17,-0.22 l -0.02,-0.07 0.62,0.45 h -0.05 c -0.26,-0.04 -0.5,-0.21 -0.62,-0.5 v -0.05 c -0.05,-0.09 -0.05,-0.21 -0.05,-0.33 v -0.05 l 0.12,0.53 v -0.03 0 0 c -0.05,-0.07 -0.07,-0.12 -0.1,-0.17 l -0.02,-0.04 0.1,0.19 -0.03,-0.05 c -0.09,-0.14 -0.14,-0.31 -0.12,-0.5 v -0.03 l 0.03,-0.09 v -0.03 l 0.02,0.46 v -0.05 c -0.05,-0.12 -0.07,-0.24 -0.05,-0.34 v -0.04 c 0,-0.08 0.05,-0.15 0.1,-0.22 l 0.07,-0.22 c 0.12,-0.19 0.29,-0.31 0.5,-0.31 0.22,-0.02 0.41,0.1 0.53,0.24 z"
         style="fill:#000000;fill-opacity:1;fill-rule:nonzero;stroke:none"
         transform="matrix(1.3333333,0,0,-1.3333333,0,1120.8)" />
    </g>
    <g
       id="g247"
       transform="translate(1.7555317,1.7555317)">
      <path
         id="path247"
         d="m 321.1,726.12 0.14,-0.1 0.07,-0.07 h 0.05 v 0 l 0.07,-0.02 -0.26,0.19 0.02,-0.05 c 0.07,-0.07 0.17,-0.14 0.27,-0.19 l 0.04,-0.02 -0.26,0.21 0.05,-0.05 c 0.02,-0.04 0.07,-0.09 0.12,-0.14 h 0.02 -0.02 l 0.05,-0.02 -0.12,0.12 0.02,-0.05 c 0.07,-0.1 0.17,-0.17 0.29,-0.22 l 0.02,-0.02 -0.26,0.24 0.07,-0.12 v 0 l 0.24,-0.29 -0.05,0.05 0.53,-0.82 v 0 l 0.38,-0.62 0.05,-0.05 1.25,-1.68 0.02,-0.05 0.27,-0.33 0.07,-0.05 0.84,-0.82 0.05,-0.02 0.12,-0.12 0.02,-0.03 2.23,-1.77 0.05,-0.03 0.27,-0.19 h 0.02 l 1.03,-0.65 0.05,-0.02 0.29,-0.14 0.05,-0.03 0.28,-0.12 h 0.03 l 0.31,-0.14 0.07,-0.03 0.94,-0.28 h 0.02 l 0.17,-0.05 c 0.05,-0.03 0.1,-0.03 0.12,-0.03 l 0.17,-0.02 h -0.05 l 0.22,-0.02 h 0.04 l 0.2,-0.03 h 0.07 0.17 v 0 h 0.16 0.08 l 0.19,0.03 v 0 l 0.19,0.02 h 0.07 l 0.51,0.1 c 0.07,0.02 0.14,0.02 0.19,0.07 l 0.07,0.02 v 0 l 0.07,0.05 -0.17,-0.07 0.08,0.02 c 0.07,0 0.12,0.03 0.16,0.05 l 0.08,0.02 v 0 l 0.04,0.05 c 0.05,0.03 0.1,0.05 0.12,0.07 l 0.08,0.05 h -0.03 l 0.17,0.1 c 0.05,0.02 0.07,0.07 0.1,0.09 l 0.07,0.08 c 0.31,0.28 0.31,0.79 0,1.1 -0.31,0.31 -0.79,0.31 -1.11,0 l -0.07,-0.07 0.1,0.09 -0.17,-0.12 v -0.02 l -0.07,-0.05 0.12,0.07 -0.07,-0.02 v 0 l -0.05,-0.02 0.14,0.04 H 333 c -0.05,-0.02 -0.1,-0.04 -0.14,-0.07 l -0.08,-0.05 v 0 l -0.04,-0.02 0.19,0.07 -0.53,-0.09 0.1,0.02 -0.2,-0.02 h 0.03 l -0.22,-0.03 h 0.07 -0.16 v 0 h -0.17 0.05 l -0.17,0.03 0.05,-0.03 -0.2,0.05 h -0.04 l -0.17,0.02 0.12,-0.02 -0.17,0.05 v -0.03 l -0.91,0.29 0.07,-0.02 -0.31,0.14 v -0.02 l -0.29,0.14 0.05,-0.02 -0.31,0.14 0.07,-0.02 -1.03,0.62 0.02,-0.02 -0.24,0.19 0.02,-0.05 -2.23,1.78 0.03,-0.05 -0.12,0.12 0.02,-0.02 -0.86,0.81 0.07,-0.05 -0.29,0.34 0.02,-0.05 -1.24,1.68 0.02,-0.05 -0.38,0.63 -0.03,0.02 -0.53,0.79 -0.07,0.1 -0.26,0.26 v 0 l -0.1,0.1 c -0.09,0.12 -0.24,0.19 -0.38,0.22 l -0.05,0.02 0.29,-0.14 -0.03,0.02 c -0.02,0.05 -0.07,0.05 -0.09,0.07 l -0.05,0.03 c -0.05,0.02 -0.1,0.04 -0.14,0.04 l -0.03,0.03 0.22,-0.12 -0.05,0.02 c -0.07,0.07 -0.17,0.12 -0.26,0.12 l -0.05,0.03 0.26,-0.15 -0.02,0.05 c -0.1,0.05 -0.17,0.1 -0.29,0.12 h -0.05 v 0 l -0.05,0.02 0.03,-0.02 -0.17,0.05 c -0.29,0.07 -0.6,-0.07 -0.72,-0.36 -0.12,-0.29 -0.02,-0.6 0.22,-0.77 z"
         style="fill:#000000;fill-opacity:1;fill-rule:nonzero;stroke:none"
         transform="matrix(1.3333333,0,0,-1.3333333,0,1120.8)" />
    </g>
    <g
       id="g248"
       transform="translate(1.7555317,1.7555317)">
      <path
         id="path248"
         d="m 333.19,721.46 -0.02,-0.02 c -0.07,-0.02 -0.12,-0.05 -0.19,-0.1 v -0.02 0 h -0.03 v 0 l -0.02,-0.02 0.19,0.09 h -0.05 c -0.24,-0.09 -0.43,-0.31 -0.45,-0.57 v -0.03 l 0.45,0.58 h -0.02 c -0.07,-0.03 -0.12,-0.07 -0.19,-0.12 v 0 c -0.1,-0.05 -0.17,-0.12 -0.22,-0.22 v -0.02 c -0.05,-0.1 -0.1,-0.17 -0.12,-0.27 v -0.02 l 0.29,0.48 v 0 c -0.07,-0.07 -0.15,-0.14 -0.19,-0.24 l -0.03,-0.02 0.19,0.21 h -0.02 v 0 l -0.02,-0.02 c -0.17,-0.12 -0.27,-0.34 -0.29,-0.55 v -0.05 0.07 0 l 0.09,0.26 -0.02,-0.02 c -0.05,-0.12 -0.1,-0.24 -0.1,-0.36 l -0.02,-0.02 0.34,0.57 -0.03,-0.02 c -0.14,-0.1 -0.24,-0.24 -0.29,-0.41 l -0.02,-0.07 v -0.05 l -0.02,-0.12 -0.03,-0.12 v -0.1 0 l -0.02,-0.09 v -0.05 -0.29 0 -0.05 0 -0.04 0 -0.05 c 0,-0.1 0,-0.19 0.05,-0.27 v -0.07 l 0.02,-0.09 0.02,-0.03 -0.04,0.17 0.02,-0.07 v -0.05 l 0.02,-0.07 0.03,-0.1 0.02,-0.05 0.05,-0.09 0.05,-0.05 -0.1,0.22 0.03,-0.05 0.02,-0.12 0.02,-0.03 c 0.03,-0.09 0.1,-0.16 0.15,-0.24 l 0.07,-0.04 -0.14,0.16 0.07,-0.12 c 0.05,-0.04 0.07,-0.12 0.12,-0.16 l 0.07,-0.08 c 0.22,-0.21 0.53,-0.31 0.84,-0.21 0.29,0.07 0.53,0.31 0.6,0.6 0.1,0.31 0,0.62 -0.22,0.84 l -0.07,0.07 0.15,-0.19 -0.08,0.12 c -0.02,0.07 -0.09,0.12 -0.14,0.19 l -0.05,0.02 0.17,-0.19 -0.02,0.05 0.04,-0.12 -0.02,0.02 c -0.02,0.1 -0.05,0.15 -0.1,0.22 l -0.02,0.05 0.05,-0.1 -0.03,0.05 0.05,-0.12 -0.02,0.05 0.05,-0.07 -0.03,0.07 c -0.02,0.07 -0.05,0.12 -0.07,0.19 l -0.02,0.02 0.04,-0.12 -0.02,0.05 0.05,-0.26 v 0.05 0 0.04 0 0.05 0 0.29 0.05 0.09 0 l -0.03,0.1 v -0.12 l 0.03,0.12 -0.03,-0.1 v 0.05 l -0.14,-0.31 v 0 c 0.14,0.17 0.19,0.36 0.17,0.58 v 0.02 l -0.05,-0.36 v 0.05 c 0.07,0.12 0.1,0.26 0.05,0.43 v 0 l 0.02,-0.07 v 0.05 l -0.17,-0.58 0.03,0.05 v 0 0 c 0.05,0.07 0.07,0.12 0.12,0.19 v 0.05 l -0.12,-0.22 0.02,0.03 c 0.15,0.19 0.19,0.4 0.17,0.62 l -0.02,0.02 -0.05,-0.43 0.02,0.03 -0.09,-0.17 v 0 L 333.72,720 h 0.05 c 0.26,0.17 0.41,0.48 0.36,0.79 v 0.03 l -0.36,-0.8 0.02,0.03 c 0.1,0.05 0.15,0.12 0.22,0.19 v 0 0 l 0.02,0.02 v 0 l 0.03,0.03 -0.22,-0.19 0.02,0.02 c 0.34,0.19 0.46,0.62 0.29,0.98 -0.17,0.34 -0.57,0.51 -0.96,0.36 z"
         style="fill:#000000;fill-opacity:1;fill-rule:nonzero;stroke:none"
         transform="matrix(1.3333333,0,0,-1.3333333,0,1120.8)" />
    </g>
    <g
       id="g249"
       transform="translate(1.7555317,1.7555317)">
      <path
         id="path249"
         d="m 324.48,727.15 c 0,-0.31 -0.26,-0.57 -0.58,-0.57 -0.33,0 -0.57,0.26 -0.57,0.57 0,0.34 0.24,0.58 0.57,0.58 0.32,0 0.58,-0.24 0.58,-0.58 z"
         style="fill:#000000;fill-opacity:1;fill-rule:evenodd;stroke:none"
         transform="matrix(1.3333333,0,0,-1.3333333,0,1120.8)" />
    </g>
    <g
       id="g250"
       transform="translate(1.7555317,1.7555317)">
      <path
         id="path250"
         d="m 325.25,721.61 -0.22,-0.22 -0.07,-0.07 -0.26,-0.29 -0.05,-0.07 -0.22,-0.31 -0.02,-0.05 -0.53,-0.84 v 0.02 l -0.02,-0.02 v 0 l -0.03,-0.07 v 0 l -0.05,-0.05 v 0 l -0.02,-0.05 0.14,0.17 -0.12,-0.1 c -0.02,-0.02 -0.07,-0.07 -0.09,-0.12 l -0.22,-0.24 v 0 l -0.12,-0.14 0.03,0.05 -0.03,-0.03 c -0.31,-0.31 -0.31,-0.84 0,-1.15 0.34,-0.31 0.84,-0.31 1.18,0 l 0.02,0.03 0.03,0.02 0.14,0.14 v 0.05 l 0.22,0.27 -0.1,-0.1 0.12,0.07 c 0.05,0.07 0.1,0.12 0.14,0.19 l 0.03,0.05 v 0 l 0.05,0.05 v 0 l 0.02,0.05 v 0 l 0.05,0.05 v 0.02 l 0.5,0.86 v 0 l 0.22,0.34 -0.05,-0.07 0.24,0.33 v -0.02 l 0.17,0.24 c 0.24,0.31 0.19,0.72 -0.1,0.98 -0.26,0.27 -0.69,0.27 -0.98,0.03 z"
         style="fill:#000000;fill-opacity:1;fill-rule:nonzero;stroke:none"
         transform="matrix(1.3333333,0,0,-1.3333333,0,1120.8)" />
    </g>
    <g
       id="g251"
       transform="translate(1.7555317,1.7555317)">
      <path
         id="path251"
         d="m 326.62,720.31 -0.17,-0.19 -0.07,-0.1 -0.41,-0.69 v -0.03 l -0.12,-0.21 c -0.05,-0.07 -0.07,-0.17 -0.1,-0.27 v -0.02 c -0.02,-0.29 0.12,-0.58 0.36,-0.72 0.24,-0.17 0.58,-0.17 0.82,0 0.24,0.14 0.41,0.43 0.36,0.72 v 0.02 l -0.05,-0.36 0.1,0.22 -0.03,-0.02 0.31,0.72 -0.04,-0.1 0.14,0.19 c 0.19,0.31 0.12,0.72 -0.17,0.94 -0.29,0.21 -0.72,0.17 -0.93,-0.1 z"
         style="fill:#000000;fill-opacity:1;fill-rule:nonzero;stroke:none"
         transform="matrix(1.3333333,0,0,-1.3333333,0,1120.8)" />
    </g>
    <g
       id="g252"
       transform="translate(1.7555317,1.7555317)">
      <path
         id="path252"
         d="m 322.37,717.58 0.24,-0.03 h 0.07 l 0.62,0.05 h -0.07 l 0.91,-0.02 h -0.04 l 0.45,-0.03 h 0.03 l 0.57,-0.05 h -0.02 l 0.26,-0.02 h 0.05 0.29 v 0 l 0.24,-0.02 0.12,0.02 0.65,0.02 0.07,0.03 0.07,0.02 c 0.31,0.05 0.58,0.27 0.67,0.55 0.1,0.29 0.03,0.6 -0.19,0.84 -0.19,0.22 -0.5,0.34 -0.79,0.27 l -0.1,-0.03 h 0.1 l -0.65,-0.04 h 0.05 l -0.24,-0.03 v 0 h -0.29 0.07 -0.26 -0.05 -0.58 v 0 h -0.45 -0.05 l -0.91,-0.05 h -0.03 l -0.62,-0.07 h 0.05 -0.24 c -0.39,-0.05 -0.67,-0.33 -0.67,-0.72 0,-0.36 0.28,-0.67 0.67,-0.69 z"
         style="fill:#000000;fill-opacity:1;fill-rule:nonzero;stroke:none"
         transform="matrix(1.3333333,0,0,-1.3333333,0,1120.8)" />
    </g>
  </g>
</svg>
