<?xml version="1.0" encoding="UTF-8" standalone="no"?>
<!-- Created with Inkscape (http://www.inkscape.org/) -->

<svg
   version="1.1"
   id="svg1"
   width="105"
   height="100.557"
   viewBox="0 0 105 100.55699"
   sodipodi:docname="lesson1_sentence2_word1.svg"
   inkscape:version="1.4.3 (0d15f75, 2025-12-25)"
   xmlns:inkscape="http://www.inkscape.org/namespaces/inkscape"
   xmlns:sodipodi="http://sodipodi.sourceforge.net/DTD/sodipodi-0.dtd"
   xmlns="http://www.w3.org/2000/svg"
   xmlns:svg="http://www.w3.org/2000/svg">
  <defs
     id="defs1">
    <clipPath
       clipPathUnits="userSpaceOnUse"
       id="clipPath39">
      <path
         d="M -7.4400002,6.2400027 H 141.41 V -21.839998 H -7.4400002 Z"
         clip-rule="evenodd"
         id="path39" />
    </clipPath>
    <clipPath
       clipPathUnits="userSpaceOnUse"
       id="clipPath68">
      <path
         d="M -7.4400002,5.4200001 H 105.86 V -18.964 H -7.4400002 Z"
         clip-rule="evenodd"
         id="path68" />
    </clipPath>
    <clipPath
       clipPathUnits="userSpaceOnUse"
       id="clipPath70">
      <path
         d="M -7.4400002,2.7600003 H 104.06 V -9.48 H -7.4400002 Z"
         clip-rule="evenodd"
         id="path70" />
    </clipPath>
    <clipPath
       clipPathUnits="userSpaceOnUse"
       id="clipPath72">
      <path
         d="M -7.4400002,2.7600003 H 42.000001 V -9.48 H -7.4400002 Z"
         clip-rule="evenodd"
         id="path72" />
    </clipPath>
    <clipPath
       clipPathUnits="userSpaceOnUse"
       id="clipPath74">
      <path
         d="M -7.4400002,2.1600001 H 46.080001 V -8.8800002 H -7.4400002 Z"
         clip-rule="evenodd"
         id="path74" />
    </clipPath>
    <clipPath
       clipPathUnits="userSpaceOnUse"
       id="clipPath76">
      <path
         d="M -226.27,2.1600001 H 369.10001 V -8.8800002 H -226.27 Z"
         clip-rule="evenodd"
         id="path76" />
    </clipPath>
    <clipPath
       clipPathUnits="userSpaceOnUse"
       id="clipPath78">
      <path
         d="M -38.540001,2.1600001 H 15.004 V -8.8800002 h -53.544001 z"
         clip-rule="evenodd"
         id="path78" />
    </clipPath>
  </defs>
  <sodipodi:namedview
     id="namedview1"
     pagecolor="#ffffff"
     bordercolor="#000000"
     borderopacity="0.25"
     inkscape:showpageshadow="2"
     inkscape:pageopacity="0.0"
     inkscape:pagecheckerboard="0"
     inkscape:deskcolor="#d1d1d1"
     inkscape:zoom="4.6989032"
     inkscape:cx="68.739445"
     inkscape:cy="20.536707"
     inkscape:window-width="1920"
     inkscape:window-height="1191"
     inkscape:window-x="-9"
     inkscape:window-y="-9"
     inkscape:window-maximized="1"
     inkscape:current-layer="g1">
    <inkscape:page
       x="0"
       y="0"
       inkscape:label="1"
       id="page1"
       width="105"
       height="100.55699"
       margin="0"
       bleed="0" />
  </sodipodi:namedview>
  <g
     id="g1"
     inkscape:groupmode="layer"
     inkscape:label="1"
     transform="translate(-337.32146,-390.30669)">
    <g
       id="g44"
       transform="translate(3.4050499,0.21281562)">
      <path
         id="path44"
         d="m 257.95,528.62 0.89,1.59 0.02,0.09 0.7,1.37 -0.1,-0.19 0.77,1.25 -0.02,-0.03 2.16,3.48 c 0.26,0.44 0.43,0.89 0.45,1.4 v 0.07 l -1.05,-2.11 0.07,0.09 c 0.62,0.55 1.03,1.32 1.08,2.19 v 0.09 -0.09 0.07 c 0.14,1.75 -1.13,3.29 -2.88,3.45 -1.75,0.17 -3.29,-1.12 -3.46,-2.88 -0.16,-1.75 1.13,-3.28 2.88,-3.45 h 0.08 c 0.86,-0.07 1.72,0.19 2.4,0.77 l 0.07,0.07 c 0.62,0.53 0.98,1.29 1.05,2.11 l 0.03,0.07 -3.46,-2.9 h 0.05 c 0.89,-0.07 1.75,0.21 2.4,0.77 l 0.07,0.09 c 0.65,0.55 1.03,1.35 1.11,2.21 v 0.1 c 0.09,1.77 -1.23,3.28 -2.98,3.4 -1.78,0.12 -3.29,-1.2 -3.46,-2.95 -0.12,-1.77 1.18,-3.29 2.93,-3.45 h 0.07 l -2.25,1.24 0.02,-0.04 c 0.63,-0.82 1.59,-1.28 2.59,-1.28 1.01,0.03 1.97,0.51 2.57,1.32 l 0.07,0.1 -2.88,-1.3 h 0.08 c 1.77,-0.16 3.33,1.16 3.5,2.93 v 0.07 l -3.53,-2.92 0.07,-0.03 v 0 h 0.1 c 0.86,-0.09 1.75,0.22 2.42,0.79 l 0.1,0.08 -2.76,-0.75 0.07,-0.02 c 0.99,-0.19 1.99,0.09 2.76,0.77 l 0.07,0.04 -2.28,-0.79 0.17,-0.02 -2.69,1.58 0.08,-0.12 c 0.57,-0.93 1.58,-1.53 2.68,-1.56 h 0.15 l -2.93,1.99 0.02,-0.07 c 0.32,-0.69 0.82,-1.25 1.49,-1.61 l 0.15,-0.07 -0.56,0.36 0.12,-0.12 0.22,-0.14 0.07,-0.07 -0.12,0.09 0.17,-0.12 -1.27,2.83 v -0.04 c -0.07,-1.16 0.43,-2.28 1.37,-2.96 l 0.09,-0.07 c 0.53,-0.36 1.13,-0.57 1.75,-0.62 h 0.08 l -2.91,2.18 0.05,-0.19 c 0.12,-0.26 0.24,-0.5 0.38,-0.74 l 0.17,-0.24 v 0.02 l 0.29,-0.46 -0.02,0.05 0.28,-0.43 -0.26,0.5 0.24,-0.57 0.05,-0.15 0.67,-1.39 -0.17,0.43 0.12,-0.33 0.12,-0.34 0.17,-0.41 -0.05,0.1 0.19,-0.43 c 0.08,-0.17 0.17,-0.36 0.27,-0.51 l 0.24,-0.4 0.05,-0.05 0.21,-0.34 -0.31,0.58 0.17,-0.43 c 0.12,-0.29 0.26,-0.53 0.45,-0.8 l 0.24,-0.31 v 0 l 0.24,-0.33 c 0.1,-0.12 0.22,-0.22 0.32,-0.32 l 0.74,-0.76 -1.01,2.44 v -0.09 c 0,-1.87 1.54,-3.43 3.43,-3.43 h 0.08 l -3.27,2.35 0.05,-0.1 c 0.46,-1.41 1.75,-2.37 3.24,-2.37 h 0.07 l -2.4,1 0.05,-0.04 c 0.65,-0.65 1.51,-1.04 2.42,-1.04 h 0.08 -0.03 0.07 0.03 0.07 -0.02 0.02 0.02 0.1 -0.02 0.07 0.02 0.05 0.02 0.08 l -1.54,0.36 0.07,-0.02 c 0.43,-0.24 0.96,-0.36 1.47,-0.38 h 0.02 0.07 0.07 c 0.92,0 1.8,0.36 2.45,1 l 0.07,0.08 -2.44,-1.01 h 0.07 c 0.91,0 1.8,0.36 2.45,1.01 0.64,0.64 1,1.51 1.03,2.42 v 0.1 c 0,1.92 -1.54,3.45 -3.46,3.48 -1.87,0 -3.43,-1.54 -3.43,-3.44 -0.02,-1.89 1.51,-3.45 3.41,-3.45 h 0.07 c 1.92,-0.03 3.46,1.51 3.48,3.41 v 0.07 c 0,1.92 -1.54,3.45 -3.46,3.48 -1.87,0.02 -3.43,-1.54 -3.43,-3.43 -0.02,-1.9 1.51,-3.44 3.41,-3.46 h 0.07 c 0.53,-0.02 1.08,0.12 1.56,0.36 l 0.15,0.05 c 0.43,0.21 0.79,0.53 1.1,0.89 l 0.17,0.21 -0.43,-0.43 0.21,0.17 0.24,0.21 0.22,0.22 v 0 l 0.24,0.24 c 0.12,0.12 0.21,0.22 0.31,0.34 l 0.36,0.48 -0.17,-0.17 0.77,0.84 c 0.1,0.12 0.19,0.24 0.29,0.36 l 0.14,0.21 0.12,0.22 0.12,0.24 -1.27,-1.27 0.24,0.12 c 0.55,0.33 1.01,0.79 1.32,1.32 l 0.19,0.33 0.05,0.15 0.12,0.21 -0.1,-0.16 0.15,0.24 v -0.05 l 0.36,0.62 c 0.07,0.15 0.14,0.29 0.19,0.46 l 0.07,0.17 c 0.17,0.4 0.27,0.84 0.27,1.29 v 0.24 l -1.95,-3.09 0.17,0.07 c 0.82,0.41 1.44,1.13 1.75,2.01 l 0.07,0.2 -0.07,-0.2 0.07,0.2 -0.79,-1.16 0.17,0.15 v 0 l 0.12,0.14 c 0.36,0.31 0.6,0.72 0.79,1.15 l 0.07,0.17 -1.68,-1.8 0.15,0.07 c 0.67,0.34 1.2,0.89 1.56,1.54 l 0.07,0.14 -0.65,-0.88 0.17,0.16 v 0 l 0.05,0.08 -0.51,-0.44 0.22,0.17 c 0.19,0.12 0.36,0.24 0.53,0.39 l 0.07,0.09 -0.53,-0.43 0.22,0.14 -0.05,-0.02 0.41,0.24 -1.9,-0.53 h 0.05 v 0 h 0.12 l -0.82,0.1 0.15,-0.03 c 0.26,-0.07 0.55,-0.12 0.81,-0.12 h 0.08 l -2.45,1.04 0.07,-0.08 c 0.65,-0.64 1.51,-1 2.42,-1.03 h 0.03 0.02 0.1 v 0 h 0.12 l -2.86,1.56 0.07,-0.09 c 0.63,-0.99 1.71,-1.56 2.88,-1.56 h 0.1 l -2.47,1.05 0.07,-0.09 c 0.29,-0.27 0.6,-0.51 0.94,-0.68 l 0.14,-0.07 -1.75,2.04 0.02,-0.12 c 0.48,-1.41 1.8,-2.37 3.29,-2.4 h 0.07 l -3.43,3.51 v -0.08 c -0.02,-0.91 0.34,-1.8 1.01,-2.47 l 0.05,-0.07 0.02,-0.02 0.17,-0.17 -0.29,0.33 0.24,-0.31 0.12,-0.14 0.22,-0.24 -0.56,0.89 0.1,-0.24 c 0.07,-0.15 0.14,-0.32 0.24,-0.46 l 0.48,-0.82 -0.19,0.39 0.43,-0.96 0.07,-0.15 0.24,-0.5 -0.17,0.38 0.17,-0.5 c 0.07,-0.17 0.15,-0.34 0.24,-0.5 l 0.22,-0.39 0.09,-0.17 0.75,-1.22 0.07,-0.1 0.07,-0.12 c 0.12,-0.19 0.29,-0.36 0.43,-0.52 l 0.08,-0.08 -0.53,0.68 0.12,-0.17 c 0.62,-1.06 1.75,-1.71 3,-1.71 h 0.07 l -3.14,1.92 0.07,-0.12 c 0.17,-0.36 0.38,-0.64 0.67,-0.93 l 0.1,-0.1 v 0 l 0.07,-0.07 c 0.67,-0.65 1.56,-1.03 2.47,-1.03 h 0.14 l -1.94,0.6 0.12,-0.07 -0.17,0.12 0.15,-0.12 c 0.16,-0.12 0.33,-0.24 0.55,-0.32 l 0.12,-0.09 -1.56,1.56 0.02,-0.07 c 0.48,-0.92 1.3,-1.56 2.31,-1.8 l 0.14,-0.05 c 0.29,-0.07 0.58,-0.12 0.84,-0.12 h 0.07 v 0 h 0.17 l -2.47,1.05 0.07,-0.09 c 0.67,-0.65 1.56,-1.03 2.5,-1.01 h 0.14 v 0 h 0.1 l -0.44,0.02 0.29,-0.04 c 0.41,-0.05 0.82,-0.03 1.2,0.07 l 0.31,0.07 0.22,0.05 0.24,0.07 c 0.22,0.05 0.41,0.14 0.6,0.24 l 0.29,0.14 -0.6,-0.24 0.26,0.08 c 0.29,0.09 0.6,0.24 0.89,0.4 l 0.29,0.17 -0.12,-0.07 0.24,0.14 -0.17,-0.09 0.29,0.17 c 0.12,0.04 0.24,0.12 0.36,0.19 l 0.24,0.17 c 0.12,0.07 0.24,0.19 0.36,0.28 l 0.69,0.6 -0.28,-0.21 0.64,0.48 0.17,0.12 0.58,0.48 0.07,0.05 0.53,0.48 c 0.12,0.12 0.24,0.24 0.36,0.36 l 0.45,0.52 0.03,0.03 1.25,1.46 v 0.03 l 1.72,2.06 -1.08,-0.86 0.12,0.07 c 1.18,0.57 1.92,1.8 1.9,3.09 v 0.08 l -0.98,-2.45 0.07,0.07 -0.53,-0.43 0.1,0.07 c 0.57,0.38 1.03,0.94 1.27,1.58 l 0.09,0.17 -3.16,-2.16 h 0.07 c 0.53,0 1.03,0.12 1.51,0.36 l 0.14,0.07 c 0.32,0.17 0.63,0.41 0.89,0.68 l 0.07,0.07 v 0 l 0.08,0.07 -2.43,-1.03 h 0.1 c 0.93,0 1.8,0.38 2.45,1.03 l 0.04,0.07 -2.4,-1.03 h 0.08 -0.03 0.15 c 0.91,0 1.8,0.38 2.44,1.03 l 0.05,0.07 -2.42,-1.03 h 0.14 c 0.43,0 0.87,0.1 1.27,0.27 l 0.2,0.04 -1.28,-0.24 h 0.15 l -2.45,0.99 0.1,-0.07 h -0.03 l 0.12,-0.1 c 0.65,-0.65 1.51,-1.01 2.43,-0.98 h 0.14 0.02 0.08 l -1.92,0.55 0.12,-0.07 -0.96,0.93 0.07,-0.09 c 0.31,-0.51 0.77,-0.89 1.32,-1.16 l 0.12,-0.07 -0.36,0.22 0.12,-0.07 -0.15,0.09 0.15,-0.09 -0.72,0.69 0.12,-0.17 -0.7,2.04 v -0.09 c 0.03,-0.91 0.39,-1.75 1.01,-2.4 l 0.26,-0.24 0.03,-0.03 0.12,-0.14 -0.72,1.06 0.09,-0.24 0.2,-0.36 0.14,-0.24 c 0.07,-0.12 0.14,-0.24 0.24,-0.36 l 0.12,-0.15 -0.26,0.36 0.16,-0.24 -0.28,0.6 0.09,-0.31 c 0.1,-0.24 0.19,-0.46 0.34,-0.7 l 0.09,-0.16 -0.36,0.81 0.08,-0.24 v 0 l 0.07,-0.24 0.05,-0.12 0.21,-0.65 -0.17,1.01 v -0.31 c 0,-0.19 0.03,-0.38 0.05,-0.58 l 0.05,-0.21 c 0.05,-0.24 0.12,-0.48 0.22,-0.72 l 0.07,-0.17 c 0.05,-0.14 0.12,-0.26 0.21,-0.38 l 0.15,-0.24 -0.46,2.13 -0.02,-0.26 c -0.12,-0.82 0.09,-1.66 0.57,-2.33 l 0.15,-0.22 -0.07,0.12 0.09,-0.16 -0.21,0.38 0.16,-0.34 c 0.05,-0.12 0.12,-0.24 0.2,-0.36 l 0.12,-0.19 -0.12,0.19 0.07,-0.12 c 0.09,-0.16 0.17,-0.28 0.24,-0.4 l 0.21,-0.24 -0.14,0.19 0.1,-0.19 0.21,-0.29 0.41,-0.51 c 0.07,-0.09 0.17,-0.21 0.26,-0.31 l 0.08,-0.05 c 0.64,-0.62 1.48,-0.96 2.35,-0.96 h 0.12 0.02 0.07 v 0 h 0.08 -0.05 l 0.17,0.03 h 0.02 0.07 l -3.19,2.21 0.05,-0.1 c 0.45,-1.34 1.73,-2.23 3.14,-2.23 h 0.15 0.04 0.08 v 0 h 0.04 v 0 h 0.1 c 0.89,0.02 1.73,0.38 2.33,1.01 l 0.07,0.07 -2.3,-0.99 h 0.07 -0.03 0.15 0.02 0.07 0.08 0.02 c 0.48,0.03 0.94,0.15 1.37,0.36 l 0.14,0.08 -1.41,-0.36 h 0.07 c 0.84,0 1.68,0.36 2.28,1 l 0.07,0.08 -0.53,-0.44 0.22,0.12 -0.17,-0.09 0.24,0.14 -0.17,-0.09 0.36,0.19 0.36,0.19 0.31,0.22 0.2,0.16 0.69,0.53 c 0.19,0.15 0.36,0.31 0.51,0.51 l 0.33,0.4 -0.5,-0.5 0.36,0.29 c 0.14,0.12 0.26,0.24 0.38,0.36 l 0.36,0.41 c 0.12,0.12 0.24,0.26 0.31,0.43 l 0.77,1.17 -0.12,-0.16 0.29,0.4 -0.12,-0.16 0.34,0.4 c 0.09,0.12 0.16,0.24 0.24,0.36 l 0.28,0.48 -0.43,-0.55 0.75,0.79 h 0.02 l 0.58,0.6 0.24,0.29 0.09,0.15 -0.29,-0.36 0.08,0.09 0.24,0.27 0.12,0.16 c 0.16,0.2 0.28,0.39 0.38,0.58 l 0.07,0.14 -1.44,-1.44 0.12,0.08 c 0.43,0.21 0.79,0.5 1.11,0.86 l 0.12,0.19 -1.08,-0.89 0.14,0.08 0.36,0.21 0.31,0.19 -1.8,-0.52 h 0.07 v 0 h 0.08 c 0.86,0 1.68,0.33 2.3,0.93 l 0.07,0.07 -2.3,-0.96 h 0.02 0.03 0.04 v 0 h 0.08 l -2.31,0.96 0.07,-0.07 c 0.63,-0.6 1.44,-0.93 2.33,-0.93 h 0.05 l -2.3,0.93 0.04,-0.05 v 0.03 l 0.08,-0.07 c 0.6,-0.63 1.44,-0.96 2.3,-0.96 h 0.07 v 0 h 0.07 l -2.32,0.96 0.09,-0.08 -0.96,2.31 v -0.1 c 0,-1.8 1.47,-3.29 3.27,-3.29 h 0.02 0.02 0.05 l -2.3,0.96 0.07,-0.07 -0.94,2.31 v -0.08 c 0,-1.8 1.44,-3.24 3.24,-3.24 h 0.08 c 1.32,0 2.52,0.8 3,2 0.52,1.22 0.24,2.64 -0.7,3.57 -0.94,0.91 -2.33,1.2 -3.55,0.7 -1.23,-0.51 -2.02,-1.71 -2.02,-3.03 v -0.09 0 -0.07 c 0,-0.87 0.36,-1.71 0.96,-2.31 0.63,-0.6 1.47,-0.96 2.31,-0.96 h 0.04 l -2.83,1.68 0.31,-0.57 c 0.08,-0.15 0.17,-0.29 0.27,-0.41 l 0.26,-0.34 -0.29,0.43 0.17,-0.31 0.03,-0.07 0.26,-0.43 -0.02,0.05 0.16,-0.32 v 0 l 0.2,-0.31 h -0.03 l 0.22,-0.38 -0.27,0.62 0.32,-1.08 v 0.05 l 0.07,-0.26 0.05,-0.12 0.07,-0.24 -0.1,0.4 0.03,-0.19 0.07,-0.24 0.05,-0.26 c 0.04,-0.12 0.09,-0.27 0.16,-0.39 l 0.1,-0.24 c 0.17,-0.38 0.38,-0.72 0.7,-1.03 l 0.14,-0.14 -0.89,1.65 0.03,-0.16 c 0.07,-0.34 0.19,-0.68 0.36,-0.96 l 0.14,-0.27 -0.07,0.15 0.07,-0.12 -0.1,0.16 0.12,-0.24 c 0.17,-0.4 0.41,-0.74 0.68,-1.03 l 0.33,-0.33 c 0.63,-0.6 1.44,-0.94 2.31,-0.94 h 0.09 c 1.8,0 3.24,1.46 3.24,3.26 0,1.8 -1.46,3.24 -3.26,3.24 -1.8,0 -3.27,-1.44 -3.27,-3.24 v -0.12 c 0,-1.08 0.56,-2.11 1.47,-2.71 l 0.09,-0.07 -0.48,0.41 0.08,-0.07 c 0.6,-0.6 1.44,-0.96 2.3,-0.96 h 0.07 l -2.73,1.46 0.09,-0.12 c 0.6,-0.91 1.61,-1.44 2.71,-1.44 h 0.03 v 0 h 0.14 l -3.24,3.26 v -0.09 c 0,-1.8 1.44,-3.24 3.24,-3.24 h 0.15 l -3.1,2.21 0.05,-0.1 c 0.43,-1.34 1.7,-2.23 3.09,-2.23 h 0.08 -0.03 0.07 v 0 h 0.17 v 0 h 0.07 v 0 h 0.05 -0.02 0.14 v 0 h 0.07 v 0 h 0.08 v 0 h 0.09 0.03 0.04 c 0.89,0 1.71,0.36 2.33,0.96 l 0.05,0.09 -2.28,-0.96 h 0.07 c 0.51,0 1.01,0.12 1.44,0.34 l 0.15,0.05 -1.47,-0.31 h 0.12 c 0.65,0 1.27,0.16 1.8,0.52 l 0.43,0.29 0.27,0.19 0.38,0.34 -0.38,-0.29 0.36,0.22 c 0.21,0.14 0.43,0.31 0.62,0.5 l 0.31,0.31 -0.26,-0.24 0.36,0.29 c 0.19,0.15 0.36,0.31 0.5,0.48 l 0.32,0.41 -0.34,-0.36 0.36,0.31 -0.02,-0.02 0.33,0.31 c 0.24,0.22 0.48,0.5 0.65,0.82 l 0.29,0.48 -0.12,-0.17 0.57,0.86 -0.07,-0.09 0.84,1.12 0.05,0.08 0.5,0.79 -0.19,-0.29 0.19,0.26 c 0.29,0.32 0.48,0.68 0.63,1.08 l 0.07,0.22 -0.36,-0.77 0.19,0.31 -0.41,-0.5 0.17,0.14 0.17,0.2 0.19,0.24 0.05,0.04 0.17,0.22 -0.53,-0.53 0.41,0.34 c 0.14,0.09 0.24,0.17 0.36,0.29 l 0.07,0.07 -2.3,-0.94 h 0.07 c 1.22,0 2.35,0.67 2.9,1.8 l 0.05,0.05 -0.62,-0.84 0.07,0.07 -2.31,-0.93 h 0.1 c 1.08,0 2.09,0.52 2.69,1.44 l 0.07,0.09 -4.15,-1.08 0.07,-0.05 c 0.46,-0.24 0.96,-0.36 1.46,-0.36 h 0.05 v 0 h 0.07 v 0 h 0.05 v 0 h 0.07 v 0 h 0.15 v 0 h 0.07 v 0 h 0.07 v 0 h 0.05 v 0 h 0.07 l -1.97,0.68 0.15,-0.12 c 0.57,-0.44 1.25,-0.65 1.94,-0.65 h 0.07 l -2.9,1.8 0.05,-0.07 c 0.55,-1.11 1.65,-1.8 2.9,-1.8 h 0.07 l -2.3,0.96 0.07,-0.08 -0.41,0.48 0.1,-0.09 c 0.6,-0.91 1.58,-1.47 2.69,-1.47 h 0.07 l -2.9,1.8 0.02,-0.07 c 0.17,-0.31 0.36,-0.6 0.62,-0.84 l 0.08,-0.07 -0.22,0.24 0.5,-0.62 -0.02,0.02 0.48,-0.58 -0.24,0.34 0.36,-0.58 0.05,-0.07 0.43,-0.65 -0.1,0.17 1.01,-1.73 -0.19,0.34 0.36,-0.82 0.12,-0.21 0.41,-0.84 0.19,-0.27 1.44,-2.16 c 0.07,-0.12 0.17,-0.24 0.26,-0.36 l 0.58,-0.64 c 1.2,-1.35 3.24,-1.47 4.58,-0.27 1.35,1.18 1.47,3.22 0.27,4.56 l -0.58,0.67 0.29,-0.36 -1.44,2.16 0.17,-0.31 -0.43,0.82 0.09,-0.19 -0.36,0.81 -0.14,0.36 -1.01,1.71 -0.12,0.16 -0.43,0.65 0.07,-0.09 -0.36,0.57 -0.24,0.34 -0.48,0.57 v 0 l -0.5,0.63 -0.22,0.21 -0.07,0.08 0.6,-0.84 -0.03,0.09 c -0.55,1.08 -1.68,1.78 -2.9,1.78 h -0.07 l 2.71,-1.44 -0.07,0.09 c -0.12,0.2 -0.27,0.36 -0.41,0.51 l -0.07,0.07 c -0.63,0.6 -1.47,0.94 -2.31,0.94 h -0.07 l 2.91,-1.78 -0.05,0.07 c -0.53,1.11 -1.66,1.8 -2.91,1.8 h -0.07 l 1.97,-0.65 -0.17,0.1 c -0.55,0.43 -1.25,0.65 -1.92,0.65 h -0.07 v 0 h -0.05 v 0 h -0.07 v 0 h -0.07 v 0 h -0.15 v 0 h -0.07 v 0 h -0.05 v 0 h -0.07 v 0 h -0.05 l 1.44,-0.34 -0.07,0.03 c -1.46,0.72 -3.24,0.26 -4.15,-1.11 l -0.07,-0.09 2.71,1.44 h -0.1 c -0.84,0 -1.68,-0.34 -2.28,-0.96 l -0.07,-0.08 c -0.24,-0.24 -0.45,-0.52 -0.6,-0.84 l -0.05,-0.07 2.91,1.8 h -0.07 c -0.87,0 -1.68,-0.33 -2.31,-0.96 l -0.05,-0.05 0.34,0.29 -0.43,-0.33 c -0.19,-0.15 -0.39,-0.32 -0.53,-0.51 l -0.19,-0.21 0.02,0.04 -0.21,-0.26 0.16,0.19 -0.14,-0.14 c -0.14,-0.17 -0.29,-0.34 -0.41,-0.51 l -0.19,-0.31 c -0.17,-0.24 -0.31,-0.5 -0.41,-0.79 l -0.05,-0.22 0.6,1.08 -0.21,-0.24 -0.22,-0.28 -0.53,-0.8 0.05,0.08 -0.84,-1.16 -0.05,-0.07 -0.57,-0.86 -0.12,-0.19 -0.29,-0.51 0.67,0.82 -0.33,-0.29 -0.03,-0.02 -0.36,-0.32 c -0.12,-0.12 -0.21,-0.21 -0.31,-0.36 l -0.34,-0.38 0.48,0.48 -0.36,-0.29 -0.26,-0.24 -0.34,-0.33 0.65,0.5 -0.36,-0.22 c -0.14,-0.07 -0.29,-0.16 -0.41,-0.28 l -0.38,-0.32 0.26,0.2 -0.43,-0.29 1.8,0.55 h -0.12 c -0.48,0 -1.01,-0.12 -1.44,-0.34 l -0.17,-0.07 1.49,0.34 h -0.07 c -0.86,0 -1.7,-0.34 -2.33,-0.94 l -0.05,-0.09 2.28,0.96 h -0.04 -0.03 -0.09 v 0 h -0.08 v 0 h -0.07 v 0 h -0.14 0.02 -0.05 v 0 h -0.07 v 0 h -0.17 v 0 h -0.07 0.03 -0.08 l 3.1,-2.24 -0.05,0.12 c -0.43,1.32 -1.68,2.21 -3.09,2.21 h -0.15 c -1.8,0 -3.24,-1.44 -3.24,-3.26 -0.02,-1.78 1.44,-3.24 3.24,-3.24 1.8,0 3.27,1.44 3.27,3.24 v 0.09 c 0,0.84 -0.34,1.68 -0.96,2.28 -0.6,0.63 -1.44,0.96 -2.31,0.96 h -0.14 v 0 h -0.03 l 2.72,-1.44 -0.08,0.1 c -0.6,0.91 -1.63,1.46 -2.71,1.46 h -0.07 l 2.3,-0.96 -0.07,0.08 c -0.17,0.16 -0.31,0.28 -0.5,0.4 l -0.1,0.08 1.44,-2.72 v 0.12 c 0,1.8 -1.44,3.24 -3.24,3.24 h -0.09 l 2.3,-0.96 -0.31,0.34 0.69,-1.01 -0.12,0.24 -0.07,0.17 -0.07,0.14 -0.1,0.17 -0.14,0.24 0.38,-0.96 -0.04,0.17 c -0.12,0.62 -0.44,1.22 -0.89,1.66 l -0.15,0.14 0.7,-1.01 -0.12,0.24 0.14,-0.38 -0.07,0.26 0.07,-0.26 -0.04,0.17 -0.1,0.4 -0.07,0.2 0.02,-0.12 -0.05,0.24 -0.02,0.04 -0.34,1.08 c -0.04,0.22 -0.14,0.44 -0.24,0.63 l -0.21,0.38 -0.03,0.03 -0.16,0.33 v 0 l -0.2,0.31 -0.02,0.08 -0.26,0.43 0.04,-0.07 -0.19,0.33 c -0.07,0.15 -0.17,0.27 -0.26,0.41 l -0.27,0.34 0.29,-0.41 -0.33,0.57 c -0.58,1.01 -1.66,1.64 -2.84,1.66 h -0.04 l 3.26,-3.26 v 0.07 0 0.09 c 0,1.8 -1.46,3.29 -3.26,3.29 h -0.08 c -1.32,0 -2.49,-0.81 -3,-2.04 -0.52,-1.2 -0.24,-2.61 0.7,-3.53 0.94,-0.96 2.35,-1.22 3.55,-0.72 1.23,0.51 2.02,1.68 2.02,3 v 0.08 c 0,0.88 -0.34,1.7 -0.96,2.32 l -0.07,0.05 c -0.6,0.63 -1.44,0.96 -2.31,0.96 h -0.05 -0.02 -0.02 c -1.32,0 -2.52,-0.79 -3.03,-2.01 -0.48,-1.2 -0.21,-2.62 0.72,-3.56 0.91,-0.91 2.33,-1.2 3.55,-0.69 1.2,0.5 2,1.7 2,3.02 v 0.1 c 0,0.86 -0.34,1.7 -0.94,2.3 l -0.07,0.07 c -0.63,0.6 -1.44,0.96 -2.31,0.96 h -0.07 v 0 h -0.07 l 2.3,-0.96 -0.07,0.08 v 0 l -0.05,0.02 c -0.6,0.62 -1.44,0.96 -2.3,0.96 h -0.05 l 2.28,-0.94 -0.05,0.05 c -0.62,0.63 -1.46,0.96 -2.32,0.96 h -0.08 v 0 h -0.04 -0.03 -0.02 c -0.87,0 -1.71,-0.33 -2.31,-0.96 l -0.07,-0.05 2.31,0.94 h -0.08 v 0 h -0.07 c -0.65,0 -1.27,-0.17 -1.8,-0.53 l -0.33,-0.24 0.36,0.22 -0.15,-0.07 c -0.43,-0.22 -0.79,-0.51 -1.08,-0.87 l -0.17,-0.19 1.11,0.86 -0.15,-0.04 c -0.64,-0.32 -1.15,-0.84 -1.46,-1.47 l -0.07,-0.14 0.38,0.57 -0.17,-0.19 0.27,0.29 -0.07,-0.07 c -0.12,-0.1 -0.22,-0.22 -0.32,-0.36 l -0.12,-0.15 0.24,0.29 -0.55,-0.6 v 0 l -0.74,-0.77 c -0.17,-0.16 -0.31,-0.36 -0.43,-0.55 l -0.29,-0.45 0.26,0.36 -0.33,-0.41 -0.12,-0.15 -0.29,-0.4 -0.12,-0.15 -0.75,-1.2 0.36,0.46 -0.36,-0.39 0.36,0.34 -0.36,-0.29 c -0.16,-0.12 -0.33,-0.29 -0.48,-0.48 l -0.33,-0.38 0.53,0.5 -0.7,-0.55 0.22,0.17 -0.32,-0.22 0.36,0.19 -0.36,-0.16 -0.16,-0.08 -0.24,-0.14 -0.22,-0.14 -0.22,-0.12 c -0.16,-0.12 -0.33,-0.24 -0.48,-0.39 l -0.07,-0.09 2.38,0.93 -0.07,0.03 c -0.53,0 -1.06,-0.12 -1.52,-0.36 l -0.16,-0.05 1.58,0.33 h -0.02 -0.08 -0.07 -0.02 -0.15 0.03 -0.07 c -0.89,0 -1.73,-0.31 -2.38,-0.93 l -0.07,-0.07 2.35,0.93 h -0.1 v 0 h -0.04 v 0 h -0.08 -0.04 -0.15 l 3.12,-2.3 -0.02,0.09 c -0.43,1.37 -1.68,2.28 -3.1,2.33 h -0.07 -0.02 -0.17 0.05 -0.08 v 0 h -0.07 -0.02 -0.12 l 2.35,-1.01 -0.07,0.08 0.24,-0.27 -0.39,0.48 0.27,-0.38 -0.12,0.17 -0.15,0.26 -0.16,0.26 0.28,-0.5 -0.07,0.14 -0.14,0.24 -0.1,0.2 0.19,-0.34 -0.16,0.31 -0.17,0.36 -0.1,0.17 -0.09,0.14 -0.12,0.22 0.48,-2.35 0.04,0.26 c 0.12,0.75 -0.02,1.49 -0.38,2.16 l -0.14,0.24 0.21,-0.45 -0.07,0.19 0.17,-0.7 -0.03,0.22 0.03,-0.53 0.02,0.31 c 0,0.39 -0.05,0.77 -0.17,1.11 l -0.21,0.67 0.05,-0.17 -0.08,0.24 v 0 l -0.07,0.26 c -0.07,0.29 -0.19,0.56 -0.33,0.8 l -0.12,0.19 0.31,-0.67 -0.12,0.33 c -0.05,0.22 -0.15,0.43 -0.27,0.6 l -0.12,0.27 -0.21,0.33 -0.12,0.15 0.21,-0.34 -0.12,0.26 0.15,-0.36 -0.1,0.24 c -0.17,0.41 -0.41,0.77 -0.69,1.08 l -0.15,0.15 -0.02,0.02 -0.27,0.24 0.99,-2.42 0.02,0.09 c 0,0.75 -0.24,1.49 -0.67,2.09 l -0.1,0.12 c -0.21,0.27 -0.43,0.48 -0.67,0.67 l -0.14,0.12 -0.17,0.12 -0.1,0.08 c -0.12,0.09 -0.24,0.14 -0.38,0.21 l -0.14,0.07 1.32,-1.17 -0.08,0.09 c -0.24,0.41 -0.57,0.72 -0.93,0.96 l -0.12,0.08 c -0.55,0.38 -1.2,0.6 -1.87,0.6 h -0.08 -0.02 -0.14 l 2.42,-1.01 -0.1,0.09 v 0 l -0.07,0.08 c -0.65,0.64 -1.51,1 -2.42,1.03 h -0.15 c -0.45,0 -0.88,-0.07 -1.29,-0.24 l -0.17,-0.07 1.27,0.24 h -0.14 c -0.91,0 -1.78,-0.36 -2.43,-0.99 l -0.07,-0.07 2.43,0.98 h -0.15 0.03 -0.08 c -0.91,0 -1.8,-0.33 -2.44,-0.98 l -0.08,-0.07 2.43,0.98 h -0.1 c -0.91,0 -1.77,-0.33 -2.42,-0.98 l -0.07,-0.07 v 0 l -0.1,-0.08 0.89,0.65 -0.12,-0.09 1.56,0.36 h -0.07 c -1.42,0.02 -2.72,-0.84 -3.24,-2.14 l -0.08,-0.17 1.3,1.56 -0.12,-0.05 c -0.17,-0.14 -0.36,-0.28 -0.5,-0.43 l -0.08,-0.07 c -0.64,-0.65 -1,-1.49 -1.03,-2.42 v -0.08 l 1.92,3.05 -0.14,-0.05 c -0.43,-0.21 -0.79,-0.52 -1.11,-0.88 l -1.72,-2.02 v 0 l -1.25,-1.46 0.02,0.04 -0.45,-0.55 0.33,0.36 -0.55,-0.45 0.1,0.04 -0.58,-0.45 0.17,0.12 -0.67,-0.46 -0.29,-0.24 -0.67,-0.6 0.38,0.31 -0.19,-0.16 0.36,0.21 -0.29,-0.12 -0.17,-0.09 -0.26,-0.15 -0.12,-0.07 -0.29,-0.17 0.91,0.39 -0.26,-0.08 c -0.19,-0.07 -0.41,-0.14 -0.6,-0.24 l -0.29,-0.14 0.6,0.24 -0.24,-0.07 0.19,0.05 -0.31,-0.08 1.18,0.05 -0.29,0.05 c -0.15,0.02 -0.29,0.02 -0.43,0.02 h -0.1 v 0 h -0.14 l 2.47,-1.03 -0.07,0.07 c -0.68,0.68 -1.56,1.04 -2.5,1.04 h -0.17 v 0 h -0.07 l 0.84,-0.12 -0.14,0.04 2.28,-1.82 -0.03,0.05 c -0.33,0.69 -0.89,1.25 -1.56,1.58 l -0.14,0.07 0.53,-0.31 -0.15,0.1 -0.14,0.09 -0.12,0.08 c -0.58,0.4 -1.25,0.6 -1.95,0.6 h -0.14 l 2.5,-1.04 -0.1,0.08 v 0 l -0.1,0.12 0.65,-0.92 -0.07,0.15 c -0.6,1.17 -1.8,1.94 -3.12,1.94 h -0.07 l 3,-1.73 -0.12,0.2 c -0.15,0.24 -0.31,0.48 -0.53,0.67 l -0.07,0.07 0.43,-0.53 -0.07,0.12 0.07,-0.12 -0.74,1.23 0.09,-0.15 -0.21,0.39 0.21,-0.51 -0.19,0.51 c -0.02,0.12 -0.1,0.26 -0.14,0.38 l -0.27,0.5 0.07,-0.14 -0.43,0.98 c -0.07,0.12 -0.14,0.24 -0.21,0.39 l -0.48,0.81 0.19,-0.43 -0.1,0.27 c -0.14,0.33 -0.33,0.62 -0.55,0.88 l -0.24,0.24 0.12,-0.12 -0.24,0.32 c -0.1,0.12 -0.19,0.21 -0.29,0.33 l -0.19,0.17 v 0.02 l -0.07,0.08 1.03,-2.48 v 0.08 c 0,0.93 -0.38,1.82 -1.03,2.47 -0.67,0.65 -1.56,1.01 -2.5,0.98 h -0.07 l 3.34,-2.35 -0.03,0.1 c -0.31,0.88 -0.93,1.6 -1.75,2.01 l -0.17,0.07 0.89,-0.64 -0.05,0.09 c -0.67,0.63 -1.56,0.99 -2.47,0.99 h -0.1 l 2.91,-1.56 -0.07,0.12 c -0.65,0.96 -1.76,1.56 -2.93,1.53 h -0.12 v 0 h -0.1 -0.02 -0.03 l 2.5,-1.01 -0.07,0.08 c -0.65,0.64 -1.54,1 -2.47,1 h -0.08 l 0.87,-0.09 -0.15,0.02 c -0.28,0.07 -0.57,0.12 -0.86,0.12 h -0.12 v 0 h -0.05 c -0.67,-0.02 -1.29,-0.21 -1.85,-0.57 l -0.38,-0.24 -0.07,-0.05 -0.22,-0.15 c -0.19,-0.12 -0.38,-0.28 -0.55,-0.45 l -0.07,-0.07 0.55,0.45 -0.22,-0.14 c -0.19,-0.15 -0.38,-0.29 -0.55,-0.46 l -0.07,-0.07 0.02,0.02 -0.19,-0.19 c -0.26,-0.26 -0.48,-0.57 -0.62,-0.91 l -0.1,-0.14 1.56,1.56 -0.14,-0.08 c -0.77,-0.38 -1.35,-1.03 -1.66,-1.8 l -0.07,-0.19 0.77,1.18 -0.17,-0.15 v 0 l -0.12,-0.16 c -0.34,-0.32 -0.6,-0.72 -0.77,-1.16 l -0.07,-0.19 -0.07,-0.17 -0.07,-0.24 1.72,2.02 -0.14,-0.07 c -1.15,-0.58 -1.9,-1.78 -1.9,-3.1 v -0.24 l 0.27,1.27 -0.1,-0.16 0.24,0.48 -0.36,-0.63 -0.02,-0.02 -0.15,-0.27 -0.07,-0.16 -0.12,-0.22 0.07,0.14 -0.19,-0.31 1.32,1.32 -0.26,-0.17 c -0.53,-0.28 -0.99,-0.74 -1.27,-1.27 l -0.15,-0.24 0.12,0.19 -0.14,-0.21 0.29,0.36 -0.77,-0.87 -0.15,-0.16 -0.36,-0.48 0.32,0.33 -0.27,-0.24 v 0 l -0.19,-0.21 0.22,0.21 -0.22,-0.19 c -0.17,-0.14 -0.31,-0.26 -0.46,-0.43 l -0.14,-0.22 1.08,0.87 -0.12,-0.08 1.51,0.39 h -0.07 c -1.9,-0.03 -3.43,-1.56 -3.41,-3.48 v -0.07 l 3.41,3.48 h -0.07 c -1.9,-0.03 -3.43,-1.56 -3.41,-3.48 v -0.1 l 3.41,3.46 h -0.07 c -0.92,0 -1.78,-0.36 -2.43,-1.01 l -0.07,-0.07 2.42,1 h -0.07 -0.07 -0.02 l 1.6,-0.36 -0.07,0.05 c -0.48,0.24 -1.01,0.36 -1.53,0.36 h -0.08 -0.02 -0.05 -0.02 -0.07 0.02 -0.1 -0.02 -0.02 0.02 -0.07 -0.03 -0.07 0.03 -0.08 l 2.45,-1.01 -0.07,0.08 c -0.65,0.64 -1.54,1 -2.45,1 h -0.07 l 3.29,-2.32 -0.05,0.09 c -0.48,1.39 -1.8,2.33 -3.26,2.33 h -0.08 c -1.39,-0.02 -2.64,-0.86 -3.16,-2.14 -0.53,-1.29 -0.22,-2.76 0.76,-3.74 0.99,-0.98 2.48,-1.27 3.75,-0.72 1.27,0.53 2.11,1.78 2.11,3.17 v 0.09 c 0,0.89 -0.38,1.76 -1.03,2.4 l -0.75,0.77 0.27,-0.31 -0.24,0.31 v 0 l -0.27,0.31 0.46,-0.76 -0.17,0.43 c -0.09,0.19 -0.19,0.38 -0.31,0.57 l -0.24,0.32 0.05,-0.05 -0.27,0.38 0.29,-0.53 -0.19,0.44 -0.05,0.12 -0.17,0.38 0.12,-0.34 -0.09,0.34 c -0.05,0.14 -0.1,0.26 -0.17,0.38 l -0.7,1.4 0.05,-0.08 -0.26,0.56 c -0.07,0.19 -0.17,0.36 -0.29,0.52 l -0.29,0.44 -0.05,0.04 -0.31,0.44 -0.05,0.04 -0.16,0.24 0.38,-0.64 -0.1,0.16 c -0.55,1.32 -1.87,2.12 -3.28,2.02 h -0.08 l 1.97,-0.48 -0.12,0.07 1.61,-2.61 v 0.04 c -0.1,1.01 -0.6,1.92 -1.42,2.52 l -0.14,0.08 -0.17,0.12 -0.12,0.09 0.1,-0.09 -0.15,0.12 c -0.14,0.09 -0.28,0.16 -0.45,0.24 l -0.15,0.07 1.49,-1.35 -0.05,0.08 c -0.6,1.05 -1.75,1.68 -2.97,1.65 h -0.15 l 2.81,-1.37 -0.09,0.1 c -0.63,0.89 -1.68,1.39 -2.79,1.34 h -0.17 c -0.91,-0.02 -1.75,-0.43 -2.35,-1.1 l -0.07,-0.07 1.87,1.05 -0.07,-0.02 c -0.72,-0.12 -1.37,-0.5 -1.87,-1.06 l -0.05,-0.07 2.16,1.11 h -0.1 v -0.03 h -0.07 c -0.84,-0.07 -1.63,-0.48 -2.21,-1.15 -0.52,-0.65 -0.79,-1.51 -0.72,-2.38 v -0.07 c 0.17,-1.77 1.73,-3.09 3.53,-2.93 1.78,0.17 3.1,1.73 2.93,3.53 -0.17,1.78 -1.73,3.07 -3.5,2.93 l -0.08,-0.02 c -1.03,-0.08 -1.96,-0.65 -2.49,-1.56 l -0.07,-0.1 c -0.89,-1.49 -0.44,-3.41 1,-4.37 1.44,-0.93 3.41,-0.57 4.42,0.84 0.98,1.42 0.7,3.36 -0.67,4.44 l -0.05,0.03 c -0.65,0.48 -1.44,0.72 -2.26,0.64 h -0.07 c -1.73,-0.16 -3.02,-1.65 -2.93,-3.4 v -0.1 l 0.82,2.3 -0.07,-0.07 2.11,1.08 h -0.05 c -0.86,-0.09 -1.63,-0.48 -2.18,-1.15 -0.55,-0.65 -0.82,-1.49 -0.75,-2.33 l 0.03,-0.07 0.79,2.4 -0.1,-0.1 2.12,1.08 h -0.08 c -1.75,-0.16 -3.04,-1.7 -2.88,-3.45 v -0.07 0.09 -0.09 l 0.8,2.28 -0.08,-0.08 c -0.55,-0.67 -0.84,-1.51 -0.76,-2.37 v -0.07 l 0.36,1.77 -1.92,-3.62 -0.15,-0.36 -0.53,-1.37 -0.07,-0.19 -0.45,-1.47 0.09,0.24 -0.69,-1.68 c -0.51,-1.29 0.04,-2.78 1.32,-3.38 1.24,-0.6 2.76,-0.12 3.45,1.1 z"
         style="fill:#000000;fill-opacity:1;fill-rule:nonzero;stroke:none"
         transform="matrix(1.3333333,0,0,-1.3333333,0,1120.8)" />
    </g>
    <g
       id="g45"
       transform="translate(3.4050499,0.21281562)">
      <path
         id="path45"
         d="m 278.16,499.25 1.18,-0.12 0.38,-0.03 7.44,0.17 h -0.07 l 13.46,0.05 -0.24,0.02 1.66,-0.12 h 0.24 0.17 c 1.96,0 3.57,1.59 3.57,3.56 0,1.96 -1.61,3.55 -3.57,3.55 h -0.17 0.05 l -1.64,0.05 h -0.19 l -13.49,-0.53 -0.16,-0.03 -7.42,-0.67 -0.02,-0.02 -1.18,-0.12 c -1.49,-0.15 -2.59,-1.39 -2.59,-2.88 0,-1.49 1.1,-2.74 2.59,-2.88 z"
         style="fill:#000000;fill-opacity:1;fill-rule:nonzero;stroke:none"
         transform="matrix(1.3333333,0,0,-1.3333333,0,1120.8)" />
    </g>
    <g
       id="g46"
       transform="translate(3.4050499,0.21281562)">
      <path
         id="path46"
         d="m 279.36,504.82 -0.55,0.21 1.17,-1.05 -0.04,0.09 c -0.15,0.29 -0.36,0.55 -0.63,0.75 l -0.14,0.12 0.67,-0.8 -0.05,0.1 0.05,-2.09 0.02,0.05 c 0.24,0.53 0.29,1.13 0.15,1.66 l -0.05,0.14 c -0.05,0.17 -0.12,0.34 -0.19,0.48 l -0.05,0.1 v 0 l -0.05,0.07 0.19,-0.48 -0.04,0.17 -0.12,-1.76 0.02,0.08 c 0.34,0.72 0.31,1.56 -0.07,2.23 l -0.05,0.09 0.22,-0.5 -0.05,0.17 c -0.05,0.17 -0.12,0.33 -0.19,0.48 l -0.05,0.09 0.24,-1.77 0.02,0.12 c 0.05,0.26 0.07,0.53 0.05,0.79 v 0.14 l -0.07,-0.79 0.05,0.15 v 0 l 0.02,0.14 -0.19,-0.6 0.02,0.07 c 0.1,0.17 0.15,0.39 0.19,0.58 l 0.03,0.14 0.05,0.29 0.02,0.29 v -0.05 l 0.05,0.43 v 0 l 0.07,0.41 v 0 l 0.05,0.43 -0.07,-0.41 0.33,1.28 -0.09,-0.29 0.33,0.91 -0.02,-0.1 0.33,0.84 0.03,0.08 1.01,2.54 -0.32,-0.58 0.22,0.34 0.14,0.24 0.22,0.43 -0.12,-0.21 0.22,0.33 -0.24,-0.33 0.26,0.33 c 0.12,0.1 0.19,0.22 0.29,0.34 l 0.21,0.36 -0.26,-0.36 0.29,0.36 v 0 l 0.31,0.36 -0.55,-0.53 0.36,0.29 0.21,0.17 0.8,0.72 -0.15,-0.15 0.36,0.29 -0.38,-0.26 0.36,0.21 v 0 l 0.36,0.22 c 0.14,0.07 0.26,0.17 0.38,0.26 l 0.36,0.29 -0.6,-0.38 0.43,0.19 -0.26,-0.1 0.36,0.15 0.26,0.12 0.44,0.19 -0.46,-0.17 0.43,0.12 0.17,0.07 0.36,0.15 -0.74,-0.22 0.48,0.1 c 0.26,0.02 0.52,0.09 0.79,0.19 l 0.36,0.14 -0.79,-0.21 0.5,0.07 -0.48,-0.03 h 0.34 c 0.16,-0.02 0.33,0 0.5,0.03 l 0.5,0.07 -0.48,-0.02 h 0.36 c 0.15,0 0.32,0 0.48,0.02 l 0.51,0.05 -1.06,0.05 0.43,-0.1 c 0.2,-0.02 0.39,-0.05 0.56,-0.05 h 0.43 l -0.55,0.05 0.43,-0.07 v 0 l 0.43,-0.07 v 0 l 0.41,-0.08 -0.51,0.12 0.44,-0.14 c 0.16,-0.05 0.33,-0.1 0.52,-0.12 l 0.44,-0.07 -0.8,0.21 1.01,-0.43 0.15,-0.07 0.57,-0.19 -0.33,0.12 0.57,-0.29 0.34,-0.12 0.57,-0.24 -0.81,0.46 0.53,-0.36 0.28,-0.22 0.51,-0.26 -0.51,0.33 0.44,-0.36 c 0.12,-0.09 0.24,-0.19 0.38,-0.26 l 0.58,-0.36 -0.63,0.48 0.87,-0.87 0.26,-0.24 0.77,-0.64 -0.48,0.5 0.65,-0.79 v 0 l 0.64,-0.79 v 0 l 0.65,-0.8 -0.24,0.34 1.35,-2.14 -0.03,0.05 0.24,-0.36 -0.05,0.07 0.29,-0.5 -0.21,0.43 0.14,-0.36 -0.12,0.34 0.14,-0.51 c 0.08,-0.19 0.15,-0.4 0.24,-0.57 l 0.22,-0.43 -0.31,0.96 0.05,-0.44 0.07,-0.26 0.14,-0.58 -0.07,0.36 0.14,-1 0.05,-0.22 0.07,-0.36 v -0.05 l 0.17,-0.69 c 0.41,-1.83 2.19,-2.98 4.01,-2.62 1.82,0.36 3.02,2.11 2.71,3.94 l -0.12,0.72 -0.02,0.07 -0.07,0.36 0.02,-0.17 -0.14,1.01 -0.08,0.33 -0.12,0.58 0.05,-0.26 -0.07,0.4 c -0.05,0.34 -0.17,0.68 -0.31,0.99 l -0.22,0.43 0.24,-0.6 -0.14,0.5 -0.12,0.34 -0.15,0.36 c -0.04,0.14 -0.12,0.29 -0.19,0.43 l -0.29,0.51 -0.04,0.07 -0.2,0.36 -0.07,0.07 -1.37,2.16 c -0.07,0.12 -0.14,0.22 -0.24,0.34 l -0.64,0.79 v 0 l -0.63,0.79 v 0 l -0.65,0.77 c -0.16,0.19 -0.31,0.36 -0.48,0.5 l -0.79,0.65 0.24,-0.24 -0.84,0.86 c -0.21,0.2 -0.41,0.36 -0.62,0.48 l -0.6,0.36 0.41,-0.26 -0.44,0.36 c -0.16,0.12 -0.33,0.24 -0.5,0.34 l -0.5,0.28 0.28,-0.19 -0.48,0.36 c -0.26,0.19 -0.52,0.31 -0.81,0.43 l -0.58,0.22 0.34,-0.14 -0.58,0.28 -0.33,0.15 -0.56,0.21 0.12,-0.07 -1,0.43 c -0.24,0.12 -0.53,0.2 -0.8,0.24 l -0.43,0.08 0.53,-0.15 -0.43,0.15 c -0.19,0.04 -0.36,0.09 -0.53,0.12 l -0.43,0.07 v 0 l -0.43,0.07 v 0 l -0.44,0.07 c -0.19,0.03 -0.36,0.05 -0.57,0.05 l -0.43,-0.02 0.57,-0.05 -0.43,0.09 c -0.34,0.05 -0.7,0.05 -1.03,0 l -0.53,-0.09 0.5,0.05 h -0.36 c -0.16,0 -0.33,0 -0.5,-0.05 l -0.48,-0.07 0.46,0.04 h -0.34 c -0.17,0 -0.34,-0.02 -0.48,-0.04 l -0.5,-0.08 c -0.29,-0.04 -0.53,-0.12 -0.8,-0.21 l -0.36,-0.15 0.8,0.22 -0.51,-0.07 c -0.26,-0.05 -0.53,-0.12 -0.79,-0.22 l -0.36,-0.14 0.22,0.07 -0.46,-0.14 c -0.14,-0.08 -0.29,-0.12 -0.43,-0.2 l -0.43,-0.21 0.26,0.12 -0.36,-0.15 -0.26,-0.12 -0.41,-0.21 c -0.24,-0.12 -0.43,-0.24 -0.6,-0.39 l -0.36,-0.31 0.36,0.27 -0.36,-0.22 v 0 l -0.36,-0.22 c -0.12,-0.09 -0.24,-0.16 -0.36,-0.26 l -0.36,-0.29 -0.17,-0.14 -0.79,-0.72 0.12,0.09 -0.34,-0.28 c -0.19,-0.17 -0.36,-0.36 -0.5,-0.56 l -0.29,-0.36 v 0 l -0.26,-0.38 c -0.1,-0.12 -0.2,-0.24 -0.27,-0.36 l -0.19,-0.36 0.24,0.36 -0.29,-0.36 c -0.07,-0.12 -0.17,-0.24 -0.24,-0.38 l -0.19,-0.36 -0.12,-0.22 -0.19,-0.43 0.09,0.21 -0.21,-0.36 c -0.1,-0.16 -0.17,-0.38 -0.24,-0.55 l -0.87,-2.61 -0.07,-0.22 -0.24,-0.86 v -0.05 l -0.24,-0.96 -0.02,-0.17 -0.24,-1.3 c -0.05,-0.28 -0.05,-0.62 0,-0.91 l 0.02,-0.43 v 0 l 0.05,-0.41 v 0 l 0.07,-0.43 v 0.05 l 0.03,-0.29 0.04,-0.29 0.03,-0.14 c 0.05,-0.19 0.12,-0.41 0.19,-0.58 l 0.02,-0.07 -0.19,0.6 0.05,-0.14 v 0 -0.15 c 0.14,-0.57 0.43,-1.08 0.89,-1.46 l 0.09,-0.1 -0.84,1.42 0.03,-0.12 c 0.17,-0.77 0.67,-1.42 1.34,-1.78 l 0.1,-0.05 -0.87,0.72 0.1,-0.12 c 0.24,-0.28 0.53,-0.55 0.84,-0.72 l 0.1,-0.04 -1.13,1.2 0.02,-0.08 c 0.1,-0.16 0.17,-0.33 0.29,-0.45 l 0.1,-0.15 c 0.21,-0.28 0.5,-0.52 0.81,-0.69 l 0.1,-0.05 v 0 l 0.07,-0.05 -0.79,0.7 0.09,-0.12 -0.26,0.43 0.02,-0.05 c 0.22,-0.48 0.58,-0.86 1.06,-1.1 l 0.07,-0.05 c 0.15,-0.07 0.29,-0.14 0.46,-0.19 l 0.14,-0.05 -0.43,0.19 0.07,-0.05 c 0.6,-0.31 1.3,-0.33 1.9,-0.09 l 0.55,0.21 c 0.79,0.32 1.3,1.06 1.3,1.9 0,0.84 -0.51,1.58 -1.3,1.9 z"
         style="fill:#000000;fill-opacity:1;fill-rule:nonzero;stroke:none"
         transform="matrix(1.3333333,0,0,-1.3333333,0,1120.8)" />
    </g>
    <g
       id="g47"
       transform="translate(3.4050499,0.21281562)">
      <path
         id="path47"
         d="m 258.72,482.88 -0.1,0.02 c -1,0.29 -2.08,-0.26 -2.42,-1.27 -0.34,-1.01 0.17,-2.09 1.15,-2.47 1.01,-0.38 2.11,0.07 2.55,1.06 l 0.02,0.09 c 0.41,0.91 0.12,1.99 -0.72,2.57 l -0.05,0.02 0.77,-2.56 0.02,0.04 c 0.08,0.22 0.12,0.41 0.15,0.63 l 0.02,0.07 -0.24,-0.77 0.24,0.48 -0.19,-0.31 0.86,1.2 -0.02,-0.02 0.31,0.4 c 0.29,0.41 0.43,0.87 0.46,1.35 v 0.14 l -0.7,-1.61 0.15,0.12 v 0 l 0.14,0.17 v -0.02 l 0.14,0.14 v 0 l 0.15,0.15 c 0.19,0.16 0.33,0.38 0.43,0.6 l 0.07,0.14 -0.77,-0.89 0.22,0.15 0.19,0.16 0.43,0.34 -0.74,-0.41 0.19,0.07 c 0.24,0.08 0.48,0.2 0.67,0.34 l 0.29,0.22 -0.67,-0.34 0.24,0.07 0.29,0.12 0.31,0.15 v 0 l 0.26,0.14 -1.03,-0.24 h 0.29 c 0.36,0 0.72,0.07 1.03,0.24 l 0.29,0.12 -0.65,-0.19 0.87,0.14 -0.15,-0.02 0.7,0.07 h 0.02 l 0.7,0.07 -0.22,-0.02 h 0.72 l -0.24,0.02 0.72,-0.07 h 0.05 l 1.94,-0.17 -0.4,0.07 0.57,-0.14 v 0 l 0.58,-0.14 -0.24,0.07 0.55,-0.22 -0.1,0.05 0.51,-0.22 0.09,-0.04 0.58,-0.22 -0.34,0.17 0.51,-0.29 0.12,-0.07 0.55,-0.29 -0.26,0.17 1.36,-0.94 0.08,-0.05 0.57,-0.36 0.19,-0.12 0.58,-0.26 -0.19,0.1 0.55,-0.36 0.12,-0.08 0.65,-0.36 c 0.12,-0.07 0.26,-0.12 0.38,-0.16 l 0.65,-0.22 -0.12,0.05 1.44,-0.58 0.19,-0.07 0.72,-0.22 0.17,-0.02 0.65,-0.17 h 0.05 l 0.72,-0.17 c 0.14,-0.02 0.28,-0.02 0.45,-0.02 h 0.65 l -0.48,0.02 0.72,-0.14 c 0.17,-0.02 0.31,-0.05 0.48,-0.05 h 0.7 v 0 h 0.72 v 0 h 0.72 0.24 l 1.44,0.17 0.31,0.02 0.89,0.22 -0.17,-0.02 1.15,0.19 0.19,0.05 2.16,0.52 0.31,0.12 3.03,1.2 0.05,0.03 2.59,1.08 -0.53,-0.15 0.36,0.05 0.1,0.05 0.31,0.05 0.33,0.09 0.36,0.15 -0.98,-0.17 h 0.29 v 0 h 0.36 v 0 h 0.29 c 0.16,-0.02 0.36,0 0.52,0.02 l 0.36,0.08 -1.17,0.04 0.29,-0.07 c 0.19,-0.07 0.43,-0.09 0.64,-0.09 l 0.27,-0.03 h 0.02 0.36 v 0 h 0.27 l -0.65,0.1 0.77,-0.22 -0.15,0.05 1.06,-0.36 h -0.05 l 2.95,-1.08 -1.01,0.62 0.08,-0.07 c 0.28,-0.29 0.64,-0.53 1.05,-0.65 l 1.27,-0.45 -0.04,0.02 1.2,-0.45 0.38,-0.12 3,-0.68 -0.05,0.03 1.56,-0.39 -0.24,0.08 0.43,-0.15 c 0.29,-0.09 0.6,-0.14 0.89,-0.14 h 0.43 l -0.45,0.02 0.43,-0.07 v 0 l 0.43,-0.07 h 0.07 l 0.48,-0.07 0.41,-0.03 h 0.36 v 0 h 0.51 c 0.16,0 0.31,0 0.45,0.03 l 0.43,0.07 -0.12,-0.03 1.2,0.15 0.2,0.02 3.64,0.67 -0.26,-0.04 0.94,0.07 0.02,0.02 0.86,0.07 -0.24,-0.02 h 0.87 v 0 l 0.93,0.02 h -0.33 l 1.94,-0.19 0.34,-0.02 h 0.43 l -0.36,0.02 0.55,-0.07 c 1.54,-0.17 2.91,0.89 3.1,2.4 0.19,1.51 -0.89,2.9 -2.4,3.12 l -0.58,0.07 h -0.31 -0.43 0.26 l -1.92,0.22 -0.29,0.02 h -0.93 v 0 h -0.87 -0.21 l -0.89,-0.07 h 0.02 l -0.93,-0.05 -0.29,-0.05 -3.65,-0.62 0.15,0.02 -1.23,-0.14 -0.12,-0.02 -0.43,-0.08 0.46,0.03 h -0.51 v 0 h -0.36 l 0.41,-0.03 -0.5,0.08 0.04,-0.03 -0.43,0.07 h 0.03 l -0.44,0.1 c -0.14,0.02 -0.31,0.02 -0.48,0.02 h -0.43 l 0.91,-0.14 -0.43,0.14 -0.31,0.1 -1.56,0.31 h -0.02 l -3.03,0.65 0.31,-0.1 -1.22,0.41 h -0.05 l -1.29,0.43 1.1,-0.67 -0.07,0.07 c -0.29,0.29 -0.63,0.48 -1.01,0.63 l -2.93,1.05 -0.12,0.05 -1.08,0.34 -0.12,0.02 -0.77,0.22 c -0.24,0.07 -0.5,0.09 -0.76,0.07 h -0.27 v 0 h -0.36 -0.02 -0.27 l 0.65,-0.07 -0.29,0.07 c -0.38,0.07 -0.76,0.07 -1.17,0 l -0.34,-0.07 0.51,0.05 h -0.29 v 0 l -0.36,-0.03 v 0 h -0.29 c -0.34,0 -0.65,-0.07 -0.96,-0.19 l -0.34,-0.17 0.32,0.12 -0.29,-0.07 0.12,0.05 -0.36,-0.1 c -0.19,-0.02 -0.36,-0.12 -0.55,-0.19 l -2.55,-1.2 h 0.03 l -2.98,-1.37 0.38,0.15 -2.16,-0.58 0.15,0.02 -1.13,-0.24 -0.12,-0.02 -0.86,-0.22 0.36,0.05 -1.44,-0.14 0.24,0.02 h -0.72 v 0 h -0.72 v 0 l -0.7,-0.02 0.46,-0.03 -0.72,0.12 c -0.15,0.05 -0.32,0.05 -0.46,0.05 h -0.65 l 0.46,-0.05 -0.72,0.15 0.05,-0.03 -0.65,0.17 0.19,-0.05 -0.72,0.22 0.19,-0.1 -1.44,0.58 -0.12,0.07 -0.65,0.19 0.41,-0.16 -0.65,0.36 0.1,-0.08 -0.58,0.36 -0.19,0.12 -0.57,0.29 0.19,-0.12 -0.58,0.36 0.1,-0.05 -1.37,0.94 -0.29,0.14 -0.55,0.29 0.1,-0.05 -0.51,0.29 -0.33,0.15 -0.58,0.21 0.1,-0.02 -0.51,0.19 -0.09,0.05 -0.58,0.21 -0.24,0.08 -0.58,0.14 v 0 l -0.57,0.14 -0.41,0.08 -1.92,0.14 h 0.05 l -0.72,0.05 -0.22,0.02 h -0.72 l -0.24,-0.02 -0.72,-0.07 v 0 l -0.72,-0.08 -0.14,-0.02 -0.87,-0.14 c -0.24,-0.03 -0.45,-0.1 -0.67,-0.22 l -0.29,-0.14 1.06,0.26 h -0.29 c -0.36,-0.02 -0.72,-0.1 -1.05,-0.26 l -0.29,-0.15 v 0 l -0.29,-0.14 0.31,0.12 -0.21,-0.07 c -0.24,-0.1 -0.46,-0.2 -0.65,-0.34 l -0.29,-0.24 0.65,0.36 -0.22,-0.07 c -0.26,-0.1 -0.53,-0.24 -0.74,-0.41 l -0.41,-0.36 0.17,0.12 -0.22,-0.14 c -0.31,-0.22 -0.6,-0.56 -0.77,-0.92 l -0.07,-0.14 0.43,0.62 -0.14,-0.14 v 0 l -0.14,-0.14 v 0 l -0.15,-0.15 v 0 l -0.14,-0.17 c -0.43,-0.43 -0.67,-1.03 -0.67,-1.63 v -0.14 l 0.33,1.22 -0.26,-0.43 0.09,0.12 -0.86,-1.22 c -0.22,-0.34 -0.36,-0.7 -0.38,-1.11 l -0.08,-0.5 v -0.41 l 0.03,-0.07 c 0.02,-0.22 0.07,-0.41 0.14,-0.63 l 0.03,-0.04 c 0.24,-0.6 0.76,-1.06 1.39,-1.25 0.62,-0.17 1.29,-0.07 1.82,0.31 l 0.05,0.02 -1.68,-0.31 0.1,-0.05 c 0.33,-0.07 0.69,-0.07 1,0.05 h 0.1 c 0.82,0.27 1.39,1.03 1.39,1.9 0,0.86 -0.57,1.63 -1.39,1.87 z"
         style="fill:#000000;fill-opacity:1;fill-rule:nonzero;stroke:none"
         transform="matrix(1.3333333,0,0,-1.3333333,0,1120.8)" />
    </g>
    <g
       id="g48"
       transform="translate(3.4050499,0.21281562)">
      <path
         id="path48"
         d="m 255.55,488.71 1.8,-1.49 -0.05,0.05 1.06,-0.93 0.24,-0.2 0.43,-0.28 -0.77,0.86 0.15,-0.29 c 0.57,-1.1 1.92,-1.56 3.05,-1.01 1.1,0.58 1.56,1.95 1,3.05 l -0.14,0.29 c -0.17,0.36 -0.46,0.65 -0.77,0.89 l -0.43,0.26 0.22,-0.14 -1.08,0.91 -0.15,0.12 -1.92,1.37 c -0.96,0.67 -2.28,0.48 -3,-0.46 -0.72,-0.91 -0.57,-2.25 0.36,-3 z"
         style="fill:#000000;fill-opacity:1;fill-rule:nonzero;stroke:none"
         transform="matrix(1.3333333,0,0,-1.3333333,0,1120.8)" />
    </g>
    <g
       id="g49"
       transform="translate(3.4050499,0.21281562)">
      <path
         id="path49"
         d="m 269.47,491.54 -0.02,0.22 c -0.12,0.89 -0.84,1.58 -1.73,1.7 -0.91,0.1 -1.78,-0.4 -2.11,-1.22 l -0.58,-1.42 0.34,0.56 -0.22,-0.27 c -0.19,-0.21 -0.31,-0.45 -0.41,-0.72 l -0.07,-0.26 0.17,0.41 -0.17,-0.29 c -0.09,-0.17 -0.17,-0.36 -0.21,-0.55 l -0.24,-0.92 0.04,0.15 -0.24,-0.7 c -0.07,-0.19 -0.09,-0.38 -0.12,-0.6 v -0.14 c -0.02,-0.82 0.36,-1.59 1.06,-1.99 0.72,-0.41 1.58,-0.41 2.28,0 0.67,0.4 1.1,1.17 1.06,1.99 l -0.03,0.14 -0.05,-0.67 0.17,0.74 0.05,0.1 0.19,0.94 -0.12,-0.39 0.12,0.29 c 0.05,0.14 0.1,0.29 0.12,0.46 l 0.07,0.28 -0.33,-0.79 0.21,0.29 c 0.1,0.19 0.2,0.36 0.27,0.58 l 0.41,1.46 -0.51,-0.86 0.17,0.14 c 0.34,0.36 0.5,0.86 0.43,1.34 z"
         style="fill:#000000;fill-opacity:1;fill-rule:nonzero;stroke:none"
         transform="matrix(1.3333333,0,0,-1.3333333,0,1120.8)" />
    </g>
  </g>
</svg>
