<?xml version="1.0" encoding="UTF-8" standalone="no"?>
<svg
   width="3507"
   height="1993"
   viewBox="0 -32 3507 1993"
   version="1.1"
   id="svg1"
   sodipodi:docname="cuneiform_internet.svg"
   xmlns:inkscape="http://www.inkscape.org/namespaces/inkscape"
   xmlns:sodipodi="http://sodipodi.sourceforge.net/DTD/sodipodi-0.dtd"
   xmlns="http://www.w3.org/2000/svg"
   xmlns:svg="http://www.w3.org/2000/svg">
  <defs
     id="defs1" />
  <sodipodi:namedview
     id="namedview1"
     pagecolor="#ffffff"
     bordercolor="#000000"
     borderopacity="0.25"
     inkscape:showpageshadow="2"
     inkscape:pageopacity="0.0"
     inkscape:pagecheckerboard="0"
     inkscape:deskcolor="#d1d1d1">
    <inkscape:page
       x="0"
       y="0"
       width="3507"
       height="1993"
       id="page2"
       margin="0"
       bleed="0" />
  </sodipodi:namedview>
  <title
     id="title1">Assyrian cuneiform U12072 MesZL 736</title>
  <path
     d="m 3475,1550 h -756 v 379 h -102 v -379 h -414 c -160,0 -160,0 -337,123 -98,68 -98,68 -282,252 85,-217 85,-217 88,-426 1,-106 1,-106 -15,-197 -18,-99 -18,-99 -73,-233 172,178 172,178 283,255 178,124 178,124 336,124 h 414 V 655 l -9,-69 h -397 c -168,0 -168,0 -347,123 -117,80 -117,80 -280,249 81,-207 81,-207 84,-426 1,-113 1,-113 -12,-194 -16,-96 -16,-96 -72,-232 104,104 104,104 137,135 79,74 79,74 147,122 170,120 170,120 343,120 h 383 c -42,-159 -42,-159 -156,-306 -54,-57 -54,-57 -159,-175 54,17 54,17 163,46 98,21 98,21 228,21 193,0 193,0 301,-37 49,-17 49,-17 92,-30 -53,52 -53,52 -159,171 -121,151 -121,151 -162,310 h 733 v 103 h -748 l -8,67 v 795 h 756 z M 1578,0 c -66,62 -66,62 -198,212 -144,193 -144,193 -144,417 V 1929 H 1134 V 629 c 0,-207 0,-207 -143,-407 -23,-32 -23,-32 -201,-222 55,18 55,18 167,48 100,21 100,21 230,21 139,0 139,0 216,-17 21,-5 21,-5 175,-52 z M 753,1538 c 0,34 0,34 -9,40.5 -9,6.5 -9,6.5 -44,6.5 L 319,1216 C 161,1093 161,1093 32,1034 v -31 C 160,935 160,935 317,821 L 698,448 c 37,0 37,0 46,6.5 9,6.5 9,6.5 9,40.5 L 618,629 c -105,173 -105,173 -105,391 0,215 0,215 109,383 z"
     id="path1"
     style="opacity:1;fill:#ffffff;fill-opacity:1" />
  <!-- Glyph: uF5570 Extrema: 32 0 3475 1929 -->
</svg>
