<?xml version="1.0" encoding="UTF-8" standalone="no"?>
<svg xmlns="http://www.w3.org/2000/svg" width="3507" height="1993" viewBox="0 -32 3507 1993">
<title>Assyrian cuneiform U12072 MesZL 736</title>
<path transform="translate(0,1929)scale(1,-1)" d="M3475,379
H2719
V0
H2617
V379
H2203
C2043,379,2043,379,1866,256
C1768,188,1768,188,1584,4
C1669,221,1669,221,1672,430
C1673,536,1673,536,1657,627
C1639,726,1639,726,1584,860
C1756,682,1756,682,1867,605
C2045,481,2045,481,2203,481
H2617
V1274
L2608,1343
H2211
C2043,1343,2043,1343,1864,1220
C1747,1140,1747,1140,1584,971
C1665,1178,1665,1178,1668,1397
C1669,1510,1669,1510,1656,1591
C1640,1687,1640,1687,1584,1823
C1688,1719,1688,1719,1721,1688
C1800,1614,1800,1614,1868,1566
C2038,1446,2038,1446,2211,1446
H2594
C2552,1605,2552,1605,2438,1752
C2384,1809,2384,1809,2279,1927
C2333,1910,2333,1910,2442,1881
C2540,1860,2540,1860,2670,1860
C2863,1860,2863,1860,2971,1897
C3020,1914,3020,1914,3063,1927
C3010,1875,3010,1875,2904,1756
C2783,1605,2783,1605,2742,1446
H3475
V1343
H2727
L2719,1276
V481
H3475
V379Z
M1578,1929
C1512,1867,1512,1867,1380,1717
C1236,1524,1236,1524,1236,1300
V0
H1134
V1300
C1134,1507,1134,1507,991,1707
C968,1739,968,1739,790,1929
C845,1911,845,1911,957,1881
C1057,1860,1057,1860,1187,1860
C1326,1860,1326,1860,1403,1877
C1424,1882,1424,1882,1578,1929Z
M753,391
C753,357,753,357,744,350.5
C735,344,735,344,700,344
L319,713
C161,836,161,836,32,895
V926
C160,994,160,994,317,1108
L698,1481
C735,1481,735,1481,744,1474.5
C753,1468,753,1468,753,1434
L618,1300
C513,1127,513,1127,513,909
C513,694,513,694,622,526
L753,391Z"/>
<!-- Glyph: uF5570 Extrema: 32 0 3475 1929 --></svg>
