<?xml version="1.0" encoding="UTF-8" standalone="no"?>
<!-- Created with Inkscape (http://www.inkscape.org/) -->

<svg
   version="1.1"
   id="svg1"
   width="3840"
   height="3840"
   viewBox="0 0 3840 3840"
   sodipodi:docname="dingir_favicon.svg"
   inkscape:export-filename="dingir.svg"
   inkscape:export-xdpi="96"
   inkscape:export-ydpi="96"
   inkscape:version="1.4.3 (0d15f75, 2025-12-25)"
   xmlns:inkscape="http://www.inkscape.org/namespaces/inkscape"
   xmlns:sodipodi="http://sodipodi.sourceforge.net/DTD/sodipodi-0.dtd"
   xmlns="http://www.w3.org/2000/svg"
   xmlns:svg="http://www.w3.org/2000/svg">
  <defs
     id="defs1" />
  <sodipodi:namedview
     id="namedview1"
     pagecolor="#ffffff"
     bordercolor="#000000"
     borderopacity="0.25"
     inkscape:showpageshadow="2"
     inkscape:pageopacity="0.0"
     inkscape:pagecheckerboard="0"
     inkscape:deskcolor="#d1d1d1"
     showguides="false"
     inkscape:zoom="0.17162091"
     inkscape:cx="1404.2578"
     inkscape:cy="2263.7101"
     inkscape:window-width="1920"
     inkscape:window-height="1191"
     inkscape:window-x="-9"
     inkscape:window-y="-9"
     inkscape:window-maximized="1"
     inkscape:current-layer="g1" />
  <g
     inkscape:groupmode="layer"
     inkscape:label="Image"
     id="g1">
    <path
       style="fill:#008000;fill-opacity:1;stroke-width:30.1272"
       id="path2"
       d="M 3840,1919.9987 C 3840,3630.6313 3630.6325,3840 1920,3840 209.36753,3840 0,3630.6313 0,1919.9987 0,209.366 209.36753,0 1920,0 3630.6325,0 3840,209.366 3840,1919.9987 Z" />
    <path
       style="fill:#ffffff;fill-opacity:1;stroke-width:0.815628"
       d="m 2274.4755,2955.2503 c 0,0 -18.1694,-1462.0497 -17.8412,-1478.476 0.3285,-16.4262 -0.6565,-65.1666 -9.5219,-102.0583 -8.8652,-36.8919 -34.1476,-128.9869 -76.5037,-196.3077 -42.3562,-67.3209 -105.0697,-152.953 -179.275,-220.00455 -74.2053,-67.05158 -119.1884,-123.87039 -127.0686,-136.25743 -7.8802,-12.38704 -1.6417,-34.199 4.2684,-42.81606 5.9101,-8.61708 23.3124,-18.04199 23.3124,-18.04199 0,0 283.4762,58.20597 436.7106,55.15938 153.2344,-3.04659 198.7404,-14.0905 241.4602,-21.32616 42.7198,-7.23565 172.2726,-39.98654 172.2726,-39.98654 0,0 21.3599,10.85348 35.7546,31.41799 14.3947,20.56452 14.3947,35.9879 12.5373,41.31945 -1.8573,5.33153 -40.6303,42.08107 -58.5076,56.93323 -17.8773,14.85215 -94.4945,79.9731 -114.6936,99.77596 -20.1991,19.80292 -77.0814,78.44982 -115.8545,135.38292 -38.7729,56.9333 -98.6735,179.3684 -97.7448,214.0234 0.9287,34.655 6.6286,1606.4519 6.6286,1606.4519 0,0 -26.924,33.3911 -64.6835,33.1218 -37.7593,-0.2693 -71.2503,-18.3113 -71.2503,-18.3113 z"
       id="path4"
       sodipodi:nodetypes="csssssscsscsssssscsc" />
    <path
       style="fill:#ffffff;fill-opacity:1;stroke-width:0.832018"
       d="m 3241.3621,2049.1065 c 0,0 -1348.9361,14.462 -1365.3637,14.2516 -16.4277,-0.2104 -65.1619,1.204 -102.0072,10.7236 -36.8453,9.5197 -128.808,36.5635 -195.9087,81.1761 -67.1009,44.6125 -152.4075,110.5545 -219.0745,188.3062 -66.6671,77.7518 -123.2526,125.0137 -135.5987,133.3125 -12.3461,8.299 -34.1898,1.9816 -42.8373,-4.0994 -8.6474,-6.0811 -18.162,-24.1142 -18.162,-24.1142 0,0 56.7411,-295.4427 52.9034,-454.8699 -3.8378,-159.427 -15.1165,-206.6912 -22.5726,-251.0865 -7.4561,-44.3953 -40.8754,-178.9428 -40.8754,-178.9428 0,0 10.7431,-22.3132 31.2328,-37.4562 20.4898,-15.1431 35.9129,-15.2664 41.2538,-13.3762 5.3411,1.8903 42.2901,41.9426 57.2343,60.4267 14.9442,18.484 80.4596,97.6894 100.3663,118.5499 19.9068,20.8605 78.8462,79.5822 135.9786,119.4736 57.1323,39.8913 179.8743,101.2441 214.5238,100.0009 34.6495,-1.2433 1493.395,-3.6067 1493.395,-3.6067 0,0 33.5295,27.7498 33.4551,67.0433 -0.074,39.2936 -17.943,74.2875 -17.943,74.2875 z"
       id="path4-2"
       sodipodi:nodetypes="csssssscsscsssssscsc" />
    <path
       style="fill:#ffffff;fill-opacity:1;stroke-width:0.832018"
       d="m 1421.9845,2083.4791 c 0,0 -169.9513,-9.1081 -186.3789,-9.3186 -16.4278,-0.2104 -65.1619,1.204 -102.0072,10.7237 -36.8453,9.5196 -128.8081,36.5634 -195.9088,81.176 -67.1009,44.6125 -152.40746,110.5545 -219.07454,188.3062 -66.66708,77.7518 -123.25248,125.0137 -135.59863,133.3125 -12.34608,8.299 -34.18982,1.9816 -42.83723,-4.0994 -8.64741,-6.0811 -18.16206,-24.1141 -18.16206,-24.1141 0,0 56.7411,-295.4428 52.90334,-454.87 -3.83775,-159.427 -15.11642,-206.6912 -22.57255,-251.0865 -7.45605,-44.3953 -40.87533,-178.9428 -40.87533,-178.9428 0,0 10.74301,-22.3132 31.23275,-37.4562 20.48982,-15.1431 35.91285,-15.2663 41.25388,-13.3762 5.34104,1.8903 42.29005,41.9426 57.23422,60.4267 14.94418,18.484 80.45953,97.6895 100.36626,118.5499 19.90681,20.8605 78.84621,79.5822 135.97859,119.4736 57.13229,39.8913 179.8743,101.2441 214.5239,100.001 34.6494,-1.2434 314.4102,19.9634 314.4102,19.9634 0,0 33.5295,27.7497 33.4552,67.0433 -0.074,39.2936 -17.9431,74.2875 -17.9431,74.2875 z"
       id="path4-2-2"
       sodipodi:nodetypes="csssssscsscsssssscsc" />
  </g>
</svg>
